<svg width="110" height="110" viewBox="0 0 110 110" fill="none" xmlns="http://www.w3.org/2000/svg">
<g filter="url(#filter0_d_26003_109236)">
<rect x="20" y="8" width="70" height="70" rx="12" fill="white" shape-rendering="crispEdges"/>
<g clip-path="url(#clip0_26003_109236)">
<g clip-path="url(#clip1_26003_109236)">
<g clip-path="url(#clip2_26003_109236)">
<path fill-rule="evenodd" clip-rule="evenodd" d="M34.2836 62.1455L31.9273 68.4291H30.3564L28 62.1455H29.5709L31.1418 66.3673L32.7127 62.1455H34.2836ZM36.5418 61.4582H34.9709V59.8873H36.5418V61.4582ZM36.5418 68.4291H34.9709V62.1455H36.5418V68.4291ZM49.0109 68.4291H47.5382C47.5382 68.2327 47.44 68.0364 47.44 67.84C47.0473 68.2327 46.4582 68.4291 45.6727 68.4291C45.0836 68.4291 44.6909 68.3309 44.2982 68.0364C43.9055 67.7418 43.6109 67.2509 43.7091 66.76C43.7091 65.9745 44.0036 65.3855 44.6909 65.0909C44.9855 64.8945 45.5745 64.7964 46.4582 64.6982C47.0473 64.6 47.44 64.4036 47.44 64.2073C47.44 64.0109 47.3418 63.8145 47.1455 63.6182C46.9491 63.52 46.7527 63.4218 46.4582 63.4218C46.1636 63.4218 45.9673 63.52 45.7709 63.6182C45.5745 63.8145 45.3782 64.0109 45.3782 64.3055H43.9055C43.9055 63.8145 44.0036 63.4218 44.2982 63.1273C44.4945 62.8327 44.7891 62.6364 45.28 62.44C45.6727 62.2436 46.1636 62.2436 46.6545 62.2436C48.3236 62.2436 49.2073 63.0291 49.2073 64.6982L49.0109 68.4291ZM47.3418 65.3855C47.1455 65.4836 46.9491 65.5818 46.4582 65.68C45.9673 65.7782 45.6727 65.8764 45.5745 65.8764C45.28 65.9745 45.1818 66.2691 45.1818 66.6618C45.1818 67.1527 45.3782 67.3491 45.8691 67.3491C46.36 67.3491 46.7527 67.1527 47.0473 66.8582C47.2436 66.6618 47.2436 66.3673 47.2436 65.9745V65.68C47.3418 65.68 47.3418 65.3855 47.3418 65.3855ZM56.08 65.3855C56.08 66.1709 55.8836 66.9564 55.4909 67.4473C55 68.0364 54.2145 68.4291 53.4291 68.4291C52.6436 68.4291 51.9564 68.1345 51.4655 67.5455V70H49.8945V62.2436H51.4655V63.1273C51.4655 63.1273 52.2509 62.2436 53.3309 62.2436C53.8218 62.2436 54.4109 62.44 54.8036 62.7345C55.2945 63.0291 55.5891 63.4218 55.7855 63.8145C55.9818 64.2073 56.08 64.7964 56.08 65.3855ZM54.3127 65.3855C54.3127 64.2073 53.8218 63.6182 52.84 63.6182C51.8582 63.6182 51.3673 64.2073 51.3673 65.4836C51.3673 65.9745 51.4655 66.4655 51.8582 66.76C52.1527 67.0545 52.4473 67.1527 52.84 67.1527C53.2327 67.1527 53.5273 66.9564 53.8218 66.6618C54.2145 66.3673 54.3127 65.9745 54.3127 65.3855ZM62.3636 68.4291H60.7927V64.6C60.797 64.2942 60.7297 63.9916 60.5964 63.7164C60.4 63.52 60.1055 63.4218 59.8109 63.4218C59.4182 63.4218 59.1236 63.52 58.9273 63.8145C58.7309 64.1091 58.6327 64.4036 58.6327 64.7964V68.4291H57.0618V59.7891H58.6327V63.0291C58.7309 62.7345 59.0255 62.5382 59.32 62.44C59.6145 62.2436 60.0073 62.2436 60.4 62.2436C60.9891 62.2436 61.48 62.44 61.8727 62.7345C62.3636 63.0291 62.56 63.52 62.56 64.2073L62.3636 68.4291ZM75.6182 68.4291H74.0473V64.6C74.0515 64.2942 73.9843 63.9916 73.8509 63.7164C73.6545 63.52 73.4582 63.4218 73.0655 63.4218C72.6727 63.4218 72.3782 63.52 72.1818 63.8145C71.9855 64.1091 71.8873 64.4036 71.8873 64.7964V68.4291H70.2182V62.1455H71.7891V63.0291C71.8873 62.7345 72.0836 62.5382 72.4764 62.44C72.7709 62.2436 73.1636 62.2436 73.5564 62.2436C74.1455 62.2436 74.6364 62.44 75.0291 62.7345C75.52 63.0291 75.7164 63.52 75.7164 64.2073L75.6182 68.4291ZM42.8255 68.4291H41.2545V64.6C41.2588 64.2942 41.1916 63.9916 41.0582 63.7164C40.8618 63.52 40.6655 63.4218 40.1745 63.4218C39.7818 63.4218 39.4873 63.52 39.2909 63.8145C39.0945 64.1091 38.9964 64.4036 38.9964 64.7964V68.4291H37.3273V62.1455H38.8982V63.0291C38.9964 62.7345 39.2909 62.5382 39.5855 62.44C39.88 62.2436 40.2727 62.2436 40.6655 62.2436C41.2545 62.2436 41.7455 62.44 42.1382 62.7345C42.5309 63.0291 42.8255 63.52 42.8255 64.2073V68.4291ZM81.9018 65.68H77.8764C77.8764 66.1709 78.0727 66.5636 78.3673 66.8582C78.76 67.2509 79.3491 67.3491 79.84 67.0545C80.0364 66.9564 80.1345 66.76 80.2327 66.5636H81.8036C81.5091 67.7418 80.4291 68.5273 79.2509 68.4291C77.2873 68.4291 76.3055 67.3491 76.3055 65.1891C76.3055 64.3055 76.5018 63.52 77.0909 63.0291C77.5818 62.44 78.3673 62.1455 79.1527 62.2436C81.0182 62.1455 81.9018 63.3236 81.9018 65.68ZM80.3309 64.6982C80.3309 64.3055 80.1345 64.0109 79.9382 63.7164C79.7418 63.52 79.4473 63.4218 79.1527 63.4218C78.8582 63.4218 78.6618 63.52 78.3673 63.7164C78.1709 63.9127 77.9745 64.3055 77.8764 64.6982H80.3309ZM69.6291 65.3855C69.6291 66.3673 69.3345 67.1527 68.7455 67.7418C68.1564 68.3309 67.3709 68.6255 66.3891 68.6255C65.5055 68.6255 64.6218 68.3309 64.0327 67.7418C63.4436 67.1527 63.1491 66.2691 63.1491 65.3855C63.1491 64.4036 63.4436 63.6182 64.0327 63.0291C64.6218 62.44 65.4073 62.1455 66.3891 62.1455C67.3709 62.1455 68.1564 62.44 68.7455 63.0291C69.3345 63.6182 69.6291 64.4036 69.6291 65.3855ZM68.1564 65.3855C68.1564 64.1091 67.5673 63.52 66.3891 63.52C65.2109 63.52 64.6218 64.1091 64.6218 65.3855C64.6218 66.6618 65.2109 67.2509 66.3891 67.2509C67.5673 67.2509 68.1564 66.6618 68.1564 65.3855ZM78.76 28.5673C78.0727 29.4509 77.1891 30.04 76.2073 30.4327C75.2255 30.8255 74.1455 30.8255 73.0655 30.8255C66.1927 31.12 64.2291 35.2436 63.2473 40.7418C63.0509 41.7236 62.6582 42.6073 62.0691 43.3927C61.3818 44.1782 60.4982 44.8655 59.5164 45.16C58.4364 45.4545 57.16 45.3564 56.08 45.5527C55 45.7491 53.92 46.0436 53.1345 46.9273C52.3491 47.8109 52.2509 49.48 52.4473 50.6582C52.7418 51.9345 52.3491 53.3091 51.5636 54.2909C50.7782 55.2727 49.6 55.8618 48.3236 55.8618C45.9673 55.8618 44.1018 53.8982 44.1018 51.5418C44.1018 51.1491 44.1018 50.7564 44.2 50.3636C44.4945 49.2836 45.0836 48.3018 46.0655 47.7127C47.44 46.8291 49.3055 47.2218 50.68 46.24C51.4655 45.5527 52.0545 44.5709 52.2509 43.4909C52.4473 43 52.5455 42.5091 52.5455 41.8218C52.5455 40.6436 52.2509 39.3673 51.8582 38.2873C50.1891 33.9673 45.0836 31.7091 40.7636 31.12C39.5855 30.9236 38.3091 31.0218 37.0327 30.9236C36.5418 30.9236 36.0509 30.8255 35.56 30.7273C34.3818 30.5309 33.3018 30.04 32.4182 29.3527C29.4727 26.8 28.8836 22.48 31.0436 19.24L31.24 18.9455L31.3382 18.7491L31.4364 18.6509C32.9091 16.9818 34.9709 16 37.1309 16C38.8 16 40.4691 16.5891 41.7455 17.7673C43.3164 19.1418 43.8073 21.0073 44.4945 22.9709C45.6727 26.7018 48.1273 31.12 51.3673 33.3782C53.0364 34.6545 55.0982 35.2436 57.2582 35.2436C61.5782 35.2436 65.1127 32.7891 66.7818 28.8618C67.1745 27.9782 67.4691 26.9964 67.5673 26.0145C67.7636 24.9345 67.6655 23.9527 67.8618 22.8727C68.0582 21.8909 68.4509 21.0073 69.04 20.2218C70.2182 18.7491 71.9855 17.8655 73.8509 17.8655C77.1891 17.8655 79.9382 20.5164 80.0364 23.8545C80.2327 25.5236 79.7418 27.1927 78.76 28.5673Z" fill="#00AEEF"/>
</g>
</g>
</g>
</g>
<defs>
<filter id="filter0_d_26003_109236" x="0" y="0" width="110" height="110" filterUnits="userSpaceOnUse" color-interpolation-filters="sRGB">
<feFlood flood-opacity="0" result="BackgroundImageFix"/>
<feColorMatrix in="SourceAlpha" type="matrix" values="0 0 0 0 0 0 0 0 0 0 0 0 0 0 0 0 0 0 127 0" result="hardAlpha"/>
<feOffset dy="12"/>
<feGaussianBlur stdDeviation="10"/>
<feComposite in2="hardAlpha" operator="out"/>
<feColorMatrix type="matrix" values="0 0 0 0 0 0 0 0 0 0 0 0 0 0 0 0 0 0 0.05 0"/>
<feBlend mode="normal" in2="BackgroundImageFix" result="effect1_dropShadow_26003_109236"/>
<feBlend mode="normal" in="SourceGraphic" in2="effect1_dropShadow_26003_109236" result="shape"/>
</filter>
<clipPath id="clip0_26003_109236">
<rect width="54" height="54" fill="white" transform="translate(28 16)"/>
</clipPath>
<clipPath id="clip1_26003_109236">
<rect width="54" height="54" fill="white" transform="translate(28 16)"/>
</clipPath>
<clipPath id="clip2_26003_109236">
<rect width="54" height="54" fill="white" transform="translate(28 16)"/>
</clipPath>
</defs>
</svg>
