<svg width="110" height="110" viewBox="0 0 110 110" fill="none" xmlns="http://www.w3.org/2000/svg">
<g filter="url(#filter0_d_26003_109222)">
<rect x="20" y="8" width="70" height="70" rx="12" fill="white" shape-rendering="crispEdges"/>
<g clip-path="url(#clip0_26003_109222)">
<g clip-path="url(#clip1_26003_109222)">
<g clip-path="url(#clip2_26003_109222)">
<path d="M48.3238 62.6359V58.5122C48.3238 58.4141 48.6184 58.4141 48.7166 58.4141C48.9129 58.4141 49.1093 58.4141 49.1093 58.5122V69.8032C49.1093 69.9013 48.8147 69.9013 48.7166 69.9013C48.5202 69.9013 48.3238 69.9013 48.3238 69.8032V68.625C47.9311 69.3122 47.1456 69.9995 45.8693 69.9995C44.102 69.9995 42.9238 69.0177 42.9238 67.0541V64.4032C42.9238 62.4395 44.102 61.4577 45.7711 61.4577C47.0475 61.3595 47.9311 61.9486 48.3238 62.6359ZM48.3238 67.1522V64.305C48.3238 62.9304 47.342 62.145 45.9675 62.145C44.6911 62.145 43.8075 62.7341 43.8075 64.5013V66.8577C43.8075 68.625 44.7893 69.2141 46.1638 69.2141C47.342 69.2141 48.3238 68.2322 48.3238 67.1522ZM52.9384 69.8032C51.7602 69.8032 51.3675 69.1159 51.3675 68.2322V62.4395H50.1893C50.0911 62.4395 50.0911 62.2432 50.0911 62.145C50.0911 61.9486 50.0911 61.7522 50.1893 61.7522H51.3675V59.7886C51.3675 59.6904 51.662 59.6904 51.7602 59.6904C51.9566 59.6904 52.1529 59.6904 52.1529 59.7886V61.7522H53.9202C54.0184 61.7522 54.0184 61.9486 54.0184 62.145C54.0184 62.3413 54.0184 62.4395 53.9202 62.4395H52.1529V68.2322C52.1529 68.9195 52.4475 69.1159 53.1347 69.1159H54.0184C54.1166 69.1159 54.1166 69.1159 54.1166 69.4104C54.1166 69.705 54.1166 69.8032 54.0184 69.8032H52.9384ZM60.4002 69.9013C60.2038 69.9013 60.0075 69.9013 60.0075 69.8032V68.9195C59.5166 69.4104 58.5347 69.9995 57.3566 69.9995C55.6875 69.9995 54.7056 69.0177 54.7056 67.545V67.1522C54.7056 65.2868 56.3747 64.4032 59.9093 64.8941V64.2068C59.9093 62.7341 59.3202 62.0468 57.9456 62.0468C57.1602 62.0468 56.3747 62.2432 55.6875 62.5377C55.4911 62.6359 55.1966 61.8504 55.3929 61.7522C55.982 61.4577 56.9638 61.2613 57.9456 61.2613C59.9093 61.2613 60.6947 62.2432 60.6947 64.1086V69.705C60.7929 69.9013 60.5966 69.9013 60.4002 69.9013ZM60.0075 65.5813C56.8656 65.0904 55.5893 65.6795 55.5893 67.1522V67.545C55.5893 68.7232 56.4729 69.2141 57.4547 69.2141C58.4366 69.2141 59.3202 68.7232 60.0075 68.0359V65.5813ZM62.2656 67.0541V64.4032C62.2656 62.4395 63.4438 61.4577 65.3093 61.4577C66.3893 61.4577 67.1747 61.8504 67.862 62.3413C68.0584 62.5377 67.6656 63.1268 67.4693 63.0286C67.2729 62.9304 66.3893 62.2432 65.3093 62.2432C63.8366 62.2432 63.0511 63.0286 63.0511 64.5995V66.9559C63.0511 68.5268 63.8366 69.3122 65.3093 69.3122C66.3893 69.3122 67.0766 68.8213 67.4693 68.5268C67.6656 68.4286 67.9602 69.0177 67.862 69.1159C67.3711 69.6068 66.2911 70.0977 65.2111 70.0977C63.4438 69.9995 62.2656 68.9195 62.2656 67.0541Z" fill="#231F20"/>
<path d="M54.9014 29.3536C55.5887 29.4518 55.6869 29.3536 55.7851 28.6664C55.9814 27.1936 56.4724 25.7209 57.1596 24.3464C58.0433 22.4809 59.516 20.5173 61.4796 19.1427C63.1487 18.0627 65.996 16.7864 68.156 16.2955C69.7269 16.0009 71.396 15.8046 72.9669 16.0009C75.9124 16.2955 77.4833 17.0809 78.2687 18.1609C78.5633 18.5536 78.7596 19.0446 78.7596 19.3391C78.7596 19.83 78.5633 20.5173 77.7778 21.2046C77.0905 21.8918 75.4214 22.6773 73.2614 23.4627C71.0033 24.15 67.9596 24.9355 64.8178 25.6227C63.0505 26.0155 61.2833 26.5064 59.516 27.0955C57.4542 27.7827 56.7669 29.6482 58.1415 30.3355C59.516 31.0227 60.8905 31.9064 62.0687 32.8882C63.5415 34.0664 65.2105 35.4409 67.3705 37.9936C69.236 40.2518 72.3778 44.67 73.556 48.8918C74.8324 53.5064 74.0469 58.0227 71.2978 59.2009C68.6469 60.3791 65.1124 58.71 62.6578 56.1573C60.3014 53.8009 58.6324 50.9536 57.1596 46.6336C55.7851 42.9027 55.2942 37.5027 55.2942 34.6555V32.6918C55.3924 31.5136 52.5451 31.8082 51.1705 32.6918C48.716 34.2627 46.2614 37.11 44.7887 38.7791C44.1996 39.4664 43.316 40.5464 42.4324 41.6264C41.2542 43.0991 39.9778 44.5718 38.7014 45.4555C36.9342 46.7318 33.9887 47.2227 32.0251 45.8482C30.9451 45.0627 30.2578 43.59 30.2578 42.0191C30.2578 40.9391 30.5524 39.9573 31.0433 39.0736C31.7305 37.8955 32.8105 36.6191 34.5778 35.2446C36.4433 33.7718 39.2905 32.1027 42.236 30.9246C46.9487 29.3536 51.7596 28.7646 54.9014 29.3536Z" fill="#00AEEF"/>
</g>
</g>
</g>
</g>
<defs>
<filter id="filter0_d_26003_109222" x="0" y="0" width="110" height="110" filterUnits="userSpaceOnUse" color-interpolation-filters="sRGB">
<feFlood flood-opacity="0" result="BackgroundImageFix"/>
<feColorMatrix in="SourceAlpha" type="matrix" values="0 0 0 0 0 0 0 0 0 0 0 0 0 0 0 0 0 0 127 0" result="hardAlpha"/>
<feOffset dy="12"/>
<feGaussianBlur stdDeviation="10"/>
<feComposite in2="hardAlpha" operator="out"/>
<feColorMatrix type="matrix" values="0 0 0 0 0 0 0 0 0 0 0 0 0 0 0 0 0 0 0.05 0"/>
<feBlend mode="normal" in2="BackgroundImageFix" result="effect1_dropShadow_26003_109222"/>
<feBlend mode="normal" in="SourceGraphic" in2="effect1_dropShadow_26003_109222" result="shape"/>
</filter>
<clipPath id="clip0_26003_109222">
<rect width="54" height="54" fill="white" transform="translate(28 16)"/>
</clipPath>
<clipPath id="clip1_26003_109222">
<rect width="54" height="54" fill="white" transform="translate(28 16)"/>
</clipPath>
<clipPath id="clip2_26003_109222">
<rect width="54" height="54" fill="white" transform="translate(28 16)"/>
</clipPath>
</defs>
</svg>
