<svg width="110" height="110" viewBox="0 0 110 110" fill="none" xmlns="http://www.w3.org/2000/svg">
<g filter="url(#filter0_d_26003_109241)">
<rect x="20" y="8" width="70" height="70" rx="12" fill="white" shape-rendering="crispEdges"/>
<g clip-path="url(#clip0_26003_109241)">
<g clip-path="url(#clip1_26003_109241)">
<path d="M68.5487 38.5818C68.156 38.2873 67.6651 37.8945 67.3706 37.6C67.4687 37.4036 67.6651 37.0109 67.8615 36.7164C68.9415 35.0473 71.0033 31.8073 71.0033 27.2909C71.0033 24.64 70.1196 21.7927 67.8615 19.6327C65.7996 17.4727 62.3633 16 57.2578 16C52.4469 16 47.0469 17.6691 42.3342 20.6145C40.2724 21.8909 38.5051 23.3636 37.3269 24.7382C36.1487 26.1127 35.4615 27.3891 35.4615 28.4691C35.4615 29.0582 35.6578 29.5491 36.0506 29.9418C36.7378 30.6291 37.916 31.0218 39.4869 31.12C41.0578 31.3164 42.9233 31.3164 44.9851 31.3164H45.3778C48.5196 31.3164 50.6796 31.4145 52.1524 31.6109C52.8396 31.7091 53.3306 31.9055 53.7233 32.0036C54.0178 32.2 54.116 32.2982 54.116 32.4945C54.116 32.5927 54.0178 32.7891 53.8215 32.9855C53.1342 33.6727 51.3669 34.7527 49.796 35.9309C49.0106 36.52 48.2251 37.1091 47.636 37.7964C47.0469 38.3855 46.6542 39.0727 46.6542 39.76C46.6542 40.6436 47.0469 41.2327 47.7342 41.8218C49.6978 43.3927 53.7233 43.7855 55.7851 44.1782C57.0615 44.4727 57.7487 44.8655 58.1415 45.4545C58.5342 45.9455 58.5342 46.5345 58.5342 47.1236C58.5342 48.9891 57.8469 50.6582 56.6687 51.8364C55.5509 52.9611 54.0327 53.5967 52.4469 53.6036H52.2506C52.2506 53.2109 52.3487 52.8182 52.3487 52.5236C52.3487 50.2655 51.4651 48.4 50.0906 47.1236C48.526 45.7431 46.479 45.0372 44.396 45.16C43.1191 45.1514 41.8565 45.4291 40.7011 45.9728C39.5457 46.5165 38.5269 47.3124 37.7196 48.3018C36.1487 50.1673 35.3633 52.6218 35.3633 54.9782C35.3633 58.8073 37.0324 62.6364 40.2724 65.4836C43.5124 68.3309 48.2251 70 54.5087 70C59.516 70 64.5233 68.2327 68.3524 65.1891C71.4942 62.6364 75.2251 58.12 75.2251 50.56C75.3233 43.6873 70.9051 40.3491 68.5487 38.5818ZM48.716 39.0727C49.4033 38.2873 50.876 37.3055 51.956 36.52C53.036 35.8327 53.9196 35.1455 54.6069 34.5564C55.2942 33.8691 55.7851 33.28 55.7851 32.4945C55.7851 31.9055 55.5887 31.3164 55.196 30.9236C54.5087 30.1382 53.1342 29.8436 51.5633 29.6473C49.8942 29.4509 48.0287 29.4509 45.9669 29.4509H45.3778C43.7087 29.4509 42.3342 29.4509 41.3524 29.3527C42.8251 28.7636 44.4942 27.7818 46.3596 26.7018C49.4033 25.0327 52.7415 23.0691 55.8833 22.2836C54.9996 23.1673 54.5087 24.1491 54.5087 25.0327C54.5087 25.2291 54.6069 25.4255 54.7051 25.6218C54.9015 25.8182 55.0978 25.9164 55.3924 25.9164C55.9815 25.9164 56.5706 25.72 57.2578 25.4255C58.2396 25.0327 59.4178 24.64 60.596 24.64C61.676 24.64 62.8542 24.9345 64.1306 25.8182C63.3451 25.9164 62.6578 26.1127 62.1669 26.5055C61.676 26.8982 61.5778 27.2909 61.5778 27.5855C61.5778 28.0764 61.8724 28.4691 62.2651 28.96C62.9524 29.7455 63.7378 30.7273 63.7378 32.3964C63.7378 33.5745 63.3451 34.8509 62.6578 35.8327V35.6364C62.6578 34.8509 62.4615 33.8691 62.0687 33.3782C61.7742 33.0836 61.4796 32.8873 61.0869 32.8873C60.3996 32.8873 59.9087 33.3782 59.0251 34.1636C58.436 34.6545 57.6506 35.3418 56.7669 36.0291C52.8396 38.68 50.6796 39.6618 49.2069 39.8582C48.8142 39.8582 48.0287 39.8582 48.716 39.0727ZM52.3487 55.2727C54.6069 55.2727 56.4724 54.5855 57.8469 53.1127C59.4178 51.64 60.3015 49.3818 60.2033 47.0255C60.2033 45.8473 59.9087 44.9636 59.2215 44.1782C62.5596 44.9636 65.996 46.8291 67.9596 49.48C67.076 49.1855 66.4869 49.0873 65.8978 49.0873C65.3087 49.0873 64.8178 49.7745 64.8178 50.56C64.8178 50.9527 64.916 51.4436 65.1124 52.0327C65.4069 52.9164 65.7015 54.0945 65.7996 55.4691C65.7996 56.7455 65.5051 58.2182 64.5233 59.8873C64.5233 58.6109 64.1306 57.5309 63.7378 56.9418C63.4433 56.5491 63.0506 56.3527 62.756 56.3527C62.3633 56.3527 62.0687 56.5491 61.7742 56.8436C61.4796 57.1382 61.2833 57.6291 61.0869 58.12C60.2033 59.8873 58.7306 62.6364 54.2142 64.1091C54.6069 63.3236 54.8033 62.6364 54.8033 61.9491C54.8033 61.7527 54.8033 61.4582 54.7051 61.2618C54.6069 60.8691 54.3124 60.6727 53.9196 60.6727C53.4287 60.6727 52.8396 60.8691 52.1524 61.0655C51.0724 61.36 49.8942 61.7527 48.4215 61.7527C46.9487 61.7527 45.3778 61.36 43.8069 60.0836C44.396 59.9855 44.8869 59.7891 45.1815 59.4945C45.476 59.2 45.6724 58.9055 45.6724 58.5127C45.6724 57.9236 45.2796 57.5309 44.7887 57.1382C44.1015 56.4509 43.316 55.6655 43.316 54.2909C43.316 53.8982 43.4142 53.4073 43.5124 52.9164C43.6106 53.3091 43.9051 53.7018 44.1015 54.0945C44.4942 54.5855 44.9851 54.88 45.476 54.88C45.9669 54.88 46.2615 54.5855 46.4578 54.2909C46.556 53.9964 46.556 53.6036 46.556 53.3091C46.556 53.0145 46.6542 52.6218 46.9487 52.4255C47.1451 52.2291 47.5378 52.0327 47.8324 52.0327C48.6178 52.0327 49.2069 52.5236 49.5996 53.1127C50.2162 54.2563 50.3573 55.5968 49.9924 56.8436L49.796 57.3345L50.1887 57.04C50.876 56.4509 51.3669 55.6655 51.6615 55.0764C51.956 55.2727 52.1524 55.2727 52.3487 55.2727ZM37.5233 29.0582C37.3269 28.96 37.1306 28.7636 37.1306 28.5673C37.1306 27.88 37.7196 26.8982 38.7996 25.72C42.0396 22.2836 49.5015 17.8655 57.2578 17.8655C61.1851 17.8655 64.4251 18.8473 66.4869 20.8109C68.3524 22.48 69.3342 24.8364 69.3342 27.3891C69.3342 31.4145 67.5669 34.1636 66.4869 35.8327C65.8978 36.7164 65.6033 37.2073 65.6033 37.6982C65.6033 38.1891 65.7996 38.4836 66.0942 38.8764C66.3887 39.2691 66.8796 39.5636 67.4687 40.0545C69.7269 41.8218 73.4578 44.6691 73.4578 50.6582C73.4578 57.4327 70.1196 61.5564 67.2724 63.8145C63.6082 66.6995 59.0741 68.257 54.4106 68.2327C42.8251 68.2327 36.836 61.4582 36.836 54.88C36.836 52.9164 37.5233 50.8545 38.7996 49.3818C40.076 47.9091 41.9415 46.8291 44.1996 46.8291C45.476 46.8291 47.1451 47.1236 48.4215 48.0073C49.6978 48.8909 50.6796 50.4618 50.6796 52.8182V53.0145C50.5815 52.72 50.3851 52.4255 50.1887 52.1309C49.6978 51.5418 49.0106 50.9527 47.8324 50.9527C46.556 50.9527 45.5742 52.0327 45.5742 53.3091C45.5742 53.5055 45.5742 53.7018 45.476 53.8V53.8982C45.1815 53.8982 44.7887 53.7018 44.4942 53.2109C44.1996 52.72 44.0033 52.1309 44.0033 51.2473V50.3636L43.8069 50.6582C42.8448 51.6679 42.2859 52.9952 42.236 54.3891C42.236 56.1564 43.316 57.4327 44.0033 58.0218L44.396 58.4145C44.4942 58.5127 44.4942 58.5127 44.4942 58.6109V58.7091C44.4942 58.8073 44.396 58.9055 44.1015 59.1018C43.8069 59.2 43.2178 59.3964 42.4324 59.3964H41.2542L41.4506 59.5927C43.7087 62.3418 46.1633 63.1273 48.2251 63.1273C49.796 63.1273 51.1706 62.7345 52.1524 62.44C52.5451 62.3418 53.036 62.1455 53.3306 62.1455C53.4287 62.1455 53.5269 62.1455 53.5269 62.2436V62.44C53.5269 62.7345 53.3306 63.3236 53.036 63.9127C52.7415 64.5018 52.3487 65.1891 51.8578 65.5818L51.5633 65.8764L51.956 65.7782C58.436 64.8945 60.596 60.9673 61.676 58.9055C61.8724 58.6109 61.9706 58.2182 62.1669 58.0218C62.2651 57.8255 62.4615 57.7273 62.4615 57.7273C62.5596 57.7273 62.6578 57.8255 62.756 57.9236C63.0506 58.4145 63.3451 59.6909 63.3451 60.9673C63.3451 61.5564 63.3451 62.1455 63.1487 62.6364L63.0506 63.0291L63.3451 62.7345C65.7996 60.3782 66.4869 57.8255 66.4869 55.7636C66.4869 54.1927 66.0942 52.8182 65.7996 51.9345C65.6033 51.4436 65.5051 51.0509 65.5051 50.8545C65.5051 50.6582 65.5051 50.56 65.6033 50.56C65.6033 50.56 65.7015 50.4618 65.7996 50.4618C66.7815 50.4618 68.0578 50.8545 69.5306 51.5418L69.8251 51.64L69.7269 51.3455C67.7633 46.4364 63.2469 44.3745 58.9269 43.1964C56.7669 42.6073 54.6069 42.3127 52.8396 41.92C51.5633 41.7236 50.3851 41.4291 49.5996 41.1345C49.5015 41.0364 49.3051 41.0364 49.2069 40.9382C51.6615 40.6436 54.6069 38.7782 57.2578 36.9127C58.2396 36.2255 59.0251 35.5382 59.6142 35.0473C59.9087 34.7527 60.2033 34.4582 60.4978 34.36C60.7924 34.1636 60.9887 34.0655 61.0869 34.0655C61.1851 34.0655 61.2833 34.0655 61.2833 34.1636C61.4796 34.4582 61.676 35.2436 61.676 36.0291C61.676 36.7164 61.5778 37.4036 61.4796 37.9927L61.3815 38.2873L61.676 38.0909C63.7378 36.6182 64.8178 34.4582 64.8178 32.4945C64.8178 30.4327 63.7378 29.1564 63.0506 28.3709C62.9524 28.2727 62.8542 28.0764 62.756 27.9782C62.6578 27.88 62.6578 27.7818 62.5596 27.6836C62.5596 27.5855 62.6578 27.4873 62.756 27.3891C63.1487 26.9964 63.9342 26.8 64.8178 26.8C65.2106 26.8 65.7015 26.8982 66.1924 26.9964L66.4869 27.0945L66.5851 26.8C64.8178 24.3455 62.6578 23.6582 60.7924 23.6582C59.3196 23.6582 58.0433 24.0509 57.0615 24.4436C56.5706 24.5418 55.9815 24.8364 55.6869 24.8364H55.5887C55.5887 24.4436 55.7851 23.8545 56.276 23.2655C56.7669 22.5782 57.4542 21.8909 58.3378 21.3018L58.6324 21.1055H57.7487C54.0178 21.1055 49.2069 23.9527 45.6724 25.9164C43.5124 27.0945 38.8978 29.9418 37.5233 29.0582Z" fill="url(#paint0_linear_26003_109241)"/>
</g>
</g>
</g>
<defs>
<filter id="filter0_d_26003_109241" x="0" y="0" width="110" height="110" filterUnits="userSpaceOnUse" color-interpolation-filters="sRGB">
<feFlood flood-opacity="0" result="BackgroundImageFix"/>
<feColorMatrix in="SourceAlpha" type="matrix" values="0 0 0 0 0 0 0 0 0 0 0 0 0 0 0 0 0 0 127 0" result="hardAlpha"/>
<feOffset dy="12"/>
<feGaussianBlur stdDeviation="10"/>
<feComposite in2="hardAlpha" operator="out"/>
<feColorMatrix type="matrix" values="0 0 0 0 0 0 0 0 0 0 0 0 0 0 0 0 0 0 0.05 0"/>
<feBlend mode="normal" in2="BackgroundImageFix" result="effect1_dropShadow_26003_109241"/>
<feBlend mode="normal" in="SourceGraphic" in2="effect1_dropShadow_26003_109241" result="shape"/>
</filter>
<linearGradient id="paint0_linear_26003_109241" x1="41.2121" y1="66.2421" x2="68.2536" y2="19.3944" gradientUnits="userSpaceOnUse">
<stop offset="0.24" stop-color="#E40777"/>
<stop offset="0.49" stop-color="#B81981"/>
<stop offset="0.68" stop-color="#861F80"/>
<stop offset="0.72" stop-color="#7C2A86"/>
<stop offset="0.8" stop-color="#634693"/>
<stop offset="0.89" stop-color="#3873A7"/>
<stop offset="1" stop-color="#05AEC0"/>
</linearGradient>
<clipPath id="clip0_26003_109241">
<rect width="54" height="54" fill="white" transform="translate(28 16)"/>
</clipPath>
<clipPath id="clip1_26003_109241">
<rect width="54" height="54" fill="white" transform="translate(28 16)"/>
</clipPath>
</defs>
</svg>
