<svg width="110" height="110" viewBox="0 0 110 110" fill="none" xmlns="http://www.w3.org/2000/svg">
<g filter="url(#filter0_d_26003_109228)">
<rect x="20" y="8" width="70" height="70" rx="12" fill="white" shape-rendering="crispEdges"/>
<g clip-path="url(#clip0_26003_109228)">
<g clip-path="url(#clip1_26003_109228)">
<g clip-path="url(#clip2_26003_109228)">
<path d="M58.8973 51.4343C62.0195 53.5648 68.1952 50.0793 72.6919 43.6484C77.1886 37.2077 78.3079 30.2663 75.1857 28.1357C72.0635 26.0052 66.045 29.3041 61.5482 35.7448C57.0417 42.1855 55.7751 49.3037 58.8973 51.4343Z" fill="#EA5B0F"/>
<path d="M51.1122 51.4343C47.99 53.5648 41.8144 50.0793 37.3176 43.6484C32.8111 37.2077 31.7016 30.2663 34.8238 28.1357C37.946 26.0052 43.9646 29.3041 48.4613 35.7448C52.958 42.1855 54.2246 49.3037 51.1122 51.4343Z" fill="#0055A4"/>
<path d="M54.9996 29.5687C62.9218 29.5687 69.344 26.5313 69.344 22.7844C69.344 19.0375 62.9218 16 54.9996 16C47.0775 16 40.6553 19.0375 40.6553 22.7844C40.6553 26.5313 47.0775 29.5687 54.9996 29.5687Z" fill="#009DCC"/>
<path d="M40.7833 59.9948C40.469 59.6606 40.0858 59.3988 39.6603 59.2276C39.2347 59.0564 38.777 58.9798 38.3189 59.0032C37.5138 59.0032 36.532 59.2093 35.8545 59.9948C35.1771 60.7803 35.0789 61.8013 35.0789 62.8126C35.0789 63.8141 35.1771 64.9824 35.8545 65.7679C36.532 66.5533 37.5138 66.7595 38.3189 66.7595C39.124 66.7595 40.1058 66.5533 40.7833 65.7679C41.4607 64.9824 41.5589 63.8828 41.5589 62.8126C41.5589 61.7424 41.4607 60.7803 40.7833 59.9948ZM39.9095 64.9726C39.5265 65.4537 38.9375 65.6403 38.3189 65.6403C37.7004 65.6403 37.1113 65.4537 36.7284 64.9726C36.3455 64.4915 36.2964 63.6766 36.2964 62.8126C36.2964 61.9486 36.3455 61.281 36.7284 60.7901C37.1113 60.309 37.7004 60.1224 38.3189 60.1224C38.6174 60.1053 38.9158 60.1566 39.1914 60.2723C39.4671 60.388 39.7126 60.5651 39.9095 60.7901C40.2924 61.2712 40.3415 61.9486 40.3415 62.8126C40.3415 63.6766 40.2924 64.4915 39.9095 64.9726ZM48.2647 59.769C48.2647 59.445 47.9996 59.1799 47.6756 59.1799C47.3516 59.1799 47.0865 59.445 47.0865 59.769V65.2672C47.0865 65.3653 47.008 65.4537 46.9393 65.493C46.8607 65.5224 46.5367 65.6501 45.4175 65.6501C44.8578 65.6501 44.2589 65.4341 43.8956 64.953C43.5324 64.4719 43.4833 63.6374 43.4833 62.7832V59.769C43.4833 59.445 43.2182 59.1799 42.8942 59.1799C42.5702 59.1799 42.3051 59.445 42.3051 59.769V62.7832C42.3051 63.8337 42.3738 64.9628 43.0611 65.7875C43.66 66.5141 44.6713 66.7595 45.4175 66.7595C45.8887 66.7595 46.9098 66.789 47.8327 66.4552C48.088 66.3668 48.2647 66.0428 48.2647 65.7679V59.769ZM68.7847 59.769C68.7847 59.445 68.5196 59.1799 68.1956 59.1799C67.8716 59.1799 67.6065 59.445 67.6065 59.769V65.2672C67.6065 65.3653 67.528 65.4537 67.4593 65.493C67.3807 65.5224 67.0567 65.6501 65.9375 65.6501C65.3778 65.6501 64.7789 65.4341 64.4156 64.953C64.0524 64.4719 64.0033 63.6374 64.0033 62.7832V59.769C64.0033 59.445 63.7382 59.1799 63.4142 59.1799C63.0902 59.1799 62.8251 59.445 62.8251 59.769V62.7832C62.8251 63.8337 62.8938 64.9628 63.5811 65.7875C64.18 66.5141 65.1913 66.7595 65.9375 66.7595C66.4087 66.7595 67.4298 66.789 68.3527 66.4552C68.608 66.3668 68.7847 66.0428 68.7847 65.7679V59.769ZM61.9022 60.0733C61.8985 59.952 61.8619 59.8339 61.7961 59.7319C61.7304 59.6298 61.6381 59.5476 61.5291 59.4941C60.6828 59.17 59.7844 59.0036 58.8782 59.0032C58.0927 59.0032 57.0913 59.1995 56.4138 59.9752C55.7364 60.741 55.6382 61.929 55.6382 62.9795C55.6382 64.0301 55.7364 65.0021 56.4138 65.7679C57.0913 66.5435 58.0731 66.7497 58.8782 66.7497C59.6145 66.7497 60.4393 66.4257 60.6945 66.141V67.1424C60.6945 67.6824 60.5669 68.1046 60.3018 68.409C60.0465 68.7035 59.6735 68.8606 59.212 68.8606C58.5051 68.8606 57.8178 68.6741 57.2091 68.3206C57.0817 68.2777 56.9437 68.2775 56.8162 68.32C56.6886 68.3626 56.5784 68.4455 56.5022 68.5563C56.3451 68.8115 56.4433 69.1944 56.6985 69.3319C56.9538 69.4693 57.2778 69.6559 57.9553 69.8326C58.3873 69.9406 58.8095 69.9897 59.212 69.9897C59.6538 69.9897 60.0465 69.921 60.3804 69.7737C60.7021 69.6373 60.9901 69.4322 61.2242 69.1727C61.4582 68.9132 61.6327 68.6056 61.7353 68.2715C61.8531 67.9279 61.9022 67.545 61.9022 67.1523V60.0733ZM60.6847 64.3344C60.6847 64.7566 60.508 65.0413 60.3018 65.2279C60.0564 65.4537 59.4967 65.6501 58.8782 65.6501C58.2596 65.6501 57.6804 65.4733 57.2876 65.0021C56.9047 64.521 56.8556 63.8533 56.8556 62.9992C56.8556 62.145 56.9047 61.2613 57.2876 60.7803C57.6705 60.309 58.2695 60.1323 58.8782 60.1323C59.3495 60.1323 59.9876 60.2304 60.5178 60.417C60.6062 60.4464 60.6749 60.5348 60.6749 60.633V64.3344H60.6847ZM80.9495 60.5741L81.0771 60.5937C81.3716 60.5937 81.6073 60.3581 81.6073 60.0635V60.0439C81.602 59.934 81.5708 59.8268 81.5162 59.7312C81.4616 59.6357 81.3851 59.5544 81.2931 59.4941C80.6907 59.1495 80.0031 58.9827 79.3098 59.013C78.6225 59.013 77.896 59.1799 77.4542 59.5235C77.0025 59.8672 76.7669 60.3483 76.7669 60.957C76.7669 62.0763 77.6015 62.8813 79.2509 63.2152C79.9775 63.3624 80.7727 63.7355 80.7727 64.3737C80.7727 64.6977 80.6156 65.0512 80.3505 65.2377C79.9284 65.5421 79.3098 65.601 79.0153 65.601C78.6225 65.601 77.9942 65.5224 77.464 65.2279L77.3953 65.1886C77.262 65.1178 77.1064 65.1018 76.9616 65.144C76.8167 65.1862 76.6941 65.2832 76.6196 65.4144C76.5727 65.4983 76.5489 65.5932 76.5509 65.6893C76.5509 65.8268 76.6 65.9446 76.6785 66.0428C76.7276 66.1017 76.7865 66.1606 76.8553 66.2097C78.22 66.9952 79.9087 66.9461 81.2244 66.0919C81.46 65.8955 81.6465 65.6599 81.784 65.385C81.9018 65.1003 82 64.6977 82 64.3737C82 62.8813 80.6549 62.2824 79.4865 62.0566C78.4949 61.8504 77.9844 61.4283 77.9844 60.9472C77.9844 60.8097 78.0236 60.6821 78.0924 60.5839C78.1611 60.4857 78.2593 60.3973 78.3673 60.3384C78.4753 60.2795 78.6127 60.2304 78.76 60.201C78.9073 60.1715 79.0742 60.1617 79.3196 60.1617C79.8891 60.1912 80.4389 60.3286 80.9495 60.5741ZM33.4785 59.985C32.8011 59.2093 31.8291 59.0032 31.0142 59.0032C30.2778 59.0032 29.4531 59.3272 29.1978 59.6021V56.097C29.1978 56.0196 29.1826 55.943 29.153 55.8715C29.1234 55.8001 29.08 55.7351 29.0253 55.6804C28.9706 55.6257 28.9056 55.5823 28.8342 55.5527C28.7627 55.5231 28.6861 55.5079 28.6087 55.5079H28.5989C28.5215 55.5066 28.4447 55.5205 28.3727 55.549C28.3007 55.5774 28.2351 55.6197 28.1795 55.6735C28.1238 55.7273 28.0794 55.7915 28.0486 55.8625C28.0178 55.9335 28.0013 56.0098 28 56.0872V65.6697C28 65.9544 28.1767 66.1901 28.432 66.2883C29.4138 66.6908 30.5135 66.7497 31.024 66.7497C31.8095 66.7497 32.8109 66.5533 33.4884 65.7777C34.1658 65.0021 34.264 63.9319 34.264 62.8715C34.2542 61.8308 34.1658 60.7508 33.4785 59.985ZM32.6047 65.0021C32.2218 65.4733 31.6229 65.6403 31.0142 65.6403C30.45 65.6285 29.8907 65.5326 29.3549 65.3555C29.3126 65.3429 29.2754 65.317 29.2489 65.2816C29.2224 65.2463 29.2079 65.2034 29.2076 65.1592V61.4381C29.2076 61.0159 29.3844 60.7312 29.5905 60.5446C29.836 60.309 30.3956 60.1323 31.0142 60.1323C31.6327 60.1323 32.2218 60.2992 32.6047 60.7704C32.9876 61.2515 33.0367 62.0272 33.0367 62.8813C33.0367 63.7355 32.9975 64.521 32.6047 65.0021ZM52.4571 64.7468C52.442 64.7813 52.4174 64.8108 52.386 64.8317C52.3547 64.8526 52.318 64.864 52.2804 64.8646C52.192 64.8646 52.1233 64.7664 52.0938 64.737C51.3869 63.0286 50.7291 61.3006 50.1204 59.5628C50.0652 59.4196 49.9564 59.3036 49.8171 59.2395C49.6777 59.1753 49.5188 59.168 49.3742 59.2192C49.2317 59.2723 49.1159 59.3792 49.0516 59.517C48.9873 59.6547 48.9797 59.8123 49.0305 59.9555L50.9451 64.9628C51.1709 65.5519 51.4949 65.8955 51.9662 66.0624L50.8076 69.1061C50.6898 69.4104 50.8469 69.7443 51.1513 69.8523C51.2959 69.907 51.4562 69.9026 51.5976 69.8402C51.7391 69.7777 51.8503 69.6622 51.9073 69.5184L55.5695 59.9653C55.6208 59.8233 55.6146 59.6669 55.5523 59.5293C55.4899 59.3917 55.3763 59.284 55.2356 59.229C55.091 59.1743 54.9307 59.1786 54.7893 59.2411C54.6478 59.3035 54.5366 59.4191 54.4796 59.5628L52.4571 64.7468ZM75.4218 59.985C74.5676 59.0032 73.2029 59.0032 72.928 59.013C72.6727 59.013 71.3178 59.0228 70.5029 59.985C70.1298 60.4268 69.9825 60.9079 69.8844 61.3301C69.7766 61.8399 69.7272 62.3603 69.7371 62.8813C69.7371 63.873 69.8255 65.0119 70.5029 65.7875C71.1804 66.5632 72.1622 66.7595 72.9673 66.7595C73.8509 66.7595 74.8229 66.6908 75.5298 66.1999C75.6578 66.1131 75.757 65.99 75.8145 65.8464C75.8379 65.7835 75.8511 65.7172 75.8538 65.6501C75.8538 65.5043 75.7959 65.3644 75.6928 65.2613C75.5897 65.1582 75.4498 65.1003 75.304 65.1003C75.2369 65.1029 75.1706 65.1162 75.1076 65.1395L74.9309 65.2279C74.4105 65.5224 73.9098 65.6501 72.9869 65.6304C72.3684 65.6304 71.7891 65.4635 71.3964 64.9923C71.0331 64.5504 70.984 63.8435 70.9742 63.0679H75.5985C75.9422 63.0679 76.2269 62.793 76.2269 62.4493C76.1975 60.7803 75.4218 59.985 75.4218 59.985ZM70.9742 62.0075C70.9742 61.8799 70.9545 61.0159 71.6811 60.4759C72.1229 60.1519 72.604 60.1323 72.8985 60.1323C73.1931 60.1323 73.7527 60.1224 74.2338 60.4857C74.9604 61.0257 74.9604 61.8897 74.9604 62.0075H70.9742Z" fill="#009DCC"/>
</g>
</g>
</g>
</g>
<defs>
<filter id="filter0_d_26003_109228" x="0" y="0" width="110" height="110" filterUnits="userSpaceOnUse" color-interpolation-filters="sRGB">
<feFlood flood-opacity="0" result="BackgroundImageFix"/>
<feColorMatrix in="SourceAlpha" type="matrix" values="0 0 0 0 0 0 0 0 0 0 0 0 0 0 0 0 0 0 127 0" result="hardAlpha"/>
<feOffset dy="12"/>
<feGaussianBlur stdDeviation="10"/>
<feComposite in2="hardAlpha" operator="out"/>
<feColorMatrix type="matrix" values="0 0 0 0 0 0 0 0 0 0 0 0 0 0 0 0 0 0 0.05 0"/>
<feBlend mode="normal" in2="BackgroundImageFix" result="effect1_dropShadow_26003_109228"/>
<feBlend mode="normal" in="SourceGraphic" in2="effect1_dropShadow_26003_109228" result="shape"/>
</filter>
<clipPath id="clip0_26003_109228">
<rect width="54" height="54" fill="white" transform="translate(28 16)"/>
</clipPath>
<clipPath id="clip1_26003_109228">
<rect width="54" height="54" fill="white" transform="translate(28 16)"/>
</clipPath>
<clipPath id="clip2_26003_109228">
<rect width="54" height="54" fill="white" transform="translate(28 16)"/>
</clipPath>
</defs>
</svg>
