<svg width="110" height="110" viewBox="0 0 110 110" fill="none" xmlns="http://www.w3.org/2000/svg">
<g filter="url(#filter0_d_26003_109246)">
<rect x="20" y="8" width="70" height="70" rx="12" fill="white" shape-rendering="crispEdges"/>
<g clip-path="url(#clip0_26003_109246)">
<g clip-path="url(#clip1_26003_109246)">
<g clip-path="url(#clip2_26003_109246)">
<path d="M62.3634 43.9824C63.2471 43.9824 63.738 44.277 63.9344 44.9642C65.1125 48.2042 66.2907 51.4442 67.4689 54.5861C67.7634 55.2733 67.5671 55.9606 66.978 56.2551C66.3889 56.5497 65.7998 56.3533 65.5053 55.6661C65.3089 55.077 65.1125 54.4879 64.9162 53.997C64.818 53.8006 64.6216 53.6042 64.4253 53.6042H60.6944C60.3998 53.6042 60.2034 53.7024 60.1053 53.997C59.9089 54.5861 59.7125 55.077 59.5162 55.5679C59.2216 56.2551 58.6325 56.5497 58.1416 56.2551C57.6507 55.9606 57.3562 55.2733 57.6507 54.5861C58.8289 51.3461 60.0071 48.1061 61.1853 44.9642C61.578 44.277 61.9707 43.9824 62.3634 43.9824ZM64.0325 51.2479C63.5416 49.8733 63.1489 48.597 62.5598 47.1242C62.0689 48.597 61.578 49.8733 61.0871 51.2479H64.0325ZM77.9744 44.0806C79.0544 44.0806 80.0362 44.3751 80.9198 45.0624C81.5089 45.4551 81.7053 46.2406 81.4107 46.8297C81.1162 47.4188 80.5271 47.517 79.938 47.2224C79.3489 46.9279 78.7598 46.7315 78.1707 46.437C77.9744 46.3388 77.778 46.437 77.5816 46.437C77.0907 46.5351 76.698 46.7315 76.5998 47.4188C76.5016 48.1061 76.8944 48.4006 77.3853 48.6951C77.9744 48.9897 78.4653 49.0879 79.0544 49.2842L80.5271 49.8733C81.6071 50.4624 82.098 51.4442 82.098 52.8188C82.098 54.2915 81.6071 55.3715 80.5271 55.9606C78.7598 56.9424 76.9925 56.5497 75.3234 55.6661C75.1271 55.5679 74.9307 55.3715 74.7344 55.1751C74.2434 54.7824 74.0471 53.997 74.3416 53.4079C74.6362 52.8188 75.2253 52.7206 75.8144 53.1133C76.5016 53.5061 77.1889 53.8988 77.8762 54.1933C78.2689 54.2915 78.7598 54.1933 79.2507 54.0951C79.6434 53.997 79.938 53.7024 79.938 53.2115C79.938 52.6224 79.7416 52.3279 79.3489 52.1315C78.7598 51.837 78.1707 51.6406 77.5816 51.4442C77.0907 51.2479 76.5016 51.0515 76.0107 50.757C74.0471 49.7752 74.2434 46.1424 75.8144 44.9642C76.3053 44.1788 77.0907 43.9824 77.9744 44.0806ZM71.8871 50.2661V54.9788C71.8871 55.8624 71.4944 56.4515 70.8071 56.4515C70.1198 56.4515 69.7271 55.9606 69.7271 54.9788V45.5533C69.7271 44.6697 70.1198 44.0806 70.8071 44.0806C71.4944 44.0806 71.8871 44.5715 71.8871 45.5533V50.2661Z" fill="#423836"/>
<path d="M28 35.3419C28 35.3419 36.7382 42.8037 46.5564 39.8583C56.3745 36.9128 63.4436 32.0037 66.6836 33.4765C65.1127 34.3601 61.2836 37.3056 57.6509 41.331C54.0182 45.3565 42.04 51.8365 28 35.3419Z" fill="url(#paint0_linear_26003_109246)"/>
<path d="M33.2041 41.4297C33.2041 41.4297 42.9241 52.5242 54.215 44.7679C53.2332 46.3388 44.2986 60.3788 33.2041 41.4297Z" fill="url(#paint1_linear_26003_109246)"/>
</g>
</g>
</g>
</g>
<defs>
<filter id="filter0_d_26003_109246" x="0" y="0" width="110" height="110" filterUnits="userSpaceOnUse" color-interpolation-filters="sRGB">
<feFlood flood-opacity="0" result="BackgroundImageFix"/>
<feColorMatrix in="SourceAlpha" type="matrix" values="0 0 0 0 0 0 0 0 0 0 0 0 0 0 0 0 0 0 127 0" result="hardAlpha"/>
<feOffset dy="12"/>
<feGaussianBlur stdDeviation="10"/>
<feComposite in2="hardAlpha" operator="out"/>
<feColorMatrix type="matrix" values="0 0 0 0 0 0 0 0 0 0 0 0 0 0 0 0 0 0 0.05 0"/>
<feBlend mode="normal" in2="BackgroundImageFix" result="effect1_dropShadow_26003_109246"/>
<feBlend mode="normal" in="SourceGraphic" in2="effect1_dropShadow_26003_109246" result="shape"/>
</filter>
<linearGradient id="paint0_linear_26003_109246" x1="49.819" y1="38.912" x2="69.691" y2="31.2321" gradientUnits="userSpaceOnUse">
<stop stop-color="#CADE1F"/>
<stop offset="1" stop-color="#6FA42E"/>
</linearGradient>
<linearGradient id="paint1_linear_26003_109246" x1="44.2088" y1="48.4659" x2="33.2837" y2="44.7722" gradientUnits="userSpaceOnUse">
<stop stop-color="#CADE1F"/>
<stop offset="1" stop-color="#6FA42E"/>
</linearGradient>
<clipPath id="clip0_26003_109246">
<rect width="54" height="54" fill="white" transform="translate(28 16)"/>
</clipPath>
<clipPath id="clip1_26003_109246">
<rect width="54" height="54" fill="white" transform="translate(28 16)"/>
</clipPath>
<clipPath id="clip2_26003_109246">
<rect width="54" height="54" fill="white" transform="translate(28 16)"/>
</clipPath>
</defs>
</svg>
