<svg width="110" height="110" viewBox="0 0 110 110" fill="none" xmlns="http://www.w3.org/2000/svg">
<g filter="url(#filter0_d_26003_109215)">
<rect x="20" y="8" width="70" height="70" rx="12" fill="white" shape-rendering="crispEdges"/>
<g clip-path="url(#clip0_26003_109215)">
<g clip-path="url(#clip1_26003_109215)">
<g clip-path="url(#clip2_26003_109215)">
<path d="M32.9091 16H77.0615C78.3634 16 79.6121 16.5172 80.5327 17.4378C81.4533 18.3585 81.9705 19.6071 81.9705 20.9091V65.0909C81.9705 66.3929 81.4533 67.6415 80.5327 68.5622C79.6121 69.4828 78.3634 70 77.0615 70H32.9091C31.6071 70 30.3585 69.4828 29.4378 68.5622C28.5172 67.6415 28 66.3929 28 65.0909V20.9091C28 19.6071 28.5172 18.3585 29.4378 17.4378C30.3585 16.5172 31.6071 16 32.9091 16Z" fill="#FF7900"/>
<path d="M49.2661 65.2765C49.217 65.1194 49.0403 65.0409 48.893 65.1194C48.2057 65.5023 47.4694 65.6987 46.6937 65.6987C45.2897 65.6987 44.465 64.766 44.465 63.4994C44.465 61.8598 45.9279 60.9663 48.9519 60.5834C49.0136 60.5742 49.07 60.5436 49.1113 60.4969C49.1526 60.4502 49.1761 60.3905 49.1777 60.3282V60.1416C49.1777 59.5918 48.7555 59.2776 47.9995 59.2776C47.3123 59.2776 46.733 59.5329 46.301 59.9845C46.2225 60.0729 46.0948 60.0827 45.9868 60.0238L45.1032 59.5133C44.9657 59.4347 44.9265 59.2383 45.0345 59.1205C45.7315 58.3056 46.733 57.8933 48.0388 57.8933C50.0025 57.8933 51.1021 58.7573 51.1021 60.1318V65.3453C51.1021 65.4925 50.9843 65.6103 50.8468 65.6103H49.5508C49.4952 65.6103 49.4411 65.592 49.3968 65.5583C49.3524 65.5246 49.3204 65.4774 49.3054 65.4238L49.2661 65.2765ZM46.3894 63.3718C46.3894 63.8725 46.7134 64.3438 47.2828 64.3438C47.8817 64.3438 48.4414 64.0983 49.0206 63.6173C49.0483 63.5925 49.0704 63.5623 49.0857 63.5285C49.1009 63.4946 49.1088 63.458 49.109 63.4209V62.066C49.108 62.0284 49.0991 61.9915 49.0828 61.9577C49.0665 61.9239 49.0431 61.8939 49.0144 61.8698C48.9856 61.8456 48.952 61.8279 48.9158 61.8177C48.8797 61.8075 48.8418 61.8051 48.8046 61.8107C47.165 62.066 46.3894 62.5274 46.3894 63.3718ZM52.6534 58.286L54.0475 58.0896C54.185 58.07 54.3126 58.1583 54.3421 58.2958L54.3912 58.5609C54.4305 58.7474 54.6366 58.826 54.7937 58.7278C55.4468 58.2287 56.2401 57.9471 57.0617 57.9227C58.6032 57.9227 59.3985 58.7474 59.3985 60.3674V65.3649C59.3985 65.5122 59.2806 65.63 59.1432 65.63H57.6803C57.6459 65.63 57.6119 65.6231 57.5803 65.6097C57.5486 65.5962 57.52 65.5765 57.4962 65.5518C57.4724 65.527 57.4538 65.4977 57.4415 65.4656C57.4293 65.4335 57.4237 65.3992 57.425 65.3649V60.7111C57.425 59.798 57.1795 59.3758 56.4726 59.3758C55.913 59.3758 55.3435 59.6213 54.7152 60.1416C54.6862 60.1658 54.6625 60.1958 54.6456 60.2296C54.6287 60.2634 54.619 60.3003 54.617 60.338V65.3747C54.617 65.522 54.4992 65.63 54.3617 65.63H52.9185C52.8841 65.63 52.8501 65.6231 52.8184 65.6097C52.7868 65.5962 52.7582 65.5765 52.7344 65.5518C52.7106 65.527 52.692 65.4977 52.6797 65.4656C52.6675 65.4335 52.6619 65.3992 52.6632 65.3649L52.6534 58.286ZM72.4861 65.7576C70.277 65.7576 68.9417 64.3242 68.9417 61.8402C68.9417 59.3365 70.277 57.9031 72.4468 57.9031C74.6166 57.9031 75.9126 59.2776 75.9126 61.7518L75.9028 61.8893C75.9003 61.9552 75.8723 62.0177 75.8247 62.0634C75.7771 62.1092 75.7136 62.1348 75.6475 62.1347H71.1606C71.1245 62.1345 71.0887 62.1419 71.0556 62.1565C71.0226 62.1712 70.993 62.1927 70.9689 62.2196C70.9447 62.2465 70.9266 62.2782 70.9156 62.3127C70.9047 62.3471 70.9012 62.3835 70.9054 62.4194C70.9937 63.6663 71.5828 64.2751 72.6628 64.2751C73.3403 64.2751 73.8017 64.0198 74.2239 63.4798C74.3025 63.3816 74.4399 63.3522 74.5479 63.4111L75.5592 63.9707C75.6966 64.0493 75.7359 64.226 75.6475 64.3536C74.9897 65.2765 73.9097 65.7576 72.4861 65.7576ZM73.7035 60.8485C73.8606 60.8485 73.9785 60.7111 73.9588 60.5638C73.8606 59.7293 73.3108 59.2482 72.4665 59.2482C71.6614 59.2482 71.141 59.7096 70.9839 60.554C70.9545 60.7111 71.0821 60.8583 71.2392 60.8583H73.7035V60.8485ZM34.6468 65.8362C32.6832 65.8362 30.9355 64.5893 30.9355 61.8598C30.9355 59.1205 32.7028 57.8834 34.6468 57.8834C36.6105 57.8834 38.3581 59.1303 38.3581 61.8598C38.3581 64.5991 36.6006 65.8362 34.6468 65.8362ZM34.6468 59.5427C33.1839 59.5427 32.8992 60.878 32.8992 61.8402C32.8992 62.8122 33.1643 64.1376 34.6468 64.1376C36.1294 64.1376 36.3945 62.8023 36.3945 61.8402C36.3945 60.8878 36.1097 59.5427 34.6468 59.5427ZM39.9683 58.07H41.333C41.4803 58.07 41.5883 58.1878 41.5883 58.3351C41.5883 58.5511 41.8337 58.6787 42.0105 58.5413C42.4813 58.1569 43.0627 57.9333 43.6697 57.9031C43.7483 57.9031 43.8366 57.9031 43.9152 57.9227V59.5231L43.6599 59.7882C42.8745 59.8078 42.0399 59.9551 41.7454 60.5343C41.7266 60.5708 41.7165 60.6111 41.7159 60.6522V65.3453C41.7159 65.4925 41.5981 65.6005 41.4606 65.6005H39.9585C39.9241 65.6006 39.8901 65.5936 39.8584 65.5802C39.8268 65.5668 39.7982 65.5471 39.7744 65.5223C39.7506 65.4976 39.732 65.4683 39.7197 65.4361C39.7075 65.404 39.7019 65.3698 39.7032 65.3354V58.3449C39.7032 58.1878 39.821 58.07 39.9683 58.07ZM64.229 64.0002C65.7312 63.9805 65.849 62.4489 65.849 61.4573C65.849 60.2693 65.2795 59.3169 64.2094 59.3169C63.5025 59.3169 62.7072 59.8373 62.7072 61.5358C62.7268 62.4685 62.7759 64.0002 64.229 64.0002ZM67.7734 58.0503V65.2078C67.7734 66.4743 67.6752 68.5362 64.1014 68.5754C62.7366 68.5754 61.4799 68.0747 61.0675 66.9947C61.0086 66.8474 61.1166 66.6805 61.2737 66.6511L62.6974 66.4253C62.8152 66.4056 62.933 66.4743 62.9821 66.5823C63.1097 66.8769 63.4239 67.1322 64.3272 67.1322C65.3581 67.1322 65.849 66.6314 65.849 65.4729V64.5893L65.8294 64.5696C65.525 65.1194 65.0341 65.6594 63.8854 65.6594C62.1377 65.6594 60.7632 64.4322 60.7632 61.8893C60.7632 59.366 62.1868 57.9522 63.7872 57.9522C65.2894 57.9522 65.8392 58.6394 65.9766 59.0027H65.957L66.0846 58.3154C66.0941 58.2547 66.1251 58.1995 66.172 58.1598C66.2189 58.1201 66.2785 58.0987 66.3399 58.0994H67.7635V58.0503H67.7734ZM76.6785 55.5467H76.1581C76.1237 55.5467 76.0897 55.5536 76.0581 55.567C76.0265 55.5805 75.9979 55.6002 75.974 55.6249C75.9502 55.6497 75.9316 55.679 75.9194 55.7111C75.9071 55.7432 75.9015 55.7775 75.9028 55.8118V57.5496C75.9028 57.638 75.8341 57.7165 75.7457 57.7165H75.6475C75.5592 57.7165 75.4905 57.6478 75.4905 57.5496V55.8118C75.4905 55.7432 75.4639 55.6772 75.4163 55.6277C75.3687 55.5783 75.3038 55.5493 75.2352 55.5467H74.8719C74.7835 55.5467 74.7148 55.478 74.7148 55.3798C74.7148 55.2914 74.7835 55.2129 74.8719 55.2129H76.4134C76.5606 55.2129 76.6686 55.3307 76.6686 55.478V55.5467H76.6785ZM79.9185 57.7067H79.7614C79.727 57.7067 79.693 57.6998 79.6614 57.6864C79.6297 57.6729 79.6011 57.6533 79.5773 57.6285C79.5535 57.6038 79.5349 57.5744 79.5226 57.5423C79.5104 57.5102 79.5048 57.476 79.5061 57.4416V55.6154H79.4865L78.7108 57.5987C78.6912 57.6576 78.6225 57.6969 78.5635 57.6969H78.5145C78.4826 57.6987 78.451 57.6901 78.4244 57.6724C78.3979 57.6547 78.3778 57.6288 78.3672 57.5987L77.5915 55.6154H77.5719V57.5398C77.5719 57.6282 77.5032 57.7067 77.4148 57.7067H77.3166C77.2283 57.7067 77.1595 57.638 77.1595 57.5398V55.478C77.1595 55.3307 77.2774 55.2129 77.4148 55.2129H77.6112C77.7192 55.2129 77.8174 55.2816 77.8566 55.3798L78.2886 56.4794C78.377 56.7053 78.6912 56.6954 78.7697 56.4794L79.1919 55.3798C79.2312 55.2816 79.3294 55.2129 79.4374 55.2129H79.6239C79.7712 55.2129 79.8792 55.3307 79.8792 55.478V57.7067H79.9185Z" fill="white"/>
</g>
</g>
</g>
</g>
<defs>
<filter id="filter0_d_26003_109215" x="0" y="0" width="110" height="110" filterUnits="userSpaceOnUse" color-interpolation-filters="sRGB">
<feFlood flood-opacity="0" result="BackgroundImageFix"/>
<feColorMatrix in="SourceAlpha" type="matrix" values="0 0 0 0 0 0 0 0 0 0 0 0 0 0 0 0 0 0 127 0" result="hardAlpha"/>
<feOffset dy="12"/>
<feGaussianBlur stdDeviation="10"/>
<feComposite in2="hardAlpha" operator="out"/>
<feColorMatrix type="matrix" values="0 0 0 0 0 0 0 0 0 0 0 0 0 0 0 0 0 0 0.05 0"/>
<feBlend mode="normal" in2="BackgroundImageFix" result="effect1_dropShadow_26003_109215"/>
<feBlend mode="normal" in="SourceGraphic" in2="effect1_dropShadow_26003_109215" result="shape"/>
</filter>
<clipPath id="clip0_26003_109215">
<rect width="54" height="54" fill="white" transform="translate(28 16)"/>
</clipPath>
<clipPath id="clip1_26003_109215">
<rect width="54" height="54" fill="white" transform="translate(28 16)"/>
</clipPath>
<clipPath id="clip2_26003_109215">
<rect width="54" height="54" fill="white" transform="translate(28 16)"/>
</clipPath>
</defs>
</svg>
