<svg width="51" height="51" viewBox="0 0 51 51" fill="none" xmlns="http://www.w3.org/2000/svg">
<rect x="1.5" y="1.21094" width="48" height="48" rx="24" stroke="#36A83A" stroke-width="2"/>
<path d="M31.1162 35.8896V33.6484C31.1162 32.875 30.9712 32.1455 30.6812 31.46C30.3911 30.7744 29.9912 30.1768 29.4814 29.667C28.9717 29.1572 28.374 28.7573 27.6885 28.4673C27.0029 28.1772 26.2734 28.0322 25.5 28.0322H17.6162C16.8428 28.0322 16.1133 28.1772 15.4277 28.4673C14.7422 28.7573 14.1445 29.1572 13.6348 29.667C13.1426 30.1768 12.7471 30.7744 12.4482 31.46C12.1494 32.1455 12 32.875 12 33.6484V35.8896C12 36.2061 12.1099 36.4741 12.3296 36.6938C12.5493 36.9136 12.8174 37.0234 13.1338 37.0234C13.4326 37.0234 13.6919 36.9136 13.9116 36.6938C14.1313 36.4741 14.2412 36.2061 14.2412 35.8896V33.6484C14.2412 33.1738 14.3291 32.7344 14.5049 32.3301C14.6807 31.9258 14.9268 31.5742 15.2432 31.2754C15.542 30.959 15.8979 30.7129 16.311 30.5371C16.7241 30.3613 17.1592 30.2734 17.6162 30.2734H25.5C25.9746 30.2734 26.4141 30.3613 26.8184 30.5371C27.2227 30.7129 27.5742 30.959 27.873 31.2754C28.1895 31.5742 28.4355 31.9258 28.6113 32.3301C28.7871 32.7344 28.875 33.1738 28.875 33.6484V35.8896C28.875 36.2061 28.9849 36.4741 29.2046 36.6938C29.4243 36.9136 29.6924 37.0234 30.0088 37.0234C30.3076 37.0234 30.5669 36.9136 30.7866 36.6938C31.0063 36.4741 31.1162 36.2061 31.1162 35.8896ZM27.1875 20.1484C27.1875 19.375 27.0381 18.6455 26.7393 17.96C26.4404 17.2744 26.0449 16.6768 25.5527 16.167C25.043 15.6572 24.4453 15.2573 23.7598 14.9673C23.0742 14.6772 22.3447 14.5322 21.5713 14.5322C20.7979 14.5322 20.0684 14.6772 19.3828 14.9673C18.6973 15.2573 18.0996 15.6572 17.5898 16.167C17.0801 16.6768 16.6758 17.2744 16.377 17.96C16.0781 18.6455 15.9287 19.375 15.9287 20.1484C15.9287 20.9219 16.0781 21.6514 16.377 22.3369C16.6758 23.0225 17.0801 23.6201 17.5898 24.1299C18.0996 24.6396 18.6973 25.0396 19.3828 25.3296C20.0684 25.6196 20.7979 25.7646 21.5713 25.7646C22.3447 25.7646 23.0742 25.6196 23.7598 25.3296C24.4453 25.0396 25.043 24.6396 25.5527 24.1299C26.0449 23.6201 26.4404 23.0225 26.7393 22.3369C27.0381 21.6514 27.1875 20.9219 27.1875 20.1484ZM24.9463 20.1484C24.9463 20.623 24.8584 21.0625 24.6826 21.4668C24.5068 21.8711 24.2607 22.2227 23.9443 22.5215C23.6455 22.8379 23.2896 23.084 22.8765 23.2598C22.4634 23.4355 22.0283 23.5234 21.5713 23.5234C21.0967 23.5234 20.6572 23.4355 20.2529 23.2598C19.8486 23.084 19.4883 22.8379 19.1719 22.5215C18.873 22.2227 18.6357 21.8711 18.46 21.4668C18.2842 21.0625 18.1963 20.623 18.1963 20.1484C18.1963 19.6738 18.2842 19.2344 18.46 18.8301C18.6357 18.4258 18.873 18.0742 19.1719 17.7754C19.4883 17.459 19.8486 17.2129 20.2529 17.0371C20.6572 16.8613 21.0967 16.7734 21.5713 16.7734C22.0283 16.7734 22.4634 16.8613 22.8765 17.0371C23.2896 17.2129 23.6455 17.459 23.9443 17.7754C24.2607 18.0742 24.5068 18.4258 24.6826 18.8301C24.8584 19.2344 24.9463 19.6738 24.9463 20.1484ZM30.3252 25.4482L32.5928 27.6895C32.8037 27.918 33.063 28.0322 33.3706 28.0322C33.6782 28.0322 33.9463 27.918 34.1748 27.6895L38.6572 23.1807C38.8857 22.9697 39 22.7104 39 22.4028C39 22.0952 38.8857 21.8271 38.6572 21.5986C38.4463 21.3877 38.187 21.2822 37.8794 21.2822C37.5718 21.2822 37.3037 21.3877 37.0752 21.5986L33.3838 25.3164L31.9072 23.8662C31.6963 23.6377 31.437 23.5234 31.1294 23.5234C30.8218 23.5234 30.5537 23.6377 30.3252 23.8662C30.1143 24.0771 30.0088 24.3364 30.0088 24.644C30.0088 24.9517 30.1143 25.2197 30.3252 25.4482Z" fill="#36A83A"/>
</svg>
