<svg width="51" height="51" viewBox="0 0 51 51" fill="none" xmlns="http://www.w3.org/2000/svg">
<rect x="1.5" y="1.21094" width="48" height="48" rx="24" stroke="#36A83A" stroke-width="2"/>
<g clip-path="url(#clip0_26003_50652)">
<path d="M17.6162 25.7637H33.3838C33.5244 25.7637 33.665 25.7944 33.8057 25.856C33.9463 25.9175 34.0693 26.001 34.1748 26.1064C34.2803 26.2119 34.3594 26.3306 34.4121 26.4624C34.4648 26.5942 34.4912 26.7393 34.4912 26.8975V34.7812C34.4912 34.9219 34.4648 35.0625 34.4121 35.2031C34.3594 35.3438 34.2803 35.4668 34.1748 35.5723C34.0693 35.6777 33.9463 35.7568 33.8057 35.8096C33.665 35.8623 33.5244 35.8887 33.3838 35.8887H17.6162C17.4756 35.8887 17.335 35.8623 17.1943 35.8096C17.0537 35.7568 16.9307 35.6777 16.8252 35.5723C16.7197 35.4668 16.6406 35.3438 16.5879 35.2031C16.5352 35.0625 16.5088 34.9219 16.5088 34.7812V26.8975C16.5088 26.7393 16.5352 26.5942 16.5879 26.4624C16.6406 26.3306 16.7197 26.2119 16.8252 26.1064C16.9307 26.001 17.0537 25.9175 17.1943 25.856C17.335 25.7944 17.4756 25.7637 17.6162 25.7637ZM32.25 23.5225V20.1475C32.25 19.2158 32.0742 18.3413 31.7227 17.5239C31.3711 16.7065 30.8877 15.9902 30.2725 15.375C29.6572 14.7598 28.9409 14.2764 28.1235 13.9248C27.3062 13.5732 26.4316 13.3975 25.5 13.3975C24.5684 13.3975 23.6938 13.5732 22.8765 13.9248C22.0591 14.2764 21.3428 14.7598 20.7275 15.375C20.1123 15.9902 19.6289 16.7065 19.2773 17.5239C18.9258 18.3413 18.75 19.2158 18.75 20.1475V23.5225H17.6162C17.1592 23.5225 16.7241 23.6104 16.311 23.7861C15.8979 23.9619 15.542 24.208 15.2432 24.5244C14.9443 24.8232 14.7026 25.1792 14.5181 25.5923C14.3335 26.0054 14.2412 26.4404 14.2412 26.8975V34.7812C14.2412 35.2383 14.3291 35.6733 14.5049 36.0864C14.6807 36.4995 14.9268 36.8555 15.2432 37.1543C15.542 37.4531 15.8979 37.6948 16.311 37.8794C16.7241 38.064 17.1592 38.1562 17.6162 38.1562H33.3838C33.8408 38.1562 34.2759 38.0684 34.689 37.8926C35.1021 37.7168 35.458 37.4707 35.7568 37.1543C36.0557 36.8555 36.2974 36.4995 36.4819 36.0864C36.6665 35.6733 36.7588 35.2383 36.7588 34.7812V26.8975C36.7588 26.4404 36.6709 26.0054 36.4951 25.5923C36.3193 25.1792 36.0732 24.8232 35.7568 24.5244C35.458 24.208 35.1021 23.9619 34.689 23.7861C34.2759 23.6104 33.8408 23.5225 33.3838 23.5225H32.25ZM20.9912 23.5225V20.1475C20.9912 19.5322 21.1099 18.9521 21.3472 18.4072C21.5845 17.8623 21.9053 17.3789 22.3096 16.957C22.7314 16.5527 23.2148 16.2319 23.7598 15.9946C24.3047 15.7573 24.8848 15.6387 25.5 15.6387C26.1152 15.6387 26.6953 15.7573 27.2402 15.9946C27.7852 16.2319 28.2686 16.5527 28.6904 16.957C29.0947 17.3789 29.4155 17.8623 29.6528 18.4072C29.8901 18.9521 30.0088 19.5322 30.0088 20.1475V23.5225H20.9912Z" fill="#36A83A"/>
</g>
<defs>
<clipPath id="clip0_26003_50652">
<rect width="27" height="27" fill="white" transform="matrix(1 0 0 -1 12 38.7109)"/>
</clipPath>
</defs>
</svg>
