<svg width="51" height="51" viewBox="0 0 51 51" fill="none" xmlns="http://www.w3.org/2000/svg">
<rect x="1.5" y="1.81055" width="48" height="48" rx="24" stroke="#36A83A" stroke-width="2"/>
<path d="M18.3546 27.8662C19.4444 26.9346 20.6441 26.2578 21.9537 25.8359C23.2633 25.4141 24.586 25.2207 25.922 25.2559C27.1348 25.3086 28.3302 25.5503 29.5079 25.981C30.6856 26.4116 31.7667 27.04 32.7511 27.8662C32.9971 28.0596 33.274 28.1431 33.5816 28.1167C33.8892 28.0903 34.1397 27.9541 34.3331 27.708C34.5264 27.4619 34.6099 27.1851 34.5836 26.8774C34.5572 26.5698 34.421 26.3193 34.1749 26.126C33.5948 25.6338 32.9708 25.2031 32.3028 24.834C31.6524 24.4473 30.9844 24.1265 30.2989 23.8716C29.6134 23.6167 28.9102 23.4189 28.1895 23.2783C27.4688 23.1201 26.7393 23.0322 26.0011 23.0146C25.1925 22.9795 24.3927 23.0234 23.6016 23.1465C22.8106 23.252 22.0284 23.4365 21.255 23.7002C20.4815 23.9639 19.7257 24.2979 18.9874 24.7021C18.2667 25.1064 17.5723 25.5811 16.9044 26.126C16.6759 26.3193 16.544 26.5742 16.5089 26.8906C16.4737 27.207 16.5616 27.4795 16.7725 27.708C16.9659 27.9541 17.2164 28.0903 17.524 28.1167C17.8316 28.1431 18.1085 28.0596 18.3546 27.8662ZM14.3468 23.832C15.1729 23.1113 16.043 22.4785 16.9571 21.9336C17.8712 21.4062 18.8204 20.9668 19.8048 20.6152C20.7891 20.2637 21.7823 20.0088 22.7843 19.8506C23.8038 19.6924 24.8321 19.6221 25.8692 19.6396C26.836 19.6572 27.794 19.7627 28.7432 19.9561C29.6925 20.1318 30.6285 20.3955 31.5513 20.7471C32.4742 21.0986 33.3663 21.5381 34.2276 22.0654C35.0714 22.5752 35.88 23.1641 36.6534 23.832C36.8995 24.043 37.1763 24.1396 37.484 24.1221C37.7916 24.1045 38.0421 23.9727 38.2354 23.7266C38.4464 23.498 38.543 23.23 38.5255 22.9224C38.5079 22.6147 38.3761 22.3555 38.13 22.1445C37.2686 21.3887 36.3458 20.7207 35.3614 20.1406C34.3946 19.543 33.3927 19.0464 32.3555 18.6509C31.3184 18.2554 30.255 17.9521 29.1651 17.7412C28.0928 17.5303 27.003 17.416 25.8956 17.3984C24.753 17.3633 23.6016 17.4424 22.4415 17.6357C21.2813 17.8115 20.1475 18.0972 19.0401 18.4927C17.9327 18.8882 16.8604 19.3936 15.8233 20.0088C14.7862 20.6064 13.793 21.3184 12.8438 22.1445C12.6153 22.3555 12.4923 22.6147 12.4747 22.9224C12.4571 23.23 12.5538 23.5068 12.7647 23.7529C12.9581 23.9814 13.213 24.1045 13.5294 24.1221C13.8458 24.1396 14.1182 24.043 14.3468 23.832ZM22.2569 31.9004C22.8018 31.5137 23.3907 31.2368 24.0235 31.0698C24.6563 30.9028 25.2891 30.8457 25.922 30.8984C26.4317 30.9336 26.9283 31.0391 27.4117 31.2148C27.8951 31.3906 28.3477 31.6279 28.7696 31.9268C29.0157 32.1025 29.2926 32.1641 29.6002 32.1113C29.9078 32.0586 30.1495 31.9004 30.3253 31.6367C30.5186 31.3906 30.5845 31.1138 30.523 30.8062C30.4615 30.4985 30.3077 30.2568 30.0616 30.0811C29.4639 29.6592 28.8311 29.3296 28.1632 29.0923C27.4952 28.855 26.8096 28.71 26.1065 28.6572C25.2276 28.5869 24.3443 28.666 23.4566 28.8945C22.5689 29.123 21.7296 29.5186 20.9386 30.0811C20.6925 30.2568 20.543 30.4985 20.4903 30.8062C20.4376 31.1138 20.4991 31.3906 20.6749 31.6367C20.8507 31.9004 21.0924 32.0586 21.4 32.1113C21.7076 32.1641 21.9932 32.0938 22.2569 31.9004ZM25.5001 36.4883C25.8165 36.4883 26.0845 36.3784 26.3043 36.1587C26.524 35.939 26.6339 35.6797 26.6339 35.3809C26.6339 35.0645 26.524 34.7964 26.3043 34.5767C26.0845 34.3569 25.8165 34.2471 25.5001 34.2471C25.1837 34.2471 24.9156 34.3569 24.6959 34.5767C24.4761 34.7964 24.3663 35.0645 24.3663 35.3809C24.3663 35.6797 24.4761 35.939 24.6959 36.1587C24.9156 36.3784 25.1837 36.4883 25.5001 36.4883Z" fill="#36A83A"/>
</svg>
