<svg width="51" height="51" viewBox="0 0 51 51" fill="none" xmlns="http://www.w3.org/2000/svg">
<rect x="1.5" y="1.21094" width="48" height="48" rx="24" stroke="#36A83A" stroke-width="2"/>
<g clip-path="url(#clip0_26003_50657)">
<path d="M24.3662 24.6582H22.6787C22.292 24.6582 21.9272 24.5835 21.5845 24.4341C21.2417 24.2847 20.9473 24.0781 20.7012 23.8145C20.4375 23.5684 20.2354 23.2739 20.0947 22.9312C19.9541 22.5884 19.8838 22.2236 19.8838 21.8369C19.8838 21.4502 19.9541 21.0854 20.0947 20.7427C20.2354 20.3999 20.4375 20.1055 20.7012 19.8594C20.9473 19.5957 21.2417 19.3892 21.5845 19.2397C21.9272 19.0903 22.292 19.0156 22.6787 19.0156H24.3662V24.6582ZM26.6338 26.8994H28.3213C28.708 26.8994 29.0728 26.9741 29.4155 27.1235C29.7583 27.2729 30.0527 27.4707 30.2988 27.7168C30.5625 27.9805 30.7646 28.2837 30.9053 28.6265C31.0459 28.9692 31.1162 29.334 31.1162 29.7207C31.1162 30.1074 31.0459 30.4722 30.9053 30.8149C30.7646 31.1577 30.5625 31.4521 30.2988 31.6982C30.0527 31.9619 29.7583 32.1641 29.4155 32.3047C29.0728 32.4453 28.708 32.5156 28.3213 32.5156H26.6338V26.8994ZM31.1162 16.7744H26.6338V13.3994C26.6338 13.083 26.5239 12.8149 26.3042 12.5952C26.0845 12.3755 25.8164 12.2656 25.5 12.2656C25.1836 12.2656 24.9155 12.3755 24.6958 12.5952C24.4761 12.8149 24.3662 13.083 24.3662 13.3994V16.7744H22.6787C21.9932 16.7744 21.3428 16.9062 20.7275 17.1699C20.1123 17.4336 19.5762 17.7939 19.1191 18.251C18.6621 18.708 18.2974 19.2441 18.0249 19.8594C17.7524 20.4746 17.6162 21.1338 17.6162 21.8369C17.6162 22.54 17.7524 23.1992 18.0249 23.8145C18.2974 24.4297 18.6621 24.9658 19.1191 25.4229C19.5762 25.8799 20.1123 26.2402 20.7275 26.5039C21.3428 26.7676 21.9932 26.8994 22.6787 26.8994H24.3662V32.5156H18.75C18.4336 32.5156 18.1655 32.6255 17.9458 32.8452C17.7261 33.0649 17.6162 33.333 17.6162 33.6494C17.6162 33.9658 17.7261 34.2339 17.9458 34.4536C18.1655 34.6733 18.4336 34.7832 18.75 34.7832H24.3662V38.1582C24.3662 38.457 24.4761 38.7163 24.6958 38.936C24.9155 39.1558 25.1836 39.2656 25.5 39.2656C25.8164 39.2656 26.0845 39.1558 26.3042 38.936C26.5239 38.7163 26.6338 38.457 26.6338 38.1582V34.7832H28.3213C29.0068 34.7832 29.6572 34.647 30.2725 34.3745C30.8877 34.1021 31.4238 33.7373 31.8809 33.2803C32.3379 32.8232 32.7026 32.2871 32.9751 31.6719C33.2476 31.0566 33.3838 30.4062 33.3838 29.7207C33.3838 29.0176 33.2476 28.3584 32.9751 27.7432C32.7026 27.1279 32.3379 26.5918 31.8809 26.1348C31.4238 25.6777 30.8877 25.3174 30.2725 25.0537C29.6572 24.79 29.0068 24.6582 28.3213 24.6582H26.6338V19.0156H31.1162C31.4326 19.0156 31.7007 18.9058 31.9204 18.686C32.1401 18.4663 32.25 18.207 32.25 17.9082C32.25 17.5918 32.1401 17.3237 31.9204 17.104C31.7007 16.8843 31.4326 16.7744 31.1162 16.7744Z" fill="#36A83A"/>
</g>
<defs>
<clipPath id="clip0_26003_50657">
<rect width="27" height="27" fill="white" transform="matrix(1 0 0 -1 12 38.7109)"/>
</clipPath>
</defs>
</svg>
