<svg width="50" height="51" viewBox="0 0 50 51" fill="none" xmlns="http://www.w3.org/2000/svg">
<rect x="1" y="1.81055" width="48" height="48" rx="24" stroke="#36A83A" stroke-width="2"/>
<g clip-path="url(#clip0_26002_50434)">
<path d="M28.2959 34.75H15.9824C15.4023 34.75 14.8354 34.6357 14.2817 34.4072C13.728 34.1787 13.2402 33.8535 12.8184 33.4316C12.3965 33.0098 12.0713 32.522 11.8428 31.9683C11.6143 31.4146 11.5 30.8389 11.5 30.2412V21.3818C11.5 20.7842 11.6143 20.2085 11.8428 19.6548C12.0713 19.1011 12.3965 18.6133 12.8184 18.1914C13.2402 17.7695 13.728 17.4443 14.2817 17.2158C14.8354 16.9873 15.4023 16.873 15.9824 16.873H33.9912C34.5889 16.8906 35.1646 17.0137 35.7183 17.2422C36.272 17.4707 36.7598 17.7871 37.1816 18.1914C37.6035 18.6133 37.9287 19.1011 38.1572 19.6548C38.3857 20.2085 38.5 20.7842 38.5 21.3818V30.2412C38.5 30.8389 38.3857 31.4102 38.1572 31.9551C37.9287 32.5 37.6035 32.9834 37.1816 33.4053C36.7598 33.8271 36.272 34.1523 35.7183 34.3809C35.1646 34.6094 34.5889 34.7236 33.9912 34.7236L28.2959 34.75ZM33.9912 33.5371C34.3955 33.5371 34.7866 33.4668 35.1646 33.3262C35.5425 33.1855 35.8896 32.9746 36.2061 32.6934C36.5049 32.4297 36.7466 32.1177 36.9312 31.7573C37.1157 31.397 37.2344 31.0146 37.2871 30.6104H28.2959V33.5371H33.9912ZM27.1094 33.5371V18.0859H22.917V33.5371H27.1094ZM16.0088 33.5371H22.917V30.6104H12.7129C12.7656 31.0146 12.8843 31.397 13.0688 31.7573C13.2534 32.1177 13.4951 32.4297 13.7939 32.6934C14.0928 32.957 14.4312 33.1636 14.8091 33.313C15.187 33.4624 15.5781 33.5371 15.9824 33.5371H16.0088ZM37.2871 29.4238V26.418H28.2959V29.4238H37.2871ZM21.7041 29.4238V26.418H12.6865V29.4238H21.7041ZM37.2871 25.2051V22.2256H28.2959V25.2051H37.2871ZM21.7041 25.2051V22.2256H12.6865V25.2051H21.7041ZM37.2871 21.0127C37.2344 20.6084 37.1157 20.2261 36.9312 19.8657C36.7466 19.5054 36.5049 19.1934 36.2061 18.9297C35.8896 18.6484 35.5425 18.4375 35.1646 18.2969C34.7866 18.1562 34.3955 18.0859 33.9912 18.0859H27.1094V21.0127H37.2871ZM21.7041 21.0127V18.0859H15.9824C15.5781 18.0859 15.187 18.1562 14.8091 18.2969C14.4312 18.4375 14.0928 18.6484 13.7939 18.9297C13.4951 19.1934 13.2534 19.5054 13.0688 19.8657C12.8843 20.2261 12.7656 20.6084 12.7129 21.0127H21.7041Z" fill="#36A83A"/>
</g>
<defs>
<clipPath id="clip0_26002_50434">
<rect width="27" height="27" fill="white" transform="matrix(1 0 0 -1 11.5 39.3105)"/>
</clipPath>
</defs>
</svg>
