<svg width="200" height="65" viewBox="0 0 200 65" fill="none" xmlns="http://www.w3.org/2000/svg">
<g clip-path="url(#clip0_26003_50502)">
<g clip-path="url(#clip1_26003_50502)">
<g clip-path="url(#clip2_26003_50502)">
<path fill-rule="evenodd" clip-rule="evenodd" d="M32.3725 50.6297H36.1056V30.791H32.3725V50.6297ZM46.0249 50.4164H49.3314V37.8306L63.4104 50.6297V31.111H60.104V43.4835L46.0249 30.791V50.4164ZM70.9832 45.51C72.7965 46.8966 74.9297 47.7499 77.2762 47.7499C79.516 47.7499 81.1159 47.0033 81.1159 45.1901C81.1159 43.6968 80.0493 43.0569 78.3428 42.4169L75.463 41.457C72.7965 40.497 70.7699 39.1105 70.7699 35.9107C70.7699 32.4976 73.8631 30.6844 77.4895 30.6844C79.7293 30.6844 81.7559 31.2177 83.3558 32.2843V35.6974C81.6896 34.3709 79.6191 33.6556 77.4895 33.6708C75.463 33.6708 73.9697 34.4174 73.9697 36.0173C73.9697 37.4039 74.9297 38.0439 76.5295 38.5772L79.7293 39.7504C82.8225 40.817 84.3157 42.5236 84.3157 45.2967C84.3157 48.8165 81.2226 50.7364 77.1695 50.7364C74.503 50.7364 72.2632 49.9897 70.8766 49.0298C70.9832 49.0298 70.9832 45.51 70.9832 45.51ZM93.1684 50.6297H96.9015V30.791H93.1684V50.6297ZM114.394 47.6432C118.553 47.6432 120.793 44.9767 120.793 40.7104C120.793 36.444 118.553 33.7775 114.394 33.7775H110.234V47.6432H114.394ZM106.821 30.791H114.5C120.367 30.791 124.206 34.6308 124.206 40.7104C124.206 46.79 120.367 50.6297 114.5 50.6297H106.821V30.791ZM142.765 30.791V33.7775H133.806V38.5772H141.912V41.5636H133.806V47.7499H142.765V50.7364H130.393V30.791H142.765ZM155.991 39.7504H159.724C161.857 39.7504 163.137 38.5772 163.137 36.6573C163.137 34.8441 161.857 33.5642 159.724 33.5642H155.991V39.7504ZM155.991 42.6302V50.7364H152.684V30.791H159.724C163.777 30.791 166.337 32.8176 166.337 36.764C166.337 40.0704 164.844 41.9903 161.857 42.5236L168.897 50.7364H165.164L158.444 42.6302H155.991ZM31.0926 11.1657C32.5858 10.6324 33.6524 9.03248 33.6524 6.79263C33.6524 3.1662 31.0926 1.24633 26.9329 1.24633H20V21.725H27.5728C31.7325 21.725 34.2924 19.6984 34.2924 15.8587C34.2924 13.7255 32.9058 11.8056 31.0926 11.1657ZM23.1998 9.88575V4.33946H26.8262C29.1727 4.33946 30.346 5.19273 30.346 7.1126C30.346 9.03248 29.1727 9.88575 26.9329 9.88575H23.1998ZM23.1998 12.7656H27.4662C29.706 12.7656 30.9859 13.9388 30.9859 15.752C30.9859 17.5652 29.706 18.7385 27.4662 18.7385H23.1998V12.7656ZM49.5447 22.0449C54.3444 22.0449 57.5442 19.1651 57.5442 13.6188V1.24633H54.131V13.1922C54.131 17.1386 52.5312 18.9518 49.5447 18.9518C46.5582 18.9518 44.9583 17.1386 44.9583 13.1922V1.24633H41.5452V13.6188C41.5452 19.1651 44.745 22.0449 49.5447 22.0449ZM65.437 20.2317C66.8235 21.1917 69.0634 22.0449 71.7299 22.0449C75.7829 22.0449 78.8761 20.0184 78.8761 16.2853C78.8761 13.2989 77.4895 11.4856 74.3964 10.3124L71.1966 9.13914C69.5967 8.49918 68.6367 7.96588 68.6367 6.47265C68.6367 4.76609 70.13 4.01948 72.1565 4.01948C74.503 4.01948 76.3162 4.87275 77.9161 6.25933V2.6329C76.1716 1.49843 74.1307 0.904726 72.0498 0.926352C68.4234 0.926352 65.3303 2.84622 65.3303 6.47265C65.3303 9.88575 67.3568 11.2723 70.0233 12.3389L72.9031 13.4055C74.7163 14.1521 75.6763 14.6854 75.6763 16.2853C75.6763 18.0985 74.0764 18.9518 71.8365 18.9518C69.49 18.9518 67.3568 18.0985 65.5436 16.6053C65.437 16.6053 65.437 20.2317 65.437 20.2317ZM90.8219 1.24633H87.4088V21.725H90.8219V1.24633ZM100.421 21.725H103.621V8.39252L117.273 22.0449V1.24633H114.074V14.3655L100.421 0.926352V21.725ZM138.392 1.24633V4.33946H129.646V9.2458H137.432V12.2323H129.646V18.5252H138.392V21.6183H126.34V1.24633H138.392ZM146.285 20.2317C147.671 21.1917 149.911 22.0449 152.578 22.0449C156.631 22.0449 159.724 20.0184 159.724 16.2853C159.724 13.2989 158.337 11.4856 155.244 10.3124L152.044 9.13914C150.445 8.49918 149.485 7.96588 149.485 6.47265C149.485 4.76609 150.978 4.01948 153.004 4.01948C155.351 4.01948 157.164 4.87275 158.764 6.25933V2.6329C157.02 1.49843 154.979 0.904726 152.898 0.926352C149.271 0.926352 146.178 2.84622 146.178 6.47265C146.178 9.88575 148.205 11.2723 150.871 12.3389L153.751 13.4055C155.564 14.1521 156.524 14.6854 156.524 16.2853C156.524 18.0985 154.924 18.9518 152.684 18.9518C150.338 18.9518 148.205 18.0985 146.392 16.6053C146.285 16.6053 146.285 20.2317 146.285 20.2317ZM166.55 20.2317C167.937 21.1917 170.177 22.0449 172.843 22.0449C176.896 22.0449 179.989 20.0184 179.989 16.2853C179.989 13.2989 178.603 11.4856 175.51 10.3124L172.31 9.13914C170.71 8.49918 169.75 7.96588 169.75 6.47265C169.75 4.76609 171.243 4.01948 173.27 4.01948C175.616 4.01948 177.429 4.87275 179.029 6.25933V2.6329C177.285 1.49843 175.244 0.904726 173.163 0.926352C169.537 0.926352 166.444 2.84622 166.444 6.47265C166.444 9.88575 168.47 11.2723 171.137 12.3389L174.016 13.4055C175.83 14.1521 176.789 14.6854 176.789 16.2853C176.789 18.0985 175.19 18.9518 172.95 18.9518C170.603 18.9518 168.47 18.0985 166.657 16.6053C166.55 16.6053 166.55 20.2317 166.55 20.2317Z" fill="#185F7D"/>
</g>
</g>
</g>
<defs>
<clipPath id="clip0_26003_50502">
<rect width="200" height="64" fill="white" transform="translate(0 0.820312)"/>
</clipPath>
<clipPath id="clip1_26003_50502">
<rect width="160" height="49.81" fill="white" transform="translate(20 0.820312)"/>
</clipPath>
<clipPath id="clip2_26003_50502">
<rect width="159.989" height="49.81" fill="white" transform="translate(20 0.820312)"/>
</clipPath>
</defs>
</svg>
