<svg width="200" height="65" viewBox="0 0 200 65" fill="none" xmlns="http://www.w3.org/2000/svg">
<g clip-path="url(#clip0_26003_50483)">
<g clip-path="url(#clip1_26003_50483)">
<path d="M116.282 26.9577C116.199 29.8946 116.522 32.8289 117.242 35.6777C117.984 38.4809 119.146 41.0633 121.219 43.1657C122.825 44.7864 124.833 45.9515 127.037 46.5417C129.168 47.1498 131.389 47.3794 133.6 47.2201C139.619 46.7657 143.738 43.6585 146.013 38.1033C146.39 37.1176 146.71 36.1111 146.973 35.0889C147.072 34.7433 147.174 34.5417 147.578 34.5449C149.539 34.5449 151.504 34.5449 153.469 34.5449C153.856 34.5449 153.872 34.5737 153.722 34.9929C153.056 36.9053 152.091 38.6996 150.861 40.3081C147.635 44.4969 143.398 47.0889 138.24 48.1929C136.48 48.5934 134.679 48.7846 132.874 48.7625C131.318 48.7273 129.766 48.7945 128.211 48.5865C123.654 47.9785 119.59 46.3017 116.112 43.2521C112.429 40.0233 110.272 35.9529 109.462 31.1689C109.135 29.2374 109.027 27.2749 109.142 25.3193C109.23 23.333 109.562 21.3651 110.131 19.4601C111.204 15.9997 113.239 12.9162 116 10.5705C118.709 8.20692 121.954 6.54053 125.453 5.71605C127.23 5.26017 129.058 5.03009 130.893 5.03125C131.581 5.03125 132.266 5.03125 132.95 5.03125C138.275 5.11125 143.104 6.65045 147.331 9.94645C150.48 12.3321 152.797 15.6499 153.952 19.4281C154.179 20.1673 154.336 20.9289 154.506 21.6873C154.656 22.3657 154.643 22.3753 153.917 22.3785C152.077 22.3785 150.24 22.3785 148.4 22.3785C148.336 22.3785 148.275 22.3785 148.214 22.3785C147.613 22.3529 147.613 22.3529 147.523 21.7577C147.139 19.1337 146.518 16.5801 145.283 14.2057C143.078 9.94645 139.587 7.46965 134.861 6.75605C132.243 6.34754 129.569 6.50578 127.018 7.22005C123.733 8.11467 120.937 10.276 119.245 13.2297C117.818 15.6073 117.075 18.2249 116.662 20.9513C116.369 22.9393 116.241 24.9484 116.282 26.9577Z" fill="black"/>
<path d="M85.5298 48.0404H69.0786C67.9906 48.0404 67.9074 47.9444 68.0482 46.898C68.0802 46.674 68.173 46.562 68.4034 46.578C68.6338 46.594 68.7778 46.578 68.9634 46.578C69.5266 46.578 70.0898 46.578 70.6466 46.53C72.7458 46.3348 73.9938 45.5508 74.2082 42.9044C74.3554 41.0484 74.3842 39.1764 74.3874 37.3108C74.4024 29.6308 74.4024 21.9401 74.3874 14.2388C74.4014 12.9945 74.3383 11.7505 74.1986 10.514C73.8786 7.88041 72.9602 7.58601 70.941 7.31401C70.4457 7.26224 69.9473 7.24727 69.4498 7.26921C69.0914 7.26921 68.941 7.14121 68.9442 6.77961C68.9442 5.65961 68.8706 5.78121 69.8498 5.78121H98.3618C99.0402 5.78121 99.0754 5.72681 99.1362 6.46601C99.3666 9.18601 99.6354 11.906 99.8914 14.6292C99.933 15.0612 99.9938 15.49 100.039 15.9092C100.071 16.194 99.9234 16.2996 99.6546 16.2868C99.4978 16.2868 99.3346 16.2868 99.1874 16.2868C98.6082 16.2868 98.6146 16.2868 98.4418 15.7044C98.1058 14.61 97.8306 13.4868 97.405 12.4276C97.0662 11.5598 96.619 10.7383 96.0738 9.98281C95.5623 9.27241 94.9024 8.68177 94.1399 8.25187C93.3773 7.82197 92.5304 7.5631 91.6578 7.49321C90.637 7.38441 89.613 7.29481 88.589 7.27881C86.157 7.24041 83.7282 7.25001 81.2962 7.24361H80.829C80.5474 7.24361 80.445 7.39081 80.4546 7.65321C80.4546 7.83881 80.4546 8.02441 80.4546 8.21321C80.4546 13.442 80.4546 18.6687 80.4546 23.8932C80.4546 24.9236 80.3426 24.8724 81.389 24.8532C83.101 24.8532 84.8162 24.8532 86.5282 24.818C87.1807 24.8027 87.8306 24.731 88.4706 24.6036C90.0706 24.2836 90.9442 23.2756 91.0754 21.6436C91.1458 20.7753 91.2002 19.9071 91.2386 19.0388C91.2546 18.7348 91.3474 18.5908 91.6738 18.594C92.9538 18.594 92.7426 18.5108 92.7426 19.6148C92.7426 23.7556 92.7426 27.8975 92.7426 32.0404C92.7426 32.226 92.7426 32.4148 92.7426 32.6004C92.7586 32.9204 92.6562 33.0548 92.3234 33.0516C91.0242 33.0324 91.2834 33.1732 91.229 32.0532C91.2171 31.2452 91.1487 30.4389 91.0242 29.6404C90.5634 27.218 89.4882 26.706 87.485 26.5172C86.7426 26.4468 85.9938 26.466 85.245 26.4596C83.8434 26.4596 82.4408 26.4596 81.037 26.4596C80.4674 26.4596 80.4674 26.4788 80.4482 27.0324C80.4482 27.218 80.4482 27.4068 80.4482 27.5924C80.4482 30.0212 80.429 32.45 80.4482 34.8788C80.4738 37.0228 80.5058 39.1732 80.621 41.314C80.718 42.3621 80.8804 43.403 81.1074 44.4308C81.1735 44.8182 81.3533 45.1772 81.624 45.4621C81.8946 45.747 82.2439 45.945 82.6274 46.0308C83.3978 46.2705 84.1936 46.4187 84.9986 46.4724C87.085 46.5364 89.1746 46.5332 91.261 46.4916C94.6978 46.4212 97.4146 45.0036 99.357 42.114C100.464 40.4301 101.318 38.5929 101.891 36.6612C101.975 36.3956 102.035 36.1236 102.112 35.8548C102.397 34.8468 102.397 34.8532 103.392 34.8948C103.712 34.8948 103.866 34.9236 103.834 35.3588C103.648 37.8388 103.514 40.3252 103.363 42.8052C103.261 44.386 103.123 45.9668 103.024 47.5476C103.002 47.9028 102.893 48.0628 102.531 48.0372C102.314 48.0372 102.093 48.0372 101.891 48.0372L85.5298 48.0404Z" fill="black"/>
<path d="M61.8722 39.5636C61.8722 41.8036 61.8722 44.0436 61.8722 46.2836C61.8722 46.5108 61.8082 46.9236 61.6994 46.9236C61.3401 46.9941 60.9706 46.9941 60.6114 46.9236C60.5122 46.9236 60.429 46.6324 60.3778 46.4628C60.0744 45.3205 59.5974 44.2315 58.9634 43.234C58.8578 43.0804 58.7618 42.914 58.6434 42.77C58.525 42.626 58.4226 42.5588 58.2754 42.7348C58.1282 42.9108 57.9746 43.0548 57.8242 43.2084C55.1855 46.0344 51.6866 47.9087 47.8722 48.5396C45.6238 48.8846 43.3384 48.9148 41.0818 48.6292C38.8501 48.4119 36.6746 47.8009 34.6562 46.8244C29.0338 44.0436 25.5554 39.5412 24.1058 33.4612C23.5176 30.815 23.3449 28.0934 23.5938 25.394C23.8861 21.1275 25.2545 17.0046 27.5714 13.41C30.0834 9.51564 33.6738 7.11244 38.061 5.79724C40.7338 5.04234 43.5253 4.80021 46.2882 5.08364C50.2402 5.40364 53.7154 7.00364 56.765 9.53164C57.2811 9.97945 57.7684 10.4593 58.2242 10.9684C58.429 11.1796 58.5058 11.1092 58.6082 10.9012C59.331 9.45451 59.8017 7.89508 60.0002 6.29004C60.0482 5.89324 60.1826 5.73004 60.5698 5.77164C60.6636 5.77644 60.7576 5.77644 60.8514 5.77164C61.4914 5.77164 61.4914 5.77164 61.4914 6.37324C61.4914 6.97484 61.4914 7.55404 61.5106 8.14604C61.5831 11.8196 61.6599 15.4911 61.741 19.1604C61.757 19.906 61.8114 20.6516 61.8562 21.4004C61.8562 21.7204 61.7442 21.8676 61.421 21.8452C61.3282 21.8452 61.2354 21.8452 61.1426 21.8452C60.5026 21.8452 60.5026 21.8452 60.3714 21.2052C60.0767 19.523 59.6356 17.8698 59.053 16.2644C58.3394 14.322 57.3954 12.498 55.933 11.01C53.8835 8.94048 51.2686 7.52224 48.4162 6.93324C46.2243 6.43228 43.9461 6.44542 41.7602 6.97164C38.7266 7.71404 36.3778 9.46124 34.5666 11.9732C32.941 14.2324 31.9874 16.7732 31.4114 19.474C30.7403 22.7352 30.4993 26.0703 30.6946 29.394C30.8642 32.6996 31.421 35.9412 32.9346 38.9332C34.5634 42.1332 36.9474 44.6004 40.2946 46.0308C41.4485 46.4917 42.6595 46.7942 43.8946 46.93C46.5986 47.2884 49.149 46.7124 51.629 45.73C54.1486 44.748 56.2498 42.9227 57.5746 40.5652C59.016 38.1628 59.9696 35.4998 60.381 32.7284C60.4546 32.1844 60.477 32.1652 61.021 32.146C61.2147 32.1262 61.4103 32.1381 61.6002 32.1812C61.6641 32.208 61.7214 32.2485 61.7679 32.3C61.8143 32.3514 61.8489 32.4125 61.869 32.4788C61.8908 32.6916 61.8908 32.9061 61.869 33.1188L61.8722 39.5636Z" fill="black"/>
<path d="M130.851 25.2077C131.194 25.2077 131.539 25.2077 131.879 25.2077C131.947 25.2191 132.012 25.244 132.07 25.2808C132.128 25.3176 132.178 25.3656 132.218 25.4221C132.231 25.4806 132.227 25.5416 132.208 25.5982C132.188 25.6547 132.153 25.7046 132.106 25.7421C131.703 25.9149 131.786 26.2445 131.856 26.5325C132.083 27.3389 132.346 28.1325 132.595 28.9293C132.618 28.9821 132.646 29.0325 132.679 29.0797C132.746 29.0189 132.851 28.9709 132.877 28.8973C133.226 27.8381 133.562 26.7757 133.917 25.7165C133.991 25.4989 134.029 25.2269 134.371 25.2109C134.509 25.188 134.649 25.216 134.767 25.2897C134.885 25.3634 134.972 25.4776 135.011 25.6109C135.37 26.5709 135.751 27.5309 136.122 28.4685C136.179 28.6157 136.231 28.7597 136.298 28.9005C136.338 28.9693 136.385 29.0336 136.439 29.0925C136.493 29.0189 136.576 28.9549 136.602 28.8717C136.813 28.1261 137.031 27.3837 137.213 26.6317C137.299 26.2893 137.283 25.9533 136.867 25.7741C136.81 25.7352 136.764 25.6819 136.734 25.6195C136.703 25.5572 136.69 25.4881 136.695 25.4189C136.723 25.3261 136.915 25.2301 137.04 25.2237C137.504 25.2013 137.971 25.2237 138.439 25.2237C138.495 25.2311 138.548 25.2523 138.593 25.2852C138.639 25.3181 138.676 25.3619 138.701 25.4125C138.73 25.5053 138.682 25.7101 138.615 25.7325C137.872 26.0269 137.847 26.7501 137.655 27.3485C137.255 28.6509 136.915 29.9693 136.557 31.2845C136.48 31.5629 136.432 31.8093 136.042 31.8093C135.651 31.8093 135.555 31.6269 135.447 31.3453C135.02 30.2189 134.582 29.0925 134.131 27.9661C134.09 27.8837 134.044 27.8036 133.994 27.7261C133.924 27.8085 133.864 27.8987 133.815 27.9949C133.45 29.0829 133.098 30.1741 132.723 31.2557C132.664 31.4583 132.544 31.6373 132.378 31.7677C132.303 31.8034 132.221 31.8215 132.138 31.8206C132.055 31.8197 131.973 31.7997 131.899 31.7624C131.825 31.725 131.76 31.6712 131.71 31.605C131.66 31.5388 131.626 31.462 131.61 31.3805C131.181 30.0237 130.771 28.6573 130.33 27.3005C130.138 26.7021 130.119 25.9949 129.415 25.6717C129.386 25.6381 129.367 25.5977 129.36 25.5545C129.352 25.5112 129.355 25.4667 129.37 25.4253C129.396 25.3762 129.432 25.333 129.475 25.2983C129.519 25.2636 129.569 25.2382 129.623 25.2237C130.026 25.2045 130.432 25.2237 130.835 25.2237L130.851 25.2077Z" fill="black"/>
<path d="M160.822 31.7268C160.326 31.7268 159.827 31.7268 159.328 31.7268C159.219 31.7268 159.094 31.5572 159.027 31.4388C159.008 31.4036 159.139 31.2436 159.228 31.186C159.785 30.8468 159.795 30.8468 159.449 30.3188C159.158 29.8772 158.857 29.4452 158.547 29.0164C158.236 28.5876 157.83 28.5972 157.718 29.0932C157.625 29.6715 157.619 30.2603 157.699 30.8404C157.699 30.9684 158.041 31.058 158.204 31.1924C158.288 31.2564 158.396 31.41 158.371 31.4676C158.316 31.5796 158.182 31.73 158.076 31.7332C157.142 31.7524 156.208 31.7332 155.273 31.7332C155.22 31.7184 155.17 31.6909 155.13 31.653C155.089 31.6152 155.058 31.568 155.04 31.5156C155.02 31.4228 155.1 31.2276 155.161 31.2148C155.92 31.0772 155.92 30.514 155.916 29.9348C155.916 28.9076 155.916 27.8804 155.916 26.8532C155.916 26.3316 155.891 25.8324 155.19 25.7652C155.126 25.7652 155.03 25.5796 155.036 25.4868C155.043 25.394 155.164 25.25 155.238 25.25C156.236 25.25 157.232 25.25 158.227 25.25C158.268 25.2627 158.305 25.2854 158.336 25.3162C158.366 25.3469 158.388 25.3847 158.4 25.426C158.4 25.5316 158.342 25.746 158.294 25.746C157.507 25.8388 157.616 26.4244 157.622 26.9428C157.622 27.3428 157.664 27.7428 157.686 28.1396C158.006 27.8964 158.3 27.6596 158.588 27.4004C158.915 27.1034 159.226 26.7893 159.52 26.4596C159.795 26.1396 159.763 26.0948 159.398 25.7492C159.312 25.6358 159.242 25.5108 159.19 25.378C159.312 25.3017 159.446 25.2465 159.587 25.2148C160.332 25.2148 161.081 25.2148 161.827 25.2148C161.916 25.2148 162.083 25.3556 162.073 25.41C162.051 25.5316 161.964 25.73 161.875 25.73C160.95 25.8964 160.38 26.5844 159.724 27.1444C159.516 27.3204 159.513 27.4644 159.67 27.698C160.288 28.5908 160.886 29.4996 161.497 30.3988C161.719 30.7435 162.061 30.9933 162.457 31.0996C162.521 31.1298 162.577 31.1744 162.62 31.23C162.663 31.2856 162.693 31.3505 162.707 31.4196C162.707 31.666 162.512 31.698 162.313 31.698H160.819L160.822 31.7268Z" fill="black"/>
<path d="M142.777 31.7315H140.259C140.061 31.7315 139.853 31.6995 139.888 31.4467C139.905 31.3807 139.939 31.3199 139.985 31.2697C140.031 31.2195 140.089 31.1814 140.153 31.1587C140.707 31.0307 140.793 30.6499 140.793 30.1699C140.777 29.0179 140.793 27.8691 140.793 26.7171C140.793 26.2179 140.745 25.7571 140.08 25.7411C140.016 25.7411 139.885 25.5363 139.91 25.4787C139.958 25.3699 140.093 25.2227 140.195 25.2195C141.097 25.2003 142 25.2195 142.902 25.2195C143.616 25.2195 144.333 25.2195 145.046 25.2195C145.181 25.2195 145.421 25.3219 145.427 25.3923C145.462 25.8544 145.469 26.3182 145.446 26.7811C145.446 26.8163 145.126 26.9123 145.065 26.8579C144.923 26.6993 144.805 26.5202 144.717 26.3267C144.631 26.157 144.499 26.0154 144.336 25.9184C144.172 25.8214 143.985 25.7732 143.795 25.7795C142.48 25.7155 142.483 25.6995 142.483 27.0115C142.475 27.1041 142.475 27.1972 142.483 27.2899C142.525 27.5235 142.509 27.8179 142.646 27.9683C142.784 28.1187 143.446 27.9683 143.651 27.7187C143.795 27.5523 143.744 27.1587 144.115 27.2547C144.486 27.3507 144.313 27.7187 144.342 27.9651C144.374 28.2736 144.374 28.5846 144.342 28.8931C144.336 29.0622 144.264 29.2221 144.141 29.3379C143.939 29.4531 143.821 29.2867 143.753 29.0819C143.593 28.5923 143.187 28.5475 142.768 28.6115C142.703 28.6314 142.645 28.6669 142.597 28.7149C142.55 28.7629 142.515 28.8219 142.496 28.8867C142.47 29.4147 142.496 29.9459 142.496 30.4867C142.488 30.5567 142.494 30.6278 142.516 30.695C142.537 30.7622 142.573 30.8241 142.62 30.8765C142.667 30.9289 142.725 30.9706 142.79 30.9988C142.854 31.0271 142.924 31.0412 142.995 31.0403C144.048 31.1203 144.755 31.1395 145.165 29.9523C145.193 29.8308 145.255 29.7198 145.344 29.6323C145.447 29.5713 145.569 29.5508 145.686 29.5747C145.747 29.5747 145.801 29.6995 145.837 29.7763C145.85 29.8364 145.85 29.8986 145.837 29.9587C145.785 32.1155 146.112 31.6931 144.169 31.7379C143.702 31.7379 143.235 31.7379 142.768 31.7379L142.777 31.7315Z" fill="black"/>
<path d="M150.343 31.7332C149.533 31.7332 148.723 31.7332 147.914 31.7332C147.773 31.7332 147.639 31.5636 147.501 31.474C147.594 31.3716 147.667 31.2052 147.779 31.1764C148.243 31.0516 148.314 30.7284 148.311 30.3188C148.311 29.138 148.311 27.954 148.311 26.77C148.311 26.2964 148.359 25.81 147.671 25.746C147.61 25.746 147.514 25.5508 147.527 25.4548C147.544 25.4018 147.574 25.3542 147.615 25.3166C147.656 25.279 147.706 25.2527 147.76 25.2404C148.008 25.2179 148.257 25.2115 148.506 25.2212C149.815 25.2212 151.12 25.2212 152.429 25.2212C152.951 25.2212 152.951 25.2404 152.989 25.7204C153.025 25.9974 153.045 26.2763 153.05 26.5556C153.05 26.674 152.96 26.8756 152.88 26.8756C152.733 26.8848 152.587 26.843 152.467 26.7572C152.407 26.722 152.41 26.5876 152.368 26.5044C152.277 26.2712 152.112 26.0745 151.898 25.9444C151.684 25.8143 151.433 25.7581 151.184 25.7844C149.808 25.8324 150.055 25.634 150.029 26.9076C150.029 27.0612 150.029 27.2276 150.029 27.3716C150.045 27.6084 149.965 27.8932 150.295 28.0116C150.468 28.068 150.654 28.0673 150.827 28.0097C151 27.9521 151.15 27.8406 151.255 27.6916C151.319 27.5892 151.328 27.4516 151.399 27.3716C151.507 27.2244 151.847 27.2884 151.85 27.458C151.872 28.0468 151.866 28.6388 151.85 29.2276C151.85 29.2852 151.706 29.4004 151.664 29.3876C151.536 29.3428 151.344 29.266 151.322 29.1732C151.213 28.6164 150.81 28.6292 150.391 28.6388C150.167 28.6388 150.026 28.7604 150.026 28.9588C150.026 29.4836 150.045 30.0116 150.077 30.5396C150.099 30.9204 150.336 31.0644 150.717 31.0708C151.696 31.0868 152.215 31.2404 152.762 29.9156C152.784 29.8278 152.82 29.7445 152.871 29.6692C152.902 29.6371 152.94 29.6124 152.982 29.5969C153.024 29.5813 153.069 29.5754 153.114 29.5796C153.21 29.6116 153.354 29.7108 153.357 29.7876C153.376 30.3476 153.357 30.9076 153.357 31.4676C153.357 31.7044 153.171 31.762 152.963 31.7556H150.346L150.343 31.7332Z" fill="black"/>
<path d="M173.107 31.7322C172.672 31.7322 172.237 31.7482 171.801 31.7322C171.734 31.7203 171.672 31.6918 171.618 31.6493C171.565 31.6069 171.524 31.5517 171.497 31.489C171.504 31.42 171.529 31.354 171.569 31.2977C171.61 31.2415 171.664 31.1971 171.728 31.169C172.259 31.0314 172.368 30.657 172.384 30.1834C172.462 29.5045 172.286 28.8209 171.891 28.2634C171.485 27.7194 171.184 27.0954 170.829 26.513C170.637 26.193 170.461 25.873 170.048 25.761C169.955 25.7354 169.907 25.537 169.84 25.4186C169.965 25.3514 170.086 25.2266 170.208 25.2234C171.078 25.2234 171.952 25.2234 172.822 25.2234C172.921 25.2234 173.107 25.3258 173.107 25.3802C173.107 25.5082 173.043 25.7258 172.96 25.7514C172.47 25.8922 172.611 26.1674 172.774 26.4618C172.838 26.5674 172.893 26.6794 172.963 26.7818C173.264 27.2234 173.571 27.6586 173.875 28.097C174.233 27.4858 174.617 26.8842 174.934 26.2538C175.046 26.033 174.838 25.8506 174.598 25.7994C174.358 25.7482 174.249 25.6106 174.339 25.409C174.382 25.3526 174.437 25.3066 174.5 25.2744C174.563 25.2423 174.633 25.2248 174.704 25.2234C175.232 25.2042 175.76 25.2234 176.288 25.2234C176.361 25.2234 176.486 25.3002 176.496 25.361C176.515 25.4698 176.512 25.6618 176.445 25.7002C175.373 26.3402 175.043 27.5626 174.358 28.5034C173.862 29.1882 174.093 29.9978 174.169 30.7434C174.185 30.8906 174.464 31.0346 174.646 31.1306C174.829 31.2266 175.059 31.2266 174.944 31.4698C174.892 31.5384 174.826 31.5953 174.75 31.6366C174.675 31.678 174.591 31.7029 174.505 31.7098C174.195 31.7274 173.884 31.7274 173.574 31.7098L173.107 31.7322Z" fill="black"/>
<path d="M166.426 31.7332C165.709 31.7332 164.992 31.7332 164.275 31.7332C164.09 31.7442 163.903 31.7291 163.722 31.6884C163.632 31.6628 163.549 31.5252 163.514 31.4228C163.515 31.38 163.527 31.3381 163.55 31.3016C163.572 31.2651 163.604 31.2351 163.642 31.2148C164.419 31.09 164.384 30.5172 164.378 29.9348C164.362 28.8756 164.378 27.8196 164.378 26.7604C164.378 26.2772 164.41 25.8004 163.738 25.7332C163.654 25.7332 163.571 25.5124 163.533 25.3812C163.533 25.3524 163.712 25.218 163.811 25.2148C164.771 25.2148 165.731 25.2148 166.707 25.2148C166.806 25.2148 166.938 25.3716 166.982 25.4868C167.005 25.5412 166.87 25.7396 166.8 25.7396C166.131 25.7684 166.09 26.2228 166.09 26.722C166.09 27.874 166.09 29.026 166.09 30.1748C166.09 30.8948 166.208 31.0004 166.877 31.0388C167.981 31.0996 168.349 30.8756 168.835 29.8516C168.877 29.7684 168.886 29.6628 168.947 29.6052C168.98 29.5746 169.019 29.5517 169.062 29.5384C169.104 29.5251 169.149 29.5217 169.194 29.5284C169.286 29.5668 169.421 29.6692 169.424 29.746C169.443 30.306 169.424 30.866 169.424 31.426C169.424 31.666 169.254 31.746 169.043 31.7236H166.429L166.426 31.7332Z" fill="black"/>
</g>
</g>
<defs>
<clipPath id="clip0_26003_50483">
<rect width="200" height="64" fill="white" transform="translate(0 0.820312)"/>
</clipPath>
<clipPath id="clip1_26003_50483">
<rect width="160" height="52.16" fill="white" transform="translate(20 0.820312)"/>
</clipPath>
</defs>
</svg>
