<svg width="122" height="16" viewBox="0 0 122 16" fill="none" xmlns="http://www.w3.org/2000/svg">
<g clip-path="url(#clip0_26001_50135)">
<g clip-path="url(#clip1_26001_50135)">
<g clip-path="url(#clip2_26001_50135)">
<g clip-path="url(#clip3_26001_50135)">
<path d="M8.79103 1.40625L11.25 6.38825L16.75 7.18825L12.771 11.0642L13.71 16.5403L8.79103 13.9572L3.87203 16.5432L4.81103 11.0673L0.832031 7.19225L6.33203 6.39225L8.79103 1.40625Z" fill="#FFCB33" stroke="#FFCB33" stroke-width="0.999944" stroke-linecap="round" stroke-linejoin="round"/>
<path d="M31.3399 1.40625L33.7989 6.38825L39.2989 7.18825L35.3199 11.0642L36.2589 16.5403L31.3399 13.9572L26.4209 16.5432L27.3599 11.0673L23.3809 7.19225L28.8809 6.39225L31.3399 1.40625Z" fill="#FFCB33" stroke="#FFCB33" stroke-width="0.999944" stroke-linecap="round" stroke-linejoin="round"/>
<path d="M53.8877 1.40625L56.3467 6.38825L61.8467 7.18825L57.8677 11.0642L58.8067 16.5403L53.8877 13.9572L48.9687 16.5432L49.9077 11.0673L45.9287 7.19225L51.4287 6.39225L53.8877 1.40625Z" fill="#FFCB33" stroke="#FFCB33" stroke-width="0.999944" stroke-linecap="round" stroke-linejoin="round"/>
<path d="M76.4365 1.40625L78.8955 6.38825L84.3955 7.18825L80.4165 11.0642L81.3555 16.5403L76.4365 13.9572L71.5175 16.5432L72.4565 11.0673L68.4775 7.19225L73.9775 6.39225L76.4365 1.40625Z" fill="#FFCB33" stroke="#FFCB33" stroke-width="0.999944" stroke-linecap="round" stroke-linejoin="round"/>
<path d="M98.9854 1.40625L101.444 6.38825L106.944 7.18825L102.965 11.0642L103.904 16.5403L98.9854 13.9572L94.0664 16.5432L95.0054 11.0673L91.0264 7.19225L96.5264 6.39225L98.9854 1.40625Z" fill="#FFCB33" stroke="#FFCB33" stroke-width="0.999944" stroke-linecap="round" stroke-linejoin="round"/>
</g>
</g>
</g>
</g>
<defs>
<clipPath id="clip0_26001_50135">
<rect width="120.834" height="14.9878" fill="white" transform="translate(0.332031 0.90625)"/>
</clipPath>
<clipPath id="clip1_26001_50135">
<rect width="107.11" height="16.14" fill="white" transform="translate(0.332031 0.90625)"/>
</clipPath>
<clipPath id="clip2_26001_50135">
<rect width="107.11" height="16.14" fill="white" transform="translate(0.332031 0.90625)"/>
</clipPath>
<clipPath id="clip3_26001_50135">
<rect width="107.11" height="16.1361" fill="white" transform="translate(0.332031 0.90625)"/>
</clipPath>
</defs>
</svg>
