<svg width="61" height="61" viewBox="0 0 61 61" fill="none" xmlns="http://www.w3.org/2000/svg">
<rect x="6.5" y="6.21094" width="48" height="48" rx="24" stroke="#36A83A" stroke-width="2"/>
<g clip-path="url(#clip0_26003_50627)">
<path d="M36.0635 29.6562C36.0107 28.9004 35.9053 28.1445 35.7471 27.3887C35.5889 26.6328 35.3867 25.8901 35.1406 25.1606C34.8945 24.4312 34.5957 23.7148 34.2441 23.0117C33.8926 22.3086 33.4971 21.6318 33.0576 20.9814C33.9365 21.21 34.7671 21.5483 35.5493 21.9966C36.3315 22.4448 37.0391 22.9854 37.6719 23.6182C38.4629 24.4092 39.1089 25.3188 39.6099 26.3472C40.1108 27.3755 40.4316 28.4785 40.5723 29.6562H36.0635ZM33.0576 40.5723C33.4795 39.9395 33.8574 39.2891 34.1914 38.6211C34.543 37.9355 34.8462 37.228 35.1011 36.4985C35.356 35.769 35.5625 35.0176 35.7207 34.2441C35.8789 33.4883 35.9932 32.7061 36.0635 31.8975H40.5723C40.4316 33.0752 40.1108 34.1782 39.6099 35.2065C39.1089 36.2349 38.4629 37.1445 37.6719 37.9355C37.0391 38.5508 36.3315 39.0869 35.5493 39.5439C34.7671 40.001 33.9365 40.3438 33.0576 40.5723ZM24.9365 31.8975C24.9893 32.6533 25.0947 33.4092 25.2529 34.165C25.4111 34.9033 25.6133 35.6372 25.8594 36.3667C26.1055 37.0962 26.4043 37.8125 26.7559 38.5156C27.1074 39.2188 27.5029 39.9043 27.9424 40.5723C27.0635 40.3438 26.2329 40.0054 25.4507 39.5571C24.6685 39.1089 23.9609 38.5684 23.3281 37.9355C22.5371 37.1445 21.8911 36.2349 21.3901 35.2065C20.8892 34.1782 20.5684 33.0752 20.4277 31.8975H24.9365ZM27.9424 20.9814C27.5205 21.5967 27.1426 22.2471 26.8086 22.9326C26.457 23.6182 26.1538 24.3213 25.8989 25.042C25.644 25.7627 25.4375 26.5098 25.2793 27.2832C25.1211 28.0566 25.0068 28.8477 24.9365 29.6562H20.4277C20.5684 28.4785 20.8892 27.3755 21.3901 26.3472C21.8911 25.3188 22.5371 24.4092 23.3281 23.6182C23.9609 22.9854 24.6685 22.4448 25.4507 21.9966C26.2329 21.5483 27.0635 21.21 27.9424 20.9814ZM30.5 18.3975C29.6387 18.3975 28.8037 18.4854 27.9951 18.6611C27.1865 18.8193 26.4131 19.0566 25.6748 19.373C24.9365 19.6895 24.2422 20.0674 23.5918 20.5068C22.9238 20.9639 22.3086 21.4648 21.7461 22.0098C21.1836 22.5723 20.6826 23.1875 20.2432 23.8555C19.7861 24.5234 19.4038 25.2266 19.0962 25.9648C18.7886 26.7031 18.5469 27.4766 18.3711 28.2852C18.2129 29.0938 18.1338 29.9199 18.1338 30.7637C18.1338 31.625 18.2129 32.46 18.3711 33.2686C18.5469 34.0771 18.7886 34.8506 19.0962 35.5889C19.4038 36.3271 19.7861 37.0303 20.2432 37.6982C20.6826 38.3486 21.1836 38.9551 21.7461 39.5176C22.3086 40.0801 22.9238 40.5811 23.5918 41.0205C24.2422 41.4775 24.9365 41.8643 25.6748 42.1807C26.4131 42.4971 27.1865 42.7344 27.9951 42.8926C28.8037 43.0684 29.6387 43.1562 30.5 43.1562C31.3613 43.1562 32.1963 43.0684 33.0049 42.8926C33.8135 42.7344 34.5869 42.4971 35.3252 42.1807C36.0635 41.8643 36.7578 41.4775 37.4082 41.0205C38.0762 40.5811 38.6914 40.0801 39.2539 39.5176C39.8164 38.9551 40.3174 38.3486 40.7568 37.6982C41.2139 37.0303 41.5962 36.3271 41.9038 35.5889C42.2114 34.8506 42.4531 34.0771 42.6289 33.2686C42.7871 32.46 42.8662 31.625 42.8662 30.7637C42.8662 29.9199 42.7871 29.0938 42.6289 28.2852C42.4531 27.4766 42.2114 26.7031 41.9038 25.9648C41.5962 25.2266 41.2139 24.5234 40.7568 23.8555C40.3174 23.1875 39.8164 22.5723 39.2539 22.0098C38.6914 21.4648 38.0762 20.9639 37.4082 20.5068C36.7578 20.0674 36.0635 19.6895 35.3252 19.373C34.5869 19.0566 33.8135 18.8193 33.0049 18.6611C32.1963 18.4854 31.3613 18.3975 30.5 18.3975ZM33.8223 31.8975C33.752 32.6885 33.6201 33.4531 33.4268 34.1914C33.251 34.9473 33.0225 35.6768 32.7412 36.3799C32.46 37.083 32.126 37.7598 31.7393 38.4102C31.3701 39.0605 30.957 39.6846 30.5 40.2822C30.0078 39.6494 29.5771 38.999 29.208 38.3311C28.8213 37.6631 28.4917 36.9731 28.2192 36.2612C27.9468 35.5493 27.7227 34.833 27.5469 34.1123C27.3711 33.374 27.248 32.6357 27.1777 31.8975H33.8223ZM30.5 21.2715C30.9922 21.8867 31.4229 22.5371 31.792 23.2227C32.1787 23.8906 32.5083 24.5762 32.7808 25.2793C33.0532 25.9824 33.2773 26.7031 33.4531 27.4414C33.6289 28.1797 33.752 28.918 33.8223 29.6562H27.1777C27.248 28.8652 27.3799 28.0918 27.5732 27.3359C27.749 26.5977 27.9775 25.8726 28.2588 25.1606C28.54 24.4487 28.874 23.7676 29.2607 23.1172C29.6299 22.4668 30.043 21.8516 30.5 21.2715Z" fill="#36A83A"/>
</g>
<defs>
<clipPath id="clip0_26003_50627">
<rect width="27" height="27" fill="white" transform="matrix(1 0 0 -1 17 43.7109)"/>
</clipPath>
</defs>
</svg>
