<svg width="108" height="17" viewBox="0 0 108 17" fill="none" xmlns="http://www.w3.org/2000/svg">
<g clip-path="url(#clip0_26003_109285)">
<g clip-path="url(#clip1_26003_109285)">
<g clip-path="url(#clip2_26003_109285)">
<path d="M9.02879 0.5L11.4867 5.47984L16.9843 6.27949L13.0071 10.1538L13.9457 15.6274L9.02879 13.0456L4.11192 15.6304L5.05052 10.1568L1.07324 6.28349L6.57086 5.48384L9.02879 0.5Z" stroke="#FFCB33" stroke-width="0.999566" stroke-linecap="round" stroke-linejoin="round"/>
<path d="M31.5688 0.5L34.0268 5.47984L39.5244 6.27949L35.5471 10.1538L36.4857 15.6274L31.5688 13.0456L26.652 15.6304L27.5906 10.1568L23.6133 6.28349L29.1109 5.48384L31.5688 0.5Z" stroke="#FFCB33" stroke-width="0.999566" stroke-linecap="round" stroke-linejoin="round"/>
<path d="M54.1079 0.5L56.5658 5.47984L62.0634 6.27949L58.0862 10.1538L59.0248 15.6274L54.1079 13.0456L49.191 15.6304L50.1296 10.1568L46.1523 6.28349L51.65 5.48384L54.1079 0.5Z" stroke="#FFCB33" stroke-width="0.999566" stroke-linecap="round" stroke-linejoin="round"/>
<path d="M76.6479 0.5L79.1059 5.47984L84.6035 6.27949L80.6262 10.1538L81.5648 15.6274L76.6479 13.0456L71.7311 15.6304L72.6697 10.1568L68.6924 6.28349L74.19 5.48384L76.6479 0.5Z" stroke="#FFCB33" stroke-width="0.999566" stroke-linecap="round" stroke-linejoin="round"/>
<path d="M99.188 0.5L101.646 5.47984L107.144 6.27949L103.166 10.1538L104.105 15.6274L99.188 13.0456L94.2711 15.6304L95.2097 10.1568L91.2324 6.28349L96.73 5.48384L99.188 0.5Z" stroke="#FFCB33" stroke-width="0.999566" stroke-linecap="round" stroke-linejoin="round"/>
</g>
</g>
</g>
<g clip-path="url(#clip3_26003_109285)">
<g clip-path="url(#clip4_26003_109285)">
<g clip-path="url(#clip5_26003_109285)">
<g clip-path="url(#clip6_26003_109285)">
<path d="M9.01173 1.36133L11.4707 6.34333L16.9707 7.14333L12.9917 11.0193L13.9307 16.4953L9.01173 13.9123L4.09273 16.4983L5.03173 11.0223L1.05273 7.14733L6.55273 6.34733L9.01173 1.36133Z" fill="#FFCB33" stroke="#FFCB33" stroke-width="0.999944" stroke-linecap="round" stroke-linejoin="round"/>
<path d="M31.5606 1.36133L34.0196 6.34333L39.5196 7.14333L35.5406 11.0193L36.4796 16.4953L31.5606 13.9123L26.6416 16.4983L27.5806 11.0223L23.6016 7.14733L29.1016 6.34733L31.5606 1.36133Z" fill="#FFCB33" stroke="#FFCB33" stroke-width="0.999944" stroke-linecap="round" stroke-linejoin="round"/>
<path d="M54.1084 1.36133L56.5674 6.34333L62.0674 7.14333L58.0884 11.0193L59.0274 16.4953L54.1084 13.9123L49.1894 16.4983L50.1284 11.0223L46.1494 7.14733L51.6494 6.34733L54.1084 1.36133Z" fill="#FFCB33" stroke="#FFCB33" stroke-width="0.999944" stroke-linecap="round" stroke-linejoin="round"/>
<path d="M76.6572 1.36133L79.1162 6.34333L84.6162 7.14333L80.6372 11.0193L81.5762 16.4953L76.6572 13.9123L71.7382 16.4983L72.6772 11.0223L68.6982 7.14733L74.1982 6.34733L76.6572 1.36133Z" fill="#FFCB33" stroke="#FFCB33" stroke-width="0.999944" stroke-linecap="round" stroke-linejoin="round"/>
<path d="M99.2061 1.36133L101.665 6.34333L107.165 7.14333L103.186 11.0193L104.125 16.4953L99.2061 13.9123L94.2871 16.4983L95.2261 11.0223L91.2471 7.14733L96.7471 6.34733L99.2061 1.36133Z" fill="#FFCB33" stroke="#FFCB33" stroke-width="0.999944" stroke-linecap="round" stroke-linejoin="round"/>
</g>
</g>
</g>
</g>
<defs>
<clipPath id="clip0_26003_109285">
<rect width="107.11" height="16.13" fill="white" transform="translate(0.552734)"/>
</clipPath>
<clipPath id="clip1_26003_109285">
<rect width="107.11" height="16.13" fill="white" transform="translate(0.552734)"/>
</clipPath>
<clipPath id="clip2_26003_109285">
<rect width="107.07" height="16.13" fill="white" transform="translate(0.573242)"/>
</clipPath>
<clipPath id="clip3_26003_109285">
<rect width="100.67" height="16.13" fill="white" transform="translate(0.552734)"/>
</clipPath>
<clipPath id="clip4_26003_109285">
<rect width="107.11" height="16.14" fill="white" transform="translate(0.552734 0.859375)"/>
</clipPath>
<clipPath id="clip5_26003_109285">
<rect width="107.11" height="16.14" fill="white" transform="translate(0.552734 0.859375)"/>
</clipPath>
<clipPath id="clip6_26003_109285">
<rect width="107.11" height="16.1361" fill="white" transform="translate(0.552734 0.861328)"/>
</clipPath>
</defs>
</svg>
