<svg width="69" height="45" viewBox="0 0 69 45" fill="none" xmlns="http://www.w3.org/2000/svg">
<g clip-path="url(#clip0_26003_93928)">
<g clip-path="url(#clip1_26003_93928)">
<path fill-rule="evenodd" clip-rule="evenodd" d="M4.71484 45H64.1148C66.4548 44.64 68.2548 42.48 68.6148 39.78V5.22C68.2548 2.52 66.4548 0.36 64.1148 0H4.71484C2.37484 0.36 0.574844 2.52 0.214844 5.22V39.78C0.574844 42.48 2.37484 44.64 4.71484 45Z" fill="#C12837"/>
<path fill-rule="evenodd" clip-rule="evenodd" d="M30.9949 9.90062C30.8149 10.0806 30.2749 9.90062 30.2749 9.90062C30.0949 9.72062 30.2749 9.54063 30.4549 9.54063H30.6349C30.8149 9.54063 30.6349 9.72062 30.8149 9.90062C30.8149 9.90062 31.1749 9.36062 30.9949 9.90062ZM38.0149 9.72062C38.1949 9.72062 38.0149 9.36062 38.1949 9.36062H38.3749C38.5549 9.36062 38.5549 9.54062 38.5549 9.72062C38.3749 9.90062 37.8349 9.90062 37.8349 9.72062C37.6549 9.36062 38.0149 9.90062 38.0149 9.72062ZM45.3949 28.6206C45.3949 28.6206 45.2149 28.4406 45.0349 28.4406C44.8549 28.4406 44.6749 28.4406 44.6749 28.2606C44.4949 28.0806 44.1349 28.2606 43.9549 28.4406C43.7749 28.6206 43.7749 28.6206 43.2349 28.6206H42.3349L42.6949 28.2606C43.0549 28.0806 43.2349 27.9006 43.2349 27.9006C43.4149 27.9006 43.7749 27.9006 43.9549 27.5406C44.1349 27.3606 44.1349 27.3606 44.6749 27.3606H44.8549C44.8549 27.1806 44.4949 26.8206 44.1349 26.8206H43.7749C43.4149 26.6406 43.0549 27.0006 43.0549 27.3606C43.0549 27.5406 42.6949 27.7206 42.1549 28.0806L41.6149 28.6206L40.8949 28.2606C39.9949 27.9006 39.4549 27.5406 39.4549 27.5406C39.4549 27.5406 39.6349 27.3606 39.6349 27.1806C39.8149 27.0006 39.8149 26.8206 39.8149 26.8206C39.8149 26.8206 39.6349 26.6406 39.4549 26.6406C38.3749 25.9206 37.4749 25.0206 37.1149 24.1206C36.9349 23.4006 36.9349 23.2206 37.2949 23.9406C37.4749 24.4806 37.6549 24.6606 38.0149 25.0206C38.3749 25.2006 38.5549 25.3806 38.7349 25.2006C38.9149 25.0206 38.9149 24.8406 38.5549 24.4806C38.0149 23.7606 37.8349 22.8606 38.3749 22.8606C38.5549 22.8606 38.5549 22.8606 38.9149 23.7606C39.4549 24.8406 39.8149 25.7406 40.1749 25.9206C40.5349 26.1006 40.8949 25.9206 41.0749 25.7406C41.0749 25.5606 41.0749 25.3806 40.7149 25.2006C40.1749 24.8406 39.8149 24.1206 39.6349 23.2206V22.6806C39.8149 22.5006 39.8149 22.5006 40.1749 23.2206C40.8949 24.3006 41.9749 25.9206 42.5149 26.1006C43.4149 26.6406 44.3149 26.6406 44.8549 26.1006C45.0349 25.9206 45.0349 25.9206 45.0349 25.7406C45.0349 25.3806 44.8549 25.3806 44.4949 25.3806C43.5949 25.3806 43.4149 25.3806 43.2349 25.2006C42.5149 24.8406 41.9749 23.9406 41.4349 22.6806C40.8949 21.6006 41.0749 21.4206 41.9749 22.5006C43.0549 23.7606 43.9549 24.3006 44.8549 23.9406C45.2149 23.7606 45.5749 23.4006 45.5749 23.0406C45.5749 22.6806 45.3949 22.6806 45.0349 22.6806H44.1349C43.7749 22.6806 43.5949 22.6806 43.4149 22.5006C43.2349 22.3206 42.8749 22.1406 42.6949 21.9606C42.1549 21.4206 41.2549 19.9806 41.2549 19.8006C41.2549 19.6206 41.4349 19.6206 41.9749 20.1606C42.5149 20.5206 43.2349 21.2406 43.5949 21.4206C43.7749 21.6006 43.9549 21.6006 44.3149 21.6006C44.6749 21.6006 44.8549 21.6006 45.0349 21.4206C45.3949 21.2406 45.5749 21.0606 45.5749 20.7006C45.5749 20.1606 45.3949 19.9806 44.6749 20.1606C43.5949 20.5206 43.0549 20.1606 42.1549 19.0806C41.6149 18.5406 41.6149 18.3606 41.6149 18.1806C41.6149 18.0006 41.7949 18.1806 42.6949 18.5406C43.5949 19.0806 43.9549 19.2606 44.3149 19.2606C44.6749 19.2606 45.0349 19.2606 45.2149 18.9006C45.5749 18.5406 45.7549 18.1806 45.3949 17.8206C45.2149 17.6406 44.8549 17.6406 44.4949 17.8206C44.3149 18.0006 44.1349 18.0006 43.9549 18.0006C43.2349 18.0006 42.3349 17.6406 41.9749 17.1006C41.2549 16.5606 41.2549 16.2006 41.2549 16.2006C41.2549 16.0206 41.4349 16.0206 41.7949 16.2006C42.5149 16.5606 42.8749 16.5606 43.4149 16.5606C43.9549 16.5606 44.3149 16.3806 44.8549 16.2006C45.2149 16.0206 45.5749 15.6606 45.5749 15.4806C45.5749 15.4806 45.5749 15.3006 45.3949 15.1206C45.2149 14.7606 45.0349 14.9406 44.4949 15.1206C43.4149 15.6606 42.8749 15.8406 42.1549 15.4806C41.7949 15.3006 41.4349 14.7606 41.2549 14.5806V14.2206C41.4349 14.0406 41.4349 14.0406 42.1549 14.4006C42.5149 14.5806 42.6949 14.5806 43.2349 14.5806C43.7749 14.5806 44.1349 14.5806 44.4949 14.4006C45.0349 14.2206 45.5749 13.5006 45.5749 12.9606C45.5749 12.7806 45.3949 12.4206 45.3949 12.4206C45.2149 12.2406 45.0349 12.4206 44.6749 12.7806C44.1349 13.3206 43.5949 13.6806 42.6949 13.6806C41.7949 13.6806 41.4349 13.5006 41.4349 13.1406C41.4349 12.9606 41.6149 12.7806 41.9749 12.6006C43.0549 12.4206 44.3149 11.7006 45.0349 10.9806C45.3949 10.6206 45.5749 10.2606 45.5749 9.90062C45.5749 9.54062 45.3949 9.18062 45.0349 9.18062C44.8549 9.18062 44.6749 9.18062 44.3149 9.72062C43.9549 10.4406 43.4149 10.9806 42.5149 11.3406C42.0794 11.6222 41.5882 11.8065 41.0749 11.8806L40.8949 11.7006C40.7149 11.3406 40.7149 11.3406 40.1749 11.5206C39.9949 11.7006 39.4549 11.8806 39.0949 12.0606C38.3749 12.4206 38.0149 12.6006 37.8349 12.9606C38.0149 13.1406 38.0149 13.1406 38.0149 13.8606C38.0149 14.5806 38.0149 14.5806 37.8349 14.7606C37.6549 14.9406 37.4749 15.1206 37.2949 15.1206C36.7549 15.1206 36.5749 14.7606 36.5749 14.2206C36.5749 13.6806 36.5749 13.3206 36.7549 12.7806C36.9349 12.2406 37.2949 11.8806 37.6549 11.7006C38.1949 11.3406 38.5549 11.1606 39.0949 11.1606C39.6349 11.1606 40.1749 10.8006 40.3549 10.6206C39.8149 10.8006 39.2749 10.4406 39.2749 10.4406H40.5349C40.8949 10.4406 41.0749 10.2606 41.4349 10.0806C41.7949 9.90062 41.9749 9.72063 41.7949 9.54063C41.7949 9.36063 41.4349 9.36063 41.4349 9.54063L41.0749 9.90062C40.8949 10.0806 40.8949 10.0806 40.3549 10.2606H39.6349L39.4549 10.0806C39.4549 10.0806 39.6349 9.90062 39.8149 9.90062C39.9949 9.90062 40.1749 9.90062 40.5349 10.0806C40.5349 9.90062 40.5349 9.90062 40.3549 9.72062C40.5349 9.18062 40.1749 9.00062 39.6349 9.00062C39.2749 9.00062 39.0949 9.00062 39.0949 8.82062L38.9149 8.64062H38.5549C38.1949 8.64062 37.6549 8.82062 37.1149 9.00062C36.7549 9.18062 36.7549 9.18062 36.3949 9.18062H35.8549C35.4949 9.00062 35.3149 9.00062 35.3149 9.18062C35.3149 9.36062 35.6749 9.72062 35.8549 9.72062C36.2149 9.72062 36.2149 9.90062 36.2149 9.90062C36.2149 10.0806 35.8549 10.2606 35.4949 10.4406C35.3149 10.6206 35.3149 10.6206 35.4949 10.8006C35.6749 10.8006 35.6749 10.9806 35.6749 10.9806C35.6749 11.1606 35.1349 11.5206 34.9549 11.5206C34.5949 11.5206 34.7749 11.7006 35.1349 11.8806C35.3149 11.8806 35.3149 11.8806 35.1349 12.0606C34.9549 12.2406 34.7749 12.4206 34.5949 12.2406C34.4149 12.2406 34.4149 12.2406 34.4149 12.4206V12.6006H34.0549V12.4206C34.2349 12.2406 34.0549 12.0606 33.8749 12.2406C33.6949 12.2406 33.5149 12.2406 33.3349 12.0606C33.1549 11.8806 33.1549 11.8806 33.3349 11.8806C33.6949 11.8806 33.6949 11.5206 33.5149 11.5206C33.3349 11.5206 32.7949 11.1606 32.7949 10.9806L32.9749 10.8006C33.1549 10.6206 33.3349 10.6206 32.9749 10.4406C32.7949 10.4406 32.4349 10.0806 32.2549 9.90062C32.2549 9.90062 32.2549 9.72062 32.4349 9.72062L32.9749 9.18062H31.8949C31.5349 9.18062 31.5349 9.18062 31.1749 9.00062C30.6349 8.82062 30.0949 8.64062 29.7349 8.64062H29.3749L29.1949 8.82062C29.1949 8.82062 29.0149 9.00062 28.6549 9.00062C28.1149 9.00062 27.9349 9.18062 27.7549 9.36062C27.5749 9.54062 27.5749 9.54062 27.5749 9.72062C27.7549 9.72062 28.1149 9.54063 28.2949 9.54063C28.4749 9.54063 28.6549 9.72062 28.6549 9.72062C28.6549 9.72062 28.6549 9.90062 28.4749 9.90062H27.7549C27.2149 9.90062 27.2149 9.72063 27.0349 9.54063C27.0349 9.36063 26.8549 9.18062 26.6749 9.18062C26.4949 9.00062 26.3149 9.00062 26.3149 9.18062C26.3149 9.36062 26.4949 9.54062 26.6749 9.72062C26.8549 9.90062 27.0349 10.0806 27.5749 10.0806H28.8349C28.8349 10.0806 28.2949 10.4406 27.7549 10.2606C27.9349 10.6206 28.4749 10.8006 29.0149 10.8006C29.7349 10.8006 30.0949 10.9806 30.4549 11.3406C30.9949 11.7006 31.1749 12.0606 31.3549 12.4206C31.5349 12.9606 31.7149 13.3206 31.7149 13.8606C31.7149 14.4006 31.3549 14.7606 30.9949 14.7606C30.6349 14.7606 30.4549 14.7606 30.4549 14.4006C30.8149 14.5806 30.8149 14.4006 30.8149 13.8606C30.8149 13.3206 30.8149 13.1406 30.6349 12.9606C30.4549 12.6006 30.2749 12.4206 29.3749 12.0606C29.0149 11.8806 28.4749 11.7006 28.2949 11.5206C27.7549 11.3406 27.7549 11.3406 27.5749 11.7006C27.5749 11.8806 27.3949 11.8806 27.3949 11.8806C27.2149 11.8806 26.4949 11.5206 25.9549 11.3406C25.0549 10.8006 24.6949 10.4406 24.1549 9.72062C24.1549 9.18062 23.9749 9.00062 23.6149 9.18062C23.2549 9.18062 23.2549 9.54062 23.2549 9.90062C23.2549 10.2606 23.4349 10.6206 23.7949 10.9806C24.5149 11.7006 25.7749 12.4206 26.8549 12.6006C27.2149 12.6006 27.3949 12.7806 27.3949 13.1406C27.3949 13.5006 27.0349 13.6806 26.1349 13.6806C25.2349 13.6806 24.6949 13.5006 24.1549 12.7806C23.7949 12.4206 23.6149 12.2406 23.4349 12.4206C23.2549 12.4206 23.2549 12.7806 23.2549 12.9606C23.2549 13.3206 23.7949 14.0406 24.3349 14.4006C24.6949 14.5806 25.0549 14.7606 25.7749 14.5806C26.1349 14.5806 26.3149 14.5806 26.8549 14.4006C27.5749 14.0406 27.7549 14.0406 27.7549 14.2206V14.5806C27.5749 14.9406 27.2149 15.4806 26.8549 15.4806C26.1349 15.8406 25.4149 15.8406 24.5149 15.1206C23.9749 14.7606 23.7949 14.7606 23.6149 15.1206C23.6149 15.3006 23.4349 15.3006 23.4349 15.4806C23.4349 15.6606 23.6149 16.0206 24.1549 16.2006C24.6949 16.5606 25.0549 16.5606 25.5949 16.5606C26.1349 16.5606 26.4949 16.5606 27.2149 16.2006C27.5749 16.0206 27.7549 16.0206 27.7549 16.2006C27.7549 16.3806 27.7549 16.7406 27.3949 17.1006C26.8549 17.6406 25.9549 18.0006 25.4149 18.0006C25.2349 18.0006 25.0549 17.8206 24.8749 17.8206C24.5149 17.6406 24.1549 17.6406 23.9749 17.8206C23.7949 18.0006 23.7949 18.5406 24.1549 18.9006C24.3349 19.0806 24.6949 19.2606 25.0549 19.2606C25.4149 19.2606 25.7749 19.0806 26.6749 18.5406C27.5749 18.0006 27.7549 18.0006 27.7549 18.1806C27.7549 18.3606 27.5749 18.5406 27.2149 19.0806C26.3149 20.1606 25.7749 20.3406 24.6949 20.1606C23.9749 19.9806 23.7949 20.1606 23.7949 20.7006C23.7949 21.0606 23.9749 21.2406 24.3349 21.4206C24.5149 21.6006 24.6949 21.6006 25.0549 21.6006C25.4149 21.6006 25.5949 21.6006 25.7749 21.4206C26.1349 21.2406 26.8549 20.7006 27.3949 20.1606C27.9349 19.6206 28.1149 19.4406 28.1149 19.8006C28.1149 19.9806 27.2149 21.4206 26.6749 21.9606C26.4949 22.1406 26.1349 22.5006 25.9549 22.5006C25.5949 22.6806 25.5949 22.6806 25.2349 22.6806H24.3349C23.9749 22.6806 23.7949 22.6806 23.7949 23.0406C23.7949 23.4006 24.1549 23.7606 24.5149 23.9406C25.4149 24.3006 26.3149 23.7606 27.3949 22.5006C28.2949 21.6006 28.2949 21.6006 27.9349 22.6806C27.3949 23.9406 26.6749 24.8406 26.1349 25.2006C25.7749 25.3806 25.7749 25.3806 24.8749 25.3806C24.5149 25.3806 24.3349 25.5606 24.3349 25.7406C24.3349 25.9206 24.3349 25.9206 24.5149 26.1006C25.0549 26.6406 25.9549 26.6406 26.6749 26.1006C27.2149 25.7406 28.2949 24.3006 29.0149 23.2206C29.3749 22.6806 29.3749 22.5006 29.5549 22.6806V23.2206C29.3749 24.1206 29.0149 24.6606 28.4749 25.2006C28.1149 25.3806 28.1149 25.5606 28.1149 25.7406C28.1149 26.1006 28.6549 26.1006 29.0149 25.9206C29.3749 25.7406 29.9149 25.0206 30.2749 23.7606C30.6349 22.8606 30.6349 22.8606 30.8149 22.8606C31.1749 22.8606 30.9949 23.7606 30.6349 24.4806C30.4549 24.8406 30.4549 25.0206 30.4549 25.2006C30.6349 25.3806 30.8149 25.3806 31.1749 25.0206C31.5349 24.8406 31.7149 24.4806 31.8949 23.9406C32.2549 23.2206 32.2549 23.4006 32.0749 24.1206C31.7149 25.2006 30.9949 26.1006 29.7349 26.6406C29.5549 26.8206 29.3749 26.8206 29.3749 26.8206C29.3749 26.8206 29.5549 27.0006 29.5549 27.1806C29.7349 27.3606 29.7349 27.5406 29.7349 27.5406L28.2949 28.2606L27.2149 28.6206L26.8549 28.2606C26.3149 27.9006 25.9549 27.7206 25.9549 27.5406C25.7749 27.1806 25.4149 27.0006 25.2349 27.0006H24.8749C24.3349 26.8206 24.1549 27.1806 24.1549 27.5406H24.3349C24.8749 27.5406 24.8749 27.5406 25.0549 27.7206C25.2349 27.9006 25.5949 28.0806 25.7749 28.0806C25.9549 28.0806 25.9549 28.0806 26.3149 28.4406L26.6749 28.8006H25.7749C25.2349 28.8006 25.2349 28.8006 25.0549 28.6206C24.8749 28.4406 24.6949 28.4406 24.3349 28.4406C24.1549 28.4406 23.9749 28.6206 23.9749 28.6206C23.7949 28.6206 23.6149 28.6206 23.6149 28.8006L23.2549 29.1606H24.1549L24.3349 29.3406H26.6749C26.6749 29.3406 26.4949 29.5206 26.3149 29.5206C25.9549 29.8806 25.9549 29.8806 25.5949 29.8806C25.2349 29.8806 24.8749 30.0606 24.8749 30.4206C24.8749 30.6006 24.8749 30.7806 24.6949 30.7806C24.6949 31.1406 24.5149 31.1406 24.8749 31.6806C25.0549 31.1406 25.0549 31.3206 25.0549 31.1406C25.2349 30.9606 25.2349 30.9606 25.4149 30.9606C25.7749 30.9606 25.9549 30.7806 26.1349 30.4206C26.1349 30.2406 26.3149 30.0606 26.8549 29.7006C27.5749 29.3406 27.3949 29.3406 28.1149 29.7006C28.4749 29.8806 28.6549 30.0606 28.6549 30.0606C28.8349 30.2406 29.0149 30.4206 29.1949 30.2406C29.3749 30.2406 29.5549 30.2406 29.7349 30.4206C29.7349 30.6006 29.7349 30.6006 29.9149 30.6006V30.2406C29.9149 30.0606 29.9149 29.8806 29.5549 29.7006C29.1949 29.3406 29.0149 29.1606 28.8349 29.3406C28.6549 29.3406 28.6549 29.3406 28.2949 29.1606C27.9349 28.9806 27.9349 28.8006 28.1149 28.8006L29.1949 28.4406L30.2749 27.9006L30.4549 28.0806C30.8149 28.2606 31.1749 28.6206 31.3549 28.6206C31.5349 28.6206 31.5349 28.6206 31.5349 28.4406C31.5349 28.0806 32.2549 26.8206 32.6149 26.2806C33.1549 25.3806 33.5149 25.0206 33.6949 25.3806C33.6949 25.5606 33.8749 25.5606 33.6949 25.9206C33.6949 27.0006 33.1549 28.2606 32.4349 29.1606C32.0749 29.5206 31.7149 29.8806 31.1749 29.8806C30.8149 29.8806 30.6349 30.0606 30.6349 30.2406C30.6349 30.4206 30.8149 30.6006 30.9949 30.7806C31.1749 30.7806 31.1749 30.9606 31.5349 30.7806C31.8949 30.7806 31.8949 30.7806 32.2549 30.6006C32.6149 30.4206 32.6149 30.4206 32.7949 30.4206V30.7806C32.6149 31.1406 32.4349 31.5006 31.7149 31.5006C30.9949 31.6806 30.8149 31.8606 30.9949 32.2206C31.1749 32.4006 31.3549 32.5806 31.7149 32.5806C32.0749 32.5806 32.4349 32.4006 32.9749 31.8606L33.3349 31.5006V32.2206C33.3349 32.4006 32.9749 32.9406 32.7949 32.9406L32.4349 33.1206C31.8949 33.3006 31.7149 33.4806 32.2549 33.8406C32.4349 34.0206 32.9749 34.0206 33.3349 33.8406L34.2349 32.9406C34.4149 32.7606 34.4149 32.9406 34.4149 33.1206C34.4149 33.3006 34.2349 33.6606 34.0549 34.0206C33.8749 34.3806 33.8749 34.7406 34.2349 35.4606C34.4149 35.8206 34.7749 36.1806 34.7749 36.1806C34.9549 36.1806 35.1349 35.8206 35.3149 35.4606C35.6749 34.9206 35.8549 34.3806 35.4949 34.0206C35.1349 33.6606 35.1349 33.3006 35.1349 33.1206C35.1349 32.7606 35.1349 32.7606 35.3149 32.9406L36.2149 33.8406C36.5749 34.0206 36.9349 34.0206 37.1149 33.8406C37.4749 33.4806 37.4749 33.3006 36.9349 33.1206C36.7549 33.1206 36.5749 32.9406 36.5749 32.9406C36.3949 32.9406 36.0349 32.4006 36.0349 32.2206V31.5006L36.3949 31.8606C36.7549 32.4006 37.1149 32.5806 37.6549 32.5806C38.0149 32.5806 38.1949 32.4006 38.3749 32.2206C38.5549 31.8606 38.3749 31.6806 37.6549 31.5006C36.9349 31.5006 36.7549 31.1406 36.5749 30.7806V30.4206C36.5749 30.4206 36.7549 30.4206 36.9349 30.6006C37.2949 30.7806 37.2949 30.7806 37.6549 30.7806H38.1949C38.3749 30.7806 38.5549 30.4206 38.5549 30.2406C38.5549 30.0606 38.3749 30.0606 38.0149 29.8806C37.4749 29.8806 37.1149 29.5206 36.7549 29.1606C36.0349 28.4406 35.4949 27.0006 35.4949 25.9206C35.4949 25.5606 35.4949 25.3806 35.6749 25.3806C35.8549 25.0206 36.2149 25.3806 36.7549 26.2806C37.1149 26.8206 37.6549 28.0806 37.8349 28.4406C37.8349 28.6206 37.8349 28.6206 38.0149 28.6206C38.1949 28.6206 38.7349 28.4406 38.9149 28.0806L39.0949 27.9006L40.1749 28.4406L41.2549 28.8006C41.4349 28.8006 41.2549 28.9806 40.8949 29.1606C40.7149 29.3406 40.5349 29.3406 40.3549 29.3406C40.1749 29.1606 39.9949 29.3406 39.6349 29.7006C39.4549 30.0606 39.2749 30.0606 39.2749 30.2406V30.6006L39.4549 30.4206C39.6349 30.2406 39.6349 30.0606 39.9949 30.2406C40.1749 30.2406 40.5349 30.2406 40.5349 30.0606C40.5349 29.8806 40.7149 29.8806 41.0749 29.7006C41.7949 29.3406 41.7949 29.3406 42.3349 29.7006C42.8749 30.0606 42.8749 30.0606 43.0549 30.4206C43.2349 30.7806 43.4149 30.7806 43.7749 30.9606C43.9549 30.9606 44.1349 30.9606 44.1349 31.1406C44.1349 31.3206 44.1349 31.1406 44.3149 31.6806C44.4949 31.1406 44.4949 31.1406 44.4949 30.7806C44.4949 30.6006 44.4949 30.4206 44.3149 30.4206C44.3149 30.0606 43.9549 29.8806 43.5949 29.8806C43.2349 29.8806 43.2349 29.8806 42.8749 29.5206C42.6949 29.3406 42.5149 29.3406 42.5149 29.3406H44.1349C44.3149 29.5206 44.6749 29.5206 44.8549 29.3406L45.0349 29.1606C45.2149 28.9806 45.2149 28.9806 45.5749 29.1606H45.9349C45.7549 28.8006 45.5749 28.6206 45.3949 28.6206Z" fill="#242222"/>
</g>
</g>
<defs>
<clipPath id="clip0_26003_93928">
<rect width="68" height="45" fill="white" transform="translate(0.415039)"/>
</clipPath>
<clipPath id="clip1_26003_93928">
<rect width="68.4" height="45" fill="white" transform="translate(0.214844)"/>
</clipPath>
</defs>
</svg>
