<svg width="59" height="58" viewBox="0 0 59 58" fill="none" xmlns="http://www.w3.org/2000/svg">
<g clip-path="url(#clip0_26003_109270)">
<g clip-path="url(#clip1_26003_109270)">
<path d="M5.32546 0H52.7484C54.1468 0 55.4879 0.555518 56.4767 1.54435C57.4656 2.53317 58.0211 3.87431 58.0211 5.27273V52.7273C58.0211 54.1257 57.4656 55.4668 56.4767 56.4557C55.4879 57.4445 54.1468 58 52.7484 58H5.32546C3.92705 58 2.58591 57.4445 1.59708 56.4557C0.608252 55.4668 0.0527344 54.1257 0.0527344 52.7273L0.0527344 5.27273C0.0527344 3.87431 0.608252 2.53317 1.59708 1.54435C2.58591 0.555518 3.92705 0 5.32546 0Z" fill="#FF7900"/>
<path d="M22.8944 52.9282C22.8417 52.7595 22.6519 52.6751 22.4937 52.7595C21.7555 53.1708 20.9646 53.3817 20.1315 53.3817C18.6235 53.3817 17.7377 52.3799 17.7377 51.0195C17.7377 49.2584 19.309 48.2988 22.557 47.8875C22.6232 47.8776 22.6838 47.8447 22.7281 47.7946C22.7725 47.7444 22.7978 47.6802 22.7995 47.6133V47.413C22.7995 46.8224 22.3461 46.485 21.5341 46.485C20.7959 46.485 20.1737 46.7591 19.7097 47.2442C19.6253 47.3391 19.4882 47.3497 19.3722 47.2864L18.4231 46.7381C18.2755 46.6537 18.2333 46.4428 18.3493 46.3162C19.0981 45.441 20.1737 44.998 21.5762 44.998C23.6853 44.998 24.8664 45.9261 24.8664 47.4024V53.0021C24.8664 53.1602 24.7399 53.2868 24.5922 53.2868H23.2002C23.1405 53.2867 23.0823 53.2671 23.0348 53.2309C22.9872 53.1947 22.9527 53.144 22.9366 53.0864L22.8944 52.9282ZM19.8046 50.8824C19.8046 51.4202 20.1526 51.9264 20.7642 51.9264C21.4075 51.9264 22.0086 51.6628 22.6308 51.1461C22.6605 51.1195 22.6843 51.087 22.7006 51.0507C22.717 51.0143 22.7255 50.975 22.7257 50.9351V49.4799C22.7246 49.4395 22.715 49.3999 22.6975 49.3636C22.68 49.3272 22.6549 49.295 22.624 49.2691C22.5931 49.2432 22.5571 49.2241 22.5182 49.2132C22.4794 49.2023 22.4387 49.1997 22.3988 49.2057C20.6377 49.4799 19.8046 49.9755 19.8046 50.8824ZM26.5326 45.4199L28.0301 45.209C28.1777 45.1879 28.3148 45.2828 28.3464 45.4304L28.3991 45.7151C28.4413 45.9155 28.6628 45.9999 28.8315 45.8944C29.533 45.3583 30.385 45.0559 31.2675 45.0297C32.9231 45.0297 33.7773 45.9155 33.7773 47.6555V53.0231C33.7773 53.1813 33.6508 53.3079 33.5031 53.3079H31.9319C31.895 53.3079 31.8584 53.3005 31.8245 53.286C31.7905 53.2716 31.7598 53.2505 31.7342 53.2239C31.7086 53.1973 31.6886 53.1658 31.6755 53.1313C31.6623 53.0968 31.6563 53.06 31.6577 53.0231V48.0246C31.6577 47.0439 31.3941 46.5904 30.6348 46.5904C30.0337 46.5904 29.4221 46.8541 28.7471 47.413C28.716 47.439 28.6906 47.4711 28.6725 47.5074C28.6543 47.5437 28.6438 47.5834 28.6417 47.6239V53.0337C28.6417 53.1919 28.5151 53.3079 28.3675 53.3079H26.8173C26.7804 53.3079 26.7439 53.3005 26.7099 53.286C26.6759 53.2716 26.6452 53.2505 26.6196 53.2239C26.594 53.1973 26.5741 53.1658 26.5609 53.1313C26.5478 53.0968 26.5417 53.06 26.5431 53.0231L26.5326 45.4199ZM47.8344 53.445C45.4617 53.445 44.0275 51.9053 44.0275 49.2373C44.0275 46.5482 45.4617 45.0086 47.7922 45.0086C50.1228 45.0086 51.5148 46.485 51.5148 49.1424L51.5042 49.2901C51.5015 49.3609 51.4714 49.428 51.4203 49.4771C51.3692 49.5263 51.301 49.5537 51.23 49.5537H46.4108C46.3719 49.5534 46.3335 49.5614 46.298 49.5771C46.2625 49.5928 46.2307 49.6159 46.2048 49.6448C46.1789 49.6737 46.1594 49.7078 46.1476 49.7448C46.1359 49.7819 46.1321 49.8209 46.1366 49.8595C46.2315 51.1988 46.8642 51.8526 48.0242 51.8526C48.7519 51.8526 49.2475 51.5784 49.701 50.9984C49.7853 50.893 49.933 50.8613 50.049 50.9246L51.1351 51.5257C51.2828 51.6101 51.325 51.7999 51.23 51.937C50.5235 52.9282 49.3635 53.445 47.8344 53.445ZM49.1421 48.1722C49.3108 48.1722 49.4373 48.0246 49.4162 47.8664C49.3108 46.9701 48.7202 46.4533 47.8133 46.4533C46.9486 46.4533 46.3897 46.949 46.221 47.8559C46.1893 48.0246 46.3264 48.1828 46.4951 48.1828H49.1421V48.1722ZM7.19224 53.5293C5.08315 53.5293 3.20605 52.1901 3.20605 49.2584C3.20605 46.3162 5.10424 44.9875 7.19224 44.9875C9.30133 44.9875 11.1784 46.3268 11.1784 49.2584C11.1784 52.2006 9.29078 53.5293 7.19224 53.5293ZM7.19224 46.7697C5.62096 46.7697 5.31515 48.2039 5.31515 49.2373C5.31515 50.2813 5.59987 51.705 7.19224 51.705C8.7846 51.705 9.06933 50.2708 9.06933 49.2373C9.06933 48.2144 8.76351 46.7697 7.19224 46.7697ZM12.9079 45.1879H14.3737C14.5319 45.1879 14.6479 45.3144 14.6479 45.4726C14.6479 45.7046 14.9115 45.8417 15.1013 45.6941C15.607 45.2812 16.2315 45.041 16.8835 45.0086C16.9679 45.0086 17.0628 45.0086 17.1471 45.0297V46.7486L16.873 47.0333C16.0293 47.0544 15.133 47.2126 14.8166 47.8348C14.7964 47.8739 14.7856 47.9173 14.785 47.9613V53.0021C14.785 53.1602 14.6584 53.2762 14.5108 53.2762H12.8973C12.8604 53.2763 12.8239 53.2688 12.7899 53.2544C12.7559 53.24 12.7252 53.2188 12.6996 53.1922C12.674 53.1656 12.6541 53.1342 12.6409 53.0997C12.6278 53.0652 12.6217 53.0284 12.6231 52.9915V45.4831C12.6231 45.3144 12.7497 45.1879 12.9079 45.1879ZM38.9657 51.5573C40.5791 51.5362 40.7057 49.8911 40.7057 48.8261C40.7057 47.5501 40.0941 46.5271 38.9446 46.5271C38.1853 46.5271 37.3311 47.0861 37.3311 48.9104C37.3522 49.9122 37.405 51.5573 38.9657 51.5573ZM42.7726 45.1668V52.8544C42.7726 54.2148 42.6671 56.4293 38.8286 56.4715C37.3628 56.4715 36.013 55.9337 35.5701 54.7737C35.5068 54.6155 35.6228 54.4362 35.7915 54.4046L37.3206 54.1621C37.4471 54.141 37.5737 54.2148 37.6264 54.3308C37.7635 54.6471 38.101 54.9213 39.0711 54.9213C40.1784 54.9213 40.7057 54.3835 40.7057 53.1391V52.1901L40.6846 52.169C40.3577 52.7595 39.8304 53.3395 38.5966 53.3395C36.7195 53.3395 35.2431 52.0213 35.2431 49.2901C35.2431 46.5799 36.7722 45.0613 38.4911 45.0613C40.1046 45.0613 40.6951 45.7995 40.8428 46.1897H40.8217L40.9588 45.4515C40.9689 45.3863 41.0022 45.327 41.0526 45.2844C41.103 45.2417 41.167 45.2187 41.233 45.2195H42.7621V45.1668H42.7726ZM52.3373 42.4777H51.7784C51.7415 42.4777 51.705 42.4851 51.671 42.4995C51.637 42.514 51.6063 42.5351 51.5807 42.5617C51.5551 42.5883 51.5351 42.6198 51.522 42.6542C51.5089 42.6887 51.5028 42.7255 51.5042 42.7624V44.629C51.5042 44.7239 51.4304 44.8082 51.3355 44.8082H51.23C51.1351 44.8082 51.0613 44.7344 51.0613 44.629V42.7624C51.0614 42.6887 51.0328 42.6178 50.9817 42.5647C50.9306 42.5116 50.8608 42.4804 50.7871 42.4777H50.397C50.3021 42.4777 50.2282 42.4039 50.2282 42.2984C50.2282 42.2035 50.3021 42.1191 50.397 42.1191H52.0526C52.2108 42.1191 52.3268 42.2457 52.3268 42.4039V42.4777H52.3373ZM55.8173 44.7977H55.6486C55.6117 44.7977 55.5751 44.7903 55.5412 44.7759C55.5072 44.7614 55.4765 44.7403 55.4509 44.7137C55.4253 44.6871 55.4053 44.6556 55.3922 44.6211C55.379 44.5866 55.373 44.5498 55.3744 44.513V42.5515H55.3533L54.5202 44.6817C54.4991 44.745 54.4253 44.7871 54.362 44.7871H54.3093C54.2751 44.7891 54.2412 44.7799 54.2126 44.7608C54.1841 44.7418 54.1625 44.714 54.1511 44.6817L53.3181 42.5515H53.297V44.6184C53.297 44.7133 53.2231 44.7977 53.1282 44.7977H53.0228C52.9279 44.7977 52.854 44.7239 52.854 44.6184V42.4039C52.854 42.2457 52.9806 42.1191 53.1282 42.1191H53.3391C53.4551 42.1191 53.5606 42.193 53.6028 42.2984L54.0668 43.4795C54.1617 43.7221 54.4991 43.7115 54.5835 43.4795L55.037 42.2984C55.0791 42.193 55.1846 42.1191 55.3006 42.1191H55.501C55.6591 42.1191 55.7751 42.2457 55.7751 42.4039V44.7977H55.8173Z" fill="white"/>
</g>
</g>
<defs>
<clipPath id="clip0_26003_109270">
<rect width="58" height="58" fill="white" transform="translate(0.0527344)"/>
</clipPath>
<clipPath id="clip1_26003_109270">
<rect width="58" height="58" fill="white" transform="translate(0.0527344)"/>
</clipPath>
</defs>
</svg>
