<svg width="203" height="17" viewBox="0 0 203 17" fill="none" xmlns="http://www.w3.org/2000/svg">
<path opacity="0.4" d="M17.9605 4.24738C17.9499 3.70651 18.0878 3.16564 18.3529 2.6884C18.5968 2.24298 18.968 1.86119 19.4135 1.60666C19.8685 1.34613 20.3845 1.21074 20.9088 1.21426C21.5027 1.20366 22.0966 1.36274 22.595 1.6809C23.0829 1.99906 23.4541 2.46569 23.6556 3.00656H22.7329C22.5801 2.65829 22.3245 2.36502 22.0004 2.16601C21.6763 1.967 21.2991 1.87175 20.9194 1.893C20.5327 1.8796 20.1501 1.9761 19.8159 2.17132C19.4818 2.36653 19.2099 2.65247 19.0317 2.99595C18.8408 3.37775 18.7453 3.80196 18.7559 4.23678C18.7453 4.66099 18.8408 5.0852 19.0317 5.46699C19.2014 5.80636 19.4771 6.0927 19.8059 6.2836C20.1452 6.47449 20.527 6.58055 20.9194 6.56994C21.3118 6.58055 21.6936 6.4851 22.0224 6.2836C22.3405 6.0927 22.5844 5.80636 22.7329 5.46699H23.6556C23.4541 6.00786 23.0829 6.46389 22.6057 6.78205C22.1006 7.09756 21.5148 7.25967 20.9194 7.24868C20.396 7.25543 19.8802 7.12372 19.4241 6.86689C18.9786 6.61438 18.6116 6.2437 18.3635 5.79575C18.0995 5.32238 17.9608 4.78941 17.9605 4.24738ZM26.8266 7.2911C26.413 7.30171 26.01 7.19565 25.6388 6.99415C25.2888 6.80326 25.0025 6.50631 24.8116 6.15634C24.6079 5.76354 24.5059 5.32604 24.5146 4.8837C24.504 4.44888 24.6101 4.01406 24.8222 3.62167C25.0237 3.27169 25.31 2.97474 25.6706 2.78385C26.0418 2.58235 26.4448 2.4869 26.869 2.4869C27.2826 2.4763 27.6962 2.58235 28.0674 2.78385C28.428 2.97474 28.7143 3.26109 28.9158 3.62167C29.1279 4.01406 29.234 4.44888 29.2128 4.8837C29.2234 5.32912 29.1173 5.76394 28.8946 6.15634C28.6931 6.51692 28.3961 6.80326 28.0356 7.00476C27.6644 7.19565 27.2508 7.2911 26.8266 7.2911ZM26.8266 6.61236C27.1023 6.61236 27.3674 6.54873 27.6114 6.42147C27.8659 6.2836 28.0674 6.0821 28.2053 5.83818C28.3643 5.54123 28.4386 5.21246 28.428 4.8837C28.4386 4.55493 28.3643 4.22617 28.2053 3.92922C28.0806 3.67932 27.8801 3.47518 27.6326 3.34593C27.1447 3.0914 26.572 3.0914 26.0842 3.34593C25.8403 3.4838 25.6494 3.6853 25.5221 3.92922C25.3736 4.22617 25.2994 4.55493 25.31 4.8837C25.2994 5.21246 25.3736 5.54123 25.5221 5.83818C25.6494 6.0821 25.8403 6.2836 26.0736 6.42147C26.3069 6.53813 26.5614 6.61236 26.8266 6.61236ZM34.3563 2.56114V7.20626H33.5821V6.52752C33.4337 6.77144 33.2216 6.96234 32.967 7.079C32.6972 7.21395 32.3991 7.283 32.0974 7.2805C31.758 7.2911 31.4187 7.20626 31.1217 7.05779C30.8354 6.90931 30.5914 6.67599 30.443 6.37905C30.2645 6.04329 30.1768 5.66676 30.1884 5.2867V2.56114H30.952V5.18065C30.9308 5.56244 31.0475 5.94423 31.302 6.24118C31.5565 6.4957 31.8959 6.63357 32.2565 6.61236C32.6171 6.63357 32.9776 6.4957 33.2322 6.23057C33.4867 5.92302 33.614 5.52002 33.5927 5.11702V2.56114H34.3563ZM37.9303 2.47629C38.4394 2.45508 38.9378 2.63537 39.309 2.98535C39.6802 3.38835 39.8711 3.91862 39.8393 4.47009V7.20626H39.0757V4.57614C39.0969 4.19435 38.9802 3.81256 38.7257 3.51561C38.6022 3.38938 38.4532 3.29097 38.2886 3.22696C38.124 3.16295 37.9476 3.13481 37.7712 3.14443C37.4107 3.12322 37.0501 3.26109 36.7955 3.52622C36.541 3.83377 36.4032 4.23677 36.435 4.63978V7.20626H35.6608V2.56114H36.435V3.21867C36.5834 2.98535 36.8062 2.79445 37.0607 2.66719C37.3364 2.53993 37.6334 2.47629 37.9303 2.47629ZM42.0346 3.19746V5.93362C42.0134 6.10331 42.0664 6.2836 42.183 6.41086C42.3315 6.51692 42.5012 6.56994 42.6815 6.54873H43.2542V7.20626H42.5542C42.2043 7.23808 41.8649 7.13202 41.5891 6.90931C41.4734 6.77631 41.3856 6.6214 41.331 6.45378C41.2763 6.28617 41.2559 6.10928 41.271 5.93362V3.19746H40.6665V2.56114H41.271V1.39455H42.0452V2.56114H43.2542V3.19746H42.0346ZM44.951 3.31411C45.0783 3.05959 45.2798 2.83688 45.5343 2.69901C45.8207 2.53993 46.1388 2.46569 46.457 2.47629V3.27169H46.2555C45.3858 3.27169 44.9616 3.73833 44.9616 4.6822V7.20626H44.1874V2.56114H44.9616L44.951 3.31411ZM47.7402 1.79756C47.6019 1.79839 47.4687 1.7451 47.369 1.64908C47.273 1.54946 47.2197 1.41626 47.2206 1.2779C47.2197 1.13953 47.273 1.00633 47.369 0.90671C47.4169 0.857151 47.4747 0.818296 47.5387 0.792705C47.6027 0.767113 47.6714 0.755366 47.7402 0.758236C48.0266 0.758236 48.2493 0.980947 48.2493 1.26729V1.2779C48.2501 1.41626 48.1968 1.54946 48.1008 1.64908C48.057 1.70086 48.0013 1.74137 47.9386 1.76721C47.8758 1.79304 47.8078 1.80345 47.7402 1.79756ZM48.122 2.56114V7.21687H47.3478V2.56114H48.122ZM53.6792 4.70341L53.658 5.17004H49.9461C49.9461 5.57304 50.1264 5.96544 50.4128 6.24118C50.6991 6.4957 51.0703 6.63357 51.4521 6.62297C51.749 6.63357 52.0354 6.54873 52.2899 6.38965C52.5126 6.24118 52.6717 6.01847 52.7565 5.76394H53.5837C53.4671 6.19876 53.202 6.58055 52.8414 6.85629C52.4384 7.14263 51.9505 7.30171 51.4521 7.2805C51.0368 7.28902 50.6267 7.1865 50.2643 6.98355C49.9143 6.78205 49.628 6.4851 49.4477 6.13512C49.2441 5.74233 49.142 5.30483 49.1507 4.86249C49.1401 4.42767 49.2356 3.99285 49.4371 3.60046C49.6174 3.25048 49.9037 2.95353 50.2431 2.76264C50.6056 2.56515 51.0114 2.46079 51.4242 2.45894C51.837 2.45709 52.2438 2.5578 52.6081 2.75203C52.9368 2.93232 53.2126 3.20806 53.3928 3.54743C53.5837 3.90801 53.6792 4.31101 53.6792 4.70341ZM52.8732 4.54433C52.8794 4.27726 52.8135 4.01347 52.6823 3.78075C52.555 3.56864 52.3747 3.39896 52.152 3.2929C51.9211 3.17939 51.6669 3.12128 51.4097 3.12322C51.0385 3.11261 50.6885 3.25048 50.4128 3.4944C50.1264 3.77014 49.9567 4.14133 49.9461 4.53372L52.8732 4.54433ZM56.3411 7.2911C56.0124 7.2911 55.6942 7.23808 55.3866 7.11081C55.1231 7.01586 54.8932 6.84568 54.7254 6.62135C54.5577 6.39703 54.4594 6.12841 54.4428 5.84878H55.2382C55.2594 6.0821 55.376 6.2836 55.5669 6.42147C55.7896 6.58055 56.0654 6.65478 56.3305 6.64418C56.5744 6.65478 56.8184 6.59115 57.0305 6.45328C57.1085 6.39791 57.1722 6.32481 57.2165 6.24C57.2607 6.15519 57.2842 6.06109 57.285 5.96544C57.2896 5.87062 57.2658 5.77659 57.2167 5.69535C57.1676 5.61412 57.0954 5.54938 57.0093 5.50941C56.7421 5.37918 56.461 5.27957 56.1714 5.21246C55.8823 5.14142 55.5987 5.04926 55.323 4.93673C55.1109 4.84128 54.9094 4.70341 54.7609 4.52312C54.5996 4.31828 54.5168 4.06249 54.5276 3.80196C54.5276 3.56864 54.6019 3.33532 54.7397 3.14443C54.8988 2.93232 55.1003 2.77324 55.3442 2.6778C55.6306 2.56114 55.9275 2.49751 56.2351 2.50811C56.6805 2.4869 57.1259 2.62477 57.4865 2.90051C57.8047 3.16564 57.9956 3.55804 57.9956 3.97164H57.2214C57.2175 3.85863 57.1889 3.74784 57.1376 3.64707C57.0863 3.5463 57.0135 3.45799 56.9244 3.38835C56.7177 3.23161 56.4624 3.15276 56.2033 3.16564C55.9699 3.15503 55.7366 3.21867 55.5457 3.34593C55.4694 3.3972 55.4071 3.46676 55.3645 3.54825C55.3219 3.62975 55.3003 3.72061 55.3018 3.81256C55.3018 3.95043 55.3548 4.0883 55.4503 4.19435C55.5563 4.30041 55.6836 4.37464 55.8215 4.42767C56.023 4.50191 56.2351 4.57614 56.4472 4.62917C56.7229 4.70341 56.9987 4.78825 57.2638 4.8943C57.4759 4.97915 57.6562 5.11702 57.8047 5.2867C57.9637 5.4776 58.0486 5.72152 58.038 5.97605C58.038 6.21997 57.9637 6.46389 57.8259 6.66539C57.6774 6.8775 57.4653 7.04718 57.232 7.14263C56.9456 7.23808 56.6487 7.2911 56.3411 7.2911ZM59.3636 7.25929C59.2941 7.26013 59.2251 7.24642 59.1612 7.21902C59.0973 7.19162 59.0398 7.15115 58.9925 7.10021C58.9429 7.05233 58.904 6.9945 58.8784 6.93052C58.8529 6.86654 58.8411 6.79787 58.844 6.72902C58.8431 6.59066 58.8964 6.45746 58.9925 6.35784C59.0403 6.30828 59.0982 6.26942 59.1621 6.24383C59.2261 6.21824 59.2948 6.20649 59.3636 6.20936C59.65 6.20936 59.8727 6.43207 59.8727 6.71842V6.72902C59.8735 6.86738 59.8202 7.00059 59.7242 7.10021C59.6798 7.152 59.6244 7.19318 59.562 7.22071C59.4996 7.24824 59.4318 7.26142 59.3636 7.25929ZM59.3636 3.63227C59.2253 3.6331 59.0921 3.57982 58.9925 3.4838C58.9429 3.43592 58.904 3.37809 58.8784 3.31411C58.8529 3.25013 58.8411 3.18146 58.844 3.11261C58.8431 2.97425 58.8964 2.84105 58.9925 2.74143C59.0403 2.69187 59.0982 2.65301 59.1621 2.62742C59.2261 2.60183 59.2948 2.59008 59.3636 2.59295C59.65 2.59295 59.8727 2.81566 59.8727 3.10201V3.11261C59.8741 3.18035 59.862 3.24769 59.837 3.31068C59.8121 3.37367 59.7748 3.43105 59.7274 3.47944C59.68 3.52784 59.6234 3.56629 59.5609 3.59253C59.4985 3.61878 59.4314 3.63229 59.3636 3.63227Z" fill="black"/>
<path opacity="0.7" d="M69.8848 1.77549V1.07554H71.4756V7.2054H70.7014V1.77549H69.8848ZM76.2267 2.53907C76.2122 2.40047 76.1705 2.26609 76.1039 2.14362C76.0374 2.02116 75.9474 1.913 75.8391 1.82535C75.7307 1.73769 75.6062 1.67224 75.4725 1.63275C75.3389 1.59326 75.1987 1.5805 75.0602 1.5952C74.6041 1.57399 74.1693 1.7967 73.936 2.17849C73.6434 2.76983 73.5187 3.43012 73.5754 4.08744C73.7133 3.79049 73.9466 3.54657 74.2329 3.3981C74.5405 3.22841 74.8905 3.14357 75.251 3.14357C75.7707 3.12236 76.2798 3.32386 76.6509 3.69505C77.0221 4.10865 77.2024 4.64952 77.1706 5.201C77.1812 5.56158 77.0964 5.91155 76.9479 6.24032C76.7994 6.54787 76.5661 6.79179 76.2692 6.96148C75.9298 7.15238 75.5586 7.24782 75.1662 7.23722C74.6784 7.26903 74.1905 7.13116 73.7981 6.84482C73.4578 6.56792 73.216 6.18851 73.1088 5.76308C72.9657 5.20924 72.9015 4.63801 72.9179 4.06623C72.9179 1.9982 73.639 0.958878 75.092 0.958878C75.5692 0.927062 76.0358 1.09675 76.3964 1.4043C76.7146 1.70125 76.9161 2.10425 76.9585 2.53907H76.2267ZM75.0708 3.8011C74.8374 3.8011 74.6041 3.85413 74.3814 3.94957C73.9254 4.16168 73.639 4.62831 73.6603 5.12676C73.639 5.50855 73.7769 5.89034 74.0314 6.17669C74.3178 6.46303 74.6996 6.6009 75.1026 6.57969C75.4525 6.6009 75.8025 6.46303 76.0464 6.2085C76.2904 5.93277 76.4176 5.57218 76.3964 5.2116C76.4176 4.82981 76.301 4.45863 76.0571 4.17228C75.9309 4.04061 75.7768 3.9389 75.6061 3.87467C75.4354 3.81043 75.2524 3.78529 75.0708 3.8011Z" fill="black"/>
<path d="M201.432 6.16673L197.402 2.13672L193.383 6.16673" stroke="#5479FF" stroke-width="1.06053" stroke-linecap="round" stroke-linejoin="round"/>
<path d="M5.9345 9.32799C8.27736 9.32799 10.1766 7.42873 10.1766 5.08587C10.1766 2.74301 8.27736 0.84375 5.9345 0.84375C3.59165 0.84375 1.69238 2.74301 1.69238 5.08587C1.69238 7.42873 3.59165 9.32799 5.9345 9.32799Z" stroke="#5479FF" stroke-width="0.530265" stroke-linecap="round" stroke-linejoin="round"/>
<path d="M1.69238 5.08594H10.1766" stroke="#5479FF" stroke-width="0.530265" stroke-linecap="round" stroke-linejoin="round"/>
<path d="M5.93457 9.32799V0.84375" stroke="#5479FF" stroke-width="0.530265" stroke-linecap="round" stroke-linejoin="round"/>
<path d="M6.01938 1.05664C6.66033 1.52528 7.19025 2.1293 7.57149 2.82579C7.95273 3.52229 8.17594 4.29418 8.22528 5.08666C8.17308 5.87847 7.94864 6.64933 7.56763 7.34541C7.18662 8.04148 6.65823 8.64598 6.01938 9.11667C5.37629 8.65012 4.84482 8.04659 4.46335 7.34967C4.08187 6.65274 3.8599 5.8798 3.81348 5.08666C3.8599 4.29351 4.08187 3.52057 4.46335 2.82365C4.84482 2.12672 5.37629 1.52319 6.01938 1.05664Z" stroke="#5479FF" stroke-width="0.530265" stroke-linecap="round" stroke-linejoin="round"/>
<path d="M156.87 6.85712C156.551 6.85712 156.233 6.80409 155.936 6.67683C155.671 6.57078 155.448 6.39049 155.279 6.15717C155.119 5.92706 155.038 5.65214 155.045 5.37238H155.947C155.957 5.58448 156.053 5.77538 156.212 5.92385C156.392 6.07233 156.636 6.14657 156.87 6.13596C157.113 6.14657 157.357 6.07233 157.548 5.92385C157.626 5.85707 157.688 5.774 157.73 5.68054C157.773 5.58708 157.794 5.4855 157.792 5.38298C157.798 5.30586 157.788 5.22838 157.762 5.15539C157.737 5.0824 157.696 5.01546 157.644 4.95877C157.54 4.84348 157.408 4.75599 157.262 4.70424C157.057 4.62948 156.848 4.56576 156.636 4.51335C156.357 4.44223 156.084 4.35006 155.82 4.23761C155.607 4.14216 155.417 3.99369 155.279 3.8134C155.121 3.58694 155.043 3.31477 155.056 3.03921C155.049 2.76114 155.127 2.48756 155.279 2.25442C155.438 2.03171 155.65 1.85142 155.904 1.74536C156.201 1.6181 156.509 1.56507 156.838 1.56507C157.283 1.54386 157.707 1.68173 158.068 1.93626C158.386 2.18018 158.577 2.56197 158.598 2.96497H157.665C157.655 2.87017 157.627 2.77825 157.581 2.69451C157.536 2.61078 157.474 2.53689 157.4 2.47713C157.214 2.33649 156.985 2.2652 156.753 2.27563C156.538 2.26362 156.327 2.33164 156.159 2.46652C156.081 2.53014 156.019 2.61138 155.978 2.70357C155.938 2.79575 155.92 2.89625 155.926 2.99679C155.926 3.14526 155.968 3.28313 156.074 3.38919C156.18 3.49524 156.307 3.58008 156.445 3.63311L157.05 3.824C157.336 3.89824 157.612 3.99369 157.888 4.11035C158.1 4.20579 158.291 4.35427 158.439 4.54516C158.598 4.77848 158.683 5.05422 158.662 5.32996C158.651 5.88143 158.333 6.39049 157.835 6.63441C157.527 6.79349 157.209 6.85712 156.87 6.85712ZM161.769 2.64682C162.056 2.64682 162.342 2.71045 162.607 2.84832C162.851 2.98618 163.052 3.18769 163.19 3.44221C163.339 3.73916 163.413 4.06793 163.402 4.39669V6.80409H162.565V4.51335C162.586 4.20579 162.49 3.90885 162.289 3.66492C162.191 3.56553 162.074 3.48774 161.944 3.43659C161.814 3.38544 161.675 3.36207 161.536 3.36798C161.397 3.36207 161.258 3.38544 161.128 3.43659C160.998 3.48774 160.881 3.56553 160.783 3.66492C160.582 3.90003 160.483 4.20518 160.507 4.51335V6.80409H159.659V1.31055H160.507V3.18769C160.656 3.0074 160.847 2.86953 161.048 2.78468C161.281 2.68924 161.525 2.64682 161.769 2.64682ZM166.255 6.86773C165.888 6.87168 165.526 6.78032 165.205 6.60259C164.897 6.42827 164.643 6.17111 164.474 5.86022C164.291 5.51813 164.199 5.13451 164.208 4.74667C164.198 4.35427 164.293 3.97248 164.484 3.64371C164.654 3.32555 164.919 3.07103 165.237 2.90134C165.564 2.72958 165.927 2.63895 166.296 2.63711C166.666 2.63526 167.03 2.72225 167.358 2.89074C167.676 3.06042 167.931 3.31495 168.111 3.63311C168.302 3.97248 168.398 4.35427 168.387 4.73606C168.387 5.12846 168.291 5.51025 168.101 5.83901C167.908 6.15533 167.637 6.41637 167.314 6.59667C166.99 6.77696 166.625 6.87035 166.255 6.86773ZM166.255 6.13596C166.701 6.13596 167.114 5.90264 167.337 5.51025C167.464 5.27693 167.528 5.0118 167.517 4.75727C167.528 4.49214 167.464 4.23761 167.348 4.00429C167.243 3.81661 167.09 3.66031 166.904 3.55151C166.719 3.44272 166.507 3.38536 166.292 3.38536C166.077 3.38536 165.866 3.44272 165.681 3.55151C165.495 3.66031 165.342 3.81661 165.237 4.00429C165.12 4.23761 165.067 4.49214 165.078 4.75727C165.057 5.12846 165.173 5.48904 165.417 5.77538C165.521 5.89403 165.651 5.98796 165.796 6.05034C165.941 6.11272 166.098 6.14197 166.255 6.13596ZM174.708 2.71045L173.435 6.80409H172.544L171.717 3.78158L170.89 6.80409H169.999L168.726 2.71045H169.585L170.434 5.99809L171.303 2.71045H172.184L173.011 5.98749L173.859 2.71045H174.708ZM176.988 4.73606C176.977 4.35427 177.073 3.98308 177.242 3.64371C177.72 2.73166 178.833 2.37108 179.756 2.82711C179.978 2.94376 180.18 3.10284 180.328 3.29374V2.71045H181.188V6.80409H180.328V6.18899C180.169 6.39049 179.968 6.56017 179.745 6.66622C179.162 6.95257 178.483 6.92075 177.932 6.59199C177.635 6.41218 177.395 6.15083 177.242 5.83901C177.064 5.49942 176.976 5.1195 176.988 4.73606ZM180.328 4.75727C180.35 4.26943 180.106 3.8134 179.692 3.54827C179.512 3.44221 179.3 3.38919 179.088 3.38919C178.642 3.38919 178.239 3.6225 178.027 4.0149C177.91 4.23761 177.847 4.49214 177.857 4.74667C177.847 5.00119 177.91 5.25572 178.027 5.48904C178.335 6.08293 179.066 6.31625 179.66 6.0087L179.692 5.98749C179.883 5.87083 180.042 5.71175 180.148 5.51025C180.275 5.26632 180.339 5.0118 180.328 4.75727ZM183.149 1.31055V6.80409H182.301V1.31055H183.149ZM185.101 1.31055V6.80409H184.252V1.31055H185.101Z" fill="#5479FF"/>
</svg>
