<svg width="203" height="18" viewBox="0 0 203 18" fill="none" xmlns="http://www.w3.org/2000/svg">
<path d="M1.69237 16.084H201.072C201.353 16.084 201.623 16.1957 201.822 16.3946C202.021 16.5935 202.133 16.8632 202.133 17.1445H0.631836C0.631836 16.8632 0.74357 16.5935 0.942458 16.3946C1.14135 16.1957 1.4111 16.084 1.69237 16.084Z" fill="#F0F0F0"/>
<path opacity="0.4" d="M22.4369 0.949219V1.65977H20.6234V7.60935H19.7538V1.65977H17.9297V0.949219H22.4369ZM25.7882 7.69419C25.3216 7.7048 24.8656 7.58814 24.4519 7.35482C24.056 7.1324 23.7321 6.80117 23.5187 6.40034C23.2859 5.95962 23.1692 5.46693 23.1793 4.96863C23.1687 4.47018 23.2854 3.98234 23.5293 3.54752C23.752 3.14452 24.0808 2.81575 24.4838 2.60365C24.8974 2.38093 25.364 2.26428 25.8306 2.27488C26.2973 2.27488 26.7639 2.39154 27.1669 2.61425C27.5699 2.82636 27.8987 3.15512 28.1214 3.55812C28.3653 3.99294 28.482 4.48078 28.4714 4.97923C28.4926 5.95492 27.9835 6.86698 27.1351 7.35482C26.7215 7.57753 26.2549 7.69419 25.7882 7.69419ZM25.7882 6.93061C26.0958 6.93061 26.3927 6.85637 26.6685 6.7079C26.9442 6.55942 27.1775 6.32611 27.326 6.05037C27.5063 5.7216 27.5911 5.35042 27.5805 4.97923C27.5911 4.60805 27.5063 4.23686 27.3366 3.9081C27.1867 3.63272 26.9626 3.40491 26.6897 3.25057C26.4215 3.10938 26.1231 3.03561 25.82 3.03561C25.517 3.03561 25.2185 3.10938 24.9504 3.25057C24.6641 3.40965 24.4413 3.63236 24.3035 3.9081C24.1338 4.23686 24.0489 4.60805 24.0702 4.97923C24.0596 5.35042 24.1338 5.7216 24.3035 6.06097C24.4413 6.33671 24.6641 6.55942 24.9292 6.7185C25.1837 6.85637 25.4807 6.93061 25.7882 6.93061ZM30.4758 3.33541C30.6667 3.01725 30.9212 2.76273 31.2393 2.58244C31.6018 2.37948 32.0118 2.27697 32.4271 2.28549C32.8726 2.27488 33.3074 2.39154 33.6892 2.62486C34.0816 2.84757 34.3891 3.16573 34.5906 3.55812C34.8133 3.99294 34.93 4.48078 34.9194 4.96863C34.93 5.45647 34.8133 5.94432 34.5906 6.37913C34.392 6.77801 34.0842 7.11233 33.7031 7.34324C33.3221 7.57415 32.8833 7.69217 32.4377 7.68359C32.0241 7.69419 31.6211 7.58814 31.2606 7.38664C30.9424 7.20635 30.6773 6.95182 30.4864 6.63366V10.0804H29.6167V2.37033H30.4864V3.33541H30.4758ZM34.0285 4.96863C34.0391 4.60805 33.9543 4.25807 33.7846 3.93991C33.6488 3.65528 33.426 3.42126 33.1483 3.27178C32.8752 3.12166 32.5691 3.0415 32.2575 3.03846C31.6211 3.02786 31.0272 3.38844 30.7303 3.95052C30.5606 4.26868 30.4758 4.61865 30.4864 4.97923C30.4758 5.33981 30.5606 5.70039 30.7303 6.01855C31.0272 6.58063 31.6211 6.94122 32.2575 6.93061C32.5733 6.93678 32.8845 6.85468 33.1562 6.69354C33.4279 6.53241 33.6492 6.29864 33.7952 6.01855C33.9543 5.68979 34.0391 5.32921 34.0285 4.96863ZM39.6918 3.73841V4.47018H35.8845V3.73841H39.6918ZM45.9595 2.37033V7.59874H45.0899V6.82456C44.9229 7.09332 44.6841 7.31005 44.4005 7.45027C44.093 7.59874 43.7642 7.67298 43.4248 7.67298C43.043 7.68359 42.6719 7.58814 42.3325 7.41845C42.0047 7.24962 41.7377 6.98268 41.5689 6.65487C41.3679 6.27712 41.2726 5.85208 41.2932 5.42466V2.37033H42.1522V5.3186C42.1204 5.75342 42.2689 6.17763 42.5446 6.5064C42.8203 6.79274 43.2127 6.94122 43.6157 6.92C44.0293 6.94122 44.4217 6.79274 44.7081 6.49579C44.9944 6.14582 45.1429 5.70039 45.1111 5.24437V2.37033H45.9595ZM48.2927 3.33541C48.4836 3.01725 48.7487 2.76273 49.0669 2.58244C49.4293 2.37948 49.8393 2.27697 50.2547 2.28549C50.7001 2.27488 51.1349 2.39154 51.5167 2.62486C51.8985 2.84757 52.206 3.16573 52.4075 3.55812C52.6302 3.99294 52.7469 4.48078 52.7363 4.96863C52.7469 5.45647 52.6302 5.94432 52.4075 6.37913C52.2089 6.77801 51.9012 7.11233 51.5201 7.34324C51.139 7.57415 50.7002 7.69217 50.2547 7.68359C49.841 7.69419 49.438 7.58814 49.0775 7.38664C48.7593 7.20635 48.4942 6.95182 48.3033 6.63366V10.0804H47.4336V2.37033H48.3033L48.2927 3.33541ZM51.8454 4.96863C51.8561 4.60805 51.7712 4.25807 51.6121 3.93991C51.4647 3.6618 51.2427 3.4302 50.9711 3.271C50.6996 3.11181 50.3891 3.03129 50.0744 3.03846C49.438 3.02786 48.8441 3.38844 48.5472 3.95052C48.3775 4.26868 48.2927 4.61865 48.3033 4.97923C48.2927 5.33981 48.3775 5.70039 48.5472 6.01855C48.8441 6.58063 49.438 6.94122 50.0744 6.93061C50.3819 6.93061 50.7001 6.85637 50.9652 6.69729C51.2409 6.53821 51.4637 6.3049 51.6121 6.01855C51.7712 5.68979 51.8561 5.32921 51.8454 4.96863ZM54.1574 7.66238C54.0789 7.6641 54.0009 7.64995 53.928 7.6208C53.8551 7.59164 53.7888 7.54807 53.7332 7.49269C53.6751 7.4391 53.6297 7.3732 53.6003 7.2998C53.571 7.2264 53.5584 7.14737 53.5635 7.06848C53.5635 6.9094 53.6165 6.75032 53.7332 6.64427C53.7868 6.58615 53.8527 6.54075 53.9261 6.51139C53.9995 6.48203 54.0785 6.46946 54.1574 6.47458C54.4756 6.48519 54.7407 6.75032 54.7301 7.06848C54.7407 7.38664 54.4756 7.65177 54.1574 7.66238ZM54.1574 3.57933C54.0789 3.58105 54.0009 3.56691 53.928 3.53776C53.8551 3.5086 53.7888 3.46503 53.7332 3.40965C53.6751 3.35606 53.6297 3.29015 53.6003 3.21676C53.571 3.14336 53.5584 3.06432 53.5635 2.98544C53.5635 2.82636 53.6165 2.66728 53.7332 2.56122C53.7868 2.50311 53.8527 2.45771 53.9261 2.42835C53.9995 2.39899 54.0785 2.38641 54.1574 2.39154C54.4756 2.40215 54.7407 2.66728 54.7301 2.98544C54.7407 3.3036 54.4756 3.56873 54.1574 3.57933Z" fill="black"/>
<path d="M2.39254 0.546875H9.22236C9.7849 0.546875 10.3244 0.770343 10.7222 1.16812C11.12 1.5659 11.3434 2.1054 11.3434 2.66794V6.47524C11.3434 7.03778 11.12 7.57728 10.7222 7.97506C10.3244 8.37283 9.7849 8.5963 9.22236 8.5963H2.39254C1.83 8.5963 1.2905 8.37283 0.892729 7.97506C0.494953 7.57728 0.271484 7.03778 0.271484 6.47524V2.66794C0.271484 1.50135 1.22596 0.546875 2.39254 0.546875Z" stroke="#5479FF" stroke-width="0.530265" stroke-linecap="round" stroke-linejoin="round"/>
<path d="M0.271484 3.57031H11.3434" stroke="#5479FF" stroke-width="0.530265" stroke-linecap="round" stroke-linejoin="round"/>
<path opacity="0.7" d="M167.051 5.22323H164.474L163.996 6.53829H163.18L165.322 0.662954H166.213L168.344 6.53829H167.528L167.051 5.22323ZM166.817 4.59752L165.757 1.60683L164.686 4.59752H166.817ZM170.996 5.82774L172.438 1.89317H173.265L171.441 6.53829H170.54L168.716 1.89317H169.543L170.996 5.82774ZM173.743 4.20512C173.73 3.77037 173.828 3.33952 174.029 2.9537C174.209 2.60372 174.485 2.31738 174.824 2.11588C175.164 1.91438 175.556 1.81893 175.948 1.81893C176.32 1.80833 176.691 1.90377 177.009 2.08406C177.285 2.24314 177.518 2.46585 177.677 2.74159V1.89317H178.462V6.53829H177.677V5.67926C177.518 5.9656 177.285 6.19892 176.998 6.358C176.68 6.53829 176.309 6.63374 175.938 6.62313C175.544 6.62391 175.158 6.51521 174.823 6.30919C174.488 6.10317 174.217 5.80795 174.04 5.45655C173.827 5.06415 173.732 4.63994 173.743 4.20512ZM177.677 4.20512C177.688 3.88697 177.614 3.56881 177.465 3.29307C177.338 3.04245 177.138 2.83564 176.892 2.69917C176.652 2.5619 176.38 2.48882 176.104 2.48696C175.827 2.4851 175.554 2.55453 175.312 2.68857C175.068 2.82644 174.877 3.03854 174.739 3.28246C174.591 3.56881 174.517 3.87636 174.527 4.19452C174.517 4.51268 174.591 4.84144 174.739 5.12779C174.994 5.63684 175.524 5.955 176.097 5.94439C176.373 5.94439 176.648 5.87016 176.892 5.73229C177.136 5.59442 177.338 5.38231 177.465 5.12779C177.614 4.84144 177.688 4.52328 177.677 4.20512ZM180.159 1.12959C180.02 1.13042 179.887 1.07714 179.788 0.981113C179.738 0.933237 179.699 0.875406 179.674 0.811427C179.648 0.747449 179.636 0.678774 179.639 0.609927C179.638 0.471566 179.692 0.338361 179.788 0.238741C179.835 0.189182 179.893 0.150328 179.957 0.124736C180.021 0.0991447 180.09 0.087397 180.159 0.0902671C180.445 0.0902671 180.668 0.312978 180.668 0.599322V0.609927C180.669 0.748288 180.615 0.881494 180.519 0.981113C180.476 1.03289 180.42 1.0734 180.357 1.09924C180.294 1.12507 180.226 1.13548 180.159 1.12959ZM180.541 1.89317V6.5489H179.766V1.89317H180.541ZM182.619 0.259952V6.53829H181.845V0.259952H182.619ZM183.648 4.20512C183.635 3.77037 183.733 3.33952 183.934 2.9537C184.115 2.60372 184.39 2.31738 184.73 2.11588C185.069 1.91438 185.461 1.81893 185.854 1.81893C186.225 1.80833 186.596 1.90377 186.914 2.08406C187.19 2.24314 187.423 2.46585 187.582 2.74159V1.89317H188.367V6.53829H187.582V5.67926C187.423 5.9656 187.19 6.19892 186.904 6.358C186.567 6.53925 186.189 6.63057 185.806 6.62314C185.423 6.61571 185.049 6.50978 184.719 6.31558C184.38 6.10347 184.104 5.80653 183.934 5.45655C183.733 5.07073 183.635 4.63988 183.648 4.20512ZM187.582 4.20512C187.593 3.88697 187.519 3.56881 187.37 3.29307C187.243 3.04245 187.044 2.83564 186.798 2.69917C186.557 2.5619 186.286 2.48882 186.009 2.48696C185.732 2.4851 185.46 2.55453 185.218 2.68857C184.974 2.82644 184.783 3.03854 184.645 3.28246C184.496 3.56881 184.422 3.87636 184.433 4.19452C184.422 4.51268 184.496 4.84144 184.645 5.12779C184.899 5.63684 185.43 5.955 186.002 5.94439C186.278 5.94439 186.554 5.87016 186.798 5.73229C187.042 5.59442 187.243 5.38231 187.37 5.12779C187.519 4.84144 187.593 4.52328 187.582 4.20512ZM190.446 2.7628C190.616 2.47646 190.849 2.24314 191.146 2.08406C191.464 1.90377 191.825 1.81893 192.185 1.81893C192.981 1.79772 193.723 2.24314 194.094 2.9537C194.296 3.33549 194.391 3.77031 194.38 4.20512C194.391 4.63994 194.285 5.07476 194.094 5.45655C193.914 5.80653 193.638 6.10347 193.299 6.31558C192.969 6.50978 192.595 6.61571 192.212 6.62314C191.829 6.63057 191.451 6.53925 191.114 6.358C190.831 6.20101 190.597 5.97004 190.435 5.68987V6.5489H189.661V0.259952H190.435L190.446 2.7628ZM193.606 4.20512C193.617 3.88697 193.543 3.56881 193.394 3.29307C193.264 3.04463 193.065 2.83859 192.822 2.69917C192.579 2.56514 192.307 2.49571 192.03 2.49757C191.753 2.49942 191.482 2.57251 191.241 2.70978C190.997 2.84765 190.796 3.05975 190.669 3.31428C190.52 3.60062 190.446 3.90818 190.457 4.22634C190.446 4.54449 190.52 4.86265 190.669 5.149C190.923 5.65805 191.453 5.97621 192.026 5.9656C192.302 5.9656 192.578 5.89137 192.822 5.7535C193.065 5.61563 193.267 5.40352 193.394 5.149C193.543 4.84144 193.606 4.52328 193.606 4.20512ZM196.183 0.259952V6.53829H195.409V0.259952H196.183ZM201.741 4.03544L201.719 4.50207H198.007C198.007 4.90508 198.177 5.29747 198.474 5.57321C198.76 5.82774 199.132 5.96561 199.513 5.955C199.81 5.96561 200.097 5.88076 200.351 5.72168C200.574 5.57321 200.733 5.3505 200.818 5.09597H201.645C201.528 5.53079 201.263 5.91258 200.903 6.18832C200.5 6.47466 200.012 6.63374 199.513 6.61253C199.098 6.62105 198.688 6.51853 198.326 6.31558C197.976 6.11408 197.689 5.81713 197.509 5.46716C197.305 5.07436 197.203 4.63686 197.212 4.19452C197.201 3.7597 197.297 3.32488 197.498 2.93249C197.679 2.58251 197.965 2.28556 198.304 2.09467C198.667 1.89718 199.073 1.79282 199.486 1.79097C199.898 1.78912 200.305 1.88983 200.669 2.08406C200.998 2.26435 201.274 2.54009 201.454 2.87946C201.645 3.24004 201.741 3.64304 201.741 4.03544ZM200.935 3.87636C200.941 3.60929 200.875 3.3455 200.744 3.11278C200.616 2.90067 200.436 2.73099 200.213 2.62493C199.983 2.51142 199.728 2.45332 199.471 2.45525C199.1 2.44464 198.75 2.58251 198.474 2.82644C198.188 3.10217 198.018 3.47336 198.007 3.86575L200.935 3.87636Z" fill="black"/>
</svg>
