<svg width="203" height="18" viewBox="0 0 203 18" fill="none" xmlns="http://www.w3.org/2000/svg">
<path d="M1.69237 16.4141H201.072C201.353 16.4141 201.623 16.5258 201.822 16.7247C202.021 16.9236 202.133 17.1933 202.133 17.4746H0.631836C0.631836 17.1933 0.74357 16.9236 0.942458 16.7247C1.14135 16.5258 1.4111 16.4141 1.69237 16.4141Z" fill="#F0F0F0"/>
<path opacity="0.4" d="M22.4998 4.36552L22.4786 4.83215H18.7668C18.7668 5.23515 18.9364 5.62755 19.2334 5.90329C19.5197 6.15781 19.8909 6.29568 20.2727 6.28508C20.5697 6.29568 20.856 6.21084 21.1105 6.05176C21.3332 5.90329 21.4923 5.68058 21.5772 5.42605H22.4044C22.2877 5.86087 22.0226 6.24266 21.662 6.51839C21.259 6.80474 20.7712 6.96382 20.2727 6.94261C19.8574 6.95113 19.4474 6.84861 19.0849 6.64566C18.7349 6.45476 18.4486 6.15781 18.2577 5.80784C18.0541 5.41505 17.952 4.97755 17.9608 4.5352C17.9502 4.10039 18.0456 3.66557 18.2471 3.27317C18.4274 2.9232 18.7137 2.62625 19.0531 2.43535C19.4156 2.23786 19.8215 2.13351 20.2343 2.13166C20.6471 2.12981 21.0538 2.23052 21.4181 2.42475C21.7468 2.60504 22.0226 2.88078 22.2029 3.22015C22.4044 3.58073 22.4998 3.97312 22.4998 4.36552ZM21.6938 4.20644C21.7 3.93937 21.6341 3.67558 21.5029 3.44286C21.3757 3.23075 21.1954 3.06107 20.9727 2.95501C20.7418 2.84149 20.4876 2.78339 20.2303 2.78533C19.8591 2.77472 19.5091 2.91259 19.2334 3.15651C18.9471 3.43225 18.7774 3.80344 18.7668 4.19583L21.6938 4.20644ZM25.3845 6.932C25.0234 6.93657 24.6655 6.86427 24.3345 6.7199C24.0482 6.59263 23.7937 6.40174 23.6134 6.14721C23.4328 5.90133 23.3361 5.60386 23.3376 5.29878H24.1649C24.1861 5.56392 24.3133 5.81844 24.5042 5.99873C24.7482 6.20024 25.0663 6.30629 25.3845 6.28508C25.7026 6.30629 26.0102 6.20024 26.2541 6.00934C26.4662 5.82905 26.5829 5.57452 26.5723 5.29878C26.5793 5.19873 26.5661 5.09829 26.5333 5.0035C26.5005 4.90872 26.4488 4.82157 26.3814 4.74731C26.2537 4.60528 26.0936 4.49614 25.9147 4.42915C25.669 4.33544 25.4175 4.25751 25.1618 4.19583C24.8436 4.1216 24.5254 4.01554 24.2285 3.88828C23.9885 3.78514 23.78 3.62052 23.624 3.41104C23.445 3.15343 23.3556 2.84417 23.3695 2.5308C23.3589 1.90509 23.73 1.34301 24.3027 1.09908C24.6209 0.961216 24.9709 0.886979 25.3314 0.886979C25.8193 0.865768 26.2965 1.01424 26.6889 1.30059C27.0389 1.56572 27.251 1.96872 27.2828 2.40354H26.4344C26.4196 2.2847 26.3798 2.17035 26.3177 2.06799C26.2555 1.96562 26.1724 1.87758 26.0738 1.80964C25.8617 1.61874 25.5648 1.5339 25.2678 1.54451C24.9815 1.5339 24.7057 1.61874 24.4724 1.79903C24.3718 1.88507 24.2919 1.99269 24.2387 2.11388C24.1854 2.23506 24.1602 2.3667 24.1649 2.49898C24.1534 2.6925 24.2181 2.88281 24.3451 3.02925C24.4724 3.16712 24.6209 3.27317 24.7906 3.3368C24.9709 3.41104 25.2148 3.48528 25.5435 3.58073C25.8617 3.66557 26.1799 3.77162 26.4874 3.89888C27.0495 4.1216 27.3995 4.67307 27.3571 5.27757C27.3571 5.56392 27.2828 5.85026 27.1237 6.09418C26.9541 6.35932 26.7207 6.57142 26.445 6.70929C26.1268 6.85776 25.7557 6.94261 25.3845 6.932ZM29.266 0.961216V6.87897H28.4918V0.961216H29.266ZM36.5837 1.00364V6.87897H35.8095V2.49898L33.8581 6.87897H33.3172L31.3553 2.48838V6.87897H30.5811V1.00364H31.4083L33.5824 5.86087L35.7565 1.00364H36.5837ZM41.8863 6.15781L43.3286 2.22325H44.1559L42.3317 6.86837H41.4303L39.6062 2.22325H40.4334L41.8863 6.15781ZM44.6225 4.5352C44.6094 4.10045 44.708 3.6696 44.9088 3.28378C45.0891 2.9338 45.3649 2.64746 45.7042 2.44596C46.0436 2.24446 46.436 2.14901 46.8284 2.14901C47.1996 2.1384 47.5708 2.23385 47.8889 2.41414C48.1647 2.57322 48.398 2.79593 48.5571 3.07167V2.22325H49.3418V6.86837H48.5571V6.00934C48.398 6.29568 48.1647 6.529 47.8783 6.68808C47.1996 7.05927 46.3724 7.04866 45.7042 6.64566C45.3649 6.43355 45.0891 6.1366 44.9194 5.78663C44.7158 5.40145 44.6136 4.97079 44.6225 4.5352ZM48.5571 4.5352C48.5677 4.21704 48.4934 3.89888 48.345 3.62315C48.2175 3.37253 48.0181 3.16571 47.7723 3.02925C47.5319 2.89198 47.2603 2.8189 46.9836 2.81704C46.7068 2.81518 46.4342 2.88461 46.1921 3.01864C45.9481 3.15651 45.7573 3.36862 45.6194 3.61254C45.4709 3.89888 45.3967 4.20644 45.4073 4.5246C45.3967 4.84276 45.4709 5.17152 45.6194 5.45786C45.8739 5.96692 46.4042 6.28508 46.9769 6.27447C47.2526 6.27447 47.5283 6.20024 47.7723 6.06237C48.0162 5.9245 48.2177 5.71239 48.345 5.45786C48.4934 5.17152 48.5677 4.85336 48.5571 4.5352ZM51.4205 0.59003V6.86837H50.6463V0.59003H51.4205ZM53.1279 1.45966C52.9896 1.4605 52.8564 1.40721 52.7568 1.31119C52.7072 1.26332 52.6683 1.20548 52.6428 1.14151C52.6172 1.07753 52.6054 1.00885 52.6083 0.940005C52.6075 0.801644 52.6607 0.668438 52.7568 0.568819C52.8046 0.51926 52.8625 0.480405 52.9264 0.454814C52.9904 0.429223 53.0591 0.417475 53.1279 0.420345C53.4143 0.420345 53.637 0.643057 53.637 0.9294V0.940005C53.6378 1.07837 53.5845 1.21157 53.4885 1.31119C53.4427 1.36048 53.3867 1.39927 53.3245 1.4249C53.2622 1.45053 53.1952 1.46239 53.1279 1.45966ZM53.4991 2.22325V6.87897H52.7249V2.22325H53.4991ZM54.5278 4.5246C54.5148 4.08984 54.6134 3.659 54.8142 3.27317C54.9981 2.92282 55.2763 2.63088 55.6173 2.43035C55.9584 2.22982 56.3488 2.1287 56.7444 2.1384C57.0943 2.1384 57.4443 2.22325 57.7519 2.39293C58.0488 2.54141 58.2927 2.77472 58.4624 3.05046V0.59003H59.2472V6.86837H58.4624V5.99873C58.3033 6.28508 58.07 6.51839 57.7837 6.67747C57.1049 7.04866 56.2777 7.02745 55.6096 6.63505C55.2676 6.43083 54.9915 6.13266 54.8142 5.77602C54.6245 5.38618 54.5266 4.95812 54.5278 4.5246ZM58.4624 4.5352C58.473 4.21704 58.3988 3.89888 58.2503 3.62315C58.1229 3.37253 57.9234 3.16571 57.6776 3.02925C57.4373 2.89198 57.1657 2.8189 56.8889 2.81704C56.6122 2.81518 56.3396 2.88461 56.0974 3.01864C55.8535 3.15651 55.6626 3.36862 55.5247 3.61254C55.3763 3.89888 55.302 4.20644 55.3126 4.5246C55.302 4.84276 55.3763 5.17152 55.5247 5.45786C55.7793 5.96692 56.3095 6.28508 56.8822 6.27447C57.158 6.27447 57.4337 6.20024 57.6776 6.06237C57.9215 5.9245 58.123 5.71239 58.2503 5.45786C58.3988 5.17152 58.473 4.85336 58.4624 4.5352ZM60.9547 1.45966C60.8163 1.4605 60.6831 1.40721 60.5835 1.31119C60.5339 1.26332 60.4951 1.20548 60.4695 1.14151C60.4439 1.07753 60.4321 1.00885 60.435 0.940005C60.4342 0.801644 60.4874 0.668438 60.5835 0.568819C60.6313 0.51926 60.6892 0.480405 60.7532 0.454814C60.8171 0.429223 60.8858 0.417475 60.9547 0.420345C61.241 0.420345 61.4637 0.643057 61.4637 0.9294V0.940005C61.4645 1.07837 61.4113 1.21157 61.3152 1.31119C61.2694 1.36048 61.2134 1.39927 61.1512 1.4249C61.089 1.45053 61.0219 1.46239 60.9547 1.45966ZM61.3258 2.22325V6.87897H60.5517V2.22325H61.3258ZM63.5848 2.85956V5.60634C63.5636 5.77602 63.6166 5.94571 63.7332 6.08358C63.8817 6.18963 64.0514 6.24266 64.2317 6.22145H64.7938V6.87897H64.0938C63.7439 6.91079 63.4045 6.80474 63.1287 6.58203C63.013 6.44903 62.9252 6.29411 62.8706 6.1265C62.8159 5.95889 62.7955 5.78199 62.8106 5.60634V2.85956H62.2061V2.22325H62.8106V1.05666H63.5848V2.22325H64.7938V2.85956H63.5848ZM69.7359 2.22325L66.936 9.06367H66.1407L67.0527 6.82595L65.1756 2.22325H66.0346L67.4981 5.98813L68.9405 2.22325H69.7359ZM70.754 6.9214C70.6844 6.92224 70.6155 6.90853 70.5515 6.88113C70.4876 6.85373 70.4301 6.81326 70.3828 6.76232C70.3332 6.71444 70.2944 6.65661 70.2688 6.59263C70.2432 6.52865 70.2314 6.45998 70.2343 6.39113C70.2335 6.25277 70.2868 6.11956 70.3828 6.01995C70.4307 5.97039 70.4885 5.93153 70.5525 5.90594C70.6164 5.88035 70.6851 5.8686 70.754 5.87147C71.0403 5.87147 71.263 6.09418 71.263 6.38053V6.39113C71.2638 6.52949 71.2106 6.6627 71.1145 6.76232C71.0692 6.81298 71.0136 6.85338 70.9514 6.88082C70.8892 6.90825 70.8219 6.92209 70.754 6.9214ZM70.754 3.29438C70.6156 3.29521 70.4824 3.24193 70.3828 3.14591C70.3332 3.09803 70.2944 3.0402 70.2688 2.97622C70.2432 2.91224 70.2314 2.84357 70.2343 2.77472C70.2335 2.63636 70.2868 2.50316 70.3828 2.40354C70.4307 2.35398 70.4885 2.31512 70.5525 2.28953C70.6164 2.26394 70.6851 2.25219 70.754 2.25506C71.0403 2.25506 71.263 2.47777 71.263 2.76412V2.77472C71.2736 3.06107 71.0509 3.28378 70.7646 3.29438H70.754Z" fill="black"/>
<path d="M5.9345 8.9901C8.27736 8.9901 10.1766 7.09084 10.1766 4.74798C10.1766 2.40512 8.27736 0.505859 5.9345 0.505859C3.59165 0.505859 1.69238 2.40512 1.69238 4.74798C1.69238 7.09084 3.59165 8.9901 5.9345 8.9901Z" stroke="#5479FF" stroke-width="0.530265" stroke-linecap="round" stroke-linejoin="round"/>
<path d="M5.64844 2.6582V5.06561L7.26044 5.87161" stroke="#5479FF" stroke-width="0.530265" stroke-linecap="round" stroke-linejoin="round"/>
<path opacity="0.7" d="M82.6533 1.81995V1.03516H84.4456V7.93921H83.5654V1.81995H82.6533ZM93.1314 2.70019L89.9816 10.389H89.0801L90.1088 7.86497L88.009 2.70019H88.9741L90.6179 6.94231L92.2405 2.70019H93.1314ZM98.7734 5.1182C98.7734 5.29849 98.7628 5.46817 98.7416 5.64846H94.5631C94.5737 6.10449 94.7646 6.53931 95.0933 6.85747C95.4115 7.14381 95.8251 7.30289 96.2599 7.29229C96.5887 7.30289 96.9174 7.21805 97.2038 7.02715C97.4477 6.85747 97.6386 6.61355 97.7341 6.3272H98.6673C98.5295 6.81505 98.2431 7.24986 97.8295 7.55742C97.3735 7.88618 96.822 8.04526 96.2599 8.03466C95.7933 8.04526 95.3373 7.9286 94.9237 7.69529C94.5309 7.47222 94.2106 7.14088 94.001 6.74081C93.7682 6.30009 93.6515 5.80739 93.6616 5.30909C93.6467 4.81495 93.76 4.32536 93.9904 3.88798C94.1919 3.49559 94.51 3.16682 94.9024 2.95472C95.316 2.732 95.7827 2.61535 96.2493 2.62595C96.7053 2.61535 97.1614 2.732 97.5644 2.95472C97.9356 3.16682 98.2431 3.47438 98.4446 3.84556C98.6779 4.22735 98.784 4.67278 98.7734 5.1182ZM97.8825 4.93791C97.8933 4.65253 97.8221 4.37004 97.6774 4.12384C97.5327 3.87765 97.3205 3.67804 97.0659 3.54861C96.8045 3.42284 96.5182 3.35759 96.2281 3.35772C95.8145 3.34711 95.4115 3.50619 95.1039 3.78193C94.7858 4.08948 94.5949 4.50309 94.5737 4.94851L97.8825 4.93791ZM99.6006 5.29849C99.59 4.81064 99.7066 4.3228 99.9294 3.88798C100.131 3.49559 100.438 3.16682 100.82 2.94411C101.19 2.72666 101.61 2.60849 102.04 2.60105C102.469 2.59362 102.893 2.69718 103.27 2.90169C103.588 3.07137 103.843 3.33651 104.023 3.64406V2.70019H104.903V7.9286H104.023V6.96352C103.843 7.28168 103.578 7.54681 103.259 7.7271C102.897 7.93006 102.487 8.03257 102.072 8.02405C101.626 8.03263 101.187 7.91461 100.806 7.6837C100.425 7.45279 100.117 7.11847 99.9188 6.7196C99.6989 6.27876 99.5897 5.791 99.6006 5.29849ZM104.034 5.30909C104.044 4.94851 103.959 4.59854 103.79 4.28038C103.642 4.00227 103.42 3.77067 103.149 3.61147C102.877 3.45227 102.567 3.37176 102.252 3.37893C101.939 3.37373 101.631 3.45519 101.361 3.61428C101.092 3.77337 100.871 4.0039 100.725 4.28038C100.555 4.59854 100.481 4.94851 100.481 5.30909C100.47 5.66967 100.555 6.03025 100.725 6.34841C100.873 6.62415 101.085 6.86807 101.361 7.02715C101.626 7.18623 101.934 7.26047 102.252 7.26047C102.559 7.26047 102.878 7.18623 103.143 7.02715C103.419 6.86807 103.641 6.63476 103.79 6.34841C103.959 6.01965 104.034 5.66967 104.034 5.30909ZM107.247 3.54861C107.395 3.26227 107.618 3.01835 107.905 2.84866C108.223 2.67898 108.583 2.59414 108.944 2.60474V3.50619H108.711C107.735 3.50619 107.247 4.03646 107.247 5.08638V7.9286H106.377V2.70019H107.247V3.54861Z" fill="black"/>
<path d="M118.351 8.9901C120.693 8.9901 122.593 7.09084 122.593 4.74798C122.593 2.40512 120.693 0.505859 118.351 0.505859C116.008 0.505859 114.108 2.40512 114.108 4.74798C114.108 7.09084 116.008 8.9901 118.351 8.9901Z" stroke="#5479FF" stroke-width="0.530265" stroke-linecap="round" stroke-linejoin="round"/>
<path d="M117.29 3.71926C117.513 3.07234 118.223 2.73297 118.87 2.96629C119.369 3.13597 119.697 3.61321 119.697 4.13287C119.697 4.96008 118.457 5.37369 118.457 5.37369" stroke="#5479FF" stroke-width="0.530265" stroke-linecap="round" stroke-linejoin="round"/>
</svg>
