<svg width="150" height="60" viewBox="0 0 150 60" fill="none" xmlns="http://www.w3.org/2000/svg">
<path d="M5.77998 31.2123C5.77998 32.7191 5.96833 34.1213 6.34505 35.4189C6.76361 36.6746 7.34961 37.7838 8.10303 38.7465C8.85645 39.7092 9.79823 40.4626 10.9284 41.0068C12.0585 41.5509 13.3561 41.823 14.821 41.823C19.2997 41.823 22.1041 39.5837 23.2343 35.105L28.3199 35.7328C27.3572 39.1232 25.662 41.6556 23.2343 43.3298C20.8484 45.0041 17.9812 45.8412 14.6327 45.8412C12.3306 45.8831 10.2796 45.5064 8.47974 44.7111C6.72176 43.874 5.21491 42.7648 3.95921 41.3835C2.74536 39.9604 1.82451 38.307 1.19666 36.4235C0.568809 34.4981 0.254883 32.468 0.254883 30.3333C0.254883 27.9056 0.54788 25.7081 1.13388 23.7409C1.71987 21.7736 2.59886 20.0993 3.77085 18.718C4.94284 17.2949 6.42876 16.2066 8.2286 15.4532C10.0284 14.6998 12.1422 14.3231 14.5699 14.3231C16.9139 14.3231 18.9649 14.7207 20.7229 15.516C22.4808 16.3113 23.9249 17.4205 25.055 18.8436C26.227 20.2667 27.106 21.941 27.692 23.8664C28.278 25.75 28.571 27.801 28.571 30.0194V31.2123H5.77998ZM23.0459 27.194C22.8785 25.9802 22.5855 24.8291 22.1669 23.7409C21.7483 22.6526 21.1623 21.7108 20.4089 20.9155C19.6555 20.1202 18.7556 19.4924 17.7092 19.032C16.6627 18.5715 15.428 18.3413 14.0048 18.3413C12.7491 18.3413 11.619 18.5925 10.6144 19.0947C9.65173 19.597 8.8146 20.2667 8.10303 21.1039C7.43332 21.8992 6.88918 22.8409 6.47062 23.9292C6.0939 24.9756 5.86369 26.0639 5.77998 27.194H23.0459Z" fill="#313131"/>
<path d="M41.0373 39.9394H56.9219C59.3078 39.8976 61.275 39.3116 62.8237 38.1814C64.3725 37.0095 65.1468 35.1678 65.1468 32.6564C65.1468 30.7309 64.8329 29.2241 64.205 28.1358C63.619 27.0057 62.8447 26.1895 61.882 25.6872C60.9193 25.1431 59.8101 24.8082 58.5544 24.6826C57.2987 24.5571 56.0429 24.4943 54.7872 24.4943H41.0373V39.9394ZM41.0373 19.3459H54.6617C55.8755 19.3459 57.0266 19.2622 58.1149 19.0947C59.245 18.8855 60.2286 18.5297 61.0658 18.0274C61.9029 17.4833 62.5726 16.7508 63.0749 15.8299C63.5772 14.9091 63.8283 13.7162 63.8283 12.2512C63.8283 10.5769 63.5562 9.27933 63.0121 8.35848C62.468 7.43763 61.7564 6.76792 60.8774 6.34936C59.9984 5.93079 59.0148 5.70058 57.9265 5.65872C56.8382 5.57501 55.729 5.53315 54.5989 5.53315H41.0373V19.3459ZM35.1355 0.384766H56.0429C58.7636 0.384766 61.0239 0.740548 62.8237 1.45211C64.6655 2.16368 66.1304 3.08453 67.2187 4.21466C68.307 5.30294 69.0813 6.53771 69.5418 7.91899C70.0022 9.30026 70.2324 10.6606 70.2324 12C70.2324 14.3021 69.6045 16.3113 68.3488 18.0274C67.135 19.7017 65.5863 20.8318 63.7027 21.4178V21.5434C66.4653 22.2131 68.4535 23.5944 69.6673 25.6872C70.923 27.7382 71.5509 30.1449 71.5509 32.9075C71.5509 33.7446 71.4044 34.8538 71.1114 36.2351C70.8184 37.6164 70.1905 38.9767 69.2278 40.3161C68.307 41.6137 66.9466 42.7438 65.1468 43.7065C63.347 44.6274 60.9611 45.0878 57.9893 45.0878H35.1355V0.384766Z" fill="#313131"/>
<path d="M95.4451 15.0765H100.719L87.7225 51.6803C87.3458 52.7685 86.9272 53.815 86.4668 54.8195C86.0064 55.8241 85.4413 56.7031 84.7716 57.4565C84.1019 58.2099 83.2857 58.7959 82.323 59.2145C81.3603 59.6749 80.1883 59.9051 78.807 59.9051C78.0536 59.9051 77.3001 59.8005 76.5467 59.5912C75.7933 59.4238 75.1027 59.2354 74.4748 59.0261V54.5684C74.8097 54.6521 75.291 54.7567 75.9189 54.8823C76.5886 55.0497 77.2164 55.1334 77.8024 55.1334C78.8907 55.1334 79.8116 54.8614 80.565 54.3172C81.3184 53.7731 82.009 52.643 82.6369 50.9268L84.7088 45.1506L74.6004 15.0765H80.0627L87.4714 37.742H87.5969L95.4451 15.0765Z" fill="#313131"/>
<path d="M101.996 15.0765H106.956V5.72151H112.104V15.0765H117.692V19.4715H112.104V38.5582C112.104 39.2697 112.188 39.9394 112.355 40.5673C112.523 41.1533 113.13 41.4463 114.176 41.4463C114.762 41.4463 115.306 41.4044 115.809 41.3207C116.311 41.1951 116.834 41.0277 117.378 40.8184V45.2134C116.541 45.4227 115.683 45.5692 114.804 45.6529C113.967 45.7785 113.13 45.8412 112.293 45.8412C110.953 45.8412 109.928 45.6947 109.216 45.4017C108.505 45.1087 107.981 44.7111 107.646 44.2088C107.312 43.6647 107.102 43.0368 107.019 42.3253C106.977 41.5718 106.956 40.7766 106.956 39.9394V19.4715H101.996V15.0765Z" fill="#313131"/>
<path d="M126.69 31.2123C126.69 32.7191 126.879 34.1213 127.256 35.4189C127.674 36.6746 128.26 37.7838 129.014 38.7465C129.767 39.7092 130.709 40.4626 131.839 41.0068C132.969 41.5509 134.267 41.823 135.732 41.823C140.21 41.823 143.015 39.5837 144.145 35.105L149.23 35.7328C148.268 39.1232 146.572 41.6556 144.145 43.3298C141.759 45.0041 138.892 45.8412 135.543 45.8412C133.241 45.8831 131.19 45.5064 129.39 44.7111C127.632 43.874 126.125 42.7648 124.87 41.3835C123.656 39.9604 122.735 38.307 122.107 36.4235C121.479 34.4981 121.165 32.468 121.165 30.3333C121.165 27.9056 121.458 25.7081 122.044 23.7409C122.63 21.7736 123.509 20.0993 124.681 18.718C125.853 17.2949 127.339 16.2066 129.139 15.4532C130.939 14.6998 133.053 14.3231 135.48 14.3231C137.824 14.3231 139.875 14.7207 141.633 15.516C143.391 16.3113 144.835 17.4205 145.966 18.8436C147.138 20.2667 148.017 21.941 148.603 23.8664C149.189 25.75 149.482 27.801 149.482 30.0194V31.2123H126.69ZM143.956 27.194C143.789 25.9802 143.496 24.8291 143.077 23.7409C142.659 22.6526 142.073 21.7108 141.319 20.9155C140.566 20.1202 139.666 19.4924 138.62 19.032C137.573 18.5715 136.338 18.3413 134.915 18.3413C133.66 18.3413 132.53 18.5925 131.525 19.0947C130.562 19.597 129.725 20.2667 129.014 21.1039C128.344 21.8992 127.8 22.8409 127.381 23.9292C127.004 24.9756 126.774 26.0639 126.69 27.194H143.956Z" fill="#313131"/>
</svg>
