<svg width="60" height="60" viewBox="0 0 60 60" fill="none" xmlns="http://www.w3.org/2000/svg">
<g clip-path="url(#clip0_26003_91885)">
<g clip-path="url(#clip1_26003_91885)">
<g clip-path="url(#clip2_26003_91885)">
<path d="M50.5263 52.2623C50.8421 52.1044 50.9999 51.9465 51.3157 51.7887C51.4736 51.6308 51.6315 51.4729 51.7894 51.4729C52.1052 51.315 52.2631 51.1571 52.5789 50.9992C52.7368 50.8413 53.0526 50.8413 53.2105 50.6834C53.6842 50.0518 54 49.2623 54.3157 48.6308C54.4736 48.1571 54.7894 47.8413 55.421 47.8413C55.5789 47.8413 55.5789 47.6834 55.7368 47.6834C55.8947 47.3676 56.0526 47.0518 56.3684 46.736C56.6842 46.4202 56.5263 45.6308 56.2105 45.315C55.8947 45.6308 55.421 45.9465 55.1052 45.315H54.6315C54.3157 45.7887 53.9999 46.4202 53.842 46.8939C53.5263 47.6834 53.0526 48.315 52.2631 48.7887C51.4736 49.4202 50.6842 50.0518 50.0526 50.6834C49.7368 50.9992 49.5789 51.4729 49.5789 51.9465C49.5789 52.1044 49.7368 52.4202 49.8947 52.5781C50.0526 52.1044 50.3684 52.1044 50.5263 52.2623ZM57.6315 39.9465C57.3157 39.7887 57.1578 39.6308 56.9999 39.4729L56.5263 38.0518C56.3684 37.4202 55.8947 36.9465 55.2631 37.1044C55.2631 37.2623 55.2631 37.4202 55.421 37.736C55.8947 38.3676 56.3684 39.1571 56.6842 39.7887C56.8421 39.9465 56.8421 40.2623 56.8421 40.4202C56.8421 40.736 56.6842 41.2097 56.6842 41.5255C56.6842 41.6834 56.5263 41.8413 56.3684 41.9992C55.7368 42.4729 55.7368 42.7887 56.3684 43.1044C57.6315 43.8939 57.3157 43.8939 56.9999 44.9992V45.1571C56.9999 45.315 57.1578 45.4729 57.1578 45.4729H57.3157C57.4736 43.4202 58.7368 41.9992 59.9999 40.5781C59.6842 40.736 59.5263 40.8939 59.3684 40.8939C58.5789 40.8939 58.2631 40.5781 58.1052 39.7887C58.1052 39.6308 57.9473 39.4729 57.7894 39.1571H57.6315V39.9465ZM29.6842 44.8413C30.1578 45.9465 30.6315 47.0518 31.2631 48.1571C31.421 47.8413 31.421 47.6834 31.5789 47.5255C32.0526 47.8413 32.0526 47.5255 32.0526 47.2097V46.5781C32.5263 45.9465 32.0526 45.315 32.0526 44.5255C31.2631 44.8413 30.6315 45.6308 29.6842 44.8413ZM47.2105 19.5781C47.8421 20.6834 49.2631 21.7887 49.8947 21.7887C49.2631 20.9992 48.3157 20.2097 47.2105 19.5781ZM22.5789 38.3676V38.0518L21.4736 38.2097V38.5255L22.5789 38.3676Z" fill="#36A83A"/>
<path d="M17.6842 9C18 9.47368 18.3158 9.63158 18.9474 9.78947C19.2632 9.78947 19.7368 9.94737 20.0526 10.2632C20.3684 10.5789 20.6842 10.5789 21 10.1053C21.1579 10.2632 21.1579 10.4211 21.3158 10.7368C21.3158 10.5789 21.4737 10.5789 21.4737 10.4211H21.7895C21.9474 10.4211 21.9474 10.5789 21.9474 10.5789C21.6316 10.8947 21.7895 11.5263 21.3158 11.5263C21 11.6842 20.8421 11.8421 21 12.1579C21 12.4737 20.8421 12.7895 20.8421 13.2632C21 13.5789 21.3158 13.8947 21.4737 14.3684C21.4737 14.3684 21.6316 14.5263 21.7895 14.5263C22.2632 14.5263 22.4211 14.6842 22.7368 15C23.0526 15.3158 23.2105 15.6316 23.6842 15.6316C23.8421 15.6316 24 15.9474 24.1579 16.1053C24.4737 16.2632 24.6316 16.5789 24.9474 16.5789C25.2632 16.5789 25.5789 16.2632 25.7368 16.1053C26.2105 15.3158 26.3684 14.3684 26.3684 13.2632C26.3684 12.3158 26.5263 11.3684 26.5263 10.4211C27 10.7368 27.4737 10.8947 27.9474 11.2105C28.1053 11.3684 28.2632 11.5263 28.2632 11.6842V12.4737C28.2632 12.7895 28.4211 12.9474 28.7368 12.7895C29.2105 12.6316 29.8421 13.1053 29.8421 13.5789C29.8421 14.3684 30 15.1579 30.4737 15.9474C30.7895 16.4211 30.6316 17.2105 30.7895 17.8421C30.7895 18 30.9474 18.1579 31.1053 18.3158C31.5789 18.6316 32.2105 18.9474 32.6842 19.4211C32.8421 19.5789 33 19.8947 33 20.0526C33.4737 20.6842 33.7895 21.3158 33.6316 22.1053H34.7368V22.7368C34.7368 23.3684 35.0526 23.8421 35.6842 24L36.1579 24.4737C36.3158 24.9474 36.6316 25.4211 36.7895 25.8947C37.1053 27 37.4211 28.1053 37.1053 29.2105C36.7895 30.6316 36.7895 32.0526 36.4737 33.4737C36.4737 33.6316 36.3158 33.9474 36.1579 34.1053C35.2105 34.7368 35.2105 35.6842 34.8947 36.6316C34.8947 36.7895 34.7368 37.1053 34.7368 37.2632C34.1053 38.0526 34.1053 39 34.1053 39.9474C34.1053 40.421 33.7895 40.5789 33.3158 40.5789C32.6842 40.5789 32.0526 40.7368 31.5789 41.3684C31.2632 41.6842 30.9474 42 30.4737 42.3158L29.5263 41.3684L29.3684 41.6842H29.2105V40.8947H29.0526C29.0526 41.0526 28.8947 41.2105 28.8947 41.2105C28.7368 41.5263 28.4211 41.6842 28.2632 42C28.2632 42 27.7895 42 27.7895 41.8421C27.1579 40.7368 26.2105 39.9474 24.7895 39.4737C24.6316 39.4737 24.6316 39.3158 24.4737 39.1579C24.4737 39 24.4737 38.8421 24.3158 38.8421C24 38.0526 23.8421 37.8947 23.0526 38.0526C22.8947 37.5789 23.6842 36.9474 22.8947 36.4737C22.7368 36.7895 22.5789 37.1053 22.2632 37.2632H21.9474C22.1053 36.7895 22.2632 36.3158 22.4211 36C22.5789 35.6842 22.7368 35.3684 22.7368 35.0526V34.7368C22.5789 34.7368 22.4211 34.7368 22.4211 34.8947C22.2632 35.2105 22.1053 35.3684 22.1053 35.6842C22.1053 35.8421 22.1053 36 21.9474 36C21.4737 36.3158 21 36.6316 20.5263 37.1053C20.5263 36.9474 20.3684 36.6316 20.3684 36.4737C20.3684 35.8421 20.2105 35.3684 19.5789 35.0526C19.4211 34.8947 19.4211 34.7368 19.4211 34.5789C19.4211 34.1053 19.2632 33.7895 18.7895 33.6316C18.6316 33.6316 18.3158 33.4737 18.1579 33.4737C17.6842 33.4737 17.2105 33.3158 16.8947 33C16.8947 33 16.7368 32.8421 16.5789 32.8421C15.7895 33 15 33 14.2105 33.3158C13.2632 33.6316 12.4737 33.9474 11.3684 33.6316C10.4211 33.3158 9.47368 33.7895 8.68421 34.2632C8.05263 34.7368 7.26316 35.2105 6.63158 35.5263L4.73684 36.4737C4.26316 36.6316 3.63158 36.7895 3.15789 37.1053C3 37.1053 2.84211 37.2632 2.68421 37.1053C2.36842 36.6316 1.89474 36.3158 1.57895 35.8421L1.73684 35.3684C2.05263 35.2105 2.21053 35.0526 2.21053 34.5789V34.2632C2.68421 33.1579 2.05263 32.3684 1.73684 31.4211C1.73684 31.2632 1.57895 30.9474 1.57895 30.6316C1.57895 30.3158 1.57895 30.1579 1.42105 29.8421C0.947368 28.7368 0.473684 27.7895 0.157895 26.6842C0 26.5263 0 26.2105 0 26.0526L0.473684 26.6842C0.631579 26.3684 0.789474 26.2105 0.789474 25.8947C0.789474 25.5789 0.473684 25.2632 0.315789 25.1053C-0.157895 24.3158 0 23.6842 0.473684 23.0526C1.26316 21.9474 2.05263 21 3.47368 20.5263C4.26316 20.2105 4.89474 19.5789 5.68421 19.1053C5.68421 18.9474 5.84211 18.9474 6 18.9474C6.63158 18.9474 6.94737 18.7895 7.26316 18.3158C7.42105 18 7.73684 17.8421 7.89474 17.5263C8.21053 17.2105 8.36842 16.8947 8.21053 16.4211C8.21053 15.7895 8.68421 15.4737 9 15C9.1579 15.3158 9.1579 15.7895 9.31579 16.1053C9.63158 15.9474 9.63158 15.9474 9.63158 14.6842L10.4211 14.8421C9.94737 14.0526 11.0526 13.7368 11.0526 12.9474L11.6842 13.1053V12.7895C12 12.6316 12.1579 12.3158 12.4737 12.1579H12.7895C13.2632 12.6316 13.8947 12.7895 13.8947 13.4211C13.8947 13.4211 13.8947 13.5789 14.0526 13.7368C14.2105 13.4211 14.2105 13.2632 14.3684 12.9474L15.3158 13.5789C15.3158 13.4211 15.4737 13.4211 15.4737 13.4211C14.8421 12.3158 15.7895 11.5263 16.1053 10.5789C16.2632 10.2632 16.4211 9.94737 17.0526 10.1053H17.5263C18.1579 9.94737 18.3158 9.78947 17.8421 9.31579C17.5263 9.31579 17.6842 9 17.6842 9ZM50.5263 52.2632C50.2105 52.1053 50.0526 52.1053 49.7368 51.9474C49.5789 51.7895 49.2632 51.4737 49.4211 51.3158C49.5789 50.8421 49.5789 50.3684 49.8947 50.0526C50.5263 49.4211 51.3158 48.7895 52.1053 48.1579C52.4821 47.9642 52.8161 47.6966 53.0874 47.3711C53.3586 47.0455 53.5616 46.6688 53.6842 46.2632C53.8421 45.6316 54.1579 45.1579 54.4737 44.6842C54.4737 44.6842 54.9474 44.5263 54.9474 44.6842C55.2632 45.3158 55.5789 45 56.0526 44.6842C56.3684 45 56.5263 45.7895 56.2105 46.1053C56.0526 46.4211 55.8947 46.7368 55.5789 47.0526C55.5789 47.2105 55.4211 47.2105 55.2632 47.2105C54.7895 47.2105 54.4737 47.6842 54.1579 48C53.6842 48.6316 53.3684 49.4211 53.0526 50.0526C52.8947 50.2105 52.7368 50.3684 52.4211 50.3684C52.1053 50.5263 51.7895 50.6842 51.6316 50.8421C51.4737 51 51.3158 51.1579 51.1579 51.1579C51.1579 51.9474 50.8421 52.1053 50.5263 52.2632ZM57.6316 39.9474V39.4737H57.7895C57.9474 39.6316 58.1053 39.7895 58.1053 40.1053C58.2632 40.7368 58.5789 41.2105 59.3684 41.2105C59.5263 41.2105 59.8421 41.0526 60 40.8947C58.8947 42.4737 57.4737 43.8947 57.3158 45.7895H57.1579C57.1579 45.6316 57 45.4737 57 45.4737V45.3158C57.3158 44.2105 57.6316 44.2105 56.3684 43.4211C55.7368 42.9474 55.7368 42.7895 56.3684 42.3158C56.5263 42.1579 56.6842 42 56.6842 41.8421C56.8421 41.5263 56.8421 41.0526 56.8421 40.7368C56.8421 40.5789 56.6842 40.2632 56.6842 40.1053C56.2105 39.4737 55.7368 38.6842 55.4211 38.0526C55.2632 37.8947 55.2632 37.7368 55.2632 37.4211C55.8947 37.2632 56.3684 37.5789 56.5263 38.3684C56.6842 38.8421 56.6842 39.3158 57 39.7895C57.1579 39.6316 57.4737 39.7895 57.6316 39.9474ZM29.6842 44.8421C30.6316 45.4737 31.2632 44.6842 32.2105 44.5263C32.2105 45.3158 32.6842 45.7895 32.2105 46.5789C32.0526 46.7368 32.2105 47.0526 32.2105 47.2105C32.2105 47.5263 32.0526 47.8421 31.7368 47.5263C31.5789 47.6842 31.5789 47.8421 31.4211 48.1579C30.7895 47.0526 30.3158 45.9474 29.6842 44.8421ZM47.2105 19.5789C48.4737 20.2105 49.2632 20.8421 49.8947 21.7895C49.2632 21.9474 47.8421 20.8421 47.2105 19.5789Z" fill="#36A83A"/>
<path d="M22.5789 38.3685L21.4736 38.5264V38.2106L22.5789 38.0527V38.3685Z" fill="#36A83A"/>
</g>
</g>
</g>
<defs>
<clipPath id="clip0_26003_91885">
<rect width="60" height="60" fill="white"/>
</clipPath>
<clipPath id="clip1_26003_91885">
<rect width="60" height="60" fill="white"/>
</clipPath>
<clipPath id="clip2_26003_91885">
<rect width="60" height="60" fill="white"/>
</clipPath>
</defs>
</svg>
