<svg width="60" height="60" viewBox="0 0 60 60" fill="none" xmlns="http://www.w3.org/2000/svg">
<g clip-path="url(#clip0_26003_91252)">
<g clip-path="url(#clip1_26003_91252)">
<g clip-path="url(#clip2_26003_91252)">
<path d="M45.7894 26.2111C45.7894 26.0532 45.7894 26.0532 45.6315 25.8954H45.3157C45.1578 25.8954 45.1578 26.0532 45.1578 26.0532C44.9999 26.2111 45.1578 26.369 44.9999 26.5269C44.9999 26.6848 44.8421 26.6848 44.8421 26.8427C44.8421 27.0006 44.6842 27.1585 44.6842 27.3164V27.7901C44.6842 27.948 44.6842 27.948 44.8421 28.1059C44.8421 28.2638 44.9999 28.2638 44.9999 28.4217C45.1578 28.5796 45.1578 28.7375 45.3157 28.7375C45.4736 28.7375 45.4736 28.7375 45.4736 28.5796V27.948C45.4736 27.7901 45.6315 27.7901 45.6315 27.7901L45.7894 27.6322V27.3164C45.7894 27.1585 45.6315 27.1585 45.6315 27.0006L45.7894 26.8427V26.2111ZM37.2631 31.4217C37.421 31.2638 37.2631 31.2638 37.2631 31.1059L37.1052 30.7901H36.3157C36.1578 30.7901 35.9999 30.948 35.8421 30.948C35.6842 31.1059 35.5263 31.1059 35.3684 31.1059C35.2105 31.1059 35.2105 31.2638 35.2105 31.2638C35.0526 31.4217 35.0526 31.4217 35.0526 31.5796V31.8954C35.0526 32.0532 35.0526 32.2111 35.2105 32.2111C35.3684 32.369 35.3684 32.2111 35.5263 32.369H35.9999C36.1578 32.369 36.3157 32.369 36.4736 32.2111C36.6315 32.0532 36.4736 32.0532 36.6315 31.8954C36.6315 31.8954 36.7894 31.8954 36.7894 31.7375V31.4217C37.1052 31.4217 37.1052 31.5796 37.2631 31.4217ZM45.4736 44.8427C45.6315 44.6848 45.7894 44.8427 45.9473 44.8427C46.1052 44.8427 46.2631 44.6848 46.2631 44.5269C46.2631 44.369 46.1052 44.369 46.1052 44.369C45.7894 44.2111 45.7894 44.2111 45.6315 44.0532H45.3157C45.3157 44.0532 45.3157 43.8954 45.1578 43.8954H44.8421C44.8421 43.8954 44.6842 43.8954 44.6842 43.7375C44.5263 43.5796 44.6842 43.4217 44.5263 43.2638H44.3684C44.2105 43.2638 44.3684 43.1059 44.2105 42.948H43.5789C43.421 42.948 43.421 43.1059 43.2631 43.2638V43.5796C43.2631 43.5796 43.1052 43.5796 43.1052 43.7375C43.1052 43.7375 43.1052 43.8954 42.9473 44.0532C42.9473 44.0532 42.7894 44.0532 42.7894 44.2111L42.6315 44.369V44.6848C42.6315 44.6848 42.4736 44.6848 42.4736 44.8427C42.3157 44.8427 42.1578 44.6848 41.9999 44.8427C41.8421 45.0006 41.9999 45.0006 41.8421 45.1585C41.8421 45.1585 41.6842 45.3164 41.5263 45.3164H41.3684V45.7901H41.0526C40.8947 45.948 40.8947 46.1059 40.7368 46.2638L40.421 46.5796C40.2631 46.5796 40.2631 46.7375 40.1052 46.7375C39.9473 46.7375 39.6315 46.5796 39.4736 46.7375L39.1578 47.0532C39.1578 47.2111 38.9999 47.2111 38.9999 47.369V47.8427C38.9999 48.0006 38.9999 48.0006 38.8421 48.1585C38.6842 48.1585 38.6842 48.0006 38.5263 48.0006C38.3684 48.0006 38.2105 48.1585 38.0526 48.0006C37.8947 48.0006 37.8947 47.8427 37.8947 47.8427C37.7368 47.8427 37.7368 47.6848 37.5789 47.6848C37.421 47.6848 37.421 47.6848 37.421 47.8427C37.421 48.0006 37.5789 48.0006 37.5789 48.0006C37.7368 48.1585 37.7368 48.3164 37.8947 48.3164C38.0526 48.4743 38.0526 48.4743 38.2105 48.4743C38.3684 48.4743 38.5263 48.3164 38.6842 48.3164H38.9999C39.1578 48.3164 39.1578 48.4743 39.3157 48.4743C39.4736 48.4743 39.4736 48.3164 39.6315 48.3164C39.7894 48.1585 39.7894 48.0006 39.9473 48.0006H40.2631C40.421 48.0006 40.5789 48.1585 40.7368 48.1585H41.0526C41.2105 48.1585 41.2105 48.0006 41.3684 48.0006H41.6842C41.8421 48.0006 41.8421 47.8427 41.9999 47.8427V47.5269C41.9999 47.369 42.1578 47.369 42.3157 47.2111C42.4736 47.0532 42.1578 46.7375 42.3157 46.5796C42.4736 46.4217 42.6315 46.5796 42.7894 46.5796C42.9473 46.4217 42.6315 46.2638 42.6315 46.1059C42.6315 45.948 42.6315 45.7901 42.7894 45.6322C42.9473 45.4743 43.1052 45.6322 43.2631 45.4743C43.421 45.4743 43.421 45.3164 43.5789 45.3164C43.7368 45.3164 43.8947 45.4743 44.0526 45.4743C44.2105 45.4743 44.3684 45.4743 44.5263 45.6322C44.6842 45.6322 44.6842 45.6322 44.8421 45.7901C44.9999 45.7901 44.9999 45.7901 45.1578 45.6322L45.3157 45.4743C45.3157 45.3164 44.9999 45.3164 44.9999 45.1585C45.3157 45.0006 45.3157 45.0006 45.4736 44.8427ZM32.6842 47.2111C32.5263 47.0532 32.3684 47.0532 32.3684 47.0532C32.2105 46.8954 32.3684 46.7375 32.3684 46.5796V45.7901C32.3684 45.4743 32.3684 45.3164 32.2105 45.1585C32.2105 45.0006 32.0526 45.0006 32.0526 44.8427C31.7368 44.369 31.7368 44.2111 31.5789 44.2111C31.421 44.0532 31.421 44.0532 31.2631 44.0532C31.1052 43.8954 31.2631 43.8954 31.1052 43.7375C30.9473 43.5796 30.7894 43.7375 30.7894 43.7375C30.7894 43.7375 30.3157 43.5796 30.1578 43.5796H29.8421C29.8421 43.5796 29.8421 43.8954 29.6842 43.8954C29.5263 43.8954 29.5263 43.7375 29.5263 43.7375C29.5263 43.7375 29.3684 43.4217 29.2105 43.2638C29.0526 43.1059 29.2105 42.948 29.0526 42.948C28.8947 42.948 29.0526 42.948 28.8947 43.2638L28.7368 43.4217C28.7368 43.5796 28.8947 43.5796 28.8947 43.7375C29.0526 43.8954 29.2105 43.8954 29.2105 44.0532V44.8427C29.2105 45.0006 29.3684 45.1585 29.3684 45.3164C29.3684 45.4743 29.2105 45.6322 29.3684 45.7901C29.3684 45.948 29.5263 45.948 29.6842 45.948C29.8421 46.1059 29.8421 46.2638 29.9999 46.4217V46.5796C29.9999 46.7375 30.1578 46.8954 30.1578 47.0532V47.2111C30.1578 47.2111 30.3157 47.2111 30.3157 47.369H30.6315C30.7894 47.369 30.7894 47.5269 30.7894 47.5269L31.1052 47.8427C31.2631 48.0006 31.2631 48.0006 31.421 48.0006C31.5789 48.1585 31.7368 48.1585 31.8947 48.1585C32.0526 48.1585 32.2105 48.3164 32.3684 48.1585C32.5263 48.1585 32.6842 48.0006 32.6842 47.8427V47.5269C32.8421 47.369 32.6842 47.369 32.6842 47.2111ZM9.47363 3.31641C9.47363 3.4743 9.47363 3.4743 9.47363 3.31641V3.31641Z" fill="#36A83A"/>
<path d="M34.4206 29.8427H35.0522C35.2101 29.8427 35.2101 30.0006 35.368 30.0006C35.5259 30.0006 35.5259 29.8427 35.6838 30.0006C35.8416 30.0006 35.6838 30.3164 35.6838 30.4743C35.6838 30.6322 35.6838 30.7901 35.8416 30.948C35.9995 31.1059 35.9995 31.1059 36.3153 31.1059C36.4732 31.1059 36.6311 31.1059 36.6311 30.948C36.789 30.7901 36.6311 30.6322 36.6311 30.3164V30.0006C36.789 29.6848 37.2627 30.0006 37.7364 29.8427C38.0522 29.6848 38.2101 29.6848 38.5259 29.5269C38.6837 29.5269 38.8416 29.5269 38.9995 29.369C39.1574 29.2111 38.9995 29.0532 39.1574 29.0532H39.789C40.1048 29.0532 40.2627 28.8954 40.5785 28.7375C40.7364 28.5796 40.8943 28.4217 41.0522 28.4217C41.2101 28.4217 41.5259 28.5796 41.6837 28.4217V28.1059C41.6837 27.948 41.8416 27.948 41.9995 27.948C42.1574 27.7901 42.3153 27.7901 42.4732 27.6322C42.6311 27.6322 42.6311 27.4743 42.6311 27.4743C42.789 27.3164 42.6311 27.3164 42.789 27.1585C42.9469 27.0006 43.1048 27.0006 43.2627 26.8427C43.4206 26.6848 43.2627 26.5269 43.4206 26.369C43.5785 26.2111 43.7364 26.369 43.7364 26.2111C43.8943 26.0532 43.7364 25.7375 43.7364 25.5796V24.7901C43.7364 24.6322 43.8943 24.6322 43.8943 24.4743C44.0522 24.3164 43.8943 24.0006 44.0522 23.8427C44.2101 23.8427 44.2101 23.8427 44.368 23.6848C44.5259 23.6848 44.5259 23.5269 44.5259 23.5269V22.8954C44.5259 22.7375 44.6837 22.5796 44.6837 22.4217C44.6837 22.2638 44.6838 22.1059 44.5259 21.948H43.7364C43.5785 21.948 43.2627 21.948 43.2627 21.7901C43.2627 21.6322 43.4206 21.7901 43.5785 21.6322C43.7364 21.4743 44.0522 21.6322 44.0522 21.3164V21.0006C44.0522 20.8427 43.8943 20.8427 43.8943 20.8427V20.6848C43.8943 20.5269 43.8943 20.5269 43.7364 20.369C43.7364 20.2111 43.7364 20.2111 43.5785 20.0532C43.4206 19.8954 43.2627 20.0532 43.1048 19.8954C42.9469 19.8954 42.789 19.7375 42.6311 19.7375C42.4732 19.7375 42.4732 19.5796 42.3153 19.5796C42.1574 19.4217 42.1574 19.2638 41.9995 19.1059C41.8416 18.948 41.8416 18.7901 41.6837 18.6322L41.368 18.3164C41.368 18.1585 41.368 18.1585 41.2101 18.1585L40.8943 17.8427C41.2101 17.369 41.2101 17.369 41.0522 17.369H40.8943C40.7364 17.369 40.7364 17.2111 40.5785 17.0532C40.5785 16.8954 40.5785 16.7375 40.7364 16.5796C40.8943 16.4217 41.0522 16.2638 41.0522 16.1059V15.948C41.0522 15.7901 41.2101 15.7901 41.2101 15.7901H41.8416C41.9995 15.7901 41.9995 15.7901 42.1574 15.6322C42.3153 15.4743 42.3153 15.3164 42.3153 15.1585V15.0006C42.1574 14.8427 42.1574 15.0006 41.9995 15.0006H41.6837C41.5259 15.0006 41.368 14.8427 41.2101 14.8427H40.4206C40.2627 14.8427 40.2627 14.8427 40.1048 15.0006V15.1585C40.1048 15.1585 40.1048 15.3164 39.9469 15.3164H39.6311C39.6311 15.3164 39.4732 15.3164 39.4732 15.1585C39.3153 15.1585 39.3153 15.0006 39.1574 15.0006L38.8416 14.6848C38.8416 14.5269 38.8416 14.5269 38.6837 14.5269C38.5259 14.369 38.368 14.5269 38.0522 14.369C37.8943 14.369 37.8943 14.2111 37.7364 14.0532C37.5785 13.8954 37.5785 13.8954 37.4206 13.8954C37.2627 13.7375 37.2627 13.5796 37.4206 13.4217H38.5259C38.6837 13.4217 38.6837 13.2638 38.6837 13.1059C38.6837 12.948 38.368 13.1059 38.368 12.948C38.368 12.7901 38.5259 12.7901 38.6837 12.6322L38.8416 12.4743L39.1574 12.1585V11.6848C39.3153 11.5269 39.3153 11.6848 39.4732 11.6848C39.6311 11.6848 39.789 11.5269 39.9469 11.5269H40.1048C40.2627 11.5269 40.2627 11.6848 40.2627 11.8427V12.0006C40.2627 12.1585 40.4206 12.1585 40.4206 12.3164C40.4206 12.4743 40.2627 12.4743 40.2627 12.6322C40.2627 12.7901 40.1048 12.948 40.1048 13.1059C40.1048 13.2638 40.1048 13.2638 40.2627 13.2638V13.4217C40.2627 13.5796 40.1048 13.7375 40.2627 13.8954C40.4206 14.0532 40.5785 13.8954 40.7364 13.7375C40.8943 13.5796 40.8943 13.5796 40.8943 13.4217L41.2101 13.1059C41.368 13.1059 41.368 13.1059 41.5259 12.948C41.8416 12.6322 41.9995 12.6322 42.1574 12.6322H42.3153V12.4743C42.3153 12.3164 42.4732 12.3164 42.4732 12.3164C42.6311 12.3164 42.6311 12.3164 42.789 12.1585C42.9469 12.1585 42.9469 12.1585 43.1048 12.0006C43.2627 12.0006 43.4206 11.8427 43.5785 11.8427C43.7364 11.8427 43.8943 11.6848 44.0522 11.6848C44.2101 11.5269 44.2101 11.5269 44.2101 11.369C44.368 11.0532 44.368 10.8954 44.6837 10.7375L44.9995 10.4217C44.9995 10.2638 44.8416 10.1059 44.9995 10.1059C45.1574 10.1059 45.1574 10.1059 45.1574 10.2638C45.3153 10.4217 45.3153 10.5796 45.4732 10.5796C45.6311 10.5796 45.4732 10.4217 45.6311 10.4217C45.789 10.4217 45.789 10.5796 45.789 10.5796H46.1048C46.1048 10.4217 45.9469 10.4217 45.9469 10.2638C45.9469 10.1059 45.9469 9.94799 45.789 9.79009C45.789 9.6322 45.789 9.4743 45.6311 9.31641C45.4732 9.15851 45.3153 9.15851 45.3153 9.00062C45.1574 8.84272 45.3153 8.68483 45.1574 8.52693C45.1574 8.36904 45.1574 8.36904 44.9995 8.21114V7.89535C45.1574 7.73746 45.3153 7.89535 45.4732 7.73746C45.789 7.73746 45.9469 7.73746 46.1048 7.57957C46.2627 7.42167 46.1048 7.26378 46.1048 7.10588C46.1048 6.94799 45.9469 6.79009 45.9469 6.6322C45.9469 6.4743 45.9469 6.4743 45.789 6.31641C45.789 6.15851 45.6311 6.15851 45.6311 6.00062V5.52693C45.6311 5.36904 45.4732 5.52693 45.3153 5.36904C45.3153 5.36904 45.3153 5.21114 45.1574 5.21114C45.1574 5.05325 44.9995 5.05325 44.8416 5.05325C44.6837 5.05325 44.6838 5.05325 44.5259 5.21114L44.2101 5.52693C44.0522 5.68483 43.8943 5.68483 43.7364 5.68483H42.9469C42.789 5.68483 42.789 5.52693 42.6311 5.52693L42.3153 5.21114C42.1574 5.05325 42.1574 4.89535 41.9995 4.89535C41.8416 4.73746 41.6837 4.73746 41.5259 4.73746C41.368 4.57956 41.2101 4.57956 41.0522 4.42167H40.7364C40.5785 4.42167 40.4206 4.42167 40.2627 4.26377C40.1048 4.26377 39.9469 4.10588 39.6311 4.10588H39.1574C38.9995 4.10588 38.9995 4.10588 38.8416 3.94799C38.6838 3.94799 38.6837 3.94799 38.5259 3.79009C38.2101 3.6322 38.368 3.4743 38.0522 3.15851C37.8943 3.00062 37.5785 2.84272 37.4206 2.68483C37.2627 2.52693 37.1048 2.52693 36.9469 2.36904C36.789 2.21114 36.6311 2.21114 36.4732 2.05325C36.9469 1.57956 36.9469 1.57956 36.789 1.42167C36.789 1.26377 36.789 1.26377 36.6311 1.26377H36.4732C36.3153 1.26377 36.3153 1.26377 36.1574 1.10588C35.9995 0.947985 35.8416 0.790091 35.6838 0.790091C35.5259 0.790091 35.5259 0.79009 35.368 0.632196C35.2101 0.632196 35.0522 0.474301 34.8943 0.474301H34.1048C33.9469 0.474301 33.9469 0.316406 33.789 0.316406H31.7364C31.5785 0.316406 31.4206 0.316406 31.4206 0.474301L31.2627 0.632196C31.2627 0.79009 31.1048 0.947985 31.2627 0.947985H31.4206C31.5785 0.947985 31.5785 1.10588 31.7364 1.26377C31.8943 1.26377 31.8943 1.26377 31.8943 1.42167C31.8943 1.57956 31.8943 1.57956 31.7364 1.73746C31.7364 1.89535 31.5785 2.05325 31.5785 2.21114C31.5785 2.36904 31.7364 2.36904 31.7364 2.52693V3.00062C31.7364 3.15851 31.8943 3.15851 31.8943 3.31641C31.8943 3.4743 31.7364 3.31641 31.5785 3.4743C31.4206 3.6322 31.5785 3.79009 31.4206 3.94799C31.2627 4.10588 31.1048 3.94799 30.9469 3.79009C30.789 3.79009 30.6311 3.6322 30.4732 3.6322H30.3153V5.36904C30.3153 5.52693 30.4732 5.52693 30.6311 5.52693C30.789 5.52693 30.789 5.68483 30.9469 5.68483C31.1048 5.68483 31.1048 5.52693 31.2627 5.52693H31.5785C31.7364 5.52693 31.7364 5.68483 32.0522 5.68483H32.368C32.5259 5.68483 32.368 5.52693 32.5259 5.36904H32.8416C32.9995 5.36904 32.9995 5.52693 33.1574 5.52693C33.3153 5.68483 33.4732 5.68483 33.6311 5.68483C33.789 5.68483 33.9469 5.68483 34.1048 5.84272C34.2627 5.84272 34.2627 6.00062 34.4206 6.00062C34.7364 6.00062 34.7364 6.00062 34.7364 6.15851C34.7364 6.31641 34.8943 6.31641 34.8943 6.4743V6.6322C34.7364 6.79009 34.5785 6.4743 34.4206 6.31641C34.4206 6.31641 34.2627 6.31641 34.1048 6.15851C33.9469 6.15851 33.9469 6.00062 33.789 6.15851C33.6311 6.15851 33.6311 6.31641 33.6311 6.31641H33.4732C33.3153 6.31641 33.3153 6.31641 33.3153 6.4743H32.9995C32.8416 6.4743 32.6837 6.4743 32.6837 6.6322C32.5259 6.79009 32.6837 6.94799 32.6837 7.10588C32.6837 7.26378 32.5259 7.26377 32.368 7.42167C32.2101 7.57956 32.2101 7.57957 31.8943 7.57957C31.7364 7.57957 31.5785 7.42167 31.5785 7.57957V7.73746C31.5785 7.89535 31.4206 7.89535 31.4206 7.89535C31.4206 7.89535 31.2627 7.89535 31.2627 8.05325C31.1048 8.05325 31.1048 8.21114 30.9469 8.21114C30.9469 8.21114 30.789 8.21114 30.789 8.05325C30.6311 8.05325 30.6311 8.05325 30.4732 7.89535H30.3153L30.1574 7.73746H29.8416C29.6837 7.73746 29.5259 7.73746 29.5259 7.89535V8.52693C29.5259 8.68483 29.6837 8.52693 29.8416 8.68483C29.9995 8.68483 30.1574 8.68483 30.1574 8.84272L30.3153 9.00062V9.31641C30.1574 9.4743 30.1574 9.31641 29.9995 9.4743L29.8416 9.6322C29.8416 9.79009 29.8416 9.79009 29.6837 9.94799C29.6837 10.1059 29.5259 10.1059 29.368 10.2638C29.2101 10.4217 29.2101 10.4217 29.0522 10.4217H27.1574C26.9995 10.4217 26.9995 10.4217 26.8416 10.5796C26.6837 10.5796 26.6837 10.7375 26.5259 10.7375C26.368 10.8954 26.368 10.8954 26.2101 10.8954C26.2101 10.8954 26.2101 11.0532 26.0522 11.0532H25.7364C25.5785 11.0532 25.5785 10.8954 25.5785 10.8954H24.3153C24.1574 10.8954 24.1574 10.8954 23.9995 10.7375C23.8416 10.7375 23.6837 10.5796 23.5259 10.5796H23.2101C23.0522 10.5796 23.0522 10.4217 22.8943 10.4217C22.7364 10.2638 22.5785 10.2638 22.2627 10.2638H18.3153C18.1574 10.2638 17.9995 10.1059 17.8416 9.94799C17.5259 9.79009 17.368 9.6322 17.2101 9.31641C17.2101 9.15851 17.0522 9.15851 17.0522 9.00062C16.8943 8.84272 16.7364 8.84272 16.5785 8.68483C16.4206 8.52693 16.2627 8.52693 16.1048 8.52693C15.9469 8.05325 15.789 8.05325 15.6311 8.05325C15.4732 7.89535 15.4732 7.89535 15.3153 7.89535C15.1574 7.89535 15.1574 7.73746 14.9995 7.73746C14.9995 7.57957 14.8416 7.57956 14.8416 7.42167C14.6837 7.26377 14.6837 7.26377 14.5259 7.26377C14.368 7.10588 14.2101 6.94799 13.8943 6.94799C13.5785 6.94799 13.5785 7.10588 13.2627 7.10588C13.1048 7.10588 12.9469 7.10588 12.789 6.94799C12.6311 6.94799 12.4732 6.79009 12.4732 6.6322V6.15851C12.4732 6.00062 12.3153 6.00062 12.3153 6.00062C12.1574 6.00062 11.9995 5.84272 11.8416 5.84272C11.6837 5.68483 11.5259 5.36904 11.2101 5.36904C11.0522 5.36904 10.8943 5.52693 10.7364 5.36904C10.5785 5.36904 10.4206 5.21114 10.4206 5.21114C10.2627 5.05325 10.2627 5.05325 10.1048 4.73746C9.94691 4.57956 10.1048 4.26377 9.78901 4.10588C9.63111 4.10588 9.47322 4.26377 9.47322 4.10588V3.94799H8.84164C8.52585 3.94799 8.36796 4.10588 8.21006 4.26377C7.89427 4.42167 7.73638 4.57956 7.57848 4.89535V5.21114C7.57848 5.36904 7.73638 5.36904 7.73638 5.52693V5.84272C7.73638 6.00062 7.57848 6.15851 7.42059 6.15851C7.26269 6.15851 7.2627 6.00062 7.1048 6.00062H6.47322C6.47322 5.84272 6.31533 5.84272 6.31533 5.84272C6.15743 5.84272 5.99954 6.15851 5.99954 6.31641C5.84164 6.6322 5.99954 6.79009 5.99954 7.10588C5.99954 7.26378 6.15743 7.26377 6.15743 7.42167C6.31533 7.57956 6.47322 7.73746 6.31533 7.73746C6.15743 7.89535 5.99954 7.73746 5.84164 7.57957C5.68375 7.57957 5.68375 7.42167 5.52585 7.42167H4.73638C4.57848 7.42167 4.42059 7.42167 4.42059 7.57957V7.73746C4.42059 7.73746 4.42059 7.89535 4.57848 7.89535H4.89427C5.05217 8.05325 5.05217 8.21114 5.05217 8.21114C5.21006 8.36904 5.36796 8.36904 5.36796 8.52693C5.36796 8.68483 5.52585 8.68483 5.52585 8.84272V9.31641H5.36796V9.94799C5.36796 10.1059 5.36796 10.2638 5.21006 10.4217C5.05217 10.5796 4.89427 10.4217 4.73638 10.4217C4.57848 10.4217 4.57848 10.7375 4.2627 10.8954H4.1048C3.78901 10.8954 3.78901 11.2111 3.47322 11.2111C3.31533 11.5269 3.15743 11.5269 2.99954 11.5269H2.68375C2.52585 11.5269 2.52585 11.6848 2.36796 11.6848L2.21006 11.8427C2.05217 12.0006 2.05217 12.0006 1.73638 12.1585C1.73638 12.3164 1.73638 12.3164 1.57848 12.3164L1.2627 12.6322V12.7901C1.2627 12.948 1.42059 13.1059 1.42059 13.2638C1.42059 13.4217 1.42059 13.5796 1.57848 13.7375C1.57848 14.0532 1.73638 14.0532 1.89427 14.0532C2.21006 14.0532 2.21006 13.8954 2.52585 13.8954C2.68375 14.0532 2.68375 14.2111 2.84164 14.369C2.84164 14.5269 2.99954 14.5269 2.99954 14.6848C2.99954 14.8427 2.84164 14.8427 2.68375 14.8427H2.99954L3.15743 15.0006V15.4743C3.31533 15.6322 3.47322 15.4743 3.63112 15.4743C3.63112 15.4743 3.78901 15.4743 3.78901 15.6322C3.78901 15.6322 3.78901 15.7901 3.94691 15.7901V16.1059L4.1048 16.2638C4.2627 16.4217 4.42059 16.2638 4.57848 16.4217C4.73638 16.4217 4.73638 16.5796 4.89427 16.5796C5.05217 16.5796 5.21006 16.5796 5.52585 16.7375L5.36796 16.8954C5.52585 16.8954 5.68375 16.8954 5.84164 17.0532C6.15743 17.2111 6.15743 17.2111 6.31533 17.369C6.63112 17.369 6.78901 17.369 6.94691 17.6848C7.1048 17.8427 7.1048 18.0006 7.26269 18.1585C7.42059 18.3164 7.42059 18.4743 7.57848 18.6322C7.73638 18.7901 7.73638 18.7901 7.89427 18.7901C8.05217 18.948 7.89427 19.1059 7.89427 19.2638C7.73638 19.4217 7.57848 19.4217 7.57848 19.5796C7.42059 19.7375 7.42059 20.0532 7.73638 20.2111C7.89427 20.369 8.05217 20.2111 8.21006 20.369C8.36796 20.5269 8.52585 20.6848 8.68375 20.6848C8.84164 20.8427 8.99954 20.8427 9.31533 20.8427H9.94691C10.1048 20.8427 10.1048 20.8427 10.2627 21.0006C10.4206 21.0006 10.4206 21.1585 10.5785 21.1585C10.7364 21.1585 10.7364 21.1585 10.8943 21.3164C11.0522 21.3164 11.0522 21.4743 11.2101 21.4743H11.5259C11.6837 21.4743 11.6837 21.6322 11.8416 21.6322C11.9995 21.7901 12.1574 21.948 12.3153 21.948C12.4732 21.948 12.6311 21.948 12.789 22.1059C12.9469 22.1059 12.9469 22.1059 13.1048 22.2638H13.5785C13.7364 22.4217 13.7364 22.4217 13.7364 22.5796C13.8943 22.7375 14.0522 22.7375 14.2101 22.7375C14.368 22.7375 14.5259 22.5796 14.6837 22.5796H14.9995C15.1574 22.5796 15.1574 22.7375 15.3153 22.7375C15.4732 22.7375 15.6311 22.7375 15.6311 22.8954C15.3153 23.369 15.3153 23.6848 15.4732 23.6848C15.6311 23.6848 15.6311 23.5269 15.789 23.5269C15.9469 23.369 16.1048 23.369 16.2627 23.369H16.7364C16.8943 23.369 16.7364 23.5269 16.8943 23.6848C17.0522 23.6848 17.2101 23.6848 17.368 23.5269C17.5259 23.5269 17.6837 23.369 17.8416 23.369H18.789C18.789 23.369 18.789 23.2111 18.9469 23.2111C19.1048 23.0532 19.2627 23.0532 19.4206 23.0532H20.9995C21.1574 23.0532 21.3153 23.0532 21.4732 22.8954C21.6311 22.8954 21.6311 22.7375 21.789 22.7375C21.9469 22.7375 21.9469 22.8954 22.1048 22.8954C22.4206 22.8954 22.5785 22.7375 22.8943 22.7375H23.368C23.5259 22.7375 23.6837 22.8954 23.6837 23.0532L23.9995 23.369H24.3153C24.3153 23.369 24.4732 23.369 24.4732 23.5269C24.6311 23.6848 24.789 23.6848 24.789 23.8427C24.9469 24.0006 24.9469 24.1585 25.2627 24.3164L25.5785 24.6322C25.7364 24.948 25.5785 25.1059 25.7364 25.4217C25.7364 25.5796 25.8943 25.7375 25.8943 25.8954C25.8943 26.2111 25.5785 26.2111 25.2627 26.369C25.1048 26.5269 24.9469 26.6848 24.9469 26.8427C24.9469 27.0006 25.1048 27.1585 25.1048 27.4743C25.1048 27.6322 25.1048 27.7901 25.2627 27.7901C25.4206 27.948 25.5785 27.7901 25.7364 27.7901C25.8943 27.7901 26.0522 27.6322 26.2101 27.6322C26.368 27.7901 26.2101 27.948 26.2101 28.1059C26.2101 28.2638 26.368 28.4217 26.5259 28.5796H26.8416V28.8954C26.8416 29.0532 26.5259 29.0532 26.5259 29.369C26.5259 29.5269 26.6837 29.5269 26.8416 29.6848C26.9995 29.8427 27.1574 29.6848 27.3153 29.8427L27.6311 30.1585C27.789 30.3164 27.9469 30.3164 28.1048 30.4743H28.4206C28.5785 30.4743 28.7364 30.6322 28.8943 30.4743V30.3164C28.8943 30.1585 28.8943 30.1585 28.7364 30.0006C28.7364 29.8427 28.5785 29.6848 28.7364 29.5269H29.2101C29.2101 29.369 29.2101 29.369 29.368 29.2111C29.5259 29.2111 29.5259 29.369 29.6837 29.369C29.8416 29.369 29.9995 29.2111 30.1574 29.2111H30.4732C30.6311 29.2111 30.789 29.2111 30.9469 29.0532C31.1048 29.0532 31.1048 29.0532 31.2627 28.8954L31.5785 28.5796C31.7364 28.4217 31.5785 28.4217 31.7364 28.2638C31.8943 28.2638 31.8943 28.5796 32.0522 28.5796C32.2101 28.7375 32.368 28.7375 32.5259 28.7375C32.6837 28.7375 32.8416 28.5796 32.9995 28.7375C32.9995 28.7375 33.1574 28.8954 32.9995 28.8954C32.9995 29.0532 32.8416 29.0532 32.8416 29.0532C32.8416 29.2111 32.9995 29.2111 33.1574 29.369C33.3153 29.5269 33.3153 29.5269 33.4732 29.5269C33.6311 29.6848 33.789 29.6848 33.9469 29.6848H34.2627L34.4206 29.8427ZM32.6837 39.6322C32.8416 39.4743 32.8416 39.3164 32.9995 39.3164C33.1574 39.3164 33.1574 39.4743 33.1574 39.3164C33.3153 39.3164 33.1574 39.1585 33.1574 39.1585C33.3153 39.0006 33.3153 39.0006 33.4732 39.0006H33.789C33.9469 39.0006 33.789 38.8427 33.789 38.6848C33.789 38.5269 33.6311 38.5269 33.789 38.369H34.1048C34.2627 38.369 34.1048 38.0532 34.2627 38.0532H34.5785C34.7364 38.0532 34.7364 37.8954 34.7364 37.8954L34.8943 38.0532C34.8943 38.0532 34.8943 37.8954 35.0522 37.8954V37.1059C35.0522 36.948 35.2101 36.948 35.0522 36.7901C35.0522 36.6322 34.8943 36.7901 34.8943 36.6322V36.4743C34.8943 36.3164 34.7364 36.3164 34.5785 36.1585V36.0006H34.1048C33.9469 36.0006 33.9469 35.8427 33.789 35.8427C33.6311 35.8427 33.6311 36.0006 33.6311 36.1585C33.6311 36.3164 33.6311 36.3164 33.4732 36.3164C33.3153 36.3164 33.3153 36.1585 33.1574 36.1585C32.9995 36.1585 32.9995 36.3164 32.8416 36.1585C32.6837 36.1585 32.8416 36.0006 32.6837 36.0006H31.5785C31.4206 36.0006 31.4206 35.8427 31.2627 35.8427C31.1048 35.8427 31.1048 36.0006 30.9469 36.0006L30.6311 36.3164V36.6322C30.6311 36.7901 30.4732 36.6322 30.3153 36.7901C30.1574 36.948 30.3153 36.948 30.3153 37.1059C30.3153 37.2638 30.3153 37.2638 30.4732 37.4217C30.4732 37.5796 30.6311 37.5796 30.789 37.5796V37.8954H30.9469V38.0532C30.9469 38.2111 31.1048 38.0532 31.2627 38.2111C31.4206 38.369 31.2627 38.369 31.2627 38.5269V38.8427C31.4206 38.8427 31.4206 38.6848 31.4206 38.8427C31.5785 38.8427 31.5785 39.0006 31.5785 39.0006L31.8943 39.3164H32.2101C32.368 39.6322 32.5259 39.6322 32.6837 39.6322ZM46.1048 50.6848V51.7901C46.1048 51.948 45.9469 51.948 45.9469 52.1059C45.789 52.2638 45.789 52.4217 45.789 52.5796C45.789 52.7375 45.789 52.8954 45.9469 52.8954C46.1048 53.0532 46.2627 52.7375 46.4206 52.7375C46.5785 52.7375 46.5785 52.8954 46.7364 53.0532V53.8427C46.7364 54.0006 46.7364 54.1585 46.5785 54.3164C46.5785 54.4743 46.2627 54.6322 46.4206 54.7901C46.5785 54.948 46.7364 54.948 46.8943 54.948C47.0522 54.948 47.2101 54.948 47.368 54.7901C47.5259 54.6322 47.368 54.4743 47.368 54.3164C47.368 54.1585 47.5259 54.0006 47.5259 53.8427C47.5259 53.6848 47.368 53.6848 47.368 53.5269V53.369C47.368 53.2111 47.5259 53.0532 47.368 52.8954V52.2638C47.368 52.1059 47.368 51.948 47.5259 51.948H47.8416C47.9995 52.1059 47.8416 52.2638 47.8416 52.4217C47.8416 52.5796 47.6837 52.7375 47.8416 52.8954C47.8416 53.0532 47.9995 53.0532 47.9995 53.0532H48.3153V53.2111C48.3153 53.369 48.1574 53.369 48.1574 53.369V53.8427C48.3153 54.0006 48.4732 54.0006 48.6311 53.8427V53.6848L48.789 53.5269C48.9469 53.5269 49.1048 53.6848 49.2627 53.5269C49.4206 53.5269 49.4206 53.369 49.4206 53.2111C49.4206 53.0532 49.2627 53.0532 49.1048 52.8954C49.1048 52.7375 48.9469 52.7375 48.9469 52.7375V52.5796C48.9469 52.4217 49.1048 52.4217 49.1048 52.4217C49.1048 52.2638 48.9469 52.2638 48.9469 52.1059L48.6311 51.7901C48.4732 51.6322 48.3153 51.6322 48.3153 51.4743V51.1585L48.4732 51.0006C48.6311 51.0006 48.6311 51.0006 48.789 50.8427C48.9469 50.6848 49.1048 50.6848 49.2627 50.5269C49.4206 50.369 49.4206 50.369 49.4206 50.2111C49.5785 50.0532 49.7364 50.369 49.8943 50.2111V50.0532C49.8943 49.8954 49.8943 49.8954 49.7364 49.8954C49.5785 49.7375 49.4206 49.8954 49.2627 49.8954C49.1048 49.8954 48.9469 49.7375 48.789 49.8954V50.0532C48.6311 50.2111 48.6311 50.0532 48.4732 50.0532H48.1574V50.369C47.9995 50.5269 47.8416 50.5269 47.6838 50.369C47.5259 50.2111 47.6838 50.0532 47.6838 50.0532C47.6838 49.8954 47.5259 50.0532 47.368 49.8954C47.2101 49.7375 47.2101 49.5796 47.2101 49.4217C47.2101 49.2638 47.0522 49.1059 47.2101 48.948H47.5259C47.6837 48.948 47.6837 48.948 47.8416 49.1059H48.789C48.9469 49.1059 48.9469 48.948 49.1048 48.948C49.2627 48.948 49.2627 49.1059 49.4206 49.1059C49.7364 49.2638 49.8943 49.1059 50.2101 49.1059H50.8416C50.9995 49.1059 50.9995 48.948 51.1574 48.7901C51.3153 48.6322 51.3153 48.4743 51.3153 48.3164C51.3153 48.1585 51.4732 48.1585 51.4732 48.0006C51.4732 47.8427 51.6311 47.8427 51.4732 47.6848C51.4732 47.5269 51.3153 47.5269 51.1574 47.5269C50.9995 47.5269 50.9995 47.5269 50.9995 47.6848V47.8427C50.9995 48.0006 50.6837 47.8427 50.6837 48.0006V48.3164C50.5258 48.4743 50.368 48.4743 50.2101 48.4743H49.7364C49.5785 48.4743 49.4206 48.6322 49.2627 48.4743C49.1048 48.4743 49.1048 48.3164 48.9469 48.3164C48.789 48.3164 48.6311 48.3164 48.4732 48.1585H47.9995C47.8416 48.1585 47.6837 48.0006 47.5259 48.1585C47.368 48.1585 47.5259 48.3164 47.368 48.3164L47.2101 48.4743C47.0522 48.4743 47.0522 48.6322 46.8943 48.6322C46.7364 48.6322 46.5785 48.6322 46.5785 48.7901C46.4206 48.948 46.5785 49.1059 46.5785 49.2638V50.2111C46.4206 50.5269 46.2627 50.369 46.1048 50.6848Z" fill="#36A83A"/>
<path d="M20.9997 30.7896C21.1576 30.9475 21.3155 30.6317 21.4734 30.6317C21.7892 30.6317 21.9471 30.7896 22.105 30.9475C22.2628 31.1054 22.2629 31.2633 22.2629 31.2633H22.105C21.9471 31.2633 21.9471 31.2633 21.9471 31.4212V31.7369C21.9471 31.7369 22.105 31.8948 22.2629 31.8948H22.5786V31.7369C22.7365 31.8948 22.7365 31.8948 22.8944 31.8948L23.2102 32.2106C23.3681 32.3685 23.3681 32.5264 23.3681 32.8422C23.3681 33.0001 23.526 33.158 23.526 33.3159C23.526 33.4738 23.3681 33.6317 23.3681 33.9475C23.3681 34.1054 23.2102 34.2633 23.3681 34.4212C23.3681 34.579 23.526 34.5791 23.6839 34.7369H24.9471C25.105 34.7369 25.105 34.579 25.105 34.579C25.105 34.579 25.105 34.4212 25.2628 34.4212H25.5786V34.2633C25.5786 34.1054 25.4207 33.9475 25.5786 33.7896H25.7365C25.8944 33.7896 25.8944 33.9475 26.0523 34.1054C26.0523 34.2633 26.0523 34.4212 26.2102 34.4212L26.3681 34.579C26.526 34.7369 26.526 34.7369 26.526 34.8948C26.6839 35.2106 26.526 35.3685 26.526 35.6843C26.526 35.8422 26.6839 36.0001 26.8418 36.158V36.6317C26.8418 36.7896 26.6839 36.9475 26.8418 37.1054C26.8418 37.2633 26.9997 37.1054 27.1576 37.2633V38.3685C27.1576 38.5264 26.9997 38.6843 27.1576 38.8422C27.3155 39.0001 27.4734 38.8422 27.4734 39.0001C27.6313 39.158 27.6313 39.3159 27.4734 39.4738C27.4734 39.4738 27.3155 39.4738 27.3155 39.6317C27.1576 39.7896 27.1576 39.9475 27.1576 40.1054V40.4212L27.3155 40.2633V39.6317H27.6313C27.7892 39.6317 27.7892 39.4738 27.7892 39.4738C27.9471 39.3159 27.9471 39.3159 27.9471 39.158C27.9471 39.0001 28.105 38.8422 27.9471 38.6843C27.9471 38.5264 27.9471 38.3685 27.7892 38.2106C27.7892 38.0527 27.6313 38.0527 27.6313 37.8948C27.6313 37.7369 27.4734 37.7369 27.4734 37.579V37.2633C27.4734 37.1054 27.3155 36.9475 27.1576 36.7896C26.9997 36.7896 26.9997 36.6317 26.8418 36.6317C26.6839 36.4738 26.526 36.4738 26.526 36.3159C26.526 36.158 26.6839 36.158 26.6839 36.0001C26.6839 35.8422 26.6839 35.8422 26.8418 35.6843C26.8418 35.5264 26.9997 35.3685 26.9997 35.2106C26.9997 35.0527 26.9997 35.0527 26.8418 34.8948L26.3681 34.4212C26.2102 34.2633 26.2102 34.1054 26.0523 33.9475L25.7365 33.6317L25.4207 33.3159C25.2629 33.158 25.2628 33.158 25.2628 33.0001C25.2628 32.8422 25.105 32.8422 25.2628 32.6843C25.2628 32.5264 25.4207 32.5264 25.4207 32.5264V31.8948C25.4207 31.7369 25.4207 31.579 25.5786 31.4212C25.7365 31.2633 25.8944 31.5791 26.0523 31.5791C26.2102 31.5791 26.2102 31.579 26.3681 31.4212C26.526 31.2633 26.6839 31.2633 26.8418 31.1054C26.9997 30.9475 26.9997 30.9475 27.1576 30.9475C27.3155 30.7896 27.4734 30.7896 27.6313 30.6317C27.7892 30.4738 27.7892 30.4738 27.7892 30.3159L27.9471 30.158C27.7892 30.0001 27.6313 30.0001 27.4734 29.8422C27.3155 29.6843 27.3155 29.5264 27.1576 29.5264C26.9997 29.3685 26.8418 29.5264 26.6839 29.3685C26.526 29.3685 26.526 29.2106 26.3681 29.0527C26.3681 28.8948 26.6839 28.8948 26.6839 28.5791V28.2633C26.526 28.1054 26.526 28.2633 26.3681 28.2633C26.2102 28.1054 26.2102 27.9475 26.0523 27.7896C26.0523 27.6317 26.2102 27.3159 26.0523 27.3159C25.8944 27.3159 25.7365 27.4738 25.5786 27.4738C25.4207 27.4738 25.2628 27.6317 25.105 27.4738C24.9471 27.3159 24.9471 27.3159 24.9471 27.158C24.7892 27.0001 24.6313 26.8422 24.7892 26.5264C24.7892 26.3685 24.9471 26.2106 25.105 26.0527C25.2628 25.8948 25.5786 25.8948 25.7365 25.5791C25.7365 25.4212 25.5786 25.2633 25.5786 25.1054C25.4207 24.7896 25.5786 24.6317 25.4207 24.3159L25.105 24.0001C24.9471 23.8422 24.9471 23.6843 24.6313 23.5264C24.4734 23.3685 24.4734 23.2106 24.3155 23.2106C24.1576 23.2106 24.1576 23.2106 23.9997 23.0527H23.8418C23.9997 23.2106 23.9997 23.3685 23.9997 23.5264C23.9997 23.8422 23.6839 23.8422 23.526 24.0001L23.2102 24.3159C23.0523 24.4738 22.7365 24.3159 22.7365 24.4738C22.5786 24.6317 22.5786 24.6317 22.5786 24.7896V25.2633C22.5786 25.4212 22.5786 25.4212 22.4207 25.5791C22.4207 25.7369 22.2629 25.7369 22.2629 25.7369C22.2629 25.8948 22.4207 25.8948 22.4207 26.0527V26.8422C22.4207 27.0001 22.4207 27.158 22.2629 27.158C22.105 27.158 22.105 26.8422 21.9471 26.8422H21.6313C21.4734 27.0001 21.6313 27.158 21.6313 27.4738C21.6313 27.6317 21.7892 27.6317 21.6313 27.7896C21.6313 27.9475 21.3155 27.9475 21.3155 28.1054C21.3155 28.2633 21.3155 28.2633 21.4734 28.2633C21.4734 28.4212 21.6313 28.4212 21.6313 28.5791C21.6313 28.7369 21.6313 28.7369 21.4734 28.7369C21.3155 28.8948 21.3155 28.7369 21.1576 28.7369V28.8948C21.1576 28.8948 21.1576 29.2106 20.9997 29.3685V29.8422C20.9997 30.0001 20.8418 30.158 20.8418 30.3159V30.4738C20.8418 30.6317 20.9997 30.6317 20.9997 30.7896C20.8418 30.7896 20.8418 30.6317 20.9997 30.7896ZM25.4207 46.7369H25.2628L25.105 46.8948C25.105 47.0527 25.2629 46.8948 25.4207 47.0527H26.0523C26.2102 46.8948 26.0523 46.8948 25.8944 46.7369H25.4207ZM27.9471 45.7896C27.7892 45.7896 27.7892 45.6317 27.7892 45.6317C27.6313 45.4738 27.6313 45.4738 27.4734 45.4738V45.158C27.4734 45.0001 27.3155 45.0001 27.1576 45.0001C26.9997 44.8422 26.9997 44.8422 26.9997 44.6843C26.8418 44.5264 26.6839 44.6843 26.3681 44.6843H25.7365C25.5786 44.6843 25.5786 44.5264 25.4207 44.3685C25.2629 44.3685 25.2628 44.2106 25.105 44.2106C24.9471 44.2106 25.105 44.3685 25.105 44.3685V44.6843C25.105 44.8422 25.2628 45.0001 25.2628 45.0001L25.5786 45.3159C25.7365 45.4738 25.7365 45.6317 25.8944 45.6317C26.0523 45.7896 26.0523 45.7896 26.2102 45.7896H26.526C26.6839 45.7896 26.6839 45.9475 26.8418 45.9475C26.9997 46.1054 26.8418 46.1054 26.9997 46.2633C26.9997 46.2633 27.1576 46.2633 27.1576 46.4212C27.3155 46.4212 27.3155 46.5791 27.3155 46.7369V47.0527C27.3155 47.2106 27.3155 47.2106 27.4734 47.3685C27.6313 47.3685 27.6313 47.3685 27.7892 47.5264H28.105C28.2628 47.5264 28.2629 47.6843 28.4207 47.8422C28.5786 48.0001 28.5786 48.158 28.5786 48.4738C28.5786 48.6317 28.7365 48.7896 28.7365 48.9475C28.7365 49.1054 28.5786 49.2633 28.7365 49.4212H28.8944C29.0523 49.4212 29.0523 49.4212 29.0523 49.5791C29.2102 49.7369 29.2102 49.8948 29.3681 49.8948C29.526 49.8948 29.526 49.8948 29.6839 50.0527V50.3685C29.6839 50.5264 29.8418 50.5264 29.8418 50.6843C29.8418 50.8422 29.9997 50.8422 29.9997 51.0001C29.9997 51.158 29.9997 51.158 30.1576 51.3159C30.1576 51.4738 30.3155 51.4738 30.3155 51.6317L30.6313 51.9475C30.6313 52.1054 30.7892 52.1054 30.7892 52.2633C30.7892 52.4212 30.9471 52.5791 30.9471 52.7369C31.105 52.8948 31.2628 52.8948 31.2628 53.0527L31.4207 53.2106C31.5786 53.3685 31.4207 53.3685 31.5786 53.5264C31.7365 53.6843 31.8944 53.6843 32.0523 53.6843C32.2102 53.6843 32.2102 53.8422 32.3681 53.8422L32.6839 54.158C32.8418 54.3159 32.9997 54.3159 33.1576 54.4738V54.6317C33.3155 54.7896 33.3155 54.9475 33.4734 54.9475C33.6313 54.9475 33.6313 54.7896 33.7892 54.7896H34.105C34.2629 54.7896 34.4207 55.1054 34.5786 54.9475C34.7365 54.9475 34.7365 54.7896 34.7365 54.6317V53.0527C34.7365 52.8948 34.8944 52.7369 35.0523 52.7369L35.2102 52.5791C35.2102 52.4212 35.0523 52.4212 34.8944 52.2633L34.5786 51.9475C34.4207 51.7896 34.4207 51.6317 34.2629 51.6317C34.105 51.6317 33.9471 51.7896 33.7892 51.6317C33.7892 51.6317 33.7892 51.4738 33.6313 51.4738L33.3155 51.158C33.3155 51.0001 33.1576 51.0001 33.1576 51.0001V50.5264C33.1576 50.3685 33.1576 50.3685 32.9997 50.3685C32.8418 50.2106 32.6839 50.5264 32.526 50.3685C32.3681 50.2106 32.526 50.2106 32.526 50.0527V49.7369C32.526 49.5791 32.6839 49.5791 32.6839 49.5791C32.6839 49.4212 32.526 49.4212 32.526 49.2633C32.2102 48.9475 32.0523 48.9475 31.8944 48.9475H31.5786C31.4207 48.9475 31.5786 48.7896 31.5786 48.6317V48.158C31.4207 48.0001 31.4207 48.0001 31.2628 48.0001C31.105 48.0001 30.9471 48.158 30.9471 48.0001V47.5264L30.7892 47.3685C30.6313 47.3685 30.6313 47.5264 30.6313 47.5264C30.4734 47.5264 30.4734 47.3685 30.4734 47.3685C29.9997 47.3685 29.9997 47.3685 29.8418 47.2106H29.526C29.3681 47.2106 29.3681 47.0527 29.2102 47.0527C29.0523 46.8948 29.0523 46.7369 28.8944 46.5791C28.8944 46.5791 28.8944 46.4212 28.7365 46.4212C28.5786 46.2633 28.4207 46.4212 28.4207 46.2633C28.4207 46.1054 28.4207 46.1054 28.2628 45.9475C28.105 45.7896 27.9471 45.9475 27.9471 45.7896ZM27.7892 49.7369C27.6313 49.5791 27.4734 49.7369 27.4734 49.8948C27.4734 50.0527 27.6313 50.0527 27.7892 50.0527C27.7892 50.0527 27.9471 49.7369 27.7892 49.7369ZM33.4734 49.8948L33.6313 49.7369C33.6313 49.5791 33.3155 49.5791 33.1576 49.5791L32.9997 49.7369C32.9997 49.8948 33.3155 49.8948 33.4734 49.8948ZM37.2629 49.2633C37.2629 49.4212 37.4207 49.4212 37.4207 49.5791C37.4207 49.7369 37.2629 49.7369 37.2629 49.7369C37.2629 49.8948 37.4207 49.8948 37.5786 49.8948C37.7365 50.0527 37.7365 50.0527 37.7365 50.2106L38.0523 50.5264C38.0523 50.5264 38.2102 50.5264 38.2102 50.6843V51.7896C38.2102 51.9475 38.3681 51.9475 38.526 51.9475V52.1054C38.526 52.2633 38.3681 52.2633 38.526 52.4212H39.4734C39.6313 52.4212 39.6313 52.2633 39.7892 52.2633H39.9471C40.105 52.4212 39.9471 52.4212 39.9471 52.5791L40.105 52.7369H40.5786C40.7365 52.7369 40.7365 52.5791 40.8944 52.5791H41.2102C41.3681 52.5791 41.3681 52.5791 41.526 52.7369C41.6839 52.7369 41.8418 52.8948 41.9997 52.8948H42.3155C42.4734 52.8948 42.4734 53.2106 42.4734 53.3685C42.4734 53.5264 42.4734 53.5264 42.6313 53.6843H42.7892C42.9471 53.6843 43.105 53.5264 43.2628 53.3685C43.4207 53.3685 43.4207 53.2106 43.5786 53.2106C43.7365 53.0527 43.7365 52.8948 43.8944 52.7369C43.8944 52.5791 44.0523 52.5791 44.0523 52.4212C44.0523 52.2633 44.2102 52.2633 44.2102 52.1054V51.3159C44.2102 51.158 44.3681 51.158 44.526 51.0001L44.8418 50.6843C44.9997 50.5264 44.9997 50.5264 45.1576 50.5264C45.3155 50.3685 45.1576 50.2106 45.1576 50.0527V49.2633C45.1576 49.1054 45.3155 49.1054 45.4734 48.9475H46.2628C46.4207 48.9475 46.4207 48.9475 46.5786 48.7896V48.6317C46.5786 48.4738 46.4207 48.4738 46.2628 48.3159L45.9471 48.0001H45.6313C45.4734 47.8422 45.6313 47.6843 45.6313 47.5264V47.3685C45.6313 47.2106 45.4734 47.2106 45.3155 47.0527C45.3155 47.0527 45.1576 47.0527 45.1576 46.8948C44.9997 46.7369 45.1576 46.7369 45.1576 46.5791C45.1576 46.4212 44.9997 46.4212 44.9997 46.2633C44.9997 46.1054 44.9997 45.9475 45.1576 45.9475C45.3155 45.9475 45.3155 45.7896 45.4734 45.7896C45.3155 45.7896 45.3155 45.7896 45.1576 45.6317C44.9997 45.6317 44.8418 45.6317 44.6839 45.4738C44.526 45.4738 44.3681 45.3159 44.2102 45.3159C44.0523 45.3159 44.0523 45.4738 43.8944 45.4738C43.7365 45.4738 43.5786 45.4738 43.4207 45.6317C43.2628 45.7896 43.2628 45.9475 43.2628 46.1054C43.2628 46.2633 43.5786 46.4212 43.4207 46.5791C43.2628 46.7369 43.105 46.5791 42.9471 46.5791C42.7892 46.7369 42.9471 46.8948 42.9471 47.2106C42.7892 47.3685 42.6313 47.3685 42.6313 47.5264V47.8422C42.6313 48.0001 42.4734 48.0001 42.3155 48.0001H41.9997C41.8418 48.0001 41.8418 48.158 41.6839 48.158H41.3681C41.2102 48.158 41.0523 48.0001 40.8944 48.0001H40.5786C40.4207 48.0001 40.4207 48.158 40.2628 48.3159C40.105 48.4738 40.105 48.4738 39.9471 48.4738C39.7892 48.4738 39.7892 48.3159 39.6313 48.3159H39.3155C39.1576 48.3159 38.9997 48.6317 38.8418 48.4738C38.6839 48.4738 38.526 48.3159 38.526 48.3159L38.2102 48.0001C38.2102 47.8422 38.0523 47.8422 38.0523 47.8422L37.8944 48.0001C37.7365 48.0001 37.7365 48.0001 37.5786 48.158C37.4207 48.3159 37.5786 48.3159 37.4207 48.4738V49.2633C37.105 49.1054 37.105 49.2633 37.2629 49.2633ZM54.1576 47.5264C54.1576 47.6843 54.1576 47.6843 54.3155 47.6843C54.4734 47.6843 54.4734 47.5264 54.4734 47.3685V47.0527C54.4734 46.8948 54.4734 46.8948 54.3155 46.8948C54.1576 46.8948 54.1576 46.8948 54.1576 47.0527V47.5264ZM50.0523 51.0001C50.0523 51.0001 50.2102 51.0001 50.2102 50.8422C50.2102 50.6843 50.0523 50.6843 49.8944 50.6843C49.7365 50.6843 49.7365 50.5264 49.5786 50.6843C49.4207 50.6843 49.4207 50.6843 49.4207 50.8422L49.2628 51.0001H50.0523ZM53.526 50.2106H53.8418C53.9997 50.2106 53.8418 50.3685 53.9997 50.3685H54.3155C54.3155 50.3685 54.4734 50.2106 54.3155 50.2106C54.3155 50.0527 54.1576 50.0527 53.9997 50.0527V49.7369C53.9997 49.5791 53.8418 49.4212 53.9997 49.4212H54.6313V49.2633C54.6313 49.1054 54.4734 49.1054 54.4734 49.1054C54.4734 48.9475 54.6313 48.9475 54.6313 48.9475V48.3159H54.4734C54.3155 48.3159 54.3155 48.4738 54.1576 48.4738C53.9997 48.4738 54.1576 48.3159 53.9997 48.158C53.9997 48.0001 53.9997 48.0001 53.8418 48.0001C53.6839 48.0001 53.6839 48.158 53.526 48.158C53.3681 48.158 53.3681 48.3159 53.3681 48.3159C53.3681 48.4738 53.3681 48.4738 53.2102 48.6317V48.9475L53.0523 49.1054C53.0523 49.2633 53.2102 49.2633 53.2102 49.2633C53.2102 49.4212 53.3681 49.4212 53.3681 49.5791C53.3681 49.7369 53.526 49.7369 53.3681 49.8948C53.3681 50.0527 53.2102 50.0527 53.2102 50.2106L53.0523 50.3685L52.8944 50.5264C53.2102 50.2106 53.3681 50.2106 53.526 50.2106ZM56.2102 50.5264C56.3681 50.6843 56.3681 50.2106 56.3681 50.2106H56.2102C56.0523 50.3685 56.0523 50.3685 56.2102 50.5264ZM51.3155 51.0001H50.9997C50.8418 51.0001 50.6839 50.8422 50.6839 51.0001V51.158C50.6839 51.158 50.526 51.3159 50.6839 51.3159C50.6839 51.4738 50.8418 51.4738 50.9997 51.4738H51.6313C51.7892 51.4738 51.9471 51.4738 51.9471 51.3159V51.158C51.4734 51.0001 51.4734 51.0001 51.3155 51.0001ZM53.9997 50.8422C53.8418 50.8422 53.8418 50.6843 53.6839 50.6843C53.526 50.6843 53.526 50.6843 53.3681 50.8422V51.158C53.526 51.3159 53.526 51.158 53.6839 51.0001H53.9997C54.1576 51.0001 54.3155 51.158 54.3155 51.0001V50.8422H53.9997ZM55.7365 51.4738C55.8944 51.6317 56.0523 51.6317 56.2102 51.4738C56.2102 51.4738 56.2102 51.3159 56.3681 51.3159V51.0001H55.7365V51.158C55.5786 51.4738 55.5786 51.4738 55.7365 51.4738ZM35.8418 52.5791C35.9997 52.5791 36.1576 52.5791 36.3155 52.4212C36.4734 52.4212 36.4734 52.4212 36.4734 52.2633C36.4734 52.1054 36.6313 52.1054 36.4734 51.9475C36.4734 51.9475 36.3155 51.9475 36.1576 51.7896C36.1576 51.7896 36.1576 51.6317 35.9997 51.6317C35.8418 51.6317 35.8418 51.7896 35.8418 51.7896C35.6839 51.9475 35.526 51.9475 35.526 52.1054C35.526 52.2633 35.526 52.2633 35.6839 52.2633L35.8418 52.5791Z" fill="#36A83A"/>
<path d="M33.6318 51.6316C33.6318 51.7895 33.7897 51.6316 33.9476 51.6316H34.2634V51.7895C34.2634 51.9474 34.2634 51.9474 34.4213 52.1053C34.4213 52.2632 34.5792 52.2632 34.7371 52.2632C34.895 52.4211 34.895 52.5789 35.0529 52.5789C35.2108 52.5789 35.2108 52.4211 35.2108 52.4211V51.9474C35.2108 51.7895 35.0529 51.7895 34.895 51.7895L34.5792 51.6316V51.1579C34.5792 51 34.4213 51 34.2634 51C34.1055 51 34.1055 51.1579 33.9476 51.1579C33.7897 51.1579 33.6318 51.3158 33.6318 51.3158V51.6316ZM39.1582 57.4737H40.7371C40.895 57.4737 40.895 57.6316 41.0529 57.6316C41.2108 57.6316 41.5266 57.7895 41.6845 57.6316C41.6845 57.4737 41.6845 57.4737 41.8424 57.3158C41.8424 57.1579 42.0003 57 41.8424 57C41.8424 56.8421 41.8424 56.8421 41.6845 56.8421C41.5266 56.6842 41.5266 56.6842 41.3687 56.6842H41.2108C41.0529 56.6842 40.895 56.8421 40.7371 56.8421C40.5792 56.8421 40.5792 56.6842 40.4213 56.5263V56.2105L40.2634 56.0526H39.6318C39.4739 56.0526 39.6318 55.8947 39.4739 55.8947C39.316 55.7368 39.1582 56.0526 39.0003 55.8947V55.7368H38.6845C38.5266 55.7368 38.5266 56.0526 38.3687 56.0526C38.2108 56.0526 38.2108 56.2105 38.0529 56.2105C37.7371 56.2105 37.5792 56.0526 37.4213 56.0526C37.2634 56.0526 37.1055 55.8947 36.9476 55.8947C36.7897 55.8947 36.6318 56.0526 36.6318 55.8947C36.4739 55.8947 36.6318 55.5789 36.4739 55.5789C36.316 55.4211 36.0003 55.4211 35.8424 55.4211H35.0529C34.7371 55.4211 34.5792 55.2632 34.4213 55.4211C34.2634 55.5789 34.2634 55.7368 34.1055 55.8947V56.0526C33.9476 56.2105 33.7897 55.8947 33.7897 56.0526V56.5263C33.9476 56.6842 33.9476 56.5263 34.1055 56.5263H34.4213C34.4213 56.5263 34.4213 56.6842 34.5792 56.6842C34.5792 56.8421 34.5792 56.8421 34.7371 56.8421C34.895 57 35.0529 56.8421 35.2108 56.8421C35.3687 56.8421 35.5266 56.8421 35.6845 57C35.8424 57 35.8424 57.1579 36.0003 57.1579H37.5792C37.7371 57.1579 37.7371 57.3158 37.895 57.3158H38.2108C38.5266 57.3158 38.5266 57.6316 38.8424 57.6316C38.8424 57.4737 39.0003 57.4737 39.1582 57.4737Z" fill="#36A83A"/>
<path d="M41.2101 55.7363H40.7364C40.5785 55.7363 40.2627 55.7363 40.2627 55.8942V56.0521C40.2627 56.21 40.4206 56.21 40.4206 56.21H40.7364C40.8943 56.21 40.8943 56.21 41.0522 56.0521C41.2101 56.0521 41.2101 55.8942 41.2101 55.8942L41.368 55.7363C41.5259 55.7363 41.368 55.8942 41.2101 55.7363ZM42.6311 57.1574H41.8416C41.6837 57.1574 41.6837 57.3153 41.6837 57.3153C41.6837 57.4732 41.8416 57.4732 41.8416 57.4732L41.9995 57.6311C42.1574 57.6311 42.1574 57.4732 42.3153 57.4732H42.6311V57.1574ZM42.9469 57.9469C43.1048 57.9469 43.1048 58.1048 43.2627 57.9469C43.4206 57.9469 43.4206 57.789 43.4206 57.6311C43.4206 57.4732 43.5785 57.4732 43.5785 57.3153V56.9995C43.4206 56.8416 43.4206 56.8416 43.2627 56.9995L43.1048 57.1574C43.1048 57.3153 42.9469 57.3153 42.9469 57.4732L42.789 57.6311V57.789C42.6311 58.1047 42.789 57.9469 42.9469 57.9469ZM43.5785 58.1047C43.7364 58.2626 43.8943 58.1047 44.0522 58.1047C44.2101 58.1047 44.368 57.9469 44.5259 57.9469H45.4732C45.6311 57.9469 45.6311 57.789 45.789 57.789C45.789 57.6311 45.789 57.4732 45.6311 57.4732H44.9995C44.8416 57.4732 44.8416 57.3153 44.6837 57.3153C44.5259 57.3153 44.5259 57.3153 44.368 57.4732L44.0522 57.789C43.8943 57.9469 43.8943 57.9469 43.7364 57.9469C43.5785 57.9469 43.4206 58.1047 43.4206 58.1047C43.4206 57.9469 43.4206 58.1047 43.5785 58.1047ZM47.6837 57.9469C47.8416 57.9469 47.9995 57.789 48.1574 57.789H48.6311C48.789 57.789 48.9469 57.9469 49.1048 57.789V57.4732C48.9469 57.3153 48.9469 57.4732 48.789 57.4732C48.6311 57.4732 48.4732 57.6311 48.3153 57.6311C48.1574 57.6311 47.9995 57.789 47.8416 57.789C47.6837 57.789 47.6837 57.6311 47.6837 57.6311C47.5259 57.4732 47.368 57.4732 47.0522 57.4732C46.8943 57.4732 46.8943 57.6311 46.7364 57.6311C46.5785 57.789 46.4206 57.789 46.4206 57.789C46.2627 57.789 46.2627 57.9469 46.2627 57.9469C46.2627 58.1048 46.2627 58.1047 46.4206 58.1047C46.5785 58.2626 46.5785 58.1047 46.7364 58.1047H47.368C47.368 58.1047 47.5259 58.1048 47.6837 57.9469Z" fill="#36A83A"/>
<path d="M45.6316 58.7368C45.7895 58.8947 45.7895 58.7368 45.9474 58.8947C46.1053 58.8947 46.1053 59.0526 46.2632 59.0526C46.4211 59.0526 46.2632 59.2105 46.4211 59.2105H46.7369C46.8948 59.2105 46.8948 59.0526 46.8948 58.8947V58.5789C46.7369 58.4211 46.7369 58.5789 46.579 58.4211C46.4211 58.4211 46.579 58.2632 46.4211 58.1053H46.1053C45.9474 58.1053 45.7895 57.9474 45.7895 58.1053V58.2632C45.4737 58.5789 45.6316 58.5789 45.6316 58.7368ZM48.9474 60C49.1053 60 49.1053 59.8421 49.2632 59.8421C49.2632 59.6842 49.4211 59.6842 49.2632 59.5263H48.7895C48.6316 59.5263 48.4737 59.6842 48.4737 59.8421C48.6316 60 48.7895 60 48.9474 60ZM49.579 59.5263C49.7369 59.5263 49.7369 59.3684 49.8948 59.3684L50.2105 59.0526C50.3684 58.8947 50.5263 59.0526 50.6842 58.8947C50.8421 58.7368 50.6842 58.7368 50.8421 58.5789C51 58.4211 51 58.5789 51.1579 58.4211L51.4737 58.1053C51.6316 58.1053 51.7895 58.1053 51.9474 57.9474C52.1053 57.9474 52.2632 57.7895 52.4211 57.6316C52.579 57.4737 52.8947 57.6316 52.8947 57.4737C52.8947 57.3158 52.7369 57.1579 52.579 57.1579C52.4211 57 52.2632 57.1579 52.1053 57.1579C51.9474 57.1579 51.7895 57.1579 51.6316 57.3158C51.3158 57.3158 51.1579 57.3158 51 57.4737C50.8421 57.4737 50.8421 57.6316 50.6842 57.7895C50.5263 57.9474 50.5263 57.9474 50.5263 58.1053C50.3684 58.2632 50.3684 58.2632 50.2105 58.2632C50.0526 58.4211 49.8947 58.4211 49.7369 58.5789C49.579 58.7368 49.4211 58.5789 49.4211 58.7368C49.2632 58.8947 49.4211 58.8947 49.4211 59.0526V59.3684C49.4211 59.5263 49.579 59.5263 49.579 59.5263ZM49.579 57.1579C49.4211 57.1579 49.4211 57.3158 49.4211 57.3158V57.4737C49.4211 57.4737 49.579 57.4737 49.579 57.6316C49.7369 57.6316 49.8948 57.7895 49.8948 57.6316V57.3158C49.7369 57.1579 49.579 57.1579 49.579 57.1579ZM51.6316 57C51.9474 57.1579 51.9474 57 52.1053 57H52.4211C52.579 57 52.7369 57 52.7369 56.8421V56.6842C52.7369 56.5263 52.579 56.6842 52.4211 56.6842C52.2632 56.6842 52.1053 56.6842 51.9474 56.8421C51.6316 56.8421 51.4737 57 51.6316 57ZM49.4211 53.8421H49.1053C48.9474 53.8421 48.9474 54 48.7895 54C48.6316 54.1579 48.6316 54.1579 48.6316 54.3158C48.6316 54.4737 48.7895 54.4737 48.7895 54.6316C48.7895 54.6316 48.7895 54.7895 48.9474 54.7895H49.2632C49.4211 54.7895 49.4211 54.7895 49.579 54.6316V53.8421H49.8948V53.5263C49.8948 53.5263 49.7369 53.3684 49.579 53.5263C49.4211 53.6842 49.4211 53.8421 49.4211 53.8421ZM52.2632 51.7895V51.6316C52.1053 51.6316 51.9474 51.6316 51.9474 51.7895C52.1053 51.7895 52.2632 51.9474 52.2632 51.7895ZM52.2632 52.5789C52.4211 52.7368 52.2632 52.8947 52.4211 52.8947L52.579 53.0526C52.7369 53.0526 52.8947 53.2105 53.0526 53.2105C53.2105 53.2105 53.2105 53.2105 53.2105 53.0526V52.8947C53.2105 52.7368 53.2105 52.7368 53.0526 52.5789H52.7369C52.579 52.5789 52.4211 52.4211 52.4211 52.5789C52.4211 52.4211 52.2632 52.4211 52.2632 52.5789ZM56.5263 53.2105V52.8947C56.5263 52.7368 56.3684 52.5789 56.3684 52.5789C56.2105 52.4211 56.0526 52.4211 55.8948 52.4211C55.7369 52.4211 55.7369 52.2632 55.579 52.2632H54.9474C54.7895 52.2632 54.6316 52.1053 54.4737 52.2632C54.3158 52.2632 54.3158 52.2632 54.1579 52.4211C54 52.5789 54.1579 52.5789 54.1579 52.7368V52.8947C54.3158 53.0526 54.3158 52.8947 54.4737 52.8947H55.579C55.7369 52.8947 55.7369 53.0526 55.7369 53.0526C55.8947 53.2105 55.8948 53.2105 56.0526 53.2105C56.2105 53.3684 56.3684 53.3684 56.5263 53.2105ZM57 56.2105C56.8421 56.2105 56.8421 56.2105 56.6842 56.3684L56.3684 56.6842C56.2105 56.8421 56.2105 56.8421 56.2105 57C56.2105 57.1579 56.0526 57.1579 56.0526 57.1579C56.0526 57.1579 56.0526 57.3158 56.2105 57.3158H56.5263L56.8421 57C57 56.8421 57.1579 56.8421 57.1579 56.6842C57.3158 56.5263 57.3158 56.5263 57.3158 56.3684C57.1579 56.2105 57 56.2105 57 56.2105ZM58.2632 54.6316C58.1053 54.7895 58.1053 54.9474 58.1053 54.9474H58.2632C58.4211 54.9474 58.2632 54.9474 58.2632 54.6316C58.4211 54.6316 58.579 54.6316 58.4211 54.4737C58.2632 54.4737 58.2632 54.6316 58.2632 54.6316ZM59.6842 54.6316C59.5263 54.6316 59.6842 54.7895 59.5263 54.7895L59.2105 55.1053C59.0526 55.2632 59.0526 55.2632 58.8947 55.5789C58.8947 55.7368 58.7369 55.8947 58.8947 56.0526C59.0526 56.2105 59.0526 56.0526 59.2105 56.0526C59.3684 56.0526 59.3684 55.8947 59.5263 55.7368C59.6842 55.5789 59.6842 55.5789 59.6842 55.4211C59.8421 55.2632 60 54.9474 59.8421 54.7895C59.8421 54.7895 59.8421 54.6316 59.6842 54.6316ZM27.9474 51L28.1053 51.1579H28.2632C28.2632 51 28.2632 51 28.1053 50.8421C28.1053 50.6842 28.1053 50.5263 27.9474 50.5263H27.6316C27.4737 50.5263 27.4737 50.6842 27.6316 50.8421C27.7895 50.8421 27.7895 50.8421 27.9474 51ZM47.2105 55.4211L47.3684 55.2632C47.3684 55.1053 47.3684 55.1053 47.2105 55.1053C47.0526 55.1053 47.0526 55.1053 47.0526 55.2632C46.8947 55.4211 46.8947 55.4211 47.0526 55.5789C47.0526 55.5789 47.0526 55.4211 47.2105 55.4211ZM28.7369 51.6316C28.7369 51.7895 28.7369 51.7895 28.8948 51.7895C29.0526 51.7895 29.2105 51.6316 29.0526 51.4737C29.0526 51.4737 28.7369 51.4737 28.7369 51.6316ZM15.7895 24.7895C15.9474 24.7895 16.1053 24.7895 16.2632 24.6316V24.3158C16.2632 24.1579 16.1053 24.1579 16.1053 24C16.1053 23.8421 16.1053 23.8421 15.9474 23.6842V23.2105H15.7895C15.6316 23.2105 15.6316 23.3684 15.4737 23.3684C15.3158 23.3684 15.3158 23.2105 15.1579 23.0526C15 22.8947 14.8421 22.8947 14.6842 22.8947C14.5263 22.8947 14.5263 22.7368 14.3684 22.7368H14.0526C13.8947 22.7368 13.7369 22.8947 13.579 22.8947C13.4211 22.8947 13.2632 22.7368 13.1053 22.7368C12.9474 22.5789 12.9474 22.5789 12.9474 22.4211C12.7895 22.1053 12.6316 22.1053 12.4737 22.1053C12.3158 22.1053 12.3158 22.1053 12.1579 21.9474C12 21.9474 11.8421 21.9474 11.6842 21.7895C11.5263 21.6316 11.3684 21.6316 11.2105 21.4737C11.0526 21.3158 11.0526 21.3158 10.8948 21.3158H10.579C10.4211 21.3158 10.4211 21.1579 10.2632 21.1579C10.1053 21.1579 10.1053 21.1579 9.94738 21C9.78949 21 9.78949 20.8421 9.63159 20.8421C9.63159 20.6842 9.63159 20.5263 9.4737 20.5263H8.84212C8.68422 20.5263 8.52633 20.5263 8.21054 20.3684C8.05264 20.2105 7.89475 20.0526 7.73686 20.0526C7.57896 20.0526 7.42107 20.0526 7.26317 19.8947H7.10528V20.0526C7.10528 20.2105 6.94738 20.2105 6.78949 20.3684C6.63159 20.5263 6.3158 20.5263 6.4737 20.8421C6.4737 21 6.63159 21 6.63159 21H6.94738C7.10528 21 7.26317 21.1579 7.26317 21.3158C7.42107 21.4737 7.42107 21.4737 7.42107 21.6316C7.57896 21.7895 7.57896 21.7895 7.73686 21.7895C7.89475 21.7895 7.89475 21.7895 8.05264 21.9474C8.21054 22.1053 8.36843 22.1053 8.52633 22.2632C8.68422 22.4211 8.68422 22.5789 8.84212 22.7368L9.00001 22.8947H9.4737C9.63159 22.8947 9.63159 23.0526 9.78949 23.0526C9.94738 23.2105 10.1053 23.0526 10.2632 23.2105V23.5263C10.4211 23.6842 10.4211 23.5263 10.579 23.5263H10.8948C11.0526 23.5263 11.0526 23.5263 11.2105 23.6842C11.3684 23.8421 11.3684 24 11.5263 24.1579C11.6842 24.3158 11.8421 24.3158 12 24.3158H12.4737C12.6316 24.3158 12.6316 24.1579 12.7895 24.1579H13.1053C13.2632 24.1579 13.2632 24.3158 13.4211 24.4737L13.7369 24.7895C13.8947 24.7895 14.0526 24.9474 14.2105 24.9474C14.3684 24.9474 14.3684 24.7895 14.5263 24.7895H15C15.1579 24.7895 15.3158 24.9474 15.4737 24.9474C15.6316 24.6316 15.6316 24.7895 15.7895 24.7895ZM28.4211 29.6842H28.1053L27.9474 29.8421C27.9474 30 27.7895 30.1579 27.7895 30.4737V30.7895C27.7895 30.9474 27.9474 30.9474 28.1053 30.9474C28.2632 31.1053 28.1053 31.2632 28.1053 31.4211V31.5789C28.1053 31.7368 28.1053 31.7368 28.2632 31.8947C28.4211 32.0526 28.579 32.0526 28.579 32.0526V32.5263C28.579 32.6842 28.4211 32.6842 28.4211 32.8421C28.4211 33 28.579 33 28.579 33C28.7369 33 28.7369 32.8421 28.8948 32.6842C29.0526 32.5263 29.0526 32.5263 29.2105 32.5263C29.3684 32.5263 29.3684 32.6842 29.5263 32.6842H29.8421C30 32.6842 30 33 30.1579 32.8421C30.3158 32.8421 30.1579 32.6842 30.1579 32.5263C30.3158 32.3684 30.3158 32.5263 30.4737 32.5263H31.2632C31.4211 32.5263 31.2632 32.6842 31.4211 32.8421L31.7369 33.1579C31.8948 33.3158 32.0526 33.3158 32.0526 33.4737V33.9474C32.0526 34.1053 32.2105 34.2632 32.3684 34.4211C32.5263 34.5789 32.5263 34.5789 32.6842 34.5789C32.8421 34.7368 32.8421 34.7368 33 34.7368C33.1579 34.8947 33 35.0526 33 35.2105C33 35.3684 33.1579 35.3684 33.1579 35.5263V35.8421C33.1579 36 33 36 33 36.1579H32.8421C32.8421 36.1579 32.8421 36.3158 33 36.3158H33.3158C33.4737 36.3158 33.4737 36.4737 33.6316 36.4737C33.7895 36.4737 33.7895 36.3158 33.7895 36.3158C33.7895 36.1579 33.7895 36 33.9474 36C34.1053 36 34.1053 36.1579 34.2632 36.1579H34.7369V35.2105C34.7369 35.0526 34.579 35.0526 34.579 35.0526V34.5789C34.579 34.4211 34.4211 34.4211 34.4211 34.4211C34.2632 34.4211 34.2632 34.4211 34.1053 34.2632L33.7895 33.9474C33.6316 33.7895 33.6316 33.7895 33.4737 33.7895L33.1579 33.4737C33.3158 33.1579 33.1579 33.1579 33.1579 33C33 32.8421 33 32.8421 33 32.6842V32.3684C32.8421 32.2105 32.8421 32.3684 32.6842 32.2105C32.5263 32.0526 32.5263 31.8947 32.3684 31.7368C32.3684 31.5789 32.2105 31.4211 32.2105 31.2632C32.2105 31.1053 32.2105 30.9474 32.0526 30.7895C31.8947 30.6316 31.7369 30.6316 31.579 30.4737V30C31.4211 29.8421 31.2632 29.8421 31.1053 29.8421C30.9474 29.8421 30.9474 30 30.9474 30C30.7895 30 30.6316 30 30.4737 29.8421C30.3158 29.6842 30.1579 29.6842 30 29.5263V29.2105C30 29.0526 29.8421 29.0526 29.6842 28.8947C29.5263 28.7368 29.5263 28.7368 29.5263 28.5789L29.2105 28.2632H28.8948C28.7369 28.4211 28.8948 28.5789 28.8948 28.7368C28.8948 28.8947 29.0526 28.8947 29.0526 29.0526V29.2105C28.8948 29.6842 28.7369 29.6842 28.4211 29.6842ZM59.5263 42.3158C59.3684 42.3158 59.3684 42.3158 59.3684 42.4737V42.6316C59.3684 42.7895 59.3684 42.7895 59.5263 42.9474C59.6842 42.9474 59.6842 42.7895 59.6842 42.6316C59.6842 42.4737 59.8421 42.4737 59.8421 42.4737C59.6842 42.3158 59.5263 42.3158 59.5263 42.3158ZM20.8421 28.2632C20.8421 28.1053 20.5263 28.2632 20.5263 28.1053C20.3684 27.9474 20.5263 27.7895 20.5263 27.6316C20.5263 27.4737 20.5263 27.3158 20.3684 27.3158H20.0526C19.8948 27.3158 20.0526 27.7895 19.8948 27.7895H19.7369C19.579 27.7895 19.579 27.6316 19.579 27.4737C19.579 27.3158 19.4211 27.3158 19.4211 27.1579V27C19.4211 26.8421 19.579 26.8421 19.7369 26.8421C19.8948 26.8421 19.8948 26.8421 20.0526 26.6842C20.2105 26.5263 20.0526 26.3684 20.0526 26.3684C20.0526 26.3684 20.2105 26.3684 20.2105 26.2105V26.0526C20.0526 25.8947 19.8948 26.0526 19.7369 26.0526H18.3158C18.1579 26.0526 18 26.2105 17.8421 26.0526C17.6842 25.8947 17.8421 25.8947 17.8421 25.7368C17.8421 25.5789 18 25.4211 17.8421 25.4211C17.8421 25.4211 17.6842 25.2632 17.5263 25.2632L17.3684 25.4211C17.2105 25.4211 17.2105 25.2632 17.2105 25.2632C17.0526 25.1053 17.0526 25.1053 16.8947 25.1053H16.579C16.4211 25.1053 16.4211 25.2632 16.4211 25.4211C16.4211 25.5789 16.4211 25.5789 16.579 25.7368C16.579 25.8947 16.7369 25.8947 16.8947 25.8947C17.0526 25.8947 17.0526 26.0526 17.2105 26.0526C17.3684 26.0526 17.5263 26.0526 17.5263 26.2105C17.5263 26.3684 17.5263 26.3684 17.3684 26.3684C17.2105 26.5263 17.0526 26.3684 17.0526 26.5263C16.8948 26.6842 16.8947 26.6842 16.8947 26.8421C16.8947 27 16.8948 27 17.0526 27.1579C17.2105 27.3158 17.2105 27.3158 17.3684 27.3158C17.5263 27.4737 17.6842 27.4737 17.6842 27.4737C17.6842 27.6316 17.5263 27.6316 17.5263 27.7895C17.5263 27.9474 17.5263 27.9474 17.6842 27.9474L18 28.2632C18.1579 28.4211 18.1579 28.5789 18.3158 28.7368V29.5263L18 29.6842H18.6316C18.7895 29.6842 18.7895 29.6842 18.7895 29.5263V29.3684H19.1053C19.2632 29.3684 19.2632 29.2105 19.4211 29.2105H19.7369C19.8948 29.0526 19.7369 29.0526 19.7369 28.8947V28.5789H20.0526C20.2105 28.5789 20.2105 28.7368 20.2105 28.7368C20.3684 28.8947 20.2105 28.8947 20.3684 29.0526C20.3684 29.2105 20.5263 29.2105 20.5263 29.3684C20.6842 29.6842 20.5263 29.8421 20.5263 30C20.5263 30.1579 20.5263 30.3158 20.6842 30.6316L21 30.9474V30.7895C21 30.6316 21.1579 30.4737 21.1579 30.3158V29.8421C21.1579 29.6842 21.3158 29.3684 21.3158 29.3684C21.1579 29.2105 21.1579 29.2105 21.1579 29.0526C20.8421 28.4211 21 28.2632 20.8421 28.2632ZM47.5263 18.1579C47.5263 18 47.5263 18 47.5263 18.1579C47.3684 18 47.2105 18 47.2105 18C47.0526 18 47.0526 18 47.0526 18.1579C47.0526 18.1579 46.8947 18.3158 47.0526 18.3158H47.5263V18.1579ZM12.6316 42.3158C12.6316 42.1579 12.4737 42.1579 12.3158 42C12.1579 41.8421 12.1579 41.6842 12.1579 41.6842C12.1579 41.5263 12 41.5263 12 41.3684V40.8947C12 40.7368 11.8421 40.7368 11.6842 40.7368C11.5263 40.5789 11.6842 40.5789 11.5263 40.4211C11.5263 40.2632 11.5263 40.2632 11.3684 40.1053H10.8948V40.4211C10.8948 40.5789 11.0526 40.5789 11.0526 40.5789V42.1579C11.0526 42.3158 10.8948 42.3158 10.8948 42.4737C10.8948 42.6316 11.0526 42.7895 11.0526 42.9474V43.1053C11.0526 43.2632 10.8948 43.2632 10.8948 43.2632C10.8948 43.4211 10.8947 43.4211 11.0526 43.5789C11.0526 43.7368 11.0526 43.7368 11.2105 43.7368H11.8421C12 43.7368 12 43.7368 12.1579 43.5789L12.4737 43.2632C12.6316 43.2632 12.6316 43.2632 12.7895 43.1053V42.7895C12.7895 42.6316 12.7895 42.6316 12.6316 42.3158Z" fill="#36A83A"/>
<path d="M34.8945 33.7894C34.7366 33.7894 34.7366 33.7894 34.5787 33.6315L34.2629 33.3157H34.105C33.9471 33.3157 33.9471 33.3157 33.9471 33.1578C33.7892 32.9999 33.7892 32.9999 33.7892 32.842V32.5262H33.4734V32.3683C33.4734 32.2104 33.3155 32.2104 33.1576 32.2104V31.5788C33.1576 31.4209 32.9997 31.2631 33.1576 31.1052C33.1576 30.9473 33.1576 30.9473 33.3155 30.9473L33.6313 30.6315C33.6313 30.4736 33.6313 30.4736 33.7892 30.3157V29.9999C33.9471 29.842 34.105 29.9999 34.105 29.9999C34.2629 29.9999 34.2629 29.842 34.4208 29.6841C34.5787 29.5262 34.7366 29.5262 34.8945 29.5262L34.7366 29.3683H34.105C33.9471 29.3683 33.7892 29.2104 33.6313 29.2104C33.4734 29.2104 33.4734 29.0525 33.3155 29.0525C33.1576 28.8946 32.9997 28.8946 32.9997 28.7367C32.9997 28.5788 33.1576 28.5788 33.1576 28.5788V28.4209C32.9997 28.2631 32.8418 28.4209 32.684 28.4209C32.5261 28.4209 32.3682 28.4209 32.2103 28.2631C32.0524 28.1052 32.0524 27.9473 31.8945 27.9473C31.7366 27.9473 31.7366 28.1052 31.7366 28.2631L31.4208 28.5788C31.2629 28.5788 31.2629 28.7367 31.105 28.7367C30.9471 28.7367 30.7892 28.8946 30.6313 28.8946H30.3155C30.1576 28.8946 29.9997 29.0525 29.8418 29.0525C29.684 29.0525 29.684 28.8946 29.5261 28.8946C29.3682 28.8946 29.3682 29.0525 29.3682 29.2104C29.5261 29.3683 29.684 29.3683 29.684 29.5262C29.8418 29.6841 29.8418 29.6841 29.8418 29.842C29.9997 29.9999 30.1576 29.9999 30.1576 30.1578V30.4736C30.1576 30.6315 30.3155 30.6315 30.6313 30.7894C30.7892 30.9473 30.9471 30.9473 31.105 30.9473C31.2629 30.9473 31.2629 30.7894 31.2629 30.7894C31.4208 30.7894 31.5787 30.7894 31.7366 30.9473V31.4209C31.7366 31.5788 32.0524 31.5788 32.2103 31.7367C32.3682 31.8946 32.2103 32.0525 32.3682 32.2104C32.3682 32.3683 32.3682 32.5262 32.5261 32.6841C32.5261 32.842 32.5261 32.9999 32.8418 33.1578C32.9997 33.3157 33.1576 33.1578 33.1576 33.3157C33.3155 33.4736 33.1576 33.4736 33.1576 33.6315C33.1576 33.7894 33.3155 33.7894 33.3155 33.9473C33.4734 33.9473 33.4734 34.1052 33.6313 34.1052L33.9471 34.4209C34.105 34.5788 34.105 34.5788 34.2629 34.5788L34.5787 34.8946C34.7366 34.8946 34.7366 34.8946 34.8945 35.0525C35.0524 35.0525 35.0524 35.2104 35.0524 35.2104V35.6841C35.0524 35.842 35.2103 35.842 35.2103 35.842V36.9473C35.3682 37.1052 35.5261 37.1052 35.5261 37.2631C35.5261 37.2631 35.3682 37.4209 35.5261 37.4209C35.5261 37.5788 35.684 37.4209 35.684 37.5788V38.6841C35.684 38.6841 35.684 38.842 35.5261 38.842L35.3682 38.6841C35.2103 38.6841 35.2103 38.842 35.2103 38.842H34.8945C34.7366 38.842 34.8945 39.1578 34.7366 39.1578H34.4208C34.2629 39.3157 34.4208 39.3157 34.4208 39.4736V39.7894H34.105C33.9471 39.7894 33.7892 39.9473 33.7892 39.9473V40.1052H33.6313C33.4734 40.1052 33.4734 40.2631 33.3155 40.2631C33.4734 40.2631 33.4734 40.4209 33.4734 40.4209C33.6313 40.4209 33.6313 40.5788 33.7892 40.5788C33.7892 40.5788 33.9471 40.5788 33.9471 40.7367V40.8946C33.9471 41.0525 33.7892 41.0525 33.7892 41.2104V41.842C33.9471 41.9999 33.9471 41.842 34.105 41.842C34.2629 41.842 34.2629 41.6841 34.4208 41.6841C34.4208 41.5262 34.4208 41.5262 34.5787 41.5262H34.8945C34.8945 41.5262 35.0524 41.5262 35.0524 41.3683C35.0524 41.3683 35.0524 41.2104 35.2103 41.2104C35.3682 41.0525 35.3682 41.0525 35.5261 41.0525C35.684 40.8946 35.684 40.8946 35.684 40.7367C35.684 40.5788 35.684 40.5788 35.8418 40.4209C35.9997 40.2631 36.1576 40.4209 36.3155 40.2631C36.4734 40.2631 36.6313 40.2631 36.9471 40.1052L37.2629 39.7894L37.5787 39.4736C37.7366 39.3157 37.8945 39.1578 37.8945 38.9999V38.842C37.8945 38.6841 38.0524 38.5262 38.0524 38.3683V38.0525C38.0524 37.8946 37.8945 37.8946 37.8945 37.7367C37.8945 37.5788 37.8945 37.4209 37.7366 37.1052C37.7366 36.9473 37.5787 36.9473 37.4208 36.7894C37.2629 36.6315 37.4208 36.4736 37.2629 36.1578C37.2629 35.9999 37.105 35.9999 37.105 35.842C36.9471 35.6841 36.9471 35.6841 36.7892 35.6841C36.6313 35.5262 36.7892 35.3683 36.6313 35.2104C36.4734 35.0525 36.4734 35.2104 36.3155 35.0525C36.1576 34.8946 35.9997 34.8946 35.8418 34.7367C34.8945 33.9473 34.8945 33.7894 34.8945 33.7894ZM41.5261 45.6315H41.9997C41.9997 45.6315 42.1576 45.4736 41.9997 45.3157C41.9997 45.1578 42.1576 45.1578 42.1576 45.1578H42.3155C42.4734 45.1578 42.4734 44.842 42.4734 44.842C42.4734 44.842 42.3155 44.842 42.3155 44.9999C42.1576 44.9999 41.9997 44.842 41.8418 44.9999C41.684 45.1578 41.8418 45.1578 41.684 45.3157C41.684 45.3157 41.5261 45.4736 41.3682 45.4736H41.2103V45.6315C41.5261 45.3157 41.3682 45.4736 41.5261 45.6315ZM44.0524 41.6841C44.2103 41.6841 44.2103 41.6841 44.3682 41.5262C44.5261 41.5262 44.684 41.5262 44.684 41.3683C44.684 41.2104 44.684 41.2104 44.8418 41.0525C44.8418 41.0525 44.9997 41.0525 45.1576 40.8946C45.3155 40.8946 45.3155 40.7367 45.4734 40.7367V40.1052C45.6313 39.9473 45.7892 40.1052 45.7892 39.9473C45.7892 39.9473 45.7892 39.7894 45.9471 39.6315C45.9471 39.4736 46.105 39.4736 46.105 39.3157C46.105 39.1578 46.105 38.9999 45.9471 38.9999C45.9471 38.842 45.7892 38.842 45.6313 38.842C45.4734 38.842 45.6313 39.1578 45.6313 39.3157C45.4734 39.4736 45.4734 39.4736 45.3155 39.4736C45.3155 39.4736 45.3155 39.6315 45.1576 39.6315C45.1576 39.7894 44.9997 39.7894 44.8418 39.9473C44.684 40.1052 44.5261 40.1052 44.5261 40.2631C44.3682 40.4209 44.3682 40.5788 44.2103 40.7367C44.0524 40.8946 43.8945 40.8946 43.8945 41.0525C43.8945 41.5262 43.8945 41.6841 44.0524 41.6841ZM46.105 37.8946L45.9471 38.0525C45.9471 38.2104 45.9471 38.2104 46.105 38.2104H46.2629C46.4208 38.2104 46.4208 38.2104 46.5787 38.0525C46.5787 37.8946 46.5787 37.8946 46.4208 37.7367C46.4208 37.8946 46.2629 37.8946 46.105 37.8946ZM47.5261 37.5788V37.2631C47.5261 37.1052 47.3682 37.1052 47.2103 37.1052C47.0524 36.9473 46.8945 36.9473 46.7366 36.9473H46.4208C46.4208 36.9473 46.4208 37.1052 46.5787 37.1052L46.7366 37.2631L46.8945 37.4209C46.8945 37.5788 47.0524 37.5788 47.0524 37.7367C47.0524 37.8946 46.7366 37.8946 46.8945 38.0525C46.8945 38.2104 47.0524 38.0525 47.2103 38.0525C47.3682 38.0525 47.3682 38.0525 47.5261 37.8946V37.5788Z" fill="#36A83A"/>
<path d="M45.632 35.2111C45.7899 35.369 45.7899 35.5269 45.9478 35.6848C46.1057 35.6848 46.2636 35.6848 46.4215 35.8427C46.5794 35.8427 46.7373 35.8427 46.7373 36.0006V36.4743C46.7373 36.6322 46.7373 36.6322 46.8952 36.6322C47.0531 36.7901 47.211 36.6322 47.3689 36.6322H48.0005C48.1583 36.6322 48.1584 36.7901 48.3162 36.7901C48.3162 36.7901 48.3162 36.948 48.4741 36.948C48.632 36.948 48.632 37.1058 48.7899 37.1058C48.9478 37.1058 48.7899 36.7901 48.7899 36.7901C48.9478 36.7901 48.9478 36.7901 49.1057 36.948C49.2636 37.1058 49.2636 37.1058 49.2636 37.2637C49.2636 37.2637 49.1057 37.2637 49.1057 37.4216V37.5795C49.1057 37.7374 49.4215 37.5795 49.4215 37.7374C49.4215 37.8953 49.2636 37.8953 49.2636 37.8953C49.2636 38.0532 49.1057 38.0532 49.1057 38.2111C49.1057 38.369 49.2636 38.2111 49.4215 38.369H49.7373C49.8952 38.369 50.0531 38.5269 50.0531 38.369V37.7374C50.0531 37.5795 50.211 37.5795 50.211 37.5795C50.211 37.4216 50.0531 37.4216 49.8952 37.2637C49.8952 37.1058 49.7373 37.1058 49.7373 36.948V36.6322C49.7373 36.4743 49.5794 36.6322 49.4215 36.4743C49.2636 36.4743 49.2636 36.3164 49.2636 36.3164C49.1057 36.3164 49.1057 36.4743 48.9478 36.4743C48.7899 36.4743 48.9478 36.3164 48.7899 36.3164C48.632 36.1585 48.4741 36.3164 48.3162 36.3164H47.8426V36.0006C47.8426 35.8427 47.6847 36.0006 47.5268 35.8427C47.3689 35.6848 47.5268 35.5269 47.5268 35.369C47.5268 35.2111 47.3689 35.2111 47.3689 35.0532L47.5268 34.8953C47.6847 34.7374 47.6847 34.5795 47.6847 34.4216L48.0005 34.1058C48.1583 33.948 48.1584 33.7901 48.1584 33.6322C48.1584 33.4743 48.0005 33.4743 48.0005 33.3164L47.8426 33.1585C47.8426 33.0006 47.6847 33.0006 47.6847 32.8427C47.5268 32.6848 47.6847 32.369 47.5268 32.369C47.3689 32.2111 47.211 32.369 47.0531 32.369H46.4215C46.2636 32.5269 46.2636 32.6848 46.1057 32.8427V34.1058C46.1057 34.2637 46.4215 34.4216 46.2636 34.4216C46.1057 34.4216 46.1057 34.2637 45.9478 34.2637C45.7899 34.2637 45.632 34.2637 45.632 34.4216C45.632 34.5795 45.632 34.7374 45.7899 34.7374C45.4741 34.8953 45.4741 35.0532 45.632 35.2111ZM48.9478 39.0006V38.8427C48.9478 38.6848 48.7899 38.6848 48.632 38.5269C48.4741 38.5269 48.3162 38.6848 48.1584 38.5269C48.0005 38.369 48.1584 38.369 48.1584 38.2111C48.1584 38.0532 48.0005 37.7374 47.8426 37.8953C47.6847 38.0532 47.8426 38.0532 47.8426 38.2111C47.8426 38.369 48.0005 38.369 48.0005 38.5269C48.0005 38.8427 47.8426 38.8427 47.8426 39.1585C47.8426 39.3164 47.6847 39.4743 47.8426 39.4743H48.1584C48.3162 39.4743 48.4741 39.3164 48.632 39.3164C48.7899 39.3164 48.9478 39.3164 48.9478 39.0006Z" fill="#36A83A"/>
<path d="M51.0003 39.1571C51.1582 38.9992 51.0003 38.8413 51.0003 38.5255C51.0003 38.3676 51.0003 38.2097 50.8424 38.0518C50.8424 37.8939 50.8424 37.8939 50.6845 37.736C50.5266 37.5781 50.5266 37.5781 50.3687 37.5781C50.2108 37.5781 50.2108 37.736 50.2108 37.736C50.0529 37.8939 50.0529 38.0518 50.0529 38.3676C50.0529 38.5255 50.0529 38.6834 49.895 38.8413C49.895 38.9992 49.895 38.9992 49.7372 39.1571C49.5793 39.315 49.5793 39.1571 49.4214 39.315H48.9477C48.7898 39.315 48.7898 39.315 48.6319 39.4729C48.474 39.6308 48.6319 39.7887 48.6319 39.7887C48.6319 39.9465 48.474 39.9465 48.3161 40.1044C48.3161 40.2623 48.1582 40.2623 48.1582 40.4202V40.5781C48.1582 40.736 48.3161 40.736 48.474 40.8939C48.9477 41.0518 48.9477 41.0518 48.9477 41.2097C49.1056 41.2097 49.2635 41.2097 49.4214 41.0518V40.736C49.4214 40.5781 49.5793 40.5781 49.5793 40.4202C49.7371 40.2623 49.7372 40.2623 49.7372 40.1044C49.895 39.9465 49.895 39.7887 49.895 39.6308C49.895 39.4729 49.895 39.315 50.0529 39.315C50.2108 39.315 50.2108 39.4729 50.2108 39.6308C50.3687 39.7887 50.2108 40.1044 50.5266 40.1044C50.6845 40.1044 50.6845 40.1044 50.8424 39.9465C51.0003 39.7887 50.8424 39.7887 50.8424 39.6308C50.8424 39.4729 50.6845 39.4729 50.6845 39.315C50.8424 39.1571 51.0003 39.1571 51.0003 39.1571Z" fill="#36A83A"/>
<path d="M50.0526 40.1055C49.8947 40.1055 49.8947 40.2634 49.8947 40.2634V40.4213C49.8947 40.5792 50.0526 40.5792 50.2105 40.5792C50.3684 40.5792 50.3684 40.5792 50.5263 40.4213C50.6842 40.4213 50.6842 40.2634 50.8421 40.2634C50.8421 40.1055 50.8421 40.1055 50.6842 39.9476C50.3684 39.9476 50.2105 40.1055 50.0526 40.1055ZM48.4737 43.4213C48.3158 43.4213 48.3158 43.4213 48.1579 43.5792C48.1579 43.737 48.3158 43.737 48.4737 43.737C48.6316 43.737 48.7895 43.5792 48.7895 43.5792C48.7895 43.2634 48.6316 43.4213 48.4737 43.4213ZM47.5263 43.8949C47.3684 44.0528 47.5263 44.0528 47.5263 44.0528H47.8421L48 43.8949C48 43.737 47.6842 43.737 47.5263 43.8949ZM52.5789 45.4739C52.5789 45.6318 52.579 45.7897 52.7368 45.7897C52.8947 45.7897 52.8947 45.6318 52.8947 45.6318V45.4739C52.7368 45.1581 52.5789 45.316 52.5789 45.4739ZM52.2632 43.5792C52.4211 43.5792 52.2632 43.2634 52.4211 43.1055V42.1581C52.4211 42.0002 52.2632 42.0002 52.2632 41.8423C52.2632 41.6844 52.1053 41.6844 51.9474 41.6844C51.9474 41.5265 52.1053 41.5265 51.9474 41.3686C51.9474 41.2107 51.7895 41.0528 51.7895 41.0528L51.4737 40.737L51.1579 40.4213H50.8421C50.6842 40.5792 50.8421 40.5792 50.8421 40.737C50.8421 40.8949 50.6842 40.8949 50.6842 41.0528L50.5263 41.3686L50.3684 41.5265C50.2105 41.5265 50.2105 41.6844 50.0526 41.5265C49.8947 41.5265 50.0526 41.2107 49.8947 41.2107H49.5789C49.4211 41.2107 49.2632 41.2107 49.1053 41.3686C48.9474 41.5265 49.1053 41.6844 48.9474 41.6844C48.7895 41.8423 48.6316 41.6844 48.6316 41.8423C48.4737 41.8423 48.3158 42.0002 48.3158 42.1581C48.1579 42.316 48.3158 42.316 48.3158 42.4739V42.7897C48.3158 42.9476 48.4737 42.9476 48.6316 42.9476C48.7895 42.9476 48.7895 42.7897 48.9474 42.7897C49.1053 42.6318 48.9474 42.316 49.1053 42.316H49.4211C49.5789 42.316 49.5789 42.4739 49.7368 42.4739C49.8947 42.4739 49.8947 42.316 50.0526 42.316H50.8421C51 42.316 51.1579 42.316 51.1579 42.4739C51.1579 42.6318 51 42.6318 50.8421 42.6318C50.6842 42.6318 50.6842 42.6318 50.6842 42.7897C50.5263 42.9476 50.6842 43.1055 50.6842 43.2634C50.6842 43.4213 50.6842 43.5792 50.8421 43.737C51 43.8949 51.1579 43.8949 51.3158 43.8949C51.4737 44.0528 51.6316 44.0528 51.7895 44.0528C51.9474 44.0528 51.9474 44.2107 52.1053 44.0528C52.2632 44.0528 52.2632 43.737 52.1053 43.5792C52.1053 43.4213 51.9474 43.4213 51.9474 43.2634C51.9474 43.1055 51.7895 42.9476 51.9474 42.7897C51.9474 42.6318 52.1053 42.6318 52.2632 42.6318C52.4211 42.6318 52.4211 42.7897 52.4211 42.7897V43.1055C52.1053 43.5791 52.1053 43.5792 52.2632 43.5792ZM22.4211 36.9476C22.4211 36.7897 22.4211 36.7897 22.2632 36.7897C22.1053 36.7897 22.1053 36.7897 21.9474 36.9476C21.7895 37.1055 21.7895 37.1055 21.7895 37.2634V38.5265C21.7895 38.6844 21.9474 38.8423 21.9474 38.8423C21.9474 39.0002 22.1053 39.0002 22.2632 38.8423C22.4211 38.8423 22.2632 38.6844 22.2632 38.5265V37.4213C22.2632 37.2634 22.4211 37.1055 22.4211 36.9476ZM21.7895 39.316L21.9474 39.4739H22.1053C22.1053 39.4739 21.9474 39.4739 21.9474 39.316H21.7895ZM23.5263 42.7897C23.5263 42.7897 23.3684 42.6318 23.2105 42.6318V42.9476C23.2105 43.1055 23.3684 43.1055 23.5263 43.1055V42.7897ZM5.68421 16.737C5.52632 16.737 5.36842 16.737 5.21053 16.8949C5.05263 16.8949 5.21053 17.0528 5.05263 17.0528C4.89474 17.2107 4.73684 17.0528 4.42105 17.0528C4.10526 17.0528 3.94737 16.737 3.78947 16.8949C3.63158 17.0528 3.63158 17.2107 3.63158 17.3686V18.1581C3.63158 18.316 3.78947 18.4739 3.94737 18.6318L4.26316 18.9476H4.57895C4.73684 18.9476 4.73684 18.9476 4.89474 19.1055C5.05263 19.2634 4.73684 19.4213 4.57895 19.4213H4.42105C4.26316 19.5792 4.42105 19.5792 4.42105 19.737V20.0528C4.42105 20.2107 4.57895 20.2107 4.42105 20.3686C4.57895 20.5265 4.42105 20.5265 4.26316 20.5265C4.26316 20.5265 4.26316 20.6844 4.10526 20.6844C4.10526 20.8423 4.26316 21.0002 4.10526 21.0002C3.94737 21.1581 3.94737 21.0002 3.78947 21.0002C3.63158 21.0002 3.63158 21.1581 3.63158 21.316V21.6318C3.63158 21.7897 3.47368 21.7897 3.47368 21.9476C3.31579 22.1055 3.31579 22.1055 3.15789 22.1055C3 22.2634 3 22.2634 3 22.4213V22.5792C3 22.737 3 22.737 2.84211 22.8949H2.21053C2.05263 22.8949 2.05263 23.2107 1.89474 23.0528C1.89474 23.0528 1.73684 23.0528 1.73684 22.8949V22.737H1.57895C1.42105 22.737 1.42105 22.8949 1.42105 22.8949C1.42105 23.0528 1.57895 23.2107 1.42105 23.2107C1.42105 23.3686 1.26316 23.2107 1.10526 23.3686C0.947368 23.5265 0.947369 23.5265 0.947369 23.6844C0.947369 23.8423 0.947368 24.0002 1.10526 24.1581C1.26316 24.1581 1.42105 24.0002 1.57895 24.0002C1.73684 24.0002 1.73684 24.0002 1.73684 24.1581C1.89474 24.316 1.57895 24.4739 1.57895 24.4739C1.57895 24.6318 1.73684 24.6318 1.89474 24.6318C1.89474 25.2634 2.05263 25.2634 2.05263 25.4213C2.21053 25.5792 2.21053 25.737 2.21053 25.8949C2.21053 26.0528 2.36842 26.0528 2.36842 26.2107C2.36842 26.3686 2.52632 26.3686 2.52632 26.5265C2.52632 26.6844 2.36842 26.6844 2.21053 26.6844C2.05263 26.6844 2.05263 26.5265 1.89474 26.5265C1.73684 26.5265 1.73684 26.6844 1.57895 26.6844H0.631579C0.473684 26.6844 0.473684 26.8423 0.473684 27.0002C0.315789 27.1581 0.157895 27.1581 0 27.316C0.157895 27.316 0.157895 27.4739 0.315789 27.4739L0.473684 27.6318C0.631579 27.7897 0.631579 27.7897 0.789474 27.7897L0.947369 27.9476H1.57895C1.73684 27.9476 2.05263 27.7897 2.05263 27.9476C2.05263 28.1055 1.89474 28.1055 1.89474 28.1055C1.73684 28.4213 1.73684 28.4213 1.57895 28.4213H0.947369C0.789474 28.5792 0.947368 28.5792 1.10526 28.737L1.26316 28.8949L1.42105 29.0528C1.42105 29.0528 1.42105 29.2107 1.57895 29.2107C1.73684 29.3686 1.89474 29.3686 2.05263 29.5265L2.36842 29.8423C2.36842 29.8423 2.36842 30.0002 2.52632 30.0002H2.84211C3 30.0002 3.15789 30.0002 3.31579 29.8423C3.47368 29.8423 3.63158 29.8423 3.63158 29.6844V29.2107C3.63158 29.0528 3.63158 29.0528 3.47368 29.0528L3.63158 28.737C3.63158 28.737 3.63158 28.5792 3.78947 28.5792C3.94737 28.5792 3.94737 28.737 3.94737 28.8949C3.94737 29.0528 4.10526 29.0528 4.10526 29.0528V29.5265C4.10526 29.6844 4.26316 29.6844 4.42105 29.8423C4.42105 30.0002 4.57895 30.1581 4.42105 30.316C4.42105 30.4739 4.26316 30.4739 4.26316 30.6318V31.1055C4.26316 31.2634 4.26316 31.4213 4.42105 31.5792C4.42105 31.737 4.57895 31.8949 4.57895 32.0528C4.57895 32.2107 4.57895 32.3686 4.73684 32.5265C4.73684 32.6844 4.89474 32.6844 4.89474 32.8423C5.05263 33.1581 4.89474 33.316 4.89474 33.6318V34.1055C5.05263 34.2634 5.05263 34.4213 5.21053 34.5792C5.36842 34.737 5.36842 34.8949 5.52632 35.0528C5.68421 35.2107 5.68421 35.3686 5.84211 35.5265C6 35.6844 6 35.8423 6.1579 35.8423C6.31579 36.0002 6.47368 36.0002 6.47368 36.1581C6.63158 36.316 6.47368 36.4739 6.63158 36.7897V37.1055C6.63158 37.2634 6.78947 37.2634 6.78947 37.4213V37.737C6.78947 37.8949 6.78947 38.0528 6.94737 38.2107C7.10526 38.3686 7.10526 38.2107 7.26316 38.3686C7.42105 38.5265 7.42105 38.6844 7.57895 38.8423C7.89474 39.0002 7.89474 39.0002 7.89474 39.316C8.05263 39.4739 8.05263 39.6318 8.21053 39.7897C8.36842 39.9476 8.36842 40.1055 8.36842 40.4213C8.52632 40.737 8.36842 40.8949 8.52632 41.2107C8.52632 41.3686 8.68421 41.3686 8.84211 41.3686C9 41.5265 8.8421 41.6844 9 41.6844C9.1579 41.8423 9.31579 41.8423 9.47368 41.8423H9.78947C10.1053 41.8423 9.94737 41.5265 10.1053 41.2107C10.1053 41.0528 10.1053 41.0528 10.2632 40.8949C10.4211 40.737 10.4211 40.737 10.5789 40.737C10.5789 40.737 10.7368 40.737 10.7368 40.5792V40.2634C10.7368 40.2634 10.8947 40.2634 10.8947 40.1055C10.8947 39.9476 10.7368 39.9476 10.8947 39.9476C10.8947 39.7897 11.0526 39.9476 11.2105 39.9476C11.3684 39.9476 11.3684 39.9476 11.5263 39.7897V39.4739C11.5263 39.316 11.5263 39.316 11.3684 39.1581V38.6844C11.3684 38.5265 11.3684 38.3686 11.5263 38.2107C11.5263 38.0528 11.6842 38.0528 11.6842 37.8949C11.6842 37.737 11.8421 37.5792 11.8421 37.4213C11.8421 37.2634 11.6842 37.2634 11.6842 37.1055V36.316C11.6842 36.1581 11.6842 36.1581 11.5263 36.0002C11.5263 35.6844 11.3684 35.5265 11.5263 35.3686C11.5263 35.2107 11.6842 35.2107 11.6842 35.0528L12 34.8949C12.1579 34.8949 12.3158 35.0528 12.3158 34.8949C12.4737 34.8949 12.3158 34.737 12.3158 34.5792C12.3158 34.4213 12.3158 34.4213 12.4737 34.4213C12.6316 34.4213 12.6316 34.5792 12.7895 34.5792C12.9474 34.5792 12.9474 34.5792 12.9474 34.4213C13.1053 34.2634 13.2632 34.2634 13.2632 34.1055C13.4211 33.9476 13.2632 33.7897 13.4211 33.7897C13.4211 33.6318 13.5789 33.6318 13.5789 33.6318C13.5789 33.1581 13.5789 33.1581 13.7368 33.0002H13.8947V32.6844C13.8947 32.5265 14.0526 32.5265 14.0526 32.5265H14.3684V32.3686C14.3684 32.2107 14.5263 32.2107 14.5263 32.2107L14.6842 32.0528C14.6842 31.8949 14.6842 31.8949 14.8421 31.737C14.8421 31.737 15 31.5792 15.1579 31.5792C15.3158 31.5792 15.3158 31.4213 15.3158 31.4213C15.4737 31.2634 15.4737 31.2634 15.6316 31.2634L15.9474 30.9476C16.1053 30.7897 16.2632 30.7897 16.4211 30.6318C16.5789 30.4739 16.5789 30.4739 16.5789 30.316V29.3686L16.7368 29.2107C16.8947 29.2107 16.8947 29.2107 17.0526 29.0528C17.2105 29.0528 17.2105 28.8949 17.3684 28.8949C17.3684 28.8949 17.3684 29.0528 17.5263 29.0528C17.6842 29.0528 17.6842 28.8949 17.6842 28.8949H17.8421C17.8421 28.8949 18 28.8949 18 29.0528L18.1579 28.8949H18.3158V28.1055C18.3158 27.9476 18.1579 27.7897 18 27.6318L17.6842 27.316L17.5263 27.1581C17.5263 27.0002 17.6842 27.0002 17.6842 26.8423C17.6842 26.6844 17.5263 26.6844 17.3684 26.6844C17.2105 26.6844 17.2105 26.6844 17.0526 26.5265C17.0526 26.3686 16.8947 26.3686 16.8947 26.2107C16.8947 26.0528 17.0526 26.0528 17.0526 25.8949C17.2105 25.737 17.3684 25.8949 17.3684 25.737C17.3684 25.737 17.5263 25.737 17.5263 25.5792C17.5263 25.4213 17.3684 25.4213 17.2105 25.4213C17.0526 25.4213 17.0526 25.2634 16.8947 25.2634C16.7368 25.2634 16.7368 25.2634 16.5789 25.1055C16.5789 24.9476 16.4211 24.9476 16.4211 24.7897C16.4211 24.6318 16.4211 24.4739 16.5789 24.4739H16.8947C17.0526 24.4739 17.2105 24.6318 17.2105 24.6318C17.3684 24.6318 17.3684 24.7897 17.3684 24.7897L17.5263 24.6318C17.6842 24.6318 17.6842 24.6318 17.8421 24.7897C18 24.9476 17.8421 24.9476 17.8421 25.1055V25.4213C18 25.5792 18.1579 25.4213 18.3158 25.4213H19.7368C19.8947 25.4213 20.2105 25.2634 20.2105 25.4213V25.5792C20.2105 25.5792 20.0526 25.5792 20.0526 25.737C19.8947 25.8949 20.0526 26.0528 20.0526 26.0528C20.0526 26.0528 19.8947 26.0528 19.7368 26.2107C19.5789 26.2107 19.5789 26.3686 19.4211 26.3686V26.5265C19.4211 26.6844 19.4211 26.6844 19.5789 26.8423C19.5789 27.0002 19.5789 27.1581 19.7368 27.1581H19.8947C20.0526 27.1581 19.8947 26.6844 20.0526 26.6844H20.3684C20.5263 26.6844 20.5263 26.8423 20.5263 27.0002C20.5263 27.1581 20.3684 27.316 20.5263 27.4739C20.6842 27.6318 20.8421 27.4739 20.8421 27.6318V27.9476C20.8421 28.1055 20.8421 28.1055 21 28.2634V28.1055H21.3158L21.4737 27.9476C21.4737 27.7897 21.4737 27.7897 21.3158 27.6318C21.3158 27.4739 21.1579 27.4739 21.1579 27.4739C21.1579 27.316 21.4737 27.316 21.4737 27.1581V26.8423C21.4737 26.6844 21.3158 26.3686 21.4737 26.2107H21.7895C21.9474 26.2107 21.9474 26.5265 22.1053 26.5265C22.2632 26.5265 22.1053 26.3686 22.2632 26.2107V25.8949C22.2632 25.737 22.4211 25.5792 22.2632 25.4213C22.2632 25.2634 22.2632 25.2634 22.1053 25.2634V25.1055C22.1053 24.9476 22.2632 24.9476 22.2632 24.9476C22.2632 24.7897 22.2632 24.7897 22.4211 24.6318V24.1581C22.4211 24.0002 22.4211 23.8423 22.5789 23.8423C22.7368 23.6844 22.8947 23.6844 23.0526 23.6844L23.3684 23.3686C23.5263 23.2107 23.8421 23.2107 23.8421 22.8949C23.8421 22.737 23.8421 22.5792 23.6842 22.4213L23.5263 22.2634L23.3684 22.1055C24 22.2634 23.8421 22.1055 23.6842 22.1055H23.2105C22.8947 22.1055 22.7368 22.4213 22.4211 22.2634C22.2632 22.2634 22.2632 22.1055 22.1053 22.1055C21.9474 22.1055 21.9474 22.2634 21.7895 22.2634C21.6316 22.2634 21.4737 22.4213 21.3158 22.4213H19.7368C19.5789 22.4213 19.4211 22.4213 19.2632 22.5792C19.1053 22.737 19.1053 22.737 19.1053 22.8949C18.9474 23.0528 18.7895 22.8949 18.6316 22.8949H18.1579C18 23.0528 17.8421 23.0528 17.6842 23.0528C17.5263 23.0528 17.3684 23.2107 17.2105 23.2107C17.0526 23.2107 17.0526 23.0528 17.0526 22.8949C16.8947 22.737 16.7368 22.8949 16.5789 22.8949C16.4211 22.8949 16.2632 22.8949 16.1053 23.0528H16.2632V23.5265C16.2632 23.6844 16.2632 23.6844 16.4211 23.8423C16.4211 24.0002 16.5789 24.0002 16.5789 24.1581C16.5789 24.316 16.7368 24.4739 16.5789 24.4739C16.5789 24.6318 16.2632 24.6318 16.1053 24.6318C15.9474 24.6318 15.9474 24.4739 15.7895 24.4739C15.6316 24.4739 15.6316 24.316 15.3158 24.316H14.8421C14.6842 24.316 14.6842 24.4739 14.5263 24.4739C14.3684 24.4739 14.2105 24.4739 14.0526 24.316C13.8947 24.316 13.8947 24.1581 13.7368 24.0002C13.5789 23.8423 13.5789 23.6844 13.4211 23.6844H13.1053C12.9474 23.6844 12.9474 23.8423 12.7895 23.8423H12.3158C12.1579 23.8423 12 23.8423 11.8421 23.6844C11.6842 23.5265 11.6842 23.3686 11.5263 23.2107C11.3684 23.0528 11.3684 23.0528 11.2105 23.0528H10.5789C10.4211 22.8949 10.5789 22.8949 10.5789 22.737C10.4211 22.5792 10.2632 22.737 10.1053 22.5792C9.94737 22.5792 9.94737 22.4213 9.78947 22.4213H9.31579C9.31579 22.4213 9.1579 22.4213 9.1579 22.2634C9.47369 22.4213 9.47368 22.2634 9.31579 22.1055C9.1579 21.9476 9 21.9476 8.84211 21.7897C8.68421 21.7897 8.68421 21.7897 8.52632 21.6318C8.36842 21.6318 8.36842 21.6318 8.21053 21.4739C8.05263 21.316 8.05263 21.316 8.05263 21.1581L7.73684 20.8423H7.42105C7.26316 20.8423 7.26316 20.6844 7.26316 20.6844C7.26316 20.5265 7.42105 20.3686 7.57895 20.2107L7.89474 19.8949V19.737H8.05263C7.89474 19.5792 7.89474 19.2634 7.89474 19.1055C7.89474 18.9476 8.21053 18.9476 8.21053 18.7897C8.36842 18.6318 8.36842 18.4739 8.21053 18.316C8.21053 18.1581 8.05263 18.1581 7.89474 18.1581C7.73684 18.0002 7.73684 17.8423 7.57895 17.6844C7.57895 17.3686 7.57895 17.3686 7.42105 17.2107C7.26316 17.0528 7.10526 17.0528 6.94737 16.8949C6.78947 16.737 6.63158 16.5792 6.47368 16.5792C6.31579 16.5792 6.1579 16.5792 6 16.4213V16.5792C5.84211 16.5792 5.68421 16.5792 5.68421 16.737ZM25.8947 32.8423L26.2105 33.1581C26.3684 33.316 26.5263 33.316 26.5263 33.4739C26.6842 33.6318 26.6842 33.7897 26.8421 33.9476L27.3158 34.4213C27.3158 34.5792 27.4737 34.5792 27.4737 34.737C27.4737 34.8949 27.3158 35.0528 27.3158 35.2107C27.3158 35.3686 27.3158 35.3686 27.1579 35.5265C27.1579 35.6844 27 35.6844 27 35.8423C27 36.0002 27.1579 36.0002 27.3158 36.1581C27.4737 36.1581 27.4737 36.316 27.6316 36.316C27.7895 36.4739 27.7895 36.4739 27.9474 36.7897V37.2634C27.9474 37.4213 27.9474 37.5792 28.1053 37.5792C28.1053 37.737 28.2632 37.737 28.2632 37.8949C28.2632 38.0528 28.4211 38.2107 28.4211 38.3686V38.8423C28.4211 39.0002 28.2632 39.0002 28.2632 39.1581C28.2632 39.316 28.1053 39.316 28.1053 39.316H27.7895V39.9476L27.6316 40.1055C27.6316 40.2634 27.7895 40.2634 27.9474 40.2634C27.9474 40.4213 27.7895 40.4213 27.7895 40.5792C27.7895 40.737 27.6316 40.737 27.6316 40.8949V41.6844C27.6316 41.8423 27.4737 41.8423 27.4737 42.0002H27.9474C27.9474 42.0002 27.9474 42.1581 28.1053 42.1581C28.2632 42.316 28.2632 42.316 28.4211 42.316L28.7368 42.6318C28.2632 42.6318 28.4211 42.6318 28.4211 42.7897C28.4211 42.9476 28.5789 42.9476 28.5789 42.9476L28.7368 43.1055L28.8947 42.9476C29.0526 42.7897 28.8947 42.6318 29.0526 42.6318C29.2105 42.6318 29.0526 42.7897 29.2105 42.9476C29.3684 43.1055 29.5263 43.4213 29.5263 43.4213C29.5263 43.4213 29.5263 43.5792 29.6842 43.5792C29.8421 43.5792 29.8421 43.2634 29.8421 43.2634C29.8421 43.2634 30 43.1055 30.1579 43.2634C30.3158 43.2634 30.7895 43.4213 30.7895 43.4213V43.1055C30.6316 42.9476 30.6316 42.7897 30.3158 42.7897H29.8421C29.6842 42.7897 29.6842 42.6318 29.5263 42.6318C29.3684 42.4739 29.3684 42.4739 29.3684 42.316C29.2105 42.1581 29.2105 42.0002 29.2105 41.8423C29.0526 41.6844 29.0526 41.5265 28.8947 41.5265L28.5789 41.2107V40.737C28.5789 40.737 28.5789 40.5792 28.4211 40.5792C28.2632 40.4213 28.1053 40.5792 27.9474 40.4213V40.1055C27.9474 39.9476 27.7895 39.9476 27.7895 39.7897V39.1581C27.7895 39.0002 27.9474 38.8423 27.9474 38.6844L28.2632 38.3686V36.6318L28.4211 36.4739C28.4211 36.4739 28.5789 36.4739 28.5789 36.316H28.8947C29.0526 36.4739 28.8947 36.4739 28.8947 36.6318C28.8947 36.7897 28.7368 36.7897 28.8947 36.9476C28.8947 37.1055 29.0526 37.1055 29.2105 37.1055H29.5263C29.6842 37.1055 29.6842 37.1055 29.8421 37.2634C30 37.2634 30 37.4213 30 37.5792C30.1579 37.5792 30.1579 37.5792 30.3158 37.737H30.4737V37.4213C30.4737 37.2634 30.3158 37.2634 30.1579 37.2634C30.1579 37.1055 30.1579 37.1055 30 36.9476C30 36.7897 29.8421 36.6318 30 36.6318C30 36.6318 30.1579 36.6318 30.1579 36.4739H30.3158C30.4737 36.316 30.3158 36.316 30.3158 36.1581C30.3158 36.0002 30.4737 36.0002 30.6316 35.8423C30.7895 35.8423 30.7895 35.6844 30.9474 35.6844C31.1053 35.6844 31.1053 35.8423 31.2632 35.8423H32.5263C32.5263 35.6844 32.6842 35.6844 32.6842 35.5265V35.2107C32.6842 35.0528 32.5263 35.0528 32.5263 34.8949V34.4213C32.5263 34.2634 32.3684 34.2634 32.2105 34.2634C32.0526 34.2634 32.0526 34.1055 31.8947 34.1055C31.7368 33.9476 31.7368 33.7897 31.5789 33.6318V33.1581C31.5789 33.0002 31.4211 33.0002 31.2632 32.8423C31.1053 32.6844 30.9474 32.6844 30.9474 32.5265C30.9474 32.3686 30.9474 32.2107 30.7895 32.2107H29.6842V32.5265C29.5263 32.6844 29.5263 32.3686 29.3684 32.3686H29.0526C28.8947 32.3686 28.8947 32.2107 28.7368 32.2107C28.5789 32.2107 28.5789 32.3686 28.4211 32.3686C28.2632 32.5265 28.2632 32.6844 28.1053 32.6844C27.9474 32.6844 27.9474 32.6844 27.9474 32.5265C27.9474 32.3686 27.9474 32.3686 28.1053 32.2107V31.737C28.1053 31.5792 27.9474 31.5792 27.7895 31.5792C28.4211 31.737 28.4211 31.5792 28.2632 31.4213V30.7897C28.2632 30.6318 28.1053 30.6318 27.9474 30.6318V30.316C27.9474 30.1581 28.1053 30.0002 28.1053 29.6844C27.9474 29.8423 27.9474 29.8423 27.9474 30.0002C27.7895 30.1581 27.6316 30.1581 27.4737 30.316C27.3158 30.4739 27.3158 30.4739 27.1579 30.4739C27 30.6318 27 30.6318 26.6842 30.7897C26.5263 30.7897 26.5263 30.7897 26.3684 30.9476C26.2105 30.9476 26.0526 30.7897 25.8947 30.7897C25.7368 30.9476 25.7368 31.1055 25.7368 31.2634V31.8949C25.7368 31.8949 25.5789 31.8949 25.5789 32.0528V32.3686C25.7368 32.5265 25.8947 32.6844 25.8947 32.8423ZM58.5789 45.316C58.5789 45.1581 58.5789 45.1581 58.4211 45.0002H58.1053V45.1581C58.2632 45.4739 58.5789 45.4739 58.5789 45.316ZM4.89474 49.2634H5.21053C5.36842 49.1055 5.36842 49.1055 5.21053 48.9476L5.05263 48.7897C4.89474 48.7897 5.05263 48.9476 5.05263 49.1055C4.89474 49.1055 4.89474 49.1055 4.89474 49.2634Z" fill="#36A83A"/>
<path d="M17.0525 24.1577C17.2104 24.3156 17.3683 24.3156 17.842 24.3156H18.9472L18.6314 23.684L18.4735 22.8945L16.5788 23.0524C16.5788 23.0524 16.4209 23.5261 16.4209 23.684C16.7367 23.8419 16.8946 23.9998 17.0525 24.1577Z" fill="#36A83A"/>
</g>
</g>
</g>
<defs>
<clipPath id="clip0_26003_91252">
<rect width="60" height="60" fill="white"/>
</clipPath>
<clipPath id="clip1_26003_91252">
<rect width="60" height="60" fill="white"/>
</clipPath>
<clipPath id="clip2_26003_91252">
<rect width="60" height="60" fill="white"/>
</clipPath>
</defs>
</svg>
