<svg width="38" height="26" viewBox="0 0 38 26" fill="none" xmlns="http://www.w3.org/2000/svg">
<g clip-path="url(#clip0_26003_52656)">
<g clip-path="url(#clip1_26003_52656)">
<g clip-path="url(#clip2_26003_52656)">
<path d="M27.5525 21.9876C27.6841 21.9218 27.7499 21.856 27.8815 21.7902C27.9473 21.7244 28.0131 21.6586 28.0788 21.6586C28.2104 21.5928 28.2762 21.527 28.4078 21.4612C28.4736 21.3955 28.6052 21.3955 28.6709 21.3297C28.8683 21.0665 28.9999 20.7376 29.1315 20.4744C29.1973 20.277 29.3288 20.1455 29.592 20.1455C29.6578 20.1455 29.6578 20.0797 29.7236 20.0797C29.7894 19.9481 29.8552 19.8165 29.9867 19.6849C30.1183 19.5534 30.0525 19.2244 29.9209 19.0928C29.7894 19.2244 29.592 19.356 29.4604 19.0928H29.2631C29.1315 19.2902 28.9999 19.5534 28.9341 19.7507C28.8025 20.0797 28.6052 20.3428 28.2762 20.5402C27.9473 20.8034 27.6183 21.0665 27.3552 21.3297C27.2236 21.4612 27.1578 21.6586 27.1578 21.856C27.1578 21.9218 27.2236 22.0534 27.2894 22.1191C27.3552 21.9218 27.4867 21.9218 27.5525 21.9876ZM30.5131 16.856C30.3815 16.7902 30.3157 16.7244 30.2499 16.6586L30.0525 16.0665C29.9867 15.8034 29.7894 15.606 29.5262 15.6718C29.5262 15.7376 29.5262 15.8034 29.592 15.9349C29.7894 16.1981 29.9867 16.527 30.1183 16.7902C30.1841 16.856 30.1841 16.9876 30.1841 17.0534C30.1841 17.1849 30.1183 17.3823 30.1183 17.5139C30.1183 17.5797 30.0525 17.6455 29.9867 17.7112C29.7236 17.9086 29.7236 18.0402 29.9867 18.1718C30.5131 18.5007 30.3815 18.5007 30.2499 18.9612V19.027C30.2499 19.0928 30.3157 19.1586 30.3157 19.1586H30.3815C30.4473 18.3034 30.9736 17.7112 31.4999 17.1191C31.3683 17.1849 31.3025 17.2507 31.2367 17.2507C30.9078 17.2507 30.7762 17.1191 30.7104 16.7902C30.7104 16.7244 30.6446 16.6586 30.5788 16.527H30.5131V16.856ZM18.8683 18.8955C19.0657 19.356 19.2631 19.8165 19.5262 20.277C19.592 20.1455 19.592 20.0797 19.6578 20.0139C19.8552 20.1455 19.8552 20.0139 19.8552 19.8823V19.6191C20.0525 19.356 19.8552 19.0928 19.8552 18.7639C19.5262 18.8955 19.2631 19.2244 18.8683 18.8955ZM26.1709 8.36914C26.4341 8.82967 27.0262 9.29019 27.2894 9.29019C27.0262 8.96125 26.6315 8.6323 26.1709 8.36914ZM15.9078 16.1981V16.0665L15.4473 16.1323V16.2639L15.9078 16.1981Z" fill="#36A83A"/>
<path d="M13.8684 3.96094C14 4.15831 14.1316 4.2241 14.3947 4.28988C14.5263 4.28988 14.7237 4.35567 14.8553 4.48725C14.9868 4.61883 15.1184 4.61883 15.25 4.42146C15.3158 4.48725 15.3158 4.55304 15.3816 4.68462C15.3816 4.61883 15.4474 4.61883 15.4474 4.55304H15.5789C15.6447 4.55304 15.6447 4.61883 15.6447 4.61883C15.5132 4.75041 15.5789 5.01357 15.3816 5.01357C15.25 5.07936 15.1842 5.14515 15.25 5.27673C15.25 5.40831 15.1842 5.53988 15.1842 5.73725C15.25 5.86883 15.3816 6.00041 15.4474 6.19778C15.4474 6.19778 15.5132 6.26357 15.5789 6.26357C15.7763 6.26357 15.8421 6.32936 15.9737 6.46094C16.1053 6.59252 16.1711 6.7241 16.3684 6.7241C16.4342 6.7241 16.5 6.85567 16.5658 6.92146C16.6974 6.98725 16.7632 7.11883 16.8947 7.11883C17.0263 7.11883 17.1579 6.98725 17.2237 6.92146C17.4211 6.59252 17.4868 6.19778 17.4868 5.73725C17.4868 5.34252 17.5526 4.94778 17.5526 4.55304C17.75 4.68462 17.9474 4.75041 18.1447 4.88199C18.2105 4.94778 18.2763 5.01357 18.2763 5.07936V5.40831C18.2763 5.53989 18.3421 5.60567 18.4737 5.53989C18.6711 5.4741 18.9342 5.67146 18.9342 5.86883C18.9342 6.19778 19 6.52673 19.1974 6.85567C19.3289 7.05304 19.2632 7.38199 19.3289 7.64515C19.3289 7.71094 19.3947 7.77673 19.4605 7.84252C19.6579 7.9741 19.9211 8.10567 20.1184 8.30304C20.1842 8.36883 20.25 8.50041 20.25 8.5662C20.4474 8.82936 20.5789 9.09252 20.5132 9.42146H20.9737V9.68462C20.9737 9.94778 21.1053 10.1451 21.3684 10.2109L21.5658 10.4083C21.6316 10.6057 21.7632 10.803 21.8289 11.0004C21.9605 11.4609 22.0921 11.9215 21.9605 12.382C21.8289 12.9741 21.8289 13.5662 21.6974 14.1583C21.6974 14.2241 21.6316 14.3557 21.5658 14.4215C21.1711 14.6846 21.1711 15.0794 21.0395 15.4741C21.0395 15.5399 20.9737 15.6715 20.9737 15.7373C20.7105 16.0662 20.7105 16.4609 20.7105 16.8557C20.7105 17.053 20.5789 17.1188 20.3816 17.1188C20.1184 17.1188 19.8553 17.1846 19.6579 17.4478C19.5263 17.5794 19.3947 17.7109 19.1974 17.8425L18.8026 17.4478L18.7368 17.5794H18.6711V17.2504H18.6053C18.6053 17.3162 18.5395 17.382 18.5395 17.382C18.4737 17.5136 18.3421 17.5794 18.2763 17.7109C18.2763 17.7109 18.0789 17.7109 18.0789 17.6451C17.8158 17.1846 17.4211 16.8557 16.8289 16.6583C16.7632 16.6583 16.7632 16.5925 16.6974 16.5267C16.6974 16.4609 16.6974 16.3951 16.6316 16.3951C16.5 16.0662 16.4342 16.0004 16.1053 16.0662C16.0395 15.8688 16.3684 15.6057 16.0395 15.4083C15.9737 15.5399 15.9079 15.6715 15.7763 15.7373H15.6447C15.7105 15.5399 15.7763 15.3425 15.8421 15.2109C15.9079 15.0794 15.9737 14.9478 15.9737 14.8162V14.6846C15.9079 14.6846 15.8421 14.6846 15.8421 14.7504C15.7763 14.882 15.7105 14.9478 15.7105 15.0794C15.7105 15.1451 15.7105 15.2109 15.6447 15.2109C15.4474 15.3425 15.25 15.4741 15.0526 15.6715C15.0526 15.6057 14.9868 15.4741 14.9868 15.4083C14.9868 15.1451 14.9211 14.9478 14.6579 14.8162C14.5921 14.7504 14.5921 14.6846 14.5921 14.6188C14.5921 14.4215 14.5263 14.2899 14.3289 14.2241C14.2632 14.2241 14.1316 14.1583 14.0658 14.1583C13.8684 14.1583 13.6711 14.0925 13.5395 13.9609C13.5395 13.9609 13.4737 13.8951 13.4079 13.8951C13.0789 13.9609 12.75 13.9609 12.4211 14.0925C12.0263 14.2241 11.6974 14.3557 11.2368 14.2241C10.8421 14.0925 10.4474 14.2899 10.1184 14.4873C9.85526 14.6846 9.52632 14.882 9.26316 15.0136L8.47368 15.4083C8.27632 15.4741 8.01316 15.5399 7.81579 15.6715C7.75 15.6715 7.68421 15.7373 7.61842 15.6715C7.48684 15.4741 7.28947 15.3425 7.15789 15.1451L7.22368 14.9478C7.35526 14.882 7.42105 14.8162 7.42105 14.6188V14.4873C7.61842 14.0267 7.35526 13.6978 7.22368 13.303C7.22368 13.2373 7.15789 13.1057 7.15789 12.9741C7.15789 12.8425 7.15789 12.7767 7.09211 12.6451C6.89474 12.1846 6.69737 11.7899 6.56579 11.3294C6.5 11.2636 6.5 11.132 6.5 11.0662L6.69737 11.3294C6.76316 11.1978 6.82895 11.132 6.82895 11.0004C6.82895 10.8688 6.69737 10.7373 6.63158 10.6715C6.43421 10.3425 6.5 10.0794 6.69737 9.8162C7.02632 9.35567 7.35526 8.96094 7.94737 8.76357C8.27632 8.63199 8.53947 8.36883 8.86842 8.17146C8.86842 8.10567 8.93421 8.10567 9 8.10567C9.26316 8.10567 9.39474 8.03989 9.52632 7.84252C9.59211 7.71094 9.72368 7.64515 9.78947 7.51357C9.92105 7.38199 9.98684 7.25041 9.92105 7.05304C9.92105 6.78988 10.1184 6.65831 10.25 6.46094C10.3158 6.59252 10.3158 6.78988 10.3816 6.92146C10.5132 6.85567 10.5132 6.85567 10.5132 6.32936L10.8421 6.39515C10.6447 6.0662 11.1053 5.93462 11.1053 5.60567L11.3684 5.67146V5.53989C11.5 5.4741 11.5658 5.34252 11.6974 5.27673H11.8289C12.0263 5.4741 12.2895 5.53988 12.2895 5.80304C12.2895 5.80304 12.2895 5.86883 12.3553 5.93462C12.4211 5.80304 12.4211 5.73725 12.4868 5.60567L12.8816 5.86883C12.8816 5.80304 12.9474 5.80304 12.9474 5.80304C12.6842 5.34252 13.0789 5.01357 13.2105 4.61883C13.2763 4.48725 13.3421 4.35567 13.6053 4.42146H13.8026C14.0658 4.35567 14.1316 4.28989 13.9342 4.09252C13.8026 4.09252 13.8684 3.96094 13.8684 3.96094ZM27.5526 21.9873C27.4211 21.9215 27.3553 21.9215 27.2237 21.8557C27.1579 21.7899 27.0263 21.6583 27.0921 21.5925C27.1579 21.3951 27.1579 21.1978 27.2895 21.0662C27.5526 20.803 27.8816 20.5399 28.2105 20.2767C28.3675 20.196 28.5067 20.0845 28.6197 19.9489C28.7328 19.8132 28.8173 19.6563 28.8684 19.4873C28.9342 19.2241 29.0658 19.0267 29.1974 18.8294C29.1974 18.8294 29.3947 18.7636 29.3947 18.8294C29.5263 19.0925 29.6579 18.9609 29.8553 18.8294C29.9868 18.9609 30.0526 19.2899 29.9211 19.4215C29.8553 19.553 29.7895 19.6846 29.6579 19.8162C29.6579 19.882 29.5921 19.882 29.5263 19.882C29.3289 19.882 29.1974 20.0794 29.0658 20.2109C28.8684 20.4741 28.7368 20.803 28.6053 21.0662C28.5395 21.132 28.4737 21.1978 28.3421 21.1978C28.2105 21.2636 28.0789 21.3294 28.0132 21.3951C27.9474 21.4609 27.8816 21.5267 27.8158 21.5267C27.8158 21.8557 27.6842 21.9215 27.5526 21.9873ZM30.5132 16.8557V16.6583H30.5789C30.6447 16.7241 30.7105 16.7899 30.7105 16.9215C30.7763 17.1846 30.9079 17.382 31.2368 17.382C31.3026 17.382 31.4342 17.3162 31.5 17.2504C31.0395 17.9083 30.4474 18.5004 30.3816 19.2899H30.3158C30.3158 19.2241 30.25 19.1583 30.25 19.1583V19.0925C30.3816 18.632 30.5132 18.632 29.9868 18.303C29.7237 18.1057 29.7237 18.0399 29.9868 17.8425C30.0526 17.7767 30.1184 17.7109 30.1184 17.6451C30.1842 17.5136 30.1842 17.3162 30.1842 17.1846C30.1842 17.1188 30.1184 16.9873 30.1184 16.9215C29.9211 16.6583 29.7237 16.3294 29.5921 16.0662C29.5263 16.0004 29.5263 15.9346 29.5263 15.803C29.7895 15.7373 29.9868 15.8688 30.0526 16.1978C30.1184 16.3951 30.1184 16.5925 30.25 16.7899C30.3158 16.7241 30.4474 16.7899 30.5132 16.8557ZM18.8684 18.8951C19.2632 19.1583 19.5263 18.8294 19.9211 18.7636C19.9211 19.0925 20.1184 19.2899 19.9211 19.6188C19.8553 19.6846 19.9211 19.8162 19.9211 19.882C19.9211 20.0136 19.8553 20.1451 19.7237 20.0136C19.6579 20.0794 19.6579 20.1451 19.5921 20.2767C19.3289 19.8162 19.1316 19.3557 18.8684 18.8951ZM26.1711 8.36883C26.6974 8.63199 27.0263 8.89515 27.2895 9.28989C27.0263 9.35567 26.4342 8.89515 26.1711 8.36883Z" fill="#36A83A"/>
<path d="M15.9078 16.198L15.4473 16.2638V16.1322L15.9078 16.0664V16.198Z" fill="#36A83A"/>
</g>
</g>
</g>
<defs>
<clipPath id="clip0_26003_52656">
<rect width="38" height="25" fill="white" transform="translate(0 0.210938)"/>
</clipPath>
<clipPath id="clip1_26003_52656">
<rect width="38" height="25" fill="white" transform="translate(0 0.210938)"/>
</clipPath>
<clipPath id="clip2_26003_52656">
<rect width="25" height="25" fill="white" transform="translate(6.5 0.210938)"/>
</clipPath>
</defs>
</svg>
