<svg width="38" height="26" viewBox="0 0 38 26" fill="none" xmlns="http://www.w3.org/2000/svg">
<g clip-path="url(#clip0_26003_52640)">
<g clip-path="url(#clip1_26003_52640)">
<g clip-path="url(#clip2_26003_52640)">
<path d="M25.5788 11.1313C25.5788 11.0655 25.5788 11.0655 25.5131 10.9997H25.3815C25.3157 10.9997 25.3157 11.0655 25.3157 11.0655C25.2499 11.1313 25.3157 11.1971 25.2499 11.2628C25.2499 11.3286 25.1841 11.3286 25.1841 11.3944C25.1841 11.4602 25.1183 11.526 25.1183 11.5918V11.7892C25.1183 11.855 25.1183 11.855 25.1841 11.9207C25.1841 11.9865 25.2499 11.9865 25.2499 12.0523C25.3157 12.1181 25.3157 12.1839 25.3815 12.1839C25.4473 12.1839 25.4473 12.1839 25.4473 12.1181V11.855C25.4473 11.7892 25.5131 11.7892 25.5131 11.7892L25.5788 11.7234V11.5918C25.5788 11.526 25.5131 11.526 25.5131 11.4602L25.5788 11.3944V11.1313ZM22.0262 13.3023C22.092 13.2365 22.0262 13.2365 22.0262 13.1707L21.9604 13.0392H21.6315C21.5657 13.0392 21.4999 13.105 21.4341 13.105C21.3683 13.1707 21.3025 13.1707 21.2367 13.1707C21.1709 13.1707 21.1709 13.2365 21.1709 13.2365C21.1052 13.3023 21.1052 13.3023 21.1052 13.3681V13.4997C21.1052 13.5655 21.1052 13.6313 21.1709 13.6313C21.2367 13.6971 21.2367 13.6313 21.3025 13.6971H21.4999C21.5657 13.6971 21.6315 13.6971 21.6973 13.6313C21.7631 13.5655 21.6973 13.5655 21.7631 13.4997C21.7631 13.4997 21.8288 13.4997 21.8288 13.4339V13.3023C21.9604 13.3023 21.9604 13.3681 22.0262 13.3023ZM25.4473 18.8944C25.5131 18.8286 25.5788 18.8944 25.6446 18.8944C25.7104 18.8944 25.7762 18.8286 25.7762 18.7628C25.7762 18.6971 25.7104 18.6971 25.7104 18.6971C25.5788 18.6313 25.5788 18.6313 25.5131 18.5655H25.3815C25.3815 18.5655 25.3815 18.4997 25.3157 18.4997H25.1841C25.1841 18.4997 25.1183 18.4997 25.1183 18.4339C25.0525 18.3681 25.1183 18.3023 25.0525 18.2365H24.9867C24.9209 18.2365 24.9867 18.1707 24.9209 18.105H24.6578C24.592 18.105 24.592 18.1707 24.5262 18.2365V18.3681C24.5262 18.3681 24.4604 18.3681 24.4604 18.4339C24.4604 18.4339 24.4604 18.4997 24.3946 18.5655C24.3946 18.5655 24.3288 18.5655 24.3288 18.6313L24.2631 18.6971V18.8286C24.2631 18.8286 24.1973 18.8286 24.1973 18.8944C24.1315 18.8944 24.0657 18.8286 23.9999 18.8944C23.9341 18.9602 23.9999 18.9602 23.9341 19.026C23.9341 19.026 23.8683 19.0918 23.8025 19.0918H23.7367V19.2892H23.6052C23.5394 19.355 23.5394 19.4207 23.4736 19.4865L23.342 19.6181C23.2762 19.6181 23.2762 19.6839 23.2104 19.6839C23.1446 19.6839 23.0131 19.6181 22.9473 19.6839L22.8157 19.8155C22.8157 19.8813 22.7499 19.8813 22.7499 19.9471V20.1444C22.7499 20.2102 22.7499 20.2102 22.6841 20.276C22.6183 20.276 22.6183 20.2102 22.5525 20.2102C22.4867 20.2102 22.4209 20.276 22.3552 20.2102C22.2894 20.2102 22.2894 20.1444 22.2894 20.1444C22.2236 20.1444 22.2236 20.0786 22.1578 20.0786C22.092 20.0786 22.092 20.0786 22.092 20.1444C22.092 20.2102 22.1578 20.2102 22.1578 20.2102C22.2236 20.276 22.2236 20.3418 22.2894 20.3418C22.3552 20.4076 22.3552 20.4076 22.4209 20.4076C22.4867 20.4076 22.5525 20.3418 22.6183 20.3418H22.7499C22.8157 20.3418 22.8157 20.4076 22.8815 20.4076C22.9473 20.4076 22.9473 20.3418 23.0131 20.3418C23.0788 20.276 23.0788 20.2102 23.1446 20.2102H23.2762C23.342 20.2102 23.4078 20.276 23.4736 20.276H23.6052C23.6709 20.276 23.6709 20.2102 23.7367 20.2102H23.8683C23.9341 20.2102 23.9341 20.1444 23.9999 20.1444V20.0128C23.9999 19.9471 24.0657 19.9471 24.1315 19.8813C24.1973 19.8155 24.0657 19.6839 24.1315 19.6181C24.1973 19.5523 24.2631 19.6181 24.3288 19.6181C24.3946 19.5523 24.2631 19.4865 24.2631 19.4207C24.2631 19.355 24.2631 19.2892 24.3288 19.2234C24.3946 19.1576 24.4604 19.2234 24.5262 19.1576C24.592 19.1576 24.592 19.0918 24.6578 19.0918C24.7236 19.0918 24.7894 19.1576 24.8552 19.1576C24.9209 19.1576 24.9867 19.1576 25.0525 19.2234C25.1183 19.2234 25.1183 19.2234 25.1841 19.2892C25.2499 19.2892 25.2499 19.2892 25.3157 19.2234L25.3815 19.1576C25.3815 19.0918 25.2499 19.0918 25.2499 19.026C25.3815 18.9602 25.3815 18.9602 25.4473 18.8944ZM20.1183 19.8813C20.0525 19.8155 19.9867 19.8155 19.9867 19.8155C19.9209 19.7497 19.9867 19.6839 19.9867 19.6181V19.2892C19.9867 19.1576 19.9867 19.0918 19.9209 19.026C19.9209 18.9602 19.8552 18.9602 19.8552 18.8944C19.7236 18.6971 19.7236 18.6313 19.6578 18.6313C19.592 18.5655 19.592 18.5655 19.5262 18.5655C19.4604 18.4997 19.5262 18.4997 19.4604 18.4339C19.3946 18.3681 19.3288 18.4339 19.3288 18.4339C19.3288 18.4339 19.1315 18.3681 19.0657 18.3681H18.9341C18.9341 18.3681 18.9341 18.4997 18.8683 18.4997C18.8025 18.4997 18.8025 18.4339 18.8025 18.4339C18.8025 18.4339 18.7367 18.3023 18.6709 18.2365C18.6052 18.1707 18.6709 18.105 18.6052 18.105C18.5394 18.105 18.6052 18.105 18.5394 18.2365L18.4736 18.3023C18.4736 18.3681 18.5394 18.3681 18.5394 18.4339C18.6052 18.4997 18.6709 18.4997 18.6709 18.5655V18.8944C18.6709 18.9602 18.7367 19.026 18.7367 19.0918C18.7367 19.1576 18.6709 19.2234 18.7367 19.2892C18.7367 19.355 18.8025 19.355 18.8683 19.355C18.9341 19.4207 18.9341 19.4865 18.9999 19.5523V19.6181C18.9999 19.6839 19.0657 19.7497 19.0657 19.8155V19.8813C19.0657 19.8813 19.1315 19.8813 19.1315 19.9471H19.2631C19.3288 19.9471 19.3288 20.0128 19.3288 20.0128L19.4604 20.1444C19.5262 20.2102 19.5262 20.2102 19.592 20.2102C19.6578 20.276 19.7236 20.276 19.7894 20.276C19.8552 20.276 19.9209 20.3418 19.9867 20.276C20.0525 20.276 20.1183 20.2102 20.1183 20.1444V20.0128C20.1841 19.9471 20.1183 19.9471 20.1183 19.8813ZM10.4473 1.5918C10.4473 1.65759 10.4473 1.65759 10.4473 1.5918V1.5918Z" fill="#36A83A"/>
<path d="M20.8422 12.6444H21.1053C21.1711 12.6444 21.1711 12.7102 21.2369 12.7102C21.3027 12.7102 21.3027 12.6444 21.3685 12.7102C21.4343 12.7102 21.3685 12.8418 21.3685 12.9076C21.3685 12.9734 21.3685 13.0392 21.4343 13.105C21.5001 13.1707 21.5001 13.1707 21.6316 13.1707C21.6974 13.1707 21.7632 13.1707 21.7632 13.105C21.829 13.0392 21.7632 12.9734 21.7632 12.8418V12.7102C21.829 12.5786 22.0264 12.7102 22.2237 12.6444C22.3553 12.5786 22.4211 12.5786 22.5527 12.5128C22.6185 12.5128 22.6843 12.5128 22.7501 12.4471C22.8158 12.3813 22.7501 12.3155 22.8158 12.3155H23.079C23.2106 12.3155 23.2764 12.2497 23.4079 12.1839C23.4737 12.1181 23.5395 12.0523 23.6053 12.0523C23.6711 12.0523 23.8027 12.1181 23.8685 12.0523V11.9207C23.8685 11.855 23.9343 11.855 24.0001 11.855C24.0658 11.7892 24.1316 11.7892 24.1974 11.7234C24.2632 11.7234 24.2632 11.6576 24.2632 11.6576C24.329 11.5918 24.2632 11.5918 24.329 11.526C24.3948 11.4602 24.4606 11.4602 24.5264 11.3944C24.5922 11.3286 24.5264 11.2628 24.5922 11.1971C24.6579 11.1313 24.7237 11.1971 24.7237 11.1313C24.7895 11.0655 24.7237 10.9339 24.7237 10.8681V10.5392C24.7237 10.4734 24.7895 10.4734 24.7895 10.4076C24.8553 10.3418 24.7895 10.2102 24.8553 10.1444C24.9211 10.1444 24.9211 10.1444 24.9869 10.0786C25.0527 10.0786 25.0527 10.0128 25.0527 10.0128V9.74969C25.0527 9.6839 25.1185 9.61811 25.1185 9.55232C25.1185 9.48653 25.1185 9.42074 25.0527 9.35495H24.7237C24.6579 9.35495 24.5264 9.35495 24.5264 9.28917C24.5264 9.22338 24.5922 9.28917 24.6579 9.22338C24.7237 9.15759 24.8553 9.22338 24.8553 9.0918V8.96022C24.8553 8.89443 24.7895 8.89443 24.7895 8.89443V8.82864C24.7895 8.76285 24.7895 8.76285 24.7237 8.69706C24.7237 8.63127 24.7237 8.63127 24.6579 8.56548C24.5922 8.49969 24.5264 8.56548 24.4606 8.49969C24.3948 8.49969 24.329 8.4339 24.2632 8.4339C24.1974 8.4339 24.1974 8.36811 24.1316 8.36811C24.0658 8.30232 24.0658 8.23653 24.0001 8.17074C23.9343 8.10496 23.9343 8.03917 23.8685 7.97338L23.7369 7.8418C23.7369 7.77601 23.7369 7.77601 23.6711 7.77601L23.5395 7.64443C23.6711 7.44706 23.6711 7.44706 23.6053 7.44706H23.5395C23.4737 7.44706 23.4737 7.38127 23.4079 7.31548C23.4079 7.24969 23.4079 7.1839 23.4737 7.11811C23.5395 7.05232 23.6053 6.98653 23.6053 6.92074V6.85496C23.6053 6.78917 23.6711 6.78917 23.6711 6.78917H23.9343C24.0001 6.78917 24.0001 6.78917 24.0658 6.72338C24.1316 6.65759 24.1316 6.5918 24.1316 6.52601V6.46022C24.0658 6.39443 24.0658 6.46022 24.0001 6.46022H23.8685C23.8027 6.46022 23.7369 6.39443 23.6711 6.39443H23.3422C23.2764 6.39443 23.2764 6.39443 23.2106 6.46022V6.52601C23.2106 6.52601 23.2106 6.5918 23.1448 6.5918H23.0132C23.0132 6.5918 22.9474 6.5918 22.9474 6.52601C22.8816 6.52601 22.8816 6.46022 22.8158 6.46022L22.6843 6.32864C22.6843 6.26285 22.6843 6.26285 22.6185 6.26285C22.5527 6.19706 22.4869 6.26285 22.3553 6.19706C22.2895 6.19706 22.2895 6.13127 22.2237 6.06548C22.1579 5.99969 22.1579 5.99969 22.0922 5.99969C22.0264 5.9339 22.0264 5.86811 22.0922 5.80232H22.5527C22.6185 5.80232 22.6185 5.73653 22.6185 5.67074C22.6185 5.60496 22.4869 5.67074 22.4869 5.60495C22.4869 5.53917 22.5527 5.53917 22.6185 5.47338L22.6843 5.40759L22.8158 5.27601V5.07864C22.8816 5.01285 22.8816 5.07864 22.9474 5.07864C23.0132 5.07864 23.079 5.01285 23.1448 5.01285H23.2106C23.2764 5.01285 23.2764 5.07864 23.2764 5.14443V5.21022C23.2764 5.27601 23.3422 5.27601 23.3422 5.3418C23.3422 5.40759 23.2764 5.40759 23.2764 5.47338C23.2764 5.53917 23.2106 5.60496 23.2106 5.67074C23.2106 5.73653 23.2106 5.73653 23.2764 5.73653V5.80232C23.2764 5.86811 23.2106 5.9339 23.2764 5.99969C23.3422 6.06548 23.4079 5.99969 23.4737 5.9339C23.5395 5.86811 23.5395 5.86811 23.5395 5.80232L23.6711 5.67074C23.7369 5.67074 23.7369 5.67074 23.8027 5.60495C23.9343 5.47338 24.0001 5.47338 24.0658 5.47338H24.1316V5.40759C24.1316 5.3418 24.1974 5.3418 24.1974 5.3418C24.2632 5.3418 24.2632 5.3418 24.329 5.27601C24.3948 5.27601 24.3948 5.27601 24.4606 5.21022C24.5264 5.21022 24.5922 5.14443 24.6579 5.14443C24.7237 5.14443 24.7895 5.07864 24.8553 5.07864C24.9211 5.01285 24.9211 5.01285 24.9211 4.94706C24.9869 4.81548 24.9869 4.74969 25.1185 4.6839L25.2501 4.55232C25.2501 4.48653 25.1843 4.42074 25.2501 4.42074C25.3158 4.42074 25.3158 4.42074 25.3158 4.48653C25.3816 4.55232 25.3816 4.61811 25.4474 4.61811C25.5132 4.61811 25.4474 4.55232 25.5132 4.55232C25.579 4.55232 25.579 4.61811 25.579 4.61811H25.7106C25.7106 4.55232 25.6448 4.55232 25.6448 4.48653C25.6448 4.42074 25.6448 4.35495 25.579 4.28917C25.579 4.22338 25.579 4.15759 25.5132 4.0918C25.4474 4.02601 25.3816 4.02601 25.3816 3.96022C25.3158 3.89443 25.3816 3.82864 25.3158 3.76285C25.3158 3.69706 25.3158 3.69706 25.2501 3.63127V3.49969C25.3158 3.4339 25.3816 3.49969 25.4474 3.4339C25.579 3.4339 25.6448 3.4339 25.7106 3.36811C25.7764 3.30232 25.7106 3.23653 25.7106 3.17074C25.7106 3.10495 25.6448 3.03917 25.6448 2.97338C25.6448 2.90759 25.6448 2.90759 25.579 2.8418C25.579 2.77601 25.5132 2.77601 25.5132 2.71022V2.51285C25.5132 2.44706 25.4474 2.51285 25.3816 2.44706C25.3816 2.44706 25.3816 2.38127 25.3158 2.38127C25.3158 2.31548 25.2501 2.31548 25.1843 2.31548C25.1185 2.31548 25.1185 2.31548 25.0527 2.38127L24.9211 2.51285C24.8553 2.57864 24.7895 2.57864 24.7237 2.57864H24.3948C24.329 2.57864 24.329 2.51285 24.2632 2.51285L24.1316 2.38127C24.0658 2.31548 24.0658 2.24969 24.0001 2.24969C23.9343 2.1839 23.8685 2.1839 23.8027 2.1839C23.7369 2.11811 23.6711 2.11811 23.6053 2.05232H23.4737C23.4079 2.05232 23.3422 2.05232 23.2764 1.98653C23.2106 1.98653 23.1448 1.92074 23.0132 1.92074H22.8158C22.7501 1.92074 22.7501 1.92074 22.6843 1.85495C22.6185 1.85495 22.6185 1.85495 22.5527 1.78917C22.4211 1.72338 22.4869 1.65759 22.3553 1.52601C22.2895 1.46022 22.1579 1.39443 22.0922 1.32864C22.0264 1.26285 21.9606 1.26285 21.8948 1.19706C21.829 1.13127 21.7632 1.13127 21.6974 1.06548C21.8948 0.868113 21.8948 0.868113 21.829 0.802323C21.829 0.736534 21.829 0.736534 21.7632 0.736534H21.6974C21.6316 0.736534 21.6316 0.736534 21.5658 0.670744C21.5001 0.604955 21.4343 0.539165 21.3685 0.539165C21.3027 0.539165 21.3027 0.539165 21.2369 0.473376C21.1711 0.473376 21.1053 0.407586 21.0395 0.407586H20.7106C20.6448 0.407586 20.6448 0.341797 20.579 0.341797H19.7237C19.6579 0.341797 19.5922 0.341797 19.5922 0.407586L19.5264 0.473376C19.5264 0.539165 19.4606 0.604955 19.5264 0.604955H19.5922C19.6579 0.604955 19.6579 0.670744 19.7237 0.736534C19.7895 0.736534 19.7895 0.736534 19.7895 0.802323C19.7895 0.868113 19.7895 0.868113 19.7237 0.933902C19.7237 0.999692 19.6579 1.06548 19.6579 1.13127C19.6579 1.19706 19.7237 1.19706 19.7237 1.26285V1.46022C19.7237 1.52601 19.7895 1.52601 19.7895 1.5918C19.7895 1.65759 19.7237 1.5918 19.6579 1.65759C19.5922 1.72338 19.6579 1.78917 19.5922 1.85495C19.5264 1.92074 19.4606 1.85495 19.3948 1.78917C19.329 1.78917 19.2632 1.72338 19.1974 1.72338H19.1316V2.44706C19.1316 2.51285 19.1974 2.51285 19.2632 2.51285C19.329 2.51285 19.329 2.57864 19.3948 2.57864C19.4606 2.57864 19.4606 2.51285 19.5264 2.51285H19.6579C19.7237 2.51285 19.7237 2.57864 19.8553 2.57864H19.9869C20.0527 2.57864 19.9869 2.51285 20.0527 2.44706H20.1843C20.2501 2.44706 20.2501 2.51285 20.3158 2.51285C20.3816 2.57864 20.4474 2.57864 20.5132 2.57864C20.579 2.57864 20.6448 2.57864 20.7106 2.64443C20.7764 2.64443 20.7764 2.71022 20.8422 2.71022C20.9737 2.71022 20.9737 2.71022 20.9737 2.77601C20.9737 2.8418 21.0395 2.8418 21.0395 2.90759V2.97338C20.9737 3.03917 20.9079 2.90759 20.8422 2.8418C20.8422 2.8418 20.7764 2.8418 20.7106 2.77601C20.6448 2.77601 20.6448 2.71022 20.579 2.77601C20.5132 2.77601 20.5132 2.8418 20.5132 2.8418H20.4474C20.3816 2.8418 20.3816 2.8418 20.3816 2.90759H20.2501C20.1843 2.90759 20.1185 2.90759 20.1185 2.97338C20.0527 3.03917 20.1185 3.10495 20.1185 3.17074C20.1185 3.23653 20.0527 3.23653 19.9869 3.30232C19.9211 3.36811 19.9211 3.36811 19.7895 3.36811C19.7237 3.36811 19.6579 3.30232 19.6579 3.36811V3.4339C19.6579 3.49969 19.5922 3.49969 19.5922 3.49969C19.5922 3.49969 19.5264 3.49969 19.5264 3.56548C19.4606 3.56548 19.4606 3.63127 19.3948 3.63127C19.3948 3.63127 19.329 3.63127 19.329 3.56548C19.2632 3.56548 19.2632 3.56548 19.1974 3.49969H19.1316L19.0658 3.4339H18.9343C18.8685 3.4339 18.8027 3.4339 18.8027 3.49969V3.76285C18.8027 3.82864 18.8685 3.76285 18.9343 3.82864C19.0001 3.82864 19.0658 3.82864 19.0658 3.89443L19.1316 3.96022V4.0918C19.0658 4.15759 19.0658 4.0918 19.0001 4.15759L18.9343 4.22338C18.9343 4.28917 18.9343 4.28917 18.8685 4.35496C18.8685 4.42074 18.8027 4.42074 18.7369 4.48653C18.6711 4.55232 18.6711 4.55232 18.6053 4.55232H17.8158C17.7501 4.55232 17.7501 4.55232 17.6843 4.61811C17.6185 4.61811 17.6185 4.6839 17.5527 4.6839C17.4869 4.74969 17.4869 4.74969 17.4211 4.74969C17.4211 4.74969 17.4211 4.81548 17.3553 4.81548H17.2237C17.1579 4.81548 17.1579 4.74969 17.1579 4.74969H16.6316C16.5658 4.74969 16.5658 4.74969 16.5001 4.6839C16.4343 4.6839 16.3685 4.61811 16.3027 4.61811H16.1711C16.1053 4.61811 16.1053 4.55232 16.0395 4.55232C15.9737 4.48653 15.9079 4.48653 15.7764 4.48653H14.1316C14.0658 4.48653 14.0001 4.42074 13.9343 4.35496C13.8027 4.28917 13.7369 4.22338 13.6711 4.0918C13.6711 4.02601 13.6053 4.02601 13.6053 3.96022C13.5395 3.89443 13.4737 3.89443 13.4079 3.82864C13.3422 3.76285 13.2764 3.76285 13.2106 3.76285C13.1448 3.56548 13.079 3.56548 13.0132 3.56548C12.9474 3.49969 12.9474 3.49969 12.8816 3.49969C12.8158 3.49969 12.8158 3.4339 12.7501 3.4339C12.7501 3.36811 12.6843 3.36811 12.6843 3.30232C12.6185 3.23653 12.6185 3.23653 12.5527 3.23653C12.4869 3.17074 12.4211 3.10495 12.2895 3.10495C12.1579 3.10495 12.1579 3.17074 12.0264 3.17074C11.9606 3.17074 11.8948 3.17074 11.829 3.10495C11.7632 3.10495 11.6974 3.03917 11.6974 2.97338V2.77601C11.6974 2.71022 11.6316 2.71022 11.6316 2.71022C11.5658 2.71022 11.5001 2.64443 11.4343 2.64443C11.3685 2.57864 11.3027 2.44706 11.1711 2.44706C11.1053 2.44706 11.0395 2.51285 10.9737 2.44706C10.9079 2.44706 10.8422 2.38127 10.8422 2.38127C10.7764 2.31548 10.7764 2.31548 10.7106 2.1839C10.6448 2.11811 10.7106 1.98653 10.579 1.92074C10.5132 1.92074 10.4474 1.98653 10.4474 1.92074V1.85495H10.1843C10.0527 1.85495 9.98689 1.92074 9.9211 1.98653C9.78952 2.05232 9.72374 2.11811 9.65795 2.24969V2.38127C9.65795 2.44706 9.72374 2.44706 9.72374 2.51285V2.64443C9.72374 2.71022 9.65795 2.77601 9.59216 2.77601C9.52637 2.77601 9.52637 2.71022 9.46058 2.71022H9.19742C9.19742 2.64443 9.13163 2.64443 9.13163 2.64443C9.06584 2.64443 9.00005 2.77601 9.00005 2.8418C8.93426 2.97338 9.00005 3.03917 9.00005 3.17074C9.00005 3.23653 9.06584 3.23653 9.06584 3.30232C9.13163 3.36811 9.19742 3.4339 9.13163 3.4339C9.06584 3.49969 9.00005 3.4339 8.93426 3.36811C8.86847 3.36811 8.86847 3.30232 8.80268 3.30232H8.47374C8.40795 3.30232 8.34216 3.30232 8.34216 3.36811V3.4339C8.34216 3.4339 8.34216 3.49969 8.40795 3.49969H8.53953C8.60531 3.56548 8.60531 3.63127 8.60531 3.63127C8.6711 3.69706 8.73689 3.69706 8.73689 3.76285C8.73689 3.82864 8.80268 3.82864 8.80268 3.89443V4.0918H8.73689V4.35496C8.73689 4.42074 8.73689 4.48653 8.6711 4.55232C8.60531 4.61811 8.53953 4.55232 8.47374 4.55232C8.40795 4.55232 8.40795 4.6839 8.27637 4.74969H8.21058C8.079 4.74969 8.079 4.88127 7.94742 4.88127C7.88163 5.01285 7.81584 5.01285 7.75005 5.01285H7.61847C7.55268 5.01285 7.55268 5.07864 7.48689 5.07864L7.4211 5.14443C7.35531 5.21022 7.35531 5.21022 7.22374 5.27601C7.22374 5.3418 7.22374 5.3418 7.15795 5.3418L7.02637 5.47338V5.53917C7.02637 5.60496 7.09216 5.67074 7.09216 5.73653C7.09216 5.80232 7.09216 5.86811 7.15795 5.9339C7.15795 6.06548 7.22374 6.06548 7.28953 6.06548C7.4211 6.06548 7.4211 5.99969 7.55268 5.99969C7.61847 6.06548 7.61847 6.13127 7.68426 6.19706C7.68426 6.26285 7.75005 6.26285 7.75005 6.32864C7.75005 6.39443 7.68426 6.39443 7.61847 6.39443H7.75005L7.81584 6.46022V6.65759C7.88163 6.72338 7.94742 6.65759 8.01321 6.65759C8.01321 6.65759 8.079 6.65759 8.079 6.72338C8.079 6.72338 8.079 6.78917 8.14479 6.78917V6.92074L8.21058 6.98653C8.27637 7.05232 8.34216 6.98653 8.40795 7.05232C8.47374 7.05232 8.47374 7.11811 8.53953 7.11811C8.60531 7.11811 8.6711 7.11811 8.80268 7.1839L8.73689 7.24969C8.80268 7.24969 8.86847 7.24969 8.93426 7.31548C9.06584 7.38127 9.06584 7.38127 9.13163 7.44706C9.26321 7.44706 9.329 7.44706 9.39479 7.57864C9.46058 7.64443 9.46058 7.71022 9.52637 7.77601C9.59216 7.8418 9.59216 7.90759 9.65795 7.97338C9.72374 8.03917 9.72374 8.03917 9.78953 8.03917C9.85531 8.10495 9.78953 8.17074 9.78953 8.23653C9.72374 8.30232 9.65795 8.30232 9.65795 8.36811C9.59216 8.4339 9.59216 8.56548 9.72374 8.63127C9.78953 8.69706 9.85531 8.63127 9.9211 8.69706C9.98689 8.76285 10.0527 8.82864 10.1185 8.82864C10.1843 8.89443 10.2501 8.89443 10.3816 8.89443H10.6448C10.7106 8.89443 10.7106 8.89443 10.7764 8.96022C10.8422 8.96022 10.8422 9.02601 10.9079 9.02601C10.9737 9.02601 10.9737 9.02601 11.0395 9.0918C11.1053 9.0918 11.1053 9.15759 11.1711 9.15759H11.3027C11.3685 9.15759 11.3685 9.22338 11.4343 9.22338C11.5001 9.28917 11.5658 9.35495 11.6316 9.35495C11.6974 9.35495 11.7632 9.35495 11.829 9.42074C11.8948 9.42074 11.8948 9.42074 11.9606 9.48653H12.1579C12.2237 9.55232 12.2237 9.55232 12.2237 9.61811C12.2895 9.6839 12.3553 9.6839 12.4211 9.6839C12.4869 9.6839 12.5527 9.61811 12.6185 9.61811H12.7501C12.8158 9.61811 12.8158 9.6839 12.8816 9.6839C12.9474 9.6839 13.0132 9.6839 13.0132 9.74969C12.8816 9.94706 12.8816 10.0786 12.9474 10.0786C13.0132 10.0786 13.0132 10.0128 13.079 10.0128C13.1448 9.94706 13.2106 9.94706 13.2764 9.94706H13.4737C13.5395 9.94706 13.4737 10.0128 13.5395 10.0786C13.6053 10.0786 13.6711 10.0786 13.7369 10.0128C13.8027 10.0128 13.8685 9.94706 13.9343 9.94706H14.329C14.329 9.94706 14.329 9.88127 14.3948 9.88127C14.4606 9.81548 14.5264 9.81548 14.5922 9.81548H15.2501C15.3158 9.81548 15.3816 9.81548 15.4474 9.74969C15.5132 9.74969 15.5132 9.6839 15.579 9.6839C15.6448 9.6839 15.6448 9.74969 15.7106 9.74969C15.8422 9.74969 15.9079 9.6839 16.0395 9.6839H16.2369C16.3027 9.6839 16.3685 9.74969 16.3685 9.81548L16.5001 9.94706H16.6316C16.6316 9.94706 16.6974 9.94706 16.6974 10.0128C16.7632 10.0786 16.829 10.0786 16.829 10.1444C16.8948 10.2102 16.8948 10.276 17.0264 10.3418L17.1579 10.4734C17.2237 10.605 17.1579 10.6707 17.2237 10.8023C17.2237 10.8681 17.2895 10.9339 17.2895 10.9997C17.2895 11.1313 17.1579 11.1313 17.0264 11.1971C16.9606 11.2628 16.8948 11.3286 16.8948 11.3944C16.8948 11.4602 16.9606 11.526 16.9606 11.6576C16.9606 11.7234 16.9606 11.7892 17.0264 11.7892C17.0922 11.855 17.1579 11.7892 17.2237 11.7892C17.2895 11.7892 17.3553 11.7234 17.4211 11.7234C17.4869 11.7892 17.4211 11.855 17.4211 11.9207C17.4211 11.9865 17.4869 12.0523 17.5527 12.1181H17.6843V12.2497C17.6843 12.3155 17.5527 12.3155 17.5527 12.4471C17.5527 12.5128 17.6185 12.5128 17.6843 12.5786C17.7501 12.6444 17.8158 12.5786 17.8816 12.6444L18.0132 12.776C18.079 12.8418 18.1448 12.8418 18.2106 12.9076H18.3422C18.4079 12.9076 18.4737 12.9734 18.5395 12.9076V12.8418C18.5395 12.776 18.5395 12.776 18.4737 12.7102C18.4737 12.6444 18.4079 12.5786 18.4737 12.5128H18.6711C18.6711 12.4471 18.6711 12.4471 18.7369 12.3813C18.8027 12.3813 18.8027 12.4471 18.8685 12.4471C18.9343 12.4471 19.0001 12.3813 19.0658 12.3813H19.1974C19.2632 12.3813 19.329 12.3813 19.3948 12.3155C19.4606 12.3155 19.4606 12.3155 19.5264 12.2497L19.6579 12.1181C19.7237 12.0523 19.6579 12.0523 19.7237 11.9865C19.7895 11.9865 19.7895 12.1181 19.8553 12.1181C19.9211 12.1839 19.9869 12.1839 20.0527 12.1839C20.1185 12.1839 20.1843 12.1181 20.2501 12.1839C20.2501 12.1839 20.3158 12.2497 20.2501 12.2497C20.2501 12.3155 20.1843 12.3155 20.1843 12.3155C20.1843 12.3813 20.2501 12.3813 20.3158 12.4471C20.3816 12.5128 20.3816 12.5128 20.4474 12.5128C20.5132 12.5786 20.579 12.5786 20.6448 12.5786H20.7764L20.8422 12.6444ZM20.1185 16.7234C20.1843 16.6576 20.1843 16.5918 20.2501 16.5918C20.3158 16.5918 20.3158 16.6576 20.3158 16.5918C20.3816 16.5918 20.3158 16.526 20.3158 16.526C20.3816 16.4602 20.3816 16.4602 20.4474 16.4602H20.579C20.6448 16.4602 20.579 16.3944 20.579 16.3286C20.579 16.2628 20.5132 16.2628 20.579 16.1971H20.7106C20.7764 16.1971 20.7106 16.0655 20.7764 16.0655H20.9079C20.9737 16.0655 20.9737 15.9997 20.9737 15.9997L21.0395 16.0655C21.0395 16.0655 21.0395 15.9997 21.1053 15.9997V15.6707C21.1053 15.605 21.1711 15.605 21.1053 15.5392C21.1053 15.4734 21.0395 15.5392 21.0395 15.4734V15.4076C21.0395 15.3418 20.9737 15.3418 20.9079 15.276V15.2102H20.7106C20.6448 15.2102 20.6448 15.1444 20.579 15.1444C20.5132 15.1444 20.5132 15.2102 20.5132 15.276C20.5132 15.3418 20.5132 15.3418 20.4474 15.3418C20.3816 15.3418 20.3816 15.276 20.3158 15.276C20.2501 15.276 20.2501 15.3418 20.1843 15.276C20.1185 15.276 20.1843 15.2102 20.1185 15.2102H19.6579C19.5922 15.2102 19.5922 15.1444 19.5264 15.1444C19.4606 15.1444 19.4606 15.2102 19.3948 15.2102L19.2632 15.3418V15.4734C19.2632 15.5392 19.1974 15.4734 19.1316 15.5392C19.0658 15.605 19.1316 15.605 19.1316 15.6707C19.1316 15.7365 19.1316 15.7365 19.1974 15.8023C19.1974 15.8681 19.2632 15.8681 19.329 15.8681V15.9997H19.3948V16.0655C19.3948 16.1313 19.4606 16.0655 19.5264 16.1313C19.5922 16.1971 19.5264 16.1971 19.5264 16.2628V16.3944C19.5922 16.3944 19.5922 16.3286 19.5922 16.3944C19.6579 16.3944 19.6579 16.4602 19.6579 16.4602L19.7895 16.5918H19.9211C19.9869 16.7234 20.0527 16.7234 20.1185 16.7234ZM25.7106 21.3286V21.7892C25.7106 21.855 25.6448 21.855 25.6448 21.9207C25.579 21.9865 25.579 22.0523 25.579 22.1181C25.579 22.1839 25.579 22.2497 25.6448 22.2497C25.7106 22.3155 25.7764 22.1839 25.8422 22.1839C25.9079 22.1839 25.9079 22.2497 25.9737 22.3155V22.6444C25.9737 22.7102 25.9737 22.776 25.9079 22.8418C25.9079 22.9076 25.7764 22.9734 25.8422 23.0392C25.9079 23.105 25.9737 23.105 26.0395 23.105C26.1053 23.105 26.1711 23.105 26.2369 23.0392C26.3027 22.9734 26.2369 22.9076 26.2369 22.8418C26.2369 22.776 26.3027 22.7102 26.3027 22.6444C26.3027 22.5786 26.2369 22.5786 26.2369 22.5128V22.4471C26.2369 22.3813 26.3027 22.3155 26.2369 22.2497V21.9865C26.2369 21.9207 26.2369 21.855 26.3027 21.855H26.4343C26.5001 21.9207 26.4343 21.9865 26.4343 22.0523C26.4343 22.1181 26.3685 22.1839 26.4343 22.2497C26.4343 22.3155 26.5001 22.3155 26.5001 22.3155H26.6316V22.3813C26.6316 22.4471 26.5658 22.4471 26.5658 22.4471V22.6444C26.6316 22.7102 26.6974 22.7102 26.7632 22.6444V22.5786L26.829 22.5128C26.8948 22.5128 26.9606 22.5786 27.0264 22.5128C27.0922 22.5128 27.0922 22.4471 27.0922 22.3813C27.0922 22.3155 27.0264 22.3155 26.9606 22.2497C26.9606 22.1839 26.8948 22.1839 26.8948 22.1839V22.1181C26.8948 22.0523 26.9606 22.0523 26.9606 22.0523C26.9606 21.9865 26.8948 21.9865 26.8948 21.9207L26.7632 21.7892C26.6974 21.7234 26.6316 21.7234 26.6316 21.6576V21.526L26.6974 21.4602C26.7632 21.4602 26.7632 21.4602 26.829 21.3944C26.8948 21.3286 26.9606 21.3286 27.0264 21.2628C27.0922 21.1971 27.0922 21.1971 27.0922 21.1313C27.1579 21.0655 27.2237 21.1971 27.2895 21.1313V21.0655C27.2895 20.9997 27.2895 20.9997 27.2237 20.9997C27.1579 20.9339 27.0922 20.9997 27.0264 20.9997C26.9606 20.9997 26.8948 20.9339 26.829 20.9997V21.0655C26.7632 21.1313 26.7632 21.0655 26.6974 21.0655H26.5658V21.1971C26.5001 21.2628 26.4343 21.2628 26.3685 21.1971C26.3027 21.1313 26.3685 21.0655 26.3685 21.0655C26.3685 20.9997 26.3027 21.0655 26.2369 20.9997C26.1711 20.9339 26.1711 20.8681 26.1711 20.8023C26.1711 20.7365 26.1053 20.6707 26.1711 20.605H26.3027C26.3685 20.605 26.3685 20.605 26.4343 20.6707H26.829C26.8948 20.6707 26.8948 20.605 26.9606 20.605C27.0264 20.605 27.0264 20.6707 27.0922 20.6707C27.2237 20.7365 27.2895 20.6707 27.4211 20.6707H27.6843C27.7501 20.6707 27.7501 20.605 27.8158 20.5392C27.8816 20.4734 27.8816 20.4076 27.8816 20.3418C27.8816 20.276 27.9474 20.276 27.9474 20.2102C27.9474 20.1444 28.0132 20.1444 27.9474 20.0786C27.9474 20.0128 27.8816 20.0128 27.8158 20.0128C27.7501 20.0128 27.7501 20.0128 27.7501 20.0786V20.1444C27.7501 20.2102 27.6185 20.1444 27.6185 20.2102V20.3418C27.5527 20.4076 27.4869 20.4076 27.4211 20.4076H27.2237C27.1579 20.4076 27.0922 20.4734 27.0264 20.4076C26.9606 20.4076 26.9606 20.3418 26.8948 20.3418C26.829 20.3418 26.7632 20.3418 26.6974 20.276H26.5001C26.4343 20.276 26.3685 20.2102 26.3027 20.276C26.2369 20.276 26.3027 20.3418 26.2369 20.3418L26.1711 20.4076C26.1053 20.4076 26.1053 20.4734 26.0395 20.4734C25.9737 20.4734 25.9079 20.4734 25.9079 20.5392C25.8422 20.605 25.9079 20.6707 25.9079 20.7365V21.1313C25.8422 21.2628 25.7764 21.1971 25.7106 21.3286Z" fill="#36A83A"/>
<path d="M15.2504 13.0401C15.3161 13.1059 15.3819 12.9743 15.4477 12.9743C15.5793 12.9743 15.6451 13.0401 15.7109 13.1059C15.7767 13.1717 15.7767 13.2375 15.7767 13.2375H15.7109C15.6451 13.2375 15.6451 13.2375 15.6451 13.3032V13.4348C15.6451 13.4348 15.7109 13.5006 15.7767 13.5006H15.9083V13.4348C15.974 13.5006 15.974 13.5006 16.0398 13.5006L16.1714 13.6322C16.2372 13.698 16.2372 13.7638 16.2372 13.8954C16.2372 13.9611 16.303 14.0269 16.303 14.0927C16.303 14.1585 16.2372 14.2243 16.2372 14.3559C16.2372 14.4217 16.1714 14.4875 16.2372 14.5532C16.2372 14.619 16.303 14.619 16.3688 14.6848H16.8951C16.9609 14.6848 16.9609 14.619 16.9609 14.619C16.9609 14.619 16.9609 14.5532 17.0267 14.5532H17.1583V14.4875C17.1583 14.4217 17.0925 14.3559 17.1583 14.2901H17.224C17.2898 14.2901 17.2898 14.3559 17.3556 14.4217C17.3556 14.4875 17.3556 14.5532 17.4214 14.5532L17.4872 14.619C17.553 14.6848 17.553 14.6848 17.553 14.7506C17.6188 14.8822 17.553 14.948 17.553 15.0796C17.553 15.1454 17.6188 15.2111 17.6846 15.2769V15.4743C17.6846 15.5401 17.6188 15.6059 17.6846 15.6717C17.6846 15.7375 17.7504 15.6717 17.8161 15.7375V16.198C17.8161 16.2638 17.7504 16.3296 17.8161 16.3954C17.8819 16.4611 17.9477 16.3954 17.9477 16.4611C18.0135 16.5269 18.0135 16.5927 17.9477 16.6585C17.9477 16.6585 17.8819 16.6585 17.8819 16.7243C17.8161 16.7901 17.8161 16.8559 17.8161 16.9217V17.0532L17.8819 16.9875V16.7243H18.0135C18.0793 16.7243 18.0793 16.6585 18.0793 16.6585C18.1451 16.5927 18.1451 16.5927 18.1451 16.5269C18.1451 16.4611 18.2109 16.3954 18.1451 16.3296C18.1451 16.2638 18.1451 16.198 18.0793 16.1322C18.0793 16.0664 18.0135 16.0664 18.0135 16.0006C18.0135 15.9348 17.9477 15.9348 17.9477 15.869V15.7375C17.9477 15.6717 17.8819 15.6059 17.8161 15.5401C17.7504 15.5401 17.7504 15.4743 17.6846 15.4743C17.6188 15.4085 17.553 15.4085 17.553 15.3427C17.553 15.2769 17.6188 15.2769 17.6188 15.2111C17.6188 15.1454 17.6188 15.1454 17.6846 15.0796C17.6846 15.0138 17.7504 14.948 17.7504 14.8822C17.7504 14.8164 17.7504 14.8164 17.6846 14.7506L17.4872 14.5532C17.4214 14.4875 17.4214 14.4217 17.3556 14.3559L17.224 14.2243L17.0925 14.0927C17.0267 14.0269 17.0267 14.0269 17.0267 13.9611C17.0267 13.8954 16.9609 13.8954 17.0267 13.8296C17.0267 13.7638 17.0925 13.7638 17.0925 13.7638V13.5006C17.0925 13.4348 17.0925 13.369 17.1583 13.3032C17.224 13.2375 17.2898 13.369 17.3556 13.369C17.4214 13.369 17.4214 13.369 17.4872 13.3032C17.553 13.2375 17.6188 13.2375 17.6846 13.1717C17.7504 13.1059 17.7504 13.1059 17.8161 13.1059C17.8819 13.0401 17.9477 13.0401 18.0135 12.9743C18.0793 12.9085 18.0793 12.9085 18.0793 12.8427L18.1451 12.7769C18.0793 12.7111 18.0135 12.7111 17.9477 12.6454C17.8819 12.5796 17.8819 12.5138 17.8161 12.5138C17.7504 12.448 17.6846 12.5138 17.6188 12.448C17.553 12.448 17.553 12.3822 17.4872 12.3164C17.4872 12.2506 17.6188 12.2506 17.6188 12.119V11.9875C17.553 11.9217 17.553 11.9875 17.4872 11.9875C17.4214 11.9217 17.4214 11.8559 17.3556 11.7901C17.3556 11.7243 17.4214 11.5927 17.3556 11.5927C17.2898 11.5927 17.224 11.6585 17.1583 11.6585C17.0925 11.6585 17.0267 11.7243 16.9609 11.6585C16.8951 11.5927 16.8951 11.5927 16.8951 11.5269C16.8293 11.4611 16.7635 11.3954 16.8293 11.2638C16.8293 11.198 16.8951 11.1322 16.9609 11.0664C17.0267 11.0006 17.1583 11.0006 17.224 10.869C17.224 10.8032 17.1583 10.7375 17.1583 10.6717C17.0925 10.5401 17.1583 10.4743 17.0925 10.3427L16.9609 10.2111C16.8951 10.1454 16.8951 10.0796 16.7635 10.0138C16.6977 9.94798 16.6977 9.8822 16.6319 9.8822C16.5661 9.8822 16.5661 9.8822 16.5004 9.81641H16.4346C16.5004 9.8822 16.5004 9.94798 16.5004 10.0138C16.5004 10.1454 16.3688 10.1454 16.303 10.2111L16.1714 10.3427C16.1056 10.4085 15.974 10.3427 15.974 10.4085C15.9083 10.4743 15.9083 10.4743 15.9083 10.5401V10.7375C15.9083 10.8032 15.9083 10.8032 15.8425 10.869C15.8425 10.9348 15.7767 10.9348 15.7767 10.9348C15.7767 11.0006 15.8425 11.0006 15.8425 11.0664V11.3954C15.8425 11.4611 15.8425 11.5269 15.7767 11.5269C15.7109 11.5269 15.7109 11.3954 15.6451 11.3954H15.5135C15.4477 11.4611 15.5135 11.5269 15.5135 11.6585C15.5135 11.7243 15.5793 11.7243 15.5135 11.7901C15.5135 11.8559 15.3819 11.8559 15.3819 11.9217C15.3819 11.9875 15.3819 11.9875 15.4477 11.9875C15.4477 12.0532 15.5135 12.0532 15.5135 12.119C15.5135 12.1848 15.5135 12.1848 15.4477 12.1848C15.3819 12.2506 15.3819 12.1848 15.3161 12.1848V12.2506C15.3161 12.2506 15.3161 12.3822 15.2504 12.448V12.6454C15.2504 12.7111 15.1846 12.7769 15.1846 12.8427V12.9085C15.1846 12.9743 15.2504 12.9743 15.2504 13.0401C15.1846 13.0401 15.1846 12.9743 15.2504 13.0401ZM17.0925 19.6848H17.0267L16.9609 19.7506C16.9609 19.8164 17.0267 19.7506 17.0925 19.8164H17.3556C17.4214 19.7506 17.3556 19.7506 17.2898 19.6848H17.0925ZM18.1451 19.2901C18.0793 19.2901 18.0793 19.2243 18.0793 19.2243C18.0135 19.1585 18.0135 19.1585 17.9477 19.1585V19.0269C17.9477 18.9611 17.8819 18.9611 17.8161 18.9611C17.7504 18.8954 17.7504 18.8954 17.7504 18.8296C17.6846 18.7638 17.6188 18.8296 17.4872 18.8296H17.224C17.1583 18.8296 17.1583 18.7638 17.0925 18.698C17.0267 18.698 17.0267 18.6322 16.9609 18.6322C16.8951 18.6322 16.9609 18.698 16.9609 18.698V18.8296C16.9609 18.8954 17.0267 18.9611 17.0267 18.9611L17.1583 19.0927C17.224 19.1585 17.224 19.2243 17.2898 19.2243C17.3556 19.2901 17.3556 19.2901 17.4214 19.2901H17.553C17.6188 19.2901 17.6188 19.3559 17.6846 19.3559C17.7504 19.4217 17.6846 19.4217 17.7504 19.4875C17.7504 19.4875 17.8161 19.4875 17.8161 19.5532C17.8819 19.5532 17.8819 19.619 17.8819 19.6848V19.8164C17.8819 19.8822 17.8819 19.8822 17.9477 19.948C18.0135 19.948 18.0135 19.948 18.0793 20.0138H18.2109C18.2767 20.0138 18.2767 20.0796 18.3425 20.1454C18.4083 20.2111 18.4083 20.2769 18.4083 20.4085C18.4083 20.4743 18.474 20.5401 18.474 20.6059C18.474 20.6717 18.4083 20.7375 18.474 20.8032H18.5398C18.6056 20.8032 18.6056 20.8032 18.6056 20.869C18.6714 20.9348 18.6714 21.0006 18.7372 21.0006C18.803 21.0006 18.803 21.0006 18.8688 21.0664V21.198C18.8688 21.2638 18.9346 21.2638 18.9346 21.3296C18.9346 21.3954 19.0004 21.3954 19.0004 21.4611C19.0004 21.5269 19.0004 21.5269 19.0661 21.5927C19.0661 21.6585 19.1319 21.6585 19.1319 21.7243L19.2635 21.8559C19.2635 21.9217 19.3293 21.9217 19.3293 21.9875C19.3293 22.0532 19.3951 22.119 19.3951 22.1848C19.4609 22.2506 19.5267 22.2506 19.5267 22.3164L19.5925 22.3822C19.6583 22.448 19.5925 22.448 19.6583 22.5138C19.724 22.5796 19.7898 22.5796 19.8556 22.5796C19.9214 22.5796 19.9214 22.6454 19.9872 22.6454L20.1188 22.7769C20.1846 22.8427 20.2504 22.8427 20.3161 22.9085V22.9743C20.3819 23.0401 20.3819 23.1059 20.4477 23.1059C20.5135 23.1059 20.5135 23.0401 20.5793 23.0401H20.7109C20.7767 23.0401 20.8425 23.1717 20.9083 23.1059C20.974 23.1059 20.974 23.0401 20.974 22.9743V22.3164C20.974 22.2506 21.0398 22.1848 21.1056 22.1848L21.1714 22.119C21.1714 22.0532 21.1056 22.0532 21.0398 21.9875L20.9083 21.8559C20.8425 21.7901 20.8425 21.7243 20.7767 21.7243C20.7109 21.7243 20.6451 21.7901 20.5793 21.7243C20.5793 21.7243 20.5793 21.6585 20.5135 21.6585L20.3819 21.5269C20.3819 21.4611 20.3161 21.4611 20.3161 21.4611V21.2638C20.3161 21.198 20.3161 21.198 20.2504 21.198C20.1846 21.1322 20.1188 21.2638 20.053 21.198C19.9872 21.1322 20.053 21.1322 20.053 21.0664V20.9348C20.053 20.869 20.1188 20.869 20.1188 20.869C20.1188 20.8032 20.053 20.8032 20.053 20.7375C19.9214 20.6059 19.8556 20.6059 19.7898 20.6059H19.6583C19.5925 20.6059 19.6583 20.5401 19.6583 20.4743V20.2769C19.5925 20.2111 19.5925 20.2111 19.5267 20.2111C19.4609 20.2111 19.3951 20.2769 19.3951 20.2111V20.0138L19.3293 19.948C19.2635 19.948 19.2635 20.0138 19.2635 20.0138C19.1977 20.0138 19.1977 19.948 19.1977 19.948C19.0004 19.948 19.0004 19.948 18.9346 19.8822H18.803C18.7372 19.8822 18.7372 19.8164 18.6714 19.8164C18.6056 19.7506 18.6056 19.6848 18.5398 19.619C18.5398 19.619 18.5398 19.5532 18.474 19.5532C18.4083 19.4875 18.3425 19.5532 18.3425 19.4875C18.3425 19.4217 18.3425 19.4217 18.2767 19.3559C18.2109 19.2901 18.1451 19.3559 18.1451 19.2901ZM18.0793 20.9348C18.0135 20.869 17.9477 20.9348 17.9477 21.0006C17.9477 21.0664 18.0135 21.0664 18.0793 21.0664C18.0793 21.0664 18.1451 20.9348 18.0793 20.9348ZM20.4477 21.0006L20.5135 20.9348C20.5135 20.869 20.3819 20.869 20.3161 20.869L20.2504 20.9348C20.2504 21.0006 20.3819 21.0006 20.4477 21.0006ZM22.0267 20.7375C22.0267 20.8032 22.0925 20.8032 22.0925 20.869C22.0925 20.9348 22.0267 20.9348 22.0267 20.9348C22.0267 21.0006 22.0925 21.0006 22.1583 21.0006C22.224 21.0664 22.224 21.0664 22.224 21.1322L22.3556 21.2638C22.3556 21.2638 22.4214 21.2638 22.4214 21.3296V21.7901C22.4214 21.8559 22.4872 21.8559 22.553 21.8559V21.9217C22.553 21.9875 22.4872 21.9875 22.553 22.0532H22.9477C23.0135 22.0532 23.0135 21.9875 23.0793 21.9875H23.1451C23.2109 22.0532 23.1451 22.0532 23.1451 22.119L23.2109 22.1848H23.4083C23.474 22.1848 23.474 22.119 23.5398 22.119H23.6714C23.7372 22.119 23.7372 22.119 23.803 22.1848C23.8688 22.1848 23.9346 22.2506 24.0004 22.2506H24.1319C24.1977 22.2506 24.1977 22.3822 24.1977 22.448C24.1977 22.5138 24.1977 22.5138 24.2635 22.5796H24.3293C24.3951 22.5796 24.4609 22.5138 24.5267 22.448C24.5925 22.448 24.5925 22.3822 24.6583 22.3822C24.724 22.3164 24.724 22.2506 24.7898 22.1848C24.7898 22.119 24.8556 22.119 24.8556 22.0532C24.8556 21.9875 24.9214 21.9875 24.9214 21.9217V21.5927C24.9214 21.5269 24.9872 21.5269 25.053 21.4611L25.1846 21.3296C25.2504 21.2638 25.2504 21.2638 25.3161 21.2638C25.3819 21.198 25.3161 21.1322 25.3161 21.0664V20.7375C25.3161 20.6717 25.3819 20.6717 25.4477 20.6059H25.7767C25.8425 20.6059 25.8425 20.6059 25.9083 20.5401V20.4743C25.9083 20.4085 25.8425 20.4085 25.7767 20.3427L25.6451 20.2111H25.5135C25.4477 20.1454 25.5135 20.0796 25.5135 20.0138V19.948C25.5135 19.8822 25.4477 19.8822 25.3819 19.8164C25.3819 19.8164 25.3161 19.8164 25.3161 19.7506C25.2504 19.6848 25.3161 19.6848 25.3161 19.619C25.3161 19.5532 25.2504 19.5532 25.2504 19.4875C25.2504 19.4217 25.2504 19.3559 25.3161 19.3559C25.3819 19.3559 25.3819 19.2901 25.4477 19.2901C25.3819 19.2901 25.3819 19.2901 25.3161 19.2243C25.2504 19.2243 25.1846 19.2243 25.1188 19.1585C25.053 19.1585 24.9872 19.0927 24.9214 19.0927C24.8556 19.0927 24.8556 19.1585 24.7898 19.1585C24.724 19.1585 24.6583 19.1585 24.5925 19.2243C24.5267 19.2901 24.5267 19.3559 24.5267 19.4217C24.5267 19.4875 24.6583 19.5532 24.5925 19.619C24.5267 19.6848 24.4609 19.619 24.3951 19.619C24.3293 19.6848 24.3951 19.7506 24.3951 19.8822C24.3293 19.948 24.2635 19.948 24.2635 20.0138V20.1454C24.2635 20.2111 24.1977 20.2111 24.1319 20.2111H24.0004C23.9346 20.2111 23.9346 20.2769 23.8688 20.2769H23.7372C23.6714 20.2769 23.6056 20.2111 23.5398 20.2111H23.4083C23.3425 20.2111 23.3425 20.2769 23.2767 20.3427C23.2109 20.4085 23.2109 20.4085 23.1451 20.4085C23.0793 20.4085 23.0793 20.3427 23.0135 20.3427H22.8819C22.8161 20.3427 22.7504 20.4743 22.6846 20.4085C22.6188 20.4085 22.553 20.3427 22.553 20.3427L22.4214 20.2111C22.4214 20.1454 22.3556 20.1454 22.3556 20.1454L22.2898 20.2111C22.224 20.2111 22.224 20.2111 22.1583 20.2769C22.0925 20.3427 22.1583 20.3427 22.0925 20.4085V20.7375C21.9609 20.6717 21.9609 20.7375 22.0267 20.7375ZM29.0661 20.0138C29.0661 20.0796 29.0661 20.0796 29.1319 20.0796C29.1977 20.0796 29.1977 20.0138 29.1977 19.948V19.8164C29.1977 19.7506 29.1977 19.7506 29.1319 19.7506C29.0661 19.7506 29.0661 19.7506 29.0661 19.8164V20.0138ZM27.3556 21.4611C27.3556 21.4611 27.4214 21.4611 27.4214 21.3954C27.4214 21.3296 27.3556 21.3296 27.2898 21.3296C27.224 21.3296 27.224 21.2638 27.1583 21.3296C27.0925 21.3296 27.0925 21.3296 27.0925 21.3954L27.0267 21.4611H27.3556ZM28.803 21.1322H28.9346C29.0004 21.1322 28.9346 21.198 29.0004 21.198H29.1319C29.1319 21.198 29.1977 21.1322 29.1319 21.1322C29.1319 21.0664 29.0661 21.0664 29.0004 21.0664V20.9348C29.0004 20.869 28.9346 20.8032 29.0004 20.8032H29.2635V20.7375C29.2635 20.6717 29.1977 20.6717 29.1977 20.6717C29.1977 20.6059 29.2635 20.6059 29.2635 20.6059V20.3427H29.1977C29.1319 20.3427 29.1319 20.4085 29.0661 20.4085C29.0004 20.4085 29.0661 20.3427 29.0004 20.2769C29.0004 20.2111 29.0004 20.2111 28.9346 20.2111C28.8688 20.2111 28.8688 20.2769 28.803 20.2769C28.7372 20.2769 28.7372 20.3427 28.7372 20.3427C28.7372 20.4085 28.7372 20.4085 28.6714 20.4743V20.6059L28.6056 20.6717C28.6056 20.7375 28.6714 20.7375 28.6714 20.7375C28.6714 20.8032 28.7372 20.8032 28.7372 20.869C28.7372 20.9348 28.803 20.9348 28.7372 21.0006C28.7372 21.0664 28.6714 21.0664 28.6714 21.1322L28.6056 21.198L28.5398 21.2638C28.6714 21.1322 28.7372 21.1322 28.803 21.1322ZM29.9214 21.2638C29.9872 21.3296 29.9872 21.1322 29.9872 21.1322H29.9214C29.8556 21.198 29.8556 21.198 29.9214 21.2638ZM27.8819 21.4611H27.7504C27.6846 21.4611 27.6188 21.3954 27.6188 21.4611V21.5269C27.6188 21.5269 27.553 21.5927 27.6188 21.5927C27.6188 21.6585 27.6846 21.6585 27.7504 21.6585H28.0135C28.0793 21.6585 28.1451 21.6585 28.1451 21.5927V21.5269C27.9477 21.4611 27.9477 21.4611 27.8819 21.4611ZM29.0004 21.3954C28.9346 21.3954 28.9346 21.3296 28.8688 21.3296C28.803 21.3296 28.803 21.3296 28.7372 21.3954V21.5269C28.803 21.5927 28.803 21.5269 28.8688 21.4611H29.0004C29.0661 21.4611 29.1319 21.5269 29.1319 21.4611V21.3954H29.0004ZM29.724 21.6585C29.7898 21.7243 29.8556 21.7243 29.9214 21.6585C29.9214 21.6585 29.9214 21.5927 29.9872 21.5927V21.4611H29.724V21.5269C29.6583 21.6585 29.6583 21.6585 29.724 21.6585ZM21.4346 22.119C21.5004 22.119 21.5661 22.119 21.6319 22.0532C21.6977 22.0532 21.6977 22.0532 21.6977 21.9875C21.6977 21.9217 21.7635 21.9217 21.6977 21.8559C21.6977 21.8559 21.6319 21.8559 21.5661 21.7901C21.5661 21.7901 21.5661 21.7243 21.5004 21.7243C21.4346 21.7243 21.4346 21.7901 21.4346 21.7901C21.3688 21.8559 21.303 21.8559 21.303 21.9217C21.303 21.9875 21.303 21.9875 21.3688 21.9875L21.4346 22.119Z" fill="#36A83A"/>
<path d="M20.5127 21.7241C20.5127 21.7899 20.5785 21.7241 20.6443 21.7241H20.7759V21.7899C20.7759 21.8557 20.7759 21.8557 20.8416 21.9215C20.8416 21.9873 20.9074 21.9873 20.9732 21.9873C21.039 22.053 21.039 22.1188 21.1048 22.1188C21.1706 22.1188 21.1706 22.053 21.1706 22.053V21.8557C21.1706 21.7899 21.1048 21.7899 21.039 21.7899L20.9074 21.7241V21.5267C20.9074 21.4609 20.8416 21.4609 20.7759 21.4609C20.7101 21.4609 20.7101 21.5267 20.6443 21.5267C20.5785 21.5267 20.5127 21.5925 20.5127 21.5925V21.7241ZM22.8153 24.1583H23.4732C23.539 24.1583 23.539 24.2241 23.6048 24.2241C23.6706 24.2241 23.8022 24.2899 23.868 24.2241C23.868 24.1583 23.868 24.1583 23.9337 24.0925C23.9337 24.0267 23.9995 23.9609 23.9337 23.9609C23.9337 23.8951 23.9337 23.8951 23.868 23.8951C23.8022 23.8294 23.8022 23.8294 23.7364 23.8294H23.6706C23.6048 23.8294 23.539 23.8951 23.4732 23.8951C23.4074 23.8951 23.4074 23.8294 23.3416 23.7636V23.632L23.2759 23.5662H23.0127C22.9469 23.5662 23.0127 23.5004 22.9469 23.5004C22.8811 23.4346 22.8153 23.5662 22.7495 23.5004V23.4346H22.618C22.5522 23.4346 22.5522 23.5662 22.4864 23.5662C22.4206 23.5662 22.4206 23.632 22.3548 23.632C22.2232 23.632 22.1574 23.5662 22.0916 23.5662C22.0259 23.5662 21.9601 23.5004 21.8943 23.5004C21.8285 23.5004 21.7627 23.5662 21.7627 23.5004C21.6969 23.5004 21.7627 23.3688 21.6969 23.3688C21.6311 23.303 21.4995 23.303 21.4337 23.303H21.1048C20.9732 23.303 20.9074 23.2373 20.8416 23.303C20.7759 23.3688 20.7759 23.4346 20.7101 23.5004V23.5662C20.6443 23.632 20.5785 23.5004 20.5785 23.5662V23.7636C20.6443 23.8294 20.6443 23.7636 20.7101 23.7636H20.8416C20.8416 23.7636 20.8416 23.8294 20.9074 23.8294C20.9074 23.8951 20.9074 23.8951 20.9732 23.8951C21.039 23.9609 21.1048 23.8951 21.1706 23.8951C21.2364 23.8951 21.3022 23.8951 21.368 23.9609C21.4337 23.9609 21.4337 24.0267 21.4995 24.0267H22.1574C22.2232 24.0267 22.2232 24.0925 22.289 24.0925H22.4206C22.5522 24.0925 22.5522 24.2241 22.6837 24.2241C22.6837 24.1583 22.7495 24.1583 22.8153 24.1583Z" fill="#36A83A"/>
<path d="M23.6711 23.4355H23.4737C23.4079 23.4355 23.2764 23.4355 23.2764 23.5013V23.5671C23.2764 23.6329 23.3422 23.6329 23.3422 23.6329H23.4737C23.5395 23.6329 23.5395 23.6329 23.6053 23.5671C23.6711 23.5671 23.6711 23.5013 23.6711 23.5013L23.7369 23.4355C23.8027 23.4355 23.7369 23.5013 23.6711 23.4355ZM24.2632 24.0277H23.9343C23.8685 24.0277 23.8685 24.0934 23.8685 24.0934C23.8685 24.1592 23.9343 24.1592 23.9343 24.1592L24.0001 24.225C24.0658 24.225 24.0658 24.1592 24.1316 24.1592H24.2632V24.0277ZM24.3948 24.3566C24.4606 24.3566 24.4606 24.4224 24.5264 24.3566C24.5922 24.3566 24.5922 24.2908 24.5922 24.225C24.5922 24.1592 24.6579 24.1592 24.6579 24.0934V23.9619C24.5922 23.8961 24.5922 23.8961 24.5264 23.9619L24.4606 24.0277C24.4606 24.0934 24.3948 24.0934 24.3948 24.1592L24.329 24.225V24.2908C24.2632 24.4224 24.329 24.3566 24.3948 24.3566ZM24.6579 24.4224C24.7237 24.4882 24.7895 24.4224 24.8553 24.4224C24.9211 24.4224 24.9869 24.3566 25.0527 24.3566H25.4474C25.5132 24.3566 25.5132 24.2908 25.579 24.2908C25.579 24.225 25.579 24.1592 25.5132 24.1592H25.2501C25.1843 24.1592 25.1843 24.0934 25.1185 24.0934C25.0527 24.0934 25.0527 24.0934 24.9869 24.1592L24.8553 24.2908C24.7895 24.3566 24.7895 24.3566 24.7237 24.3566C24.6579 24.3566 24.5922 24.4224 24.5922 24.4224C24.5922 24.3566 24.5922 24.4224 24.6579 24.4224ZM26.3685 24.3566C26.4343 24.3566 26.5001 24.2908 26.5658 24.2908H26.7632C26.829 24.2908 26.8948 24.3566 26.9606 24.2908V24.1592C26.8948 24.0934 26.8948 24.1592 26.829 24.1592C26.7632 24.1592 26.6974 24.225 26.6316 24.225C26.5658 24.225 26.5001 24.2908 26.4343 24.2908C26.3685 24.2908 26.3685 24.225 26.3685 24.225C26.3027 24.1592 26.2369 24.1592 26.1053 24.1592C26.0395 24.1592 26.0395 24.225 25.9737 24.225C25.9079 24.2908 25.8422 24.2908 25.8422 24.2908C25.7764 24.2908 25.7764 24.3566 25.7764 24.3566C25.7764 24.4224 25.7764 24.4224 25.8422 24.4224C25.9079 24.4882 25.9079 24.4224 25.9737 24.4224H26.2369C26.2369 24.4224 26.3027 24.4224 26.3685 24.3566Z" fill="#36A83A"/>
<path d="M25.5134 24.6846C25.5792 24.7504 25.5792 24.6846 25.645 24.7504C25.7108 24.7504 25.7108 24.8162 25.7766 24.8162C25.8424 24.8162 25.7766 24.882 25.8424 24.882H25.9739C26.0397 24.882 26.0397 24.8162 26.0397 24.7504V24.6188C25.9739 24.553 25.9739 24.6188 25.9081 24.553C25.8424 24.553 25.9081 24.4873 25.8424 24.4215H25.7108C25.645 24.4215 25.5792 24.3557 25.5792 24.4215V24.4873C25.4476 24.6188 25.5134 24.6188 25.5134 24.6846ZM26.895 25.2109C26.9608 25.2109 26.9608 25.1451 27.0266 25.1451C27.0266 25.0794 27.0924 25.0794 27.0266 25.0136H26.8292C26.7634 25.0136 26.6976 25.0794 26.6976 25.1451C26.7634 25.2109 26.8292 25.2109 26.895 25.2109ZM27.1581 25.0136C27.2239 25.0136 27.2239 24.9478 27.2897 24.9478L27.4213 24.8162C27.4871 24.7504 27.5529 24.8162 27.6187 24.7504C27.6845 24.6846 27.6187 24.6846 27.6845 24.6188C27.7502 24.553 27.7502 24.6188 27.816 24.553L27.9476 24.4215C28.0134 24.4215 28.0792 24.4215 28.145 24.3557C28.2108 24.3557 28.2766 24.2899 28.3424 24.2241C28.4081 24.1583 28.5397 24.2241 28.5397 24.1583C28.5397 24.0925 28.4739 24.0267 28.4081 24.0267C28.3424 23.9609 28.2766 24.0267 28.2108 24.0267C28.145 24.0267 28.0792 24.0267 28.0134 24.0925C27.8818 24.0925 27.816 24.0925 27.7502 24.1583C27.6845 24.1583 27.6845 24.2241 27.6187 24.2899C27.5529 24.3557 27.5529 24.3557 27.5529 24.4215C27.4871 24.4873 27.4871 24.4873 27.4213 24.4873C27.3555 24.553 27.2897 24.553 27.2239 24.6188C27.1581 24.6846 27.0924 24.6188 27.0924 24.6846C27.0266 24.7504 27.0924 24.7504 27.0924 24.8162V24.9478C27.0924 25.0136 27.1581 25.0136 27.1581 25.0136ZM27.1581 24.0267C27.0924 24.0267 27.0924 24.0925 27.0924 24.0925V24.1583C27.0924 24.1583 27.1581 24.1583 27.1581 24.2241C27.2239 24.2241 27.2897 24.2899 27.2897 24.2241V24.0925C27.2239 24.0267 27.1581 24.0267 27.1581 24.0267ZM28.0134 23.9609C28.145 24.0267 28.145 23.9609 28.2108 23.9609H28.3424C28.4081 23.9609 28.4739 23.9609 28.4739 23.8951V23.8294C28.4739 23.7636 28.4081 23.8294 28.3424 23.8294C28.2766 23.8294 28.2108 23.8294 28.145 23.8951C28.0134 23.8951 27.9476 23.9609 28.0134 23.9609ZM27.0924 22.6451H26.9608C26.895 22.6451 26.895 22.7109 26.8292 22.7109C26.7634 22.7767 26.7634 22.7767 26.7634 22.8425C26.7634 22.9083 26.8292 22.9083 26.8292 22.9741C26.8292 22.9741 26.8292 23.0399 26.895 23.0399H27.0266C27.0924 23.0399 27.0924 23.0399 27.1581 22.9741V22.6451H27.2897V22.5136C27.2897 22.5136 27.2239 22.4478 27.1581 22.5136C27.0924 22.5794 27.0924 22.6451 27.0924 22.6451ZM28.2766 21.7899V21.7241C28.2108 21.7241 28.145 21.7241 28.145 21.7899C28.2108 21.7899 28.2766 21.8557 28.2766 21.7899ZM28.2766 22.1188C28.3424 22.1846 28.2766 22.2504 28.3424 22.2504L28.4081 22.3162C28.4739 22.3162 28.5397 22.382 28.6055 22.382C28.6713 22.382 28.6713 22.382 28.6713 22.3162V22.2504C28.6713 22.1846 28.6713 22.1846 28.6055 22.1188H28.4739C28.4081 22.1188 28.3424 22.053 28.3424 22.1188C28.3424 22.053 28.2766 22.053 28.2766 22.1188ZM30.0529 22.382V22.2504C30.0529 22.1846 29.9871 22.1188 29.9871 22.1188C29.9213 22.053 29.8555 22.053 29.7897 22.053C29.7239 22.053 29.7239 21.9873 29.6581 21.9873H29.395C29.3292 21.9873 29.2634 21.9215 29.1976 21.9873C29.1318 21.9873 29.1318 21.9873 29.066 22.053C29.0002 22.1188 29.066 22.1188 29.066 22.1846V22.2504C29.1318 22.3162 29.1318 22.2504 29.1976 22.2504H29.6581C29.7239 22.2504 29.7239 22.3162 29.7239 22.3162C29.7897 22.382 29.7897 22.382 29.8555 22.382C29.9213 22.4478 29.9871 22.4478 30.0529 22.382ZM30.2502 23.632C30.1845 23.632 30.1845 23.632 30.1187 23.6978L29.9871 23.8294C29.9213 23.8951 29.9213 23.8951 29.9213 23.9609C29.9213 24.0267 29.8555 24.0267 29.8555 24.0267C29.8555 24.0267 29.8555 24.0925 29.9213 24.0925H30.0529L30.1845 23.9609C30.2502 23.8951 30.316 23.8951 30.316 23.8294C30.3818 23.7636 30.3818 23.7636 30.3818 23.6978C30.316 23.632 30.2502 23.632 30.2502 23.632ZM30.7766 22.9741C30.7108 23.0399 30.7108 23.1057 30.7108 23.1057H30.7766C30.8424 23.1057 30.7766 23.1057 30.7766 22.9741C30.8424 22.9741 30.9081 22.9741 30.8424 22.9083C30.7766 22.9083 30.7766 22.9741 30.7766 22.9741ZM31.3687 22.9741C31.3029 22.9741 31.3687 23.0399 31.3029 23.0399L31.1713 23.1715C31.1055 23.2373 31.1055 23.2373 31.0397 23.3688C31.0397 23.4346 30.9739 23.5004 31.0397 23.5662C31.1055 23.632 31.1055 23.5662 31.1713 23.5662C31.2371 23.5662 31.2371 23.5004 31.3029 23.4346C31.3687 23.3688 31.3687 23.3688 31.3687 23.303C31.4345 23.2373 31.5002 23.1057 31.4345 23.0399C31.4345 23.0399 31.4345 22.9741 31.3687 22.9741ZM18.145 21.4609L18.2108 21.5267H18.2766C18.2766 21.4609 18.2766 21.4609 18.2108 21.3951C18.2108 21.3294 18.2108 21.2636 18.145 21.2636H18.0134C17.9476 21.2636 17.9476 21.3294 18.0134 21.3951C18.0792 21.3951 18.0792 21.3951 18.145 21.4609ZM26.1713 23.303L26.2371 23.2373C26.2371 23.1715 26.2371 23.1715 26.1713 23.1715C26.1055 23.1715 26.1055 23.1715 26.1055 23.2373C26.0397 23.303 26.0397 23.303 26.1055 23.3688C26.1055 23.3688 26.1055 23.303 26.1713 23.303ZM18.4739 21.7241C18.4739 21.7899 18.4739 21.7899 18.5397 21.7899C18.6055 21.7899 18.6713 21.7241 18.6055 21.6583C18.6055 21.6583 18.4739 21.6583 18.4739 21.7241ZM13.0792 10.5399C13.145 10.5399 13.2108 10.5399 13.2766 10.4741V10.3425C13.2766 10.2767 13.2108 10.2767 13.2108 10.2109C13.2108 10.1451 13.2108 10.1451 13.145 10.0794V9.88199H13.0792C13.0134 9.88199 13.0134 9.94778 12.9476 9.94778C12.8818 9.94778 12.8818 9.88199 12.816 9.8162C12.7502 9.75041 12.6845 9.75041 12.6187 9.75041C12.5529 9.75041 12.5529 9.68462 12.4871 9.68462H12.3555C12.2897 9.68462 12.2239 9.75041 12.1581 9.75041C12.0924 9.75041 12.0266 9.68462 11.9608 9.68462C11.895 9.61883 11.895 9.61883 11.895 9.55304C11.8292 9.42146 11.7634 9.42146 11.6976 9.42146C11.6318 9.42146 11.6318 9.42146 11.566 9.35567C11.5002 9.35567 11.4345 9.35567 11.3687 9.28989C11.3029 9.2241 11.2371 9.2241 11.1713 9.15831C11.1055 9.09252 11.1055 9.09252 11.0397 9.09252H10.9081C10.8424 9.09252 10.8424 9.02673 10.7766 9.02673C10.7108 9.02673 10.7108 9.02673 10.645 8.96094C10.5792 8.96094 10.5792 8.89515 10.5134 8.89515C10.5134 8.82936 10.5134 8.76357 10.4476 8.76357H10.1845C10.1187 8.76357 10.0529 8.76357 9.9213 8.69778C9.85551 8.63199 9.78972 8.5662 9.72393 8.5662C9.65814 8.5662 9.59235 8.5662 9.52657 8.50041H9.46078V8.5662C9.46078 8.63199 9.39499 8.63199 9.3292 8.69778C9.26341 8.76357 9.13183 8.76357 9.19762 8.89515C9.19762 8.96094 9.26341 8.96094 9.26341 8.96094H9.39499C9.46078 8.96094 9.52657 9.02673 9.52657 9.09252C9.59235 9.15831 9.59235 9.15831 9.59235 9.2241C9.65814 9.28988 9.65814 9.28989 9.72393 9.28989C9.78972 9.28989 9.78972 9.28988 9.85551 9.35567C9.9213 9.42146 9.98709 9.42146 10.0529 9.48725C10.1187 9.55304 10.1187 9.61883 10.1845 9.68462L10.2502 9.75041H10.4476C10.5134 9.75041 10.5134 9.8162 10.5792 9.8162C10.645 9.88199 10.7108 9.8162 10.7766 9.88199V10.0136C10.8424 10.0794 10.8424 10.0136 10.9081 10.0136H11.0397C11.1055 10.0136 11.1055 10.0136 11.1713 10.0794C11.2371 10.1451 11.2371 10.2109 11.3029 10.2767C11.3687 10.3425 11.4345 10.3425 11.5002 10.3425H11.6976C11.7634 10.3425 11.7634 10.2767 11.8292 10.2767H11.9608C12.0266 10.2767 12.0266 10.3425 12.0924 10.4083L12.2239 10.5399C12.2897 10.5399 12.3555 10.6057 12.4213 10.6057C12.4871 10.6057 12.4871 10.5399 12.5529 10.5399H12.7502C12.816 10.5399 12.8818 10.6057 12.9476 10.6057C13.0134 10.4741 13.0134 10.5399 13.0792 10.5399ZM18.3424 12.5794H18.2108L18.145 12.6451C18.145 12.7109 18.0792 12.7767 18.0792 12.9083V13.0399C18.0792 13.1057 18.145 13.1057 18.2108 13.1057C18.2766 13.1715 18.2108 13.2373 18.2108 13.303V13.3688C18.2108 13.4346 18.2108 13.4346 18.2766 13.5004C18.3424 13.5662 18.4081 13.5662 18.4081 13.5662V13.7636C18.4081 13.8294 18.3424 13.8294 18.3424 13.8951C18.3424 13.9609 18.4081 13.9609 18.4081 13.9609C18.4739 13.9609 18.4739 13.8951 18.5397 13.8294C18.6055 13.7636 18.6055 13.7636 18.6713 13.7636C18.7371 13.7636 18.7371 13.8294 18.8029 13.8294H18.9345C19.0002 13.8294 19.0002 13.9609 19.066 13.8951C19.1318 13.8951 19.066 13.8294 19.066 13.7636C19.1318 13.6978 19.1318 13.7636 19.1976 13.7636H19.5266C19.5924 13.7636 19.5266 13.8294 19.5924 13.8951L19.7239 14.0267C19.7897 14.0925 19.8555 14.0925 19.8555 14.1583V14.3557C19.8555 14.4215 19.9213 14.4873 19.9871 14.553C20.0529 14.6188 20.0529 14.6188 20.1187 14.6188C20.1845 14.6846 20.1845 14.6846 20.2502 14.6846C20.316 14.7504 20.2502 14.8162 20.2502 14.882C20.2502 14.9478 20.316 14.9478 20.316 15.0136V15.1451C20.316 15.2109 20.2502 15.2109 20.2502 15.2767H20.1845C20.1845 15.2767 20.1845 15.3425 20.2502 15.3425H20.3818C20.4476 15.3425 20.4476 15.4083 20.5134 15.4083C20.5792 15.4083 20.5792 15.3425 20.5792 15.3425C20.5792 15.2767 20.5792 15.2109 20.645 15.2109C20.7108 15.2109 20.7108 15.2767 20.7766 15.2767H20.9739V14.882C20.9739 14.8162 20.9081 14.8162 20.9081 14.8162V14.6188C20.9081 14.553 20.8424 14.553 20.8424 14.553C20.7766 14.553 20.7766 14.553 20.7108 14.4873L20.5792 14.3557C20.5134 14.2899 20.5134 14.2899 20.4476 14.2899L20.316 14.1583C20.3818 14.0267 20.316 14.0267 20.316 13.9609C20.2502 13.8951 20.2502 13.8951 20.2502 13.8294V13.6978C20.1845 13.632 20.1845 13.6978 20.1187 13.632C20.0529 13.5662 20.0529 13.5004 19.9871 13.4346C19.9871 13.3688 19.9213 13.303 19.9213 13.2373C19.9213 13.1715 19.9213 13.1057 19.8555 13.0399C19.7897 12.9741 19.7239 12.9741 19.6581 12.9083V12.7109C19.5924 12.6451 19.5266 12.6451 19.4608 12.6451C19.395 12.6451 19.395 12.7109 19.395 12.7109C19.3292 12.7109 19.2634 12.7109 19.1976 12.6451C19.1318 12.5794 19.066 12.5794 19.0002 12.5136V12.382C19.0002 12.3162 18.9345 12.3162 18.8687 12.2504C18.8029 12.1846 18.8029 12.1846 18.8029 12.1188L18.6713 11.9873H18.5397C18.4739 12.053 18.5397 12.1188 18.5397 12.1846C18.5397 12.2504 18.6055 12.2504 18.6055 12.3162V12.382C18.5397 12.5794 18.4739 12.5794 18.3424 12.5794ZM31.3029 17.8425C31.2371 17.8425 31.2371 17.8425 31.2371 17.9083V17.9741C31.2371 18.0399 31.2371 18.0399 31.3029 18.1057C31.3687 18.1057 31.3687 18.0399 31.3687 17.9741C31.3687 17.9083 31.4345 17.9083 31.4345 17.9083C31.3687 17.8425 31.3029 17.8425 31.3029 17.8425ZM15.1845 11.9873C15.1845 11.9215 15.0529 11.9873 15.0529 11.9215C14.9871 11.8557 15.0529 11.7899 15.0529 11.7241C15.0529 11.6583 15.0529 11.5925 14.9871 11.5925H14.8555C14.7897 11.5925 14.8555 11.7899 14.7897 11.7899H14.7239C14.6581 11.7899 14.6581 11.7241 14.6581 11.6583C14.6581 11.5925 14.5924 11.5925 14.5924 11.5267V11.4609C14.5924 11.3951 14.6581 11.3951 14.7239 11.3951C14.7897 11.3951 14.7897 11.3951 14.8555 11.3294C14.9213 11.2636 14.8555 11.1978 14.8555 11.1978C14.8555 11.1978 14.9213 11.1978 14.9213 11.132V11.0662C14.8555 11.0004 14.7897 11.0662 14.7239 11.0662H14.1318C14.066 11.0662 14.0002 11.132 13.9345 11.0662C13.8687 11.0004 13.9345 11.0004 13.9345 10.9346C13.9345 10.8688 14.0002 10.803 13.9345 10.803C13.9345 10.803 13.8687 10.7373 13.8029 10.7373L13.7371 10.803C13.6713 10.803 13.6713 10.7373 13.6713 10.7373C13.6055 10.6715 13.6055 10.6715 13.5397 10.6715H13.4081C13.3424 10.6715 13.3424 10.7373 13.3424 10.803C13.3424 10.8688 13.3424 10.8688 13.4081 10.9346C13.4081 11.0004 13.4739 11.0004 13.5397 11.0004C13.6055 11.0004 13.6055 11.0662 13.6713 11.0662C13.7371 11.0662 13.8029 11.0662 13.8029 11.132C13.8029 11.1978 13.8029 11.1978 13.7371 11.1978C13.6713 11.2636 13.6055 11.1978 13.6055 11.2636C13.5397 11.3294 13.5397 11.3294 13.5397 11.3951C13.5397 11.4609 13.5397 11.4609 13.6055 11.5267C13.6713 11.5925 13.6713 11.5925 13.7371 11.5925C13.8029 11.6583 13.8687 11.6583 13.8687 11.6583C13.8687 11.7241 13.8029 11.7241 13.8029 11.7899C13.8029 11.8557 13.8029 11.8557 13.8687 11.8557L14.0002 11.9873C14.066 12.053 14.066 12.1188 14.1318 12.1846V12.5136L14.0002 12.5794H14.2634C14.3292 12.5794 14.3292 12.5794 14.3292 12.5136V12.4478H14.4608C14.5266 12.4478 14.5266 12.382 14.5924 12.382H14.7239C14.7897 12.3162 14.7239 12.3162 14.7239 12.2504V12.1188H14.8555C14.9213 12.1188 14.9213 12.1846 14.9213 12.1846C14.9871 12.2504 14.9213 12.2504 14.9871 12.3162C14.9871 12.382 15.0529 12.382 15.0529 12.4478C15.1187 12.5794 15.0529 12.6451 15.0529 12.7109C15.0529 12.7767 15.0529 12.8425 15.1187 12.9741L15.2502 13.1057V13.0399C15.2502 12.9741 15.316 12.9083 15.316 12.8425V12.6451C15.316 12.5794 15.3818 12.4478 15.3818 12.4478C15.316 12.382 15.316 12.382 15.316 12.3162C15.1845 12.053 15.2502 11.9873 15.1845 11.9873ZM26.3029 7.77673C26.3029 7.71094 26.3029 7.71094 26.3029 7.77673C26.2371 7.71094 26.1713 7.71094 26.1713 7.71094C26.1055 7.71094 26.1055 7.71094 26.1055 7.77673C26.1055 7.77673 26.0397 7.84252 26.1055 7.84252H26.3029V7.77673ZM11.7634 17.8425C11.7634 17.7767 11.6976 17.7767 11.6318 17.7109C11.566 17.6451 11.566 17.5794 11.566 17.5794C11.566 17.5136 11.5002 17.5136 11.5002 17.4478V17.2504C11.5002 17.1846 11.4345 17.1846 11.3687 17.1846C11.3029 17.1188 11.3687 17.1188 11.3029 17.053C11.3029 16.9873 11.3029 16.9873 11.2371 16.9215H11.0397V17.053C11.0397 17.1188 11.1055 17.1188 11.1055 17.1188V17.7767C11.1055 17.8425 11.0397 17.8425 11.0397 17.9083C11.0397 17.9741 11.1055 18.0399 11.1055 18.1057V18.1715C11.1055 18.2373 11.0397 18.2373 11.0397 18.2373C11.0397 18.303 11.0397 18.303 11.1055 18.3688C11.1055 18.4346 11.1055 18.4346 11.1713 18.4346H11.4345C11.5002 18.4346 11.5002 18.4346 11.566 18.3688L11.6976 18.2373C11.7634 18.2373 11.7634 18.2373 11.8292 18.1715V18.0399C11.8292 17.9741 11.8292 17.9741 11.7634 17.8425Z" fill="#36A83A"/>
<path d="M21.0399 14.2897C20.9741 14.2897 20.9741 14.2897 20.9084 14.2239L20.7768 14.0923H20.711C20.6452 14.0923 20.6452 14.0923 20.6452 14.0265C20.5794 13.9607 20.5794 13.9607 20.5794 13.8949V13.7634H20.4478V13.6976C20.4478 13.6318 20.382 13.6318 20.3163 13.6318V13.3686C20.3163 13.3028 20.2505 13.237 20.3163 13.1713C20.3163 13.1055 20.3163 13.1055 20.382 13.1055L20.5136 12.9739C20.5136 12.9081 20.5136 12.9081 20.5794 12.8423V12.7107C20.6452 12.6449 20.711 12.7107 20.711 12.7107C20.7768 12.7107 20.7768 12.6449 20.8426 12.5792C20.9084 12.5134 20.9741 12.5134 21.0399 12.5134L20.9741 12.4476H20.711C20.6452 12.4476 20.5794 12.3818 20.5136 12.3818C20.4478 12.3818 20.4478 12.316 20.382 12.316C20.3163 12.2502 20.2505 12.2502 20.2505 12.1844C20.2505 12.1186 20.3163 12.1186 20.3163 12.1186V12.0528C20.2505 11.987 20.1847 12.0528 20.1189 12.0528C20.0531 12.0528 19.9873 12.0528 19.9215 11.987C19.8557 11.9213 19.8557 11.8555 19.7899 11.8555C19.7241 11.8555 19.7241 11.9213 19.7241 11.987L19.5926 12.1186C19.5268 12.1186 19.5268 12.1844 19.461 12.1844C19.3952 12.1844 19.3294 12.2502 19.2636 12.2502H19.132C19.0663 12.2502 19.0005 12.316 18.9347 12.316C18.8689 12.316 18.8689 12.2502 18.8031 12.2502C18.7373 12.2502 18.7373 12.316 18.7373 12.3818C18.8031 12.4476 18.8689 12.4476 18.8689 12.5134C18.9347 12.5792 18.9347 12.5792 18.9347 12.6449C19.0005 12.7107 19.0663 12.7107 19.0663 12.7765V12.9081C19.0663 12.9739 19.132 12.9739 19.2636 13.0397C19.3294 13.1055 19.3952 13.1055 19.461 13.1055C19.5268 13.1055 19.5268 13.0397 19.5268 13.0397C19.5926 13.0397 19.6584 13.0397 19.7241 13.1055V13.3028C19.7241 13.3686 19.8557 13.3686 19.9215 13.4344C19.9873 13.5002 19.9215 13.566 19.9873 13.6318C19.9873 13.6976 19.9873 13.7634 20.0531 13.8292C20.0531 13.8949 20.0531 13.9607 20.1847 14.0265C20.2505 14.0923 20.3163 14.0265 20.3163 14.0923C20.382 14.1581 20.3163 14.1581 20.3163 14.2239C20.3163 14.2897 20.382 14.2897 20.382 14.3555C20.4478 14.3555 20.4478 14.4213 20.5136 14.4213L20.6452 14.5528C20.711 14.6186 20.711 14.6186 20.7768 14.6186L20.9084 14.7502C20.9741 14.7502 20.9741 14.7502 21.0399 14.816C21.1057 14.816 21.1057 14.8818 21.1057 14.8818V15.0792C21.1057 15.1449 21.1715 15.1449 21.1715 15.1449V15.6055C21.2373 15.6713 21.3031 15.6713 21.3031 15.737C21.3031 15.737 21.2373 15.8028 21.3031 15.8028C21.3031 15.8686 21.3689 15.8028 21.3689 15.8686V16.3292C21.3689 16.3292 21.3689 16.3949 21.3031 16.3949L21.2373 16.3292C21.1715 16.3292 21.1715 16.3949 21.1715 16.3949H21.0399C20.9741 16.3949 21.0399 16.5265 20.9741 16.5265H20.8426C20.7768 16.5923 20.8426 16.5923 20.8426 16.6581V16.7897H20.711C20.6452 16.7897 20.5794 16.8555 20.5794 16.8555V16.9213H20.5136C20.4478 16.9213 20.4478 16.987 20.382 16.987C20.4478 16.987 20.4478 17.0528 20.4478 17.0528C20.5136 17.0528 20.5136 17.1186 20.5794 17.1186C20.5794 17.1186 20.6452 17.1186 20.6452 17.1844V17.2502C20.6452 17.316 20.5794 17.316 20.5794 17.3818V17.6449C20.6452 17.7107 20.6452 17.6449 20.711 17.6449C20.7768 17.6449 20.7768 17.5792 20.8426 17.5792C20.8426 17.5134 20.8426 17.5134 20.9084 17.5134H21.0399C21.0399 17.5134 21.1057 17.5134 21.1057 17.4476C21.1057 17.4476 21.1057 17.3818 21.1715 17.3818C21.2373 17.316 21.2373 17.316 21.3031 17.316C21.3689 17.2502 21.3689 17.2502 21.3689 17.1844C21.3689 17.1186 21.3689 17.1186 21.4347 17.0528C21.5005 16.987 21.5663 17.0528 21.632 16.987C21.6978 16.987 21.7636 16.987 21.8952 16.9213L22.0268 16.7897L22.1584 16.6581C22.2241 16.5923 22.2899 16.5265 22.2899 16.4607V16.3949C22.2899 16.3292 22.3557 16.2634 22.3557 16.1976V16.066C22.3557 16.0002 22.2899 16.0002 22.2899 15.9344C22.2899 15.8686 22.2899 15.8028 22.2241 15.6713C22.2241 15.6055 22.1584 15.6055 22.0926 15.5397C22.0268 15.4739 22.0926 15.4081 22.0268 15.2765C22.0268 15.2107 21.961 15.2107 21.961 15.1449C21.8952 15.0792 21.8952 15.0792 21.8294 15.0792C21.7636 15.0134 21.8294 14.9476 21.7636 14.8818C21.6978 14.816 21.6978 14.8818 21.632 14.816C21.5663 14.7502 21.5005 14.7502 21.4347 14.6844C21.0399 14.3555 21.0399 14.2897 21.0399 14.2897ZM23.8031 19.2239H24.0005C24.0005 19.2239 24.0663 19.1581 24.0005 19.0923C24.0005 19.0265 24.0663 19.0265 24.0663 19.0265H24.132C24.1978 19.0265 24.1978 18.8949 24.1978 18.8949C24.1978 18.8949 24.132 18.8949 24.132 18.9607C24.0663 18.9607 24.0005 18.8949 23.9347 18.9607C23.8689 19.0265 23.9347 19.0265 23.8689 19.0923C23.8689 19.0923 23.8031 19.1581 23.7373 19.1581H23.6715V19.2239C23.8031 19.0923 23.7373 19.1581 23.8031 19.2239ZM24.8557 17.5792C24.9215 17.5792 24.9215 17.5792 24.9873 17.5134C25.0531 17.5134 25.1189 17.5134 25.1189 17.4476C25.1189 17.3818 25.1189 17.3818 25.1847 17.316C25.1847 17.316 25.2505 17.316 25.3163 17.2502C25.382 17.2502 25.382 17.1844 25.4478 17.1844V16.9213C25.5136 16.8555 25.5794 16.9213 25.5794 16.8555C25.5794 16.8555 25.5794 16.7897 25.6452 16.7239C25.6452 16.6581 25.711 16.6581 25.711 16.5923C25.711 16.5265 25.711 16.4607 25.6452 16.4607C25.6452 16.3949 25.5794 16.3949 25.5136 16.3949C25.4478 16.3949 25.5136 16.5265 25.5136 16.5923C25.4478 16.6581 25.4478 16.6581 25.382 16.6581C25.382 16.6581 25.382 16.7239 25.3163 16.7239C25.3163 16.7897 25.2505 16.7897 25.1847 16.8555C25.1189 16.9213 25.0531 16.9213 25.0531 16.987C24.9873 17.0528 24.9873 17.1186 24.9215 17.1844C24.8557 17.2502 24.7899 17.2502 24.7899 17.316C24.7899 17.5134 24.7899 17.5792 24.8557 17.5792ZM25.711 16.0002L25.6452 16.066C25.6452 16.1318 25.6452 16.1318 25.711 16.1318H25.7768C25.8426 16.1318 25.8426 16.1318 25.9084 16.066C25.9084 16.0002 25.9084 16.0002 25.8426 15.9344C25.8426 16.0002 25.7768 16.0002 25.711 16.0002ZM26.3031 15.8686V15.737C26.3031 15.6713 26.2373 15.6713 26.1715 15.6713C26.1057 15.6055 26.0399 15.6055 25.9741 15.6055H25.8426C25.8426 15.6055 25.8426 15.6713 25.9084 15.6713L25.9741 15.737L26.0399 15.8028C26.0399 15.8686 26.1057 15.8686 26.1057 15.9344C26.1057 16.0002 25.9741 16.0002 26.0399 16.066C26.0399 16.1318 26.1057 16.066 26.1715 16.066C26.2373 16.066 26.2373 16.066 26.3031 16.0002V15.8686Z" fill="#36A83A"/>
<path d="M25.5129 14.8814C25.5787 14.9472 25.5787 15.013 25.6445 15.0788C25.7103 15.0788 25.7761 15.0788 25.8419 15.1446C25.9077 15.1446 25.9735 15.1446 25.9735 15.2104V15.4077C25.9735 15.4735 25.9735 15.4735 26.0393 15.4735C26.105 15.5393 26.1708 15.4735 26.2366 15.4735H26.4998C26.5656 15.4735 26.5656 15.5393 26.6314 15.5393C26.6314 15.5393 26.6314 15.6051 26.6972 15.6051C26.7629 15.6051 26.7629 15.6709 26.8287 15.6709C26.8945 15.6709 26.8287 15.5393 26.8287 15.5393C26.8945 15.5393 26.8945 15.5393 26.9603 15.6051C27.0261 15.6709 27.0261 15.6709 27.0261 15.7367C27.0261 15.7367 26.9603 15.7367 26.9603 15.8025V15.8683C26.9603 15.9341 27.0919 15.8683 27.0919 15.9341C27.0919 15.9998 27.0261 15.9998 27.0261 15.9998C27.0261 16.0656 26.9603 16.0656 26.9603 16.1314C26.9603 16.1972 27.0261 16.1314 27.0919 16.1972H27.2235C27.2893 16.1972 27.355 16.263 27.355 16.1972V15.9341C27.355 15.8683 27.4208 15.8683 27.4208 15.8683C27.4208 15.8025 27.355 15.8025 27.2893 15.7367C27.2893 15.6709 27.2235 15.6709 27.2235 15.6051V15.4735C27.2235 15.4077 27.1577 15.4735 27.0919 15.4077C27.0261 15.4077 27.0261 15.3419 27.0261 15.3419C26.9603 15.3419 26.9603 15.4077 26.8945 15.4077C26.8287 15.4077 26.8945 15.3419 26.8287 15.3419C26.7629 15.2762 26.6972 15.3419 26.6314 15.3419H26.434V15.2104C26.434 15.1446 26.3682 15.2104 26.3024 15.1446C26.2366 15.0788 26.3024 15.013 26.3024 14.9472C26.3024 14.8814 26.2366 14.8814 26.2366 14.8156L26.3024 14.7498C26.3682 14.6841 26.3682 14.6183 26.3682 14.5525L26.4998 14.4209C26.5656 14.3551 26.5656 14.2893 26.5656 14.2235C26.5656 14.1577 26.4998 14.1577 26.4998 14.0919L26.434 14.0262C26.434 13.9604 26.3682 13.9604 26.3682 13.8946C26.3024 13.8288 26.3682 13.6972 26.3024 13.6972C26.2366 13.6314 26.1708 13.6972 26.105 13.6972H25.8419C25.7761 13.763 25.7761 13.8288 25.7103 13.8946V14.4209C25.7103 14.4867 25.8419 14.5525 25.7761 14.5525C25.7103 14.5525 25.7103 14.4867 25.6445 14.4867C25.5787 14.4867 25.5129 14.4867 25.5129 14.5525C25.5129 14.6183 25.5129 14.6841 25.5787 14.6841C25.4472 14.7498 25.4472 14.8156 25.5129 14.8814ZM26.8945 16.4604V16.3946C26.8945 16.3288 26.8287 16.3288 26.7629 16.263C26.6972 16.263 26.6314 16.3288 26.5656 16.263C26.4998 16.1972 26.5656 16.1972 26.5656 16.1314C26.5656 16.0656 26.4998 15.9341 26.434 15.9998C26.3682 16.0656 26.434 16.0656 26.434 16.1314C26.434 16.1972 26.4998 16.1972 26.4998 16.263C26.4998 16.3946 26.434 16.3946 26.434 16.5262C26.434 16.5919 26.3682 16.6577 26.434 16.6577H26.5656C26.6314 16.6577 26.6972 16.5919 26.7629 16.5919C26.8287 16.5919 26.8945 16.5919 26.8945 16.4604Z" fill="#36A83A"/>
<path d="M27.7496 16.527C27.8154 16.4612 27.7496 16.3955 27.7496 16.2639C27.7496 16.1981 27.7496 16.1323 27.6839 16.0665C27.6839 16.0007 27.6838 16.0007 27.6181 15.9349C27.5523 15.8691 27.5523 15.8691 27.4865 15.8691C27.4207 15.8691 27.4207 15.9349 27.4207 15.9349C27.3549 16.0007 27.3549 16.0665 27.3549 16.1981C27.3549 16.2639 27.3549 16.3297 27.2891 16.3955C27.2891 16.4612 27.2891 16.4612 27.2233 16.527C27.1575 16.5928 27.1575 16.527 27.0917 16.5928H26.8944C26.8286 16.5928 26.8286 16.5928 26.7628 16.6586C26.697 16.7244 26.7628 16.7902 26.7628 16.7902C26.7628 16.856 26.697 16.856 26.6312 16.9218C26.6312 16.9876 26.5654 16.9876 26.5654 17.0534V17.1191C26.5654 17.1849 26.6312 17.1849 26.697 17.2507C26.8944 17.3165 26.8944 17.3165 26.8944 17.3823C26.9602 17.3823 27.026 17.3823 27.0917 17.3165V17.1849C27.0917 17.1191 27.1575 17.1191 27.1575 17.0534C27.2233 16.9876 27.2233 16.9876 27.2233 16.9218C27.2891 16.856 27.2891 16.7902 27.2891 16.7244C27.2891 16.6586 27.2891 16.5928 27.3549 16.5928C27.4207 16.5928 27.4207 16.6586 27.4207 16.7244C27.4865 16.7902 27.4207 16.9218 27.5523 16.9218C27.6181 16.9218 27.6181 16.9218 27.6839 16.856C27.7496 16.7902 27.6839 16.7902 27.6839 16.7244C27.6839 16.6586 27.6181 16.6586 27.6181 16.5928C27.6838 16.527 27.7496 16.527 27.7496 16.527Z" fill="#36A83A"/>
<path d="M27.3553 16.9219C27.2895 16.9219 27.2895 16.9877 27.2895 16.9877V17.0535C27.2895 17.1192 27.3553 17.1192 27.4211 17.1192C27.4868 17.1192 27.4868 17.1192 27.5526 17.0535C27.6184 17.0535 27.6184 16.9877 27.6842 16.9877C27.6842 16.9219 27.6842 16.9219 27.6184 16.8561C27.4868 16.8561 27.4211 16.9219 27.3553 16.9219ZM26.6974 18.3035C26.6316 18.3035 26.6316 18.3035 26.5658 18.3692C26.5658 18.435 26.6316 18.435 26.6974 18.435C26.7632 18.435 26.8289 18.3692 26.8289 18.3692C26.8289 18.2377 26.7632 18.3035 26.6974 18.3035ZM26.3026 18.5008C26.2368 18.5666 26.3026 18.5666 26.3026 18.5666H26.4342L26.5 18.5008C26.5 18.435 26.3684 18.435 26.3026 18.5008ZM28.4079 19.1587C28.4079 19.2245 28.4079 19.2903 28.4737 19.2903C28.5395 19.2903 28.5395 19.2245 28.5395 19.2245V19.1587C28.4737 19.0271 28.4079 19.0929 28.4079 19.1587ZM28.2763 18.3692C28.3421 18.3692 28.2763 18.2377 28.3421 18.1719V17.7771C28.3421 17.7113 28.2763 17.7113 28.2763 17.6456C28.2763 17.5798 28.2105 17.5798 28.1447 17.5798C28.1447 17.514 28.2105 17.514 28.1447 17.4482C28.1447 17.3824 28.0789 17.3166 28.0789 17.3166L27.9474 17.185L27.8158 17.0535H27.6842C27.6184 17.1192 27.6842 17.1192 27.6842 17.185C27.6842 17.2508 27.6184 17.2508 27.6184 17.3166L27.5526 17.4482L27.4868 17.514C27.4211 17.514 27.4211 17.5798 27.3553 17.514C27.2895 17.514 27.3553 17.3824 27.2895 17.3824H27.1579C27.0921 17.3824 27.0263 17.3824 26.9605 17.4482C26.8947 17.514 26.9605 17.5798 26.8947 17.5798C26.8289 17.6456 26.7632 17.5798 26.7632 17.6456C26.6974 17.6456 26.6316 17.7113 26.6316 17.7771C26.5658 17.8429 26.6316 17.8429 26.6316 17.9087V18.0403C26.6316 18.1061 26.6974 18.1061 26.7632 18.1061C26.8289 18.1061 26.8289 18.0403 26.8947 18.0403C26.9605 17.9745 26.8947 17.8429 26.9605 17.8429H27.0921C27.1579 17.8429 27.1579 17.9087 27.2237 17.9087C27.2895 17.9087 27.2895 17.8429 27.3553 17.8429H27.6842C27.75 17.8429 27.8158 17.8429 27.8158 17.9087C27.8158 17.9745 27.75 17.9745 27.6842 17.9745C27.6184 17.9745 27.6184 17.9745 27.6184 18.0403C27.5526 18.1061 27.6184 18.1719 27.6184 18.2377C27.6184 18.3035 27.6184 18.3692 27.6842 18.435C27.75 18.5008 27.8158 18.5008 27.8816 18.5008C27.9474 18.5666 28.0132 18.5666 28.0789 18.5666C28.1447 18.5666 28.1447 18.6324 28.2105 18.5666C28.2763 18.5666 28.2763 18.435 28.2105 18.3692C28.2105 18.3035 28.1447 18.3035 28.1447 18.2377C28.1447 18.1719 28.0789 18.1061 28.1447 18.0403C28.1447 17.9745 28.2105 17.9745 28.2763 17.9745C28.3421 17.9745 28.3421 18.0403 28.3421 18.0403V18.1719C28.2105 18.3692 28.2105 18.3692 28.2763 18.3692ZM15.8421 15.6061C15.8421 15.5403 15.8421 15.5403 15.7763 15.5403C15.7105 15.5403 15.7105 15.5403 15.6447 15.6061C15.5789 15.6719 15.5789 15.6719 15.5789 15.7377V16.264C15.5789 16.3298 15.6447 16.3956 15.6447 16.3956C15.6447 16.4613 15.7105 16.4613 15.7763 16.3956C15.8421 16.3956 15.7763 16.3298 15.7763 16.264V15.8035C15.7763 15.7377 15.8421 15.6719 15.8421 15.6061ZM15.5789 16.5929L15.6447 16.6587H15.7105C15.7105 16.6587 15.6447 16.6587 15.6447 16.5929H15.5789ZM16.3026 18.0403C16.3026 18.0403 16.2368 17.9745 16.1711 17.9745V18.1061C16.1711 18.1719 16.2368 18.1719 16.3026 18.1719V18.0403ZM8.86842 7.18503C8.80263 7.18503 8.73684 7.18503 8.67105 7.25082C8.60526 7.25082 8.67105 7.31661 8.60526 7.31661C8.53947 7.3824 8.47368 7.31661 8.34211 7.31661C8.21053 7.31661 8.14474 7.18503 8.07895 7.25082C8.01316 7.31661 8.01316 7.3824 8.01316 7.44819V7.77714C8.01316 7.84293 8.07895 7.90872 8.14474 7.97451L8.27632 8.10609H8.40789C8.47368 8.10609 8.47368 8.10609 8.53947 8.17188C8.60526 8.23766 8.47368 8.30345 8.40789 8.30345H8.34211C8.27632 8.36924 8.34211 8.36924 8.34211 8.43503V8.56661C8.34211 8.6324 8.40789 8.6324 8.34211 8.69819C8.40789 8.76398 8.34211 8.76398 8.27632 8.76398C8.27632 8.76398 8.27632 8.82977 8.21053 8.82977C8.21053 8.89556 8.27632 8.96135 8.21053 8.96135C8.14474 9.02714 8.14474 8.96135 8.07895 8.96135C8.01316 8.96135 8.01316 9.02714 8.01316 9.09293V9.22451C8.01316 9.2903 7.94737 9.2903 7.94737 9.35609C7.88158 9.42187 7.88158 9.42188 7.81579 9.42188C7.75 9.48766 7.75 9.48766 7.75 9.55345V9.61924C7.75 9.68503 7.75 9.68503 7.68421 9.75082H7.42105C7.35526 9.75082 7.35526 9.8824 7.28947 9.81661C7.28947 9.81661 7.22368 9.81661 7.22368 9.75082V9.68503H7.15789C7.09211 9.68503 7.09211 9.75082 7.09211 9.75082C7.09211 9.81661 7.15789 9.8824 7.09211 9.8824C7.09211 9.94819 7.02632 9.8824 6.96053 9.94819C6.89474 10.014 6.89474 10.014 6.89474 10.0798C6.89474 10.1456 6.89474 10.2113 6.96053 10.2771C7.02632 10.2771 7.09211 10.2113 7.15789 10.2113C7.22368 10.2113 7.22368 10.2113 7.22368 10.2771C7.28947 10.3429 7.15789 10.4087 7.15789 10.4087C7.15789 10.4745 7.22368 10.4745 7.28947 10.4745C7.28947 10.7377 7.35526 10.7377 7.35526 10.8035C7.42105 10.8692 7.42105 10.935 7.42105 11.0008C7.42105 11.0666 7.48684 11.0666 7.48684 11.1324C7.48684 11.1982 7.55263 11.1982 7.55263 11.264C7.55263 11.3298 7.48684 11.3298 7.42105 11.3298C7.35526 11.3298 7.35526 11.264 7.28947 11.264C7.22368 11.264 7.22368 11.3298 7.15789 11.3298H6.76316C6.69737 11.3298 6.69737 11.3956 6.69737 11.4613C6.63158 11.5271 6.56579 11.5271 6.5 11.5929C6.56579 11.5929 6.56579 11.6587 6.63158 11.6587L6.69737 11.7245C6.76316 11.7903 6.76316 11.7903 6.82895 11.7903L6.89474 11.8561H7.15789C7.22368 11.8561 7.35526 11.7903 7.35526 11.8561C7.35526 11.9219 7.28947 11.9219 7.28947 11.9219C7.22368 12.0535 7.22368 12.0535 7.15789 12.0535H6.89474C6.82895 12.1192 6.89474 12.1192 6.96053 12.185L7.02632 12.2508L7.09211 12.3166C7.09211 12.3166 7.09211 12.3824 7.15789 12.3824C7.22368 12.4482 7.28947 12.4482 7.35526 12.514L7.48684 12.6456C7.48684 12.6456 7.48684 12.7113 7.55263 12.7113H7.68421C7.75 12.7113 7.81579 12.7113 7.88158 12.6456C7.94737 12.6456 8.01316 12.6456 8.01316 12.5798V12.3824C8.01316 12.3166 8.01316 12.3166 7.94737 12.3166L8.01316 12.185C8.01316 12.185 8.01316 12.1192 8.07895 12.1192C8.14474 12.1192 8.14474 12.185 8.14474 12.2508C8.14474 12.3166 8.21053 12.3166 8.21053 12.3166V12.514C8.21053 12.5798 8.27632 12.5798 8.34211 12.6456C8.34211 12.7113 8.40789 12.7771 8.34211 12.8429C8.34211 12.9087 8.27632 12.9087 8.27632 12.9745V13.1719C8.27632 13.2377 8.27632 13.3035 8.34211 13.3692C8.34211 13.435 8.40789 13.5008 8.40789 13.5666C8.40789 13.6324 8.40789 13.6982 8.47368 13.764C8.47368 13.8298 8.53947 13.8298 8.53947 13.8956C8.60526 14.0271 8.53947 14.0929 8.53947 14.2245V14.4219C8.60526 14.4877 8.60526 14.5535 8.67105 14.6192C8.73684 14.685 8.73684 14.7508 8.80263 14.8166C8.86842 14.8824 8.86842 14.9482 8.93421 15.014C9 15.0798 9 15.1456 9.06579 15.1456C9.13158 15.2113 9.19737 15.2113 9.19737 15.2771C9.26316 15.3429 9.19737 15.4087 9.26316 15.5403V15.6719C9.26316 15.7377 9.32895 15.7377 9.32895 15.8035V15.935C9.32895 16.0008 9.32895 16.0666 9.39474 16.1324C9.46053 16.1982 9.46053 16.1324 9.52632 16.1982C9.59211 16.264 9.59211 16.3298 9.65789 16.3956C9.78947 16.4613 9.78947 16.4613 9.78947 16.5929C9.85526 16.6587 9.85526 16.7245 9.92105 16.7903C9.98684 16.8561 9.98684 16.9219 9.98684 17.0535C10.0526 17.185 9.98684 17.2508 10.0526 17.3824C10.0526 17.4482 10.1184 17.4482 10.1842 17.4482C10.25 17.514 10.1842 17.5798 10.25 17.5798C10.3158 17.6456 10.3816 17.6456 10.4474 17.6456H10.5789C10.7105 17.6456 10.6447 17.514 10.7105 17.3824C10.7105 17.3166 10.7105 17.3166 10.7763 17.2508C10.8421 17.185 10.8421 17.185 10.9079 17.185C10.9079 17.185 10.9737 17.185 10.9737 17.1192V16.9877C10.9737 16.9877 11.0395 16.9877 11.0395 16.9219C11.0395 16.8561 10.9737 16.8561 11.0395 16.8561C11.0395 16.7903 11.1053 16.8561 11.1711 16.8561C11.2368 16.8561 11.2368 16.8561 11.3026 16.7903V16.6587C11.3026 16.5929 11.3026 16.5929 11.2368 16.5271V16.3298C11.2368 16.264 11.2368 16.1982 11.3026 16.1324C11.3026 16.0666 11.3684 16.0666 11.3684 16.0008C11.3684 15.935 11.4342 15.8692 11.4342 15.8035C11.4342 15.7377 11.3684 15.7377 11.3684 15.6719V15.3429C11.3684 15.2771 11.3684 15.2771 11.3026 15.2113C11.3026 15.0798 11.2368 15.014 11.3026 14.9482C11.3026 14.8824 11.3684 14.8824 11.3684 14.8166L11.5 14.7508C11.5658 14.7508 11.6316 14.8166 11.6316 14.7508C11.6974 14.7508 11.6316 14.685 11.6316 14.6192C11.6316 14.5535 11.6316 14.5535 11.6974 14.5535C11.7632 14.5535 11.7632 14.6192 11.8289 14.6192C11.8947 14.6192 11.8947 14.6192 11.8947 14.5535C11.9605 14.4877 12.0263 14.4877 12.0263 14.4219C12.0921 14.3561 12.0263 14.2903 12.0921 14.2903C12.0921 14.2245 12.1579 14.2245 12.1579 14.2245C12.1579 14.0271 12.1579 14.0271 12.2237 13.9613H12.2895V13.8298C12.2895 13.764 12.3553 13.764 12.3553 13.764H12.4868V13.6982C12.4868 13.6324 12.5526 13.6324 12.5526 13.6324L12.6184 13.5666C12.6184 13.5008 12.6184 13.5008 12.6842 13.435C12.6842 13.435 12.75 13.3692 12.8158 13.3692C12.8816 13.3692 12.8816 13.3035 12.8816 13.3035C12.9474 13.2377 12.9474 13.2377 13.0132 13.2377L13.1447 13.1061C13.2105 13.0403 13.2763 13.0403 13.3421 12.9745C13.4079 12.9087 13.4079 12.9087 13.4079 12.8429V12.4482L13.4737 12.3824C13.5395 12.3824 13.5395 12.3824 13.6053 12.3166C13.6711 12.3166 13.6711 12.2508 13.7368 12.2508C13.7368 12.2508 13.7368 12.3166 13.8026 12.3166C13.8684 12.3166 13.8684 12.2508 13.8684 12.2508H13.9342C13.9342 12.2508 14 12.2508 14 12.3166L14.0658 12.2508H14.1316V11.9219C14.1316 11.8561 14.0658 11.7903 14 11.7245L13.8684 11.5929L13.8026 11.5271C13.8026 11.4613 13.8684 11.4613 13.8684 11.3956C13.8684 11.3298 13.8026 11.3298 13.7368 11.3298C13.6711 11.3298 13.6711 11.3298 13.6053 11.264C13.6053 11.1982 13.5395 11.1982 13.5395 11.1324C13.5395 11.0666 13.6053 11.0666 13.6053 11.0008C13.6711 10.935 13.7368 11.0008 13.7368 10.935C13.7368 10.935 13.8026 10.935 13.8026 10.8692C13.8026 10.8035 13.7368 10.8035 13.6711 10.8035C13.6053 10.8035 13.6053 10.7377 13.5395 10.7377C13.4737 10.7377 13.4737 10.7377 13.4079 10.6719C13.4079 10.6061 13.3421 10.6061 13.3421 10.5403C13.3421 10.4745 13.3421 10.4087 13.4079 10.4087H13.5395C13.6053 10.4087 13.6711 10.4745 13.6711 10.4745C13.7368 10.4745 13.7368 10.5403 13.7368 10.5403L13.8026 10.4745C13.8684 10.4745 13.8684 10.4745 13.9342 10.5403C14 10.6061 13.9342 10.6061 13.9342 10.6719V10.8035C14 10.8692 14.0658 10.8035 14.1316 10.8035H14.7237C14.7895 10.8035 14.9211 10.7377 14.9211 10.8035V10.8692C14.9211 10.8692 14.8553 10.8692 14.8553 10.935C14.7895 11.0008 14.8553 11.0666 14.8553 11.0666C14.8553 11.0666 14.7895 11.0666 14.7237 11.1324C14.6579 11.1324 14.6579 11.1982 14.5921 11.1982V11.264C14.5921 11.3298 14.5921 11.3298 14.6579 11.3956C14.6579 11.4613 14.6579 11.5271 14.7237 11.5271H14.7895C14.8553 11.5271 14.7895 11.3298 14.8553 11.3298H14.9868C15.0526 11.3298 15.0526 11.3956 15.0526 11.4613C15.0526 11.5271 14.9868 11.5929 15.0526 11.6587C15.1184 11.7245 15.1842 11.6587 15.1842 11.7245V11.8561C15.1842 11.9219 15.1842 11.9219 15.25 11.9877V11.9219H15.3816L15.4474 11.8561C15.4474 11.7903 15.4474 11.7903 15.3816 11.7245C15.3816 11.6587 15.3158 11.6587 15.3158 11.6587C15.3158 11.5929 15.4474 11.5929 15.4474 11.5271V11.3956C15.4474 11.3298 15.3816 11.1982 15.4474 11.1324H15.5789C15.6447 11.1324 15.6447 11.264 15.7105 11.264C15.7763 11.264 15.7105 11.1982 15.7763 11.1324V11.0008C15.7763 10.935 15.8421 10.8692 15.7763 10.8035C15.7763 10.7377 15.7763 10.7377 15.7105 10.7377V10.6719C15.7105 10.6061 15.7763 10.6061 15.7763 10.6061C15.7763 10.5403 15.7763 10.5403 15.8421 10.4745V10.2771C15.8421 10.2113 15.8421 10.1456 15.9079 10.1456C15.9737 10.0798 16.0395 10.0798 16.1053 10.0798L16.2368 9.94819C16.3026 9.8824 16.4342 9.8824 16.4342 9.75082C16.4342 9.68503 16.4342 9.61924 16.3684 9.55345L16.3026 9.48766L16.2368 9.42188C16.5 9.48766 16.4342 9.42188 16.3684 9.42188H16.1711C16.0395 9.42188 15.9737 9.55345 15.8421 9.48766C15.7763 9.48766 15.7763 9.42188 15.7105 9.42188C15.6447 9.42188 15.6447 9.48766 15.5789 9.48766C15.5132 9.48766 15.4474 9.55345 15.3816 9.55345H14.7237C14.6579 9.55345 14.5921 9.55345 14.5263 9.61924C14.4605 9.68503 14.4605 9.68503 14.4605 9.75082C14.3947 9.81661 14.3289 9.75082 14.2632 9.75082H14.0658C14 9.81661 13.9342 9.81661 13.8684 9.81661C13.8026 9.81661 13.7368 9.8824 13.6711 9.8824C13.6053 9.8824 13.6053 9.81661 13.6053 9.75082C13.5395 9.68503 13.4737 9.75082 13.4079 9.75082C13.3421 9.75082 13.2763 9.75082 13.2105 9.81661H13.2763V10.014C13.2763 10.0798 13.2763 10.0798 13.3421 10.1456C13.3421 10.2113 13.4079 10.2113 13.4079 10.2771C13.4079 10.3429 13.4737 10.4087 13.4079 10.4087C13.4079 10.4745 13.2763 10.4745 13.2105 10.4745C13.1447 10.4745 13.1447 10.4087 13.0789 10.4087C13.0132 10.4087 13.0132 10.3429 12.8816 10.3429H12.6842C12.6184 10.3429 12.6184 10.4087 12.5526 10.4087C12.4868 10.4087 12.4211 10.4087 12.3553 10.3429C12.2895 10.3429 12.2895 10.2771 12.2237 10.2113C12.1579 10.1456 12.1579 10.0798 12.0921 10.0798H11.9605C11.8947 10.0798 11.8947 10.1456 11.8289 10.1456H11.6316C11.5658 10.1456 11.5 10.1456 11.4342 10.0798C11.3684 10.014 11.3684 9.94819 11.3026 9.8824C11.2368 9.81661 11.2368 9.81661 11.1711 9.81661H10.9079C10.8421 9.75082 10.9079 9.75082 10.9079 9.68503C10.8421 9.61924 10.7763 9.68503 10.7105 9.61924C10.6447 9.61924 10.6447 9.55345 10.5789 9.55345H10.3816C10.3816 9.55345 10.3158 9.55345 10.3158 9.48766C10.4474 9.55345 10.4474 9.48766 10.3816 9.42188C10.3158 9.35609 10.25 9.35609 10.1842 9.2903C10.1184 9.2903 10.1184 9.2903 10.0526 9.22451C9.98684 9.22451 9.98684 9.22451 9.92105 9.15872C9.85526 9.09293 9.85526 9.09293 9.85526 9.02714L9.72368 8.89556H9.59211C9.52632 8.89556 9.52632 8.82977 9.52632 8.82977C9.52632 8.76398 9.59211 8.69819 9.65789 8.6324L9.78947 8.50082V8.43503H9.85526C9.78947 8.36924 9.78947 8.23766 9.78947 8.17188C9.78947 8.10609 9.92105 8.10609 9.92105 8.0403C9.98684 7.97451 9.98684 7.90872 9.92105 7.84293C9.92105 7.77714 9.85526 7.77714 9.78947 7.77714C9.72368 7.71135 9.72368 7.64556 9.65789 7.57977C9.65789 7.44819 9.65789 7.44819 9.59211 7.3824C9.52632 7.31661 9.46053 7.31661 9.39474 7.25082C9.32895 7.18503 9.26316 7.11924 9.19737 7.11924C9.13158 7.11924 9.06579 7.11924 9 7.05345V7.11924C8.93421 7.11924 8.86842 7.11924 8.86842 7.18503ZM17.2895 13.8956L17.4211 14.0271C17.4868 14.0929 17.5526 14.0929 17.5526 14.1587C17.6184 14.2245 17.6184 14.2903 17.6842 14.3561L17.8816 14.5535C17.8816 14.6192 17.9474 14.6192 17.9474 14.685C17.9474 14.7508 17.8816 14.8166 17.8816 14.8824C17.8816 14.9482 17.8816 14.9482 17.8158 15.014C17.8158 15.0798 17.75 15.0798 17.75 15.1456C17.75 15.2113 17.8158 15.2113 17.8816 15.2771C17.9474 15.2771 17.9474 15.3429 18.0132 15.3429C18.0789 15.4087 18.0789 15.4087 18.1447 15.5403V15.7377C18.1447 15.8035 18.1447 15.8692 18.2105 15.8692C18.2105 15.935 18.2763 15.935 18.2763 16.0008C18.2763 16.0666 18.3421 16.1324 18.3421 16.1982V16.3956C18.3421 16.4613 18.2763 16.4613 18.2763 16.5271C18.2763 16.5929 18.2105 16.5929 18.2105 16.5929H18.0789V16.8561L18.0132 16.9219C18.0132 16.9877 18.0789 16.9877 18.1447 16.9877C18.1447 17.0535 18.0789 17.0535 18.0789 17.1192C18.0789 17.185 18.0132 17.185 18.0132 17.2508V17.5798C18.0132 17.6456 17.9474 17.6456 17.9474 17.7113H18.1447C18.1447 17.7113 18.1447 17.7771 18.2105 17.7771C18.2763 17.8429 18.2763 17.8429 18.3421 17.8429L18.4737 17.9745C18.2763 17.9745 18.3421 17.9745 18.3421 18.0403C18.3421 18.1061 18.4079 18.1061 18.4079 18.1061L18.4737 18.1719L18.5395 18.1061C18.6053 18.0403 18.5395 17.9745 18.6053 17.9745C18.6711 17.9745 18.6053 18.0403 18.6711 18.1061C18.7368 18.1719 18.8026 18.3035 18.8026 18.3035C18.8026 18.3035 18.8026 18.3692 18.8684 18.3692C18.9342 18.3692 18.9342 18.2377 18.9342 18.2377C18.9342 18.2377 19 18.1719 19.0658 18.2377C19.1316 18.2377 19.3289 18.3035 19.3289 18.3035V18.1719C19.2632 18.1061 19.2632 18.0403 19.1316 18.0403H18.9342C18.8684 18.0403 18.8684 17.9745 18.8026 17.9745C18.7368 17.9087 18.7368 17.9087 18.7368 17.8429C18.6711 17.7771 18.6711 17.7113 18.6711 17.6456C18.6053 17.5798 18.6053 17.514 18.5395 17.514L18.4079 17.3824V17.185C18.4079 17.185 18.4079 17.1192 18.3421 17.1192C18.2763 17.0535 18.2105 17.1192 18.1447 17.0535V16.9219C18.1447 16.8561 18.0789 16.8561 18.0789 16.7903V16.5271C18.0789 16.4613 18.1447 16.3956 18.1447 16.3298L18.2763 16.1982V15.4745L18.3421 15.4087C18.3421 15.4087 18.4079 15.4087 18.4079 15.3429H18.5395C18.6053 15.4087 18.5395 15.4087 18.5395 15.4745C18.5395 15.5403 18.4737 15.5403 18.5395 15.6061C18.5395 15.6719 18.6053 15.6719 18.6711 15.6719H18.8026C18.8684 15.6719 18.8684 15.6719 18.9342 15.7377C19 15.7377 19 15.8035 19 15.8692C19.0658 15.8692 19.0658 15.8692 19.1316 15.935H19.1974V15.8035C19.1974 15.7377 19.1316 15.7377 19.0658 15.7377C19.0658 15.6719 19.0658 15.6719 19 15.6061C19 15.5403 18.9342 15.4745 19 15.4745C19 15.4745 19.0658 15.4745 19.0658 15.4087H19.1316C19.1974 15.3429 19.1316 15.3429 19.1316 15.2771C19.1316 15.2113 19.1974 15.2113 19.2632 15.1456C19.3289 15.1456 19.3289 15.0798 19.3947 15.0798C19.4605 15.0798 19.4605 15.1456 19.5263 15.1456H20.0526C20.0526 15.0798 20.1184 15.0798 20.1184 15.014V14.8824C20.1184 14.8166 20.0526 14.8166 20.0526 14.7508V14.5535C20.0526 14.4877 19.9868 14.4877 19.9211 14.4877C19.8553 14.4877 19.8553 14.4219 19.7895 14.4219C19.7237 14.3561 19.7237 14.2903 19.6579 14.2245V14.0271C19.6579 13.9613 19.5921 13.9613 19.5263 13.8956C19.4605 13.8298 19.3947 13.8298 19.3947 13.764C19.3947 13.6982 19.3947 13.6324 19.3289 13.6324H18.8684V13.764C18.8026 13.8298 18.8026 13.6982 18.7368 13.6982H18.6053C18.5395 13.6982 18.5395 13.6324 18.4737 13.6324C18.4079 13.6324 18.4079 13.6982 18.3421 13.6982C18.2763 13.764 18.2763 13.8298 18.2105 13.8298C18.1447 13.8298 18.1447 13.8298 18.1447 13.764C18.1447 13.6982 18.1447 13.6982 18.2105 13.6324V13.435C18.2105 13.3692 18.1447 13.3692 18.0789 13.3692C18.3421 13.435 18.3421 13.3692 18.2763 13.3035V13.0403C18.2763 12.9745 18.2105 12.9745 18.1447 12.9745V12.8429C18.1447 12.7771 18.2105 12.7113 18.2105 12.5798C18.1447 12.6456 18.1447 12.6456 18.1447 12.7113C18.0789 12.7771 18.0132 12.7771 17.9474 12.8429C17.8816 12.9087 17.8816 12.9087 17.8158 12.9087C17.75 12.9745 17.75 12.9745 17.6184 13.0403C17.5526 13.0403 17.5526 13.0403 17.4868 13.1061C17.4211 13.1061 17.3553 13.0403 17.2895 13.0403C17.2237 13.1061 17.2237 13.1719 17.2237 13.2377V13.5008C17.2237 13.5008 17.1579 13.5008 17.1579 13.5666V13.6982C17.2237 13.764 17.2895 13.8298 17.2895 13.8956ZM30.9079 19.0929C30.9079 19.0271 30.9079 19.0271 30.8421 18.9613H30.7105V19.0271C30.7763 19.1587 30.9079 19.1587 30.9079 19.0929ZM8.53947 20.7377H8.67105C8.73684 20.6719 8.73684 20.6719 8.67105 20.6061L8.60526 20.5403C8.53947 20.5403 8.60526 20.6061 8.60526 20.6719C8.53947 20.6719 8.53947 20.6719 8.53947 20.7377Z" fill="#36A83A"/>
<path d="M13.605 10.2763C13.6707 10.3421 13.7365 10.3421 13.9339 10.3421H14.3944L14.2628 10.0789L14.1971 9.75L13.4076 9.81579C13.4076 9.81579 13.3418 10.0132 13.3418 10.0789C13.4734 10.1447 13.5392 10.2105 13.605 10.2763Z" fill="#36A83A"/>
</g>
</g>
</g>
<defs>
<clipPath id="clip0_26003_52640">
<rect width="38" height="25" fill="white" transform="translate(0 0.210938)"/>
</clipPath>
<clipPath id="clip1_26003_52640">
<rect width="38" height="25" fill="white" transform="translate(0 0.210938)"/>
</clipPath>
<clipPath id="clip2_26003_52640">
<rect width="25" height="25" fill="white" transform="translate(6.5 0.210938)"/>
</clipPath>
</defs>
</svg>
