<svg width="38" height="26" viewBox="0 0 38 26" fill="none" xmlns="http://www.w3.org/2000/svg">
<g clip-path="url(#clip0_26003_52596)">
<g clip-path="url(#clip1_26003_52596)">
<g clip-path="url(#clip2_26003_52596)">
<path d="M14.8552 0.210938H14.9868L15.1842 0.605674C15.3157 0.803043 15.6447 1.00041 15.9736 0.934622H16.6315C16.7631 0.868832 16.8947 0.803043 17.0263 0.803043C17.1578 0.803043 17.3552 0.737253 17.4868 0.737253V0.803043C17.3552 0.868832 17.421 1.00041 17.421 1.0662C17.4868 1.32936 17.6184 1.46094 18.0131 1.46094C18.0789 1.46094 18.2105 1.46094 18.2763 1.52673C18.4736 1.65831 18.8026 1.7241 18.8684 1.98725V2.05304C18.9999 2.18462 19.1315 2.25041 19.3289 2.38199C19.3947 2.38199 19.5263 2.3162 19.5263 2.3162C19.6578 2.51357 19.7894 2.38199 19.921 2.38199C20.0526 2.38199 20.2499 2.44778 20.3815 2.51357C20.5789 2.64515 20.7763 2.84252 20.9736 2.9741C21.1052 3.03988 21.1052 3.10567 21.0394 3.23725C20.9736 3.30304 20.9736 3.50041 21.171 3.5662C21.3684 3.63199 21.3684 3.76357 21.4999 3.89515C21.6315 3.96094 21.6315 4.09252 21.4999 4.15831C21.4342 4.2241 21.3684 4.2241 21.3026 4.28988C21.2368 4.35567 21.171 4.35567 21.171 4.42146L21.3026 4.55304C21.3026 4.48725 21.3684 4.42146 21.3684 4.35567C21.4342 4.2241 21.5657 4.15831 21.6973 4.2241C21.8289 4.28988 21.9605 4.35567 22.0921 4.48725L21.7631 4.88199L21.8289 4.94778L22.2894 4.68462C22.6184 4.94778 23.0131 5.01357 23.4736 5.07936V5.34252C23.5394 5.34252 23.6052 5.34252 23.671 5.27673H24.6578C24.9868 5.21094 25.3157 5.34252 25.5131 5.53989C25.7105 5.73725 25.9078 5.86883 26.1052 6.00041C26.3684 6.13199 26.4999 6.26357 26.6315 6.46094C26.7631 6.7241 26.6315 7.05304 26.4999 7.38199C26.4342 7.51357 26.4342 7.64515 26.3684 7.71094C26.3684 7.77673 26.3684 7.84252 26.3026 7.84252C26.1052 7.90831 26.0394 8.03989 25.9078 8.17146C25.6447 8.43462 25.3815 8.63199 25.3157 8.89515V9.15831C25.3157 9.2241 25.3815 9.35567 25.3815 9.42146V10.3425C25.2499 10.5399 25.1184 10.7373 25.0526 10.9346C24.921 11.132 24.8552 11.3951 24.8552 11.5925C24.8552 11.8557 24.5921 11.8557 24.4605 11.9873C24.1315 12.1846 23.671 12.1188 23.4078 12.382H23.3421C23.1447 12.5136 22.9473 12.5794 22.6842 12.7109C22.5526 12.7767 22.421 12.9083 22.2894 13.0399C22.2894 13.0399 22.2894 13.1057 22.2236 13.1715C22.0921 13.3688 22.1578 13.632 22.1578 13.8951C22.1578 13.9609 22.1578 14.0267 22.0921 14.0267C21.8289 14.2899 21.4999 14.4873 21.4342 14.8162C21.3684 14.8162 21.2368 14.882 21.171 14.882C21.1052 15.0794 21.0394 15.2109 20.9736 15.4083C20.9078 15.6057 20.8421 15.8688 20.5789 16.0004C20.4473 16.132 20.3157 16.2636 20.1184 16.3294C19.921 16.3951 19.7236 16.3294 19.5263 16.4609H19.4605C19.2631 16.3951 19.0657 16.3294 18.8684 16.3294H18.7368C18.7368 16.3951 18.7368 16.4609 18.8026 16.4609C18.8684 16.5267 18.9342 16.5267 19.0657 16.5267C19.1973 16.5925 19.2631 16.5925 19.1973 16.7241C19.1315 16.8557 19.1315 16.9873 19.3289 16.9873C19.4605 17.053 19.4605 17.1188 19.3947 17.2504L18.9999 17.6451C18.6052 17.9083 18.1447 18.1057 17.5526 18.0399C17.5526 18.1057 17.5526 18.1715 17.6184 18.2373V18.3688C17.6184 18.4346 17.5526 18.5662 17.5526 18.632C17.5526 18.7636 17.4868 18.8294 17.3552 18.8951C17.2236 18.8951 17.0921 18.8951 16.9605 18.8294C16.8947 18.8294 16.7631 18.7636 16.6315 18.6978C16.6315 18.8951 16.6973 18.9609 16.6973 19.0925C16.6973 19.2241 16.7631 19.2899 16.8947 19.3557C16.9605 19.3557 17.0263 19.2899 17.1578 19.2899C17.2236 19.3557 17.2894 19.4215 17.2236 19.553C17.1578 19.6188 17.0921 19.6188 16.9605 19.553H16.7631L16.8947 19.7504C16.4342 19.8162 16.3684 19.9478 16.3684 20.1451C16.3684 20.2767 16.3684 20.4083 16.171 20.4741C16.0394 20.5399 15.9078 20.6057 15.8421 20.6715C15.6447 20.803 15.5789 20.9346 15.6447 21.132C15.7105 21.3294 15.8421 21.3951 16.1052 21.4609C16.2368 21.4609 16.2368 21.5267 16.2368 21.5925C16.2368 21.6583 16.171 21.7241 16.1052 21.7899C15.9078 22.053 15.5789 22.2504 15.5131 22.5794L15.4473 22.6451C15.1842 22.9083 14.9868 23.1057 15.1184 23.5004C15.1842 23.632 15.2499 23.6978 15.3157 23.8294C15.2499 23.8294 15.1842 23.7636 15.1184 23.7636C15.0526 23.7636 14.9868 23.7636 14.921 23.8294L15.0526 23.9609H15.1842C15.3157 23.9609 15.3815 24.0925 15.2499 24.1583L15.1842 24.2241H15.2499C15.3157 24.2899 15.3815 24.3557 15.3815 24.4215C15.4473 24.6846 15.6447 24.8162 16.0394 24.882C16.171 24.882 16.2368 24.882 16.3684 24.9478V25.0136C16.0394 25.0794 15.7105 25.2767 15.3157 25.1451C15.3157 25.2109 15.3157 25.2767 15.3815 25.2767V25.2109L15.0526 25.0136V25.2109H14.9868L14.6578 24.882L14.5921 25.0794C14.5263 24.9478 14.4605 24.7504 14.1315 24.882V24.8162L14.3289 24.6846V24.4873C14.4605 24.553 14.5263 24.6188 14.5921 24.6846V24.4215H14.6578L14.7236 24.6846H14.7894C14.7894 24.553 14.7894 24.3557 14.9868 24.2899H14.8552C14.7894 24.2899 14.7236 24.2241 14.6578 24.2241C14.7236 24.1583 14.7236 24.0925 14.7894 24.0925C14.8552 24.0925 14.8552 24.0267 14.921 23.9609C14.5921 24.0267 14.5263 24.0925 14.5263 24.2899C14.5263 24.4873 14.4605 24.553 14.2631 24.4873H14.1315V24.6846C14.0657 24.6846 13.9999 24.6846 13.9999 24.6188C13.9342 24.553 13.9342 24.4873 13.8684 24.4215L13.9342 24.3557C13.9342 24.2241 13.9999 24.1583 14.1973 24.2241C14.3289 24.2899 14.3947 24.1583 14.3289 24.0267L13.671 24.2241L13.6052 24.1583C13.671 24.0925 13.7368 23.9609 13.8026 23.9609C13.9342 23.8951 14.0657 23.8951 14.2631 23.8951V23.8294C13.9999 23.6978 13.8026 23.8294 13.5394 23.9609V23.7636L13.8684 23.632L13.7368 23.4346L13.6052 23.632C13.5394 23.5662 13.5394 23.5662 13.4736 23.5662C13.4736 23.5004 13.4078 23.5004 13.4078 23.4346L13.5394 23.303C13.4736 23.303 13.4078 23.2373 13.3421 23.303C13.2105 23.303 13.0789 23.1715 13.1447 23.1057C13.3421 22.9741 13.2763 22.7109 13.4078 22.5136V22.382H13.3421C13.3421 22.4478 13.3421 22.5136 13.2763 22.5794C13.2763 22.6451 13.2105 22.6451 13.1447 22.6451C13.0131 22.5794 12.9473 22.5136 13.0789 22.382L13.2763 22.1846C13.2763 22.1188 13.2763 22.1188 13.3421 22.053H13.2763L13.1447 22.1846H13.0789C13.0789 22.1188 13.0789 21.9873 13.0131 21.9215H13.2763L13.3421 21.8557C13.1447 21.7899 13.2105 21.6583 13.3421 21.5925C13.3421 21.5925 13.4078 21.5267 13.4078 21.4609C13.4078 21.4609 13.3421 21.3951 13.2763 21.3951C13.2105 21.3951 13.1447 21.3294 13.0789 21.3294C12.9473 21.2636 13.0131 21.2636 13.0789 21.1978V20.9346C13.2105 20.8688 13.2763 20.803 13.4078 20.7373L13.2763 20.5399L13.3421 20.4741C13.4078 20.5399 13.4736 20.5399 13.4736 20.6057C13.4736 20.6715 13.4736 20.7373 13.4078 20.803C13.2763 20.9346 13.3421 21.0004 13.5394 21.0662C13.4736 20.9346 13.4736 20.803 13.671 20.803V20.4083C13.7368 20.1451 13.7368 19.8162 13.8026 19.553C13.8684 19.4215 13.8026 19.3557 13.7368 19.2241C13.5394 19.3557 13.5394 19.4873 13.5394 19.6188V19.8162C13.5394 19.9478 13.4736 20.0136 13.2763 19.9478V19.7504C13.3421 19.6188 13.2763 19.4873 13.4078 19.3557C13.4736 19.2899 13.4078 19.0925 13.4736 18.9609C13.4736 18.8294 13.6052 18.632 13.6052 18.5004V18.2373C13.5394 18.0399 13.5394 17.9083 13.6052 17.7767C13.7368 17.5136 13.8026 17.3162 13.8684 17.053C13.9342 16.8557 13.9342 16.5925 13.9999 16.3951C14.1315 16.0004 14.1973 15.6057 14.1315 15.2109C14.1315 15.1451 14.1973 15.0136 14.1973 14.9478C14.2631 14.7504 14.2631 14.6188 14.2631 14.4215V13.9609L14.4605 12.8425V12.3162C14.5921 11.9215 14.6578 11.5925 14.5921 11.1978C14.5263 11.0004 14.6578 10.7373 14.3947 10.5399C14.0657 10.2767 13.7368 10.0136 13.2763 9.8162C12.9473 9.68462 12.8815 9.42146 12.6842 9.2241V9.15831C12.6184 9.02673 12.6184 8.89515 12.5526 8.76357C12.421 8.5662 12.2894 8.36883 12.3552 8.17146C12.3552 7.90831 12.2236 7.71094 11.9605 7.64515C12.0263 7.44778 11.9605 7.44778 11.8947 7.38199C11.6973 7.05304 11.6315 6.65831 11.171 6.46094C11.1052 6.39515 11.0394 6.32936 11.0394 6.26357C11.2368 6.13199 11.0394 6.00041 10.9736 5.93462V5.73725C11.171 5.60567 11.171 5.4741 11.4342 5.40831C11.4999 5.40831 11.4999 5.34252 11.4999 5.27673H11.3684C11.3026 5.14515 11.171 5.07936 11.171 5.01357C11.1052 4.94778 11.1052 4.88199 11.1052 4.8162C11.1052 4.75041 11.171 4.68462 11.171 4.61883C11.171 4.55304 11.2368 4.55304 11.2368 4.48725C11.3684 4.28989 11.4342 4.15831 11.4999 4.02673C11.4999 4.02673 11.5657 3.96094 11.6315 3.96094C11.7631 3.96094 11.7631 3.89515 11.8289 3.76357C11.8289 3.63199 11.8947 3.50041 12.0921 3.43462C12.2894 3.36883 12.421 3.03988 12.3552 2.90831C12.3552 2.77673 12.2894 2.57936 12.2894 2.44778C12.2894 2.25041 12.2894 2.05304 12.1578 1.85567C12.6842 1.26357 13.2763 0.605674 14.1973 0.342516C14.2631 0.539885 14.2631 0.737253 14.1315 0.934622L14.3289 1.13199H14.4605V0.868832C14.3947 0.605674 14.3947 0.539885 14.6578 0.474095C14.7894 0.408306 14.921 0.342516 14.8552 0.210938ZM18.4078 23.303L18.0789 23.632H17.9473V23.5004C17.9473 23.3688 18.1447 23.2373 18.4078 23.303ZM18.3421 23.632C18.4736 23.5662 18.5394 23.4346 18.671 23.4346C18.7368 23.4346 18.8026 23.4346 18.9342 23.5004C18.8684 23.5662 18.8684 23.632 18.7368 23.6978C18.671 23.632 18.5394 23.632 18.3421 23.632Z" fill="#36A83A"/>
</g>
</g>
</g>
<defs>
<clipPath id="clip0_26003_52596">
<rect width="38" height="25" fill="white" transform="translate(0 0.210938)"/>
</clipPath>
<clipPath id="clip1_26003_52596">
<rect width="38" height="25" fill="white" transform="translate(0 0.210938)"/>
</clipPath>
<clipPath id="clip2_26003_52596">
<rect width="25" height="25" fill="white" transform="translate(6.5 0.210938)"/>
</clipPath>
</defs>
</svg>
