<svg width="60" height="60" viewBox="0 0 60 60" fill="none" xmlns="http://www.w3.org/2000/svg">
<g clip-path="url(#clip0_26003_93458)">
<path d="M46.8612 56.2996C47.5145 56.2996 47.515 56.2998 48.1683 55.6465H47.5151C46.8618 55.6465 46.8612 55.6463 46.8612 56.2996C46.8612 55.6463 46.8613 55.6465 46.208 55.6465C46.208 55.6465 46.2078 56.2996 46.8612 56.2996Z" fill="#36A83A"/>
<path d="M45.5542 48.4597C44.9009 48.4597 45.5544 47.1533 44.9011 47.1533C44.9011 46.5 44.2479 45.8464 44.2479 45.193L43.5939 43.8867C42.2873 43.8867 40.3277 44.5399 39.021 44.5399C37.7144 45.1932 37.0607 45.1933 37.0607 45.8466C37.0607 46.4999 36.4077 47.1533 35.7544 47.1533C35.1011 47.1533 35.1012 46.4998 35.1012 46.4998H29.8743V50.4199V53.6865C29.8743 54.3399 30.5275 54.3395 30.5275 54.9929H31.8346C32.488 54.9929 32.4876 54.3395 33.141 54.9929H33.7941L34.4481 54.3397H36.4076C37.0609 54.3397 37.0607 53.6865 37.0607 53.6865H38.3679C39.0212 53.6865 39.0209 53.0331 39.6742 52.3798H40.3273C40.9807 52.3798 40.9811 51.7263 41.6345 51.7263H42.2876C42.2876 51.7263 42.9408 51.7264 42.9408 51.0731C42.9408 51.0731 43.5939 51.0733 43.5939 50.4199V49.7664C44.2473 49.1131 44.9009 49.113 45.5542 48.4597Z" fill="#36A83A"/>
<path d="M15.9434 25.8748C15.9434 25.3924 16.064 24.91 16.064 24.4276C16.064 23.8246 16.3052 23.4628 16.4258 22.8598V22.1361C16.4258 21.8949 16.5464 21.6537 16.5464 21.5331C16.5464 21.0507 16.5464 20.5683 16.4258 20.0859C16.4258 19.7241 16.9082 19.8447 17.1494 19.9653C17.5112 20.2065 17.873 20.5683 18.3554 20.4477C18.8378 20.3271 19.3202 19.8447 19.6821 19.6035C20.1645 19.2417 20.6469 18.8799 21.2499 18.6387C21.3705 19.1211 21.6117 19.7241 21.8529 20.2065C21.6117 20.2065 21.7323 20.4477 21.8529 20.4477C22.0941 20.4477 22.3353 20.4477 21.9735 20.8095C21.0087 21.4125 20.0439 21.6537 18.9584 22.0156L20.6469 23.8246C20.5263 23.9452 20.0439 23.9452 19.9233 24.0658C19.8026 24.1864 19.9233 24.5482 19.8027 24.6688C19.5614 24.91 18.9584 24.6688 18.7172 25.0306C18.3554 25.3924 18.2348 25.9954 17.7524 26.116C17.3906 26.2366 16.4258 25.9954 15.9434 25.8748Z" fill="#36A83A"/>
<path d="M42.2881 34.7404L42.9412 35.3936H46.2079C46.2079 35.3936 46.861 35.3937 46.861 34.7404C46.861 34.0871 46.8617 34.0872 47.515 34.0872C48.1683 34.0872 48.1681 33.4338 48.1681 32.7805C48.8215 32.7805 48.8213 32.127 48.8213 32.127V32.7805C48.8213 32.7805 49.4745 32.7804 49.4745 33.4337V34.7404C48.8211 35.3937 48.8213 34.7404 48.8213 34.7404V36.0471C48.8213 36.7004 49.4746 36.047 48.8213 36.7003H48.1681C48.8215 36.7003 48.1681 38.0068 48.1681 38.6602C48.1681 39.3135 48.1683 39.3137 47.515 39.3137H43.5944L42.9412 38.6602L42.2881 38.007V34.7404Z" fill="#36A83A"/>
<path d="M1.12793 5.34074C1.78125 4.68742 1.12857 4.68734 1.78189 4.03402C1.12857 4.03402 1.78189 4.03418 1.78189 3.38086H4.39454C5.04786 4.03418 5.04834 4.03402 5.70166 4.03402V4.68758H3.08821L2.43505 5.34074C2.43505 5.34074 1.78189 5.34059 1.78189 5.99391L1.12793 6.64747C1.12793 6.64747 1.12857 5.99391 1.78189 5.99391C1.78189 5.99391 2.43505 5.99407 2.43505 5.34074C1.78173 5.34074 1.12793 5.99407 1.12793 5.34074Z" fill="#36A83A"/>
<path d="M1.78223 7.95419V7.30063L2.43539 6.64747H7.00832H6.35516C6.35516 5.99415 7.66148 6.64723 7.66148 5.99391H6.35516C6.35516 5.99391 6.355 5.34074 7.00832 5.34074H9.62177L10.2749 4.68758C10.2749 4.68758 10.9281 4.68734 10.9281 4.03402C11.5814 4.03402 11.5819 3.38086 12.2352 3.38086H15.5018C15.5018 3.38086 15.5017 4.03402 16.155 4.03402H17.4613L18.1153 4.68758H18.7684C18.7684 4.68758 19.4216 4.68742 19.4216 5.34074H23.9945C24.6479 5.34074 24.6483 4.68758 25.3016 4.68758H26.608C26.608 4.68758 27.2611 4.03426 27.2611 4.68758H28.5683V5.34074L29.2214 5.99391V6.64747H29.8746L30.5277 7.30063C30.5277 7.30063 29.8746 6.64731 29.8746 7.30063V7.95419H29.2214V9.26052C29.2214 9.26052 29.2213 9.91408 29.8746 9.91408V10.5672C29.8746 11.2206 29.8744 10.5675 30.5277 11.2208V12.5271C29.8744 12.5271 29.8746 13.1804 29.8746 12.5271V11.874H27.2611C27.2611 11.874 26.608 12.5273 26.608 11.874H24.6485C23.9952 11.874 23.3417 12.5271 22.035 12.5271H20.7279C20.7279 12.5271 20.0748 11.8738 20.0748 12.5271C19.4214 12.5271 18.7684 13.1804 18.7684 12.5271H18.1153V13.1807H17.4613V14.4874H16.8081V13.1807C16.8081 13.1807 17.4615 13.1804 16.8081 12.5271H15.5018C15.5018 12.5271 14.8487 12.5273 14.8487 11.874C14.1953 11.874 14.1949 12.5271 13.5415 12.5271C13.5415 12.5271 13.5417 13.1804 12.8884 12.5271H11.5821C10.9287 12.5271 10.9281 11.874 10.9281 11.874C10.2748 11.874 10.2751 11.2208 9.62177 11.2208H8.96861V11.874H7.66148C7.66148 11.874 7.66164 11.2208 7.00832 11.2208C7.00832 11.2208 6.35516 11.2206 6.35516 10.5672L5.702 11.2208H4.39488H5.04884H3.74171C3.08839 10.5675 3.74155 11.2208 4.39488 11.2208C3.74155 11.8741 4.39504 10.5672 3.74171 10.5672C3.74171 10.5672 4.39504 10.5674 3.74171 9.91408H3.08855C3.08855 9.91408 3.08871 9.26075 2.43539 9.91408H1.78223C2.43555 9.91408 1.78223 9.26052 1.78223 9.26052V9.91408C1.78223 9.26075 2.43539 9.91408 2.43539 9.91408C2.43539 9.91408 1.78223 9.91384 1.78223 9.26052H2.43539V8.60735L3.08855 7.95419C2.43523 7.30087 1.78223 7.95419 1.78223 7.95419Z" fill="#36A83A"/>
<path d="M21.249 18.6379C22.0932 18.1555 22.9375 17.7937 23.7817 17.1907C24.0229 17.0701 24.2641 16.8289 24.5053 16.5877C24.7465 16.1053 24.5053 15.6229 24.6259 15.3817C24.6259 14.658 24.8671 14.658 24.7465 14.2962C24.7465 13.9344 24.1435 13.3314 24.6259 12.9696C24.8671 12.849 25.1083 12.849 25.3495 12.6078C25.5907 12.4872 26.0731 12.0048 25.9525 11.8842C25.8319 11.7636 26.0731 11.8842 26.0731 11.8842C26.1937 11.8842 26.3143 11.643 26.4349 11.5224C26.5555 11.4017 27.2792 11.5224 27.5204 11.5224C27.641 11.5224 27.7616 11.643 27.8822 11.643C28.1234 11.643 28.244 11.5224 28.3646 11.5224C28.847 11.4017 28.4852 12.1254 28.847 12.1254C29.0882 12.1254 29.0882 11.7636 29.3294 11.7636C29.5706 11.7636 29.5706 12.246 29.6912 12.4872C29.8118 12.6078 29.8118 12.6078 29.9324 12.6078C30.053 12.7284 29.9324 12.9696 30.053 12.9696C30.2942 13.2108 30.7766 13.452 30.5354 13.8138C30.8972 13.6932 31.0178 14.055 31.1384 14.055C31.3797 14.1756 31.3796 13.9344 32.1033 14.055C32.1033 14.2962 31.7415 14.1756 31.7415 14.4168C31.6209 14.7786 31.9827 14.8992 32.1033 15.261C32.1033 15.6229 31.7415 15.261 31.7415 15.6229C31.7415 15.7435 31.6209 15.7435 31.5003 15.8641C31.5003 15.9847 31.5003 16.2259 31.6209 16.3465C31.5003 16.3465 31.3797 16.3465 31.2591 16.2259C31.2591 16.3465 31.1384 16.4671 31.2591 16.5877C31.3797 16.7083 31.5003 16.8289 31.3797 16.9495C31.259 17.1907 31.1384 17.1907 31.2591 17.4319C31.3797 17.5525 31.5003 17.7937 31.7415 17.9143C31.8621 18.0349 32.8269 18.7585 32.3445 18.9997C32.5857 18.9997 32.4651 19.2409 32.7063 19.2409C32.9475 19.2409 33.0681 19.3615 33.3093 19.4821C33.6711 19.7233 33.9123 20.0852 34.3947 20.2058C34.6359 20.2058 34.9977 20.9294 35.2389 21.1706C35.6007 21.4118 35.3595 21.7736 35.2389 22.1354C35.2389 22.256 35.2389 22.859 35.4801 22.859C35.6007 22.859 35.7213 22.859 35.8419 22.9796C35.9626 23.1002 35.9626 23.3414 35.9626 23.462C35.9626 23.8238 36.0832 23.8238 36.445 24.1856C36.6862 24.3062 36.5656 24.668 36.8068 24.7886C36.6862 24.7886 35.8419 24.668 35.8419 24.5474C35.9626 24.7887 35.4801 24.5474 35.3595 24.5474C35.1183 24.5474 34.7565 24.5474 34.6359 24.7886C34.3947 25.2711 34.3947 26.3565 33.5505 26.3565L31.3797 26.1153C30.656 25.9947 30.656 25.6329 29.9324 25.1505C28.1234 23.8238 26.3143 22.1354 24.2641 21.2912C23.5405 20.9294 22.8169 21.05 22.2138 20.8088C22.5757 20.3264 22.0932 20.5676 21.9726 20.3264V20.0852C22.0932 19.9645 21.9726 19.8439 21.852 19.7233C21.4902 19.4821 21.3696 18.9997 21.249 18.6379Z" fill="#36A83A"/>
<path d="M48.1678 30.168L47.5146 30.8215C47.5146 30.8215 48.1678 30.8213 48.1678 30.168C48.1678 30.8213 48.1678 30.8213 48.1678 30.168Z" fill="#36A83A"/>
<path d="M27.9152 7.95434L28.5684 7.30078C28.5684 7.30078 28.5682 7.95434 29.2215 7.95434C29.2215 7.95434 29.8747 7.95418 29.8747 8.6075L30.5279 9.26067H31.1818L31.835 8.6075H32.4881L33.1413 7.95434C33.7946 7.95434 33.7951 7.95418 34.4484 8.6075C33.7951 8.6075 34.4484 9.26067 34.4484 9.26067C33.7951 9.26067 34.4484 9.91423 34.4484 9.91423L35.1016 10.5674C35.1016 11.2207 35.1014 11.8741 35.7547 11.8741H37.0611L37.715 12.5273L38.3682 13.1808C39.0215 13.1808 39.6744 13.8342 40.3277 13.1808C40.981 13.1808 41.6345 12.5273 42.9411 12.5273V11.8741H43.5943C44.2476 11.8741 43.5943 11.8743 43.5943 11.221L44.2482 10.5674H48.168L48.8212 11.221H50.1275C50.7808 11.221 50.7815 11.2208 50.7815 11.8741C50.7815 11.8741 51.4346 11.874 51.4346 12.5273C51.4346 12.5273 51.4345 13.1808 52.0878 13.1808H53.3941V15.1407C53.3941 15.794 53.3943 16.4474 52.741 16.4474C52.741 16.4474 52.0878 16.4473 52.0878 17.1006C52.0878 17.1006 52.0876 18.4073 52.741 18.4073C53.3943 18.4073 52.741 19.0605 52.741 19.0605C52.741 19.7138 53.3941 20.3672 53.3941 20.3672C53.3941 21.0205 53.3948 21.0206 54.0481 21.6739H55.3544C56.0077 21.6739 56.0077 22.3273 55.3544 22.9807L54.7012 23.6338L54.0481 24.2874L54.7012 24.9405C55.3546 25.5939 56.0076 26.9004 56.0076 26.9004H57.3147L57.9678 28.2072C57.9678 28.8605 57.9677 28.8603 58.621 28.8603V29.5139C58.621 30.1672 57.3147 29.5137 57.3147 30.167H56.6607V32.1269C56.6607 32.7802 56.0076 32.1269 56.0076 32.1269H55.3544H51.4346C51.4346 32.1269 51.4348 31.4736 50.7815 32.1269C50.7815 32.1269 50.1275 32.1271 50.1275 31.4738C49.4742 30.8204 49.4743 30.167 49.4743 30.167C49.4743 29.5137 48.8213 29.5139 48.168 29.5139H47.5149C47.5149 29.5139 46.8609 29.5137 46.8609 30.167H46.2077L45.5546 30.8206C44.9013 30.8206 44.9016 30.167 44.2482 30.167C43.5949 30.167 43.5944 30.1672 42.9411 29.5139C42.9411 29.5139 42.288 29.5136 42.288 28.8603C42.288 28.8603 41.6348 28.8605 41.6348 28.2072L40.9816 27.554H39.6745C39.0212 27.554 39.0214 26.9006 39.0214 26.2473V25.5937C39.0214 25.5937 38.3682 25.5939 38.3682 24.9405C38.3682 24.9405 38.3684 24.2874 37.715 24.2874L37.0611 23.6338C37.0611 22.9805 36.4079 24.2871 36.4079 23.6338H35.1016C34.4483 23.6338 35.1017 24.2874 34.4484 24.2874V23.6338L33.7945 22.9807V22.3271C33.1411 22.3271 33.1411 21.6741 33.7945 21.0208C33.7945 20.3675 33.7946 20.3672 33.1413 20.3672C33.1413 19.7139 33.1415 19.7141 32.4881 19.7141C31.8348 19.7141 31.835 19.0605 31.835 19.0605H30.5279C31.1812 19.0605 29.8747 17.7542 29.8747 17.7542L29.2215 17.1006V13.834C29.2215 13.834 28.5682 13.1808 29.2215 13.1808C29.2215 13.1808 29.8747 13.1806 29.8747 12.5273H28.5684C28.5684 12.5273 28.5685 11.874 27.9152 12.5273C27.9152 11.874 27.2612 11.8743 27.2612 11.221V10.5674L26.6081 9.91423V8.6075H25.9549V7.95434C25.3016 7.95434 25.9551 7.30078 25.3018 7.30078C27.915 8.60742 27.9152 8.60766 27.9152 7.95434Z" fill="#36A83A"/>
<path d="M16.4258 18.8795C16.5464 18.7589 16.7876 18.3971 17.0288 18.2765C16.667 17.9147 17.1494 17.7941 17.5112 17.7941C17.27 17.4323 17.6318 17.4323 17.7524 17.1911C17.7524 17.0705 17.6318 16.7086 17.3906 16.7086C17.1494 16.7086 17.6318 16.3468 17.27 16.4674C16.667 16.588 16.667 16.2262 16.667 15.985C16.667 15.7438 16.7876 15.2614 16.5464 15.0202C16.3052 14.8996 16.5464 14.4172 16.5464 14.176C16.5464 14.0554 16.9082 14.2966 16.9082 14.2966L17.1494 14.0554C17.27 13.9348 17.1494 13.6936 17.27 13.573H17.7524C17.6318 13.3318 17.5112 13.2112 17.5112 12.97C17.5112 12.8494 17.5112 12.6082 17.6318 12.4875H17.9936C18.2348 12.6082 18.2348 12.8494 18.476 12.7288C18.7172 12.7288 18.9584 12.6082 19.1996 12.4875C19.4409 12.3669 19.6821 12.2463 20.0439 12.2463C20.2851 12.2463 20.4057 12.4876 20.6469 12.6082C20.8881 12.7288 21.3705 12.7288 21.6117 12.6082C22.2147 12.6082 22.6971 12.1257 23.3001 12.0051C23.9032 11.7639 24.5062 12.1257 25.1092 11.8845C25.471 11.7639 25.8328 11.2815 25.9534 12.0051C25.9534 12.1257 25.5916 12.4876 25.471 12.6082C25.2298 12.8494 24.9886 12.8494 24.7474 12.97C24.265 13.3318 24.7474 13.9348 24.868 14.2966C24.868 14.5378 24.7474 14.779 24.7474 15.0202V16.2262C24.7474 17.0705 21.4911 18.5177 19.8027 19.6031C19.3202 19.9649 18.5966 20.6885 17.9936 20.2061C17.7524 20.0855 17.6318 19.9649 17.3906 19.8443C17.0288 19.6031 16.7876 19.7237 16.7876 19.7237C16.5464 19.8443 16.667 18.8795 16.4258 18.8795Z" fill="#36A83A"/>
<path d="M53.3936 42.5793C54.0469 41.926 53.3936 41.9258 53.3936 41.9258C54.0469 41.9258 53.3936 41.926 53.3936 42.5793Z" fill="#36A83A"/>
<path d="M48.8203 31.4727C49.4736 31.4727 49.4736 31.4727 48.8203 31.4727C49.4736 31.4727 49.4736 32.1258 48.8203 32.1258V31.4727Z" fill="#36A83A"/>
<path d="M43.5938 44.5392C45.5537 43.8859 46.8608 43.2325 48.1675 43.2325C48.8208 42.5792 48.1675 43.886 48.1675 42.5794C48.1675 41.926 48.1673 41.2728 48.8206 40.6195C48.8206 39.9661 49.474 39.3127 48.8206 39.3127L48.1675 38.6592C48.1675 38.0059 48.8208 36.6993 48.1675 36.6993H48.8206V35.3926C48.8206 36.0459 49.4738 36.046 49.4738 36.6993C50.1271 37.3526 50.7808 37.3529 51.4341 37.3529H52.0873C52.7406 37.3529 52.7404 38.006 52.7404 38.006C52.7404 38.006 52.7403 38.6592 53.3936 38.6592L54.0475 39.3127C54.7009 39.3127 54.0475 40.6195 54.0475 40.6195C54.0475 41.2728 53.3937 41.926 52.7404 42.5794C52.7404 42.5794 52.7406 43.2325 52.0873 43.2325C52.0873 43.2325 52.0874 42.5792 51.4341 43.2325C50.7808 43.2325 51.4342 43.8859 50.7809 44.5392V46.4991C50.1276 46.4991 49.4738 46.4994 49.4738 47.1527V47.8059H48.8206C48.1673 47.8059 48.1675 47.8057 48.1675 48.459V49.1126C48.1675 49.1126 48.1676 49.7657 47.5143 49.7657H46.8604C46.207 49.7657 45.5542 50.4193 44.9009 50.4193C44.2476 50.4193 44.901 49.1126 44.2477 49.1126C44.2477 49.1126 44.2471 48.4592 43.5938 47.8059C44.2471 45.8459 43.5938 45.1926 43.5938 44.5392Z" fill="#36A83A"/>
<path d="M0.505767 24.6679C0.264561 24.1855 0.867571 23.7031 0.746968 23.2207C0.626366 22.7383 0.14396 22.3765 0.988179 21.7734C0.988179 22.1352 1.47059 22.0147 1.71179 21.894C2.0736 21.7734 2.43541 21.894 2.91782 21.894C3.40023 21.894 3.76204 22.0146 4.24445 22.1352C4.48565 22.1352 4.48566 22.3765 4.60626 22.4971H5.08866C5.20927 22.4971 5.20927 22.6177 5.32987 22.7383H5.69168C6.17409 22.7383 6.41529 23.1001 6.8977 23.1001C7.25951 23.2207 7.74193 22.8589 7.98313 22.6177C8.10373 22.4971 8.22434 22.3765 8.46554 22.2559C8.58615 22.3765 8.70675 22.4971 8.82736 22.3765C8.70675 22.3765 8.70675 22.2558 8.70675 22.3765L9.06856 22.0147C9.30976 22.1353 9.55097 21.894 9.79217 21.894C9.67157 22.0147 9.43036 22.0147 9.30976 22.2559C9.30976 22.2559 10.3952 21.894 9.91277 21.894C10.2746 21.7734 10.5158 22.1352 10.8776 22.1352C10.9982 22.1352 11.2394 21.8941 11.36 22.0147C11.4806 22.0147 11.6012 22.2558 11.7218 22.3765C11.6012 22.2558 11.4806 22.0147 11.2394 22.0147C11.2394 22.1353 11.1188 22.4971 11.36 22.4971C11.6012 22.6177 11.4806 22.6177 11.7218 22.7383C11.7218 22.6177 12.2042 22.4971 11.8424 22.2559C12.2042 22.3765 12.3248 22.7383 12.8072 22.6177C12.9278 22.6177 13.4103 22.3765 13.2897 22.6177C13.5309 22.4971 13.8927 22.4971 14.1339 22.4971C14.3751 22.3765 14.6163 22.3765 14.8575 22.1352L16.0635 25.5121C15.7017 25.8739 15.8223 26.7181 15.5811 27.2006C15.4605 27.4418 15.4605 27.683 15.4605 27.9242C15.4605 28.1654 15.0987 28.4066 15.2193 28.6478C15.0987 28.5272 14.8575 28.4066 14.7369 28.286C14.4957 28.1654 14.3751 27.9242 14.2545 27.683C14.0133 27.4418 13.5309 27.2006 13.6515 26.8388C13.7721 26.477 13.2897 26.1151 13.1691 25.8739C12.9278 25.5121 12.6866 25.0297 12.566 24.5473C12.3248 24.7885 12.2042 25.1503 12.3248 25.3915C12.6866 25.7533 12.566 26.2357 12.9278 26.7182C13.169 27.08 13.4103 27.4418 13.7721 27.8036L14.1339 28.1654C14.2545 28.286 14.4957 28.6478 14.1339 28.4066C14.3751 28.6478 14.1339 28.889 14.3751 29.0096C14.6163 29.2508 14.7369 29.492 14.8575 29.7332C14.8575 29.8538 14.9781 29.9744 15.0987 30.095C15.2193 30.2156 15.0987 30.3362 14.9781 30.4568C14.9781 30.5774 15.2193 30.8186 15.2193 30.8186L15.5811 31.5423C15.9429 32.3865 16.4253 33.1101 16.7871 33.9543C16.9077 34.3161 17.1489 34.5573 17.3901 34.7985C17.6313 35.0397 17.8726 35.1603 18.1138 35.4015C17.9932 35.4015 17.7519 35.4016 17.6313 35.281C17.5107 35.7634 17.6313 36.3664 17.7519 36.6076C17.9932 36.8488 17.5107 37.3312 17.1489 37.3312C17.0283 37.3312 16.9077 37.2106 16.7871 37.4518C16.6665 37.5724 16.6665 37.8136 16.5459 37.9342C16.4253 38.1754 16.4253 38.296 16.1841 38.296C16.0635 38.296 15.7017 38.296 15.5811 38.5372C15.4605 38.899 15.4605 39.2608 14.9781 39.2608C14.3751 39.2608 14.1339 38.7784 13.7721 38.7784C12.6866 38.7784 12.2042 38.899 11.36 38.7784C11.36 38.6578 11.4806 38.5372 11.36 38.4166C11.2394 38.1754 11.1188 38.5372 10.9982 38.6578C10.757 38.899 9.79218 38.7784 9.55097 38.7784H1.22938L0.988179 27.5624C0.988179 27.08 0.988172 26.4769 0.867569 25.9945C0.746966 25.7533 0.626369 25.0297 0.505767 24.6679Z" fill="#36A83A"/>
<path d="M28.5682 48.4598C27.9149 48.4598 27.9149 48.4598 28.5682 48.4598C27.9149 48.4598 27.915 47.8066 27.915 47.8066C27.915 48.46 27.9149 48.4598 28.5682 48.4598Z" fill="#36A83A"/>
<path d="M29.221 49.1136V48.46L28.5679 47.8069C28.5679 47.1535 27.9141 47.1535 27.2608 46.5001L26.6076 45.847C26.6076 45.847 26.6078 45.1934 25.9544 45.1934V43.2335L25.3013 42.5804C25.3013 42.5804 24.6481 42.5801 24.6481 41.9268C23.9948 41.9268 23.9942 41.2738 23.9942 40.6205V37.3539V36.0472C23.9942 35.3938 23.341 35.3937 23.341 34.7404C23.341 34.7404 22.6878 34.7406 22.6878 34.0873V33.4337C22.6878 33.4337 22.688 32.7805 22.0347 32.7805C22.688 32.7805 22.0348 31.4738 21.3815 31.4738L20.7275 30.8207L20.0744 30.1671C19.4211 29.5138 18.7681 28.8607 18.7681 27.554C18.7681 27.554 18.7682 26.9005 18.1149 26.9005H17.4609V24.2874C18.1143 24.2874 18.7679 24.9408 19.4212 24.2874C20.0745 24.2874 20.0742 22.9807 20.7275 22.9807H21.3815C21.3815 22.3274 21.3813 22.3272 22.0347 22.3272L20.0744 20.3673C21.381 20.3673 22.0343 19.7139 23.341 19.0605C23.9943 19.0605 24.648 19.0608 25.3013 19.7141C27.2612 20.3674 29.2207 22.3272 30.5274 23.6339C31.1807 23.6339 31.1812 24.2874 31.8345 24.2874C32.4878 24.9408 32.4875 24.9406 33.1408 24.9406H36.4074C37.0607 24.9406 37.0606 25.5938 37.0606 25.5938C37.0606 26.2471 37.7144 25.5938 38.3677 25.5938C38.3677 25.5938 39.0209 25.594 39.0209 26.2473L39.674 26.9005V27.554C39.674 27.554 40.3272 27.5539 40.3272 28.2072L40.9812 28.8604C40.9812 29.5137 41.6343 29.5138 41.6343 30.1671C41.6343 30.8204 41.6342 30.8207 42.2875 30.8207V32.127L42.9406 32.7805C42.9406 32.7805 42.9405 33.4337 43.5938 33.4337C43.5938 33.4337 43.5944 34.0873 44.2478 34.0873H44.9009V35.3936C45.5542 36.0469 46.2073 37.3539 46.2073 37.3539C48.1672 37.3539 48.8204 37.3537 50.127 38.007C50.127 38.6604 50.781 38.6604 50.781 39.3138V39.9669C50.781 41.2736 50.127 42.5802 50.127 43.2335C47.5137 44.5402 44.2478 45.1937 40.9812 45.847C40.3278 45.847 40.3274 45.8468 39.674 46.5001C39.0207 46.5001 38.3677 47.8067 38.3677 48.46L37.7145 49.1136L37.0606 48.46H32.4877C31.8343 48.46 31.8345 47.8067 31.8345 48.46C31.1812 48.46 31.1813 49.1136 31.1813 49.1136C29.8747 48.4603 29.8744 48.4603 29.221 49.1136C29.8744 49.1136 29.8744 48.4603 29.221 49.1136Z" fill="#36A83A"/>
<path d="M14.7373 22.4985C14.8579 22.3779 15.2197 21.8954 14.9785 21.7748C15.3403 21.2924 15.3403 20.6894 15.4609 20.0864C15.4609 19.9658 15.4609 19.604 15.7021 19.4834C15.8227 19.3628 15.7021 19.2422 15.7021 19.1216C15.8227 19.001 16.0639 19.1216 16.0639 19.1216C16.3051 19.1216 16.3051 18.8804 16.3051 18.7598C16.667 18.7598 16.4257 20.0864 16.4257 20.5688C16.4257 20.4482 16.1845 20.207 15.9433 20.207C15.7021 20.0864 15.7021 20.4482 15.5815 20.5688C15.5815 20.81 15.4609 21.413 15.7021 21.413C16.3051 21.2924 15.4609 21.7748 15.5815 22.1366C15.7021 22.3779 16.3051 21.8954 16.4257 21.8954V22.6191C16.4257 22.9809 16.3051 23.3427 16.1845 23.5839C16.0639 24.0663 16.1845 25.0311 15.8227 25.5135L14.7373 22.4985Z" fill="#36A83A"/>
<path d="M15.5225 18.9004C16.1758 18.247 15.5223 17.5936 16.1756 17.5936V16.9405L16.8288 16.2871H17.4827C17.4827 16.9404 16.8294 16.9405 17.4827 16.9405C17.4827 16.9405 16.8288 16.9403 16.8288 17.5936L16.1756 18.247C16.1756 18.9003 16.1758 18.9004 15.5225 18.9004C16.1758 19.5537 16.1758 18.9004 15.5225 18.9004Z" fill="#36A83A"/>
<path d="M35.7764 24.9766C36.4297 24.9766 36.4297 25.6299 35.7764 24.9766V24.9766Z" fill="#36A83A"/>
<path d="M33.8154 26.2822C34.4688 26.2822 34.4692 24.9756 35.1226 24.3223H36.4289V24.9754C36.4289 24.9754 35.7757 24.9753 35.7757 25.6286C35.7757 25.6286 36.4289 25.6288 36.4289 26.2822C36.4289 26.9355 37.082 26.9356 37.082 27.5889H35.7757V26.9353C35.1224 26.282 33.8154 26.2822 33.8154 26.2822Z" fill="#36A83A"/>
<path d="M35.1226 26.7404C36.4292 26.7404 36.4292 24.127 35.1226 24.127C33.8159 24.7803 33.8159 26.7404 35.1226 26.7404Z" fill="#36A83A"/>
<path d="M41.0023 33.2738C41.0023 31.9672 41.0023 32.6205 41.0023 33.2738C41.0023 32.6205 41.0021 31.3138 41.6554 31.9671C41.6554 31.9671 42.3086 31.9672 42.3086 32.6205V34.5804C42.3086 34.5804 42.3088 35.2337 41.6554 35.2337H41.0023V33.2738Z" fill="#36A83A"/>
<path d="M10.9492 15.6337L11.6024 14.9804C12.2557 14.9804 11.6022 14.327 12.2555 14.327H13.5619C14.2152 14.327 14.2157 13.6738 14.869 13.6738L14.2158 14.327V14.9804H13.5619C13.5619 14.9804 12.9087 14.9804 12.9087 15.6337C12.2554 16.287 11.6025 16.287 10.9492 15.6337Z" fill="#36A83A"/>
</g>
<defs>
<clipPath id="clip0_26003_93458">
<rect width="60" height="60" fill="white"/>
</clipPath>
</defs>
</svg>
