<svg width="60" height="60" viewBox="0 0 60 60" fill="none" xmlns="http://www.w3.org/2000/svg">
<g clip-path="url(#clip0_26003_92304)">
<g clip-path="url(#clip1_26003_92304)">
<g clip-path="url(#clip2_26003_92304)">
<path d="M54.7892 29.6841C55.2629 29.5262 55.7365 29.3683 55.8944 29.0525C56.3681 28.4209 56.8418 27.6314 57.3155 26.9999C57.7892 26.3683 58.105 25.5788 59.0523 25.263L59.2102 25.1051C59.526 23.9999 59.6839 22.8946 59.8418 21.9472C59.2102 22.1051 58.5786 22.1051 57.9471 22.263C57.1576 22.4209 56.3681 22.5788 55.5786 22.5788C55.4207 22.5788 55.4207 22.7367 55.2628 22.7367C54.9471 22.8946 54.4734 23.0525 54.1576 22.7367C53.8418 22.4209 53.3681 22.1051 53.0523 21.7893L53.6839 21.4735L53.3681 21.1578L52.2628 20.0525C51.9471 19.8946 51.7892 19.5788 51.4734 19.4209C51.1576 19.263 50.6839 19.1051 50.526 18.7893C50.2102 18.4735 50.0523 17.9999 49.7365 17.6841C49.5786 17.2104 49.2628 16.7367 48.9471 16.4209C48.4734 16.1051 48.3155 15.6314 48.1576 15.1578V14.842C47.9997 14.0525 47.9997 13.4209 47.0523 12.7893C46.7365 12.6314 46.7365 12.1578 46.5786 11.9999C46.5786 11.842 46.4207 11.6841 46.4207 11.5262C46.105 10.8946 45.6313 10.1051 45.3155 9.47355L44.3681 8.05249C44.0523 7.57881 43.7365 6.94723 43.8944 6.47355C44.3681 7.10513 44.526 8.05249 45.3155 8.52618C45.9471 7.42092 46.2629 6.47355 45.3155 5.52618C44.6839 5.36828 43.8944 5.36828 43.2628 5.21039H42.9471C41.6839 5.68407 40.2629 5.84197 38.9997 5.99986C38.2102 6.15776 37.7365 5.84197 37.7365 5.36828C37.7365 4.8946 37.2628 4.73671 36.7892 4.57881C36.1576 4.42092 35.526 4.42092 35.2102 3.94723C34.5786 4.7367 34.2628 4.8946 33.3155 4.26302C32.8418 4.42092 32.6839 4.7367 32.8418 5.21039C33.1576 5.36828 33.1576 5.52618 32.8418 5.84197C32.3681 5.99986 32.0523 5.99986 31.7365 5.68407C31.2628 5.21039 30.6313 5.05249 29.9997 5.05249C29.526 5.05249 29.2102 4.8946 29.2102 4.42092C29.2102 4.26302 29.0523 4.10513 28.8944 4.10513C28.2628 3.94723 27.6313 3.63144 26.8418 3.78934C26.2102 3.78934 25.8944 3.63144 25.5786 3.15776C25.5786 2.99986 25.2628 2.99986 25.2628 2.99986C24.9471 3.15776 24.6313 2.99986 24.6313 2.84197C24.6313 2.68407 24.7892 2.52618 25.105 2.36828C25.7365 2.05249 25.7365 1.57881 25.4207 1.10513C25.2628 0.947231 25.2628 0.789337 25.4207 0.631442C25.7365 0.315652 25.5786 0.157758 25.105 0.157758C24.6313 0.157758 24.1576 -0.000137061 23.6839 -0.000137061C22.8944 -0.000137061 22.2628 -0.158032 21.6313 -0.000137061C20.9997 0.157758 20.3681 0.157758 19.7365 0.157758C18.3155 0.315652 16.8944 0.157758 15.7892 0.947231H15.6313C14.6839 1.10513 14.3681 1.26302 13.8944 1.57881C13.7365 1.8946 13.4207 1.8946 13.105 1.73671H11.8418C11.3681 1.73671 11.0523 1.7367 10.7365 1.42092C10.7365 1.26302 10.4207 1.26302 10.105 1.10513C10.4207 1.8946 10.2628 2.21039 9.78916 2.36828C9.15759 2.52618 8.99969 2.99986 8.8418 3.31565L7.89443 4.7367C7.42074 5.21039 6.94706 5.84197 6.47338 6.31565C6.15759 6.63144 5.8418 6.94723 5.6839 7.26302C5.52601 7.26302 5.36811 7.42092 5.21022 7.57881C4.89443 7.73671 4.42074 7.8946 4.10495 8.05249C3.94706 8.21039 3.47338 8.36828 3.31548 8.52618C2.99969 9.63144 1.89443 10.4209 1.42074 11.3683C0.94706 11.9999 0.473375 12.6314 0.157586 13.263C-0.158204 13.7367 -0.158204 14.0525 0.315481 14.5262C0.473375 14.6841 0.473375 14.9999 0.473375 15.1578C0.473375 15.4735 0.63127 15.6314 0.63127 15.9472C0.63127 16.263 0.789165 16.5788 0.63127 16.8946C0.63127 17.5262 0.315481 18.1578 -0.000308901 18.9472V19.263C0.157586 19.5788 0.157586 19.8946 0.315481 20.2104C0.63127 20.6841 0.315481 21.3157 1.26285 21.6314L1.42074 21.7893C1.42074 22.263 1.89443 22.7367 2.36811 23.0525C3.31548 23.6841 3.78917 24.3157 4.26285 25.1051C4.42074 25.263 4.57864 25.5788 4.73653 25.5788C5.36811 25.5788 5.6839 26.0525 6.15759 26.2104C6.47338 26.3683 6.63127 26.5262 6.94706 26.5262L8.36811 26.9999H8.8418L12.3155 26.5262C13.7365 26.3683 15.3155 26.2104 16.7365 25.8946C17.2102 25.7367 17.6839 25.7367 18.3155 25.7367C18.6313 25.7367 19.105 25.8946 19.4207 26.0525C20.0523 26.2104 20.3681 26.3683 20.526 26.842C20.526 26.9999 20.6839 27.1578 20.8418 27.1578C21.4734 27.3157 22.105 27.4735 22.5786 27.3157C23.0523 27.3157 23.526 27.3157 23.9997 27.4735C24.3155 27.4735 24.4734 27.6314 24.6313 27.7893C24.9471 28.263 24.7892 29.2104 24.3155 29.6841C24.1576 29.842 23.9997 29.9999 24.1576 30.1578C24.3155 30.4735 24.3155 30.6314 24.3155 30.9472C24.3155 31.263 24.1576 31.5788 24.3155 31.7367C24.6313 32.3683 24.7892 32.9999 25.4207 33.3157C25.5786 33.4735 25.7365 33.6314 25.7365 33.7893C26.2102 34.8946 26.6839 35.9999 27.1576 36.9472C27.3155 37.4209 27.4734 37.7367 27.3155 38.2104V38.6841C27.4734 38.9999 27.6313 39.3157 27.6313 39.6314C27.7892 39.9472 27.7892 40.4209 27.4734 40.7367C26.9997 41.2104 26.8418 41.5262 26.9997 42.1578C26.9997 42.4735 26.9997 42.6314 26.8418 42.9472C26.6839 43.4209 26.3681 43.7367 26.526 44.2104C26.6839 44.9999 26.9997 45.9472 27.3155 46.7367C27.6313 47.3683 27.9471 47.842 27.9471 48.4735C27.9471 48.6314 27.9471 48.6314 28.105 48.7893C28.2628 49.1051 28.2628 49.5788 28.4207 49.8946V50.6841C28.7365 51.6314 28.8944 52.5788 29.2102 53.5262C29.2102 53.842 29.526 53.9999 29.6839 54.1578C29.9997 54.3157 30.3155 54.6314 30.4734 54.9472C30.6313 55.4209 31.105 55.8946 30.7892 56.3683C30.7892 56.5262 30.7892 56.5262 30.9471 56.5262C31.5786 57.1578 31.4207 58.1051 31.5786 58.8946C31.5786 59.2104 31.7365 59.3683 32.0523 59.5262C32.2102 59.6841 32.526 59.842 32.6839 59.9999H32.9997C33.3155 59.842 33.4734 59.842 33.7892 59.6841H34.105C34.5786 59.3683 35.3681 59.3683 35.9997 59.2104C36.3155 59.2104 36.7892 59.0525 37.105 59.0525C37.2628 59.0525 37.5786 58.8946 37.7365 58.8946C38.2102 59.0525 38.3681 58.8946 38.6839 58.7367C38.8418 58.5788 38.9997 58.4209 39.3155 58.4209C40.5786 58.1051 41.0523 57.3157 41.526 56.5262C41.526 56.3683 41.6839 56.2104 41.6839 56.0525C41.526 55.4209 41.6839 55.263 42.4734 54.9472C42.6313 54.6314 42.7892 54.3157 42.9471 54.1578C43.4207 53.9999 43.5786 53.6841 43.7365 53.3683C43.7365 53.2104 44.0523 53.2104 44.0523 53.0525C44.0523 52.8946 44.2102 52.5788 44.2102 52.4209C43.8944 52.1051 44.0523 51.9472 44.3681 51.7893C44.8418 51.4735 45.4734 51.3157 45.9471 50.9999C46.5786 50.6841 46.7365 50.3683 46.2628 49.8946C46.105 49.7367 46.105 49.5788 45.9471 49.4209C45.9471 48.6314 45.7892 47.9999 45.7892 47.2104C45.7892 47.0525 45.9471 47.0525 45.9471 46.8946C46.4207 46.4209 46.7365 45.9472 47.2102 45.4735C47.3681 45.3157 47.6839 45.1578 47.9997 44.9999C48.4734 44.842 48.9471 44.842 49.4207 44.6841C49.2628 44.2104 49.4207 43.8946 50.0523 43.5788C50.3681 43.4209 50.526 42.9472 50.8418 42.6314C50.6839 41.2104 50.3681 39.7893 49.7365 38.5262C49.5786 38.3683 49.7365 37.8946 49.8944 37.7367C50.3681 37.4209 50.0523 37.263 49.7365 36.9472C49.5786 36.7893 49.2629 36.4735 49.2629 36.1578C49.2629 35.842 49.2628 35.5262 49.4207 35.2104L50.3681 33.7893C50.6839 33.3157 50.8418 32.6841 51.6313 32.5262L51.7892 32.3683C52.2628 31.8946 52.5786 31.4209 53.0523 30.9472C53.526 30.4735 53.9997 29.842 54.7892 29.6841ZM58.4207 41.3683C58.2628 41.5262 58.105 41.6841 57.9471 41.6841C57.4734 41.6841 57.4734 41.842 57.4734 42.1578C57.4734 42.4735 57.6313 42.7893 57.1576 42.9472C56.8418 43.1051 56.526 43.263 56.3681 43.263C56.0523 43.4209 55.7365 43.5788 55.4207 43.5788C54.6313 43.7367 54.3155 43.7367 54.3155 44.3683V44.5262C53.9997 45.1578 54.1576 45.6314 54.3155 46.263C54.6313 46.7367 54.4734 47.2104 53.9997 47.6841C53.8418 47.842 53.8418 48.1578 53.6839 48.3157C53.526 48.4735 53.6839 48.7893 53.6839 49.1051C53.6839 49.7367 53.6839 50.3683 54.1576 50.9999C54.3155 51.3157 54.7892 51.4735 55.2628 51.4735C55.7365 51.4735 55.8944 51.3157 56.0523 51.1578C56.3681 50.842 56.526 50.5262 56.6839 50.3683C57.1576 49.7367 57.4734 49.263 57.4734 48.4735C57.4734 48.1578 57.6313 47.842 57.7892 47.5262C57.9471 47.2104 58.2628 46.8946 58.4207 46.4209C58.7365 45.4735 59.0523 44.5262 59.0523 43.5788C59.0523 43.4209 59.0523 43.4209 59.2102 43.263L59.6839 43.5788C60.1576 43.1051 59.6839 41.3683 58.7365 40.263C58.5786 40.8946 58.5786 41.2104 58.4207 41.3683Z" fill="#36A83A"/>
</g>
</g>
</g>
<defs>
<clipPath id="clip0_26003_92304">
<rect width="60" height="60" fill="white"/>
</clipPath>
<clipPath id="clip1_26003_92304">
<rect width="60" height="60" fill="white"/>
</clipPath>
<clipPath id="clip2_26003_92304">
<rect width="60" height="60" fill="white"/>
</clipPath>
</defs>
</svg>
