<svg width="38" height="26" viewBox="0 0 38 26" fill="none" xmlns="http://www.w3.org/2000/svg">
<g clip-path="url(#clip0_26003_52670)">
<g clip-path="url(#clip1_26003_52670)">
<g clip-path="url(#clip2_26003_52670)">
<path d="M26.6621 24.6621C26.959 24.6621 26.9592 24.6621 27.2561 24.3652H26.9593C26.6624 24.3652 26.6621 24.3652 26.6621 24.6621C26.6621 24.3652 26.6621 24.3652 26.3652 24.3652C26.3652 24.3652 26.3652 24.6621 26.6621 24.6621Z" fill="#36A83A"/>
<path d="M26.0684 21.0997C25.7715 21.0997 26.0685 20.506 25.7716 20.506C25.7716 20.2091 25.4748 19.9121 25.4748 19.6152L25.1776 19.0215C24.5837 19.0215 23.6931 19.3183 23.0993 19.3183C22.5055 19.6152 22.2084 19.6153 22.2084 19.9122C22.2084 20.2091 21.9117 20.506 21.6148 20.506C21.3179 20.506 21.3179 20.209 21.3179 20.209H18.9425V21.9906V23.4751C18.9425 23.7721 19.2393 23.7719 19.2393 24.0688H19.8334C20.1303 24.0688 20.1301 23.7719 20.4271 24.0688H20.7239L21.0211 23.772H21.9116C22.2085 23.772 22.2084 23.4751 22.2084 23.4751H22.8025C23.0994 23.4751 23.0993 23.1782 23.3962 22.8813H23.693C23.9899 22.8813 23.9901 22.5843 24.287 22.5843H24.5839C24.5839 22.5843 24.8807 22.5843 24.8807 22.2874C24.8807 22.2874 25.1776 22.2875 25.1776 21.9906V21.6936C25.4745 21.3967 25.7715 21.3966 26.0684 21.0997Z" fill="#36A83A"/>
<path d="M12.6113 10.8354C12.6113 10.6162 12.6661 10.397 12.6661 10.1777C12.6661 9.90368 12.7758 9.73925 12.8306 9.46521V9.13635C12.8306 9.02673 12.8854 8.91711 12.8854 8.8623C12.8854 8.64306 12.8854 8.42382 12.8306 8.20459C12.8306 8.04016 13.0498 8.09496 13.1594 8.14977C13.3239 8.25939 13.4883 8.42383 13.7075 8.36902C13.9268 8.31421 14.146 8.09497 14.3104 7.98535C14.5297 7.82092 14.7489 7.65649 15.0229 7.54688C15.0778 7.76611 15.1874 8.04016 15.297 8.2594C15.1874 8.2594 15.2422 8.36902 15.297 8.36902C15.4066 8.36902 15.5162 8.36902 15.3518 8.53345C14.9133 8.80749 14.4748 8.91711 13.9816 9.08154L14.7489 9.90368C14.6941 9.95849 14.4749 9.95849 14.42 10.0133C14.3652 10.0681 14.42 10.2325 14.3652 10.2873C14.2556 10.397 13.9816 10.2873 13.8719 10.4518C13.7075 10.6162 13.6527 10.8902 13.4335 10.9451C13.269 10.9999 12.8306 10.8903 12.6113 10.8354Z" fill="#36A83A"/>
<path d="M24.584 14.8654L24.8808 15.1623H26.3654C26.3654 15.1623 26.6622 15.1624 26.6622 14.8654C26.6622 14.5685 26.6625 14.5686 26.9594 14.5686C27.2563 14.5686 27.2563 14.2717 27.2563 13.9748C27.5532 13.9748 27.5531 13.6777 27.5531 13.6777V13.9748C27.5531 13.9748 27.8499 13.9747 27.8499 14.2716V14.8654C27.553 15.1624 27.5531 14.8654 27.5531 14.8654V15.4593C27.5531 15.7562 27.85 15.4592 27.5531 15.7561H27.2563C27.5532 15.7561 27.2563 16.3499 27.2563 16.6468C27.2563 16.9437 27.2563 16.9439 26.9594 16.9439H25.1777L24.8808 16.6468L24.584 16.35V14.8654Z" fill="#36A83A"/>
<path d="M5.87793 1.50398C6.17484 1.20707 5.87822 1.20703 6.17513 0.910119C5.87822 0.910119 6.17513 0.910192 6.17513 0.613281H7.36248C7.65939 0.910192 7.65961 0.910119 7.95652 0.910119V1.20714H6.76881L6.47197 1.50398C6.47197 1.50398 6.17513 1.5039 6.17513 1.80081L5.87793 2.09783C5.87793 2.09783 5.87822 1.80081 6.17513 1.80081C6.17513 1.80081 6.47197 1.80089 6.47197 1.50398C6.17506 1.50398 5.87793 1.80089 5.87793 1.50398Z" fill="#36A83A"/>
<path d="M6.1748 2.69169V2.39467L6.47164 2.09783H8.54987H8.25303C8.25303 1.80092 8.84671 2.09772 8.84671 1.80081H8.25303C8.25303 1.80081 8.25296 1.50398 8.54987 1.50398H9.73758L10.0344 1.20714C10.0344 1.20714 10.3313 1.20703 10.3313 0.910119C10.6282 0.910119 10.6284 0.613281 10.9253 0.613281H12.4099C12.4099 0.613281 12.4098 0.910119 12.7067 0.910119H13.3004L13.5976 1.20714H13.8944C13.8944 1.20714 14.1912 1.20707 14.1912 1.50398H16.2695C16.5664 1.50398 16.5666 1.20714 16.8635 1.20714H17.4572C17.4572 1.20714 17.754 0.910228 17.754 1.20714H18.3481V1.50398L18.6449 1.80081V2.09783H18.9417L19.2386 2.39467C19.2386 2.39467 18.9417 2.09776 18.9417 2.39467V2.69169H18.6449V3.28537C18.6449 3.28537 18.6448 3.58239 18.9417 3.58239V3.87922C18.9417 4.17613 18.9417 3.87933 19.2386 4.17624V4.76992C18.9417 4.76992 18.9417 5.06683 18.9417 4.76992V4.47308H17.754C17.754 4.47308 17.4572 4.76999 17.4572 4.47308H16.5667C16.2698 4.47308 15.9728 4.76992 15.379 4.76992H14.7849C14.7849 4.76992 14.4881 4.47301 14.4881 4.76992C14.1912 4.76992 13.8944 5.06683 13.8944 4.76992H13.5976V5.06694H13.3004V5.66079H13.0035V5.06694C13.0035 5.06694 13.3004 5.06683 13.0035 4.76992H12.4099C12.4099 4.76992 12.113 4.76999 12.113 4.47308C11.8161 4.47308 11.8159 4.76992 11.519 4.76992C11.519 4.76992 11.519 5.06683 11.2221 4.76992H10.6285C10.3316 4.76992 10.3313 4.47308 10.3313 4.47308C10.0343 4.47308 10.0345 4.17624 9.73758 4.17624H9.44075V4.47308H8.84671C8.84671 4.47308 8.84678 4.17624 8.54987 4.17624C8.54987 4.17624 8.25303 4.17613 8.25303 3.87922L7.95619 4.17624H7.36216H7.65936H7.06532C6.76841 3.87933 7.06525 4.17624 7.36216 4.17624C7.06525 4.47315 7.36223 3.87922 7.06532 3.87922C7.06532 3.87922 7.36223 3.8793 7.06532 3.58239H6.76848C6.76848 3.58239 6.76855 3.28548 6.47164 3.58239H6.1748C6.47172 3.58239 6.1748 3.28537 6.1748 3.28537V3.58239C6.1748 3.28548 6.47164 3.58239 6.47164 3.58239C6.47164 3.58239 6.1748 3.58228 6.1748 3.28537H6.47164V2.98853L6.76848 2.69169C6.47157 2.39478 6.1748 2.69169 6.1748 2.69169Z" fill="#36A83A"/>
<path d="M15.0225 7.54718C15.4061 7.32795 15.7898 7.16352 16.1735 6.88947C16.2831 6.83466 16.3927 6.72504 16.5023 6.61543C16.6119 6.39619 16.5023 6.17695 16.5571 6.06733C16.5571 5.73847 16.6667 5.73847 16.6119 5.57404C16.6119 5.40961 16.3379 5.13557 16.5571 4.97114C16.6667 4.91633 16.7764 4.91633 16.886 4.80671C16.9956 4.7519 17.2148 4.53266 17.16 4.47785C17.1052 4.42304 17.2148 4.47785 17.2148 4.47785C17.2696 4.47785 17.3245 4.36823 17.3793 4.31342C17.4341 4.25861 17.7629 4.31342 17.8726 4.31342C17.9274 4.31342 17.9822 4.36824 18.037 4.36824C18.1466 4.36824 18.2014 4.31342 18.2562 4.31342C18.4755 4.25861 18.311 4.58747 18.4755 4.58747C18.5851 4.58747 18.5851 4.42305 18.6947 4.42305C18.8043 4.42305 18.8043 4.64228 18.8591 4.7519C18.9139 4.80671 18.9139 4.80671 18.9687 4.80671C19.0236 4.86152 18.9687 4.97114 19.0236 4.97114C19.1332 5.08076 19.3524 5.19038 19.2428 5.35481C19.4072 5.3 19.462 5.46442 19.5168 5.46442C19.6265 5.51923 19.6265 5.40961 19.9553 5.46442C19.9553 5.57404 19.7909 5.51924 19.7909 5.62885C19.7361 5.79328 19.9005 5.84809 19.9553 6.01252C19.9553 6.17695 19.7909 6.01252 19.7909 6.17695C19.7909 6.23176 19.7361 6.23176 19.6813 6.28657C19.6813 6.34138 19.6813 6.45099 19.7361 6.5058C19.6813 6.5058 19.6265 6.50581 19.5716 6.451C19.5716 6.50581 19.5168 6.56062 19.5716 6.61543C19.6265 6.67024 19.6813 6.72504 19.6265 6.77985C19.5716 6.88947 19.5168 6.88947 19.5716 6.99909C19.6265 7.0539 19.6813 7.16352 19.7909 7.21832C19.8457 7.27313 20.2842 7.602 20.0649 7.71161C20.1746 7.71161 20.1197 7.82123 20.2294 7.82123C20.339 7.82123 20.3938 7.87604 20.5034 7.93085C20.6678 8.04047 20.7775 8.2049 20.9967 8.25971C21.1063 8.25971 21.2707 8.58856 21.3804 8.69818C21.5448 8.8078 21.4352 8.97223 21.3804 9.13665C21.3804 9.19146 21.3804 9.46552 21.49 9.46552C21.5448 9.46552 21.5996 9.46551 21.6544 9.52032C21.7092 9.57513 21.7092 9.68475 21.7092 9.73956C21.7092 9.90399 21.764 9.90399 21.9284 10.0684C22.0381 10.1232 21.9833 10.2877 22.0929 10.3425C22.0381 10.3425 21.6544 10.2877 21.6544 10.2328C21.7092 10.3425 21.49 10.2328 21.4352 10.2328C21.3255 10.2328 21.1611 10.2328 21.1063 10.3425C20.9967 10.5617 20.9967 11.055 20.613 11.055L19.6265 10.9454C19.2976 10.8906 19.2976 10.7261 18.9687 10.5069C18.1466 9.90399 17.3245 9.13666 16.3927 8.75299C16.0638 8.58856 15.735 8.64338 15.4609 8.53376C15.6254 8.31452 15.4061 8.42413 15.3513 8.31451V8.2049C15.4061 8.15009 15.3513 8.09528 15.2965 8.04047C15.1321 7.93085 15.0773 7.71161 15.0225 7.54718Z" fill="#36A83A"/>
<path d="M27.2558 12.7871L26.959 13.0841C26.959 13.0841 27.2558 13.084 27.2558 12.7871C27.2558 13.084 27.2558 13.084 27.2558 12.7871Z" fill="#36A83A"/>
<path d="M18.052 2.69155L18.3488 2.39453C18.3488 2.39453 18.3487 2.69155 18.6456 2.69155C18.6456 2.69155 18.9425 2.69148 18.9425 2.98839L19.2393 3.28523H19.5365L19.8334 2.98839H20.1302L20.427 2.69155C20.7239 2.69155 20.7242 2.69148 21.0211 2.98839C20.7242 2.98839 21.0211 3.28523 21.0211 3.28523C20.7242 3.28523 21.0211 3.58225 21.0211 3.58225L21.3179 3.87908C21.3179 4.17599 21.3178 4.47294 21.6148 4.47294H22.2084L22.5056 4.76978L22.8025 5.0668C23.0994 5.0668 23.3961 5.36371 23.693 5.0668C23.9899 5.0668 24.2869 4.76978 24.8807 4.76978V4.47294H25.1775C25.4744 4.47294 25.1775 4.47301 25.1775 4.1761L25.4747 3.87908H27.2561L27.553 4.1761H28.1466C28.4435 4.1761 28.4438 4.17603 28.4438 4.47294C28.4438 4.47294 28.7407 4.47287 28.7407 4.76978C28.7407 4.76978 28.7406 5.0668 29.0375 5.0668H29.6312V5.95749C29.6312 6.2544 29.6313 6.55135 29.3344 6.55135C29.3344 6.55135 29.0375 6.55128 29.0375 6.84819C29.0375 6.84819 29.0374 7.44205 29.3344 7.44205C29.6313 7.44205 29.3344 7.73888 29.3344 7.73888C29.3344 8.03579 29.6312 8.33274 29.6312 8.33274C29.6312 8.62965 29.6315 8.62969 29.9284 8.9266H30.5221C30.819 8.9266 30.819 9.22354 30.5221 9.52045L30.2252 9.81729L29.9284 10.1143L30.2252 10.4111C30.5221 10.7081 30.8189 11.3018 30.8189 11.3018H31.4129L31.7098 11.8957C31.7098 12.1926 31.7097 12.1925 32.0066 12.1925V12.4896C32.0066 12.7865 31.4129 12.4895 31.4129 12.7864H31.1157V13.6771C31.1157 13.974 30.8189 13.6771 30.8189 13.6771H30.5221H28.7407C28.7407 13.6771 28.7407 13.3802 28.4438 13.6771C28.4438 13.6771 28.1466 13.6772 28.1466 13.3803C27.8497 13.0833 27.8498 12.7864 27.8498 12.7864C27.8498 12.4895 27.553 12.4896 27.2561 12.4896H26.9593C26.9593 12.4896 26.6621 12.4895 26.6621 12.7864H26.3652L26.0684 13.0834C25.7715 13.0834 25.7716 12.7864 25.4747 12.7864C25.1778 12.7864 25.1776 12.7865 24.8807 12.4896C24.8807 12.4896 24.5839 12.4895 24.5839 12.1925C24.5839 12.1925 24.287 12.1926 24.287 11.8957L23.9902 11.5989H23.3961C23.0992 11.5989 23.0993 11.3019 23.0993 11.005V10.708C23.0993 10.708 22.8025 10.7081 22.8025 10.4111C22.8025 10.4111 22.8025 10.1143 22.5056 10.1143L22.2084 9.81729C22.2084 9.52038 21.9116 10.1142 21.9116 9.81729H21.3179C21.021 9.81729 21.318 10.1143 21.0211 10.1143V9.81729L20.7239 9.52045V9.22344C20.427 9.22344 20.427 8.92667 20.7239 8.62976C20.7239 8.33285 20.7239 8.33274 20.427 8.33274C20.427 8.03583 20.4271 8.0359 20.1302 8.0359C19.8333 8.0359 19.8334 7.73888 19.8334 7.73888H19.2393C19.5362 7.73888 18.9425 7.14521 18.9425 7.14521L18.6456 6.84819V5.36364C18.6456 5.36364 18.3487 5.0668 18.6456 5.0668C18.6456 5.0668 18.9425 5.06669 18.9425 4.76978H18.3488C18.3488 4.76978 18.3489 4.47287 18.052 4.76978C18.052 4.47287 17.7548 4.47301 17.7548 4.1761V3.87908L17.4579 3.58225V2.98839H17.1611V2.69155C16.8642 2.69155 17.1612 2.39453 16.8643 2.39453C18.0519 2.98835 18.052 2.98846 18.052 2.69155Z" fill="#36A83A"/>
<path d="M12.8301 7.65681C12.8849 7.602 12.9945 7.43757 13.1041 7.38276C12.9397 7.21833 13.1589 7.16352 13.3234 7.16352C13.2137 6.9991 13.3782 6.9991 13.433 6.88948C13.433 6.83467 13.3782 6.67023 13.2686 6.67023C13.1589 6.67023 13.3782 6.50581 13.2137 6.56062C12.9397 6.61543 12.9397 6.451 12.9397 6.34138C12.9397 6.23176 12.9945 6.01252 12.8849 5.90291C12.7753 5.8481 12.8849 5.62886 12.8849 5.51924C12.8849 5.46443 13.0493 5.57405 13.0493 5.57405L13.1589 5.46443C13.2137 5.40962 13.1589 5.3 13.2137 5.24519H13.433C13.3782 5.13557 13.3234 5.08077 13.3234 4.97115C13.3234 4.91634 13.3234 4.80671 13.3782 4.7519H13.5426C13.6522 4.80671 13.6522 4.91633 13.7618 4.86152C13.8715 4.86152 13.9811 4.80671 14.0907 4.7519C14.2003 4.69709 14.3099 4.64229 14.4744 4.64229C14.584 4.64229 14.6388 4.75191 14.7484 4.80672C14.858 4.86153 15.0773 4.86153 15.1869 4.80672C15.4609 4.80672 15.6802 4.58748 15.9542 4.53267C16.2283 4.42305 16.5023 4.58748 16.7764 4.47786C16.9408 4.42305 17.1052 4.20381 17.16 4.53267C17.16 4.58748 16.9956 4.75191 16.9408 4.80672C16.8312 4.91634 16.7215 4.91634 16.6119 4.97115C16.3927 5.13557 16.6119 5.40962 16.6667 5.57405C16.6667 5.68366 16.6119 5.79329 16.6119 5.90291V6.451C16.6119 6.83467 15.1321 7.49238 14.3647 7.98567C14.1455 8.15009 13.8166 8.47895 13.5426 8.25971C13.433 8.2049 13.3782 8.15009 13.2686 8.09528C13.1041 7.98566 12.9945 8.04047 12.9945 8.04047C12.8849 8.09528 12.9397 7.65681 12.8301 7.65681Z" fill="#36A83A"/>
<path d="M29.6318 18.4279C29.9287 18.131 29.6318 18.1309 29.6318 18.1309C29.9287 18.1309 29.6318 18.131 29.6318 18.4279Z" fill="#36A83A"/>
<path d="M27.5527 13.3809C27.8496 13.3809 27.8496 13.3809 27.5527 13.3809C27.8496 13.3809 27.8496 13.6777 27.5527 13.6777V13.3809Z" fill="#36A83A"/>
<path d="M25.1777 19.3189C26.0685 19.022 26.6625 18.7251 27.2563 18.7251C27.5532 18.4282 27.2563 19.0221 27.2563 18.4282C27.2563 18.1313 27.2563 17.8344 27.5532 17.5375C27.5532 17.2406 27.8501 16.9437 27.5532 16.9437L27.2563 16.6467C27.2563 16.3498 27.5532 15.756 27.2563 15.756H27.5532V15.1621C27.5532 15.459 27.85 15.4591 27.85 15.756C28.1469 16.0529 28.444 16.053 28.7409 16.053H29.0377C29.3346 16.053 29.3346 16.3498 29.3346 16.3498C29.3346 16.3498 29.3345 16.6467 29.6314 16.6467L29.9286 16.9437C30.2255 16.9437 29.9286 17.5375 29.9286 17.5375C29.9286 17.8344 29.6315 18.1313 29.3346 18.4282C29.3346 18.4282 29.3346 18.7251 29.0377 18.7251C29.0377 18.7251 29.0378 18.4282 28.7409 18.7251C28.444 18.7251 28.7409 19.022 28.444 19.3189V20.2096C28.1471 20.2096 27.85 20.2097 27.85 20.5066V20.8035H27.5532C27.2563 20.8035 27.2563 20.8034 27.2563 21.1003V21.3973C27.2563 21.3973 27.2564 21.6942 26.9595 21.6942H26.6623C26.3654 21.6942 26.0687 21.9912 25.7718 21.9912C25.4749 21.9912 25.7718 21.3973 25.4749 21.3973C25.4749 21.3973 25.4746 21.1004 25.1777 20.8035C25.4746 19.9127 25.1777 19.6158 25.1777 19.3189Z" fill="#36A83A"/>
<path d="M5.59548 10.2881C5.48586 10.0689 5.75991 9.84961 5.7051 9.63038C5.65029 9.41114 5.43105 9.2467 5.81472 8.97266C5.81472 9.13708 6.03395 9.08228 6.14357 9.02747C6.308 8.97266 6.47243 9.02747 6.69167 9.02747C6.91091 9.02747 7.07533 9.08228 7.29457 9.13709C7.40419 9.13709 7.40419 9.24671 7.459 9.30152H7.67824C7.73304 9.30152 7.73305 9.35632 7.78786 9.41113H7.95228C8.17152 9.41113 8.28114 9.57556 8.50038 9.57556C8.66481 9.63037 8.88404 9.46595 8.99366 9.35633C9.04847 9.30152 9.10328 9.24671 9.2129 9.1919C9.26771 9.24671 9.32252 9.30151 9.37733 9.2467C9.32252 9.2467 9.32252 9.19189 9.32252 9.2467L9.48695 9.08228C9.59657 9.13709 9.70619 9.02747 9.8158 9.02747C9.76099 9.08228 9.65138 9.08228 9.59657 9.1919C9.59657 9.1919 10.0899 9.02747 9.87061 9.02747C10.035 8.97266 10.1447 9.13709 10.3091 9.13709C10.3639 9.13709 10.4735 9.02747 10.5283 9.08228C10.5831 9.08228 10.6379 9.19189 10.6928 9.2467C10.6379 9.19189 10.5831 9.08228 10.4735 9.08228C10.4735 9.13709 10.4187 9.30152 10.5283 9.30152C10.6379 9.35633 10.5831 9.35632 10.6928 9.41113C10.6928 9.35632 10.912 9.30152 10.7476 9.1919C10.912 9.24671 10.9668 9.41114 11.186 9.35633C11.2408 9.35633 11.4601 9.24671 11.4053 9.35633C11.5149 9.30152 11.6793 9.30152 11.7889 9.30152C11.8986 9.24671 12.0082 9.24671 12.1178 9.13709L12.6659 10.6718C12.5015 10.8362 12.5563 11.2198 12.4467 11.4391C12.3918 11.5487 12.3919 11.6583 12.3919 11.7679C12.3919 11.8776 12.2274 11.9872 12.2822 12.0968C12.2274 12.042 12.1178 11.9872 12.063 11.9324C11.9534 11.8776 11.8986 11.7679 11.8438 11.6583C11.7341 11.5487 11.5149 11.4391 11.5697 11.2747C11.6245 11.1102 11.4053 10.9458 11.3505 10.8362C11.2409 10.6718 11.1312 10.4525 11.0764 10.2333C10.9668 10.3429 10.912 10.5073 10.9668 10.6169C11.1312 10.7814 11.0764 11.0006 11.2408 11.2198C11.3505 11.3843 11.4601 11.5487 11.6245 11.7131L11.7889 11.8776C11.8438 11.9324 11.9534 12.0968 11.7889 11.9872C11.8986 12.0968 11.7889 12.2064 11.8986 12.2612C12.0082 12.3708 12.063 12.4805 12.1178 12.5901C12.1178 12.6449 12.1726 12.6997 12.2274 12.7545C12.2822 12.8093 12.2274 12.8641 12.1726 12.9189C12.1726 12.9738 12.2822 13.0834 12.2822 13.0834L12.4467 13.4122C12.6111 13.7959 12.8303 14.1247 12.9948 14.5084C13.0496 14.6728 13.1592 14.7825 13.2688 14.8921C13.3784 15.0017 13.488 15.0565 13.5977 15.1661C13.5428 15.1661 13.4332 15.1661 13.3784 15.1113C13.3236 15.3306 13.3784 15.6046 13.4332 15.7142C13.5428 15.8238 13.3236 16.0431 13.1592 16.0431C13.1044 16.0431 13.0496 15.9883 12.9948 16.0979C12.9399 16.1527 12.9399 16.2623 12.8851 16.3171C12.8303 16.4267 12.8303 16.4816 12.7207 16.4816C12.6659 16.4816 12.5015 16.4816 12.4467 16.5912C12.3918 16.7556 12.3918 16.92 12.1726 16.92C11.8986 16.92 11.7889 16.7008 11.6245 16.7008C11.1312 16.7008 10.912 16.7556 10.5283 16.7008C10.5283 16.646 10.5831 16.5912 10.5283 16.5364C10.4735 16.4267 10.4187 16.5912 10.3639 16.646C10.2543 16.7556 9.81581 16.7008 9.70619 16.7008H5.92433L5.81472 11.6035C5.81472 11.3843 5.81471 11.1102 5.7599 10.891C5.7051 10.7814 5.65029 10.4525 5.59548 10.2881Z" fill="#36A83A"/>
<path d="M18.3486 21.0996C18.0517 21.0996 18.0517 21.0996 18.3486 21.0996C18.0517 21.0996 18.0518 20.8027 18.0518 20.8027C18.0518 21.0996 18.0517 21.0996 18.3486 21.0996Z" fill="#36A83A"/>
<path d="M18.6453 21.3963V21.0993L18.3485 20.8024C18.3485 20.5055 18.0513 20.5055 17.7544 20.2086L17.4576 19.9117C17.4576 19.9117 17.4577 19.6147 17.1608 19.6147V18.724L16.8639 18.4272C16.8639 18.4272 16.5671 18.4271 16.5671 18.1301C16.2702 18.1301 16.2699 17.8334 16.2699 17.5365V16.0519V15.4581C16.2699 15.1612 15.973 15.1611 15.973 14.8642C15.973 14.8642 15.6762 14.8643 15.6762 14.5674V14.2703C15.6762 14.2703 15.6763 13.9735 15.3794 13.9735C15.6763 13.9735 15.3794 13.3797 15.0825 13.3797L14.7853 13.0828L14.4885 12.7858C14.1916 12.4889 13.8948 12.1921 13.8948 11.5983C13.8948 11.5983 13.8949 11.3012 13.598 11.3012H13.3008V10.1137C13.5977 10.1137 13.8947 10.4106 14.1917 10.1137C14.4886 10.1137 14.4884 9.51985 14.7853 9.51985H15.0825C15.0825 9.22294 15.0825 9.22283 15.3794 9.22283L14.4885 8.33214C15.0823 8.33214 15.3792 8.03519 15.973 7.73828C16.27 7.73828 16.567 7.73839 16.8639 8.0353C17.7547 8.33221 18.6452 9.22287 19.239 9.81669C19.5359 9.81669 19.5361 10.1137 19.833 10.1137C20.1299 10.4106 20.1298 10.4105 20.4267 10.4105H21.9113C22.2082 10.4105 22.2081 10.7074 22.2081 10.7074C22.2081 11.0043 22.5052 10.7074 22.8021 10.7074C22.8021 10.7074 23.099 10.7075 23.099 11.0044L23.3958 11.3012V11.5983C23.3958 11.5983 23.6926 11.5982 23.6926 11.8951L23.9898 12.1919C23.9898 12.4888 24.2867 12.4889 24.2867 12.7858C24.2867 13.0827 24.2866 13.0828 24.5835 13.0828V13.6765L24.8804 13.9735C24.8804 13.9735 24.8803 14.2703 25.1772 14.2703C25.1772 14.2703 25.1775 14.5674 25.4744 14.5674H25.7712V15.161C26.0681 15.458 26.3649 16.0519 26.3649 16.0519C27.2556 16.0519 27.5525 16.0518 28.1463 16.3488C28.1463 16.6457 28.4435 16.6457 28.4435 16.9426V17.2395C28.4435 17.8333 28.1463 18.4271 28.1463 18.724C26.9587 19.3178 25.4744 19.6148 23.9898 19.9117C23.6929 19.9117 23.6927 19.9116 23.3958 20.2086C23.0989 20.2086 22.8021 20.8023 22.8021 21.0993L22.5053 21.3963L22.2081 21.0993H20.1299C19.833 21.0993 19.833 20.8023 19.833 21.0993C19.5361 21.0993 19.5362 21.3963 19.5362 21.3963C18.9424 21.0994 18.9422 21.0994 18.6453 21.3963C18.9422 21.3963 18.9422 21.0994 18.6453 21.3963Z" fill="#36A83A"/>
<path d="M12.0635 9.30066C12.1183 9.24585 12.2827 9.02661 12.1731 8.9718C12.3375 8.75256 12.3375 8.47852 12.3923 8.20447C12.3923 8.14966 12.3923 7.98523 12.502 7.93042C12.5568 7.87561 12.502 7.8208 12.502 7.76599C12.5568 7.71118 12.6664 7.76599 12.6664 7.76599C12.776 7.76599 12.776 7.65637 12.776 7.60156C12.9404 7.60156 12.8308 8.20447 12.8308 8.4237C12.8308 8.36889 12.7212 8.25928 12.6116 8.25928C12.502 8.20447 12.502 8.36889 12.4471 8.4237C12.4471 8.53332 12.3923 8.80738 12.502 8.80738C12.776 8.75257 12.3923 8.9718 12.4471 9.13623C12.502 9.24585 12.776 9.02661 12.8308 9.02661V9.35547C12.8308 9.5199 12.776 9.68432 12.7212 9.79394C12.6664 10.0132 12.7212 10.4517 12.5568 10.6709L12.0635 9.30066Z" fill="#36A83A"/>
<path d="M12.4199 7.66614C12.7168 7.36923 12.4198 7.07228 12.7168 7.07228V6.77544L13.0136 6.47852H13.3108C13.3108 6.77543 13.0139 6.77544 13.3108 6.77544C13.3108 6.77544 13.0136 6.77537 13.0136 7.07228L12.7168 7.36921C12.7168 7.66612 12.7168 7.66614 12.4199 7.66614C12.7168 7.96305 12.7168 7.66614 12.4199 7.66614Z" fill="#36A83A"/>
<path d="M21.625 10.4277C21.9219 10.4277 21.9219 10.7246 21.625 10.4277V10.4277Z" fill="#36A83A"/>
<path d="M20.7334 11.0216C21.0303 11.0216 21.0305 10.4278 21.3274 10.1309H21.9211V10.4277C21.9211 10.4277 21.6243 10.4276 21.6243 10.7245C21.6243 10.7245 21.9211 10.7246 21.9211 11.0216C21.9211 11.3185 22.218 11.3185 22.218 11.6154H21.6243V11.3184C21.3274 11.0215 20.7334 11.0216 20.7334 11.0216Z" fill="#36A83A"/>
<path d="M21.3272 11.2287C21.921 11.2287 21.921 10.041 21.3272 10.041C20.7334 10.3379 20.7334 11.2287 21.3272 11.2287Z" fill="#36A83A"/>
<path d="M23.9991 14.1982C23.9991 13.6044 23.9991 13.9013 23.9991 14.1982C23.9991 13.9013 23.9991 13.3074 24.296 13.6044C24.296 13.6044 24.5928 13.6044 24.5928 13.9013V14.792C24.5928 14.792 24.5929 15.0889 24.296 15.0889H23.9991V14.1982Z" fill="#36A83A"/>
<path d="M10.3418 6.18171L10.6386 5.88478C10.9355 5.88478 10.6386 5.58785 10.9355 5.58785H11.5291C11.8261 5.58785 11.8263 5.29102 12.1232 5.29102L11.8263 5.58785V5.88478H11.5291C11.5291 5.88478 11.2323 5.8848 11.2323 6.18171C10.9354 6.47862 10.6387 6.47862 10.3418 6.18171Z" fill="#36A83A"/>
</g>
</g>
</g>
<defs>
<clipPath id="clip0_26003_52670">
<rect width="38" height="25" fill="white" transform="translate(0 0.210938)"/>
</clipPath>
<clipPath id="clip1_26003_52670">
<rect width="38" height="25" fill="white" transform="translate(0 0.210938)"/>
</clipPath>
<clipPath id="clip2_26003_52670">
<rect width="27.2678" height="25" fill="white" transform="translate(5.36621 0.210938)"/>
</clipPath>
</defs>
</svg>
