<svg width="38" height="26" viewBox="0 0 38 26" fill="none" xmlns="http://www.w3.org/2000/svg">
<g clip-path="url(#clip0_26003_52631)">
<g clip-path="url(#clip1_26003_52631)">
<g clip-path="url(#clip2_26003_52631)">
<path d="M31.5656 6.52621L30.9077 6.13148C30.9077 6.19727 31.0393 6.26306 30.9077 6.39463C30.8419 6.39463 30.8419 6.26306 30.8419 6.19727C30.8419 6.06569 30.7762 5.93411 30.6446 5.93411C30.513 5.93411 30.4472 5.93411 30.3156 5.86832C30.2498 5.86832 30.1841 5.80253 30.1841 5.73674V5.60516L30.1183 5.53937C29.9867 5.40779 29.8551 5.342 29.7235 5.27621H29.5919C29.4604 5.27621 29.3288 5.342 29.1972 5.342C29.0656 5.342 28.9341 5.342 28.8683 5.21042H28.8025C28.7367 5.27621 28.7367 5.40779 28.8025 5.47358L28.8683 5.53937V5.67095C28.8683 5.73674 28.8025 5.73674 28.7367 5.73674C28.6709 5.73674 28.6709 5.67095 28.6051 5.67095C28.5393 5.60516 28.4735 5.53937 28.342 5.53937H28.013C27.9472 5.53937 27.8156 5.47358 27.7498 5.47358H27.4867L27.4209 5.53937V5.60516C27.4209 5.53937 27.4209 5.47358 27.3551 5.40779C27.2893 5.342 27.2235 5.342 27.1577 5.342V5.21042C27.2235 5.14463 27.1577 5.07885 27.092 5.07885C26.9604 5.01306 26.8288 5.01306 26.6972 5.01306C26.4341 4.81569 26.2367 4.7499 26.0393 4.81569H25.9077C25.9077 4.68411 25.842 4.61832 25.6446 4.61832C25.6446 4.48674 25.4472 4.55253 25.3814 4.48674C25.4472 4.42095 25.5788 4.48674 25.513 4.35516C25.4472 4.35516 25.3156 4.35516 25.2498 4.42095H25.1841C25.1183 4.35516 25.1183 4.28937 25.0525 4.22358L24.9867 4.28937C24.9209 4.35516 24.9209 4.42095 24.8551 4.48674H24.7893C24.7893 4.48674 24.7893 4.42095 24.8551 4.42095L24.9209 4.35516C24.7893 4.35516 24.7235 4.28937 24.6577 4.15779H24.592C24.4604 4.15779 24.3288 4.15779 24.263 4.092C24.1972 4.092 24.1972 4.092 24.1972 4.15779V4.22358H23.9998V4.61832C23.8683 4.61832 23.8025 4.7499 23.6709 4.68411C23.4735 4.7499 23.342 4.7499 23.1446 4.68411C23.0788 4.68411 23.013 4.68411 22.8814 4.61832C22.8156 4.68411 22.8156 4.81569 22.7498 4.88148H22.6841C22.6183 4.88148 22.6183 4.81569 22.5525 4.81569C22.4209 4.68411 22.3551 4.48674 22.2235 4.35516C22.3551 4.42095 22.3551 4.42095 22.4209 4.35516L22.2893 3.96042C22.2235 4.02621 22.092 4.02621 22.0262 3.96042C21.8946 3.82885 21.763 3.82885 21.6314 3.82885V4.02621C21.2367 4.092 20.842 3.96042 20.513 3.76306C20.4472 3.76306 20.3814 3.76306 20.3156 3.82885C20.2498 3.82885 20.1183 3.82885 20.1841 3.96042C20.1183 3.89463 20.1841 3.76306 20.1183 3.69727C20.0525 3.82885 19.9867 3.82885 19.9209 3.76306L19.8551 3.69727C19.7235 3.4999 19.6577 3.4999 19.592 3.63148L19.6577 3.69727L18.9998 3.96042C18.9998 3.89463 19.0656 3.82885 19.0656 3.82885C19.1314 3.76306 19.263 3.69727 19.3288 3.63148H19.3946C19.5262 3.4999 19.6577 3.43411 19.7893 3.30253C19.8551 3.30253 19.9209 3.30253 19.9209 3.23674C19.9867 3.10516 20.0525 3.10516 20.1183 3.10516C20.2498 3.03937 20.2498 2.97358 20.1841 2.90779L20.2498 2.842L20.1841 2.77621C20.1183 2.71042 20.0525 2.71042 19.9867 2.57885H19.9209C19.7893 2.51306 19.6577 2.51306 19.5262 2.44727C19.4604 2.44727 19.3946 2.38148 19.3288 2.44727C19.263 2.57885 19.1972 2.51306 19.1314 2.51306L19.263 2.31569L18.8683 2.2499L19.0656 2.11832C19.0656 2.11832 19.0656 2.05253 18.9998 2.05253C18.8683 1.98674 18.6709 1.92095 18.5393 2.05253C18.4735 2.05253 18.342 2.18411 18.342 2.2499C18.342 2.44727 18.342 2.44727 18.1446 2.44727H18.013L18.1446 2.57885C18.0788 2.51306 18.013 2.51306 17.9472 2.57885H17.6183C17.5525 2.57885 17.5525 2.57885 17.4867 2.64463C17.3551 2.64463 17.2235 2.64463 17.092 2.77621C17.0262 2.90779 16.8946 2.90779 16.763 2.97358C16.6972 2.97358 16.6314 3.03937 16.4998 3.03937V3.10516H16.3683L16.4998 3.23674H16.3683C16.4341 3.4999 16.4998 3.4999 16.4341 3.63148C16.3683 3.63148 16.3025 3.56569 16.3025 3.63148C16.2367 3.69727 16.1709 3.69727 16.1709 3.69727C16.1051 3.69727 16.1051 3.69727 16.0393 3.76306C15.9077 3.82885 15.7762 3.89463 15.5788 3.82885C15.513 3.89463 15.513 4.15779 15.5788 4.22358C15.6446 4.15779 15.6446 4.15779 15.7104 4.22358H15.7762C15.7762 4.28937 15.842 4.28937 15.842 4.35516V4.42095C15.7762 4.42095 15.7762 4.42095 15.7104 4.35516C15.6527 4.2906 15.5816 4.23947 15.502 4.20536C15.4224 4.17126 15.3364 4.15503 15.2498 4.15779H15.1841C15.1183 4.092 15.0525 4.092 15.0525 4.15779L15.1841 4.28937V4.35516C15.1183 4.35516 15.1183 4.35516 15.0525 4.28937H14.9209V4.42095C14.9867 4.48674 15.0525 4.48674 15.0525 4.55253C15.0525 4.61832 15.1841 4.61832 15.1841 4.68411V4.7499H15.1183C15.0525 4.68411 14.9209 4.61832 14.7893 4.61832L14.7235 4.55253C14.7235 4.42095 14.7235 4.35516 14.7893 4.22358C14.8551 4.15779 14.7893 4.02621 14.6577 3.96042V4.092C14.6577 4.15779 14.6577 4.28937 14.592 4.28937L14.3946 4.48674C14.4604 4.55253 14.4604 4.61832 14.5262 4.61832C14.592 4.68411 14.592 4.81569 14.5262 4.94727C14.4604 5.07885 14.4604 5.21042 14.4604 5.27621C14.4604 5.27621 14.4604 5.342 14.5262 5.342H14.6577C14.8551 5.27621 14.9209 5.342 15.0525 5.47358C15.1183 5.53937 15.1183 5.60516 15.0525 5.67095C14.9867 5.73674 14.9867 5.80253 15.0525 5.86832C15.0525 5.86832 15.1183 5.93411 15.1841 5.93411C15.0525 5.9999 14.9209 5.86832 14.9867 5.67095V5.53937C14.9867 5.47358 14.9209 5.47358 14.9209 5.40779C14.9209 5.342 14.8551 5.342 14.7893 5.342C14.7235 5.342 14.7235 5.40779 14.6577 5.40779C14.592 5.40779 14.592 5.47358 14.592 5.53937C14.592 5.60516 14.592 5.67095 14.6577 5.67095V5.80253C14.592 5.93411 14.4604 6.06569 14.3946 6.19727C14.3288 6.26306 14.263 6.32885 14.1314 6.26306C14.0656 6.32885 13.9341 6.26306 13.8683 6.26306L13.8025 6.19727V6.13148H13.8683C13.9341 6.13148 13.9998 6.19727 14.0656 6.19727C14.0656 6.19727 14.1314 6.19727 14.1314 6.13148C14.1972 6.06569 14.1972 5.9999 14.263 5.93411L14.3288 5.86832C14.3946 5.80253 14.4604 5.80253 14.3946 5.67095V5.60516C14.4604 5.53937 14.3946 5.53937 14.3946 5.47358V4.88148C14.3946 4.7499 14.3946 4.68411 14.3288 4.55253C14.263 4.48674 14.263 4.48674 14.3288 4.42095C14.3946 4.35516 14.3946 4.22358 14.3946 4.092C14.3946 4.02621 14.3946 3.96042 14.3288 3.96042H14.0656L13.8683 4.35516C13.8025 4.42095 13.8025 4.48674 13.6709 4.55253C13.6051 4.61832 13.5393 4.68411 13.5393 4.81569C13.5393 4.88148 13.5393 5.01306 13.4735 5.07885C13.4077 5.14463 13.4735 5.21042 13.5393 5.21042C13.6051 5.21042 13.6051 5.27621 13.6709 5.342C13.7367 5.40779 13.8025 5.40779 13.8025 5.47358V5.53937C13.8025 5.60516 13.7367 5.60516 13.7367 5.67095C13.6709 5.67095 13.6709 5.60516 13.6709 5.60516C13.4735 5.40779 13.2762 5.27621 13.013 5.27621C12.9472 5.27621 12.8814 5.27621 12.8814 5.21042C12.8156 5.21042 12.7498 5.14463 12.6183 5.07885H12.5525C12.4867 5.07885 12.4209 5.01306 12.3551 4.94727C12.2893 4.94727 12.2893 4.88148 12.2235 4.94727C12.2235 5.01306 12.2235 5.01306 12.2893 5.07885C12.3551 5.14463 12.4209 5.14463 12.4867 5.14463L12.5525 5.21042C12.5525 5.27621 12.6183 5.342 12.6183 5.40779C12.6183 5.47358 12.6183 5.53937 12.5525 5.53937H12.4867V5.60516C12.4209 5.60516 12.3551 5.60516 12.4209 5.53937C12.4209 5.47358 12.4209 5.40779 12.3551 5.40779H12.2235C12.092 5.53937 12.0262 5.60516 11.8946 5.60516C11.8288 5.60516 11.763 5.60516 11.6972 5.67095C11.6314 5.73674 11.4998 5.73674 11.4341 5.67095H11.4998C11.4998 5.60516 11.4998 5.53937 11.5656 5.47358C11.4998 5.47358 11.3683 5.47358 11.3683 5.67095C11.3025 5.67095 11.3025 5.60516 11.2367 5.60516C11.1709 5.67095 11.0393 5.67095 10.9077 5.73674C10.842 5.80253 10.842 5.86832 10.7104 5.86832C10.6446 5.86832 10.5788 5.93411 10.5788 6.06569C10.5788 6.13148 10.5788 6.19727 10.513 6.19727C10.4472 6.19727 10.3156 6.19727 10.3156 6.06569C10.1841 5.9999 10.2498 5.93411 10.3156 5.86832C10.3814 5.86832 10.4472 5.80253 10.513 5.80253C10.4472 5.73674 10.3814 5.67095 10.3814 5.60516H10.1841L10.1183 5.67095C10.1183 5.80253 10.0525 5.93411 10.0525 6.06569C10.1841 6.13148 10.1841 6.19727 10.1183 6.46042C10.1183 6.46042 10.0525 6.46042 10.0525 6.39463L9.98669 6.32885C9.9209 6.32885 9.85511 6.32885 9.78932 6.39463L9.72353 6.46042C9.65774 6.46042 9.59195 6.52621 9.52616 6.65779V6.78937L9.59195 6.85516V6.98674H9.46037C9.39458 6.98674 9.39458 6.92095 9.32879 6.92095C9.19721 6.85516 9.13142 6.85516 9.13142 6.78937C9.13142 6.78937 9.06564 6.72358 9.06564 6.78937C8.99985 6.78937 8.99985 6.85516 8.99985 6.92095C8.99985 6.98674 9.06564 7.11832 9.13142 7.11832C9.19721 7.11832 9.19721 7.11832 9.19721 7.18411C9.19721 7.2499 9.13142 7.2499 9.06564 7.2499C8.99985 7.2499 8.93406 7.2499 8.93406 7.11832L8.86827 7.05253C8.80248 7.05253 8.80248 7.05253 8.80248 6.98674V6.65779C8.80248 6.592 8.80248 6.46042 8.73669 6.46042C8.47353 6.32885 8.40774 6.19727 8.34195 6.06569L8.40774 6.13148C8.47353 6.13148 8.47353 6.19727 8.53932 6.19727L9.13142 6.39463C9.32879 6.46042 9.46037 6.39463 9.59195 6.26306C9.72353 6.13148 9.72353 5.9999 9.59195 5.93411L9.52616 5.86832L9.46037 5.80253C9.39458 5.80253 9.32879 5.73674 9.263 5.67095C9.13142 5.53937 9.06564 5.47358 8.99985 5.47358C8.86827 5.40779 8.80248 5.342 8.6709 5.27621H8.40774C8.40774 5.27621 8.34195 5.27621 8.34195 5.21042L8.47353 5.14463C8.40774 5.14463 8.34195 5.07885 8.34195 5.07885C8.34195 5.07885 8.27616 5.14463 8.21037 5.14463H8.14458C8.013 5.21042 7.88142 5.27621 7.81564 5.40779C7.74985 5.53937 7.74985 5.67095 7.88142 5.73674C8.013 5.80253 8.013 5.93411 7.94721 6.06569C7.81564 6.06569 7.81564 6.13148 7.88142 6.26306C7.94721 6.32885 7.94721 6.39464 8.013 6.52621V7.05253C8.013 7.11832 8.013 7.11832 8.07879 7.18411C8.14458 7.2499 8.14458 7.2499 8.07879 7.31569C8.07879 7.31569 8.013 7.31569 8.013 7.38148L8.21037 7.57885C8.27616 7.64463 8.27616 7.71042 8.21037 7.842C8.07879 7.77621 7.94721 7.90779 7.81564 8.10516C7.74985 8.17095 7.74985 8.23674 7.68406 8.23674C7.74985 8.23674 7.74985 8.30253 7.74985 8.30253C7.74985 8.36832 7.81564 8.36832 7.88142 8.36832C7.88142 8.36832 7.94721 8.36832 7.94721 8.43411C7.81564 8.43411 7.68406 8.43411 7.61827 8.63148C7.61827 8.69727 7.55248 8.76306 7.55248 8.82885V9.02621L7.48669 9.092V9.22358C7.55248 9.35516 7.48669 9.55253 7.68406 9.55253H7.74985C7.81564 9.55253 7.88142 9.61832 7.88142 9.68411V9.88148C7.94721 10.0131 8.013 10.0788 8.07879 10.1446C8.07879 10.1446 8.14458 10.2104 8.07879 10.2104C8.07879 10.2104 8.013 10.2762 7.94721 10.2762H7.88142C7.88142 10.342 7.88142 10.4078 7.94721 10.5394C8.21037 10.7367 8.27616 10.7367 8.34195 10.7367C8.47353 10.6052 8.60511 10.7367 8.60511 10.8683C8.60511 10.9341 8.6709 10.9999 8.6709 10.9999C8.80248 10.9999 8.80248 11.1315 8.80248 11.1973C8.86827 11.1973 8.86827 11.2631 8.93406 11.2631H8.99985C9.06564 11.1973 9.06564 11.2631 9.13142 11.3288L9.19721 11.3946C9.263 11.3946 9.32879 11.4604 9.39458 11.4604L9.46037 11.5262C9.46037 11.592 9.46037 11.6578 9.39458 11.7236V11.7894C9.39458 11.921 9.39458 11.9209 9.32879 11.9209C9.263 11.9209 9.13142 12.0525 9.19721 12.1183H9.32879L9.13142 12.2499L9.19721 12.3157C9.19721 12.3815 9.13142 12.4473 9.13142 12.4473L8.99985 12.5788C8.99985 12.6446 9.06564 12.6446 9.06564 12.7104L9.39458 13.0394L9.46037 13.1052C9.52616 13.171 9.65774 13.2367 9.65774 13.3683C9.72353 13.4999 9.72353 13.5657 9.59195 13.6315C9.52616 13.6973 9.39458 13.6973 9.263 13.6973C9.06564 13.7631 8.86827 13.6315 8.73669 13.4999C8.60511 13.4341 8.34195 13.4341 8.27616 13.4999C8.14458 13.6315 8.013 13.6973 7.88142 13.6315H7.81564C7.81564 13.7631 7.81564 13.8288 7.68406 13.8288H7.55248C7.48669 13.8288 7.4209 13.8946 7.4209 13.9604C7.4209 13.9604 7.48669 14.0262 7.48669 14.092C7.55248 14.2236 7.4209 14.2894 7.55248 14.421V14.4867C7.55248 14.5525 7.61827 14.5525 7.61827 14.6183C7.61827 14.6183 7.68406 14.6841 7.74985 14.6841C7.81564 14.6841 7.81564 14.7499 7.81564 14.7499L7.88142 14.8157C7.94721 14.8157 7.94721 14.7499 8.013 14.7499C8.07879 14.7499 8.07879 14.6841 8.14458 14.6841C8.21037 14.6841 8.21037 14.7499 8.27616 14.7499C8.40774 14.8157 8.47353 14.8815 8.60511 14.7499C8.6709 14.6841 8.6709 14.6841 8.73669 14.7499H8.86827V15.2104L8.6709 15.8683C8.60511 15.9999 8.60511 16.1315 8.6709 16.2631C8.6709 16.3288 8.73669 16.3946 8.73669 16.4604C8.6709 16.6578 8.73669 16.8552 8.80248 16.9867C8.93406 17.1841 8.99985 17.3815 9.06564 17.5788C9.06564 17.6446 9.13142 17.6446 9.13142 17.7104C9.263 17.842 9.32879 17.9736 9.32879 18.1709C9.32879 18.3025 9.32879 18.4341 9.46037 18.5657C9.52616 18.6315 9.59195 18.6973 9.65774 18.8288C9.65774 18.8946 9.72353 18.9604 9.72353 19.0262C9.78932 19.1578 9.85511 19.3552 9.9209 19.4867C9.9209 19.6183 9.9209 19.7499 9.98669 19.8157C9.98669 19.8815 10.0525 19.9473 10.0525 20.0131C10.0525 20.1446 10.1183 20.2104 10.2498 20.1446C10.2498 19.9473 10.4472 19.9473 10.5788 19.8157H10.6446C10.7104 19.8157 10.7762 19.7499 10.842 19.6841C10.9077 19.6183 10.9077 19.5525 10.9735 19.4867C11.0393 19.4209 11.1709 19.4209 11.2367 19.4867C11.3025 19.2894 11.3025 19.2894 11.4341 19.2236C11.6314 19.1578 11.763 19.0262 11.8946 18.8946C11.9604 18.8288 12.0262 18.7631 12.0262 18.6315V18.4999C12.1577 18.3025 12.2235 18.1709 12.3551 17.9736C12.3551 17.9078 12.2893 17.842 12.2893 17.7762C12.2893 17.7104 12.2235 17.6446 12.1577 17.6446C12.0262 17.6446 11.9604 17.5131 11.9604 17.3815C11.9604 17.2499 11.8946 17.1841 11.8946 17.0525C11.8288 17.1841 11.763 17.2499 11.6972 17.3815C11.6314 17.5131 11.5656 17.5131 11.4341 17.5131H11.3025C11.2367 17.5788 11.2367 17.5131 11.1709 17.4473V17.1841C11.1709 17.1841 11.1709 17.1183 11.1051 17.1183L11.0393 17.1841C11.0393 17.2499 11.0393 17.2499 10.9735 17.3157C10.9077 17.2499 10.9077 17.1841 10.9077 17.1183C10.9077 17.0525 10.9077 16.9867 10.842 16.9209C10.7104 16.7894 10.6446 16.592 10.6446 16.4604C10.5788 16.2631 10.5788 16.2631 10.7762 16.1973C10.9077 16.1973 10.9735 16.1973 10.9735 16.3288C11.0393 16.4604 11.0393 16.5262 11.1051 16.6578C11.1051 16.7236 11.1709 16.7894 11.2367 16.7894L11.3683 16.9209C11.4998 16.9867 11.6314 17.1183 11.763 17.0525C11.9604 16.9867 11.9604 16.9867 12.0262 17.1841C12.0262 17.2499 12.092 17.3157 12.1577 17.2499C12.2235 17.2499 12.2235 17.1841 12.2893 17.1841C12.4209 17.1841 12.4867 17.2499 12.6183 17.2499C12.6841 17.3157 12.8156 17.3815 13.013 17.3157C13.1446 17.3157 13.2104 17.3157 13.342 17.2499C13.4077 17.2499 13.4735 17.3157 13.5393 17.4473V17.5131C13.5393 17.5788 13.5393 17.6446 13.6051 17.6446C13.6709 17.6446 13.6709 17.7104 13.7367 17.7762C13.8025 17.9078 13.8683 17.9078 13.9341 17.9078H13.9998C13.9341 18.0394 13.8683 17.9736 13.8025 18.0394C13.8683 18.1052 13.9341 18.2367 13.9998 18.3025C14.0656 18.3683 14.1314 18.3683 14.1972 18.3683C14.263 18.3025 14.3288 18.2367 14.3288 18.1709V18.1052C14.3288 18.2367 14.3946 18.3025 14.3946 18.4341V18.6973C14.4604 18.8946 14.3946 19.092 14.5262 19.2894V19.3552C14.5262 19.5525 14.592 19.7499 14.6577 19.9473C14.7235 20.0788 14.7235 20.1446 14.7235 20.2762C14.7893 20.4736 14.8551 20.6709 14.9867 20.8683C14.9867 20.9341 15.0525 20.9999 15.1183 21.0657C15.1183 21.0657 15.1841 21.0657 15.1841 20.9999C15.2498 20.8683 15.3814 20.8025 15.3814 20.6709V20.6052C15.3814 20.5394 15.4472 20.5394 15.4472 20.4736C15.4472 20.4078 15.4472 20.2762 15.513 20.2104C15.513 20.0788 15.5788 20.0131 15.5788 19.8815V19.4867C15.5788 19.4209 15.6446 19.4209 15.6446 19.4209C15.7762 19.3552 15.842 19.2236 15.842 19.092C15.9077 18.8946 15.9735 18.6973 16.1051 18.5657C16.1051 18.5657 16.1051 18.4999 16.1709 18.4999C16.2367 18.4341 16.2367 18.3683 16.3683 18.3683H16.4998C16.4998 18.1709 16.5656 18.1709 16.6972 18.1052H16.763C16.8288 18.0394 17.0262 18.1052 17.0262 17.9078C17.0262 17.842 17.092 17.842 17.092 17.9078C17.092 17.9736 17.1577 18.0394 17.1577 18.1052C17.1577 18.2367 17.2235 18.3683 17.2893 18.4341L17.3551 18.4999C17.4867 18.6973 17.4867 18.9604 17.4867 19.2236C17.4867 19.2894 17.4867 19.3552 17.5525 19.3552C17.6183 19.3552 17.6183 19.3552 17.6841 19.2894C17.7498 19.2236 17.7498 19.1578 17.8156 19.092C17.8814 19.2236 17.9472 19.3552 17.9472 19.4867C17.9472 19.6183 18.013 19.7499 18.013 19.8157C18.013 19.8815 18.0788 19.9473 18.0788 20.0788V20.6052C18.0788 20.6709 18.0788 20.7367 18.013 20.8683C18.013 20.9341 18.013 20.9341 18.0788 20.9999C18.2104 21.1315 18.2762 21.2631 18.342 21.5262C18.342 21.6578 18.4077 21.7894 18.4077 21.8552C18.4077 21.921 18.4735 21.9867 18.4735 22.0525C18.5393 22.2499 18.7367 22.3157 18.8683 22.4473C18.8683 22.3815 18.8683 22.3815 18.8025 22.3157C18.7367 22.1841 18.6709 22.0525 18.7367 21.8552V21.7894C18.7367 21.7236 18.7367 21.6578 18.6709 21.6578C18.6051 21.592 18.6051 21.5262 18.5393 21.4604C18.4735 21.3946 18.4735 21.3288 18.4077 21.3288C18.2762 21.2631 18.2762 21.1973 18.2762 21.0657C18.2762 20.9999 18.2762 20.8683 18.2104 20.8025C18.0788 20.7367 18.1446 20.6709 18.1446 20.5394C18.2104 20.342 18.2104 20.1446 18.2104 19.9473C18.2104 19.8815 18.2762 19.8815 18.2762 19.8815C18.342 19.9473 18.4077 19.9473 18.4735 20.0131L18.6051 20.1446C18.6051 20.2104 18.6709 20.2104 18.6709 20.2762C18.6709 20.342 18.6709 20.4078 18.7367 20.4078C18.7367 20.4736 18.8025 20.5394 18.8025 20.5394C18.9341 20.4736 18.9341 20.6052 18.9998 20.6709C18.9998 20.7367 18.9341 20.8025 18.9341 20.8683L18.9998 20.8025C19.0656 20.8025 19.1314 20.7367 19.1314 20.6709C19.1972 20.6052 19.1972 20.4736 19.3288 20.5394L19.3946 20.4736C19.3946 20.342 19.4604 20.2762 19.5262 20.2762V19.6841C19.5262 19.5525 19.4604 19.4209 19.3946 19.3552C19.3288 19.2236 19.1972 19.1578 19.1314 19.0262C19.0656 18.9604 19.0656 18.8288 18.9998 18.6973C18.9341 18.5657 19.1314 18.4341 19.1314 18.3025H19.1972C19.1972 18.3025 19.263 18.3025 19.263 18.2367L19.3946 18.1052H19.4604C19.4604 18.1052 19.4604 18.1709 19.5262 18.1709L19.592 18.1052C19.6577 18.2367 19.5262 18.3683 19.6577 18.4341C19.6577 18.3025 19.7235 18.2367 19.7893 18.1709C19.9209 18.1052 19.9867 17.9736 20.1183 17.9078H20.1841C20.2498 17.9736 20.3156 17.9078 20.3814 17.842C20.4472 17.7762 20.513 17.6446 20.6446 17.6446H20.7104C20.842 17.5788 20.9077 17.5131 20.9077 17.3157V17.1841C20.9077 17.0525 20.9735 16.9209 21.1051 16.8552C21.1709 16.8552 21.2367 16.7894 21.2367 16.7236L21.3025 16.6578C21.3025 16.592 21.3683 16.592 21.3683 16.5262C21.3683 16.3946 21.3683 16.3288 21.4341 16.2631L21.1709 16.1973L21.3683 16.0657L21.1709 15.8025L21.3683 15.8683C21.3683 15.8025 21.3025 15.8025 21.3025 15.7367L21.2367 15.6709C21.1709 15.5394 21.1709 15.4736 21.1051 15.342C21.1051 15.2762 21.0393 15.2762 21.0393 15.2104C20.9735 15.1446 20.9735 15.0788 21.0393 15.0131L21.1051 14.9473C21.1709 14.8157 21.3025 14.6841 21.4341 14.6841L21.4998 14.6183C21.4998 14.5525 21.4341 14.5525 21.4341 14.5525C21.3683 14.5525 21.3683 14.5525 21.3025 14.4867C21.2367 14.421 21.2367 14.421 21.1709 14.4867C21.1709 14.4867 21.1709 14.5525 21.1051 14.5525C21.0393 14.5525 21.0393 14.6183 20.9735 14.6183C20.9735 14.5525 20.9077 14.5525 20.9077 14.4867C20.9077 14.3552 20.9077 14.3552 20.7762 14.3552C20.7104 14.3552 20.6446 14.3552 20.6446 14.2236C20.6446 14.092 20.7104 14.092 20.7762 14.092C20.842 14.092 20.842 14.092 20.9077 14.0262C20.9077 13.9604 20.9735 13.8946 21.0393 13.8946L21.1051 13.8288C21.1051 13.7631 21.1709 13.7631 21.1709 13.6973C21.2367 13.6315 21.3025 13.6315 21.3025 13.6973C21.3683 13.7631 21.3025 13.8288 21.3025 13.8288C21.2367 13.8946 21.2367 14.0262 21.1709 14.1578C21.2367 14.1578 21.2367 14.092 21.3025 14.092C21.3683 14.0262 21.4341 13.9604 21.5656 13.8946C21.6314 13.8288 21.763 13.8946 21.763 13.9604C21.8288 14.0262 21.763 14.092 21.6972 14.1578C21.6314 14.2236 21.6314 14.2894 21.6972 14.3552C21.763 14.3552 21.8288 14.2894 21.8288 14.3552C21.8946 14.4209 21.8946 14.4867 21.9604 14.5525C21.8946 14.5525 21.8946 14.6183 21.8946 14.6841V14.8815C21.8288 14.9473 21.8946 15.0788 21.8946 15.1446C22.0262 15.0788 22.092 14.9473 22.2235 14.8815H22.2893C22.3551 14.8815 22.3551 14.8815 22.3551 14.7499C22.3551 14.6841 22.3551 14.6183 22.2893 14.5525C22.2893 14.4867 22.2893 14.4867 22.2235 14.421C22.1577 14.2894 22.0262 14.2236 22.0262 14.0262C22.0262 13.9604 22.0262 13.9604 21.9604 13.9604C21.8946 13.8946 21.8946 13.8288 21.9604 13.8288C22.0262 13.7631 22.0262 13.6973 22.092 13.6315C22.1577 13.5657 22.1577 13.4999 22.2235 13.4999C22.2235 13.4999 22.2893 13.4999 22.2893 13.4341C22.2893 13.2367 22.4209 13.1709 22.5525 13.0394C22.6183 12.9736 22.6841 12.9736 22.7498 13.0394C22.8156 13.1052 22.8814 13.1052 22.8814 13.0394C22.9472 12.9736 23.0788 12.9078 23.1446 12.7762C23.342 12.5131 23.5393 12.1841 23.6709 11.8552C23.8025 11.592 23.8683 11.3946 23.9341 11.0657C23.9341 10.9341 23.9341 10.8025 23.9998 10.6709C24.0656 10.5394 23.9998 10.4736 23.9998 10.342C23.9998 10.2762 23.9341 10.1446 23.8683 10.0788V10.0131C23.8025 9.88148 23.7367 9.88148 23.6709 9.94727L23.5393 10.0788C23.5393 10.0788 23.4735 10.0788 23.4735 10.1446V9.88148C23.4077 9.94727 23.4077 10.0131 23.4077 10.0131V9.81569H23.2104V9.7499C23.2104 9.68411 23.2762 9.68411 23.2762 9.61832C23.2762 9.48674 23.342 9.42095 23.4735 9.42095C23.4735 9.22358 23.4735 9.15779 23.6051 9.092C23.7367 8.96042 23.8683 8.76306 23.9998 8.63148C24.0656 8.56569 24.1314 8.43411 24.263 8.43411H24.8551C24.9209 8.36832 25.0525 8.36832 25.1183 8.43411H25.1841C25.2498 8.36832 25.3156 8.36832 25.3814 8.36832H25.4472C25.513 8.36832 25.5788 8.43411 25.5788 8.43411L25.513 8.4999V8.56569H25.6446C25.7104 8.56569 25.7762 8.4999 25.842 8.4999C25.9735 8.56569 26.0393 8.43411 26.1709 8.43411C26.1051 8.43411 26.1051 8.36832 26.1051 8.36832C26.0393 8.36832 26.0393 8.30253 26.0393 8.23674C26.1051 8.10516 26.1709 7.97358 26.3025 7.90779C26.3683 7.90779 26.3683 7.842 26.3683 7.77621C26.3683 7.71042 26.4341 7.64463 26.4998 7.64463H26.6314C26.6972 7.64463 26.763 7.57885 26.763 7.71042L26.8288 7.64463L26.763 7.90779L26.8288 7.97358L26.763 8.03937L26.8946 7.90779C26.9604 7.842 27.0262 7.71042 27.1577 7.71042V7.51306C27.1577 7.38148 27.3551 7.31569 27.4209 7.44727C27.2893 7.44727 27.2893 7.51306 27.2893 7.57885V7.77621C27.2235 7.842 27.2235 7.97358 27.1577 7.97358C27.092 7.97358 27.092 8.03937 27.0262 8.03937C27.0262 8.03937 26.9604 8.10516 26.9604 8.17095C26.8946 8.30253 26.763 8.36832 26.6972 8.4999C26.5656 8.69727 26.4341 8.82885 26.2367 8.89463C26.2367 8.96042 26.1709 9.02621 26.1709 9.092V9.22358C26.2367 9.28937 26.2367 9.35516 26.2367 9.42095C26.1709 9.68411 26.1709 9.94727 26.1709 10.2104C26.1709 10.4078 26.1051 10.671 26.2367 10.8683C26.3683 10.7367 26.4341 10.6052 26.4998 10.4736C26.4998 10.342 26.5656 10.2762 26.6314 10.2762C26.6972 10.2104 26.6972 10.2104 26.6972 10.1446C26.6314 9.88148 26.6972 9.81569 26.8946 9.68411L26.9604 9.61832C27.0262 9.55253 27.0262 9.48674 27.1577 9.48674H27.2235V9.42095C27.1577 9.28937 27.1577 9.28937 27.2235 9.15779C27.2235 9.15779 27.2235 9.092 27.2893 9.092H27.1577C27.092 9.092 27.0262 9.02621 27.092 8.96042C27.092 8.89463 27.1577 8.82885 27.1577 8.76306C27.1577 8.69727 27.2235 8.69727 27.2235 8.63148C27.2235 8.56569 27.2893 8.4999 27.2893 8.4999C27.3551 8.36832 27.4209 8.36832 27.4867 8.43411L27.6183 8.23674C27.6841 8.36832 27.7498 8.36832 27.8156 8.36832C27.9472 8.23674 28.0788 8.23674 28.2104 8.36832C28.2762 8.30253 28.4077 8.17095 28.5393 8.10516C28.6709 7.97358 28.8025 7.90779 28.9341 7.842C29.0656 7.77621 29.263 7.77621 29.3288 7.57885C29.3946 7.57885 29.4604 7.64463 29.5262 7.64463C29.5919 7.64463 29.6577 7.64463 29.6577 7.51306C29.5262 7.51306 29.4604 7.38148 29.3946 7.2499C29.3288 7.11832 29.263 7.05253 29.3288 6.92095C29.263 6.92095 29.263 6.92095 29.1972 6.85516V6.78937H29.3946C29.4604 6.65779 29.5919 6.72358 29.6577 6.65779C30.1841 6.78937 30.1841 6.72358 30.1841 6.65779C30.1183 6.592 30.1183 6.52621 30.1841 6.52621C30.2498 6.52621 30.2498 6.46042 30.3156 6.46042C30.2498 6.592 30.2498 6.65779 30.3156 6.72358C30.3814 6.78937 30.4472 6.72358 30.513 6.72358C30.5788 6.72358 30.7104 6.78937 30.7104 6.85516C30.7104 6.92095 30.7762 6.92095 30.7762 6.92095C30.842 6.98674 30.9077 6.98674 30.9735 7.05253C31.0393 7.11832 31.1051 7.18411 31.1709 7.11832L31.1051 7.05253H31.1709V6.72358L31.3683 6.78937L31.3025 6.72358L31.4341 6.78937L31.5656 6.52621ZM25.3156 24.6183C25.3156 24.6183 25.2498 24.5525 25.2498 24.4867C25.2498 24.421 25.2498 24.3552 25.1841 24.2894C25.1841 24.2894 25.1841 24.2236 25.1183 24.2236L25.2498 24.1578C25.2498 24.092 25.1841 24.0262 25.1841 24.0262C25.1183 23.9604 25.0525 23.9604 25.0525 23.9604C24.9867 23.8946 24.9209 23.8946 24.9209 23.8288C24.8551 23.7631 24.7893 23.6315 24.7235 23.5657L24.3288 23.3683C24.263 23.3025 24.1314 23.3025 24.0656 23.2367C23.9998 23.2367 23.9341 23.2367 23.8683 23.1052C23.8025 23.0394 23.7367 23.0394 23.6709 23.0394C23.6051 23.171 23.4735 23.2367 23.4077 23.3683C23.342 23.4341 23.2762 23.4341 23.2762 23.3025C23.2762 23.1709 23.2104 23.1052 23.2104 22.9736C23.2104 22.9078 23.2104 22.842 23.1446 22.842C23.0788 22.7762 22.9472 22.7762 22.8814 22.7762C22.8156 22.7762 22.7498 22.9078 22.6841 22.9736C22.7498 23.0394 22.8156 23.0394 22.8156 23.1052C22.8156 23.171 22.8814 23.2367 22.9472 23.171H23.0788L23.1446 23.2367H23.0788C23.013 23.2367 22.9472 23.2367 22.8156 23.3025C22.8814 23.3683 22.8814 23.4341 22.8814 23.4341C22.8814 23.4341 22.9472 23.4999 22.9472 23.5657L23.013 23.4999C23.0788 23.5657 23.1446 23.5657 23.2104 23.6315L23.2762 23.6973C23.4077 23.7631 23.5393 23.7631 23.6709 23.8288C23.7367 23.8288 23.7367 23.8946 23.7367 23.9604C23.7367 24.0262 23.8025 24.092 23.8025 24.1578C23.8025 24.2236 23.8025 24.2236 23.7367 24.2894C23.6709 24.2894 23.6709 24.3552 23.6051 24.3552C23.5393 24.421 23.6051 24.4867 23.6709 24.421H23.8683C23.9341 24.421 23.9341 24.421 23.9998 24.4867C24.0656 24.5525 24.0656 24.6183 24.1314 24.6183C24.1972 24.6841 24.3288 24.6841 24.3946 24.6183C24.4604 24.5525 24.4604 24.4867 24.5262 24.421C24.592 24.3552 24.592 24.3552 24.7235 24.3552C24.8551 24.421 24.9867 24.5525 25.0525 24.7499C25.1183 24.8157 25.1183 24.8815 25.1841 24.8815C25.2498 24.8815 25.3156 24.9473 25.4472 24.9473H25.5788C25.5788 24.9473 25.5788 24.8815 25.513 24.8815C25.4472 24.8157 25.4472 24.6841 25.3156 24.6183ZM20.6446 23.1052C20.6446 23.0394 20.7104 22.9736 20.7104 22.842C20.7104 22.7104 20.7762 22.6446 20.842 22.6446C20.9077 22.6446 20.9077 22.5788 20.9077 22.5788C20.9077 22.5131 20.842 22.5131 20.842 22.4473C20.842 22.3815 20.7762 22.3815 20.7762 22.3815C20.7762 22.2499 20.6446 22.1841 20.7104 22.0525C20.7104 22.0525 20.7104 21.9867 20.7762 21.9209C20.7762 21.8552 20.842 21.8552 20.842 21.8552C20.842 21.7894 20.9077 21.7894 20.9077 21.7894L20.9735 21.7236C20.9735 21.6578 20.9735 21.6578 20.9077 21.6578H20.842C20.7762 21.6578 20.7104 21.6578 20.7104 21.592C20.7104 21.5262 20.6446 21.5262 20.5788 21.4604C20.5788 21.4604 20.513 21.5262 20.513 21.592C20.4472 21.7236 20.3814 21.8552 20.3156 21.9209C20.1841 21.8552 20.1841 21.8552 20.1841 21.9867C20.1841 22.0525 20.1183 22.0525 20.1183 22.1183C20.1183 22.2499 20.0525 22.3157 19.9209 22.3157C19.8551 22.3157 19.7893 22.3157 19.7893 22.4473V22.5131C19.7893 22.6446 19.7893 22.6446 19.6577 22.5788H19.592C19.5262 22.5131 19.4604 22.5131 19.3946 22.6446V22.842C19.3946 22.9078 19.3946 22.9078 19.4604 22.9736C19.4604 23.0394 19.4604 23.1052 19.5262 23.1052C19.592 23.171 19.6577 23.3025 19.6577 23.4341V23.4999C19.6577 23.5657 19.7235 23.6315 19.7893 23.5657H19.8551C19.9209 23.6315 19.9209 23.6315 19.9867 23.6315C20.0525 23.5657 20.1841 23.6315 20.2498 23.6973C20.3156 23.7631 20.3156 23.7631 20.3814 23.6973C20.513 23.6315 20.513 23.5657 20.513 23.4341C20.5788 23.2367 20.5788 23.171 20.6446 23.1052Z" fill="#36A83A"/>
<path d="M11.4347 4.61862V4.48704C11.5005 4.48704 11.5663 4.55283 11.5663 4.61862C11.5663 4.7502 11.632 4.7502 11.632 4.7502C11.7636 4.81599 11.8952 4.81599 11.961 4.81599H12.0926C12.0926 4.7502 12.0268 4.7502 12.0268 4.68441C11.961 4.61862 11.8952 4.55283 11.8294 4.42125C11.7636 4.28967 11.7636 4.22388 11.8952 4.0923V4.02651C11.8952 3.96072 11.961 3.89493 11.961 3.89493C12.0268 3.82914 12.0268 3.82914 11.961 3.69757C11.961 3.63178 11.961 3.5002 12.0268 3.43441C12.0926 3.36862 12.2241 3.30283 12.2899 3.23704C12.4215 3.23704 12.4873 3.23704 12.5531 3.17125C12.6847 2.97388 12.882 2.90809 13.0136 2.8423C13.1452 2.77651 13.3426 2.71072 13.4741 2.64493C13.5399 2.57914 13.6715 2.51335 13.7373 2.44757C13.7373 2.44757 13.8031 2.38178 13.7373 2.31599C13.7373 2.2502 13.6715 2.2502 13.6715 2.2502C13.6057 2.2502 13.5399 2.2502 13.4084 2.31599C13.2768 2.38178 13.211 2.44757 13.0136 2.44757C12.9478 2.64493 12.7505 2.57914 12.5531 2.64493C12.4215 2.71072 12.2899 2.8423 12.1584 2.90809L12.0268 3.03967C11.961 3.03967 11.961 3.03967 11.961 3.17125V3.23704C11.8952 3.23704 11.8952 3.36862 11.8952 3.36862C11.8952 3.43441 11.8294 3.5002 11.7636 3.5002C11.7636 3.5002 11.6978 3.56599 11.6978 3.63178C11.6978 3.76335 11.6978 3.82914 11.5663 3.82914C11.5663 3.96072 11.5005 3.96072 11.4347 3.96072L11.5005 4.0923L11.3689 4.22388C11.2373 4.22388 11.3031 4.35546 11.2373 4.42125H11.3689C11.3689 4.55283 11.3031 4.61862 11.4347 4.61862ZM19.0005 23.8949V23.566C19.0005 23.5002 19.0663 23.5002 19.0663 23.4344C19.0663 23.3028 19.0005 23.237 18.9347 23.1713H18.8689C18.8689 23.1713 18.8689 23.237 18.9347 23.237L19.0005 23.3028C18.9347 23.3028 18.8689 23.3028 18.8689 23.237C18.8031 23.1712 18.8031 23.1055 18.7373 23.0397H18.6715C18.6057 23.0397 18.6057 22.9739 18.6057 22.9081V22.7765C18.5399 22.7107 18.5399 22.6449 18.4741 22.5791C18.4084 22.5134 18.2768 22.4476 18.211 22.3818C18.1452 22.3818 18.1452 22.316 18.0794 22.2502C18.0136 22.1844 18.0136 22.1186 17.9478 22.0528C17.882 21.987 17.882 21.9213 17.8163 21.8555C17.8163 21.7897 17.7505 21.7897 17.6847 21.7239C17.6189 21.6581 17.4873 21.6581 17.4215 21.6581V21.7239C17.4873 21.7897 17.4873 21.9212 17.5531 21.987C17.6189 22.0528 17.6847 22.1186 17.6847 22.2502C17.6847 22.2502 17.6847 22.316 17.7505 22.316C17.882 22.3818 17.882 22.5134 17.882 22.6449C17.882 22.7107 17.9478 22.7107 17.9478 22.7765C18.0136 22.8423 18.0794 22.9081 18.0794 23.0397C18.1452 23.237 18.2768 23.4344 18.3426 23.566C18.4084 23.7634 18.5399 23.8949 18.6715 24.0265H18.8689C19.0005 23.9607 19.0005 23.8949 19.0005 23.8949ZM24.0005 14.2897C23.9347 14.4212 23.9347 14.5528 23.8031 14.6186C23.7373 14.6844 23.6715 14.6844 23.6715 14.5528C23.6715 14.6186 23.6057 14.6844 23.6057 14.6844C23.6057 14.7502 23.6057 14.7502 23.5399 14.816C23.5399 14.8818 23.4741 14.8818 23.4741 14.9476C23.4741 15.0134 23.4084 15.0134 23.4084 15.0134C23.3426 14.9476 23.3426 15.0134 23.2768 15.0134H23.0794C23.0136 15.0134 23.0136 15.0134 23.0136 15.0791L22.8163 15.2765C22.7505 15.3423 22.7505 15.3423 22.8163 15.4081C22.882 15.4081 22.9478 15.4081 23.0136 15.3423C23.0794 15.2765 23.211 15.2107 23.3426 15.2107C23.4741 15.2107 23.4741 15.2107 23.4741 15.3423V15.4081H23.6057C23.6715 15.3423 23.7373 15.2765 23.6715 15.1449L23.8031 15.2765C23.8689 15.2107 23.9347 15.2107 24.0005 15.1449C24.0663 15.0791 24.132 14.9476 24.1978 14.8818C24.2636 14.816 24.2636 14.6844 24.2636 14.487C24.2636 14.4213 24.2636 14.3555 24.3294 14.2897C24.3952 14.2239 24.3952 14.1581 24.3952 14.0923C24.3952 13.9607 24.3294 13.7634 24.3294 13.6318C24.1978 13.6318 24.0663 13.7634 24.132 13.9607C24.132 14.0923 24.0663 14.1581 24.0005 14.2897C24.0663 14.2897 24.0663 14.2897 24.0005 14.2897ZM20.9741 23.5002C21.0399 23.5002 21.0399 23.566 21.0399 23.6318V23.9607C21.1057 23.8949 21.1715 23.8291 21.1715 23.7634V23.4344L21.2373 23.3686C21.2373 23.3686 21.3031 23.4344 21.3031 23.5002V23.566C21.3031 23.6318 21.3689 23.6976 21.3689 23.7634H21.4347C21.5663 23.6976 21.5663 23.6976 21.5005 23.566V23.5002C21.5005 23.4344 21.5005 23.3686 21.4347 23.3028C21.3689 23.237 21.3689 23.237 21.4347 23.1713C21.5005 23.1055 21.5663 23.1055 21.5663 23.0397V22.9739H21.5005C21.4347 22.9739 21.3031 23.0397 21.3031 23.1055C21.2373 23.1712 21.2373 23.1712 21.1715 23.1055C21.1057 22.9739 21.1057 22.8423 21.2373 22.7765C21.3689 22.7107 21.5005 22.7107 21.632 22.7765H21.7636C21.8294 22.7107 21.8294 22.6449 21.8952 22.5791C21.8952 22.5791 21.8294 22.5791 21.8294 22.6449C21.6978 22.7765 21.5663 22.7765 21.4347 22.7107C21.3689 22.7107 21.3031 22.6449 21.2373 22.7107C21.1715 22.7765 21.1057 22.7765 21.1057 22.8423L20.9084 23.5002C20.9084 23.4344 20.9084 23.5002 20.9741 23.5002ZM24.0005 3.17125C24.0005 3.17125 24.0663 3.10546 24.0663 3.17125C24.132 3.23704 24.1978 3.17125 24.1978 3.17125H24.3294C24.461 3.17125 24.461 3.17125 24.3952 3.03967V2.97388C24.3952 2.97388 24.3952 2.90809 24.461 2.90809L24.5268 2.97388C24.5268 3.10546 24.5926 3.17125 24.7241 3.17125C24.7241 3.17125 24.7899 3.17125 24.7899 3.10546C24.7899 3.03967 24.8557 2.97388 24.8557 2.97388V2.90809C24.8557 2.8423 24.6584 2.71072 24.5926 2.77651C24.5268 2.8423 24.3952 2.8423 24.3294 2.8423H24.2636C24.1978 2.90809 24.1978 2.8423 24.132 2.8423C24.0959 2.80994 24.049 2.79204 24.0005 2.79204C23.9519 2.79204 23.9051 2.80994 23.8689 2.8423C23.8031 2.90809 23.8031 2.97388 23.8031 3.10546C23.8031 3.17125 23.8031 3.23704 23.8689 3.23704C23.8689 3.23704 23.9347 3.23704 24.0005 3.17125ZM24.1978 13.1713C24.132 13.237 24.132 13.3028 24.132 13.3028V13.3686C24.132 13.4344 24.132 13.5002 24.1978 13.566L24.3294 13.5002L24.1978 13.3686C24.3294 13.3686 24.461 13.3028 24.5926 13.5002C24.5926 13.4344 24.5926 13.4344 24.6584 13.3686C24.6584 13.237 24.7899 13.237 24.8557 13.237C24.9215 13.237 24.9215 13.237 24.9873 13.1713C24.9873 13.1055 24.9873 13.1055 25.0531 13.0397L25.1847 12.9081H24.9873C24.8557 12.9739 24.7899 12.9081 24.7241 12.8423C24.6584 12.7765 24.5926 12.7107 24.5926 12.6449H24.5268L24.461 12.7107C24.5268 12.7765 24.461 12.9081 24.461 12.9739C24.3294 13.0397 24.3294 13.237 24.1978 13.1713ZM17.6847 0.868618H17.6189C17.4215 0.934408 17.4215 0.934408 17.4873 1.13178C17.5531 1.19757 17.6189 1.32914 17.6847 1.32914C17.7505 1.39493 17.882 1.32914 18.0136 1.39493H18.1452C18.211 1.39493 18.211 1.32914 18.1452 1.26335V1.19757C18.1452 1.13178 18.211 1.13178 18.211 1.06599C18.211 1.0002 18.211 0.934408 18.1452 0.868618C18.0794 0.868618 18.0136 0.802829 18.0136 0.934408C18.0136 0.934408 17.9478 0.934408 17.9478 0.868618C17.9116 0.836253 17.8648 0.818359 17.8163 0.818359C17.7677 0.818359 17.7209 0.836253 17.6847 0.868618ZM18.1452 1.78967C18.4084 1.78967 18.6715 1.72388 18.8689 1.65809C18.9347 1.65809 18.9347 1.5923 19.0005 1.5923V1.52651C19.0005 1.52651 19.0005 1.46072 18.9347 1.46072C18.8689 1.46072 18.8031 1.46072 18.7373 1.39493C18.6715 1.32914 18.6057 1.32914 18.5399 1.39493V1.32914L18.3426 1.26335C18.3426 1.32914 18.3426 1.46072 18.2768 1.46072V1.52651C18.2768 1.5923 18.211 1.65809 18.211 1.72388C18.1452 1.72388 18.1452 1.78967 18.1452 1.78967ZM21.961 20.737C21.8952 20.8028 21.8952 20.8028 21.8952 20.8686C21.8952 20.9344 21.8294 20.9344 21.8294 21.0002C21.7636 21.0002 21.7636 21.066 21.6978 21.066C21.6978 21.066 21.632 21.066 21.632 21.0002C21.5663 20.9344 21.5663 21.0002 21.5005 21.0002C21.4347 21.0002 21.4347 21.066 21.3689 21.1318C21.3031 21.1976 21.3031 21.2634 21.3031 21.3291C21.3689 21.2634 21.4347 21.2634 21.5005 21.1976C21.5663 21.1318 21.5663 21.1976 21.5663 21.2634V21.3291C21.5663 21.5265 21.6978 21.5923 21.8294 21.6581V21.4607C21.8294 21.3949 21.8294 21.3291 21.8952 21.3291C21.961 21.3291 22.0268 21.2634 22.0268 21.1976C22.0926 21.066 22.0926 20.9344 21.961 20.737C22.0268 20.737 22.0268 20.737 21.961 20.737ZM21.1715 19.3555H21.1057C21.1057 19.487 21.1715 19.5528 21.1715 19.6186C21.1715 19.6844 21.2373 19.6844 21.2373 19.7502C21.2373 19.8818 21.2373 19.8818 21.3689 19.8818H21.4347C21.5005 19.8818 21.5663 19.9476 21.5663 19.9476L21.5005 19.816H21.4347C21.3689 19.5528 21.3689 19.5528 21.5005 19.3555C21.5005 19.2897 21.5663 19.2239 21.5663 19.2239C21.5663 19.1581 21.5663 19.0265 21.5005 18.9607H21.3689C21.2373 18.8949 21.2373 18.9607 21.2373 19.0923C21.1715 19.1581 21.1715 19.2239 21.1715 19.3555ZM19.7899 24.1581C19.6584 24.2239 19.5926 24.1581 19.5268 24.0923C19.461 24.0923 19.461 24.0265 19.3952 23.9607C19.3294 23.9607 19.2636 23.8949 19.1978 23.8949C19.132 23.8949 19.132 23.9607 19.0663 24.0265V24.0923C19.0663 24.0923 19.132 24.0923 19.132 24.1581H19.1978C19.2636 24.2239 19.3952 24.2897 19.461 24.2897C19.5268 24.2239 19.5926 24.2897 19.6584 24.2897H19.7241C19.9215 24.2897 20.1189 24.2239 20.2505 24.0923H20.1847C19.9873 24.2239 19.8557 24.2239 19.7899 24.1581ZM24.5268 11.7239C24.5268 11.6581 24.5268 11.5923 24.5926 11.5923C24.5268 11.1976 24.5268 10.8686 24.3294 10.5397V11.0002C24.3294 11.1318 24.3952 11.2634 24.3294 11.3949V12.4476C24.3294 12.4476 24.3294 12.3818 24.3952 12.3818L24.461 12.316L24.5268 12.3818C24.5268 12.3818 24.5268 12.4476 24.5926 12.4476H24.6584C24.6584 12.3818 24.6584 12.316 24.5926 12.316C24.461 12.1844 24.461 12.0528 24.461 11.9212C24.5268 11.8555 24.5268 11.7897 24.5268 11.7239Z" fill="#36A83A"/>
<path d="M17.0263 0.935238C17.0921 1.00103 17.0921 1.00103 17.0921 1.06682C17.1579 1.13261 17.2895 1.06682 17.2895 1.00103C17.4211 0.869449 17.4211 0.869449 17.4868 0.869449C17.5526 0.869449 17.6184 0.803659 17.6842 0.803659C17.6842 0.803659 17.75 0.803659 17.75 0.73787C17.5526 0.803659 17.4868 0.73787 17.4868 0.540502L17.2237 0.474712C17.2895 0.540502 17.2895 0.606291 17.2237 0.672081L17.1579 0.73787C17.1579 0.803659 17.1579 0.803659 17.2237 0.869449L17.2895 0.935238H17.1579C17.1579 0.869449 17.0921 0.869449 17.0263 0.935238ZM15.3816 21.0668C15.3816 21.1984 15.3816 21.33 15.5132 21.3958L15.5789 21.4616C15.7763 21.1984 15.7105 20.9352 15.4474 20.6721C15.3816 20.8694 15.3816 20.9352 15.3816 21.0668ZM22.6184 15.7379L22.6842 15.6063V16.001C22.6842 16.001 22.6842 16.0668 22.75 16.0668C22.75 16.0668 22.75 16.001 22.8158 16.001C22.8816 15.9352 22.8816 15.8037 22.9474 15.6721V15.5405C22.8816 15.4747 22.8816 15.4089 22.8158 15.4089C22.6184 15.5405 22.5526 15.6063 22.6184 15.7379ZM25.6447 3.23787L25.7105 3.17208L25.6447 3.10629C25.5132 3.10629 25.4474 3.0405 25.3158 3.0405C25.25 3.0405 25.1842 3.0405 25.1184 2.90892L24.9868 3.10629C25.1842 3.17208 25.3816 3.23787 25.5789 3.23787H25.6447ZM21.4342 20.2773C21.3684 20.3431 21.3684 20.4089 21.3684 20.5405H21.5V20.8037C21.5 20.8037 21.5 20.8694 21.5658 20.8694C21.5658 20.8694 21.6316 20.8694 21.6316 20.8037C21.6974 20.7379 21.6974 20.6721 21.6974 20.5405V20.4747C21.6974 20.4089 21.6316 20.3431 21.6316 20.3431C21.5658 20.3431 21.5 20.3431 21.4342 20.2773ZM25.7105 23.8958C25.6447 23.9616 25.5132 23.9616 25.4474 23.9616H25.3158C25.3816 24.0931 25.5132 24.1589 25.6447 24.1589C25.7763 24.0931 25.9079 23.8958 25.9079 23.7642L25.8421 23.83C25.7763 23.83 25.7763 23.83 25.7105 23.8958ZM24.6579 3.76419C24.5263 3.56682 24.3289 3.50103 24.1974 3.76419C24.3289 3.82998 24.4605 3.89576 24.5921 3.82998C24.6579 3.82998 24.6579 3.76419 24.6579 3.76419ZM12.1579 0.474712V0.408923C12.1579 0.408923 12.1579 0.343133 12.0921 0.343133C12.0263 0.343133 11.8947 0.277344 11.8289 0.277344H11.7632C11.8289 0.408923 11.6974 0.408923 11.6316 0.474712C11.7632 0.606291 12.0263 0.606291 12.1579 0.474712ZM7.55263 13.7642C7.61842 13.6984 7.68421 13.6984 7.75 13.6984H7.81579C7.75 13.6326 7.75 13.5668 7.68421 13.501H7.48684C7.48684 13.6326 7.42105 13.6984 7.42105 13.83C7.48684 13.83 7.55263 13.83 7.55263 13.7642ZM10.8421 0.803659C10.9079 0.803659 10.9737 0.672081 11.0395 0.672081C11.0395 0.672081 11.1053 0.672081 11.1053 0.606291H11.2368V0.540502H11.1711C11.1053 0.540502 10.9737 0.606291 10.9079 0.606291C10.8421 0.606291 10.7105 0.672081 10.6447 0.672081V0.73787C10.7105 0.803659 10.7763 0.803659 10.8421 0.803659ZM21.2368 18.1063L21.4342 17.5142C21.4342 17.4484 21.4342 17.3826 21.3684 17.4484C21.3026 17.5142 21.2368 17.6458 21.3026 17.7116C21.3684 17.7773 21.3026 17.8431 21.3026 17.9089C21.1711 17.9747 21.1711 18.0405 21.2368 18.1063ZM29.9868 4.81682H30.0526C30.1184 4.81682 30.1842 4.75103 30.25 4.75103H30.4474C30.4474 4.75103 30.4474 4.68524 30.3816 4.68524C30.25 4.55366 29.9868 4.61945 29.8553 4.75103V4.81682H29.9868ZM19.6579 18.7642C19.7237 18.6984 19.7895 18.6326 19.7895 18.501H19.5921C19.5263 18.501 19.3947 18.6984 19.4605 18.7642C19.4605 18.83 19.5263 18.83 19.5263 18.83C19.5921 18.83 19.6579 18.83 19.6579 18.7642ZM21.8947 24.5537C21.8289 24.5537 21.8289 24.6194 21.7632 24.6852C21.6974 24.6852 21.6316 24.751 21.6316 24.8826C21.6316 24.9484 21.6974 24.9484 21.6974 24.9484C21.7632 24.9484 21.7632 24.8826 21.8289 24.8168C21.8947 24.751 21.8947 24.6852 21.9605 24.6852C22.0263 24.6194 22.0921 24.6194 22.1579 24.5537V24.4879C22.0921 24.4879 21.9605 24.5537 21.8947 24.5537ZM12.1579 0.672081C12.0921 0.672081 12.0263 0.73787 11.9605 0.73787L11.8947 0.803659L11.9605 0.869449C12.0263 0.869449 12.1579 0.869449 12.2237 0.803659C12.2237 0.803659 12.2895 0.803659 12.2895 0.73787C12.2895 0.73787 12.3553 0.73787 12.3553 0.672081V0.606291C12.2895 0.672081 12.2237 0.606291 12.1579 0.672081ZM12.8816 0.540502C12.6842 0.277344 12.5526 0.408923 12.4211 0.606291C12.5526 0.672081 12.75 0.672081 12.8816 0.540502ZM6.69737 9.88261C6.69737 9.9484 6.63158 10.0142 6.63158 10.08C6.5 10.0142 6.5 10.0142 6.5 10.08C6.63158 10.08 6.76316 10.08 6.89474 10.1458C6.89474 10.1458 6.96053 10.1458 6.96053 10.08V9.9484C6.89474 9.88261 6.76316 9.88261 6.69737 9.88261Z" fill="#36A83A"/>
<path d="M23.0786 15.4089C22.9471 15.4089 22.9471 15.5405 22.9471 15.6721C22.9471 15.6721 22.9471 15.7379 23.0128 15.7379L23.0786 15.6721C23.0786 15.6063 23.1444 15.6063 23.1444 15.5405C23.276 15.6063 23.276 15.4747 23.276 15.4089V15.2773H23.1444C23.1444 15.3431 23.1444 15.4089 23.0786 15.4089ZM22.4207 22.6458V22.5142C22.355 22.5142 22.355 22.4484 22.355 22.4484C22.355 22.4484 22.355 22.3826 22.2892 22.3826C22.2892 22.3826 22.2234 22.3826 22.2234 22.4484C22.1576 22.58 22.2234 22.7773 22.2892 22.9089C22.2892 22.7773 22.355 22.7773 22.4207 22.6458ZM21.8944 20.2773C21.8286 20.2773 21.6971 20.2116 21.6313 20.2116V20.2773C21.6971 20.2773 21.7628 20.2773 21.6971 20.3431C21.6313 20.4747 21.7629 20.5405 21.7629 20.6721C21.8286 20.6063 21.8286 20.5405 21.8944 20.4747C21.9602 20.3431 21.9602 20.2773 21.8944 20.2773ZM20.7102 24.4879H20.5128V24.5537L20.5786 24.6194C20.7102 24.6194 20.776 24.5537 20.8418 24.5537V24.4879H20.7102ZM10.776 5.27734C10.7102 5.34313 10.7102 5.40892 10.776 5.47471C10.8418 5.5405 10.9076 5.5405 10.9076 5.47471C10.9734 5.47471 10.9734 5.40892 11.0392 5.34313C10.9734 5.27734 10.8418 5.21155 10.776 5.27734ZM21.6971 24.4879H21.5655C21.4339 24.5537 21.3681 24.5537 21.2365 24.4879C21.1707 24.4879 21.105 24.4879 21.0392 24.5537C21.3023 24.751 21.4997 24.5537 21.6971 24.4879ZM22.7497 23.5668C22.7497 23.501 22.6839 23.4352 22.6839 23.4352C22.6181 23.3037 22.4865 23.3694 22.4207 23.3694L22.355 23.4352L22.4207 23.501C22.4865 23.501 22.6181 23.501 22.6839 23.5668H22.7497ZM20.7102 21.001C20.776 21.001 20.776 21.001 20.7102 21.001C20.8418 20.8694 20.9734 20.7379 21.0392 20.6063V20.4747L20.7102 21.001ZM8.67074 14.9484C8.60495 15.0142 8.53917 15.08 8.40759 15.08L8.3418 15.1458L8.40759 15.2116H8.53917C8.53917 15.08 8.60495 15.0142 8.67074 14.9484ZM19.9207 3.43524C19.9865 3.50103 20.1181 3.50103 20.1839 3.43524L20.2497 3.36945L20.1839 3.30366C20.0523 3.36945 19.9865 3.36945 19.9207 3.43524ZM26.3023 23.9616C26.3023 24.0931 26.3681 24.1589 26.4339 24.2247H26.4997V24.1589C26.4339 24.0931 26.3681 23.9616 26.3023 23.9616ZM13.276 0.474712C13.1444 0.343133 13.0128 0.343133 12.9471 0.474712C13.0128 0.540502 13.1444 0.540502 13.276 0.474712ZM20.9734 24.751C20.9734 24.8168 21.1707 24.9484 21.1707 24.9484V24.8826C21.1707 24.8168 21.0392 24.751 20.9734 24.751ZM12.1576 0.343133C12.2234 0.343133 12.2892 0.277344 12.355 0.277344H11.8944C11.9602 0.343133 12.026 0.343133 12.1576 0.343133ZM21.1707 19.9484C21.1707 20.0142 21.2365 20.08 21.2365 20.1458H21.3023V20.08L21.1707 19.9484ZM17.0918 0.343133L17.026 0.277344C16.9602 0.277344 16.9602 0.343133 16.8944 0.343133L17.026 0.474712L17.0918 0.343133ZM22.026 23.4352C22.026 23.501 22.0918 23.501 22.1576 23.5668C22.1576 23.5668 22.2234 23.5668 22.2234 23.501L22.0918 23.3694L22.026 23.4352ZM25.9076 23.501L26.0392 23.7642C26.0392 23.6984 26.105 23.6984 26.105 23.6326C26.0392 23.6326 25.9734 23.5668 25.9076 23.501ZM11.4997 0.803659C11.5655 0.73787 11.4997 0.672081 11.4997 0.672081C11.4339 0.672081 11.4339 0.672081 11.3681 0.73787V0.803659H11.4997ZM26.8286 24.3563C26.8286 24.4879 26.8944 24.5537 27.026 24.5537L26.8286 24.3563ZM27.1576 24.5537C27.1576 24.6852 27.2234 24.751 27.2892 24.8168C27.2234 24.751 27.2234 24.6194 27.1576 24.5537ZM24.1971 3.43524C24.1313 3.43524 24.1313 3.43524 24.1313 3.50103V3.56682H24.2628V3.43524H24.1971ZM27.1576 24.8826L27.026 24.6852C27.026 24.8168 27.026 24.8826 27.1576 24.8826ZM22.6181 25.2116H22.8155V25.1458L22.6181 25.2116ZM15.3813 4.02734V3.96155L15.3155 4.02734V4.09313C15.3155 4.02734 15.3155 4.02734 15.3813 4.02734ZM21.7629 20.6721C21.7629 20.7379 21.6971 20.7379 21.6971 20.8037L21.7629 20.8694V20.6721ZM20.3155 24.4879V24.6194L20.4471 24.5537L20.3155 24.4879Z" fill="#36A83A"/>
</g>
</g>
</g>
<defs>
<clipPath id="clip0_26003_52631">
<rect width="38" height="25" fill="white" transform="translate(0 0.210938)"/>
</clipPath>
<clipPath id="clip1_26003_52631">
<rect width="38" height="25" fill="white" transform="translate(0 0.210938)"/>
</clipPath>
<clipPath id="clip2_26003_52631">
<rect width="25" height="25" fill="white" transform="translate(6.5 0.210938)"/>
</clipPath>
</defs>
</svg>
