<svg width="60" height="60" viewBox="0 0 60 60" fill="none" xmlns="http://www.w3.org/2000/svg">
<g clip-path="url(#clip0_26003_72252)">
<g clip-path="url(#clip1_26003_72252)">
<g clip-path="url(#clip2_26003_72252)">
<path d="M59.6845 33.4737L60.0003 33.1579C59.8424 32.8421 59.6845 32.6842 59.5266 32.5263L59.2108 32.6842V32.2105H58.7371C58.4213 32.3684 58.1055 32.5263 57.7897 32.8421C57.6318 32.6842 57.7897 32.3684 58.2634 32.2105C58.5792 32.0526 58.895 32.0526 59.0529 31.8947V31.7368C58.895 31.7368 58.7371 31.5789 58.5792 31.5789C58.2634 31.5789 57.7897 31.7368 57.6318 31.2632H57.4739C57.1582 31.1053 56.8424 30.7895 56.8424 30.4737C56.8424 30.3158 56.8424 30.1579 56.5266 30L56.3687 29.8421C56.5266 30 56.6845 30 56.8424 29.8421C57.0003 29.6842 57.1582 29.5263 56.8424 29.3684C56.6845 29.3684 56.6845 29.2105 56.5266 29.2105C56.2108 28.8947 55.7371 28.5789 55.7371 28.1053C55.7371 27.9474 55.5792 27.6316 55.4213 27.4737C55.4213 27.3158 55.2634 27.1579 55.2634 27V26.5263C55.1055 27 54.7897 27.6316 54.6318 28.1053C54.316 27.9474 54.316 27.9474 54.1582 28.2632C54.1582 28.4211 53.6845 28.5789 53.5266 28.5789C53.3687 28.4211 53.2108 28.1053 52.7371 28.1053V27.9474C52.7371 27.7895 52.5792 27.6316 52.5792 27.6316C52.2634 27.3158 52.2634 27 52.4213 26.8421C52.5792 26.6842 52.5792 26.5263 52.7371 26.3684H52.4213C51.9476 26.5263 51.6318 26.3684 51.1582 26.2105C51.0003 26.0526 50.6845 25.8947 50.6845 25.7368L50.5266 25.5789C50.2108 25.5789 50.0529 25.2632 50.0529 25.1053C49.7371 25.1053 49.4213 24.9474 49.1055 24.9474C48.9476 24.9474 48.7897 24.7895 48.4739 24.7895C48.1582 24.6316 48.0003 24.9474 48.0003 25.1053C47.8424 25.2632 48.0003 25.4211 48.1582 25.5789C48.316 25.7368 48.3161 25.7368 48.3161 25.8947C48.1582 26.0526 48.1582 26.3684 48.3161 26.6842C48.4739 26.8421 48.4739 27 48.4739 27.1579V27.4737C48.1582 27.7895 48.1582 27.7895 48.4739 28.1053V28.2632C48.4739 28.4211 48.6318 28.5789 48.6318 28.7368C48.7897 29.0526 48.7897 29.3684 48.9476 29.6842C49.1055 30.1579 49.1055 30.7895 48.6318 31.1053C48.316 31.4211 48.0003 31.8947 47.3687 31.8947C47.3687 32.0526 47.5266 32.2105 47.5266 32.3684C47.5266 32.5263 47.6845 32.6842 47.6845 32.8421C47.8424 33.1579 47.8424 33.4737 47.8424 33.9474V34.2632C47.8424 34.4211 47.6845 34.4211 47.8424 34.5789V34.7368C47.5266 34.4211 47.5266 34.4211 47.2108 35.0526C47.0529 34.8947 46.895 34.8947 46.7371 34.7368C46.4213 34.4211 46.4213 34.1053 46.1055 33.7895C45.9476 33.1579 45.7897 33 45.7897 32.6842V31.4211C45.7897 31.2632 45.6318 31.2632 45.4739 31.1053H44.2108C43.895 30.9474 43.7371 30.7895 43.2634 30.7895C43.2634 30.7895 43.1055 30.7895 43.1055 30.6316C42.9476 30.6316 42.9476 30.4737 42.7897 30.4737C42.4739 30.4737 42.1582 30.3158 42.1582 30C42.0003 29.6842 42.0003 29.5263 41.5266 29.5263C41.3687 29.5263 41.2108 29.3684 41.2108 29.3684C41.0529 29.2105 40.895 29.2105 40.5792 29.3684C40.4213 29.3684 40.2634 29.5263 40.1055 29.5263V28.8947C40.1055 28.7368 39.9476 28.4211 39.9476 28.2632C39.9476 28.1053 39.7897 27.9474 39.4739 27.9474C39.0003 27.9474 39.0003 27.7895 39.0003 27.4737C39.0003 26.8421 39.1582 26.2105 39.316 25.4211C39.316 25.1053 39.6318 24.9474 39.9476 24.7895C40.2634 24.6316 40.2634 24.4737 40.4213 24.1579H40.7371C41.0529 24.1579 41.2108 24 41.2108 23.8421C41.2108 23.5263 40.895 23.6842 40.7371 23.5263C40.5792 23.5263 40.4213 23.5263 40.4213 23.3684C40.4213 23.0526 40.1055 23.0526 39.9476 23.0526C39.7897 23.0526 39.7897 23.0526 39.6318 22.8947H40.1055C40.4213 23.0526 40.7371 23.0526 41.0529 23.2105C41.5266 23.3684 41.6845 23.2105 41.6845 22.8947V22.7368C41.8424 22.7368 42.0003 22.8947 42.1582 22.8947C42.3161 22.8947 42.4739 23.0526 42.6318 22.8947C42.7897 22.5789 42.9476 22.4211 43.2634 22.1053L43.4213 21.9474C43.2634 21.9474 43.2634 21.9474 43.1055 21.7895H42.7897C42.4739 21.7895 42.0003 21.6316 41.8424 21.3158V21.1579H42.0003C42.1582 21.3158 42.316 21.3158 42.4739 21.4737C42.7897 21.7895 43.1055 21.9474 43.5792 21.4737L43.7371 21.3158C43.895 21.1579 43.895 21 43.7371 21C43.7371 21 43.7371 20.8421 43.5792 20.8421H44.0529C44.2108 21.1579 44.5266 21 44.8424 21C45.0003 20.6842 44.3687 20.6842 44.5266 20.2105L45.1582 21C45.3161 20.8421 45.4739 20.8421 45.4739 20.6842C45.6318 20.5263 45.7897 20.2105 46.1055 20.2105C46.2634 20.2105 46.2634 20.0526 46.2634 19.8947C46.1055 19.5789 45.9476 19.2632 45.7897 19.1053V18.9474H45.9476C46.1055 18.9474 46.2634 18.9474 46.4213 18.7895C46.4213 18.7895 46.4213 18.6316 46.2634 18.4737C46.4213 18.3158 46.4213 18.1579 46.1055 18.1579C45.9476 18.1579 45.7897 18 45.6318 17.8421C45.6318 17.8421 45.6318 17.6842 45.4739 17.6842C45.1582 17.6842 44.8424 17.5263 44.3687 17.5263C44.2108 17.5263 44.0529 17.5263 44.0529 17.6842C44.0529 17.8421 43.895 18 44.2108 18.1579C44.3687 18.3158 44.3687 18.6316 44.2108 18.6316C43.895 18.7895 43.895 18.9474 43.895 19.1053C43.895 19.2632 43.7371 19.4211 43.7371 19.5789H43.5792V19.4211C43.5792 19.2632 43.5792 19.2632 43.4213 19.1053H43.2634V19.4211C43.2634 19.4211 43.4213 19.4211 43.4213 19.5789C43.4213 19.7368 43.5792 19.8947 43.4213 20.0526C43.4213 20.2105 43.1055 20.2105 43.1055 20.3684C42.9476 20.2105 42.7897 19.8947 42.6318 19.7368C42.4739 19.5789 42.4739 19.2632 42.7897 19.1053V18.9474C42.7897 18.6316 42.4739 18.4737 42.316 18.3158C42.1582 18.3158 42.1582 18.1579 42.0003 18.1579L41.8424 18.3158C41.6845 18.6316 41.5266 18.7895 41.5266 19.1053C41.3687 18.9474 41.5266 18.6316 41.3687 18.4737C41.2108 18.1579 41.3687 18.1579 41.5266 18C41.2108 17.3684 41.0529 17.0526 40.5792 17.3684C40.5792 17.2105 40.4213 16.8947 40.895 16.7368C41.0529 16.7368 41.0529 16.5789 40.895 16.4211C40.5792 16.2632 40.5792 15.9474 40.2634 15.9474V15.7895C40.2634 15.3158 40.1055 15 39.6318 14.8421C39.4739 14.8421 39.4739 14.6842 39.6318 14.5263C39.7897 14.3684 39.9476 14.0526 40.1055 13.8947C39.9476 13.7368 39.9476 13.7368 39.9476 13.5789C40.1055 13.5789 40.2634 13.5789 40.4213 13.7368C40.5792 13.7368 40.895 13.7368 40.895 13.5789L41.3687 12.6316C41.5266 12.4737 41.3687 12.3158 41.0529 12.3158H40.4213C39.9476 12 39.6318 12.1579 39.1582 12.1579C38.8424 12.1579 38.8424 12.3158 38.8424 12.6316V12.7895H38.5266V13.4211C38.5266 13.7368 38.6845 13.8947 38.6845 14.2105C38.6845 14.5263 38.8424 14.8421 38.6845 15C38.5266 15.3158 38.3687 15.4737 38.5266 15.6316L38.3687 15.4737H38.2108C38.0529 15.6316 38.0529 15.9474 38.2108 16.1053C38.3687 16.2632 38.3687 16.2632 38.2108 16.4211C37.895 16.7368 38.2108 17.2105 38.6845 17.2105C38.8424 17.2105 39.0003 17.2105 39.1582 17.3684C39.316 17.3684 39.4739 17.5263 39.316 17.6842C39.316 17.8421 39.1582 18 39.1582 18.1579V18.3158L39.4739 17.8421C39.7897 18.3158 39.316 18.7895 38.6845 18.9474V19.1053C38.6845 19.2632 38.6845 19.4211 38.8424 19.5789C38.8424 19.7368 38.8424 19.8947 38.5266 19.7368C38.2108 19.5789 38.0529 19.4211 38.2108 19.2632C38.2108 19.1053 38.3687 18.9474 38.3687 18.9474C38.0529 18.9474 37.7371 18.9474 37.5792 18.6316H38.0529C38.2108 18.4737 38.3687 18.4737 38.3687 18.4737C38.5266 18.4737 38.6845 18.4737 38.6845 18.3158V17.8421H38.0529V17.6842H38.5266C38.5266 17.5263 38.3687 17.3684 38.2108 17.5263C37.895 17.6842 37.7371 17.5263 37.5792 17.3684C37.2634 17.2105 37.2634 17.2105 37.1055 17.5263V17.6842C37.1055 17.8421 36.9476 17.8421 36.9476 17.8421C36.7897 17.8421 36.7897 18 36.6318 18C36.7897 18 36.9476 18.1579 36.9476 18.1579C37.2634 18.1579 37.4213 18.3158 37.4213 18.4737L37.2634 18.6316H36.9476V19.2632C36.316 19.1053 35.8424 19.2632 35.3687 19.2632C35.0529 19.2632 34.7371 19.2632 34.5792 18.9474L34.4213 18.7895C34.1055 18.7895 33.9476 18.6316 33.6318 18.6316C33.316 18.6316 33.316 18.4737 33.316 18.1579C33.316 18 33.1582 17.8421 33.0003 17.8421C32.5266 18 32.2108 18.1579 31.7371 18.3158C31.5792 18.3158 31.7371 18.4737 31.5792 18.6316H31.895C32.2108 18.4737 32.5266 18.3158 32.8424 18.3158H33.0003C32.8424 18.6316 32.5266 18.6316 32.2108 18.7895C31.895 18.7895 31.895 18.9474 31.895 19.2632C32.0529 19.5789 32.0529 19.7368 32.2108 19.8947L31.895 20.2105C31.7371 20.2105 31.5792 20.2105 31.7371 19.8947C31.7371 19.7368 31.7371 19.5789 31.5792 19.4211C31.2634 19.2632 30.9476 19.1053 30.7897 18.9474H30.6318C30.1582 18.9474 29.8424 19.1053 29.3687 19.1053H28.2634C27.9476 19.1053 27.9476 18.9474 28.1055 18.7895C28.2634 18.6316 28.4213 18.6316 28.7371 18.4737C28.7371 18.1579 28.1055 17.6842 27.7897 17.8421H27.1582C26.8424 17.6842 26.5266 17.5263 26.2108 17.5263C25.7371 17.3684 25.2634 17.3684 24.9476 17.0526C24.6318 16.7368 24.0003 16.8947 23.8424 17.2105C23.6845 17.5263 23.5266 17.5263 23.2108 17.5263V16.7368H23.0529C23.0529 16.8947 22.895 16.8947 22.895 17.0526C22.7371 17.2105 22.7371 17.3684 22.5792 17.5263L22.4213 17.6842C22.2634 17.6842 22.2634 17.6842 22.1055 17.5263C22.1055 17.3684 22.1055 17.2105 21.9476 17.0526C21.7897 16.7368 21.6318 16.4211 21.1582 16.2632L21.316 16.7368C21.1582 17.0526 21.0003 17.2105 20.8424 17.3684C20.5266 17.2105 20.3687 17.2105 20.2108 17.3684C20.0529 17.5263 20.0529 17.6842 19.7371 17.5263H19.5792C19.2634 17.6842 19.1055 17.8421 18.9476 18C18.9476 18.1579 18.7897 18.3158 18.4739 18.1579C18.4739 18.1579 18.4739 18 18.6318 18C19.1055 17.6842 19.4213 17.2105 20.0529 17.0526C20.2108 17.0526 20.3687 16.8947 20.5266 16.7368V16.5789L19.1055 17.0526C18.9476 17.0526 18.7897 17.2105 18.7897 17.2105C18.6318 17.2105 18.4739 17.3684 18.316 17.2105C18.1582 17.0526 17.8424 17.2105 17.5266 17.3684C17.2108 17.5263 17.2108 17.6842 17.3687 17.8421C17.3687 18 17.5266 18 17.5266 18.1579C17.2108 18 16.895 18 16.5792 18C16.1055 18 15.7897 17.6842 15.4739 17.3684H15.0003C14.5266 17.3684 13.895 17.3684 13.4213 17.0526C13.2634 16.8947 13.1055 16.8947 12.7897 17.0526C12.7897 17.3684 12.4739 17.3684 12.1582 17.3684C12.0003 17.3684 11.8424 17.2105 11.6845 17.2105L11.3687 17.5263C11.2108 17.6842 10.5792 17.8421 10.4213 17.5263C10.2634 17.2105 9.94763 17.0526 9.47394 17.0526C9.31605 17.0526 9.00026 16.8947 8.84236 16.8947C8.68447 16.8947 8.68447 16.7368 8.52657 16.5789C8.36868 16.4211 8.21078 16.4211 8.21078 16.2632C8.21078 16.2632 8.05289 16.1053 7.89499 16.1053H6.78973C6.15815 16.1053 5.68447 16.4211 5.21078 16.7368C5.05289 16.8947 4.7371 17.0526 4.5792 17.0526C4.26342 17.0526 4.10552 17.2105 3.78973 17.2105C3.00026 17.5263 2.21078 17.8421 1.5792 18.3158C1.42131 18.4737 1.26341 18.4737 1.10552 18.4737C0.947625 18.4737 0.789731 18.6316 0.631836 18.6316C0.947625 18.9474 1.10552 19.1053 1.42131 18.9474H1.7371C1.89499 19.1053 2.21078 19.2632 2.36868 19.4211C2.52657 19.4211 2.52657 19.5789 2.68447 19.5789C3.00026 19.7368 3.31605 19.8947 3.31605 20.3684C3.31605 20.5263 3.47394 20.6842 3.63184 20.6842H3.94763C3.94763 20.6842 3.94763 20.8421 3.78973 20.8421C3.47394 20.8421 3.31605 20.8421 3.15815 21.1579H3.00026C2.68447 21.1579 2.36868 21 2.05289 21V20.6842C1.89499 20.6842 1.7371 20.3684 1.42131 20.6842L0.947626 21.1579C0.789731 21.1579 0.316046 21.3158 0.000257 21.4737C-0.157638 21.6316 -0.157638 21.6316 0.000257 21.7895C0.158152 21.9474 0.473941 21.9474 0.631836 22.1053C0.473941 22.2632 0.473941 22.4211 0.631836 22.4211L0.789731 22.5789C0.947625 22.5789 1.10552 22.7368 1.26341 22.7368H2.21078C2.36868 22.7368 2.52657 22.7368 2.68447 22.5789C2.84236 22.4211 3.00026 22.2632 3.15815 22.2632H3.47394V22.4211C3.15815 22.5789 3.31605 22.8947 3.47394 23.0526C3.63184 23.5263 3.31605 23.6842 2.84236 23.5263C2.68447 23.5263 2.68447 23.5263 2.52657 23.6842C2.52657 23.8421 2.36868 24 2.36868 24.1579L1.5792 23.8421C1.7371 24.3158 1.7371 24.6316 1.26341 24.7895V24.9474C1.10552 25.1053 1.10552 25.4211 0.947626 25.5789C1.26341 25.7368 1.42131 25.8947 1.10552 26.2105L1.7371 26.8421C1.7371 26.8421 1.89499 26.8421 2.05289 27C2.21078 27 2.36868 27.1579 2.52657 27.1579C2.68447 27.3158 2.84236 27.3158 2.84236 27.1579C2.84236 27.1579 2.84236 27 3.00026 27C3.47394 27.3158 3.00026 27.7895 3.31605 28.2632C3.47394 28.1053 3.63184 28.1053 3.94763 27.9474C4.10552 27.9474 4.26341 27.7895 4.42131 27.7895H4.7371C5.05289 27.6316 5.36868 27.6316 5.52657 27.9474C5.52657 27.9474 5.52657 28.1053 5.68447 28.1053H6.00026C5.84236 28.4211 5.68447 28.5789 5.68447 28.7368C5.68447 29.2105 5.36868 29.5263 5.05289 29.8421H4.89499C4.42131 30 4.26341 30.3158 4.10552 30.4737C3.94763 30.6316 3.94763 30.6316 3.78973 30.6316H3.31605C3.15815 30.7895 3.00026 31.1053 2.84236 31.2632H3.00026C3.15815 31.2632 3.31605 31.1053 3.31605 31.1053L3.63184 30.7895C3.78973 30.9474 3.78973 30.9474 4.10552 30.7895C4.26341 30.7895 4.26341 30.6316 4.42131 30.6316C4.89499 30.6316 5.36868 30.4737 5.52657 30C5.52657 30 5.52657 29.8421 5.68447 29.8421C6.00026 29.6842 6.15815 29.5263 6.47394 29.3684L6.63184 29.2105L6.94763 28.8947C7.10552 28.8947 7.10552 28.7368 7.26341 28.7368C7.42131 28.4211 8.05289 28.4211 8.05289 27.9474C8.36868 27.7895 8.36868 27.6316 8.05289 27.4737C8.05289 27.4737 7.89499 27.4737 7.89499 27.3158C8.05289 27.1579 8.36868 27 8.52657 26.8421C8.68447 26.8421 8.68447 26.6842 8.84236 26.5263C8.84236 26.5263 8.84236 26.3684 9.00026 26.2105C9.31605 25.8947 9.63184 25.5789 9.94763 25.1053L10.5792 25.4211H10.4213C9.94763 25.2632 9.78973 25.4211 9.78973 25.7368C9.78973 25.8947 9.63184 26.0526 9.63184 26.2105C9.47394 26.3684 9.47394 26.5263 9.94763 26.6842L9.47394 27C9.78973 27.1579 9.94763 27.1579 10.2634 26.8421C10.5792 26.5263 10.895 26.2105 11.5266 26.3684V25.8947C11.2108 25.5789 11.3687 25.4211 11.6845 25.2632L12.316 25.5789H12.6318C12.1582 25.7368 12.1582 25.7368 12.316 26.0526H12.4739C12.6318 25.8947 12.7897 25.7368 12.9476 26.0526H13.1055C13.2634 26.0526 13.4213 25.8947 13.5792 25.7368C13.7371 25.5789 14.2108 25.5789 14.3687 25.7368V25.8947L14.5266 26.0526C13.895 26.8421 14.2108 26.8421 14.3687 27.1579C14.6845 27.4737 14.6845 27.4737 15.0003 27.1579C15.0003 27.1579 15.1582 27 15.1582 27.1579L15.316 27.3158C15.316 27.3158 15.316 27.4737 15.1582 27.4737C15.0003 27.6316 15.0003 27.6316 15.316 27.7895C15.9476 27.9474 16.4213 28.2632 16.7371 28.7368H16.895V28.4211L17.5266 28.7368C17.5266 28.4211 17.3687 28.2632 17.3687 27.9474C17.6845 28.2632 17.6845 28.5789 17.6845 28.8947L17.5266 29.0526C17.5266 29.0526 17.3687 29.0526 17.3687 28.8947V28.7368C17.0529 28.8947 16.895 29.0526 17.2108 29.3684C17.5266 29.6842 17.5266 30 17.8424 30.1579C17.8424 30.1579 17.8424 30.3158 18.0003 30.3158C18.316 30 17.8424 29.6842 18.0003 29.3684H18.1582V29.8421C18.6318 29.6842 18.4739 29.3684 18.4739 29.0526C18.7897 29.3684 18.7897 29.8421 18.4739 30C18.1582 30.1579 18.1582 30.4737 18.316 30.6316L18.7897 30.3158C19.1055 30.7895 19.1055 30.7895 19.4213 30.7895C19.2634 30.6316 19.1055 30.6316 19.1055 30.4737V30.3158H19.2634C19.5792 30.6316 19.7371 30.7895 19.1055 31.2632C19.1055 31.1053 18.9476 30.9474 18.9476 30.7895L18.7897 30.9474V31.1053C18.9476 31.4211 18.9476 31.5789 18.7897 31.8947C18.7897 31.8947 18.9476 32.0526 18.9476 32.2105C18.9476 32.0526 19.1055 31.8947 19.1055 31.8947L19.4213 32.0526C19.4213 31.8947 19.4213 31.7368 19.5792 31.5789L19.895 31.7368L20.0529 31.5789C20.2108 31.5789 20.2108 31.7368 20.3687 31.7368C20.5266 31.8947 20.5266 32.0526 20.8424 32.2105C21.0003 32.2105 21.0003 32.5263 21.1582 32.6842C21.316 32.8421 21.316 33.1579 21.4739 33.3158L21.9476 33.7895C21.7897 33.9474 21.6318 34.1053 21.7897 34.2632V34.4211C21.7897 34.7368 21.9476 34.7368 22.2634 34.7368C22.5792 34.7368 22.7371 34.8947 22.7371 35.2105C22.4213 35.2105 22.1055 35.0526 21.9476 34.8947C21.7897 34.7368 21.6318 34.7368 21.4739 34.8947C21.7897 35.0526 21.9476 35.3684 22.2634 35.5263C22.4213 35.6842 22.5792 35.8421 22.7371 35.8421C23.2108 36 23.3687 36.3158 23.5266 36.6316C23.6845 37.1053 23.8424 37.7368 24.0003 38.3684L23.8424 38.5263C23.8424 39 23.6845 39.6316 23.8424 40.1053V40.5789C23.8424 40.8947 23.8424 41.2105 23.6845 41.5263C23.6845 42 23.5266 42.3158 23.6845 42.7895C23.6845 43.2632 23.8424 43.7368 24.0003 44.0526C24.1582 44.3684 24.316 44.5263 24.4739 44.8421C24.6318 45 24.7897 45.3158 24.9476 45.4737C25.2634 45.6316 25.4213 45.9474 25.2634 46.2632V46.4211C25.4213 46.8947 25.895 47.2105 26.3687 47.3684C26.5266 47.3684 26.8424 47.5263 26.8424 47.6842C27.0003 47.8421 27.0003 48 27.1582 48.1579C27.316 48.3158 27.316 48.6316 27.4739 48.7895C27.6318 49.1053 27.7897 49.5789 27.9476 49.8947C28.1055 50.0526 28.2634 50.3684 28.4213 50.5263C28.7371 50.8421 28.895 51.1579 28.895 51.6316H28.4213C28.7371 51.7895 29.0529 52.1053 29.3687 52.2632C29.6845 52.5789 30.0003 52.7368 29.8424 53.2105V53.3684C30.1582 53.8421 30.6318 54.3158 31.1055 54.7895L31.2634 54.6316C31.4213 54.3158 31.2634 54.1579 31.1055 54C31.1055 54 30.9476 53.8421 30.7897 53.8421L30.6318 53.6842C30.6318 53.5263 30.4739 53.3684 30.4739 53.0526C30.316 52.5789 30.0003 51.9474 29.6845 51.4737C29.5266 51.1579 29.0529 50.8421 29.2108 50.3684C29.2108 50.3684 29.2108 50.2105 29.0529 50.2105C28.5792 50.0526 28.4213 49.7368 28.4213 49.4211C28.4213 49.1053 28.2634 48.9474 28.2634 48.6316C28.4213 48.6316 28.5792 48.7895 28.7371 48.7895C28.895 48.7895 29.0529 48.9474 29.2108 49.1053C29.3687 49.5789 29.3687 50.2105 29.5266 50.6842C29.6845 50.5263 29.8424 50.6842 30.0003 50.8421C30.1582 51.1579 30.6318 51.3158 30.6318 51.6316L30.7897 51.7895C30.9476 51.9474 31.1055 52.1053 31.1055 52.2632C30.9476 52.5789 31.2634 52.8947 31.5792 53.0526C31.5792 53.0526 31.7371 53.0526 31.7371 53.2105C32.5266 54.1579 33.1582 54.9474 33.6318 56.0526V56.8421C34.1055 56.8421 34.2634 57.1579 34.5792 57.4737C34.7371 57.7895 35.0529 57.9474 35.3687 58.1053C35.5266 58.2632 35.6845 58.2632 36.0003 58.4211C36.1582 58.5789 36.3161 58.5789 36.6318 58.5789C37.1055 58.5789 37.4213 58.8947 37.7371 59.0526C38.0529 59.3684 38.2108 59.3684 38.6845 59.2105C38.8424 59.2105 39.0003 59.0526 39.1582 59.2105C39.4739 59.3684 39.7897 59.5263 39.9476 59.6842C40.1055 59.6842 40.1055 59.8421 40.2634 60C40.4213 59.5263 40.5792 59.2105 41.2108 59.3684C41.2108 59.3684 41.3687 59.2105 41.3687 59.0526C41.3687 59.0526 41.3687 58.8947 41.2108 58.8947C40.895 58.7368 41.0529 58.4211 41.2108 58.2632H42.0003C42.1582 58.2632 42.1582 58.2632 42.316 58.1053C42.4739 57.9474 42.6318 57.7895 42.9476 57.9474V56.6842C42.9476 56.5263 43.1055 56.3684 43.2634 56.2105L43.5792 55.8947C43.5792 55.8947 43.5792 55.7368 43.4213 55.7368H42.9476C42.6318 55.7368 42.4739 55.7368 42.1582 55.8947C42.0003 56.0526 41.6845 56.2105 41.5266 56.3684C41.6845 56.6842 41.6845 57 41.3687 57.3158C41.2108 57.4737 41.0529 57.6316 40.895 57.6316C40.7371 57.6316 40.5792 57.4737 40.5792 57.6316C40.4213 57.7895 40.1055 57.6316 39.9476 57.7895C39.4739 57.9474 39.1582 57.9474 38.8424 57.6316L38.5266 57.3158C38.3687 57.1579 38.3687 57 38.3687 56.8421C38.2108 56.5263 37.895 56.0526 37.7371 55.7368C37.5792 54.9474 37.5792 54.1579 37.7371 53.3684V52.1053C37.7371 51.7895 37.895 51.4737 38.2108 51.1579C38.3687 51 38.5266 50.6842 38.6845 50.5263C39.0003 50.3684 39.1582 50.2105 39.316 50.0526C39.4739 49.8947 39.6318 49.7368 39.9476 49.7368C40.4213 49.7368 40.7371 49.8947 41.0529 50.3684C41.2108 50.6842 41.6845 50.6842 41.8424 50.3684L42.0003 50.5263C42.0003 50.5263 42.1582 50.5263 42.1582 50.3684V50.2105C42.0003 49.7368 42.1582 49.5789 42.4739 49.5789H42.9476C42.9476 49.5789 42.9476 49.7368 43.1055 49.7368C43.2634 49.7368 43.4213 49.7368 43.5792 49.5789C43.895 49.4211 44.0529 49.5789 44.2108 49.7368L44.3687 49.8947C44.3687 50.0526 44.5266 50.0526 44.6845 49.8947L44.8424 49.7368C45.1582 49.5789 45.1582 49.5789 45.3161 49.7368C45.4739 49.8947 45.4739 50.0526 45.6318 50.0526C45.6318 50.2105 45.7897 50.3684 45.7897 50.5263C45.7897 50.8421 45.7897 51.1579 45.9476 51.3158C46.1055 51.7895 46.4213 52.1053 46.5792 52.5789C46.5792 52.7368 46.7371 52.7368 46.895 52.7368H47.0529V51.1579C47.0529 51 46.895 50.6842 46.895 50.5263C46.895 50.3684 46.7371 50.2105 46.7371 50.0526C46.4213 49.2632 46.2634 48.4737 47.0529 47.8421C47.3687 47.5263 47.8424 47.3684 48.0003 47.0526C48.0003 46.8947 48.1582 46.8947 48.1582 46.7368C48.1582 46.5789 48.3161 46.2632 48.4739 46.2632C48.7897 46.1053 48.9476 45.9474 49.1055 45.7895C49.2634 46.1053 49.5792 45.7895 49.7371 45.4737C49.5792 45.4737 49.2634 45.3158 49.5792 45.1579C49.5792 45.1579 49.5792 45 49.4213 44.8421C49.4213 44.8421 49.2634 44.6842 49.1055 44.6842C49.4213 44.3684 49.1055 44.0526 48.7897 43.8947C49.1055 43.7368 49.1055 43.7368 49.1055 43.4211V42.9474C49.1055 42.9474 49.1055 42.7895 49.2634 42.7895C49.2634 43.4211 49.2634 43.5789 49.5792 43.8947L49.7371 43.1053C49.895 43.1053 49.895 43.1053 50.0529 42.9474C50.2108 42.7895 50.3687 42.6316 50.3687 42.4737C50.5266 42 50.6845 41.8421 51.316 41.8421C51.4739 41.8421 51.6318 41.6842 51.6318 41.6842V41.5263L50.8424 41.6842C51.0003 41.3684 51.1582 41.3684 51.4739 41.3684C51.6318 41.3684 51.7897 41.2105 51.9476 41.2105L52.2634 41.3684V40.1053C52.2634 39.9474 52.4213 39.7895 52.5792 39.6316C52.895 39.4737 53.2108 39.4737 53.3687 39.1579H53.5266C53.8424 39.4737 54.0003 39.1579 54.3161 39C54.4739 38.8421 54.6318 38.6842 54.9476 38.6842C55.2634 38.5263 55.4213 38.3684 55.5792 38.2105L55.7371 38.0526L55.5792 38.3684L56.0529 38.5263L55.895 38.6842C55.4213 38.6842 55.1055 39 54.9476 39.3158C54.7897 39.4737 54.7897 39.7895 55.1055 39.9474C55.2634 40.1053 55.4213 39.9474 55.5792 39.7895C55.895 39.4737 56.0529 39.1579 56.5266 39.1579L56.6845 39C56.8424 38.8421 57.0003 38.6842 57.1582 38.6842C57.4739 38.6842 57.6318 38.3684 57.7897 38.2105C57.9476 38.2105 57.9476 38.0526 57.9476 38.0526C57.9476 37.8947 57.7897 37.7368 57.7897 37.4211C57.6318 37.7368 57.316 37.8947 57.316 38.0526C57.316 38.2105 57.1582 38.2105 57.0003 38.3684C56.6845 38.3684 56.2108 38.5263 56.0529 38.0526L55.895 37.8947L55.5792 37.5789C55.2634 37.2632 55.2634 36.9474 55.4213 36.6316L55.1055 36.7895C55.1055 36.6316 55.2634 36.6316 55.2634 36.4737V36C55.2634 35.8421 54.9476 35.6842 54.7897 35.6842C54.4739 35.8421 54.0003 36 53.6845 36.1579C53.3687 36.3158 53.0529 36.7895 52.895 36.9474C52.1055 37.7368 52.1055 37.8947 51.7897 38.0526L52.2634 37.1053L52.5792 36.7895C52.895 36.4737 52.895 36.1579 53.3687 36.1579L53.5266 36C53.6845 35.6842 53.8424 35.5263 54.3161 35.3684C55.1055 35.3684 56.0529 35.2105 56.8424 35.3684C57.4739 35.3684 57.7897 35.2105 58.1055 34.7368C58.2634 34.4211 58.4213 34.4211 58.7371 34.4211C58.895 34.4211 59.0529 34.4211 59.2108 34.2632L59.6845 33.7895V33.4737ZM41.6845 2.05263L41.3687 2.36842H41.8424C41.8424 2.36842 41.8424 2.52632 41.6845 2.52632C41.5266 2.84211 41.5266 2.84211 41.8424 3C41.8424 3 42.0003 3 42.0003 3.15789C42.3161 3.47368 42.7897 3.63158 43.2634 3.31579C43.4213 3.31579 43.4213 3.15789 43.5792 3.15789V3.47368C43.5792 3.47368 43.5792 3.63158 43.7371 3.63158C44.0529 3.63158 44.3687 3.78947 44.8424 3.78947C45.0003 3.78947 45.0003 3.78947 45.1582 3.63158C45.3161 3.47368 45.4739 3.47368 45.6318 3.47368C46.2634 3.63158 47.2108 3.31579 47.5266 2.84211C47.6845 3.15789 47.6845 3.47368 47.2108 3.47368C46.7371 3.63158 46.2634 3.63158 45.9476 3.78947C45.7897 3.78947 45.7897 3.94737 45.6318 3.94737C45.6318 4.10526 45.7897 4.10526 45.7897 4.26316C45.9476 4.42105 46.2634 4.57895 46.4213 4.73684C46.1055 4.73684 45.6318 4.73684 45.6318 4.42105C45.1582 3.94737 44.6845 3.78947 44.0529 3.78947C43.7371 3.78947 43.5792 3.94737 43.5792 4.10526C43.5792 4.42105 43.7371 4.73684 44.0529 4.73684C44.2108 4.73684 44.5266 4.89474 44.5266 5.05263C44.8424 5.52632 45.1582 5.84211 45.6318 6L45.7897 6.1579H45.3161C45.0003 6.1579 44.8424 6 44.5266 5.84211C44.0529 5.68421 43.4213 5.84211 43.1055 6.1579C42.9476 6.31579 42.9476 6.47368 42.9476 6.63158C42.9476 6.63158 43.2634 6.78947 43.4213 6.78947C43.5792 6.78947 43.7371 6.63158 44.0529 6.63158C44.2108 6.63158 44.3687 6.47368 44.3687 6.47368C44.3687 6.63158 44.2108 6.78947 44.2108 6.78947C44.0529 6.94737 44.0529 7.10526 44.2108 7.26316C44.3687 7.42105 44.5266 7.42105 44.6845 7.57895V7.89474C44.6845 7.89474 44.5266 8.05263 44.3687 7.89474C44.2108 8.21053 44.0529 8.05263 43.895 7.89474C43.7371 7.57895 43.4213 7.42105 42.9476 7.42105C42.7897 7.42105 42.6318 7.42105 42.6318 7.73684C42.6318 7.89474 42.9476 7.89474 42.9476 8.05263C43.1055 8.21053 43.1055 8.21053 43.2634 8.21053C43.1055 8.21053 42.9476 8.36842 42.9476 8.36842C42.6318 8.52632 42.3161 8.52632 42.0003 8.68421C41.8424 8.68421 41.8424 8.8421 41.8424 9C41.8424 9.1579 42.0003 9.1579 42.1582 9.1579H43.1055C43.4213 9.1579 43.5792 9.1579 43.895 9.31579C44.2108 9.47368 44.3687 9.47368 44.6845 9.31579L44.8424 9.1579H46.2634C46.2634 9.1579 46.4213 9.1579 46.4213 9.31579C46.7371 9.63158 47.0529 9.63158 47.3687 9.31579C47.5266 9.1579 47.6845 9.1579 47.8424 9.1579C48.0003 9.1579 48.1582 9 48.1582 8.84211C48.1582 8.68421 48.1582 8.52632 48.0003 8.36842C47.8424 8.36842 47.6845 8.52632 47.5266 8.52632H47.3687C47.2108 8.21053 46.895 8.21053 46.5792 8.21053H46.1055C45.9476 8.21053 45.9476 8.05263 45.7897 8.05263C45.7897 7.89474 45.9476 7.89474 46.1055 7.89474H47.3687C47.8424 7.89474 47.8424 7.73684 47.6845 7.42105C47.6845 7.26316 47.6845 7.10526 48.0003 7.10526H48.6318C48.7897 7.10526 48.9476 7.10526 48.9476 6.94737C49.1055 6.63158 49.2634 6.47368 49.2634 6.1579C49.4213 6 49.4213 5.84211 49.5792 5.52632C49.2634 5.21053 48.6318 5.52632 48.1582 5.36842C48.1582 5.36842 48.3161 5.36842 48.3161 5.21053C48.7897 5.05263 49.1055 4.89474 49.5792 5.05263C50.0529 5.05263 50.0529 5.05263 50.0529 4.73684H50.6845C51.316 4.89474 51.3161 4.89474 51.6318 4.26316C51.7897 4.10526 51.7897 3.94737 52.1055 3.94737C52.4213 3.94737 52.5792 3.78947 52.895 3.63158C53.5266 3.31579 54.1582 2.84211 54.9476 2.68421H55.1055C55.1055 2.68421 55.2634 2.52632 55.2634 2.36842C55.1055 2.36842 55.1055 2.21053 54.9476 2.21053H53.5266C53.8424 1.89474 54.316 1.89474 54.6318 1.89474C55.4213 2.05263 55.895 1.57895 56.5266 1.26316C56.6845 1.26316 56.6845 1.10526 56.8424 1.10526V0.947369L56.6845 0.789474H56.3687C56.0529 0.789474 55.7371 0.789474 55.5792 0.473684L55.4213 0.315789C55.1055 0.315789 54.7897 0.157895 54.4739 0.157895C54.1582 0.315789 53.8424 0.315789 53.5266 0.473684C53.5266 0.315789 53.6845 0.315789 53.6845 0.157895C53.6845 0.157895 53.5266 0.157895 53.5266 0H53.3687C53.0529 0 53.0529 0.157895 52.895 0.157895C52.895 0.315789 52.5792 0.315789 52.5792 0.315789C52.2634 0.315789 51.9476 0.157895 51.6318 0.157895C51.3161 0.315789 51.0003 0.315789 50.6845 0.315789H49.5792C49.4213 0.315789 49.2634 0.315789 49.1055 0.157895C48.9476 0 48.7897 0 48.7897 0.157895C48.6318 0.473684 48.316 0.315789 48.1582 0.157895C47.6845 0 47.3687 0 47.0529 0.157895C47.2108 0.473684 47.0529 0.473684 46.7371 0.473684C46.4213 0.473684 46.4213 0.473684 46.4213 0.789474V0.947369H45.6318C45.4739 1.42105 45.316 1.42105 44.8424 1.26316H44.6845C44.5266 1.10526 44.2108 1.10526 43.895 1.10526V1.42105L43.4213 1.57895C43.4213 1.73684 43.4213 1.89474 43.2634 1.89474C43.1055 2.05263 42.9476 1.89474 42.7897 1.89474C42.6318 1.73684 42.3161 1.57895 42.1582 1.73684L41.6845 2.21053C41.2108 2.05263 40.5792 2.05263 40.5792 2.52632C41.3687 1.89474 41.3687 1.89474 41.6845 2.05263Z" fill="#36A83A"/>
<path d="M54.1577 20.8405C54.4735 20.9984 54.7892 21.1562 54.9471 21.472C55.105 21.6299 55.105 21.7878 55.2629 21.9457C55.2629 21.9457 55.4208 22.1036 55.4208 21.9457C55.5787 21.7878 55.7366 21.7878 55.8945 21.6299C55.8945 21.472 56.0524 21.3141 56.3682 21.1562C56.5261 20.9984 56.8419 20.8405 56.684 20.6826C56.684 20.5247 56.684 20.2089 56.2103 20.051C56.0524 20.051 56.0524 19.8931 56.0524 19.7352C56.0524 19.4194 55.7366 19.1036 55.2629 19.1036C54.9471 19.1036 54.6314 18.9457 54.3156 18.7878C54.1577 18.7878 54.1577 18.7878 53.9998 18.6299C53.8419 18.472 53.5261 18.472 53.3682 18.3141C53.2103 18.1562 53.2103 17.9984 53.2103 17.8405H53.684C53.8419 17.8405 53.8419 17.6826 53.9998 17.6826L53.8419 17.5247H53.5261C53.5261 17.5247 53.3682 17.5247 53.3682 17.3668C53.3682 17.3668 53.3682 17.2089 53.5261 17.2089C53.8419 17.051 53.8419 16.8931 53.684 16.7352C53.5261 16.5773 53.3682 16.4194 53.2103 16.7352H53.0524C53.0524 16.5773 53.0524 16.4194 53.2103 16.4194C53.3682 16.1036 53.2103 16.1036 52.8945 15.9457H52.4208C52.2629 15.9457 52.105 15.9457 52.105 15.7878V15.6299C51.7892 15.472 51.6314 16.1036 51.1577 15.7878C51.3156 15.6299 51.4735 15.6299 51.6313 15.472C51.7892 15.3141 51.7892 15.1562 51.7892 15.1562L51.4735 14.9984C51.3156 14.9984 51.1577 15.1562 50.8419 15.1562V15.3141C50.684 15.1562 50.5261 14.9984 50.5261 14.8405C50.5261 14.6826 50.3682 14.5247 50.2103 14.5247C50.0524 14.5247 49.8945 14.3668 49.8945 14.2089C49.8945 14.051 49.7366 13.8931 49.5787 13.8931C49.2629 13.7352 49.105 13.7352 48.7892 13.7352H48.6313C48.3156 13.8931 48.1577 14.051 48.1577 14.3668H47.9998L47.3682 14.051L46.5787 14.5247V14.2089C46.7366 13.7352 46.5787 13.2615 46.2629 12.7878C46.105 12.6299 45.7892 12.472 45.4734 12.6299C45.1577 12.7878 44.9998 12.9457 44.684 12.9457C43.8945 13.2615 43.8945 13.5773 44.2103 14.2089V14.5247C43.8945 14.8405 43.8945 14.8405 44.3682 14.9984C44.5261 15.1562 44.684 15.1562 44.5261 15.3141C44.0524 15.3141 43.7366 14.9984 43.5787 14.6826C43.5787 14.3668 43.4208 14.2089 43.4208 13.8931V13.5773C43.5787 13.2615 43.8945 13.1036 44.0524 12.7878L44.2103 12.6299C44.2103 12.6299 44.0524 12.472 43.8945 12.472C43.5787 12.472 43.2629 12.6299 43.105 12.6299C41.684 12.9457 41.3682 14.3668 41.684 15.1562C41.684 15.3141 41.8419 15.472 41.9998 15.472C42.3156 15.472 42.4735 15.472 42.6313 15.6299C42.7892 15.6299 42.7892 15.7878 42.9471 15.7878C42.7892 15.7878 42.6313 15.9457 42.6313 15.9457C42.4735 15.9457 42.3156 15.9457 42.1577 15.7878C41.9998 15.7878 41.9998 15.7878 41.9998 15.9457V16.1036C42.3156 16.4194 42.6313 16.5773 43.105 16.5773C43.2629 16.5773 43.4208 16.5773 43.4208 16.7352C43.5787 17.051 43.7366 17.051 44.0524 17.051C44.684 17.051 45.1577 17.051 45.6313 17.3668H45.9471C46.2629 17.2089 46.5787 17.051 46.8945 17.051C47.0524 17.051 47.2103 17.051 47.3682 17.2089C47.3682 17.2089 47.5261 17.2089 47.5261 17.3668L47.3682 16.4194L47.5261 16.2615C47.684 16.4194 47.9998 16.4194 48.1577 16.5773C48.4735 16.8931 48.7892 17.2089 49.2629 17.5247C49.4208 17.6826 49.4208 17.8405 49.2629 17.8405C49.105 17.8405 48.9471 17.9984 48.9471 17.9984L49.105 18.1562C49.2629 18.1562 49.4208 17.9984 49.4208 17.9984C49.8945 17.8405 49.8945 17.8405 50.0524 18.1562C50.0524 18.3141 50.2103 18.472 50.3682 18.3141C50.5261 18.3141 50.5261 18.3141 50.684 18.472C51.1577 18.9457 51.3156 19.2615 51.1577 19.8931C51.1577 20.051 51.3156 20.2089 51.4735 20.2089C51.6313 20.2089 51.6313 20.051 51.7892 20.051C52.105 19.8931 52.7366 20.2089 52.7366 20.5247C52.7366 20.5247 52.7366 20.6826 52.5787 20.6826C52.4208 20.8405 52.105 20.8405 51.9471 20.9984C51.7892 20.6826 51.6313 20.3668 51.3156 20.3668C50.9998 20.2089 50.5261 20.2089 50.3682 20.5247C50.0524 20.8405 50.2103 20.9984 50.3682 21.3141V21.6299C50.2103 21.7878 49.7366 21.9457 49.4208 21.7878C49.105 21.7878 48.7892 21.472 48.4735 21.9457H48.3156C47.9998 22.1036 47.9998 22.2615 47.9998 22.5773C47.9998 22.8931 48.3156 22.8931 48.4735 22.8931H49.4208C49.5787 22.8931 49.7366 22.8931 49.7366 22.7352L49.8945 22.5773C50.2103 22.5773 50.5261 22.7352 50.684 22.8931C50.684 23.051 50.8419 23.2089 50.9998 23.2089C51.3156 23.2089 51.3156 23.5247 51.3156 23.6826C51.3156 23.9984 51.4735 24.1562 51.7892 24.1562C51.9471 24.1562 52.105 24.1562 52.105 24.3141C52.5787 24.472 53.2103 24.6299 53.684 24.9457C53.8419 24.9457 53.9998 25.1036 54.3156 25.2615C54.3156 24.9457 53.9998 24.6299 53.684 24.3141C53.3682 23.9984 53.0524 23.8405 52.7366 23.5247C53.2103 23.5247 53.5261 23.6826 53.8419 23.9984C54.1577 24.1562 54.4735 24.3141 54.7892 24.3141C55.105 24.3141 55.2629 23.9984 55.2629 23.8405C55.2629 23.6826 55.105 23.5247 54.9471 23.5247C54.6313 23.3668 54.6313 23.2089 54.6313 22.8931C54.6313 22.5773 54.4735 22.4194 54.1577 22.4194C53.8419 22.2615 53.5261 22.1036 53.3682 21.7878V21.6299C53.5261 21.472 53.5261 21.3141 53.5261 21.3141C53.5261 21.1562 53.684 20.9984 53.684 20.9984C53.9998 20.6826 53.9998 20.6826 54.1577 20.8405ZM35.684 17.2089H35.9998C35.8419 17.051 35.8419 16.8931 35.684 16.7352C35.3682 16.4194 34.8945 16.2615 34.5787 16.1036C34.105 15.9457 33.9471 15.6299 33.9471 15.1562C33.9471 14.9984 33.9471 14.9984 33.7892 14.8405C33.7892 14.6826 33.6313 14.6826 33.6313 14.5247C33.4735 14.051 33.4735 13.5773 33.7892 13.2615C34.105 12.9457 33.9471 12.7878 33.6313 12.6299C33.3156 12.472 32.9998 12.6299 32.684 12.9457L33.3156 13.5773H33.1577C32.9998 13.2615 32.684 13.2615 32.3682 13.2615C32.0524 13.2615 31.8945 13.2615 31.8945 13.5773C32.0524 13.8931 32.0524 14.3668 32.2103 14.6826C32.2103 14.8405 32.2103 14.8405 32.0524 14.9984C31.8945 14.9984 31.7366 14.9984 31.7366 14.8405C31.7366 14.6826 31.5787 14.3668 31.5787 14.2089C31.4208 13.7352 30.9471 13.4194 30.4735 13.5773C30.6313 13.7352 30.7892 13.7352 30.7892 13.8931V14.051H29.9998C29.9998 13.5773 29.684 13.4194 29.2103 13.4194C29.0524 13.4194 28.8945 13.5773 28.8945 13.7352C28.8945 14.051 28.7366 14.2089 28.2629 13.8931H28.4208C28.7366 13.7352 28.7366 13.5773 28.5787 13.2615C28.4208 12.9457 28.2629 13.1036 27.9471 13.1036C27.4735 13.2615 26.9998 13.4194 26.684 13.7352C26.5261 13.8931 26.2103 14.051 26.2103 14.051C26.2103 14.3668 26.0524 14.3668 25.8945 14.6826C25.7366 14.8405 25.8945 14.9984 26.0524 15.1562C26.2103 15.1562 26.2103 15.3141 26.5261 15.472L27.6313 15.3141V15.472C27.6313 15.472 27.4735 15.472 27.4735 15.6299C27.1577 15.7878 26.8419 15.7878 26.5261 15.9457C26.2103 16.1036 26.2103 16.2615 26.3682 16.2615C26.8419 16.4194 27.1577 16.5773 27.6313 16.5773C27.9471 16.5773 28.2629 16.4194 28.7366 16.5773C29.0524 16.5773 29.3682 16.7352 29.5261 16.8931V17.051C29.3682 17.051 29.2103 17.2089 29.0524 17.2089H28.2629C27.7892 17.2089 27.3156 17.3668 26.8419 17.3668C26.5261 17.3668 26.5261 17.6826 26.684 17.8405C27.1577 18.1562 27.6313 18.3141 28.105 18.3141C28.2629 18.3141 28.4208 18.3141 28.4208 18.6299C28.4208 18.7878 28.4208 19.1036 28.7366 19.1036C29.3682 19.2615 29.9998 19.2615 30.6313 18.9457C30.7892 18.7878 30.9471 18.7878 31.105 18.7878C31.5787 18.7878 31.7366 18.7878 32.0524 18.3141C32.2103 18.1562 32.2103 18.1562 32.3682 18.3141C32.5261 18.472 32.684 18.472 32.684 18.472C32.8419 18.472 32.8419 18.472 32.9998 18.6299C33.4735 18.9457 34.105 18.7878 34.5787 18.7878C34.8945 18.7878 34.8945 18.472 34.7366 18.3141C34.5787 18.1562 34.5787 18.1562 34.4208 18.1562L34.2629 18.3141C34.105 18.3141 34.105 18.3141 33.9471 18.472L33.7892 18.3141L34.7366 17.3668C35.0524 17.2089 35.2103 16.8931 35.684 17.2089ZM38.684 5.20888C38.8419 5.52467 38.9998 5.52467 39.4735 5.52467C39.7892 5.52467 39.9471 5.36678 40.2629 5.36678C40.4208 5.36678 40.4208 5.52467 40.5787 5.52467L40.4208 5.68257C40.2629 5.84046 39.9471 5.84046 39.6313 5.99836L39.7892 6.15625C39.9471 6.31414 40.2629 6.47204 40.4208 6.62993C40.5787 6.94572 40.8945 6.94572 41.0524 7.10362C41.2103 7.26151 41.5261 7.26151 41.684 7.10362C41.8419 6.94572 42.1577 6.94572 42.3156 7.10362C42.6313 7.26151 42.6313 7.10362 42.7892 6.94572C42.7892 6.78783 42.7892 6.78783 42.9471 6.62993L43.105 6.47204C43.2629 6.47204 43.2629 6.31414 43.4208 6.31414C43.5787 6.15625 43.5787 5.99836 43.7366 5.99836C43.8945 5.84046 44.2103 5.84046 44.3682 5.84046C44.5261 5.84046 44.5261 5.68257 44.684 5.68257C44.5261 5.68257 44.5261 5.52467 44.3682 5.52467H43.8945C43.5787 5.52467 43.5787 5.36678 43.5787 5.20888C43.5787 5.05099 43.5787 5.05099 43.4208 4.89309C43.2629 4.7352 43.2629 4.7352 43.2629 4.5773L43.105 4.41941C42.9471 4.41941 42.9471 4.5773 42.9471 4.5773V4.7352L42.6313 4.41941C42.4735 4.10362 42.3156 4.10362 41.9998 3.94572C41.684 3.78783 41.3682 3.47204 41.0524 3.31414C40.8945 3.15625 40.7366 3.15625 40.5787 3.15625C40.4208 3.31414 40.105 3.31414 39.7892 3.31414C39.7892 3.31414 39.6313 3.47204 39.4735 3.47204L39.9471 3.62993C39.7892 3.78783 39.6313 3.78783 39.4735 3.78783C39.3156 3.78783 39.1577 3.78783 39.1577 3.94572C39.1577 4.10362 39.3156 4.26151 39.3156 4.41941C39.4735 4.5773 39.6313 4.5773 39.7892 4.5773C39.6313 4.7352 39.6313 4.7352 39.1577 4.7352H38.8419C38.8419 4.89309 38.8419 4.89309 38.9998 5.05099C38.3682 4.89309 38.5261 5.05099 38.684 5.20888Z" fill="#36A83A"/>
<path d="M23.8421 15.4745C23.8421 15.6324 23.9999 15.7903 23.9999 15.7903L24.9473 15.3166C25.421 15.1587 25.421 15.1587 25.421 14.8429C25.421 14.5271 25.5789 14.3692 25.8947 14.2113C26.0526 14.2113 26.0526 14.0535 26.0526 13.8956C26.0526 13.7377 26.2105 13.5798 26.5263 13.4219C26.9999 13.264 27.4736 12.9482 27.9473 12.7903C28.1052 12.6324 28.1052 12.6324 27.9473 12.4745L27.4736 12.0008C27.1578 11.685 26.6842 11.5271 26.2105 11.8429C26.0526 11.8429 26.0526 11.685 25.8947 11.685C25.7368 11.685 25.421 11.685 25.421 11.5271C24.9473 11.2113 24.6315 11.2113 24.1578 11.3692C24.1578 11.685 23.9999 11.8429 23.6842 12.0008V12.1587C23.6842 12.3166 23.5263 12.4745 23.5263 12.6324C23.3684 12.7903 23.3684 12.9482 23.2105 13.1061V13.4219C23.0526 13.5798 23.0526 13.7377 22.8947 13.8956C22.5789 14.3692 22.7368 14.3692 23.2105 14.3692C23.5263 14.8429 23.6842 15.1587 23.8421 15.4745ZM40.5789 11.0535C40.5789 11.2113 40.7368 11.3692 40.8947 11.3692C41.0526 11.3692 41.0526 11.3692 41.2105 11.5271C41.5263 11.8429 42 11.8429 42.1578 11.5271L42.3157 11.3692C42.4736 11.685 42.7894 11.685 43.1052 11.8429H44.0526C44.5263 11.8429 45 11.8429 45.3157 11.5271H45.4736C45.7894 11.5271 46.1052 11.685 46.2631 11.685C46.421 11.685 46.421 11.5271 46.5789 11.3692C46.7368 11.3692 46.7368 11.2113 46.8947 11.2113C46.8947 11.2113 47.0526 11.2113 47.0526 11.0535C47.2105 10.8956 47.2105 10.7377 47.3684 10.4219C46.8947 10.264 46.421 10.264 45.7894 10.1061C45.3157 10.1061 44.8421 10.1061 44.5263 10.264C44.2105 10.4219 43.8947 10.4219 43.5789 10.4219H42.7894C42.4736 10.264 42.3157 10.1061 42 9.94819C42 9.7903 42.1578 9.7903 42.1578 9.6324C42.4736 9.47451 42.4736 9.31661 42 9.15872C41.6842 9.00082 41.3684 8.84293 41.0526 9.00082C40.5789 9.00082 40.1052 8.84293 39.7894 8.68503C39.4736 8.52714 38.9999 8.52714 38.6842 8.52714C38.3684 8.52714 38.3684 8.68503 38.5263 9.00082C38.6842 9.15872 38.9999 9.31661 39.3157 9.47451C39.6315 9.6324 39.9473 9.6324 40.2631 9.47451C40.5789 9.7903 41.0526 10.1061 40.7368 10.7377C40.421 10.7377 40.5789 10.8956 40.5789 11.0535ZM28.7368 9.31661C28.5789 9.15872 28.421 9.15872 28.1052 9.31661C28.1052 9.47451 27.9473 9.47451 27.7894 9.6324L27.6315 9.7903C27.6315 9.94819 27.7894 9.94819 27.7894 9.94819H28.1052C27.7894 10.1061 27.3157 9.94819 27.3157 10.4219L28.1052 10.264C27.7894 10.4219 27.3157 10.4219 27.1578 10.7377C27.4736 10.8956 27.7894 11.0535 27.9473 11.0535C28.1052 11.0535 28.2631 11.0535 28.421 10.8956L28.8947 10.4219V10.8956L30.1578 10.7377V10.8956C30.1578 11.0535 29.9999 11.0535 29.8421 11.2113C29.5263 11.2113 29.3684 11.3692 29.0526 11.3692C28.8947 11.3692 28.7368 11.5271 28.7368 11.5271C28.7368 11.5271 28.8947 11.685 28.8947 11.8429C29.0526 11.8429 29.2105 12.0008 29.3684 12.0008L30.7894 11.5271C31.1052 11.2113 31.2631 11.0535 31.5789 11.2113H32.6842C32.8421 11.0535 33 11.0535 33.1578 11.0535C33.4736 10.8956 33.4736 10.264 33.3157 9.94819C33.1578 9.6324 32.9999 9.6324 32.8421 9.94819C32.6842 10.1061 32.3684 10.1061 32.2105 9.94819C31.8947 9.6324 31.7368 9.31661 31.421 9.00082L30.9473 9.47451C30.9473 9.31661 30.9473 9.47451 31.1052 9.47451C31.421 9.47451 31.2631 9.6324 31.2631 9.7903L31.1052 9.94819L31.5789 10.4219C30.9473 10.5798 30.4736 10.4219 30.1578 10.1061C29.9999 9.7903 29.5263 9.47451 29.0526 9.47451C28.8947 9.47451 28.7368 9.47451 28.7368 9.31661ZM36.7894 15.4745H36.9473C37.1052 15.1587 37.421 15.0008 37.7368 15.0008C37.7368 15.0008 37.8947 15.0008 37.8947 14.8429C38.0526 14.3692 38.0526 13.8956 38.2105 13.4219L38.0526 13.264L37.8947 13.4219V13.7377H37.7368C37.7368 13.4219 37.5789 13.4219 37.2631 13.4219C37.1052 13.4219 37.1052 13.264 36.9473 13.264C36.9473 13.264 36.9473 13.1061 37.1052 13.1061C37.2631 12.9482 37.421 12.9482 37.5789 12.7903C37.7368 12.6324 37.7368 12.4745 37.5789 12.3166C37.421 12.1587 37.2631 12.1587 37.1052 12.0008C36.9473 12.0008 36.6315 12.0008 36.6315 12.3166V12.6324H36.3157C35.9999 12.4745 35.6842 12.4745 35.5263 12.6324C35.3684 12.7903 35.3684 12.9482 35.3684 12.9482C35.3684 12.9482 35.5263 13.1061 35.6842 13.1061C36.1578 13.1061 36.1578 13.264 35.9999 13.5798C35.8421 13.8956 35.6842 13.8956 35.3684 13.7377C35.2105 13.5798 35.0526 13.5798 35.0526 13.4219C34.7368 13.5798 34.7368 13.7377 34.8947 14.0535C35.0526 14.2113 35.2105 14.3692 35.3684 14.3692C35.5263 14.5271 35.6842 14.685 35.8421 14.685C36.4736 15.0008 36.6315 15.1587 36.7894 15.4745ZM36.4736 9.00082C36.3157 8.84293 36.1578 8.84293 35.8421 8.68503L35.6842 8.84293L36.3157 9.6324C36.1578 9.47451 36 9.31661 35.6842 9.31661C35.5263 9.31661 35.5263 9.31661 35.3684 9.15872V9.47451C35.3684 9.6324 35.5263 9.6324 35.5263 9.7903C35.5263 9.94819 35.5263 9.94819 35.6842 9.94819H35.5263C35.3684 9.94819 35.3684 9.7903 35.2105 9.7903C34.8947 9.47451 34.7368 9.31661 34.5789 9.00082C34.5789 8.84293 34.2631 8.84293 34.1052 8.84293L33.9473 9.00082C33.9473 9.47451 34.8947 10.5798 35.6842 10.264C35.8421 10.264 35.9999 10.264 36.3157 10.1061C36.1578 10.264 36.1578 10.4219 36.1578 10.5798V10.8956C36.3157 11.0535 37.421 11.0535 37.421 10.7377C37.5789 10.5798 37.7368 10.264 37.5789 9.94819V9.7903C37.7368 9.31661 37.421 9.00082 36.9473 8.84293C36.9473 9.31661 36.7894 9.15872 36.4736 9.00082ZM46.7368 23.3692C46.7368 23.2113 46.5789 23.2113 46.421 23.0535C46.2631 22.8956 46.1052 22.8956 45.9473 22.7377C45.9473 22.5798 45.7894 22.4219 45.6315 22.264C45.3157 22.1061 45.1578 21.9482 44.8421 21.9482C44.6842 21.7903 44.3684 21.6324 44.2105 21.4745L44.0526 21.3166C43.8947 21.3166 43.7368 21.4745 43.7368 21.4745C43.5789 21.7903 43.421 22.264 43.421 22.5798C43.421 22.8956 43.421 23.0535 43.1052 23.2113C42.9473 23.2113 43.1052 23.3692 42.9473 23.5271H43.2631C43.5789 23.3692 43.5789 23.3692 43.5789 23.685C43.5789 23.8429 43.7368 24.0008 43.8947 23.8429C44.2105 23.685 44.3684 23.5271 44.5263 23.3692C44.8421 23.0535 44.8421 23.0535 45.3157 23.2113C45.4736 23.3692 45.7894 23.3692 45.9473 23.5271L46.7368 23.3692ZM33.9473 6.00082C34.1052 6.00082 34.2631 6.00082 34.421 6.15872C34.5789 6.15872 34.5789 6.31661 34.5789 6.47451C34.421 6.47451 34.2631 6.47451 34.1052 6.6324C33.9473 6.6324 33.9473 6.6324 33.7894 6.7903L34.1052 7.10609H34.5789C34.8947 7.10609 35.3684 7.10609 35.6842 7.26398C35.8421 7.42188 35.9999 7.57977 36.3157 7.73766C36.4736 7.89556 36.6315 7.89556 36.7894 7.73766C36.9473 7.57977 37.1052 7.42188 36.7894 7.26398L36.6315 7.10609C36.6315 6.7903 36.4736 6.7903 36.3157 6.6324C35.9999 6.6324 35.8421 6.47451 35.6842 6.15872H35.3684L35.2105 6.31661C35.0526 6.15872 34.8947 6.00082 34.7368 6.00082C34.421 5.84293 34.1052 5.84293 33.7894 5.84293C33.6315 5.84293 33.3157 6.00082 33.3157 6.15872C33.3157 6.00082 33.6315 6.15872 33.9473 6.00082ZM25.2631 9.6324L25.5789 10.1061L25.8947 9.7903L26.0526 9.6324C26.3684 9.7903 26.3684 9.6324 26.3684 9.47451C26.3684 9.31661 26.3684 9.15872 26.5263 9.00082C26.5263 8.84293 26.6842 8.84293 26.8421 8.68503H26.9999V9.15872C26.8421 9.31661 26.9999 9.47451 26.9999 9.47451C27.1578 9.47451 27.1578 9.31661 27.3157 9.31661L27.4736 9.15872C27.6315 9.15872 27.7894 9.00082 27.7894 8.84293V8.36924L28.1052 8.05345C27.9473 7.89556 27.7894 7.89556 27.6315 7.89556C27.4736 7.73766 27.3157 7.89556 27.3157 8.05345V8.21135H26.9999C26.6842 8.05345 26.3684 8.05345 26.0526 8.36924L25.8947 8.52714C25.7368 8.52714 25.5789 8.68503 25.5789 8.84293C25.5789 9.15872 25.2631 9.31661 24.7894 9.31661H24.6315C24.6315 9.47451 24.4736 9.7903 24.4736 9.94819C24.9473 10.1061 25.1052 9.7903 25.2631 9.6324ZM46.5789 12.9482C46.5789 13.1061 46.7368 13.264 46.8947 13.4219C47.0526 13.7377 47.2105 13.8956 47.6842 13.7377C48 13.7377 48.1578 13.5798 48.4736 13.5798H48.7894C48.9473 13.5798 48.9473 13.5798 49.1052 13.4219V13.1061C48.4736 12.9482 48.1578 12.6324 47.5263 12.6324H46.5789V12.9482ZM38.3684 7.42188C38.6842 7.42188 38.8421 7.26398 39.1578 7.26398V6.94819C39.1578 6.6324 39.1578 6.6324 38.8421 6.6324C38.6842 6.6324 38.5263 6.6324 38.3684 6.47451C37.8947 6.31661 37.7368 6.15872 37.421 6.00082C37.421 6.47451 37.5789 6.94819 37.8947 7.26398C37.8947 7.42188 38.2105 7.57977 38.3684 7.42188ZM39.9473 11.2113V11.0535C39.7894 10.5798 39.4736 10.4219 39 10.4219C38.6842 10.4219 38.3684 10.7377 38.2105 10.8956V11.2113C38.6842 11.3692 39.1578 11.5271 39.4736 11.685C39.9473 11.5271 39.9473 11.5271 39.9473 11.2113ZM31.1052 7.26398C30.6315 7.26398 30.1578 7.26398 29.6842 7.42188C29.3684 7.57977 29.3684 8.05345 29.6842 8.21135C29.9999 8.36924 30.3157 8.36924 30.6315 8.21135C30.7894 8.05345 30.9473 7.89556 30.7894 7.73766L31.2631 7.42188L31.1052 7.26398ZM48.9473 19.8956C49.1052 19.8956 49.2631 19.7377 49.421 19.7377L49.5789 19.5798C49.5789 19.4219 49.5789 19.1061 49.421 18.9482C49.2631 18.7903 48.9473 18.7903 48.7894 18.7903C48.4736 18.7903 48.1578 19.1061 48.1578 19.4219C48.3157 19.7377 48.6315 20.0535 48.9473 19.8956ZM30.1578 6.94819C30.4736 6.7903 30.7894 6.94819 30.9473 7.10609C31.1052 7.26398 31.2631 7.10609 31.421 6.94819V6.6324C31.2631 6.47451 31.1052 6.47451 30.9473 6.6324C30.7894 6.6324 30.7894 6.7903 30.6315 6.7903H30.3157C29.8421 6.6324 29.6842 6.6324 29.3684 6.94819V7.10609C29.5263 6.94819 29.8421 6.94819 30.1578 6.94819ZM39.9473 7.57977C39.6315 7.42188 38.9999 7.57977 38.5263 7.73766C38.3684 7.73766 38.3684 7.89556 38.3684 7.89556L38.5263 8.05345C38.9999 8.21135 39.6315 7.89556 39.9473 7.57977ZM18.9473 32.2113C18.7894 32.2113 18.6315 32.3692 18.6315 32.5271C18.7894 32.8429 18.7894 33.0008 18.9473 33.3166C19.2631 33.0008 19.2631 32.685 19.2631 32.5271C19.2631 32.3692 19.2631 32.2113 18.9473 32.2113ZM44.9999 24.7903C45.1578 24.7903 45.3157 24.9482 45.4736 24.7903C45.7894 24.6324 45.9473 24.3166 45.9473 24.1587C45.4736 24.0008 45.3157 24.3166 45.1578 24.4745C45 24.4745 44.9999 24.6324 44.9999 24.7903ZM33.6315 8.36924C33.7894 8.52714 33.9473 8.36924 33.9473 8.21135C33.9473 7.89556 33.4736 7.57977 33.1578 7.42188C33.1578 7.89556 33.3157 8.21135 33.6315 8.36924ZM7.421 29.2113L8.21047 29.0535L8.05258 28.8956C8.52626 28.7377 8.52626 28.7377 8.21047 28.264L7.421 29.2113ZM41.8421 8.05345C41.8421 7.89556 41.6842 7.89556 41.5263 7.57977C41.3684 7.73766 41.0526 7.89556 41.0526 8.05345C41.0526 8.21135 41.2105 8.36924 41.3684 8.36924C41.6842 8.36924 41.8421 8.21135 41.8421 8.05345ZM0.789422 26.8429C0.631528 26.8429 0.473633 26.8429 0.473633 27.0008V27.3166C0.631528 27.4745 0.789422 27.4745 0.947317 27.4745C1.10521 27.4745 1.10521 27.3166 1.26311 27.1587C1.10521 27.1587 1.10521 27.0008 0.947317 27.0008C0.947317 26.8429 0.947317 26.8429 0.789422 26.8429ZM26.9999 9.6324C26.6842 9.94819 26.3684 10.1061 26.0526 10.4219C26.6842 10.4219 26.9999 10.1061 26.9999 9.6324ZM46.8947 25.264L47.0526 25.4219C47.2105 25.264 47.2105 25.1061 47.3684 24.9482L47.2105 24.7903C47.0526 24.7903 46.8947 24.9482 46.8947 25.264ZM34.421 10.8956C34.421 10.7377 34.2631 10.7377 34.1052 10.5798L33.7894 10.8956L34.1052 11.0535C34.2631 11.0535 34.421 10.8956 34.421 10.8956ZM36.9473 4.89556V4.57977C36.7894 4.42188 36.6315 4.42188 36.3157 4.42188C36.4736 4.57977 36.6315 4.73766 36.7894 4.73766C36.7894 4.89556 36.9473 4.89556 36.9473 4.89556ZM29.0526 7.57977C29.0526 7.57977 29.0526 7.42188 28.8947 7.42188H28.421V7.57977C28.5789 7.73766 28.7368 7.73766 28.8947 7.89556C28.8947 7.73766 29.0526 7.57977 29.0526 7.57977ZM1.73679 32.0535L2.52626 31.7377C2.21047 31.5798 1.73679 31.7377 1.73679 32.0535Z" fill="#36A83A"/>
</g>
</g>
</g>
<defs>
<clipPath id="clip0_26003_72252">
<rect width="60" height="60" fill="white"/>
</clipPath>
<clipPath id="clip1_26003_72252">
<rect width="60" height="60" fill="white"/>
</clipPath>
<clipPath id="clip2_26003_72252">
<rect width="60" height="60" fill="white"/>
</clipPath>
</defs>
</svg>
