<svg width="38" height="26" viewBox="0 0 38 26" fill="none" xmlns="http://www.w3.org/2000/svg">
<g clip-path="url(#clip0_26003_52602)">
<g clip-path="url(#clip1_26003_52602)">
<g clip-path="url(#clip2_26003_52602)">
<path d="M23.2755 16.0188C23.3413 15.8872 23.4071 15.6899 23.3413 15.5583C23.2755 15.4267 23.1439 15.2293 23.0781 15.1636C23.2755 15.1636 23.6702 14.9004 23.4729 14.703C23.2755 14.5057 23.8676 14.4399 23.6044 14.1767C23.5387 14.1109 23.6044 13.9136 23.6702 13.8478C23.736 13.7162 23.5387 13.5188 23.6702 13.3872C23.8676 13.0583 24.1965 13.3872 24.3939 13.2557C24.5913 13.1899 24.7229 13.1241 24.9202 13.2557C25.1176 13.3214 25.2492 13.3872 25.4465 13.453C25.5781 13.5188 25.7097 13.5846 25.8413 13.5846C26.0387 13.5846 26.0387 13.5846 26.1044 13.782C26.1702 14.1767 26.3018 14.1767 26.6308 14.1109C26.7623 14.1109 26.8939 14.0451 27.0255 14.1109C26.9597 14.3083 26.8281 14.3083 26.6965 14.2425C26.565 14.2425 26.236 14.3083 26.4992 14.3741C26.6308 14.4399 27.0913 14.5714 27.2229 14.5714C27.5518 14.4399 27.6834 14.8346 27.8808 14.9662C28.2755 15.2951 27.6834 15.4925 27.6176 15.6241C27.486 15.8872 27.4202 15.6241 27.3544 15.4925C27.2229 15.3609 27.1571 15.4267 27.0255 15.4267C26.9597 15.4267 26.8281 15.3609 26.7623 15.3609C26.6308 15.3609 26.565 15.4267 26.4334 15.3609C25.9729 15.0978 25.8413 15.6241 25.5123 15.6899C25.4465 15.6899 25.1834 15.7557 25.0518 15.6899C24.9202 15.6241 25.0518 15.4267 24.9202 15.3609C24.8544 15.4925 24.6571 15.4925 24.5913 15.6241C24.5255 15.6899 24.3939 15.5583 24.3281 15.6899C24.1965 16.0846 23.9992 16.3478 23.736 16.6767C23.6702 16.5451 23.5387 16.4793 23.5387 16.3478C23.4071 16.282 23.4071 16.1504 23.2755 16.0188Z" fill="#36A83A" stroke="white" stroke-width="0.197368" stroke-miterlimit="10.6756"/>
<path d="M27.5522 15.9528C27.4864 15.9528 27.3549 15.887 27.2891 15.887C27.3549 15.8212 27.4864 15.8212 27.5522 15.9528Z" fill="#36A83A" stroke="white" stroke-width="0.197368" stroke-miterlimit="10.6756"/>
<path d="M6.56537 10.1645C6.82853 10.0987 7.09169 9.83553 7.35485 9.96711C7.42064 9.76974 7.22327 9.57237 7.35485 9.375L7.88116 8.84869C8.07853 8.71711 8.34169 8.65132 8.60485 8.58553C8.80221 8.51974 8.99958 8.38816 9.19695 8.38816C9.65748 8.38816 10.0522 8.19079 10.5127 8.125C10.7101 8.125 10.9733 8.125 11.1706 8.19079C11.2364 8.19079 11.3022 8.25658 11.3022 8.32237C11.4996 8.25658 11.6312 8.19079 11.8285 8.125C11.5654 8.19079 11.8285 8.32237 12.0259 8.32237C12.1575 8.25658 12.5522 8.25658 12.618 8.32237C12.6838 8.45395 12.8812 8.58553 13.0127 8.58553C13.2101 8.51974 13.4075 8.71711 13.6048 8.58553L13.4733 8.71711C13.7364 8.7829 13.7364 8.91447 13.9338 9.11184C14.197 9.375 14.3285 9.30921 14.6575 9.30921C14.9864 9.30921 15.118 9.50658 15.3812 9.63816C15.5127 9.70395 15.6443 9.70395 15.7101 9.76974C15.7759 9.90132 15.8417 10.0329 15.9733 9.90132C15.9075 10.0329 16.0391 10.1645 16.1706 10.1645C16.368 10.1645 16.368 10.2961 16.5654 10.3618C16.4996 10.2303 16.4338 10.0987 16.3022 10.0329C16.4338 10.0329 16.8943 10.2303 16.8285 10.4276C16.7627 10.4276 16.6312 10.3618 16.5654 10.3618C16.6312 10.4276 16.6312 10.5592 16.697 10.625C16.8943 10.2961 16.9601 10.6908 17.1575 10.6908C17.1575 10.7566 17.0917 10.7566 17.0259 10.8224C17.0917 10.7566 17.2233 10.7566 17.2891 10.7566C17.2891 10.8224 17.2233 10.8224 17.2233 10.8882C17.2891 10.8882 17.4206 10.9539 17.4864 11.0197C17.4864 10.6908 17.947 11.0855 18.0785 11.1513C18.2101 11.2171 18.3417 11.1513 18.4733 11.1513C18.6706 11.1513 18.8022 11.4145 18.5391 11.4803C18.6048 11.4803 18.6048 11.5461 18.6706 11.5461C18.5391 11.6118 18.4733 11.6776 18.4075 11.7434C18.8022 11.8092 19.3943 11.6776 19.6575 11.9408C19.9206 12.1382 19.9864 12.4013 20.3154 12.4013C20.7101 12.4671 20.1838 12.7303 20.0522 12.7303C19.9864 12.7303 19.1312 12.9934 19.1312 12.9276C19.1312 12.8618 19.1312 12.8618 19.197 12.7961C19.0654 12.7961 19.0654 12.9934 18.8022 12.9934C18.5391 12.9934 18.2101 12.8618 17.947 12.8618C17.2233 12.8618 16.4338 13.125 15.7101 13.0592C15.7101 12.6645 16.2364 12.5987 16.4996 12.4013C16.6312 12.2697 16.7627 12.2039 16.5654 12.0724C16.4338 12.0066 16.6312 11.6776 16.368 11.7434C15.8417 11.875 15.3812 11.7434 15.0522 11.2829C14.9206 11.0855 14.9864 10.8882 14.9206 10.6908C14.9206 10.625 14.8548 10.4934 14.8548 10.4276C14.7891 10.3618 14.6575 10.3618 14.7891 10.2961C14.5917 10.1645 14.3285 10.3618 14.1312 10.3618C13.9338 10.3618 13.7364 10.1645 13.4733 10.1645C13.2759 10.0987 13.1443 10.1645 13.0127 10.0329C12.8154 9.83553 12.618 9.83553 12.5522 9.50658C12.4864 9.76974 11.6312 9.70395 11.6312 9.30921C11.5654 9.375 11.5654 9.50658 11.5654 9.57237C11.4996 9.57237 11.4338 9.50658 11.368 9.50658C11.2364 9.375 11.1048 9.44079 10.9733 9.44079C10.7759 9.44079 10.5785 9.30921 10.3812 9.17763C10.5127 9.04605 10.7101 9.11184 10.9075 9.11184C11.1048 9.04605 11.1048 8.84868 10.9075 8.78289C10.5127 8.65132 9.78906 8.65132 9.46011 8.84869C9.22519 9.00365 9.00497 9.17983 8.80222 9.375C8.67064 9.57237 8.53906 9.44079 8.34169 9.50658C8.21011 9.57237 8.14432 9.50658 8.01274 9.57237C7.88116 9.63816 7.94695 9.76974 7.88116 9.83553C7.68379 10.0329 7.42064 9.96711 7.22327 10.1645C7.15748 9.76974 6.56537 10.4276 6.56537 10.1645Z" fill="#36A83A"/>
<path d="M16.5654 10.3618C16.368 10.2961 16.368 10.1645 16.1706 10.1645C16.0391 10.1645 15.9075 10.0329 15.9733 9.90132C15.8417 10.0329 15.7759 9.90132 15.7101 9.76974C15.6443 9.70395 15.5127 9.70395 15.3812 9.63816C15.118 9.50658 14.9864 9.30921 14.6575 9.30921C14.3285 9.30921 14.197 9.375 13.9338 9.11184C13.7364 8.91447 13.7364 8.7829 13.4733 8.71711L13.6048 8.58553C13.4075 8.71711 13.2101 8.51974 13.0127 8.58553C12.8812 8.58553 12.6838 8.45395 12.618 8.32237C12.5522 8.25658 12.1575 8.25658 12.0259 8.32237C11.8285 8.32237 11.5654 8.19079 11.8285 8.125C11.6312 8.19079 11.4996 8.25658 11.3022 8.32237C11.3022 8.25658 11.2364 8.19079 11.1706 8.19079C10.9733 8.125 10.7101 8.125 10.5127 8.125C10.0522 8.19079 9.65748 8.38816 9.19695 8.38816C8.99958 8.38816 8.80221 8.51974 8.60485 8.58553C8.34169 8.65132 8.07853 8.71711 7.88116 8.84869L7.35485 9.375C7.22327 9.57237 7.42064 9.76974 7.35485 9.96711C7.09169 9.83553 6.82853 10.0987 6.56537 10.1645C6.56537 10.4276 7.15748 9.76974 7.22327 10.1645C7.42064 9.96711 7.68379 10.0329 7.88116 9.83553C7.94695 9.76974 7.88116 9.63816 8.01274 9.57237C8.14432 9.50658 8.21011 9.57237 8.34169 9.50658C8.53906 9.44079 8.67064 9.57237 8.80222 9.375C9.00497 9.17983 9.22519 9.00365 9.46011 8.84869C9.78906 8.65132 10.5127 8.65132 10.9075 8.78289C11.1048 8.84868 11.1048 9.04605 10.9075 9.11184C10.7101 9.11184 10.5127 9.04605 10.3812 9.17763C10.5785 9.30921 10.7759 9.44079 10.9733 9.44079C11.1048 9.44079 11.2364 9.375 11.368 9.50658C11.4338 9.50658 11.4996 9.57237 11.5654 9.57237C11.5654 9.50658 11.5654 9.375 11.6312 9.30921C11.6312 9.70395 12.4864 9.76974 12.5522 9.50658C12.618 9.83553 12.8154 9.83553 13.0127 10.0329C13.1443 10.1645 13.2759 10.0987 13.4733 10.1645C13.7364 10.1645 13.9338 10.3618 14.1312 10.3618C14.3285 10.3618 14.5917 10.1645 14.7891 10.2961C14.6575 10.3618 14.7891 10.3618 14.8548 10.4276C14.8548 10.4934 14.9206 10.625 14.9206 10.6908C14.9864 10.8882 14.9206 11.0855 15.0522 11.2829C15.3812 11.7434 15.8417 11.875 16.368 11.7434C16.6312 11.6776 16.4338 12.0066 16.5654 12.0724C16.7627 12.2039 16.6312 12.2697 16.4996 12.4013C16.2364 12.5987 15.7101 12.6645 15.7101 13.0592C16.4338 13.125 17.2233 12.8618 17.947 12.8618C18.2101 12.8618 18.5391 12.9934 18.8022 12.9934C19.0654 12.9934 19.0654 12.7961 19.197 12.7961C19.1312 12.8618 19.1312 12.8618 19.1312 12.9276C19.1312 12.9934 19.9864 12.7303 20.0522 12.7303C20.1838 12.7303 20.7101 12.4671 20.3154 12.4013C19.9864 12.4013 19.9206 12.1382 19.6575 11.9408C19.3943 11.6776 18.8022 11.8092 18.4075 11.7434C18.4733 11.6776 18.5391 11.6118 18.6706 11.5461C18.6048 11.5461 18.6048 11.4803 18.5391 11.4803C18.8022 11.4145 18.6706 11.1513 18.4733 11.1513C18.3417 11.1513 18.2101 11.2171 18.0785 11.1513C17.947 11.0855 17.4864 10.6908 17.4864 11.0197C17.4206 10.9539 17.2891 10.8882 17.2233 10.8882C17.2233 10.8224 17.2891 10.8224 17.2891 10.7566C17.2233 10.7566 17.0917 10.7566 17.0259 10.8224C17.0917 10.7566 17.1575 10.7566 17.1575 10.6908C16.9601 10.6908 16.8943 10.2961 16.697 10.625C16.6312 10.5592 16.6312 10.4276 16.5654 10.3618ZM16.5654 10.3618C16.4996 10.2303 16.4338 10.0987 16.3022 10.0329C16.4338 10.0329 16.8943 10.2303 16.8285 10.4276C16.7627 10.4276 16.6312 10.3618 16.5654 10.3618Z" stroke="white" stroke-width="0.197368" stroke-miterlimit="10.6756"/>
<path d="M9.13071 10.822C8.99913 10.822 8.86755 10.7562 8.80176 10.5588C9.06492 10.822 8.93333 10.3614 8.93333 10.2299C8.93333 10.0325 9.19649 9.96669 9.32807 10.0325C9.45965 10.0983 9.59123 10.3614 9.59123 10.493C9.59123 10.7562 9.26228 10.822 9.13071 10.822Z" fill="#36A83A" stroke="white" stroke-width="0.197368" stroke-miterlimit="10.6756"/>
<path d="M13.0124 8.51892H12.8809C12.9466 8.51892 12.9466 8.45312 13.0124 8.45312V8.51892Z" fill="#36A83A" stroke="white" stroke-width="0.197368" stroke-miterlimit="10.6756"/>
<path d="M14.9861 12.2703L14.8545 12.1387C14.9861 12.1387 14.9203 12.1387 14.9861 12.2703Z" fill="#36A83A" stroke="white" stroke-width="0.197368" stroke-miterlimit="10.6756"/>
<path d="M15.2495 9.30916C15.1837 9.30916 15.0521 9.24337 14.9863 9.17758C15.1179 9.11179 15.3811 8.98021 15.4469 9.24337C15.3811 9.30916 15.3153 9.30916 15.2495 9.30916Z" fill="#36A83A" stroke="white" stroke-width="0.197368" stroke-miterlimit="10.6756"/>
<path d="M15.7762 9.57303C15.6446 9.50724 15.5131 9.50724 15.4473 9.37566C15.6446 9.17829 15.7104 9.44145 15.7762 9.57303Z" fill="#36A83A" stroke="white" stroke-width="0.197368" stroke-miterlimit="10.6756"/>
<path d="M15.9078 9.83481C15.7762 9.83481 15.6446 9.63744 15.7762 9.50586C15.842 9.57165 15.9736 9.70323 15.9078 9.83481Z" fill="#36A83A" stroke="white" stroke-width="0.197368" stroke-miterlimit="10.6756"/>
<path d="M16.105 10.0994C16.0392 10.0336 15.9076 9.96785 15.8418 9.90207C16.0392 9.7047 16.3681 9.90206 16.105 10.0994Z" fill="#36A83A" stroke="white" stroke-width="0.197368" stroke-miterlimit="10.6756"/>
<path d="M14.46 15.6726C14.7889 15.2121 15.4468 15.2778 15.9731 15.4094C16.3021 15.4752 16.4994 15.6726 16.8284 15.7384C17.1573 15.8042 17.1573 15.9357 17.2889 16.1989C17.1573 16.2647 17.0257 16.2647 16.8284 16.2647C16.6968 16.2647 16.631 16.1331 16.4994 16.1331C16.6968 16.1331 16.4336 16.0673 16.4336 16.1331C16.3679 16.1989 16.3021 16.2647 16.2363 16.2647C16.1047 16.2647 15.8415 16.2647 15.9731 16.4621C15.7757 16.4621 15.7757 16.2647 15.6442 16.2647C15.5126 16.2647 15.2494 16.2647 15.1179 16.1331C15.0521 16.0673 14.9863 15.9357 14.9205 15.87C14.7889 15.8042 14.5258 15.87 14.46 15.6726Z" fill="#36A83A" stroke="white" stroke-width="0.197368" stroke-miterlimit="10.6756"/>
<path d="M20.2496 15.1002C20.5786 15.2318 20.6443 15.166 20.9733 15.166C20.6443 15.2318 21.1049 15.2976 21.2365 15.2976C21.4338 15.2976 21.6312 15.2976 21.8286 15.3634C22.0917 15.4292 22.0259 15.2976 22.2891 15.2318C22.4207 15.166 22.618 15.2976 22.6838 15.1002C22.7496 14.7713 22.1575 14.7055 22.2233 14.3108C22.2891 13.916 22.3549 13.6529 21.8286 13.5871C21.6312 13.5213 21.1707 13.5871 21.5654 13.2581C22.0259 12.9292 22.3549 13.1266 22.8154 13.2581C23.1443 13.3239 23.7365 13.2581 23.6707 13.6529C23.6707 13.8502 23.6049 13.9818 23.6707 14.1134C23.7365 14.3766 23.4075 14.3766 23.4075 14.5081C23.4075 14.5739 23.5391 14.5739 23.5391 14.7713C23.5391 14.9687 23.3417 15.1002 23.1443 15.1002C23.3417 15.2976 23.4733 15.6924 23.3417 15.9555C23.0786 15.5608 22.618 15.6266 22.2233 15.7581C21.8286 15.8239 20.9733 15.3634 20.7101 15.8239C20.5128 16.1529 20.3154 15.6266 20.0522 15.5608C19.4601 15.5608 19.9207 14.9029 20.2496 15.1002Z" fill="#36A83A" stroke="white" stroke-width="0.197368" stroke-miterlimit="10.6756"/>
<path d="M20.8415 16.0209C20.7758 16.0209 20.7758 16.0209 20.71 15.9551C20.7758 15.9551 20.7758 16.0209 20.8415 16.0209Z" fill="#36A83A" stroke="white" stroke-width="0.197368" stroke-miterlimit="10.6756"/>
<path d="M21.9597 15.0334C21.8939 15.0334 21.1702 14.7045 21.4334 14.6387C21.6307 14.6387 22.0913 14.836 21.9597 15.0334Z" fill="#36A83A" stroke="white" stroke-width="0.197368" stroke-miterlimit="10.6756"/>
<path d="M22.2888 13.0602C22.223 13.0602 22.223 13.0602 22.1572 12.9944C22.223 12.9286 22.3546 12.9286 22.4862 13.0602H22.2888Z" fill="#36A83A" stroke="white" stroke-width="0.197368" stroke-miterlimit="10.6756"/>
<path d="M31.0387 16.1313C30.5781 16.1313 30.0518 16.2629 29.6571 16.1313C29.5913 16.1313 29.3939 16.1971 29.3939 15.934C29.4597 15.8682 29.4597 15.8024 29.4597 15.7366C29.4597 15.605 29.3281 15.605 29.3281 15.4734C29.3939 15.0787 30.7097 15.2761 30.9071 15.4076C31.1044 15.4734 31.4992 15.3419 31.4992 15.6708C31.4992 15.8024 31.1702 16.1313 31.0387 16.1313Z" fill="#36A83A" stroke="white" stroke-width="0.197368" stroke-miterlimit="10.6756"/>
</g>
</g>
</g>
<defs>
<clipPath id="clip0_26003_52602">
<rect width="38" height="25" fill="white" transform="translate(0 0.210938)"/>
</clipPath>
<clipPath id="clip1_26003_52602">
<rect width="38" height="25" fill="white" transform="translate(0 0.210938)"/>
</clipPath>
<clipPath id="clip2_26003_52602">
<rect width="25" height="25" fill="white" transform="translate(6.5 0.210938)"/>
</clipPath>
</defs>
</svg>
