<svg width="60" height="60" viewBox="0 0 60 60" fill="none" xmlns="http://www.w3.org/2000/svg">
<g clip-path="url(#clip0_26003_90109)">
<g clip-path="url(#clip1_26003_90109)">
<g clip-path="url(#clip2_26003_90109)">
<path d="M60.1583 15.1574L58.5794 14.2101C58.5794 14.368 58.8951 14.5259 58.5794 14.8417C58.4215 14.8417 58.4215 14.5259 58.4215 14.368C58.4215 14.0522 58.2636 13.7364 57.9478 13.7364C57.632 13.7364 57.4741 13.7364 57.1583 13.5785C57.0004 13.5785 56.8425 13.4206 56.8425 13.2627V12.9469L56.6846 12.789C56.3688 12.4732 56.053 12.3153 55.7373 12.1574H55.4215C55.1057 12.1574 54.7899 12.3153 54.4741 12.3153C54.1583 12.3153 53.8425 12.3153 53.6846 11.9995H53.5267C53.3688 12.1574 53.3688 12.4732 53.5267 12.6311L53.6846 12.789V13.1048C53.6846 13.2627 53.5267 13.2627 53.3688 13.2627C53.2109 13.2627 53.2109 13.1048 53.053 13.1048C52.8951 12.9469 52.7373 12.789 52.4215 12.789H51.632C51.4741 12.789 51.1583 12.6311 51.0004 12.6311H50.3688L50.2109 12.789V12.9469C50.2109 12.789 50.2109 12.6311 50.053 12.4732C49.8952 12.3153 49.7373 12.3153 49.5794 12.3153V11.9995C49.7373 11.8417 49.5794 11.6838 49.4215 11.6838C49.1057 11.5259 48.7899 11.5259 48.4741 11.5259C47.8425 11.0522 47.3688 10.8943 46.8952 11.0522H46.5794C46.5794 10.7364 46.4215 10.5785 45.9478 10.5785C45.9478 10.2627 45.4741 10.4206 45.3162 10.2627C45.4741 10.1048 45.7899 10.2627 45.632 9.94692C45.4741 9.94692 45.1583 9.94692 45.0004 10.1048H44.8425C44.6846 9.94692 44.6846 9.78902 44.5267 9.63113L44.3688 9.78902C44.2109 9.94692 44.2109 10.1048 44.053 10.2627H43.8951C43.8951 10.2627 43.8951 10.1048 44.053 10.1048L44.2109 9.94692C43.8951 9.94692 43.7373 9.78902 43.5794 9.47323H43.4215C43.1057 9.47323 42.7899 9.47323 42.632 9.31534C42.4741 9.31534 42.4741 9.31534 42.4741 9.47323V9.63113H42.0004V10.5785C41.6846 10.5785 41.5267 10.8943 41.2109 10.7364C40.7373 10.8943 40.4215 10.8943 39.9478 10.7364C39.7899 10.7364 39.632 10.7364 39.3162 10.5785C39.1583 10.7364 39.1583 11.0522 39.0004 11.2101H38.8425C38.6846 11.2101 38.6846 11.0522 38.5267 11.0522C38.2109 10.7364 38.053 10.2627 37.7373 9.94692C38.053 10.1048 38.053 10.1048 38.2109 9.94692L37.8951 8.99955C37.7373 9.15744 37.4215 9.15744 37.2636 8.99955C36.9478 8.68376 36.632 8.68376 36.3162 8.68376V9.15744C35.3688 9.31534 34.4215 8.99955 33.632 8.52587C33.4741 8.52587 33.3162 8.52587 33.1583 8.68376C33.0004 8.68376 32.6846 8.68376 32.8425 8.99955C32.6846 8.84165 32.8425 8.52587 32.6846 8.36797C32.5267 8.68376 32.3688 8.68376 32.2109 8.52587L32.053 8.36797C31.7373 7.89429 31.5794 7.89429 31.4215 8.21008L31.5794 8.36797L30.0004 8.99955C30.0004 8.84165 30.1583 8.68376 30.1583 8.68376C30.3162 8.52587 30.632 8.36797 30.7899 8.21008H30.9478C31.2636 7.89429 31.5794 7.73639 31.8952 7.4206C32.053 7.4206 32.2109 7.4206 32.2109 7.26271C32.3688 6.94692 32.5267 6.94692 32.6846 6.94692C33.0004 6.78902 33.0004 6.63113 32.8425 6.47323L33.0004 6.31534L32.8425 6.15744C32.6846 5.99955 32.5267 5.99955 32.3688 5.68376H32.2109C31.8951 5.52587 31.5794 5.52587 31.2636 5.36797C31.1057 5.36797 30.9478 5.21008 30.7899 5.36797C30.632 5.68376 30.4741 5.52587 30.3162 5.52587L30.632 5.05218L29.6846 4.89429L30.1583 4.5785C30.1583 4.5785 30.1583 4.4206 30.0004 4.4206C29.6846 4.26271 29.2109 4.10481 28.8951 4.4206C28.7373 4.4206 28.4215 4.73639 28.4215 4.89429C28.4215 5.36797 28.4215 5.36797 27.9478 5.36797H27.632L27.9478 5.68376C27.7899 5.52587 27.632 5.52587 27.4741 5.68376H26.6846C26.5267 5.68376 26.5267 5.68376 26.3688 5.84166C26.053 5.84166 25.7373 5.84166 25.4215 6.15744C25.2636 6.47323 24.9478 6.47323 24.632 6.63113C24.4741 6.63113 24.3162 6.78902 24.0004 6.78902V6.94692H23.6846L24.0004 7.26271H23.6846C23.8425 7.89429 24.0004 7.89429 23.8425 8.21008C23.6846 8.21008 23.5267 8.05218 23.5267 8.21008C23.3688 8.36797 23.2109 8.36797 23.2109 8.36797C23.053 8.36797 23.053 8.36797 22.8951 8.52587C22.5794 8.68376 22.2636 8.84166 21.7899 8.68376C21.632 8.84166 21.632 9.47323 21.7899 9.63113C21.9478 9.47323 21.9478 9.47323 22.1057 9.63113H22.2636C22.2636 9.78902 22.4215 9.78902 22.4215 9.94692V10.1048C22.2636 10.1048 22.2636 10.1048 22.1057 9.94692C21.9673 9.79197 21.7966 9.66925 21.6056 9.58741C21.4147 9.50557 21.2081 9.46659 21.0004 9.47323H20.8425C20.6846 9.31534 20.5267 9.31534 20.5267 9.47323L20.8425 9.78902V9.94692C20.6846 9.94692 20.6846 9.94692 20.5267 9.78902H20.2109V10.1048C20.3688 10.2627 20.5267 10.2627 20.5267 10.4206C20.5267 10.5785 20.8425 10.5785 20.8425 10.7364V10.8943H20.6846C20.5267 10.7364 20.2109 10.5785 19.8951 10.5785L19.7373 10.4206C19.7373 10.1048 19.7373 9.94692 19.8951 9.63113C20.053 9.47323 19.8951 9.15744 19.5794 8.99955V9.31534C19.5794 9.47323 19.5794 9.78902 19.4215 9.78902L18.9478 10.2627C19.1057 10.4206 19.1057 10.5785 19.2636 10.5785C19.4215 10.7364 19.4215 11.0522 19.2636 11.368C19.1057 11.6838 19.1057 11.9995 19.1057 12.1574C19.1057 12.1574 19.1057 12.3153 19.2636 12.3153H19.5794C20.053 12.1574 20.2109 12.3153 20.5267 12.6311C20.6846 12.789 20.6846 12.9469 20.5267 13.1048C20.3688 13.2627 20.3688 13.4206 20.5267 13.5785C20.5267 13.5785 20.6846 13.7364 20.8425 13.7364C20.5267 13.8943 20.2109 13.5785 20.3688 13.1048V12.789C20.3688 12.6311 20.2109 12.6311 20.2109 12.4732C20.2109 12.3153 20.053 12.3153 19.8951 12.3153C19.7373 12.3153 19.7373 12.4732 19.5794 12.4732C19.4215 12.4732 19.4215 12.6311 19.4215 12.789C19.4215 12.9469 19.4215 13.1048 19.5794 13.1048V13.4206C19.4215 13.7364 19.1057 14.0522 18.9478 14.368C18.7899 14.5259 18.632 14.6838 18.3162 14.5259C18.1583 14.6838 17.8425 14.5259 17.6846 14.5259L17.5267 14.368V14.2101H17.6846C17.8425 14.2101 18.0004 14.368 18.1583 14.368C18.1583 14.368 18.3162 14.368 18.3162 14.2101C18.4741 14.0522 18.4741 13.8943 18.632 13.7364L18.7899 13.5785C18.9478 13.4206 19.1057 13.4206 18.9478 13.1048V12.9469C19.1057 12.789 18.9478 12.789 18.9478 12.6311V11.2101C18.9478 10.8943 18.9478 10.7364 18.7899 10.4206C18.632 10.2627 18.632 10.2627 18.7899 10.1048C18.9478 9.94692 18.9478 9.63113 18.9478 9.31534C18.9478 9.15744 18.9478 8.99955 18.7899 8.99955H18.1583L17.6846 9.94692C17.5267 10.1048 17.5267 10.2627 17.2109 10.4206C17.053 10.5785 16.8951 10.7364 16.8951 11.0522C16.8951 11.2101 16.8952 11.5259 16.7373 11.6838C16.5794 11.8417 16.7373 11.9995 16.8951 11.9995C17.053 11.9995 17.053 12.1574 17.2109 12.3153C17.3688 12.4732 17.5267 12.4732 17.5267 12.6311V12.789C17.5267 12.9469 17.3688 12.9469 17.3688 13.1048C17.2109 13.1048 17.2109 12.9469 17.2109 12.9469C16.7373 12.4732 16.2636 12.1574 15.632 12.1574C15.4741 12.1574 15.3162 12.1574 15.3162 11.9995C15.1583 11.9995 15.0004 11.8417 14.6846 11.6838H14.5267C14.3688 11.6838 14.2109 11.5259 14.053 11.368C13.8951 11.368 13.8951 11.2101 13.7373 11.368C13.7373 11.5259 13.7373 11.5259 13.8951 11.6838C14.053 11.8417 14.2109 11.8417 14.3688 11.8417L14.5267 11.9995C14.5267 12.1574 14.6846 12.3153 14.6846 12.4732C14.6846 12.6311 14.6846 12.789 14.5267 12.789H14.3688V12.9469C14.2109 12.9469 14.053 12.9469 14.2109 12.789C14.2109 12.6311 14.2109 12.4732 14.053 12.4732H13.7373C13.4215 12.789 13.2636 12.9469 12.9478 12.9469C12.7899 12.9469 12.632 12.9469 12.4741 13.1048C12.3162 13.2627 12.0004 13.2627 11.8425 13.1048H12.0004C12.0004 12.9469 12.0004 12.789 12.1583 12.6311C12.0004 12.6311 11.6846 12.6311 11.6846 13.1048C11.5267 13.1048 11.5267 12.9469 11.3688 12.9469C11.2109 13.1048 10.8951 13.1048 10.5794 13.2627C10.4215 13.4206 10.4215 13.5785 10.1057 13.5785C9.94778 13.5785 9.78988 13.7364 9.78988 14.0522C9.78988 14.2101 9.78989 14.368 9.63199 14.368C9.4741 14.368 9.15831 14.368 9.15831 14.0522C8.84252 13.8943 9.00041 13.7364 9.15831 13.5785C9.3162 13.5785 9.4741 13.4206 9.63199 13.4206C9.4741 13.2627 9.3162 13.1048 9.3162 12.9469H8.84252L8.68462 13.1048C8.68462 13.4206 8.52673 13.7364 8.52673 14.0522C8.84252 14.2101 8.84252 14.368 8.68462 14.9995C8.68462 14.9995 8.52673 14.9995 8.52673 14.8417L8.36883 14.6838C8.21094 14.6838 8.05304 14.6838 7.89515 14.8417L7.73725 14.9995C7.57936 14.9995 7.42146 15.1574 7.26357 15.4732V15.789L7.42146 15.9469V16.2627H7.10567C6.94778 16.2627 6.94778 16.1048 6.78989 16.1048C6.4741 15.9469 6.3162 15.9469 6.3162 15.789C6.3162 15.789 6.15831 15.6311 6.15831 15.789C6.00041 15.789 6.00041 15.9469 6.00041 16.1048C6.00041 16.2627 6.15831 16.5785 6.3162 16.5785C6.4741 16.5785 6.4741 16.5785 6.4741 16.7364C6.4741 16.8943 6.3162 16.8943 6.15831 16.8943C6.00041 16.8943 5.84252 16.8943 5.84252 16.5785L5.68462 16.4206C5.52673 16.4206 5.52673 16.4206 5.52673 16.2627V15.4732C5.52673 15.3153 5.52673 14.9995 5.36883 14.9995C4.73725 14.6838 4.57936 14.368 4.42146 14.0522L4.57936 14.2101C4.73725 14.2101 4.73725 14.368 4.89515 14.368L6.3162 14.8417C6.78989 14.9995 7.10567 14.8417 7.42146 14.5259C7.73725 14.2101 7.73725 13.8943 7.42146 13.7364L7.26357 13.5785L7.10567 13.4206C6.94778 13.4206 6.78988 13.2627 6.63199 13.1048C6.3162 12.789 6.15831 12.6311 6.00041 12.6311C5.68462 12.4732 5.52673 12.3153 5.21094 12.1574H4.57936C4.57936 12.1574 4.42146 12.1574 4.42146 11.9995L4.73725 11.8417C4.57936 11.8417 4.42146 11.6838 4.42146 11.6838C4.42146 11.6838 4.26357 11.8417 4.10567 11.8417H3.94778C3.63199 11.9995 3.3162 12.1574 3.15831 12.4732C3.00041 12.789 3.00041 13.1048 3.3162 13.2627C3.63199 13.4206 3.63199 13.7364 3.4741 14.0522C3.15831 14.0522 3.15831 14.2101 3.3162 14.5259C3.4741 14.6838 3.4741 14.8417 3.63199 15.1574V16.4206C3.63199 16.5785 3.63199 16.5785 3.78989 16.7364C3.94778 16.8943 3.94778 16.8943 3.78989 17.0522C3.78989 17.0522 3.63199 17.0522 3.63199 17.2101L4.10567 17.6838C4.26357 17.8417 4.26357 17.9995 4.10567 18.3153C3.78988 18.1574 3.4741 18.4732 3.15831 18.9469C3.00041 19.1048 3.00041 19.2627 2.84252 19.2627C3.00041 19.2627 3.00041 19.4206 3.00041 19.4206C3.00041 19.5785 3.15831 19.5785 3.3162 19.5785C3.3162 19.5785 3.4741 19.5785 3.4741 19.7364C3.15831 19.7364 2.84252 19.7364 2.68462 20.2101C2.68462 20.368 2.52673 20.5259 2.52673 20.6838V21.1574L2.36883 21.3153V21.6311C2.52673 21.9469 2.36883 22.4206 2.84252 22.4206H3.00041C3.15831 22.4206 3.3162 22.5785 3.3162 22.7364V23.2101C3.4741 23.5259 3.63199 23.6838 3.78989 23.8417C3.78989 23.8417 3.94778 23.9995 3.78989 23.9995C3.78989 23.9995 3.63199 24.1574 3.4741 24.1574H3.3162C3.3162 24.3153 3.3162 24.4732 3.4741 24.789C4.10567 25.2627 4.26357 25.2627 4.42146 25.2627C4.73725 24.9469 5.05304 25.2627 5.05304 25.5785C5.05304 25.7364 5.21094 25.8943 5.21094 25.8943C5.52673 25.8943 5.52673 26.2101 5.52673 26.368C5.68462 26.368 5.68462 26.5259 5.84252 26.5259H6.00041C6.15831 26.368 6.15831 26.5259 6.3162 26.6838L6.4741 26.8417C6.63199 26.8417 6.78989 26.9995 6.94778 26.9995L7.10567 27.1574C7.10567 27.3153 7.10567 27.4732 6.94778 27.6311V27.789C6.94778 28.1048 6.94778 28.1048 6.78989 28.1048C6.63199 28.1048 6.3162 28.4206 6.4741 28.5785H6.78989L6.3162 28.8943L6.4741 29.0522C6.4741 29.2101 6.3162 29.368 6.3162 29.368L6.00041 29.6838C6.00041 29.8417 6.15831 29.8417 6.15831 29.9995L6.94778 30.789L7.10567 30.9469C7.26357 31.1048 7.57936 31.2627 7.57936 31.5785C7.73725 31.8943 7.73725 32.0522 7.42146 32.2101C7.26357 32.368 6.94778 32.368 6.63199 32.368C6.15831 32.5259 5.68462 32.2101 5.36883 31.8943C5.05304 31.7364 4.42146 31.7364 4.26357 31.8943C3.94778 32.2101 3.63199 32.368 3.3162 32.2101H3.15831C3.15831 32.5259 3.15831 32.6838 2.84252 32.6838H2.52673C2.36883 32.6838 2.21094 32.8417 2.21094 32.9995C2.21094 32.9995 2.36883 33.1574 2.36883 33.3153C2.52673 33.6311 2.21094 33.789 2.52673 34.1048V34.2627C2.52673 34.4206 2.68462 34.4206 2.68462 34.5785C2.68462 34.5785 2.84252 34.7364 3.00041 34.7364C3.15831 34.7364 3.15831 34.8943 3.15831 34.8943L3.3162 35.0522C3.4741 35.0522 3.4741 34.8943 3.63199 34.8943C3.78988 34.8943 3.78988 34.7364 3.94778 34.7364C4.10567 34.7364 4.10567 34.8943 4.26357 34.8943C4.57936 35.0522 4.73725 35.2101 5.05304 34.8943C5.21094 34.7364 5.21094 34.7364 5.36883 34.8943H5.68462V35.9995L5.21094 37.5785C5.05304 37.8943 5.05304 38.2101 5.21094 38.5259C5.21094 38.6838 5.36883 38.8417 5.36883 38.9995C5.21094 39.4732 5.36883 39.9469 5.52673 40.2627C5.84252 40.7364 6.00041 41.2101 6.15831 41.6838C6.15831 41.8417 6.3162 41.8417 6.3162 41.9995C6.63199 42.3153 6.78989 42.6311 6.78989 43.1048C6.78989 43.4206 6.78989 43.7364 7.10567 44.0522C7.26357 44.2101 7.42146 44.368 7.57936 44.6838C7.57936 44.8417 7.73725 44.9995 7.73725 45.1574C7.89515 45.4732 8.05304 45.9469 8.21094 46.2627C8.21094 46.5785 8.21094 46.8943 8.36883 47.0522C8.36883 47.2101 8.52673 47.368 8.52673 47.5259C8.52673 47.8417 8.68462 47.9995 9.00041 47.8417C9.00041 47.368 9.4741 47.368 9.78988 47.0522H9.94778C10.1057 47.0522 10.2636 46.8943 10.4215 46.7364C10.5794 46.5785 10.5794 46.4206 10.7373 46.2627C10.8951 46.1048 11.2109 46.1048 11.3688 46.2627C11.5267 45.789 11.5267 45.789 11.8425 45.6311C12.3162 45.4732 12.632 45.1574 12.9478 44.8417C13.1057 44.6838 13.2636 44.5259 13.2636 44.2101V43.8943C13.5794 43.4206 13.7373 43.1048 14.053 42.6311C14.053 42.4732 13.8951 42.3153 13.8951 42.1574C13.8951 41.9995 13.7373 41.8417 13.5794 41.8417C13.2636 41.8417 13.1057 41.5259 13.1057 41.2101C13.1057 40.8943 12.9478 40.7364 12.9478 40.4206C12.7899 40.7364 12.632 40.8943 12.4741 41.2101C12.3162 41.5259 12.1583 41.5259 11.8425 41.5259H11.5267C11.3688 41.6838 11.3688 41.5259 11.2109 41.368V40.7364C11.2109 40.7364 11.2109 40.5785 11.053 40.5785L10.8951 40.7364C10.8951 40.8943 10.8951 40.8943 10.7373 41.0522C10.5794 40.8943 10.5794 40.7364 10.5794 40.5785C10.5794 40.4206 10.5794 40.2627 10.4215 40.1048C10.1057 39.789 9.94778 39.3153 9.94778 38.9995C9.78989 38.5259 9.78989 38.5259 10.2636 38.368C10.5794 38.368 10.7373 38.368 10.7373 38.6838C10.8951 38.9995 10.8951 39.1574 11.053 39.4732C11.053 39.6311 11.2109 39.789 11.3688 39.789L11.6846 40.1048C12.0004 40.2627 12.3162 40.5785 12.632 40.4206C13.1057 40.2627 13.1057 40.2627 13.2636 40.7364C13.2636 40.8943 13.4215 41.0522 13.5794 40.8943C13.7373 40.8943 13.7373 40.7364 13.8951 40.7364C14.2109 40.7364 14.3688 40.8943 14.6846 40.8943C14.8425 41.0522 15.1583 41.2101 15.632 41.0522C15.9478 41.0522 16.1057 41.0522 16.4215 40.8943C16.5794 40.8943 16.7373 41.0522 16.8951 41.368V41.5259C16.8951 41.6838 16.8951 41.8417 17.053 41.8417C17.2109 41.8417 17.2109 41.9995 17.3688 42.1574C17.5267 42.4732 17.6846 42.4732 17.8425 42.4732H18.0004C17.8425 42.789 17.6846 42.6311 17.5267 42.789C17.6846 42.9469 17.8425 43.2627 18.0004 43.4206C18.1583 43.5785 18.3162 43.5785 18.4741 43.5785C18.632 43.4206 18.7899 43.2627 18.7899 43.1048V42.9469C18.7899 43.2627 18.9478 43.4206 18.9478 43.7364V44.368C19.1057 44.8417 18.9478 45.3153 19.2636 45.789V45.9469C19.2636 46.4206 19.4215 46.8943 19.5794 47.368C19.7373 47.6838 19.7373 47.8417 19.7373 48.1574C19.8951 48.6311 20.053 49.1048 20.3688 49.5785C20.3688 49.7364 20.5267 49.8943 20.6846 50.0522C20.6846 50.0522 20.8425 50.0522 20.8425 49.8943C21.0004 49.5785 21.3162 49.4206 21.3162 49.1048V48.9469C21.3162 48.789 21.4741 48.789 21.4741 48.6311C21.4741 48.4732 21.4741 48.1574 21.632 47.9995C21.632 47.6838 21.7899 47.5259 21.7899 47.2101V46.2627C21.7899 46.1048 21.9478 46.1048 21.9478 46.1048C22.2636 45.9469 22.4215 45.6311 22.4215 45.3153C22.5794 44.8417 22.7373 44.368 23.053 44.0522C23.053 44.0522 23.053 43.8943 23.2109 43.8943C23.3688 43.7364 23.3688 43.5785 23.6846 43.5785H24.0004C24.0004 43.1048 24.1583 43.1048 24.4741 42.9469H24.632C24.7899 42.789 25.2636 42.9469 25.2636 42.4732C25.2636 42.3153 25.4215 42.3153 25.4215 42.4732C25.4215 42.6311 25.5794 42.789 25.5794 42.9469C25.5794 43.2627 25.7373 43.5785 25.8951 43.7364L26.053 43.8943C26.3688 44.368 26.3688 44.9995 26.3688 45.6311C26.3688 45.789 26.3688 45.9469 26.5267 45.9469C26.6846 45.9469 26.6846 45.9469 26.8425 45.789C27.0004 45.6311 27.0004 45.4732 27.1583 45.3153C27.3162 45.6311 27.4741 45.9469 27.4741 46.2627C27.4741 46.5785 27.632 46.8943 27.632 47.0522C27.632 47.2101 27.7899 47.368 27.7899 47.6838V48.9469C27.7899 49.1048 27.7899 49.2627 27.632 49.5785C27.632 49.7364 27.632 49.7364 27.7899 49.8943C28.1057 50.2101 28.2636 50.5259 28.4215 51.1574C28.4215 51.4732 28.5794 51.789 28.5794 51.9469C28.5794 52.1048 28.7373 52.2627 28.7373 52.4206C28.8952 52.8943 29.3688 53.0522 29.6846 53.368C29.6846 53.2101 29.6846 53.2101 29.5267 53.0522C29.3688 52.7364 29.2109 52.4206 29.3688 51.9469V51.789C29.3688 51.6311 29.3688 51.4732 29.2109 51.4732C29.053 51.3153 29.053 51.1574 28.8951 50.9995C28.7373 50.8417 28.7373 50.6838 28.5794 50.6838C28.2636 50.5259 28.2636 50.368 28.2636 50.0522C28.2636 49.8943 28.2636 49.5785 28.1057 49.4206C27.7899 49.2627 27.9478 49.1048 27.9478 48.789C28.1057 48.3153 28.1057 47.8417 28.1057 47.368C28.1057 47.2101 28.2636 47.2101 28.2636 47.2101C28.4215 47.368 28.5794 47.368 28.7373 47.5259L29.053 47.8417C29.053 47.9995 29.2109 47.9995 29.2109 48.1574C29.2109 48.3153 29.2109 48.4732 29.3688 48.4732C29.3688 48.6311 29.5267 48.789 29.5267 48.789C29.8425 48.6311 29.8425 48.9469 30.0004 49.1048C30.0004 49.2627 29.8425 49.4206 29.8425 49.5785L30.0004 49.4206C30.1583 49.4206 30.3162 49.2627 30.3162 49.1048C30.4741 48.9469 30.4741 48.6311 30.7899 48.789L30.9478 48.6311C30.9478 48.3153 31.1057 48.1574 31.2636 48.1574V46.7364C31.2636 46.4206 31.1057 46.1048 30.9478 45.9469C30.7899 45.6311 30.4741 45.4732 30.3162 45.1574C30.1583 44.9995 30.1583 44.6838 30.0004 44.368C29.8425 44.0522 30.3162 43.7364 30.3162 43.4206H30.4741C30.4741 43.4206 30.632 43.4206 30.632 43.2627L30.9478 42.9469H31.1057C31.1057 42.9469 31.1057 43.1048 31.2636 43.1048L31.4215 42.9469C31.5794 43.2627 31.2636 43.5785 31.5794 43.7364C31.5794 43.4206 31.7373 43.2627 31.8952 43.1048C32.2109 42.9469 32.3688 42.6311 32.6846 42.4732H32.8425C33.0004 42.6311 33.1583 42.4732 33.3162 42.3153C33.4741 42.1574 33.632 41.8417 33.9478 41.8417H34.1057C34.4215 41.6838 34.5794 41.5259 34.5794 41.0522V40.7364C34.5794 40.4206 34.7373 40.1048 35.053 39.9469C35.2109 39.9469 35.3688 39.789 35.3688 39.6311L35.5267 39.4732C35.5267 39.3153 35.6846 39.3153 35.6846 39.1574C35.6846 38.8417 35.6846 38.6838 35.8425 38.5259L35.2109 38.368L35.6846 38.0522L35.2109 37.4206L35.6846 37.5785C35.6846 37.4206 35.5267 37.4206 35.5267 37.2627L35.3688 37.1048C35.2109 36.789 35.2109 36.6311 35.053 36.3153C35.053 36.1574 34.8951 36.1574 34.8951 35.9995C34.7373 35.8417 34.7373 35.6838 34.8951 35.5259L35.053 35.368C35.2109 35.0522 35.5267 34.7364 35.8425 34.7364L36.0004 34.5785C36.0004 34.4206 35.8425 34.4206 35.8425 34.4206C35.6846 34.4206 35.6846 34.4206 35.5267 34.2627C35.3688 34.1048 35.3688 34.1048 35.2109 34.2627C35.2109 34.2627 35.2109 34.4206 35.053 34.4206C34.8951 34.4206 34.8951 34.5785 34.7373 34.5785C34.7373 34.4206 34.5794 34.4206 34.5794 34.2627C34.5794 33.9469 34.5794 33.9469 34.2636 33.9469C34.1057 33.9469 33.9478 33.9469 33.9478 33.6311C33.9478 33.3153 34.1057 33.3153 34.2636 33.3153C34.4215 33.3153 34.4215 33.3153 34.5794 33.1574C34.5794 32.9995 34.7373 32.8417 34.8951 32.8417L35.053 32.6838C35.053 32.5259 35.2109 32.5259 35.2109 32.368C35.3688 32.2101 35.5267 32.2101 35.5267 32.368C35.6846 32.5259 35.5267 32.6838 35.5267 32.6838C35.3688 32.8417 35.3688 33.1574 35.2109 33.4732C35.3688 33.4732 35.3688 33.3153 35.5267 33.3153C35.6846 33.1574 35.8425 32.9995 36.1583 32.8417C36.3162 32.6838 36.632 32.8417 36.632 32.9995C36.7899 33.1574 36.632 33.3153 36.4741 33.4732C36.3162 33.6311 36.3162 33.789 36.4741 33.9469C36.632 33.9469 36.7899 33.789 36.7899 33.9469C36.9478 34.1048 36.9478 34.2627 37.1057 34.4206C36.9478 34.4206 36.9478 34.5785 36.9478 34.7364V35.2101C36.7899 35.368 36.9478 35.6838 36.9478 35.8417C37.2636 35.6838 37.4215 35.368 37.7373 35.2101H37.8951C38.053 35.2101 38.053 35.2101 38.053 34.8943C38.053 34.7364 38.053 34.5785 37.8951 34.4206C37.8951 34.2627 37.8951 34.2627 37.7373 34.1048C37.5794 33.789 37.2636 33.6311 37.2636 33.1574C37.2636 32.9995 37.2636 32.9995 37.1057 32.9995C36.9478 32.8417 36.9478 32.6838 37.1057 32.6838C37.2636 32.5259 37.2636 32.368 37.4215 32.2101C37.5794 32.0522 37.5794 31.8943 37.7373 31.8943C37.7373 31.8943 37.8951 31.8943 37.8951 31.7364C37.8951 31.2627 38.2109 31.1048 38.5267 30.789C38.6846 30.6311 38.8425 30.6311 39.0004 30.789C39.1583 30.9469 39.3162 30.9469 39.3162 30.789C39.4741 30.6311 39.7899 30.4732 39.9478 30.1574C40.4215 29.5259 40.8951 28.7364 41.2109 27.9469C41.5267 27.3153 41.6846 26.8417 41.8425 26.0522C41.8425 25.7364 41.8425 25.4206 42.0004 25.1048C42.1583 24.789 42.0004 24.6311 42.0004 24.3153C42.0004 24.1574 41.8425 23.8417 41.6846 23.6838V23.5259C41.5267 23.2101 41.3688 23.2101 41.2109 23.368L40.8951 23.6838C40.8951 23.6838 40.7373 23.6838 40.7373 23.8417V23.2101C40.5794 23.368 40.5794 23.5259 40.5794 23.5259V23.0522H40.1057V22.8943C40.1057 22.7364 40.2636 22.7364 40.2636 22.5785C40.2636 22.2627 40.4215 22.1048 40.7373 22.1048C40.7373 21.6311 40.7373 21.4732 41.053 21.3153C41.3688 20.9995 41.6846 20.5259 42.0004 20.2101C42.1583 20.0522 42.3162 19.7364 42.632 19.7364H44.053C44.2109 19.5785 44.5267 19.5785 44.6846 19.7364H44.8425C45.0004 19.5785 45.1583 19.5785 45.3162 19.5785H45.4741C45.632 19.5785 45.7899 19.7364 45.7899 19.7364L45.632 19.8943V20.0522H45.9478C46.1057 20.0522 46.2636 19.8943 46.4215 19.8943C46.7373 20.0522 46.8951 19.7364 47.2109 19.7364C47.053 19.7364 47.053 19.5785 47.053 19.5785C46.8951 19.5785 46.8952 19.4206 46.8952 19.2627C47.053 18.9469 47.2109 18.6311 47.5267 18.4732C47.6846 18.4732 47.6846 18.3153 47.6846 18.1574C47.6846 17.9995 47.8425 17.8417 48.0004 17.8417H48.3162C48.4741 17.8417 48.632 17.6838 48.632 17.9995L48.7899 17.8417L48.632 18.4732L48.7899 18.6311L48.632 18.789L48.9478 18.4732C49.1057 18.3153 49.2636 17.9995 49.5794 17.9995V17.5259C49.5794 17.2101 50.053 17.0522 50.2109 17.368C49.8951 17.368 49.8951 17.5259 49.8951 17.6838V18.1574C49.7373 18.3153 49.7373 18.6311 49.5794 18.6311C49.4215 18.6311 49.4215 18.789 49.2636 18.789C49.2636 18.789 49.1057 18.9469 49.1057 19.1048C48.9478 19.4206 48.632 19.5785 48.4741 19.8943C48.1583 20.368 47.8425 20.6838 47.3688 20.8417C47.3688 20.9995 47.2109 21.1574 47.2109 21.3153V21.6311C47.3688 21.789 47.3688 21.9469 47.3688 22.1048C47.2109 22.7364 47.2109 23.368 47.2109 23.9995C47.2109 24.4732 47.053 25.1048 47.3688 25.5785C47.6846 25.2627 47.8425 24.9469 48.0004 24.6311C48.0004 24.3153 48.1583 24.1574 48.3162 24.1574C48.4741 23.9995 48.4741 23.9995 48.4741 23.8417C48.3162 23.2101 48.4741 23.0522 48.9478 22.7364L49.1057 22.5785C49.2636 22.4206 49.2636 22.2627 49.5794 22.2627H49.7373V22.1048C49.5794 21.789 49.5794 21.789 49.7373 21.4732C49.7373 21.4732 49.7373 21.3153 49.8951 21.3153H49.5794C49.4215 21.3153 49.2636 21.1574 49.4215 20.9995C49.4215 20.8417 49.5794 20.6838 49.5794 20.5259C49.5794 20.368 49.7373 20.368 49.7373 20.2101C49.7373 20.0522 49.8951 19.8943 49.8951 19.8943C50.053 19.5785 50.2109 19.5785 50.3688 19.7364L50.6846 19.2627C50.8425 19.5785 51.0004 19.5785 51.1583 19.5785C51.4741 19.2627 51.7899 19.2627 52.1057 19.5785C52.2636 19.4206 52.5794 19.1048 52.8951 18.9469C53.2109 18.6311 53.5267 18.4732 53.8425 18.3153C54.1583 18.1574 54.632 18.1574 54.7899 17.6838C54.9478 17.6838 55.1057 17.8417 55.2636 17.8417C55.4215 17.8417 55.5794 17.8417 55.5794 17.5259C55.2636 17.5259 55.1057 17.2101 54.9478 16.8943C54.7899 16.5785 54.632 16.4206 54.7899 16.1048C54.632 16.1048 54.632 16.1048 54.4741 15.9469V15.789H54.9478C55.1057 15.4732 55.4215 15.6311 55.5794 15.4732C56.8425 15.789 56.8425 15.6311 56.8425 15.4732C56.6846 15.3153 56.6846 15.1574 56.8425 15.1574C57.0004 15.1574 57.0004 14.9995 57.1583 14.9995C57.0004 15.3153 57.0004 15.4732 57.1583 15.6311C57.3162 15.789 57.4741 15.6311 57.632 15.6311C57.7899 15.6311 58.1057 15.789 58.1057 15.9469C58.1057 16.1048 58.2636 16.1048 58.2636 16.1048C58.4215 16.2627 58.5794 16.2627 58.7373 16.4206C58.8951 16.5785 59.053 16.7364 59.2109 16.5785L59.053 16.4206H59.2109V15.6311L59.6846 15.789L59.5267 15.6311L59.8425 15.789L60.1583 15.1574ZM45.1583 58.5785C45.1583 58.5785 45.0004 58.4206 45.0004 58.2627C45.0004 58.1048 45.0004 57.9469 44.8425 57.789C44.8425 57.789 44.8425 57.6311 44.6846 57.6311L45.0004 57.4732C45.0004 57.3153 44.8425 57.1574 44.8425 57.1574C44.6846 56.9995 44.5267 56.9995 44.5267 56.9995C44.3688 56.8417 44.2109 56.8417 44.2109 56.6838C44.053 56.5259 43.8952 56.2101 43.7373 56.0522L42.7899 55.5785C42.632 55.4206 42.3162 55.4206 42.1583 55.2627C42.0004 55.2627 41.8425 55.2627 41.6846 54.9469C41.5267 54.789 41.3688 54.789 41.2109 54.789C41.053 55.1048 40.7373 55.2627 40.5794 55.5785C40.4215 55.7364 40.2636 55.7364 40.2636 55.4206C40.2636 55.1048 40.1057 54.9469 40.1057 54.6311C40.1057 54.4732 40.1057 54.3153 39.9478 54.3153C39.7899 54.1574 39.4741 54.1574 39.3162 54.1574C39.1583 54.1574 39.0004 54.4732 38.8425 54.6311C39.0004 54.789 39.1583 54.789 39.1583 54.9469C39.1583 55.1048 39.3162 55.2627 39.4741 55.1048H39.7899L39.9478 55.2627H39.7899C39.632 55.2627 39.4741 55.2627 39.1583 55.4206C39.3162 55.5785 39.3162 55.7364 39.3162 55.7364C39.3162 55.7364 39.4741 55.8943 39.4741 56.0522L39.632 55.8943C39.7899 56.0522 39.9478 56.0522 40.1057 56.2101L40.2636 56.368C40.5794 56.5259 40.8951 56.5259 41.2109 56.6838C41.3688 56.6838 41.3688 56.8417 41.3688 56.9995C41.3688 57.1574 41.5267 57.3153 41.5267 57.4732C41.5267 57.6311 41.5267 57.6311 41.3688 57.789C41.2109 57.789 41.2109 57.9469 41.053 57.9469C40.8951 58.1048 41.053 58.2627 41.2109 58.1048H41.6846C41.8425 58.1048 41.8425 58.1048 42.0004 58.2627C42.1583 58.4206 42.1583 58.5785 42.3162 58.5785C42.4741 58.7364 42.7899 58.7364 42.9478 58.5785C43.1057 58.4206 43.1057 58.2627 43.2636 58.1048C43.4215 57.9469 43.4215 57.9469 43.7373 57.9469C44.053 58.1048 44.3688 58.4206 44.5267 58.8943C44.6846 59.0522 44.6846 59.2101 44.8425 59.2101C45.0004 59.2101 45.1583 59.368 45.4741 59.368H45.7899C45.7899 59.368 45.7899 59.2101 45.632 59.2101C45.4741 59.0522 45.4741 58.7364 45.1583 58.5785ZM33.9478 54.9469C33.9478 54.789 34.1057 54.6311 34.1057 54.3153C34.1057 53.9995 34.2636 53.8417 34.4215 53.8417C34.5794 53.8417 34.5794 53.6838 34.5794 53.6838C34.5794 53.5259 34.4215 53.5259 34.4215 53.368C34.4215 53.2101 34.2636 53.2101 34.2636 53.2101C34.2636 52.8943 33.9478 52.7364 34.1057 52.4206C34.1057 52.4206 34.1057 52.2627 34.2636 52.1048C34.2636 51.9469 34.4215 51.9469 34.4215 51.9469C34.4215 51.789 34.5794 51.789 34.5794 51.789L34.7373 51.6311C34.7373 51.4732 34.7373 51.4732 34.5794 51.4732H34.4215C34.2636 51.4732 34.1057 51.4732 34.1057 51.3153C34.1057 51.1574 33.9478 51.1574 33.7899 50.9995C33.7899 50.9995 33.632 51.1574 33.632 51.3153C33.4741 51.6311 33.3162 51.9469 33.1583 52.1048C32.8425 51.9469 32.8425 51.9469 32.8425 52.2627C32.8425 52.4206 32.6846 52.4206 32.6846 52.5785C32.6846 52.8943 32.5267 53.0522 32.2109 53.0522C32.053 53.0522 31.8952 53.0522 31.8952 53.368V53.5259C31.8952 53.8417 31.8951 53.8417 31.5794 53.6838H31.4215C31.2636 53.5259 31.1057 53.5259 30.9478 53.8417V54.3153C30.9478 54.4732 30.9478 54.4732 31.1057 54.6311C31.1057 54.789 31.1057 54.9469 31.2636 54.9469C31.4215 55.1048 31.5794 55.4206 31.5794 55.7364V55.8943C31.5794 56.0522 31.7373 56.2101 31.8952 56.0522H32.053C32.2109 56.2101 32.2109 56.2101 32.3688 56.2101C32.5267 56.0522 32.8425 56.2101 33.0004 56.368C33.1583 56.5259 33.1583 56.5259 33.3162 56.368C33.632 56.2101 33.632 56.0522 33.632 55.7364C33.7899 55.2627 33.7899 55.1048 33.9478 54.9469Z" fill="#36A83A"/>
<path d="M11.8418 10.5796V10.2638C11.9997 10.2638 12.1576 10.4217 12.1576 10.5796C12.1576 10.8954 12.3155 10.8954 12.3155 10.8954C12.6313 11.0533 12.9471 11.0533 13.105 11.0533H13.4208C13.4208 10.8954 13.2629 10.8954 13.2629 10.7375C13.105 10.5796 12.9471 10.4217 12.7892 10.1059C12.6313 9.79013 12.6313 9.63224 12.9471 9.31645V9.15855C12.9471 9.00066 13.105 8.84276 13.105 8.84276C13.2629 8.68487 13.2629 8.68487 13.105 8.36908C13.105 8.21118 13.105 7.89539 13.2629 7.7375C13.4208 7.57961 13.7366 7.42171 13.8945 7.26382C14.2103 7.26382 14.3682 7.26382 14.5261 7.10592C14.8418 6.63224 15.3155 6.47434 15.6313 6.31645C15.9471 6.15855 16.4208 6.00066 16.7366 5.84276C16.8945 5.68487 17.2103 5.52697 17.3682 5.36908C17.3682 5.36908 17.5261 5.21118 17.3682 5.05329C17.3682 4.89539 17.2103 4.89539 17.2103 4.89539C17.0524 4.89539 16.8945 4.89539 16.5787 5.05329C16.2629 5.21118 16.105 5.36908 15.6313 5.36908C15.4734 5.84276 14.9997 5.68487 14.5261 5.84276C14.2103 6.00066 13.8945 6.31645 13.5787 6.47434L13.2629 6.79013C13.105 6.79013 13.105 6.79013 13.105 7.10592V7.26382C12.9471 7.26382 12.9471 7.57961 12.9471 7.57961C12.9471 7.7375 12.7892 7.89539 12.6313 7.89539C12.6313 7.89539 12.4734 8.05329 12.4734 8.21118C12.4734 8.52697 12.4734 8.68487 12.1576 8.68487C12.1576 9.00066 11.9997 9.00066 11.8418 9.00066L11.9997 9.31645L11.684 9.63224C11.3682 9.63224 11.5261 9.94803 11.3682 10.1059H11.684C11.684 10.4217 11.5261 10.5796 11.8418 10.5796ZM29.9997 56.8428V56.0533C29.9997 55.8954 30.1576 55.8954 30.1576 55.7375C30.1576 55.4217 29.9997 55.2638 29.8418 55.1059H29.684C29.684 55.1059 29.684 55.2638 29.8418 55.2638L29.9997 55.4217C29.8418 55.4217 29.684 55.4217 29.684 55.2638C29.5261 55.1059 29.5261 54.948 29.3682 54.7901H29.2103C29.0524 54.7901 29.0524 54.6322 29.0524 54.4743V54.1586C28.8945 54.0007 28.8945 53.8428 28.7366 53.6849C28.5787 53.527 28.2629 53.3691 28.105 53.2112C27.9471 53.2112 27.9471 53.0533 27.7892 52.8954C27.6313 52.7375 27.6313 52.5796 27.4734 52.4217C27.3155 52.2638 27.3155 52.1059 27.1576 51.948C27.1576 51.7901 26.9997 51.7901 26.8418 51.6322C26.684 51.4743 26.3682 51.4743 26.2103 51.4743V51.6322C26.3682 51.7901 26.3682 52.1059 26.5261 52.2638C26.684 52.4217 26.8418 52.5796 26.8418 52.8954C26.8418 52.8954 26.8418 53.0533 26.9997 53.0533C27.3155 53.2112 27.3155 53.527 27.3155 53.8428C27.3155 54.0007 27.4734 54.0007 27.4734 54.1586C27.6313 54.3164 27.7892 54.4743 27.7892 54.7901C27.9471 55.2638 28.2629 55.7375 28.4208 56.0533C28.5787 56.527 28.8945 56.8428 29.2103 57.1586H29.684C29.9997 57.0007 29.9997 56.8428 29.9997 56.8428ZM41.9997 33.7901C41.8419 34.1059 41.8418 34.4217 41.5261 34.5796C41.3682 34.7375 41.2103 34.7375 41.2103 34.4217C41.2103 34.5796 41.0524 34.7375 41.0524 34.7375C41.0524 34.8954 41.0524 34.8954 40.8945 35.0533C40.8945 35.2112 40.7366 35.2112 40.7366 35.3691C40.7366 35.527 40.5787 35.527 40.5787 35.527C40.4208 35.3691 40.4208 35.527 40.2629 35.527H39.7892C39.6313 35.527 39.6313 35.527 39.6313 35.6849L39.1576 36.1586C38.9997 36.3164 38.9997 36.3164 39.1576 36.4743C39.3155 36.4743 39.4734 36.4743 39.6313 36.3164C39.7892 36.1586 40.105 36.0007 40.4208 36.0007C40.7366 36.0007 40.7366 36.0007 40.7366 36.3164V36.4743H41.0524C41.2103 36.3164 41.3682 36.1586 41.2103 35.8428L41.5261 36.1586C41.684 36.0007 41.8419 36.0007 41.9997 35.8428C42.1576 35.6849 42.3155 35.3691 42.4734 35.2112C42.6313 35.0533 42.6313 34.7375 42.6313 34.2638C42.6313 34.1059 42.6313 33.948 42.7892 33.7901C42.9471 33.6322 42.9471 33.4743 42.9471 33.3164C42.9471 33.0007 42.7892 32.527 42.7892 32.2112C42.4734 32.2112 42.1576 32.527 42.3155 33.0007C42.3155 33.3164 42.1576 33.4743 41.9997 33.7901C42.1576 33.7901 42.1576 33.7901 41.9997 33.7901ZM34.7366 55.8954C34.8945 55.8954 34.8945 56.0533 34.8945 56.2112V57.0007C35.0524 56.8428 35.2103 56.6849 35.2103 56.527V55.7375L35.3682 55.5796C35.3682 55.5796 35.5261 55.7375 35.5261 55.8954V56.0533C35.5261 56.2112 35.684 56.3691 35.684 56.527H35.8419C36.1576 56.3691 36.1576 56.3691 35.9997 56.0533V55.8954C35.9997 55.7375 35.9997 55.5796 35.8419 55.4217C35.684 55.2638 35.684 55.2638 35.8419 55.1059C35.9997 54.948 36.1576 54.948 36.1576 54.7901V54.6322H35.9997C35.8418 54.6322 35.5261 54.7901 35.5261 54.948C35.3682 55.1059 35.3682 55.1059 35.2103 54.948C35.0524 54.6322 35.0524 54.3164 35.3682 54.1586C35.684 54.0007 35.9997 54.0007 36.3155 54.1586H36.6313C36.7892 54.0007 36.7892 53.8428 36.9471 53.6849C36.9471 53.6849 36.7892 53.6849 36.7892 53.8428C36.4734 54.1586 36.1576 54.1586 35.8419 54.0007C35.684 54.0007 35.5261 53.8428 35.3682 54.0007C35.2103 54.1586 35.0524 54.1586 35.0524 54.3165L34.5787 55.8954C34.5787 55.7375 34.5787 55.8954 34.7366 55.8954ZM41.9997 7.10592C41.9997 7.10592 42.1576 6.94803 42.1576 7.10592C42.3155 7.26382 42.4734 7.10592 42.4734 7.10592H42.7892C43.105 7.10592 43.105 7.10592 42.9471 6.79013V6.63224C42.9471 6.63224 42.9471 6.47434 43.105 6.47434L43.2629 6.63224C43.2629 6.94803 43.4208 7.10592 43.7366 7.10592C43.7366 7.10592 43.8945 7.10592 43.8945 6.94803C43.8945 6.79013 44.0524 6.63224 44.0524 6.63224V6.47434C44.0524 6.31645 43.5787 6.00066 43.4208 6.15855C43.2629 6.31645 42.9471 6.31645 42.7892 6.31645H42.6313C42.4734 6.47434 42.4734 6.31645 42.3155 6.31645C42.2287 6.23877 42.1163 6.19583 41.9997 6.19583C41.8832 6.19583 41.7708 6.23877 41.684 6.31645C41.5261 6.47434 41.5261 6.63224 41.5261 6.94803C41.5261 7.10592 41.5261 7.26382 41.684 7.26382C41.684 7.26382 41.8419 7.26382 41.9997 7.10592ZM42.4734 31.1059C42.3155 31.2638 42.3155 31.4217 42.3155 31.4217V31.5796C42.3155 31.7375 42.3155 31.8954 42.4734 32.0533L42.7892 31.8954L42.4734 31.5796C42.7892 31.5796 43.105 31.4217 43.4208 31.8954C43.4208 31.7375 43.4208 31.7375 43.5787 31.5796C43.5787 31.2638 43.8945 31.2638 44.0524 31.2638C44.2103 31.2638 44.2103 31.2638 44.3682 31.1059C44.3682 30.948 44.3682 30.948 44.5261 30.7901L44.8419 30.4743H44.3682C44.0524 30.6322 43.8945 30.4743 43.7366 30.3165C43.5787 30.1586 43.4208 30.0007 43.4208 29.8428H43.2629L43.105 30.0007C43.2629 30.1586 43.105 30.4743 43.105 30.6322C42.7892 30.7901 42.7892 31.2638 42.4734 31.1059ZM26.8418 1.57961H26.684C26.2103 1.7375 26.2103 1.7375 26.3682 2.21118C26.5261 2.36908 26.684 2.68487 26.8418 2.68487C26.9997 2.84276 27.3155 2.68487 27.6313 2.84276H27.9471C28.105 2.84276 28.105 2.68487 27.9471 2.52697V2.36908C27.9471 2.21118 28.105 2.21118 28.105 2.05329C28.105 1.89539 28.105 1.7375 27.9471 1.57961C27.7892 1.57961 27.6313 1.42171 27.6313 1.7375C27.6313 1.7375 27.4734 1.7375 27.4734 1.57961C27.3866 1.50193 27.2742 1.45898 27.1576 1.45898C27.0411 1.45898 26.9287 1.50193 26.8418 1.57961ZM27.9471 3.79013C28.5787 3.79013 29.2103 3.63224 29.684 3.47434C29.8418 3.47434 29.8418 3.31645 29.9997 3.31645V3.15855C29.9997 3.15855 29.9997 3.00066 29.8418 3.00066C29.684 3.00066 29.5261 3.00066 29.3682 2.84276C29.2103 2.68487 29.0524 2.68487 28.8945 2.84276V2.68487L28.4208 2.52697C28.4208 2.68487 28.4208 3.00066 28.2629 3.00066V3.15855C28.2629 3.31645 28.105 3.47434 28.105 3.63224C27.9471 3.63224 27.9471 3.79013 27.9471 3.79013ZM37.105 49.2638C36.9471 49.4217 36.9471 49.4217 36.9471 49.5796C36.9471 49.7375 36.7892 49.7375 36.7892 49.8954C36.6313 49.8954 36.6313 50.0533 36.4734 50.0533C36.4734 50.0533 36.3155 50.0533 36.3155 49.8954C36.1576 49.7375 36.1576 49.8954 35.9997 49.8954C35.8418 49.8954 35.8419 50.0533 35.684 50.2112C35.5261 50.3691 35.5261 50.527 35.5261 50.6849C35.684 50.527 35.8418 50.527 35.9997 50.3691C36.1576 50.2112 36.1576 50.3691 36.1576 50.527V50.6849C36.1576 51.1586 36.4734 51.3164 36.7892 51.4743V51.0007C36.7892 50.8428 36.7892 50.6849 36.9471 50.6849C37.105 50.6849 37.2629 50.527 37.2629 50.3691C37.4208 50.0533 37.4208 49.7375 37.105 49.2638C37.2629 49.2638 37.2629 49.2638 37.105 49.2638ZM35.2103 45.948H35.0524C35.0524 46.2638 35.2103 46.4217 35.2103 46.5796C35.2103 46.7375 35.3682 46.7375 35.3682 46.8954C35.3682 47.2112 35.3682 47.2112 35.684 47.2112H35.8419C35.9997 47.2112 36.1576 47.3691 36.1576 47.3691L35.9997 47.0533H35.8419C35.684 46.4217 35.684 46.4217 35.9997 45.948C35.9997 45.7901 36.1576 45.6322 36.1576 45.6322C36.1576 45.4743 36.1576 45.1586 35.9997 45.0007H35.684C35.3682 44.8428 35.3682 45.0007 35.3682 45.3164C35.2103 45.4743 35.2103 45.6322 35.2103 45.948ZM31.8945 57.4743C31.5787 57.6322 31.4208 57.4743 31.2629 57.3164C31.105 57.3164 31.105 57.1586 30.9471 57.0007C30.7892 57.0007 30.6313 56.8428 30.4734 56.8428C30.3155 56.8428 30.3155 57.0007 30.1576 57.1586V57.3164C30.1576 57.3164 30.3155 57.3165 30.3155 57.4743H30.4734C30.6313 57.6322 30.9471 57.7901 31.105 57.7901C31.2629 57.6322 31.4208 57.7901 31.5787 57.7901H31.7366C32.2103 57.7901 32.684 57.6322 32.9997 57.3164H32.8418C32.3682 57.6322 32.0524 57.6322 31.8945 57.4743ZM43.2629 27.6322C43.2629 27.4743 43.2629 27.3164 43.4208 27.3164C43.2629 26.3691 43.2629 25.5796 42.7892 24.7901V25.8954C42.7892 26.2112 42.9471 26.527 42.7892 26.8428V29.3691C42.7892 29.3691 42.7892 29.2112 42.9471 29.2112L43.105 29.0533L43.2629 29.2112C43.2629 29.2112 43.2629 29.3691 43.4208 29.3691H43.5787C43.5787 29.2112 43.5787 29.0533 43.4208 29.0533C43.105 28.7375 43.105 28.4217 43.105 28.1059C43.2629 27.948 43.2629 27.7901 43.2629 27.6322Z" fill="#36A83A"/>
<path d="M25.2632 1.73715C25.4211 1.89505 25.4211 1.89505 25.4211 2.05294C25.5789 2.21083 25.8947 2.05294 25.8947 1.89505C26.2105 1.57926 26.2105 1.57926 26.3684 1.57926C26.5263 1.57926 26.6842 1.42136 26.8421 1.42136C26.8421 1.42136 27 1.42136 27 1.26347C26.5263 1.42136 26.3684 1.26347 26.3684 0.789782L25.7368 0.631887C25.8947 0.789782 25.8947 0.947677 25.7368 1.10557L25.5789 1.26347C25.5789 1.42136 25.5789 1.42136 25.7368 1.57926L25.8947 1.73715H25.5789C25.5789 1.57926 25.4211 1.57926 25.2632 1.73715ZM21.3158 50.0529C21.3158 50.3687 21.3158 50.6845 21.6316 50.8424L21.7895 51.0003C22.2632 50.3687 22.1053 49.7371 21.4737 49.1056C21.3158 49.5793 21.3158 49.7371 21.3158 50.0529ZM38.6842 37.2635L38.8421 36.9477V37.895C38.8421 37.895 38.8421 38.0529 39 38.0529C39 38.0529 39 37.895 39.1579 37.895C39.3158 37.7371 39.3158 37.4214 39.4737 37.1056V36.7898C39.3158 36.6319 39.3158 36.474 39.1579 36.474C38.6842 36.7898 38.5263 36.9477 38.6842 37.2635ZM45.9474 7.26347L46.1053 7.10557L45.9474 6.94768C45.6316 6.94768 45.4737 6.78978 45.1579 6.78978C45 6.78978 44.8421 6.78978 44.6842 6.47399L44.3684 6.94768C44.8421 7.10557 45.3158 7.26347 45.7895 7.26347H45.9474ZM35.8421 48.1582C35.6842 48.3161 35.6842 48.474 35.6842 48.7898H36V49.4214C36 49.4214 36 49.5793 36.1579 49.5793C36.1579 49.5793 36.3158 49.5793 36.3158 49.4214C36.4737 49.2635 36.4737 49.1056 36.4737 48.7898V48.6319C36.4737 48.474 36.3158 48.3161 36.3158 48.3161C36.1579 48.3161 36 48.3161 35.8421 48.1582ZM46.1053 56.8424C45.9474 57.0003 45.6316 57.0003 45.4737 57.0003H45.1579C45.3158 57.3161 45.6316 57.474 45.9474 57.474C46.2632 57.3161 46.5789 56.8424 46.5789 56.5266L46.4211 56.6845C46.2632 56.6845 46.2632 56.6845 46.1053 56.8424ZM43.5789 8.52662C43.2632 8.05294 42.7895 7.89505 42.4737 8.52662C42.7895 8.68452 43.1053 8.84241 43.4211 8.68452C43.5789 8.68452 43.5789 8.52662 43.5789 8.52662ZM13.5789 0.631887V0.473993C13.5789 0.473993 13.5789 0.316098 13.4211 0.316098C13.2632 0.316098 12.9474 0.158203 12.7895 0.158203H12.6316C12.7895 0.473993 12.4737 0.473993 12.3158 0.631887C12.6316 0.947677 13.2632 0.947677 13.5789 0.631887ZM2.52632 32.5266C2.68421 32.3687 2.84211 32.3687 3 32.3687H3.15789C3 32.2108 3 32.0529 2.84211 31.895H2.36842C2.36842 32.2108 2.21053 32.3687 2.21053 32.6845C2.36842 32.6845 2.52632 32.6845 2.52632 32.5266ZM10.4211 1.42136C10.5789 1.42136 10.7368 1.10557 10.8947 1.10557C10.8947 1.10557 11.0526 1.10557 11.0526 0.947677H11.3684V0.789782H11.2105C11.0526 0.789782 10.7368 0.947677 10.5789 0.947677C10.4211 0.947677 10.1053 1.10557 9.94737 1.10557V1.26347C10.1053 1.42136 10.2632 1.42136 10.4211 1.42136ZM35.3684 42.9477L35.8421 41.5266C35.8421 41.3687 35.8421 41.2108 35.6842 41.3687C35.5263 41.5266 35.3684 41.8424 35.5263 42.0003C35.6842 42.1582 35.5263 42.3161 35.5263 42.474C35.2105 42.6319 35.2105 42.7898 35.3684 42.9477ZM56.3684 11.0529H56.5263C56.6842 11.0529 56.8421 10.895 57 10.895H57.4737C57.4737 10.895 57.4737 10.7372 57.3158 10.7372C57 10.4214 56.3684 10.5793 56.0526 10.895V11.0529H56.3684ZM31.5789 44.5266C31.7368 44.3687 31.8947 44.2108 31.8947 43.895H31.4211C31.2632 43.895 30.9474 44.3687 31.1053 44.5266C31.1053 44.6845 31.2632 44.6845 31.2632 44.6845C31.4211 44.6845 31.5789 44.6845 31.5789 44.5266ZM36.9474 58.4214C36.7895 58.4214 36.7895 58.5793 36.6316 58.7372C36.4737 58.7372 36.3158 58.895 36.3158 59.2108C36.3158 59.3687 36.4737 59.3687 36.4737 59.3687C36.6316 59.3687 36.6316 59.2108 36.7895 59.0529C36.9474 58.895 36.9474 58.7372 37.1053 58.7372C37.2632 58.5793 37.4211 58.5793 37.5789 58.4214V58.2635C37.4211 58.2635 37.1053 58.4214 36.9474 58.4214ZM13.5789 1.10557C13.4211 1.10557 13.2632 1.26347 13.1053 1.26347L12.9474 1.42136L13.1053 1.57926C13.2632 1.57926 13.5789 1.57926 13.7368 1.42136C13.7368 1.42136 13.8947 1.42136 13.8947 1.26347C13.8947 1.26347 14.0526 1.26347 14.0526 1.10557V0.947677C13.8947 1.10557 13.7368 0.947677 13.5789 1.10557ZM15.3158 0.789782C14.8421 0.158203 14.5263 0.473993 14.2105 0.947677C14.5263 1.10557 15 1.10557 15.3158 0.789782ZM0.473684 23.2108C0.473684 23.3687 0.315789 23.5266 0.315789 23.6845C0 23.5266 0 23.5266 0 23.6845C0.315789 23.6845 0.631579 23.6845 0.947368 23.8424C0.947368 23.8424 1.10526 23.8424 1.10526 23.6845V23.3687C0.947368 23.2108 0.631579 23.2108 0.473684 23.2108Z" fill="#36A83A"/>
<path d="M39.7893 36.474C39.4735 36.474 39.4735 36.7898 39.4735 37.1056C39.4735 37.1056 39.4735 37.2635 39.6314 37.2635L39.7893 37.1056C39.7893 36.9477 39.9472 36.9477 39.9472 36.7898C40.263 36.9477 40.263 36.6319 40.263 36.474V36.1582H39.9472C39.9472 36.3161 39.9472 36.474 39.7893 36.474ZM38.2104 53.8424V53.5266C38.0525 53.5266 38.0525 53.3687 38.0525 53.3687C38.0525 53.3687 38.0525 53.2108 37.8946 53.2108C37.8946 53.2108 37.7367 53.2108 37.7367 53.3687C37.5788 53.6845 37.7367 54.1582 37.8946 54.474C37.8946 54.1582 38.0525 54.1582 38.2104 53.8424ZM36.9472 48.1582C36.7893 48.1582 36.4735 48.0003 36.3156 48.0003V48.1582C36.4735 48.1582 36.6314 48.1582 36.4735 48.3161C36.3156 48.6319 36.6314 48.7898 36.6314 49.1056C36.7893 48.9477 36.7893 48.7898 36.9472 48.6319C37.1051 48.3161 37.1051 48.1582 36.9472 48.1582ZM34.1051 58.2635H33.6314V58.4214L33.7893 58.5793C34.1051 58.5793 34.263 58.4214 34.4209 58.4214V58.2635H34.1051ZM10.263 12.1582C10.1051 12.3161 10.1051 12.474 10.263 12.6319C10.4209 12.7898 10.5788 12.7898 10.5788 12.6319C10.7367 12.6319 10.7367 12.474 10.8946 12.3161C10.7367 12.1582 10.4209 12.0003 10.263 12.1582ZM36.4735 58.2635H36.1577C35.842 58.4214 35.6841 58.4214 35.3683 58.2635C35.2104 58.2635 35.0525 58.2635 34.8946 58.4214C35.5262 58.895 35.9998 58.4214 36.4735 58.2635ZM38.9999 56.0529C38.9999 55.895 38.842 55.7371 38.842 55.7371C38.6841 55.4214 38.3683 55.5793 38.2104 55.5793L38.0525 55.7371L38.2104 55.895C38.3683 55.895 38.6841 55.895 38.842 56.0529H38.9999ZM34.1051 49.895C34.263 49.895 34.263 49.895 34.1051 49.895C34.4209 49.5793 34.7367 49.2635 34.8946 48.9477V48.6319L34.1051 49.895ZM5.21037 35.3687C5.05248 35.5266 4.89458 35.6845 4.57879 35.6845L4.4209 35.8424L4.57879 36.0003H4.89458C4.89458 35.6845 5.05248 35.5266 5.21037 35.3687ZM32.2104 7.73715C32.3683 7.89505 32.6841 7.89505 32.842 7.73715L32.9998 7.57926L32.842 7.42136C32.5262 7.57926 32.3683 7.57926 32.2104 7.73715ZM47.5262 57.0003C47.5262 57.3161 47.6841 57.474 47.842 57.6319H47.9998V57.474C47.842 57.3161 47.6841 57.0003 47.5262 57.0003ZM16.263 0.631887C15.9472 0.316098 15.6314 0.316098 15.4735 0.631887C15.6314 0.789782 15.9472 0.789782 16.263 0.631887ZM34.7367 58.895C34.7367 59.0529 35.2104 59.3687 35.2104 59.3687V59.2108C35.2104 59.0529 34.8946 58.895 34.7367 58.895ZM13.5788 0.316098C13.7367 0.316098 13.8946 0.158203 14.0525 0.158203H12.9472C13.1051 0.316098 13.263 0.316098 13.5788 0.316098ZM35.2104 47.3687C35.2104 47.5266 35.3683 47.6845 35.3683 47.8424H35.5262V47.6845L35.2104 47.3687ZM25.4209 0.316098L25.263 0.158203C25.1051 0.158203 25.1051 0.316098 24.9472 0.316098L25.263 0.631887L25.4209 0.316098ZM37.263 55.7371C37.263 55.895 37.4209 55.895 37.5788 56.0529C37.5788 56.0529 37.7367 56.0529 37.7367 55.895L37.4209 55.5793L37.263 55.7371ZM46.5788 55.895L46.8946 56.5266C46.8946 56.3687 47.0525 56.3687 47.0525 56.2108C46.8946 56.2108 46.7367 56.0529 46.5788 55.895ZM11.9998 1.42136C12.1577 1.26347 11.9998 1.10557 11.9998 1.10557C11.842 1.10557 11.842 1.10557 11.6841 1.26347V1.42136H11.9998ZM48.7893 57.9477C48.7893 58.2635 48.9472 58.4214 49.263 58.4214L48.7893 57.9477ZM49.5788 58.4214C49.5788 58.7372 49.7367 58.895 49.8946 59.0529C49.7367 58.895 49.7367 58.5793 49.5788 58.4214ZM42.4735 7.73715C42.3156 7.73715 42.3156 7.73715 42.3156 7.89505V8.05294H42.6314V7.73715H42.4735ZM49.5788 59.2108L49.263 58.7372C49.263 59.0529 49.263 59.2108 49.5788 59.2108ZM38.6841 60.0003H39.1577V59.8424L38.6841 60.0003ZM21.3156 9.1582V9.00031L21.1577 9.1582V9.3161C21.1577 9.1582 21.1577 9.1582 21.3156 9.1582ZM36.6314 49.1056C36.6314 49.2635 36.4735 49.2635 36.4735 49.4214L36.6314 49.5793V49.1056ZM33.1577 58.2635V58.5793L33.4735 58.4214L33.1577 58.2635Z" fill="#36A83A"/>
</g>
</g>
</g>
<defs>
<clipPath id="clip0_26003_90109">
<rect width="60" height="60" fill="white"/>
</clipPath>
<clipPath id="clip1_26003_90109">
<rect width="60" height="60" fill="white"/>
</clipPath>
<clipPath id="clip2_26003_90109">
<rect width="60" height="60" fill="white"/>
</clipPath>
</defs>
</svg>
