<svg width="60" height="60" viewBox="0 0 60 60" fill="none" xmlns="http://www.w3.org/2000/svg">
<g clip-path="url(#clip0_26003_72914)">
<g clip-path="url(#clip1_26003_72914)">
<g clip-path="url(#clip2_26003_72914)">
<path d="M20.0531 0H20.3689L20.8426 0.947369C21.1584 1.42105 21.9478 1.89474 22.7373 1.73684H24.3163C24.632 1.57895 24.9478 1.42105 25.2636 1.42105C25.5794 1.42105 26.0531 1.26316 26.3689 1.26316V1.42105C26.0531 1.57895 26.211 1.89474 26.211 2.05263C26.3689 2.68421 26.6847 3 27.632 3C27.7899 3 28.1057 3 28.2636 3.15789C28.7373 3.47368 29.5268 3.63158 29.6847 4.26316V4.42105C30.0005 4.73684 30.3163 4.89474 30.7899 5.21053C30.9478 5.21053 31.2636 5.05263 31.2636 5.05263C31.5794 5.52632 31.8952 5.21053 32.211 5.21053C32.5268 5.21053 33.0005 5.36842 33.3163 5.52632C33.7899 5.84211 34.2636 6.31579 34.7373 6.63158C35.0531 6.78947 35.0531 6.94737 34.8952 7.26316C34.7373 7.42105 34.7373 7.89474 35.211 8.05263C35.6847 8.21053 35.6847 8.52632 36.0005 8.84211C36.3162 9 36.3162 9.31579 36.0005 9.47368C35.8426 9.63158 35.6847 9.63158 35.5268 9.78947C35.3689 9.94737 35.211 9.94737 35.211 10.1053L35.5268 10.4211C35.5268 10.2632 35.6847 10.1053 35.6847 9.94737C35.8426 9.63158 36.1584 9.47368 36.4741 9.63158C36.7899 9.78947 37.1057 9.94737 37.4215 10.2632L36.632 11.2105L36.7899 11.3684L37.8952 10.7368C38.6847 11.3684 39.632 11.5263 40.7373 11.6842V12.3158C40.8952 12.3158 41.0531 12.3158 41.211 12.1579H43.5794C44.3689 12 45.1584 12.3158 45.632 12.7895C46.1057 13.2632 46.5794 13.5789 47.0531 13.8947C47.6847 14.2105 48.0005 14.5263 48.3162 15C48.632 15.6316 48.3162 16.4211 48.0005 17.2105C47.8426 17.5263 47.8426 17.8421 47.6847 18C47.6847 18.1579 47.6847 18.3158 47.5268 18.3158C47.0531 18.4737 46.8952 18.7895 46.5794 19.1053C45.9478 19.7368 45.3162 20.2105 45.1584 20.8421V21.4737C45.1584 21.6316 45.3163 21.9474 45.3163 22.1053V24.3158C45.0005 24.7895 44.6847 25.2632 44.5268 25.7368C44.211 26.2105 44.0531 26.8421 44.0531 27.3158C44.0531 27.9474 43.4215 27.9474 43.1057 28.2632C42.3162 28.7368 41.211 28.5789 40.5794 29.2105H40.4215C39.9478 29.5263 39.4741 29.6842 38.8426 30C38.5268 30.1579 38.211 30.4737 37.8952 30.7895C37.8952 30.7895 37.8952 30.9474 37.7373 31.1053C37.4215 31.5789 37.5794 32.2105 37.5794 32.8421C37.5794 33 37.5794 33.1579 37.4215 33.1579C36.7899 33.7895 36.0005 34.2632 35.8426 35.0526C35.6847 35.0526 35.3689 35.2105 35.211 35.2105C35.0531 35.6842 34.8952 36 34.7373 36.4737C34.5794 36.9474 34.4215 37.5789 33.7899 37.8947C33.4741 38.2105 33.1584 38.5263 32.6847 38.6842C32.211 38.8421 31.7373 38.6842 31.2636 39H31.1057C30.632 38.8421 30.1584 38.6842 29.6847 38.6842H29.3689C29.3689 38.8421 29.3689 39 29.5268 39C29.6847 39.1579 29.8426 39.1579 30.1584 39.1579C30.4741 39.3158 30.632 39.3158 30.4741 39.6316C30.3162 39.9474 30.3163 40.2632 30.7899 40.2632C31.1057 40.4211 31.1057 40.5789 30.9478 40.8947L30.0005 41.8421C29.0531 42.4737 27.9478 42.9474 26.5268 42.7895C26.5268 42.9474 26.5268 43.1053 26.6847 43.2632V43.5789C26.6847 43.7368 26.5268 44.0526 26.5268 44.2105C26.5268 44.5263 26.3689 44.6842 26.0531 44.8421C25.7373 44.8421 25.4215 44.8421 25.1057 44.6842C24.9478 44.6842 24.632 44.5263 24.3163 44.3684C24.3163 44.8421 24.4741 45 24.4741 45.3158C24.4741 45.6316 24.632 45.7895 24.9478 45.9474C25.1057 45.9474 25.2636 45.7895 25.5794 45.7895C25.7373 45.9474 25.8952 46.1053 25.7373 46.4211C25.5794 46.5789 25.4215 46.5789 25.1057 46.4211H24.632L24.9478 46.8947C23.8426 47.0526 23.6847 47.3684 23.6847 47.8421C23.6847 48.1579 23.6847 48.4737 23.211 48.6316C22.8952 48.7895 22.5794 48.9474 22.4215 49.1053C21.9478 49.4211 21.7899 49.7368 21.9478 50.2105C22.1057 50.6842 22.4215 50.8421 23.0531 51C23.3689 51 23.3689 51.1579 23.3689 51.3158C23.3689 51.4737 23.211 51.6316 23.0531 51.7895C22.5794 52.4211 21.7899 52.8947 21.632 53.6842L21.4741 53.8421C20.8426 54.4737 20.3689 54.9474 20.6847 55.8947C20.8426 56.2105 21.0005 56.3684 21.1584 56.6842C21.0005 56.6842 20.8426 56.5263 20.6847 56.5263C20.5268 56.5263 20.3689 56.5263 20.211 56.6842L20.5268 57H20.8426C21.1584 57 21.3163 57.3158 21.0005 57.4737L20.8426 57.6316H21.0005C21.1584 57.7895 21.3163 57.9474 21.3163 58.1053C21.4741 58.7368 21.9478 59.0526 22.8952 59.2105C23.211 59.2105 23.3689 59.2105 23.6847 59.3684V59.5263C22.8952 59.6842 22.1057 60.1579 21.1584 59.8421C21.1584 60 21.1584 60.1579 21.3163 60.1579V60L20.5268 59.5263V60H20.3689L19.5794 59.2105L19.4215 59.6842C19.2636 59.3684 19.1057 58.8947 18.3163 59.2105V59.0526L18.7899 58.7368V58.2632C19.1057 58.4211 19.2636 58.5789 19.4215 58.7368V58.1053H19.5794L19.7373 58.7368H19.8952C19.8952 58.4211 19.8952 57.9474 20.3689 57.7895H20.0531C19.8952 57.7895 19.7373 57.6316 19.5794 57.6316C19.7373 57.4737 19.7373 57.3158 19.8952 57.3158C20.0531 57.3158 20.0531 57.1579 20.211 57C19.4215 57.1579 19.2636 57.3158 19.2636 57.7895C19.2636 58.2632 19.1057 58.4211 18.632 58.2632H18.3163V58.7368C18.1584 58.7368 18.0005 58.7368 18.0005 58.5789C17.8426 58.4211 17.8426 58.2632 17.6847 58.1053L17.8426 57.9474C17.8426 57.6316 18.0005 57.4737 18.4741 57.6316C18.7899 57.7895 18.9478 57.4737 18.7899 57.1579L17.211 57.6316L17.0531 57.4737C17.211 57.3158 17.3689 57 17.5268 57C17.8426 56.8421 18.1584 56.8421 18.632 56.8421V56.6842C18.0005 56.3684 17.5268 56.6842 16.8952 57V56.5263L17.6847 56.2105L17.3689 55.7368L17.0531 56.2105C16.8952 56.0526 16.8952 56.0526 16.7373 56.0526C16.7373 55.8947 16.5794 55.8947 16.5794 55.7368L16.8952 55.4211C16.7373 55.4211 16.5794 55.2632 16.4215 55.4211C16.1057 55.4211 15.7899 55.1053 15.9478 54.9474C16.4215 54.6316 16.2636 54 16.5794 53.5263V53.2105H16.4215C16.4215 53.3684 16.4215 53.5263 16.2636 53.6842C16.2636 53.8421 16.1057 53.8421 15.9478 53.8421C15.632 53.6842 15.4741 53.5263 15.7899 53.2105L16.2636 52.7368C16.2636 52.579 16.2636 52.5789 16.4215 52.4211H16.2636L15.9478 52.7368H15.7899C15.7899 52.579 15.7899 52.2632 15.632 52.1053H16.2636L16.4215 51.9474C15.9478 51.7895 16.1057 51.4737 16.4215 51.3158C16.4215 51.3158 16.5794 51.1579 16.5794 51C16.5794 51 16.4215 50.8421 16.2636 50.8421C16.1057 50.8421 15.9478 50.6842 15.7899 50.6842C15.4741 50.5263 15.632 50.5263 15.7899 50.3684V49.7368C16.1057 49.5789 16.2636 49.4211 16.5794 49.2632L16.2636 48.7895L16.4215 48.6316C16.5794 48.7895 16.7373 48.7895 16.7373 48.9474C16.7373 49.1053 16.7373 49.2632 16.5794 49.4211C16.2636 49.7368 16.4215 49.8947 16.8952 50.0526C16.7373 49.7368 16.7373 49.4211 17.211 49.4211V48.4737C17.3689 47.8421 17.3689 47.0526 17.5268 46.4211C17.6847 46.1053 17.5268 45.9474 17.3689 45.6316C16.8952 45.9474 16.8952 46.2632 16.8952 46.5789V47.0526C16.8952 47.3684 16.7373 47.5263 16.2636 47.3684V46.8947C16.4215 46.5789 16.2636 46.2632 16.5794 45.9474C16.7373 45.7895 16.5794 45.3158 16.7373 45C16.7373 44.6842 17.0531 44.2105 17.0531 43.8947V43.2632C16.8952 42.7895 16.8952 42.4737 17.0531 42.1579C17.3689 41.5263 17.5268 41.0526 17.6847 40.4211C17.8426 39.9474 17.8426 39.3158 18.0005 38.8421C18.3163 37.8947 18.4741 36.9474 18.3163 36C18.3163 35.8421 18.4741 35.5263 18.4741 35.3684C18.632 34.8947 18.632 34.5789 18.632 34.1053V33L19.1057 30.3158V29.0526C19.4215 28.1053 19.5794 27.3158 19.4215 26.3684C19.2636 25.8947 19.5794 25.2632 18.9478 24.7895C18.1584 24.1579 17.3689 23.5263 16.2636 23.0526C15.4741 22.7368 15.3163 22.1053 14.8426 21.6316V21.4737C14.6847 21.1579 14.6847 20.8421 14.5268 20.5263C14.211 20.0526 13.8952 19.5789 14.0531 19.1053C14.0531 18.4737 13.7373 18 13.1057 17.8421C13.2636 17.3684 13.1057 17.3684 12.9478 17.2105C12.4741 16.4211 12.3163 15.4737 11.211 15C11.0531 14.8421 10.8952 14.6842 10.8952 14.5263C11.3689 14.2105 10.8952 13.8947 10.7373 13.7368V13.2632C11.211 12.9474 11.211 12.6316 11.8426 12.4737C12.0005 12.4737 12.0005 12.3158 12.0005 12.1579H11.6847C11.5268 11.8421 11.211 11.6842 11.211 11.5263C11.0531 11.3684 11.0531 11.2105 11.0531 11.0526C11.0531 10.8947 11.211 10.7368 11.211 10.5789C11.211 10.4211 11.3689 10.4211 11.3689 10.2632C11.6847 9.78947 11.8426 9.47369 12.0005 9.1579C12.0005 9.1579 12.1584 9 12.3163 9C12.632 9 12.632 8.84211 12.7899 8.52632C12.7899 8.21053 12.9478 7.89474 13.4215 7.73684C13.8952 7.57895 14.211 6.78947 14.0531 6.47368C14.0531 6.15789 13.8952 5.68421 13.8952 5.36842C13.8952 4.89474 13.8952 4.42105 13.5794 3.94737C14.8426 2.52632 16.2636 0.947368 18.4741 0.315789C18.632 0.789474 18.632 1.26316 18.3163 1.73684L18.7899 2.21053H19.1057V1.57895C18.9478 0.947368 18.9478 0.789474 19.5794 0.631579C19.8952 0.473684 20.211 0.315789 20.0531 0ZM28.5794 55.4211L27.7899 56.2105H27.4741V55.8947C27.4741 55.579 27.9478 55.2632 28.5794 55.4211ZM28.4215 56.2105C28.7373 56.0526 28.8952 55.7368 29.211 55.7368C29.3689 55.7368 29.5268 55.7368 29.8426 55.8947C29.6847 56.0526 29.6847 56.2105 29.3689 56.3684C29.211 56.2105 28.8952 56.2105 28.4215 56.2105Z" fill="#36A83A"/>
</g>
</g>
</g>
<defs>
<clipPath id="clip0_26003_72914">
<rect width="60" height="60" fill="white"/>
</clipPath>
<clipPath id="clip1_26003_72914">
<rect width="60" height="60" fill="white"/>
</clipPath>
<clipPath id="clip2_26003_72914">
<rect width="60" height="60" fill="white"/>
</clipPath>
</defs>
</svg>
