<svg width="38" height="26" viewBox="0 0 38 26" fill="none" xmlns="http://www.w3.org/2000/svg">
<g clip-path="url(#clip0_26003_52588)">
<g clip-path="url(#clip1_26003_52588)">
<g clip-path="url(#clip2_26003_52588)">
<path d="M31.368 14.1583L31.4995 14.0267C31.4337 13.8951 31.368 13.8294 31.3022 13.7636L31.1706 13.8294V13.632H30.9732C30.8416 13.6978 30.7101 13.7636 30.5785 13.8951C30.5127 13.8294 30.5785 13.6978 30.7759 13.632C30.9074 13.5662 31.039 13.5662 31.1048 13.5004V13.4346C31.039 13.4346 30.9732 13.3688 30.9074 13.3688C30.7759 13.3688 30.5785 13.4346 30.5127 13.2373H30.4469C30.3153 13.1715 30.1837 13.0399 30.1837 12.9083C30.1837 12.8425 30.1837 12.7767 30.0522 12.7109L29.9864 12.6451C30.0522 12.7109 30.118 12.7109 30.1837 12.6451C30.2495 12.5794 30.3153 12.5136 30.1837 12.4478C30.118 12.4478 30.118 12.382 30.0522 12.382C29.9206 12.2504 29.7232 12.1188 29.7232 11.9215C29.7232 11.8557 29.6574 11.7241 29.5916 11.6583C29.5916 11.5925 29.5259 11.5267 29.5259 11.4609V11.2636C29.4601 11.4609 29.3285 11.7241 29.2627 11.9215C29.1311 11.8557 29.1311 11.8557 29.0653 11.9873C29.0653 12.053 28.868 12.1188 28.8022 12.1188C28.7364 12.053 28.6706 11.9215 28.4732 11.9215V11.8557C28.4732 11.7899 28.4074 11.7241 28.4074 11.7241C28.2759 11.5925 28.2759 11.4609 28.3416 11.3951C28.4074 11.3294 28.4074 11.2636 28.4732 11.1978H28.3416C28.1443 11.2636 28.0127 11.1978 27.8153 11.132C27.7495 11.0662 27.618 11.0004 27.618 10.9346L27.5522 10.8688C27.4206 10.8688 27.3548 10.7373 27.3548 10.6715C27.2232 10.6715 27.0916 10.6057 26.9601 10.6057C26.8943 10.6057 26.8285 10.5399 26.6969 10.5399C26.5653 10.4741 26.4995 10.6057 26.4995 10.6715C26.4337 10.7373 26.4995 10.803 26.5653 10.8688C26.6311 10.9346 26.6311 10.9346 26.6311 11.0004C26.5653 11.0662 26.5653 11.1978 26.6311 11.3294C26.6969 11.3951 26.6969 11.4609 26.6969 11.5267V11.6583C26.5653 11.7899 26.5653 11.7899 26.6969 11.9215V11.9873C26.6969 12.053 26.7627 12.1188 26.7627 12.1846C26.8285 12.3162 26.8285 12.4478 26.8943 12.5794C26.9601 12.7767 26.9601 13.0399 26.7627 13.1715C26.6311 13.303 26.4995 13.5004 26.2364 13.5004C26.2364 13.5662 26.3022 13.632 26.3022 13.6978C26.3022 13.7636 26.368 13.8294 26.368 13.8951C26.4337 14.0267 26.4337 14.1583 26.4337 14.3557V14.4873C26.4337 14.553 26.368 14.553 26.4337 14.6188V14.6846C26.3022 14.553 26.3022 14.553 26.1706 14.8162C26.1048 14.7504 26.039 14.7504 25.9732 14.6846C25.8416 14.553 25.8416 14.4215 25.7101 14.2899C25.6443 14.0267 25.5785 13.9609 25.5785 13.8294V13.303C25.5785 13.2373 25.5127 13.2373 25.4469 13.1715H24.9206C24.789 13.1057 24.7232 13.0399 24.5259 13.0399C24.5259 13.0399 24.4601 13.0399 24.4601 12.9741C24.3943 12.9741 24.3943 12.9083 24.3285 12.9083C24.1969 12.9083 24.0653 12.8425 24.0653 12.7109C23.9995 12.5794 23.9995 12.5136 23.8022 12.5136C23.7364 12.5136 23.6706 12.4478 23.6706 12.4478C23.6048 12.382 23.539 12.382 23.4074 12.4478C23.3416 12.4478 23.2759 12.5136 23.2101 12.5136V12.2504C23.2101 12.1846 23.1443 12.053 23.1443 11.9873C23.1443 11.9215 23.0785 11.8557 22.9469 11.8557C22.7495 11.8557 22.7495 11.7899 22.7495 11.6583C22.7495 11.3951 22.8153 11.132 22.8811 10.803C22.8811 10.6715 23.0127 10.6057 23.1443 10.5399C23.2759 10.4741 23.2759 10.4083 23.3416 10.2767H23.4732C23.6048 10.2767 23.6706 10.2109 23.6706 10.1451C23.6706 10.0136 23.539 10.0794 23.4732 10.0136C23.4074 10.0136 23.3416 10.0136 23.3416 9.94778C23.3416 9.8162 23.2101 9.8162 23.1443 9.8162C23.0785 9.8162 23.0785 9.8162 23.0127 9.75041H23.2101C23.3416 9.8162 23.4732 9.8162 23.6048 9.88199C23.8022 9.94778 23.868 9.88199 23.868 9.75041V9.68462C23.9337 9.68462 23.9995 9.75041 24.0653 9.75041C24.1311 9.75041 24.1969 9.8162 24.2627 9.75041C24.3285 9.61883 24.3943 9.55304 24.5259 9.42146L24.5916 9.35567C24.5259 9.35567 24.5259 9.35567 24.4601 9.28988H24.3285C24.1969 9.28988 23.9995 9.2241 23.9337 9.09252V9.02673H23.9995C24.0653 9.09252 24.1311 9.09252 24.1969 9.15831C24.3285 9.28988 24.4601 9.35567 24.6574 9.15831L24.7232 9.09252C24.789 9.02673 24.789 8.96094 24.7232 8.96094C24.7232 8.96094 24.7232 8.89515 24.6574 8.89515H24.8548C24.9206 9.02673 25.0522 8.96094 25.1837 8.96094C25.2495 8.82936 24.9864 8.82936 25.0522 8.63199L25.3153 8.96094C25.3811 8.89515 25.4469 8.89515 25.4469 8.82936C25.5127 8.76357 25.5785 8.63199 25.7101 8.63199C25.7759 8.63199 25.7759 8.5662 25.7759 8.50041C25.7101 8.36883 25.6443 8.23725 25.5785 8.17146V8.10567H25.6443C25.7101 8.10567 25.7759 8.10567 25.8416 8.03988C25.8416 8.03988 25.8416 7.9741 25.7759 7.90831C25.8416 7.84252 25.8416 7.77673 25.7101 7.77673C25.6443 7.77673 25.5785 7.71094 25.5127 7.64515C25.5127 7.64515 25.5127 7.57936 25.4469 7.57936C25.3153 7.57936 25.1837 7.51357 24.9864 7.51357C24.9206 7.51357 24.8548 7.51357 24.8548 7.57936C24.8548 7.64515 24.789 7.71094 24.9206 7.77673C24.9864 7.84252 24.9864 7.9741 24.9206 7.9741C24.789 8.03989 24.789 8.10567 24.789 8.17146C24.789 8.23725 24.7232 8.30304 24.7232 8.36883H24.6574V8.30304C24.6574 8.23725 24.6574 8.23725 24.5916 8.17146H24.5259V8.30304C24.5259 8.30304 24.5916 8.30304 24.5916 8.36883C24.5916 8.43462 24.6574 8.50041 24.5916 8.5662C24.5916 8.63199 24.4601 8.63199 24.4601 8.69778C24.3943 8.63199 24.3285 8.50041 24.2627 8.43462C24.1969 8.36883 24.1969 8.23725 24.3285 8.17146V8.10567C24.3285 7.9741 24.1969 7.90831 24.1311 7.84252C24.0653 7.84252 24.0653 7.77673 23.9995 7.77673L23.9337 7.84252C23.868 7.9741 23.8022 8.03989 23.8022 8.17146C23.7364 8.10567 23.8022 7.9741 23.7364 7.90831C23.6706 7.77673 23.7364 7.77673 23.8022 7.71094C23.6706 7.44778 23.6048 7.3162 23.4074 7.44778C23.4074 7.38199 23.3416 7.25041 23.539 7.18462C23.6048 7.18462 23.6048 7.11883 23.539 7.05304C23.4074 6.98725 23.4074 6.85567 23.2759 6.85567V6.78988C23.2759 6.59252 23.2101 6.46094 23.0127 6.39515C22.9469 6.39515 22.9469 6.32936 23.0127 6.26357C23.0785 6.19778 23.1443 6.0662 23.2101 6.00041C23.1443 5.93462 23.1443 5.93462 23.1443 5.86883C23.2101 5.86883 23.2759 5.86883 23.3416 5.93462C23.4074 5.93462 23.539 5.93462 23.539 5.86883L23.7364 5.4741C23.8022 5.40831 23.7364 5.34252 23.6048 5.34252H23.3416C23.1443 5.21094 23.0127 5.27673 22.8153 5.27673C22.6837 5.27673 22.6837 5.34252 22.6837 5.4741V5.53989H22.5522V5.80304C22.5522 5.93462 22.618 6.00041 22.618 6.13199C22.618 6.26357 22.6837 6.39515 22.618 6.46094C22.5522 6.59252 22.4864 6.65831 22.5522 6.72409L22.4864 6.65831H22.4206C22.3548 6.7241 22.3548 6.85567 22.4206 6.92146C22.4864 6.98725 22.4864 6.98725 22.4206 7.05304C22.289 7.18462 22.4206 7.38199 22.618 7.38199C22.6837 7.38199 22.7495 7.38199 22.8153 7.44778C22.8811 7.44778 22.9469 7.51357 22.8811 7.57936C22.8811 7.64515 22.8153 7.71094 22.8153 7.77673V7.84252L22.9469 7.64515C23.0785 7.84252 22.8811 8.03988 22.618 8.10567V8.17146C22.618 8.23725 22.618 8.30304 22.6837 8.36883C22.6837 8.43462 22.6837 8.50041 22.5522 8.43462C22.4206 8.36883 22.3548 8.30304 22.4206 8.23725C22.4206 8.17146 22.4864 8.10567 22.4864 8.10567C22.3548 8.10567 22.2232 8.10567 22.1574 7.9741H22.3548C22.4206 7.90831 22.4864 7.90831 22.4864 7.90831C22.5522 7.90831 22.618 7.90831 22.618 7.84252V7.64515H22.3548V7.57936H22.5522C22.5522 7.51357 22.4864 7.44778 22.4206 7.51357C22.289 7.57936 22.2232 7.51357 22.1574 7.44778C22.0259 7.38199 22.0259 7.38199 21.9601 7.51357V7.57936C21.9601 7.64515 21.8943 7.64515 21.8943 7.64515C21.8285 7.64515 21.8285 7.71094 21.7627 7.71094C21.8285 7.71094 21.8943 7.77673 21.8943 7.77673C22.0259 7.77673 22.0916 7.84252 22.0916 7.90831L22.0259 7.9741H21.8943V8.23725C21.6311 8.17146 21.4337 8.23725 21.2364 8.23725C21.1048 8.23725 20.9732 8.23725 20.9074 8.10567L20.8416 8.03988C20.7101 8.03988 20.6443 7.9741 20.5127 7.9741C20.3811 7.9741 20.3811 7.90831 20.3811 7.77673C20.3811 7.71094 20.3153 7.64515 20.2495 7.64515C20.0522 7.71094 19.9206 7.77673 19.7232 7.84252C19.6574 7.84252 19.7232 7.90831 19.6574 7.9741H19.789C19.9206 7.90831 20.0522 7.84252 20.1837 7.84252H20.2495C20.1837 7.9741 20.0522 7.97409 19.9206 8.03988C19.789 8.03988 19.789 8.10567 19.789 8.23725C19.8548 8.36883 19.8548 8.43462 19.9206 8.50041L19.789 8.63199C19.7232 8.63199 19.6574 8.63199 19.7232 8.50041C19.7232 8.43462 19.7232 8.36883 19.6574 8.30304C19.5259 8.23725 19.3943 8.17146 19.3285 8.10567H19.2627C19.0653 8.10567 18.9337 8.17146 18.7364 8.17146H18.2759C18.1443 8.17146 18.1443 8.10567 18.2101 8.03988C18.2759 7.97409 18.3416 7.9741 18.4732 7.90831C18.4732 7.77673 18.2101 7.57936 18.0785 7.64515H17.8153C17.6837 7.57936 17.5522 7.51357 17.4206 7.51357C17.2232 7.44778 17.0259 7.44778 16.8943 7.3162C16.7627 7.18462 16.4995 7.25041 16.4337 7.38199C16.368 7.51357 16.3022 7.51357 16.1706 7.51357V7.18462H16.1048C16.1048 7.25041 16.039 7.25041 16.039 7.3162C15.9732 7.38199 15.9732 7.44778 15.9074 7.51357L15.8416 7.57936C15.7759 7.57936 15.7759 7.57936 15.7101 7.51357C15.7101 7.44778 15.7101 7.38199 15.6443 7.3162C15.5785 7.18462 15.5127 7.05304 15.3153 6.98725L15.3811 7.18462C15.3153 7.3162 15.2495 7.38199 15.1837 7.44778C15.0522 7.38199 14.9864 7.38199 14.9206 7.44778C14.8548 7.51357 14.8548 7.57936 14.7232 7.51357H14.6574C14.5259 7.57936 14.4601 7.64515 14.3943 7.71094C14.3943 7.77673 14.3285 7.84252 14.1969 7.77673C14.1969 7.77673 14.1969 7.71094 14.2627 7.71094C14.4601 7.57936 14.5916 7.38199 14.8548 7.3162C14.9206 7.3162 14.9864 7.25041 15.0522 7.18462V7.11883L14.4601 7.3162C14.3943 7.3162 14.3285 7.38199 14.3285 7.38199C14.2627 7.38199 14.1969 7.44778 14.1311 7.38199C14.0653 7.3162 13.9337 7.38199 13.8022 7.44778C13.6706 7.51357 13.6706 7.57936 13.7364 7.64515C13.7364 7.71094 13.8022 7.71094 13.8022 7.77673C13.6706 7.71094 13.539 7.71094 13.4074 7.71094C13.2101 7.71094 13.0785 7.57936 12.9469 7.44778H12.7495C12.5522 7.44778 12.289 7.44778 12.0916 7.3162C12.0259 7.25041 11.9601 7.25041 11.8285 7.3162C11.8285 7.44778 11.6969 7.44778 11.5653 7.44778C11.4995 7.44778 11.4337 7.38199 11.368 7.38199L11.2364 7.51357C11.1706 7.57936 10.9074 7.64515 10.8416 7.51357C10.7759 7.38199 10.6443 7.3162 10.4469 7.3162C10.3811 7.3162 10.2495 7.25041 10.1837 7.25041C10.118 7.25041 10.118 7.18462 10.0522 7.11883C9.98638 7.05304 9.92059 7.05304 9.92059 6.98725C9.92059 6.98725 9.8548 6.92146 9.78901 6.92146H9.32848C9.06533 6.92146 8.86796 7.05304 8.67059 7.18462C8.6048 7.25041 8.47322 7.3162 8.40743 7.3162C8.27585 7.3162 8.21006 7.38199 8.07848 7.38199C7.74954 7.51357 7.42059 7.64515 7.15743 7.84252C7.09164 7.90831 7.02585 7.90831 6.96006 7.90831C6.89427 7.90831 6.82848 7.9741 6.7627 7.9741C6.89427 8.10567 6.96006 8.17146 7.09164 8.10567H7.22322C7.28901 8.17146 7.42059 8.23725 7.48638 8.30304C7.55217 8.30304 7.55217 8.36883 7.61796 8.36883C7.74954 8.43462 7.88112 8.50041 7.88112 8.69778C7.88112 8.76357 7.94691 8.82936 8.0127 8.82936H8.14427C8.14427 8.82936 8.14427 8.89515 8.07848 8.89515C7.94691 8.89515 7.88112 8.89515 7.81533 9.02673H7.74954C7.61796 9.02673 7.48638 8.96094 7.3548 8.96094V8.82936C7.28901 8.82936 7.22322 8.69778 7.09164 8.82936L6.89427 9.02673C6.82848 9.02673 6.63112 9.09252 6.49954 9.15831C6.43375 9.2241 6.43375 9.2241 6.49954 9.28988C6.56533 9.35567 6.69691 9.35567 6.7627 9.42146C6.69691 9.48725 6.69691 9.55304 6.7627 9.55304L6.82848 9.61883C6.89427 9.61883 6.96006 9.68462 7.02585 9.68462H7.42059C7.48638 9.68462 7.55217 9.68462 7.61796 9.61883C7.68375 9.55304 7.74954 9.48725 7.81533 9.48725H7.94691V9.55304C7.81533 9.61883 7.88112 9.75041 7.94691 9.8162C8.0127 10.0136 7.88112 10.0794 7.68375 10.0136C7.61796 10.0136 7.61796 10.0136 7.55217 10.0794C7.55217 10.1451 7.48638 10.2109 7.48638 10.2767L7.15743 10.1451C7.22322 10.3425 7.22322 10.4741 7.02585 10.5399V10.6057C6.96006 10.6715 6.96006 10.803 6.89427 10.8688C7.02585 10.9346 7.09164 11.0004 6.96006 11.132L7.22322 11.3951C7.22322 11.3951 7.28901 11.3951 7.3548 11.4609C7.42059 11.4609 7.48638 11.5267 7.55217 11.5267C7.61796 11.5925 7.68375 11.5925 7.68375 11.5267C7.68375 11.5267 7.68375 11.4609 7.74954 11.4609C7.94691 11.5925 7.74954 11.7899 7.88112 11.9873C7.94691 11.9215 8.0127 11.9215 8.14427 11.8557C8.21006 11.8557 8.27585 11.7899 8.34164 11.7899H8.47322C8.6048 11.7241 8.73638 11.7241 8.80217 11.8557C8.80217 11.8557 8.80217 11.9215 8.86796 11.9215H8.99954C8.93375 12.053 8.86796 12.1188 8.86796 12.1846C8.86796 12.382 8.73638 12.5136 8.6048 12.6451H8.53901C8.34164 12.7109 8.27585 12.8425 8.21006 12.9083C8.14427 12.9741 8.14427 12.9741 8.07848 12.9741H7.88112C7.81533 13.0399 7.74954 13.1715 7.68375 13.2373H7.74954C7.81533 13.2373 7.88112 13.1715 7.88112 13.1715L8.0127 13.0399C8.07848 13.1057 8.07848 13.1057 8.21006 13.0399C8.27585 13.0399 8.27585 12.9741 8.34164 12.9741C8.53901 12.9741 8.73638 12.9083 8.80217 12.7109C8.80217 12.7109 8.80217 12.6451 8.86796 12.6451C8.99954 12.5794 9.06533 12.5136 9.19691 12.4478L9.2627 12.382L9.39427 12.2504C9.46006 12.2504 9.46006 12.1846 9.52585 12.1846C9.59164 12.053 9.8548 12.053 9.8548 11.8557C9.98638 11.7899 9.98638 11.7241 9.8548 11.6583C9.8548 11.6583 9.78901 11.6583 9.78901 11.5925C9.8548 11.5267 9.98638 11.4609 10.0522 11.3951C10.118 11.3951 10.118 11.3294 10.1837 11.2636C10.1837 11.2636 10.1837 11.1978 10.2495 11.132C10.3811 11.0004 10.5127 10.8688 10.6443 10.6715L10.9074 10.803H10.8416C10.6443 10.7373 10.5785 10.803 10.5785 10.9346C10.5785 11.0004 10.5127 11.0662 10.5127 11.132C10.4469 11.1978 10.4469 11.2636 10.6443 11.3294L10.4469 11.4609C10.5785 11.5267 10.6443 11.5267 10.7759 11.3951C10.9074 11.2636 11.039 11.132 11.3022 11.1978V11.0004C11.1706 10.8688 11.2364 10.803 11.368 10.7373L11.6311 10.8688H11.7627C11.5653 10.9346 11.5653 10.9346 11.6311 11.0662H11.6969C11.7627 11.0004 11.8285 10.9346 11.8943 11.0662H11.9601C12.0259 11.0662 12.0916 11.0004 12.1574 10.9346C12.2232 10.8688 12.4206 10.8688 12.4864 10.9346V11.0004L12.5522 11.0662C12.289 11.3951 12.4206 11.3951 12.4864 11.5267C12.618 11.6583 12.618 11.6583 12.7495 11.5267C12.7495 11.5267 12.8153 11.4609 12.8153 11.5267L12.8811 11.5925C12.8811 11.5925 12.8811 11.6583 12.8153 11.6583C12.7495 11.7241 12.7495 11.7241 12.8811 11.7899C13.1443 11.8557 13.3416 11.9873 13.4732 12.1846H13.539V12.053L13.8022 12.1846C13.8022 12.053 13.7364 11.9873 13.7364 11.8557C13.868 11.9873 13.868 12.1188 13.868 12.2504L13.8022 12.3162C13.8022 12.3162 13.7364 12.3162 13.7364 12.2504V12.1846C13.6048 12.2504 13.539 12.3162 13.6706 12.4478C13.8022 12.5794 13.8022 12.7109 13.9337 12.7767C13.9337 12.7767 13.9337 12.8425 13.9995 12.8425C14.1311 12.7109 13.9337 12.5794 13.9995 12.4478H14.0653V12.6451C14.2627 12.5794 14.1969 12.4478 14.1969 12.3162C14.3285 12.4478 14.3285 12.6451 14.1969 12.7109C14.0653 12.7767 14.0653 12.9083 14.1311 12.9741L14.3285 12.8425C14.4601 13.0399 14.4601 13.0399 14.5916 13.0399C14.5259 12.9741 14.4601 12.9741 14.4601 12.9083V12.8425H14.5259C14.6574 12.9741 14.7232 13.0399 14.4601 13.2373C14.4601 13.1715 14.3943 13.1057 14.3943 13.0399L14.3285 13.1057V13.1715C14.3943 13.303 14.3943 13.3688 14.3285 13.5004C14.3285 13.5004 14.3943 13.5662 14.3943 13.632C14.3943 13.5662 14.4601 13.5004 14.4601 13.5004L14.5916 13.5662C14.5916 13.5004 14.5916 13.4346 14.6574 13.3688L14.789 13.4346L14.8548 13.3688C14.9206 13.3688 14.9206 13.4346 14.9864 13.4346C15.0522 13.5004 15.0522 13.5662 15.1837 13.632C15.2495 13.632 15.2495 13.7636 15.3153 13.8294C15.3811 13.8951 15.3811 14.0267 15.4469 14.0925L15.6443 14.2899C15.5785 14.3557 15.5127 14.4215 15.5785 14.4873V14.553C15.5785 14.6846 15.6443 14.6846 15.7759 14.6846C15.9074 14.6846 15.9732 14.7504 15.9732 14.882C15.8416 14.882 15.7101 14.8162 15.6443 14.7504C15.5785 14.6846 15.5127 14.6846 15.4469 14.7504C15.5785 14.8162 15.6443 14.9478 15.7759 15.0136C15.8416 15.0794 15.9074 15.1451 15.9732 15.1451C16.1706 15.2109 16.2364 15.3425 16.3022 15.4741C16.368 15.6715 16.4337 15.9346 16.4995 16.1978L16.4337 16.2636C16.4337 16.4609 16.368 16.7241 16.4337 16.9215V17.1188C16.4337 17.2504 16.4337 17.382 16.368 17.5136C16.368 17.7109 16.3022 17.8425 16.368 18.0399C16.368 18.2373 16.4337 18.4346 16.4995 18.5662C16.5653 18.6978 16.6311 18.7636 16.6969 18.8951C16.7627 18.9609 16.8285 19.0925 16.8943 19.1583C17.0259 19.2241 17.0916 19.3557 17.0259 19.4873V19.553C17.0916 19.7504 17.289 19.882 17.4864 19.9478C17.5522 19.9478 17.6837 20.0136 17.6837 20.0794C17.7495 20.1451 17.7495 20.2109 17.8153 20.2767C17.8811 20.3425 17.8811 20.4741 17.9469 20.5399C18.0127 20.6715 18.0785 20.8688 18.1443 21.0004C18.2101 21.0662 18.2759 21.1978 18.3416 21.2636C18.4732 21.3951 18.539 21.5267 18.539 21.7241H18.3416C18.4732 21.7899 18.6048 21.9215 18.7364 21.9873C18.868 22.1188 18.9995 22.1846 18.9337 22.382V22.4478C19.0653 22.6451 19.2627 22.8425 19.4601 23.0399L19.5259 22.9741C19.5916 22.8425 19.5259 22.7767 19.4601 22.7109C19.4601 22.7109 19.3943 22.6451 19.3285 22.6451L19.2627 22.5794C19.2627 22.5136 19.1969 22.4478 19.1969 22.3162C19.1311 22.1188 18.9995 21.8557 18.868 21.6583C18.8022 21.5267 18.6048 21.3951 18.6706 21.1978C18.6706 21.1978 18.6706 21.132 18.6048 21.132C18.4074 21.0662 18.3416 20.9346 18.3416 20.803C18.3416 20.6715 18.2759 20.6057 18.2759 20.4741C18.3416 20.4741 18.4074 20.5399 18.4732 20.5399C18.539 20.5399 18.6048 20.6057 18.6706 20.6715C18.7364 20.8688 18.7364 21.132 18.8022 21.3294C18.868 21.2636 18.9337 21.3294 18.9995 21.3951C19.0653 21.5267 19.2627 21.5925 19.2627 21.7241L19.3285 21.7899C19.3943 21.8557 19.4601 21.9215 19.4601 21.9873C19.3943 22.1188 19.5259 22.2504 19.6574 22.3162C19.6574 22.3162 19.7232 22.3162 19.7232 22.382C20.0522 22.7767 20.3153 23.1057 20.5127 23.5662V23.8951C20.7101 23.8951 20.7759 24.0267 20.9074 24.1583C20.9732 24.2899 21.1048 24.3557 21.2364 24.4215C21.3022 24.4873 21.368 24.4873 21.4995 24.553C21.5653 24.6188 21.6311 24.6188 21.7627 24.6188C21.9601 24.6188 22.0916 24.7504 22.2232 24.8162C22.3548 24.9478 22.4206 24.9478 22.618 24.882C22.6837 24.882 22.7495 24.8162 22.8153 24.882C22.9469 24.9478 23.0785 25.0136 23.1443 25.0794C23.2101 25.0794 23.2101 25.1451 23.2759 25.2109C23.3416 25.0136 23.4074 24.882 23.6706 24.9478C23.6706 24.9478 23.7364 24.882 23.7364 24.8162C23.7364 24.8162 23.7364 24.7504 23.6706 24.7504C23.539 24.6846 23.6048 24.553 23.6706 24.4873H23.9995C24.0653 24.4873 24.0653 24.4873 24.1311 24.4215C24.1969 24.3557 24.2627 24.2899 24.3943 24.3557V23.8294C24.3943 23.7636 24.4601 23.6978 24.5259 23.632L24.6574 23.5004C24.6574 23.5004 24.6574 23.4346 24.5916 23.4346H24.3943C24.2627 23.4346 24.1969 23.4346 24.0653 23.5004C23.9995 23.5662 23.868 23.632 23.8022 23.6978C23.868 23.8294 23.868 23.9609 23.7364 24.0925C23.6706 24.1583 23.6048 24.2241 23.539 24.2241C23.4732 24.2241 23.4074 24.1583 23.4074 24.2241C23.3416 24.2899 23.2101 24.2241 23.1443 24.2899C22.9469 24.3557 22.8153 24.3557 22.6837 24.2241L22.5522 24.0925C22.4864 24.0267 22.4864 23.9609 22.4864 23.8951C22.4206 23.7636 22.289 23.5662 22.2232 23.4346C22.1574 23.1057 22.1574 22.7767 22.2232 22.4478V21.9215C22.2232 21.7899 22.289 21.6583 22.4206 21.5267C22.4864 21.4609 22.5522 21.3294 22.618 21.2636C22.7495 21.1978 22.8153 21.132 22.8811 21.0662C22.9469 21.0004 23.0127 20.9346 23.1443 20.9346C23.3416 20.9346 23.4732 21.0004 23.6048 21.1978C23.6706 21.3294 23.868 21.3294 23.9337 21.1978L23.9995 21.2636C23.9995 21.2636 24.0653 21.2636 24.0653 21.1978V21.132C23.9995 20.9346 24.0653 20.8688 24.1969 20.8688H24.3943C24.3943 20.8688 24.3943 20.9346 24.4601 20.9346C24.5259 20.9346 24.5916 20.9346 24.6574 20.8688C24.789 20.803 24.8548 20.8688 24.9206 20.9346L24.9864 21.0004C24.9864 21.0662 25.0522 21.0662 25.118 21.0004L25.1837 20.9346C25.3153 20.8688 25.3153 20.8688 25.3811 20.9346C25.4469 21.0004 25.4469 21.0662 25.5127 21.0662C25.5127 21.132 25.5785 21.1978 25.5785 21.2636C25.5785 21.3951 25.5785 21.5267 25.6443 21.5925C25.7101 21.7899 25.8416 21.9215 25.9074 22.1188C25.9074 22.1846 25.9732 22.1846 26.039 22.1846H26.1048V21.5267C26.1048 21.4609 26.039 21.3294 26.039 21.2636C26.039 21.1978 25.9732 21.132 25.9732 21.0662C25.8416 20.7373 25.7759 20.4083 26.1048 20.1451C26.2364 20.0136 26.4337 19.9478 26.4995 19.8162C26.4995 19.7504 26.5653 19.7504 26.5653 19.6846C26.5653 19.6188 26.6311 19.4873 26.6969 19.4873C26.8285 19.4215 26.8943 19.3557 26.9601 19.2899C27.0259 19.4215 27.1574 19.2899 27.2232 19.1583C27.1574 19.1583 27.0259 19.0925 27.1574 19.0267C27.1574 19.0267 27.1574 18.9609 27.0916 18.8951C27.0916 18.8951 27.0259 18.8294 26.9601 18.8294C27.0916 18.6978 26.9601 18.5662 26.8285 18.5004C26.9601 18.4346 26.9601 18.4346 26.9601 18.303V18.1057C26.9601 18.1057 26.9601 18.0399 27.0259 18.0399C27.0259 18.303 27.0259 18.3688 27.1574 18.5004L27.2232 18.1715C27.289 18.1715 27.289 18.1715 27.3548 18.1057C27.4206 18.0399 27.4864 17.9741 27.4864 17.9083C27.5522 17.7109 27.618 17.6451 27.8811 17.6451C27.9469 17.6451 28.0127 17.5794 28.0127 17.5794V17.5136L27.6837 17.5794C27.7495 17.4478 27.8153 17.4478 27.9469 17.4478C28.0127 17.4478 28.0785 17.382 28.1443 17.382L28.2759 17.4478V16.9215C28.2759 16.8557 28.3416 16.7899 28.4074 16.7241C28.539 16.6583 28.6706 16.6583 28.7364 16.5267H28.8022C28.9338 16.6583 28.9995 16.5267 29.1311 16.4609C29.1969 16.3951 29.2627 16.3294 29.3943 16.3294C29.5259 16.2636 29.5916 16.1978 29.6574 16.132L29.7232 16.0662L29.6574 16.1978L29.8548 16.2636L29.789 16.3294C29.5916 16.3294 29.4601 16.4609 29.3943 16.5925C29.3285 16.6583 29.3285 16.7899 29.4601 16.8557C29.5259 16.9215 29.5916 16.8557 29.6574 16.7899C29.789 16.6583 29.8548 16.5267 30.0522 16.5267L30.118 16.4609C30.1838 16.3951 30.2495 16.3294 30.3153 16.3294C30.4469 16.3294 30.5127 16.1978 30.5785 16.132C30.6443 16.132 30.6443 16.0662 30.6443 16.0662C30.6443 16.0004 30.5785 15.9346 30.5785 15.803C30.5127 15.9346 30.3811 16.0004 30.3811 16.0662C30.3811 16.132 30.3153 16.132 30.2495 16.1978C30.118 16.1978 29.9206 16.2636 29.8548 16.0662L29.789 16.0004L29.6574 15.8688C29.5259 15.7373 29.5259 15.6057 29.5916 15.4741L29.4601 15.5399C29.4601 15.4741 29.5259 15.4741 29.5259 15.4083V15.2109C29.5259 15.1451 29.3943 15.0794 29.3285 15.0794C29.1969 15.1451 28.9995 15.2109 28.868 15.2767C28.7364 15.3425 28.6048 15.5399 28.539 15.6057C28.2101 15.9346 28.2101 16.0004 28.0785 16.0662L28.2759 15.6715L28.4074 15.5399C28.539 15.4083 28.539 15.2767 28.7364 15.2767L28.8022 15.2109C28.868 15.0794 28.9338 15.0136 29.1311 14.9478C29.4601 14.9478 29.8548 14.882 30.1837 14.9478C30.4469 14.9478 30.5785 14.882 30.7101 14.6846C30.7759 14.553 30.8416 14.553 30.9732 14.553C31.039 14.553 31.1048 14.553 31.1706 14.4873L31.368 14.2899V14.1583ZM23.868 1.0662L23.7364 1.19778H23.9337C23.9337 1.19778 23.9337 1.26357 23.868 1.26357C23.8022 1.39515 23.8022 1.39515 23.9337 1.46094C23.9337 1.46094 23.9995 1.46094 23.9995 1.52673C24.1311 1.65831 24.3285 1.7241 24.5259 1.59252C24.5916 1.59252 24.5916 1.52673 24.6574 1.52673V1.65831C24.6574 1.65831 24.6574 1.7241 24.7232 1.7241C24.8548 1.7241 24.9864 1.78988 25.1837 1.78988C25.2495 1.78988 25.2495 1.78988 25.3153 1.7241C25.3811 1.65831 25.4469 1.65831 25.5127 1.65831C25.7759 1.7241 26.1706 1.59252 26.3022 1.39515C26.368 1.52673 26.368 1.65831 26.1706 1.65831C25.9732 1.7241 25.7759 1.7241 25.6443 1.78988C25.5785 1.78988 25.5785 1.85567 25.5127 1.85567C25.5127 1.92146 25.5785 1.92146 25.5785 1.98725C25.6443 2.05304 25.7759 2.11883 25.8416 2.18462C25.7101 2.18462 25.5127 2.18462 25.5127 2.05304C25.3153 1.85567 25.118 1.78988 24.8548 1.78988C24.7232 1.78988 24.6574 1.85567 24.6574 1.92146C24.6574 2.05304 24.7232 2.18462 24.8548 2.18462C24.9206 2.18462 25.0522 2.25041 25.0522 2.3162C25.1837 2.51357 25.3153 2.64515 25.5127 2.71094L25.5785 2.77673H25.3811C25.2495 2.77673 25.1837 2.71094 25.0522 2.64515C24.8548 2.57936 24.5916 2.64515 24.4601 2.77673C24.3943 2.84252 24.3943 2.90831 24.3943 2.9741C24.3943 2.9741 24.5259 3.03989 24.5916 3.03989C24.6574 3.03989 24.7232 2.9741 24.8548 2.9741C24.9206 2.9741 24.9864 2.90831 24.9864 2.90831C24.9864 2.9741 24.9206 3.03989 24.9206 3.03989C24.8548 3.10567 24.8548 3.17146 24.9206 3.23725C24.9864 3.30304 25.0522 3.30304 25.118 3.36883V3.50041C25.118 3.50041 25.0522 3.5662 24.9864 3.50041C24.9206 3.63199 24.8548 3.5662 24.789 3.50041C24.7232 3.36883 24.5916 3.30304 24.3943 3.30304C24.3285 3.30304 24.2627 3.30304 24.2627 3.43462C24.2627 3.50041 24.3943 3.50041 24.3943 3.5662C24.4601 3.63199 24.4601 3.63199 24.5259 3.63199C24.4601 3.63199 24.3943 3.69778 24.3943 3.69778C24.2627 3.76357 24.1311 3.76357 23.9995 3.82936C23.9337 3.82936 23.9337 3.89515 23.9337 3.96094C23.9337 4.02673 23.9995 4.02673 24.0653 4.02673H24.4601C24.5916 4.02673 24.6574 4.02673 24.789 4.09252C24.9206 4.15831 24.9864 4.15831 25.118 4.09252L25.1837 4.02673H25.7759C25.7759 4.02673 25.8416 4.02673 25.8416 4.09252C25.9732 4.2241 26.1048 4.2241 26.2364 4.09252C26.3022 4.02673 26.368 4.02673 26.4337 4.02673C26.4995 4.02673 26.5653 3.96094 26.5653 3.89515C26.5653 3.82936 26.5653 3.76357 26.4995 3.69778C26.4337 3.69778 26.368 3.76357 26.3022 3.76357H26.2364C26.1706 3.63199 26.039 3.63199 25.9074 3.63199H25.7101C25.6443 3.63199 25.6443 3.5662 25.5785 3.5662C25.5785 3.50041 25.6443 3.50041 25.7101 3.50041H26.2364C26.4337 3.50041 26.4337 3.43462 26.368 3.30304C26.368 3.23725 26.368 3.17146 26.4995 3.17146H26.7627C26.8285 3.17146 26.8943 3.17146 26.8943 3.10567C26.9601 2.9741 27.0259 2.90831 27.0259 2.77673C27.0916 2.71094 27.0916 2.64515 27.1574 2.51357C27.0259 2.38199 26.7627 2.51357 26.5653 2.44778C26.5653 2.44778 26.6311 2.44778 26.6311 2.38199C26.8285 2.3162 26.9601 2.25041 27.1574 2.3162C27.3548 2.3162 27.3548 2.3162 27.3548 2.18462H27.618C27.8811 2.25041 27.8811 2.25041 28.0127 1.98725C28.0785 1.92146 28.0785 1.85567 28.2101 1.85567C28.3416 1.85567 28.4074 1.78988 28.539 1.7241C28.8022 1.59252 29.0653 1.39515 29.3943 1.32936H29.4601C29.4601 1.32936 29.5259 1.26357 29.5259 1.19778C29.4601 1.19778 29.4601 1.13199 29.3943 1.13199H28.8022C28.9338 1.00041 29.1311 1.00041 29.2627 1.00041C29.5916 1.0662 29.789 0.868832 30.0522 0.737253C30.118 0.737253 30.118 0.671464 30.1837 0.671464V0.605674L30.118 0.539885H29.9864C29.8548 0.539885 29.7232 0.539885 29.6574 0.408306L29.5916 0.342516C29.4601 0.342516 29.3285 0.276727 29.1969 0.276727C29.0653 0.342516 28.9338 0.342516 28.8022 0.408306C28.8022 0.342516 28.868 0.342516 28.868 0.276727C28.868 0.276727 28.8022 0.276727 28.8022 0.210938H28.7364C28.6048 0.210938 28.6048 0.276727 28.539 0.276727C28.539 0.342516 28.4074 0.342516 28.4074 0.342516C28.2759 0.342516 28.1443 0.276727 28.0127 0.276727C27.8811 0.342516 27.7495 0.342516 27.618 0.342516H27.1574C27.0916 0.342516 27.0259 0.342516 26.9601 0.276727C26.8943 0.210938 26.8285 0.210938 26.8285 0.276727C26.7627 0.408306 26.6311 0.342516 26.5653 0.276727C26.368 0.210938 26.2364 0.210938 26.1048 0.276727C26.1706 0.408306 26.1048 0.408306 25.9732 0.408306C25.8416 0.408306 25.8416 0.408306 25.8416 0.539885V0.605674H25.5127C25.4469 0.803043 25.3811 0.803043 25.1837 0.737253H25.118C25.0522 0.671464 24.9206 0.671464 24.789 0.671464V0.803043L24.5916 0.868832C24.5916 0.934622 24.5916 1.00041 24.5259 1.00041C24.4601 1.0662 24.3943 1.00041 24.3285 1.00041C24.2627 0.934622 24.1311 0.868832 24.0653 0.934622L23.868 1.13199C23.6706 1.0662 23.4074 1.0662 23.4074 1.26357C23.7364 1.00041 23.7364 1.00041 23.868 1.0662Z" fill="#36A83A"/>
<path d="M29.0663 8.89576C29.1978 8.96155 29.3294 9.02734 29.3952 9.15892C29.461 9.22471 29.461 9.2905 29.5268 9.35629C29.5268 9.35629 29.5926 9.42208 29.5926 9.35629C29.6584 9.2905 29.7242 9.2905 29.7899 9.22471C29.7899 9.15892 29.8557 9.09313 29.9873 9.02734C30.0531 8.96155 30.1847 8.89576 30.1189 8.82998C30.1189 8.76419 30.1189 8.63261 29.9215 8.56682C29.8557 8.56682 29.8557 8.50103 29.8557 8.43524C29.8557 8.30366 29.7242 8.17208 29.5268 8.17208C29.3952 8.17208 29.2636 8.10629 29.1321 8.0405C29.0663 8.0405 29.0663 8.0405 29.0005 7.97471C28.9347 7.90892 28.8031 7.90892 28.7373 7.84313C28.6715 7.77734 28.6715 7.71155 28.6715 7.64576H28.8689C28.9347 7.64576 28.9347 7.57998 29.0005 7.57998L28.9347 7.51419H28.8031C28.8031 7.51419 28.7373 7.51419 28.7373 7.4484C28.7373 7.4484 28.7373 7.38261 28.8031 7.38261C28.9347 7.31682 28.9347 7.25103 28.8689 7.18524C28.8031 7.11945 28.7373 7.05366 28.6715 7.18524H28.6057C28.6057 7.11945 28.6057 7.05366 28.6715 7.05366C28.7373 6.92208 28.6715 6.92208 28.5399 6.85629H28.3426C28.2768 6.85629 28.211 6.85629 28.211 6.7905V6.72471C28.0794 6.65892 28.0136 6.92208 27.8163 6.7905C27.8821 6.72471 27.9478 6.72471 28.0136 6.65892C28.0794 6.59313 28.0794 6.52734 28.0794 6.52734L27.9478 6.46155C27.8821 6.46155 27.8163 6.52734 27.6847 6.52734V6.59313C27.6189 6.52734 27.5531 6.46155 27.5531 6.39576C27.5531 6.32998 27.4873 6.26419 27.4215 6.26419C27.3557 6.26419 27.2899 6.1984 27.2899 6.13261C27.2899 6.06682 27.2242 6.00103 27.1584 6.00103C27.0268 5.93524 26.961 5.93524 26.8294 5.93524H26.7636C26.6321 6.00103 26.5663 6.06682 26.5663 6.1984H26.5005L26.2373 6.06682L25.9084 6.26419V6.13261C25.9742 5.93524 25.9084 5.73787 25.7768 5.5405C25.711 5.47471 25.5794 5.40892 25.4478 5.47471C25.3163 5.5405 25.2505 5.60629 25.1189 5.60629C24.7899 5.73787 24.7899 5.86945 24.9215 6.13261V6.26419C24.7899 6.39576 24.7899 6.39576 24.9873 6.46155C25.0531 6.52734 25.1189 6.52734 25.0531 6.59313C24.8557 6.59313 24.7242 6.46155 24.6584 6.32998C24.6584 6.1984 24.5926 6.13261 24.5926 6.00103V5.86945C24.6584 5.73787 24.7899 5.67208 24.8557 5.5405L24.9215 5.47471C24.9215 5.47471 24.8557 5.40892 24.7899 5.40892C24.6584 5.40892 24.5268 5.47471 24.461 5.47471C23.8689 5.60629 23.7373 6.1984 23.8689 6.52734C23.8689 6.59313 23.9347 6.65892 24.0005 6.65892C24.1321 6.65892 24.1978 6.65892 24.2636 6.72471C24.3294 6.72471 24.3294 6.7905 24.3952 6.7905C24.3294 6.7905 24.2636 6.85629 24.2636 6.85629C24.1978 6.85629 24.1321 6.85629 24.0663 6.7905C24.0005 6.7905 24.0005 6.7905 24.0005 6.85629V6.92208C24.1321 7.05366 24.2636 7.11945 24.461 7.11945C24.5268 7.11945 24.5926 7.11945 24.5926 7.18524C24.6584 7.31682 24.7242 7.31682 24.8557 7.31682C25.1189 7.31682 25.3163 7.31682 25.5136 7.4484H25.6452C25.7768 7.38261 25.9084 7.31682 26.0399 7.31682C26.1057 7.31682 26.1715 7.31682 26.2373 7.38261C26.2373 7.38261 26.3031 7.38261 26.3031 7.4484L26.2373 7.05366L26.3031 6.98787C26.3689 7.05366 26.5005 7.05366 26.5663 7.11945C26.6978 7.25103 26.8294 7.38261 27.0268 7.51419C27.0926 7.57998 27.0926 7.64576 27.0268 7.64576C26.961 7.64576 26.8952 7.71155 26.8952 7.71155L26.961 7.77734C27.0268 7.77734 27.0926 7.71155 27.0926 7.71155C27.2899 7.64576 27.2899 7.64576 27.3557 7.77734C27.3557 7.84313 27.4215 7.90892 27.4873 7.84313C27.5531 7.84313 27.5531 7.84313 27.6189 7.90892C27.8163 8.10629 27.8821 8.23787 27.8163 8.50103C27.8163 8.56682 27.8821 8.63261 27.9478 8.63261C28.0136 8.63261 28.0136 8.56682 28.0794 8.56682C28.211 8.50103 28.4742 8.63261 28.4742 8.76419C28.4742 8.76419 28.4742 8.82998 28.4084 8.82998C28.3426 8.89576 28.211 8.89576 28.1452 8.96155C28.0794 8.82998 28.0136 8.6984 27.8821 8.6984C27.7505 8.63261 27.5531 8.63261 27.4873 8.76419C27.3557 8.89576 27.4215 8.96155 27.4873 9.09313V9.22471C27.4215 9.2905 27.2242 9.35629 27.0926 9.2905C26.961 9.2905 26.8294 9.15892 26.6978 9.35629H26.6321C26.5005 9.42208 26.5005 9.48787 26.5005 9.61945C26.5005 9.75103 26.6321 9.75103 26.6978 9.75103H27.0926C27.1584 9.75103 27.2242 9.75103 27.2242 9.68524L27.2899 9.61945C27.4215 9.61945 27.5531 9.68524 27.6189 9.75103C27.6189 9.81682 27.6847 9.88261 27.7505 9.88261C27.8821 9.88261 27.8821 10.0142 27.8821 10.08C27.8821 10.2116 27.9478 10.2773 28.0794 10.2773C28.1452 10.2773 28.211 10.2773 28.211 10.3431C28.4084 10.4089 28.6715 10.4747 28.8689 10.6063C28.9347 10.6063 29.0005 10.6721 29.1321 10.7379C29.1321 10.6063 29.0005 10.4747 28.8689 10.3431C28.7373 10.2116 28.6057 10.1458 28.4742 10.0142C28.6715 10.0142 28.8031 10.08 28.9347 10.2116C29.0663 10.2773 29.1978 10.3431 29.3294 10.3431C29.461 10.3431 29.5268 10.2116 29.5268 10.1458C29.5268 10.08 29.461 10.0142 29.3952 10.0142C29.2636 9.9484 29.2636 9.88261 29.2636 9.75103C29.2636 9.61945 29.1978 9.55366 29.0663 9.55366C28.9347 9.48787 28.8031 9.42208 28.7373 9.2905V9.22471C28.8031 9.15892 28.8031 9.09313 28.8031 9.09313C28.8031 9.02734 28.8689 8.96155 28.8689 8.96155C29.0005 8.82998 29.0005 8.82998 29.0663 8.89576ZM21.3689 7.38261H21.5005C21.4347 7.31682 21.4347 7.25103 21.3689 7.18524C21.2373 7.05366 21.0399 6.98787 20.9084 6.92208C20.711 6.85629 20.6452 6.72471 20.6452 6.52734C20.6452 6.46155 20.6452 6.46155 20.5794 6.39576C20.5794 6.32998 20.5136 6.32998 20.5136 6.26419C20.4478 6.06682 20.4478 5.86945 20.5794 5.73787C20.711 5.60629 20.6452 5.5405 20.5136 5.47471C20.3821 5.40892 20.2505 5.47471 20.1189 5.60629L20.3821 5.86945H20.3163C20.2505 5.73787 20.1189 5.73787 19.9873 5.73787C19.8557 5.73787 19.7899 5.73787 19.7899 5.86945C19.8557 6.00103 19.8557 6.1984 19.9215 6.32998C19.9215 6.39576 19.9215 6.39576 19.8557 6.46155C19.7899 6.46155 19.7242 6.46155 19.7242 6.39576C19.7242 6.32998 19.6584 6.1984 19.6584 6.13261C19.5926 5.93524 19.3952 5.80366 19.1978 5.86945C19.2636 5.93524 19.3294 5.93524 19.3294 6.00103V6.06682H19.0005C19.0005 5.86945 18.8689 5.80366 18.6715 5.80366C18.6057 5.80366 18.5399 5.86945 18.5399 5.93524C18.5399 6.06682 18.4742 6.13261 18.2768 6.00103H18.3426C18.4742 5.93524 18.4742 5.86945 18.4084 5.73787C18.3426 5.60629 18.2768 5.67208 18.1452 5.67208C17.9478 5.73787 17.7505 5.80366 17.6189 5.93524C17.5531 6.00103 17.4215 6.06682 17.4215 6.06682C17.4215 6.1984 17.3557 6.1984 17.2899 6.32998C17.2242 6.39576 17.2899 6.46155 17.3557 6.52734C17.4215 6.52734 17.4215 6.59313 17.5531 6.65892L18.0136 6.59313V6.65892C18.0136 6.65892 17.9478 6.65892 17.9478 6.72471C17.8163 6.7905 17.6847 6.7905 17.5531 6.85629C17.4215 6.92208 17.4215 6.98787 17.4873 6.98787C17.6847 7.05366 17.8163 7.11945 18.0136 7.11945C18.1452 7.11945 18.2768 7.05366 18.4742 7.11945C18.6057 7.11945 18.7373 7.18524 18.8031 7.25103V7.31682C18.7373 7.31682 18.6715 7.38261 18.6057 7.38261H18.2768C18.0794 7.38261 17.8821 7.4484 17.6847 7.4484C17.5531 7.4484 17.5531 7.57998 17.6189 7.64576C17.8163 7.77734 18.0136 7.84313 18.211 7.84313C18.2768 7.84313 18.3426 7.84313 18.3426 7.97471C18.3426 8.0405 18.3426 8.17208 18.4742 8.17208C18.7373 8.23787 19.0005 8.23787 19.2636 8.10629C19.3294 8.0405 19.3952 8.0405 19.461 8.0405C19.6584 8.0405 19.7242 8.0405 19.8557 7.84313C19.9215 7.77734 19.9215 7.77734 19.9873 7.84313C20.0531 7.90892 20.1189 7.90892 20.1189 7.90892C20.1847 7.90892 20.1847 7.90892 20.2505 7.97471C20.4478 8.10629 20.711 8.0405 20.9084 8.0405C21.0399 8.0405 21.0399 7.90892 20.9742 7.84313C20.9084 7.77734 20.9084 7.77734 20.8426 7.77734L20.7768 7.84313C20.711 7.84313 20.711 7.84313 20.6452 7.90892L20.5794 7.84313L20.9742 7.4484C21.1057 7.38261 21.1715 7.25103 21.3689 7.38261ZM22.6189 2.38261C22.6847 2.51419 22.7505 2.51419 22.9478 2.51419C23.0794 2.51419 23.1452 2.4484 23.2768 2.4484C23.3426 2.4484 23.3426 2.51419 23.4084 2.51419L23.3426 2.57998C23.2768 2.64576 23.1452 2.64576 23.0136 2.71155L23.0794 2.77734C23.1452 2.84313 23.2768 2.90892 23.3426 2.97471C23.4084 3.10629 23.5399 3.10629 23.6057 3.17208C23.6715 3.23787 23.8031 3.23787 23.8689 3.17208C23.9347 3.10629 24.0663 3.10629 24.1321 3.17208C24.2636 3.23787 24.2636 3.17208 24.3294 3.10629C24.3294 3.0405 24.3294 3.0405 24.3952 2.97471L24.461 2.90892C24.5268 2.90892 24.5268 2.84313 24.5926 2.84313C24.6584 2.77734 24.6584 2.71155 24.7242 2.71155C24.7899 2.64576 24.9215 2.64576 24.9873 2.64576C25.0531 2.64576 25.0531 2.57998 25.1189 2.57998C25.0531 2.57998 25.0531 2.51419 24.9873 2.51419H24.7899C24.6584 2.51419 24.6584 2.4484 24.6584 2.38261C24.6584 2.31682 24.6584 2.31682 24.5926 2.25103C24.5268 2.18524 24.5268 2.18524 24.5268 2.11945L24.461 2.05366C24.3952 2.05366 24.3952 2.11945 24.3952 2.11945V2.18524L24.2636 2.05366C24.1978 1.92208 24.1321 1.92208 24.0005 1.85629C23.8689 1.7905 23.7373 1.65892 23.6057 1.59313C23.5399 1.52734 23.4742 1.52734 23.4084 1.52734C23.3426 1.59313 23.211 1.59313 23.0794 1.59313C23.0794 1.59313 23.0136 1.65892 22.9478 1.65892L23.1452 1.72471C23.0794 1.7905 23.0136 1.7905 22.9478 1.7905C22.8821 1.7905 22.8163 1.7905 22.8163 1.85629C22.8163 1.92208 22.8821 1.98787 22.8821 2.05366C22.9478 2.11945 23.0136 2.11945 23.0794 2.11945C23.0136 2.18524 23.0136 2.18524 22.8163 2.18524H22.6847C22.6847 2.25103 22.6847 2.25103 22.7505 2.31682C22.4873 2.25103 22.5531 2.31682 22.6189 2.38261Z" fill="#36A83A"/>
<path d="M16.4341 6.658C16.4341 6.72379 16.4999 6.78958 16.4999 6.78958L16.8946 6.59221C17.092 6.52642 17.092 6.52642 17.092 6.39484C17.092 6.26326 17.1578 6.19747 17.2894 6.13168C17.3552 6.13168 17.3552 6.06589 17.3552 6.0001C17.3552 5.93431 17.421 5.86852 17.5525 5.80273C17.7499 5.73694 17.9473 5.60537 18.1446 5.53958C18.2104 5.47379 18.2104 5.47379 18.1446 5.408L17.9473 5.21063C17.8157 5.07905 17.6183 5.01326 17.421 5.14484C17.3552 5.14484 17.3552 5.07905 17.2894 5.07905C17.2236 5.07905 17.092 5.07905 17.092 5.01326C16.8946 4.88168 16.7631 4.88168 16.5657 4.94747C16.5657 5.07905 16.4999 5.14484 16.3683 5.21063V5.27642C16.3683 5.34221 16.3025 5.408 16.3025 5.47379C16.2367 5.53958 16.2367 5.60537 16.1709 5.67116V5.80273C16.1052 5.86852 16.1052 5.93431 16.0394 6.0001C15.9078 6.19747 15.9736 6.19747 16.1709 6.19747C16.3025 6.39484 16.3683 6.52642 16.4341 6.658ZM23.4078 4.81589C23.4078 4.88168 23.4736 4.94747 23.5394 4.94747C23.6052 4.94747 23.6052 4.94747 23.671 5.01326C23.8025 5.14484 23.9999 5.14484 24.0657 5.01326L24.1315 4.94747C24.1973 5.07905 24.3288 5.07905 24.4604 5.14484H24.8552C25.0525 5.14484 25.2499 5.14484 25.3815 5.01326H25.4473C25.5788 5.01326 25.7104 5.07905 25.7762 5.07905C25.842 5.07905 25.842 5.01326 25.9078 4.94747C25.9736 4.94747 25.9736 4.88168 26.0394 4.88168C26.0394 4.88168 26.1052 4.88168 26.1052 4.81589C26.171 4.7501 26.171 4.68431 26.2367 4.55273C26.0394 4.48694 25.842 4.48694 25.5788 4.42116C25.3815 4.42116 25.1841 4.42116 25.0525 4.48694C24.921 4.55273 24.7894 4.55273 24.6578 4.55273H24.3288C24.1973 4.48694 24.1315 4.42116 23.9999 4.35537C23.9999 4.28958 24.0657 4.28958 24.0657 4.22379C24.1973 4.158 24.1973 4.09221 23.9999 4.02642C23.8683 3.96063 23.7367 3.89484 23.6052 3.96063C23.4078 3.96063 23.2104 3.89484 23.0788 3.82905C22.9473 3.76326 22.7499 3.76326 22.6183 3.76326C22.4867 3.76326 22.4867 3.82905 22.5525 3.96063C22.6183 4.02642 22.7499 4.09221 22.8815 4.158C23.0131 4.22379 23.1446 4.22379 23.2762 4.158C23.4078 4.28958 23.6052 4.42116 23.4736 4.68431C23.342 4.68431 23.4078 4.7501 23.4078 4.81589ZM18.4736 4.09221C18.4078 4.02642 18.342 4.02642 18.2104 4.09221C18.2104 4.158 18.1446 4.158 18.0788 4.22379L18.0131 4.28958C18.0131 4.35537 18.0788 4.35537 18.0788 4.35537H18.2104C18.0788 4.42116 17.8815 4.35537 17.8815 4.55273L18.2104 4.48694C18.0788 4.55273 17.8815 4.55273 17.8157 4.68431C17.9473 4.7501 18.0788 4.81589 18.1446 4.81589C18.2104 4.81589 18.2762 4.81589 18.342 4.7501L18.5394 4.55273V4.7501L19.0657 4.68431V4.7501C19.0657 4.81589 18.9999 4.81589 18.9341 4.88168C18.8025 4.88168 18.7367 4.94747 18.6052 4.94747C18.5394 4.94747 18.4736 5.01326 18.4736 5.01326C18.4736 5.01326 18.5394 5.07905 18.5394 5.14484C18.6052 5.14484 18.671 5.21063 18.7367 5.21063L19.3288 5.01326C19.4604 4.88168 19.5262 4.81589 19.6578 4.88168H20.1183C20.1841 4.81589 20.2499 4.81589 20.3157 4.81589C20.4473 4.7501 20.4473 4.48695 20.3815 4.35537C20.3157 4.22379 20.2499 4.22379 20.1841 4.35537C20.1183 4.42116 19.9867 4.42116 19.921 4.35537C19.7894 4.22379 19.7236 4.09221 19.592 3.96063L19.3946 4.158C19.3946 4.09221 19.3946 4.158 19.4604 4.158C19.592 4.158 19.5262 4.22379 19.5262 4.28958L19.4604 4.35537L19.6578 4.55273C19.3946 4.61852 19.1973 4.55273 19.0657 4.42116C18.9999 4.28958 18.8025 4.158 18.6052 4.158C18.5394 4.158 18.4736 4.158 18.4736 4.09221ZM21.8288 6.658H21.8946C21.9604 6.52642 22.092 6.46063 22.2236 6.46063C22.2236 6.46063 22.2894 6.46063 22.2894 6.39484C22.3552 6.19747 22.3552 6.0001 22.421 5.80273L22.3552 5.73694L22.2894 5.80273V5.93431H22.2236C22.2236 5.80273 22.1578 5.80273 22.0262 5.80273C21.9604 5.80273 21.9604 5.73694 21.8946 5.73694C21.8946 5.73694 21.8946 5.67116 21.9604 5.67116C22.0262 5.60537 22.092 5.60537 22.1578 5.53958C22.2236 5.47379 22.2236 5.408 22.1578 5.34221C22.092 5.27642 22.0262 5.27642 21.9604 5.21063C21.8946 5.21063 21.7631 5.21063 21.7631 5.34221V5.47379H21.6315C21.4999 5.408 21.3683 5.408 21.3025 5.47379C21.2367 5.53958 21.2367 5.60537 21.2367 5.60537C21.2367 5.60537 21.3025 5.67116 21.3683 5.67116C21.5657 5.67116 21.5657 5.73694 21.4999 5.86852C21.4341 6.0001 21.3683 6.0001 21.2367 5.93431C21.171 5.86852 21.1052 5.86852 21.1052 5.80273C20.9736 5.86852 20.9736 5.93431 21.0394 6.06589C21.1052 6.13168 21.171 6.19747 21.2367 6.19747C21.3025 6.26326 21.3683 6.32905 21.4341 6.32905C21.6973 6.46063 21.7631 6.52642 21.8288 6.658ZM21.6973 3.96063C21.6315 3.89484 21.5657 3.89484 21.4341 3.82905L21.3683 3.89484L21.6315 4.22379C21.5657 4.158 21.4999 4.09221 21.3683 4.09221C21.3025 4.09221 21.3025 4.09221 21.2367 4.02642V4.158C21.2367 4.22379 21.3025 4.22379 21.3025 4.28958C21.3025 4.35537 21.3025 4.35537 21.3683 4.35537H21.3025C21.2367 4.35537 21.2367 4.28958 21.171 4.28958C21.0394 4.158 20.9736 4.09221 20.9078 3.96063C20.9078 3.89484 20.7762 3.89484 20.7104 3.89484L20.6446 3.96063C20.6446 4.158 21.0394 4.61852 21.3683 4.48694C21.4341 4.48694 21.4999 4.48694 21.6315 4.42116C21.5657 4.48694 21.5657 4.55273 21.5657 4.61852V4.7501C21.6315 4.81589 22.092 4.81589 22.092 4.68431C22.1578 4.61852 22.2236 4.48695 22.1578 4.35537V4.28958C22.2236 4.09221 22.092 3.96063 21.8946 3.89484C21.8946 4.09221 21.8288 4.02642 21.6973 3.96063ZM25.9736 9.94747C25.9736 9.88168 25.9078 9.88168 25.842 9.81589C25.7762 9.7501 25.7104 9.7501 25.6446 9.68431C25.6446 9.61852 25.5788 9.55273 25.5131 9.48695C25.3815 9.42116 25.3157 9.35537 25.1841 9.35537C25.1183 9.28958 24.9867 9.22379 24.921 9.158L24.8552 9.09221C24.7894 9.09221 24.7236 9.158 24.7236 9.158C24.6578 9.28958 24.592 9.48694 24.592 9.61852C24.592 9.7501 24.592 9.81589 24.4604 9.88168C24.3946 9.88168 24.4604 9.94747 24.3946 10.0133H24.5262C24.6578 9.94747 24.6578 9.94747 24.6578 10.0791C24.6578 10.1448 24.7236 10.2106 24.7894 10.1448C24.921 10.0791 24.9867 10.0133 25.0525 9.94747C25.1841 9.81589 25.1841 9.81589 25.3815 9.88168C25.4473 9.94747 25.5788 9.94747 25.6446 10.0133L25.9736 9.94747ZM20.6446 2.71063C20.7104 2.71063 20.7762 2.71063 20.842 2.77642C20.9078 2.77642 20.9078 2.84221 20.9078 2.908C20.842 2.908 20.7762 2.908 20.7104 2.97379C20.6446 2.97379 20.6446 2.97379 20.5788 3.03958L20.7104 3.17116H20.9078C21.0394 3.17116 21.2367 3.17116 21.3683 3.23694C21.4341 3.30273 21.4999 3.36852 21.6315 3.43431C21.6973 3.5001 21.7631 3.5001 21.8288 3.43431C21.8946 3.36852 21.9604 3.30273 21.8288 3.23694L21.7631 3.17116C21.7631 3.03958 21.6973 3.03958 21.6315 2.97379C21.4999 2.97379 21.4341 2.908 21.3683 2.77642H21.2367L21.171 2.84221C21.1052 2.77642 21.0394 2.71063 20.9736 2.71063C20.842 2.64484 20.7104 2.64484 20.5788 2.64484C20.5131 2.64484 20.3815 2.71063 20.3815 2.77642C20.3815 2.71063 20.5131 2.77642 20.6446 2.71063ZM17.0262 4.22379L17.1578 4.42116L17.2894 4.28958L17.3552 4.22379C17.4867 4.28958 17.4867 4.22379 17.4867 4.158C17.4867 4.09221 17.4867 4.02642 17.5525 3.96063C17.5525 3.89484 17.6183 3.89484 17.6841 3.82905H17.7499V4.02642C17.6841 4.09221 17.7499 4.158 17.7499 4.158C17.8157 4.158 17.8157 4.09221 17.8815 4.09221L17.9473 4.02642C18.0131 4.02642 18.0788 3.96063 18.0788 3.89484V3.69747L18.2104 3.56589C18.1446 3.5001 18.0788 3.5001 18.0131 3.5001C17.9473 3.43431 17.8815 3.5001 17.8815 3.56589V3.63168H17.7499C17.6183 3.56589 17.4867 3.56589 17.3552 3.69747L17.2894 3.76326C17.2236 3.76326 17.1578 3.82905 17.1578 3.89484C17.1578 4.02642 17.0262 4.09221 16.8288 4.09221H16.7631C16.7631 4.158 16.6973 4.28958 16.6973 4.35537C16.8946 4.42116 16.9604 4.28958 17.0262 4.22379ZM25.9078 5.60537C25.9078 5.67116 25.9736 5.73694 26.0394 5.80273C26.1052 5.93431 26.171 6.0001 26.3683 5.93431C26.4999 5.93431 26.5657 5.86852 26.6973 5.86852H26.8288C26.8946 5.86852 26.8946 5.86852 26.9604 5.80273V5.67116C26.6973 5.60537 26.5657 5.47379 26.3025 5.47379H25.9078V5.60537ZM22.4867 3.30273C22.6183 3.30273 22.6841 3.23694 22.8157 3.23694V3.10537C22.8157 2.97379 22.8157 2.97379 22.6841 2.97379C22.6183 2.97379 22.5525 2.97379 22.4867 2.908C22.2894 2.84221 22.2236 2.77642 22.092 2.71063C22.092 2.908 22.1578 3.10537 22.2894 3.23694C22.2894 3.30273 22.421 3.36852 22.4867 3.30273ZM23.1446 4.88168V4.81589C23.0788 4.61852 22.9473 4.55273 22.7499 4.55273C22.6183 4.55273 22.4867 4.68431 22.421 4.7501V4.88168C22.6183 4.94747 22.8157 5.01326 22.9473 5.07905C23.1446 5.01326 23.1446 5.01326 23.1446 4.88168ZM19.4604 3.23694C19.2631 3.23694 19.0657 3.23694 18.8683 3.30273C18.7367 3.36852 18.7367 3.56589 18.8683 3.63168C18.9999 3.69747 19.1315 3.69747 19.2631 3.63168C19.3288 3.56589 19.3946 3.5001 19.3288 3.43431L19.5262 3.30273L19.4604 3.23694ZM26.8946 8.5001C26.9604 8.5001 27.0262 8.43431 27.092 8.43431L27.1578 8.36852C27.1578 8.30273 27.1578 8.17116 27.092 8.10537C27.0262 8.03958 26.8946 8.03958 26.8288 8.03958C26.6973 8.03958 26.5657 8.17116 26.5657 8.30273C26.6315 8.43431 26.7631 8.56589 26.8946 8.5001ZM19.0657 3.10537C19.1973 3.03958 19.3288 3.10537 19.3946 3.17116C19.4604 3.23694 19.5262 3.17116 19.592 3.10537V2.97379C19.5262 2.908 19.4604 2.908 19.3946 2.97379C19.3288 2.97379 19.3288 3.03958 19.2631 3.03958H19.1315C18.9341 2.97379 18.8683 2.97379 18.7367 3.10537V3.17116C18.8025 3.10537 18.9341 3.10537 19.0657 3.10537ZM23.1446 3.36852C23.0131 3.30273 22.7499 3.36852 22.5525 3.43431C22.4867 3.43431 22.4867 3.5001 22.4867 3.5001L22.5525 3.56589C22.7499 3.63168 23.0131 3.5001 23.1446 3.36852ZM14.3946 13.6317C14.3288 13.6317 14.2631 13.6975 14.2631 13.7633C14.3288 13.8948 14.3288 13.9606 14.3946 14.0922C14.5262 13.9606 14.5262 13.8291 14.5262 13.7633C14.5262 13.6975 14.5262 13.6317 14.3946 13.6317ZM25.2499 10.5396C25.3157 10.5396 25.3815 10.6054 25.4473 10.5396C25.5788 10.4738 25.6446 10.3422 25.6446 10.2764C25.4473 10.2106 25.3815 10.3422 25.3157 10.408C25.2499 10.408 25.2499 10.4738 25.2499 10.5396ZM20.5131 3.69747C20.5788 3.76326 20.6446 3.69747 20.6446 3.63168C20.6446 3.5001 20.4473 3.36852 20.3157 3.30273C20.3157 3.5001 20.3815 3.63168 20.5131 3.69747ZM9.592 12.3817L9.92095 12.3159L9.85516 12.2501C10.0525 12.1843 10.0525 12.1843 9.92095 11.9869L9.592 12.3817ZM23.9341 3.56589C23.9341 3.5001 23.8683 3.5001 23.8025 3.36852C23.7367 3.43431 23.6052 3.5001 23.6052 3.56589C23.6052 3.63168 23.671 3.69747 23.7367 3.69747C23.8683 3.69747 23.9341 3.63168 23.9341 3.56589ZM6.82884 11.3948C6.76306 11.3948 6.69727 11.3948 6.69727 11.4606V11.5922C6.76306 11.658 6.82884 11.658 6.89463 11.658C6.96042 11.658 6.96042 11.5922 7.02621 11.5264C6.96042 11.5264 6.96042 11.4606 6.89463 11.4606C6.89463 11.3948 6.89463 11.3948 6.82884 11.3948ZM17.7499 4.22379C17.6183 4.35537 17.4867 4.42116 17.3552 4.55273C17.6183 4.55273 17.7499 4.42116 17.7499 4.22379ZM26.0394 10.7369L26.1052 10.8027C26.171 10.7369 26.171 10.6712 26.2367 10.6054L26.171 10.5396C26.1052 10.5396 26.0394 10.6054 26.0394 10.7369ZM20.842 4.7501C20.842 4.68431 20.7762 4.68431 20.7104 4.61852L20.5788 4.7501L20.7104 4.81589C20.7762 4.81589 20.842 4.7501 20.842 4.7501ZM21.8946 2.2501V2.11852C21.8288 2.05273 21.7631 2.05273 21.6315 2.05273C21.6973 2.11852 21.7631 2.18431 21.8288 2.18431C21.8288 2.2501 21.8946 2.2501 21.8946 2.2501ZM18.6052 3.36852C18.6052 3.36852 18.6052 3.30273 18.5394 3.30273H18.342V3.36852C18.4078 3.43431 18.4736 3.43431 18.5394 3.5001C18.5394 3.43431 18.6052 3.36852 18.6052 3.36852ZM7.22358 13.5659L7.55253 13.4343C7.42095 13.3685 7.22358 13.4343 7.22358 13.5659Z" fill="#36A83A"/>
</g>
</g>
</g>
<defs>
<clipPath id="clip0_26003_52588">
<rect width="38" height="25" fill="white" transform="translate(0 0.210938)"/>
</clipPath>
<clipPath id="clip1_26003_52588">
<rect width="38" height="25" fill="white" transform="translate(0 0.210938)"/>
</clipPath>
<clipPath id="clip2_26003_52588">
<rect width="25" height="25" fill="white" transform="translate(6.5 0.210938)"/>
</clipPath>
</defs>
</svg>
