<svg width="38" height="26" viewBox="0 0 38 26" fill="none" xmlns="http://www.w3.org/2000/svg">
<g clip-path="url(#clip0_26003_52664)">
<g clip-path="url(#clip1_26003_52664)">
<g clip-path="url(#clip2_26003_52664)">
<path d="M29.3285 12.5793C29.5259 12.5135 29.7232 12.4477 29.789 12.3161C29.9864 12.053 30.1838 11.724 30.3811 11.4609C30.5785 11.1977 30.7101 10.8688 31.1048 10.7372L31.1706 10.6714C31.3022 10.2109 31.368 9.75035 31.4338 9.35562C31.1706 9.42141 30.9074 9.42141 30.6443 9.4872C30.3153 9.55299 29.9864 9.61878 29.6574 9.61878C29.5917 9.61878 29.5917 9.68456 29.5259 9.68456C29.3943 9.75035 29.1969 9.81614 29.0653 9.68456C28.9338 9.55299 28.7364 9.42141 28.6048 9.28983L28.868 9.15825L28.7364 9.02667L28.2759 8.56614C28.1443 8.50035 28.0785 8.36878 27.9469 8.30299C27.8153 8.2372 27.618 8.17141 27.5522 8.03983C27.4206 7.90825 27.3548 7.71088 27.2232 7.5793C27.1574 7.38193 27.0259 7.18456 26.8943 7.05299C26.6969 6.92141 26.6311 6.72404 26.5653 6.52667V6.39509C26.4995 6.06614 26.4995 5.80299 26.1048 5.53983C25.9732 5.47404 25.9732 5.27667 25.9074 5.21088C25.9074 5.14509 25.8417 5.0793 25.8417 5.01351C25.7101 4.75035 25.5127 4.42141 25.3811 4.15825L24.9864 3.56614C24.8548 3.36878 24.7232 3.10562 24.789 2.90825C24.9864 3.17141 25.0522 3.56614 25.3811 3.76351C25.6443 3.30299 25.7759 2.90825 25.3811 2.51351C25.118 2.44772 24.789 2.44772 24.5259 2.38193H24.3943C23.868 2.5793 23.2759 2.64509 22.7495 2.71088C22.4206 2.77667 22.2232 2.64509 22.2232 2.44772C22.2232 2.25035 22.0259 2.18456 21.8285 2.11878C21.5653 2.05299 21.3022 2.05299 21.1706 1.85562C20.9074 2.18456 20.7759 2.25035 20.3811 1.9872C20.1838 2.05299 20.118 2.18456 20.1838 2.38193C20.3153 2.44772 20.3153 2.51351 20.1838 2.64509C19.9864 2.71088 19.8548 2.71088 19.7232 2.5793C19.5259 2.38193 19.2627 2.31614 18.9995 2.31614C18.8022 2.31614 18.6706 2.25035 18.6706 2.05299C18.6706 1.9872 18.6048 1.92141 18.539 1.92141C18.2759 1.85562 18.0127 1.72404 17.6838 1.78983C17.4206 1.78983 17.289 1.72404 17.1574 1.52667C17.1574 1.46088 17.0259 1.46088 17.0259 1.46088C16.8943 1.52667 16.7627 1.46088 16.7627 1.39509C16.7627 1.3293 16.8285 1.26351 16.9601 1.19772C17.2232 1.06614 17.2232 0.868775 17.0917 0.671407C17.0259 0.605617 17.0259 0.539828 17.0917 0.474038C17.2232 0.342459 17.1574 0.27667 16.9601 0.27667C16.7627 0.27667 16.5653 0.21088 16.368 0.21088C16.039 0.21088 15.7759 0.145091 15.5127 0.21088C15.2495 0.27667 14.9864 0.27667 14.7232 0.27667C14.1311 0.342459 13.539 0.27667 13.0785 0.605617H13.0127C12.618 0.671407 12.4864 0.737196 12.289 0.868775C12.2232 1.00035 12.0917 1.00035 11.9601 0.934565H11.4338C11.2364 0.934565 11.1048 0.934565 10.9732 0.802986C10.9732 0.737196 10.8417 0.737196 10.7101 0.671407C10.8417 1.00035 10.7759 1.13193 10.5785 1.19772C10.3153 1.26351 10.2495 1.46088 10.1838 1.59246L9.78902 2.18456C9.59165 2.38193 9.39428 2.64509 9.19691 2.84246C9.06534 2.97404 8.93376 3.10562 8.86797 3.2372C8.80218 3.2372 8.73639 3.30299 8.6706 3.36878C8.53902 3.43456 8.34165 3.50035 8.21007 3.56614C8.14428 3.63193 7.94691 3.69772 7.88112 3.76351C7.74955 4.22404 7.28902 4.55299 7.09165 4.94772C6.89428 5.21088 6.69691 5.47404 6.56534 5.7372C6.43376 5.93456 6.43376 6.06614 6.63112 6.26351C6.69691 6.3293 6.69691 6.46088 6.69691 6.52667C6.69691 6.65825 6.7627 6.72404 6.7627 6.85562C6.7627 6.9872 6.82849 7.11877 6.7627 7.25035C6.7627 7.51351 6.63112 7.77667 6.49955 8.10562V8.2372C6.56534 8.36877 6.56534 8.50035 6.63112 8.63193C6.7627 8.8293 6.63112 9.09246 7.02586 9.22404L7.09165 9.28983C7.09165 9.4872 7.28902 9.68456 7.48639 9.81614C7.88112 10.0793 8.07849 10.3425 8.27586 10.6714C8.34165 10.7372 8.40744 10.8688 8.47323 10.8688C8.73639 10.8688 8.86797 11.0661 9.06534 11.1319C9.19691 11.1977 9.2627 11.2635 9.39428 11.2635L9.98639 11.4609H10.1838L11.6311 11.2635C12.2232 11.1977 12.8811 11.1319 13.4732 11.0004C13.6706 10.9346 13.868 10.9346 14.1311 10.9346C14.2627 10.9346 14.4601 11.0004 14.5917 11.0661C14.8548 11.1319 14.9864 11.1977 15.0522 11.3951C15.0522 11.4609 15.118 11.5267 15.1838 11.5267C15.4469 11.5925 15.7101 11.6582 15.9074 11.5925C16.1048 11.5925 16.3022 11.5925 16.4995 11.6582C16.6311 11.6582 16.6969 11.724 16.7627 11.7898C16.8943 11.9872 16.8285 12.3819 16.6311 12.5793C16.5653 12.6451 16.4995 12.7109 16.5653 12.7767C16.6311 12.9082 16.6311 12.974 16.6311 13.1056C16.6311 13.2372 16.5653 13.3688 16.6311 13.4346C16.7627 13.6977 16.8285 13.9609 17.0917 14.0925C17.1574 14.1582 17.2232 14.224 17.2232 14.2898C17.4206 14.7504 17.618 15.2109 17.8153 15.6056C17.8811 15.803 17.9469 15.9346 17.8811 16.1319V16.3293C17.9469 16.4609 18.0127 16.5925 18.0127 16.724C18.0785 16.8556 18.0785 17.053 17.9469 17.1846C17.7495 17.3819 17.6838 17.5135 17.7495 17.7767C17.7495 17.9082 17.7495 17.974 17.6838 18.1056C17.618 18.303 17.4864 18.4346 17.5522 18.6319C17.618 18.9609 17.7495 19.3556 17.8811 19.6846C18.0127 19.9477 18.1443 20.1451 18.1443 20.4082C18.1443 20.474 18.1443 20.474 18.2101 20.5398C18.2759 20.6714 18.2759 20.8688 18.3417 21.0004V21.3293C18.4732 21.724 18.539 22.1188 18.6706 22.5135C18.6706 22.6451 18.8022 22.7109 18.868 22.7767C18.9995 22.8425 19.1311 22.974 19.1969 23.1056C19.2627 23.303 19.4601 23.5004 19.3285 23.6977C19.3285 23.7635 19.3285 23.7635 19.3943 23.7635C19.6574 24.0267 19.5917 24.4214 19.6574 24.7504C19.6574 24.8819 19.7232 24.9477 19.8548 25.0135C19.9206 25.0793 20.0522 25.1451 20.118 25.2109H20.2495C20.3811 25.1451 20.4469 25.1451 20.5785 25.0793H20.7101C20.9074 24.9477 21.2364 24.9477 21.4995 24.8819C21.6311 24.8819 21.8285 24.8161 21.9601 24.8161C22.0259 24.8161 22.1574 24.7504 22.2232 24.7504C22.4206 24.8161 22.4864 24.7504 22.618 24.6846C22.6838 24.6188 22.7495 24.553 22.8811 24.553C23.4074 24.4214 23.6048 24.0925 23.8022 23.7635C23.8022 23.6977 23.868 23.6319 23.868 23.5661C23.8022 23.303 23.868 23.2372 24.1969 23.1056C24.2627 22.974 24.3285 22.8425 24.3943 22.7767C24.5917 22.7109 24.6574 22.5793 24.7232 22.4477C24.7232 22.3819 24.8548 22.3819 24.8548 22.3161C24.8548 22.2504 24.9206 22.1188 24.9206 22.053C24.789 21.9214 24.8548 21.8556 24.9864 21.7898C25.1838 21.6582 25.4469 21.5925 25.6443 21.4609C25.9074 21.3293 25.9732 21.1977 25.7759 21.0004C25.7101 20.9346 25.7101 20.8688 25.6443 20.803C25.6443 20.474 25.5785 20.2109 25.5785 19.8819C25.5785 19.8161 25.6443 19.8161 25.6443 19.7504C25.8417 19.553 25.9732 19.3556 26.1706 19.1582C26.2364 19.0925 26.368 19.0267 26.4995 18.9609C26.6969 18.8951 26.8943 18.8951 27.0917 18.8293C27.0259 18.6319 27.0917 18.5004 27.3548 18.3688C27.4864 18.303 27.5522 18.1056 27.6838 17.974C27.618 17.3819 27.4864 16.7898 27.2232 16.2635C27.1574 16.1977 27.2232 16.0004 27.289 15.9346C27.4864 15.803 27.3548 15.7372 27.2232 15.6056C27.1574 15.5398 27.0259 15.4082 27.0259 15.2767C27.0259 15.1451 27.0259 15.0135 27.0917 14.8819L27.4864 14.2898C27.618 14.0925 27.6838 13.8293 28.0127 13.7635L28.0785 13.6977C28.2759 13.5004 28.4074 13.303 28.6048 13.1056C28.8022 12.9082 28.9995 12.6451 29.3285 12.5793ZM30.8417 17.4477C30.7759 17.5135 30.7101 17.5793 30.6443 17.5793C30.4469 17.5793 30.4469 17.6451 30.4469 17.7767C30.4469 17.9082 30.5127 18.0398 30.3153 18.1056C30.1838 18.1714 30.0522 18.2372 29.9864 18.2372C29.8548 18.303 29.7232 18.3688 29.5917 18.3688C29.2627 18.4346 29.1311 18.4346 29.1311 18.6977V18.7635C28.9995 19.0267 29.0653 19.224 29.1311 19.4872C29.2627 19.6846 29.1969 19.8819 28.9995 20.0793C28.9338 20.1451 28.9338 20.2767 28.868 20.3425C28.8022 20.4082 28.868 20.5398 28.868 20.6714C28.868 20.9346 28.868 21.1977 29.0653 21.4609C29.1311 21.5925 29.3285 21.6582 29.5259 21.6582C29.7232 21.6582 29.789 21.5925 29.8548 21.5267C29.9864 21.3951 30.0522 21.2635 30.118 21.1977C30.3153 20.9346 30.4469 20.7372 30.4469 20.4082C30.4469 20.2767 30.5127 20.1451 30.5785 20.0135C30.6443 19.8819 30.7759 19.7504 30.8417 19.553C30.9732 19.1582 31.1048 18.7635 31.1048 18.3688C31.1048 18.303 31.1048 18.303 31.1706 18.2372L31.368 18.3688C31.5653 18.1714 31.368 17.4477 30.9732 16.9872C30.9074 17.2504 30.9074 17.3819 30.8417 17.4477Z" fill="#36A83A"/>
</g>
</g>
</g>
<defs>
<clipPath id="clip0_26003_52664">
<rect width="38" height="25" fill="white" transform="translate(0 0.210938)"/>
</clipPath>
<clipPath id="clip1_26003_52664">
<rect width="38" height="25" fill="white" transform="translate(0 0.210938)"/>
</clipPath>
<clipPath id="clip2_26003_52664">
<rect width="25" height="25" fill="white" transform="translate(6.5 0.210938)"/>
</clipPath>
</defs>
</svg>
