<svg width="38" height="26" viewBox="0 0 38 26" fill="none" xmlns="http://www.w3.org/2000/svg">
<g clip-path="url(#clip0_26003_52578)">
<g clip-path="url(#clip1_26003_52578)">
<g clip-path="url(#clip2_26003_52578)">
<path d="M26.2171 0.242889C26.1613 0.274989 26.1122 0.317411 26.0723 0.367889L25.9934 0.453416C25.9868 0.453416 25.9736 0.420521 25.9671 0.381047C25.9539 0.295521 25.9342 0.275784 25.8486 0.256047C25.7565 0.23631 25.7236 0.282363 25.7236 0.420521C25.7236 0.519205 25.7171 0.532363 25.6842 0.532363C25.6437 0.538328 25.6053 0.554142 25.5723 0.578416C25.5328 0.604731 25.4999 0.617889 25.4999 0.61131C25.4934 0.604731 25.4999 0.571837 25.5065 0.532363C25.5328 0.433679 25.5328 0.400784 25.4934 0.36131C25.4407 0.3021 25.3684 0.321837 25.2368 0.420521C25.1381 0.492889 25.0921 0.519205 24.9999 0.532363C24.9335 0.541152 24.8689 0.561173 24.8092 0.591573C24.7039 0.644205 24.5592 0.821837 24.5197 0.940258C24.4605 1.11131 24.3947 1.16394 24.2697 1.13105C24.2039 1.11131 24.1907 1.11789 24.0592 1.20999C23.8749 1.34157 23.8157 1.40736 23.7894 1.51263C23.7656 1.58796 23.7198 1.65442 23.6578 1.70342C23.5526 1.8021 23.4342 1.94026 23.2105 2.22973C23.1513 2.3021 23.046 2.40736 22.9802 2.46657C22.8947 2.53236 22.8421 2.59815 22.8223 2.64421C22.8026 2.69026 22.6907 2.83499 22.5723 2.96657C22.4539 3.09815 22.3421 3.24289 22.3157 3.29552C22.2763 3.38763 22.2697 3.48631 22.296 3.53894C22.3092 3.55868 22.2894 3.58499 22.2039 3.63105C22.0526 3.71657 21.9999 3.8021 22.0131 3.94684C22.0197 4.00605 22.0394 4.07842 22.0526 4.10473C22.0855 4.15736 22.0789 4.17052 21.9473 4.25605C21.8355 4.32842 21.7828 4.39421 21.796 4.45999C21.8026 4.51921 21.796 4.52578 21.6118 4.6442C21.2697 4.86131 21.0855 5.0521 21.0592 5.21657C21.0394 5.36131 21.0657 5.36789 21.2368 5.22973C21.5065 5.01263 21.6184 4.97315 21.6315 5.09157C21.6381 5.13763 21.6184 5.16394 21.5394 5.24289C21.3684 5.40736 21.2697 5.44026 21.0855 5.40078C20.9868 5.38105 20.9605 5.38105 20.8421 5.42052C20.4199 5.592 20.0219 5.81757 19.6578 6.09157C19.3618 6.28894 19.3223 6.32842 19.3355 6.36131C19.3618 6.44684 19.3684 6.55868 19.3552 6.61131C19.3322 6.66754 19.2987 6.71888 19.2565 6.76263C19.1958 6.82486 19.1586 6.90625 19.1513 6.99289L19.1052 7.26263C19.0723 7.44684 19.0789 7.46657 19.2105 7.46657C19.3421 7.46657 19.4013 7.48631 19.4013 7.52578C19.4013 7.54552 19.3157 7.64421 19.2105 7.74947C19.0394 7.92052 19.0263 7.94026 19.046 7.97315C19.0592 7.99289 19.0921 8.0192 19.1249 8.03894C19.1776 8.06526 19.2039 8.05868 19.3486 7.99947C19.3815 7.97973 19.3881 7.98631 19.3749 8.06526C19.3618 8.1442 19.3355 8.18368 19.1907 8.3021C19.1315 8.35473 19.1184 8.39421 19.1249 8.56526C19.1315 8.67052 19.2039 8.74947 19.3552 8.8021L19.5526 8.88763C19.7236 8.99289 20.0789 8.81526 20.6513 8.34815C20.8486 8.18368 20.8684 8.16394 20.9342 8.01263L21.0197 7.85473L21.0657 7.94684C21.0921 8.01263 21.1052 8.08499 21.1052 8.19026C21.1052 8.38105 21.1513 8.65736 21.2039 8.81526C21.2236 8.88105 21.2828 8.99289 21.3289 9.06526C21.4013 9.1771 21.4144 9.20999 21.3947 9.24947C21.3618 9.34157 21.3749 9.38105 21.4539 9.43368C21.4999 9.46657 21.5328 9.50605 21.5328 9.53236C21.5328 9.59815 21.6184 9.73631 21.7105 9.82184C21.796 9.90078 21.796 9.90078 21.8092 10.0587C21.8355 10.381 21.8618 10.6508 21.8749 10.6639C21.8815 10.6705 21.9605 10.6639 22.0526 10.6442C22.2434 10.6047 22.2302 10.6245 22.2631 10.3416C22.2763 10.2495 22.296 10.1508 22.3092 10.1245C22.3355 10.0784 22.3421 10.0718 22.4868 10.0718C22.5734 10.0782 22.6601 10.06 22.7368 10.0192C22.9868 9.88105 23.2697 9.43368 23.2697 9.1771L23.2368 8.83499C23.1842 8.43368 23.1973 8.40736 23.5657 8.19684C23.7828 8.07184 23.8749 7.99947 23.8881 7.94684L23.9802 7.72315C24.0855 7.48631 24.0855 7.46657 23.9802 7.44026C23.8355 7.40078 23.8355 7.40078 23.9144 7.32184C23.9446 7.29132 23.9691 7.25567 23.9868 7.21657C23.9868 7.1771 23.921 7.15078 23.7236 7.11789C23.4473 7.07184 23.4539 7.07184 23.4276 7.01921C23.3947 6.94684 23.4013 6.82184 23.4342 6.63105L23.4605 6.37447C23.4605 6.28894 23.4802 6.24947 23.6776 5.94684C23.9688 5.47527 24.2897 5.02261 24.6381 4.59157C24.6973 4.52578 24.7302 4.50605 24.7631 4.51921C24.8157 4.53236 24.8157 4.53236 24.7499 4.29552C24.7247 4.2203 24.7049 4.14334 24.6907 4.06526C24.6907 4.01921 24.7236 3.99947 24.9144 3.94684C25.1315 3.88105 25.1249 3.88763 25.0723 3.79552C24.9934 3.6771 25.0065 3.65078 25.1644 3.53236L25.3092 3.4271L25.4802 3.51263L25.7368 3.63763C25.8157 3.6771 25.9342 3.78236 25.9342 3.82184C25.9342 3.83499 25.9078 3.84157 25.8749 3.85473C25.796 3.87447 25.6776 3.99289 25.6052 4.12447C25.546 4.24289 25.4539 4.50605 25.4342 4.63105C25.4276 4.69684 25.4144 4.71657 25.3749 4.72315C25.3026 4.72973 25.2763 4.78894 25.3223 4.84157C25.3552 4.88105 25.3552 4.88105 25.296 4.91394C25.2257 4.97047 25.1617 5.03444 25.1052 5.10473C25.0328 5.19026 24.9342 5.28236 24.8947 5.31526C24.8223 5.36131 24.8092 5.37447 24.8092 5.4271C24.8029 5.48407 24.7873 5.53962 24.7631 5.59157C24.7171 5.69026 24.7171 5.69684 24.7434 5.87447L24.796 6.24289C24.8223 6.45999 24.8618 6.70999 24.8881 6.8021C24.9342 6.96657 24.9605 6.99289 25.2236 7.13105C25.3684 7.20342 25.4934 7.27578 25.5065 7.28894C25.5263 7.3021 25.5855 7.30868 25.6644 7.3021C25.8552 7.28894 25.9934 7.21657 26.3947 6.90736C26.7763 6.61789 26.9407 6.51921 27.0986 6.49947C27.2236 6.47973 27.3026 6.42052 27.5855 6.11131C27.796 5.88763 27.9144 5.70999 28.0394 5.44684C28.1381 5.22973 28.1578 5.09157 28.0986 4.95999C28.0597 4.87715 28.0039 4.80335 27.9348 4.74331C27.8657 4.68327 27.7848 4.63831 27.6973 4.61131L27.6184 4.59157L27.6447 4.51921C27.6644 4.46657 27.671 4.41394 27.6644 4.36789C27.6578 4.3021 27.6578 4.27578 27.7105 4.19684L27.7697 4.10473L27.5986 4.09157L27.4013 4.07184C27.3881 4.06526 27.3684 4.0192 27.3618 3.96657C27.3486 3.87447 27.3421 3.86789 27.2763 3.83499C27.2322 3.81358 27.1939 3.78202 27.1644 3.74289L27.1249 3.68368L27.2105 3.41394L27.3026 3.1442L27.0921 2.90078C26.9736 2.76921 26.8618 2.63105 26.8486 2.60473C26.8092 2.53894 26.8092 2.47315 26.8486 2.28894L26.8815 2.14421L26.7434 2.00605C26.6447 1.90736 26.5855 1.86131 26.5197 1.84157L26.4276 1.81526L26.3684 1.54552L26.3026 1.24947C26.3026 1.23631 26.3421 1.21657 26.3947 1.20342C26.4736 1.18368 26.5197 1.15078 26.6249 1.03894L26.7565 0.900784L26.7171 0.86131C26.673 0.836685 26.6227 0.825266 26.5723 0.828416C26.5249 0.830141 26.4776 0.821146 26.4342 0.8021C26.4013 0.775784 26.4013 0.769205 26.4473 0.749468C26.5197 0.723152 26.546 0.6771 26.5394 0.61131C26.5328 0.558679 26.5394 0.5521 26.6315 0.525784C26.796 0.479731 26.7894 0.479731 26.7434 0.4271C26.6776 0.348152 26.4802 0.249468 26.3749 0.23631C26.3223 0.203416 26.2763 0.216573 26.2171 0.242889ZM12.5592 1.84815C12.5516 1.8716 12.5472 1.89593 12.546 1.92052C12.546 1.97315 12.5328 1.97315 12.4736 1.91394L12.4276 1.86789L12.296 1.93368C12.1184 2.02578 11.9473 2.13763 11.9276 2.17052C11.9013 2.25605 11.9802 2.32842 12.1578 2.38763C12.2697 2.4271 12.2763 2.44026 12.1973 2.49947C12.1381 2.54552 12.1184 2.5521 12.0526 2.53894C11.9276 2.51921 11.7499 2.51921 11.7039 2.5521C11.6513 2.57842 11.6249 2.65078 11.6381 2.72315C11.6447 2.77578 11.6513 2.77578 11.7565 2.77578C11.9078 2.77578 11.9934 2.82842 11.9934 2.93368C11.9934 2.99289 11.9802 3.02578 11.9276 3.07842C11.8618 3.15078 11.8552 3.15078 11.7565 3.13763C11.6315 3.12447 11.6184 3.13763 11.6052 3.26921L11.5986 3.36789L11.7039 3.38105C11.8684 3.40078 11.9868 3.47973 12.1513 3.68368C12.3157 3.88105 12.4407 3.97315 12.5526 3.99289C12.5986 3.99947 12.7171 3.97973 12.8421 3.94684C13.1052 3.88105 13.296 3.86131 13.3749 3.8942C13.4276 3.91394 13.4473 3.91394 13.5197 3.87447C13.5657 3.85473 13.7368 3.78894 13.9013 3.74289C14.2434 3.63763 14.3684 3.58499 14.4671 3.49289C14.6118 3.36131 14.6381 3.16394 14.5526 2.97315C14.4934 2.84815 14.4934 2.78236 14.546 2.74947C14.5986 2.71657 14.5986 2.62447 14.546 2.55868C14.5065 2.50605 14.5065 2.50605 14.4539 2.53894L14.3947 2.57184L14.3815 2.49289C14.3684 2.40736 14.3092 2.32842 14.2434 2.31526C14.1644 2.29552 14.1381 2.32184 14.1184 2.42052C14.0921 2.52578 14.0789 2.53236 14.0526 2.46657C14.0197 2.38763 13.9736 2.37447 13.8947 2.42052L13.8092 2.46657C13.8026 2.47315 13.796 2.45999 13.796 2.44026C13.796 2.37447 13.6842 2.32184 13.5263 2.32842C13.3421 2.32842 13.2894 2.34815 13.2631 2.40736C13.2368 2.47315 13.2105 2.46657 13.2368 2.40078C13.2631 2.33499 13.2631 2.25605 13.2368 2.23631C13.1954 2.22919 13.1532 2.22919 13.1118 2.23631C13.0131 2.24947 13.0065 2.25605 12.9539 2.36789C12.9013 2.47973 12.8881 2.48631 12.8223 2.49289L12.7499 2.49947L12.8092 2.37447C12.9013 2.18368 12.8815 1.98631 12.7565 1.87447C12.671 1.80868 12.5789 1.79552 12.5592 1.84815Z" fill="#36A83A"/>
<path d="M26.8491 7.26307C26.678 7.28281 26.3885 7.36175 26.2241 7.42754C26.1326 7.47115 26.0446 7.52174 25.9609 7.57886C25.7701 7.71702 25.7635 7.76307 25.882 7.88807C25.9609 7.9736 25.9675 7.9736 25.9609 8.09202C25.9543 8.28939 26.007 8.32228 26.1912 8.2236C26.257 8.1907 26.257 8.1907 26.2899 8.23675C26.3228 8.28281 26.3228 8.28939 26.2964 8.34202C26.2635 8.41439 26.257 8.61833 26.2899 8.8157C26.3162 8.98018 26.2964 9.05912 26.2109 9.0986C26.0925 9.15123 25.9675 9.08544 25.8293 8.88807L25.7372 8.76307H25.6056C25.5436 8.76578 25.4815 8.75913 25.4214 8.74333C25.382 8.7236 25.3622 8.73018 25.303 8.80912C25.1368 9.05762 25.0164 9.33393 24.9478 9.62491L24.9938 9.77623C25.0135 9.82886 25.0464 9.96702 25.0662 10.0854C25.0925 10.2762 25.1056 10.3091 25.1583 10.3618C25.2175 10.421 25.2175 10.421 25.3951 10.4078C25.5991 10.3881 25.5991 10.3881 25.5991 10.5525C25.5991 10.6118 25.5793 10.6841 25.553 10.7499C25.5135 10.842 25.507 10.8683 25.5135 10.9868L25.5267 11.1183L25.4478 11.1381C25.3688 11.1578 25.3688 11.1578 25.3359 11.0854L25.303 11.0131L25.132 11.0262C24.8688 11.046 24.6451 11.0789 24.4741 11.1249C24.2899 11.171 24.2767 11.1644 24.0793 10.9933C24.0004 10.9275 23.9412 10.8881 23.9083 10.8881C23.8228 10.8881 23.507 11.0131 23.3096 11.1249L22.8885 11.3618C22.7635 11.4341 22.6254 11.5065 22.5728 11.5262C22.5201 11.546 22.428 11.6052 22.3622 11.671C22.257 11.7696 22.2504 11.7762 22.2504 11.7302C22.2504 11.6512 22.2043 11.5986 22.0925 11.546L21.9806 11.4933C21.9741 11.4868 21.9938 11.467 22.0201 11.4341C22.0464 11.4012 22.0728 11.3618 22.0728 11.3354C22.0728 11.2565 21.9741 11.0657 21.9083 11.0262C21.8293 10.9736 21.8162 10.9802 21.7438 11.046C21.6714 11.1118 21.6649 11.1841 21.7306 11.217C21.7964 11.2499 21.7899 11.2696 21.7175 11.3289C21.5728 11.4473 21.3359 11.5065 21.2043 11.4604C21.1649 11.4473 21.1517 11.4539 21.0991 11.546C21.0399 11.6446 21.0399 11.6446 20.9675 11.6315C20.9397 11.622 20.9111 11.6154 20.882 11.6118C20.8754 11.6118 20.8688 11.5789 20.8688 11.5394C20.8688 11.467 20.8688 11.467 20.7372 11.4275L20.507 11.3618C20.4478 11.3486 20.4017 11.3289 20.4017 11.3223C20.4081 11.2995 20.4169 11.2774 20.428 11.2565C20.4451 11.2147 20.454 11.17 20.4543 11.1249C20.4543 11.046 20.4478 11.046 20.3359 10.9868L20.1912 10.9275C20.178 10.9275 20.2175 10.8618 20.2899 10.7828C20.4149 10.6315 20.5728 10.3749 20.632 10.217C20.6583 10.1315 20.678 10.1183 20.8228 10.0394C21.0333 9.92754 21.0201 9.88149 20.7504 9.82886C20.6912 9.8157 20.6385 9.80254 20.6254 9.78939C20.6122 9.77623 20.632 9.69728 20.6714 9.5986C20.7307 9.4407 20.7701 9.17097 20.7438 9.17097C20.6978 9.17097 20.5333 9.28939 20.5004 9.33544C20.4741 9.38807 20.4609 9.39465 20.3688 9.39465L20.1451 9.40781L20.0201 9.42097L19.9214 9.5657L19.8162 9.73675C19.803 9.78939 19.8688 9.79597 19.9346 9.74991C19.9814 9.72141 20.0335 9.70263 20.0878 9.69472C20.1421 9.68681 20.1974 9.68992 20.2504 9.70386C20.2964 9.71702 20.3359 9.73675 20.3359 9.74333C20.3359 9.76965 20.1583 9.8486 20.0662 9.86175C19.9954 9.86744 19.9241 9.86077 19.8556 9.84202C19.7899 9.82228 19.7306 9.8157 19.7241 9.82228C19.712 9.96448 19.7076 10.1072 19.7109 10.2499C19.7109 10.6512 19.7109 10.671 19.7504 10.7433C19.7899 10.8091 19.7899 10.8486 19.7899 11.0065C19.7899 11.2104 19.8293 11.3552 19.9149 11.4933C19.9543 11.5591 19.9543 11.5723 19.9346 11.6315C19.9017 11.7104 19.8228 11.7565 19.7833 11.717C19.7438 11.6775 19.7109 11.7039 19.7109 11.7828C19.7109 11.8223 19.7043 11.8815 19.6912 11.9144C19.6714 11.967 19.6649 11.9802 19.5991 11.9802C19.5333 11.9802 19.5135 11.967 19.428 11.8618L19.3293 11.7433L19.2175 11.8354L19.0859 11.9604C19.0728 11.9868 19.053 11.9868 18.9938 11.9802C18.8425 11.9407 18.4872 12.0131 18.3622 12.1118C18.303 12.1578 18.303 12.1512 18.3425 12.4078C18.3491 12.4736 18.3425 12.4999 18.3096 12.546C18.2701 12.5986 18.257 12.6052 18.1649 12.5986L18.0662 12.592L18.0464 12.4078L18.0267 12.2236L17.9609 12.3354L17.7964 12.6249C17.6714 12.842 17.6122 12.9144 17.4214 13.046C17.257 13.1644 17.1583 13.2499 17.1583 13.2828C16.9675 13.3507 16.7826 13.4343 16.6056 13.5328C16.5974 13.5398 16.5869 13.5436 16.576 13.5436C16.5652 13.5436 16.5547 13.5398 16.5464 13.5328C16.507 13.5065 16.1912 13.5328 16.1122 13.5657C16.053 13.592 16.0267 13.6446 15.9412 13.8749C15.8491 14.1249 15.7701 14.2104 15.5596 14.2762C15.4938 14.296 15.4675 14.296 15.4149 14.2762C15.3359 14.2433 15.2899 14.2631 15.1846 14.421C15.0859 14.5591 15.0399 14.5723 14.9149 14.5065C14.8228 14.4539 14.7899 14.3946 14.7833 14.2696L14.7767 14.1644L14.678 14.1907C14.5859 14.217 14.5793 14.217 14.507 14.1775C14.4214 14.1249 14.3885 14.1315 14.3162 14.2302C14.2836 14.2833 14.2653 14.3438 14.263 14.4061C14.2607 14.4683 14.2745 14.5301 14.303 14.5854C14.3359 14.6446 14.3359 14.671 14.3228 14.7565C14.3118 14.8099 14.2917 14.8611 14.2635 14.9078C14.2241 14.9473 14.2109 14.9539 14.0333 14.9407L13.8162 14.921C13.7842 14.8931 13.7574 14.8596 13.7372 14.8223L13.6846 14.7302L13.2241 14.7433L12.7635 14.7565L12.7109 14.8223C12.6889 14.8502 12.6712 14.8813 12.6583 14.9144C12.6583 14.9275 12.6978 14.9604 12.7372 14.9868L12.8228 15.0328L12.7372 15.0723L12.6057 15.1249C12.5793 15.1315 12.5596 15.1446 12.5596 15.1578C12.5596 15.2039 12.6188 15.296 12.6912 15.3683C12.7701 15.4407 12.7701 15.4473 12.8885 15.4341C12.9872 15.421 13.0135 15.4275 13.1057 15.4802C13.2307 15.5525 13.3359 15.6907 13.428 15.8946C13.4807 16.0131 13.507 16.0525 13.5662 16.0789L13.6451 16.1249C13.6517 16.1315 13.632 16.171 13.5991 16.217L13.5464 16.3091L13.6057 16.4473C13.6517 16.546 13.6714 16.6315 13.6978 16.8223C13.7109 16.9604 13.7372 17.1249 13.757 17.1907C13.7833 17.3091 13.7833 17.3091 13.7307 17.3881C13.6649 17.4868 13.5201 17.8223 13.4083 18.1052C13.3293 18.3157 13.3162 18.342 13.1649 18.4999C13.0399 18.6381 12.7701 18.8683 12.678 18.9275C12.6237 18.9276 12.5699 18.9164 12.5201 18.8946L12.1057 18.7762C11.7886 18.7202 11.4809 18.6206 11.1912 18.4802C10.928 18.342 10.7635 18.2894 10.6714 18.3091C10.6261 18.3116 10.5808 18.3025 10.5399 18.2828C10.4588 18.2515 10.3751 18.2273 10.2899 18.2104C10.1478 18.1951 10.0143 18.1352 9.90828 18.0394C9.84249 17.9933 9.79644 17.967 9.74381 17.967C9.64512 17.967 9.61881 17.9802 9.55302 18.0789L9.49381 18.1644L9.31618 18.1775C9.05302 18.1973 8.96749 18.2565 8.90828 18.4473C8.88197 18.5196 8.88855 18.5328 8.9346 18.6183C8.95799 18.6596 8.9757 18.7039 8.98723 18.7499C8.96751 18.8043 8.93607 18.8537 8.89512 18.8946C8.84249 18.9604 8.79644 19.0262 8.78986 19.0525C8.7767 19.092 8.70433 19.1578 8.37539 19.4078C8.29644 19.467 8.23065 19.5262 8.23065 19.5328L8.27012 19.6249C8.32933 19.7236 8.3096 19.7828 8.17802 19.8881C8.00039 20.0328 7.95433 20.092 7.94776 20.1973C7.94118 20.2894 7.92144 20.3091 7.42802 20.842C7.14512 21.1446 6.91486 21.4012 6.91486 21.4144L6.94776 21.5591C6.98065 21.7039 7.03328 21.8091 7.10565 21.9012C7.15828 21.967 7.15828 21.967 7.12539 22.0394C7.10565 22.0789 7.04644 22.1446 6.98723 22.1973C6.87539 22.2894 6.85565 22.3354 6.90828 22.421C6.96749 22.5131 6.92802 22.5986 6.74381 22.8025C6.64512 22.9144 6.57933 22.9933 6.59249 23.0065L7.08591 23.1118L7.5596 23.1973L7.65828 23.296C7.71091 23.3486 7.82933 23.4473 7.92144 23.5131C8.21091 23.7302 8.34249 23.9012 8.38197 24.1315C8.40828 24.3025 8.55302 24.3223 9.0596 24.2236C9.40114 24.1367 9.75591 24.1144 10.1057 24.1578C10.2833 24.1841 10.3491 24.1973 10.382 24.2302C10.4346 24.2828 10.4741 24.2828 10.5399 24.2236C10.5793 24.1907 10.6254 24.171 10.7307 24.1644C10.8359 24.1578 10.9412 24.1249 11.178 24.0262C11.4063 23.9278 11.6416 23.8465 11.882 23.7828C11.9412 23.7499 11.9412 23.7499 11.9346 23.6644L11.9214 23.5789L12.053 23.4868C12.1254 23.4341 12.2964 23.3354 12.428 23.2631C12.632 23.1447 12.6714 23.1183 12.6978 23.0591C12.7504 22.9275 12.7504 22.8091 12.7043 22.6381C12.6385 22.4078 12.6451 22.2696 12.7241 22.1315C12.8096 21.9868 13.007 21.7828 13.303 21.546C13.4346 21.4407 13.5925 21.3025 13.6583 21.2368C13.8162 21.0854 13.8688 21.0525 14.053 21.0328C14.1846 21.0131 14.2504 20.9868 14.5399 20.842L14.8754 20.671H15.0728C15.178 20.671 15.2767 20.6644 15.2899 20.6512C15.303 20.6446 15.3293 20.592 15.3425 20.5394C15.3688 20.4473 15.3754 20.4407 15.4412 20.4275C15.5333 20.4078 15.5662 20.3618 15.5662 20.2631C15.5662 20.2104 15.5596 20.1841 15.5333 20.1775C15.4938 20.1644 15.4741 20.0854 15.4741 19.9144C15.4741 19.6775 15.5925 19.4604 15.7701 19.3618L15.8557 19.3157L16.0793 19.421C16.428 19.5854 16.428 19.5854 16.5596 19.5525L16.6978 19.5262C16.7109 19.5262 16.7701 19.5723 16.8293 19.6315C16.8885 19.6907 16.9675 19.7499 17.007 19.7631C17.0925 19.8025 17.4083 19.8025 17.4741 19.7631C17.5004 19.7433 17.6517 19.592 17.8096 19.421C18.0596 19.1447 18.0925 19.1052 18.1451 19.1183C18.2109 19.1315 18.3556 19.0657 18.5925 18.921L18.8556 18.7631L18.9346 18.717L19.0399 18.7696L19.2372 18.8486C19.3293 18.8749 19.3359 18.8815 19.4872 19.1183C19.6649 19.3946 19.6912 19.4736 19.7109 19.7104C19.7306 19.9868 19.803 20.0854 20.3359 20.4604C20.5728 20.6315 20.6714 20.717 20.8228 20.8815C21.0596 21.1512 21.1385 21.1973 21.3096 21.1907C21.4214 21.1907 21.4543 21.1973 21.5267 21.2499C21.5991 21.296 21.6254 21.3354 21.6846 21.467C21.7504 21.6118 21.7635 21.6315 21.8556 21.671C21.9149 21.6973 22.0267 21.7302 22.1122 21.7499L22.2701 21.7762L22.2767 21.8486C22.2833 21.9473 22.3425 22.1644 22.3688 22.1644L22.5004 22.1907C22.5793 22.2104 22.632 22.2368 22.6978 22.3025C22.8425 22.4341 22.9083 22.592 23.0333 23.0394C23.0925 23.2565 23.0925 23.2499 22.9478 23.3223C22.8885 23.3486 22.8754 23.3683 22.8556 23.4736C22.8425 23.5394 22.8096 23.6512 22.7767 23.7236C22.7306 23.8552 22.7306 23.8552 22.7635 23.8815C22.8425 23.9407 22.9609 23.9078 23.0596 23.7894C23.1056 23.7368 23.1978 23.5065 23.2504 23.3091C23.2833 23.1775 23.3425 23.1183 23.4806 23.0394C23.6254 22.9604 23.632 22.9473 23.6188 22.7894C23.5991 22.5657 23.5925 22.5525 23.5399 22.5525C23.507 22.5525 23.3491 22.4604 23.2306 22.3618C23.1912 22.3354 23.3688 21.9341 23.4806 21.7894L23.5399 21.7236L23.6649 21.7565L23.9083 21.8552C24.0201 21.9144 24.2438 22.1249 24.2899 22.2104C24.3096 22.2499 24.3096 22.2499 24.3425 22.2104C24.3885 22.1446 24.4017 22.0065 24.3622 21.9144C24.2964 21.7368 24.178 21.6578 23.5333 21.342C23.2942 21.2371 23.0671 21.107 22.8556 20.9539C22.8556 20.9407 22.8951 20.8815 22.9412 20.8157L23.0267 20.6907C23.0267 20.6578 22.8556 20.6315 22.6451 20.6315C22.4609 20.6315 22.3885 20.6249 22.2964 20.592C21.9412 20.4604 21.7175 20.171 21.6583 19.7499C21.6122 19.4604 21.5662 19.3815 21.2504 19.1249C21.1623 19.0558 21.0788 18.9811 21.0004 18.9012C20.9455 18.8434 20.9097 18.7701 20.8979 18.6912C20.8862 18.6124 20.899 18.5318 20.9346 18.4604C20.9741 18.3618 20.9741 18.3486 20.9412 18.2697C20.9017 18.1578 20.9017 17.9736 20.9478 17.9341C21.0399 17.8642 21.1366 17.8005 21.2372 17.7433L21.4938 17.5854L21.5793 17.6249C21.6254 17.6446 21.6912 17.671 21.7175 17.671C21.7438 17.671 21.7701 17.6841 21.7701 17.6907L21.7043 17.8223L21.6451 17.9473L21.6978 18.0591L21.7701 18.2631C21.7833 18.3223 21.7964 18.3486 21.8162 18.342C21.8838 18.2767 21.9336 18.1952 21.9609 18.1052C21.9609 18.0854 21.9872 18.0328 22.0201 17.9999L22.0793 17.9341L22.132 18.0065C22.1846 18.0789 22.2306 18.1249 22.3359 18.2236C22.3951 18.2762 22.3951 18.2762 22.3951 18.4604C22.3951 18.5591 22.4017 18.6578 22.4149 18.6775C22.428 18.6973 22.4741 18.7433 22.5267 18.7828C22.5859 18.8289 22.6188 18.8749 22.632 18.921C22.6451 18.9999 22.7372 19.0789 22.882 19.1447C22.9806 19.1907 22.9938 19.2039 23.0135 19.2762L23.0399 19.3552H23.1517C23.3622 19.3552 23.5267 19.4407 23.7767 19.671C23.882 19.7696 23.9346 19.8091 24.007 19.8289C24.1583 19.8618 24.4543 20.046 24.5925 20.1841C24.6649 20.2565 24.6714 20.2565 24.8162 20.217C24.8622 20.2039 24.8688 20.2104 24.8688 20.2565C24.8688 20.296 24.882 20.3091 24.9149 20.3223C24.9609 20.3354 24.9609 20.342 24.9543 20.4933C24.9478 20.6446 24.9478 20.6644 25.0333 20.9012L25.1254 21.1446L25.0596 21.2828L24.9938 21.421L25.0267 21.5262C25.0728 21.671 25.178 21.8157 25.3359 21.9539C25.5399 22.1315 25.5859 22.1907 25.5991 22.3025C25.6056 22.3749 25.6254 22.4144 25.6714 22.4539C25.7701 22.5394 25.882 22.592 26.053 22.6315L26.2175 22.6644L26.1649 22.7039C26.1301 22.7317 26.1029 22.7679 26.0859 22.8091C26.0596 22.8683 26.0596 22.8881 26.0859 22.9407C26.1188 23.0131 26.2175 23.092 26.3096 23.1249C26.4017 23.1578 26.6846 23.1512 26.9609 23.1183C27.2701 23.0789 27.3951 23.0789 27.3951 23.1183C27.3951 23.1841 27.3359 23.2697 27.2767 23.2894C27.1912 23.3223 27.1122 23.3157 26.8885 23.2696C26.632 23.217 26.4346 23.217 26.3491 23.2696C26.3 23.3064 26.2603 23.3541 26.2328 23.4089C26.2054 23.4637 26.1912 23.5242 26.1912 23.5854C26.1912 23.7302 26.2372 23.7828 26.4346 23.842C26.5399 23.8749 26.6056 23.9078 26.6188 23.9341C26.632 23.9539 26.6451 24.0854 26.6451 24.2236C26.6517 24.4407 26.6583 24.4802 26.6978 24.5196C26.7235 24.5479 26.7551 24.5701 26.7903 24.5849C26.8255 24.5996 26.8635 24.6066 26.9017 24.6052C26.9675 24.5986 27.0464 24.4868 27.0464 24.4012C27.0464 24.3683 27.053 24.342 27.0596 24.342L27.2043 24.5394C27.2767 24.6446 27.3425 24.7368 27.3556 24.7368C27.3885 24.7368 27.428 24.6446 27.4412 24.5394L27.4609 24.4275C27.4675 24.421 27.5333 24.4802 27.6057 24.5525C27.6912 24.6381 27.757 24.6907 27.7833 24.6907C27.8228 24.6907 27.8228 24.6841 27.8162 24.5262C27.8096 24.3289 27.7635 24.2433 27.6188 24.1315C27.4412 23.9868 27.4478 24.0065 27.4609 23.8946L27.4741 23.7894L27.6517 23.8815C27.9083 24.0131 28.0464 24.0131 28.0464 23.8618C28.0464 23.7894 27.9872 23.7433 27.7964 23.671L27.6517 23.6118V23.3025L27.7043 23.3354C27.7372 23.3552 27.803 23.3749 27.8556 23.3881C27.9149 23.4012 27.9938 23.4473 28.0662 23.5131C28.2043 23.6315 28.2635 23.6512 28.3293 23.6118C28.4083 23.5591 28.4017 23.5196 28.2767 23.3815C28.2274 23.3344 28.1873 23.2787 28.1583 23.217C28.1583 23.1512 28.007 23.0262 27.7701 22.8881C27.4807 22.7236 27.3556 22.6118 27.2701 22.4078C27.2043 22.2499 27.178 22.1446 27.2043 22.1446C27.2109 22.1446 27.2899 22.1644 27.3688 22.1973C27.5399 22.2565 27.5728 22.2631 27.5991 22.2104C27.632 22.1512 27.5728 22.0854 27.3491 21.9407C27.2438 21.8749 27.1188 21.7762 27.0793 21.7236C26.9872 21.6183 26.9872 21.5854 27.0201 21.3289C27.0464 21.1249 27.053 21.1118 27.1056 21.1118C27.1649 21.1118 27.2372 21.2104 27.382 21.4933C27.5399 21.8025 27.6583 21.9078 27.7306 21.796C27.7701 21.7368 27.7701 21.6249 27.7306 21.592C27.6846 21.5525 27.6188 21.4473 27.6385 21.4473C27.6517 21.4473 27.7175 21.4999 27.7833 21.5723C27.9149 21.7039 27.9543 21.717 28.0201 21.6644C28.0596 21.6315 28.0728 21.6512 27.8425 21.3683C27.7372 21.2368 27.803 21.2368 28.007 21.3749C28.1517 21.467 28.1846 21.4868 28.2043 21.4604C28.2438 21.3881 28.2109 21.3223 28.0793 21.1841C28.0201 21.1249 28.0004 21.1052 28.0399 21.1315C28.1254 21.1973 28.1583 21.171 28.2175 20.9933C28.2438 20.9144 28.2833 20.8289 28.303 20.8025C28.3491 20.7499 28.553 20.671 28.632 20.671C28.6649 20.671 28.757 20.6512 28.8491 20.6249C28.9741 20.592 29.0399 20.5854 29.1649 20.592C29.257 20.5986 29.3359 20.592 29.3622 20.5789C29.3885 20.5657 29.4149 20.5591 29.4214 20.5657C29.4116 20.6299 29.3916 20.692 29.3622 20.7499C29.2964 20.9144 29.2767 20.9999 29.3096 20.9999C29.468 20.9149 29.6141 20.8087 29.7438 20.6841C29.803 20.6183 29.8162 20.592 29.8096 20.5394C29.803 20.4868 29.8162 20.467 29.9083 20.4078C30.0859 20.2894 30.1714 20.2565 30.4609 20.171C30.7964 20.0789 30.8425 20.0525 30.8688 19.967L30.8951 19.9012L30.6649 19.7828C30.4085 19.6509 30.1822 19.4672 30.0004 19.2433L29.8556 19.092L29.9214 18.967C29.9806 18.8486 29.9872 18.8223 29.9938 18.6315C30.0004 18.4868 30.0201 18.3486 30.053 18.1907L30.1056 17.9604L30.0662 17.6249C30.0424 17.5103 30.0357 17.3928 30.0464 17.2762L30.2701 17.0525L30.4741 16.842L30.4478 16.7762L30.2833 16.3618C30.2899 16.3552 30.3359 16.3683 30.3951 16.3815C30.4609 16.3946 30.5004 16.3946 30.5135 16.3815L30.5596 16.1775C30.6122 15.8354 30.7372 15.6249 30.9543 15.5262C31.0333 15.4868 31.0859 15.4802 31.2504 15.4802H31.4478L31.4609 15.0065L31.4872 13.9012L31.5004 13.2696L31.4478 13.3025C31.3754 13.3552 31.178 13.3354 30.9083 13.2565C30.5399 13.1446 30.4609 13.1381 30.3096 13.1907C30.1385 13.2433 30.132 13.2433 30.0201 13.1841L29.8425 13.1118L29.757 13.0854L29.7767 12.9736C29.7964 12.8618 29.7964 12.8618 29.7372 12.796C29.689 12.7366 29.6552 12.6667 29.6385 12.592C29.5991 12.4604 29.5662 12.4144 29.428 12.3091C29.3951 12.2828 29.3885 12.2499 29.3754 12.0657L29.3622 11.8486L29.4872 11.9341L29.632 12.0394C29.6649 12.0723 29.7109 12.0591 29.7438 12.0065C29.765 11.9773 29.7919 11.9527 29.8228 11.9341C29.928 11.8946 29.8556 11.671 29.6978 11.5394L29.4872 11.3683C29.4219 11.318 29.3623 11.2607 29.3096 11.1973L29.2504 11.1183L29.257 10.8025L29.2635 10.4868L29.2043 10.4144C29.132 10.3223 29.0464 10.2696 28.7833 10.1512C28.6819 10.1068 28.5868 10.0493 28.5004 9.98018C28.4017 9.88807 27.9741 9.38807 27.9083 9.28939L27.8622 9.2236L27.9017 9.09202C28.0464 8.64465 27.928 8.48018 27.4346 8.41439C27.3552 8.40303 27.2777 8.3809 27.2043 8.3486L27.1188 8.30254L27.2306 8.20386C27.3556 8.0986 27.428 7.99991 27.4149 7.96702C27.3937 7.94207 27.3693 7.91996 27.3425 7.90123C27.3064 7.87865 27.2712 7.85451 27.2372 7.82886C27.178 7.78939 27.178 7.75649 27.2372 7.69728C27.2635 7.67097 27.2899 7.63149 27.2964 7.5986L27.3425 7.46702C27.3754 7.39465 27.3688 7.38807 27.3359 7.3486C27.238 7.29864 27.13 7.27164 27.0201 7.26965C27.0135 7.24333 26.928 7.25649 26.8491 7.26307ZM14.6846 7.89465C14.6333 7.9136 14.5863 7.94269 14.5464 7.98018C14.4862 8.06124 14.4477 8.15636 14.4346 8.25649C14.4346 8.29596 14.4412 8.30254 14.5596 8.28939C14.6903 8.27957 14.8145 8.22894 14.9149 8.14465C14.9642 8.07622 14.9854 7.99143 14.9741 7.90781C14.9609 7.86175 14.9543 7.85518 14.8688 7.85518C14.8096 7.86175 14.7306 7.87491 14.6846 7.89465Z" fill="#36A83A"/>
<path d="M15.2961 8.08478C15.1974 8.09794 15.079 8.19663 14.8093 8.47294L14.6119 8.68347L14.5527 8.61768C14.4672 8.52557 14.3817 8.49268 14.2895 8.52557C14.2501 8.53873 14.2238 8.55847 14.2238 8.56505L14.3027 8.7361C14.3553 8.84136 14.4014 8.90715 14.4474 8.93347L14.5132 8.9861L14.329 9.09136C14.1119 9.20978 13.9803 9.33478 13.9474 9.45978C13.9211 9.58478 13.9343 9.59794 14.0527 9.59794C14.2369 9.59794 14.3356 9.61768 14.3356 9.66373C14.3356 9.68347 14.2698 9.80847 14.1843 9.94663L14.0198 10.2164C14.0067 10.2361 14.0198 10.2361 14.0659 10.2164C14.2698 10.144 14.3553 10.1308 14.3751 10.1506C14.408 10.1835 14.3488 10.2822 14.2567 10.3545C14.1777 10.4203 14.158 10.4598 14.204 10.5124C14.283 10.6111 14.3882 10.6374 14.5988 10.5848C14.7698 10.5387 14.829 10.5387 14.8685 10.5716C14.9277 10.6243 14.9014 10.7427 14.7961 10.8874L14.7567 10.9466L14.7961 11.0782C14.8685 11.3019 14.8553 11.3677 14.6777 11.5453C14.5527 11.6769 14.5395 11.6769 14.2895 11.5453C14.1974 11.4927 14.1185 11.4664 14.0988 11.4795C14.0593 11.4993 14.0593 11.5979 14.0922 11.7098L14.1185 11.7953L14.0395 11.8019C13.9211 11.8085 13.9211 11.8611 14.0461 11.9466C14.158 12.019 14.1645 12.0453 14.1053 12.144C14.0461 12.2427 13.9409 12.3085 13.7172 12.3808C13.6053 12.4137 13.5067 12.4532 13.5001 12.4598C13.4567 12.5472 13.4257 12.6402 13.408 12.7361C13.4145 12.7558 13.4935 12.769 13.7106 12.7756L14.0067 12.7887L14.0593 12.8545C14.1053 12.9137 14.1185 12.9203 14.2435 12.9203C14.3159 12.9203 14.3751 12.9269 14.3751 12.9335C14.3751 12.9532 14.2435 13.0716 14.1843 13.1045C14.1382 13.1308 14.1119 13.1308 13.954 13.0848C13.8883 13.0619 13.8196 13.0486 13.7501 13.0453C13.7172 13.0585 13.5659 13.2164 13.5198 13.3019C13.4935 13.3348 13.3948 13.3808 13.079 13.4927C12.6645 13.6374 12.6645 13.6374 12.6974 13.6835C12.7895 13.7953 12.9869 13.815 13.3224 13.7295L13.5988 13.6769C13.6448 13.6769 13.6645 13.69 13.6777 13.7295C13.6909 13.7558 13.704 13.7822 13.7172 13.7822L13.829 13.7098C14.0198 13.565 14.1119 13.5453 14.2435 13.6506C14.329 13.7164 14.3882 13.7098 14.6119 13.6374L14.8093 13.5782C14.8159 13.5782 14.8488 13.6177 14.8817 13.6703C14.9606 13.7953 15.0593 13.8743 15.1185 13.8611C15.1711 13.8479 15.2106 13.769 15.2106 13.6703C15.2106 13.6111 15.2172 13.5979 15.2435 13.6111C15.4277 13.6703 15.6382 13.6769 15.8356 13.6308C16.0198 13.5914 16.2764 13.4335 16.2764 13.3611C16.2764 13.315 16.2106 13.269 16.0922 13.2295C16.0264 13.2098 15.9672 13.1769 15.9606 13.1703C15.954 13.1637 15.9869 13.1177 16.0395 13.0782L16.1711 12.9598C16.1909 12.9335 16.2303 12.9137 16.2501 12.9137C16.3553 12.9137 16.6317 12.7295 16.7303 12.5979C16.7698 12.5453 16.7698 12.5322 16.7501 12.4795C16.6995 12.3749 16.6096 12.2945 16.5001 12.2558C16.4067 12.2396 16.3119 12.233 16.2172 12.2361C16.0922 12.2361 16.0067 12.2295 16.0067 12.2164L16.1053 11.9335C16.2764 11.4795 16.2632 11.3019 16.033 11.0782L15.908 10.9532L15.9211 10.8611C15.9343 10.7493 15.9145 10.7295 15.8224 10.7624C15.7567 10.7887 15.6777 10.7624 15.6777 10.7229L15.7567 10.5124C15.8488 10.2756 15.8685 10.19 15.8356 10.1045C15.8093 10.0453 15.7303 9.97952 15.6711 9.97952C15.6398 9.97346 15.6105 9.95991 15.5856 9.94005C15.5535 9.91543 15.518 9.89549 15.4803 9.88084C15.4277 9.8611 15.4277 9.8611 15.454 9.78873C15.5067 9.65715 15.5988 9.54531 15.8817 9.24268C16.1514 8.95978 16.204 8.88742 16.1777 8.81505C16.1514 8.7361 15.908 8.72294 15.5461 8.77557L15.3224 8.80847C15.283 8.80847 15.5132 8.58478 15.7567 8.39399C15.8948 8.28215 16.0198 8.18347 16.0198 8.17031C16.0264 8.16373 16.0198 8.14399 16.0132 8.12426C16.0001 8.09794 15.9343 8.09136 15.6909 8.09136C15.5598 8.07628 15.4276 8.07408 15.2961 8.08478Z" fill="#36A83A"/>
<path d="M13.211 10.025C13.113 10.043 13.0233 10.0913 12.9544 10.1632C12.9215 10.1961 12.8886 10.2158 12.8425 10.2158C12.7636 10.2158 12.6978 10.2816 12.7307 10.3277C12.7439 10.3474 12.7833 10.3606 12.8228 10.3671C12.882 10.3803 12.8886 10.3869 12.8886 10.4395C12.8886 10.4856 12.8754 10.5053 12.8097 10.5316C12.7439 10.5645 12.7241 10.5645 12.6978 10.5448C12.5597 10.4395 12.3031 10.3869 12.1583 10.4395C12.0662 10.4724 11.9544 10.5777 11.9544 10.6237C11.9544 10.6435 11.9741 10.6763 11.9939 10.6895C12.0136 10.7092 12.0399 10.7421 12.0531 10.775C12.086 10.8474 12.0531 10.8803 11.9281 10.9132C11.7702 10.9527 11.757 10.9592 11.757 10.9856C11.757 11.0316 11.836 11.1171 11.8952 11.1566C11.9281 11.1763 12.0136 11.2027 12.0925 11.2158L12.2307 11.2421L12.1189 11.2816C11.9873 11.3277 11.9215 11.3145 11.8886 11.2356C11.8557 11.1632 11.8228 11.1829 11.7833 11.2948L11.7439 11.4066C11.7373 11.4132 11.6912 11.4 11.6452 11.3869L11.5202 11.354C11.4675 11.354 11.4083 11.4263 11.4083 11.4921C11.4083 11.5382 11.4215 11.5579 11.4675 11.5842L11.5268 11.6171L11.4083 11.6435C11.3425 11.6566 11.2768 11.6829 11.2636 11.6961C11.2373 11.7224 11.2636 11.7816 11.3097 11.8277C11.3557 11.8671 11.3491 11.8935 11.2702 11.9921C11.2307 12.0382 11.2044 12.0908 11.211 12.1106C11.2175 12.1303 11.2965 12.1829 11.4083 12.2356L11.6057 12.3277L11.836 12.3079C12.1847 12.275 12.5202 12.229 12.6715 12.1895C12.9544 12.1237 13.2373 11.9724 13.3623 11.8211C13.4939 11.6632 13.586 11.3737 13.5728 11.1961L13.5662 11.0974L13.7504 10.9658L13.9347 10.8342V10.5974C13.9347 10.4132 13.9281 10.3408 13.9018 10.2685C13.8557 10.15 13.8228 10.1303 13.7373 10.1632C13.6912 10.1829 13.6583 10.1829 13.6452 10.1698C13.6087 10.1476 13.5686 10.132 13.5268 10.1237C13.4478 10.104 13.4347 10.0974 13.4412 10.0513C13.4478 10.0053 13.4412 9.99872 13.3689 10.0053C13.3491 9.99214 13.2636 10.0053 13.211 10.025ZM18.8886 19.9395C18.5925 20.1961 18.5531 20.2421 18.5202 20.4066C18.5004 20.4921 18.4807 20.6303 18.4807 20.7224C18.4807 20.8671 18.4873 20.9 18.5333 20.9724C18.5925 21.0711 18.7636 21.1763 18.8294 21.1566C18.8952 21.1369 19.0202 20.9527 19.086 20.7948C19.1847 20.5316 19.2175 20.1763 19.1649 19.979C19.1386 19.8869 19.086 19.8013 19.0597 19.8013C19.0531 19.8013 18.9741 19.8606 18.8886 19.9395ZM18.7439 21.3606C18.6978 21.4 18.5728 21.4856 18.4675 21.5448C18.2175 21.6961 18.211 21.7158 18.211 22.1303C18.211 22.3803 18.2044 22.4658 18.1649 22.6566C18.1123 22.9132 18.0925 23.1303 18.132 23.1698C18.1518 23.1895 18.1781 23.1895 18.257 23.1698C18.336 23.15 18.382 23.1171 18.4675 23.0316C18.5794 22.9132 18.6254 22.9 18.6781 22.9724C18.6912 22.9921 18.711 23.0053 18.7175 23.0053C18.7373 23.0053 18.8097 22.8606 18.8886 22.6369L18.9544 22.4658L18.9018 22.3211C18.836 22.15 18.8425 22.0908 18.9412 22.0316C19.0202 21.979 19.0399 21.8803 19.007 21.6698C18.9873 21.5119 18.9018 21.3013 18.8557 21.2948C18.8155 21.3113 18.7779 21.3335 18.7439 21.3606ZM22.2965 23.7553C22.2373 23.7619 22.0597 23.8079 21.9018 23.8606C21.5531 23.9658 21.4083 23.9658 21.2241 23.8737L21.1123 23.8145L20.9807 23.854L20.7373 23.9198C20.5728 23.9527 20.507 24.0119 20.461 24.15C20.4149 24.2882 20.4281 24.3211 20.5662 24.4395C20.711 24.5579 20.9544 24.6895 21.4281 24.8803L22.0268 25.1303L22.1912 25.2027L22.2373 25.1435C22.336 25.0119 22.3491 24.9724 22.3425 24.7619C22.3228 24.3211 22.3294 24.2158 22.3754 24.15C22.4324 24.0567 22.4641 23.9501 22.4675 23.8408C22.4675 23.729 22.4675 23.729 22.2965 23.7553Z" fill="#36A83A"/>
</g>
</g>
</g>
<defs>
<clipPath id="clip0_26003_52578">
<rect width="38" height="25" fill="white" transform="translate(0 0.210938)"/>
</clipPath>
<clipPath id="clip1_26003_52578">
<rect width="38" height="25" fill="white" transform="translate(0 0.210938)"/>
</clipPath>
<clipPath id="clip2_26003_52578">
<rect width="25" height="25" fill="white" transform="translate(6.5 0.210938)"/>
</clipPath>
</defs>
</svg>
