<svg width="60" height="60" viewBox="0 0 60 60" fill="none" xmlns="http://www.w3.org/2000/svg">
<g clip-path="url(#clip0_26003_69722)">
<g clip-path="url(#clip1_26003_69722)">
<g clip-path="url(#clip2_26003_69722)">
<path d="M47.3205 0.0782467C47.1867 0.155285 47.0689 0.257099 46.9732 0.378247L46.7837 0.58351C46.7679 0.58351 46.7363 0.504562 46.7205 0.409826C46.689 0.204562 46.6416 0.157194 46.4363 0.109826C46.2153 0.0624572 46.1363 0.172984 46.1363 0.504562C46.1363 0.741405 46.1205 0.772984 46.0416 0.772984C45.9444 0.7873 45.8522 0.825253 45.7732 0.88351C45.6784 0.946668 45.5995 0.978247 45.5995 0.962457C45.5837 0.946668 45.5995 0.86772 45.6153 0.772984C45.6784 0.536141 45.6784 0.457194 45.5837 0.362457C45.4574 0.220352 45.2837 0.26772 44.9679 0.504562C44.7311 0.678247 44.6205 0.741405 44.3995 0.772984C44.2399 0.794077 44.0851 0.842129 43.9416 0.915089C43.689 1.0414 43.3416 1.46772 43.2469 1.75193C43.1047 2.16246 42.9469 2.28877 42.6469 2.20983C42.489 2.16246 42.4574 2.17825 42.1416 2.3993C41.6995 2.71509 41.5574 2.87298 41.4942 3.12562C41.4371 3.30641 41.3271 3.46591 41.1784 3.58351C40.9258 3.82035 40.6416 4.15193 40.1047 4.84667C39.9626 5.02035 39.71 5.27298 39.5521 5.41509C39.3469 5.57298 39.2205 5.73088 39.1732 5.8414C39.1258 5.95193 38.8574 6.2993 38.5732 6.61509C38.289 6.93088 38.0205 7.27825 37.9574 7.40456C37.8626 7.62562 37.8469 7.86246 37.91 7.98877C37.9416 8.03614 37.8942 8.0993 37.689 8.20983C37.3258 8.41509 37.1995 8.62035 37.2311 8.96772C37.2469 9.10983 37.2942 9.28351 37.3258 9.34667C37.4047 9.47298 37.389 9.50456 37.0732 9.70983C36.8047 9.88351 36.6784 10.0414 36.71 10.1993C36.7258 10.3414 36.71 10.3572 36.2679 10.6414C35.4469 11.1625 35.0047 11.6204 34.9416 12.0151C34.8942 12.3625 34.9574 12.3782 35.3679 12.0467C36.0153 11.5256 36.2837 11.4309 36.3153 11.7151C36.3311 11.8256 36.2837 11.8888 36.0942 12.0782C35.6837 12.473 35.4469 12.5519 35.0047 12.4572C34.7679 12.4098 34.7047 12.4098 34.4205 12.5046C33.4075 12.9161 32.4521 13.4575 31.5784 14.1151C30.8679 14.5888 30.7732 14.6835 30.8047 14.7625C30.8679 14.9677 30.8837 15.2361 30.8521 15.3625C30.7969 15.4974 30.7165 15.6206 30.6153 15.7256C30.4695 15.875 30.3802 16.0703 30.3626 16.2782L30.2521 16.9256C30.1732 17.3677 30.189 17.4151 30.5047 17.4151C30.8205 17.4151 30.9626 17.4625 30.9626 17.5572C30.9626 17.6046 30.7574 17.8414 30.5047 18.094C30.0942 18.5046 30.0626 18.5519 30.11 18.6309C30.1416 18.6782 30.2205 18.7414 30.2995 18.7888C30.4258 18.8519 30.489 18.8361 30.8363 18.694C30.9153 18.6467 30.9311 18.6625 30.8995 18.8519C30.8679 19.0414 30.8048 19.1361 30.4574 19.4204C30.3153 19.5467 30.2837 19.6414 30.2995 20.0519C30.3153 20.3046 30.489 20.494 30.8521 20.6204L31.3258 20.8256C31.7363 21.0782 32.589 20.6519 33.9626 19.5309C34.4363 19.1361 34.4837 19.0888 34.6416 18.7256L34.8469 18.3467L34.9574 18.5677C35.0205 18.7256 35.0521 18.8993 35.0521 19.1519C35.0521 19.6098 35.1626 20.273 35.289 20.6519C35.3363 20.8098 35.4784 21.0782 35.589 21.2519C35.7626 21.5204 35.7942 21.5993 35.7469 21.694C35.6679 21.9151 35.6995 22.0098 35.889 22.1361C35.9995 22.2151 36.0784 22.3098 36.0784 22.373C36.0784 22.5309 36.2837 22.8625 36.5047 23.0677C36.71 23.2572 36.71 23.2572 36.7416 23.6361C36.8047 24.4098 36.8679 25.0572 36.8995 25.0888C36.9153 25.1046 37.1047 25.0888 37.3258 25.0414C37.7837 24.9467 37.7521 24.994 37.8311 24.3151C37.8626 24.094 37.91 23.8572 37.9416 23.794C38.0047 23.6835 38.0205 23.6677 38.3679 23.6677C38.5758 23.683 38.7838 23.6393 38.9679 23.5414C39.5679 23.2098 40.2469 22.1361 40.2469 21.5204L40.1679 20.6993C40.0416 19.7361 40.0732 19.673 40.9574 19.1677C41.4784 18.8677 41.6995 18.694 41.7311 18.5677L41.9521 18.0309C42.2047 17.4625 42.2047 17.4151 41.9521 17.3519C41.6047 17.2572 41.6047 17.2572 41.7942 17.0677C41.8666 16.9945 41.9255 16.9089 41.9679 16.8151C41.9679 16.7204 41.81 16.6572 41.3363 16.5782C40.6732 16.4677 40.689 16.4677 40.6258 16.3414C40.5469 16.1677 40.5626 15.8677 40.6416 15.4098L40.7048 14.794C40.7048 14.5888 40.7521 14.494 41.2258 13.7677C41.9248 12.636 42.6948 11.5496 43.5311 10.5151C43.6732 10.3572 43.7521 10.3098 43.8311 10.3414C43.9574 10.373 43.9574 10.373 43.7995 9.80456C43.7388 9.62402 43.6914 9.43933 43.6574 9.25193C43.6574 9.14141 43.7363 9.09404 44.1942 8.96772C44.7153 8.80983 44.6995 8.82561 44.5732 8.60456C44.3837 8.32035 44.4153 8.25719 44.7942 7.97298L45.1416 7.72035L45.5521 7.92562L46.1679 8.22562C46.3574 8.32035 46.6416 8.57298 46.6416 8.66772C46.6416 8.6993 46.5784 8.71509 46.4995 8.74667C46.31 8.79404 46.0258 9.07825 45.8521 9.39404C45.71 9.67825 45.489 10.3098 45.4416 10.6098C45.4258 10.7677 45.3942 10.8151 45.2995 10.8309C45.1258 10.8467 45.0626 10.9888 45.1732 11.1151C45.2521 11.2098 45.2521 11.2098 45.11 11.2888C44.9413 11.4244 44.7878 11.578 44.6521 11.7467C44.4784 11.9519 44.2416 12.173 44.1469 12.2519C43.9732 12.3625 43.9416 12.394 43.9416 12.5204C43.9265 12.6571 43.8892 12.7904 43.8311 12.9151C43.7205 13.1519 43.7205 13.1677 43.7837 13.594L43.91 14.4782C43.9732 14.9993 44.0679 15.5993 44.1311 15.8204C44.2416 16.2151 44.3047 16.2782 44.9363 16.6098C45.2837 16.7835 45.5837 16.9572 45.6153 16.9888C45.6626 17.0204 45.8047 17.0361 45.9942 17.0204C46.4521 16.9888 46.7837 16.8151 47.7469 16.073C48.6626 15.3782 49.0574 15.1414 49.4363 15.094C49.7363 15.0467 49.9258 14.9046 50.6047 14.1625C51.11 13.6256 51.3942 13.1993 51.6942 12.5677C51.9311 12.0467 51.9784 11.7151 51.8363 11.3993C51.7428 11.2005 51.6089 11.0234 51.443 10.8793C51.2772 10.7352 51.0831 10.6273 50.8732 10.5625L50.6837 10.5151L50.7469 10.3414C50.7942 10.2151 50.81 10.0888 50.7942 9.97825C50.7784 9.82035 50.7784 9.75719 50.9048 9.56772L51.0469 9.34667L50.6363 9.31509L50.1626 9.26772C50.1311 9.25193 50.0837 9.14141 50.0679 9.01509C50.0363 8.79404 50.0205 8.77825 49.8626 8.6993C49.7569 8.64791 49.6649 8.57215 49.5942 8.47825L49.4995 8.33614L49.7047 7.68877L49.9258 7.0414L49.4205 6.45719C49.1363 6.1414 48.8679 5.80983 48.8363 5.74667C48.7416 5.58877 48.7416 5.43088 48.8363 4.98877L48.9153 4.64141L48.5837 4.30983C48.3469 4.07298 48.2048 3.96246 48.0469 3.91509L47.8258 3.85193L47.6837 3.20456L47.5258 2.49404C47.5258 2.46246 47.6205 2.41509 47.7469 2.38351C47.9363 2.33614 48.0469 2.25719 48.2995 1.98877L48.6153 1.65719L48.5205 1.56246C48.4147 1.50336 48.2941 1.47595 48.1732 1.48351C48.0593 1.48765 47.946 1.46606 47.8416 1.42035C47.7626 1.35719 47.7626 1.3414 47.8732 1.29404C48.0469 1.23088 48.11 1.12035 48.0942 0.962457C48.0784 0.836141 48.0942 0.820352 48.3153 0.757194C48.71 0.646668 48.6942 0.646668 48.5837 0.520352C48.4258 0.330878 47.9521 0.0940362 47.6995 0.0624572C47.5732 -0.0164902 47.4626 0.0150888 47.3205 0.0782467ZM14.5416 3.93088C14.5236 3.98715 14.5129 4.04554 14.51 4.10456C14.51 4.23088 14.4784 4.23088 14.3363 4.08877L14.2258 3.97825L13.91 4.13614C13.4837 4.35719 13.0732 4.62562 13.0258 4.70456C12.9626 4.90983 13.1521 5.08351 13.5784 5.22562C13.8469 5.32035 13.8626 5.35193 13.6732 5.49404C13.5311 5.60456 13.4837 5.62035 13.3258 5.58877C13.0258 5.5414 12.5995 5.5414 12.489 5.62035C12.3626 5.68351 12.2995 5.85719 12.3311 6.03088C12.3469 6.15719 12.3626 6.15719 12.6153 6.15719C12.9784 6.15719 13.1837 6.28351 13.1837 6.53614C13.1837 6.67825 13.1521 6.75719 13.0258 6.88351C12.8679 7.05719 12.8521 7.05719 12.6153 7.02561C12.3153 6.99404 12.2837 7.02562 12.2521 7.3414L12.2363 7.57825L12.489 7.60983C12.8837 7.65719 13.1679 7.84667 13.5626 8.33614C13.9574 8.80983 14.2574 9.03088 14.5258 9.07825C14.6363 9.09404 14.9205 9.04667 15.2205 8.96772C15.8521 8.80983 16.31 8.76246 16.4995 8.8414C16.6258 8.88877 16.6732 8.88877 16.8469 8.79404C16.9574 8.74667 17.3679 8.58877 17.7626 8.47825C18.5837 8.22561 18.8837 8.0993 19.1205 7.87825C19.4679 7.56246 19.5311 7.08877 19.3258 6.63088C19.1837 6.33088 19.1837 6.17298 19.31 6.09404C19.4363 6.01509 19.4363 5.79404 19.31 5.63614C19.2153 5.50983 19.2153 5.50983 19.089 5.58877L18.9469 5.66772L18.9153 5.47825C18.8837 5.27298 18.7416 5.08351 18.5837 5.05193C18.3942 5.00456 18.3311 5.06772 18.2837 5.30456C18.2205 5.55719 18.189 5.57298 18.1258 5.41509C18.0469 5.22562 17.9363 5.19404 17.7469 5.30456L17.5416 5.41509C17.5258 5.43088 17.51 5.3993 17.51 5.35193C17.51 5.19404 17.2416 5.06772 16.8626 5.08351C16.4205 5.08351 16.2942 5.13088 16.2311 5.27298C16.1679 5.43088 16.1047 5.41509 16.1679 5.25719C16.2311 5.0993 16.2311 4.90983 16.1679 4.86246C16.0686 4.84537 15.9672 4.84537 15.8679 4.86246C15.6311 4.89404 15.6153 4.90983 15.489 5.17825C15.3626 5.44667 15.3311 5.46246 15.1732 5.47825L14.9995 5.49404L15.1416 5.19404C15.3626 4.73614 15.3153 4.26246 15.0153 3.99404C14.81 3.83614 14.589 3.80456 14.5416 3.93088Z" fill="#36A83A"/>
<path d="M48.8366 16.9243C48.4261 16.9717 47.7313 17.1612 47.3366 17.3191C47.1171 17.4237 46.9059 17.5451 46.705 17.6822C46.2471 18.0138 46.2313 18.1243 46.5155 18.4243C46.705 18.6296 46.7208 18.6296 46.705 18.9138C46.6892 19.3875 46.8155 19.4664 47.2576 19.2296C47.4155 19.1507 47.4155 19.1507 47.4945 19.2612C47.5734 19.3717 47.5734 19.3875 47.5103 19.5138C47.4313 19.6875 47.4155 20.177 47.4945 20.6507C47.5576 21.0454 47.5103 21.2349 47.305 21.3296C47.0208 21.4559 46.7208 21.298 46.3892 20.8243L46.1682 20.5243H45.8524C45.7035 20.5308 45.5544 20.5149 45.4103 20.477C45.3155 20.4296 45.2682 20.4454 45.1261 20.6349C44.7271 21.2313 44.4383 21.8944 44.2734 22.5928L44.384 22.9559C44.4313 23.0822 44.5103 23.4138 44.5576 23.698C44.6208 24.1559 44.6524 24.2349 44.7787 24.3612C44.9208 24.5033 44.9208 24.5033 45.3471 24.4717C45.8366 24.4243 45.8366 24.4243 45.8366 24.8191C45.8366 24.9612 45.7892 25.1349 45.7261 25.2928C45.6313 25.5138 45.6155 25.577 45.6313 25.8612L45.6629 26.177L45.4734 26.2243C45.284 26.2717 45.284 26.2717 45.205 26.098L45.1261 25.9243L44.7155 25.9559C44.084 26.0033 43.5471 26.0822 43.1366 26.1928C42.6945 26.3033 42.6629 26.2875 42.1892 25.877C41.9998 25.7191 41.8576 25.6243 41.7787 25.6243C41.5734 25.6243 40.8155 25.9243 40.3419 26.1928L39.3313 26.7612C39.0313 26.9349 38.6998 27.1086 38.5734 27.1559C38.4471 27.2033 38.2261 27.3454 38.0682 27.5033C37.8155 27.7401 37.7998 27.7559 37.7998 27.6454C37.7998 27.4559 37.6892 27.3296 37.4208 27.2033L37.1524 27.077C37.1366 27.0612 37.184 27.0138 37.2471 26.9349C37.3103 26.8559 37.3734 26.7612 37.3734 26.698C37.3734 26.5085 37.1366 26.0507 36.9787 25.9559C36.7892 25.8296 36.7576 25.8454 36.584 26.0033C36.4103 26.1612 36.3945 26.3349 36.5524 26.4138C36.7103 26.4928 36.6945 26.5401 36.5208 26.6822C36.1734 26.9664 35.605 27.1085 35.2892 26.998C35.1945 26.9664 35.1629 26.9822 35.0366 27.2033C34.8945 27.4401 34.8945 27.4401 34.7208 27.4085C34.6542 27.3859 34.5854 27.37 34.5155 27.3612C34.4998 27.3612 34.484 27.2822 34.484 27.1875C34.484 27.0138 34.484 27.0138 34.1682 26.9191L33.6155 26.7612C33.4734 26.7296 33.3629 26.6822 33.3629 26.6664C33.3782 26.6117 33.3994 26.5588 33.4261 26.5085C33.467 26.4083 33.4884 26.3011 33.4892 26.1928C33.4892 26.0033 33.4734 26.0033 33.205 25.8612L32.8577 25.7191C32.8261 25.7191 32.9208 25.5612 33.0945 25.3717C33.3945 25.0085 33.7734 24.3928 33.9155 24.0138C33.9787 23.8085 34.0261 23.777 34.3734 23.5875C34.8787 23.3191 34.8471 23.2085 34.1998 23.0822C34.0577 23.0507 33.9313 23.0191 33.8998 22.9875C33.8682 22.9559 33.9155 22.7664 34.0103 22.5296C34.1524 22.1507 34.2471 21.5033 34.184 21.5033C34.0734 21.5033 33.6787 21.7875 33.5998 21.898C33.5366 22.0243 33.505 22.0401 33.284 22.0401L32.7471 22.0717L32.4471 22.1033L32.2103 22.4507L31.9576 22.8612C31.9261 22.9875 32.084 23.0033 32.2419 22.8928C32.3543 22.8243 32.4793 22.7793 32.6096 22.7603C32.7398 22.7413 32.8725 22.7488 32.9998 22.7822C33.1103 22.8138 33.205 22.8612 33.205 22.877C33.205 22.9401 32.7787 23.1296 32.5577 23.1612C32.3878 23.1748 32.2168 23.1588 32.0524 23.1138C31.8945 23.0664 31.7524 23.0507 31.7366 23.0664C31.7075 23.4077 31.697 23.7503 31.705 24.0928C31.705 25.0559 31.705 25.1033 31.7998 25.277C31.8945 25.4349 31.8945 25.5296 31.8945 25.9085C31.8945 26.398 31.9892 26.7454 32.1945 27.077C32.2892 27.2349 32.2892 27.2664 32.2419 27.4085C32.1629 27.598 31.9734 27.7085 31.8787 27.6138C31.784 27.5191 31.705 27.5822 31.705 27.7717C31.705 27.8664 31.6892 28.0086 31.6576 28.0875C31.6103 28.2138 31.5945 28.2454 31.4366 28.2454C31.2787 28.2454 31.2313 28.2138 31.0261 27.9612L30.7892 27.677L30.5208 27.898L30.205 28.198C30.1734 28.2612 30.1261 28.2612 29.984 28.2454C29.6208 28.1507 28.7682 28.3243 28.4682 28.5612C28.3261 28.6717 28.3261 28.6559 28.4208 29.2717C28.4366 29.4296 28.4208 29.4928 28.3419 29.6033C28.2471 29.7296 28.2155 29.7454 27.9945 29.7296L27.7577 29.7138L27.7103 29.2717L27.6629 28.8296L27.505 29.098L27.1103 29.7928C26.8103 30.3138 26.6682 30.4875 26.2103 30.8033C25.8155 31.0875 25.5787 31.2928 25.5787 31.3717C25.1208 31.5346 24.6771 31.7353 24.2524 31.9717C24.2325 31.9884 24.2073 31.9976 24.1813 31.9976C24.1553 31.9976 24.1302 31.9884 24.1103 31.9717C24.0155 31.9085 23.2577 31.9717 23.0682 32.0507C22.9261 32.1138 22.8629 32.2401 22.6577 32.7928C22.4366 33.3928 22.2471 33.598 21.7419 33.7559C21.584 33.8033 21.5208 33.8033 21.3945 33.7559C21.205 33.677 21.0945 33.7243 20.8419 34.1033C20.605 34.4349 20.4945 34.4664 20.1945 34.3085C19.9734 34.1822 19.8945 34.0401 19.8787 33.7401L19.8629 33.4875L19.6261 33.5507C19.405 33.6138 19.3892 33.6138 19.2155 33.5191C19.0103 33.3928 18.9313 33.4085 18.7577 33.6454C18.6795 33.7728 18.6355 33.9182 18.6299 34.0676C18.6244 34.2169 18.6575 34.3652 18.7261 34.498C18.805 34.6401 18.805 34.7033 18.7734 34.9086C18.747 35.0368 18.699 35.1596 18.6313 35.2717C18.5366 35.3664 18.505 35.3822 18.0787 35.3507L17.5577 35.3033C17.4808 35.2363 17.4167 35.1561 17.3682 35.0664L17.2419 34.8454L16.1366 34.877L15.0313 34.9086L14.905 35.0664C14.8523 35.1335 14.8097 35.208 14.7787 35.2875C14.7787 35.3191 14.8734 35.398 14.9682 35.4612L15.1734 35.5717L14.9682 35.6664L14.6524 35.7928C14.5892 35.8085 14.5419 35.8401 14.5419 35.8717C14.5419 35.9822 14.684 36.2033 14.8577 36.377C15.0471 36.5507 15.0471 36.5664 15.3313 36.5349C15.5682 36.5033 15.6313 36.5191 15.8524 36.6454C16.1524 36.8191 16.405 37.1507 16.6261 37.6401C16.7524 37.9243 16.8155 38.0191 16.9577 38.0822L17.1471 38.1928C17.1629 38.2086 17.1155 38.3033 17.0366 38.4138L16.9103 38.6349L17.0524 38.9664C17.1629 39.2033 17.2103 39.4086 17.2734 39.8664C17.305 40.198 17.3682 40.5928 17.4155 40.7507C17.4787 41.0349 17.4787 41.0349 17.3524 41.2243C17.1945 41.4612 16.8471 42.2664 16.5787 42.9454C16.3892 43.4507 16.3577 43.5138 15.9945 43.8928C15.6945 44.2243 15.0471 44.777 14.8261 44.9191C14.6957 44.9191 14.5667 44.8922 14.4471 44.8401L13.4524 44.5559C12.6915 44.4215 11.9529 44.1824 11.2577 43.8454C10.6261 43.5138 10.2313 43.3875 10.0103 43.4349C9.90138 43.4408 9.79276 43.419 9.69449 43.3717C9.49985 43.2967 9.29911 43.2386 9.09449 43.198C8.75359 43.1611 8.43306 43.0175 8.1787 42.7875C8.02081 42.677 7.91028 42.6138 7.78397 42.6138C7.54713 42.6138 7.48397 42.6454 7.32607 42.8822L7.18397 43.0875L6.75765 43.1191C6.12607 43.1664 5.92081 43.3085 5.77871 43.7664C5.71555 43.9401 5.73134 43.9717 5.84186 44.177C5.89801 44.2761 5.9405 44.3823 5.96818 44.4928C5.92085 44.6234 5.84539 44.7419 5.74713 44.8401C5.62081 44.998 5.51028 45.1559 5.49449 45.2191C5.46292 45.3138 5.28923 45.4717 4.49976 46.0717C4.31028 46.2138 4.15239 46.3559 4.15239 46.3717L4.24713 46.5928C4.38923 46.8296 4.34186 46.9717 4.02607 47.2243C3.59976 47.5717 3.48923 47.7138 3.47344 47.9664C3.45765 48.1875 3.41028 48.2349 2.22607 49.5138C1.54713 50.2401 0.994495 50.8559 0.994495 50.8875L1.07344 51.2349C1.15239 51.5822 1.27871 51.8349 1.45239 52.0559C1.57871 52.2138 1.57871 52.2138 1.49976 52.3875C1.45239 52.4822 1.31028 52.6401 1.16818 52.7664C0.899758 52.9875 0.85239 53.098 0.978705 53.3033C1.12081 53.5243 1.02607 53.7296 0.583969 54.2191C0.347126 54.4875 0.189232 54.677 0.220811 54.7086L1.40502 54.9612L2.54186 55.1664L2.77871 55.4033C2.90502 55.5296 3.18923 55.7664 3.41028 55.9243C4.10502 56.4454 4.42081 56.8559 4.51555 57.4086C4.57871 57.8191 4.92607 57.8664 6.14186 57.6296C6.96157 57.4211 7.81302 57.3675 8.65239 57.4717C9.0787 57.5349 9.2366 57.5664 9.31555 57.6454C9.44186 57.7717 9.5366 57.7717 9.69449 57.6296C9.78923 57.5507 9.89976 57.5033 10.1524 57.4875C10.405 57.4717 10.6577 57.3928 11.2261 57.1559C11.774 56.9197 12.3387 56.7245 12.9155 56.5717C13.0577 56.4928 13.0577 56.4928 13.0419 56.2875L13.0103 56.0822L13.3261 55.8612C13.4998 55.7349 13.9103 55.498 14.2261 55.3243C14.7155 55.0401 14.8103 54.977 14.8734 54.8349C14.9998 54.5191 14.9998 54.2349 14.8892 53.8243C14.7313 53.2717 14.7471 52.9401 14.9366 52.6086C15.1419 52.2612 15.6155 51.7717 16.3261 51.2033C16.6419 50.9507 17.0208 50.6191 17.1787 50.4612C17.5577 50.098 17.684 50.0191 18.1261 49.9717C18.4419 49.9243 18.5998 49.8612 19.2945 49.5138L20.0998 49.1033H20.5734C20.8261 49.1033 21.0629 49.0875 21.0945 49.0559C21.1261 49.0401 21.1892 48.9138 21.2208 48.7875C21.284 48.5664 21.2998 48.5507 21.4577 48.5191C21.6787 48.4717 21.7577 48.3612 21.7577 48.1243C21.7577 47.998 21.7419 47.9349 21.6787 47.9191C21.584 47.8875 21.5366 47.698 21.5366 47.2875C21.5366 46.7191 21.8208 46.198 22.2471 45.9612L22.4524 45.8507L22.9892 46.1033C23.8261 46.498 23.8261 46.498 24.1419 46.4191L24.4734 46.3559C24.505 46.3559 24.6471 46.4664 24.7892 46.6086C24.9313 46.7507 25.1208 46.8928 25.2155 46.9243C25.4208 47.0191 26.1787 47.0191 26.3366 46.9243C26.3998 46.877 26.7629 46.5138 27.1419 46.1033C27.7419 45.4401 27.8208 45.3454 27.9471 45.377C28.105 45.4086 28.4524 45.2507 29.0208 44.9033L29.6524 44.5243L29.8419 44.4138L30.0945 44.5401L30.5682 44.7296C30.7892 44.7928 30.805 44.8085 31.1682 45.377C31.5945 46.0401 31.6576 46.2296 31.705 46.798C31.7524 47.4612 31.9261 47.698 33.205 48.598C33.7734 49.0086 34.0103 49.2138 34.3734 49.6086C34.9419 50.2559 35.1313 50.3664 35.5419 50.3507C35.8103 50.3507 35.8892 50.3664 36.0629 50.4928C36.2366 50.6033 36.2998 50.698 36.4419 51.0138C36.5998 51.3612 36.6313 51.4086 36.8524 51.5033C36.9945 51.5664 37.2629 51.6454 37.4682 51.6928L37.8471 51.7559L37.8629 51.9296C37.8787 52.1664 38.0208 52.6875 38.084 52.6875L38.3998 52.7507C38.5892 52.798 38.7155 52.8612 38.8734 53.0191C39.2208 53.3349 39.3787 53.7138 39.6787 54.7875C39.8208 55.3086 39.8208 55.2928 39.4734 55.4664C39.3313 55.5296 39.2998 55.577 39.2524 55.8296C39.2208 55.9875 39.1419 56.2559 39.0629 56.4296C38.9524 56.7454 38.9524 56.7454 39.0313 56.8085C39.2208 56.9507 39.505 56.8717 39.7419 56.5875C39.8524 56.4612 40.0734 55.9086 40.1998 55.4349C40.2787 55.1191 40.4208 54.977 40.7524 54.7875C41.0998 54.598 41.1155 54.5664 41.084 54.1875C41.0366 53.6507 41.0208 53.6191 40.8945 53.6191C40.8155 53.6191 40.4366 53.398 40.1524 53.1612C40.0577 53.098 40.484 52.1349 40.7524 51.7875L40.8945 51.6296L41.1945 51.7085L41.7787 51.9454C42.0471 52.0875 42.584 52.5928 42.6945 52.798C42.7419 52.8928 42.7419 52.8928 42.8208 52.798C42.9313 52.6401 42.9629 52.3086 42.8682 52.0875C42.7103 51.6612 42.4261 51.4717 40.8787 50.7138C40.305 50.4621 39.7598 50.1498 39.2524 49.7822C39.2524 49.7507 39.3471 49.6086 39.4576 49.4507L39.6629 49.1507C39.6629 49.0717 39.2524 49.0086 38.7471 49.0086C38.305 49.0086 38.1313 48.9928 37.9103 48.9138C37.0577 48.598 36.5208 47.9033 36.3787 46.8928C36.2682 46.198 36.1576 46.0086 35.3998 45.3928C35.1884 45.2269 34.988 45.0476 34.7998 44.8559C34.668 44.7172 34.5821 44.5412 34.5539 44.3519C34.5256 44.1626 34.5563 43.9692 34.6419 43.798C34.7366 43.5612 34.7366 43.5296 34.6576 43.3401C34.5629 43.0717 34.5629 42.6296 34.6734 42.5349C34.8947 42.3671 35.1268 42.2142 35.3682 42.077L35.984 41.698L36.1892 41.7928C36.2998 41.8401 36.4576 41.9033 36.5208 41.9033C36.584 41.9033 36.6471 41.9349 36.6471 41.9507L36.4892 42.2664L36.3471 42.5664L36.4734 42.8349L36.6471 43.3243C36.6787 43.4664 36.7103 43.5296 36.7577 43.5138C36.9199 43.357 37.0395 43.1613 37.105 42.9454C37.105 42.898 37.1682 42.7717 37.2471 42.6928L37.3892 42.5349L37.5155 42.7085C37.6419 42.8822 37.7524 42.9928 38.005 43.2296C38.1471 43.3559 38.1471 43.3559 38.1471 43.798C38.1471 44.0349 38.1629 44.2717 38.1945 44.3191C38.2261 44.3664 38.3366 44.477 38.4629 44.5717C38.605 44.6822 38.684 44.7928 38.7155 44.9033C38.7471 45.0928 38.9682 45.2822 39.3155 45.4401C39.5524 45.5507 39.584 45.5822 39.6313 45.7559L39.6945 45.9454H39.9629C40.4682 45.9454 40.8629 46.1507 41.4629 46.7033C41.7155 46.9401 41.8419 47.0349 42.0155 47.0822C42.3787 47.1612 43.0892 47.6033 43.4208 47.9349C43.5945 48.1086 43.6103 48.1085 43.9576 48.0138C44.0682 47.9822 44.084 47.998 44.084 48.1085C44.084 48.2033 44.1155 48.2349 44.1945 48.2664C44.305 48.298 44.305 48.3138 44.2892 48.677C44.2734 49.0401 44.2734 49.0875 44.4787 49.6559L44.6998 50.2401L44.5419 50.5717L44.384 50.9033L44.4629 51.1559C44.5734 51.5033 44.8261 51.8507 45.205 52.1822C45.6945 52.6086 45.805 52.7507 45.8366 53.0191C45.8524 53.1928 45.8998 53.2875 46.0103 53.3822C46.2471 53.5875 46.5155 53.7138 46.9261 53.8086L47.3208 53.8875L47.1945 53.9822C47.111 54.049 47.0458 54.136 47.005 54.2349C46.9419 54.377 46.9419 54.4243 47.005 54.5507C47.084 54.7243 47.3208 54.9138 47.5419 54.9928C47.7629 55.0717 48.4419 55.0559 49.105 54.977C49.8471 54.8822 50.1471 54.8822 50.1471 54.977C50.1471 55.1349 50.005 55.3401 49.8629 55.3875C49.6576 55.4664 49.4682 55.4507 48.9313 55.3401C48.3155 55.2138 47.8419 55.2138 47.6366 55.3401C47.5189 55.4284 47.4234 55.5428 47.3577 55.6744C47.2919 55.8059 47.2576 55.9509 47.2576 56.098C47.2576 56.4454 47.3682 56.5717 47.8419 56.7138C48.0945 56.7928 48.2524 56.8717 48.284 56.9349C48.3155 56.9822 48.3471 57.298 48.3471 57.6296C48.3629 58.1507 48.3787 58.2454 48.4734 58.3401C48.5352 58.4078 48.611 58.4612 48.6956 58.4967C48.7801 58.5321 48.8713 58.5487 48.9629 58.5454C49.1208 58.5296 49.3103 58.2612 49.3103 58.0559C49.3103 57.977 49.3261 57.9138 49.3419 57.9138L49.6892 58.3875C49.8629 58.6401 50.0208 58.8612 50.0524 58.8612C50.1313 58.8612 50.2261 58.6401 50.2576 58.3875L50.305 58.1191C50.3208 58.1033 50.4787 58.2454 50.6524 58.4191C50.8577 58.6243 51.0155 58.7507 51.0787 58.7507C51.1734 58.7507 51.1734 58.7349 51.1576 58.3559C51.1419 57.8822 51.0313 57.677 50.684 57.4086C50.2576 57.0612 50.2734 57.1086 50.305 56.8401L50.3366 56.5875L50.7629 56.8085C51.3787 57.1243 51.7103 57.1243 51.7103 56.7612C51.7103 56.5875 51.5682 56.477 51.1103 56.3033L50.7629 56.1612V55.4191L50.8892 55.498C50.9682 55.5454 51.1261 55.5928 51.2524 55.6243C51.3945 55.6559 51.584 55.7664 51.7576 55.9243C52.0892 56.2085 52.2313 56.2559 52.3892 56.1612C52.5787 56.0349 52.5629 55.9401 52.2629 55.6086C52.1446 55.4956 52.0483 55.3618 51.9787 55.2138C51.9787 55.0559 51.6155 54.7559 51.0471 54.4243C50.3524 54.0296 50.0524 53.7612 49.8471 53.2717C49.6892 52.8928 49.6261 52.6401 49.6892 52.6401C49.705 52.6401 49.8945 52.6875 50.084 52.7664C50.4945 52.9085 50.5734 52.9243 50.6366 52.798C50.7155 52.6559 50.5734 52.498 50.0366 52.1507C49.784 51.9928 49.484 51.7559 49.3892 51.6296C49.1682 51.377 49.1682 51.298 49.2471 50.6822C49.3103 50.1928 49.3261 50.1612 49.4524 50.1612C49.5945 50.1612 49.7682 50.398 50.1155 51.077C50.4945 51.8191 50.7787 52.0717 50.9524 51.8033C51.0471 51.6612 51.0471 51.3928 50.9524 51.3138C50.8419 51.2191 50.684 50.9664 50.7313 50.9664C50.7629 50.9664 50.9208 51.0928 51.0787 51.2664C51.3945 51.5822 51.4892 51.6138 51.6471 51.4875C51.7419 51.4086 51.7734 51.4559 51.2208 50.777C50.9682 50.4612 51.1261 50.4612 51.6155 50.7928C51.9629 51.0138 52.0419 51.0612 52.0892 50.998C52.184 50.8243 52.105 50.6664 51.7892 50.3349C51.6471 50.1928 51.5998 50.1454 51.6945 50.2085C51.8998 50.3664 51.9787 50.3033 52.1208 49.877C52.184 49.6875 52.2787 49.4822 52.3261 49.4191C52.4366 49.2928 52.9261 49.1033 53.1155 49.1033C53.1945 49.1033 53.4155 49.0559 53.6366 48.9928C53.9366 48.9138 54.0945 48.898 54.3945 48.9138C54.6155 48.9296 54.805 48.9138 54.8682 48.8822C54.9313 48.8507 54.9945 48.8349 55.0103 48.8507C54.9867 49.0046 54.9387 49.1539 54.8682 49.2928C54.7103 49.6875 54.6629 49.8928 54.7419 49.8928C55.1221 49.6888 55.4727 49.4338 55.784 49.1349C55.9261 48.977 55.9576 48.9138 55.9419 48.7875C55.9261 48.6612 55.9577 48.6138 56.1787 48.4717C56.605 48.1875 56.8103 48.1086 57.505 47.9033C58.3103 47.6822 58.4208 47.6191 58.484 47.4138L58.5471 47.2559L57.9945 46.9717C57.3791 46.655 56.8361 46.2142 56.3998 45.677L56.0524 45.3138L56.2103 45.0138C56.3524 44.7296 56.3682 44.6664 56.384 44.2085C56.3998 43.8612 56.4471 43.5296 56.5261 43.1507L56.6524 42.598L56.5576 41.7928C56.5006 41.5177 56.4846 41.2357 56.5103 40.9559L57.0471 40.4191L57.5366 39.9138L57.4734 39.7559L57.0787 38.7612C57.0945 38.7454 57.205 38.777 57.3471 38.8085C57.505 38.8401 57.5998 38.8401 57.6313 38.8085L57.7419 38.3191C57.8682 37.498 58.1682 36.9928 58.6892 36.7559C58.8787 36.6612 59.005 36.6454 59.3998 36.6454H59.8734L59.905 35.5085L59.9682 32.8559L59.9998 31.3401L59.8734 31.4191C59.6998 31.5454 59.2261 31.498 58.5787 31.3085C57.6945 31.0401 57.505 31.0243 57.1419 31.1507C56.7313 31.277 56.7155 31.277 56.4471 31.1349L56.0208 30.9612L55.8155 30.898L55.8629 30.6296C55.9103 30.3612 55.9103 30.3612 55.7682 30.2033C55.6523 30.0607 55.5712 29.8931 55.5313 29.7138C55.4366 29.398 55.3576 29.2875 55.0261 29.0349C54.9471 28.9717 54.9313 28.8928 54.8998 28.4507L54.8682 27.9296L55.1682 28.1349L55.5155 28.3875C55.5945 28.4664 55.705 28.4349 55.784 28.3085C55.8349 28.2386 55.8993 28.1795 55.9734 28.1349C56.2261 28.0401 56.0524 27.5033 55.6734 27.1875L55.1682 26.777C55.0114 26.6563 54.8684 26.5186 54.7419 26.3664L54.5998 26.177L54.6155 25.4191L54.6313 24.6612L54.4892 24.4875C54.3155 24.2664 54.1103 24.1401 53.4787 23.8559C53.2354 23.7494 53.0071 23.6114 52.7998 23.4454C52.5629 23.2243 51.5366 22.0243 51.3787 21.7875L51.2682 21.6296L51.3629 21.3138C51.7103 20.2401 51.4261 19.8454 50.2419 19.6875C50.0513 19.6602 49.8654 19.6071 49.6892 19.5296L49.484 19.4191L49.7524 19.1822C50.0524 18.9296 50.2261 18.6928 50.1945 18.6138C50.1436 18.5539 50.0852 18.5009 50.0208 18.4559C49.9341 18.4017 49.8498 18.3438 49.7682 18.2822C49.6261 18.1875 49.6261 18.1085 49.7682 17.9664C49.8313 17.9033 49.8945 17.8085 49.9103 17.7296L50.0208 17.4138C50.0998 17.2401 50.084 17.2243 50.005 17.1296C49.7701 17.0097 49.5109 16.9449 49.2471 16.9401C49.2313 16.877 49.0261 16.9085 48.8366 16.9243ZM19.6419 18.4401C19.5187 18.4856 19.4059 18.5554 19.3103 18.6454C19.1657 18.8399 19.0733 19.0682 19.0419 19.3085C19.0419 19.4033 19.0577 19.4191 19.3419 19.3875C19.6555 19.3639 19.9537 19.2424 20.1945 19.0401C20.313 18.8759 20.3639 18.6724 20.3366 18.4717C20.305 18.3612 20.2892 18.3454 20.084 18.3454C19.9419 18.3612 19.7524 18.3928 19.6419 18.4401Z" fill="#36A83A"/>
<path d="M21.1105 18.8988C20.8737 18.9304 20.5895 19.1672 19.9421 19.8304L19.4684 20.3356L19.3263 20.1777C19.121 19.9567 18.9158 19.8777 18.6947 19.9567C18.6 19.9883 18.5368 20.0356 18.5368 20.0514L18.7263 20.462C18.8526 20.7146 18.9631 20.8725 19.0737 20.9356L19.2316 21.062L18.7895 21.3146C18.2684 21.5988 17.9526 21.8988 17.8737 22.1988C17.8105 22.4988 17.8421 22.5304 18.1263 22.5304C18.5684 22.5304 18.8052 22.5777 18.8052 22.6883C18.8052 22.7356 18.6473 23.0356 18.4421 23.3672L18.0473 24.0146C18.0158 24.062 18.0473 24.062 18.1579 24.0146C18.6473 23.8409 18.8526 23.8093 18.9 23.8567C18.9789 23.9356 18.8368 24.1725 18.6158 24.3462C18.4263 24.5041 18.3789 24.5988 18.4895 24.7251C18.6789 24.962 18.9316 25.0251 19.4368 24.8988C19.8473 24.7883 19.9895 24.7883 20.0842 24.8672C20.2263 24.9935 20.1631 25.2777 19.9105 25.6251L19.8158 25.7672L19.9105 26.083C20.0842 26.6198 20.0526 26.7777 19.6263 27.2041C19.3263 27.5198 19.2947 27.5198 18.6947 27.2041C18.4737 27.0777 18.2842 27.0146 18.2368 27.0462C18.1421 27.0935 18.1421 27.3304 18.221 27.5988L18.2842 27.8041L18.0947 27.8198C17.8105 27.8356 17.8105 27.962 18.1105 28.1672C18.3789 28.3409 18.3947 28.4041 18.2526 28.6409C18.1105 28.8777 17.8579 29.0356 17.321 29.2093C17.0526 29.2883 16.8158 29.383 16.8 29.3988C16.6959 29.6085 16.6215 29.8317 16.5789 30.062C16.5947 30.1093 16.7842 30.1409 17.3052 30.1567L18.0158 30.1883L18.1421 30.3462C18.2526 30.4883 18.2842 30.5041 18.5842 30.5041C18.7579 30.5041 18.9 30.5198 18.9 30.5356C18.9 30.583 18.5842 30.8672 18.4421 30.9462C18.3316 31.0093 18.2684 31.0093 17.8895 30.8988C17.7317 30.8438 17.5668 30.8119 17.4 30.8041C17.321 30.8356 16.9579 31.2146 16.8473 31.4198C16.7842 31.4988 16.5473 31.6093 15.7895 31.8777C14.7947 32.2251 14.7947 32.2251 14.8737 32.3356C15.0947 32.6041 15.5684 32.6514 16.3737 32.4462L17.0368 32.3198C17.1473 32.3198 17.1947 32.3514 17.2263 32.4462C17.2579 32.5093 17.2895 32.5725 17.321 32.5725L17.5895 32.3988C18.0473 32.0514 18.2684 32.0041 18.5842 32.2567C18.7895 32.4146 18.9316 32.3988 19.4684 32.2251L19.9421 32.083C19.9579 32.083 20.0368 32.1777 20.1158 32.3041C20.3052 32.6041 20.5421 32.7935 20.6842 32.762C20.8105 32.7304 20.9052 32.5409 20.9052 32.3041C20.9052 32.162 20.921 32.1304 20.9842 32.162C21.4263 32.3041 21.9316 32.3198 22.4052 32.2093C22.8473 32.1146 23.4631 31.7356 23.4631 31.562C23.4631 31.4514 23.3052 31.3409 23.021 31.2462C22.8631 31.1988 22.721 31.1198 22.7052 31.1041C22.6895 31.0883 22.7684 30.9777 22.8947 30.883L23.2105 30.5988C23.2579 30.5356 23.3526 30.4883 23.4 30.4883C23.6526 30.4883 24.3158 30.0462 24.5526 29.7304C24.6473 29.6041 24.6473 29.5725 24.6 29.4462C24.4786 29.1951 24.2629 29.0022 24 28.9093C23.7759 28.8703 23.5484 28.8544 23.321 28.862C23.021 28.862 22.8158 28.8462 22.8158 28.8146L23.0526 28.1356C23.4631 27.0462 23.4316 26.6198 22.8789 26.083L22.5789 25.783L22.6105 25.562C22.6421 25.2935 22.5947 25.2462 22.3737 25.3251C22.2158 25.3883 22.0263 25.3251 22.0263 25.2304L22.2158 24.7251C22.4368 24.1567 22.4842 23.9514 22.4052 23.7462C22.3421 23.6041 22.1526 23.4462 22.0105 23.4462C21.9354 23.4316 21.865 23.3991 21.8052 23.3514C21.7282 23.2923 21.6431 23.2445 21.5526 23.2093C21.4263 23.162 21.4263 23.162 21.4895 22.9883C21.6158 22.6725 21.8368 22.4041 22.5158 21.6777C23.1631 20.9988 23.2895 20.8251 23.2263 20.6514C23.1631 20.462 22.5789 20.4304 21.7105 20.5567L21.1737 20.6356C21.0789 20.6356 21.6316 20.0988 22.2158 19.6409C22.5473 19.3725 22.8473 19.1356 22.8473 19.1041C22.8631 19.0883 22.8473 19.0409 22.8316 18.9935C22.8 18.9304 22.6421 18.9146 22.0579 18.9146C21.7434 18.8784 21.4261 18.8731 21.1105 18.8988Z" fill="#36A83A"/>
<path d="M16.1052 23.5562C15.8701 23.5992 15.6547 23.7153 15.4894 23.8878C15.4104 23.9667 15.3315 24.0141 15.2209 24.0141C15.0315 24.0141 14.8736 24.172 14.9525 24.2825C14.9841 24.3299 15.0788 24.3614 15.1736 24.3772C15.3157 24.4088 15.3315 24.4246 15.3315 24.5509C15.3315 24.6614 15.2999 24.7088 15.142 24.772C14.9841 24.8509 14.9367 24.8509 14.8736 24.8035C14.542 24.5509 13.9262 24.4246 13.5788 24.5509C13.3578 24.6299 13.0894 24.8825 13.0894 24.993C13.0894 25.0404 13.1367 25.1193 13.1841 25.1509C13.2315 25.1983 13.2946 25.2772 13.3262 25.3562C13.4052 25.5299 13.3262 25.6088 13.0262 25.6878C12.6473 25.7825 12.6157 25.7983 12.6157 25.8614C12.6157 25.972 12.8052 26.1772 12.9473 26.272C13.0262 26.3193 13.2315 26.3825 13.4209 26.4141L13.7525 26.4772L13.4841 26.572C13.1683 26.6825 13.0104 26.6509 12.9315 26.4614C12.8525 26.2878 12.7736 26.3351 12.6788 26.6035L12.5841 26.872C12.5683 26.8878 12.4578 26.8562 12.3473 26.8246L12.0473 26.7456C11.9209 26.7456 11.7788 26.9193 11.7788 27.0772C11.7788 27.1878 11.8104 27.2351 11.9209 27.2983L12.063 27.3772L11.7788 27.4404C11.6209 27.472 11.463 27.5351 11.4315 27.5667C11.3683 27.6299 11.4315 27.772 11.542 27.8825C11.6525 27.9772 11.6367 28.0404 11.4473 28.2772C11.3525 28.3878 11.2894 28.5141 11.3052 28.5614C11.3209 28.6088 11.5104 28.7351 11.7788 28.8614L12.2525 29.0825L12.8052 29.0351C13.642 28.9562 14.4473 28.8456 14.8104 28.7509C15.4894 28.593 16.1683 28.2299 16.4683 27.8667C16.7841 27.4878 17.0052 26.793 16.9736 26.3667L16.9578 26.1299L17.3999 25.8141L17.842 25.4983V24.9299C17.842 24.4878 17.8262 24.3141 17.763 24.1404C17.6525 23.8562 17.5736 23.8088 17.3683 23.8878C17.2578 23.9351 17.1788 23.9351 17.1473 23.9035C17.0598 23.8502 16.9636 23.8128 16.863 23.793C16.6736 23.7456 16.642 23.7299 16.6578 23.6193C16.6736 23.5088 16.6578 23.493 16.4841 23.5088C16.4367 23.4772 16.2315 23.5088 16.1052 23.5562ZM29.7315 47.3509C29.0209 47.9667 28.9262 48.0772 28.8473 48.472C28.7999 48.6772 28.7525 49.0088 28.7525 49.2299C28.7525 49.5772 28.7683 49.6562 28.8788 49.8299C29.0209 50.0667 29.4315 50.3193 29.5894 50.272C29.7473 50.2246 30.0473 49.7825 30.2052 49.4035C30.442 48.772 30.5209 47.9193 30.3946 47.4456C30.3315 47.2246 30.2052 47.0193 30.142 47.0193C30.1262 47.0193 29.9367 47.1614 29.7315 47.3509ZM29.3841 50.7614C29.2736 50.8562 28.9736 51.0614 28.7209 51.2035C28.1209 51.5667 28.1052 51.6141 28.1052 52.6088C28.1052 53.2088 28.0894 53.4141 27.9946 53.872C27.8683 54.4878 27.8209 55.0088 27.9157 55.1035C27.963 55.1509 28.0262 55.1509 28.2157 55.1035C28.4052 55.0562 28.5157 54.9772 28.7209 54.772C28.9894 54.4877 29.0999 54.4562 29.2262 54.6299C29.2578 54.6772 29.3052 54.7088 29.3209 54.7088C29.3683 54.7088 29.542 54.3614 29.7315 53.8246L29.8894 53.4141L29.763 53.0667C29.6052 52.6562 29.6209 52.5141 29.8578 52.372C30.0473 52.2456 30.0946 52.0088 30.0157 51.5035C29.9683 51.1246 29.7631 50.6193 29.6525 50.6035C29.556 50.6432 29.4657 50.6964 29.3841 50.7614ZM37.9104 56.5088C37.7683 56.5246 37.342 56.6351 36.963 56.7614C36.1262 57.0141 35.7788 57.0141 35.3367 56.793L35.0683 56.6509L34.7525 56.7456L34.1683 56.9035C33.7736 56.9825 33.6157 57.1246 33.5052 57.4562C33.3946 57.7878 33.4262 57.8667 33.7578 58.1509C34.1052 58.4351 34.6894 58.7509 35.8262 59.2088L37.2631 59.8088L37.6578 59.9825L37.7683 59.8404C38.0052 59.5246 38.0367 59.4299 38.0209 58.9246C37.9736 57.8667 37.9894 57.6141 38.0999 57.4562C38.2366 57.2321 38.3128 56.9764 38.3209 56.7141C38.3209 56.4456 38.3209 56.4456 37.9104 56.5088Z" fill="#36A83A"/>
</g>
</g>
</g>
<defs>
<clipPath id="clip0_26003_69722">
<rect width="60" height="60" fill="white"/>
</clipPath>
<clipPath id="clip1_26003_69722">
<rect width="60" height="60" fill="white"/>
</clipPath>
<clipPath id="clip2_26003_69722">
<rect width="60" height="60" fill="white"/>
</clipPath>
</defs>
</svg>
