<svg width="150" height="35" viewBox="0 0 150 35" fill="none" xmlns="http://www.w3.org/2000/svg">
<g clip-path="url(#clip0_26001_50105)">
<path d="M11.5479 11.5904H23.0958V0.0898438H11.5479C5.17032 0.0898438 0 5.23897 0 11.5904V34.5898H11.5479V11.5904Z" fill="#003CFF"/>
<path d="M12.9912 23.0893H23.0946V13.0273C17.5137 13.0273 12.9912 17.533 12.9912 23.0893Z" fill="#003CFF"/>
<path d="M37.8633 5.82812H46.6988V9.64383H38.6687V13.0248H46.6988V16.4041H38.6687V23.0868H34.6416V9.03663C34.6416 7.18915 36.0082 5.82812 37.8633 5.82812Z" fill="#0A1E3C"/>
<path d="M57.197 13.0273H49.167V16.4066H57.197V13.0273Z" fill="#0A1E3C"/>
<path d="M66.0168 8.81926C64.2588 8.81926 63.5018 9.81631 63.5018 10.7875C63.5018 11.9294 64.6727 12.3193 66.9435 13.0231C67.4562 13.1939 67.9204 13.2905 68.3829 13.4612C71.2149 14.4341 73.0699 15.6002 73.0699 18.4931C73.0699 21.605 69.9695 23.4283 66.3096 23.4283C62.6496 23.4283 59.085 21.3134 59.085 17.546H63.0394C63.0394 18.9071 64.5775 20.0249 66.3096 20.0249C68.0417 20.0249 69.1658 19.3935 69.1658 18.4689C69.1658 17.3994 67.9204 17.0837 66.5295 16.5973C65.7241 16.3541 64.8944 16.1108 64.2102 15.8435C61.0855 14.6273 59.5977 13.1214 59.5977 10.7875C59.5977 7.65143 62.6739 5.48828 66.1883 5.48828C69.8985 5.48828 72.1935 7.87051 72.6317 10.7875H68.6773C68.3361 9.57136 67.2865 8.81926 66.0168 8.81926Z" fill="#0A1E3C"/>
<path d="M82.1016 23.4308C78.2459 23.4308 75.0225 20.343 75.0225 16.4048C75.0225 12.4667 78.2442 9.37891 82.1016 9.37891C85.4947 9.37891 89.0577 12.4425 89.0577 16.7688V17.4743H78.6841C79.1241 19.2494 80.4665 20.2706 82.1016 20.2706C83.4924 20.2706 84.4936 19.7117 84.9578 19.0061H88.668C87.8868 21.5591 85.0808 23.4308 82.1016 23.4308ZM85.2505 15.068C84.8106 13.4879 83.5427 12.5633 82.1016 12.5633C80.6605 12.5633 79.2211 13.3895 78.7084 15.068H85.2505Z" fill="#0A1E3C"/>
<path d="M98.1388 23.429C94.0875 23.429 91.084 20.293 91.084 16.3065C91.084 12.32 94.0857 9.37891 98.1388 9.37891C101.922 9.37891 104.51 12.1493 105.022 15.237H101.385C100.872 13.7052 99.651 12.7582 98.1388 12.7582C96.1123 12.7582 94.6971 14.1675 94.6971 16.3082C94.6971 18.449 96.1123 20.0273 98.1388 20.0273C99.7739 20.0273 100.896 19.2977 101.385 17.8642H104.998C104.51 21.0727 101.948 23.4308 98.1388 23.4308V23.429Z" fill="#0A1E3C"/>
<path d="M113.547 23.429C109.472 23.429 107.177 21.2176 107.177 17.2311V9.64453H110.911V17.2294C110.911 19.0285 111.864 20.0256 113.547 20.0256C115.231 20.0256 116.208 19.0285 116.208 17.2294V9.64453H119.942V17.2294C119.942 21.2158 117.647 23.4273 113.547 23.4273V23.429Z" fill="#0A1E3C"/>
<path d="M125.499 9.64453H131.601V13.0255H126.06V23.0875H122.398V12.7564C122.398 10.9331 123.692 9.64453 125.499 9.64453Z" fill="#0A1E3C"/>
<path d="M139.926 23.4308C136.068 23.4308 132.847 20.343 132.847 16.4048C132.847 12.4667 136.068 9.37891 139.926 9.37891C143.319 9.37891 146.882 12.4425 146.882 16.7688V17.4743H136.508C136.948 19.2494 138.291 20.2706 139.926 20.2706C141.317 20.2706 142.318 19.7117 142.782 19.0061H146.492C145.711 21.5591 142.903 23.4308 139.926 23.4308ZM143.075 15.068C142.635 13.4879 141.367 12.5633 139.926 12.5633C138.485 12.5633 137.045 13.3895 136.533 15.068H143.075Z" fill="#0A1E3C"/>
<path d="M148.11 22.6425H147.847V21.0469H148.455C148.649 21.0469 148.794 21.0831 148.891 21.1556C148.99 21.228 149.038 21.3453 149.038 21.5057C149.038 21.6489 148.999 21.7541 148.919 21.8214C148.839 21.8887 148.739 21.9284 148.621 21.9404L149.07 22.6425H148.772L148.358 21.9611H148.11V22.6425ZM148.404 21.7369C148.453 21.7369 148.5 21.7352 148.546 21.7317C148.591 21.7283 148.631 21.7162 148.664 21.6989C148.697 21.6817 148.725 21.6558 148.746 21.623C148.766 21.5903 148.777 21.5454 148.777 21.4868C148.777 21.4385 148.766 21.3988 148.744 21.3712C148.721 21.3436 148.694 21.3212 148.661 21.3056C148.628 21.2901 148.59 21.2798 148.548 21.2763C148.507 21.2729 148.467 21.2711 148.429 21.2711H148.112V21.7369H148.406H148.404Z" fill="#0A1E3C"/>
<path d="M148.408 20.5291C149.137 20.5291 149.732 21.1208 149.732 21.847C149.732 22.5732 149.137 23.1649 148.408 23.1649C147.679 23.1649 147.085 22.5732 147.085 21.847C147.085 21.1208 147.679 20.5291 148.408 20.5291ZM148.408 20.2617C147.53 20.2617 146.816 20.9707 146.816 21.847C146.816 22.7233 147.528 23.4323 148.408 23.4323C149.288 23.4323 150 22.7233 150 21.847C150 20.9707 149.288 20.2617 148.408 20.2617Z" fill="#0A1E3C"/>
</g>
<defs>
<clipPath id="clip0_26001_50105">
<rect width="150" height="34.5" fill="white" transform="translate(0 0.0898438)"/>
</clipPath>
</defs>
</svg>
