<svg width="31" height="10" viewBox="0 0 31 10" fill="none" xmlns="http://www.w3.org/2000/svg">
<path opacity="0.4" d="M2.47421 7.99905C2.07121 8.00966 1.6682 7.92482 1.29702 7.76574C0.971218 7.62809 0.688956 7.40447 0.48041 7.11881C0.279684 6.84111 0.172022 6.50699 0.172856 6.16434H1.09552C1.11673 6.46129 1.2546 6.74763 1.47731 6.94913C1.75305 7.18245 2.10302 7.2885 2.4636 7.26729C2.81358 7.2885 3.16355 7.17184 3.43929 6.94913C3.55522 6.8521 3.64782 6.73022 3.71024 6.59253C3.77266 6.45484 3.80329 6.30487 3.79987 6.15373C3.8109 5.92583 3.73511 5.70223 3.58776 5.52802C3.44765 5.36601 3.26891 5.24198 3.0681 5.16744C2.79237 5.06138 2.50602 4.97654 2.21968 4.90231C1.85844 4.81493 1.50401 4.70151 1.15915 4.56294C0.868996 4.42952 0.624664 4.21344 0.456763 3.94178C0.288862 3.67013 0.204859 3.35496 0.215278 3.03577C0.215278 2.6964 0.310725 2.35703 0.491015 2.07069C0.681911 1.78435 0.957649 1.56163 1.2652 1.42377C1.63639 1.26469 2.02878 1.19045 2.42118 1.20105C2.97266 1.16924 3.51353 1.33892 3.94834 1.66769C4.34074 1.96464 4.58466 2.42066 4.61648 2.90851H3.662C3.64838 2.77404 3.60635 2.644 3.53871 2.52699C3.47106 2.40998 3.37934 2.30867 3.2696 2.22977C3.00295 2.02543 2.67171 1.9238 2.33634 1.94343C2.01818 1.93282 1.70002 2.02827 1.44549 2.22977C1.33048 2.32407 1.23968 2.4445 1.18065 2.58101C1.12161 2.71753 1.09606 2.86617 1.10612 3.01456C1.09552 3.22667 1.16975 3.43877 1.30762 3.60846C1.44549 3.75693 1.62578 3.87359 1.81668 3.94783C2.01818 4.03267 2.30452 4.11751 2.6651 4.22357C3.02568 4.31901 3.38626 4.43567 3.72563 4.58415C3.99077 4.7008 4.22408 4.8917 4.40437 5.12502C4.60587 5.41136 4.71193 5.77194 4.69072 6.12192C4.68863 6.45891 4.59214 6.78858 4.41218 7.07351C4.23222 7.35844 3.97601 7.58723 3.67261 7.73392C3.30142 7.92482 2.89842 8.00966 2.47421 7.99905ZM12.7189 1.32832V7.93542H11.8493V3.01456L9.654 7.93542H9.04949L6.84359 3.00396V7.93542H5.97396V1.32832H6.90722L9.34644 6.79005L11.7857 1.32832H12.7189ZM16.3035 7.99905C15.9005 8.00966 15.4975 7.92482 15.1263 7.76574C14.8005 7.62809 14.5183 7.40447 14.3097 7.11881C14.109 6.84111 14.0013 6.50699 14.0022 6.16434H14.9248C14.9566 6.46129 15.0945 6.74763 15.3066 6.94913C15.5824 7.18245 15.9323 7.2885 16.2929 7.26729C16.6429 7.2885 16.9929 7.17184 17.2686 6.95973C17.3845 6.8627 17.4771 6.74082 17.5396 6.60313C17.602 6.46545 17.6326 6.31547 17.6292 6.16434C17.6402 5.93644 17.5644 5.71284 17.4171 5.53862C17.2686 5.37954 17.0989 5.25228 16.8868 5.17804C16.6111 5.07199 16.3247 4.98715 16.0384 4.91291C15.6802 4.82705 15.3292 4.71359 14.9885 4.57354C14.7209 4.45233 14.4876 4.26646 14.3097 4.03267C14.1188 3.73572 14.0128 3.39635 14.034 3.04638C14.0234 2.6964 14.1188 2.36764 14.3097 2.08129C14.5006 1.79495 14.7764 1.57224 15.0839 1.43437C15.4445 1.27529 15.8369 1.19045 16.2399 1.20105C16.7914 1.17984 17.3322 1.33892 17.7671 1.66769C18.1595 1.96464 18.4034 2.42066 18.4352 2.90851H17.4807C17.4632 2.77659 17.4195 2.64951 17.3521 2.53476C17.2847 2.42001 17.195 2.31991 17.0883 2.24037C16.8206 2.03715 16.491 1.93229 16.155 1.94343C15.8369 1.93282 15.5187 2.02827 15.2642 2.22977C15.1492 2.32407 15.0584 2.4445 14.9994 2.58101C14.9403 2.71753 14.9148 2.86617 14.9248 3.01456C14.9142 3.22667 14.9885 3.43877 15.1263 3.60846C15.2642 3.76754 15.4339 3.8842 15.6354 3.95843C15.8369 4.04328 16.1232 4.12812 16.4838 4.23417C16.8444 4.32962 17.205 4.44628 17.5443 4.59475C17.8201 4.71141 18.0534 4.9023 18.2337 5.13562C18.4352 5.42196 18.5412 5.78255 18.52 6.13252C18.52 6.45068 18.4352 6.76884 18.2655 7.04458C18.0852 7.34153 17.8201 7.58545 17.5019 7.74453C17.1201 7.92482 16.7171 8.00966 16.3035 7.99905Z" fill="black"/>
<path d="M26.0288 8.99565C28.3072 8.99565 30.1542 7.12488 30.1542 4.81716C30.1542 2.50945 28.3072 0.638672 26.0288 0.638672C23.7504 0.638672 21.9033 2.50945 21.9033 4.81716C21.9033 7.12488 23.7504 8.99565 26.0288 8.99565Z" stroke="#5479FF" stroke-width="0.530265" stroke-linecap="round" stroke-linejoin="round"/>
<path d="M24.6182 3.3858C24.8621 2.65403 25.6575 2.27224 26.3786 2.53738C26.9301 2.72827 27.2907 3.26914 27.2907 3.85243C27.2907 4.7857 25.912 5.25233 25.912 5.25233" stroke="#5479FF" stroke-width="0.530265" stroke-linecap="round" stroke-linejoin="round"/>
</svg>
