<svg width="55" height="47" viewBox="0 0 55 47" fill="none" xmlns="http://www.w3.org/2000/svg">
<path d="M45.6773 42.684L53.3295 34.6802V5.49145C53.4053 4.43757 53.2023 3.3823 52.7407 2.43185C52.6513 2.22429 52.5036 2.04714 52.3155 1.9219C52.1274 1.79665 51.907 1.7287 51.681 1.72628C35.2092 1.60826 17.6661 1.72628 2.83634 1.72628C2.36553 1.72628 2.01276 1.72628 1.89473 1.84431C1.7767 1.96234 1.7767 1.84431 1.7767 1.96234C1.55142 3.16454 1.47259 4.38961 1.54194 5.61077V41.5063C1.54194 42.2119 1.54195 42.2119 1.65997 42.3299C2.22139 42.5472 2.82648 42.6277 3.42518 42.5647H45.6773V42.684Z" stroke="#CAC9C9" stroke-width="2.59398"/>
<g opacity="0.887">
<path d="M44.2429 32.5097C45.6151 31.2516 45.2714 31.2516 46.0729 29.4229V8.61134C45.1586 6.78128 45.501 6.66584 44.0146 5.29492H8.1113C6.73909 6.553 7.19693 6.43888 6.28125 8.14832V29.8729C7.08149 31.4734 6.62365 31.3593 7.88173 32.5032H44.2416L44.2429 32.5097Z" stroke="#CAC9C9" stroke-opacity="0.98" stroke-width="2.08297" stroke-miterlimit="3.775" stroke-linejoin="round"/>
<path d="M44.0803 32.053C39.0492 32.1671 33.1038 32.5109 30.7018 32.2813C26.8108 31.9389 27.9574 25.878 32.1882 26.2217L32.074 11.5865C26.7006 11.8147 27.8432 5.75 32.1882 5.75H44.3085" stroke="#CAC9C9" stroke-width="1.14654" stroke-miterlimit="3.775"/>
<path d="M32.418 15.4746H45.7964" stroke="#CAC9C9" stroke-width="1.18934" stroke-miterlimit="3.775"/>
<path d="M32.5322 23.248H46.139" stroke="#CAC9C9" stroke-width="1.19972" stroke-miterlimit="3.775"/>
<path d="M34.7045 5.75391H26.0146" stroke="#CAC9C9" stroke-width="1.18934" stroke-miterlimit="3.775"/>
<path d="M30.7031 5.64062C43.7379 5.64062 46.1373 12.385 46.1373 19.1293C46.1373 26.1045 44.4227 32.2782 31.611 32.2782" stroke="#CAC9C9" stroke-width="1.17378" stroke-miterlimit="3.775"/>
<path d="M7.9956 32.0042C13.0266 32.1196 18.9733 32.462 21.3741 32.2338C25.2611 31.8901 24.1185 25.8253 19.8877 26.1729L20.0018 11.5377C25.3753 11.766 24.2326 5.70122 19.8877 5.70122L7.76732 5.70122" stroke="#CAC9C9" stroke-width="1.14654" stroke-miterlimit="3.775"/>
<path d="M19.5439 15.4258L6.16548 15.4258" stroke="#CAC9C9" stroke-width="1.18934" stroke-miterlimit="3.775"/>
<path d="M19.5439 23.1992H5.93721" stroke="#CAC9C9" stroke-width="1.19972" stroke-miterlimit="3.775"/>
<path d="M17.3717 5.70703L26.0615 5.70703" stroke="#CAC9C9" stroke-width="1.18934" stroke-miterlimit="3.775"/>
<path d="M21.374 5.70615C8.33926 5.70615 5.93983 12.4505 5.93983 19.1949C5.93983 26.1727 7.65315 32.3477 20.4596 32.3477" stroke="#CAC9C9" stroke-width="1.17378" stroke-miterlimit="3.775"/>
</g>
<path d="M51.1262 43.9297H38.1562V46.5237H51.1262V43.9297Z" fill="white"/>
<path d="M50.4776 44.5781H38.8047V45.8751H50.4776V44.5781Z" stroke="white" stroke-width="1.29699"/>
</svg>
