<svg width="34" height="10" viewBox="0 0 34 10" fill="none" xmlns="http://www.w3.org/2000/svg">
<path opacity="0.4" d="M0.0453361 4.45572C0.0347308 3.84062 0.183205 3.23611 0.480154 2.70585C0.766157 2.19477 1.18555 1.77093 1.69359 1.47955C2.20163 1.18818 2.77924 1.0402 3.3648 1.05142C4.02593 1.01157 4.68243 1.18473 5.23789 1.5455C5.79335 1.90626 6.21851 2.43561 6.45094 3.05582H5.41162C5.24033 2.66223 4.95196 2.33095 4.58573 2.10704C4.21951 1.88313 3.7932 1.77746 3.3648 1.8044C2.92998 1.79379 2.49516 1.91045 2.11337 2.13316C1.74218 2.34527 1.44524 2.66343 1.24374 3.05582C1.02102 3.49064 0.914971 3.96788 0.925576 4.45572C0.914971 4.93296 1.02102 5.4102 1.24374 5.84502C1.44684 6.22869 1.75296 6.54809 2.12767 6.7673C2.50238 6.9865 2.93082 7.09682 3.3648 7.08584C3.79961 7.09644 4.23443 6.99039 4.60562 6.76768C4.95559 6.54497 5.23133 6.22681 5.40101 5.84502H6.44033C6.21762 6.44952 5.80402 6.96918 5.25254 7.31915C4.70106 7.67973 4.03293 7.86003 3.3648 7.83881C2.92224 7.84329 2.48333 7.75835 2.07438 7.58911C1.66544 7.41986 1.29488 7.16979 0.98491 6.85388C0.674941 6.53797 0.43195 6.16273 0.270499 5.75064C0.109049 5.33856 0.0324644 4.89812 0.0453361 4.45572ZM7.41602 5.15567C7.40542 4.65722 7.51147 4.17999 7.73418 3.74517C7.94329 3.35415 8.25546 3.02784 8.63684 2.80162C9.01822 2.57541 9.45426 2.45793 9.89766 2.46193C10.3113 2.45132 10.7249 2.55737 11.0855 2.75887C11.4036 2.92856 11.6581 3.19369 11.8384 3.50125V2.54677H12.7187V7.78579H11.8384V6.8101C11.6581 7.12826 11.393 7.39339 11.0749 7.57368C10.7124 7.77664 10.3024 7.87915 9.88706 7.87063C9.44164 7.88124 9.00682 7.75397 8.62503 7.53126C8.24543 7.29707 7.93731 6.96327 7.73418 6.56618C7.51311 6.12956 7.40379 5.64492 7.41602 5.15567ZM11.8384 5.15567C11.849 4.79509 11.7642 4.44512 11.5945 4.12696C11.447 3.84885 11.2251 3.61724 10.9535 3.45805C10.682 3.29885 10.3715 3.21834 10.0567 3.22551C9.74382 3.22031 9.43555 3.30177 9.16603 3.46086C8.89651 3.61995 8.67624 3.85048 8.52958 4.12696C8.3811 4.43451 8.29626 4.79509 8.30687 5.15567C8.29626 5.51625 8.3811 5.86623 8.54018 6.19499C8.68866 6.48134 8.90076 6.71465 9.1765 6.87373C9.44164 7.03281 9.74919 7.10705 10.0673 7.10705C10.3832 7.11322 10.6944 7.03111 10.9661 6.86998C11.2378 6.70885 11.4591 6.47508 11.6051 6.19499C11.7642 5.87683 11.849 5.51625 11.8384 5.15567ZM15.0624 0.722656V7.78579H14.1928V0.722656H15.0624ZM17.4062 0.722656V7.78579H16.5366V0.722656H17.4062ZM20.7363 7.87063C20.3651 7.88124 20.0045 7.807 19.6545 7.66913C19.3589 7.56069 19.1013 7.36859 18.913 7.11625C18.7247 6.86392 18.6138 6.56225 18.594 6.24802H19.4955C19.5167 6.50255 19.6545 6.73586 19.8666 6.88434C20.1212 7.06463 20.4181 7.14947 20.7363 7.12826C21.012 7.13886 21.2878 7.06463 21.5211 6.90555C21.6099 6.8437 21.6824 6.76119 21.7323 6.66512C21.7821 6.56906 21.8079 6.46231 21.8074 6.35407C21.8102 6.2487 21.7827 6.14475 21.7281 6.05453C21.6736 5.96431 21.5944 5.8916 21.4999 5.84502C21.1996 5.69777 20.8827 5.58738 20.556 5.51625C20.231 5.43617 19.9121 5.3334 19.6015 5.2087C19.3595 5.10389 19.1453 4.94412 18.9758 4.74207C18.7947 4.50921 18.7009 4.22028 18.7107 3.92546C18.7107 3.66032 18.7955 3.4058 18.9546 3.19369C19.1243 2.96038 19.3576 2.78009 19.6333 2.66343C19.9515 2.52556 20.2909 2.46193 20.6302 2.47253C21.1393 2.45132 21.6271 2.5998 22.0301 2.90735C22.3907 3.2043 22.6028 3.63911 22.6028 4.10575H21.7332C21.729 3.97893 21.6975 3.85451 21.6407 3.74102C21.584 3.62753 21.5034 3.52765 21.4044 3.44822C21.1755 3.2694 20.8881 3.18242 20.5984 3.2043C20.3333 3.19369 20.0788 3.25732 19.856 3.4058C19.7717 3.46383 19.7025 3.54138 19.6545 3.63185C19.6065 3.72232 19.5811 3.82304 19.5803 3.92546C19.5803 4.08454 19.6333 4.23301 19.75 4.34967C19.8666 4.46633 20.0151 4.56178 20.1742 4.6148L20.8742 4.83751C21.1817 4.92236 21.4893 5.0178 21.7862 5.13446C22.0195 5.22991 22.2316 5.38899 22.3907 5.57989C22.571 5.8026 22.6558 6.06773 22.6558 6.35407C22.6558 6.62981 22.571 6.90555 22.4119 7.12826C22.2422 7.36158 22.0089 7.55247 21.7332 7.66913C21.4256 7.807 21.0863 7.87063 20.7363 7.87063Z" fill="black"/>
<path d="M29.3261 8.84557C31.669 8.84557 33.5682 6.94631 33.5682 4.60345C33.5682 2.26059 31.669 0.361328 29.3261 0.361328C26.9832 0.361328 25.084 2.26059 25.084 4.60345C25.084 6.94631 26.9832 8.84557 29.3261 8.84557Z" stroke="#5479FF" stroke-width="0.530265" stroke-linecap="round" stroke-linejoin="round"/>
<path d="M28.3721 3.20364C28.5948 2.55671 29.3053 2.21734 29.9523 2.45066C30.4507 2.62035 30.7795 3.09758 30.7795 3.61724C30.7795 4.44446 29.5387 4.85806 29.5387 4.85806" stroke="#5479FF" stroke-width="0.530265" stroke-linecap="round" stroke-linejoin="round"/>
</svg>
