<svg width="45" height="39" viewBox="0 0 45 39" fill="none" xmlns="http://www.w3.org/2000/svg">
<g opacity="0.887">
<path d="M30.0708 36.8773H14.8882C13.1018 36.8737 11.3337 36.5173 9.68537 35.8284C8.03708 35.1396 6.54112 34.1318 5.2834 32.8632C4.02569 31.5945 3.03101 30.0898 2.35648 28.4356C1.68196 26.7814 1.34088 25.0102 1.35284 23.2238V15.4562C1.34088 13.6698 1.68196 11.8986 2.35648 10.2444C3.03101 8.59017 4.02569 7.08553 5.2834 5.81685C6.54112 4.54817 8.03708 3.54045 9.68537 2.85159C11.3337 2.16273 13.1018 1.80628 14.8882 1.80273H30.0708C33.6727 1.82979 37.1177 3.2807 39.6536 5.83873C42.1895 8.39677 43.6104 11.8542 43.6062 15.4562V23.2238C43.6182 25.0102 43.2771 26.7814 42.6026 28.4356C41.9281 30.0898 40.9334 31.5945 39.6757 32.8632C38.418 34.1318 36.922 35.1396 35.2737 35.8284C33.6254 36.5173 31.8573 36.8737 30.0708 36.8773Z" stroke="#CAC9C9" stroke-opacity="0.98" stroke-width="2.27233" stroke-linejoin="round"/>
<path d="M40.4963 31.4642C35.9063 31.5823 28.9622 31.935 26.7262 31.7003C23.1958 31.3475 24.1322 25.6978 28.1386 26.0506L28.0206 12.5152C23.0777 12.7499 24.1361 7.10156 28.1386 7.10156H40.7324" stroke="#CAC9C9" stroke-width="1.2503"/>
<path d="M28.374 16.0469H40.615" stroke="#CAC9C9" stroke-width="1.29699"/>
<path d="M28.4922 23.2246H40.9679" stroke="#CAC9C9" stroke-width="1.30866"/>
<path d="M30.375 7.33549V1.92188" stroke="#CAC9C9" stroke-width="1.29699"/>
<path d="M30.493 7.10156H22.4893" stroke="#CAC9C9" stroke-width="1.29699"/>
<path d="M26.7266 6.98242C38.7316 6.98242 40.9676 13.2209 40.9676 19.4582C40.9676 25.9315 39.4372 31.5812 27.6683 31.5812C22.61 31.6992 23.667 35.3425 23.667 36.4073" stroke="#CAC9C9" stroke-width="1.28013"/>
<path d="M4.41675 31.4116C9.00291 31.5297 15.947 31.8825 18.183 31.6477C21.7134 31.2949 20.777 25.6452 16.7706 25.998L16.8886 12.4626C21.8315 12.6987 20.7731 7.04896 16.7706 7.04896L4.17681 7.04896" stroke="#CAC9C9" stroke-width="1.2503"/>
<path d="M16.5352 15.9941L4.29415 15.9941" stroke="#CAC9C9" stroke-width="1.29699"/>
<path d="M16.417 23.1738H3.94123" stroke="#CAC9C9" stroke-width="1.30866"/>
<path d="M14.5342 7.28516V1.87151" stroke="#CAC9C9" stroke-width="1.29699"/>
<path d="M14.4162 7.04883L22.4199 7.04883" stroke="#CAC9C9" stroke-width="1.29699"/>
<path d="M18.1825 6.92627C6.17752 6.92627 3.94151 13.1648 3.94151 19.402C3.94151 25.8753 5.47196 31.525 17.2409 31.525C22.3056 31.6482 21.4781 35.0619 21.4781 36.2383" stroke="#CAC9C9" stroke-width="1.28013"/>
</g>
</svg>
