<svg width="34" height="10" viewBox="0 0 34 10" fill="none" xmlns="http://www.w3.org/2000/svg">
<path opacity="0.4" d="M2.44206 0.923999C3.08898 0.902789 3.7359 1.04066 4.3298 1.327C4.83886 1.58153 5.26307 1.98453 5.54941 2.48298C5.84636 3.02385 5.98423 3.63896 5.97362 4.25406C5.98423 4.86917 5.84636 5.48428 5.54941 6.02515C5.26307 6.5236 4.83886 6.9266 4.3298 7.18113C3.7359 7.45687 3.08898 7.58413 2.44206 7.57352H0.374023V0.923999H2.44206ZM2.44206 6.86297C3.16322 6.916 3.87377 6.66147 4.40404 6.17362C4.88128 5.65396 5.1252 4.96462 5.08278 4.26467C5.10397 3.91233 5.05487 3.5593 4.93835 3.22611C4.82182 2.89292 4.6402 2.58624 4.40404 2.3239C3.87377 1.83606 3.16322 1.58153 2.44206 1.62395H1.23305V6.85236L2.44206 6.86297ZM6.79023 4.94341C6.77963 4.44496 6.88568 3.96772 7.10839 3.5329C7.318 3.14309 7.63058 2.81828 8.01207 2.59388C8.39356 2.36947 8.82932 2.25408 9.27187 2.26027C9.68548 2.24966 10.0991 2.35572 10.4597 2.55722C10.7778 2.7269 11.0324 2.99203 11.2126 3.29959V2.34511H12.0929V7.57352H11.2126V6.59784C11.0324 6.916 10.7672 7.18113 10.4385 7.36142C9.67487 7.77503 8.75221 7.76442 8.00984 7.319C7.63024 7.0848 7.32212 6.75101 7.119 6.35391C6.89467 5.91809 6.78172 5.43351 6.79023 4.94341ZM11.2126 4.95401C11.2232 4.59343 11.1384 4.24346 10.9687 3.9253C10.8167 3.64596 10.5935 3.41179 10.3218 3.24656C10.0569 3.08581 9.7513 3.0048 9.44156 3.01324C9.134 3.01324 8.82645 3.08748 8.55071 3.24656C8.28558 3.39503 8.06287 3.62835 7.91439 3.90409C7.75531 4.22225 7.67047 4.58283 7.68108 4.94341C7.67047 5.30399 7.75531 5.66457 7.91439 5.98273C8.06287 6.25847 8.27497 6.50239 8.55071 6.66147C8.82645 6.82055 9.134 6.89478 9.44156 6.89478C9.75737 6.90095 10.0686 6.81885 10.3403 6.65772C10.612 6.49658 10.8333 6.26282 10.9793 5.98273C11.149 5.66457 11.2339 5.30399 11.2126 4.95401ZM14.6276 3.05566V6.1312C14.6063 6.3221 14.67 6.5236 14.7866 6.67207C14.9457 6.78873 15.1472 6.85236 15.3487 6.83115H15.985V7.57352H15.2002C14.8078 7.60534 14.4261 7.47808 14.1185 7.23416C13.9877 7.08587 13.8884 6.91263 13.8264 6.72489C13.7644 6.53715 13.7411 6.3388 13.7579 6.14181V3.05566H13.0792V2.34511H13.7579V1.01945H14.6276V2.3345H15.9956V3.05566H14.6276ZM16.7168 4.9328C16.7062 4.44496 16.8122 3.95712 17.0456 3.5223C17.2471 3.1299 17.5546 2.80114 17.9364 2.57843C18.3065 2.36097 18.7265 2.2428 19.1557 2.23537C19.585 2.22794 20.0088 2.33149 20.3862 2.53601C20.7044 2.70569 20.9589 2.97082 21.1392 3.27838V2.3239H22.0194V7.57352H21.1392V6.59784C20.9589 6.916 20.6938 7.18113 20.3756 7.36142C20.0132 7.56437 19.6031 7.66689 19.1878 7.65837C18.7423 7.66695 18.3035 7.54893 17.9224 7.31802C17.5413 7.08711 17.2336 6.75279 17.035 6.35391C16.8228 5.90849 16.7062 5.43125 16.7168 4.9328ZM21.1498 4.94341C21.1604 4.58283 21.0756 4.23285 20.9059 3.91469C20.7584 3.63658 20.5365 3.40498 20.2649 3.24578C19.9933 3.08659 19.6828 3.00607 19.3681 3.01324C19.0552 3.00805 18.7469 3.0895 18.4774 3.24859C18.2079 3.40768 17.9876 3.63822 17.841 3.91469C17.6713 4.23285 17.597 4.58283 17.597 4.94341C17.5864 5.30399 17.6713 5.66457 17.841 5.99333C17.9894 6.26907 18.2015 6.51299 18.4773 6.67207C18.7424 6.83115 19.05 6.90539 19.3681 6.90539C19.6757 6.90539 19.9938 6.83115 20.259 6.67207C20.5347 6.51299 20.7574 6.27968 20.9059 5.99333C21.0756 5.66457 21.1604 5.30399 21.1498 4.94341Z" fill="black"/>
<path d="M29.3261 9.68346C31.669 9.68346 33.5682 7.7842 33.5682 5.44134C33.5682 3.09848 31.669 1.19922 29.3261 1.19922C26.9832 1.19922 25.084 3.09848 25.084 5.44134C25.084 7.7842 26.9832 9.68346 29.3261 9.68346Z" stroke="#5479FF" stroke-width="0.530265" stroke-linecap="round" stroke-linejoin="round"/>
<path d="M28.3721 4.06301C28.5948 3.41609 29.3053 3.07672 29.9523 3.31004C30.4507 3.47972 30.7795 3.95696 30.7795 4.47662C30.7795 5.30383 29.5387 5.71744 29.5387 5.71744" stroke="#5479FF" stroke-width="0.530265" stroke-linecap="round" stroke-linejoin="round"/>
</svg>
