<svg width="14" height="14" viewBox="0 0 14 14" fill="none" xmlns="http://www.w3.org/2000/svg">
<g clip-path="url(#clip0_26001_50176)">
<path d="M10.8828 4.38184L7.1123 6.55273L3.3418 4.38184L6.83301 2.37598C6.86686 2.35905 6.90072 2.34635 6.93457 2.33789C6.96842 2.32943 7.00228 2.32096 7.03613 2.3125C7.09538 2.30404 7.15462 2.30404 7.21387 2.3125C7.27311 2.32096 7.33236 2.34212 7.3916 2.37598L10.8828 4.38184ZM6.8584 13.1162C6.89225 13.1331 6.93245 13.1479 6.979 13.1606C7.02555 13.1733 7.06999 13.1797 7.1123 13.1797C7.16309 13.1797 7.20964 13.1733 7.25195 13.1606C7.29427 13.1479 7.33236 13.1331 7.36621 13.1162C7.46777 13.0993 7.5651 13.0739 7.6582 13.04C7.7513 13.0062 7.84017 12.9681 7.9248 12.9258L11.708 10.7549C11.8773 10.6533 12.0212 10.5327 12.1396 10.3931C12.2581 10.2534 12.3512 10.099 12.4189 9.92969C12.4528 9.83659 12.4803 9.74137 12.5015 9.64404C12.5226 9.54671 12.5332 9.44727 12.5332 9.3457V5.0166C12.5332 4.88118 12.5184 4.75423 12.4888 4.63574C12.4591 4.51725 12.4147 4.403 12.3555 4.29297C12.3555 4.26758 12.3512 4.24642 12.3428 4.22949C12.3343 4.21257 12.3216 4.19564 12.3047 4.17871C12.2962 4.15332 12.2835 4.13216 12.2666 4.11523C12.2497 4.09831 12.2327 4.08138 12.2158 4.06445C12.2074 4.05599 12.1989 4.04541 12.1904 4.03271C12.182 4.02002 12.1735 4.00944 12.165 4.00098C12.1058 3.91634 12.0381 3.84229 11.9619 3.77881C11.8857 3.71533 11.8053 3.6582 11.7207 3.60742L7.9248 1.43652C7.75553 1.34342 7.57992 1.27995 7.39795 1.24609C7.21598 1.21224 7.03613 1.21224 6.8584 1.24609C6.7653 1.25456 6.6722 1.27572 6.5791 1.30957C6.486 1.34342 6.3929 1.38574 6.2998 1.43652L2.5166 3.60742C2.40658 3.66667 2.30924 3.73438 2.22461 3.81055C2.13997 3.88672 2.0638 3.97135 1.99609 4.06445C1.97917 4.08138 1.96436 4.09831 1.95166 4.11523C1.93896 4.13216 1.92839 4.15332 1.91992 4.17871C1.90299 4.19564 1.8903 4.21468 1.88184 4.23584C1.87337 4.257 1.86914 4.27604 1.86914 4.29297C1.85221 4.3099 1.83952 4.33105 1.83105 4.35645C1.82259 4.38184 1.81413 4.403 1.80566 4.41992C1.77181 4.51302 1.7443 4.61035 1.72314 4.71191C1.70199 4.81348 1.69141 4.91081 1.69141 5.00391V9.3457C1.69141 9.54036 1.72314 9.72445 1.78662 9.89795C1.8501 10.0715 1.94108 10.2259 2.05957 10.3613C2.11882 10.4375 2.18652 10.5094 2.2627 10.5771C2.33887 10.6449 2.41927 10.7041 2.50391 10.7549L6.2998 12.9258C6.3929 12.9681 6.486 13.0062 6.5791 13.04C6.6722 13.0739 6.7653 13.0993 6.8584 13.1162ZM6.56641 7.49219V11.8213L3.0498 9.81543C3.02441 9.7985 2.99902 9.77946 2.97363 9.7583C2.94824 9.73714 2.92285 9.71387 2.89746 9.68848C2.86361 9.6377 2.8361 9.5848 2.81494 9.52979C2.79378 9.47477 2.7832 9.41341 2.7832 9.3457V5.30859L6.56641 7.49219ZM7.6582 11.8213V7.49219L11.4414 5.30859V9.3457C11.4414 9.37956 11.4393 9.41341 11.4351 9.44727C11.4308 9.48112 11.4202 9.51074 11.4033 9.53613C11.3864 9.59538 11.3589 9.64827 11.3208 9.69482C11.2827 9.74137 11.234 9.78158 11.1748 9.81543L7.6582 11.8213Z" fill="black" fill-opacity="0.3"/>
</g>
<defs>
<clipPath id="clip0_26001_50176">
<rect width="13" height="13" fill="white" transform="matrix(1 0 0 -1 0.612305 13.4102)"/>
</clipPath>
</defs>
</svg>
