<svg width="73" height="73" viewBox="0 0 73 73" fill="none" xmlns="http://www.w3.org/2000/svg">
<g clip-path="url(#clip0_26003_54532)">
<path d="M0.385742 4.92954V32.0702H14.8701C14.8232 33.4764 14.7529 34.8944 14.6592 36.3241C14.5654 37.7538 14.4248 39.1483 14.2373 40.5077C14.0498 41.867 13.7568 43.1913 13.3584 44.4803C12.96 45.7694 12.4795 47.0233 11.917 48.242C11.4014 49.3202 10.7686 50.328 10.0186 51.2655C9.26855 52.203 8.4248 53.0233 7.4873 53.7264C6.50293 54.4764 5.4248 55.0272 4.25293 55.3788C3.08105 55.7303 1.88574 55.8827 0.666992 55.8358V68.0702C2.77637 68.1639 4.85059 67.953 6.88965 67.4373C8.92871 66.9217 10.8857 66.1483 12.7607 65.117C14.4014 64.1795 15.9248 63.0428 17.3311 61.7069C18.7373 60.3709 19.9795 58.9061 21.0576 57.3123C22.2295 55.578 23.2256 53.7498 24.0459 51.828C24.8662 49.9061 25.5107 47.9374 25.9795 45.9217C26.542 43.6717 26.9521 41.3866 27.21 39.0663C27.4678 36.7459 27.5967 34.4139 27.5967 32.0702V4.92954H0.385742ZM45.1748 4.92954V32.0702H59.6592C59.6592 33.4764 59.6006 34.8944 59.4834 36.3241C59.3662 37.7538 59.2139 39.1483 59.0264 40.5077C58.8389 41.867 58.5576 43.1913 58.1826 44.4803C57.8076 45.7694 57.3154 47.0233 56.7061 48.242C56.1904 49.3202 55.5576 50.328 54.8076 51.2655C54.0576 52.203 53.2139 53.0233 52.2764 53.7264C51.292 54.4764 50.2139 55.0272 49.042 55.3788C47.8701 55.7303 46.6748 55.8827 45.4561 55.8358V68.0702C47.5654 68.1639 49.6514 67.953 51.7139 67.4373C53.7764 66.9217 55.7217 66.1483 57.5498 65.117C59.2373 64.1795 60.7842 63.0428 62.1904 61.7069C63.5967 60.3709 64.8389 58.9061 65.917 57.3123C67.042 55.578 68.0146 53.7498 68.835 51.828C69.6553 49.9061 70.2998 47.9374 70.7686 45.9217C71.3311 43.6717 71.7412 41.3866 71.999 39.0663C72.2568 36.7459 72.3857 34.4139 72.3857 32.0702V4.92954H45.1748Z" fill="#36A83A"/>
</g>
<defs>
<clipPath id="clip0_26003_54532">
<rect width="72" height="73" fill="white" transform="matrix(1 0 0 -1 0.385742 73)"/>
</clipPath>
</defs>
</svg>
