<svg width="23" height="23" viewBox="0 0 23 23" fill="none" xmlns="http://www.w3.org/2000/svg">
<path d="M9.1416 17.8867L14.6416 12.3867C14.8278 12.2148 14.9209 12.0036 14.9209 11.7529C14.9209 11.5023 14.8278 11.2839 14.6416 11.0977L9.1416 5.59766C8.96973 5.42578 8.75488 5.33984 8.49707 5.33984C8.23926 5.33984 8.02441 5.42578 7.85254 5.59766C7.66634 5.78385 7.57324 6.00228 7.57324 6.25293C7.57324 6.50358 7.66634 6.71484 7.85254 6.88672L12.708 11.7422L7.85254 16.5977C7.66634 16.7839 7.57324 17.0023 7.57324 17.2529C7.57324 17.5036 7.66634 17.7148 7.85254 17.8867C8.02441 18.0729 8.23926 18.166 8.49707 18.166C8.75488 18.166 8.96973 18.0729 9.1416 17.8867Z" fill="#36A83A"/>
</svg>
