<svg width="23" height="23" viewBox="0 0 23 23" fill="none" xmlns="http://www.w3.org/2000/svg">
<path d="M9.00977 18.4043L14.5098 12.9043C14.696 12.7324 14.7891 12.5212 14.7891 12.2705C14.7891 12.0199 14.696 11.8014 14.5098 11.6152L9.00977 6.11523C8.83789 5.94336 8.62305 5.85742 8.36523 5.85742C8.10742 5.85742 7.89258 5.94336 7.7207 6.11523C7.53451 6.30143 7.44141 6.51986 7.44141 6.77051C7.44141 7.02116 7.53451 7.23242 7.7207 7.4043L12.5762 12.2598L7.7207 17.1152C7.53451 17.3014 7.44141 17.5199 7.44141 17.7705C7.44141 18.0212 7.53451 18.2324 7.7207 18.4043C7.89258 18.5905 8.10742 18.6836 8.36523 18.6836C8.62305 18.6836 8.83789 18.5905 9.00977 18.4043Z" fill="white"/>
</svg>
