<svg width="14" height="14" viewBox="0 0 14 14" fill="none" xmlns="http://www.w3.org/2000/svg">
<g clip-path="url(#clip0_26001_50180)">
<path d="M3.67188 7.89941C4.19661 7.45085 4.77425 7.125 5.40479 6.92188C6.03532 6.71875 6.6722 6.62565 7.31543 6.64258C7.89941 6.66797 8.47493 6.78434 9.04199 6.9917C9.60905 7.19906 10.1296 7.50163 10.6035 7.89941C10.722 7.99251 10.8553 8.03271 11.0034 8.02002C11.1515 8.00732 11.2721 7.94173 11.3652 7.82324C11.4583 7.70475 11.4985 7.57145 11.4858 7.42334C11.4731 7.27523 11.4076 7.15462 11.2891 7.06152C11.0098 6.82454 10.7093 6.61719 10.3877 6.43945C10.0745 6.25326 9.75293 6.0988 9.42285 5.97607C9.09277 5.85335 8.75423 5.75814 8.40723 5.69043C8.06022 5.61426 7.70898 5.57194 7.35352 5.56348C6.96419 5.54655 6.5791 5.56771 6.19824 5.62695C5.81738 5.67773 5.44076 5.7666 5.06836 5.89355C4.69596 6.02051 4.33203 6.18131 3.97656 6.37598C3.62956 6.57064 3.29525 6.79915 2.97363 7.06152C2.86361 7.15462 2.80013 7.27734 2.7832 7.42969C2.76628 7.58203 2.80859 7.71322 2.91016 7.82324C3.00326 7.94173 3.12386 8.00732 3.27197 8.02002C3.42008 8.03271 3.55339 7.99251 3.67188 7.89941ZM1.74219 5.95703C2.13997 5.61003 2.55892 5.30534 2.99902 5.04297C3.43913 4.78906 3.89616 4.57747 4.37012 4.4082C4.84408 4.23893 5.32227 4.11621 5.80469 4.04004C6.29557 3.96387 6.79069 3.93001 7.29004 3.93848C7.75553 3.94694 8.2168 3.99772 8.67383 4.09082C9.13086 4.17546 9.58154 4.30241 10.0259 4.47168C10.4702 4.64095 10.8997 4.85254 11.3145 5.10645C11.7207 5.35189 12.11 5.63542 12.4824 5.95703C12.6009 6.05859 12.7342 6.10514 12.8823 6.09668C13.0304 6.08822 13.151 6.02474 13.2441 5.90625C13.3457 5.79622 13.3923 5.66715 13.3838 5.51904C13.3753 5.37093 13.3118 5.24609 13.1934 5.14453C12.7786 4.7806 12.3343 4.45898 11.8604 4.17969C11.3949 3.89193 10.9124 3.65283 10.4131 3.4624C9.91374 3.27197 9.40169 3.12598 8.87695 3.02441C8.36068 2.92285 7.83594 2.86784 7.30273 2.85938C6.7526 2.84245 6.19824 2.88053 5.63965 2.97363C5.08105 3.05827 4.53516 3.1958 4.00195 3.38623C3.46875 3.57666 2.95247 3.81999 2.45312 4.11621C1.95378 4.40397 1.47559 4.74674 1.01855 5.14453C0.908529 5.24609 0.849284 5.37093 0.84082 5.51904C0.832357 5.66715 0.878906 5.80046 0.980469 5.91895C1.07357 6.02897 1.19629 6.08822 1.34863 6.09668C1.50098 6.10514 1.63216 6.05859 1.74219 5.95703ZM5.55078 9.8418C5.81315 9.6556 6.09668 9.5223 6.40137 9.44189C6.70605 9.36149 7.01074 9.33398 7.31543 9.35938C7.56087 9.3763 7.79997 9.42708 8.03271 9.51172C8.26546 9.59635 8.4834 9.71061 8.68652 9.85449C8.80501 9.93913 8.93831 9.96875 9.08643 9.94336C9.23454 9.91797 9.35091 9.8418 9.43555 9.71484C9.52865 9.59635 9.56038 9.46305 9.53076 9.31494C9.50114 9.16683 9.42708 9.05046 9.30859 8.96582C9.02083 8.7627 8.71615 8.604 8.39453 8.48975C8.07292 8.37549 7.74284 8.30566 7.4043 8.28027C6.98112 8.24642 6.55583 8.28451 6.12842 8.39453C5.70101 8.50456 5.29688 8.69499 4.91602 8.96582C4.79753 9.05046 4.72559 9.16683 4.7002 9.31494C4.6748 9.46305 4.70443 9.59635 4.78906 9.71484C4.8737 9.8418 4.99007 9.91797 5.13818 9.94336C5.2863 9.96875 5.42383 9.9349 5.55078 9.8418ZM7.1123 12.0508C7.26465 12.0508 7.39372 11.9979 7.49951 11.8921C7.60531 11.7863 7.6582 11.6615 7.6582 11.5176C7.6582 11.3652 7.60531 11.2362 7.49951 11.1304C7.39372 11.0246 7.26465 10.9717 7.1123 10.9717C6.95996 10.9717 6.83089 11.0246 6.7251 11.1304C6.6193 11.2362 6.56641 11.3652 6.56641 11.5176C6.56641 11.6615 6.6193 11.7863 6.7251 11.8921C6.83089 11.9979 6.95996 12.0508 7.1123 12.0508Z" fill="black" fill-opacity="0.3"/>
</g>
<defs>
<clipPath id="clip0_26001_50180">
<rect width="13" height="13" fill="white" transform="matrix(1 0 0 -1 0.612305 13.4102)"/>
</clipPath>
</defs>
</svg>
