<svg width="21" height="21" viewBox="0 0 21 21" fill="none" xmlns="http://www.w3.org/2000/svg">
<g clip-path="url(#clip0_26003_109206)">
<path d="M19.3188 15.0117C19.3318 14.7122 19.2895 14.4258 19.1918 14.1523C19.0942 13.8789 18.9542 13.625 18.7719 13.3906C18.5766 13.1562 18.3422 12.9609 18.0688 12.8047C17.7953 12.6484 17.4893 12.5443 17.1508 12.4922C16.8253 12.4531 16.4802 12.388 16.1156 12.2969C15.7511 12.2057 15.38 12.0951 15.0024 11.9648C14.8201 11.8997 14.6345 11.8542 14.4457 11.8281C14.2569 11.8021 14.0714 11.7956 13.8891 11.8086C13.6156 11.8346 13.3487 11.9095 13.0883 12.0332C12.8279 12.1569 12.587 12.3229 12.3656 12.5312L11.7602 13.1172C11.031 12.6615 10.3409 12.1113 9.68986 11.4668C9.03882 10.8223 8.4594 10.1029 7.95158 9.30859L8.55705 8.70312C8.68726 8.5599 8.80119 8.4069 8.89885 8.24414C8.9965 8.08138 9.07789 7.90885 9.14299 7.72656C9.23413 7.46615 9.27971 7.19271 9.27971 6.90625C9.27971 6.61979 9.22111 6.33984 9.10393 6.06641C8.98674 5.74089 8.88257 5.39583 8.79143 5.03125C8.70028 4.66667 8.62867 4.28906 8.57658 3.89844C8.53752 3.59896 8.44637 3.32227 8.30315 3.06836C8.15992 2.81445 7.98414 2.58984 7.7758 2.39453C7.55445 2.1862 7.29729 2.02669 7.00432 1.91602C6.71135 1.80534 6.4021 1.75 6.07658 1.75H3.59611C3.55705 1.75 3.51799 1.75 3.47893 1.75C3.43986 1.75 3.4008 1.75651 3.36174 1.76953C3.0232 1.79557 2.70744 1.88672 2.41447 2.04297C2.1215 2.19922 1.87085 2.40104 1.66252 2.64844C1.45419 2.89583 1.30119 3.17578 1.20354 3.48828C1.10588 3.80078 1.07007 4.13281 1.09611 4.48438C1.16122 5.1224 1.26539 5.76693 1.40861 6.41797C1.55184 7.05599 1.73414 7.69727 1.95549 8.3418C2.17684 8.98633 2.43726 9.61458 2.73674 10.2266C3.04924 10.8516 3.39429 11.4635 3.7719 12.0625C4.0844 12.5703 4.42945 13.0651 4.80705 13.5469C5.18466 14.0156 5.59481 14.4714 6.03752 14.9141C6.48023 15.3568 6.94898 15.7799 7.44377 16.1836C7.95158 16.5872 8.47893 16.9648 9.0258 17.3164C9.55966 17.668 10.1196 17.9935 10.7055 18.293C11.3044 18.5924 11.9197 18.8561 12.5512 19.084C13.1827 19.3118 13.837 19.5039 14.5141 19.6602C15.1912 19.8164 15.8878 19.9336 16.6039 20.0117C16.643 20.0117 16.6821 20.015 16.7211 20.0215C16.7602 20.028 16.7992 20.0312 16.8383 20.0312C17.1768 20.0312 17.4991 19.9629 17.8051 19.8262C18.1111 19.6895 18.3748 19.5104 18.5961 19.2891C18.8305 19.0547 19.0095 18.7878 19.1332 18.4883C19.2569 18.1888 19.3188 17.8633 19.3188 17.5117V15.0117ZM17.6586 15.0117V17.5117C17.6586 17.6289 17.6358 17.7396 17.5903 17.8438C17.5447 17.9479 17.4893 18.0391 17.4242 18.1172C17.3461 18.1823 17.255 18.2376 17.1508 18.2832C17.0466 18.3288 16.9425 18.3516 16.8383 18.3516C16.1742 18.2865 15.5362 18.1823 14.9242 18.0391C14.2992 17.8958 13.697 17.7201 13.1176 17.5117C12.5382 17.3034 11.988 17.069 11.4672 16.8086C10.9334 16.5352 10.4255 16.2422 9.94377 15.9297C9.43596 15.6042 8.95419 15.2591 8.49846 14.8945C8.04273 14.5299 7.6163 14.1491 7.21916 13.752C6.82203 13.3548 6.45419 12.9414 6.11565 12.5117C5.7771 12.082 5.47111 11.6393 5.19768 11.1836C4.84611 10.6367 4.5271 10.0833 4.24065 9.52344C3.96721 8.95052 3.72958 8.37435 3.52775 7.79492C3.32593 7.2155 3.15992 6.63281 3.02971 6.04688C2.8995 5.47396 2.80835 4.90104 2.75627 4.32812C2.74325 4.21094 2.75302 4.10026 2.78557 3.99609C2.81812 3.89193 2.87346 3.80078 2.95158 3.72266C3.01669 3.63151 3.09807 3.5599 3.19572 3.50781C3.29338 3.45573 3.4008 3.42969 3.51799 3.42969L6.07658 3.41016C6.19377 3.41016 6.30119 3.42969 6.39885 3.46875C6.4965 3.50781 6.5844 3.5599 6.66252 3.625C6.72762 3.6901 6.78296 3.76497 6.82854 3.84961C6.87411 3.93424 6.90341 4.02865 6.91643 4.13281C6.98153 4.58854 7.06942 5.028 7.1801 5.45117C7.29078 5.87435 7.41773 6.27474 7.56096 6.65234C7.587 6.74349 7.60002 6.83789 7.60002 6.93555C7.60002 7.0332 7.587 7.12109 7.56096 7.19922C7.54794 7.26432 7.5219 7.32617 7.48283 7.38477C7.44377 7.44336 7.40471 7.49219 7.36565 7.53125L6.31096 8.58594C6.18075 8.71615 6.10262 8.87565 6.07658 9.06445C6.05054 9.25325 6.08309 9.42578 6.17424 9.58203C6.49976 10.168 6.86434 10.7148 7.26799 11.2227C7.65861 11.7435 8.07854 12.2253 8.52775 12.668C8.97697 13.1107 9.45549 13.5208 9.9633 13.8984C10.4581 14.276 10.9659 14.6081 11.4867 14.8945C11.656 14.9857 11.8318 15.0182 12.0141 14.9922C12.1964 14.9661 12.3526 14.888 12.4828 14.7578L13.5571 13.7031C13.6222 13.638 13.697 13.5859 13.7817 13.5469C13.8663 13.5078 13.9542 13.4818 14.0453 13.4688C14.1104 13.4688 14.1755 13.472 14.2406 13.4785C14.3057 13.485 14.3709 13.5013 14.436 13.5273C14.8526 13.6836 15.2758 13.8138 15.7055 13.918C16.1352 14.0221 16.5518 14.1003 16.9555 14.1523C17.0597 14.1654 17.1541 14.1979 17.2387 14.25C17.3233 14.3021 17.3982 14.3672 17.4633 14.4453C17.5284 14.5234 17.5772 14.6113 17.6098 14.709C17.6423 14.8066 17.6586 14.9076 17.6586 15.0117Z" fill="#5479FF"/>
</g>
<defs>
<clipPath id="clip0_26003_109206">
<rect width="20" height="20" fill="white" transform="matrix(1 0 0 -1 0.158203 20.5)"/>
</clipPath>
</defs>
</svg>
