<svg width="23" height="23" viewBox="0 0 23 23" fill="none" xmlns="http://www.w3.org/2000/svg">
<path d="M9.00977 18.0059L14.5098 12.5059C14.696 12.334 14.7891 12.1227 14.7891 11.8721C14.7891 11.6214 14.696 11.403 14.5098 11.2168L9.00977 5.7168C8.83789 5.54492 8.62305 5.45898 8.36523 5.45898C8.10742 5.45898 7.89258 5.54492 7.7207 5.7168C7.53451 5.903 7.44141 6.12142 7.44141 6.37207C7.44141 6.62272 7.53451 6.83398 7.7207 7.00586L12.5762 11.8613L7.7207 16.7168C7.53451 16.903 7.44141 17.1214 7.44141 17.3721C7.44141 17.6227 7.53451 17.834 7.7207 18.0059C7.89258 18.1921 8.10742 18.2852 8.36523 18.2852C8.62305 18.2852 8.83789 18.1921 9.00977 18.0059Z" fill="white"/>
</svg>
