<svg width="21" height="21" viewBox="0 0 21 21" fill="none" xmlns="http://www.w3.org/2000/svg">
<g clip-path="url(#clip0_26003_109201)">
<path d="M2.67871 3.41016C2.34017 3.41016 2.0179 3.47526 1.71191 3.60547C1.40592 3.73568 1.14225 3.91797 0.920898 4.15234C0.686523 4.3737 0.504232 4.63737 0.374023 4.94336C0.243815 5.24935 0.178711 5.57161 0.178711 5.91016V15.9102C0.178711 16.2617 0.243815 16.5905 0.374023 16.8965C0.504232 17.2025 0.686523 17.4661 0.920898 17.6875C1.14225 17.9089 1.40592 18.0846 1.71191 18.2148C2.0179 18.3451 2.34017 18.4102 2.67871 18.4102H17.6787C18.0173 18.4102 18.3395 18.3451 18.6455 18.2148C18.9515 18.0846 19.2152 17.9089 19.4365 17.6875C19.6709 17.4531 19.8532 17.1862 19.9834 16.8867C20.1136 16.5872 20.1787 16.2617 20.1787 15.9102V5.91016C20.1787 5.57161 20.1136 5.24935 19.9834 4.94336C19.8532 4.63737 19.6709 4.3737 19.4365 4.15234C19.2152 3.93099 18.9515 3.75195 18.6455 3.61523C18.3395 3.47852 18.0173 3.41016 17.6787 3.41016H2.67871ZM18.5186 8.41016H1.83887V5.91016C1.83887 5.80599 1.86165 5.70182 1.90723 5.59766C1.9528 5.49349 2.01465 5.40234 2.09277 5.32422C2.1709 5.24609 2.25879 5.1875 2.35645 5.14844C2.4541 5.10938 2.56152 5.08984 2.67871 5.08984H17.6787C17.7959 5.08984 17.9033 5.10938 18.001 5.14844C18.0986 5.1875 18.1865 5.24609 18.2646 5.32422C18.3428 5.40234 18.4046 5.49349 18.4502 5.59766C18.4958 5.70182 18.5186 5.80599 18.5186 5.91016V8.41016ZM1.83887 10.0898H18.5186V15.9102C18.5186 16.0273 18.4958 16.138 18.4502 16.2422C18.4046 16.3464 18.3428 16.431 18.2646 16.4961C18.1865 16.5742 18.0986 16.6361 18.001 16.6816C17.9033 16.7272 17.7959 16.75 17.6787 16.75H2.67871C2.56152 16.75 2.4541 16.7272 2.35645 16.6816C2.25879 16.6361 2.1709 16.5742 2.09277 16.4961C2.01465 16.431 1.9528 16.3464 1.90723 16.2422C1.86165 16.138 1.83887 16.0273 1.83887 15.9102V10.0898Z" fill="#5479FF"/>
</g>
<defs>
<clipPath id="clip0_26003_109201">
<rect width="20" height="20" fill="white" transform="matrix(1 0 0 -1 0.178711 20.5)"/>
</clipPath>
</defs>
</svg>
