<svg width="23" height="23" viewBox="0 0 23 23" fill="none" xmlns="http://www.w3.org/2000/svg">
<path d="M9.1582 17.8066L14.6582 12.3066C14.8444 12.1348 14.9375 11.9235 14.9375 11.6729C14.9375 11.4222 14.8444 11.2038 14.6582 11.0176L9.1582 5.51758C8.98633 5.3457 8.77148 5.25977 8.51367 5.25977C8.25586 5.25977 8.04102 5.3457 7.86914 5.51758C7.68294 5.70378 7.58984 5.9222 7.58984 6.17285C7.58984 6.4235 7.68294 6.63477 7.86914 6.80664L12.7246 11.6621L7.86914 16.5176C7.68294 16.7038 7.58984 16.9222 7.58984 17.1729C7.58984 17.4235 7.68294 17.6348 7.86914 17.8066C8.04102 17.9928 8.25586 18.0859 8.51367 18.0859C8.77148 18.0859 8.98633 17.9928 9.1582 17.8066Z" fill="white"/>
</svg>
