<svg width="21" height="21" viewBox="0 0 21 21" fill="none" xmlns="http://www.w3.org/2000/svg">
<path d="M4.6084 9.06641L9.6084 14.0664C9.76465 14.2357 9.95996 14.3203 10.1943 14.3203C10.4287 14.3203 10.624 14.2357 10.7803 14.0664L15.7803 9.06641C15.9495 8.91016 16.0342 8.7181 16.0342 8.49023C16.0342 8.26237 15.9495 8.0638 15.7803 7.89453C15.624 7.73828 15.4287 7.66016 15.1943 7.66016C14.96 7.66016 14.7646 7.73828 14.6084 7.89453L10.1943 12.3086L5.78027 7.89453C5.62402 7.73828 5.42871 7.66016 5.19434 7.66016C4.95996 7.66016 4.76465 7.73828 4.6084 7.89453C4.43913 8.0638 4.35449 8.26237 4.35449 8.49023C4.35449 8.7181 4.43913 8.91016 4.6084 9.06641Z" fill="#5479FF"/>
</svg>
