<svg width="20" height="21" viewBox="0 0 20 21" fill="none" xmlns="http://www.w3.org/2000/svg">
<path d="M10.8398 17.5898V9.25C10.8398 9.01562 10.7585 8.81706 10.5957 8.6543C10.4329 8.49154 10.2344 8.41016 10 8.41016C9.76562 8.41016 9.56706 8.49154 9.4043 8.6543C9.24154 8.81706 9.16016 9.01562 9.16016 9.25V17.5898C9.16016 17.8112 9.24154 18.0033 9.4043 18.166C9.56706 18.3288 9.76562 18.4102 10 18.4102C10.2344 18.4102 10.4329 18.3288 10.5957 18.166C10.7585 18.0033 10.8398 17.8112 10.8398 17.5898ZM15.8398 17.5898V4.25C15.8398 4.01562 15.7585 3.81706 15.5957 3.6543C15.4329 3.49154 15.2344 3.41016 15 3.41016C14.7656 3.41016 14.5671 3.49154 14.4043 3.6543C14.2415 3.81706 14.1602 4.01562 14.1602 4.25V17.5898C14.1602 17.8112 14.2415 18.0033 14.4043 18.166C14.5671 18.3288 14.7656 18.4102 15 18.4102C15.2344 18.4102 15.4329 18.3288 15.5957 18.166C15.7585 18.0033 15.8398 17.8112 15.8398 17.5898ZM5.83984 17.5898V14.25C5.83984 14.0156 5.75846 13.8171 5.5957 13.6543C5.43294 13.4915 5.23438 13.4102 5 13.4102C4.76562 13.4102 4.56706 13.4915 4.4043 13.6543C4.24154 13.8171 4.16016 14.0156 4.16016 14.25V17.5898C4.16016 17.8112 4.24154 18.0033 4.4043 18.166C4.56706 18.3288 4.76562 18.4102 5 18.4102C5.23438 18.4102 5.43294 18.3288 5.5957 18.166C5.75846 18.0033 5.83984 17.8112 5.83984 17.5898Z" fill="#5479FF"/>
</svg>
