<svg width="20" height="20" viewBox="0 0 20 20" fill="none" xmlns="http://www.w3.org/2000/svg">
<path d="M19.1606 14.5117C19.1736 14.2122 19.1313 13.9258 19.0336 13.6523C18.936 13.3789 18.796 13.125 18.6137 12.8906C18.4184 12.6562 18.184 12.4609 17.9106 12.3047C17.6371 12.1484 17.3311 12.0443 16.9926 11.9922C16.6671 11.9531 16.322 11.888 15.9574 11.7969C15.5929 11.7057 15.2218 11.5951 14.8442 11.4648C14.6619 11.3997 14.4763 11.3542 14.2875 11.3281C14.0987 11.3021 13.9132 11.2956 13.7309 11.3086C13.4574 11.3346 13.1905 11.4095 12.9301 11.5332C12.6697 11.6569 12.4288 11.8229 12.2074 12.0312L11.602 12.6172C10.8728 12.1615 10.1827 11.6113 9.53166 10.9668C8.88062 10.3223 8.30119 9.60286 7.79338 8.80859L8.39885 8.20312C8.52906 8.0599 8.64299 7.9069 8.74065 7.74414C8.8383 7.58138 8.91968 7.40885 8.98479 7.22656C9.07593 6.96615 9.1215 6.69271 9.1215 6.40625C9.1215 6.11979 9.06291 5.83984 8.94572 5.56641C8.82854 5.24089 8.72437 4.89583 8.63322 4.53125C8.54208 4.16667 8.47046 3.78906 8.41838 3.39844C8.37932 3.09896 8.28817 2.82227 8.14494 2.56836C8.00171 2.31445 7.82593 2.08984 7.6176 1.89453C7.39624 1.6862 7.13908 1.52669 6.84611 1.41602C6.55315 1.30534 6.2439 1.25 5.91838 1.25H3.43791C3.39885 1.25 3.35979 1.25 3.32072 1.25C3.28166 1.25 3.2426 1.25651 3.20354 1.26953C2.86499 1.29557 2.54924 1.38672 2.25627 1.54297C1.9633 1.69922 1.71265 1.90104 1.50432 2.14844C1.29598 2.39583 1.14299 2.67578 1.04533 2.98828C0.947677 3.30078 0.91187 3.63281 0.937911 3.98438C1.00302 4.6224 1.10718 5.26693 1.25041 5.91797C1.39364 6.55599 1.57593 7.19727 1.79729 7.8418C2.01864 8.48633 2.27906 9.11458 2.57854 9.72656C2.89104 10.3516 3.23609 10.9635 3.61369 11.5625C3.92619 12.0703 4.27124 12.5651 4.64885 13.0469C5.02645 13.5156 5.43661 13.9714 5.87932 14.4141C6.32203 14.8568 6.79078 15.2799 7.28557 15.6836C7.79338 16.0872 8.32072 16.4648 8.8676 16.8164C9.40145 17.168 9.96135 17.4935 10.5473 17.793C11.1462 18.0924 11.7615 18.3561 12.393 18.584C13.0245 18.8118 13.6788 19.0039 14.3559 19.1602C15.033 19.3164 15.7296 19.4336 16.4457 19.5117C16.4848 19.5117 16.5238 19.515 16.5629 19.5215C16.602 19.528 16.641 19.5312 16.6801 19.5312C17.0186 19.5312 17.3409 19.4629 17.6469 19.3262C17.9529 19.1895 18.2166 19.0104 18.4379 18.7891C18.6723 18.5547 18.8513 18.2878 18.975 17.9883C19.0987 17.6888 19.1606 17.3633 19.1606 17.0117V14.5117ZM17.5004 14.5117V17.0117C17.5004 17.1289 17.4776 17.2396 17.4321 17.3438C17.3865 17.4479 17.3311 17.5391 17.266 17.6172C17.1879 17.6823 17.0968 17.7376 16.9926 17.7832C16.8884 17.8288 16.7843 17.8516 16.6801 17.8516C16.016 17.7865 15.378 17.6823 14.766 17.5391C14.141 17.3958 13.5388 17.2201 12.9594 17.0117C12.38 16.8034 11.8298 16.569 11.309 16.3086C10.7752 16.0352 10.2673 15.7422 9.78557 15.4297C9.27775 15.1042 8.79598 14.7591 8.34025 14.3945C7.88453 14.0299 7.45809 13.6491 7.06096 13.252C6.66382 12.8548 6.29598 12.4414 5.95744 12.0117C5.6189 11.582 5.31291 11.1393 5.03947 10.6836C4.68791 10.1367 4.3689 9.58333 4.08244 9.02344C3.809 8.45052 3.57137 7.87435 3.36955 7.29492C3.16773 6.7155 3.00171 6.13281 2.8715 5.54688C2.7413 4.97396 2.65015 4.40104 2.59807 3.82812C2.58505 3.71094 2.59481 3.60026 2.62736 3.49609C2.65992 3.39193 2.71525 3.30078 2.79338 3.22266C2.85848 3.13151 2.93986 3.0599 3.03752 3.00781C3.13518 2.95573 3.2426 2.92969 3.35979 2.92969L5.91838 2.91016C6.03557 2.91016 6.14299 2.92969 6.24065 2.96875C6.3383 3.00781 6.42619 3.0599 6.50432 3.125C6.56942 3.1901 6.62476 3.26497 6.67033 3.34961C6.71591 3.43424 6.7452 3.52865 6.75822 3.63281C6.82333 4.08854 6.91122 4.528 7.0219 4.95117C7.13257 5.37435 7.25953 5.77474 7.40275 6.15234C7.4288 6.24349 7.44182 6.33789 7.44182 6.43555C7.44182 6.5332 7.4288 6.62109 7.40275 6.69922C7.38973 6.76432 7.36369 6.82617 7.32463 6.88477C7.28557 6.94336 7.2465 6.99219 7.20744 7.03125L6.15275 8.08594C6.02255 8.21615 5.94442 8.37565 5.91838 8.56445C5.89234 8.75325 5.92489 8.92578 6.01604 9.08203C6.34156 9.66797 6.70614 10.2148 7.10979 10.7227C7.50041 11.2435 7.92033 11.7253 8.36955 12.168C8.81877 12.6107 9.29729 13.0208 9.8051 13.3984C10.2999 13.776 10.8077 14.1081 11.3285 14.3945C11.4978 14.4857 11.6736 14.5182 11.8559 14.4922C12.0382 14.4661 12.1944 14.388 12.3246 14.2578L13.3988 13.2031C13.464 13.138 13.5388 13.0859 13.6235 13.0469C13.7081 13.0078 13.796 12.9818 13.8871 12.9688C13.9522 12.9688 14.0173 12.972 14.0824 12.9785C14.1475 12.985 14.2127 13.0013 14.2778 13.0273C14.6944 13.1836 15.1176 13.3138 15.5473 13.418C15.977 13.5221 16.3936 13.6003 16.7973 13.6523C16.9015 13.6654 16.9959 13.6979 17.0805 13.75C17.1651 13.8021 17.24 13.8672 17.3051 13.9453C17.3702 14.0234 17.419 14.1113 17.4516 14.209C17.4841 14.3066 17.5004 14.4076 17.5004 14.5117Z" fill="#5479FF"/>
</svg>
