<svg width="21" height="21" viewBox="0 0 21 21" fill="none" xmlns="http://www.w3.org/2000/svg">
<path d="M8.62012 16.3164L13.6201 11.3164C13.7894 11.1602 13.874 10.9681 13.874 10.7402C13.874 10.5124 13.7894 10.3138 13.6201 10.1445L8.62012 5.14453C8.46387 4.98828 8.26855 4.91016 8.03418 4.91016C7.7998 4.91016 7.60449 4.98828 7.44824 5.14453C7.27897 5.3138 7.19434 5.51237 7.19434 5.74023C7.19434 5.9681 7.27897 6.16016 7.44824 6.31641L11.8623 10.7305L7.44824 15.1445C7.27897 15.3138 7.19434 15.5124 7.19434 15.7402C7.19434 15.9681 7.27897 16.1602 7.44824 16.3164C7.60449 16.4857 7.7998 16.5703 8.03418 16.5703C8.26855 16.5703 8.46387 16.4857 8.62012 16.3164Z" fill="#36A83A"/>
</svg>
