<svg width="21" height="21" viewBox="0 0 21 21" fill="none" xmlns="http://www.w3.org/2000/svg">
<g clip-path="url(#clip0_26003_109196)">
<path d="M9.82422 10.0898H8.57422C8.28776 10.0898 8.01758 10.0345 7.76367 9.92383C7.50977 9.81315 7.29167 9.66016 7.10938 9.46484C6.91406 9.28255 6.76432 9.06445 6.66016 8.81055C6.55599 8.55664 6.50391 8.28646 6.50391 8C6.50391 7.71354 6.55599 7.44336 6.66016 7.18945C6.76432 6.93555 6.91406 6.71745 7.10938 6.53516C7.29167 6.33984 7.50977 6.18685 7.76367 6.07617C8.01758 5.9655 8.28776 5.91016 8.57422 5.91016H9.82422V10.0898ZM11.5039 11.75H12.7539C13.0404 11.75 13.3105 11.8053 13.5645 11.916C13.8184 12.0267 14.0365 12.1732 14.2188 12.3555C14.4141 12.5508 14.5638 12.7754 14.668 13.0293C14.7721 13.2832 14.8242 13.5534 14.8242 13.8398C14.8242 14.1263 14.7721 14.3965 14.668 14.6504C14.5638 14.9043 14.4141 15.1224 14.2188 15.3047C14.0365 15.5 13.8184 15.6497 13.5645 15.7539C13.3105 15.8581 13.0404 15.9102 12.7539 15.9102H11.5039V11.75ZM14.8242 4.25H11.5039V1.75C11.5039 1.51562 11.4225 1.31706 11.2598 1.1543C11.097 0.991537 10.8984 0.910156 10.6641 0.910156C10.4297 0.910156 10.2311 0.991537 10.0684 1.1543C9.9056 1.31706 9.82422 1.51562 9.82422 1.75V4.25H8.57422C8.06641 4.25 7.58464 4.34766 7.12891 4.54297C6.67318 4.73828 6.27604 5.00521 5.9375 5.34375C5.59896 5.68229 5.32878 6.07943 5.12695 6.53516C4.92513 6.99089 4.82422 7.47917 4.82422 8C4.82422 8.52083 4.92513 9.00911 5.12695 9.46484C5.32878 9.92057 5.59896 10.3177 5.9375 10.6562C6.27604 10.9948 6.67318 11.2617 7.12891 11.457C7.58464 11.6523 8.06641 11.75 8.57422 11.75H9.82422V15.9102H5.66406C5.42969 15.9102 5.23112 15.9915 5.06836 16.1543C4.9056 16.3171 4.82422 16.5156 4.82422 16.75C4.82422 16.9844 4.9056 17.1829 5.06836 17.3457C5.23112 17.5085 5.42969 17.5898 5.66406 17.5898H9.82422V20.0898C9.82422 20.3112 9.9056 20.5033 10.0684 20.666C10.2311 20.8288 10.4297 20.9102 10.6641 20.9102C10.8984 20.9102 11.097 20.8288 11.2598 20.666C11.4225 20.5033 11.5039 20.3112 11.5039 20.0898V17.5898H12.7539C13.2617 17.5898 13.7435 17.4889 14.1992 17.2871C14.6549 17.0853 15.0521 16.8151 15.3906 16.4766C15.7292 16.138 15.9993 15.7409 16.2012 15.2852C16.403 14.8294 16.5039 14.3477 16.5039 13.8398C16.5039 13.319 16.403 12.8307 16.2012 12.375C15.9993 11.9193 15.7292 11.5221 15.3906 11.1836C15.0521 10.8451 14.6549 10.5781 14.1992 10.3828C13.7435 10.1875 13.2617 10.0898 12.7539 10.0898H11.5039V5.91016H14.8242C15.0586 5.91016 15.2572 5.82878 15.4199 5.66602C15.5827 5.50325 15.6641 5.3112 15.6641 5.08984C15.6641 4.85547 15.5827 4.6569 15.4199 4.49414C15.2572 4.33138 15.0586 4.25 14.8242 4.25Z" fill="#5479FF"/>
</g>
<defs>
<clipPath id="clip0_26003_109196">
<rect width="20" height="20" fill="white" transform="matrix(1 0 0 -1 0.664062 20.5)"/>
</clipPath>
</defs>
</svg>
