<svg width="23" height="23" viewBox="0 0 23 23" fill="none" xmlns="http://www.w3.org/2000/svg">
<path d="M9.1582 17.9746L14.6582 12.4746C14.8444 12.3027 14.9375 12.0915 14.9375 11.8408C14.9375 11.5902 14.8444 11.3717 14.6582 11.1855L9.1582 5.68555C8.98633 5.51367 8.77148 5.42773 8.51367 5.42773C8.25586 5.42773 8.04102 5.51367 7.86914 5.68555C7.68294 5.87175 7.58984 6.09017 7.58984 6.34082C7.58984 6.59147 7.68294 6.80273 7.86914 6.97461L12.7246 11.8301L7.86914 16.6855C7.68294 16.8717 7.58984 17.0902 7.58984 17.3408C7.58984 17.5915 7.68294 17.8027 7.86914 17.9746C8.04102 18.1608 8.25586 18.2539 8.51367 18.2539C8.77148 18.2539 8.98633 18.1608 9.1582 17.9746Z" fill="white"/>
</svg>
