<svg width="20" height="21" viewBox="0 0 20 21" fill="none" xmlns="http://www.w3.org/2000/svg">
<g clip-path="url(#clip0_26003_109323)">
<path d="M19.1602 11.041C19.1602 10.416 19.1016 9.80404 18.9844 9.20508C18.8542 8.60612 18.6751 8.0332 18.4473 7.48633C18.2194 6.93945 17.9362 6.41862 17.5977 5.92383C17.2721 5.42904 16.901 4.97331 16.4844 4.55664C16.0677 4.15299 15.612 3.7819 15.1172 3.44336C14.6354 3.11784 14.1211 2.83789 13.5742 2.60352C13.0273 2.36914 12.4544 2.19336 11.8555 2.07617C11.2565 1.94596 10.638 1.88086 10 1.88086C9.36198 1.88086 8.74349 1.94596 8.14453 2.07617C7.54557 2.19336 6.97266 2.36914 6.42578 2.60352C5.87891 2.83789 5.36458 3.11784 4.88281 3.44336C4.38802 3.7819 3.93229 4.15299 3.51562 4.55664C3.09896 4.97331 2.72786 5.42904 2.40234 5.92383C2.0638 6.41862 1.7806 6.93945 1.55273 7.48633C1.32487 8.0332 1.14583 8.60612 1.01562 9.20508C0.898438 9.80404 0.839844 10.416 0.839844 11.041C0.839844 11.679 0.898438 12.2975 1.01562 12.8965C1.14583 13.4954 1.32487 14.0684 1.55273 14.6152C1.7806 15.1621 2.0638 15.6829 2.40234 16.1777C2.72786 16.6595 3.09896 17.1087 3.51562 17.5254C3.93229 17.9421 4.38802 18.3132 4.88281 18.6387C5.36458 18.9772 5.87891 19.2637 6.42578 19.498C6.97266 19.7324 7.54557 19.9082 8.14453 20.0254C8.74349 20.1556 9.36198 20.2207 10 20.2207C10.638 20.2207 11.2565 20.1556 11.8555 20.0254C12.4544 19.9082 13.0273 19.7324 13.5742 19.498C14.1211 19.2637 14.6354 18.9772 15.1172 18.6387C15.612 18.3132 16.0677 17.9421 16.4844 17.5254C16.901 17.1087 17.2721 16.6595 17.5977 16.1777C17.9362 15.6829 18.2194 15.1621 18.4473 14.6152C18.6751 14.0684 18.8542 13.4954 18.9844 12.8965C19.1016 12.2975 19.1602 11.679 19.1602 11.041ZM17.5 11.041C17.5 12.0827 17.3047 13.0592 16.9141 13.9707C16.5234 14.8822 15.9896 15.6764 15.3125 16.3535C14.6224 17.0306 13.8249 17.5645 12.9199 17.9551C12.015 18.3457 11.0417 18.541 10 18.541C8.95833 18.541 7.98503 18.3457 7.08008 17.9551C6.17513 17.5645 5.3776 17.0306 4.6875 16.3535C4.01042 15.6764 3.47656 14.8822 3.08594 13.9707C2.69531 13.0592 2.5 12.0827 2.5 11.041C2.5 10.0124 2.69531 9.04232 3.08594 8.13086C3.47656 7.2194 4.01042 6.42513 4.6875 5.74805C5.3776 5.07096 6.17513 4.53385 7.08008 4.13672C7.98503 3.73958 8.95833 3.54102 10 3.54102C11.0417 3.54102 12.015 3.73958 12.9199 4.13672C13.8249 4.53385 14.6224 5.07096 15.3125 5.74805C15.9896 6.42513 16.5234 7.2194 16.9141 8.13086C17.3047 9.04232 17.5 10.0124 17.5 11.041ZM9.16016 6.04102V11.041C9.16016 11.2103 9.20247 11.36 9.28711 11.4902C9.37175 11.6204 9.48568 11.7181 9.62891 11.7832L12.9688 13.4629C13.1641 13.5671 13.3724 13.5833 13.5938 13.5117C13.8151 13.4401 13.9779 13.3001 14.082 13.0918C14.1862 12.8835 14.2025 12.6686 14.1309 12.4473C14.0592 12.2259 13.9193 12.0632 13.7109 11.959L10.8398 10.5332V6.04102C10.8398 5.81966 10.7585 5.6276 10.5957 5.46484C10.4329 5.30208 10.2344 5.2207 10 5.2207C9.76562 5.2207 9.56706 5.30208 9.4043 5.46484C9.24154 5.6276 9.16016 5.81966 9.16016 6.04102Z" fill="#5479FF"/>
</g>
<defs>
<clipPath id="clip0_26003_109323">
<rect width="20" height="20" fill="white" transform="matrix(1 0 0 -1 0 20.6309)"/>
</clipPath>
</defs>
</svg>
