<svg width="20" height="21" viewBox="0 0 20 21" fill="none" xmlns="http://www.w3.org/2000/svg">
<path d="M3.33984 4.7207C3.33984 4.7207 3.34635 4.70117 3.35938 4.66211C3.3724 4.62305 3.42448 4.55794 3.51562 4.4668C3.61979 4.37565 3.75977 4.278 3.93555 4.17383C4.11133 4.06966 4.32943 3.9655 4.58984 3.86133C5.21484 3.62695 5.99609 3.43164 6.93359 3.27539C7.87109 3.11914 8.89323 3.04102 10 3.04102C11.1068 3.04102 12.1289 3.11914 13.0664 3.27539C14.0039 3.43164 14.7852 3.62695 15.4102 3.86133C15.6706 3.9655 15.8887 4.06966 16.0645 4.17383C16.2402 4.278 16.3802 4.37565 16.4844 4.4668C16.5755 4.55794 16.6276 4.62305 16.6406 4.66211C16.6536 4.70117 16.6602 4.7207 16.6602 4.7207C16.6602 4.7207 16.6536 4.74023 16.6406 4.7793C16.6276 4.81836 16.5755 4.87695 16.4844 4.95508C16.3802 5.04622 16.2402 5.14388 16.0645 5.24805C15.8887 5.35221 15.6706 5.45638 15.4102 5.56055C14.7852 5.80794 14.0039 6.00651 13.0664 6.15625C12.1289 6.30599 11.1068 6.38086 10 6.38086C8.89323 6.38086 7.87109 6.30599 6.93359 6.15625C5.99609 6.00651 5.21484 5.80794 4.58984 5.56055C4.32943 5.45638 4.11133 5.35221 3.93555 5.24805C3.75977 5.14388 3.61979 5.04622 3.51562 4.95508C3.42448 4.87695 3.3724 4.81836 3.35938 4.7793C3.34635 4.74023 3.33984 4.7207 3.33984 4.7207ZM16.6602 12.6504V16.3809C16.6471 16.4199 16.6276 16.459 16.6016 16.498C16.5755 16.5371 16.5365 16.5827 16.4844 16.6348C16.3802 16.7259 16.2402 16.8236 16.0645 16.9277C15.8887 17.0319 15.6641 17.1361 15.3906 17.2402C14.7786 17.4746 14.0039 17.6667 13.0664 17.8164C12.1289 17.9661 11.1068 18.041 10 18.041C8.89323 18.041 7.87109 17.9661 6.93359 17.8164C5.99609 17.6667 5.22135 17.4746 4.60938 17.2402C4.33594 17.1361 4.11133 17.0319 3.93555 16.9277C3.75977 16.8236 3.61979 16.7259 3.51562 16.6348C3.46354 16.5827 3.42448 16.5404 3.39844 16.5078C3.3724 16.4753 3.35286 16.446 3.33984 16.4199V12.6699C3.44401 12.722 3.55143 12.7708 3.66211 12.8164C3.77279 12.862 3.88672 12.9043 4.00391 12.9434C4.36849 13.0996 4.77865 13.2298 5.23438 13.334C5.6901 13.4512 6.17188 13.5521 6.67969 13.6367C7.1875 13.7214 7.72135 13.7832 8.28125 13.8223C8.84115 13.8613 9.41406 13.8809 10 13.8809C10.5859 13.8809 11.1589 13.8613 11.7188 13.8223C12.2786 13.7832 12.8125 13.7214 13.3203 13.6367C13.8281 13.5521 14.3099 13.4512 14.7656 13.334C15.2214 13.2298 15.6315 13.0996 15.9961 12.9434C16.1133 12.9043 16.2272 12.8587 16.3379 12.8066C16.4486 12.7546 16.556 12.7025 16.6602 12.6504ZM16.6602 6.81055V10.541C16.6471 10.5931 16.6276 10.6354 16.6016 10.668C16.5755 10.7005 16.5365 10.7428 16.4844 10.7949C16.3802 10.8861 16.2402 10.9837 16.0645 11.0879C15.8887 11.1921 15.6641 11.2962 15.3906 11.4004C14.7786 11.6478 14.0039 11.8464 13.0664 11.9961C12.1289 12.1458 11.1068 12.2207 10 12.2207C8.89323 12.2207 7.87109 12.1458 6.93359 11.9961C5.99609 11.8464 5.22135 11.6478 4.60938 11.4004C4.33594 11.2962 4.11133 11.1921 3.93555 11.0879C3.75977 10.9837 3.61979 10.8861 3.51562 10.7949C3.46354 10.7428 3.42448 10.7005 3.39844 10.668C3.3724 10.6354 3.35286 10.6126 3.33984 10.5996C3.33984 10.5736 3.33984 10.554 3.33984 10.541C3.33984 10.528 3.33984 10.515 3.33984 10.502V6.83008C3.44401 6.88216 3.55143 6.93099 3.66211 6.97656C3.77279 7.02214 3.88021 7.07096 3.98438 7.12305C4.36198 7.26628 4.77865 7.39648 5.23438 7.51367C5.6901 7.63086 6.17188 7.72852 6.67969 7.80664C7.1875 7.88477 7.72135 7.94336 8.28125 7.98242C8.84115 8.02148 9.41406 8.04102 10 8.04102C10.5859 8.04102 11.1589 8.02148 11.7188 7.98242C12.2786 7.94336 12.8125 7.88477 13.3203 7.80664C13.8281 7.72852 14.3099 7.63086 14.7656 7.51367C15.2214 7.39648 15.638 7.26628 16.0156 7.12305C16.1198 7.07096 16.2272 7.02214 16.3379 6.97656C16.4486 6.93099 16.556 6.87565 16.6602 6.81055ZM1.66016 4.7207V16.3809C1.66016 16.4069 1.66016 16.4329 1.66016 16.459C1.66016 16.485 1.66667 16.5046 1.67969 16.5176C1.69271 16.804 1.76758 17.0579 1.9043 17.2793C2.04102 17.5007 2.20052 17.6895 2.38281 17.8457C2.59115 18.041 2.83203 18.2168 3.10547 18.373C3.37891 18.5293 3.67839 18.666 4.00391 18.7832C4.36849 18.9264 4.77865 19.0566 5.23438 19.1738C5.6901 19.291 6.17188 19.3887 6.67969 19.4668C7.1875 19.5449 7.72135 19.6035 8.28125 19.6426C8.84115 19.6947 9.41406 19.7207 10 19.7207C10.5859 19.7207 11.1589 19.6947 11.7188 19.6426C12.2786 19.6035 12.8125 19.5449 13.3203 19.4668C13.8281 19.3887 14.3099 19.291 14.7656 19.1738C15.2214 19.0566 15.6315 18.9264 15.9961 18.7832C16.3216 18.666 16.6211 18.5293 16.8945 18.373C17.168 18.2168 17.4089 18.041 17.6172 17.8457C17.7995 17.6895 17.959 17.5007 18.0957 17.2793C18.2324 17.0579 18.3073 16.804 18.3203 16.5176C18.3333 16.5046 18.3398 16.485 18.3398 16.459C18.3398 16.4329 18.3398 16.4069 18.3398 16.3809V4.7207C18.3398 4.69466 18.3398 4.66862 18.3398 4.64258C18.3398 4.61654 18.3333 4.5905 18.3203 4.56445C18.3073 4.29102 18.2324 4.04362 18.0957 3.82227C17.959 3.60091 17.7995 3.41211 17.6172 3.25586C17.4089 3.06055 17.168 2.88477 16.8945 2.72852C16.6211 2.57227 16.3281 2.43555 16.0156 2.31836C15.638 2.17513 15.2214 2.04492 14.7656 1.92773C14.3099 1.81055 13.8281 1.71289 13.3203 1.63477C12.8125 1.55664 12.2786 1.49154 11.7188 1.43945C11.1589 1.40039 10.5859 1.38086 10 1.38086C9.41406 1.38086 8.84115 1.40039 8.28125 1.43945C7.72135 1.49154 7.1875 1.55664 6.67969 1.63477C6.17188 1.71289 5.6901 1.81055 5.23438 1.92773C4.77865 2.04492 4.36198 2.17513 3.98438 2.31836C3.67188 2.43555 3.37891 2.57227 3.10547 2.72852C2.83203 2.88477 2.59115 3.06055 2.38281 3.25586C2.20052 3.41211 2.04102 3.60091 1.9043 3.82227C1.76758 4.04362 1.69271 4.29102 1.67969 4.56445C1.66667 4.5905 1.66016 4.61654 1.66016 4.64258C1.66016 4.66862 1.66016 4.69466 1.66016 4.7207Z" fill="#5479FF"/>
</svg>
