<svg width="21" height="21" viewBox="0 0 21 21" fill="none" xmlns="http://www.w3.org/2000/svg">
<path d="M8.36816 16.0664L13.3682 11.0664C13.5374 10.9102 13.6221 10.7181 13.6221 10.4902C13.6221 10.2624 13.5374 10.0638 13.3682 9.89453L8.36816 4.89453C8.21191 4.73828 8.0166 4.66016 7.78223 4.66016C7.54785 4.66016 7.35254 4.73828 7.19629 4.89453C7.02702 5.0638 6.94238 5.26237 6.94238 5.49023C6.94238 5.7181 7.02702 5.91016 7.19629 6.06641L11.6104 10.4805L7.19629 14.8945C7.02702 15.0638 6.94238 15.2624 6.94238 15.4902C6.94238 15.7181 7.02702 15.9102 7.19629 16.0664C7.35254 16.2357 7.54785 16.3203 7.78223 16.3203C8.0166 16.3203 8.21191 16.2357 8.36816 16.0664Z" fill="#36A83A"/>
</svg>
