<svg width="23" height="23" viewBox="0 0 23 23" fill="none" xmlns="http://www.w3.org/2000/svg">
<path d="M9.1416 18.3145L14.6416 12.8145C14.8278 12.6426 14.9209 12.4313 14.9209 12.1807C14.9209 11.93 14.8278 11.7116 14.6416 11.5254L9.1416 6.02539C8.96973 5.85352 8.75488 5.76758 8.49707 5.76758C8.23926 5.76758 8.02441 5.85352 7.85254 6.02539C7.66634 6.21159 7.57324 6.43001 7.57324 6.68066C7.57324 6.93132 7.66634 7.14258 7.85254 7.31445L12.708 12.1699L7.85254 17.0254C7.66634 17.2116 7.57324 17.43 7.57324 17.6807C7.57324 17.9313 7.66634 18.1426 7.85254 18.3145C8.02441 18.5007 8.23926 18.5938 8.49707 18.5938C8.75488 18.5938 8.96973 18.5007 9.1416 18.3145Z" fill="#36A83A"/>
</svg>
