<svg width="21" height="21" viewBox="0 0 21 21" fill="none" xmlns="http://www.w3.org/2000/svg">
<path d="M19.6602 10.791C19.6602 10.166 19.6016 9.55404 19.4844 8.95508C19.3542 8.35612 19.1751 7.7832 18.9473 7.23633C18.7194 6.68945 18.4362 6.16862 18.0977 5.67383C17.7721 5.17904 17.401 4.72331 16.9844 4.30664C16.5677 3.90299 16.112 3.5319 15.6172 3.19336C15.1354 2.86784 14.6211 2.58789 14.0742 2.35352C13.5273 2.11914 12.9544 1.94336 12.3555 1.82617C11.7565 1.69596 11.138 1.63086 10.5 1.63086C9.86198 1.63086 9.24349 1.69596 8.64453 1.82617C8.04557 1.94336 7.47266 2.11914 6.92578 2.35352C6.37891 2.58789 5.86458 2.86784 5.38281 3.19336C4.88802 3.5319 4.43229 3.90299 4.01562 4.30664C3.59896 4.72331 3.22786 5.17904 2.90234 5.67383C2.5638 6.16862 2.2806 6.68945 2.05273 7.23633C1.82487 7.7832 1.64583 8.35612 1.51562 8.95508C1.39844 9.55404 1.33984 10.166 1.33984 10.791C1.33984 11.429 1.39844 12.0475 1.51562 12.6465C1.64583 13.2454 1.82487 13.8184 2.05273 14.3652C2.2806 14.9121 2.5638 15.4329 2.90234 15.9277C3.22786 16.4095 3.59896 16.8587 4.01562 17.2754C4.43229 17.6921 4.88802 18.0632 5.38281 18.3887C5.86458 18.7272 6.37891 19.0137 6.92578 19.248C7.47266 19.4824 8.04557 19.6582 8.64453 19.7754C9.24349 19.9056 9.86198 19.9707 10.5 19.9707C11.138 19.9707 11.7565 19.9056 12.3555 19.7754C12.9544 19.6582 13.5273 19.4824 14.0742 19.248C14.6211 19.0137 15.1354 18.7272 15.6172 18.3887C16.112 18.0632 16.5677 17.6921 16.9844 17.2754C17.401 16.8587 17.7721 16.4095 18.0977 15.9277C18.4362 15.4329 18.7194 14.9121 18.9473 14.3652C19.1751 13.8184 19.3542 13.2454 19.4844 12.6465C19.6016 12.0475 19.6602 11.429 19.6602 10.791ZM18 10.791C18 11.8327 17.8047 12.8092 17.4141 13.7207C17.0234 14.6322 16.4896 15.4264 15.8125 16.1035C15.1224 16.7806 14.3249 17.3145 13.4199 17.7051C12.515 18.0957 11.5417 18.291 10.5 18.291C9.45833 18.291 8.48503 18.0957 7.58008 17.7051C6.67513 17.3145 5.8776 16.7806 5.1875 16.1035C4.51042 15.4264 3.97656 14.6322 3.58594 13.7207C3.19531 12.8092 3 11.8327 3 10.791C3 9.76237 3.19531 8.79232 3.58594 7.88086C3.97656 6.9694 4.51042 6.17513 5.1875 5.49805C5.8776 4.82096 6.67513 4.28385 7.58008 3.88672C8.48503 3.48958 9.45833 3.29102 10.5 3.29102C11.5417 3.29102 12.515 3.48958 13.4199 3.88672C14.3249 4.28385 15.1224 4.82096 15.8125 5.49805C16.4896 6.17513 17.0234 6.9694 17.4141 7.88086C17.8047 8.79232 18 9.76237 18 10.791ZM11.3398 14.1309V10.791C11.3398 10.5697 11.2585 10.3776 11.0957 10.2148C10.9329 10.0521 10.7344 9.9707 10.5 9.9707C10.2656 9.9707 10.0671 10.0521 9.9043 10.2148C9.74154 10.3776 9.66016 10.5697 9.66016 10.791V14.1309C9.66016 14.3652 9.74154 14.5638 9.9043 14.7266C10.0671 14.8893 10.2656 14.9707 10.5 14.9707C10.7344 14.9707 10.9329 14.8893 11.0957 14.7266C11.2585 14.5638 11.3398 14.3652 11.3398 14.1309ZM10.5 8.29102C10.7344 8.29102 10.9329 8.20964 11.0957 8.04688C11.2585 7.88411 11.3398 7.69206 11.3398 7.4707C11.3398 7.23633 11.2585 7.03776 11.0957 6.875C10.9329 6.71224 10.7344 6.63086 10.5 6.63086C10.2656 6.63086 10.0671 6.71224 9.9043 6.875C9.74154 7.03776 9.66016 7.23633 9.66016 7.4707C9.66016 7.69206 9.74154 7.88411 9.9043 8.04688C10.0671 8.20964 10.2656 8.29102 10.5 8.29102Z" fill="#5479FF"/>
</svg>
