<svg width="20" height="20" viewBox="0 0 20 20" fill="none" xmlns="http://www.w3.org/2000/svg">
<path d="M13.3594 13.6328C13.3464 13.6458 13.3333 13.6589 13.3203 13.6719C13.3073 13.6849 13.2943 13.6979 13.2812 13.7109C13.2682 13.724 13.2552 13.737 13.2422 13.75C13.2292 13.763 13.2161 13.776 13.2031 13.7891C12.6823 14.2969 12.0768 14.694 11.3867 14.9805C10.6966 15.2669 9.95443 15.4102 9.16016 15.4102C8.35286 15.4102 7.59766 15.2572 6.89453 14.9512C6.19141 14.6452 5.57292 14.2318 5.03906 13.7109C4.51823 13.1771 4.10482 12.5586 3.79883 11.8555C3.49284 11.1523 3.33984 10.3971 3.33984 9.58984C3.33984 8.78255 3.49284 8.02409 3.79883 7.31445C4.10482 6.60482 4.51823 5.98307 5.03906 5.44922C5.57292 4.92839 6.19141 4.51497 6.89453 4.20898C7.59766 3.903 8.35286 3.75 9.16016 3.75C9.96745 3.75 10.7259 3.903 11.4355 4.20898C12.1452 4.51497 12.7669 4.92839 13.3008 5.44922C13.8216 5.98307 14.235 6.60482 14.541 7.31445C14.847 8.02409 15 8.78255 15 9.58984C15 10.3711 14.8535 11.11 14.5605 11.8066C14.2676 12.5033 13.8672 13.112 13.3594 13.6328ZM18.0859 17.3242L15.0195 14.2578C15.5404 13.6198 15.944 12.9036 16.2305 12.1094C16.5169 11.3151 16.6602 10.4753 16.6602 9.58984C16.6602 8.54818 16.4648 7.57161 16.0742 6.66016C15.6836 5.7487 15.1497 4.95443 14.4727 4.27734C13.7956 3.60026 13.0013 3.06641 12.0898 2.67578C11.1784 2.28516 10.2018 2.08984 9.16016 2.08984C8.13151 2.08984 7.16146 2.28516 6.25 2.67578C5.33854 3.06641 4.54427 3.60026 3.86719 4.27734C3.1901 4.95443 2.65299 5.7487 2.25586 6.66016C1.85872 7.57161 1.66016 8.54818 1.66016 9.58984C1.66016 10.6185 1.85872 11.5885 2.25586 12.5C2.65299 13.4115 3.1901 14.2057 3.86719 14.8828C4.54427 15.5599 5.33854 16.097 6.25 16.4941C7.16146 16.8913 8.13151 17.0898 9.16016 17.0898C10.0456 17.0898 10.8887 16.9434 11.6895 16.6504C12.4902 16.3574 13.2096 15.957 13.8477 15.4492L16.9141 18.4961C17.0703 18.6654 17.2656 18.75 17.5 18.75C17.7344 18.75 17.9297 18.6654 18.0859 18.4961C18.2552 18.3398 18.3398 18.1478 18.3398 17.9199C18.3398 17.6921 18.2552 17.4935 18.0859 17.3242Z" fill="#36A83A"/>
</svg>
