<svg width="38" height="26" viewBox="0 0 38 26" fill="none" xmlns="http://www.w3.org/2000/svg">
<g clip-path="url(#clip0_26003_72321)">
<g clip-path="url(#clip1_26003_72321)">
<path d="M35.2004 0.5H2.80039C2.03126 0.5 1.29364 0.805535 0.749781 1.34939C0.205926 1.89325 -0.0996094 2.63087 -0.0996094 3.4V8.9H38.0004V3.4C38.0004 1.8 36.7004 0.5 35.2004 0.5ZM-0.0996094 22.6C-0.0996094 24.2 1.20039 25.5 2.70039 25.5H35.1004C36.7004 25.5 37.9004 24.2 37.9004 22.6V17.1H-0.0996094V22.6Z" fill="#1F2793"/>
<path d="M-0.0996094 8.80078H38.0004V17.1008H-0.0996094V8.80078Z" fill="#F5F5F5"/>
<path d="M18.9999 15.8C18.4431 15.8018 17.8976 15.6432 17.4285 15.3432C16.9594 15.0432 16.5865 14.6145 16.3545 14.1083C16.1225 13.6021 16.0412 13.0398 16.1201 12.4887C16.1991 11.9375 16.4351 11.4207 16.7999 11L16.8999 11.1C16.5745 11.4952 16.3685 11.975 16.3063 12.4832C16.2441 12.9914 16.3282 13.5067 16.5487 13.9688C16.7692 14.4308 17.117 14.8203 17.5512 15.0915C17.9854 15.3628 18.488 15.5045 18.9999 15.5V15.8Z" fill="#50AF69"/>
<path d="M17.8998 14.9004C17.8998 15.0004 17.7998 15.0004 17.7998 15.1004C17.7998 15.1004 17.6998 15.1004 17.6998 15.0004C17.6998 15.0004 17.5998 15.2004 17.6998 15.3004C17.6998 15.3004 17.5998 15.3004 17.3998 15.5004L17.4998 15.6004L17.2998 15.8004C18.0998 16.2004 18.4998 15.6004 18.4998 15.6004C18.3998 15.1004 17.8998 14.9004 17.8998 14.9004Z" fill="#50AF69"/>
<path d="M17.2002 14.4008C17.1002 14.4008 17.1002 14.5008 17.1002 14.6008C17.1002 14.6008 17.1002 14.5008 17.0002 14.5008C17.0002 14.5008 16.9002 14.6008 16.9002 14.8008H16.6002L16.7002 14.9008C16.5002 14.9008 16.5002 15.0008 16.5002 15.0008C17.0002 15.6008 17.6002 15.3008 17.6002 15.3008C17.5002 14.7008 17.2002 14.4008 17.2002 14.4008ZM16.7002 13.7008C16.6002 13.7008 16.6002 13.7008 16.5002 13.8008V13.7008C16.5002 13.7008 16.3002 13.8008 16.3002 13.9008C16.3002 13.9008 16.2002 13.8008 16.0002 13.8008V13.9008H15.8002C16.0002 14.6008 16.6002 14.5008 16.6002 14.5008C16.9002 14.1008 16.7002 13.7008 16.7002 13.7008ZM16.5002 12.9008C16.4002 12.9008 16.4002 12.9008 16.3002 13.0008V12.9008C16.3002 12.9008 16.1002 12.9008 16.1002 13.0008C16.1002 13.0008 16.0002 12.9008 15.9002 12.9008V13.0008H15.7002C15.7002 13.6008 16.2002 13.6008 16.3002 13.6008C16.6002 13.3008 16.5002 12.9008 16.5002 12.9008ZM16.6002 12.2008H16.4002V12.1008C16.4002 12.1008 16.3002 12.1008 16.2002 12.2008C16.2002 12.2008 16.2002 12.1008 16.1002 12.1008V12.2008C16.0002 12.1008 15.9002 12.1008 15.9002 12.1008C15.7002 12.6008 16.2002 12.8008 16.2002 12.8008C16.5002 12.6008 16.6002 12.2008 16.6002 12.2008ZM16.2002 11.4008C16.2002 11.4008 16.1002 11.8008 16.3002 12.0008C16.3002 12.0008 16.6002 11.9008 16.7002 11.6008H16.6002L16.5002 11.4008L16.4002 11.5008L16.2002 11.4008ZM16.7002 10.8008C16.7002 10.8008 16.5002 11.1008 16.6002 11.4008C16.6002 11.4008 16.9002 11.4008 17.1002 11.1008H17.0002V10.9008H16.8002L16.7002 10.8008ZM19.0002 15.8008V15.6008C20.5002 15.6008 21.7002 14.4008 21.7002 12.9008C21.7002 12.3008 21.5002 11.6008 21.1002 11.2008L21.2002 11.1008C21.6002 11.6008 21.9002 12.3008 21.9002 13.0008C21.9002 14.5008 20.6002 15.8008 19.0002 15.8008Z" fill="#50AF69"/>
<path d="M20.0004 14.9008C20.0004 15.0008 20.1004 15.0008 20.1004 15.1008C20.1004 15.1008 20.2004 15.1008 20.2004 15.0008C20.2004 15.0008 20.3004 15.2008 20.2004 15.3008C20.2004 15.3008 20.3004 15.3008 20.5004 15.5008L20.4004 15.6008L20.6004 15.8008C19.8004 16.2008 19.4004 15.6008 19.4004 15.6008C19.5004 15.1008 20.0004 14.9008 20.0004 14.9008ZM20.8004 14.4008C20.9004 14.4008 20.9004 14.5008 20.9004 14.6008C20.9004 14.6008 20.9004 14.5008 21.0004 14.5008C21.0004 14.5008 21.1004 14.6008 21.1004 14.8008H21.4004L21.3004 14.9008C21.5004 14.9008 21.5004 15.0008 21.5004 15.0008C21.0004 15.6008 20.4004 15.3008 20.4004 15.3008C20.4004 14.7008 20.8004 14.4008 20.8004 14.4008ZM21.2004 13.7008C21.3004 13.7008 21.3004 13.7008 21.4004 13.8008V13.7008C21.4004 13.7008 21.6004 13.8008 21.6004 13.9008C21.6004 13.9008 21.7004 13.8008 21.9004 13.8008V13.9008H22.1004C21.9004 14.6008 21.3004 14.5008 21.3004 14.5008C21.1004 14.1008 21.2004 13.7008 21.2004 13.7008ZM21.4004 12.9008C21.5004 12.9008 21.5004 12.9008 21.6004 13.0008V12.9008C21.6004 12.9008 21.8004 12.9008 21.8004 13.0008C21.8004 13.0008 21.9004 12.9008 22.0004 12.9008V13.0008H22.2004C22.2004 13.6008 21.7004 13.6008 21.6004 13.6008C21.4004 13.3008 21.4004 12.9008 21.4004 12.9008ZM21.4004 12.2008H21.6004V12.1008C21.6004 12.1008 21.7004 12.1008 21.8004 12.2008C21.8004 12.2008 21.8004 12.1008 21.9004 12.1008V12.2008C22.0004 12.1008 22.1004 12.1008 22.1004 12.1008C22.3004 12.6008 21.8004 12.8008 21.8004 12.8008C21.4004 12.6008 21.4004 12.2008 21.4004 12.2008ZM21.7004 11.4008C21.7004 11.4008 21.8004 11.8008 21.6004 12.0008C21.6004 12.0008 21.3004 11.9008 21.2004 11.6008H21.3004L21.4004 11.4008L21.6004 11.5008L21.7004 11.4008ZM21.3004 10.8008C21.3004 10.8008 21.5004 11.1008 21.4004 11.4008C21.4004 11.4008 21.1004 11.4008 20.9004 11.1008L21.0004 11.0008V10.8008H21.3004Z" fill="#50AF69"/>
<path d="M19.0002 14.0996L18.7002 14.4996V14.6996L18.9002 14.8996L19.1002 14.6996C19.2002 14.5996 19.2002 14.5996 19.1002 14.4996L19.0002 14.0996Z" fill="#1F2793"/>
<path d="M19.1004 14.3996L19.0004 14.0996L18.9004 14.4996V14.6996L19.0004 14.8996L19.1004 14.6996V14.3996Z" fill="#F5F5F5"/>
<path d="M18.9996 10.5996V9.59961C18.9996 9.59961 18.5996 10.1996 18.6996 10.9996M17.1996 10.5996C16.5996 11.7996 17.1996 12.7996 17.2996 12.9996L18.0996 11.6996L17.1996 10.5996Z" fill="#1F2793"/>
<path d="M17.8005 12.3004C17.7005 12.0004 17.7005 11.7004 17.8005 11.3004L17.5005 10.9004C17.2005 11.7004 17.3005 12.2004 17.6005 12.7004C17.7005 12.6004 17.7005 12.5004 17.8005 12.3004Z" fill="#F5F5F5"/>
<path d="M18.1996 11.8004C18.0996 11.8004 18.0996 11.8004 18.1996 11.8004L17.0996 10.5004V10.4004H17.1996L18.1996 11.7004V11.8004Z" fill="#FFE15A"/>
<path d="M16.4997 11.9004C16.1997 15.2004 18.7997 14.4004 18.9997 14.0004L17.3997 13.2004L17.6997 12.5004L16.4997 11.9004Z" fill="#1F2793"/>
<path d="M17.2999 12.3L16.7999 12C16.6999 14 17.6999 14.3 18.4999 14.2C17.8999 14.1 17.2999 13.7 17.2999 12.3Z" fill="#F5F5F5"/>
<path d="M17.7003 12.7003C17.6003 12.7003 17.6003 12.7003 17.7003 12.7003L16.3003 11.9003C16.3003 11.9003 16.2003 11.8003 16.3003 11.8003C16.3003 11.8003 16.4003 11.7003 16.4003 11.8003L17.7003 12.6003C17.7003 12.5003 17.8003 12.6003 17.7003 12.7003Z" fill="#FFE15A"/>
<path d="M20.6998 10.5996C21.2998 11.7996 20.6998 12.7996 20.5998 12.9996L19.7998 11.6996L20.6998 10.5996Z" fill="#1F2793"/>
<path d="M20.0996 12.3004C20.1996 12.0004 20.1996 11.7004 20.0996 11.3004L20.3996 10.9004C20.6996 11.7004 20.5996 12.2004 20.2996 12.7004C20.2996 12.6004 20.1996 12.5004 20.0996 12.3004Z" fill="#F5F5F5"/>
<path d="M19.8002 11.8004C19.7002 11.8004 19.7002 11.7004 19.7002 11.7004L20.7002 10.4004H20.8002V10.5004L19.8002 11.8004Z" fill="#FFE15A"/>
<path d="M21.4004 11.9004C21.7004 15.2004 19.1004 14.4004 18.9004 14.0004L20.5004 13.2004L20.2004 12.5004L21.4004 11.9004Z" fill="#1F2793"/>
<path d="M20.6004 12.3L21.1004 12C21.2004 14 20.2004 14.3 19.4004 14.2C20.0004 14.1 20.6004 13.7 20.6004 12.3Z" fill="#F5F5F5"/>
<path d="M20.2996 12.6992C20.1996 12.5992 20.1996 12.5992 20.2996 12.4992L21.5996 11.6992H21.6996V11.7992L20.2996 12.6992Z" fill="#FFE15A"/>
<path d="M18.9998 12.8004C19.3864 12.8004 19.6998 12.487 19.6998 12.1004C19.6998 11.7138 19.3864 11.4004 18.9998 11.4004C18.6132 11.4004 18.2998 11.7138 18.2998 12.1004C18.2998 12.487 18.6132 12.8004 18.9998 12.8004Z" fill="#FFE6E6"/>
<path d="M19.0002 12.4008C19.1659 12.4008 19.3002 12.2665 19.3002 12.1008C19.3002 11.9351 19.1659 11.8008 19.0002 11.8008C18.8345 11.8008 18.7002 11.9351 18.7002 12.1008C18.7002 12.2665 18.8345 12.4008 19.0002 12.4008Z" fill="#F5F5F5"/>
<path d="M19.0004 13.2C18.9004 13.1 18.9004 13.2 19.0004 13.2L18.9004 12.1C18.9004 12.1 18.9004 12 19.0004 12C19.0004 12 19.1004 12 19.1004 12.1L19.0004 13.2Z" fill="#FFE15A"/>
<path d="M21.1998 13.9996H16.7998L17.2998 13.0996H20.5998L21.1998 13.9996Z" fill="#5AA0E6"/>
<path d="M19.0996 13.2008H20.1996L19.7996 12.8008H19.4996L19.0996 13.1008V13.2008Z" fill="#FFB750"/>
<path d="M18.7002 13.3004H20.1002L19.7002 12.9004H19.3002L18.8002 13.2004L18.7002 13.3004Z" fill="#FFC455"/>
<path d="M18.2002 13.3992H19.8002L19.3002 12.8992C19.3002 12.8992 19.2002 12.8992 19.2002 12.7992L19.0002 12.6992H18.8002L18.2002 13.0992V13.3992Z" fill="#FFCD55"/>
<path d="M17.7998 13.3996H19.6998L19.0998 12.7996C19.0998 12.7996 18.9998 12.7996 18.9998 12.6996L18.7998 12.5996H18.5998L17.8998 12.9996L17.7998 13.3996Z" fill="#FFD25A"/>
<path d="M17 13.5996H19.5L18.7 12.7996L18.6 12.6996L18.3 12.5996H18L17.1 13.1996L17 13.5996Z" fill="#FFE15A"/>
<path d="M19.1998 12.2004H18.7998L18.8998 11.9004H18.9998C18.9998 11.9004 19.0998 11.9004 19.0998 12.0004L19.1998 12.2004ZM19.0998 12.3004C19.1998 12.2004 19.1998 12.2004 19.0998 12.3004C19.1998 12.3004 19.1998 12.3004 19.0998 12.3004Z" fill="#FF4B55"/>
<path d="M18.5996 11.1996C18.5996 11.2996 18.5996 11.2996 18.5996 11.1996H18.9996C19.1996 11.1996 19.2996 11.1996 19.3996 11.2996V11.1996C19.2996 11.0996 19.0996 11.0996 18.9996 11.0996C18.7996 11.0996 18.6996 11.1996 18.5996 11.1996Z" fill="#1F2793"/>
<path d="M18.5996 11.1996H18.9996C19.1996 11.1996 19.2996 11.1996 19.3996 11.2996V11.1996C19.2996 11.0996 19.0996 11.0996 18.9996 11.0996C18.7996 11.0996 18.6996 11.0996 18.5996 11.1996Z" fill="#5AA0E6"/>
<path d="M18.5996 11.1996H18.9996C19.0996 11.1996 19.2996 11.1996 19.3996 11.2996V11.1996C19.2996 11.0996 19.0996 11.0996 18.9996 11.0996C18.7996 11.0996 18.6996 11.0996 18.5996 11.1996Z" fill="#9BC800"/>
<path d="M18.5996 11.1C18.5996 11.2 18.5996 11.2 18.5996 11.1H18.9996C19.0996 11.1 19.2996 11.1 19.3996 11.2V11.1C19.2996 11 19.0996 11 18.9996 11C18.7996 11 18.6996 11.1 18.5996 11.1Z" fill="#FFE14E"/>
<path d="M18.5996 11.1H18.9996C19.0996 11.1 19.2996 11.1 19.3996 11.2V11.1C19.2996 11 19.0996 11 18.9996 11C18.7996 11 18.6996 11 18.5996 11.1Z" fill="#FFB14E"/>
<path d="M18.5996 11.1004C18.6996 11.1004 18.7996 11.0004 18.9996 11.0004C19.0996 11.0004 19.2996 11.0004 19.3996 11.1004V11.0004C19.2996 10.9004 19.1996 10.9004 18.9996 10.9004C18.7996 11.0004 18.6996 11.0004 18.5996 11.1004Z" fill="#FF4B55"/>
<path d="M21.2996 14.1004H16.5996V14.0004L18.8996 10.5004H18.9996L21.2996 14.0004C21.3996 14.0004 21.3996 14.1004 21.2996 14.1004ZM16.7996 14.0004H21.0996L18.9996 10.8004L16.7996 14.0004ZM18.9996 9.90039C18.8996 9.80039 18.8996 9.90039 18.9996 9.90039L18.8996 9.50039C18.8996 9.50039 18.8996 9.40039 18.9996 9.40039C18.9996 9.40039 19.0996 9.40039 19.0996 9.50039L18.9996 9.90039Z" fill="#FFE15A"/>
<path d="M19.0992 9.90117H18.7992C18.7992 9.90117 18.6992 9.90117 18.6992 9.80117C18.6992 9.80117 18.6992 9.70117 18.7992 9.70117H19.0992C19.1992 9.70117 19.1992 9.70117 19.0992 9.90117C19.1992 9.90117 19.1992 9.80117 19.0992 9.90117Z" fill="#FFE15A"/>
<path d="M18.9998 15.7996C18.8998 15.7996 18.5998 15.6996 18.5998 15.5996C18.5506 15.5446 18.5234 15.4734 18.5234 15.3996C18.5234 15.3258 18.5506 15.2546 18.5998 15.1996C18.5998 15.1996 18.6998 15.0996 18.7998 15.0996C18.8998 15.0996 18.8998 15.0996 18.9998 15.1996C19.0998 15.2996 19.0998 15.4996 19.1998 15.5996L18.9998 15.7996ZM18.6998 15.2996C18.5998 15.3996 18.5998 15.3996 18.5998 15.4996C18.5998 15.4996 18.6998 15.5996 18.7998 15.5996C18.7998 15.4996 18.7998 15.3996 18.6998 15.2996Z" fill="#1F2793"/>
<path d="M18.9994 15.7992C18.8994 15.7992 18.8994 15.6992 18.8994 15.6992C18.8994 15.5992 18.9994 15.3992 19.0994 15.2992C19.0994 15.2992 19.1994 15.1992 19.2994 15.1992C19.3994 15.1992 19.3994 15.1992 19.4994 15.2992C19.5994 15.3992 19.5994 15.5992 19.4994 15.6992C19.2994 15.6992 19.0994 15.7992 18.9994 15.7992ZM19.0994 15.2992V15.5992C19.1994 15.5992 19.2994 15.4992 19.2994 15.4992V15.3992H19.1994C19.1994 15.2992 19.1994 15.3992 19.0994 15.2992Z" fill="#1F2793"/>
<path d="M18.6 16.2992C18.5 15.7992 18.9 15.6992 18.9 15.6992H19V15.7992C19 15.7992 18.7 15.8992 18.6 16.2992C18.7 16.2992 18.7 16.1992 18.6 16.2992Z" fill="#1F2793"/>
<path d="M19.2999 16.2987C19.1999 15.8987 18.8999 15.7987 18.8999 15.7987C18.8999 15.7987 18.7999 15.6987 18.8999 15.6987C18.8999 15.6987 18.9999 15.5987 18.9999 15.6987C18.9999 15.5987 19.3999 15.7987 19.2999 16.2987Z" fill="#1F2793"/>
</g>
</g>
<defs>
<clipPath id="clip0_26003_72321">
<rect width="38" height="25" fill="white" transform="translate(0 0.5)"/>
</clipPath>
<clipPath id="clip1_26003_72321">
<rect width="38" height="25" fill="white" transform="translate(0 0.5)"/>
</clipPath>
</defs>
</svg>
