<svg width="39" height="26" viewBox="0 0 39 26" fill="none" xmlns="http://www.w3.org/2000/svg">
<g clip-path="url(#clip0_26003_53701)">
<g clip-path="url(#clip1_26003_53701)">
<path d="M35.8952 25.2113H3.59519C3.21923 25.2113 2.84699 25.137 2.4999 24.9925C2.15281 24.848 1.83774 24.6363 1.57283 24.3695C1.30792 24.1028 1.09841 23.7862 0.956363 23.4381C0.814319 23.09 0.742549 22.7173 0.745187 22.3413V2.98133C0.743872 2.60575 0.816546 2.23358 0.95906 1.88609C1.10157 1.53859 1.31114 1.22257 1.57579 0.956069C1.84043 0.689564 2.15498 0.477796 2.50147 0.332855C2.84796 0.187914 3.21961 0.112639 3.59519 0.111328H35.9052C36.2808 0.112639 36.6524 0.187914 36.9989 0.332855C37.3454 0.477796 37.6599 0.689564 37.9246 0.956069C38.1892 1.22257 38.3988 1.53859 38.5413 1.88609C38.6838 2.23358 38.7565 2.60575 38.7552 2.98133V22.3413C38.7552 23.1008 38.4542 23.8293 37.9181 24.3672C37.3821 24.9051 36.6546 25.2087 35.8952 25.2113Z" fill="#DB2839"/>
<path d="M3.59519 0.121094C3.22008 0.121091 2.84866 0.195139 2.50222 0.33899C2.15579 0.482841 1.84117 0.693665 1.57639 0.959372C1.31161 1.22508 1.10189 1.54044 0.959254 1.88737C0.816617 2.23431 0.743871 2.60599 0.745187 2.98109V22.3411C0.742549 22.717 0.814319 23.0898 0.956363 23.4379C1.09841 23.786 1.30792 24.1025 1.57283 24.3693C1.83774 24.6361 2.15281 24.8478 2.4999 24.9923C2.84699 25.1367 3.21923 25.2111 3.59519 25.2111H14.5052V0.121094H3.59519Z" fill="#128912"/>
<path d="M14.5052 18.6007C17.7582 18.6007 20.3952 15.9413 20.3952 12.6607C20.3952 9.38013 17.7582 6.7207 14.5052 6.7207C11.2523 6.7207 8.61523 9.38013 8.61523 12.6607C8.61523 15.9413 11.2523 18.6007 14.5052 18.6007Z" fill="#FFE15A"/>
<path d="M16.4756 10.6813V13.3213C16.4756 14.4113 15.5956 15.3013 14.5056 15.3013C13.4156 15.3013 12.5356 14.4113 12.5356 13.3213V10.6813H16.4756ZM17.1256 9.36133H11.8856C11.5256 9.36133 11.2256 9.66133 11.2256 10.0213V13.3213C11.2256 15.1413 12.6956 16.6213 14.5056 16.6213C16.3156 16.6213 17.7856 15.1413 17.7856 13.3213V10.0213C17.7856 9.84629 17.7161 9.67841 17.5923 9.55464C17.4685 9.43086 17.3006 9.36133 17.1256 9.36133Z" fill="#D32939"/>
<path d="M16.4752 10.6816V13.3216C16.4752 14.4116 15.5952 15.3016 14.5052 15.3016C13.4152 15.3016 12.5352 14.4116 12.5352 13.3216V10.6816H16.4752Z" fill="#F5F5F5"/>
<path d="M11.8847 10.3514C12.0669 10.3514 12.2147 10.2037 12.2147 10.0214C12.2147 9.83915 12.0669 9.69141 11.8847 9.69141C11.7024 9.69141 11.5547 9.83915 11.5547 10.0214C11.5547 10.2037 11.7024 10.3514 11.8847 10.3514Z" fill="#FFE15A"/>
<path d="M17.1249 10.3514C17.3072 10.3514 17.4549 10.2037 17.4549 10.0214C17.4549 9.83915 17.3072 9.69141 17.1249 9.69141C16.9427 9.69141 16.7949 9.83915 16.7949 10.0214C16.7949 10.2037 16.9427 10.3514 17.1249 10.3514Z" fill="#FFE15A"/>
<path d="M11.8847 12.992C12.0669 12.992 12.2147 12.8443 12.2147 12.662C12.2147 12.4798 12.0669 12.332 11.8847 12.332C11.7024 12.332 11.5547 12.4798 11.5547 12.662C11.5547 12.8443 11.7024 12.992 11.8847 12.992Z" fill="#FFE15A"/>
<path d="M17.1249 12.992C17.3072 12.992 17.4549 12.8443 17.4549 12.662C17.4549 12.4798 17.3072 12.332 17.1249 12.332C16.9427 12.332 16.7949 12.4798 16.7949 12.662C16.7949 12.8443 16.9427 12.992 17.1249 12.992Z" fill="#FFE15A"/>
<path d="M14.5048 10.3514C14.6871 10.3514 14.8348 10.2037 14.8348 10.0214C14.8348 9.83915 14.6871 9.69141 14.5048 9.69141C14.3226 9.69141 14.1748 9.83915 14.1748 10.0214C14.1748 10.2037 14.3226 10.3514 14.5048 10.3514Z" fill="#FFE15A"/>
<path d="M16.4745 15.4315C16.6568 15.4315 16.8045 15.2837 16.8045 15.1015C16.8045 14.9192 16.6568 14.7715 16.4745 14.7715C16.2923 14.7715 16.1445 14.9192 16.1445 15.1015C16.1445 15.2837 16.2923 15.4315 16.4745 15.4315Z" fill="#FFE15A"/>
<path d="M12.5751 15.4315C12.7574 15.4315 12.9051 15.2837 12.9051 15.1015C12.9051 14.9192 12.7574 14.7715 12.5751 14.7715C12.3929 14.7715 12.2451 14.9192 12.2451 15.1015C12.2451 15.2837 12.3929 15.4315 12.5751 15.4315Z" fill="#FFE15A"/>
<path d="M14.9352 12.5004V13.0704C14.9352 13.3104 14.7452 13.5004 14.5152 13.5004C14.4592 13.5004 14.4037 13.4892 14.3521 13.4675C14.3005 13.4458 14.2538 13.4139 14.2146 13.3739C14.1755 13.3338 14.1448 13.2863 14.1243 13.2342C14.1037 13.1821 14.0939 13.1264 14.0952 13.0704V12.5004H14.9352ZM14.9352 11.1504V11.7204C14.9352 11.9604 14.7452 12.1504 14.5152 12.1504C14.4592 12.1504 14.4037 12.1392 14.3521 12.1175C14.3005 12.0958 14.2538 12.0639 14.2146 12.0239C14.1755 11.9838 14.1448 11.9363 14.1243 11.8842C14.1037 11.8321 14.0939 11.7764 14.0952 11.7204V11.1504H14.9352ZM14.9352 13.8604V14.4304C14.9352 14.6704 14.7452 14.8604 14.5152 14.8604C14.4592 14.8604 14.4037 14.8492 14.3521 14.8275C14.3005 14.8058 14.2538 14.7739 14.2146 14.7339C14.1755 14.6938 14.1448 14.6463 14.1243 14.5942C14.1037 14.5421 14.0939 14.4864 14.0952 14.4304V13.8604H14.9352ZM16.0752 12.5004V13.0704C16.0752 13.3104 15.8852 13.5004 15.6552 13.5004C15.5992 13.5004 15.5437 13.4892 15.4921 13.4675C15.4405 13.4458 15.3938 13.4139 15.3546 13.3739C15.3155 13.3338 15.2848 13.2863 15.2643 13.2342C15.2437 13.1821 15.2339 13.1264 15.2352 13.0704V12.5004H16.0752ZM13.7952 12.5004V13.0704C13.7952 13.3104 13.6052 13.5004 13.3752 13.5004C13.3192 13.5004 13.2637 13.4892 13.2121 13.4675C13.1605 13.4458 13.1138 13.4139 13.0746 13.3739C13.0355 13.3338 13.0048 13.2863 12.9843 13.2342C12.9637 13.1821 12.9539 13.1264 12.9552 13.0704V12.5004H13.7952Z" fill="#41479B"/>
</g>
</g>
<defs>
<clipPath id="clip0_26003_53701">
<rect width="38" height="25" fill="white" transform="translate(0.745117 0.210938)"/>
</clipPath>
<clipPath id="clip1_26003_53701">
<rect width="38" height="25" fill="white" transform="translate(0.745117 0.210938)"/>
</clipPath>
</defs>
</svg>
