<svg width="38" height="26" viewBox="0 0 38 26" fill="none" xmlns="http://www.w3.org/2000/svg">
<g clip-path="url(#clip0_26003_82568)">
<g clip-path="url(#clip1_26003_82568)">
<path d="M35.2 0.5H2.8C1.3 0.5 0 1.8 0 3.4V5.5H38V3.4C38 1.8 36.7 0.5 35.2 0.5Z" fill="#FF3145"/>
<path d="M0 5.5H38V10.5H0V5.5Z" fill="#F5F5F5"/>
<path d="M0 10.5H38V15.5H0V10.5ZM0 22.6C0 24.2 1.3 25.5 2.8 25.5H35.1C36.7 25.5 37.9 24.2 37.9 22.6V20.5H0V22.6Z" fill="#FC3044"/>
<path d="M0 15.5H38V20.5H0V15.5Z" fill="#F5F5F5"/>
<path d="M1 24.7992L18.4 13.3992C18.7 13.1992 18.7 12.7992 18.4 12.5992L1 1.19922C0.4 1.69922 0 2.49922 0 3.39922V22.6992C0 23.4992 0.4 24.2992 1 24.7992Z" fill="#293396"/>
<path d="M6.70015 9.9L7.40015 12H9.60015C9.90015 12 10.0001 12.4 9.80015 12.5L8.00015 13.8L8.70015 15.9C8.80015 16.2 8.50015 16.4 8.30015 16.2L6.50015 14.9L4.70015 16.2C4.50015 16.4 4.20015 16.1 4.30015 15.9L5.00015 13.8L3.10015 12.5C2.90015 12.3 3.00015 12 3.30015 12H5.50015L6.20015 9.9C6.20015 9.7 6.60015 9.7 6.70015 9.9Z" fill="#F5F5F5"/>
</g>
</g>
<defs>
<clipPath id="clip0_26003_82568">
<rect width="38" height="25" fill="white" transform="translate(0 0.5)"/>
</clipPath>
<clipPath id="clip1_26003_82568">
<rect width="38" height="25" fill="white" transform="translate(0 0.5)"/>
</clipPath>
</defs>
</svg>
