<svg width="38" height="26" viewBox="0 0 38 26" fill="none" xmlns="http://www.w3.org/2000/svg">
<g clip-path="url(#clip0_26003_70481)">
<g clip-path="url(#clip1_26003_70481)">
<path fill-rule="evenodd" clip-rule="evenodd" d="M2.5 25.5H35.6C36.9 25.2 37.9 24.1 38.1 22.6V3.4C37.9 1.9 36.9 0.7 35.6 0.5H2.5C1.2 0.8 0.2 1.9 0 3.4V22.6C0.2 24.1 1.2 25.2 2.5 25.5Z" fill="#DB2438"/>
<path fill-rule="evenodd" clip-rule="evenodd" d="M8.2998 0.5H13.7998V25.5H8.2998V0.5Z" fill="#FEFEFE"/>
<path fill-rule="evenodd" clip-rule="evenodd" d="M0 9.89844H38V16.0984H0V9.89844Z" fill="#FEFEFE"/>
<path fill-rule="evenodd" clip-rule="evenodd" d="M9.7002 0.5H12.5002V25.5H9.7002V0.5Z" fill="#2A3569"/>
<path fill-rule="evenodd" clip-rule="evenodd" d="M0 11.3984H38V14.4984H0V11.3984Z" fill="#2A3569"/>
</g>
</g>
<defs>
<clipPath id="clip0_26003_70481">
<rect width="38" height="25" fill="white" transform="translate(0 0.5)"/>
</clipPath>
<clipPath id="clip1_26003_70481">
<rect width="38" height="25" fill="white" transform="translate(0 0.5)"/>
</clipPath>
</defs>
</svg>
