<svg width="39" height="26" viewBox="0 0 39 26" fill="none" xmlns="http://www.w3.org/2000/svg">
<g clip-path="url(#clip0_26003_53693)">
<g clip-path="url(#clip1_26003_53693)">
<path fill-rule="evenodd" clip-rule="evenodd" d="M3.24512 25.2109H36.2451C37.5451 25.0109 38.5451 23.8109 38.7451 22.3109V3.11094C38.5451 1.61094 37.5451 0.410938 36.2451 0.210938H3.24512C1.94512 0.410938 0.945117 1.61094 0.745117 3.11094V22.3109C0.945117 23.8109 1.94512 25.0109 3.24512 25.2109Z" fill="#C12837"/>
<path fill-rule="evenodd" clip-rule="evenodd" d="M17.8449 5.71172C17.7449 5.81172 17.4449 5.71172 17.4449 5.71172C17.3449 5.61172 17.4449 5.51172 17.5449 5.51172H17.6449C17.7449 5.51172 17.6449 5.61172 17.7449 5.71172C17.7449 5.71172 17.9449 5.41172 17.8449 5.71172ZM21.7449 5.61172C21.8449 5.61172 21.7449 5.41172 21.8449 5.41172H21.9449C22.0449 5.41172 22.0449 5.51172 22.0449 5.61172C21.9449 5.71172 21.6449 5.71172 21.6449 5.61172C21.5449 5.41172 21.7449 5.71172 21.7449 5.61172ZM25.8449 16.1117C25.8449 16.1117 25.7449 16.0117 25.6449 16.0117C25.5449 16.0117 25.4449 16.0117 25.4449 15.9117C25.3449 15.8117 25.1449 15.9117 25.0449 16.0117C24.9449 16.1117 24.9449 16.1117 24.6449 16.1117H24.1449L24.3449 15.9117C24.5449 15.8117 24.6449 15.7117 24.6449 15.7117C24.7449 15.7117 24.9449 15.7117 25.0449 15.5117C25.1449 15.4117 25.1449 15.4117 25.4449 15.4117H25.5449C25.5449 15.3117 25.3449 15.1117 25.1449 15.1117H24.9449C24.7449 15.0117 24.5449 15.2117 24.5449 15.4117C24.5449 15.5117 24.3449 15.6117 24.0449 15.8117L23.7449 16.1117L23.3449 15.9117C22.8449 15.7117 22.5449 15.5117 22.5449 15.5117C22.5449 15.5117 22.6449 15.4117 22.6449 15.3117C22.7449 15.2117 22.7449 15.1117 22.7449 15.1117C22.7449 15.1117 22.6449 15.0117 22.5449 15.0117C21.9449 14.6117 21.4449 14.1117 21.2449 13.6117C21.1449 13.2117 21.1449 13.1117 21.3449 13.5117C21.4449 13.8117 21.5449 13.9117 21.7449 14.1117C21.9449 14.2117 22.0449 14.3117 22.1449 14.2117C22.2449 14.1117 22.2449 14.0117 22.0449 13.8117C21.7449 13.4117 21.6449 12.9117 21.9449 12.9117C22.0449 12.9117 22.0449 12.9117 22.2449 13.4117C22.5449 14.0117 22.7449 14.5117 22.9449 14.6117C23.1449 14.7117 23.3449 14.6117 23.4449 14.5117C23.4449 14.4117 23.4449 14.3117 23.2449 14.2117C22.9449 14.0117 22.7449 13.6117 22.6449 13.1117V12.8117C22.7449 12.7117 22.7449 12.7117 22.9449 13.1117C23.3449 13.7117 23.9449 14.6117 24.2449 14.7117C24.7449 15.0117 25.2449 15.0117 25.5449 14.7117C25.6449 14.6117 25.6449 14.6117 25.6449 14.5117C25.6449 14.3117 25.5449 14.3117 25.3449 14.3117C24.8449 14.3117 24.7449 14.3117 24.6449 14.2117C24.2449 14.0117 23.9449 13.5117 23.6449 12.8117C23.3449 12.2117 23.4449 12.1117 23.9449 12.7117C24.5449 13.4117 25.0449 13.7117 25.5449 13.5117C25.7449 13.4117 25.9449 13.2117 25.9449 13.0117C25.9449 12.8117 25.8449 12.8117 25.6449 12.8117H25.1449C24.9449 12.8117 24.8449 12.8117 24.7449 12.7117C24.6449 12.6117 24.4449 12.5117 24.3449 12.4117C24.0449 12.1117 23.5449 11.3117 23.5449 11.2117C23.5449 11.1117 23.6449 11.1117 23.9449 11.4117C24.2449 11.6117 24.6449 12.0117 24.8449 12.1117C24.9449 12.2117 25.0449 12.2117 25.2449 12.2117C25.4449 12.2117 25.5449 12.2117 25.6449 12.1117C25.8449 12.0117 25.9449 11.9117 25.9449 11.7117C25.9449 11.4117 25.8449 11.3117 25.4449 11.4117C24.8449 11.6117 24.5449 11.4117 24.0449 10.8117C23.7449 10.5117 23.7449 10.4117 23.7449 10.3117C23.7449 10.2117 23.8449 10.3117 24.3449 10.5117C24.8449 10.8117 25.0449 10.9117 25.2449 10.9117C25.4449 10.9117 25.6449 10.9117 25.7449 10.7117C25.9449 10.5117 26.0449 10.3117 25.8449 10.1117C25.7449 10.0117 25.5449 10.0117 25.3449 10.1117C25.2449 10.2117 25.1449 10.2117 25.0449 10.2117C24.6449 10.2117 24.1449 10.0117 23.9449 9.71172C23.5449 9.41172 23.5449 9.21172 23.5449 9.21172C23.5449 9.11172 23.6449 9.11172 23.8449 9.21172C24.2449 9.41172 24.4449 9.41172 24.7449 9.41172C25.0449 9.41172 25.2449 9.31172 25.5449 9.21172C25.7449 9.11172 25.9449 8.91172 25.9449 8.81172C25.9449 8.81172 25.9449 8.71172 25.8449 8.61172C25.7449 8.41172 25.6449 8.51172 25.3449 8.61172C24.7449 8.91172 24.4449 9.01172 24.0449 8.81172C23.8449 8.71172 23.6449 8.41172 23.5449 8.31172V8.11172C23.6449 8.01172 23.6449 8.01172 24.0449 8.21172C24.2449 8.31172 24.3449 8.31172 24.6449 8.31172C24.9449 8.31172 25.1449 8.31172 25.3449 8.21172C25.6449 8.11172 25.9449 7.71172 25.9449 7.41172C25.9449 7.31172 25.8449 7.11172 25.8449 7.11172C25.7449 7.01172 25.6449 7.11172 25.4449 7.31172C25.1449 7.61172 24.8449 7.81172 24.3449 7.81172C23.8449 7.81172 23.6449 7.71172 23.6449 7.51172C23.6449 7.41172 23.7449 7.31172 23.9449 7.21172C24.5449 7.11172 25.2449 6.71172 25.6449 6.31172C25.8449 6.11172 25.9449 5.91172 25.9449 5.71172C25.9449 5.51172 25.8449 5.31172 25.6449 5.31172C25.5449 5.31172 25.4449 5.31172 25.2449 5.61172C25.0449 6.01172 24.7449 6.31172 24.2449 6.51172C24.003 6.66818 23.7301 6.77051 23.4449 6.81172L23.3449 6.71172C23.2449 6.51172 23.2449 6.51172 22.9449 6.61172C22.8449 6.71172 22.5449 6.81172 22.3449 6.91172C21.9449 7.11172 21.7449 7.21172 21.6449 7.41172C21.7449 7.51172 21.7449 7.51172 21.7449 7.91172C21.7449 8.31172 21.7449 8.31172 21.6449 8.41172C21.5449 8.51172 21.4449 8.61172 21.3449 8.61172C21.0449 8.61172 20.9449 8.41172 20.9449 8.11172C20.9449 7.81172 20.9449 7.61172 21.0449 7.31172C21.1449 7.01172 21.3449 6.81172 21.5449 6.71172C21.8449 6.51172 22.0449 6.41172 22.3449 6.41172C22.6449 6.41172 22.9449 6.21172 23.0449 6.11172C22.7449 6.21172 22.4449 6.01172 22.4449 6.01172H23.1449C23.3449 6.01172 23.4449 5.91172 23.6449 5.81172C23.8449 5.71172 23.9449 5.61172 23.8449 5.51172C23.8449 5.41172 23.6449 5.41172 23.6449 5.51172L23.4449 5.71172C23.3449 5.81172 23.3449 5.81172 23.0449 5.91172H22.6449L22.5449 5.81172C22.5449 5.81172 22.6449 5.71172 22.7449 5.71172C22.8449 5.71172 22.9449 5.71172 23.1449 5.81172C23.1449 5.71172 23.1449 5.71172 23.0449 5.61172C23.1449 5.31172 22.9449 5.21172 22.6449 5.21172C22.4449 5.21172 22.3449 5.21172 22.3449 5.11172L22.2449 5.01172H22.0449C21.8449 5.01172 21.5449 5.11172 21.2449 5.21172C21.0449 5.31172 21.0449 5.31172 20.8449 5.31172H20.5449C20.3449 5.21172 20.2449 5.21172 20.2449 5.31172C20.2449 5.41172 20.4449 5.61172 20.5449 5.61172C20.7449 5.61172 20.7449 5.71172 20.7449 5.71172C20.7449 5.81172 20.5449 5.91172 20.3449 6.01172C20.2449 6.11172 20.2449 6.11172 20.3449 6.21172C20.4449 6.21172 20.4449 6.31172 20.4449 6.31172C20.4449 6.41172 20.1449 6.61172 20.0449 6.61172C19.8449 6.61172 19.9449 6.71172 20.1449 6.81172C20.2449 6.81172 20.2449 6.81172 20.1449 6.91172C20.0449 7.01172 19.9449 7.11172 19.8449 7.01172C19.7449 7.01172 19.7449 7.01172 19.7449 7.11172V7.21172H19.5449V7.11172C19.6449 7.01172 19.5449 6.91172 19.4449 7.01172C19.3449 7.01172 19.2449 7.01172 19.1449 6.91172C19.0449 6.81172 19.0449 6.81172 19.1449 6.81172C19.3449 6.81172 19.3449 6.61172 19.2449 6.61172C19.1449 6.61172 18.8449 6.41172 18.8449 6.31172L18.9449 6.21172C19.0449 6.11172 19.1449 6.11172 18.9449 6.01172C18.8449 6.01172 18.6449 5.81172 18.5449 5.71172C18.5449 5.71172 18.5449 5.61172 18.6449 5.61172L18.9449 5.31172H18.3449C18.1449 5.31172 18.1449 5.31172 17.9449 5.21172C17.6449 5.11172 17.3449 5.01172 17.1449 5.01172H16.9449L16.8449 5.11172C16.8449 5.11172 16.7449 5.21172 16.5449 5.21172C16.2449 5.21172 16.1449 5.31172 16.0449 5.41172C15.9449 5.51172 15.9449 5.51172 15.9449 5.61172C16.0449 5.61172 16.2449 5.51172 16.3449 5.51172C16.4449 5.51172 16.5449 5.61172 16.5449 5.61172C16.5449 5.61172 16.5449 5.71172 16.4449 5.71172H16.0449C15.7449 5.71172 15.7449 5.61172 15.6449 5.51172C15.6449 5.41172 15.5449 5.31172 15.4449 5.31172C15.3449 5.21172 15.2449 5.21172 15.2449 5.31172C15.2449 5.41172 15.3449 5.51172 15.4449 5.61172C15.5449 5.71172 15.6449 5.81172 15.9449 5.81172H16.6449C16.6449 5.81172 16.3449 6.01172 16.0449 5.91172C16.1449 6.11172 16.4449 6.21172 16.7449 6.21172C17.1449 6.21172 17.3449 6.31172 17.5449 6.51172C17.8449 6.71172 17.9449 6.91172 18.0449 7.11172C18.1449 7.41172 18.2449 7.61172 18.2449 7.91172C18.2449 8.21172 18.0449 8.41172 17.8449 8.41172C17.6449 8.41172 17.5449 8.41172 17.5449 8.21172C17.7449 8.31172 17.7449 8.21172 17.7449 7.91172C17.7449 7.61172 17.7449 7.51172 17.6449 7.41172C17.5449 7.21172 17.4449 7.11172 16.9449 6.91172C16.7449 6.81172 16.4449 6.71172 16.3449 6.61172C16.0449 6.51172 16.0449 6.51172 15.9449 6.71172C15.9449 6.81172 15.8449 6.81172 15.8449 6.81172C15.7449 6.81172 15.3449 6.61172 15.0449 6.51172C14.5449 6.21172 14.3449 6.01172 14.0449 5.61172C14.0449 5.31172 13.9449 5.21172 13.7449 5.31172C13.5449 5.31172 13.5449 5.51172 13.5449 5.71172C13.5449 5.91172 13.6449 6.11172 13.8449 6.31172C14.2449 6.71172 14.9449 7.11172 15.5449 7.21172C15.7449 7.21172 15.8449 7.31172 15.8449 7.51172C15.8449 7.71172 15.6449 7.81172 15.1449 7.81172C14.6449 7.81172 14.3449 7.71172 14.0449 7.31172C13.8449 7.11172 13.7449 7.01172 13.6449 7.11172C13.5449 7.11172 13.5449 7.31172 13.5449 7.41172C13.5449 7.61172 13.8449 8.01172 14.1449 8.21172C14.3449 8.31172 14.5449 8.41172 14.9449 8.31172C15.1449 8.31172 15.2449 8.31172 15.5449 8.21172C15.9449 8.01172 16.0449 8.01172 16.0449 8.11172V8.31172C15.9449 8.51172 15.7449 8.81172 15.5449 8.81172C15.1449 9.01172 14.7449 9.01172 14.2449 8.61172C13.9449 8.41172 13.8449 8.41172 13.7449 8.61172C13.7449 8.71172 13.6449 8.71172 13.6449 8.81172C13.6449 8.91172 13.7449 9.11172 14.0449 9.21172C14.3449 9.41172 14.5449 9.41172 14.8449 9.41172C15.1449 9.41172 15.3449 9.41172 15.7449 9.21172C15.9449 9.11172 16.0449 9.11172 16.0449 9.21172C16.0449 9.31172 16.0449 9.51172 15.8449 9.71172C15.5449 10.0117 15.0449 10.2117 14.7449 10.2117C14.6449 10.2117 14.5449 10.1117 14.4449 10.1117C14.2449 10.0117 14.0449 10.0117 13.9449 10.1117C13.8449 10.2117 13.8449 10.5117 14.0449 10.7117C14.1449 10.8117 14.3449 10.9117 14.5449 10.9117C14.7449 10.9117 14.9449 10.8117 15.4449 10.5117C15.9449 10.2117 16.0449 10.2117 16.0449 10.3117C16.0449 10.4117 15.9449 10.5117 15.7449 10.8117C15.2449 11.4117 14.9449 11.5117 14.3449 11.4117C13.9449 11.3117 13.8449 11.4117 13.8449 11.7117C13.8449 11.9117 13.9449 12.0117 14.1449 12.1117C14.2449 12.2117 14.3449 12.2117 14.5449 12.2117C14.7449 12.2117 14.8449 12.2117 14.9449 12.1117C15.1449 12.0117 15.5449 11.7117 15.8449 11.4117C16.1449 11.1117 16.2449 11.0117 16.2449 11.2117C16.2449 11.3117 15.7449 12.1117 15.4449 12.4117C15.3449 12.5117 15.1449 12.7117 15.0449 12.7117C14.8449 12.8117 14.8449 12.8117 14.6449 12.8117H14.1449C13.9449 12.8117 13.8449 12.8117 13.8449 13.0117C13.8449 13.2117 14.0449 13.4117 14.2449 13.5117C14.7449 13.7117 15.2449 13.4117 15.8449 12.7117C16.3449 12.2117 16.3449 12.2117 16.1449 12.8117C15.8449 13.5117 15.4449 14.0117 15.1449 14.2117C14.9449 14.3117 14.9449 14.3117 14.4449 14.3117C14.2449 14.3117 14.1449 14.4117 14.1449 14.5117C14.1449 14.6117 14.1449 14.6117 14.2449 14.7117C14.5449 15.0117 15.0449 15.0117 15.4449 14.7117C15.7449 14.5117 16.3449 13.7117 16.7449 13.1117C16.9449 12.8117 16.9449 12.7117 17.0449 12.8117V13.1117C16.9449 13.6117 16.7449 13.9117 16.4449 14.2117C16.2449 14.3117 16.2449 14.4117 16.2449 14.5117C16.2449 14.7117 16.5449 14.7117 16.7449 14.6117C16.9449 14.5117 17.2449 14.1117 17.4449 13.4117C17.6449 12.9117 17.6449 12.9117 17.7449 12.9117C17.9449 12.9117 17.8449 13.4117 17.6449 13.8117C17.5449 14.0117 17.5449 14.1117 17.5449 14.2117C17.6449 14.3117 17.7449 14.3117 17.9449 14.1117C18.1449 14.0117 18.2449 13.8117 18.3449 13.5117C18.5449 13.1117 18.5449 13.2117 18.4449 13.6117C18.2449 14.2117 17.8449 14.7117 17.1449 15.0117C17.0449 15.1117 16.9449 15.1117 16.9449 15.1117C16.9449 15.1117 17.0449 15.2117 17.0449 15.3117C17.1449 15.4117 17.1449 15.5117 17.1449 15.5117L16.3449 15.9117L15.7449 16.1117L15.5449 15.9117C15.2449 15.7117 15.0449 15.6117 15.0449 15.5117C14.9449 15.3117 14.7449 15.2117 14.6449 15.2117H14.4449C14.1449 15.1117 14.0449 15.3117 14.0449 15.5117H14.1449C14.4449 15.5117 14.4449 15.5117 14.5449 15.6117C14.6449 15.7117 14.8449 15.8117 14.9449 15.8117C15.0449 15.8117 15.0449 15.8117 15.2449 16.0117L15.4449 16.2117H14.9449C14.6449 16.2117 14.6449 16.2117 14.5449 16.1117C14.4449 16.0117 14.3449 16.0117 14.1449 16.0117C14.0449 16.0117 13.9449 16.1117 13.9449 16.1117C13.8449 16.1117 13.7449 16.1117 13.7449 16.2117L13.5449 16.4117H14.0449L14.1449 16.5117H15.4449C15.4449 16.5117 15.3449 16.6117 15.2449 16.6117C15.0449 16.8117 15.0449 16.8117 14.8449 16.8117C14.6449 16.8117 14.4449 16.9117 14.4449 17.1117C14.4449 17.2117 14.4449 17.3117 14.3449 17.3117C14.3449 17.5117 14.2449 17.5117 14.4449 17.8117C14.5449 17.5117 14.5449 17.6117 14.5449 17.5117C14.6449 17.4117 14.6449 17.4117 14.7449 17.4117C14.9449 17.4117 15.0449 17.3117 15.1449 17.1117C15.1449 17.0117 15.2449 16.9117 15.5449 16.7117C15.9449 16.5117 15.8449 16.5117 16.2449 16.7117C16.4449 16.8117 16.5449 16.9117 16.5449 16.9117C16.6449 17.0117 16.7449 17.1117 16.8449 17.0117C16.9449 17.0117 17.0449 17.0117 17.1449 17.1117C17.1449 17.2117 17.1449 17.2117 17.2449 17.2117V17.0117C17.2449 16.9117 17.2449 16.8117 17.0449 16.7117C16.8449 16.5117 16.7449 16.4117 16.6449 16.5117C16.5449 16.5117 16.5449 16.5117 16.3449 16.4117C16.1449 16.3117 16.1449 16.2117 16.2449 16.2117L16.8449 16.0117L17.4449 15.7117L17.5449 15.8117C17.7449 15.9117 17.9449 16.1117 18.0449 16.1117C18.1449 16.1117 18.1449 16.1117 18.1449 16.0117C18.1449 15.8117 18.5449 15.1117 18.7449 14.8117C19.0449 14.3117 19.2449 14.1117 19.3449 14.3117C19.3449 14.4117 19.4449 14.4117 19.3449 14.6117C19.3449 15.2117 19.0449 15.9117 18.6449 16.4117C18.4449 16.6117 18.2449 16.8117 17.9449 16.8117C17.7449 16.8117 17.6449 16.9117 17.6449 17.0117C17.6449 17.1117 17.7449 17.2117 17.8449 17.3117C17.9449 17.3117 17.9449 17.4117 18.1449 17.3117C18.3449 17.3117 18.3449 17.3117 18.5449 17.2117C18.7449 17.1117 18.7449 17.1117 18.8449 17.1117V17.3117C18.7449 17.5117 18.6449 17.7117 18.2449 17.7117C17.8449 17.8117 17.7449 17.9117 17.8449 18.1117C17.9449 18.2117 18.0449 18.3117 18.2449 18.3117C18.4449 18.3117 18.6449 18.2117 18.9449 17.9117L19.1449 17.7117V18.1117C19.1449 18.2117 18.9449 18.5117 18.8449 18.5117L18.6449 18.6117C18.3449 18.7117 18.2449 18.8117 18.5449 19.0117C18.6449 19.1117 18.9449 19.1117 19.1449 19.0117L19.6449 18.5117C19.7449 18.4117 19.7449 18.5117 19.7449 18.6117C19.7449 18.7117 19.6449 18.9117 19.5449 19.1117C19.4449 19.3117 19.4449 19.5117 19.6449 19.9117C19.7449 20.1117 19.9449 20.3117 19.9449 20.3117C20.0449 20.3117 20.1449 20.1117 20.2449 19.9117C20.4449 19.6117 20.5449 19.3117 20.3449 19.1117C20.1449 18.9117 20.1449 18.7117 20.1449 18.6117C20.1449 18.4117 20.1449 18.4117 20.2449 18.5117L20.7449 19.0117C20.9449 19.1117 21.1449 19.1117 21.2449 19.0117C21.4449 18.8117 21.4449 18.7117 21.1449 18.6117C21.0449 18.6117 20.9449 18.5117 20.9449 18.5117C20.8449 18.5117 20.6449 18.2117 20.6449 18.1117V17.7117L20.8449 17.9117C21.0449 18.2117 21.2449 18.3117 21.5449 18.3117C21.7449 18.3117 21.8449 18.2117 21.9449 18.1117C22.0449 17.9117 21.9449 17.8117 21.5449 17.7117C21.1449 17.7117 21.0449 17.5117 20.9449 17.3117V17.1117C20.9449 17.1117 21.0449 17.1117 21.1449 17.2117C21.3449 17.3117 21.3449 17.3117 21.5449 17.3117H21.8449C21.9449 17.3117 22.0449 17.1117 22.0449 17.0117C22.0449 16.9117 21.9449 16.9117 21.7449 16.8117C21.4449 16.8117 21.2449 16.6117 21.0449 16.4117C20.6449 16.0117 20.3449 15.2117 20.3449 14.6117C20.3449 14.4117 20.3449 14.3117 20.4449 14.3117C20.5449 14.1117 20.7449 14.3117 21.0449 14.8117C21.2449 15.1117 21.5449 15.8117 21.6449 16.0117C21.6449 16.1117 21.6449 16.1117 21.7449 16.1117C21.8449 16.1117 22.1449 16.0117 22.2449 15.8117L22.3449 15.7117L22.9449 16.0117L23.5449 16.2117C23.6449 16.2117 23.5449 16.3117 23.3449 16.4117C23.2449 16.5117 23.1449 16.5117 23.0449 16.5117C22.9449 16.4117 22.8449 16.5117 22.6449 16.7117C22.5449 16.9117 22.4449 16.9117 22.4449 17.0117V17.2117L22.5449 17.1117C22.6449 17.0117 22.6449 16.9117 22.8449 17.0117C22.9449 17.0117 23.1449 17.0117 23.1449 16.9117C23.1449 16.8117 23.2449 16.8117 23.4449 16.7117C23.8449 16.5117 23.8449 16.5117 24.1449 16.7117C24.4449 16.9117 24.4449 16.9117 24.5449 17.1117C24.6449 17.3117 24.7449 17.3117 24.9449 17.4117C25.0449 17.4117 25.1449 17.4117 25.1449 17.5117C25.1449 17.6117 25.1449 17.5117 25.2449 17.8117C25.3449 17.5117 25.3449 17.5117 25.3449 17.3117C25.3449 17.2117 25.3449 17.1117 25.2449 17.1117C25.2449 16.9117 25.0449 16.8117 24.8449 16.8117C24.6449 16.8117 24.6449 16.8117 24.4449 16.6117C24.3449 16.5117 24.2449 16.5117 24.2449 16.5117H25.1449C25.2449 16.6117 25.4449 16.6117 25.5449 16.5117L25.6449 16.4117C25.7449 16.3117 25.7449 16.3117 25.9449 16.4117H26.1449C26.0449 16.2117 25.9449 16.1117 25.8449 16.1117Z" fill="#242222"/>
</g>
</g>
<defs>
<clipPath id="clip0_26003_53693">
<rect width="38" height="25" fill="white" transform="translate(0.745117 0.210938)"/>
</clipPath>
<clipPath id="clip1_26003_53693">
<rect width="38" height="25" fill="white" transform="translate(0.745117 0.210938)"/>
</clipPath>
</defs>
</svg>
