<svg width="38" height="26" viewBox="0 0 38 26" fill="none" xmlns="http://www.w3.org/2000/svg">
<g clip-path="url(#clip0_26003_93601)">
<g clip-path="url(#clip1_26003_93601)">
<path d="M35.2 0.5H2.8C1.3 0.5 0 1.8 0 3.4V22.7C0 24.2 1.3 25.5 2.8 25.5H35.1C36.7 25.5 37.9 24.2 37.9 22.6V3.4C38 1.8 36.7 0.5 35.2 0.5Z" fill="#293499"/>
<path d="M0 5.09961H38V20.8996H0V5.09961Z" fill="#F5F5F5"/>
<path d="M22.4004 13L24.1004 10H20.7004L19.0004 7L17.3004 10H13.9004L15.6004 13L13.9004 16H17.3004L19.0004 19L20.7004 16H24.1004L22.4004 13ZM22.4004 11L21.8004 12L21.2004 11H22.4004ZM21.3004 13L20.2004 15H17.9004L16.8004 13L17.9004 11H20.2004L21.3004 13ZM19.0004 9L19.6004 10H18.4004L19.0004 9ZM15.6004 11H16.8004L16.2004 12L15.6004 11ZM15.6004 15L16.2004 14L16.8004 15H15.6004ZM19.0004 17L18.4004 16H19.6004L19.0004 17ZM21.8004 14L22.4004 15H21.2004L21.8004 14Z" fill="#2F3996"/>
</g>
</g>
<defs>
<clipPath id="clip0_26003_93601">
<rect width="38" height="25" fill="white" transform="translate(0 0.5)"/>
</clipPath>
<clipPath id="clip1_26003_93601">
<rect width="38" height="25" fill="white" transform="translate(0 0.5)"/>
</clipPath>
</defs>
</svg>
