<svg width="38" height="26" viewBox="0 0 38 26" fill="none" xmlns="http://www.w3.org/2000/svg">
<g clip-path="url(#clip0_26003_82580)">
<g clip-path="url(#clip1_26003_82580)">
<path fill-rule="evenodd" clip-rule="evenodd" d="M2.5 25.5H35.6C36.9 25.2 37.9 24.1 38.1 22.6V3.4C37.9 1.9 36.9 0.7 35.6 0.5H2.5C1.2 0.8 0.2 1.9 0 3.4V22.6C0.2 24.1 1.2 25.2 2.5 25.5Z" fill="#C12837"/>
<path fill-rule="evenodd" clip-rule="evenodd" d="M3.59961 4H34.2996V22H3.59961V4Z" fill="#307F60"/>
<path fill-rule="evenodd" clip-rule="evenodd" d="M3.59961 22L18.9996 13L34.3996 22H3.59961ZM3.59961 4L18.9996 13L34.3996 4H3.59961Z" fill="#F5D71C"/>
<path fill-rule="evenodd" clip-rule="evenodd" d="M21.6998 13C21.6998 11.3 20.4998 10 18.9998 10C17.4998 10 16.2998 11.3 16.2998 13C16.2998 14.7 17.4998 16 18.9998 16C20.4998 16 21.6998 14.7 21.6998 13Z" fill="#C12837"/>
<path fill-rule="evenodd" clip-rule="evenodd" d="M16.7002 12.0996H18.4002L19.0002 10.2996L19.5002 12.0996H21.3002L19.9002 13.2996L20.4002 15.1996L19.0002 14.0996L17.6002 15.1996L18.1002 13.2996L16.7002 12.0996ZM10.2002 1.69961H11.3002L11.6002 0.599609L11.9002 1.69961H13.0002L12.1002 2.39961L12.5002 3.59961L11.6002 2.89961L10.8002 3.59961L11.1002 2.39961L10.2002 1.69961ZM17.6002 1.69961H18.7002L19.0002 0.599609L19.3002 1.69961H20.4002L19.5002 2.39961L19.8002 3.59961L19.0002 2.89961L18.2002 3.59961L18.5002 2.39961L17.6002 1.69961ZM25.0002 1.69961H26.1002L26.4002 0.599609L26.7002 1.69961H27.8002L26.9002 2.39961L27.2002 3.59961L26.4002 2.89961L25.5002 3.59961L25.9002 2.39961L25.0002 1.69961ZM10.2002 23.1996H11.3002L11.6002 22.0996L11.9002 23.1996H13.0002L12.1002 23.8996L12.5002 25.0996L11.6002 24.3996L10.8002 25.0996L11.1002 23.8996L10.2002 23.1996ZM17.6002 23.1996H18.7002L19.0002 22.0996L19.3002 23.1996H20.4002L19.5002 23.8996L19.8002 25.0996L19.0002 24.3996L18.2002 25.0996L18.5002 23.8996L17.6002 23.1996ZM25.0002 23.1996H26.1002L26.4002 22.0996L26.7002 23.1996H27.8002L26.9002 23.8996L27.2002 25.0996L26.4002 24.3996L25.5002 25.0996L25.9002 23.8996L25.0002 23.1996Z" fill="#F5D71C"/>
<path fill-rule="evenodd" clip-rule="evenodd" d="M5.5 13.0004C5.8 13.7004 6.5 14.5004 7 14.7004C7 14.0004 6.8 13.1004 6.5 12.4004L5.5 13.0004Z" fill="#C12837"/>
<path fill-rule="evenodd" clip-rule="evenodd" d="M4.99994 10.5996C5.49994 11.6996 3.69994 14.3996 6.59994 15.0996C6.19994 14.5996 5.99994 13.5996 6.09994 12.8996C6.69994 13.1996 7.29994 13.8996 7.59994 14.4996C8.39994 11.3996 5.69994 11.5996 4.99994 10.5996Z" fill="#F5D71C"/>
</g>
</g>
<defs>
<clipPath id="clip0_26003_82580">
<rect width="38" height="25" fill="white" transform="translate(0 0.5)"/>
</clipPath>
<clipPath id="clip1_26003_82580">
<rect width="38" height="25" fill="white" transform="translate(0 0.5)"/>
</clipPath>
</defs>
</svg>
