<svg width="38" height="26" viewBox="0 0 38 26" fill="none" xmlns="http://www.w3.org/2000/svg">
<g clip-path="url(#clip0_26003_74005)">
<g clip-path="url(#clip1_26003_74005)">
<path d="M1.75455e-05 22.64C-0.00129863 23.0151 0.0714475 23.3868 0.214084 23.7337C0.356721 24.0807 0.566441 24.396 0.831219 24.6617C1.096 24.9274 1.41062 25.1383 1.75706 25.2821C2.10349 25.426 2.47491 25.5 2.85002 25.5H35.16C35.9168 25.4974 36.6417 25.1949 37.1759 24.6588C37.7101 24.1227 38.01 23.3968 38.01 22.64V19.25H1.75455e-05V22.64Z" fill="#F22F41"/>
<path d="M35.15 0.480469H2.85C2.09321 0.483115 1.36833 0.785603 0.834136 1.32167C0.299943 1.85774 -4.62604e-06 2.58368 0 3.34047L0 12.9905H38V3.34047C38 2.58368 37.7001 1.85774 37.1659 1.32167C36.6317 0.785603 35.9068 0.483115 35.15 0.480469Z" fill="#F7D131"/>
<path d="M0 12.9902H38V19.2402H0V12.9902Z" fill="#2C3799"/>
<path d="M18.3203 13.3602L23.1103 9.24023V15.2002C23.1155 15.5523 23.0174 15.8981 22.8281 16.1949C22.6387 16.4918 22.3665 16.7265 22.0451 16.8702C21.7237 17.0139 21.3672 17.0602 21.0197 17.0033C20.6723 16.9464 20.3491 16.7889 20.0903 16.5502L18.3303 14.9602L18.3203 13.3602Z" fill="#FFE15A"/>
<path d="M20.84 15.7105L19.46 14.4605V12.3905L21.97 10.2305V15.2205C21.97 15.5905 21.67 15.9005 21.3 15.9005C21.1303 15.8877 20.9692 15.8211 20.84 15.7105Z" fill="#FF4B55"/>
<path d="M20.14 11.7907V14.1507L21.28 15.1807V10.8107L21.96 10.2207V15.2107C21.96 15.5807 21.66 15.8907 21.29 15.8907C21.1239 15.8927 20.9632 15.832 20.84 15.7207L19.46 14.4707V12.4007L20.14 11.7907Z" fill="#41479B"/>
<path d="M19.6796 13.3602L14.8996 9.24023V15.2002C14.8944 15.5523 14.9925 15.8981 15.1819 16.1949C15.3712 16.4918 15.6434 16.7265 15.9648 16.8702C16.2863 17.0139 16.6427 17.0602 16.9902 17.0033C17.3376 16.9464 17.6608 16.7889 17.9196 16.5502L19.6796 14.9602V13.3602Z" fill="#FFE15A"/>
<path d="M17.1603 15.7105L18.5403 14.4605V12.3905L16.0303 10.2305V15.2205C16.0303 15.5905 16.3303 15.9005 16.7003 15.9005C16.8699 15.8877 17.031 15.8211 17.1603 15.7105Z" fill="#FF4B55"/>
<path d="M17.8605 11.7898V14.1498L16.7205 15.1798V10.8098L16.0405 10.2198V15.2098C16.0405 15.5798 16.3405 15.8898 16.7105 15.8898C16.8805 15.8898 17.0405 15.8298 17.1605 15.7198L18.5405 14.4698V12.3998L17.8605 11.7898ZM22.9405 9.25977H23.2705V11.2298H22.9405V9.25977ZM14.7305 9.25977H15.0605V11.2298H14.7305V9.25977Z" fill="#41479B"/>
<path d="M18.3198 8.32086C18.3198 8.32086 18.7798 6.14086 17.1798 6.43086C15.5798 6.72086 15.5798 7.17086 13.7598 8.09086C13.7598 8.09086 15.8098 8.55086 16.7198 8.32086C16.7198 8.32086 17.3998 9.24086 18.0898 9.46086H18.7698L18.3198 8.32086ZM19.6798 8.32086C19.6798 8.32086 19.2198 6.14086 20.8198 6.43086C22.4198 6.72086 22.4198 7.17086 24.2398 8.09086C24.2398 8.09086 22.1898 8.55086 21.2798 8.32086C21.2798 8.32086 20.5998 9.24086 19.9098 9.46086H19.2298L19.6798 8.32086Z" fill="#5A4646"/>
<path d="M19.6796 9.47063H18.3096V8.32063C18.3096 7.95063 18.6096 7.64062 18.9896 7.64062H19.0096C19.3796 7.64062 19.6896 7.94063 19.6896 8.32063L19.6796 9.47063Z" fill="#5A4646"/>
<path d="M19 8.77937C19.2541 8.77937 19.46 8.57343 19.46 8.31938C19.46 8.06532 19.2541 7.85938 19 7.85938C18.746 7.85938 18.54 8.06532 18.54 8.31938C18.54 8.57343 18.746 8.77937 19 8.77937Z" fill="#E6E1CD"/>
<path d="M18.0195 8.03063L18.8795 8.49062C18.9495 8.53062 19.0395 8.52063 19.0995 8.46063C19.1326 8.4254 19.151 8.37892 19.151 8.33063C19.151 8.28233 19.1326 8.23585 19.0995 8.20062L18.5495 7.64063H18.4195C18.3152 7.64059 18.2149 7.68136 18.1402 7.75423C18.0654 7.82709 18.0221 7.92628 18.0195 8.03063Z" fill="#FFD0AF"/>
<path d="M18.3199 8.10039H17.6299L17.9299 7.75039C17.9899 7.68039 18.0699 7.65039 18.1599 7.65039H18.5499V7.88039C18.5399 7.99039 18.4399 8.10039 18.3199 8.10039Z" fill="#FFAF94"/>
<path d="M20.9399 9.47041C20.8671 9.38274 20.8186 9.27746 20.7993 9.16513C20.78 9.0528 20.7905 8.93736 20.8299 8.83041C21.0499 8.79041 21.2799 8.87041 21.4399 9.05041C21.5699 9.21041 21.6099 9.41041 21.5699 9.59041L21.7299 9.89041L21.7399 9.84041C21.7899 9.65041 21.9399 9.52041 22.1199 9.47041C22.2499 9.60041 22.2999 9.80041 22.2499 9.99041C22.2259 10.0661 22.1857 10.1357 22.1322 10.1944C22.0787 10.2531 22.0131 10.2995 21.9399 10.3304L22.1099 10.7504L22.1199 10.7204C22.1899 10.5404 22.3599 10.4204 22.5399 10.3904C22.6499 10.5404 22.6899 10.7304 22.6099 10.9204C22.5798 10.9958 22.5325 11.0631 22.4717 11.117C22.4109 11.1708 22.3384 11.2096 22.2599 11.2304C22.3436 11.5504 22.3873 11.8796 22.3899 12.2104H22.1599C22.1599 11.9204 22.1199 11.6204 22.0499 11.3404C21.9795 11.3671 21.9037 11.3766 21.8288 11.3679C21.754 11.3592 21.6823 11.3326 21.6199 11.2904C21.5413 11.2427 21.4767 11.175 21.4328 11.0942C21.3889 11.0134 21.3672 10.9223 21.3699 10.8304C21.4495 10.7853 21.5398 10.7624 21.6313 10.7641C21.7228 10.7659 21.8121 10.7922 21.8899 10.8404L21.9099 10.8504L21.7599 10.4504C21.6894 10.482 21.6132 10.4991 21.5359 10.5008C21.4586 10.5026 21.3818 10.4888 21.3099 10.4604C21.2263 10.4217 21.1545 10.3615 21.1018 10.286C21.049 10.2104 21.0173 10.1222 21.0099 10.0304C21.1599 9.93041 21.3599 9.90041 21.5299 9.98041L21.3699 9.68041C21.2877 9.67678 21.207 9.65626 21.1331 9.62013C21.0591 9.584 20.9933 9.53304 20.9399 9.47041ZM17.0599 9.47041C17.1328 9.38274 17.1813 9.27746 17.2006 9.16513C17.2199 9.0528 17.2093 8.93736 17.1699 8.83041C17.0579 8.81148 16.9429 8.82178 16.836 8.86033C16.7292 8.89887 16.6341 8.96434 16.5599 9.05041C16.4299 9.21041 16.3899 9.41041 16.4299 9.59041L16.2699 9.89041L16.2599 9.84041C16.2347 9.75079 16.1862 9.66941 16.1195 9.60445C16.0528 9.5395 15.9702 9.49327 15.8799 9.47041C15.8149 9.53827 15.7686 9.62194 15.7458 9.71314C15.723 9.80434 15.7244 9.89991 15.7499 9.99041C15.7999 10.1504 15.9199 10.2704 16.0599 10.3304L15.8899 10.7504L15.8799 10.7204C15.8437 10.6342 15.7862 10.5587 15.7127 10.501C15.6392 10.4433 15.5522 10.4052 15.4599 10.3904C15.4023 10.4646 15.3655 10.5528 15.3532 10.6459C15.3409 10.7391 15.3536 10.8338 15.3899 10.9204C15.4499 11.0804 15.5899 11.1904 15.7399 11.2304C15.6562 11.5504 15.6126 11.8796 15.6099 12.2104H15.8399C15.8399 11.9204 15.8799 11.6204 15.9499 11.3404C16.0899 11.3904 16.2499 11.3804 16.3799 11.2904C16.5499 11.1904 16.6299 11.0104 16.6299 10.8304C16.5503 10.7853 16.46 10.7624 16.3685 10.7641C16.2771 10.7659 16.1877 10.7922 16.1099 10.8404L16.0899 10.8504L16.2399 10.4504C16.3799 10.5104 16.5399 10.5204 16.6899 10.4604C16.7735 10.4217 16.8454 10.3615 16.8981 10.286C16.9508 10.2104 16.9825 10.1222 16.9899 10.0304C16.9145 9.97876 16.8273 9.94709 16.7364 9.93834C16.6454 9.9296 16.5537 9.94407 16.4699 9.98041L16.6299 9.68041C16.7122 9.67678 16.7928 9.65626 16.8668 9.62013C16.9407 9.584 17.0065 9.53304 17.0599 9.47041Z" fill="#8CB400"/>
<path d="M19.0002 14.5106L14.2102 10.3906V16.3506C14.2049 16.7027 14.3031 17.0485 14.4924 17.3453C14.6817 17.6421 14.954 17.8769 15.2754 18.0206C15.5968 18.1643 15.9533 18.2106 16.3007 18.1537C16.6482 18.0968 16.9713 17.9393 17.2302 17.7006L19.0002 16.1106V14.5106Z" fill="#FFE15A"/>
<path d="M16.4796 16.8491L17.8596 15.5991V13.5291L15.3496 11.3691V16.3591C15.3496 16.7291 15.6496 17.0391 16.0196 17.0391C16.1894 17.027 16.3508 16.9604 16.4796 16.8491Z" fill="#FF4B55"/>
<path d="M17.1804 12.9391V15.2991L16.0404 16.3291V11.9591L15.3604 11.3691V16.3591C15.3604 16.7291 15.6604 17.0391 16.0304 17.0391C16.2004 17.0391 16.3604 16.9791 16.4804 16.8691L17.8604 15.6191V13.5491L17.1804 12.9391Z" fill="#41479B"/>
<path d="M19 14.5106L23.79 10.3906V16.3506C23.7952 16.7027 23.6971 17.0485 23.5078 17.3453C23.3184 17.6421 23.0462 17.8769 22.7248 18.0206C22.4034 18.1643 22.0469 18.2106 21.6994 18.1537C21.352 18.0968 21.0288 17.9393 20.77 17.7006L19 16.1106V14.5106Z" fill="#FFE15A"/>
<path d="M21.5196 16.8491L20.1396 15.5991V13.5291L22.6496 11.3691V16.3591C22.6496 16.7291 22.3496 17.0391 21.9796 17.0391C21.8098 17.027 21.6485 16.9604 21.5196 16.8491Z" fill="#FF4B55"/>
<path d="M20.8196 12.9391V15.2991L21.9596 16.3291V11.9591L22.6396 11.3691V16.3591C22.6396 16.7291 22.3396 17.0391 21.9696 17.0391C21.8036 17.0411 21.6429 16.9804 21.5196 16.8691L20.1396 15.6191V13.5491L20.8196 12.9391Z" fill="#41479B"/>
<path d="M18.9997 16.3307C20.2589 16.3307 21.2797 14.795 21.2797 12.9007C21.2797 11.0064 20.2589 9.4707 18.9997 9.4707C17.7405 9.4707 16.7197 11.0064 16.7197 12.9007C16.7197 14.795 17.7405 16.3307 18.9997 16.3307Z" fill="#69C3FF"/>
<path d="M16.9502 13.8209H21.0502L21.2802 12.9009L20.2402 13.0709C20.1377 13.0883 20.0326 13.083 19.9324 13.0553C19.8322 13.0277 19.7393 12.9784 19.6602 12.9109L18.4802 11.8909C18.3691 11.795 18.2259 11.7449 18.0793 11.7504C17.9327 11.756 17.7937 11.8169 17.6902 11.9209L16.9502 12.6609V13.8209Z" fill="#009B64"/>
<path d="M18.7802 12.7506L19.1802 12.5006L18.4802 11.9006C18.3691 11.8048 18.2259 11.7546 18.0793 11.7602C17.9327 11.7658 17.7937 11.8267 17.6902 11.9306L16.9502 12.6706V12.9006L18.0902 12.6706L18.2902 12.7706C18.4502 12.8606 18.6402 12.8506 18.7802 12.7506Z" fill="#F5F5F5"/>
<path d="M16.9502 13.8203L17.1802 15.1903L18.3202 16.3403H19.0002L19.9102 16.1103L20.8202 15.1903L21.0502 13.8203H16.9502Z" fill="#5AA0E6"/>
<path d="M19.0002 16.5702C17.6202 16.5702 16.4902 14.9302 16.4902 12.9102C16.4902 10.8902 17.6202 9.24023 19.0002 9.24023C20.3802 9.24023 21.5102 10.8802 21.5102 12.9002C21.5102 14.9202 20.3802 16.5702 19.0002 16.5702ZM19.0002 9.70023C17.8702 9.70023 16.9502 11.1402 16.9502 12.9102C16.9502 14.6802 17.8702 16.1202 19.0002 16.1202C20.1302 16.1202 21.0502 14.6802 21.0502 12.9102C21.0502 11.1402 20.1302 9.70023 19.0002 9.70023Z" fill="#FFC88C"/>
<path d="M17.39 16.3209C17.2 16.0509 16.91 15.8809 16.59 15.8809C16.27 15.8809 15.98 16.0509 15.79 16.3209C16.12 16.4109 16.38 16.6809 16.51 17.0309C16.56 17.1709 16.59 17.3309 16.59 17.4909C16.59 16.9209 16.94 16.4509 17.39 16.3209Z" fill="#E1E1E1"/>
<path d="M16.7797 17.0413C16.7797 17.0413 16.7597 17.3512 16.6097 17.4912L16.5997 17.4812C16.4397 17.3412 16.4297 17.0312 16.4297 17.0312L16.7797 17.0413Z" fill="#E1E1E1"/>
<path d="M21.85 17.1399H16.15C16.1209 17.1399 16.0929 17.1283 16.0723 17.1077C16.0516 17.0871 16.04 17.0591 16.04 17.0299C16.04 16.9699 16.09 16.9199 16.15 16.9199H21.85C21.91 16.9199 21.96 16.9699 21.96 17.0299C21.96 17.0899 21.91 17.1399 21.85 17.1399Z" fill="#966446"/>
<path d="M20.1404 17.4803H17.8504C17.731 17.4803 17.6166 17.4329 17.5322 17.3485C17.4478 17.2641 17.4004 17.1497 17.4004 17.0303V17.0203C17.4004 16.7703 17.6004 16.5703 17.8504 16.5703H20.1404C20.3904 16.5703 20.5904 16.7703 20.5904 17.0203V17.0303C20.6004 17.2803 20.3904 17.4803 20.1404 17.4803Z" fill="#BE915A"/>
<path d="M16.95 16.9102H16.15C16.09 16.9102 16.04 16.9602 16.04 17.0202C16.04 17.0802 16.09 17.1302 16.15 17.1302H16.95V16.9102Z" fill="#B9B9B9"/>
<path d="M18.9998 17.4805V19.5805L18.0898 19.3205L18.5398 17.4805H18.9998Z" fill="#FF4B55"/>
<path d="M18.7704 17.4805L18.3204 19.0905L17.4004 18.8605L18.0904 17.4805H18.7704Z" fill="#41479B"/>
<path d="M17.8597 17.4805L17.1797 18.4005L17.8597 18.6305L18.3197 17.4805H17.8597Z" fill="#FFE15A"/>
<path d="M19 17.4805V19.5805L19.91 19.3205L19.46 17.4805H19Z" fill="#FF4B55"/>
<path d="M19.2305 17.4805L19.6805 19.0905L20.6005 18.8605L19.9105 17.4805H19.2305Z" fill="#41479B"/>
<path d="M20.1397 17.4805L20.8197 18.4005L20.1397 18.6305L19.6797 17.4805H20.1397Z" fill="#FFE15A"/>
<path d="M14.3798 12.3606L14.0498 12.0306V10.3906H14.3798V12.3606ZM23.9498 12.0306L23.6198 12.3606V10.3906H23.9498V12.0306Z" fill="#41479B"/>
</g>
</g>
<defs>
<clipPath id="clip0_26003_74005">
<rect width="38" height="25" fill="white" transform="translate(0 0.5)"/>
</clipPath>
<clipPath id="clip1_26003_74005">
<rect width="38" height="25" fill="white" transform="translate(0 0.5)"/>
</clipPath>
</defs>
</svg>
