<svg width="38" height="26" viewBox="0 0 38 26" fill="none" xmlns="http://www.w3.org/2000/svg">
<g clip-path="url(#clip0_26003_90352)">
<g clip-path="url(#clip1_26003_90352)">
<path fill-rule="evenodd" clip-rule="evenodd" d="M2.47 25.5H35.53C36.82 25.25 37.83 24.06 38 22.59V3.41C37.83 1.94 36.82 0.75 35.53 0.5H2.47C1.18 0.75 0.17 1.94 0 3.41V22.58C0.17 24.06 1.18 25.25 2.47 25.5Z" fill="#FEFEFE"/>
<path fill-rule="evenodd" clip-rule="evenodd" d="M0 8.83H38V3.41C37.83 1.94 36.82 0.75 35.53 0.5H2.47C1.18 0.75 0.17 1.94 0 3.41V8.83Z" fill="#EF9B39"/>
<path fill-rule="evenodd" clip-rule="evenodd" d="M2.47 25.4999H35.53C36.82 25.2499 37.83 24.0599 38 22.5899V17.1699H0V22.5899C0.17 24.0599 1.18 25.2499 2.47 25.4999Z" fill="#358C41"/>
<path fill-rule="evenodd" clip-rule="evenodd" d="M18.9999 9.62L18.9099 11.5L18.9999 12.58L19.0899 11.5L18.9999 9.62C19.0899 9.62 19.1799 9.62 19.2599 9.64V9.65C19.2599 9.74 19.3199 9.81 19.3999 9.81C19.4699 9.81 19.5299 9.74 19.5299 9.67L19.7799 9.74L19.2699 11.54L19.1099 12.6L19.4399 11.58L19.7899 9.74L20.0299 9.83L20.0199 9.88C20.0199 9.97 20.0799 10.04 20.1599 10.04C20.2099 10.04 20.2699 10 20.2899 9.94L20.5099 10.08L19.5999 11.66L19.1999 12.65L19.7599 11.77L20.5199 10.09L20.7299 10.23C20.7097 10.2594 20.6992 10.2943 20.6999 10.33C20.6999 10.42 20.7599 10.48 20.8399 10.48C20.8799 10.48 20.9199 10.46 20.9499 10.41L21.1399 10.61L19.8999 11.87L19.2899 12.7L19.9999 12.01L21.1199 10.61C21.1799 10.68 21.2399 10.74 21.2899 10.82C21.258 10.8518 21.24 10.895 21.2399 10.94C21.2399 11.03 21.2999 11.1 21.3699 11.1C21.3999 11.1 21.4299 11.09 21.4499 11.07L21.5799 11.31L20.0899 12.17L19.3099 12.8L20.1799 12.35L21.5799 11.32L21.6999 11.58C21.6499 11.6 21.6199 11.66 21.6199 11.73C21.6199 11.81 21.6799 11.88 21.7499 11.88L21.7999 11.86L21.8699 12.12L20.2399 12.51L19.3399 12.88L20.2799 12.7L21.8699 12.13L21.9199 12.4C21.8499 12.41 21.7999 12.47 21.7999 12.55C21.7999 12.63 21.8599 12.7 21.9399 12.7H21.9499C21.9999 12.8 21.9999 12.91 21.9999 13L20.3299 12.91L19.3699 13L20.3299 13.1L21.9999 13L21.9899 13.28H21.9799C21.9099 13.28 21.8399 13.36 21.8399 13.43C21.8399 13.51 21.8899 13.57 21.9599 13.59L21.9099 13.86L21.3399 13.66L20.3199 13.29L19.3799 13.11L20.2799 13.48L21.9099 13.87C21.8899 13.96 21.8699 14.06 21.8399 14.13H21.7899C21.7099 14.13 21.6499 14.2 21.6499 14.28L21.6599 14.34L21.6999 14.4L21.7099 14.41L21.7199 14.42L21.7299 14.43L21.6099 14.68L20.2099 13.66L19.3399 13.21L19.7999 13.57L20.1199 13.83L21.6099 14.69L21.4699 14.93C21.445 14.9176 21.4177 14.9107 21.3899 14.91C21.3099 14.91 21.2499 14.97 21.2499 15.06C21.2499 15.11 21.2699 15.15 21.2999 15.18L21.1299 15.38L19.9999 13.99L19.2699 13.3L19.8799 14.13L21.1199 15.39L20.9399 15.57C20.9143 15.5498 20.8825 15.5392 20.8499 15.54C20.7799 15.54 20.7099 15.61 20.7099 15.69L20.7199 15.76L20.4999 15.92L19.7399 14.24L19.1799 13.35L19.5799 14.33L20.4899 15.92L20.2699 16.05C20.2617 16.0244 20.2457 16.0021 20.2242 15.9859C20.2027 15.9698 20.1768 15.9608 20.1499 15.96C20.0699 15.96 20.0099 16.03 20.0099 16.11L20.0199 16.17L19.7799 16.25L19.4299 14.4L19.0999 13.4V13.39L19.2599 14.45L19.7699 16.25C19.6899 16.28 19.6099 16.3 19.5199 16.31C19.5099 16.24 19.4499 16.18 19.3899 16.18C19.3099 16.18 19.2499 16.25 19.2499 16.33V16.35C19.1671 16.3616 19.0836 16.3683 18.9999 16.37L19.0899 14.49L18.9999 13.43L18.9099 14.51L18.9999 16.39C18.9099 16.39 18.8299 16.39 18.7399 16.37V16.35C18.7399 16.27 18.6799 16.2 18.5999 16.2C18.5299 16.2 18.4799 16.26 18.4699 16.33L18.2299 16.27L18.7399 14.47L18.8999 13.41L18.5699 14.41L18.2199 16.26L17.9799 16.18L17.9899 16.12C17.9899 16.04 17.9299 15.97 17.8599 15.97C17.8317 15.9702 17.8042 15.9788 17.781 15.9949C17.7578 16.011 17.74 16.0336 17.7299 16.06L17.5099 15.93L18.4199 14.34L18.8199 13.36L18.2699 14.24L17.5099 15.92C17.4399 15.87 17.3599 15.82 17.2999 15.76C17.3199 15.74 17.3299 15.71 17.3299 15.67C17.3299 15.58 17.2699 15.51 17.1999 15.51C17.1499 15.51 17.1199 15.54 17.0899 15.57L16.8999 15.38L18.1399 14.12L18.7499 13.29L17.9999 13.99L16.8799 15.39L16.7099 15.19C16.7424 15.1546 16.7603 15.1081 16.7599 15.06C16.7599 14.98 16.6999 14.91 16.6199 14.91C16.5921 14.9107 16.5648 14.9176 16.5399 14.93L16.3999 14.69L17.8899 13.83L18.6699 13.22L17.7999 13.67L16.3999 14.69C16.3573 14.6094 16.3205 14.5259 16.2899 14.44C16.3163 14.4272 16.3387 14.4073 16.3546 14.3826C16.3704 14.3579 16.3792 14.3293 16.3799 14.3C16.3799 14.21 16.3199 14.14 16.2399 14.14C16.2199 14.14 16.1999 14.14 16.1799 14.16L16.0999 13.89L17.7399 13.5L18.6399 13.13L17.6899 13.31L16.0999 13.89L16.0399 13.61C16.1099 13.6 16.1599 13.54 16.1599 13.46C16.1599 13.38 16.0999 13.31 16.0199 13.31H16.0099L15.9999 13.03L17.6699 13.13L18.6199 13.03L17.6699 12.94L15.9999 12.99L16.0099 12.71H16.0299C16.1099 12.71 16.1699 12.64 16.1699 12.56C16.1713 12.5416 16.169 12.5231 16.1632 12.5056C16.1574 12.4881 16.1482 12.4719 16.1361 12.458C16.124 12.444 16.1093 12.4326 16.0928 12.4244C16.0763 12.4162 16.0583 12.4113 16.0399 12.41C16.0599 12.32 16.0699 12.22 16.0999 12.14L17.6899 12.71L18.6399 12.89L17.7399 12.52L16.0999 12.13L16.1799 11.86L16.2299 11.87C16.3099 11.87 16.3699 11.8 16.3699 11.72C16.3702 11.6917 16.3629 11.6638 16.3488 11.6392C16.3348 11.6146 16.3145 11.5942 16.2899 11.58L16.4099 11.32L17.8099 12.35L18.6799 12.8L17.8999 12.17L16.3999 11.3L16.5399 11.05C16.5492 11.0624 16.5613 11.0725 16.5752 11.0794C16.5891 11.0864 16.6044 11.09 16.6199 11.09C16.6899 11.09 16.7599 11.02 16.7599 10.93C16.7588 10.8852 16.741 10.8424 16.7099 10.81L16.8699 10.61L17.9899 12.01L18.7299 12.7L18.1199 11.87L16.8799 10.61L17.0699 10.42C17.0899 10.46 17.1299 10.48 17.1799 10.48C17.2599 10.48 17.3199 10.41 17.3199 10.32C17.3199 10.29 17.3099 10.25 17.2899 10.23L17.4999 10.09L18.2599 11.77L18.8099 12.65L18.4099 11.67L17.4999 10.07L17.7199 9.93C17.7399 9.99 17.7899 10.03 17.8499 10.03C17.9299 10.03 17.9899 9.96 17.9899 9.88L17.9799 9.81L18.2199 9.72L18.5699 11.56L18.8999 12.58L18.7399 11.52L18.2299 9.72L18.4699 9.65C18.4799 9.73 18.5399 9.79 18.5999 9.79C18.6799 9.79 18.7399 9.72 18.7399 9.63V9.61L18.9999 9.62ZM18.9999 9.25C17.1599 9.25 15.6699 10.93 15.6699 13C15.6699 15.07 17.1599 16.75 18.9999 16.75C20.8399 16.75 22.3299 15.07 22.3299 13C22.3199 10.93 20.8399 9.25 18.9999 9.25Z" fill="#2D2F77"/>
<path fill-rule="evenodd" clip-rule="evenodd" d="M19 12.4395C19.28 12.4395 19.5 12.6895 19.5 12.9995C19.5 13.3095 19.28 13.5595 19 13.5595C18.72 13.5595 18.5 13.3095 18.5 12.9995C18.5 12.6995 18.73 12.4395 19 12.4395Z" fill="#FEFEFE"/>
<path fill-rule="evenodd" clip-rule="evenodd" d="M19.0004 12.5703C19.2104 12.5703 19.3804 12.7603 19.3804 13.0003C19.3804 13.2403 19.2104 13.4403 19.0004 13.4403C18.7904 13.4403 18.6104 13.2403 18.6104 13.0003C18.6204 12.7603 18.7904 12.5703 19.0004 12.5703Z" fill="#2D2F77"/>
</g>
</g>
<defs>
<clipPath id="clip0_26003_90352">
<rect width="38" height="25" fill="white" transform="translate(0 0.5)"/>
</clipPath>
<clipPath id="clip1_26003_90352">
<rect width="38" height="25" fill="white" transform="translate(0 0.5)"/>
</clipPath>
</defs>
</svg>
