<svg width="38" height="26" viewBox="0 0 38 26" fill="none" xmlns="http://www.w3.org/2000/svg">
<g clip-path="url(#clip0_26003_92764)">
<g clip-path="url(#clip1_26003_92764)">
<path fill-rule="evenodd" clip-rule="evenodd" d="M2.5 0.5H35.6C36.9 0.8 37.9 1.9 38.1 3.4V22.6C37.9 24.1 36.9 25.2 35.6 25.5H2.5C1.2 25.2 0.2 24.1 0 22.6V3.4C0.2 1.9 1.2 0.8 2.5 0.5Z" fill="#FEFEFE"/>
<path fill-rule="evenodd" clip-rule="evenodd" d="M6.7002 0.5L17.8002 8.8H38.0002V3.4C37.8002 1.9 36.8002 0.8 35.5002 0.5H6.7002Z" fill="#D23235"/>
<path fill-rule="evenodd" clip-rule="evenodd" d="M20.0002 10.5008H38.0002V8.80078H17.7002L20.0002 10.5008ZM17.7002 17.2008H38.0002V15.5008H20.0002L17.7002 17.2008Z" fill="#FEFEFE"/>
<path fill-rule="evenodd" clip-rule="evenodd" d="M17.7002 17.1992L6.7002 25.4992H35.6002C36.9002 25.1992 37.9002 24.0992 38.1002 22.5992V17.1992H17.7002Z" fill="#2E3289"/>
<path fill-rule="evenodd" clip-rule="evenodd" d="M0 8.8H4.4L0 5.5V8.8ZM0 8.8V17.2H4.4L10 13L4.4 8.8H0Z" fill="#242222"/>
<path fill-rule="evenodd" clip-rule="evenodd" d="M0 17.1992V20.4992L4.4 17.1992H0Z" fill="#242222"/>
<path fill-rule="evenodd" clip-rule="evenodd" d="M0 5.5L10 13L0 20.5V22.5L12.6 13L0 3.5V5.5Z" fill="#36A83A"/>
<path fill-rule="evenodd" clip-rule="evenodd" d="M0 3.4V3.5L12.6 13L0 22.5V22.6C0.2 24.1 1.2 25.2 2.5 25.5H4L17.3 15.5H38V10.5H17.3L4 0.5H2.5C1.2 0.8 0.2 1.9 0 3.4Z" fill="#2D7C50"/>
</g>
</g>
<defs>
<clipPath id="clip0_26003_92764">
<rect width="38" height="25" fill="white" transform="translate(0 0.5)"/>
</clipPath>
<clipPath id="clip1_26003_92764">
<rect width="38" height="25" fill="white" transform="translate(0 0.5)"/>
</clipPath>
</defs>
</svg>
