<svg width="39" height="26" viewBox="0 0 39 26" fill="none" xmlns="http://www.w3.org/2000/svg">
<g clip-path="url(#clip0_26003_53721)">
<g clip-path="url(#clip1_26003_53721)">
<path fill-rule="evenodd" clip-rule="evenodd" d="M3.74512 25.2109H13.4451V0.210938H3.74512C2.24512 0.210938 0.945117 1.51094 0.745117 3.11094V22.2109C0.945117 23.9109 2.24512 25.2109 3.74512 25.2109ZM35.7451 0.210938C37.2451 0.210938 38.5451 1.51094 38.7451 3.11094V22.2109C38.5451 23.9109 37.2451 25.1109 35.7451 25.1109H26.0451V0.210938H35.7451Z" fill="#2D3579"/>
<path fill-rule="evenodd" clip-rule="evenodd" d="M13.4453 0.210938H26.1453V25.2109H13.4453V0.210938Z" fill="#F6CD28"/>
<path fill-rule="evenodd" clip-rule="evenodd" d="M19.7451 5.81055C19.3451 7.11055 18.9451 8.41055 18.0451 9.41055C18.2451 9.31055 18.7451 9.21055 19.1451 9.21055V14.5105L17.7451 14.7105C17.7451 14.7105 17.6451 14.6105 17.6451 14.5105C17.5451 12.8105 17.1451 11.5105 16.7451 10.0105C16.7451 9.81055 16.2451 9.11055 16.6451 9.21055C16.6451 9.21055 17.2451 9.41055 17.1451 9.31055C16.4451 8.51055 15.4451 7.91055 14.3451 7.71055C14.2451 7.71055 14.2451 7.71055 14.2451 7.81055C15.5451 10.1105 16.7451 12.9105 16.6451 16.1105C17.1451 16.1105 18.4451 15.8105 18.9451 15.8105V19.6105H20.2451V15.8105C20.7451 15.8105 22.0451 16.1105 22.5451 16.1105C22.5451 12.9105 23.6451 10.1105 24.9451 7.81055C25.0451 7.71055 24.9451 7.61055 24.8451 7.71055C23.8451 7.91055 22.8451 8.51055 22.0451 9.31055C22.2451 9.51055 22.7451 9.21055 22.8451 9.21055C23.2451 9.11055 22.7451 9.81055 22.7451 10.0105C22.3451 11.4105 22.0451 12.8105 21.8451 14.5105C21.8451 14.6105 21.8451 14.7105 21.7451 14.7105L20.4451 14.5105V9.21055C20.7451 9.21055 21.2451 9.31055 21.5451 9.41055C20.5451 8.41055 20.1451 7.01055 19.7451 5.81055Z" fill="#242222"/>
</g>
</g>
<defs>
<clipPath id="clip0_26003_53721">
<rect width="38" height="25" fill="white" transform="translate(0.745117 0.210938)"/>
</clipPath>
<clipPath id="clip1_26003_53721">
<rect width="38" height="25" fill="white" transform="translate(0.745117 0.210938)"/>
</clipPath>
</defs>
</svg>
