<svg width="39" height="26" viewBox="0 0 39 26" fill="none" xmlns="http://www.w3.org/2000/svg">
<g clip-path="url(#clip0_26003_54360)">
<g clip-path="url(#clip1_26003_54360)">
<path d="M0.750977 -1.53906H38.7569V26.9609H0.750977V-1.53906Z" fill="#FFD520"/>
<path d="M0.750977 26.9609H38.7569V-1.53906L0.750977 26.9609Z" fill="#FF4E12"/>
<path d="M21.2527 7.3666C21.0152 7.28941 20.8608 7.40816 20.8727 7.71691C20.8727 8.01973 21.039 8.19191 21.2765 8.0791L21.2527 7.3666Z" fill="white" stroke="black" stroke-width="0.02375"/>
<path d="M21.4607 6.79595C21.2648 6.64157 21.0807 6.70689 20.9857 6.99782C20.8966 7.2947 20.9916 7.50845 21.2529 7.47282L21.4607 6.79595Z" fill="white" stroke="black" stroke-width="0.02375"/>
<path d="M21.7874 6.23857C21.6212 6.06045 21.4312 6.09607 21.2887 6.3692C21.1521 6.64232 21.2115 6.87389 21.4787 6.88576L21.7874 6.24451V6.23857ZM21.5737 8.94014C21.2827 9.04701 21.253 9.44482 21.4371 9.68826C21.6152 9.9317 21.9537 9.9792 22.1377 9.68826L21.5737 8.94014Z" fill="white" stroke="black" stroke-width="0.02375"/>
<path d="M21.2355 8.09749C20.9624 8.00843 20.713 8.37655 20.6715 8.70905C20.618 9.12468 20.0184 9.26718 20.3509 9.90249C20.4221 9.49874 20.6893 9.27312 20.903 9.26124C21.1168 9.24343 21.4374 9.20187 21.574 8.94062L21.2355 8.09749ZM22.1084 9.73624C21.7877 9.81343 21.7402 10.2409 21.9718 10.5437C22.1677 10.805 22.7852 10.7456 22.7674 10.4844L22.1143 9.73624H22.1084ZM23.0168 12.3131C23.0346 12.0341 22.5893 11.9272 22.3755 11.9806C22.1618 12.04 21.7521 11.9747 21.663 11.7431C21.5799 11.9272 21.6927 12.1291 22.0015 12.23C22.239 12.3012 22.233 12.4675 22.1618 12.5506C22.3399 12.5803 22.8565 12.5803 23.0168 12.3131Z" fill="white" stroke="black" stroke-width="0.02375"/>
<path d="M22.7671 10.556C22.4524 10.4135 22.2683 10.6273 22.1496 10.8292C21.9714 11.126 21.4311 10.746 21.2471 11.1439C21.4964 11.037 21.7458 11.2626 21.8646 11.3398C22.203 11.5595 22.8502 11.4942 22.9452 10.9717L22.7671 10.556Z" fill="white" stroke="black" stroke-width="0.02375"/>
<path d="M22.9507 10.918C22.636 11.1555 22.5114 11.4405 22.5232 11.6305C22.5292 11.8205 22.7964 12.242 23.0873 12.2658C23.2535 11.9214 23.3426 11.197 22.9507 10.918ZM21.6445 12.3964C21.6445 12.2777 21.8107 12.2361 21.9295 12.2777C22.0423 12.3133 22.2204 12.4261 22.1551 12.5508L21.6445 12.3964ZM19.9226 11.7611C19.8929 11.6245 20.1126 11.387 20.4095 11.5177C20.7064 11.6483 20.7479 11.8977 20.6232 11.9986L19.9226 11.7611Z" fill="white" stroke="black" stroke-width="0.02375"/>
<path d="M20.6473 12.0209C20.6235 11.9437 20.8432 11.7894 21.2054 11.8784C21.5735 11.9734 21.6626 12.2109 21.6507 12.395L20.6473 12.0209ZM19.8814 11.7656C20.0773 11.6231 20.0001 11.35 19.8279 11.2609C19.5192 11.1066 19.632 10.7147 19.4301 10.6375C19.2342 10.5603 19.0442 10.4238 19.0323 10.2812C18.9373 10.4772 18.9967 10.6494 19.1332 10.7741C19.2698 10.8928 19.0264 11.3916 19.2045 11.5222L19.8814 11.7656ZM15.7845 11.6587C15.6242 11.4094 15.2442 11.4509 15.0839 11.6291C14.9235 11.8072 14.9473 12.0625 15.0957 12.1813L15.7845 11.6587ZM16.7048 11.2847C16.6454 10.9462 16.2357 10.9106 16.016 10.9938C15.7904 11.0769 15.642 11.4153 15.7845 11.6587L16.7048 11.2847Z" fill="white"/>
<path d="M15.7845 11.6587C15.6242 11.4094 15.2442 11.4509 15.0839 11.6291C14.9235 11.8072 14.9473 12.0625 15.0957 12.1813L15.7845 11.6587ZM15.7845 11.6587C15.642 11.4153 15.7904 11.0769 16.016 10.9938C16.2357 10.9106 16.6454 10.9462 16.7048 11.2847L15.7845 11.6587ZM20.6473 12.0209C20.6235 11.9437 20.8432 11.7894 21.2054 11.8784C21.5735 11.9734 21.6626 12.2109 21.6507 12.395L20.6473 12.0209ZM19.8814 11.7656C20.0773 11.6231 20.0001 11.35 19.8279 11.2609C19.5192 11.1066 19.632 10.7147 19.4301 10.6375C19.2342 10.5603 19.0442 10.4238 19.0323 10.2812C18.9373 10.4772 18.9967 10.6494 19.1332 10.7741C19.2698 10.8928 19.0264 11.3916 19.2045 11.5222L19.8814 11.7656Z" stroke="black" stroke-width="0.02375"/>
<path d="M17.3105 11.2387C17.4589 10.9597 17.1739 10.5381 16.8533 10.4787C16.5861 10.4194 16.2714 10.4253 16.1645 10.1641C16.1052 10.3897 16.2714 10.5381 16.4733 10.6687C16.6692 10.7994 16.4377 11.1319 16.7583 11.3219L17.3164 11.2387H17.3105Z" fill="white" stroke="black" stroke-width="0.02375"/>
<path d="M17.2863 11.2496C17.215 11.0477 17.3516 10.7746 17.6247 10.7983C17.9038 10.8161 18.0582 11.0121 17.9394 11.2674L17.2863 11.2496Z" fill="white" stroke="black" stroke-width="0.02375"/>
<path d="M17.8987 11.2681C17.8572 11.0544 18.0294 10.805 18.3025 10.8644C18.5697 10.9237 18.6944 11.1434 18.54 11.3691L17.8987 11.2622V11.2681Z" fill="white" stroke="black" stroke-width="0.02375"/>
<path d="M18.498 11.3636C18.4742 11.1499 18.6583 10.9124 18.9255 10.9836C19.1926 11.0549 19.3055 11.2805 19.1392 11.5002L18.5039 11.3636H18.498ZM13.8905 14.8667C13.3739 14.8667 13.2492 14.9855 13.178 15.5198C13.083 16.173 13.9795 16.2502 13.8905 14.8667Z" fill="white" stroke="black" stroke-width="0.02375"/>
<path d="M14.1161 14.1768C13.3324 13.88 12.9049 15.1268 12.1211 14.9012C12.4002 15.3465 13.0771 14.9012 13.3324 14.9487C13.7599 15.0259 14.6861 14.8656 14.1161 14.1768ZM13.6055 15.8809C13.2136 15.7028 12.798 16.2965 12.8693 16.5637C12.9702 16.8903 13.8608 16.6231 13.6055 15.8809ZM11.7886 18.4518C12.0024 18.5112 12.2636 18.63 12.2161 19.0456C12.1686 19.4612 11.3849 20.2984 10.6843 20.3518C9.98363 20.3934 9.73426 21.2425 9.1227 21.005C9.6927 20.8981 9.6927 20.2568 10.1321 20.055C9.81145 19.9362 9.64519 20.6665 9.22957 20.6665C8.81394 20.6665 8.61801 21.3256 8.11332 21.2781C7.60863 21.2365 7.56113 22.0796 6.54582 22.0915C5.77395 22.0975 4.82395 23 4.47363 22.6081C5.2277 22.5012 5.53051 22.0856 5.97582 21.6284C6.68832 20.8981 7.50176 21.2246 7.78082 20.5775C7.46032 20.7937 7.08083 20.9057 6.69426 20.8981C6.21926 20.8862 5.70863 21.6462 5.1802 21.3137C5.48301 21.2721 5.68488 21.1415 6.00551 20.8031C6.33207 20.4587 6.81895 20.6843 7.19895 20.3281C7.7927 19.7818 8.30926 20.239 8.87926 19.5562C8.71895 19.4731 8.37457 19.5265 8.05395 19.6987C7.73332 19.865 7.32363 19.58 6.95551 19.7818C6.99707 19.3306 7.85801 19.5859 8.39238 19.2771C8.99801 18.9209 9.49676 19.0278 9.97176 19.0693C9.30676 19.0693 9.05145 18.434 8.13113 18.6181C7.73332 18.7012 7.4127 18.0659 7.01488 18.3865C7.02676 18.149 7.44238 17.959 7.86988 18.1906C8.29738 18.4221 8.46957 17.9887 9.32457 18.529C9.68082 18.7487 10.2805 18.3865 10.6605 18.624C10.613 18.4815 10.3933 18.3865 10.138 18.4103C10.2983 18.0778 11.3374 18.1193 11.7886 18.4518Z" fill="white" stroke="black" stroke-width="0.02375"/>
<path d="M12.465 17.9529C12.1325 17.6916 11.6635 18.0063 11.3369 17.8816C11.3369 18.0954 11.4497 18.416 11.8 18.5407C11.9069 18.4635 12.3938 18.0419 12.465 17.9529Z" fill="white" stroke="black" stroke-width="0.02375"/>
<path d="M12.9941 17.2104C12.4656 16.9433 12.3766 17.6083 11.9609 17.4717C11.9787 17.6617 12.1331 17.8992 12.4656 17.9526L13 17.2104H12.9941Z" fill="white" stroke="black" stroke-width="0.02375"/>
<path d="M13.3086 16.6055C12.5308 16.3027 12.4298 17.0508 11.9727 16.9024C12.0795 17.1636 12.7327 17.3061 13.0711 17.2111L13.3086 16.6055ZM14.3773 13.328C14.1695 13.0311 13.7361 13.2686 13.6648 13.619C13.5995 13.9633 13.7658 14.4443 14.0567 14.3315L14.3773 13.3221V13.328Z" fill="white" stroke="black" stroke-width="0.02375"/>
<path d="M14.906 12.4134C14.5497 12.3243 14.1341 12.3659 14.1816 12.7103C14.0391 12.7756 14.0035 13.2268 14.3776 13.3278L14.906 12.4074V12.4134Z" fill="white" stroke="black" stroke-width="0.02375"/>
<path d="M15.1435 12.1761C14.7872 11.7605 14.4013 11.7664 14.1816 11.9386C13.7719 12.2652 13.38 12.0811 13.3682 12.4017C13.6116 12.2117 13.8313 12.4374 14.0213 12.3721C14.2232 12.3008 14.3716 12.6867 14.9238 12.5264L15.1435 12.1702V12.1761ZM14.2944 18.3452C14.3479 18.4461 14.6744 18.4877 14.8347 18.3214C15.0485 18.0958 14.8169 17.4783 14.4785 17.4308C14.14 17.3892 14.1104 18.1314 14.2944 18.3452Z" fill="white" stroke="black" stroke-width="0.02375"/>
<path d="M13.9141 18.3578C14.3891 18.5359 14.5969 18.1381 14.3416 17.8828C14.2099 18.0506 14.0671 18.2093 13.9141 18.3578Z" fill="white" stroke="black" stroke-width="0.02375"/>
<path d="M12.1091 19.0169C12.0141 19.2959 11.5391 19.3375 11.0047 20.1925C10.4704 21.0534 9.95973 20.6912 9.8291 21.2791C10.4704 20.7625 10.975 21.1009 11.361 20.5903C11.9369 19.8125 12.4179 19.9253 12.6435 19.4028C12.9641 18.6488 14.3654 18.6666 14.4485 17.485C13.9735 17.3959 12.4713 18.6666 12.1091 19.0169ZM24.1741 7.45656C24.7857 7.65844 24.7975 8.44813 25.5041 8.70938C26.2047 8.97063 26.276 9.6 26.8519 9.44562C26.3175 9.29719 26.3532 8.67969 25.795 8.52531C25.1419 8.34719 24.8925 7.34969 24.37 7.19531M26.9825 11.6069C27.0894 11.8562 27.0716 12.2897 26.6857 12.4025C26.8935 12.5331 27.2022 12.4144 27.3685 12.1294C27.1191 12.6875 27.2854 13.1922 27.6832 13.2931C27.4932 12.9012 27.9207 12.7172 27.7841 12.4619C28.0335 12.5747 28.2591 12.9191 28.2472 13.1328C28.5797 12.7647 28.0097 12.2719 28.1107 11.9275L26.9825 11.6069ZM23.0104 15.5375C22.6363 15.2109 22.476 15.6266 22.2979 15.4781C22.1197 15.3475 21.8941 15.3297 21.805 15.4603C22.1257 15.4722 21.9713 15.7216 22.5947 15.7809C21.9713 15.8225 22.0841 16.5231 21.6685 16.4875C22.1079 16.9031 22.3394 16.1134 22.7016 16.2441C22.5947 16.2737 22.8679 16.5231 22.6779 16.8616C22.9866 16.8556 23.1113 16.4281 23.1529 16.2084L23.0104 15.5375ZM14.7572 19.1119C14.6266 18.9931 14.2229 18.9397 14.0744 19.0347C13.92 19.1237 13.9735 19.1534 14.1575 19.1653C14.3416 19.1772 14.5732 19.4741 14.1813 19.4919C13.9972 19.4978 14.0625 19.9431 13.6766 19.9728C13.831 20.1628 14.2822 20.0381 14.4425 19.8303C14.4129 20.0025 14.6385 20.1569 14.5494 20.3647C14.8285 20.3944 14.6682 19.7888 15.1135 19.8184C14.9354 19.8422 15.0066 20.2578 15.3272 20.1509C15.1372 20.24 15.2382 20.4656 15.446 20.4122C15.3154 20.4538 15.2679 20.6319 15.4579 20.7328C15.6419 20.4775 15.4341 19.575 14.7632 19.1119H14.7572ZM31.4179 10.6747C31.5637 10.6856 31.7102 10.6663 31.8483 10.618C31.9863 10.5697 32.1129 10.4934 32.2201 10.3939C32.3274 10.2944 32.4129 10.1739 32.4714 10.0398C32.5299 9.90579 32.56 9.7611 32.56 9.61484C32.56 9.46858 32.5299 9.3239 32.4714 9.18984C32.4129 9.05579 32.3274 8.93524 32.2201 8.83576C32.1129 8.73628 31.9863 8.65999 31.8483 8.61168C31.7102 8.56337 31.5637 8.54408 31.4179 8.555C31.1505 8.57503 30.9005 8.69538 30.7182 8.89193C30.5358 9.08848 30.4344 9.34671 30.4344 9.61484C30.4344 9.88298 30.5358 10.1412 30.7182 10.3378C30.9005 10.5343 31.1505 10.6547 31.4179 10.6747Z" fill="white"/>
<path d="M24.1741 7.45656C24.7857 7.65844 24.7975 8.44812 25.5041 8.70937C26.2047 8.97062 26.276 9.6 26.8519 9.44562C26.3175 9.29719 26.3532 8.67969 25.795 8.52531C25.1419 8.34719 24.8925 7.34969 24.37 7.19531M12.1091 19.0169C12.0141 19.2959 11.5391 19.3375 11.0047 20.1925C10.4704 21.0534 9.95973 20.6912 9.8291 21.2791C10.4704 20.7625 10.975 21.1009 11.361 20.5903C11.9369 19.8125 12.4179 19.9253 12.6435 19.4028C12.9641 18.6488 14.3654 18.6666 14.4485 17.485C13.9735 17.3959 12.4713 18.6666 12.1091 19.0169ZM26.9825 11.6069C27.0894 11.8562 27.0716 12.2897 26.6857 12.4025C26.8935 12.5331 27.2022 12.4144 27.3685 12.1294C27.1191 12.6875 27.2854 13.1922 27.6832 13.2931C27.4932 12.9012 27.9207 12.7172 27.7841 12.4619C28.0335 12.5747 28.2591 12.9191 28.2472 13.1328C28.5797 12.7647 28.0097 12.2719 28.1107 11.9275L26.9825 11.6069ZM23.0104 15.5375C22.6363 15.2109 22.476 15.6266 22.2979 15.4781C22.1197 15.3475 21.8941 15.3297 21.805 15.4603C22.1257 15.4722 21.9713 15.7216 22.5947 15.7809C21.9713 15.8225 22.0841 16.5231 21.6685 16.4875C22.1079 16.9031 22.3394 16.1134 22.7016 16.2441C22.5947 16.2737 22.8679 16.5231 22.6779 16.8616C22.9866 16.8556 23.1113 16.4281 23.1529 16.2084L23.0104 15.5375ZM14.7572 19.1119C14.6266 18.9931 14.2229 18.9397 14.0744 19.0347C13.92 19.1237 13.9735 19.1534 14.1575 19.1653C14.3416 19.1772 14.5732 19.4741 14.1813 19.4919C13.9972 19.4978 14.0625 19.9431 13.6766 19.9728C13.831 20.1628 14.2822 20.0381 14.4425 19.8303C14.4129 20.0025 14.6385 20.1569 14.5494 20.3647C14.8285 20.3944 14.6682 19.7888 15.1135 19.8184C14.9354 19.8422 15.0066 20.2578 15.3272 20.1509C15.1372 20.24 15.2382 20.4656 15.446 20.4122C15.3154 20.4538 15.2679 20.6319 15.4579 20.7328C15.6419 20.4775 15.4341 19.575 14.7632 19.1119H14.7572ZM31.4178 10.6747C31.5637 10.6856 31.7102 10.6663 31.8483 10.618C31.9863 10.5697 32.1129 10.4934 32.2201 10.3939C32.3274 10.2944 32.4129 10.1739 32.4714 10.0398C32.5299 9.90579 32.56 9.7611 32.56 9.61484C32.56 9.46858 32.5299 9.3239 32.4714 9.18984C32.4129 9.05579 32.3274 8.93524 32.2201 8.83576C32.1129 8.73628 31.9863 8.65999 31.8483 8.61168C31.7102 8.56337 31.5637 8.54408 31.4178 8.555C31.1505 8.57503 30.9005 8.69538 30.7182 8.89193C30.5358 9.08848 30.4344 9.34671 30.4344 9.61484C30.4344 9.88298 30.5358 10.1412 30.7182 10.3378C30.9005 10.5343 31.1505 10.6547 31.4178 10.6747Z" stroke="black" stroke-width="0.02375"/>
<path d="M25.8846 11.9512C26.2111 11.6484 26.698 11.494 27.0364 11.7255C27.3689 11.9512 28.4852 12.2243 29.0374 11.8443C29.5896 11.4643 29.8508 11.2624 30.0943 11.3099C30.2724 11.583 30.498 11.7137 30.7711 11.7374C30.8543 11.8324 31.1571 11.9037 31.3233 11.8859C31.5668 11.9452 31.8636 11.868 32.1011 11.6068C32.4693 11.6662 32.8136 11.3871 32.9443 10.9715C33.3361 10.9299 33.3599 10.4965 33.1105 10.1996C32.8849 10.158 33.0571 9.38023 32.2258 9.53461C32.5821 9.74836 32.3089 10.1759 32.5999 10.3777C32.4039 10.3777 32.1427 10.4609 32.0833 10.7577C32.1605 10.5559 32.0714 10.4134 32.0239 10.3718C32.0239 10.1937 31.638 9.76023 31.2699 9.92055C31.5311 9.97992 31.3886 10.3955 31.5786 10.5618C31.5065 10.5647 31.436 10.5839 31.3722 10.6178C31.3085 10.6517 31.2532 10.6995 31.2105 10.7577C31.1096 10.5796 30.7593 10.4015 30.5455 10.3837C30.5455 10.3243 30.5336 10.2055 30.5039 10.1402C30.4089 9.95617 30.3258 9.73648 30.3674 9.45742C30.1937 9.66181 30.0498 9.88968 29.9399 10.1343C29.6489 9.93242 28.9305 10.2234 28.5921 10.3005C28.2596 10.3777 27.1255 10.1937 26.8702 9.92055C26.5068 9.63008 26.0793 9.43058 25.6233 9.33867C24.9702 9.14867 24.9702 8.43617 24.2518 7.94336C24.2339 8.83398 25.5818 11.6484 25.8846 11.9512ZM18.3914 18.714C18.6639 18.714 18.9251 18.6058 19.1178 18.4131C19.3104 18.2205 19.4186 17.9592 19.4186 17.6868C19.4186 17.4144 19.3104 17.1531 19.1178 16.9605C18.9251 16.7678 18.6639 16.6596 18.3914 16.6596C18.119 16.6596 17.8577 16.7678 17.6651 16.9605C17.4725 17.1531 17.3643 17.4144 17.3643 17.6868C17.3643 17.9592 17.4725 18.2205 17.6651 18.4131C17.8577 18.6058 18.119 18.714 18.3914 18.714Z" fill="white" stroke="black" stroke-width="0.02375"/>
<path d="M15.945 17.9236C16.1528 18.1908 16.5031 18.173 16.6516 18.1552C16.7703 18.4758 17.1622 18.464 17.3284 18.6421C17.5006 18.8202 18.0706 18.8024 18.2369 18.7015C18.0884 18.6896 17.8866 18.5946 17.7025 18.4343C17.465 18.2443 17.5719 17.8524 17.3938 17.7218C17.4498 17.6504 17.4904 17.5681 17.5129 17.4802C17.5353 17.3923 17.5393 17.3007 17.5244 17.2111C17.6669 17.128 17.7738 16.9915 17.7856 16.9202C17.9986 16.9099 18.2009 16.8235 18.3556 16.6768C18.4863 16.7955 18.8128 16.6411 18.9909 16.843C19.0266 16.3383 18.5456 16.0711 18.2191 16.2433C18.0944 16.1721 17.75 16.2196 17.6847 16.3086C17.5837 16.2611 17.2809 16.4155 17.1503 16.5165C17.2987 16.4333 17.3225 16.178 17.2631 16.089C17.3938 16.0296 17.5363 15.8574 17.5541 15.7327C17.7322 15.7624 18.0112 15.6377 18.13 15.6674C17.9341 15.4061 17.6075 15.3111 17.2691 15.3408C16.9187 15.3586 16.7703 15.6021 16.7228 15.8633C16.5209 15.988 16.4497 16.3977 16.5269 16.5461C16.4081 16.5461 16.2953 16.659 16.2538 16.7243C16.0764 16.6513 15.8873 16.611 15.6956 16.6055M15.7728 16.1899C15.7016 15.988 15.7906 15.8099 15.8381 15.6555C15.9569 15.2518 15.8856 15.1449 15.5234 15.1983C15.5448 15.5414 15.6293 15.8776 15.7728 16.1899Z" fill="white"/>
<path d="M15.945 17.9236C16.1528 18.1908 16.5031 18.173 16.6516 18.1552C16.7703 18.4758 17.1622 18.464 17.3284 18.6421C17.5006 18.8202 18.0706 18.8024 18.2369 18.7015C18.0884 18.6896 17.8866 18.5946 17.7025 18.4343C17.465 18.2443 17.5719 17.8524 17.3938 17.7218C17.4498 17.6504 17.4904 17.5681 17.5129 17.4802C17.5353 17.3923 17.5393 17.3007 17.5244 17.2111C17.6669 17.128 17.7738 16.9915 17.7856 16.9202C17.9986 16.9099 18.2009 16.8235 18.3556 16.6768C18.4863 16.7955 18.8128 16.6411 18.9909 16.843C19.0266 16.3383 18.5456 16.0711 18.2191 16.2433C18.0944 16.1721 17.75 16.2196 17.6847 16.3086C17.5837 16.2611 17.2809 16.4155 17.1503 16.5165C17.2987 16.4333 17.3225 16.178 17.2631 16.089C17.3938 16.0296 17.5363 15.8574 17.5541 15.7327C17.7322 15.7624 18.0112 15.6377 18.13 15.6674C17.9341 15.4061 17.6075 15.3111 17.2691 15.3408C16.9187 15.3586 16.7703 15.6021 16.7228 15.8633C16.5209 15.988 16.4497 16.3977 16.5269 16.5461C16.4081 16.5461 16.2953 16.659 16.2538 16.7243C16.0764 16.6513 15.8873 16.611 15.6956 16.6055M15.7728 16.1899C15.7016 15.988 15.7906 15.8099 15.8381 15.6555C15.9569 15.2518 15.8856 15.1449 15.5234 15.1983C15.5448 15.5414 15.6293 15.8776 15.7728 16.1899Z" stroke="black" stroke-width="0.02375"/>
<path d="M15.5059 15.2224C15.6009 15.3174 15.9215 15.3589 15.9571 15.068C15.9987 14.7355 15.8621 14.6049 15.5712 14.7355C15.5474 14.8127 15.5237 15.1214 15.5118 15.2224H15.5059Z" fill="white" stroke="black" stroke-width="0.02375"/>
<path d="M15.5771 14.7225C15.6959 14.77 15.9631 14.871 16.1115 14.586C16.2303 14.3485 16.07 14.1703 15.8146 14.1822C15.7553 14.2535 15.6365 14.4969 15.5771 14.7225Z" fill="white" stroke="black" stroke-width="0.02375"/>
<path d="M15.8027 14.1588C15.8324 14.2538 16.1471 14.5566 16.3727 14.337C16.6043 14.1173 16.6043 13.7848 16.2599 13.666C16.1709 13.6779 15.8918 13.9985 15.8027 14.1588Z" fill="white" stroke="black" stroke-width="0.02375"/>
<path d="M16.2598 13.6612C16.3251 13.8572 16.5448 14.1837 16.9426 14.0353C17.3404 13.8809 17.1682 13.3822 16.9841 13.2812C16.7181 13.3573 16.4713 13.4888 16.2598 13.6672V13.6612Z" fill="white" stroke="black" stroke-width="0.02375"/>
<path d="M16.9844 13.2808C16.9547 13.453 16.9844 13.9102 17.5306 13.9042C18.0709 13.8923 17.9225 13.257 17.78 13.168C17.5603 13.168 17.1863 13.1739 16.9844 13.2867V13.2808Z" fill="white" stroke="black" stroke-width="0.02375"/>
<path d="M17.8037 13.1855C17.7443 13.3221 17.6078 14.1771 18.6706 13.9396C18.8071 13.9099 19.1634 13.1202 17.8037 13.1915V13.1855Z" fill="white" stroke="black" stroke-width="0.02375"/>
<path d="M18.3856 13.2693C18.2788 13.3761 18.5519 14.2371 19.2763 14.0946C19.9888 13.9461 19.3891 13.1268 18.3856 13.2633V13.2693Z" fill="white" stroke="black" stroke-width="0.02375"/>
<path d="M18.9968 13.3984C18.878 13.6359 19.0561 14.3366 19.9408 14.3366C20.7424 14.3366 19.8993 13.4103 18.9968 13.3984Z" fill="white" stroke="black" stroke-width="0.02375"/>
<path d="M19.6914 13.6003C19.6321 13.7369 19.5668 14.479 20.6118 14.5444C21.3658 14.5919 21.1818 13.5172 19.6914 13.6003Z" fill="white" stroke="black" stroke-width="0.02375"/>
<path d="M20.8134 13.916C20.6887 14.1476 20.5521 14.7176 21.698 14.7651C22.4284 14.7948 21.9771 13.9338 20.8193 13.916H20.8134Z" fill="white" stroke="black" stroke-width="0.02375"/>
<path d="M21.7692 14.0941C21.603 14.3198 21.7277 14.771 22.1552 14.8541C22.6895 14.961 22.7667 14.4563 22.3986 14.2129C22.0305 13.9754 21.7692 14.0941 21.7692 14.0941Z" fill="white" stroke="black" stroke-width="0.02375"/>
<path d="M22.2976 14.1953C22.1729 14.415 22.2441 14.9316 23.0576 14.9316C23.2238 14.9316 23.8651 14.2784 22.2916 14.2013L22.2976 14.1953ZM16.0098 24.1703C16.3247 24.1703 16.6268 24.0452 16.8495 23.8225C17.0722 23.5998 17.1973 23.2978 17.1973 22.9828C17.1973 22.6679 17.0722 22.3658 16.8495 22.1431C16.6268 21.9204 16.3247 21.7953 16.0098 21.7953C15.6948 21.7953 15.3928 21.9204 15.1701 22.1431C14.9474 22.3658 14.8223 22.6679 14.8223 22.9828C14.8223 23.2978 14.9474 23.5998 15.1701 23.8225C15.3928 24.0452 15.6948 24.1703 16.0098 24.1703Z" fill="white" stroke="black" stroke-width="0.02375"/>
<path d="M24.7387 6.87399C24.6105 7.01685 24.5026 7.17669 24.4181 7.34899C24.0203 8.53649 25.0831 9.42712 25.7006 10.7156C25.9546 11.2954 26.0574 11.9301 25.9993 12.5605C25.9411 13.1908 25.7239 13.7961 25.3681 14.3196C25.1068 14.664 25.184 14.7649 24.8456 15.1152C24.715 15.2518 24.5725 15.424 24.62 15.9109C24.8337 15.8337 25.1365 16.0296 25.1959 16.2077C25.3503 16.1246 25.564 16.1543 25.6412 16.2493C25.9025 16.1306 26.1162 16.1899 26.3478 16.4274C26.5437 16.4037 26.7634 16.4274 26.9593 16.6471C27.0662 16.4334 27.28 16.3502 27.4343 16.4037C27.4165 16.1246 27.6896 15.9287 27.9331 16.0356C27.914 15.9572 27.9164 15.8751 27.9398 15.7979C27.9632 15.7207 28.0069 15.6513 28.0664 15.5967C28.1258 15.5421 28.1987 15.5045 28.2776 15.4877C28.3565 15.4709 28.4385 15.4756 28.515 15.5012C28.794 15.2874 29.3462 15.2696 29.6193 15.5902C29.1265 15.4537 29.1443 15.9762 28.7287 15.9287C28.8356 16.2315 28.5625 16.4096 28.2893 16.5106C28.4675 16.4274 28.6575 16.3265 28.7168 16.4334C28.8712 16.2968 29.174 16.3502 29.2512 16.4156C29.4531 16.3562 29.649 16.4037 29.7381 16.6471C30.0171 16.8134 30.2012 17.2409 29.9993 17.5615C29.94 17.229 29.7084 17.2409 29.6193 17.1043C29.4056 17.1815 29.1918 17.1815 29.1265 17.0449C29.0078 17.1637 28.5921 17.2765 28.414 17.0924C28.3428 17.3656 28.1053 17.5971 27.8262 17.5971C27.9034 17.8109 27.6896 18.1731 27.5234 18.3571C27.7846 18.4937 27.7015 18.8024 27.6421 18.9865C28.0459 19.0459 27.7015 19.4021 28.3962 19.6277C28.0578 19.7346 27.3987 19.6277 27.3096 19.2121C26.9712 19.2002 26.7456 18.8618 26.7575 18.5115C26.4962 18.2681 26.4606 17.9177 26.8168 17.6684C26.514 17.7634 26.3418 17.2706 25.9025 17.4724C25.6828 17.5734 25.1009 17.4012 25.1068 17.1993C25.0178 17.3477 24.4537 17.2884 24.3825 17.0271C24.1984 17.1281 23.7709 16.9618 23.7768 16.7065C23.5393 16.8134 23.2187 16.6234 23.2365 16.3799C23.0109 16.3502 22.9871 16.1484 22.999 15.9821C22.8031 15.8871 22.8565 15.6971 22.9396 15.4715C22.7971 15.3171 22.8565 15.1034 22.9634 14.9015C22.815 14.7471 22.8446 14.569 22.8862 14.3493C22.1559 14.2899 21.2356 14.1118 19.1278 13.4646C15.9453 12.4849 15.0903 14.7827 15.7909 16.2196C16.6043 17.8821 15.7018 18.2384 15.975 19.4734C16.2718 19.5327 16.4203 19.7821 16.4025 20.0434C16.5806 20.0493 16.6993 20.2096 16.64 20.5184C16.7206 20.5051 16.8032 20.5105 16.8815 20.5342C16.9597 20.5579 17.0314 20.5992 17.0912 20.6549C17.1981 20.4531 17.5543 20.4056 17.7325 20.6371C18.1303 20.6074 18.3321 20.934 18.3143 21.3259C18.4102 21.5055 18.4527 21.7088 18.437 21.9118C18.4212 22.1148 18.3477 22.3091 18.2253 22.4718C18.249 22.3115 18.2253 22.0859 18.2193 21.9434C18.2015 21.694 17.8512 21.6406 17.8868 21.4327C17.7087 21.4506 17.5306 21.3496 17.4712 21.2131C17.4182 21.2588 17.3542 21.29 17.2855 21.3035C17.2168 21.317 17.1457 21.3125 17.0793 21.2902C17.2812 21.3793 17.4475 21.7474 17.3821 21.9909C17.489 22.1749 17.4653 22.5134 17.3406 22.6559C17.2812 22.9527 17.0437 23.0596 16.7468 22.929C16.919 22.8221 16.9784 22.6321 16.9725 22.4718C16.8723 22.3717 16.8112 22.239 16.8003 22.0977C16.5034 22.1452 16.0878 21.8899 16.0165 21.789C15.8601 21.789 15.7052 21.8199 15.5607 21.88C15.4162 21.94 15.2851 22.028 15.1747 22.1389C15.0644 22.2498 14.977 22.3814 14.9177 22.5262C14.8584 22.6709 14.8282 22.826 14.829 22.9824C14.7934 22.739 14.4846 22.4956 14.5262 22.2877C14.3421 21.7237 14.6034 21.1952 15.3515 21.0884C15.2565 20.8746 15.5771 20.6549 15.4584 20.4115C15.2199 19.9778 14.9266 19.5767 14.5856 19.2181C14.8468 18.7727 14.7637 18.179 14.6153 17.8109C14.3956 17.2824 14.1878 17.4131 13.41 18.2681C12.1393 19.6634 10.4412 19.2774 8.94496 20.1977C8.54715 20.4352 8.14933 20.5302 8.57683 20.1027C9.00433 19.6752 10.1325 19.2477 10.8687 18.8796C12.2462 18.1909 13.41 17.0449 13.8671 14.8124C14.9418 9.56368 18.914 11.2974 21.4196 12.2712C23.7768 13.1915 23.3493 11.1134 22.1559 9.85462C20.719 8.35243 21.01 7.16493 21.6809 6.21493C22.8862 6.04868 25.2078 6.47024 24.7387 6.87399Z" fill="white" stroke="black" stroke-width="0.02375"/>
<path d="M29.0016 19.7649C29.1735 19.7649 29.3437 19.7311 29.5026 19.6653C29.6614 19.5995 29.8057 19.503 29.9273 19.3815C30.0489 19.2599 30.1453 19.1156 30.2111 18.9567C30.2769 18.7979 30.3108 18.6276 30.3108 18.4557C30.3108 18.2838 30.2769 18.1135 30.2111 17.9547C30.1453 17.7958 30.0489 17.6515 29.9273 17.5299C29.8057 17.4084 29.6614 17.3119 29.5026 17.2461C29.3437 17.1803 29.1735 17.1465 29.0016 17.1465C28.6551 17.1465 28.3229 17.2841 28.0779 17.5291C27.8329 17.774 27.6953 18.1063 27.6953 18.4527C27.6953 18.7992 27.8329 19.1314 28.0779 19.3764C28.3229 19.6214 28.6551 19.759 29.0016 19.759V19.7649Z" fill="white" stroke="black" stroke-width="0.02375"/>
<path d="M24.0076 6.93359C23.7107 8.22203 23.9601 8.80391 24.3876 9.36797C25.2723 10.5377 25.9788 13.2036 24.9695 14.9492" stroke="black" stroke-width="0.02375"/>
<path d="M25.5332 13.4413C25.652 13.3997 25.8895 13.2512 25.937 13.0019M25.6282 12.8831C25.6638 12.6634 26.0082 12.5684 26.0141 12.3309M25.6341 12.0222C25.6104 11.7906 25.9785 11.5828 25.9251 11.3572M25.4323 11.1969C25.4026 11.0663 25.741 10.8228 25.646 10.615M25.1829 10.3894C25.1116 10.2469 25.3432 10.0806 25.2423 9.92625M24.8148 9.74813C24.791 9.65313 24.9335 9.43344 24.8563 9.30281M24.4466 8.99406C24.4763 8.9525 24.601 8.86344 24.5535 8.75063M24.1973 8.43594C24.2448 8.41219 24.3932 8.36469 24.3754 8.25781" stroke="black" stroke-width="0.02375" stroke-linecap="round"/>
<path d="M16.5383 22.8575C16.2414 22.7506 15.8555 22.8991 15.7783 23.1603M16.0099 23.3978C16.0455 23.1366 16.4433 23.0238 16.5621 23.1425C16.3127 23.0059 16.188 23.4988 16.4136 23.5106M18.468 17.3475C18.2899 17.4425 18.2305 17.775 18.468 18.0303M18.7411 17.4247C18.6164 17.5316 18.6224 17.8522 18.8124 17.9294C18.6521 17.8106 18.8124 17.6147 18.9311 17.6088C19.0439 17.6028 19.1211 17.7394 18.9786 17.8759M29.488 18.1847C29.0605 18.0659 28.7161 18.5647 29.108 19.01C29.0961 18.5825 29.4049 18.2975 29.7789 18.3747M29.6008 18.6716C29.5583 18.6716 29.5175 18.6885 29.4875 18.7185C29.4574 18.7486 29.4405 18.7894 29.4405 18.8319C29.4405 18.915 29.5118 18.9981 29.6305 18.9981C29.7077 18.9981 29.773 18.9091 29.773 18.8378M31.1149 9.27844C31.1861 9.53969 31.5424 9.6525 31.8274 9.58719M31.8274 9.42094C31.6077 9.42688 31.4236 9.21906 31.4355 9.04688C31.4355 9.1775 31.7324 9.23688 31.8274 9.15375" stroke="black" stroke-width="0.02375" stroke-linecap="round" stroke-linejoin="round"/>
<path d="M16.651 18.1563C16.5916 18.0019 16.8291 17.8475 16.841 17.705C16.847 17.5566 17.1141 17.4437 17.3932 17.7169M17.2626 16.09L17.1141 16.1613M17.791 16.9212C17.7257 16.9212 17.5891 16.9213 17.5179 16.8678M17.5179 17.2122C17.4704 17.2419 17.3516 17.2834 17.2804 17.3012M14.8995 21.8316C14.8876 21.9681 15.0301 22.17 15.1013 22.2294M15.4932 21.505C15.4511 21.5714 15.4226 21.6454 15.4094 21.7229C15.3961 21.8003 15.3984 21.8797 15.416 21.9563M16.6332 21.9563C16.4966 21.8672 16.5857 21.6356 16.5738 21.4813C16.556 21.3269 16.7341 21.0834 17.0785 21.2913M15.3507 21.0834C15.4873 21.0597 15.6298 21.0656 15.7248 21.1072M17.0904 20.65C17.0426 20.7206 17.014 20.8025 17.0073 20.8875M17.7376 20.6322C17.6307 20.6322 17.5357 20.7094 17.4882 20.7866M16.2532 16.7194C16.372 16.7609 16.6926 16.9569 16.7045 17.1587M17.5535 15.7219C17.1795 15.7159 17.031 15.3359 17.316 15.3359M18.2245 16.2384C18.082 16.2978 18.1473 16.5472 18.3551 16.6719M17.3279 18.6372C17.2566 18.5422 17.3516 18.2809 17.5891 18.3581M17.886 21.4278C17.9038 21.1903 18.1948 21.0597 18.3135 21.3209M16.7995 22.0928C16.7816 21.8375 16.9182 21.7544 17.0251 21.7366C17.1438 21.7247 17.3041 21.8197 17.3813 21.9859M14.5254 22.2828C14.5373 22.1284 14.6679 21.9681 14.8045 21.9919M28.5201 15.4962C28.4191 15.5675 28.3538 15.8941 28.7279 15.9238M27.9382 16.0366C27.9382 16.0722 27.9857 16.1256 28.0154 16.1553M29.7373 16.6481C29.6423 16.5709 29.381 16.8856 29.6185 17.1053M27.3029 19.2191C27.2495 18.9994 27.4513 18.94 27.6473 18.9875M26.816 17.6694C26.9348 17.5981 27.0535 17.5091 27.196 17.4734M26.7566 18.5125C26.7566 18.3344 26.8516 18.1741 26.9348 18.1325M27.4335 16.4047C27.4246 16.597 27.4743 16.7875 27.576 16.9509M29.2504 16.4166C29.1376 16.4522 29.0426 16.4937 29.001 16.5887M29.1257 17.0459C29.1851 16.9984 29.2445 16.945 29.2682 16.9094M32.0173 10.3663C32.0173 10.58 31.7501 10.6988 31.572 10.5622M32.5991 10.3781C32.7179 10.4672 33.1276 10.3781 33.0326 10.1406M32.0945 11.6072C31.9834 11.5746 31.883 11.5132 31.8035 11.4291M32.9376 10.9719C32.801 11.0016 32.706 10.9719 32.6407 10.9422M30.7645 11.7378C30.8981 11.732 31.0293 11.6997 31.1504 11.6428M30.5507 10.3841C30.4498 10.3722 30.3726 10.39 30.3191 10.4316M32.0885 10.7581C32.0589 10.8756 31.9972 10.9825 31.9104 11.0669" stroke="black" stroke-width="0.02375" stroke-linecap="round"/>
<path d="M30.2832 11.0962C30.4732 11.0131 30.7107 11.6603 31.1738 11.4347M31.2095 10.7578C31.1451 10.8573 31.1082 10.972 31.1026 11.0903" stroke="black" stroke-width="0.02375" stroke-linecap="round" stroke-linejoin="round"/>
<path d="M22.0605 9.76539C22.1199 9.75352 22.2327 9.7357 22.2565 9.65852M14.1934 16.8845C14.4249 17.0151 14.5852 17.2348 14.4902 17.5613M24.7087 9.05883C24.7799 9.10633 25.0352 9.10633 25.1837 9.05883M25.3618 9.2132C25.3618 9.32008 25.3915 9.72383 25.1837 9.80695M25.2609 9.75945C25.4509 9.81883 25.8309 9.79508 25.9555 9.44477M25.6884 9.74164C25.7893 9.89602 25.819 10.1929 25.5221 10.3532M25.7596 9.99695C25.9852 10.0682 26.4959 10.0801 26.4424 9.6407M26.2643 9.99695C26.4246 10.2048 27.0955 10.4601 26.9887 10.0148M25.6527 10.6085C25.908 10.6738 26.2762 10.4957 26.1277 10.0385M26.858 10.2701C26.8937 10.4482 27.7487 10.6263 27.6359 10.2285M27.4755 10.4601C27.6359 10.8282 28.4849 10.7985 28.2177 10.3057M28.0812 10.6916C28.2474 10.8935 29.0015 10.7748 28.6987 10.276M28.6927 10.6798C29.1618 11.036 29.7021 10.5313 29.1084 10.1632M29.3815 10.567C29.7971 10.8935 30.3018 10.2998 29.9396 10.1335M26.1159 10.4304C26.2465 10.466 26.5196 10.4541 26.5849 10.2166M26.478 10.377C26.4662 10.7213 27.048 10.852 27.1965 10.4541M27.0005 10.6738C27.1074 10.9054 27.624 10.9945 27.7071 10.6679M27.624 10.8223C27.7071 11.0479 28.1524 11.0241 28.2771 10.7866M28.1109 10.941C28.2474 11.2379 28.8174 11.2379 28.9421 10.8045M28.8471 10.9945C29.0668 11.131 29.5418 11.0776 29.5002 10.6501M29.4112 10.9588C29.7437 11.226 30.2068 10.9648 29.9752 10.5135M29.9574 11.3091C30.1355 11.2795 30.2246 10.9291 30.0405 10.8341M25.8843 11.3685C26.2405 11.1726 26.3177 10.8341 26.0624 10.5076M26.193 11.036C26.4246 11.1726 26.858 11.0241 26.9352 10.6916M26.5077 11.0716C26.6384 11.2379 26.6621 11.4457 26.4899 11.6357M26.6087 11.2854C27.0184 11.036 27.523 11.4991 27.143 11.7841M27.0837 11.2616C27.1727 11.2379 27.333 11.0716 27.3449 10.8816M27.2618 11.4398C27.434 11.2616 28.5799 11.6179 27.8555 11.992M27.7962 10.9588C28.0218 11.042 28.1346 11.3566 27.7962 11.4635M28.093 11.7248C28.3305 11.4695 29.1024 11.6298 28.8234 11.9504M28.6393 11.6238C28.7759 11.1548 29.5952 11.4457 29.328 11.6357M28.473 11.1607C28.4968 11.2498 28.5027 11.4754 28.3543 11.6001M29.1618 11.0657C29.1784 11.1183 29.1827 11.174 29.1745 11.2285C29.1662 11.2831 29.1457 11.335 29.1143 11.3804M29.6784 11.0716C29.7259 11.1548 29.7971 11.3151 29.6309 11.4457M23.1352 7.55664C23.1412 7.99008 23.2955 8.28102 23.8834 8.00789M23.3193 8.0732C23.0224 8.46508 23.3549 8.88664 23.9309 8.46508M22.4168 8.25727C22.8146 8.68477 23.5271 8.37602 23.0699 7.72289M23.5449 8.62539C23.4737 9.04695 23.818 9.13008 24.0971 8.94008M22.0665 8.32852C22.1377 8.75008 22.5712 9.08258 22.9927 8.82727M22.583 8.91039C22.583 9.51602 23.4143 9.58133 23.6102 8.95789M23.3134 9.33789C23.5805 9.89008 24.1624 9.66445 24.3524 9.33195M22.7255 8.45914C22.8324 8.72633 23.0462 9.0232 23.539 8.80352M21.1937 8.32852C21.2649 8.5482 21.6627 8.81539 22.1199 8.50664M21.4787 8.61352C21.2293 8.96977 21.7162 9.3082 22.3099 8.77383M21.7696 9.05289C21.8646 9.55758 22.0665 9.96727 22.779 9.31414M22.4227 9.57539C22.684 9.89602 23.0818 10.092 23.4559 9.55164" stroke="black" stroke-width="0.02375"/>
<path d="M23.7409 9.66992C23.7172 10.0559 23.7884 10.2459 24.0912 10.228C24.3287 10.2162 24.5484 10.0321 24.6791 9.83023M24.0378 10.228C24.0259 10.6674 24.3703 11.0118 25.0175 10.5665M24.305 10.7446C24.1862 11.0712 24.5484 11.6055 25.2669 11.3324M22.7791 9.8718C22.7375 10.2874 23.1234 10.5724 23.7528 10.0321M23.0878 10.3349C23.1116 10.6793 23.5034 11.0949 24.0734 10.4952M23.3609 10.7743C23.3194 11.3621 23.8597 11.5284 24.3169 11.0771M22.5475 10.3349C22.6662 10.3468 22.7672 10.2399 22.8266 10.1568M22.8028 10.7624C22.9097 10.7862 23.0997 10.6912 23.1591 10.5665M23.0759 11.4571C23.1947 11.5937 23.6103 11.4987 23.6637 11.3205M23.5331 11.4512C23.7587 11.9855 24.3703 11.9677 24.6256 11.3621M24.5069 11.5759C24.6256 11.8905 24.9166 12.0865 25.3916 11.9796M24.7384 11.8965C24.4712 12.3299 24.8216 12.8465 25.4212 12.3418M24.8869 12.5496C24.8572 12.8227 25.1066 13.1374 25.4509 13.173M23.7528 11.748C23.6637 12.3655 24.1091 12.6624 24.6612 12.3299M23.1056 12.0449C23.2481 12.1577 23.5094 12.1696 23.7587 12.0805M24.0556 12.4368C23.9131 12.9593 24.4475 13.3334 24.9047 12.7515M23.3075 12.128C23.3194 12.3952 23.5747 12.6862 24.0259 12.603M25.2906 13.1374C24.9819 13.3393 24.9225 13.7074 25.35 13.9449M24.5425 13.0305C24.5544 13.3393 24.7028 13.5174 25.0472 13.5471M24.0912 12.8702C23.6281 13.2859 24.0794 13.7787 24.6256 13.363M24.4119 13.4937C24.2575 13.9746 24.8275 14.2655 25.1362 13.7787M23.4619 12.4724C23.2956 12.9474 23.5094 13.2562 23.9012 13.2265M22.8562 12.3774C22.88 12.6624 23.1234 12.7634 23.4025 12.698M23.0344 12.6743C22.8266 13.0721 23.1412 13.2859 23.5569 13.1374M24.8037 14.028C24.7444 14.2774 24.78 14.4555 25.1541 14.5446M24.8334 14.3843C24.3822 14.5862 24.3406 15.0255 24.6909 15.3046M24.4653 13.8974C24.4113 13.9447 24.3693 14.0041 24.3429 14.0708C24.3165 14.1375 24.3063 14.2095 24.3133 14.2809C24.3202 14.3523 24.3441 14.421 24.383 14.4813C24.4218 14.5416 24.4744 14.5918 24.5366 14.6277M22.4584 12.5021C22.2031 12.7574 22.4466 13.464 23.0225 13.078M23.9547 13.3927C23.5984 13.6896 23.7587 14.2121 24.3406 14.0696M23.3728 13.179C23.1887 13.6955 23.3609 13.8796 23.7766 13.8855" stroke="black" stroke-width="0.02375"/>
<path d="M22.0777 12.4793C22.0207 12.5183 21.9728 12.569 21.9369 12.628C21.9011 12.687 21.8782 12.7529 21.8698 12.8214C21.8614 12.8899 21.8676 12.9594 21.8881 13.0253C21.9086 13.0912 21.9428 13.152 21.9886 13.2037C22.1252 13.358 22.3864 13.2868 22.4636 13.0909M21.4186 12.2715C21.0683 12.7227 21.4186 13.2571 21.9173 13.1027M23.3008 13.6134C22.9445 13.738 22.6655 14.0646 22.8852 14.3555C23.0217 14.5218 23.5858 14.5455 23.7461 13.8924M22.6536 13.1918C22.4458 13.4887 22.5111 13.7737 22.8911 13.9162M22.6298 13.7499C22.4042 13.8687 22.2617 14.0171 22.3152 14.2843M22.1311 13.2809C22.048 13.6371 22.1489 13.8627 22.3686 13.9696M22.1252 13.7084C21.7808 13.6846 21.6027 13.8271 21.7214 14.1715M21.7511 13.7915C21.4127 13.6727 21.3592 13.3759 21.5077 13.079M21.4602 13.5302C21.092 13.5421 20.9258 13.7262 20.9258 13.9755" stroke="black" stroke-width="0.02375"/>
<path d="M20.9615 12.0986C20.6943 12.2114 20.6052 12.5736 20.7061 12.7695C20.8071 12.9655 21.1218 12.9833 21.3118 12.8527M20.2193 11.8136C19.9758 12.0867 20.2549 12.627 20.6943 12.4964M19.5899 11.5998C19.3643 11.9205 19.6136 12.4548 20.2015 12.3005M20.2311 13.7908C20.1718 13.4108 20.5696 13.1614 21.0624 13.6542M20.8249 12.8823C20.7549 12.9452 20.7008 13.0236 20.6667 13.1113C20.6327 13.199 20.6198 13.2934 20.629 13.387M18.9665 11.4158C18.7111 11.8433 19.0199 12.2352 19.5602 12.0808M20.3796 12.4786C20.0233 12.8348 20.1421 13.197 20.4093 13.4048M20.148 12.9002C19.6077 12.9061 19.578 13.5355 20.0174 13.7314M19.7383 12.2708C19.5127 12.4252 19.4415 12.8467 19.8274 13.013M19.7205 13.2148C19.489 13.108 19.2158 13.2386 19.2396 13.5058M19.3761 13.2208C19.1683 12.7339 18.5686 12.817 18.6221 13.3217M19.5424 12.6152C19.4177 12.6389 19.1565 12.7161 19.0555 12.912M19.0911 12.063C19.0434 12.1122 19.0086 12.1726 18.9898 12.2386C18.971 12.3046 18.9689 12.3742 18.9836 12.4413C18.9983 12.5083 19.0294 12.5706 19.074 12.6227C19.1187 12.6748 19.1756 12.7151 19.2396 12.7398M18.3608 11.2852C18.3133 11.6177 18.444 11.778 18.8596 11.7483M18.5033 11.7067C18.349 12.1045 18.5627 12.2827 18.9783 12.2589M18.5983 12.1995C18.3549 12.4905 18.5211 12.7992 18.7586 12.9298M18.4855 12.5677C18.0461 12.5083 17.9808 13.0189 18.1293 13.2505" stroke="black" stroke-width="0.02375"/>
<path d="M18.135 11.2559C17.8678 11.3746 17.7134 11.7071 17.8559 11.909C18.0044 12.1168 18.2953 12.0515 18.4497 11.9446M17.9509 12.004C17.7253 12.3424 17.9272 12.5977 18.1647 12.6927" stroke="black" stroke-width="0.02375"/>
<path d="M17.0909 11.2148C16.9128 11.3989 17.0256 11.773 17.4472 11.7848C17.7975 11.7848 17.9697 11.4642 17.8628 11.2327M17.3878 11.7848C17.2512 12.0877 17.3403 12.4202 17.8628 12.3667M18.0765 12.8417C17.7618 12.6992 17.3284 12.8417 17.5125 13.2277M17.4709 12.3014C17.3403 12.4855 17.3818 12.7467 17.5303 12.907M17.4472 12.7883C17.2334 12.8298 17.0256 12.9427 17.1503 13.2811M17.1206 13.008C16.8475 12.9248 16.4972 13.1267 16.705 13.4058M16.6634 13.1386C16.4259 13.097 16.1468 13.3523 16.3725 13.6017M16.2834 13.3939C16.0697 13.4533 15.8143 13.6908 16.04 13.8867M17.364 12.1945C17.0553 12.3311 17.0256 12.6755 17.1681 12.9308M17.0375 11.5652C16.5803 11.7433 16.5862 12.3489 17.0968 12.5389M16.8772 12.4023C16.604 12.5627 16.5506 12.8714 16.7347 13.0673M16.3962 11.3336C16.2181 11.393 16.23 11.957 16.7168 11.9452M15.8915 11.5236C15.5234 11.767 15.9687 12.3845 16.5625 11.9392M16.2359 12.0995C16.1825 12.3489 16.2537 12.622 16.6575 12.6577M16.2597 12.432C15.9687 12.5389 15.9153 13.1386 16.4378 13.1861M15.3334 11.8917C14.9593 12.2361 15.6422 12.533 15.8915 12.0342M14.8168 12.4617C14.6328 12.6873 15.274 13.2692 15.559 12.2955M15.6243 12.2777C15.6422 12.5152 15.7787 12.6458 16.0578 12.6636M16.0578 12.8833C15.6006 12.9545 15.4581 13.5186 15.9628 13.6433M15.2206 12.812C15.2028 13.0198 15.4284 13.198 15.6778 13.1623M15.9093 13.6255C15.4937 13.7205 15.4403 14.2548 15.8084 14.2192M15.6184 14.718C15.274 14.617 15.2622 14.2073 15.5709 14.053" stroke="black" stroke-width="0.02375"/>
<path d="M15.3328 14.3619C15.0418 14.54 15.1546 14.9556 15.309 15.015C15.4634 15.0744 15.5881 15.0031 15.6059 14.8725M15.5762 15.4662C15.6118 15.6622 14.8696 15.585 15.2496 14.9675M15.2496 15.4959C15.0003 15.8878 15.404 16.2084 15.6593 15.87M15.2793 15.965C15.1784 16.2797 15.5584 16.5053 15.8018 16.2619M14.46 13.0319C14.3234 13.3109 15.0121 13.4178 15.0537 12.8359M14.27 13.4475C14.1334 13.9997 15.1725 13.8869 14.9053 13.1744M14.929 13.5425C14.9981 13.5748 15.0738 13.5905 15.15 13.5882C15.2262 13.586 15.3009 13.5658 15.3679 13.5294C15.4349 13.493 15.4924 13.4414 15.5358 13.3787C15.5792 13.316 15.6073 13.244 15.6178 13.1684M15.3031 13.5603C15.3219 13.6383 15.3564 13.7116 15.4043 13.7759C15.4523 13.8402 15.5128 13.8941 15.5821 13.9344M14.8043 13.7028C14.7568 13.9997 15.0596 14.2491 15.3981 14.2253M14.8578 13.9937C14.6915 14.2253 14.6381 14.6647 15.1665 14.6944M14.0443 14.0769C13.9612 14.3144 14.46 14.5578 14.745 14.1659M13.89 14.6825C13.8484 14.8606 14.2937 15.0981 14.5431 14.3381M14.3471 14.7241C14.454 14.9141 14.8162 15.0684 15.0359 14.6944M14.6796 14.9259C14.5846 15.1931 14.84 15.4425 15.1428 15.3712M14.1037 14.8666C14.0443 15.2466 14.4896 15.4662 14.7568 15.2703M13.8128 15.0328C13.6821 15.5197 14.3115 15.7038 14.549 15.3356M14.3887 15.4841C14.4125 15.7572 14.84 15.9947 15.1725 15.7691M13.6228 15.7097C13.5931 15.8344 14.1037 15.9591 14.1809 15.5316M13.9196 15.8225C14.0384 16.1312 14.454 16.2084 14.6915 15.8225M14.555 15.9769C14.6143 16.2737 14.9825 16.4341 15.315 16.2322M15.4515 16.3509C15.3684 16.7369 15.7721 17.0516 16.0215 16.8378M14.7984 16.2797C14.6796 16.7072 15.214 16.9506 15.5109 16.7131M14.1571 16.06C14.1275 16.4637 14.4421 16.7013 14.7984 16.5231M13.4743 16.1075C13.3675 16.3628 13.9375 16.5766 14.2046 16.3569M13.124 16.8141C13.2725 16.9803 13.7771 16.8141 13.8187 16.44M13.6821 16.7131C13.8662 16.9269 14.3056 17.0456 14.4778 16.5825M14.3234 16.82C14.3234 17.1525 14.9053 17.39 15.0953 16.7844M15.79 16.9031C15.7306 17.0634 15.8612 17.3187 16.1284 17.3484M15.3031 16.8022C15.2675 16.9803 15.5346 17.2416 15.8196 17.1406M15.8731 17.2178C15.7959 17.4137 15.8612 17.6987 16.1284 17.6928M15.8968 17.5859C15.695 17.7522 15.7781 18.055 16.069 18.0609M15.7959 17.8709C15.5109 18.0609 15.6118 18.4825 15.9859 18.4587M14.935 17.0456C14.935 17.4612 15.4515 17.5206 15.5465 17.1406M15.3506 17.3781C15.2734 17.6275 15.4693 17.865 15.784 17.7937M15.41 20.335C15.4812 20.4359 15.7662 20.2637 15.689 20.0975C15.6118 19.9312 15.309 20.0203 15.3446 20.1984M15.6178 20.0263C15.6534 19.6938 15.2615 19.6403 15.1606 19.9312M15.3031 19.7591C15.404 19.5928 15.0656 19.3613 14.929 19.6106M15.0478 19.5097C15.1428 19.2662 14.7628 19.1534 14.7331 19.3791M14.644 19.0584C14.6915 18.9397 15.119 19.0109 14.9409 19.2662M15.2675 19.5691C15.4337 19.4147 15.1487 19.1059 14.9706 19.2128M16.3956 20.0381C16.265 20.05 16.1284 20.1391 16.2234 20.4241C16.2946 20.62 16.5856 20.6259 16.6331 20.5131" stroke="black" stroke-width="0.02375"/>
<path d="M16.2114 20.1862C16.0808 20.0972 15.7958 20.2456 15.9264 20.5187M15.9264 20.5187C16.0214 20.7266 16.2708 20.6375 16.3064 20.5306M15.9264 20.5187C15.867 20.6375 15.5464 20.6969 15.4752 20.5781M15.7008 20.1981C15.772 20.1506 15.8967 20.21 15.9205 20.2694M15.683 18.31C15.4574 18.4584 15.5939 18.9037 15.9383 18.785M15.6058 18.6722C15.4277 18.8087 15.5939 19.2422 15.9205 19.0759M15.6652 19.0759C15.5405 19.2006 15.6592 19.5391 15.9739 19.4737M15.6177 19.2481C15.5464 19.2184 15.3683 19.2362 15.2911 19.355M15.4158 17.6925C15.2495 17.8587 15.3327 18.1853 15.6414 18.215M15.3564 18.0369C15.1189 18.1556 15.1189 18.6306 15.5939 18.6484M15.3386 18.5713C15.202 18.6781 15.2674 19.0938 15.6117 19.0403M15.4455 19.0225C15.398 19.0759 15.3861 19.2006 15.4336 19.2541M15.297 18.8681C15.1783 18.8681 15.012 18.9572 14.9705 19.0878M14.7508 18.6425C14.7924 18.5237 15.1724 18.5237 15.202 18.8859M15.2377 18.4584C15.1842 18.4703 15.0833 18.5178 15.0595 18.6247M15.0714 17.3362C14.9111 17.4906 14.8339 17.9597 15.3267 18.0487M14.7389 18.31C14.7389 18.1853 15.0833 18.0725 15.202 18.2625M14.5192 17.6272C14.5667 17.7222 14.8042 17.8528 14.9467 17.7459M13.2842 16.8791C13.2819 16.934 13.2917 16.9888 13.313 17.0395C13.3343 17.0902 13.3665 17.1356 13.4073 17.1725C13.4481 17.2093 13.4966 17.2367 13.5492 17.2527C13.6018 17.2687 13.6573 17.2729 13.7117 17.265C13.967 17.2353 14.0205 17.0156 13.9433 16.8672M13.7533 17.2769C13.5811 17.4787 13.7889 17.7697 13.9789 17.6866M13.9433 17.1284C14.0442 17.0928 14.3708 17.0453 14.4717 17.1997M12.8805 17.1878C12.8033 17.3066 13.2783 17.4194 13.4386 17.1997M13.2783 17.3125C13.2605 17.4669 13.3377 17.7281 13.7295 17.6153" stroke="black" stroke-width="0.02375"/>
<path d="M13.7948 17.8524C13.8542 17.7218 13.5692 17.508 13.3436 17.7455C13.1239 17.983 13.3792 18.2502 13.5158 18.1612M12.7795 17.3418C12.6608 17.5437 13.1061 17.9059 13.3614 17.5674" stroke="black" stroke-width="0.02375"/>
<path d="M12.4832 17.686C12.3229 17.8523 12.5248 18.1551 12.7623 18.0601C13.0057 17.971 12.982 17.7157 12.9226 17.6504" stroke="black" stroke-width="0.02375"/>
<path d="M12.1742 17.9952C12.0436 18.1139 12.1742 18.387 12.3523 18.387C12.5305 18.387 12.6433 18.2505 12.6077 18.0664M12.9045 17.9714C12.8808 18.1495 13.142 18.2683 13.3142 18.102M13.3142 17.7814C13.3439 17.7458 13.3261 17.6805 13.2845 17.6448M11.8952 18.2267C11.7467 18.3455 12.0733 18.678 12.2692 18.3752M13.047 18.1673C12.952 18.2564 13.1064 18.4939 13.2608 18.4227M12.5245 18.3336C12.5483 18.4939 12.8689 18.6186 13.0708 18.3692M12.6967 18.4939C12.6492 18.6008 12.7502 18.7611 12.8748 18.7433M15.7427 19.4439C15.6239 19.6755 16.0039 19.9486 16.277 19.6636M16.0158 19.7883C15.9564 19.913 16.0277 20.0911 16.1345 20.1564M15.6595 20.0555C15.6833 19.9367 15.8495 19.8298 15.998 19.8833M15.4636 19.7527C15.4814 19.6458 15.618 19.5448 15.7248 19.5745M24.6192 15.6855C24.1502 15.8577 23.9186 14.9848 24.4648 14.9789C24.1383 15.0502 23.883 14.9136 23.8592 14.7355M24.2867 15.6261C24.1798 15.7983 24.3877 16.0773 24.6192 15.9111M24.5598 15.9467C24.3936 16.2139 24.9695 16.6236 25.2011 16.202M25.017 16.3623C25.017 16.6177 25.7592 16.778 25.6523 16.2733M25.5811 16.5464C25.7592 16.8433 26.4123 16.873 26.347 16.4277M26.1986 16.7364C26.3352 16.9383 26.9823 17.057 26.9586 16.6473M23.592 14.2248C23.6811 14.4623 23.9958 14.5455 24.3402 14.403M23.3902 14.3911C23.6098 14.5277 23.2952 15.157 22.9686 14.9017M23.3961 14.783C23.6336 14.8958 23.9245 14.8127 24.0077 14.4742M23.2714 14.9195C23.5802 15.1808 23.1348 15.7152 22.933 15.4717M23.3842 15.1155C23.5327 15.2223 23.9067 15.163 23.9423 14.878M23.7761 15.1155C23.8058 15.2995 23.9542 15.3708 24.1561 15.3767M23.3011 15.3708C23.4555 15.5845 23.8355 15.6439 24.0077 15.3648M23.8355 15.5252C23.8236 15.727 24.0492 15.8992 24.2867 15.8517M23.0102 15.9764C23.2061 16.0773 23.4258 15.6973 23.2536 15.442M23.2417 16.3742C23.4792 16.3861 23.5089 16.0298 23.2833 15.828M23.782 16.7008C23.9839 16.6533 23.9186 16.2198 23.4377 16.1842M24.3877 17.0214C24.5777 16.968 24.4233 16.487 23.8948 16.5167M25.112 17.1936C25.2427 16.9917 24.8152 16.6592 24.4589 16.8373M25.4683 17.4667C25.7058 17.538 25.872 16.9086 25.118 17.0095M25.9077 17.4667C26.1155 17.4073 26.2639 17.0392 25.6583 17.158M26.3708 17.4964C26.5489 17.5914 26.632 17.0511 26.0739 17.1995M23.2833 15.8339C23.5148 15.9586 23.877 15.8102 23.8414 15.5192M23.7523 15.7686C23.8295 15.9052 23.7998 16.1723 23.6514 16.2436M23.7702 16.0892C23.9245 16.1486 24.1323 16.0952 24.257 15.8517M24.0433 16.0892C24.0848 16.1961 24.1027 16.4098 24.0017 16.5167M24.0789 16.2733C24.2511 16.3683 24.447 16.2436 24.5302 16.0655M24.4233 16.2198C24.542 16.297 24.6548 16.6533 24.447 16.8017M24.5658 16.6355C24.7083 16.6355 24.922 16.6355 25.0586 16.4573M24.9577 16.5583C25.0883 16.5939 25.2427 16.8077 25.1892 16.9977M25.1952 16.9323C25.3436 16.9145 25.593 16.8136 25.6642 16.6355M25.593 16.7542C25.6588 16.793 25.7119 16.8502 25.7457 16.9188C25.7794 16.9874 25.7924 17.0643 25.783 17.1402M25.783 17.0155C25.9314 17.0095 26.062 16.9323 26.0977 16.772M26.062 16.8789C26.1689 16.9145 26.2995 17.0392 26.3055 17.1817M26.2877 17.0927C26.3945 17.0748 26.4717 17.0095 26.543 16.9027M26.8339 16.8848C26.9705 17.0214 26.7864 17.4786 26.5014 17.3955M23.8948 7.61641C23.6158 7.78859 22.8083 7.73516 23.2061 7.07016M23.978 7.16516C23.4139 7.39078 22.7311 6.95734 23.4436 6.49422M23.2536 6.33984C22.7905 6.33984 22.4758 7.08797 23.0992 7.34922M21.4427 6.65453C21.3239 6.89203 21.7573 7.15328 22.0542 6.91578C22.2858 6.73172 22.268 6.23297 22.1314 6.04297M21.2052 7.21859C21.0508 7.72328 22.1789 7.75297 22.0008 6.95141M21.1458 7.97266C21.1814 8.35266 22.2205 8.22797 21.888 7.45609M22.0067 7.24234C22.0898 7.36109 22.3214 7.55703 22.7133 7.51547M22.1789 6.71391C22.2145 6.85047 22.4461 6.95141 22.743 6.85047M11.7527 18.3395C11.4855 18.5236 11.8952 18.8205 12.0436 18.4939M11.5448 18.482C11.2836 18.672 11.6873 18.9689 11.8358 18.6423M11.3252 18.6245C11.0639 18.8145 11.4677 19.1055 11.622 18.7848M11.0995 18.7552C10.8442 18.8917 11.1411 19.2183 11.3964 18.9333M10.8502 18.8798C10.5948 19.0164 10.8917 19.343 11.147 19.058M12.1327 18.488C12.1267 18.6839 12.4948 18.7611 12.6314 18.4702M12.3642 18.6661C12.2455 18.8145 12.4592 18.9927 12.572 18.9273M11.8714 18.6423C11.8595 18.8086 12.1802 18.9036 12.3345 18.7195M12.0436 18.8145C11.9427 18.9452 12.1445 19.1292 12.2811 19.0758M11.6577 18.7908C11.6695 18.9214 11.8536 19.0698 12.0495 18.9867M11.7764 18.9689C11.6992 19.0342 11.7348 19.1945 11.8417 19.248M11.3786 18.9511C11.3489 19.0698 11.5508 19.2836 11.7586 19.147M11.4202 19.0877C11.3014 19.1886 11.3133 19.3311 11.4677 19.3548M11.1233 19.0758C11.1114 19.1589 11.2123 19.2895 11.343 19.2717M10.4702 19.0698C10.3514 19.1352 10.6602 19.4677 10.8561 19.1589M10.1673 19.2064C10.013 19.2777 10.393 19.6458 10.5652 19.2717M11.1589 19.1945C11.0402 19.2183 10.963 19.3905 11.0639 19.4617M10.767 19.2539C10.7552 19.3252 10.9036 19.432 11.0223 19.3964M10.672 19.2836C10.5533 19.3548 10.6186 19.5567 10.7552 19.527M10.2623 19.4202C10.1555 19.4973 10.2327 19.6577 10.3811 19.622M10.4583 19.4083C10.4583 19.4498 10.5592 19.5152 10.6364 19.4855M9.89422 19.337C9.75766 19.3964 9.76954 19.7289 10.2208 19.5508M9.59141 19.4736C9.40141 19.5627 9.46672 19.818 9.87641 19.5745M9.9061 19.5923C9.8586 19.6339 9.80516 19.8002 9.99516 19.7348M9.56766 19.6755C9.49047 19.7408 9.53797 19.8833 9.70422 19.8298M9.16985 19.6992C9.03329 19.7764 9.3361 19.8833 9.53797 19.6695M9.26485 19.7942C9.20547 19.8536 9.20547 20.0377 9.35985 19.9723M8.87297 19.8714C8.78391 19.9367 8.93235 20.0317 9.22922 19.9011M8.99172 19.9664C8.87891 20.0555 8.89079 20.1683 9.0511 20.1327M8.6711 20.0139C8.55235 20.1267 8.72454 20.198 8.93235 20.1089M8.6711 20.1386C8.46922 20.2277 8.55829 20.3998 8.68297 20.3345M15.4398 20.7205C15.3923 20.8214 15.5467 20.9045 15.6952 20.8808C15.8317 20.863 15.9683 20.7442 15.8614 20.5839M15.8673 20.7858C16.0098 20.8927 16.2533 20.768 16.2533 20.6077" stroke="black" stroke-width="0.02375"/>
<path d="M24.3049 4.57706C23.6934 4.28018 22.4227 3.71018 22.0605 4.16737C22.393 4.03081 23.3549 4.17331 24.1505 4.90956L24.3049 4.583V4.57706Z" fill="white" stroke="black" stroke-width="0.02375"/>
<path d="M24.6735 4.54648C23.9669 3.72116 23.5454 3.90523 23.0407 3.62616C22.5657 3.35898 21.8057 3.30554 21.6572 3.7271C22.3519 3.38866 22.9932 3.90523 23.391 3.97648C23.9254 4.0596 24.2341 4.48116 24.3944 4.67116L24.6735 4.55241V4.54648ZM27.3394 4.4396C26.9713 3.60241 26.1875 3.8221 25.8432 3.46585C25.3385 2.94335 24.0619 2.45648 23.5275 2.81866C24.6913 2.75929 25.19 3.62023 25.8075 3.92304C26.2529 4.13679 26.7279 4.59398 27.3394 4.4396Z" fill="white" stroke="black" stroke-width="0.02375"/>
<path d="M25.9613 4.35131C25.3379 3.5735 24.3701 2.88475 23.9307 3.14006C24.5126 3.17568 24.6966 3.57943 25.1063 3.84068C25.522 4.096 25.3379 4.476 25.9613 4.35131ZM22.9807 5.72881C22.3276 5.48537 21.0391 5.36068 20.4395 6.10881C21.437 6.281 22.9332 6.186 22.9807 5.72881Z" fill="white" stroke="black" stroke-width="0.02375"/>
<path d="M22.8562 6.02013C22.203 5.71138 21.6865 6.13888 21.069 6.07951C19.8934 5.96076 19.0502 6.03201 18.9434 6.60201C19.6143 5.99638 20.7484 6.49513 21.2055 6.37044C21.6627 6.25169 23.3609 6.35263 23.8952 6.58419C23.6221 6.24576 23.1946 6.15669 22.8562 6.02013ZM24.9224 4.26857C24.768 3.76388 24.7799 3.22951 25.534 3.26513C25.344 3.02763 24.6434 2.90888 24.5246 3.79357C23.6934 3.18201 22.779 3.07513 22.6127 3.60357C23.0402 3.23544 23.7052 3.50263 24.5009 4.40513C24.6333 4.33772 24.7756 4.29164 24.9224 4.26857Z" fill="white" stroke="black" stroke-width="0.02375"/>
<path d="M23.7767 4.96277C23.3017 4.65402 22.6604 4.16121 23.7826 3.95934C23.3076 3.70402 22.5951 3.81684 22.6723 4.70152C21.3898 4.18496 20.4695 4.35715 20.2736 4.87371C20.0598 5.43777 20.8554 5.75246 20.992 5.39027C20.8495 5.44965 20.3507 5.2834 20.612 4.96277C20.8732 4.64215 22.2032 4.88559 23.4679 5.54465C23.8242 5.72277 25.0295 5.69902 23.7767 4.96277Z" fill="white" stroke="black" stroke-width="0.02375"/>
<path d="M23.4384 5.80602C23.0762 5.05789 21.8887 5.73477 21.6512 5.01039C21.3187 6.0732 23.3374 5.48539 23.4384 5.80602ZM30.9849 6.61352C31.2343 6.7382 31.4481 6.54227 31.0681 6.39383C31.3174 6.51258 31.5371 6.32852 31.1571 6.17414C31.4065 6.29289 31.6203 6.10883 31.2403 5.95445C31.1393 6.05539 30.9968 6.42945 30.9849 6.61352ZM31.1156 5.17664C31.6678 4.59477 31.074 4.39883 31.7449 3.79914C32.2971 3.31227 31.8518 2.9857 32.3684 2.61164C32.5406 2.48695 32.9028 2.24352 32.9384 1.99414C33.1581 2.54633 32.2496 2.62352 32.309 3.5082C32.3506 4.07227 31.9646 4.02477 31.8221 4.9807C31.7925 5.17664 31.6499 5.62195 31.1156 5.17664Z" fill="white" stroke="black" stroke-width="0.02375"/>
<path d="M31.3584 5.43844C31.6671 4.78531 32.0175 4.79125 32.1896 4.53594C32.5103 4.04312 33.1871 4.61906 33.7631 4.17969C33.6621 4.80312 32.8903 4.58344 32.5518 4.98125C32.2193 5.37906 31.9403 5.55719 31.3643 5.43844H31.3584Z" fill="white" stroke="black" stroke-width="0.02375"/>
<path d="M31.4419 5.6516C31.9762 5.2241 32.3681 5.5091 32.7362 5.28347C33.6684 4.71941 34.0425 5.40222 34.8737 5.1291C34.66 5.66347 33.425 5.20628 32.8906 5.6041C32.3562 6.00191 30.474 6.38785 31.4359 5.6516H31.4419ZM29.8803 8.70347C29.8684 8.46003 29.6428 8.14535 29.3222 8.10972C29.0015 8.06816 28.859 7.72972 28.6156 7.71785C28.3722 7.70003 28.2119 7.21316 27.8734 7.2191C27.5409 7.22503 27.3984 7.66441 28.1881 8.06222C28.9778 8.46003 29.8506 8.91722 29.8803 8.70347ZM28.8828 8.91128C28.5503 8.92316 28.5028 9.41597 28.1822 9.42785C28.6215 9.66535 28.9481 9.32097 29.1737 9.01222L28.8887 8.91128H28.8828Z" fill="white" stroke="black" stroke-width="0.02375"/>
<path d="M29.1619 8.9707C28.8651 9.21414 28.7819 9.72477 29.2035 9.8732C28.9541 9.52289 29.6488 9.36852 29.4351 9.04195L29.1619 8.9707Z" fill="white" stroke="black" stroke-width="0.02375"/>
<path d="M29.4468 8.98891C29.2211 9.42828 29.809 9.48172 29.6546 9.82016C29.993 9.74297 30.0465 9.10766 29.7377 8.94141L29.4468 8.98297V8.98891Z" fill="white" stroke="black" stroke-width="0.02375"/>
<path d="M27.2021 8.03755C27.7543 8.00787 28.2531 8.30474 28.5915 8.78568C28.8053 9.08849 29.5237 9.21318 29.7731 8.9638C30.0106 8.7263 29.88 8.2038 29.2684 8.37005C29.114 8.11474 28.6746 8.2038 28.455 7.99005C28.2412 7.7763 27.4159 7.16474 27.2021 8.03755Z" fill="white" stroke="black" stroke-width="0.02375"/>
<path d="M29.2686 8.37719C29.1202 8.40688 29.0727 8.65625 29.1677 8.78687L29.2686 8.37719ZM29.5833 8.52563C29.6249 8.60281 29.5952 8.70969 29.5714 8.76313L29.5833 8.52563ZM28.0752 8.0625C28.3543 8.07437 28.4077 8.28219 28.7164 8.35938L28.0752 8.0625Z" fill="white"/>
<path d="M29.2686 8.37719C29.1202 8.40688 29.0727 8.65625 29.1677 8.78687M29.5833 8.52563C29.6249 8.60281 29.5952 8.70969 29.5714 8.76313M28.0752 8.0625C28.3543 8.07438 28.4077 8.28219 28.7164 8.35937" stroke="black" stroke-width="0.02375" stroke-linecap="round"/>
<path d="M27.8847 7.36805C28.6561 7.51879 29.4059 7.76408 30.1172 8.09836C30.5982 8.37149 31.3463 8.45461 31.9935 8.26461C32.6466 8.08649 33.9054 7.9143 33.8401 8.72774C34.1844 8.31805 33.751 7.88461 32.8782 7.80742C32.896 7.40961 32.4685 7.05336 32.1657 7.29086C32.4447 7.2493 32.6882 7.77774 32.1301 7.99149C32.1551 7.89947 32.1533 7.80219 32.1248 7.71119C32.0962 7.62018 32.0422 7.53926 31.9691 7.47802C31.896 7.41678 31.8069 7.37778 31.7123 7.36566C31.6177 7.35354 31.5216 7.36879 31.4354 7.40961C31.6966 7.4868 31.9697 7.93211 31.376 8.09836C31.0019 8.20524 30.4616 8.06868 30.0579 7.82524C29.6541 7.5818 27.386 6.69711 27.8847 7.36211V7.36805Z" fill="white" stroke="black" stroke-width="0.02375"/>
<path d="M30.3494 6.96975C30.0466 7.10631 30.2425 7.42694 29.7734 7.611C29.2984 7.78913 28.9659 8.21069 29.0728 8.57288C29.3934 7.86631 29.9634 7.90194 30.1594 7.62288C30.3612 7.34975 30.6522 6.946 30.3494 6.96975Z" fill="white" stroke="black" stroke-width="0.02375"/>
<path d="M30.4326 7.01119C30.4207 7.56931 29.9813 7.36744 30.1535 8.15119C30.207 8.39463 30.3079 8.79244 30.1357 9.19025C30.6285 8.834 30.3138 8.07994 30.5335 7.79494C30.6404 7.65244 30.7829 7.43869 30.8304 7.26056C30.7176 7.57525 30.7295 8.17494 31.0382 8.32931C30.7888 7.73556 31.721 7.24275 31.0798 6.54806C30.9848 6.72619 30.6938 7.02306 30.4385 7.01119H30.4326ZM28.877 6.45306C28.9541 6.57181 29.0313 6.85681 28.9601 7.02306C29.1145 6.92806 29.3341 6.69056 29.4054 6.53025C29.7201 6.57775 29.8388 6.96369 29.542 7.13588C29.7201 7.13588 30.0407 7.13588 30.2129 6.92806C29.9991 6.69056 29.3341 6.32244 28.877 6.45306Z" fill="white" stroke="black" stroke-width="0.02375"/>
<path d="M24.1205 5.355C24.0376 5.29098 23.9393 5.25001 23.8355 5.23625C23.3723 5.14125 23.6158 4.72563 24.0077 4.73157C24.8508 3.81125 25.3198 4.51782 26.347 4.23282C26.7033 4.12594 26.9527 4.15563 27.1427 4.24469C27.6058 3.93594 28.1402 4.01907 28.532 4.38125C28.5715 4.31315 28.635 4.2623 28.7102 4.23875C29.0723 4.13782 29.3633 4.44063 29.4642 4.83844C29.7433 4.79094 30.0639 4.9275 30.2777 5.1175C30.5686 4.96907 30.7645 4.96313 30.8417 5.1175C31.103 4.99875 31.4355 4.91563 31.6077 5.33125C31.7798 5.74688 31.2098 5.62219 31.1148 6.495C31.0555 7.02938 30.4617 7.24313 29.9867 6.9225C29.2267 6.40594 28.4845 6.32875 28.1164 7.10063C27.7542 7.88438 27.4633 8.33563 26.5727 8.08032C26.3877 8.03834 26.1945 8.05266 26.0178 8.12144C25.8411 8.19022 25.689 8.31031 25.5811 8.46625C25.3198 8.8225 24.928 8.49 24.453 8.52563C25.0467 8.43657 24.8152 8.28813 25.3377 8.2525C25.8127 8.22282 25.688 7.7775 25.9908 7.71813C24.8033 8.02094 24.8448 7.57563 23.8652 7.88438C24.2927 7.33219 24.9695 7.64094 25.302 7.32032C24.4173 7.3025 24.0195 6.72657 23.6217 6.96407C22.9983 7.35 23.2655 8.43657 21.6327 8.34157C20.837 8.3 20.3323 8.40094 19.8633 8.87594C20.6886 7.16594 21.8108 8.10407 22.357 7.56375C22.6405 7.30876 22.8863 7.0149 23.0873 6.69094C23.1108 6.64395 23.1442 6.60261 23.1852 6.5698C23.2262 6.53699 23.2738 6.5135 23.3248 6.50094C21.9652 6.07344 22.7905 5.4025 24.1205 5.355Z" fill="white" stroke="black" stroke-width="0.02375"/>
<path d="M30.8426 5.11133C30.8604 5.15883 30.8722 5.2182 30.8722 5.28945C30.8722 5.62195 30.3676 5.63383 30.3379 6.13258C30.3201 6.39383 30.2904 6.53633 30.1182 6.50664C29.9401 6.47695 29.7857 6.20383 29.9519 5.8832" fill="white"/>
<path d="M30.8426 5.11133C30.8604 5.15883 30.8722 5.2182 30.8722 5.28945C30.8722 5.62195 30.3676 5.63383 30.3379 6.13258C30.3201 6.39383 30.2904 6.53633 30.1182 6.50664C29.9401 6.47695 29.7857 6.20383 29.9519 5.8832" stroke="black" stroke-width="0.02375" stroke-linecap="round"/>
<path d="M24.3759 4.85578C24.2689 4.77748 24.1404 4.73396 24.0078 4.73109L24.3759 4.85578ZM27.1428 4.23828C27.5466 4.41641 27.7425 4.83203 28.3303 4.85578C28.9003 4.87359 29.2506 5.69891 30.2006 5.15859C30.2242 5.1463 30.2479 5.13442 30.2719 5.12297M28.5322 4.38078C28.4506 4.52914 28.4213 4.70063 28.4491 4.86766L28.5322 4.38078ZM26.6797 6.11453C25.9672 6.11453 25.7772 6.47672 25.7772 6.82703C25.7772 7.18328 26.1156 7.64047 26.7094 7.64047C27.3031 7.64047 27.6297 7.27234 27.6297 6.87453C27.6297 6.47672 27.2616 6.10859 26.6797 6.10859V6.11453Z" fill="white"/>
<path d="M24.3759 4.85578C24.2689 4.77748 24.1404 4.73396 24.0078 4.73109M27.1428 4.23828C27.5466 4.41641 27.7425 4.83203 28.3303 4.85578C28.9003 4.87359 29.2506 5.69891 30.2006 5.15859C30.2242 5.1463 30.2479 5.13442 30.2719 5.12297M28.5322 4.38078C28.4506 4.52914 28.4213 4.70063 28.4491 4.86766M26.6797 6.11453C25.9672 6.11453 25.7772 6.47672 25.7772 6.82703C25.7772 7.18328 26.1156 7.64047 26.7094 7.64047C27.3031 7.64047 27.6297 7.27234 27.6297 6.87453C27.6297 6.47672 27.2616 6.10859 26.6797 6.10859V6.11453Z" stroke="black" stroke-width="0.02375"/>
<path d="M26.811 7.62321C26.7991 7.42727 26.4369 7.45696 26.4547 7.30258C26.4666 7.14821 26.6507 7.08883 26.6507 6.87508C26.6507 6.66133 26.9713 6.64352 27.0782 6.81571C27.1851 6.98196 27.5057 7.30852 27.5769 7.14227M27.0782 6.81571C26.9801 6.92018 26.9235 7.05688 26.9192 7.20012C26.9148 7.34336 26.9629 7.48326 27.0544 7.59352M27.3097 7.07102C27.2504 7.18977 27.2385 7.36789 27.3038 7.47477L27.3097 7.07102Z" fill="white"/>
<path d="M26.811 7.62321C26.7991 7.42727 26.4369 7.45696 26.4547 7.30258C26.4666 7.14821 26.6507 7.08883 26.6507 6.87508C26.6507 6.66133 26.9713 6.64352 27.0782 6.81571M27.0782 6.81571C27.185 6.98196 27.5057 7.30852 27.5769 7.14227M27.0782 6.81571C26.9801 6.92018 26.9235 7.05688 26.9192 7.20012C26.9148 7.34336 26.9629 7.48326 27.0544 7.59352M27.3097 7.07102C27.2504 7.18977 27.2385 7.36789 27.3038 7.47477" stroke="black" stroke-width="0.02375"/>
<path d="M30.1652 6.51273C30.7293 6.56023 30.8183 5.9368 30.4027 5.90117M29.4705 4.8443C29.2805 4.59492 28.8293 4.5118 28.8174 5.0343" stroke="black" stroke-width="0.02375"/>
<path d="M28.7702 5.63393C28.5802 5.15893 28.0874 5.09362 27.8321 5.33112C27.6124 5.52705 27.6065 6.04362 28.0696 6.15049C28.2359 5.95455 28.5446 5.70518 28.7702 5.63393ZM28.5624 5.33705C28.2834 5.09362 27.8796 5.55674 28.2477 5.9783L28.5624 5.33705ZM23.3196 6.49487C23.5096 6.4533 23.7768 6.54237 24.1924 6.73237C24.4477 6.85705 25.2315 7.1183 25.7184 6.85705C25.2137 7.04111 24.8277 6.28112 24.4477 6.37018C24.0677 6.46518 23.3671 6.60768 23.0762 6.32268C23.7887 6.37018 24.1746 5.80018 24.9999 6.29299C25.2332 6.43767 25.5033 6.51189 25.7777 6.50674C25.1068 5.69924 24.2221 6.2158 24.1271 5.55674C24.5309 5.99612 25.5224 5.46174 26.0271 6.27518M24.2755 5.68143C24.1805 5.56268 24.2162 5.44393 24.1212 5.35487L24.2755 5.68143Z" fill="white"/>
<path d="M28.5624 5.33705C28.2834 5.09362 27.8796 5.55674 28.2477 5.9783M23.3196 6.49487C23.5096 6.4533 23.7768 6.54237 24.1924 6.73237C24.4477 6.85705 25.2315 7.1183 25.7184 6.85705C25.2137 7.04111 24.8277 6.28112 24.4477 6.37018C24.0677 6.46518 23.3671 6.60768 23.0762 6.32268C23.7887 6.37018 24.1746 5.80018 24.9999 6.29299C25.2332 6.43767 25.5033 6.51189 25.7777 6.50674C25.1068 5.69924 24.2221 6.2158 24.1271 5.55674C24.5309 5.99612 25.5224 5.46174 26.0271 6.27518M24.2755 5.68143C24.1805 5.56268 24.2162 5.44393 24.1212 5.35487M28.7702 5.63393C28.5802 5.15893 28.0874 5.09362 27.8321 5.33112C27.6124 5.52705 27.6065 6.04362 28.0696 6.15049C28.2359 5.95455 28.5446 5.70518 28.7702 5.63393Z" stroke="black" stroke-width="0.02375"/>
<path d="M29.4709 4.8434C29.3046 4.66527 28.9365 4.80183 29.0434 5.16402C29.0823 5.0786 29.1416 5.0041 29.2162 4.94713C29.2908 4.89017 29.3783 4.85249 29.4709 4.83746V4.8434ZM28.4318 5.82308C28.5341 5.74255 28.6483 5.67845 28.7703 5.63308C28.7236 5.51209 28.6457 5.40558 28.5446 5.32433C28.4556 5.26496 28.2062 5.6034 28.4318 5.81715V5.82308Z" fill="black"/>
<path d="M27.9801 5.2012C27.707 5.01713 27.4517 5.03495 27.3686 5.18338C27.1726 5.18338 27.0064 5.32588 27.0005 5.61088M27.422 5.73557C27.0955 5.50995 26.6442 5.59307 26.6739 6.09776M26.472 6.3887C26.6323 6.25807 26.8639 6.16307 27.042 6.3887M28.9301 5.88995C28.8708 5.97307 28.8233 6.1037 28.9242 6.30557C28.8055 6.13932 28.4967 6.13932 28.1642 6.56682M29.6545 5.8662C29.2567 5.9137 29.2686 6.17495 29.5892 6.28182M26.8283 4.89245C26.4898 4.82713 26.2464 5.02307 26.7095 5.18932M27.4695 4.66682C26.9945 4.54807 26.8045 4.67276 27.0183 4.78557M26.098 6.56682C26.0861 6.73901 26.1751 6.9587 26.4542 6.70932M26.193 7.07151C26.193 7.11901 26.187 7.17245 26.1514 7.21401M25.0886 4.83901C24.7976 4.74995 24.7442 4.48276 25.0886 4.50651M24.9936 5.45651C24.673 5.3437 24.673 5.03495 24.9342 5.06463M25.5873 5.29026C25.2133 5.2012 25.2014 4.93995 25.4805 4.98151M25.6348 4.49463C25.433 4.48276 25.1301 4.70245 25.6408 4.83307M26.193 4.93995C25.7239 4.87463 25.7358 5.0587 26.0089 5.18338M26.5433 4.49463C26.187 4.42932 26.0623 4.64307 26.3058 4.73213M25.4151 5.8187C25.3261 5.74745 25.2548 5.40307 25.6705 5.50401M26.282 5.71182C26.003 5.63463 25.7358 5.9137 25.9911 6.06807M26.6561 5.38526C26.3592 5.32588 26.1098 5.41495 26.2701 5.52182" stroke="black" stroke-width="0.02375" stroke-linecap="round"/>
<path d="M29.4586 4.84375C29.3687 4.85998 29.284 4.89757 29.2117 4.95337C29.1393 5.00917 29.0815 5.08154 29.043 5.16438" fill="white"/>
<path d="M29.4586 4.84375C29.3687 4.85998 29.284 4.89757 29.2117 4.95337C29.1393 5.00917 29.0815 5.08154 29.043 5.16438" stroke="black" stroke-width="0.02375"/>
</g>
</g>
<defs>
<clipPath id="clip0_26003_54360">
<rect width="38" height="25" fill="white" transform="translate(0.745117 0.210938)"/>
</clipPath>
<clipPath id="clip1_26003_54360">
<rect width="38" height="28.5" fill="white" transform="translate(0.745117 -1.53906)"/>
</clipPath>
</defs>
</svg>
