<svg width="38" height="26" viewBox="0 0 38 26" fill="none" xmlns="http://www.w3.org/2000/svg">
<g clip-path="url(#clip0_26003_82728)">
<g clip-path="url(#clip1_26003_82728)">
<path d="M0 -1.25H38V27.25H0V-1.25Z" fill="white"/>
<path d="M12.1305 17.4535C12.1305 17.4535 12.1008 17.2398 12.4986 17.0913C12.8905 16.937 12.9261 16.367 12.843 15.987C12.843 15.987 12.6411 16.3432 12.3858 16.4679C12.3858 16.4679 11.982 16.6816 11.9583 17.0854C11.9583 17.0854 11.9583 17.2338 11.9286 17.3526C11.9108 17.412 11.7267 16.842 12.0711 16.4145C12.4273 15.981 12.5223 15.6248 12.2433 14.9301C12.2433 14.9301 12.2136 15.3457 11.9405 15.5891C11.6614 15.8266 11.6258 15.8504 11.6317 16.4204C11.6317 16.4204 11.6317 16.6223 11.5308 16.6876C11.5308 16.6876 11.317 16.3729 11.2577 16.1651C11.1983 15.9573 11.1745 15.8682 11.4239 15.6307C11.4239 15.6307 12.2077 15.1141 11.6436 14.0038C11.6436 14.0038 11.6258 14.3838 11.3467 14.6095C11.0795 14.841 11.0973 14.9895 11.0855 15.3813C11.0736 15.7791 11.0498 15.7495 11.0202 15.8088C11.0202 15.8088 10.5155 14.8826 10.9014 14.3957C11.2873 13.9029 11.507 13.802 11.0795 12.8876C11.0795 12.8876 11.0973 13.3626 10.753 13.5882C10.4145 13.8257 10.4917 14.3601 10.4917 14.3601C10.4917 14.3601 10.5155 14.5679 10.4442 14.7163C10.4442 14.7163 9.96328 13.7723 10.4205 13.2676C10.8123 12.8341 10.8361 12.5313 10.6283 11.9257C10.6283 11.9257 10.6045 12.2048 10.3908 12.3591C10.1711 12.5135 9.99891 12.662 10.0405 13.2498C10.0405 13.2498 10.0583 13.6654 10.0048 13.7841C10.0048 13.7841 9.80297 13.4041 9.74359 13.1607C9.68422 12.9113 9.66641 12.7688 9.81484 12.5254C9.96328 12.282 10.557 11.5754 9.85047 10.566C9.85047 10.566 9.83266 10.8926 9.64859 11.1895C9.47047 11.4863 9.55359 11.8366 9.58922 12.1038C9.63078 12.371 9.50016 12.6323 9.50016 12.6323C9.50016 12.6323 9.19141 12.0682 9.26266 11.421C9.32203 10.7679 9.06078 10.2335 8.46109 9.85352C8.46109 9.85352 8.02766 10.8629 8.62141 11.3795C8.62141 11.3795 9.12609 11.8782 9.25672 12.4838C9.25672 12.4838 8.87078 12.4482 8.52641 11.7713C8.17609 11.0945 7.45766 11.2013 7.41016 11.1954C7.41016 11.1954 7.52891 12.2404 8.63328 12.5373C8.63328 12.5373 9.34578 12.656 9.47641 13.1785C9.47641 13.1785 9.59516 13.5348 9.64266 13.7248C9.64266 13.7248 9.41703 13.6357 9.20922 13.327C9.00141 13.0301 9.03109 12.9885 8.33047 12.9173C8.33047 12.9173 8.05141 12.8876 7.90297 12.6857C7.90297 12.6857 8.19984 13.7901 8.95391 13.7841C8.95391 13.7841 9.64266 13.707 10.0227 14.6154L9.85047 14.4966C9.74953 14.4313 9.49422 14.3007 8.98953 14.3601C8.48484 14.4195 8.34234 14.3363 8.21766 14.3007C8.21766 14.3007 8.72828 15.2329 9.44672 14.9538C10.1711 14.6748 10.5155 15.6901 10.5273 15.7079C10.5273 15.7079 10.4264 15.6366 10.3017 15.512C10.1711 15.3873 9.90984 15.2329 9.41109 15.3932C9.41109 15.3932 9.04891 15.5298 8.68078 15.417C8.68078 15.417 9.03703 16.0998 9.85641 15.981C10.0721 15.9385 10.2959 15.9767 10.4853 16.0883C10.6747 16.2 10.8164 16.3773 10.8836 16.5866C10.8836 16.5866 10.7767 16.5273 10.7055 16.4679C10.6283 16.4085 10.3492 16.2482 9.75547 16.4204C9.16172 16.5985 8.94797 16.3966 8.94797 16.3966C8.94797 16.3966 9.27453 16.9904 9.90984 17.0676C9.90984 17.0676 10.2661 17.0616 10.4086 17.0082C10.557 16.9488 10.9548 16.8598 11.228 17.2576C11.228 17.2576 11.1508 17.2695 11.038 17.216C11.038 17.216 10.6223 17.0676 10.2958 17.3348C10.2958 17.3348 10.0108 17.6257 9.60703 17.5723C9.60703 17.5723 10.1295 18.077 10.9608 17.6495C10.9608 17.6495 11.2398 17.4476 11.4477 17.602C11.6555 17.7623 12.1305 17.4476 12.1305 17.4476V17.4535Z" fill="#369443" stroke="#010002" stroke-width="0.0890625" stroke-miterlimit="10"/>
<path d="M16.7554 4.90754C16.7554 4.90754 16.6604 4.0466 17.3492 3.95754C17.706 3.89516 18.0726 3.9196 18.4179 4.02879L18.7445 4.65817L18.6257 5.08567L18.1864 5.28754C18.1864 5.28754 18.2635 4.63442 17.6639 4.62254C17.5095 4.62254 17.4264 4.68192 17.1829 4.64035C16.9395 4.59879 16.8089 4.86598 16.7554 4.90754Z" fill="#F4C53D" stroke="#010002" stroke-width="0.0890625" stroke-miterlimit="10"/>
<path d="M21.6004 7.03921C21.4935 7.16984 21.0838 7.21734 21.0838 7.21734C21.0838 7.21734 21.5054 7.5439 21.6894 8.00702C21.8675 8.46421 16.7969 8.00702 16.7969 8.00702C16.7969 8.00702 17.0225 7.85265 17.171 7.55577C17.171 7.55577 16.9454 7.6389 16.7197 7.41327C16.7197 7.41327 16.886 7.47265 17.1057 7.14015C17.1057 7.14015 17.4322 6.72452 17.6638 6.60577C17.6638 6.60577 17.5569 6.67702 17.3016 6.53452C17.3016 6.53452 17.741 6.47515 17.8954 5.73296C17.8954 5.73296 17.925 5.56671 18.0913 5.31734C18.2575 5.07984 18.2219 5.37077 18.5307 4.99671C18.5307 4.99671 18.6732 4.73546 18.5485 4.58109C18.4297 4.41484 18.2932 4.47421 18.0379 4.31984C17.7766 4.16546 17.6638 4.08234 17.7529 3.84484C17.8419 3.60734 18.0675 3.64296 18.1032 3.64296C18.1388 3.64296 18.1507 3.43515 18.4297 3.29265C18.7088 3.15015 19.4629 3.21546 19.5697 3.27484C19.6885 3.33421 20.1338 3.47077 20.401 4.13577C20.6622 4.80077 20.3297 5.05015 21.0422 6.05952C21.0422 6.05952 20.7572 6.1189 20.5732 6.05952C20.5732 6.05952 20.9472 6.72452 21.6004 7.03921Z" fill="#F4C53D" stroke="#010002" stroke-width="0.0890625" stroke-miterlimit="10"/>
<path d="M18.4652 4.22445C17.8715 4.19477 18.1031 3.64258 18.1031 3.64258" stroke="#010002" stroke-width="0.0890625" stroke-miterlimit="10"/>
<path d="M19.4743 4.30194C19.4743 4.30194 19.3734 4.25444 19.2843 4.13569C19.1655 3.97538 18.8865 3.89819 18.744 4.05257C18.744 4.05257 18.5955 4.21882 18.459 4.23069C18.459 4.23069 18.6134 4.27226 18.7143 4.36726C18.8152 4.46226 18.9221 4.53351 19.0765 4.50976C19.2309 4.49194 19.2546 4.40882 19.3259 4.36132C19.403 4.31382 19.4743 4.30194 19.4743 4.30194Z" fill="#F4C53D" stroke="#010002" stroke-width="0.0890625" stroke-miterlimit="10"/>
<path d="M12.041 18.7299C12.041 18.7299 12.0292 18.3499 12.5042 18.3262L13.8995 20.2677C13.8995 20.2677 13.846 20.3924 13.2167 20.3805C13.2167 20.3805 13.1454 20.3805 13.1098 20.4518C13.0564 20.5705 12.041 18.7299 12.041 18.7299Z" fill="#369443" stroke="#010002" stroke-width="0.0890625" stroke-miterlimit="10"/>
<path d="M13.5777 16.4671C13.5777 16.4671 13.1317 17.2322 12.5927 17.2448C12.5927 17.2448 11.6657 17.1321 11.4038 17.3744C11.2206 17.5433 11.0337 17.6828 10.9569 18.1145C10.8818 18.5463 11.1043 18.6392 11.1571 18.658C11.1571 18.658 11.1982 18.9664 11.503 18.8859C11.503 18.8859 11.5209 19.2077 12.059 19.0531C12.598 18.8985 12.8215 18.9476 12.9261 18.4113C13.0325 17.8741 13.1299 17.883 13.2255 17.8186C13.3543 17.7319 13.5965 17.6506 13.7762 17.5469C13.9371 17.4539 14.5557 17.1393 14.7666 17.1151C14.9776 17.0901 14.9311 16.3804 14.9311 16.3804H14.3858L14.1221 15.9915L13.5768 16.4671H13.5777ZM15.294 12.6287C15.294 12.6287 14.7487 13.073 14.2911 12.6287C14.2911 12.6287 14.1069 12.8504 13.7369 12.786C13.3686 12.7208 13.3069 12.5268 13.272 12.416C13.272 12.416 12.952 12.6019 12.6821 12.4544C12.4139 12.3078 12.4139 12.0852 12.4139 12.0852C12.4139 12.0852 11.9446 12.1782 11.7041 11.86C11.4637 11.5426 11.6103 11.228 11.7399 11.1904C11.7399 11.1904 11.2331 11.3236 11.0945 10.8883C11.0576 10.7911 11.0519 10.6848 11.0782 10.5842C11.1045 10.4836 11.1614 10.3937 11.2411 10.3269C11.2411 10.3269 10.1738 10.3216 9.7358 9.98726C9.7358 9.98726 9.37199 9.75842 9.5892 9.51796C9.5892 9.51796 8.62827 9.36422 8.38781 8.98163C8.38781 8.98163 8.28233 8.87615 8.3172 8.69112C8.3172 8.69112 8.32345 8.58653 8.42893 8.58027C8.42893 8.58027 7.33302 8.41043 7.01659 8.0493C7.01659 8.0493 6.86462 7.88304 6.94061 7.66046C6.94061 7.66046 6.9567 7.60236 6.98262 7.56213C6.98262 7.56213 5.98504 7.35207 5.4934 6.9078C5.4934 6.9078 5.20914 6.65483 5.35574 6.31515C5.35574 6.31515 3.68863 5.85927 4.07479 5.12449C4.07479 5.12449 3.29532 4.87152 3.54203 4.16803C3.54203 4.16803 2.89754 3.84087 3.17822 3.32241C3.44728 2.8263 4.27413 3.40912 5.25205 3.67996C5.25205 3.67996 7.90154 4.51307 9.20572 4.73476L12.9118 10.2527L15.0741 11.0858L15.2931 12.6287H15.294Z" fill="#F4C53D" stroke="#010002" stroke-width="0.0893891"/>
<path d="M15.3195 8.56578C15.3195 8.56578 14.9718 8.30476 14.3523 8.61136C14.3523 8.61136 14.144 8.75528 13.9796 8.59796C13.9439 8.56392 13.9162 8.52241 13.8985 8.4764C13.8808 8.43039 13.8736 8.38103 13.8773 8.33187C13.8809 8.28272 13.8955 8.23499 13.9198 8.19212C13.9441 8.14925 13.9777 8.11232 14.018 8.08397C14.4801 7.74161 14.6509 6.71453 13.9483 6.28814C13.9483 6.28814 12.9292 5.68387 9.1901 4.73277C9.1901 4.73277 8.87724 4.64517 8.70919 4.68718C8.62788 4.70793 8.55371 4.75029 8.49454 4.80978C8.43536 4.86927 8.39339 4.94366 8.37309 5.02507C8.37309 5.02507 8.20503 5.50152 8.76818 5.77416C8.76818 5.77416 9.02205 5.89036 9.28396 5.96545C9.28396 5.96545 8.99613 5.90288 8.87277 6.18713C8.75656 6.45888 8.9264 6.73688 9.4538 6.91565C9.4538 6.91565 9.59682 6.97107 9.79973 7.02024C9.79973 7.02024 9.34832 7.14985 9.56553 7.51456C9.56553 7.51456 9.75862 7.89715 10.4415 7.96508C10.4415 7.96508 9.93203 8.0205 10.2914 8.50499C10.2914 8.50499 10.4496 8.77048 10.9475 8.8688C10.9475 8.8688 10.5703 8.88132 10.7598 9.2201C10.9511 9.55978 11.3989 9.75107 11.8405 9.78236C11.8405 9.78236 12.0792 9.79487 12.2463 9.75733C12.2463 9.75733 11.8262 9.9674 12.0729 10.3187C12.0729 10.3187 12.2544 10.569 12.7085 10.5565C12.7085 10.5565 12.5914 10.9498 12.9239 11.0982C13.1831 11.2144 13.3985 11.0284 13.3985 11.0284C13.3985 11.0284 13.3109 11.4495 13.6891 11.5979C13.6891 11.5979 13.8777 11.6953 14.1592 11.5979C14.1592 11.5979 14.3738 12.0797 15.1389 11.7409C15.9041 11.4039 15.3195 8.56667 15.3195 8.56667V8.56578ZM15.3642 12.9405C15.3642 12.9405 15.2525 13.543 14.363 14.301C14.363 14.301 13.6765 14.9061 13.6935 15.6034C13.7114 16.314 13.5711 16.3936 13.3011 16.634C13.3011 16.634 13.858 16.6778 14.1271 16.3069C14.1271 16.3069 14.1154 16.9237 14.0332 16.98C14.0332 16.98 14.2084 16.9907 14.4614 16.7145C14.4614 16.7145 14.6133 16.5536 14.7546 16.4919C14.7546 16.4919 14.5901 16.9183 14.7188 17.3134C14.7188 17.3134 14.7599 17.1587 14.9771 17.0908C14.9771 17.0908 15.3705 17.0104 15.5224 16.4427C15.5224 16.4427 15.6216 16.0673 16.2375 15.733C16.2375 15.733 16.9348 15.4702 16.9169 15.1269C16.899 14.7828 15.3651 12.9405 15.3651 12.9405H15.3642Z" fill="#F4C53D" stroke="#010002" stroke-width="0.0893891"/>
<path d="M18.5972 20.707C18.5972 20.707 18.4372 21.4114 17.882 21.3551C17.882 21.3551 17.4896 21.3176 17.5191 20.6632C17.5191 20.6632 16.939 20.9725 16.8451 20.2073C16.8451 20.2073 16.3177 20.3298 16.324 19.6147C16.324 19.6147 15.8324 19.7005 15.8905 19.0649C15.8905 19.0649 15.3568 19.208 15.3568 18.6091C15.3568 18.6091 14.1089 18.4017 16.7102 16.0293L19.0307 17.4113L18.5972 20.707Z" fill="#F4C53D" stroke="#010002" stroke-width="0.0893891" stroke-miterlimit="10"/>
<path d="M18.8551 17.543C18.8551 17.543 18.4681 17.8863 18.1928 17.3732C18.1928 17.3732 17.8173 17.3553 17.7592 17.071C17.7592 17.071 17.4544 17.0407 17.3954 16.7501C17.3954 16.7501 16.9798 16.7072 16.9914 16.3559C16.9914 16.3559 16.2351 16.2969 16.9914 15.4406C17.7476 14.5842 19.0303 16.8619 19.0303 16.8619L18.8551 17.543ZM19.286 17.3303C19.6614 17.3303 20.086 19.6723 19.9761 21.0837C19.9359 21.5959 19.6614 22.0143 19.286 22.0143C18.9106 22.0143 18.637 21.5959 18.5977 21.0837C18.4869 19.6723 18.9115 17.3303 19.286 17.3303Z" fill="#F4C53D" stroke="#010002" stroke-width="0.0893891"/>
<path d="M19.286 18.0805C19.5724 18.0805 19.8045 17.7363 19.8045 17.3117C19.8045 16.8871 19.5724 16.543 19.286 16.543C18.9997 16.543 18.7676 16.8871 18.7676 17.3117C18.7676 17.7363 18.9997 18.0805 19.286 18.0805Z" fill="#F4C53D" stroke="#010002" stroke-width="0.0893891"/>
<path d="M17.5188 20.663C17.5188 20.663 17.5778 19.4232 18.6523 17.6452M16.8449 20.2071C16.8449 20.2071 16.6777 19.4911 18.1928 17.3735C18.1928 17.3735 18.0167 16.8684 18.5558 16.544M16.3237 19.6145C16.3237 19.6145 16.2763 18.8395 17.7593 17.0713C17.7593 17.0713 17.6279 16.6155 18.1651 16.2508M15.8902 19.0647C15.8902 19.0647 15.9456 18.2817 17.3955 16.7504C17.3955 16.7504 17.324 16.282 17.8424 15.9915M15.3574 18.6088C15.3574 18.6088 15.462 17.7141 16.9915 16.3562C16.9915 16.3562 16.9387 16.004 17.4482 15.6465" stroke="#010002" stroke-width="0.0893891" stroke-miterlimit="10"/>
<path d="M3.54199 4.16797C3.54199 4.16797 4.74249 4.86342 8.48431 5.55886M4.07475 5.12443C4.07475 5.12443 7.32583 6.18459 8.84008 6.31509M5.3548 6.31509C5.3548 6.31509 7.26237 6.914 9.4962 7.29212M6.98258 7.56297C6.98258 7.56297 9.13685 8.08053 10.1666 8.16634M8.42889 8.58021C8.42889 8.58021 10.2515 8.96012 10.7128 9.00571M9.58916 9.5179C9.58916 9.5179 10.9193 9.71992 11.4485 9.7092M11.2411 10.326C11.2411 10.326 11.7792 10.301 12.0375 10.258M11.739 11.1904C11.739 11.1904 12.1966 11.067 12.4657 10.8945M12.413 12.0852C12.413 12.0852 12.7652 11.9493 12.935 11.5792M13.272 12.4159C13.272 12.4159 13.5437 12.1719 13.5616 11.9001M14.291 12.6286C14.291 12.6286 14.1891 12.5401 14.2588 12.1576M14.1596 11.5962C14.1596 11.5962 14.106 11.4871 14.1239 11.3137M12.2378 6.11754C12.2378 6.11754 12.8528 6.36426 13.0575 6.70394C13.2631 7.04362 13.1281 7.37346 13.0575 7.56207C13.0226 7.65772 12.5891 8.49351 13.0986 9.09867M12.2458 9.75479C12.2458 9.75479 12.2494 9.7521 12.4657 9.68327M10.9479 8.86626C10.9479 8.86626 11.3144 8.93956 11.6746 8.94313M10.441 7.96164C10.441 7.96164 10.8719 8.00544 11.2768 7.99918M9.80012 7.01769C9.80012 7.01769 10.4214 7.14105 10.7548 7.14731M9.28435 5.96469C9.28435 5.96469 10.0504 6.1828 10.6198 6.26057M11.8856 6.71109C11.8856 6.71109 11.3349 7.22329 11.9973 7.69884C11.9973 7.69884 11.722 8.13059 12.2726 8.58111M12.126 8.79385C12.126 8.79385 12.0438 9.61802 13.0521 9.61802C13.0521 9.61802 12.8581 10.3519 13.8316 10.3278C13.8316 10.3278 13.9424 10.9142 14.645 10.7962M13.0977 17.2456C13.0977 17.2456 12.9377 17.2813 12.5917 17.2456M11.6192 17.6773C11.6192 17.6773 11.1329 17.6031 11.1562 18.6588M11.9124 17.9178C11.9124 17.9178 11.4726 17.8624 11.5012 18.8868M16.1557 15.4498C16.1557 15.4498 15.9447 15.4927 15.7981 15.6598C15.6524 15.8261 15.3708 15.7948 15.3708 15.7948C15.3708 15.7948 15.5228 15.6714 15.5764 15.3631C15.6283 15.0547 15.799 14.9617 15.799 14.9617M15.2958 14.6703C15.2958 14.6703 15.0848 14.7132 14.9382 14.8795C14.7916 15.0466 14.51 15.0153 14.51 15.0153C14.51 15.0153 14.662 14.892 14.7156 14.5836C14.7684 14.2752 14.9382 14.1822 14.9382 14.1822M15.1501 15.8672C15.1501 15.8672 14.9659 15.9056 14.8381 16.0505C14.7103 16.1962 14.4644 16.1693 14.4644 16.1693C14.4644 16.1693 14.5985 16.0621 14.6432 15.7921C14.6897 15.5231 14.8381 15.4417 14.8381 15.4417" stroke="#010002" stroke-width="0.0893891"/>
<path d="M24.85 16.4671C24.85 16.4671 25.296 17.2322 25.8351 17.2448C25.8351 17.2448 26.762 17.1321 27.0239 17.3744C27.2072 17.5433 27.394 17.6828 27.4709 18.1145C27.546 18.5463 27.3234 18.6392 27.2706 18.658C27.2706 18.658 27.2295 18.9664 26.9247 18.8859C26.9247 18.8859 26.9068 19.2077 26.3687 19.0531C25.8297 18.8985 25.6062 18.9476 25.5016 18.4113C25.3953 17.8741 25.2978 17.883 25.2022 17.8186C25.0735 17.7319 24.8312 17.6506 24.6515 17.5469C24.4906 17.4539 23.8721 17.1393 23.6611 17.1151C23.4502 17.0901 23.4966 16.3804 23.4966 16.3804H24.0419L24.3056 15.9915L24.8509 16.4671H24.85ZM23.1337 12.6287C23.1337 12.6287 23.679 13.073 24.1367 12.6287C24.1367 12.6287 24.3208 12.8504 24.6909 12.786C25.0592 12.7208 25.1208 12.5268 25.1557 12.416C25.1557 12.416 25.4757 12.6019 25.7457 12.4544C26.0138 12.3078 26.0138 12.0852 26.0138 12.0852C26.0138 12.0852 26.4831 12.1782 26.7236 11.86C26.964 11.5426 26.8174 11.228 26.6878 11.1904C26.6878 11.1904 27.1947 11.3236 27.3332 10.8883C27.3701 10.7911 27.3758 10.6848 27.3495 10.5842C27.3233 10.4836 27.2663 10.3937 27.1866 10.3269C27.1866 10.3269 28.2539 10.3216 28.6919 9.98726C28.6919 9.98726 29.0557 9.75842 28.8385 9.51796C28.8385 9.51796 29.7995 9.36422 30.0399 8.98163C30.0399 8.98163 30.1454 8.87615 30.1105 8.69112C30.1105 8.69112 30.1043 8.58653 29.9988 8.58027C29.9988 8.58027 31.0947 8.41043 31.4111 8.0493C31.4111 8.0493 31.5631 7.88304 31.4871 7.66046C31.4871 7.66046 31.471 7.60236 31.4451 7.56213C31.4451 7.56213 32.4427 7.35207 32.9343 6.9078C32.9343 6.9078 33.2186 6.65483 33.072 6.31515C33.072 6.31515 34.7391 5.85927 34.3529 5.12449C34.3529 5.12449 35.1324 4.87152 34.8857 4.16803C34.8857 4.16803 35.5302 3.84087 35.2495 3.32241C34.9805 2.8263 34.1536 3.40912 33.1757 3.67996C33.1757 3.67996 30.5262 4.51307 29.222 4.73476L25.5159 10.2527L23.3536 11.0858L23.1346 12.6287H23.1337Z" fill="#F4C53D" stroke="#010002" stroke-width="0.0893891"/>
<path d="M23.1082 8.56578C23.1082 8.56578 23.4559 8.30476 24.0754 8.61136C24.0754 8.61136 24.2837 8.75528 24.4482 8.59796C24.4838 8.56392 24.5115 8.52241 24.5292 8.4764C24.5469 8.43039 24.5542 8.38103 24.5505 8.33187C24.5468 8.28272 24.5323 8.23499 24.5079 8.19212C24.4836 8.14925 24.4501 8.11232 24.4097 8.08397C23.9476 7.74161 23.7769 6.71453 24.4795 6.28814C24.4795 6.28814 25.4985 5.68387 29.2376 4.73277C29.2376 4.73277 29.5505 4.64517 29.7185 4.68718C29.7998 4.70793 29.874 4.75029 29.9332 4.80978C29.9924 4.86927 30.0343 4.94366 30.0546 5.02507C30.0546 5.02507 30.2227 5.50152 29.6595 5.77416C29.6595 5.77416 29.4057 5.89036 29.1438 5.96545C29.1438 5.96545 29.4316 5.90288 29.555 6.18713C29.6712 6.45888 29.5013 6.73688 28.9739 6.91565C28.9739 6.91565 28.8309 6.97107 28.628 7.02024C28.628 7.02024 29.0794 7.14985 28.8622 7.51456C28.8622 7.51456 28.6691 7.89715 27.9862 7.96508C27.9862 7.96508 28.4957 8.0205 28.1364 8.50499C28.1364 8.50499 27.9781 8.77048 27.4802 8.8688C27.4802 8.8688 27.8575 8.88132 27.668 9.2201C27.4767 9.55978 27.0288 9.75107 26.5872 9.78236C26.5872 9.78236 26.3486 9.79487 26.1814 9.75733C26.1814 9.75733 26.6016 9.9674 26.3548 10.3187C26.3548 10.3187 26.1734 10.569 25.7193 10.5565C25.7193 10.5565 25.8364 10.9498 25.5039 11.0982C25.2446 11.2144 25.0292 11.0284 25.0292 11.0284C25.0292 11.0284 25.1168 11.4495 24.7387 11.5979C24.7387 11.5979 24.5501 11.6953 24.2685 11.5979C24.2685 11.5979 24.054 12.0797 23.2888 11.7409C22.5236 11.4039 23.1082 8.56667 23.1082 8.56667V8.56578ZM23.0635 12.9405C23.0635 12.9405 23.1753 13.543 24.0647 14.301C24.0647 14.301 24.7512 14.9061 24.7342 15.6034C24.7163 16.314 24.8567 16.3936 25.1266 16.634C25.1266 16.634 24.5697 16.6778 24.3007 16.3069C24.3007 16.3069 24.3123 16.9237 24.3945 16.98C24.3945 16.98 24.2193 16.9907 23.9664 16.7145C23.9664 16.7145 23.8144 16.5536 23.6732 16.4919C23.6732 16.4919 23.8376 16.9183 23.7089 17.3134C23.7089 17.3134 23.6678 17.1587 23.4506 17.0908C23.4506 17.0908 23.0573 17.0104 22.9053 16.4427C22.9053 16.4427 22.8061 16.0673 22.1902 15.733C22.1902 15.733 21.493 15.4702 21.5108 15.1269C21.5287 14.7828 23.0626 12.9405 23.0626 12.9405H23.0635Z" fill="#F4C53D" stroke="#010002" stroke-width="0.0893891"/>
<path d="M19.8306 20.707C19.8306 20.707 19.9906 21.4114 20.5457 21.3551C20.5457 21.3551 20.9381 21.3176 20.9086 20.6632C20.9086 20.6632 21.4887 20.9725 21.5826 20.2073C21.5826 20.2073 22.11 20.3298 22.1037 19.6147C22.1037 19.6147 22.5954 19.7005 22.5373 19.0649C22.5373 19.0649 23.0709 19.208 23.0709 18.6091C23.0709 18.6091 24.3188 18.4017 21.7176 16.0293L19.397 17.4113L19.8306 20.707Z" fill="#F4C53D" stroke="#010002" stroke-width="0.0893891" stroke-miterlimit="10"/>
<path d="M19.5726 17.543C19.5726 17.543 19.9597 17.8863 20.235 17.3732C20.235 17.3732 20.6104 17.3553 20.6685 17.071C20.6685 17.071 20.9733 17.0407 21.0323 16.7501C21.0323 16.7501 21.448 16.7072 21.4364 16.3559C21.4364 16.3559 22.1926 16.2969 21.4364 15.4406C20.6801 14.5842 19.3974 16.8619 19.3974 16.8619L19.5726 17.543ZM19.1417 17.3303C18.7663 17.3303 18.3417 19.6723 18.4517 21.0837C18.4919 21.5959 18.7663 22.0143 19.1417 22.0143C19.5172 22.0143 19.7907 21.5959 19.83 21.0837C19.9409 19.6723 19.5163 17.3303 19.1417 17.3303Z" fill="#F4C53D" stroke="#010002" stroke-width="0.0893891"/>
<path d="M19.1417 18.0805C18.8554 18.0805 18.6232 17.7363 18.6232 17.3117C18.6232 16.8871 18.8554 16.543 19.1417 16.543C19.428 16.543 19.6602 16.8871 19.6602 17.3117C19.6602 17.7363 19.428 18.0805 19.1417 18.0805Z" fill="#F4C53D" stroke="#010002" stroke-width="0.0893891"/>
<path d="M20.9089 20.663C20.9089 20.663 20.8499 19.4232 19.7754 17.6452M21.5829 20.2071C21.5829 20.2071 21.75 19.4911 20.2349 17.3735C20.2349 17.3735 20.411 16.8684 19.872 16.544M22.104 19.6145C22.104 19.6145 22.1514 18.8395 20.6684 17.0713C20.6684 17.0713 20.7998 16.6155 20.2626 16.2508M22.5376 19.0647C22.5376 19.0647 22.4821 18.2817 21.0322 16.7504C21.0322 16.7504 21.1038 16.282 20.5853 15.9915M23.0703 18.6088C23.0703 18.6088 22.9657 17.7141 21.4363 16.3562C21.4363 16.3562 21.489 16.004 20.9795 15.6465" stroke="#010002" stroke-width="0.0893891" stroke-miterlimit="10"/>
<path d="M34.8857 4.16797C34.8857 4.16797 33.6852 4.86342 29.9434 5.55886M34.353 5.12443C34.353 5.12443 31.1019 6.18459 29.5877 6.31509M33.0729 6.31509C33.0729 6.31509 31.1654 6.914 28.9315 7.29212M31.4452 7.56297C31.4452 7.56297 29.2909 8.08053 28.2611 8.16634M29.9988 8.58021C29.9988 8.58021 28.1762 8.96012 27.715 9.00571M28.8386 9.5179C28.8386 9.5179 27.5085 9.71992 26.9793 9.7092M27.1867 10.326C27.1867 10.326 26.6485 10.301 26.3902 10.258M26.6888 11.1904C26.6888 11.1904 26.2311 11.067 25.962 10.8945M26.0148 12.0852C26.0148 12.0852 25.6626 11.9493 25.4927 11.5792M25.1557 12.4159C25.1557 12.4159 24.884 12.1719 24.8661 11.9001M24.1367 12.6286C24.1367 12.6286 24.2386 12.5401 24.1689 12.1576M24.2681 11.5962C24.2681 11.5962 24.3217 11.4871 24.3039 11.3137M26.19 6.11754C26.19 6.11754 25.575 6.36426 25.3703 6.70394C25.1647 7.04362 25.2997 7.37346 25.3703 7.56207C25.4051 7.65772 25.8387 8.49351 25.3292 9.09867M26.1819 9.75479C26.1819 9.75479 26.1784 9.7521 25.962 9.68327M27.4799 8.86626C27.4799 8.86626 27.1134 8.93956 26.7531 8.94313M27.9867 7.96164C27.9867 7.96164 27.5558 8.00544 27.1509 7.99918M28.6276 7.01769C28.6276 7.01769 28.0064 7.14105 27.6729 7.14731M29.1434 5.96469C29.1434 5.96469 28.3773 6.1828 27.8079 6.26057M26.5422 6.71109C26.5422 6.71109 27.0928 7.22329 26.4304 7.69884C26.4304 7.69884 26.7057 8.13059 26.1551 8.58111M26.3017 8.79385C26.3017 8.79385 26.3839 9.61802 25.3756 9.61802C25.3756 9.61802 25.5696 10.3519 24.5962 10.3278C24.5962 10.3278 24.4853 10.9142 23.7827 10.7962M25.3301 17.2456C25.3301 17.2456 25.4901 17.2813 25.836 17.2456M26.8085 17.6773C26.8085 17.6773 27.2948 17.6031 27.2716 18.6588M26.5154 17.9178C26.5154 17.9178 26.9551 17.8624 26.9265 18.8868M22.2721 15.4498C22.2721 15.4498 22.483 15.4927 22.6296 15.6598C22.7753 15.8261 23.0569 15.7948 23.0569 15.7948C23.0569 15.7948 22.9049 15.6714 22.8513 15.3631C22.7994 15.0547 22.6287 14.9617 22.6287 14.9617M23.132 14.6703C23.132 14.6703 23.3429 14.7132 23.4895 14.8795C23.6361 15.0466 23.9177 15.0153 23.9177 15.0153C23.9177 15.0153 23.7657 14.892 23.7121 14.5836C23.6594 14.2752 23.4895 14.1822 23.4895 14.1822M23.2777 15.8672C23.2777 15.8672 23.4618 15.9056 23.5896 16.0505C23.7175 16.1962 23.9633 16.1693 23.9633 16.1693C23.9633 16.1693 23.8292 16.0621 23.7845 15.7921C23.738 15.5231 23.5896 15.4417 23.5896 15.4417" stroke="#010002" stroke-width="0.0893891"/>
<path d="M27.6691 13.9502L26.82 17.6137L26.4697 17.3643L27.301 13.8493L26.7191 13.8612L28.0907 11.3496L28.1797 14.2412L27.6691 13.9502ZM29.866 14.7221L27.3129 17.7384L27.0397 17.4296L29.581 14.449L29.0644 14.1759L31.3919 12.6321L30.1866 15.2327L29.866 14.7221Z" fill="#0081C6" stroke="#010002" stroke-width="0.0890625" stroke-miterlimit="10"/>
<path d="M29.248 13.1194L26.9621 17.5131L26.6118 17.3053L28.9096 12.9234L28.3514 12.7809L30.293 10.7266L29.6696 13.5469L29.248 13.1194ZM26.398 18.855L26.2258 19.5497L26.7008 20.0247L26.0358 22.8153L25.4421 22.0256L24.5752 22.4294L25.2343 19.6388L25.8518 19.4606L26.0061 18.7659C26.0061 18.7659 26.1961 18.6947 26.398 18.855Z" fill="#0081C6" stroke="#010002" stroke-width="0.0890625" stroke-miterlimit="10"/>
<path d="M26.5583 18.3912L26.2198 19.0205L26.5583 19.5965L25.2283 22.1199L24.8542 21.1937L23.9102 21.348L25.2402 18.8305H25.8755L26.202 18.2012C26.202 18.2012 26.4395 18.2012 26.5583 18.3912Z" fill="#0081C6" stroke="#010002" stroke-width="0.0890625" stroke-miterlimit="10"/>
<path d="M26.6123 18.5753L25.7217 19.7153L25.9236 20.3566L24.0889 22.4941L23.9227 21.5084L22.9727 21.4372L24.8014 19.2997L25.4189 19.4481L26.3689 18.2369C26.3689 18.2369 26.6302 18.3675 26.6123 18.5753ZM3.88953 15.9034C4.10328 15.8144 4.25766 15.7313 4.25766 15.5056C4.25766 15.4463 4.22797 15.3275 4.16859 15.1434L2.73172 10.7438C2.68363 10.5833 2.6241 10.4266 2.55359 10.2747C2.48828 10.1559 2.36359 10.1025 2.19141 10.0372H4.01422C3.81828 10.1263 3.63422 10.1975 3.64016 10.4112C3.64016 10.4884 3.66391 10.6013 3.70547 10.7497L4.80984 14.1934L5.90828 10.7497C5.9464 10.6407 5.9684 10.5266 5.97359 10.4112C5.97359 10.1916 5.78359 10.1144 5.59953 10.0312H7.36891C7.20859 10.0966 7.07203 10.15 7.01266 10.2747C6.94058 10.4287 6.87908 10.5874 6.82859 10.7497L5.39172 15.1375C5.35206 15.2556 5.32227 15.3767 5.30266 15.4997C5.30266 15.4997 5.23734 15.7787 5.67078 15.8975H3.88953V15.9034ZM34.4855 15.4522V10.4825C34.4855 10.3994 34.4677 10.3341 34.438 10.2866C34.4083 10.2391 34.2895 10.1084 34.1114 10.0372H35.7561C35.6242 10.0848 35.5102 10.1719 35.4295 10.2866C35.3998 10.3341 35.388 10.3994 35.388 10.4825V15.4522C35.388 15.5412 35.3998 15.6066 35.4295 15.6541C35.4592 15.7016 35.578 15.8203 35.7561 15.9034H34.1114C34.2895 15.8203 34.4083 15.7016 34.438 15.6541C34.4677 15.6066 34.4855 15.5412 34.4855 15.4522Z" fill="#0081C6" stroke="#010002" stroke-width="0.0890625" stroke-miterlimit="10"/>
<path d="M19.2846 17.1436C19.2846 17.1436 23.6902 15.1902 23.6962 10.6836H14.873C14.8849 15.1961 19.2846 17.1436 19.2846 17.1436Z" fill="white" stroke="#010002" stroke-width="0.0890625"/>
<path d="M15.5566 10.6837V13.5634C15.5566 13.5634 15.8891 14.2343 16.2335 14.6499V10.6837H15.5566ZM16.9104 10.6837V15.4337C16.9104 15.4337 17.3379 15.8493 17.5873 16.0512V10.6837H16.9104ZM18.2701 10.6837V16.5559C18.2701 16.5559 18.751 16.8646 18.947 16.9715V10.6777H18.2701V10.6837ZM23.0201 10.6837V13.5634C23.0201 13.5634 22.6816 14.2343 22.3373 14.6499V10.6837H23.0201ZM21.6604 10.6837V15.4337C21.6604 15.4337 21.2388 15.8493 20.9835 16.0512V10.6837H21.6604ZM20.3066 10.6837V16.5559C20.3066 16.5559 19.8198 16.8646 19.6238 16.9715V10.6777H20.3066V10.6837Z" fill="#36A83A" stroke="#010002" stroke-width="0.0890625"/>
<path d="M23.6962 7.4075C23.6962 7.4075 21.5349 8.53562 19.2846 7.3125C17.0343 8.53562 14.873 7.4075 14.873 7.4075V10.685H23.6962V7.4075Z" fill="#162667" stroke="#010002" stroke-width="0.0890625" stroke-miterlimit="10"/>
</g>
</g>
<defs>
<clipPath id="clip0_26003_82728">
<rect width="38" height="25" fill="white" transform="translate(0 0.5)"/>
</clipPath>
<clipPath id="clip1_26003_82728">
<rect width="38" height="28.5" fill="white" transform="translate(0 -1.25)"/>
</clipPath>
</defs>
</svg>
