<svg width="38" height="26" viewBox="0 0 38 26" fill="none" xmlns="http://www.w3.org/2000/svg">
<g clip-path="url(#clip0_26003_93830)">
<g clip-path="url(#clip1_26003_93830)">
<path d="M0 8.25H38V17.75H0V8.25Z" fill="white"/>
<path d="M0 -1.25H38V8.25H0V-1.25Z" fill="#CE1126"/>
<path d="M0 17.75H38V27.25H0V17.75Z" fill="black"/>
<path d="M23.2109 11.2543C23.1568 11.2283 23.1075 11.1931 23.0653 11.1503C23.0341 11.0983 23.0549 11.0983 23.1901 11.1295C23.4294 11.2023 23.5854 11.1711 23.7414 11.0463L23.8766 10.9319L24.0326 11.0047C24.1263 11.0567 24.2199 11.0879 24.2407 11.0775C24.3135 11.0567 24.4591 10.8695 24.4487 10.8071C24.4487 10.7343 24.5111 10.7551 24.5527 10.8383C24.6151 11.0047 24.5215 11.2023 24.3447 11.2439C24.2719 11.2647 24.1991 11.2543 24.0743 11.2127C23.9286 11.1607 23.8974 11.1607 23.8246 11.2127C23.7375 11.2786 23.633 11.3176 23.524 11.325C23.415 11.3324 23.3062 11.3078 23.2109 11.2543ZM23.8142 10.7031C23.7438 10.5758 23.7079 10.4324 23.7102 10.287C23.7206 10.2246 23.7414 10.2038 23.7934 10.2246C23.8974 10.2558 23.9182 10.3286 23.8974 10.5366C23.8974 10.7239 23.8662 10.7759 23.8142 10.7031ZM16.7829 10.5054C16.7725 10.6407 17.0325 10.9839 17.1469 11.0463C17.0637 11.0775 16.9701 11.0671 16.8973 11.0983C16.4812 11.5144 14.9834 12.9706 14.713 13.3242C15.5243 13.345 16.4188 13.3138 17.1781 13.2826C17.1781 12.7313 17.6982 12.7001 18.0518 12.5025C18.2286 12.7833 18.6759 12.7625 18.7383 13.189V15.0197H11.8214C11.7952 15.1585 11.7402 15.2902 11.6599 15.4064C11.5796 15.5226 11.4757 15.6207 11.3551 15.6942C11.2346 15.7677 11.0999 15.8151 10.9598 15.8333C10.8197 15.8515 10.6774 15.8401 10.542 15.7998C10.75 15.5917 11.1037 15.5085 11.2285 15.2069C11.3325 14.5412 11.0205 14.1355 10.8124 13.7507C11.0741 13.6668 11.3201 13.5403 11.5405 13.3762C11.3013 14.1043 12.1854 14.0315 12.8303 14.0107C12.8511 13.7611 12.8407 13.4698 12.6535 13.4282C12.8927 13.3346 12.9343 13.3034 13.34 12.9706V13.9691L18.135 13.9587C18.135 13.6467 18.2182 13.137 17.9686 13.137C17.7398 13.137 17.9686 13.7819 17.7814 13.7819H14.0681V13.1578C14.2241 12.9914 14.2033 13.0018 15.2746 11.9304C15.3787 11.8264 16.138 11.1399 16.7933 10.5054H16.7829ZM26.0505 10.4742C26.3106 10.6199 26.5186 10.8071 26.8306 10.8903C26.7994 11.0255 26.6746 11.0775 26.6434 11.2127V14.0211C26.9971 14.0939 27.0803 13.8859 27.2467 13.7819C27.2883 14.2291 27.5795 14.666 27.5587 15.0301H26.0505V10.4846V10.4742ZM24.0326 11.9824C24.0326 11.9824 24.5839 11.5144 24.5839 11.4936V13.9379H24.9792L24.9688 11.2023C25.1248 11.0359 25.4472 10.8071 25.5201 10.6407V15.0093H22.046C21.994 14.1043 21.9836 13.1682 23.0445 13.3658V13.0018C23.0133 12.9394 22.9509 13.0122 22.9405 12.929C23.1069 12.7625 23.1589 12.7209 23.6166 12.3257L23.627 13.9379H24.0326V11.9824ZM22.7221 13.9171C22.7949 14.0211 23.0549 14.0211 23.0341 13.8339C23.0029 13.6779 22.6701 13.7299 22.7221 13.9171Z" fill="#007A3D"/>
<path d="M12.6533 15.7481C12.7682 15.7481 12.8614 15.655 12.8614 15.5401C12.8614 15.4252 12.7682 15.332 12.6533 15.332C12.5385 15.332 12.4453 15.4252 12.4453 15.5401C12.4453 15.655 12.5385 15.7481 12.6533 15.7481Z" fill="#007A3D"/>
<path d="M19.2061 10.4844C19.4661 10.6196 19.6741 10.8172 19.9966 10.9004C19.955 11.0252 19.8405 11.0773 19.8093 11.2125V14.0209C20.163 14.0937 20.2358 13.896 20.4022 13.7816C20.4542 14.2289 20.7351 14.6762 20.7247 15.0298H19.2061V10.4844Z" fill="#007A3D"/>
</g>
</g>
<defs>
<clipPath id="clip0_26003_93830">
<rect width="38" height="25" fill="white" transform="translate(0 0.5)"/>
</clipPath>
<clipPath id="clip1_26003_93830">
<rect width="38" height="28.5" fill="white" transform="translate(0 -1.25)"/>
</clipPath>
</defs>
</svg>
