<svg width="38" height="26" viewBox="0 0 38 26" fill="none" xmlns="http://www.w3.org/2000/svg">
<g clip-path="url(#clip0_26003_70171)">
<g clip-path="url(#clip1_26003_70171)">
<path d="M35.1601 25.5008H2.88006C2.12592 25.4982 1.40358 25.1967 0.871264 24.6625C0.338946 24.1283 0.040052 23.4049 0.0400567 22.6508V3.4008C0.0387405 3.027 0.111228 2.65663 0.253362 2.31091C0.395496 1.96519 0.60448 1.65093 0.86833 1.38615C1.13218 1.12137 1.4457 0.911282 1.79092 0.767934C2.13614 0.624586 2.50626 0.550797 2.88006 0.550799H35.1601C35.5342 0.549468 35.9049 0.62235 36.2508 0.765228C36.5966 0.908106 36.9106 1.11814 37.1748 1.38319C37.4389 1.64823 37.6478 1.96302 37.7895 2.30934C37.9311 2.65566 38.0027 3.02664 38.0001 3.4008V22.6508C38.0001 23.4049 37.7012 24.1283 37.1688 24.6625C36.6365 25.1967 35.9142 25.4982 35.1601 25.5008Z" fill="#ED263A"/>
<path d="M19.11 13.0516L18.93 13.1616C18.62 12.7116 18.63 11.6016 18.63 11.5816C18.63 11.5516 18.61 11.5216 18.58 11.5016L17.22 10.9016L17.23 10.7616C17.94 10.8416 18.76 11.1716 18.77 11.1816C18.8 11.2016 18.83 11.1916 18.86 11.1716L19.99 10.2316L20.23 10.4516C19.88 10.8816 19.02 11.4816 19.01 11.4916C18.98 11.5016 18.96 11.5316 18.97 11.5716L19.11 13.0516ZM24.04 6.33156C24.0548 6.33709 24.0706 6.33907 24.0862 6.33733C24.1019 6.3356 24.1169 6.33019 24.13 6.32156L24.42 6.10156L24.33 6.37156C24.3259 6.38707 24.3256 6.40334 24.329 6.419C24.3325 6.43467 24.3397 6.44927 24.35 6.46156L24.49 6.58156C24.449 6.6584 24.4284 6.74447 24.43 6.83156L24.22 6.93156C24.2023 6.93958 24.1881 6.9538 24.18 6.97156L24.03 7.34156L23.95 7.03156C23.94 6.99156 23.9 6.96156 23.86 6.97156L23.49 7.02156L23.79 6.68156C23.81 6.66156 23.81 6.64156 23.81 6.61156L23.74 6.16156L24.04 6.33156ZM20.69 18.4916C20.6776 18.5009 20.6675 18.513 20.6606 18.5268C20.6537 18.5407 20.65 18.556 20.65 18.5716L20.7 18.9316L20.51 18.7216C20.4977 18.7113 20.4831 18.7041 20.4675 18.7006C20.4518 18.6971 20.4355 18.6974 20.42 18.7016L20.24 18.7616C20.1944 18.6878 20.1284 18.6287 20.05 18.5916L20.06 18.3616C20.0594 18.3431 20.0523 18.3254 20.04 18.3116L19.79 17.9916L20.1 18.0716C20.14 18.0816 20.18 18.0616 20.2 18.0216L20.34 17.6716L20.49 18.1016L20.54 18.1516L20.97 18.3116L20.69 18.4916ZM11.69 9.94156C11.69 9.91156 11.66 9.88156 11.64 9.87156L11.29 9.75156L11.57 9.67156C11.6 9.66156 11.62 9.63156 11.63 9.60156L11.65 9.41156C11.7356 9.3992 11.8175 9.3685 11.89 9.32156L12.09 9.43156L12.15 9.44156L12.54 9.36156L12.33 9.60156C12.316 9.61642 12.3081 9.6361 12.3081 9.65656C12.3081 9.67702 12.316 9.6967 12.33 9.71156L12.58 9.99156L12.13 9.93156C12.11 9.93156 12.08 9.93156 12.06 9.95156L11.73 10.2616L11.69 9.94156Z" fill="#FFE15A"/>
<path d="M18.9005 21.1014C18.7005 21.5014 18.2705 21.8414 18.1605 21.8614C18.1405 21.8614 18.1205 21.8614 18.1105 21.8414C18.0605 21.7814 18.0405 21.6314 18.1005 21.4314L18.1205 21.3514L18.9005 21.1014ZM19.0405 20.6914L18.9705 20.9114L18.1705 21.1814L18.2405 20.9414L19.0405 20.6914Z" fill="#F5F5F5"/>
<path d="M19.2198 20.2383L19.1098 20.4983L18.2998 20.7483L18.3698 20.4783L19.2198 20.2383Z" fill="#FFE15A"/>
<path d="M19.3797 19.91L19.3097 20.04L18.4097 20.28L18.5097 19.84L19.3797 19.91ZM19.6297 19.57L19.4797 19.75L18.5397 19.68L18.5597 19.46L18.5497 19.33H18.6597C18.8398 19.3409 19.0195 19.3029 19.1797 19.22C19.3297 19.44 19.4997 19.52 19.6297 19.57ZM19.8197 19.43C19.7597 19.42 19.4997 19.4 19.3197 19.14C19.3857 19.0829 19.4371 19.0109 19.4697 18.93C19.5697 18.65 18.8797 18.22 18.4597 17.99C18.2475 17.8482 18.078 17.6511 17.9697 17.42H18.0197C18.2297 17.42 18.3997 17.32 18.4897 17.25L18.7097 17.61C19.0097 18.12 19.1497 18.35 19.4597 18.57L19.4997 18.58C19.6497 18.6 20.0997 18.7 20.1297 18.9C20.1597 19.17 20.0597 19.34 19.8197 19.43Z" fill="#F5F5F5"/>
<path d="M19.3198 18.868C19.2798 18.978 19.1298 19.208 18.5398 19.168C18.4898 18.828 18.3398 18.578 18.0998 18.468C17.7898 18.318 16.6198 17.488 16.0898 16.988C16.1898 16.648 16.4698 16.378 16.8598 16.238L17.0098 16.168C17.1098 16.258 17.2098 16.348 17.2898 16.458C17.4098 16.628 17.5198 16.848 17.6298 17.078C17.8398 17.498 18.0498 17.938 18.3998 18.128C19.0298 18.488 19.3498 18.798 19.3198 18.868Z" fill="#F5F5F5"/>
<path d="M18.4 17.1097C18.3307 17.1723 18.247 17.217 18.1563 17.2396C18.0656 17.2623 17.9707 17.2623 17.88 17.2397L17.77 17.0097C17.674 16.7857 17.5568 16.5714 17.42 16.3697C17.34 16.2597 17.25 16.1697 17.15 16.0797C17.2061 16.0313 17.2511 15.9714 17.2822 15.9041C17.3132 15.8369 17.3295 15.7638 17.33 15.6897C17.59 15.9097 17.83 16.1897 18.06 16.5397L18.4 17.1097ZM17.17 15.5697L17.16 15.6597C17.15 15.7697 17.14 15.8797 17.01 15.9797C16.73 15.7797 16.42 15.6497 16.14 15.5597C16.26 15.4297 16.35 15.2997 16.39 15.1797C16.66 15.2497 16.92 15.3897 17.17 15.5697ZM16.85 16.0597L16.8 16.0797C16.6111 16.1418 16.4375 16.2436 16.291 16.3781C16.1444 16.5126 16.0282 16.6767 15.95 16.8597C15.79 16.6997 15.67 16.5497 15.58 16.4397C15.48 16.3097 15.39 16.2097 15.29 16.1297C15.59 15.9797 15.82 15.8297 16 15.6797H16.01C16.27 15.7697 16.58 15.8797 16.85 16.0597ZM15.85 15.5997C15.68 15.7297 15.44 15.8897 15.1 16.0497L14.88 15.9997C14.72 15.9697 14.61 15.9497 14.53 15.8597C14.48 15.8097 14.39 15.6597 14.29 15.4697L14.33 15.4897C14.43 15.5097 14.56 15.4697 14.73 15.4097C14.94 15.3397 15.19 15.2597 15.42 15.2797C15.63 15.3097 15.68 15.3897 15.75 15.4797L15.85 15.5997Z" fill="#F5F5F5"/>
<path d="M16.2402 15.1011C16.2102 15.2011 16.1402 15.3311 15.9802 15.4911C15.9396 15.4618 15.9056 15.4243 15.8802 15.3811C15.8102 15.2811 15.7202 15.1511 15.4402 15.1111C15.1702 15.0711 14.9002 15.1711 14.6802 15.2411C14.5602 15.2811 14.4202 15.3311 14.3702 15.3211C14.3102 15.3111 14.2402 15.2211 14.2402 15.1311C14.2402 15.0311 14.3302 14.9811 14.4002 14.9611C14.5702 14.9111 14.7802 14.9511 14.9802 14.9811C15.1902 15.0211 15.3802 15.0611 15.5402 14.9911C15.6502 14.9511 15.7702 14.8111 15.9202 14.6211C16.0202 14.6411 16.1102 14.6811 16.1702 14.7511C16.2502 14.8711 16.2702 14.9911 16.2402 15.1011Z" fill="#FFE15A"/>
<path d="M15.7393 14.6027C15.6393 14.7327 15.5493 14.8227 15.4793 14.8427C15.3693 14.8927 15.1894 14.8527 15.0094 14.8227C14.7937 14.766 14.568 14.7592 14.3494 14.8027C14.2566 14.8281 14.1754 14.8846 14.1193 14.9627C14.0793 14.7827 14.0794 14.6027 14.1694 14.4727C14.2494 14.3327 14.3594 14.2027 14.4694 14.0827C14.6194 14.1027 14.7294 14.1327 15.0994 14.4627C15.2294 14.5727 15.4294 14.5927 15.6294 14.5927L15.7393 14.6027ZM18.7894 13.2427C18.4194 13.4827 16.7894 14.5627 16.4394 14.7027L16.3993 14.7327L16.3694 14.7827C16.3498 14.7406 16.3263 14.7004 16.2993 14.6627C16.2349 14.5712 16.1386 14.507 16.0294 14.4827L16.1794 14.2827C16.7244 13.3791 17.5295 12.6611 18.4893 12.2227C18.5394 12.5827 18.6194 12.9927 18.7894 13.2427Z" fill="#F5F5F5"/>
<path d="M18.4896 12.0514C18.3196 12.1314 17.5096 12.5114 16.8996 13.1514C16.5796 13.4914 16.2896 13.8714 16.0696 14.1814L15.8696 14.4414L15.6596 14.4214C15.4796 14.4114 15.3096 14.4014 15.2196 14.3214C14.9096 14.0414 14.7596 13.9614 14.6196 13.9314L14.6596 13.8914C14.8696 13.6814 15.0796 13.4614 15.2496 13.1514C15.7628 12.3421 16.4164 11.6309 17.1796 11.0514L18.4796 11.6214C18.4696 11.7114 18.4696 11.8614 18.4896 12.0514ZM10.1596 7.17139C9.88959 6.80139 9.78959 6.27139 9.81959 6.16139C9.8276 6.14363 9.84183 6.12941 9.85959 6.12139C9.92959 6.10139 10.0796 6.15139 10.2296 6.30139L10.2896 6.35139L10.1596 7.17139ZM10.4696 7.48139L10.3096 7.32139L10.4296 6.48139L10.6096 6.65139L10.4696 7.48139Z" fill="#F5F5F5"/>
<path d="M10.7904 7.83906C10.7354 7.76491 10.6752 7.69474 10.6104 7.62906L10.7504 6.78906L10.9604 6.97906L10.7904 7.83906Z" fill="#FFE15A"/>
<path d="M11.0099 8.13156L10.9199 8.01156L11.0999 7.10156L11.4499 7.38156L11.0099 8.13156ZM11.1999 8.51156C11.1774 8.43379 11.1437 8.35969 11.0999 8.29156L11.5799 7.48156L11.7599 7.60156L11.8699 7.65156C11.8493 7.68279 11.8325 7.71636 11.8199 7.75156C11.7309 7.91062 11.6828 8.08931 11.6799 8.27156C11.4966 8.29227 11.3265 8.37731 11.1999 8.51156ZM11.2399 8.74156C11.2916 8.6563 11.3614 8.58344 11.4443 8.52814C11.5273 8.47284 11.6213 8.43645 11.7199 8.42156C11.7499 8.53156 11.7999 8.61156 11.8399 8.65156C12.0399 8.86156 12.7299 8.44156 13.1299 8.17156C13.3099 8.04156 13.5699 8.00156 13.8599 7.99156C13.7707 8.15674 13.7458 8.34909 13.7899 8.53156L13.3699 8.56156C12.7799 8.60156 12.5199 8.62156 12.1799 8.81156L12.1499 8.84156C12.0599 8.97156 11.7799 9.33156 11.5899 9.26156C11.3199 9.16156 11.2199 9.00156 11.2399 8.74156Z" fill="#F5F5F5"/>
<path d="M11.9598 8.54266C11.8798 8.46266 11.7398 8.22266 12.0398 7.70266C12.3698 7.81266 12.6498 7.78266 12.8598 7.61266C13.1298 7.40266 14.3998 6.72266 15.0798 6.47266C15.3298 6.71266 15.4498 7.08266 15.4098 7.50266L15.3998 7.66266C15.2798 7.72266 15.1498 7.76266 15.0198 7.78266C14.8098 7.81266 14.5698 7.81266 14.3198 7.81266C13.8498 7.81266 13.3698 7.80266 13.0398 8.03266C12.4298 8.45266 12.0198 8.60266 11.9598 8.54266Z" fill="#F5F5F5"/>
<path d="M13.9495 8.51138C13.9233 8.42238 13.9197 8.32827 13.9389 8.2375C13.9581 8.14674 13.9995 8.06216 14.0595 7.99138H14.3095C14.5695 7.99138 14.8195 8.00138 15.0395 7.96138C15.1695 7.94138 15.2995 7.90138 15.4195 7.85138C15.4363 7.92196 15.4683 7.98803 15.5132 8.04502C15.5581 8.102 15.6148 8.14853 15.6795 8.18138C15.3347 8.32391 14.9708 8.41489 14.5995 8.45138L13.9495 8.51138ZM15.8695 8.08138L15.7995 8.04138C15.6995 7.98138 15.6095 7.93138 15.5795 7.76138C15.8795 7.60138 16.1395 7.38138 16.3395 7.17138C16.3995 7.34138 16.4795 7.47138 16.5695 7.56138C16.3795 7.78138 16.1395 7.95138 15.8695 8.08138ZM15.5695 7.58138V7.53138C15.6195 7.09138 15.4995 6.70138 15.2595 6.42138C15.4795 6.35138 15.6595 6.31138 15.7995 6.28138C15.9595 6.25138 16.0895 6.22138 16.1995 6.15138C16.1995 6.48138 16.2295 6.76138 16.2795 6.99138V7.00138C16.0995 7.19138 15.8495 7.42138 15.5695 7.58138ZM16.4295 6.89138C16.3895 6.68138 16.3595 6.39138 16.3595 6.02138L16.4995 5.84138C16.5995 5.71138 16.6695 5.62138 16.7795 5.59138C16.9275 5.5611 17.0785 5.54768 17.2295 5.55138L17.1995 5.58138C17.1395 5.66138 17.1195 5.79138 17.0895 5.97138C17.0595 6.19138 17.0195 6.45138 16.8895 6.64138C16.7695 6.81138 16.6795 6.83138 16.5595 6.84138C16.5395 6.86138 16.4795 6.87138 16.4295 6.89138Z" fill="#F5F5F5"/>
<path d="M16.6997 7.46086C16.5873 7.34758 16.5078 7.20586 16.4697 7.05086L16.6097 7.01086C16.7297 6.99086 16.8897 6.97086 17.0397 6.73086C17.1897 6.51086 17.2297 6.22086 17.2597 5.99086C17.2797 5.86086 17.2997 5.72086 17.3297 5.68086C17.362 5.65593 17.4003 5.64002 17.4407 5.63474C17.4811 5.62947 17.5222 5.63504 17.5597 5.65086C17.6497 5.69086 17.6497 5.80086 17.6397 5.87086C17.6097 6.05086 17.4797 6.21086 17.3597 6.38086C17.2297 6.55086 17.1097 6.71086 17.0997 6.88086C17.0897 7.00086 17.1497 7.17086 17.2597 7.39086C17.1897 7.47086 17.1197 7.54086 17.0297 7.55086C16.9716 7.5644 16.911 7.56327 16.8534 7.54756C16.7957 7.53185 16.743 7.50205 16.6997 7.46086Z" fill="#FFE15A"/>
<path d="M17.3699 7.23891C17.2999 7.08891 17.2599 6.96891 17.2699 6.89891C17.2799 6.77891 17.3899 6.63891 17.4999 6.48891C17.6299 6.31891 17.7699 6.11891 17.8099 5.90891C17.8299 5.77891 17.8099 5.68891 17.7699 5.62891C17.9499 5.67891 18.0999 5.75891 18.1899 5.88891C18.2799 6.02891 18.3399 6.17891 18.3999 6.32891C18.3199 6.44891 18.2399 6.53891 17.7799 6.72891C17.6199 6.78891 17.5199 6.96891 17.4199 7.14891L17.3699 7.23891ZM17.2199 10.5789C17.1699 10.1389 16.9399 8.18891 16.9599 7.81891L16.9499 7.76891L16.9199 7.72891H17.0599C17.1684 7.70796 17.2668 7.6517 17.3399 7.56891L17.4499 7.79891C17.6399 8.15891 17.8399 8.56891 17.9899 8.98891C18.2499 9.71891 18.2599 10.5289 18.2499 10.7889C17.9299 10.7089 17.5599 10.6289 17.2199 10.5789Z" fill="#F5F5F5"/>
<path d="M18.4202 10.8395C18.4732 9.73691 18.187 8.64453 17.6002 7.70953L17.4502 7.41953L17.5602 7.23953C17.6502 7.07953 17.7402 6.93953 17.8402 6.88953C18.2302 6.72953 18.3702 6.63953 18.4602 6.51953L18.4802 6.56953C18.5802 6.84953 18.6802 7.13953 18.8702 7.42953C19.2102 7.92953 19.8002 9.32953 19.8802 10.0995L18.7902 11.0095L18.4202 10.8395ZM27.1902 6.62953C27.6402 6.60953 28.1402 6.82953 28.2102 6.90953L28.2202 6.96953C28.2002 7.03953 28.0702 7.12953 27.8702 7.16953C27.8427 7.17248 27.8158 7.17921 27.7902 7.18953L27.1902 6.62953ZM26.7502 6.70953L26.9702 6.65953L27.5902 7.22953L27.3502 7.27953L26.7502 6.70953Z" fill="#F5F5F5"/>
<path d="M26.2695 6.76828L26.5495 6.73828L27.1595 7.32828L26.8895 7.39828L26.2695 6.76828Z" fill="#FFE15A"/>
<path d="M25.9105 6.79159H26.0605L26.7105 7.46159L26.2805 7.59159L25.9105 6.79159ZM25.4905 6.73159L25.7205 6.77159L26.1205 7.63159C26.0105 7.67075 25.9062 7.72457 25.8105 7.79159C25.7979 7.75639 25.7811 7.72282 25.7605 7.69159C25.6815 7.52679 25.5609 7.38547 25.4105 7.28159C25.5057 7.11493 25.5342 6.91845 25.4905 6.73159ZM25.2805 6.63159C25.3005 6.68159 25.4105 6.93159 25.2705 7.21159C25.1878 7.17959 25.0983 7.16926 25.0105 7.18159C24.7205 7.23159 24.6805 8.04159 24.6805 8.52159C24.6805 8.75159 24.5705 8.98159 24.4205 9.23159L24.4005 9.19159C24.3145 9.04432 24.1803 8.93128 24.0205 8.87159L24.2305 8.50159C24.5305 7.99159 24.6605 7.76159 24.7005 7.37159L24.6905 7.33159C24.6305 7.19159 24.5005 6.75159 24.6605 6.63159C24.8905 6.46159 25.0805 6.47159 25.2805 6.63159Z" fill="#F5F5F5"/>
<path d="M25.0405 7.34067C25.1505 7.32067 25.4305 7.34067 25.6805 7.88067C25.4105 8.09067 25.2705 8.34067 25.2905 8.61067C25.3105 8.96067 25.1505 10.3807 24.9705 11.0907C24.6305 11.1607 24.2505 11.0507 23.9405 10.7807C23.8978 10.7466 23.8544 10.7133 23.8105 10.6807C23.8305 10.5507 23.8705 10.4207 23.9305 10.2907C24.0205 10.1007 24.1605 9.90067 24.3105 9.69067C24.5805 9.30067 24.8505 8.90067 24.8505 8.51067C24.8405 7.78067 24.9605 7.36067 25.0405 7.34067Z" fill="#F5F5F5"/>
<path d="M23.9504 9.01172C24.0304 9.03172 24.2604 9.15172 24.3204 9.40172L24.1804 9.61172C24.0304 9.83172 23.8904 10.0317 23.7904 10.2317C23.7304 10.3517 23.6904 10.4817 23.6704 10.6117C23.6025 10.5852 23.5296 10.5741 23.457 10.5793C23.3843 10.5845 23.3137 10.6058 23.2504 10.6417C23.3204 10.3017 23.4504 9.96172 23.6404 9.59172L23.9504 9.01172ZM23.2104 10.8417L23.2904 10.8017C23.3904 10.7517 23.4904 10.7117 23.6404 10.7717C23.6004 11.1117 23.6404 11.4517 23.6904 11.7317C23.5454 11.6832 23.3905 11.6729 23.2404 11.7017C23.1699 11.4204 23.1597 11.1273 23.2104 10.8417ZM23.7904 10.8717L23.8304 10.9017C24.1604 11.1917 24.5504 11.3217 24.9204 11.2717C24.8604 11.4917 24.7904 11.6617 24.7304 11.8017C24.6604 11.9517 24.6204 12.0817 24.6004 12.2017C24.3687 12.0397 24.1206 11.9022 23.8604 11.7917V11.7817C23.8104 11.5317 23.7604 11.2017 23.7904 10.8717ZM23.8704 11.9817C24.0704 12.0617 24.3204 12.2017 24.6304 12.4217C24.6504 12.5017 24.6704 12.5817 24.7004 12.6417C24.7504 12.8017 24.7804 12.9017 24.7404 13.0217C24.7204 13.0917 24.6404 13.2417 24.5204 13.4217V13.3817C24.4572 13.2607 24.3685 13.155 24.2604 13.0717C24.1004 12.9217 23.9004 12.7417 23.8204 12.5317C23.7404 12.3417 23.7904 12.2517 23.8404 12.1417C23.8304 12.0817 23.8604 12.0317 23.8704 11.9817Z" fill="#F5F5F5"/>
<path d="M23.2503 11.8706C23.3503 11.8406 23.5002 11.8406 23.7102 11.9106C23.7102 11.9606 23.6902 12.0006 23.6602 12.0406C23.6102 12.1506 23.5402 12.3006 23.6402 12.5606C23.7402 12.8106 23.9502 13.0106 24.1302 13.1706C24.2302 13.2606 24.3303 13.3506 24.3503 13.4006C24.3703 13.4606 24.3203 13.5606 24.2502 13.6106C24.1602 13.6606 24.0803 13.6006 24.0203 13.5506C23.8903 13.4306 23.8303 13.2306 23.7603 13.0306C23.6903 12.8306 23.6302 12.6406 23.5002 12.5306C23.3436 12.4414 23.1697 12.3869 22.9902 12.3706C22.9602 12.2706 22.9502 12.1706 22.9902 12.0906C23.0135 12.0362 23.0491 11.988 23.0942 11.9498C23.1394 11.9117 23.1928 11.8845 23.2503 11.8706Z" fill="#FFE15A"/>
<path d="M23.0506 12.5591C23.2106 12.5891 23.3306 12.6191 23.3906 12.6691C23.4806 12.7491 23.5406 12.9091 23.6006 13.0891C23.6706 13.2891 23.7506 13.5191 23.9006 13.6791C23.9906 13.7691 24.0806 13.7991 24.1506 13.8091C24.0298 13.928 23.8699 13.9991 23.7006 14.0091C23.5306 14.0091 23.3806 13.9691 23.2206 13.9291C23.1706 13.7891 23.1406 13.6791 23.2406 13.1891C23.2806 13.0191 23.1906 12.8391 23.1006 12.6591L23.0506 12.5591ZM20.3906 10.5391C21.2304 10.9592 22.0512 11.4163 22.8506 11.9091H22.9006C22.8511 11.9717 22.8165 12.0447 22.7991 12.1226C22.7818 12.2005 22.7823 12.2814 22.8006 12.3591L22.5506 12.3291C21.502 12.2717 20.4919 11.9141 19.6406 11.2991C19.8806 11.0791 20.1906 10.7991 20.3906 10.5391Z" fill="#F5F5F5"/>
<path d="M19.5002 11.3906C19.6502 11.5006 20.3802 12.0306 21.2302 12.2506C21.6802 12.3706 22.1502 12.4306 22.5402 12.4806L22.8702 12.5206L22.9602 12.7206C23.0402 12.8806 23.1102 13.0406 23.0902 13.1506C23.0002 13.5606 23.0002 13.7306 23.0402 13.8706L22.9902 13.8606C22.6895 13.7627 22.3762 13.7089 22.0602 13.7006C21.4502 13.7006 19.9702 13.3906 19.2902 13.0306L19.1602 11.6106L19.5002 11.3906Z" fill="#F5F5F5"/>
<path d="M28.3603 6.84821L28.3403 6.80821C28.2103 6.64821 27.4703 6.36821 26.9403 6.49821C26.3703 6.63821 25.6003 6.67821 25.4003 6.51821C25.1503 6.29821 24.8803 6.28821 24.6103 6.47821L24.5003 6.37821L24.6603 5.90821C24.6662 5.89698 24.6685 5.88416 24.6667 5.87158C24.6649 5.859 24.6591 5.84731 24.6503 5.83821L24.6303 5.80821C24.6151 5.79943 24.5978 5.79481 24.5803 5.79481C24.5627 5.79481 24.5455 5.79943 24.5303 5.80821L24.0603 6.15821L23.6603 5.95821C23.6303 5.94821 23.6003 5.94821 23.5803 5.96821C23.5603 5.98821 23.5403 6.01821 23.5503 6.04821L23.6303 6.61821L23.2103 7.09821C23.1903 7.12821 23.1803 7.15821 23.2003 7.18821C23.2203 7.20821 23.2503 7.23821 23.2803 7.22821L23.8003 7.15821L23.9303 7.62821C23.9403 7.65821 23.9703 7.68821 24.0003 7.68821C24.0303 7.68821 24.0703 7.66821 24.0803 7.63821L24.3103 7.06821L24.4303 7.00821C24.4503 7.16821 24.5003 7.30821 24.5203 7.36821C24.45 7.74724 24.2963 8.10589 24.0703 8.41821C23.9103 8.68821 23.7103 9.02821 23.4603 9.51821C23.0629 10.1892 22.9175 10.9798 23.0503 11.7482H22.8603C22.4703 11.4582 20.4503 10.4082 20.3603 10.3582L20.0303 10.0682C19.8467 9.10416 19.4947 8.18002 18.9903 7.33821C18.8003 7.06821 18.7103 6.78821 18.6203 6.51821C18.5303 6.26821 18.4503 6.02821 18.3103 5.80821C18.0103 5.29821 17.0003 5.36821 16.7503 5.42821C16.5803 5.47821 16.4803 5.59821 16.3803 5.73821L16.2303 5.92821C16.1303 6.03821 15.9903 6.06821 15.7703 6.11821C15.5903 6.15821 15.3703 6.19821 15.0803 6.30821C14.4003 6.54821 13.0503 7.26821 12.7703 7.49821C12.4903 7.71821 12.0703 7.56821 11.8503 7.45821C11.3152 7.07417 10.8103 6.64958 10.3403 6.18821C10.1603 6.01821 9.96027 5.92821 9.81027 5.96821C9.78192 5.97256 9.75514 5.98401 9.73241 6.00149C9.70968 6.01898 9.69174 6.04193 9.68027 6.06821L9.66027 6.10821C9.60027 6.30821 9.79027 7.07821 10.2003 7.44821C10.6403 7.83821 11.1103 8.45821 11.0803 8.70821C11.0403 9.03821 11.1903 9.26821 11.4903 9.38821L11.4703 9.53821L10.9903 9.66821L10.9403 9.70821L10.9303 9.7382C10.9303 9.7782 10.9503 9.8082 10.9903 9.8182L11.5403 10.0082L11.6003 10.4482C11.6003 10.4782 11.6203 10.5082 11.6503 10.5182C11.6803 10.5282 11.7103 10.5182 11.7303 10.4982L12.1503 10.1082L12.7803 10.1882C12.8103 10.1882 12.8503 10.1782 12.8603 10.1482C12.8703 10.1282 12.8703 10.0782 12.8503 10.0582L12.5003 9.65821L12.8203 9.28821C12.8403 9.25821 12.8503 9.2182 12.8303 9.18821C12.8103 9.15821 12.7803 9.13821 12.7403 9.14821L12.1403 9.27821L12.0203 9.21821C12.1403 9.10821 12.2303 8.9882 12.2603 8.93821C12.5603 8.7782 12.8203 8.75821 13.3703 8.71821C13.6903 8.69821 14.0703 8.66821 14.6203 8.59821C15.5303 8.48821 16.2203 8.17821 16.6803 7.67821L16.7903 7.83821C16.7703 8.32821 17.0503 10.5982 17.0603 10.6882V10.9282C16.2833 11.5245 15.6166 12.2522 15.0903 13.0782C14.9303 13.3682 14.7203 13.5782 14.5203 13.7782C14.3403 13.9682 14.1603 14.1482 14.0203 14.3782C13.7203 14.8882 14.2303 15.7682 14.4003 15.9582C14.5203 16.0882 14.6703 16.1182 14.8403 16.1582L15.0703 16.2082C15.2103 16.2482 15.3003 16.3582 15.4403 16.5382C15.5503 16.6782 15.6903 16.8582 15.9103 17.0682C16.5573 17.6486 17.257 18.1675 18.0003 18.6182C18.3203 18.7682 18.3703 19.2082 18.3703 19.4582C18.3703 19.8082 18.0203 21.0382 17.9103 21.3782C17.8303 21.6182 17.8503 21.8282 17.9503 21.9482C17.9903 21.9982 18.0503 22.0282 18.1103 22.0282H18.1503C18.3503 21.9882 18.9603 21.4782 19.1003 20.9482C19.2503 20.3782 19.6003 19.6782 19.8303 19.5882C20.1403 19.4782 20.2803 19.2382 20.2503 18.9182L20.3903 18.8682L20.7203 19.2382L20.7803 19.2682L20.8103 19.2582C20.826 19.2491 20.8389 19.236 20.8477 19.2201C20.8565 19.2043 20.8609 19.1863 20.8603 19.1682L20.7803 18.5882L21.1503 18.3382C21.1627 18.3289 21.1728 18.3168 21.1797 18.3029C21.1867 18.289 21.1903 18.2737 21.1903 18.2582C21.1895 18.243 21.1843 18.2283 21.1755 18.2159C21.1666 18.2035 21.1544 18.1939 21.1403 18.1882L20.6003 17.9882L20.3903 17.3882C20.3803 17.3582 20.3503 17.3382 20.3103 17.3382C20.2803 17.3382 20.2403 17.3582 20.2303 17.3882L20.0403 17.8782L19.5703 17.7582C19.5303 17.7482 19.5003 17.7682 19.4803 17.7982C19.4715 17.8134 19.4669 17.8307 19.4669 17.8482C19.4669 17.8658 19.4715 17.883 19.4803 17.8982L19.8603 18.3782V18.5082C19.7103 18.4482 19.5603 18.4282 19.5003 18.4182C19.2203 18.2182 19.0903 17.9982 18.8003 17.5182C18.6403 17.2482 18.4403 16.9082 18.1403 16.4482C17.7521 15.7708 17.1297 15.2587 16.3903 15.0082L16.4803 14.8382C16.9303 14.6382 18.8203 13.3782 18.9003 13.3182L19.1603 13.1682C19.8703 13.5482 21.3603 13.8482 21.9903 13.8482C22.3203 13.8482 22.6003 13.9282 22.8803 14.0082C23.1403 14.0782 23.3803 14.1482 23.6403 14.1482C24.2303 14.1682 24.7503 13.2882 24.8303 13.0482C24.8903 12.8782 24.8403 12.7282 24.7903 12.5682C24.7687 12.491 24.7454 12.4143 24.7203 12.3382C24.6803 12.1882 24.7403 12.0582 24.8303 11.8482C24.9003 11.6782 24.9903 11.4682 25.0703 11.1782C25.2503 10.4782 25.4203 8.95821 25.4003 8.58821C25.4303 8.23821 25.7903 7.98821 26.0003 7.86821C26.3003 7.69821 27.5403 7.40821 27.9003 7.33821C28.1403 7.28821 28.3203 7.16821 28.3803 7.02821C28.3903 6.95821 28.3903 6.89821 28.3603 6.84821ZM24.4303 6.82821L24.2203 6.92821C24.2025 6.93622 24.1883 6.95045 24.1803 6.96821L24.0303 7.33821L23.9503 7.02821C23.9403 6.98821 23.9003 6.95821 23.8603 6.96821L23.4903 7.01821L23.7903 6.67821C23.8103 6.65821 23.8103 6.63821 23.8103 6.60821L23.7403 6.15821L24.0403 6.30821C24.055 6.31374 24.0708 6.31571 24.0865 6.31398C24.1021 6.31224 24.1171 6.30684 24.1303 6.29821L24.4203 6.07821L24.3303 6.34821C24.3261 6.36371 24.3258 6.37998 24.3293 6.39565C24.3328 6.41131 24.34 6.42591 24.3503 6.43821L24.4903 6.55821C24.4525 6.64332 24.4321 6.73511 24.4303 6.82821ZM24.2303 8.49821C24.5303 7.98821 24.6603 7.75821 24.7003 7.36821L24.6903 7.32821C24.6303 7.18821 24.5003 6.74821 24.6603 6.62821C24.8803 6.46821 25.0703 6.46821 25.2703 6.63821C25.2903 6.68821 25.4003 6.93821 25.2603 7.21821C25.1776 7.1862 25.0881 7.17587 25.0003 7.18821C24.7103 7.23821 24.6703 8.04821 24.6703 8.52821C24.6703 8.75821 24.5603 8.98821 24.4103 9.23821L24.3903 9.19821C24.3043 9.05094 24.17 8.9379 24.0103 8.87821L24.2303 8.49821ZM23.6303 9.58821L23.9503 8.99821C24.0303 9.01821 24.2603 9.13821 24.3203 9.38821L24.1803 9.59821C24.0303 9.81821 23.8903 10.0182 23.7903 10.2182C23.7303 10.3382 23.6903 10.4682 23.6703 10.5982C23.6024 10.5717 23.5295 10.5606 23.4569 10.5658C23.3842 10.571 23.3136 10.5923 23.2503 10.6282C23.3103 10.3082 23.4403 9.95821 23.6303 9.58821ZM23.2103 10.8382L23.2903 10.7982C23.3903 10.7482 23.4903 10.7082 23.6403 10.7682C23.6003 11.1082 23.6403 11.4482 23.6903 11.7282C23.5453 11.6797 23.3904 11.6694 23.2403 11.6982C23.1698 11.4168 23.1596 11.1238 23.2103 10.8382ZM22.8503 11.9082H22.9003C22.8508 11.9708 22.8161 12.0438 22.7988 12.1218C22.7815 12.1997 22.782 12.2805 22.8003 12.3582L22.5503 12.3282C21.5016 12.2708 20.4915 11.9133 19.6403 11.2982C19.8503 11.0982 20.1403 10.8682 20.3903 10.5482C20.7803 10.7482 22.5203 11.6682 22.8003 11.8982L22.8503 11.9082ZM19.1103 13.0482L18.9303 13.1582C18.6203 12.7082 18.6303 11.5982 18.6303 11.5782C18.6303 11.5482 18.6103 11.5182 18.5803 11.4982L17.2203 10.8982L17.2303 10.7582C17.9403 10.8382 18.7603 11.1682 18.7703 11.1782C18.8003 11.1982 18.8303 11.1882 18.8603 11.1682L19.9903 10.2282L20.2303 10.4482C19.8803 10.8782 19.0203 11.4782 19.0103 11.4882C18.9803 11.4982 18.9603 11.5282 18.9703 11.5682L19.1103 13.0482ZM18.4703 6.51821L18.4903 6.56821C18.5903 6.84821 18.6903 7.13821 18.8803 7.42821C19.2203 7.92821 19.8103 9.32821 19.8903 10.0982L18.8003 11.0082L18.4203 10.8382C18.4733 9.73558 18.1871 8.6432 17.6003 7.70821L17.4503 7.41821L17.5603 7.23821C17.6503 7.07821 17.7403 6.93821 17.8403 6.88821C18.2303 6.72821 18.3703 6.62821 18.4703 6.51821ZM18.1903 5.88821C18.2803 6.02821 18.3403 6.17821 18.4003 6.32821C18.3203 6.44821 18.2403 6.53821 17.7803 6.72821C17.6203 6.78821 17.5203 6.96821 17.4203 7.14821C17.3998 7.17593 17.383 7.20618 17.3703 7.23821C17.3003 7.08821 17.2603 6.96821 17.2703 6.89821C17.2803 6.77821 17.3903 6.63821 17.5003 6.48821C17.6303 6.31821 17.7703 6.11821 17.8103 5.90821C17.8303 5.77821 17.8103 5.68821 17.7703 5.62821C17.9503 5.67821 18.1003 5.75821 18.1903 5.88821ZM16.5103 5.83821C16.6103 5.70821 16.6803 5.61821 16.7903 5.58821C16.9383 5.55792 17.0892 5.5445 17.2403 5.54821L17.2103 5.57821C17.1503 5.65821 17.1303 5.78821 17.1003 5.96821C17.0703 6.18821 17.0303 6.44821 16.9003 6.63821C16.7803 6.80821 16.6903 6.82821 16.5703 6.83821L16.4203 6.87821C16.3803 6.66821 16.3503 6.37821 16.3503 6.00821C16.4136 5.96183 16.4678 5.9042 16.5103 5.83821ZM15.8003 6.27821C15.9603 6.24821 16.0903 6.21821 16.2003 6.14821C16.2003 6.47821 16.2303 6.75821 16.2803 6.98821V6.99821C16.1003 7.18821 15.8503 7.41821 15.5703 7.57821V7.52821C15.6203 7.08821 15.5003 6.69821 15.2603 6.41821C15.4703 6.34821 15.6503 6.30821 15.8003 6.27821ZM12.8603 7.61821C13.1303 7.40821 14.4003 6.72821 15.0803 6.47821C15.3303 6.71821 15.4503 7.08821 15.4103 7.50821L15.4003 7.66821C15.2803 7.72821 15.1503 7.76821 15.0203 7.78821C14.8103 7.81821 14.5703 7.81821 14.3203 7.81821C13.8503 7.81821 13.3703 7.80821 13.0403 8.03821C12.4403 8.45821 12.0203 8.60821 11.9703 8.54821C11.8903 8.46821 11.7503 8.22821 12.0503 7.70821C12.3703 7.80821 12.6603 7.77821 12.8603 7.61821ZM10.1603 7.16821C9.89027 6.79821 9.79027 6.26821 9.82027 6.15821C9.82828 6.14045 9.84251 6.12622 9.86027 6.11821C9.93027 6.09821 10.0803 6.14821 10.2303 6.29821L10.2903 6.34821L10.1603 7.16821ZM10.4703 7.47821L10.3103 7.31821L10.4303 6.47821L10.6103 6.64821L10.4703 7.47821ZM10.6103 7.62821L10.7503 6.78821L10.9603 6.97821L10.7903 7.84821L10.6103 7.62821ZM11.0103 8.12821L10.9203 8.00821L11.1003 7.09821L11.4503 7.37821L11.0103 8.12821ZM11.1103 8.28821L11.5903 7.47821L11.7703 7.59821L11.8803 7.64821C11.8597 7.67943 11.8429 7.713 11.8303 7.74821C11.7412 7.90726 11.6931 8.08595 11.6903 8.26821C11.5028 8.29183 11.3294 8.38026 11.2003 8.51821C11.179 8.4384 11.1488 8.36125 11.1103 8.28821ZM12.0903 9.4382L12.1503 9.4482L12.5403 9.36821L12.3303 9.6082C12.3162 9.62306 12.3084 9.64275 12.3084 9.66321C12.3084 9.68367 12.3162 9.70335 12.3303 9.71821L12.5803 9.99821L12.1303 9.9382C12.1103 9.9382 12.0803 9.93821 12.0603 9.95821L11.7303 10.2682L11.6903 9.9382C11.6903 9.9082 11.6603 9.87821 11.6403 9.86821L11.2903 9.74821L11.5703 9.66821C11.6003 9.65821 11.6203 9.62821 11.6303 9.59821L11.6503 9.40821C11.7358 9.39584 11.8177 9.36514 11.8903 9.31821L12.0903 9.4382ZM13.8303 8.02821C13.7574 8.18438 13.7398 8.36069 13.7803 8.52821L13.3603 8.55821C12.7703 8.59821 12.5103 8.61821 12.1703 8.80821L12.1403 8.83821C12.0503 8.96821 11.7703 9.32821 11.5803 9.25821C11.3203 9.16821 11.2103 9.00821 11.2403 8.74821C11.2919 8.66294 11.3617 8.59008 11.4447 8.53478C11.5276 8.47948 11.6217 8.4431 11.7203 8.42821C11.7503 8.53821 11.8003 8.61821 11.8403 8.65821C12.0403 8.86821 12.7303 8.44821 13.1303 8.17821C13.3103 8.04821 13.5703 8.00821 13.8603 7.99821L13.8303 8.02821ZM14.6103 8.43821L13.9503 8.50821C13.9241 8.4192 13.9204 8.32509 13.9396 8.23432C13.9588 8.14356 14.0003 8.05899 14.0603 7.98821H14.3103C14.5703 7.98821 14.8203 7.99821 15.0403 7.95821C15.1703 7.93821 15.3003 7.89821 15.4203 7.84821C15.4371 7.91878 15.469 7.98485 15.5139 8.04184C15.5588 8.09882 15.6156 8.14536 15.6803 8.17821C15.3703 8.29821 15.0203 8.38821 14.6103 8.43821ZM16.5703 7.56821C16.3803 7.77821 16.1503 7.94821 15.8703 8.07821L15.8003 8.03821C15.7003 7.97821 15.6103 7.92821 15.5803 7.75821C15.8803 7.59821 16.1403 7.37821 16.3403 7.16821C16.4003 7.33821 16.4703 7.46821 16.5703 7.56821C16.5703 7.55821 16.5703 7.55821 16.5703 7.56821ZM16.7003 7.45821C16.5878 7.34492 16.5083 7.2032 16.4703 7.04821L16.6103 7.00821C16.7303 6.98821 16.8903 6.96821 17.0403 6.72821C17.1903 6.50821 17.2303 6.21821 17.2603 5.98821C17.2803 5.85821 17.3003 5.71821 17.3303 5.67821C17.3625 5.65328 17.4008 5.63736 17.4412 5.63209C17.4816 5.62682 17.5227 5.63238 17.5603 5.64821C17.6503 5.68821 17.6503 5.79821 17.6403 5.86821C17.6103 6.04821 17.4803 6.20821 17.3603 6.37821C17.2303 6.54821 17.1103 6.70821 17.1003 6.87821C17.0903 6.99821 17.1503 7.16821 17.2603 7.38821C17.1903 7.46821 17.1203 7.53821 17.0303 7.54821C16.9721 7.56175 16.9115 7.56061 16.8539 7.5449C16.7963 7.52919 16.7435 7.4994 16.7003 7.45821ZM16.9603 7.81821L16.9503 7.76821L16.9203 7.72821H17.0603C17.1687 7.70726 17.2672 7.651 17.3403 7.56821L17.4503 7.79821C17.6403 8.15821 17.8403 8.56821 17.9903 8.98821C18.2503 9.71821 18.2603 10.5282 18.2503 10.7882C17.9303 10.7182 17.6103 10.6482 17.2103 10.5882C17.1703 10.1382 16.9403 8.18821 16.9603 7.81821ZM14.6503 13.8982C14.8603 13.6882 15.0703 13.4682 15.2403 13.1582C15.7535 12.3489 16.4071 11.6377 17.1703 11.0582L18.4703 11.6282C18.4703 11.7082 18.4703 11.8582 18.4903 12.0482C18.3203 12.1282 17.5103 12.5082 16.9003 13.1482C16.5803 13.4882 16.2903 13.8682 16.0703 14.1782L15.8703 14.4382L15.6603 14.4182C15.4803 14.4082 15.3103 14.3982 15.2203 14.3182C14.9103 14.0382 14.7603 13.9582 14.6203 13.9282L14.6503 13.8982ZM14.1303 14.9582C14.0903 14.7782 14.0903 14.5982 14.1803 14.4682C14.2603 14.3282 14.3703 14.1982 14.4803 14.0782C14.6303 14.0982 14.7403 14.1282 15.1103 14.4582C15.2403 14.5682 15.4403 14.5882 15.6403 14.5882L15.7403 14.5982C15.6403 14.7282 15.5503 14.8182 15.4803 14.8382C15.3703 14.8882 15.1903 14.8482 15.0103 14.8182C14.7946 14.7616 14.5689 14.7547 14.3503 14.7982C14.2616 14.8263 14.1844 14.8825 14.1303 14.9582ZM14.4103 14.9582C14.5803 14.9082 14.7903 14.9482 14.9903 14.9782C15.2003 15.0182 15.3903 15.0582 15.5503 14.9882C15.6603 14.9482 15.7803 14.8082 15.9303 14.6182C16.0303 14.6382 16.1203 14.6782 16.1803 14.7482C16.2603 14.8582 16.2803 14.9682 16.2503 15.0882C16.2203 15.1882 16.1503 15.3182 15.9903 15.4782C15.9496 15.4489 15.9156 15.4114 15.8903 15.3682C15.8203 15.2682 15.7303 15.1382 15.4503 15.0982C15.1803 15.0582 14.9103 15.1582 14.6903 15.2282C14.5703 15.2682 14.4303 15.3182 14.3803 15.3082C14.3203 15.2982 14.2503 15.2082 14.2503 15.1182C14.2403 15.0282 14.3303 14.9882 14.4103 14.9582ZM15.1103 16.0482L14.8903 15.9982C14.7303 15.9682 14.6203 15.9482 14.5403 15.8582C14.4903 15.8082 14.4003 15.6582 14.3003 15.4682L14.3403 15.4882C14.4403 15.5082 14.5703 15.4682 14.7403 15.4082C14.9503 15.3382 15.2003 15.2582 15.4303 15.2782C15.6403 15.3082 15.6903 15.3882 15.7603 15.4782L15.8603 15.5982C15.6803 15.7282 15.4403 15.8782 15.1103 16.0482ZM15.5903 16.4382C15.4903 16.3082 15.4003 16.2082 15.3003 16.1282C15.6003 15.9782 15.8303 15.8282 16.0103 15.6782H16.0203C16.2803 15.7582 16.5903 15.8782 16.8603 16.0582L16.8103 16.0782C16.6213 16.1404 16.4478 16.2421 16.3012 16.3766C16.1546 16.5111 16.0384 16.6753 15.9603 16.8582C15.8003 16.6982 15.6803 16.5582 15.5903 16.4382ZM18.0903 18.4782C17.7803 18.3282 16.6103 17.4982 16.0803 16.9982C16.1803 16.6582 16.4603 16.3882 16.8503 16.2482L17.0003 16.1782C17.1003 16.2682 17.2003 16.3582 17.2803 16.4682C17.4003 16.6382 17.5103 16.8582 17.6203 17.0882C17.8303 17.5082 18.0403 17.9482 18.3903 18.1382C19.0303 18.4982 19.3503 18.7982 19.3203 18.8782C19.2803 18.9882 19.1303 19.2182 18.5403 19.1782C18.4903 18.8282 18.3303 18.5882 18.0903 18.4782ZM18.1603 21.8582C18.1403 21.8582 18.1203 21.8582 18.1103 21.8382C18.0603 21.7782 18.0403 21.6282 18.1003 21.4282L18.1203 21.3482L18.9003 21.0882C18.7003 21.5082 18.2703 21.8382 18.1603 21.8582ZM18.9803 20.8982L18.1803 21.1682L18.2503 20.9282L19.0503 20.6782L18.9803 20.8982ZM19.1103 20.4882L18.3003 20.7382L18.3703 20.4682L19.2203 20.2382L19.1103 20.4882ZM19.3103 20.0382L18.4103 20.2782L18.5103 19.8382L19.3803 19.8982L19.3103 20.0382ZM19.4803 19.7482L18.5403 19.6782L18.5603 19.4582L18.5503 19.3282H18.6603C18.8403 19.3391 19.02 19.3011 19.1803 19.2182C19.3103 19.4182 19.4903 19.5082 19.6203 19.5482L19.4803 19.7482ZM19.8003 17.9882L20.1103 18.0682C20.1503 18.0782 20.1903 18.0582 20.2103 18.0182L20.3503 17.6682L20.5003 18.0982L20.5503 18.1482L20.9803 18.3082L20.7003 18.4982C20.6878 18.5075 20.6778 18.5196 20.6708 18.5335C20.6639 18.5474 20.6603 18.5627 20.6603 18.5782L20.7103 18.9382L20.5203 18.7282C20.508 18.7179 20.4934 18.7107 20.4777 18.7072C20.462 18.7037 20.4458 18.7041 20.4303 18.7082L20.2503 18.7682C20.2046 18.6944 20.1387 18.6354 20.0603 18.5982L20.0703 18.3682C20.0696 18.3497 20.0625 18.3321 20.0503 18.3182L19.8003 17.9882ZM18.7103 17.6082C19.0103 18.1182 19.1503 18.3482 19.4603 18.5682L19.5003 18.5782C19.6503 18.5982 20.1003 18.6982 20.1303 18.8982C20.1703 19.1682 20.0703 19.3382 19.8303 19.4282C19.7703 19.4182 19.5103 19.3982 19.3303 19.1382C19.3962 19.0811 19.4476 19.0091 19.4803 18.9282C19.5803 18.6482 18.8903 18.2182 18.4703 17.9882C18.258 17.8464 18.0886 17.6493 17.9803 17.4182H18.0303C18.2403 17.4182 18.4103 17.3182 18.5003 17.2482L18.7103 17.6082ZM18.0503 16.5482L18.4103 17.1082C18.3409 17.1708 18.2572 17.2155 18.1665 17.2381C18.0758 17.2608 17.981 17.2608 17.8903 17.2382L17.7803 17.0082C17.6842 16.7842 17.567 16.5699 17.4303 16.3682C17.3503 16.2582 17.2603 16.1682 17.1603 16.0782C17.2163 16.0298 17.2614 15.9699 17.2924 15.9027C17.3235 15.8354 17.3398 15.7623 17.3403 15.6882C17.5803 15.9182 17.8203 16.1982 18.0503 16.5482ZM17.1703 15.5682L17.1603 15.6582C17.1503 15.7682 17.1403 15.8782 17.0103 15.9782C16.7303 15.7782 16.4203 15.6482 16.1403 15.5582C16.2603 15.4282 16.3503 15.2982 16.3903 15.1782C16.6603 15.2482 16.9203 15.3882 17.1703 15.5682ZM16.4403 14.7082L16.4003 14.7382L16.3703 14.7882C16.3507 14.7461 16.3273 14.706 16.3003 14.6682C16.2358 14.5767 16.1395 14.5125 16.0303 14.4882L16.1803 14.2882C16.7253 13.3846 17.5304 12.6666 18.4903 12.2282C18.5303 12.5782 18.6003 12.9882 18.7803 13.2482C18.4203 13.4882 16.7903 14.5682 16.4403 14.7082ZM23.0703 13.1482C22.9803 13.5582 22.9803 13.7282 23.0203 13.8682L22.9703 13.8582C22.6696 13.7603 22.3564 13.7064 22.0403 13.6982C21.4303 13.6982 19.9503 13.3882 19.2703 13.0282L19.1403 11.6082L19.5003 11.3882C19.6503 11.4982 20.3803 12.0282 21.2303 12.2482C21.6803 12.3682 22.1503 12.4282 22.5403 12.4782L22.8703 12.5182L22.9603 12.7182C23.0303 12.8782 23.1003 13.0382 23.0703 13.1482ZM23.7003 13.9982C23.5303 13.9982 23.3803 13.9582 23.2203 13.9182C23.1703 13.7782 23.1403 13.6682 23.2403 13.1782C23.2803 13.0082 23.1903 12.8282 23.1003 12.6482L23.0603 12.5582C23.2203 12.5882 23.3403 12.6182 23.4003 12.6682C23.4903 12.7482 23.5503 12.9082 23.6103 13.0882C23.6803 13.2882 23.7603 13.5182 23.9103 13.6782C24.0003 13.7682 24.0903 13.7982 24.1603 13.8082C24.031 13.9188 23.8699 13.9854 23.7003 13.9982ZM24.2403 13.6082C24.1503 13.6582 24.0703 13.5982 24.0103 13.5482C23.8803 13.4282 23.8203 13.2282 23.7503 13.0282C23.6803 12.8282 23.6203 12.6382 23.4903 12.5282C23.3337 12.439 23.1598 12.3845 22.9803 12.3682C22.9503 12.2682 22.9403 12.1682 22.9803 12.0882C23.0058 12.0336 23.0433 11.9854 23.0901 11.9473C23.1368 11.9092 23.1916 11.8821 23.2503 11.8682C23.3503 11.8382 23.5003 11.8382 23.7103 11.9082C23.7103 11.9582 23.6903 11.9982 23.6603 12.0382C23.6103 12.1482 23.5403 12.2982 23.6403 12.5582C23.7403 12.8082 23.9503 13.0082 24.1303 13.1682C24.2303 13.2582 24.3303 13.3482 24.3503 13.3982C24.3527 13.4399 24.3438 13.4815 24.3244 13.5185C24.305 13.5555 24.2759 13.5865 24.2403 13.6082ZM24.7303 13.0082C24.7103 13.0782 24.6303 13.2282 24.5103 13.4082V13.3682C24.4471 13.2472 24.3584 13.1414 24.2503 13.0582C24.0903 12.9082 23.8903 12.7282 23.8103 12.5182C23.7303 12.3282 23.7803 12.2382 23.8303 12.1282L23.8803 11.9782C24.0803 12.0582 24.3303 12.1982 24.6403 12.4182C24.6603 12.4982 24.6803 12.5782 24.7103 12.6382C24.7403 12.7882 24.7703 12.8882 24.7303 13.0082ZM24.7303 11.7982C24.6603 11.9482 24.6203 12.0782 24.6003 12.1982C24.3686 12.0361 24.1205 11.8987 23.8603 11.7882V11.7782C23.8003 11.5182 23.7603 11.1882 23.7803 10.8582L23.8203 10.8882C24.1503 11.1782 24.5403 11.3082 24.9103 11.2582C24.8603 11.4882 24.7903 11.6582 24.7303 11.7982ZM25.2903 8.60821C25.3103 8.9582 25.1503 10.3782 24.9703 11.0882C24.6303 11.1582 24.2503 11.0482 23.9403 10.7782C23.8975 10.7441 23.8542 10.7108 23.8103 10.6782C23.8303 10.5482 23.8703 10.4182 23.9303 10.2882C24.0203 10.0982 24.1603 9.8982 24.3103 9.6882C24.5803 9.2982 24.8503 8.89821 24.8503 8.50821C24.8503 7.76821 24.9603 7.34821 25.0403 7.32821C25.1503 7.30821 25.4303 7.32821 25.6803 7.86821C25.4103 8.09821 25.2703 8.34821 25.2903 8.60821ZM25.9203 7.71821C25.8814 7.73791 25.8446 7.76135 25.8103 7.78821C25.7976 7.753 25.7809 7.71943 25.7603 7.68821C25.6813 7.52341 25.5606 7.38208 25.4103 7.27821C25.4984 7.10908 25.5232 6.91402 25.4803 6.72821L25.7103 6.76821L26.1103 7.62821L25.9203 7.71821ZM26.2803 7.57821L25.9103 6.78821H26.0603L26.7103 7.45821C26.5503 7.48821 26.4103 7.53821 26.2803 7.57821ZM26.8903 7.39821L26.2703 6.76821L26.5503 6.73821L27.1603 7.32821L26.8903 7.39821ZM27.3503 7.28821L26.7503 6.70821L26.9703 6.65821L27.5903 7.22821C27.5109 7.25056 27.4308 7.27057 27.3503 7.28821ZM27.8703 7.16821C27.8428 7.17116 27.8159 7.17789 27.7903 7.18821L27.1903 6.62821C27.6403 6.60821 28.1403 6.82821 28.2103 6.90821L28.2203 6.96821C28.1903 7.03821 28.0703 7.12821 27.8703 7.16821Z" fill="#464655"/>
</g>
</g>
<defs>
<clipPath id="clip0_26003_70171">
<rect width="38" height="25" fill="white" transform="translate(0 0.5)"/>
</clipPath>
<clipPath id="clip1_26003_70171">
<rect width="38" height="25" fill="white" transform="translate(0 0.5)"/>
</clipPath>
</defs>
</svg>
