<svg width="38" height="26" viewBox="0 0 38 26" fill="none" xmlns="http://www.w3.org/2000/svg">
<g clip-path="url(#clip0_26001_50262)">
<g clip-path="url(#clip1_26001_50262)">
<path fill-rule="evenodd" clip-rule="evenodd" d="M2.4998 25.1109H35.5998C36.5998 24.9109 37.3998 24.2109 37.7998 23.2109H0.299805C0.699805 24.2109 1.4998 24.9109 2.4998 25.1109Z" fill="#D0272C"/>
<path fill-rule="evenodd" clip-rule="evenodd" d="M0.3 23.2086H37.8C37.9 22.9086 38 22.6086 38.1 22.2086V21.3086H0V22.2086C0 22.5086 0.1 22.9086 0.3 23.2086Z" fill="#FEFEFE"/>
<path fill-rule="evenodd" clip-rule="evenodd" d="M0 19.3086H38V21.2086H0V19.3086Z" fill="#D0272C"/>
<path fill-rule="evenodd" clip-rule="evenodd" d="M0 17.4102H38V19.3102H0V17.4102Z" fill="#FEFEFE"/>
<path fill-rule="evenodd" clip-rule="evenodd" d="M0 15.5078H38V17.4078H0V15.5078Z" fill="#D0272C"/>
<path fill-rule="evenodd" clip-rule="evenodd" d="M0 13.6094H38V15.5094H0V13.6094Z" fill="#FEFEFE"/>
<path fill-rule="evenodd" clip-rule="evenodd" d="M0 11.6094H38V13.5094H0V11.6094Z" fill="#D0272C"/>
<path fill-rule="evenodd" clip-rule="evenodd" d="M0 9.71094H38V11.6109H0V9.71094Z" fill="#FEFEFE"/>
<path fill-rule="evenodd" clip-rule="evenodd" d="M0 7.80859H38V9.70859H0V7.80859Z" fill="#D0272C"/>
<path fill-rule="evenodd" clip-rule="evenodd" d="M0 5.91016H38V7.81016H0V5.91016Z" fill="#FEFEFE"/>
<path fill-rule="evenodd" clip-rule="evenodd" d="M0 3.91016H38V5.81016H0V3.91016Z" fill="#D0272C"/>
<path fill-rule="evenodd" clip-rule="evenodd" d="M0 3.90781H38V3.00781C38 2.60781 37.9 2.30781 37.7 2.00781H0.3C0.1 2.30781 0 2.70781 0 3.00781V3.90781Z" fill="#FEFEFE"/>
<path fill-rule="evenodd" clip-rule="evenodd" d="M0.299805 2.00937H37.7998C37.3998 1.00937 36.5998 0.309375 35.5998 0.109375H2.4998C1.4998 0.309375 0.699805 1.00937 0.299805 2.00937Z" fill="#D0272C"/>
<path fill-rule="evenodd" clip-rule="evenodd" d="M0 13.6094H17.4V0.109375H2.5C1.2 0.409375 0.2 1.50938 0 3.00938V13.6094Z" fill="#2E3C66"/>
<path fill-rule="evenodd" clip-rule="evenodd" d="M1.60039 1.60938L1.70039 2.10938H2.20039L1.80039 2.40937L2.00039 2.90937L1.60039 2.60938L1.20039 2.90937L1.30039 2.40937L0.900391 2.10938H1.40039L1.60039 1.60938ZM1.60039 3.80938L1.70039 4.30937H2.20039L1.80039 4.70937L2.00039 5.20937L1.60039 4.80937L1.20039 5.20937L1.30039 4.70937L0.900391 4.30937H1.40039L1.60039 3.80938ZM1.60039 6.10938L1.70039 6.60938H2.20039L1.80039 6.90938L2.00039 7.40938L1.60039 7.10938L1.20039 7.40938L1.30039 6.90938L0.900391 6.60938H1.40039L1.60039 6.10938ZM1.60039 8.30937L1.70039 8.80937H2.20039L1.80039 9.10938L2.00039 9.70938L1.60039 9.30937L1.20039 9.70938L1.30039 9.10938L0.900391 8.80937H1.40039L1.60039 8.30937ZM1.60039 10.6094L1.70039 11.1094H2.20039L1.80039 11.4094L2.00039 11.9094L1.60039 11.6094L1.20039 11.9094L1.30039 11.4094L0.900391 11.1094H1.40039L1.60039 10.6094ZM3.00039 2.80938L3.10039 3.30938H3.60039L3.20039 3.60938L3.30039 4.10938L3.00039 3.80938L2.60039 4.10938L2.70039 3.60938L2.30039 3.30938H2.80039L3.00039 2.80938ZM3.00039 5.00938L3.10039 5.50938H3.60039L3.20039 5.80937L3.30039 6.30937L3.00039 6.00938L2.60039 6.30937L2.70039 5.80937L2.30039 5.50938H2.80039L3.00039 5.00938ZM3.00039 7.30937L3.10039 7.80937H3.60039L3.20039 8.10938L3.30039 8.60938L3.00039 8.30937L2.60039 8.60938L2.70039 8.10938L2.30039 7.80937H2.80039L3.00039 7.30937ZM3.00039 9.50937L3.10039 10.0094H3.60039L3.20039 10.3094L3.30039 10.8094L3.00039 10.5094L2.60039 10.8094L2.70039 10.3094L2.30039 10.0094H2.80039L3.00039 9.50937ZM4.40039 1.60938L4.50039 2.10938H5.00039L4.60039 2.40937L4.70039 2.90937L4.40039 2.60938L4.00039 2.90937L4.10039 2.40937L3.70039 2.10938H4.20039L4.40039 1.60938ZM4.40039 3.80938L4.50039 4.30937H5.00039L4.60039 4.70937L4.70039 5.20937L4.40039 4.80937L4.00039 5.20937L4.10039 4.70937L3.70039 4.30937H4.20039L4.40039 3.80938ZM4.40039 6.10938L4.50039 6.60938H5.00039L4.60039 6.90938L4.70039 7.40938L4.40039 7.10938L4.00039 7.40938L4.10039 6.90938L3.70039 6.60938H4.20039L4.40039 6.10938ZM4.40039 8.30937L4.50039 8.80937H5.00039L4.60039 9.10938L4.70039 9.70938L4.40039 9.30937L4.00039 9.70938L4.10039 9.10938L3.70039 8.80937H4.20039L4.40039 8.30937ZM4.40039 10.6094L4.50039 11.1094H5.00039L4.60039 11.4094L4.70039 11.9094L4.40039 11.6094L4.00039 11.9094L4.10039 11.4094L3.70039 11.1094H4.20039L4.40039 10.6094ZM5.70039 2.80938L5.90039 3.30938H6.40039L6.00039 3.60938L6.10039 4.10938L5.70039 3.80938L5.40039 4.10938L5.50039 3.60938L5.10039 3.30938H5.60039L5.70039 2.80938ZM5.70039 5.00938L5.90039 5.50938H6.40039L6.00039 5.80937L6.10039 6.30937L5.70039 6.00938L5.40039 6.30937L5.50039 5.80937L5.10039 5.50938H5.60039L5.70039 5.00938ZM5.70039 7.30937L5.90039 7.80937H6.40039L6.00039 8.10938L6.10039 8.60938L5.70039 8.30937L5.40039 8.60938L5.50039 8.10938L5.10039 7.80937H5.60039L5.70039 7.30937ZM5.70039 9.50937L5.90039 10.0094H6.40039L6.00039 10.3094L6.10039 10.8094L5.70039 10.5094L5.40039 10.8094L5.50039 10.3094L5.10039 10.0094H5.60039L5.70039 9.50937ZM7.20039 1.60938L7.30039 2.10938H7.80039L7.40039 2.40937L7.50039 2.90937L7.20039 2.60938L6.80039 2.90937L6.90039 2.40937L6.50039 2.10938H7.00039L7.20039 1.60938ZM7.20039 3.80938L7.30039 4.30937H7.80039L7.40039 4.70937L7.50039 5.20937L7.20039 4.80937L6.80039 5.20937L6.90039 4.70937L6.50039 4.30937H7.00039L7.20039 3.80938ZM7.20039 6.10938L7.30039 6.60938H7.80039L7.40039 6.90938L7.50039 7.40938L7.20039 7.10938L6.80039 7.40938L6.90039 6.90938L6.50039 6.60938H7.00039L7.20039 6.10938ZM7.20039 8.30937L7.30039 8.80937H7.80039L7.40039 9.10938L7.50039 9.70938L7.20039 9.30937L6.80039 9.70938L6.90039 9.10938L6.50039 8.80937H7.00039L7.20039 8.30937ZM7.20039 10.6094L7.30039 11.1094H7.80039L7.40039 11.4094L7.50039 11.9094L7.20039 11.6094L6.80039 11.9094L6.90039 11.4094L6.50039 11.1094H7.00039L7.20039 10.6094ZM8.50039 2.80938L8.70039 3.30938H9.20039L8.80039 3.60938L8.90039 4.10938L8.50039 3.80938L8.20039 4.10938L8.30039 3.60938L7.90039 3.30938H8.40039L8.50039 2.80938ZM8.50039 5.00938L8.70039 5.50938H9.20039L8.80039 5.80937L8.90039 6.30937L8.50039 6.00938L8.20039 6.30937L8.30039 5.80937L7.90039 5.50938H8.40039L8.50039 5.00938ZM8.50039 7.30937L8.70039 7.80937H9.20039L8.80039 8.10938L8.90039 8.60938L8.50039 8.30937L8.20039 8.60938L8.30039 8.10938L7.90039 7.80937H8.40039L8.50039 7.30937ZM8.50039 9.50937L8.70039 10.0094H9.20039L8.80039 10.3094L8.90039 10.8094L8.50039 10.5094L8.20039 10.8094L8.30039 10.3094L7.90039 10.0094H8.40039L8.50039 9.50937ZM9.90039 1.60938L10.1004 2.10938H10.6004L10.2004 2.40937L10.3004 2.90937L9.90039 2.60938L9.60039 2.90937L9.70039 2.40937L9.30039 2.10938H9.80039L9.90039 1.60938ZM9.90039 3.80938L10.1004 4.30937H10.6004L10.2004 4.70937L10.3004 5.20937L9.90039 4.80937L9.60039 5.20937L9.70039 4.70937L9.30039 4.30937H9.80039L9.90039 3.80938ZM9.90039 6.10938L10.1004 6.60938H10.6004L10.2004 6.90938L10.3004 7.40938L9.90039 7.10938L9.60039 7.40938L9.70039 6.90938L9.30039 6.60938H9.80039L9.90039 6.10938ZM9.90039 8.30937L10.1004 8.80937H10.6004L10.2004 9.10938L10.3004 9.70938L9.90039 9.30937L9.60039 9.70938L9.70039 9.10938L9.30039 8.80937H9.80039L9.90039 8.30937ZM9.90039 10.6094L10.1004 11.1094H10.6004L10.2004 11.4094L10.3004 11.9094L9.90039 11.6094L9.60039 11.9094L9.70039 11.4094L9.30039 11.1094H9.80039L9.90039 10.6094ZM11.3004 2.80938L11.5004 3.30938H12.0004L11.6004 3.60938L11.7004 4.10938L11.3004 3.80938L10.9004 4.10938L11.1004 3.60938L10.7004 3.30938H11.2004L11.3004 2.80938ZM11.3004 5.00938L11.5004 5.50938H12.0004L11.6004 5.80937L11.7004 6.30937L11.3004 6.00938L10.9004 6.30937L11.1004 5.80937L10.7004 5.50938H11.2004L11.3004 5.00938ZM11.3004 7.30937L11.5004 7.80937H12.0004L11.6004 8.10938L11.7004 8.60938L11.3004 8.30937L10.9004 8.60938L11.1004 8.10938L10.7004 7.80937H11.2004L11.3004 7.30937ZM11.3004 9.50937L11.5004 10.0094H12.0004L11.6004 10.3094L11.7004 10.8094L11.3004 10.5094L10.9004 10.8094L11.1004 10.3094L10.7004 10.0094H11.2004L11.3004 9.50937ZM12.7004 1.60938L12.9004 2.10938H13.4004L13.0004 2.40937L13.1004 2.90937L12.7004 2.60938L12.4004 2.90937L12.5004 2.40937L12.1004 2.10938H12.6004L12.7004 1.60938ZM12.7004 3.80938L12.9004 4.30937H13.4004L13.0004 4.70937L13.1004 5.20937L12.7004 4.80937L12.4004 5.20937L12.5004 4.70937L12.1004 4.30937H12.6004L12.7004 3.80938ZM12.7004 6.10938L12.9004 6.60938H13.4004L13.0004 6.90938L13.1004 7.40938L12.7004 7.10938L12.4004 7.40938L12.5004 6.90938L12.1004 6.60938H12.6004L12.7004 6.10938ZM12.7004 8.30937L12.9004 8.80937H13.4004L13.0004 9.10938L13.1004 9.70938L12.7004 9.30937L12.4004 9.70938L12.5004 9.10938L12.1004 8.80937H12.6004L12.7004 8.30937ZM12.7004 10.6094L12.9004 11.1094H13.4004L13.0004 11.4094L13.1004 11.9094L12.7004 11.6094L12.4004 11.9094L12.5004 11.4094L12.1004 11.1094H12.6004L12.7004 10.6094ZM14.1004 2.80938L14.3004 3.30938H14.7004L14.4004 3.60938L14.5004 4.10938L14.1004 3.80938L13.7004 4.10938L13.9004 3.60938L13.5004 3.30938H14.0004L14.1004 2.80938ZM14.1004 5.00938L14.3004 5.50938H14.7004L14.4004 5.80937L14.5004 6.30937L14.1004 6.00938L13.7004 6.30937L13.9004 5.80937L13.5004 5.50938H14.0004L14.1004 5.00938ZM14.1004 7.30937L14.3004 7.80937H14.7004L14.4004 8.10938L14.5004 8.60938L14.1004 8.30937L13.7004 8.60938L13.9004 8.10938L13.5004 7.80937H14.0004L14.1004 7.30937ZM14.1004 9.50937L14.3004 10.0094H14.7004L14.4004 10.3094L14.5004 10.8094L14.1004 10.5094L13.7004 10.8094L13.9004 10.3094L13.5004 10.0094H14.0004L14.1004 9.50937ZM15.5004 1.60938L15.7004 2.10938H16.2004L15.8004 2.40937L15.9004 2.90937L15.5004 2.60938L15.1004 2.90937L15.3004 2.40937L14.9004 2.10938H15.4004L15.5004 1.60938ZM15.5004 3.80938L15.7004 4.30937H16.2004L15.8004 4.70937L15.9004 5.20937L15.5004 4.80937L15.1004 5.20937L15.3004 4.70937L14.9004 4.30937H15.4004L15.5004 3.80938ZM15.5004 6.10938L15.7004 6.60938H16.2004L15.8004 6.90938L15.9004 7.40938L15.5004 7.10938L15.1004 7.40938L15.3004 6.90938L14.9004 6.60938H15.4004L15.5004 6.10938ZM15.5004 8.30937L15.7004 8.80937H16.2004L15.8004 9.10938L15.9004 9.70938L15.5004 9.30937L15.1004 9.70938L15.3004 9.10938L14.9004 8.80937H15.4004L15.5004 8.30937ZM15.5004 10.6094L15.7004 11.1094H16.2004L15.8004 11.4094L15.9004 11.9094L15.5004 11.6094L15.1004 11.9094L15.3004 11.4094L14.9004 11.1094H15.4004L15.5004 10.6094Z" fill="#FEFEFE"/>
</g>
</g>
<defs>
<clipPath id="clip0_26001_50262">
<rect width="38" height="25" fill="white" transform="translate(0 0.109375)"/>
</clipPath>
<clipPath id="clip1_26001_50262">
<rect width="38" height="25" fill="white" transform="translate(0 0.109375)"/>
</clipPath>
</defs>
</svg>
