<svg width="38" height="26" viewBox="0 0 38 26" fill="none" xmlns="http://www.w3.org/2000/svg">
<g clip-path="url(#clip0_26003_72444)">
<g clip-path="url(#clip1_26003_72444)">
<path fill-rule="evenodd" clip-rule="evenodd" d="M2.5 25.5H35.6C36.9 25.2 37.9 24.1 38.1 22.6V3.4C37.9 1.9 36.9 0.8 35.6 0.5H2.5C1.2 0.8 0.2 1.9 0 3.4V22.6C0.2 24.1 1.2 25.2 2.5 25.5Z" fill="#FEFEFE"/>
<path fill-rule="evenodd" clip-rule="evenodd" d="M18.9996 11.5996L18.5996 12.8996L19.1996 13.1996L18.9996 11.5996Z" fill="#394899"/>
<path fill-rule="evenodd" clip-rule="evenodd" d="M18.9998 11.5996L19.3998 12.8996L18.7998 13.1996L18.9998 11.5996Z" fill="#394899"/>
<path fill-rule="evenodd" clip-rule="evenodd" d="M20.2004 12.5996H18.9004V13.2996L20.2004 12.5996Z" fill="#394899"/>
<path fill-rule="evenodd" clip-rule="evenodd" d="M20.1998 12.5996L19.1998 13.3996L18.7998 12.7996L20.1998 12.5996Z" fill="#394899"/>
<path fill-rule="evenodd" clip-rule="evenodd" d="M17.7998 12.5996L18.7998 13.3996L19.1998 12.7996L17.7998 12.5996Z" fill="#394899"/>
<path fill-rule="evenodd" clip-rule="evenodd" d="M17.7998 12.5996H19.0998V13.2996L17.7998 12.5996Z" fill="#394899"/>
<path fill-rule="evenodd" clip-rule="evenodd" d="M19.6998 14.1008L19.2998 12.8008L18.7998 13.0008L19.6998 14.1008Z" fill="#394899"/>
<path fill-rule="evenodd" clip-rule="evenodd" d="M19.7002 14.1008L18.7002 13.3008L19.1002 12.8008L19.7002 14.1008Z" fill="#394899"/>
<path fill-rule="evenodd" clip-rule="evenodd" d="M18.2998 14.1008L19.2998 13.3008L18.8998 12.8008L18.2998 14.1008Z" fill="#394899"/>
<path fill-rule="evenodd" clip-rule="evenodd" d="M18.2998 14.1008L18.6998 12.8008L19.1998 13.0008L18.2998 14.1008ZM25.1998 13.7008L24.7998 15.0008L25.3998 15.2008L25.1998 13.7008Z" fill="#394899"/>
<path fill-rule="evenodd" clip-rule="evenodd" d="M25.2 13.6992L25.5 14.9992L25 15.1992L25.2 13.6992Z" fill="#394899"/>
<path fill-rule="evenodd" clip-rule="evenodd" d="M26.2996 14.6992H25.0996V15.3992L26.2996 14.6992Z" fill="#394899"/>
<path fill-rule="evenodd" clip-rule="evenodd" d="M26.3 14.6992L25.3 15.4992L25 14.8992L26.3 14.6992Z" fill="#394899"/>
<path fill-rule="evenodd" clip-rule="evenodd" d="M24 14.6992L25 15.4992L25.3 14.8992L24 14.6992Z" fill="#394899"/>
<path fill-rule="evenodd" clip-rule="evenodd" d="M24 14.6992H25.2V15.3992L24 14.6992Z" fill="#394899"/>
<path fill-rule="evenodd" clip-rule="evenodd" d="M25.9004 16.2004L25.5004 14.9004L24.9004 15.1004L25.9004 16.2004Z" fill="#394899"/>
<path fill-rule="evenodd" clip-rule="evenodd" d="M25.9004 16.2008L24.9004 15.4008L25.2004 14.8008L25.9004 16.2008Z" fill="#394899"/>
<path fill-rule="evenodd" clip-rule="evenodd" d="M24.4004 16.2008L25.4004 15.4008L25.1004 14.8008L24.4004 16.2008Z" fill="#394899"/>
<path fill-rule="evenodd" clip-rule="evenodd" d="M24.4004 16.2L24.8004 14.9L25.4004 15.1L24.4004 16.2ZM25.2004 9.5L24.8004 10.9L25.4004 11.1L25.2004 9.5Z" fill="#394899"/>
<path fill-rule="evenodd" clip-rule="evenodd" d="M25.2 9.5L25.5 10.9L25 11.1L25.2 9.5Z" fill="#394899"/>
<path fill-rule="evenodd" clip-rule="evenodd" d="M26.2996 10.5H25.0996V11.2L26.2996 10.5Z" fill="#394899"/>
<path fill-rule="evenodd" clip-rule="evenodd" d="M26.3 10.5L25.3 11.3L25 10.7L26.3 10.5Z" fill="#394899"/>
<path fill-rule="evenodd" clip-rule="evenodd" d="M24 10.5L25 11.3L25.3 10.7L24 10.5Z" fill="#394899"/>
<path fill-rule="evenodd" clip-rule="evenodd" d="M24 10.5H25.2V11.2L24 10.5Z" fill="#394899"/>
<path fill-rule="evenodd" clip-rule="evenodd" d="M25.9004 11.9992L25.5004 10.6992L24.9004 10.8992L25.9004 11.9992Z" fill="#394899"/>
<path fill-rule="evenodd" clip-rule="evenodd" d="M25.9004 11.9992L24.9004 11.1992L25.2004 10.6992L25.9004 11.9992Z" fill="#394899"/>
<path fill-rule="evenodd" clip-rule="evenodd" d="M24.4004 11.9992L25.4004 11.1992L25.1004 10.6992L24.4004 11.9992Z" fill="#394899"/>
<path fill-rule="evenodd" clip-rule="evenodd" d="M24.4 11.9992L24.8 10.6992L25.4 10.8992L24.4 11.9992ZM12.8 13.6992L12.5 14.9992L13 15.1992L12.8 13.6992Z" fill="#394899"/>
<path fill-rule="evenodd" clip-rule="evenodd" d="M12.7996 13.6992L13.1996 14.9992L12.5996 15.1992L12.7996 13.6992Z" fill="#394899"/>
<path fill-rule="evenodd" clip-rule="evenodd" d="M13.9998 14.6992H12.7998V15.3992L13.9998 14.6992Z" fill="#394899"/>
<path fill-rule="evenodd" clip-rule="evenodd" d="M14.0002 14.6992L13.0002 15.4992L12.7002 14.8992L14.0002 14.6992Z" fill="#394899"/>
<path fill-rule="evenodd" clip-rule="evenodd" d="M11.7002 14.6992L12.7002 15.4992L13.0002 14.8992L11.7002 14.6992Z" fill="#394899"/>
<path fill-rule="evenodd" clip-rule="evenodd" d="M11.7002 14.6992H12.9002V15.3992L11.7002 14.6992Z" fill="#394899"/>
<path fill-rule="evenodd" clip-rule="evenodd" d="M13.5996 16.2004L13.1996 14.9004L12.5996 15.1004L13.5996 16.2004Z" fill="#394899"/>
<path fill-rule="evenodd" clip-rule="evenodd" d="M13.5996 16.2008L12.5996 15.4008L12.8996 14.8008L13.5996 16.2008Z" fill="#394899"/>
<path fill-rule="evenodd" clip-rule="evenodd" d="M12.0996 16.2008L13.0996 15.4008L12.7996 14.8008L12.0996 16.2008Z" fill="#394899"/>
<path fill-rule="evenodd" clip-rule="evenodd" d="M12.0996 16.2L12.4996 14.9L13.0996 15.1L12.0996 16.2ZM12.7996 9.5L12.4996 10.9L12.9996 11.1L12.7996 9.5Z" fill="#394899"/>
<path fill-rule="evenodd" clip-rule="evenodd" d="M12.7996 9.5L13.1996 10.9L12.5996 11.1L12.7996 9.5Z" fill="#394899"/>
<path fill-rule="evenodd" clip-rule="evenodd" d="M13.9998 10.5H12.7998V11.2L13.9998 10.5Z" fill="#394899"/>
<path fill-rule="evenodd" clip-rule="evenodd" d="M14.0002 10.5L13.0002 11.3L12.7002 10.7L14.0002 10.5Z" fill="#394899"/>
<path fill-rule="evenodd" clip-rule="evenodd" d="M11.7002 10.5L12.7002 11.3L13.0002 10.7L11.7002 10.5Z" fill="#394899"/>
<path fill-rule="evenodd" clip-rule="evenodd" d="M11.7002 10.5H12.9002V11.2L11.7002 10.5Z" fill="#394899"/>
<path fill-rule="evenodd" clip-rule="evenodd" d="M13.5996 11.9992L13.1996 10.6992L12.5996 10.8992L13.5996 11.9992Z" fill="#394899"/>
<path fill-rule="evenodd" clip-rule="evenodd" d="M13.5996 11.9992L12.5996 11.1992L12.8996 10.6992L13.5996 11.9992Z" fill="#394899"/>
<path fill-rule="evenodd" clip-rule="evenodd" d="M12.0996 11.9992L13.0996 11.1992L12.7996 10.6992L12.0996 11.9992Z" fill="#394899"/>
<path fill-rule="evenodd" clip-rule="evenodd" d="M12.1 12L12.5 10.7L13.1 10.9L12.1 12ZM0 8.8H38V3.4C37.8 1.9 36.8 0.8 35.5 0.5H2.5C1.2 0.8 0.2 1.9 0 3.4V8.8ZM2.5 25.5H35.6C36.9 25.2 37.9 24.1 38.1 22.6V17.2H0V22.6C0.2 24.1 1.2 25.2 2.5 25.5Z" fill="#394899"/>
</g>
</g>
<defs>
<clipPath id="clip0_26003_72444">
<rect width="38" height="25" fill="white" transform="translate(0 0.5)"/>
</clipPath>
<clipPath id="clip1_26003_72444">
<rect width="38" height="25" fill="white" transform="translate(0 0.5)"/>
</clipPath>
</defs>
</svg>
