<svg width="39" height="26" viewBox="0 0 39 26" fill="none" xmlns="http://www.w3.org/2000/svg">
<g clip-path="url(#clip0_26003_54064)">
<g clip-path="url(#clip1_26003_54064)">
<path d="M35.7751 0.25H3.70512C2.91916 0.252646 2.16629 0.566724 1.61147 1.12342C1.05665 1.68012 0.745113 2.43404 0.745117 3.22L0.745117 22.21C0.745117 22.5987 0.82168 22.9836 0.970434 23.3427C1.11919 23.7019 1.33722 24.0282 1.61208 24.303C1.88694 24.5779 2.21325 24.7959 2.57237 24.9447C2.9315 25.0934 3.3164 25.17 3.70512 25.17H35.7851C36.1738 25.17 36.5587 25.0934 36.9179 24.9447C37.277 24.7959 37.6033 24.5779 37.8782 24.303C38.153 24.0282 38.371 23.7019 38.5198 23.3427C38.6686 22.9836 38.7451 22.5987 38.7451 22.21V3.21C38.7425 2.42404 38.4284 1.67118 37.8717 1.11635C37.315 0.561532 36.5611 0.249996 35.7751 0.25Z" fill="#27329B"/>
<path d="M1.39512 12.71H2.53512L8.60512 8.73V12.71H11.8751V8.73L17.9451 12.71H19.0851C19.4451 12.71 19.7351 12.41 19.7351 12.06V11.54L14.5251 8.12H19.7451V4.84H14.5351L19.7451 1.43V0.91C19.7451 0.55 19.4451 0.26 19.0951 0.26H17.9551L11.8851 4.24V0.25H8.61512V4.23L2.77512 0.4C2.09512 0.62 1.52512 1.09 1.16512 1.7L5.95512 4.84H0.745117V8.11H5.95512L0.745117 11.53V12.05C0.745117 12.41 1.04512 12.71 1.39512 12.71Z" fill="#F5F5F5"/>
<path d="M19.7451 5.5H11.2251V0.25H9.26512V5.5H0.745117V7.46H9.26512V12.71H11.2251V7.46H19.7451V5.5Z" fill="#F72337"/>
<path d="M1.39512 1.36L6.74512 4.84H7.94512L1.85512 0.89C1.69512 1.03 1.53512 1.19 1.39512 1.36ZM13.0851 4.84L19.6451 0.58C19.5897 0.479997 19.5086 0.396648 19.4101 0.338615C19.3116 0.280583 19.1994 0.249984 19.0851 0.25H18.9451L11.8851 4.84H13.0851ZM7.38512 8.12L0.745117 12.37C0.855117 12.57 1.15512 12.7 1.39512 12.7H1.52512L8.58512 8.11H7.38512V8.12ZM19.7351 12.1L13.5951 8.11H12.3951L19.3651 12.63C19.4696 12.5842 19.5594 12.5105 19.6246 12.417C19.6899 12.3235 19.7282 12.2138 19.7351 12.1Z" fill="#F72337"/>
<path d="M25.1249 8.01172C25.0349 9.18172 24.6749 16.6217 29.3949 18.3117C34.1149 16.6217 33.7549 9.18172 33.6649 8.01172C33.0949 8.23172 31.0249 8.92172 29.3949 7.76172C27.7749 8.90172 25.6949 8.23172 25.1249 8.01172Z" fill="#F5F5F5"/>
<path d="M31.7148 9.51062C31.4548 9.31062 30.9848 9.68062 30.4348 9.64062C29.9348 9.60062 29.3248 9.10062 28.5248 9.32062C28.3048 9.12062 28.4148 8.64062 28.4148 8.64062C27.8548 9.00063 27.8248 9.49062 27.8548 9.75062C27.5574 10.2125 27.4499 10.7714 27.5548 11.3106C27.6548 11.6306 27.8248 11.6706 27.8548 12.0206C27.8848 12.3806 28.0148 12.2506 28.0148 12.2506C28.2848 12.0906 28.3348 11.8006 28.4548 11.3206C28.9048 11.3806 29.1948 10.9706 29.1948 10.9706C28.8948 11.0606 28.7148 10.9006 28.6048 10.7506L28.6448 10.6106C28.9748 9.69062 30.5848 9.94062 30.7348 10.1906C31.0048 10.6506 31.3548 10.8206 31.3548 10.8206C31.3548 10.3406 30.9948 9.92062 30.9948 9.92062C31.5748 9.85062 31.7148 9.51062 31.7148 9.51062ZM27.8548 11.4806C27.8048 11.4806 27.7548 11.4406 27.7548 11.3806C27.7548 11.3206 27.7948 11.2806 27.8548 11.2806C27.9048 11.2806 27.9548 11.3206 27.9548 11.3806C27.9448 11.4406 27.9148 11.4806 27.8548 11.4806Z" fill="#FFA028"/>
<path d="M30.1351 15.3909C30.4451 15.2909 30.4051 14.6809 30.7551 14.2609C31.0651 13.8709 31.8351 13.6509 32.1051 12.8709C32.3951 12.8009 32.7251 13.1609 32.7251 13.1609C32.7451 12.5009 32.3651 12.1909 32.1251 12.0709C31.9126 11.5632 31.511 11.1579 31.0051 10.9409C30.6951 10.8409 30.5551 10.9709 30.2451 10.7909C29.9351 10.6109 29.9651 10.7909 29.9651 10.7909C29.9351 11.1109 30.1551 11.3109 30.4851 11.6709C30.1851 12.0109 30.3451 12.4809 30.3451 12.4809C30.4351 12.1809 30.6751 12.1209 30.8451 12.1209L30.9351 12.2409C31.4951 13.0409 30.3851 14.2109 30.0851 14.1909C29.5551 14.1509 29.2051 14.3509 29.2051 14.3509C29.5951 14.6209 30.1451 14.5709 30.1451 14.5709C29.9351 15.0809 30.1351 15.3909 30.1351 15.3909ZM30.7051 11.1009C30.7351 11.0609 30.7951 11.0509 30.8351 11.0809C30.8751 11.1109 30.8851 11.1709 30.8551 11.2109C30.8395 11.2294 30.8177 11.2416 30.7938 11.2453C30.7699 11.249 30.7455 11.2439 30.7251 11.2309C30.7066 11.2154 30.6944 11.1936 30.6907 11.1697C30.687 11.1458 30.6921 11.1214 30.7051 11.1009Z" fill="#FFA028"/>
<path d="M25.9151 11.1305C25.8751 11.4605 26.4451 11.6805 26.6751 12.1605C26.8951 12.6105 26.7751 13.3905 27.3651 13.9705C27.3051 14.2605 26.8451 14.4105 26.8451 14.4105C27.4351 14.7105 27.8751 14.4905 28.0851 14.3305C28.7351 14.4005 29.4051 13.9705 29.5751 13.7905C29.7951 13.5405 29.7351 13.3705 30.0251 13.1705C30.3151 12.9605 30.1451 12.9105 30.1451 12.9105C29.8751 12.7505 29.5951 12.8705 29.1251 13.0105C28.9451 12.5905 28.4451 12.5405 28.4451 12.5405C28.6751 12.7505 28.6351 12.9905 28.5551 13.1505L28.4051 13.1805C27.4451 13.3605 26.8451 11.8405 26.9851 11.5905C27.2451 11.1205 27.2151 10.7305 27.2151 10.7305C26.7951 10.9805 26.6251 11.4905 26.6251 11.4905C26.2751 11.0805 25.9151 11.1305 25.9151 11.1305ZM29.5751 13.4605C29.6051 13.5005 29.5851 13.5605 29.5351 13.5905C29.4951 13.6205 29.4351 13.6005 29.4051 13.5505C29.3751 13.5105 29.3951 13.4505 29.4451 13.4205C29.4951 13.4005 29.5551 13.4105 29.5751 13.4605Z" fill="#FFA028"/>
<path d="M29.3949 18.5507L29.3549 18.5407C24.0449 16.6907 24.8949 7.9207 24.9149 7.8307L24.9249 7.6707L25.0749 7.7407C25.0949 7.7507 27.5649 8.8507 29.3249 7.5207L29.3949 7.4707L29.4649 7.5207C31.2349 8.8407 33.6949 7.7507 33.7149 7.7407L33.8649 7.6707L33.8749 7.8307C33.8849 7.9207 34.7449 16.6907 29.4349 18.5407L29.3949 18.5507ZM25.1249 8.0107C25.0349 9.1807 24.6749 16.6207 29.3949 18.3107C34.1149 16.6207 33.7549 9.1807 33.6649 8.0107C33.0949 8.2307 31.0249 8.9207 29.3949 7.7607C27.7749 8.9007 25.6949 8.2307 25.1249 8.0107Z" fill="#CDCE0C"/>
<path d="M26.4355 15.6602C27.0595 16.8777 28.1149 17.8189 29.3955 18.3002C30.6783 17.8223 31.7347 16.8801 32.3555 15.6602H26.4355Z" fill="#82AFFF"/>
</g>
</g>
<defs>
<clipPath id="clip0_26003_54064">
<rect width="38" height="25" fill="white" transform="translate(0.745117 0.210938)"/>
</clipPath>
<clipPath id="clip1_26003_54064">
<rect width="38" height="25" fill="white" transform="translate(0.745117 0.210938)"/>
</clipPath>
</defs>
</svg>
