<svg width="39" height="26" viewBox="0 0 39 26" fill="none" xmlns="http://www.w3.org/2000/svg">
<g clip-path="url(#clip0_26003_53684)">
<g clip-path="url(#clip1_26003_53684)">
<path fill-rule="evenodd" clip-rule="evenodd" d="M3.24512 25.2109H36.2451C37.5451 25.0109 38.5451 23.8109 38.7451 22.3109V3.11094C38.5451 1.61094 37.5451 0.410938 36.2451 0.210938H3.24512C1.94512 0.410938 0.945117 1.61094 0.745117 3.11094V22.3109C0.945117 23.8109 1.94512 25.0109 3.24512 25.2109Z" fill="#FEFEFE"/>
<path fill-rule="evenodd" clip-rule="evenodd" d="M3.24512 25.2117H36.2451C37.5451 25.0117 38.5451 23.8117 38.7451 22.3117V8.51172H0.745117V22.2117C0.945117 23.8117 1.94512 25.0117 3.24512 25.2117Z" fill="#52B044"/>
<path fill-rule="evenodd" clip-rule="evenodd" d="M3.24512 25.2102H36.2451C37.5451 25.0102 38.5451 23.8102 38.7451 22.3102V16.9102H0.745117V22.3102C0.945117 23.8102 1.94512 25.0102 3.24512 25.2102Z" fill="#C9282D"/>
</g>
</g>
<defs>
<clipPath id="clip0_26003_53684">
<rect width="38" height="25" fill="white" transform="translate(0.745117 0.210938)"/>
</clipPath>
<clipPath id="clip1_26003_53684">
<rect width="38" height="25" fill="white" transform="translate(0.745117 0.210938)"/>
</clipPath>
</defs>
</svg>
