<svg width="38" height="26" viewBox="0 0 38 26" fill="none" xmlns="http://www.w3.org/2000/svg">
<g clip-path="url(#clip0_26003_90331)">
<g clip-path="url(#clip1_26003_90331)">
<path fill-rule="evenodd" clip-rule="evenodd" d="M2.5 25.5H35.6C36.9 25.2 37.9 24.1 38.1 22.6V3.4C37.9 1.9 36.9 0.7 35.6 0.5H2.5C1.2 0.8 0.2 1.9 0 3.4V22.6C0.2 24.1 1.2 25.2 2.5 25.5Z" fill="#FEFEFE"/>
<path fill-rule="evenodd" clip-rule="evenodd" d="M16.1996 8.09991C16.1996 8.39991 16.1996 8.49991 16.2996 8.49991C16.2996 8.59991 16.2996 9.69991 16.1996 9.99991C15.9996 10.2999 15.6996 10.4999 15.5996 10.4999C15.4996 10.4999 15.0996 10.1999 14.7996 10.0999C14.4996 9.99991 14.4996 9.99991 14.2996 9.99991C14.1996 9.99991 13.7996 10.0999 13.6996 10.1999H13.5996C13.5996 10.1999 13.3996 10.3999 13.3996 10.4999C13.3996 10.5999 13.2996 10.9999 13.1996 10.9999C13.0996 10.9999 12.7996 11.3999 12.5996 11.3999H12.2996C12.1996 11.3999 12.1996 11.1999 11.9996 11.1999C11.8996 11.0999 11.7996 11.0999 11.7996 11.0999C11.7996 11.0999 11.7996 10.8999 11.6996 10.8999C11.5996 10.8999 11.5996 11.1999 11.5996 11.2999C11.5996 11.3999 11.6996 11.6999 11.7996 11.7999C11.8996 11.8999 11.8996 12.1999 11.7996 12.2999C11.7996 12.3999 11.8996 12.4999 11.8996 12.5999C11.8996 12.6999 11.7996 12.7999 11.7996 12.7999C11.8996 12.7999 11.8996 12.8999 11.8996 13.0999C11.8996 13.1999 12.1996 13.2999 12.1996 13.3999C12.2996 13.4999 12.2996 13.6999 12.2996 13.8999C12.2996 13.9999 12.3996 13.9999 12.3996 14.2999C12.4996 14.2999 12.5996 14.3999 12.6996 14.4999C12.7996 14.5999 12.7996 14.6999 12.8996 14.7999C12.9996 14.8999 12.9996 14.7999 13.0996 14.7999C13.1996 14.7999 13.0996 14.7999 13.1996 14.8999H13.4996L13.6996 15.0999C13.7996 15.0999 14.0996 15.1999 14.0996 15.2999C14.0996 15.2999 14.2996 15.3999 14.3996 15.3999L14.4996 15.2999H14.6996C14.7996 15.2999 14.8996 15.0999 14.9996 15.0999H15.6996C15.7996 15.1999 16.0996 15.5999 16.0996 15.6999V15.8999H16.7996C16.7996 15.7999 16.3996 15.4999 16.6996 14.9999C17.0996 14.4999 17.0996 14.6999 17.1996 14.5999C17.2996 14.4999 17.5996 14.2999 18.1996 14.4999C18.7996 14.3999 18.2996 14.2999 18.6996 14.2999H18.9996C18.9996 14.1999 19.0996 14.0999 19.1996 14.1999C19.1996 14.0999 19.3996 13.9999 19.4996 13.9999C19.4996 13.8999 19.8996 13.6999 20.0996 13.6999C20.1996 13.5999 20.2996 13.1999 20.7996 13.3999C20.7996 13.2999 20.8996 13.0999 20.9996 12.9999C20.9996 12.6999 20.8996 12.1999 21.1996 11.9999C21.3996 11.6999 21.6996 11.7999 22.0996 11.7999C22.3996 11.8999 22.4996 12.0999 22.5996 12.0999C22.6996 12.0999 22.6996 12.0999 22.7996 11.9999C22.8996 11.8999 22.7996 11.7999 22.8996 11.7999H23.0996C23.1996 11.7999 23.1996 11.6999 23.2996 11.6999C23.3996 11.7999 23.5996 11.6999 23.6996 11.7999C23.7996 11.8999 23.7996 11.8999 23.8996 11.8999C23.9996 11.9999 24.0996 11.9999 24.0996 11.9999C24.0996 11.9999 23.9996 11.9999 23.9996 11.8999C23.9996 11.7999 23.9996 11.6999 23.8996 11.5999L23.6996 11.3999C23.9996 11.4999 24.0996 11.4999 23.9996 11.3999C23.8996 11.2999 23.6996 11.1999 23.6996 11.0999C23.5996 10.9999 23.6996 10.8999 23.5996 10.7999C23.4996 10.6999 23.0996 10.2999 23.0996 9.99991C23.0996 9.59991 23.0996 9.29991 23.2996 9.19991C23.2996 8.99991 23.2996 8.99991 23.4996 8.79991C23.6996 8.69991 23.6996 8.79991 23.7996 8.79991C23.8996 8.79991 23.9996 8.79991 24.0996 8.69991C24.1996 8.59991 24.0996 8.39991 24.3996 7.99991C24.6996 7.69991 24.8996 7.49991 24.9996 7.49991C25.0996 7.49991 25.4996 7.19991 25.6996 7.19991C25.7996 6.99991 25.8996 6.89991 26.0996 6.69991C26.2996 6.49991 26.4996 6.49991 26.5996 6.39991C26.6996 6.29991 26.6996 6.09991 26.8996 5.99991C27.0996 5.79991 27.2996 5.69991 27.3996 5.59991C27.4996 5.49991 27.6996 5.59991 27.7996 5.49991C27.8996 5.39991 27.8996 5.09991 27.8996 4.99991C27.9996 4.89991 27.6996 5.09991 27.4996 5.19991C27.2996 5.39991 26.9996 5.49991 26.7996 5.49991C26.5996 5.49991 26.6996 5.59991 26.5996 5.69991C26.4996 5.69991 26.2996 5.69991 26.1996 5.79991C26.0996 5.89991 25.9996 6.09991 25.8996 6.19991C25.7996 6.29991 25.6996 6.29991 25.5996 6.29991C25.4996 6.39991 25.3996 6.39991 25.2996 6.49991H24.8996C24.8996 6.49991 24.6996 6.79991 24.5996 6.99991C24.4996 7.09991 24.3996 7.09991 24.2996 7.19991C24.1996 7.29991 23.2996 7.89991 22.5996 7.99991C21.9996 8.09991 22.2996 7.89991 21.9996 7.99991C21.7996 8.09991 21.4996 8.49991 21.2996 8.49991H20.8996C20.7996 8.49991 20.4996 8.69991 20.3996 8.69991H19.9996C19.8996 8.69991 19.7996 8.79991 19.5996 8.69991C19.3996 8.59991 19.3996 8.79991 19.0996 8.69991C18.7996 8.59991 18.5996 8.69991 18.3996 8.69991C18.2996 8.59991 18.2996 8.59991 18.1996 8.59991C18.0996 8.59991 18.0996 8.69991 17.9996 8.69991C17.8996 8.69991 17.8996 8.59991 17.6996 8.59991C17.5996 8.59991 17.4996 8.69991 17.2996 8.69991C17.0996 8.69991 17.0996 8.59991 16.9996 8.59991C16.8996 8.39991 16.1996 8.09991 16.1996 8.09991Z" fill="#DE8121"/>
<path fill-rule="evenodd" clip-rule="evenodd" d="M18.0996 20.7C18.3996 20.4 18.6996 20.4 19.0996 20.3C19.4996 20.2 19.9996 20.1 20.1996 20C20.3996 19.9 19.3996 20.3 19.0996 20.4C18.8996 20.4 18.0996 20.7 18.0996 20.7ZM19.7996 19.9C19.6996 19.3 19.8996 18.6 20.3996 18.4C20.5996 18.8 20.1996 19.6 19.7996 19.9ZM20.6996 19.6C20.3996 19.1 20.8996 18.4 21.1996 18.1C21.2996 18.4 21.0996 19.3 20.6996 19.6ZM21.4996 19.2C21.1996 18.8 21.5996 18 21.8996 17.7C21.9996 18.1 21.8996 18.9 21.4996 19.2ZM22.1996 18.6C21.8996 18.2 22.0996 17.6 22.4996 17.1C22.7996 17.5 22.5996 18.3 22.1996 18.6ZM22.8996 18.1C22.6996 17.7 22.8996 16.8 23.2996 16.5C23.3996 16.9 23.2996 17.8 22.8996 18.1ZM23.2996 17.9C23.1996 17.3 24.0996 16.7 24.4996 16.7C24.4996 17.2 24.0996 17.7 23.2996 17.9ZM22.8996 18.6C23.2996 18.1 24.0996 18.1 24.3996 18.2C24.2996 18.5 23.2996 19.1 22.8996 18.6Z" fill="#2D6E57"/>
<path fill-rule="evenodd" clip-rule="evenodd" d="M22.3 19C22.9 18.8 23.2 18.7 23.6 19.1C23.3 19.5 22.4 19.4 22.3 19ZM21.5 19.5C22 19.2 22.7 19.7 22.8 19.9C22.2 20.2 21.5 19.5 21.5 19.5ZM20.7 19.9C21.2 19.7 21.8 20 22 20.3C21.8 20.5 21.1 20.6 20.7 19.9ZM20.1 20.2C20.7 20.1 21.2 20.6 21.3 20.9C20.6 20.9 20.3 20.7 20.1 20.2ZM19.9 20.7C19.6 20.4 19.3 20.4 18.9 20.3C18.5 20.2 18 20.1 17.8 20C17.6 19.9 18.6 20.3 18.9 20.4C19.1 20.4 19.9 20.7 19.9 20.7ZM18.1 19.9C18.2 19.3 18 18.6 17.5 18.4C17.4 18.8 17.8 19.6 18.1 19.9ZM17.3 19.6C17.6 19.1 17.1 18.4 16.8 18.1C16.7 18.4 16.9 19.3 17.3 19.6ZM16.5 19.2C16.8 18.8 16.5 18 16.1 17.7C16 18.1 16.1 18.9 16.5 19.2ZM15.8 18.6C16.1 18.2 15.9 17.6 15.5 17.1C15.2 17.5 15.4 18.3 15.8 18.6ZM15.1 18.1C15.3 17.7 15.1 16.8 14.7 16.5C14.6 16.9 14.7 17.8 15.1 18.1ZM14.6 17.9C14.7 17.3 13.8 16.7 13.5 16.7C13.5 17.2 13.9 17.7 14.6 17.9ZM15.1 18.6C14.7 18.1 13.9 18.1 13.6 18.2C13.7 18.5 14.7 19.1 15.1 18.6Z" fill="#2D6E57"/>
<path fill-rule="evenodd" clip-rule="evenodd" d="M15.7004 18.9992C15.1004 18.7992 14.8004 18.6992 14.4004 19.0992C14.6004 19.4992 15.6004 19.3992 15.7004 18.9992ZM16.5004 19.4992C16.0004 19.1992 15.3004 19.6992 15.2004 19.8992C15.8004 20.1992 16.5004 19.4992 16.5004 19.4992ZM17.2004 19.8992C16.7004 19.6992 16.1004 19.9992 15.9004 20.2992C16.2004 20.4992 16.9004 20.5992 17.2004 19.8992ZM17.9004 20.1992C17.3004 20.0992 16.8004 20.5992 16.7004 20.8992C17.4004 20.8992 17.7004 20.6992 17.9004 20.1992Z" fill="#2D6E57"/>
</g>
</g>
<defs>
<clipPath id="clip0_26003_90331">
<rect width="38" height="25" fill="white" transform="translate(0 0.5)"/>
</clipPath>
<clipPath id="clip1_26003_90331">
<rect width="38" height="25" fill="white" transform="translate(0 0.5)"/>
</clipPath>
</defs>
</svg>
