<svg width="38" height="26" viewBox="0 0 38 26" fill="none" xmlns="http://www.w3.org/2000/svg">
<g clip-path="url(#clip0_26003_75648)">
<g clip-path="url(#clip1_26003_75648)">
<path d="M35.2 0.5H2.8C1.3 0.5 0 1.8 0 3.4V22.7C0 24.2 1.3 25.5 2.8 25.5H35.1C36.7 25.5 37.9 24.2 37.9 22.6V3.4C38 1.8 36.7 0.5 35.2 0.5Z" fill="#2531A0"/>
<path d="M0 17.5996H38V20.8996H0V17.5996Z" fill="#FFD527"/>
<path d="M8.80041 6.70039L8.20041 8.60039H6.20041C6.00041 8.60039 5.90041 8.90039 6.00041 9.00039L7.60041 10.2004L7.00041 12.2004C7.00041 12.3004 7.20041 12.5004 7.40041 12.4004L9.00041 11.2004L10.7004 12.4004C10.9004 12.5004 11.1004 12.4004 11.0004 12.2004L10.4004 10.2004L12.0004 9.00039C12.2004 8.90039 12.1004 8.60039 11.9004 8.60039H9.90041L9.20041 6.70039C9.20041 6.50039 8.90041 6.50039 8.80041 6.70039ZM4.20041 3.10039L3.80041 4.20039H2.60041C2.50041 4.20039 2.40041 4.30039 2.50041 4.40039L3.40041 5.10039L3.20041 6.30039C3.20041 6.40039 3.30041 6.50039 3.40041 6.40039L4.40041 5.70039L5.40041 6.40039C5.50041 6.50039 5.60041 6.40039 5.60041 6.30039L5.10041 5.10039L6.00041 4.40039C6.10041 4.30039 6.00041 4.20039 5.90041 4.20039H4.70041L4.40041 3.10039C4.40041 3.00039 4.20041 3.00039 4.20041 3.10039Z" fill="#F5F5F5"/>
</g>
</g>
<defs>
<clipPath id="clip0_26003_75648">
<rect width="38" height="25" fill="white" transform="translate(0 0.5)"/>
</clipPath>
<clipPath id="clip1_26003_75648">
<rect width="38" height="25" fill="white" transform="translate(0 0.5)"/>
</clipPath>
</defs>
</svg>
