<svg width="39" height="26" viewBox="0 0 39 26" fill="none" xmlns="http://www.w3.org/2000/svg">
<g clip-path="url(#clip0_26003_53572)">
<g clip-path="url(#clip1_26003_53572)">
<path d="M35.8951 25.2109H3.59513C3.22002 25.2109 2.8486 25.1369 2.50217 24.993C2.15574 24.8492 1.84111 24.6384 1.57634 24.3727C1.31156 24.107 1.10184 23.7916 0.959201 23.4447C0.816565 23.0977 0.743819 22.726 0.745135 22.3509V3.07094C0.743819 2.69583 0.816565 2.32415 0.959201 1.97722C1.10184 1.63029 1.31156 1.31492 1.57634 1.04922C1.84111 0.783509 2.15574 0.572684 2.50217 0.428834C2.8486 0.284983 3.22002 0.210935 3.59513 0.210938L35.9051 0.210938C36.2794 0.212248 36.6497 0.287265 36.995 0.431703C37.3403 0.576141 37.6537 0.787173 37.9175 1.05275C38.1812 1.31833 38.39 1.63324 38.532 1.97953C38.674 2.32581 38.7465 2.69667 38.7451 3.07094V22.3509C38.7465 22.726 38.6737 23.0977 38.5311 23.4447C38.3884 23.7916 38.1787 24.107 37.9139 24.3727C37.6492 24.6384 37.3345 24.8492 36.9881 24.993C36.6417 25.1369 36.2702 25.2109 35.8951 25.2109Z" fill="#F9D22D"/>
<path d="M38.7451 16.0007L1.97512 0.720703C1.59556 0.983964 1.28542 1.33524 1.07122 1.74449C0.857014 2.15374 0.745124 2.60878 0.745117 3.0707L0.745117 4.8207L38.7451 20.6107V16.0007Z" fill="#F5F5F5"/>
<path d="M38.7451 22.3503V20.6003L0.745117 4.82031V9.43031L37.5151 24.7103C37.8936 24.4437 38.2028 24.0903 38.4168 23.6797C38.6308 23.2692 38.7434 22.8133 38.7451 22.3503Z" fill="#313135"/>
<path d="M23.4254 11.5409V11.5209L23.3954 11.2609C23.3737 11.015 23.3199 10.7729 23.2354 10.5409C23.1354 10.2409 22.9854 9.89094 22.7254 9.55094L22.6254 9.42094C22.7754 9.25094 22.9154 9.05094 23.0554 8.81094C23.0554 8.81094 22.3054 8.84094 21.4654 8.48094C21.1779 8.32914 20.8721 8.21487 20.5554 8.14094L20.3954 7.51094C20.3798 7.44569 20.3427 7.38758 20.2901 7.34588C20.2376 7.30419 20.1725 7.28132 20.1054 7.28094H19.8854V6.98094H20.9354L20.6354 6.37094L20.9354 5.76094H19.8854V5.46094H19.5854V7.27094H19.3654C19.2979 7.26948 19.2319 7.29166 19.179 7.33366C19.126 7.37565 19.0894 7.43482 19.0754 7.50094L18.9254 8.12094C18.5462 8.19478 18.1836 8.3371 17.8554 8.54094C17.0854 8.84094 16.4254 8.81094 16.4254 8.81094C16.5654 9.05094 16.7054 9.25094 16.8554 9.42094L16.7654 9.53094C16.5554 9.81094 16.3954 10.1209 16.2754 10.4609C16.1596 10.7967 16.0889 11.1465 16.0654 11.5009V11.7909L16.0854 12.0609C16.0954 12.2409 16.1354 12.4209 16.1754 12.6009C16.3622 13.3043 16.747 13.9393 17.2842 14.4303C17.8213 14.9214 18.4882 15.2478 19.2054 15.3709C19.4054 15.4109 19.5254 15.4109 19.6754 15.4209H19.8154L19.9354 15.4109C20.0154 15.4009 20.1054 15.4109 20.1854 15.3909C20.9498 15.3075 21.6676 14.9822 22.2342 14.4623C22.8008 13.9425 23.1866 13.2553 23.3354 12.5009C23.3754 12.3409 23.3954 12.2009 23.4054 12.0709L23.4254 11.7609V11.5409ZM17.9554 13.6709C17.4999 13.3308 17.1553 12.8635 16.9648 12.3279C16.7744 11.7923 16.7468 11.2122 16.8854 10.6609C16.9554 10.3709 17.0654 10.1009 17.2154 9.84094L17.2454 9.80094C17.9254 10.3409 18.6554 10.3009 19.1554 10.0409V10.6309C19.3254 10.6309 19.4554 10.9709 19.4554 11.3909C19.4554 11.8109 19.3254 12.1509 19.1554 12.1509V12.4509C19.7254 13.2109 19.4654 13.8409 19.1154 14.2209C18.688 14.14 18.2886 13.9506 17.9554 13.6709ZM22.6954 11.5109L22.6754 11.7409C22.6754 11.8209 22.6554 11.9009 22.6354 11.9909C22.6254 12.0809 22.5854 12.1809 22.5454 12.3009C22.3751 12.772 22.0858 13.1909 21.7055 13.5168C21.3252 13.8428 20.867 14.0647 20.3754 14.1609C20.0354 13.7809 19.8054 13.1609 20.3554 12.4209V12.1209C20.1854 12.1209 20.0554 11.7809 20.0554 11.3609C20.0554 10.9409 20.1854 10.6009 20.3554 10.6009V10.0209C20.8554 10.2809 21.5854 10.3209 22.2654 9.78094L22.3054 9.84094C22.5092 10.2195 22.6382 10.6337 22.6854 11.0609C22.6954 11.1609 22.7054 11.2409 22.6954 11.3109V11.5109Z" fill="#F92D40"/>
<path d="M19.7453 16.0609C18.6785 16.0592 17.6524 15.6516 16.8753 14.9209C16.8418 14.8914 16.8028 14.8687 16.7606 14.8542C16.7183 14.8397 16.6736 14.8337 16.629 14.8365C16.5845 14.8393 16.5409 14.8508 16.5008 14.8705C16.4607 14.8901 16.4248 14.9174 16.3953 14.9509L15.2453 16.3009C15.1253 16.4409 15.2253 16.6709 15.4153 16.6709H16.1453L17.1153 17.1609C17.2553 17.2309 17.4153 17.1809 17.5053 17.0609L17.8153 16.5909C18.433 16.8489 19.0958 16.9818 19.7653 16.9818C20.4347 16.9818 21.0975 16.8489 21.7153 16.5909L22.0253 17.0609C22.0663 17.123 22.1289 17.1676 22.201 17.1861C22.2731 17.2046 22.3494 17.1956 22.4153 17.1609L23.3853 16.6709H24.1153C24.3053 16.6709 24.4053 16.4509 24.2853 16.3009L23.1353 14.9509C23.1057 14.9174 23.0699 14.8901 23.0298 14.8705C22.9896 14.8508 22.9461 14.8393 22.9015 14.8365C22.8569 14.8337 22.8122 14.8397 22.77 14.8542C22.7277 14.8687 22.6887 14.8914 22.6553 14.9209C21.861 15.65 20.8234 16.0565 19.7453 16.0609ZM15.5253 14.8509H14.0153L14.3153 12.1309C14.3153 12.1309 13.2653 11.6009 13.3753 10.0509C13.3804 9.95897 13.4206 9.87246 13.4875 9.80921C13.5545 9.74597 13.6432 9.7108 13.7353 9.71094H13.9953C14.1753 9.71094 14.3253 9.84094 14.3553 10.0209C14.4153 10.4009 14.6153 11.0209 15.2253 11.2309L15.5253 14.8509ZM23.9653 14.8509H25.4753L25.1753 12.1309C25.1753 12.1309 26.2253 11.6009 26.1153 10.0509C26.1101 9.95897 26.07 9.87246 26.003 9.80921C25.936 9.74597 25.8474 9.7108 25.7553 9.71094H25.4953C25.4084 9.71214 25.3248 9.74385 25.2589 9.80053C25.1931 9.8572 25.1493 9.93523 25.1353 10.0209C25.0753 10.4009 24.8753 11.0209 24.2653 11.2309L23.9653 14.8509Z" fill="#F92D40"/>
<path d="M15.6748 15.1516H13.8648C13.8251 15.1516 13.7869 15.1358 13.7588 15.1076C13.7306 15.0795 13.7148 15.0413 13.7148 15.0016C13.7148 14.9216 13.7848 14.8516 13.8648 14.8516H15.6748C15.7548 14.8516 15.8248 14.9216 15.8248 15.0016C15.8248 15.0916 15.7648 15.1516 15.6748 15.1516ZM25.6148 15.1516H23.8048C23.7651 15.1516 23.7269 15.1358 23.6988 15.1076C23.6706 15.0795 23.6548 15.0413 23.6548 15.0016C23.6548 14.9216 23.7248 14.8516 23.8048 14.8516H25.6148C25.6948 14.8516 25.7648 14.9216 25.7648 15.0016C25.7648 15.0916 25.7048 15.1516 25.6148 15.1516Z" fill="#FFE15A"/>
</g>
</g>
<defs>
<clipPath id="clip0_26003_53572">
<rect width="38" height="25" fill="white" transform="translate(0.745117 0.210938)"/>
</clipPath>
<clipPath id="clip1_26003_53572">
<rect width="38" height="25" fill="white" transform="translate(0.745117 0.210938)"/>
</clipPath>
</defs>
</svg>
