<svg width="38" height="26" viewBox="0 0 38 26" fill="none" xmlns="http://www.w3.org/2000/svg">
<g clip-path="url(#clip0_26003_70857)">
<g clip-path="url(#clip1_26003_70857)">
<path fill-rule="evenodd" clip-rule="evenodd" d="M2.43996 25.4983H35.52C36.81 25.2483 37.83 24.0583 38 22.5883V3.39828C37.83 1.92828 36.82 0.738281 35.53 0.488281H2.43996C1.14996 0.738281 0.129961 1.91828 -0.0400391 3.39828V22.5883C0.129961 24.0583 1.14996 25.2483 2.43996 25.4983Z" fill="#F2E00C"/>
<path fill-rule="evenodd" clip-rule="evenodd" d="M2.43996 25.4983H12.64V0.488281H2.43996C1.14996 0.738281 0.129961 1.91828 -0.0400391 3.39828V22.5883C0.129961 24.0583 1.14996 25.2483 2.43996 25.4983Z" fill="#34358D"/>
<path fill-rule="evenodd" clip-rule="evenodd" d="M25.3203 25.4983H35.5203C36.8103 25.2483 37.8303 24.0583 38.0003 22.5883V3.39828C37.8303 1.92828 36.8203 0.738281 35.5303 0.488281H25.3303V25.4983H25.3203Z" fill="#D2272D"/>
<path fill-rule="evenodd" clip-rule="evenodd" d="M17.7101 6.08984C17.6301 6.08984 17.5701 6.10984 17.5301 6.14984C17.5901 6.16984 17.6401 6.23984 17.6401 6.31984V6.51984H17.4601C17.4255 6.51877 17.3921 6.5065 17.3651 6.48486C17.338 6.46322 17.3187 6.43339 17.3101 6.39984C17.2745 6.46394 17.2572 6.53658 17.2601 6.60984C17.2601 6.69984 17.2801 6.77984 17.3101 6.81984C17.3187 6.7863 17.338 6.75647 17.3651 6.73483C17.3921 6.71319 17.4255 6.70091 17.4601 6.69984H17.6401V7.66984C17.6401 7.74984 17.6001 7.80984 17.5401 7.82984C17.6201 7.84984 17.7001 7.96984 17.7201 8.04984C17.7401 7.97984 17.8201 7.84984 17.9001 7.82984C17.8401 7.80984 17.8001 7.73984 17.8001 7.66984V6.68984H17.9801C18.0501 6.68984 18.1101 6.73984 18.1301 6.80984C18.1667 6.74615 18.1841 6.67321 18.1801 6.59984C18.183 6.52658 18.1657 6.45394 18.1301 6.38984C18.1214 6.42339 18.1021 6.45322 18.0751 6.47486C18.048 6.4965 18.0147 6.50877 17.9801 6.50984H17.8001V6.30984C17.8001 6.22984 17.8501 6.15984 17.9101 6.13984C17.8481 6.10826 17.7797 6.09116 17.7101 6.08984Z" fill="#242222"/>
<path fill-rule="evenodd" clip-rule="evenodd" d="M17.71 6.12891C17.6726 6.1298 17.6354 6.13655 17.6 6.14891C17.64 6.18891 17.67 6.24891 17.67 6.30891V6.54891H17.45C17.4217 6.54916 17.3938 6.54189 17.3692 6.52783C17.3446 6.51378 17.3242 6.49344 17.31 6.46891L17.29 6.58891L17.31 6.70891C17.3242 6.68437 17.3446 6.66404 17.3692 6.64998C17.3938 6.63593 17.4217 6.62865 17.45 6.62891H17.67V7.66891C17.6698 7.69746 17.6634 7.72561 17.6513 7.75149C17.6392 7.77736 17.6217 7.80035 17.6 7.81891L17.67 7.88891L17.71 7.95891C17.7172 7.93254 17.7309 7.90844 17.75 7.88891L17.82 7.81891C17.7988 7.79995 17.7817 7.77688 17.7696 7.75109C17.7576 7.72531 17.7509 7.69735 17.75 7.66891V6.64891H17.97C18.03 6.64891 18.08 6.67891 18.12 6.71891L18.13 6.59891L18.12 6.47891C18.103 6.50297 18.0805 6.52273 18.0545 6.53662C18.0284 6.5505 17.9995 6.55813 17.97 6.55891H17.76V6.30891C17.76 6.23891 17.78 6.18891 17.82 6.14891L17.71 6.12891Z" fill="#F5EC23"/>
<path fill-rule="evenodd" clip-rule="evenodd" d="M17.8496 9.6875L17.5496 9.6075L16.9196 9.2375L16.5196 9.2075L16.4996 8.3475L15.7396 7.6575L14.9596 8.5975L14.8496 8.8775L14.8896 17.4375L15.3896 16.7575L15.4996 16.7875L16.0096 16.1575L16.4496 14.9075L16.5796 14.3875L17.1696 15.1775L16.9496 15.6475L17.1496 15.6275L17.1696 15.8175L17.3596 15.7375L17.4096 15.9975L17.8196 15.5275L18.3896 15.8475L17.3096 18.0375L16.9196 18.3575L17.6196 18.6575L18.3396 17.7075L18.2296 18.3275L18.0096 18.9275L18.8896 19.4975L19.8396 18.8675L19.3696 17.7675L19.5196 17.6875L20.1296 18.6875L20.7996 18.3175L19.9396 17.1675L19.3596 15.7875L19.9696 15.5675L20.3796 16.0075L20.4396 15.7175L20.6596 15.8375L20.6296 15.5975L20.8496 15.6475L20.5796 15.1775L21.2596 14.5375L21.6796 16.0375L22.3196 16.8575L22.4496 16.8375L22.8996 17.4675V8.6475L22.0596 7.6475L21.2296 8.3975L21.2696 9.2075L20.8996 9.2275L20.3496 9.5475L20.0496 9.6575L19.8996 9.6875L19.7096 9.4575L19.4596 8.8875L19.4396 8.3275L19.5996 7.9575L19.5696 7.6175H19.7096L19.6196 7.3875L19.7396 7.3275L19.5596 7.1475L19.6196 7.0575L18.9296 6.7275L18.3996 6.6875L18.2496 6.7575L18.1796 6.8975L18.3196 7.3475L18.1696 7.5175L18.3196 7.8475L18.3296 8.5675L18.2096 9.1675L17.9696 9.6275L17.8496 9.6875Z" fill="#8D6E37"/>
<path fill-rule="evenodd" clip-rule="evenodd" d="M17.0402 15.6572L16.5102 16.5672L16.2602 16.5572L16.0002 16.6972L15.9102 17.0172L15.9502 17.1672L16.2402 17.5072L16.4702 17.3672L16.6502 17.1372L16.7002 16.9372L17.3702 15.9572L17.3302 15.7172L17.1902 15.8272L17.1302 15.6272L17.0402 15.6572ZM20.4002 15.9272L21.1002 16.9972L21.1702 17.2072L21.4802 17.5172L21.5702 17.4972L21.9102 17.0472L21.8402 16.7472L21.5202 16.5272L21.2802 16.5572L20.7502 15.6572L20.6502 15.6172L20.6202 15.7872L20.4602 15.7372L20.4002 15.9272Z" fill="#C62832"/>
<path fill-rule="evenodd" clip-rule="evenodd" d="M21.35 17.1767H21.37L21.39 17.1867L21.56 17.3567C21.58 17.3767 21.58 17.4167 21.56 17.4467C21.54 17.4767 21.51 17.4767 21.49 17.4567L21.32 17.2867C21.3 17.2667 21.3 17.2267 21.32 17.1967L21.35 17.1767ZM16.41 17.1767C16.43 17.1767 16.45 17.1767 16.46 17.1967C16.48 17.2267 16.48 17.2667 16.46 17.2867L16.29 17.4567C16.27 17.4767 16.24 17.4767 16.22 17.4467C16.2 17.4167 16.2 17.3767 16.22 17.3567L16.39 17.1867L16.41 17.1767ZM21.46 17.0567L21.42 17.0767C21.4109 17.09 21.4061 17.1057 21.4061 17.1217C21.4061 17.1378 21.4109 17.1534 21.42 17.1667L21.59 17.3367C21.61 17.3567 21.65 17.3567 21.67 17.3267C21.69 17.2967 21.69 17.2567 21.67 17.2367L21.5 17.0667L21.46 17.0567C21.47 17.0467 21.47 17.0467 21.46 17.0567ZM16.3 17.0567L16.27 17.0667L16.1 17.2367C16.08 17.2567 16.08 17.2967 16.1 17.3267C16.12 17.3567 16.15 17.3567 16.17 17.3367L16.34 17.1667C16.36 17.1467 16.36 17.1067 16.34 17.0767C16.34 17.0567 16.32 17.0467 16.3 17.0567ZM21.56 16.9167L21.53 16.9467C21.5 16.9767 21.51 17.0067 21.53 17.0367L21.7 17.1967C21.72 17.2167 21.76 17.2167 21.78 17.1867C21.81 17.1567 21.81 17.1167 21.78 17.0967L21.61 16.9267L21.58 16.9167H21.56ZM16.21 16.9167L16.18 16.9267L16.01 17.0967C15.99 17.1167 15.99 17.1567 16.01 17.1867C16.03 17.2167 16.07 17.2167 16.09 17.1967L16.26 17.0367C16.28 17.0167 16.28 16.9767 16.26 16.9467L16.21 16.9167ZM21.64 16.8567L21.65 16.8667L21.72 16.9367V16.9767H21.69L21.62 16.9067C21.615 16.9012 21.6123 16.8941 21.6123 16.8867C21.6123 16.8793 21.615 16.8722 21.62 16.8667L21.64 16.8567ZM16.14 16.8567L16.15 16.8667V16.9067L16.08 16.9767H16.05C16.045 16.9712 16.0423 16.9641 16.0423 16.9567C16.0423 16.9493 16.045 16.9422 16.05 16.9367L16.12 16.8667L16.14 16.8567ZM18.34 15.8067C18.34 15.8067 17.5 17.9867 16.75 18.3267C16.75 18.3267 17.08 18.4767 17.47 18.7167L17.65 18.8267L17.81 18.6067C18.05 18.2467 18.28 17.8267 18.28 17.8267C18.3 17.9367 18.17 18.2767 17.96 18.6867L17.83 18.9467L17.99 19.0567C18.38 19.3267 18.76 19.6367 18.89 19.9167C19.03 19.6367 19.4 19.3267 19.8 19.0567L19.96 18.9467C19.9126 18.8621 19.8693 18.7753 19.83 18.6867C19.6708 18.4214 19.5591 18.1304 19.5 17.8267C19.6937 18.17 19.904 18.5037 20.13 18.8267L20.31 18.7167C20.71 18.4767 21.04 18.3267 21.04 18.3267C20.29 17.9867 19.45 15.8067 19.45 15.8067L19.33 15.8467C19.33 15.8467 20 17.7367 20.66 18.3067C20.51 18.3567 20.34 18.4267 20.16 18.5167C19.926 18.1887 19.7154 17.8445 19.53 17.4867C19.33 17.1067 19.17 16.4567 19.17 16.4567C19.07 16.7067 19.27 17.9767 19.67 18.7867C19.34 18.9767 19.05 19.1867 18.91 19.3567C18.6881 19.1281 18.4316 18.9357 18.15 18.7867C18.55 17.9867 18.75 16.7167 18.65 16.4567C18.65 16.4567 18.49 17.1167 18.29 17.4867C18.11 17.8367 17.88 18.2267 17.66 18.5167C17.495 18.435 17.3246 18.3648 17.15 18.3067C17.8 17.7367 18.48 15.8467 18.48 15.8467L18.34 15.8067ZM20.67 15.6867L20.72 15.7067L21.21 16.5667C21.26 16.6367 21.47 16.5867 21.49 16.5867C21.6 16.6067 21.77 16.7467 21.78 16.7967C21.79 16.8267 21.77 16.8667 21.74 16.8667C21.7 16.8667 21.67 16.8067 21.53 16.7667C21.41 16.7267 21.32 16.7667 21.21 16.6867C21.21 16.7967 21.35 16.8867 21.35 16.9667C21.2972 16.966 21.2469 16.9444 21.21 16.9067L21.22 17.0467C21.22 17.1167 21.15 17.1467 21.15 17.1467C21.15 17.1467 21.11 16.9667 21.06 16.8967L20.42 15.9267L20.45 15.7867L20.6 15.9067C20.68 15.8467 20.67 15.6867 20.67 15.6867ZM17.1 15.6867C17.1 15.6867 17.1 15.8467 17.14 15.8967L17.3 15.7767L17.32 15.9167L16.68 16.8867C16.63 16.9567 16.59 17.1367 16.59 17.1367C16.59 17.1367 16.52 17.0967 16.52 17.0367L16.53 16.8967C16.53 16.8967 16.48 16.9567 16.39 16.9567C16.39 16.8767 16.53 16.7967 16.53 16.6767C16.43 16.7667 16.34 16.7167 16.22 16.7567C16.09 16.8067 16.05 16.8667 16.01 16.8567C15.99 16.8567 15.97 16.8067 15.98 16.7867C15.99 16.7367 16.15 16.5967 16.27 16.5767C16.3 16.5667 16.51 16.6267 16.56 16.5567L17.05 15.6967C17.08 15.7067 17.09 15.6967 17.1 15.6867ZM20.64 15.1667L20.56 15.2167C20.56 15.2167 20.68 15.5467 20.78 15.5967C20.78 15.5967 20.66 15.6067 20.6 15.5567L20.57 15.7467C20.51 15.7467 20.41 15.6567 20.41 15.6567C20.3878 15.7328 20.3678 15.8095 20.35 15.8867C20.2274 15.7552 20.1106 15.6184 20 15.4767L19.88 15.5667C19.88 15.5667 20.31 15.9567 20.4 16.1667L20.42 16.0667L21.02 16.9767C21.07 17.0567 21.07 17.1467 21.12 17.2167C21.2 17.3667 21.3 17.4367 21.4 17.5367C21.44 17.5767 21.55 17.5567 21.57 17.5267L21.82 17.1767L21.85 17.2367C21.85 17.2367 21.93 17.1167 21.93 17.0267C21.9256 16.936 21.9018 16.8473 21.86 16.7667C21.84 16.6867 21.6 16.4967 21.49 16.4967C21.36 16.4967 21.3 16.5667 21.22 16.4067L20.81 15.7167L20.92 15.7067C20.8153 15.5328 20.7218 15.3525 20.64 15.1667ZM17.13 15.1667C17.13 15.1667 16.92 15.6367 16.85 15.7167L16.96 15.7267L16.55 16.4167C16.47 16.5767 16.41 16.4967 16.28 16.4967C16.17 16.4967 15.94 16.6867 15.89 16.7667C15.8482 16.8473 15.8243 16.936 15.82 17.0267C15.82 17.1167 15.9 17.2367 15.9 17.2367L15.92 17.1767L16.17 17.5267C16.2 17.5567 16.31 17.5767 16.35 17.5367C16.45 17.4367 16.55 17.3667 16.63 17.2167C16.68 17.1367 16.68 17.0567 16.73 16.9767L17.33 16.0667L17.34 16.1667C17.43 15.9567 17.86 15.5667 17.86 15.5667L17.74 15.4767C17.74 15.4767 17.48 15.8167 17.39 15.8867L17.33 15.6567C17.33 15.6567 17.23 15.7467 17.18 15.7467L17.15 15.5567C17.11 15.6067 17 15.5967 17 15.5967C17.1 15.5467 17.22 15.2167 17.22 15.2167L17.13 15.1667ZM22.39 10.2967L22.6 10.5167L22.81 10.2967V17.1667C22.67 17.0767 22.39 16.6667 22.39 16.4867V10.2967ZM15.39 10.2967V16.4967C15.39 16.6667 15.11 17.0767 14.97 17.1767V10.2967L15.18 10.5167L15.39 10.2967ZM22.27 10.2967V16.6967L21.82 16.1867L21.85 15.7467V10.2967L22.06 10.5167L22.27 10.2967ZM15.51 10.2967L15.72 10.5167L15.94 10.2967V15.7467L15.96 16.1867L15.51 16.6967V10.2967ZM22.56 9.56672V10.2267L22.45 10.1067L22.36 10.0167V9.77672L22.45 9.68672L22.56 9.56672ZM22.1 9.56672L22.22 9.68672L22.3 9.77672V10.0067L22.22 10.0967L22.1 10.2167V9.56672ZM22.02 9.56672V10.2267L21.91 10.1067L21.82 10.0167V9.77672L22.02 9.56672ZM21.55 9.56672C21.61 9.65672 21.68 9.74672 21.75 9.79672V10.0167L21.66 10.1067L21.55 10.2267V9.56672ZM16.23 9.56672V10.2267L16.12 10.1067L16.03 10.0167V9.79672C16.109 9.73171 16.1765 9.65397 16.23 9.56672ZM15.76 9.56672L15.96 9.77672V10.0067L15.88 10.0967L15.76 10.2167V9.56672ZM15.68 9.56672V10.2267L15.57 10.1067L15.48 10.0167V9.77672L15.57 9.68672L15.68 9.56672ZM15.21 9.56672L15.32 9.68672L15.41 9.77672V10.0167L15.32 10.1067L15.21 10.2267V9.56672ZM22.64 9.56672L22.81 9.75672V10.0467L22.64 10.2267V9.56672ZM15.14 9.56672V10.2267L14.96 10.0467V9.74672L15.14 9.56672ZM21.82 8.85672L22.02 9.07672V9.30672L21.82 9.51672V8.85672ZM15.96 8.85672V9.51672L15.76 9.30672V9.07672L15.96 8.85672ZM21.75 8.81672V9.53672C21.62 9.45672 21.5 9.27672 21.45 9.20672C21.58 9.13672 21.72 8.87672 21.75 8.81672ZM16.03 8.81672C16.06 8.87672 16.2 9.12672 16.33 9.19672C16.28 9.27672 16.16 9.44672 16.03 9.53672V8.81672ZM22.36 8.76672L22.56 8.99672V9.30672L22.36 9.51672V8.76672ZM15.42 8.76672V9.51672L15.22 9.30672V9.00672L15.42 8.76672ZM22.29 8.70672V9.51672L22.09 9.30672V9.04672L22.29 8.70672ZM15.48 8.70672L15.68 9.04672V9.30672L15.48 9.51672V8.70672ZM22.75 8.65672C22.79 8.73672 22.81 8.80672 22.81 8.86672V9.49672L22.64 9.31672V8.88672L22.75 8.65672ZM15.03 8.65672L15.14 8.88672V9.30672L14.96 9.48672V8.86672C14.9711 8.79323 14.9948 8.7222 15.03 8.65672ZM22.04 7.80672C22.04 7.80672 21.54 8.32672 21.37 8.38672L21.36 8.55672V9.06672C21.48 9.01672 21.64 8.78672 21.71 8.67672V8.60672C21.7092 8.55396 21.6876 8.50364 21.65 8.46672L21.72 8.43672C21.75 8.47672 21.78 8.52672 21.78 8.59672V8.63672L21.8 8.66672L21.81 8.68672L22 8.90672L22.21 8.53672V8.44672C22.2032 8.38457 22.1789 8.32561 22.14 8.27672L22.21 8.24672C22.2492 8.303 22.2733 8.36843 22.28 8.43672V8.50672L22.53 8.79672L22.66 8.49672C22.4891 8.23692 22.2801 8.00432 22.04 7.80672ZM15.74 7.80672C15.51 7.99672 15.27 8.25672 15.11 8.49672L15.24 8.79672L15.49 8.50672V8.43672C15.4966 8.36843 15.5207 8.303 15.56 8.24672L15.63 8.27672C15.59 8.32672 15.55 8.38672 15.55 8.44672V8.53672L15.76 8.90672L15.94 8.68672L15.95 8.66672L15.97 8.63672V8.59672C15.97 8.52672 16 8.47672 16.03 8.43672L16.11 8.46672C16.1 8.49672 16.06 8.54672 16.06 8.60672V8.67672C16.13 8.79672 16.29 9.02672 16.41 9.06672V8.39672C16.24 8.32672 15.74 7.80672 15.74 7.80672ZM18.57 6.72672H18.64C18.92 6.72672 19.12 6.86672 19.38 7.00672L19.57 7.08672C19.53 7.11672 19.5 7.15672 19.5 7.18672C19.5 7.18672 19.62 7.21672 19.67 7.32672C19.67 7.32672 19.56 7.33672 19.54 7.41672C19.61 7.42672 19.67 7.50672 19.67 7.59672L19.5 7.53672C19.5 7.53672 19.54 7.73672 19.54 7.95672C19.54 8.06672 19.4 8.19672 19.4 8.38672C19.4 8.98672 19.54 9.20672 19.63 9.39672C19.67 9.46672 19.7 9.54672 19.76 9.61672C19.49 9.45672 19.29 9.24672 19.29 9.05672V8.33672H19.22V9.05672C19.22 9.19672 19.25 9.25672 19.25 9.25672C19.29 9.40672 19.38 9.64672 19.43 9.73672C19.18 9.58672 19.05 9.39672 19.05 9.32672V8.33672H18.98V9.33672L18.99 9.40672C18.9642 9.45536 18.9304 9.49931 18.89 9.53672L18.79 9.40672L18.81 9.33672V8.33672H18.73V9.32672C18.73 9.39672 18.61 9.58672 18.35 9.73672C18.41 9.63672 18.49 9.40672 18.54 9.25672C18.54 9.25672 18.57 9.19672 18.57 9.05672V8.33672H18.5V9.05672C18.5 9.24672 18.29 9.45672 18.03 9.61672C18.09 9.55672 18.12 9.46672 18.16 9.39672C18.26 9.19672 18.39 8.93672 18.39 8.20672C18.39 7.93672 18.35 7.74672 18.29 7.61672C18.27 7.57672 18.24 7.45672 18.39 7.45672C18.47 7.45672 18.64 7.60672 18.64 7.60672C18.64 7.60672 18.63 7.49672 18.54 7.42672C18.53 7.41672 18.5 7.38672 18.5 7.34672C18.5 7.31672 18.54 7.25672 18.57 7.24672C18.59 7.23672 18.27 7.17672 18.27 7.01672C18.27 6.97672 18.29 6.95672 18.35 6.95672C18.44 6.95672 18.58 7.07672 18.7 7.07672C18.79 7.07672 18.83 7.04672 18.92 7.04672C19.04 7.04672 19.28 7.29672 19.36 7.28672C19.27 7.22672 19.12 6.97672 18.9 6.97672L18.68 6.99672C18.59 6.99672 18.5 6.89672 18.39 6.89672C18.33 6.89672 18.25 6.90672 18.24 6.87672C18.22 6.84672 18.24 6.81672 18.26 6.79672C18.29 6.74672 18.39 6.72672 18.49 6.72672H18.57ZM18.56 6.63672C18.47 6.63672 18.35 6.63672 18.27 6.69672C18.2 6.74672 18.21 6.81672 18.18 6.83672C18.12 6.88672 18.02 6.88672 17.98 6.88672C17.68 6.88672 17.66 7.25672 17.66 7.25672C17.66 7.25672 17.74 7.12672 17.88 7.12672C18.11 7.12672 18.28 7.26672 18.28 7.31672C18.28 7.33672 18.25 7.33672 18.25 7.33672C18.1 7.33672 17.88 7.24672 17.76 7.23672V7.31672C18.03 7.42672 18.3 7.56672 18.3 8.21672C18.3 8.62672 18.25 9.04672 18.07 9.37672C18.0022 9.49472 17.9102 9.59698 17.8 9.67672C17.75 9.65672 17.52 9.57672 17.36 9.47672C17.07 9.29672 16.92 9.11672 16.59 9.10672V8.80672C16.59 8.65672 16.63 8.51672 16.63 8.36672C16.49 8.32672 16.09 7.77672 15.73 7.53672C15.19 7.92672 14.78 8.57672 14.78 8.86672C14.78 8.86672 14.8 15.2367 14.78 17.4567C14.78 17.5867 14.71 17.7667 14.71 17.7667C14.91 17.6667 15.27 17.1167 15.34 16.9067V17.0067C15.64 16.8567 15.86 16.4567 15.95 16.2467V16.3467C16.22 16.0867 16.55 14.5367 16.55 14.5367L16.54 14.2067C16.54 14.2067 16.31 15.4667 16.04 15.7267V10.2967L16.25 10.5167L16.57 10.1767V9.92672L16.29 10.2267V9.45672L16.38 9.28672C16.43 9.37672 16.57 9.64672 16.75 9.81672C16.78 9.68672 16.97 9.55672 16.97 9.55672C16.97 9.55672 17.04 9.76672 17.14 9.81672C17.18 9.74672 17.39 9.58672 17.39 9.58672C17.39 9.58672 17.21 9.61672 17.13 9.69672C17.07 9.67672 17.05 9.39672 17.05 9.39672C17.05 9.39672 16.78 9.54672 16.73 9.65672C16.68 9.63672 16.6 9.41672 16.57 9.31672L16.77 9.30672C16.8702 9.31603 16.9665 9.35042 17.05 9.40672C17.16 9.46672 17.28 9.54672 17.39 9.59672C17.53 9.66672 17.74 9.68672 17.8 9.68672L17.57 9.83672C17.57 9.83672 17.89 9.83672 18.12 9.70672C18.2 9.64672 18.29 9.58672 18.36 9.51672C18.3272 9.63247 18.2729 9.74102 18.2 9.83672C18.3102 9.82984 18.4173 9.79734 18.5128 9.74178C18.6083 9.68623 18.6895 9.60917 18.75 9.51672C18.78 9.58672 18.81 9.68672 18.87 9.77672C18.929 9.69884 18.9731 9.61068 19 9.51672C19.05 9.58672 19.21 9.80672 19.55 9.83672C19.4753 9.74213 19.4208 9.63322 19.39 9.51672C19.46 9.58672 19.55 9.64672 19.63 9.70672C19.86 9.83672 20.19 9.83672 20.19 9.83672L19.96 9.68672C20.02 9.68672 20.23 9.66672 20.36 9.59672C20.47 9.54672 20.59 9.46672 20.7 9.40672C20.8 9.34672 20.9 9.30672 20.98 9.30672L21.18 9.31672C21.15 9.41672 21.07 9.64672 21.02 9.65672C20.97 9.54672 20.7 9.39672 20.7 9.39672C20.7 9.39672 20.68 9.68672 20.62 9.69672C20.55 9.61672 20.36 9.58672 20.36 9.58672C20.36 9.58672 20.58 9.74672 20.61 9.81672C20.71 9.76672 20.78 9.55672 20.78 9.55672C20.78 9.55672 20.97 9.68672 21 9.81672C21.18 9.64672 21.32 9.36672 21.37 9.28672L21.46 9.45672V10.2267L21.18 9.92672V10.1867L21.5 10.5267L21.71 10.3067V15.7467C21.45 15.4867 21.21 14.2267 21.21 14.2267L21.19 14.5567C21.19 14.5567 21.53 16.1067 21.79 16.3667L21.8 16.2667C21.9 16.4767 22.11 16.8767 22.41 17.0267V16.9267C22.49 17.1367 22.85 17.6867 23.04 17.7867C23.04 17.7867 22.97 17.6067 22.97 17.4767V8.88672C22.97 8.58672 22.56 7.94672 22.02 7.55672C21.65 7.79672 21.26 8.34672 21.11 8.38672C21.11 8.53672 21.16 8.67672 21.16 8.82672V9.09672C20.82 9.11672 20.67 9.29672 20.39 9.46672C20.22 9.56672 19.99 9.65672 19.94 9.66672C19.83 9.57672 19.74 9.47672 19.68 9.36672C19.5245 9.06408 19.4487 8.72678 19.46 8.38672C19.46 8.23672 19.61 8.07672 19.61 7.95672C19.61 7.77672 19.59 7.66672 19.59 7.66672C19.65 7.67672 19.74 7.77672 19.74 7.77672C19.74 7.77672 19.74 7.47672 19.65 7.42672C19.65 7.42672 19.68 7.38672 19.81 7.38672C19.77 7.28672 19.61 7.16672 19.61 7.16672L19.66 7.11672L19.81 7.06672L19.64 7.01672C19.482 6.95735 19.3283 6.88718 19.18 6.80672C18.9 6.64672 18.68 6.63672 18.56 6.63672Z" fill="#242222"/>
<path fill-rule="evenodd" clip-rule="evenodd" d="M16.5802 17.2773L16.9802 17.5173L16.8802 18.0173L16.4902 17.7773L16.5802 17.2773Z" fill="#242222"/>
<path fill-rule="evenodd" clip-rule="evenodd" d="M16.6404 17.2091L16.5204 17.3491L16.5904 17.5291L16.7304 17.4491L16.6404 17.2091ZM14.7504 12.5391L14.6104 12.6091L16.2104 16.5691H16.3804L14.7504 12.5391Z" fill="#242222"/>
<path fill-rule="evenodd" clip-rule="evenodd" d="M16.6401 17.418L16.8801 17.568L16.8201 17.878L16.5801 17.728L16.6401 17.418Z" fill="#F5EC23"/>
<path fill-rule="evenodd" clip-rule="evenodd" d="M15.2504 15.6578C15.2504 15.6578 15.3804 15.9778 15.4904 16.0178C15.4404 15.9978 15.2604 16.0678 15.2604 16.0678C15.2604 16.0678 15.5604 16.3778 15.8204 16.3978C16.0404 16.4178 16.1404 16.2878 16.1404 16.2878L16.1004 16.0278C16.1004 16.0278 15.9604 15.8478 15.7504 15.7578C15.5304 15.6778 15.2504 15.6578 15.2504 15.6578ZM16.2604 15.0978C16.2604 15.0978 16.0704 15.2778 16.0304 15.4878C15.9804 15.6978 16.0604 15.9378 16.0604 15.9378L16.2204 16.2678C16.2204 16.2678 16.4404 16.1378 16.5304 15.9378C16.6304 15.7478 16.5904 15.4778 16.5904 15.4778C16.5904 15.4778 16.4204 15.5478 16.4004 15.5778C16.3951 15.4085 16.3469 15.2434 16.2604 15.0978ZM15.6604 15.0178C15.6604 15.0178 15.4504 15.0978 15.2504 15.0878C15.0504 15.0778 14.8904 14.8878 14.8904 14.8878C14.8904 14.8878 15.0504 14.7678 15.1304 14.7778C15.0404 14.7378 14.9104 14.4878 14.9104 14.4878C14.9104 14.4878 15.0904 14.4278 15.2504 14.4978C15.4204 14.5678 15.5504 14.7678 15.5504 14.7678L15.6604 15.0178ZM15.7304 13.8478C15.7304 13.8478 15.8404 14.0978 15.8104 14.1778C15.8504 14.1178 15.9704 14.0378 15.9704 14.0378C15.9704 14.0378 16.0504 14.4378 15.9804 14.6778C15.9004 14.9278 15.6804 15.0178 15.6804 15.0178L15.4504 14.4978C15.4504 14.4978 15.4104 14.2978 15.4904 14.1478C15.5604 13.9878 15.7304 13.8478 15.7304 13.8478ZM14.3604 13.1878C14.3604 13.1878 14.5904 13.1578 14.8004 13.2578C14.9804 13.3378 15.0304 13.4878 15.0304 13.4878L15.1204 13.7478C15.1204 13.7478 14.8704 13.8578 14.6704 13.7678C14.4804 13.6878 14.3304 13.4178 14.3304 13.4178C14.3304 13.4178 14.4604 13.3578 14.5204 13.3778C14.4404 13.3578 14.3604 13.1878 14.3604 13.1878ZM15.0804 12.7078C15.0804 12.7078 15.1804 12.8578 15.1904 13.0178C15.2104 12.9278 15.3404 12.8278 15.3404 12.8278C15.3404 12.8278 15.4704 13.1778 15.4404 13.4278C15.4104 13.6778 15.2304 13.8278 15.2304 13.8278L15.0004 13.3278C15.0004 13.3278 14.9304 13.1278 14.9504 12.9678C14.9604 12.8178 15.0804 12.7078 15.0804 12.7078ZM14.2804 11.7578C14.2804 11.7578 14.2404 12.0278 14.3104 12.1878C14.3804 12.3278 14.4104 12.3578 14.4104 12.3578C14.2904 12.2678 14.1104 12.2578 14.1104 12.2578C14.1104 12.2578 14.1804 12.5478 14.3304 12.6878C14.4804 12.8178 14.7204 12.7878 14.7204 12.7878C14.7204 12.7878 14.8804 12.5478 14.8704 12.2978C14.8604 12.0478 14.6804 11.7778 14.6804 11.7778C14.6804 11.7778 14.6104 11.9478 14.6104 12.0678C14.5604 11.9278 14.2804 11.7578 14.2804 11.7578Z" fill="#242222"/>
<path fill-rule="evenodd" clip-rule="evenodd" d="M14.3502 11.9297C14.3502 11.9297 14.3502 12.1297 14.4002 12.2397C14.4602 12.3497 14.5902 12.3997 14.5902 12.3997C14.5902 12.3997 14.6002 12.1997 14.5402 12.0897C14.4902 11.9697 14.3502 11.9297 14.3502 11.9297ZM14.2402 12.3697C14.2402 12.3697 14.3902 12.3797 14.4802 12.4597C14.5702 12.5397 14.6002 12.6997 14.6002 12.6997C14.6002 12.6997 14.5002 12.7097 14.4102 12.6297C14.3202 12.5497 14.2402 12.3697 14.2402 12.3697ZM14.7102 11.9697C14.7102 11.9697 14.6602 12.0997 14.6602 12.2397C14.6602 12.3797 14.7402 12.5397 14.7402 12.5397C14.7402 12.5397 14.8102 12.3697 14.8002 12.2297C14.8002 12.0897 14.7302 12.0097 14.7102 11.9697ZM14.4502 13.2397C14.4502 13.2397 14.5202 13.3597 14.6402 13.4197C14.7602 13.4897 14.9202 13.4897 14.9202 13.4897C14.9202 13.4897 14.8402 13.3597 14.7202 13.2997C14.6102 13.2397 14.4502 13.2397 14.4502 13.2397ZM14.4902 13.5197C14.4902 13.5197 14.5502 13.6397 14.6502 13.6897C14.7502 13.7397 14.9502 13.7397 14.9502 13.7397C14.9502 13.7397 14.8802 13.6297 14.7702 13.5797C14.6802 13.5197 14.4902 13.5197 14.4902 13.5197ZM15.0702 12.8697C15.0702 12.8697 15.0102 12.9797 15.0202 13.1097C15.0202 13.2297 15.1002 13.3697 15.1002 13.3697C15.1002 13.3697 15.1502 13.2097 15.1402 13.0897C15.1302 12.9697 15.0702 12.8697 15.0702 12.8697ZM15.2902 13.0297C15.2902 13.0297 15.1902 13.1897 15.1702 13.3497C15.1602 13.5097 15.2302 13.6797 15.2302 13.6797C15.2302 13.6797 15.3502 13.5397 15.3702 13.3797C15.3902 13.2097 15.2902 13.0297 15.2902 13.0297ZM15.0102 14.5197C15.0102 14.5197 15.0202 14.5797 15.0602 14.6397C15.1002 14.6997 15.1802 14.7697 15.1802 14.7697C15.1802 14.7697 15.2502 14.7397 15.3402 14.7697C15.4302 14.7897 15.5502 14.8797 15.5502 14.8797C15.5502 14.8797 15.4202 14.6697 15.2902 14.5797C15.1602 14.4897 15.0102 14.5197 15.0102 14.5197ZM15.0002 14.8897C15.0002 14.8897 15.1602 14.8097 15.3002 14.8297C15.3972 14.854 15.4866 14.9021 15.5602 14.9697C15.5602 14.9697 15.3802 15.0497 15.2402 15.0197C15.1002 14.9997 14.9902 14.8897 15.0002 14.8897ZM15.6902 14.0297C15.6902 14.0297 15.5502 14.1997 15.5302 14.3497C15.5202 14.4997 15.6502 14.6397 15.6502 14.6397C15.6502 14.6397 15.6502 14.5397 15.6702 14.4797C15.6902 14.4097 15.7402 14.3497 15.7402 14.3497C15.7402 14.3497 15.7602 14.2697 15.7502 14.2097C15.7406 14.1467 15.7203 14.0858 15.6902 14.0297ZM15.9002 14.2297C15.9002 14.2297 15.7602 14.3897 15.7302 14.5597C15.6902 14.7297 15.7602 14.9097 15.7602 14.9097C15.7602 14.9097 15.8902 14.7997 15.9202 14.6297C15.9502 14.4497 15.9002 14.2297 15.9002 14.2297ZM16.2502 15.2397C16.2502 15.2397 16.3102 15.3897 16.3302 15.5097V15.6697L16.2302 15.7797C16.1902 15.8297 16.1902 15.9297 16.1902 15.9297C16.1902 15.9297 16.0602 15.7097 16.0802 15.5497C16.1124 15.4347 16.1706 15.3286 16.2502 15.2397ZM16.5102 15.5797C16.5102 15.5797 16.3502 15.6997 16.2802 15.8297C16.2202 15.9597 16.2502 16.0897 16.2502 16.0897C16.2502 16.0897 16.3702 16.0797 16.4402 15.9497C16.5102 15.8197 16.5102 15.5797 16.5102 15.5797ZM15.4302 16.0997C15.4302 16.0997 15.6702 16.0897 15.8102 16.1297C15.9602 16.1697 16.0102 16.2597 16.0102 16.2597C16.0102 16.2597 15.8502 16.3497 15.7002 16.2997C15.5602 16.2697 15.4302 16.0997 15.4302 16.0997ZM15.3902 15.7797C15.3902 15.7797 15.5002 15.9697 15.6402 16.0397C15.8302 16.1297 16.0502 16.0897 16.0502 16.0897C16.0502 16.0897 15.9302 15.9297 15.7602 15.8497C15.6002 15.7697 15.3902 15.7797 15.3902 15.7797Z" fill="#2A6640"/>
<path fill-rule="evenodd" clip-rule="evenodd" d="M16.1602 16.2786V16.3786C16.3002 16.3786 16.3302 16.3586 16.3602 16.4086C16.3902 16.4386 16.4402 16.4686 16.5002 16.4386C16.5602 16.4086 16.5802 16.3286 16.5502 16.2686C16.5202 16.1986 16.4702 16.1886 16.4202 16.1986L16.3402 16.2486C16.3002 16.2886 16.1602 16.2786 16.1602 16.2786Z" fill="#242222"/>
<path fill-rule="evenodd" clip-rule="evenodd" d="M16.5095 16.2966C16.5295 16.3366 16.5095 16.3766 16.4795 16.3966C16.4495 16.4166 16.4095 16.3966 16.3895 16.3666C16.3795 16.3366 16.3895 16.2866 16.4195 16.2766C16.4595 16.2466 16.4995 16.2666 16.5095 16.2966Z" fill="#F5EC23"/>
<path fill-rule="evenodd" clip-rule="evenodd" d="M16.1402 16.207L16.2102 16.267C16.1302 16.407 16.1102 16.417 16.1302 16.477C16.1402 16.517 16.1302 16.587 16.0802 16.627C16.0302 16.667 15.9602 16.647 15.9202 16.587C15.8802 16.527 15.9002 16.467 15.9402 16.427C15.9602 16.397 16.0002 16.397 16.0202 16.377C16.0698 16.3278 16.1104 16.2703 16.1402 16.207Z" fill="#242222"/>
<path fill-rule="evenodd" clip-rule="evenodd" d="M15.9598 16.5596C15.9798 16.5896 16.0198 16.5996 16.0498 16.5796C16.0643 16.5679 16.0742 16.5515 16.0778 16.5332C16.0815 16.515 16.0786 16.496 16.0698 16.4796C16.0498 16.4496 16.0098 16.4396 15.9898 16.4596C15.9598 16.4796 15.9498 16.5296 15.9598 16.5596Z" fill="#F5EC23"/>
<path fill-rule="evenodd" clip-rule="evenodd" d="M15.6602 15.0598V15.1598C15.8002 15.1598 15.8202 15.1398 15.8602 15.1898C15.8902 15.2198 15.9402 15.2498 16.0002 15.2198C16.0602 15.1898 16.0902 15.1098 16.0602 15.0498C16.0402 14.9798 15.9802 14.9698 15.9302 14.9798L15.8502 15.0298C15.8002 15.0698 15.6602 15.0598 15.6602 15.0598Z" fill="#242222"/>
<path fill-rule="evenodd" clip-rule="evenodd" d="M16.0095 15.0796C16.0295 15.1196 16.0095 15.1596 15.9795 15.1696C15.9495 15.1896 15.9095 15.1696 15.8895 15.1396C15.8795 15.1096 15.8895 15.0596 15.9195 15.0496C15.9595 15.0196 15.9995 15.0396 16.0095 15.0796Z" fill="#F5EC23"/>
<path fill-rule="evenodd" clip-rule="evenodd" d="M15.6896 15.0898L15.7496 15.1598C15.6596 15.2798 15.6296 15.2898 15.6396 15.3598C15.6396 15.3998 15.6296 15.4698 15.5596 15.4998C15.4996 15.5298 15.4296 15.4998 15.4096 15.4298C15.3796 15.3698 15.4096 15.3098 15.4496 15.2698C15.4696 15.2498 15.5096 15.2498 15.5396 15.2298C15.5996 15.2198 15.6896 15.0998 15.6896 15.0898Z" fill="#242222"/>
<path fill-rule="evenodd" clip-rule="evenodd" d="M15.4702 15.41C15.4802 15.45 15.5202 15.46 15.5502 15.45C15.5641 15.4402 15.5746 15.4261 15.58 15.4099C15.5854 15.3937 15.5855 15.3763 15.5802 15.36C15.5602 15.32 15.5302 15.31 15.4902 15.32C15.4702 15.33 15.4502 15.37 15.4702 15.41Z" fill="#F5EC23"/>
<path fill-rule="evenodd" clip-rule="evenodd" d="M15.1797 13.9075V14.0075C15.3197 14.0075 15.3397 13.9875 15.3797 14.0375C15.4097 14.0775 15.4697 14.1075 15.5197 14.0775C15.5797 14.0475 15.6097 13.9675 15.5797 13.8975C15.5497 13.8275 15.4997 13.8175 15.4397 13.8275L15.3597 13.8775C15.3197 13.9175 15.1797 13.9075 15.1797 13.9075Z" fill="#242222"/>
<path fill-rule="evenodd" clip-rule="evenodd" d="M15.5298 13.9289C15.5498 13.9689 15.5298 14.0089 15.4998 14.0189C15.4698 14.0389 15.4298 14.0189 15.4198 13.9789C15.4098 13.9489 15.4198 13.8989 15.4498 13.8789C15.4798 13.8789 15.5198 13.8889 15.5298 13.9289Z" fill="#F5EC23"/>
<path fill-rule="evenodd" clip-rule="evenodd" d="M15.2197 13.8867L15.2797 13.9567C15.1897 14.0767 15.1597 14.0867 15.1697 14.1467C15.1748 14.1745 15.1707 14.2032 15.1581 14.2284C15.1455 14.2537 15.125 14.2742 15.0997 14.2867C15.0397 14.3167 14.9697 14.2867 14.9497 14.2167C14.9197 14.1467 14.9497 14.0967 14.9897 14.0567L15.0797 14.0267C15.1297 14.0167 15.2197 13.8867 15.2197 13.8867Z" fill="#242222"/>
<path fill-rule="evenodd" clip-rule="evenodd" d="M15 14.2091C15.02 14.2491 15.05 14.2591 15.09 14.2391C15.12 14.2291 15.14 14.1791 15.12 14.1491C15.11 14.1091 15.07 14.0991 15.04 14.1091C15 14.1291 14.98 14.1691 15 14.2091Z" fill="#F5EC23"/>
<path fill-rule="evenodd" clip-rule="evenodd" d="M14.6699 12.6983L14.6799 12.7983C14.8199 12.7983 14.8399 12.7783 14.8799 12.8383C14.8999 12.8683 14.9599 12.8983 15.0199 12.8683C15.0799 12.8383 15.0999 12.7583 15.0799 12.6983C15.0499 12.6283 14.9999 12.6183 14.9399 12.6283L14.8599 12.6783C14.8099 12.7083 14.6699 12.6983 14.6699 12.6983Z" fill="#242222"/>
<path fill-rule="evenodd" clip-rule="evenodd" d="M15.02 12.7197C15.04 12.7597 15.02 12.7997 14.99 12.8197C14.96 12.8397 14.93 12.8197 14.91 12.7797C14.9 12.7497 14.91 12.6997 14.94 12.6897C14.97 12.6697 15.01 12.6797 15.02 12.7197Z" fill="#F5EC23"/>
<path fill-rule="evenodd" clip-rule="evenodd" d="M14.7102 12.6797L14.7702 12.7497C14.6802 12.8697 14.6502 12.8797 14.6602 12.9397C14.6653 12.9675 14.6612 12.9961 14.6486 13.0214C14.636 13.0467 14.6154 13.0671 14.5902 13.0797C14.5302 13.1097 14.4602 13.0797 14.4302 13.0197C14.4002 12.9497 14.4302 12.8997 14.4702 12.8597L14.5602 12.8297C14.6202 12.8097 14.7102 12.6797 14.7102 12.6797Z" fill="#242222"/>
<path fill-rule="evenodd" clip-rule="evenodd" d="M14.4897 12.9965C14.4997 13.0365 14.5397 13.0465 14.5697 13.0365C14.5997 13.0265 14.6197 12.9765 14.5997 12.9365C14.5797 12.9065 14.5497 12.8865 14.5097 12.9065C14.4897 12.9165 14.4697 12.9565 14.4897 12.9965ZM15.5697 14.7665C15.5197 14.7865 15.4397 14.5365 15.3797 14.4065C15.3197 14.2665 15.2097 14.0465 15.2397 14.0265C15.2797 14.0065 15.3197 14.1165 15.3797 14.2665C15.4497 14.4165 15.6197 14.7465 15.5697 14.7665ZM15.0397 13.4465C14.9897 13.4665 14.9297 13.3065 14.8797 13.1665C14.8197 13.0265 14.7697 12.9265 14.7997 12.9065C14.8397 12.8865 14.8897 13.0165 14.9297 13.1265C14.9797 13.2465 15.0897 13.4265 15.0397 13.4465ZM16.2597 16.4465C16.2197 16.4565 16.0397 16.0465 15.8997 15.6865C15.7597 15.3365 15.6497 15.0565 15.6897 15.0365C15.7197 15.0165 15.8397 15.3465 15.9797 15.6965C16.1297 16.0565 16.2897 16.4365 16.2597 16.4465Z" fill="#F5EC23"/>
<path fill-rule="evenodd" clip-rule="evenodd" d="M16.5703 12.4766L16.5803 14.6166L16.7203 14.8666L17.5903 15.4166L18.7303 15.9966L18.8703 16.1666L19.8403 15.5666L20.9803 14.9566L21.2003 14.5866V12.4866L16.5703 12.4766Z" fill="#2E569F"/>
<path fill-rule="evenodd" clip-rule="evenodd" d="M16.5098 9.91797L16.5698 10.108L16.5598 12.558L16.6398 12.658L17.3098 12.748L18.0298 12.628L18.7398 12.748L18.7498 12.798L18.8898 12.778L19.0198 12.798L19.0298 12.748L19.7398 12.628L20.4598 12.748L21.1298 12.658L21.2098 12.558L21.1998 10.108L21.2598 9.91797L20.4598 9.92797L18.8898 9.94797L17.3198 9.92797L16.5098 9.91797Z" fill="#C62832"/>
<path fill-rule="evenodd" clip-rule="evenodd" d="M16.75 12.6478L17.11 12.4878L17.36 12.2678L17.53 12.4678L17.88 12.6378L17.6 12.8178L17.35 13.0678L17.13 12.8778L16.75 12.6478ZM20.41 12.2778L20.25 12.4678L19.9 12.6378L20.23 12.8678L20.44 13.0778L20.67 12.8678L21.04 12.6578L20.66 12.4878L20.41 12.2778ZM18.89 10.2578L18.78 10.6278L18.46 10.4578L18.61 10.8078L18.3 10.9478L18.61 11.0678L18.47 11.4278L18.77 11.2578L18.89 11.6178L19.01 11.2578L19.3 11.3978L19.17 11.0678L19.48 10.9478L19.18 10.7978L19.31 10.4378L19.01 10.6178L18.89 10.2578Z" fill="#F5EC23"/>
<path fill-rule="evenodd" clip-rule="evenodd" d="M19.7296 10.198L19.8296 10.588L19.9796 11.098L19.9996 11.578L19.8296 11.918L19.5096 12.068L19.3396 12.128L19.1296 12.008L18.8996 12.158L18.6496 11.988L18.4396 12.148L18.3096 12.058L18.0796 12.018L17.8196 11.708L17.7596 11.158L18.0796 10.168L17.6896 10.528L17.3496 11.048V11.718L17.5896 12.178L18.0296 12.498L18.1396 12.528L17.9396 12.968L18.2996 13.088L18.4796 13.298L18.5796 13.718L18.5596 14.618L18.4496 14.818L18.2096 15.008L18.1996 15.178L18.4596 15.368L18.6896 15.578L19.0296 15.588L19.3296 15.358L19.5796 15.188L19.5096 14.948L19.2496 14.708L19.1896 13.998L19.2696 13.288L19.6496 13.018L19.8496 12.938L19.6396 12.498L19.9596 12.378L20.3096 12.028L20.4696 11.338L20.3696 10.918L20.1296 10.578L19.7296 10.198Z" fill="#F5EC23"/>
<path fill-rule="evenodd" clip-rule="evenodd" d="M18.23 13.2778L18.39 13.4478L18.24 13.6078L18.1 13.4478L18.23 13.2778ZM19.55 13.2578L19.39 13.4378L19.53 13.6078L19.7 13.4478L19.55 13.2578ZM19.66 13.7178L19.38 13.7878L19.31 13.9678V14.4578L19.42 14.7378L19.58 14.8078L19.55 14.1678L19.66 13.7178ZM18.12 13.7178L18.22 14.2678V14.7978L18.36 14.6878L18.45 14.4478L18.47 14.0278L18.4 13.7778L18.12 13.7178ZM20.63 14.1578L20.31 13.9878L20.01 14.0578L19.85 14.2678L19.83 14.6078L20.06 14.9078L20.11 14.9178V14.5978L20.34 14.2278L20.63 14.1578ZM17.62 14.0378L17.58 13.8978L17.41 13.7778L17.27 13.8478L17.2 14.0078L17.24 14.1578L17.09 14.1378L16.97 14.2678L16.96 14.4378L17.04 14.5478L17.15 14.5978L17.22 14.5878L17.16 14.7378L17.21 14.8978L17.34 14.9778L17.5 14.9378L17.58 14.7678L17.71 14.8678L17.87 14.8278L17.97 14.6478L17.9 14.4878L17.82 14.4178L17.93 14.3478L17.98 14.1478L17.83 13.9578L17.69 13.9778L17.62 14.0378Z" fill="#F5EC23"/>
<path fill-rule="evenodd" clip-rule="evenodd" d="M19.1996 15.0386C19.1496 15.0386 19.1096 15.0686 19.1096 15.1286C19.1096 15.1886 19.1596 15.2186 19.1996 15.2186C19.3596 15.2186 19.4596 15.1786 19.4596 15.1286C19.4596 15.0786 19.3596 15.0386 19.1996 15.0386ZM18.5796 15.0386C18.4196 15.0386 18.3196 15.0786 18.3196 15.1286C18.3196 15.1886 18.4196 15.2186 18.5796 15.2186C18.6196 15.2186 18.6696 15.1886 18.6696 15.1286C18.6696 15.1047 18.6602 15.0818 18.6433 15.065C18.6264 15.0481 18.6035 15.0386 18.5796 15.0386ZM17.2796 14.5586C17.3296 14.6386 17.3996 14.6886 17.4996 14.6886L17.5496 14.6786V14.7386L17.5396 14.7986C17.4996 14.8986 17.3996 14.9486 17.3096 14.9086C17.2096 14.8686 17.1796 14.7486 17.2096 14.6486L17.2396 14.5986C17.2477 14.5808 17.2619 14.5666 17.2796 14.5586ZM17.7496 14.4286L17.7996 14.4486L17.8496 14.4786C17.9196 14.5486 17.9296 14.6786 17.8696 14.7586C17.8571 14.7793 17.8399 14.7969 17.8195 14.8101C17.7991 14.8232 17.776 14.8315 17.7519 14.8344C17.7279 14.8373 17.7034 14.8347 17.6805 14.8267C17.6576 14.8188 17.6368 14.8058 17.6196 14.7886L17.5796 14.7386L17.5596 14.6886C17.6128 14.6678 17.6588 14.6323 17.6925 14.5862C17.7261 14.5402 17.746 14.4855 17.7496 14.4286ZM17.4996 14.1986C17.3996 14.1986 17.3196 14.2886 17.3196 14.3986C17.3196 14.5086 17.3996 14.5886 17.4996 14.5886C17.5896 14.5886 17.6696 14.4986 17.6696 14.3986C17.6696 14.2886 17.5896 14.1986 17.4996 14.1986ZM17.1896 14.1686C17.0896 14.1586 17.0096 14.2486 16.9996 14.3586C16.9896 14.4686 17.0696 14.5686 17.1596 14.5686L17.2096 14.5586C17.2296 14.5586 17.2396 14.5486 17.2596 14.5286C17.2372 14.4775 17.2274 14.4218 17.2309 14.3662C17.2343 14.3105 17.2511 14.2565 17.2796 14.2086C17.2682 14.1963 17.2547 14.1861 17.2396 14.1786L17.1896 14.1686ZM20.2496 14.0486C20.3396 14.0486 20.4296 14.0786 20.4996 14.1286C20.2196 14.1886 20.0096 14.4786 20.0396 14.8086C19.9451 14.7227 19.8847 14.6055 19.8696 14.4786C19.8596 14.2486 20.0096 14.0486 20.2496 14.0486ZM17.7696 14.0086C17.8196 14.0086 17.8796 14.0486 17.9096 14.0986C17.9596 14.1986 17.9396 14.3186 17.8596 14.3786L17.8096 14.3986H17.7596V14.3886C17.7615 14.3342 17.7485 14.2804 17.7221 14.2328C17.6956 14.1852 17.6568 14.1458 17.6096 14.1186C17.6096 14.0986 17.6196 14.0886 17.6396 14.0686C17.6477 14.0508 17.6619 14.0366 17.6796 14.0286C17.7077 14.015 17.7385 14.0082 17.7696 14.0086ZM20.2496 13.9386C19.9596 13.9386 19.7496 14.1886 19.7696 14.5086C19.7996 14.7686 19.9796 14.9886 20.2196 15.0586C20.1767 14.982 20.1527 14.8963 20.1496 14.8086C20.1196 14.4986 20.3296 14.2486 20.6296 14.2486C20.6737 14.2495 20.7174 14.2562 20.7596 14.2686C20.7144 14.1711 20.6425 14.0884 20.5523 14.03C20.462 13.9716 20.3571 13.9399 20.2496 13.9386ZM17.4096 13.8586C17.4896 13.8586 17.5696 13.9186 17.5896 14.0086V14.0786L17.5796 14.1286C17.5509 14.1173 17.5205 14.1106 17.4896 14.1086C17.451 14.1093 17.4129 14.1187 17.3783 14.136C17.3437 14.1533 17.3134 14.1781 17.2896 14.2086L17.2596 14.1686L17.2396 14.1086C17.2096 13.9986 17.2696 13.8886 17.3696 13.8686L17.4096 13.8586ZM19.5996 13.7786C19.5696 13.9586 19.5096 14.1086 19.5096 14.7086C19.5096 14.7086 19.3496 14.6086 19.3496 14.3586C19.3496 14.1086 19.3396 13.9386 19.4096 13.8286L19.5996 13.7786ZM18.1796 13.7786L18.3696 13.8286C18.4396 13.9386 18.4296 14.1086 18.4296 14.3586C18.4296 14.6086 18.2696 14.7086 18.2696 14.7086C18.2696 14.0986 18.2096 13.9586 18.1796 13.7786ZM17.3896 13.7486L17.3496 13.7586C17.2296 13.7886 17.1496 13.9286 17.1796 14.0686L17.1996 14.1286L17.1496 14.1186H17.1296C17.0196 14.1186 16.9196 14.2286 16.9096 14.3586C16.8996 14.4986 16.9996 14.6186 17.1296 14.6286H17.1796L17.1496 14.6886C17.0996 14.8186 17.1596 14.9686 17.2796 15.0186C17.3996 15.0686 17.5296 15.0086 17.5796 14.8786L17.5896 14.8186L17.6296 14.8686C17.7296 14.9586 17.8696 14.9486 17.9496 14.8386C17.99 14.7855 18.0093 14.7193 18.0037 14.6528C17.9982 14.5864 17.9682 14.5243 17.9196 14.4786L17.8796 14.4486L17.9296 14.4186C17.9827 14.377 18.0189 14.3178 18.0318 14.2516C18.0446 14.1855 18.0332 14.117 17.9996 14.0586C17.9784 14.0218 17.9478 13.9913 17.9109 13.9702C17.874 13.9491 17.8321 13.9382 17.7896 13.9386C17.7497 13.9386 17.7196 13.9586 17.6796 13.9786C17.6619 13.9866 17.6477 14.0008 17.6396 14.0186V13.9586C17.5996 13.8186 17.4996 13.7386 17.3896 13.7486ZM19.7196 13.6586L19.3696 13.7386C19.2396 13.8286 19.2696 14.3686 19.2896 14.5186C19.3396 14.8286 19.6096 14.9186 19.6096 14.9186C19.6096 14.9186 19.5896 14.7786 19.5896 14.4986C19.5896 14.0986 19.6796 13.7586 19.7196 13.6586ZM18.0596 13.6586C18.0996 13.7686 18.1896 14.0986 18.1896 14.4886C18.1896 14.7586 18.1696 14.9086 18.1696 14.9086C18.1696 14.9086 18.4496 14.8186 18.4996 14.5086C18.5196 14.3586 18.5496 13.8286 18.4196 13.7286L18.0596 13.6586ZM19.5396 13.3286L19.6396 13.4386L19.5396 13.5586L19.4396 13.4386L19.5396 13.3286ZM18.2396 13.3286L18.3396 13.4386L18.2396 13.5586L18.1396 13.4386L18.2396 13.3286ZM19.5396 13.2186L19.7396 13.4386L19.5396 13.6586L19.3496 13.4386L19.5396 13.2186ZM18.2396 13.2186L18.4296 13.4386L18.2396 13.6586L18.0496 13.4386L18.2396 13.2186ZM20.4296 12.3586C20.6096 12.5586 20.8996 12.6686 20.8996 12.6686C20.8996 12.6686 20.5996 12.8386 20.4396 12.9886V13.0086L20.4296 12.9986V12.9886C20.3083 12.8512 20.1667 12.7332 20.0096 12.6386C20.1762 12.593 20.3235 12.4948 20.4296 12.3586ZM17.3496 12.3586C17.5096 12.5686 17.7696 12.6486 17.7696 12.6486C17.7696 12.6486 17.4996 12.8086 17.3596 12.9986V13.0086L17.3496 13.0186V12.9986C17.2066 12.8779 17.0526 12.7708 16.8896 12.6786C16.8796 12.6686 17.1696 12.5486 17.3496 12.3586ZM18.8896 10.4186L18.9796 10.6986L19.2196 10.5686L19.0996 10.8386L19.3496 10.9386L19.0996 11.0386L19.2196 11.3086L18.9796 11.1786L18.8796 11.4586L18.7996 11.1986L18.5596 11.3286L18.6796 11.0586L18.4296 10.9586L18.6796 10.8586L18.5596 10.5886L18.7996 10.7186L18.8896 10.4186ZM17.9696 10.3286C17.9996 10.4086 17.6996 10.8986 17.6996 11.3086C17.6996 11.8086 17.9296 12.0986 18.2496 12.0986C18.3096 12.0986 18.3796 12.1886 18.4396 12.1886C18.5296 12.1886 18.5896 12.0786 18.6396 12.0786C18.7196 12.0786 18.7596 12.2086 18.8796 12.2086C19.0096 12.2086 19.0596 12.0786 19.1296 12.0786C19.1896 12.0786 19.2396 12.1886 19.3396 12.1886C19.3996 12.1886 19.4596 12.0986 19.5196 12.0986C19.8396 12.0986 20.0696 11.8086 20.0696 11.3086C20.0696 10.8986 19.7696 10.4086 19.7996 10.3286C19.7996 10.3286 20.3896 10.7986 20.3896 11.3686C20.3896 12.2686 19.5796 12.4986 19.5796 12.4986L19.7596 12.9586C19.7596 12.9586 19.5096 12.9986 19.3596 13.1386C19.1496 13.3286 19.1496 13.8286 19.1496 14.1686C19.1496 14.5686 19.1596 14.7386 19.2896 14.8486C19.4197 14.9586 19.5296 14.9886 19.5296 15.1086C19.5296 15.2086 19.4297 15.2486 19.2896 15.3186C19.1296 15.3986 19.1196 15.5286 18.8896 15.5286C18.6596 15.5286 18.6496 15.3886 18.4996 15.3186C18.3596 15.2486 18.2596 15.2086 18.2596 15.1086C18.2596 14.9886 18.3596 14.9686 18.4996 14.8486C18.6296 14.7386 18.6396 14.5686 18.6396 14.1686C18.6396 13.8286 18.6396 13.3286 18.4296 13.1386C18.2696 12.9986 18.0196 12.9586 18.0196 12.9586L18.2096 12.4986C18.2096 12.4986 17.3896 12.2786 17.3896 11.3686C17.3796 10.7986 17.9696 10.3286 17.9696 10.3286ZM18.8896 10.1186L18.7496 10.5686L18.3696 10.3686L18.5496 10.7986L18.1596 10.9586L18.5496 11.1186L18.3696 11.5486L18.7496 11.3386L18.8896 11.7886L19.0296 11.3386L19.4096 11.5486L19.2296 11.1186L19.6196 10.9586L19.2296 10.7986L19.4096 10.3686L19.0296 10.5686L18.8896 10.1186ZM18.0296 12.6286C18.0296 12.6286 17.5396 12.4886 17.3496 12.2186C17.0196 12.5486 16.6396 12.6586 16.6396 12.6586C16.6396 12.6586 17.0396 12.8686 17.3496 13.1286C17.4996 12.8986 18.0296 12.6286 18.0296 12.6286ZM19.7396 12.6286C19.7396 12.6286 20.2796 12.8986 20.4196 13.1286C20.7196 12.8686 21.1296 12.6586 21.1296 12.6586C21.1296 12.6586 20.7396 12.5486 20.4196 12.2186C20.2396 12.4986 19.7396 12.6286 19.7396 12.6286ZM18.0896 10.0586C18.1696 10.3686 17.8196 10.7986 17.8196 11.3086C17.8196 11.9686 18.2496 11.9986 18.2496 11.9986C18.3496 11.9986 18.3896 12.0786 18.4396 12.0786C18.5196 12.0686 18.5596 11.9486 18.6396 11.9486C18.7196 11.9486 18.7796 12.0886 18.8796 12.0886C18.9896 12.0886 19.0496 11.9486 19.1296 11.9486C19.2096 11.9486 19.2496 12.0686 19.3396 12.0786C19.3796 12.0786 19.4196 11.9986 19.5196 11.9986C19.5196 11.9986 19.9496 11.9686 19.9496 11.3086C19.9496 10.7986 19.6096 10.3686 19.6796 10.0586C19.6996 10.2386 20.5096 10.6186 20.5096 11.3686C20.5096 12.3386 19.7096 12.5686 19.7096 12.5686L19.7396 12.6386L19.9296 13.0386C19.9296 13.0386 19.5996 13.0586 19.4296 13.2286C19.2196 13.4386 19.2396 13.8686 19.2396 14.1786C19.2396 14.4286 19.2696 14.6886 19.3796 14.7986C19.5296 14.9486 19.6296 14.9586 19.6296 15.1186C19.6296 15.2586 19.5296 15.2886 19.3796 15.3786C19.1796 15.4986 19.1896 15.6586 18.8896 15.6586C18.5896 15.6586 18.5996 15.4986 18.3996 15.3786C18.2396 15.2886 18.1396 15.2586 18.1396 15.1186C18.1396 14.9486 18.2496 14.9386 18.3996 14.7986C18.5096 14.6886 18.5396 14.4286 18.5396 14.1786C18.5396 13.8686 18.5596 13.4286 18.3496 13.2286C18.1696 13.0586 17.8396 13.0386 17.8396 13.0386L18.0296 12.6386L18.0596 12.5686C18.0596 12.5686 17.2596 12.3386 17.2596 11.3686C17.2596 10.6086 18.0696 10.2386 18.0896 10.0586Z" fill="#242222"/>
<path fill-rule="evenodd" clip-rule="evenodd" d="M16.5796 9.98766H21.1996C21.1996 9.98766 21.1296 10.0677 21.1296 10.2077V14.5377C21.1296 14.6377 21.0496 14.8577 20.5396 15.1377C19.7096 15.5977 19.0696 15.8177 18.8796 16.0877C18.6896 15.8277 18.0496 15.6077 17.2196 15.1377C16.7196 14.8577 16.6296 14.6377 16.6296 14.5377V10.2077C16.6396 10.0677 16.5796 9.98766 16.5796 9.98766ZM16.3096 9.84766C16.3096 9.84766 16.5196 10.0277 16.5196 10.2077V14.5377C16.5196 14.6577 16.5496 14.7277 16.5996 14.7977C16.6496 14.8777 16.7496 14.9877 16.8696 15.0677C17.2096 15.3177 17.7696 15.5777 18.1996 15.7977C18.5596 15.9777 18.6996 16.0577 18.8896 16.3177C19.0796 16.0577 19.2296 15.9877 19.5796 15.7977C20.0096 15.5777 20.5696 15.3177 20.9096 15.0677C21.0196 14.9877 21.1296 14.8777 21.1796 14.7977C21.2343 14.7223 21.2625 14.6308 21.2596 14.5377V10.2077C21.2596 10.0277 21.4696 9.84766 21.4696 9.84766H16.3096Z" fill="#F5EC23"/>
<path fill-rule="evenodd" clip-rule="evenodd" d="M18.7702 7.20955C18.7702 7.28955 18.6902 7.35955 18.5902 7.35955C18.4902 7.35955 18.4102 7.28955 18.4102 7.20955C18.4102 7.11955 18.4902 7.05955 18.5902 7.05955C18.6902 7.04955 18.7702 7.11955 18.7702 7.20955Z" fill="#242222"/>
<path fill-rule="evenodd" clip-rule="evenodd" d="M17.7295 7.11656C17.7295 7.11656 17.7895 6.98656 17.9395 6.98656L18.2095 6.97656C18.2395 7.05656 18.3595 7.18656 18.3595 7.32656C18.3595 7.32656 18.2295 7.06656 17.8795 7.06656C17.7895 7.07656 17.7295 7.11656 17.7295 7.11656Z" fill="#C62832"/>
<path fill-rule="evenodd" clip-rule="evenodd" d="M18.1904 7.14998C18.1904 7.14998 18.1104 7.11998 18.1104 7.08998C18.1104 7.04998 18.1504 7.04998 18.1704 7.07998C18.1904 7.09998 18.1904 7.14998 18.1904 7.14998Z" fill="#242222"/>
<path fill-rule="evenodd" clip-rule="evenodd" d="M18.3098 7.38864C18.3098 7.38864 18.2398 7.47864 18.2198 7.52864C18.1398 7.49864 18.0098 7.34864 18.0098 7.34864C18.0098 7.33864 18.1198 7.40864 18.3098 7.38864Z" fill="#C62832"/>
<path fill-rule="evenodd" clip-rule="evenodd" d="M21.2497 17.4094C21.2197 17.4094 21.1897 17.4394 21.1897 17.4494C21.1798 17.4786 21.1798 17.5102 21.1897 17.5394C21.1897 17.5394 21.0997 17.5094 21.0797 17.5294C21.0497 17.5394 21.0797 18.0094 21.0797 18.0094C21.0797 18.0094 21.4297 17.7594 21.4197 17.7294C21.3976 17.6927 21.3707 17.6591 21.3397 17.6294C21.3697 17.6294 21.3897 17.6094 21.3997 17.5794C21.4097 17.5594 21.4097 17.4794 21.3297 17.4394L21.2497 17.4094ZM23.8397 11.8594L23.5697 12.0894L23.5997 12.1594C23.5997 12.1594 23.5497 12.1794 23.5297 12.2294C23.5097 12.2794 23.5497 12.3494 23.5497 12.3494C23.5497 12.3494 23.2897 12.3294 23.2497 12.3594C23.2097 12.3894 23.2697 12.5894 23.2397 12.7594C23.2097 12.9994 23.1197 12.9794 23.1197 13.0294C23.1197 13.0794 23.1497 13.1494 23.1497 13.1494L23.0897 13.1894C23.0797 13.2294 23.0997 13.2894 23.0797 13.3394L22.6897 14.2094C22.6697 14.2394 22.6297 14.2594 22.6097 14.3094C22.5897 14.3494 22.6097 14.4094 22.6097 14.4094C22.6097 14.4094 22.5397 14.4094 22.5097 14.4694C22.4797 14.5294 22.4997 14.6094 22.4997 14.6094C22.4997 14.6094 22.4497 14.6194 22.4297 14.6694C22.4097 14.7194 22.4497 14.7494 22.4397 14.7794L21.9997 15.7394C21.9597 15.8294 21.8197 15.8394 21.7397 16.0194C21.7192 16.0684 21.7121 16.1221 21.7191 16.1748C21.7262 16.2275 21.7471 16.2774 21.7797 16.3194C21.7797 16.3194 21.6597 16.3294 21.6297 16.3994C21.5997 16.4694 21.6197 16.5794 21.7097 16.6194C21.7897 16.6694 21.8797 16.6294 21.9097 16.5594C21.9397 16.4894 21.8797 16.3794 21.8797 16.3794C21.8797 16.3794 22.0397 16.3994 22.1197 16.2294C22.1997 16.0494 22.1297 15.9194 22.1697 15.8294L22.6097 14.8694C22.6197 14.8494 22.6597 14.8694 22.6797 14.8094C22.7097 14.7594 22.6797 14.7094 22.6797 14.7094C22.6797 14.7094 22.7497 14.6694 22.7797 14.6194C22.7997 14.5594 22.7597 14.4894 22.7597 14.4894C22.7597 14.4894 22.8197 14.4694 22.8397 14.4194C22.8597 14.3694 22.8397 14.3294 22.8597 14.2894L23.2497 13.4194C23.2697 13.3694 23.3397 13.3594 23.3497 13.3194V13.2394C23.3497 13.2394 23.4197 13.2294 23.4597 13.1994C23.4897 13.1694 23.4297 13.0994 23.5797 12.9294C23.6897 12.7994 23.8597 12.7294 23.8597 12.6794C23.8597 12.6294 23.6897 12.3994 23.6897 12.3994C23.6897 12.3994 23.7597 12.3894 23.7897 12.3394C23.8097 12.2894 23.7997 12.2294 23.7997 12.2294L23.8697 12.2194V11.8594H23.8397Z" fill="#242222"/>
<path fill-rule="evenodd" clip-rule="evenodd" d="M21.0995 17.5875V17.9175L21.3395 17.7275C21.3395 17.7275 21.3095 17.6675 21.2295 17.6175C21.1695 17.5775 21.0995 17.5875 21.0995 17.5875ZM21.2495 17.4575C21.2695 17.4575 21.2895 17.4575 21.3095 17.4775C21.3495 17.4975 21.3795 17.5375 21.3595 17.5675C21.3495 17.5975 21.3095 17.5975 21.2695 17.5775C21.2295 17.5475 21.1995 17.5075 21.2095 17.4875C21.2095 17.4675 21.2295 17.4575 21.2495 17.4575ZM21.7295 16.3775C21.6995 16.3775 21.6695 16.3975 21.6495 16.4275C21.6295 16.4775 21.6495 16.5475 21.7095 16.5775C21.7595 16.6075 21.8295 16.5975 21.8495 16.5475C21.8695 16.4975 21.8495 16.4375 21.7895 16.3975L21.7295 16.3775ZM22.4595 14.8375C22.4295 14.8475 22.4095 14.8775 22.4095 14.8775L22.0095 15.7875C21.9795 15.8575 21.8295 15.9075 21.7795 16.0375C21.7195 16.1675 21.7595 16.2775 21.8395 16.3275C21.9095 16.3675 22.0195 16.3375 22.0795 16.2175C22.1395 16.0875 22.0895 15.9375 22.1195 15.8575L22.5295 14.9475C22.5295 14.9475 22.5595 14.8875 22.5095 14.8575C22.4795 14.8275 22.4695 14.8275 22.4595 14.8375ZM22.4995 14.6575C22.4795 14.6575 22.4595 14.6675 22.4595 14.6875C22.4495 14.7175 22.4695 14.7675 22.5195 14.7975C22.5695 14.8275 22.6195 14.8175 22.6295 14.7875C22.6495 14.7575 22.6195 14.7075 22.5795 14.6775C22.5539 14.6672 22.527 14.6604 22.4995 14.6575ZM22.5995 14.4575L22.6595 14.4775C22.7195 14.5075 22.7495 14.5675 22.7295 14.6175C22.7095 14.6575 22.6495 14.6675 22.5895 14.6375C22.5295 14.6075 22.4995 14.5475 22.5195 14.5075C22.5295 14.4675 22.5595 14.4575 22.5995 14.4575ZM22.6695 14.2975C22.651 14.2982 22.6333 14.3052 22.6195 14.3175C22.5995 14.3475 22.6295 14.3975 22.6795 14.4275C22.7295 14.4575 22.7795 14.4475 22.7895 14.4175C22.8095 14.3875 22.7795 14.3375 22.7295 14.3075L22.6695 14.2975ZM23.1795 13.1975L23.2295 13.2075C23.2795 13.2375 23.2895 13.2875 23.2695 13.3175C23.2595 13.3475 23.2195 13.3675 23.0995 13.6375L22.9695 13.9275L22.8295 14.2375C22.8295 14.2375 22.8095 14.2975 22.7495 14.2675C22.6895 14.2375 22.7195 14.1775 22.7195 14.1775L22.8595 13.8675L22.9895 13.5775C23.1095 13.3075 23.0995 13.2675 23.1095 13.2375C23.1395 13.2075 23.1595 13.1975 23.1795 13.1975ZM23.6395 12.4575L23.6895 12.6375C23.6895 12.6675 23.4895 12.8275 23.4195 12.9775L23.3395 13.1875L23.4195 13.1975L23.4295 13.0675C23.4495 13.0175 23.4595 12.9675 23.5495 12.8775C23.6495 12.7875 23.7795 12.7075 23.7795 12.6875C23.7795 12.6675 23.6395 12.4575 23.6395 12.4575ZM23.5895 12.4375C23.5895 12.4375 23.6495 12.5875 23.6395 12.6275C23.6395 12.6575 23.4695 12.7875 23.3895 12.9675L23.2995 13.1775L23.2595 13.1575L23.2195 13.1375L23.3195 12.9375C23.3995 12.7575 23.3895 12.5275 23.4195 12.5075C23.4395 12.4675 23.5895 12.4375 23.5895 12.4375ZM23.3395 12.3975L23.5495 12.4075L23.3895 12.4575C23.3695 12.4775 23.3695 12.7475 23.2995 12.9075L23.1995 13.0975L23.1395 13.0375C23.1395 13.0375 23.2195 12.9875 23.2295 12.9475C23.2595 12.8975 23.2895 12.8675 23.2995 12.7275C23.2995 12.5875 23.2795 12.4175 23.2995 12.4075C23.2895 12.3975 23.3095 12.3975 23.3395 12.3975ZM23.6395 12.1775C23.6095 12.1775 23.5895 12.1975 23.5695 12.2275C23.5495 12.2775 23.5695 12.3375 23.6095 12.3575C23.6595 12.3875 23.7095 12.3675 23.7295 12.3275C23.7391 12.303 23.7404 12.276 23.7332 12.2507C23.7259 12.2254 23.7106 12.2032 23.6895 12.1875L23.6395 12.1775ZM23.7995 11.9675V12.1875L23.7195 12.1375L23.6395 12.0875L23.7995 11.9675ZM18.7195 7.20749C18.7195 7.28749 18.6595 7.34749 18.5995 7.34749C18.5295 7.34749 18.4795 7.28749 18.4795 7.20749C18.4795 7.12749 18.5395 7.06749 18.5995 7.06749C18.6595 7.05749 18.7195 7.11749 18.7195 7.20749Z" fill="#F5EC23"/>
<path fill-rule="evenodd" clip-rule="evenodd" d="M18.65 7.20672C18.65 7.23672 18.63 7.26672 18.6 7.26672C18.5841 7.26672 18.5689 7.2604 18.5576 7.24915C18.5464 7.23789 18.54 7.22263 18.54 7.20672C18.54 7.17672 18.56 7.13672 18.6 7.13672C18.62 7.13672 18.65 7.16672 18.65 7.20672Z" fill="#242222"/>
</g>
</g>
<defs>
<clipPath id="clip0_26003_70857">
<rect width="38" height="25" fill="white" transform="translate(0 0.5)"/>
</clipPath>
<clipPath id="clip1_26003_70857">
<rect width="38" height="25" fill="white" transform="translate(0 0.5)"/>
</clipPath>
</defs>
</svg>
