<svg width="38" height="26" viewBox="0 0 38 26" fill="none" xmlns="http://www.w3.org/2000/svg">
<g clip-path="url(#clip0_26003_69999)">
<g clip-path="url(#clip1_26003_69999)">
<path d="M0 17.1719V21.9219C0 23.9219 1.65 25.5019 3.68 25.5019H34.33C34.8071 25.5098 35.281 25.4234 35.7245 25.2475C36.1681 25.0716 36.5724 24.8098 36.9144 24.4771C37.2564 24.1444 37.5293 23.7474 37.7173 23.3089C37.9053 22.8703 38.0048 22.399 38.01 21.9219V17.1719H0Z" fill="#171796"/>
<path d="M34.32 0.500501H3.68C3.20294 0.492564 2.72901 0.579015 2.28548 0.754881C1.84194 0.930747 1.43755 1.19256 1.09556 1.52526C0.75356 1.85796 0.480709 2.25499 0.292693 2.69351C0.104677 3.13204 0.00520612 3.6034 0 4.0805L0 8.8305H38V4.0805C38 2.0805 36.35 0.500501 34.32 0.500501Z" fill="#FF0000"/>
<path d="M0 8.71875H38V17.2287H0V8.71875Z" fill="white"/>
<path d="M34.3204 25.5019C34.7975 25.5098 35.2714 25.4234 35.7149 25.2475C36.1584 25.0716 36.5628 24.8098 36.9048 24.4771C37.2468 24.1444 37.5197 23.7474 37.7077 23.3089C37.8957 22.8703 37.9952 22.399 38.0004 21.9219V17.1719H24.1504L34.3204 25.5019Z" fill="#171796"/>
<path d="M34.3197 0.5H3.67969L13.8497 8.83H37.9997V4.08C37.9997 2.08 36.3497 0.5 34.3197 0.5Z" fill="#FF0000"/>
<path d="M24.21 17.2788H38V8.71875H13.79L24.21 17.2788Z" fill="white"/>
<path d="M34.3197 0.5H3.67969L32.0597 8.83H37.9997V4.08C37.9997 2.08 36.3497 0.5 34.3197 0.5Z" fill="#FF0000"/>
<path d="M38 10.5387V8.71875H31.75L38 10.5387Z" fill="white"/>
<path d="M38 21.9219C38 23.9219 36.35 25.5019 34.32 25.5019H3.68C3.20294 25.5098 2.72901 25.4234 2.28548 25.2475C1.84194 25.0716 1.43755 24.8098 1.09556 24.4771C0.75356 24.1444 0.480709 23.7474 0.292693 23.3089C0.104677 22.8703 0.00520612 22.399 0 21.9219" fill="#171796"/>
<path d="M23.9 8.48047L25.06 6.02047L24.2 4.73047L22.67 5.26047L22 7.89047C22.68 8.01047 23.29 8.19047 23.9 8.48047Z" fill="#0093DD"/>
<path d="M22 7.83828C22.67 8.01828 23.29 8.18828 23.9 8.48828L25.06 6.02828L24.2 4.73828" fill="#0068B5"/>
<path d="M24.27 7.65859L24.58 7.00859C23.91 6.71859 23.17 6.47859 22.43 6.30859L22.25 6.95859C22.92 7.12859 23.6 7.36859 24.27 7.65859Z" fill="#FF0000"/>
<path d="M22.5498 7.07188C23.1598 7.25188 23.7098 7.42187 24.2698 7.66187L24.5798 7.01188C24.0298 6.78188 23.5398 6.60188 22.9898 6.42188L22.5498 7.07188Z" fill="#CE0202"/>
<path d="M17.7703 4.77953L16.3603 4.01953L15.3203 5.18953L16.0003 7.83953C16.6572 7.65091 17.3369 7.55334 18.0203 7.54953L17.7703 4.77953Z" fill="#2727C1"/>
<path d="M16 7.84125C16.6569 7.65263 17.3366 7.55506 18.02 7.55125L17.77 4.79125L16.36 4.03125" fill="#171796"/>
<path d="M22.7405 5.18953L21.7005 4.01953L20.2305 4.77953L19.9805 7.47953C20.6505 7.53953 21.3305 7.65953 22.0005 7.76953L22.7405 5.18953Z" fill="#2727C1"/>
<path d="M20.04 7.48094C20.71 7.54094 21.39 7.66094 22.06 7.77094L22.73 5.13094L21.7 3.96094" fill="#171796"/>
<path d="M15.3197 5.19016L13.7897 4.66016L12.9297 5.95016L13.2397 6.65016L14.0397 8.41016C14.6497 8.18016 15.2697 7.94016 15.9397 7.76016L15.3197 5.19016Z" fill="#0093DD"/>
<path d="M16.0004 7.84188L15.3304 5.20187L13.8004 4.67188L12.9404 5.96187" fill="#0068B5"/>
<path d="M13.9102 8.71875V14.5287C13.9468 15.847 14.5018 17.0977 15.4547 18.0094C16.4076 18.9211 17.6815 19.4203 19.0002 19.3987C20.3188 19.4203 21.5927 18.9211 22.5456 18.0094C23.4985 17.0977 24.0535 15.847 24.0902 14.5287V8.71875H13.9102Z" fill="white"/>
<path d="M19.0004 19.3987C20.319 19.4203 21.593 18.9211 22.5459 18.0094C23.4988 17.0977 24.0538 15.847 24.0904 14.5287V8.71875H18.9404" fill="white"/>
<path d="M16.0602 8.89062H14.1602V10.9506H16.0602V8.89062ZM16.0602 13.0006H18.0202V10.9506H16.0602V13.0006ZM14.1602 14.5306C14.1602 14.7106 14.1602 14.8806 14.2202 15.0606H16.1202V13.0006H14.1602V14.5306ZM19.9802 13.0006H18.0202V15.0506H19.9802V13.0006Z" fill="#FF0000"/>
<path d="M19.9795 15.05V13H18.0195M19.9795 17.11H21.9395V15.05H19.9795V17.11ZM21.9395 18.22C22.3695 17.93 22.7395 17.52 23.0395 17.1H21.9395V18.22Z" fill="#FF0000"/>
<path d="M16.0602 17.1108H18.0202V15.0508H16.0602V17.1108ZM14.9502 17.1108C15.2602 17.5208 15.6202 17.9308 16.0502 18.2308V17.1108H14.9502ZM19.3702 19.1608C19.6202 19.1608 19.8002 19.1008 19.9802 19.1008V17.1008H18.0202V19.1008C18.2002 19.1608 18.4502 19.1608 18.6302 19.1608H19.3702Z" fill="#FF0000"/>
<path d="M19.3695 19.1592C19.6195 19.1592 19.7995 19.0992 19.9795 19.0992V17.0992H18.0195M23.8395 15.0492C23.8395 14.8692 23.8995 14.6992 23.8995 14.5192V12.9992H21.9395V15.0492H23.8395ZM19.9795 12.9992H21.9395V10.9492H19.9795V12.9992Z" fill="#FF0000"/>
<path d="M19.9795 8.89062H18.0195V10.9506H19.9795V8.89062Z" fill="#FF0000"/>
<path d="M19.9795 10.9506V8.89062H18.0195M23.8395 10.9506V8.89062H21.9395V10.9506H23.8395Z" fill="#FF0000"/>
<path d="M15.3202 6.83875V6.71875V7.43875H14.6602V7.49875H15.7402V6.95875L15.3202 6.83875Z" fill="white"/>
<path d="M15.1396 7.30969V7.24969L15.1996 7.18969V7.12969L15.2596 7.06969V6.95969L15.3196 6.89969V6.71969H15.2596V6.48969H15.1996V6.42969V6.83969H15.1396V6.95969H15.0796V7.00969L15.0196 7.06969L14.9496 7.12969L14.8896 7.18969L15.1396 7.30969Z" fill="#CADDDC"/>
<path d="M15.8101 7.19063C16.4801 7.01063 17.2201 6.90063 17.8901 6.84063L17.8301 6.14062C17.0901 6.20062 16.3001 6.32062 15.6201 6.49062L15.8101 7.19063Z" fill="#FF0000"/>
<path d="M16.1196 6.37063L16.0596 7.13063C16.6696 7.01063 17.2896 6.90063 17.9596 6.84063L17.8996 6.14062C17.2796 6.19063 16.6696 6.25063 16.1196 6.37063Z" fill="#CE0202"/>
<path d="M15.4501 5.83906C16.1901 5.65906 16.9801 5.54906 17.7801 5.48906V4.78906C16.9201 4.84906 16.1301 4.96906 15.3301 5.19906L15.4501 5.83906Z" fill="#FF0000"/>
<path d="M16.1797 5.66125C16.7297 5.54125 17.2197 5.48125 17.7697 5.43125V4.78125L16.2997 4.96125L16.1797 5.66125Z" fill="#CE0202"/>
<path d="M22.2504 6.96141C22.9904 7.14141 23.6604 7.37141 24.2704 7.66141L24.2104 7.84141C23.5404 7.55141 22.8604 7.37141 22.1904 7.19141L22.2504 6.96141ZM24.5804 7.07141L24.6404 6.89141C23.9704 6.60141 23.2304 6.36141 22.4304 6.19141L22.3704 6.37141C23.1704 6.49141 23.9004 6.78141 24.5804 7.07141Z" fill="white"/>
<path d="M24.6397 6.89859C24.1497 6.66859 23.5997 6.48859 23.0497 6.30859L22.9297 6.48859C23.4797 6.66859 24.0297 6.83859 24.5197 7.07859V7.00859L24.6397 6.89859ZM24.2097 7.83859L24.2697 7.65859C23.7197 7.42859 23.1097 7.24859 22.5497 7.06859L22.4297 7.24859C23.0497 7.36859 23.6597 7.59859 24.2097 7.83859Z" fill="#CADDDC"/>
<path d="M14.7105 5.95969L14.4605 5.77969L14.5305 5.54969V5.48969L14.2805 5.60969L14.0405 5.42969L13.9705 5.65969L13.7305 5.77969L13.9105 5.95969V6.18969L14.1605 6.12969L14.3405 6.30969L14.4005 6.01969L14.6505 5.95969H14.7105Z" fill="#DDA300"/>
<path d="M24.3902 5.42812L24.1502 5.36812L24.0902 5.07812H24.0302L23.8402 5.24813L23.6002 5.18813L23.6602 5.42812L23.4102 5.60813V5.65812L23.6602 5.71812L23.7202 5.95813V6.01813L23.7802 5.95813L23.9602 5.77813L24.2102 5.89813L24.1502 5.60813L24.3902 5.48812V5.42812Z" fill="#F7DB17"/>
<path d="M24.21 5.89813L24.15 5.60813L24.39 5.48812V5.42812L24.15 5.36812L24.09 5.07812H24.03L23.84 5.24813H23.78L23.54 5.65812L23.66 5.71812L23.72 5.95813V6.01813L23.78 5.95813L23.96 5.77813L24.21 5.89813Z" fill="#DDA300"/>
<path d="M20.2295 4.78125L18.9995 3.78125L17.7695 4.78125L18.0195 7.48125C18.3295 7.48125 18.6895 7.42125 18.9995 7.42125C19.3695 7.42125 19.6695 7.42125 20.0395 7.48125L20.2295 4.78125Z" fill="#0093DD"/>
<path d="M19.0002 7.48125C19.3702 7.48125 19.6702 7.48125 20.0402 7.54125L20.2202 4.78125L18.9902 3.78125" fill="#0068B5"/>
<path d="M19.4304 6.54172H19.3104C19.3704 6.48172 19.3704 6.42172 19.3704 6.36172H19.2504V6.31172C19.3104 6.25172 19.3104 6.19172 19.3704 6.13172H19.3104C19.2504 6.13172 19.2504 6.13172 19.2504 6.19172C19.1904 6.19172 19.1904 6.19172 19.1304 6.25172C19.1304 6.25172 19.1304 6.19172 19.0704 6.19172V6.13172C19.0704 6.07172 19.0104 6.07172 19.0104 6.01172C19.0104 6.07172 18.9504 6.07172 18.9504 6.13172C18.9504 6.13172 18.8904 6.13172 18.9504 6.19172C18.8904 6.19172 18.8904 6.19172 18.8904 6.25172C18.8304 6.19172 18.8304 6.19172 18.7704 6.19172C18.7704 6.19172 18.7704 6.13172 18.7104 6.13172H18.6504C18.7104 6.19172 18.7104 6.25172 18.7704 6.31172V6.37172H18.6504C18.6504 6.43172 18.6504 6.49172 18.7104 6.55172H18.6504C18.6504 6.61172 18.7104 6.61172 18.7704 6.67172L18.7104 6.73172V6.79172H18.8304V6.91172H18.8904V7.03172H19.0104V7.15172L19.0704 7.09172V7.15172L19.1304 7.09172L19.1904 7.15172V7.03172H19.3104V6.90172H19.3704V6.78172H19.4904V6.72172C19.4904 6.66172 19.4904 6.66172 19.4304 6.66172V6.54172Z" fill="#F7DB17"/>
<path d="M19.4298 6.54172H19.3098C19.3698 6.48172 19.3698 6.42172 19.3698 6.36172H19.2498V6.31172C19.3098 6.25172 19.3098 6.19172 19.3698 6.13172H19.3098C19.2498 6.13172 19.2498 6.13172 19.2498 6.19172C19.1898 6.19172 19.1898 6.19172 19.1298 6.25172C19.1298 6.25172 19.1298 6.19172 19.0698 6.19172V6.13172C19.0698 6.07172 19.0098 6.07172 19.0098 6.01172V7.07172L19.0698 7.01172L19.1298 7.07172V6.95172H19.2498V6.84172H19.3098V6.72172H19.4298V6.66172C19.4298 6.60172 19.4298 6.60172 19.3698 6.60172C19.4298 6.60172 19.4298 6.54172 19.4298 6.54172Z" fill="#DDA300"/>
<path d="M18.6296 5.84125V5.72125H18.7496V5.60125H18.8096C18.8096 5.54125 18.8096 5.54125 18.7496 5.48125H18.8696V5.42125C18.8696 5.42125 18.8696 5.36125 18.8096 5.36125C18.8696 5.36125 18.8696 5.30125 18.9296 5.24125H18.8096C18.8696 5.18125 18.8696 5.12125 18.8696 5.06125H18.7496V5.02125C18.8096 4.96125 18.8096 4.90125 18.8696 4.84125H18.8096C18.7496 4.84125 18.7496 4.84125 18.7496 4.90125C18.6896 4.90125 18.6896 4.90125 18.6296 4.96125C18.6296 4.96125 18.6296 4.90125 18.5696 4.90125V4.84125C18.5696 4.78125 18.5096 4.78125 18.5096 4.78125C18.5096 4.84125 18.4496 4.84125 18.4496 4.90125C18.4496 4.90125 18.3896 4.90125 18.4496 4.96125C18.3896 4.96125 18.3896 4.96125 18.3896 5.02125C18.3296 4.96125 18.3296 4.96125 18.2696 4.96125C18.2696 4.96125 18.2696 4.90125 18.2096 4.90125H18.1496C18.2096 4.96125 18.2096 5.02125 18.2696 5.08125V5.14125H18.1396C18.1396 5.20125 18.1396 5.26125 18.1996 5.32125H18.1396C18.1396 5.38125 18.1996 5.38125 18.2596 5.44125L18.1996 5.49125V5.55125H18.3196V5.67125H18.3796V5.79125H18.4996V5.91125L18.5596 5.85125V5.91125C18.5096 5.84125 18.5096 5.84125 18.6296 5.84125C18.5696 5.84125 18.5696 5.78125 18.6296 5.84125Z" fill="#F7DB17"/>
<path d="M19.9796 5.31125H19.8596C19.9196 5.25125 19.9196 5.19125 19.9196 5.13125H19.7996V5.08125C19.8596 5.02125 19.8596 4.96125 19.9196 4.90125H19.8596C19.7996 4.90125 19.7996 4.90125 19.7996 4.96125C19.7396 4.96125 19.7396 4.96125 19.6796 5.02125C19.6796 4.96125 19.6796 4.96125 19.6196 4.96125V4.90125C19.6196 4.84125 19.5596 4.84125 19.5596 4.78125C19.5596 4.84125 19.4996 4.84125 19.4996 4.84125C19.4996 4.84125 19.4396 4.84125 19.4996 4.90125C19.4396 4.90125 19.4396 4.90125 19.4396 4.96125C19.4396 4.90125 19.3796 4.90125 19.3196 4.90125C19.3196 4.90125 19.3196 4.84125 19.2596 4.84125H19.1996C19.2596 4.90125 19.2596 4.96125 19.3196 5.02125V5.08125H19.1996C19.1996 5.14125 19.1996 5.20125 19.2596 5.26125H19.1396C19.1396 5.32125 19.1996 5.32125 19.2596 5.38125L19.1996 5.44125V5.50125H19.3196C19.3196 5.56125 19.2596 5.56125 19.2596 5.62125H19.3196V5.74125H19.4396V5.86125L19.4996 5.80125L19.5596 5.86125V5.78125L19.6196 5.84125V5.72125H19.7396V5.61125H19.7996V5.49125H19.9196V5.43125C19.9196 5.43125 19.9196 5.37125 19.8596 5.37125C19.9796 5.43125 19.9796 5.37125 19.9796 5.31125Z" fill="#DDA300"/>
<path d="M24.33 7.12906C24.27 7.06906 24.27 7.06906 24.21 7.06906C24.15 7.06906 24.09 7.00906 24.09 7.00906H24.03C23.97 7.00906 23.97 7.00906 23.91 6.94906C23.79 6.88906 23.66 6.82906 23.54 6.88906H23.48C23.42 6.82906 23.36 6.82906 23.23 6.82906C23.11 6.76906 23.05 6.70906 22.98 6.70906C22.98 6.70906 22.92 6.70906 22.92 6.64906V6.58906H22.86L22.8 6.53906H22.56V6.59906H22.68C22.68 6.59906 22.68 6.65906 22.74 6.65906H22.5H22.92C22.92 6.65906 22.92 6.71906 22.98 6.71906H22.74H23.16C23.22 6.65906 23.28 6.71906 23.34 6.71906C23.34 6.71906 23.28 6.71906 23.34 6.77906H23.7C23.76 6.77906 23.76 6.83906 23.82 6.83906C23.88 6.83906 23.94 6.89906 23.94 6.89906C23.94 6.89906 24 6.89906 24 6.95906V7.01906C23.94 7.01906 23.94 7.01906 23.94 7.07906H24C24 7.07906 24.06 7.07906 24.06 7.01906C24.06 7.01906 24.12 6.95906 24.06 6.95906V6.83906H24C24 6.83906 23.94 6.83906 23.94 6.77906V6.65906H24C24 6.65906 24.06 6.65906 24.06 6.71906C24.12 6.71906 24.12 6.77906 24.18 6.77906C24.24 6.77906 24.24 6.83906 24.3 6.83906H24.42L24.33 7.12906Z" fill="#2727C1"/>
<path d="M23.9597 7.42016C23.9597 7.42016 24.0197 7.42016 24.0197 7.36016C24.0197 7.36016 24.0797 7.30016 24.0197 7.30016V7.18016H23.9597C23.9597 7.18016 23.8997 7.18016 23.8997 7.12016V7.01016H23.9597C23.9597 7.01016 24.0197 7.01016 24.0197 7.07016C24.0797 7.07016 24.0797 7.13016 24.1397 7.13016C24.1997 7.13016 24.1997 7.19016 24.2597 7.19016H24.3797C24.3797 7.19016 24.4397 7.13016 24.3797 7.13016C24.3197 7.07016 24.3197 7.07016 24.2597 7.07016C24.1997 7.07016 24.1397 7.01016 24.1397 7.01016H24.0797C24.0197 7.01016 24.0197 7.01016 23.9597 6.95016C23.8397 6.90016 23.7197 6.84016 23.5997 6.90016H23.5397C23.4797 6.84016 23.4197 6.84016 23.2897 6.84016C23.1697 6.78016 23.1097 6.72016 23.0397 6.72016C23.0397 6.72016 22.9797 6.72016 22.9797 6.66016L22.9197 6.78016H22.8597L22.6797 6.90016H22.9797C22.9797 6.90016 22.9797 6.96016 23.0397 6.96016H22.7997H23.2197C23.2797 6.90016 23.3397 6.96016 23.3997 6.96016C23.3997 6.96016 23.3397 6.96016 23.3997 7.02016H23.7597C23.8197 7.02016 23.8197 7.08016 23.8797 7.08016C23.9397 7.08016 23.9997 7.14016 23.9997 7.14016C23.9997 7.14016 24.0597 7.14016 24.0597 7.20016V7.26016C23.8397 7.37016 23.8397 7.37016 23.9597 7.42016Z" fill="#171796"/>
<path d="M22.0602 6.01828C22.0002 6.01828 21.9402 6.01828 21.9402 6.07828H21.7002L21.6402 6.01828H21.4002C21.4002 5.95828 21.3402 5.95828 21.3402 5.95828H21.1602C21.1602 5.95828 21.1602 5.89828 21.1002 5.89828C21.1002 5.83828 21.1002 5.83828 21.0402 5.83828H20.9802V5.65828C20.9802 5.65828 21.0402 5.71828 21.0402 5.65828C21.1002 5.65828 21.1002 5.65828 21.1002 5.59828C21.1602 5.59828 21.1602 5.53828 21.1002 5.53828C21.1602 5.53828 21.2202 5.59828 21.2802 5.59828C21.3402 5.65828 21.4002 5.65828 21.4602 5.71828C21.5802 5.77828 21.6402 5.77828 21.7702 5.77828C21.8302 5.77828 21.8902 5.77828 21.8902 5.71828H21.8302C21.7702 5.71828 21.7102 5.71828 21.6502 5.65828C21.5302 5.59828 21.5302 5.59828 21.4702 5.53828L21.3502 5.41828C21.4702 5.47828 21.6002 5.53828 21.7802 5.47828H21.5202C21.5202 5.35828 21.4602 5.35828 21.4602 5.35828C21.4002 5.35828 21.4002 5.29828 21.3402 5.29828C21.2802 5.29828 21.2802 5.23828 21.2202 5.23828H21.0402C20.9802 5.23828 20.9202 5.23828 20.9202 5.29828C20.8602 5.29828 20.8602 5.35828 20.8002 5.35828C20.8002 5.35828 20.7402 5.35828 20.7402 5.41828L20.6802 5.35828H20.5602V5.41828L20.6202 5.47828H20.6802L20.6202 5.53828C20.6202 5.53828 20.6202 5.59828 20.5602 5.59828C20.5002 5.59828 20.5602 5.65828 20.5602 5.65828V5.71828H20.6802C20.6202 5.77828 20.6202 5.77828 20.6802 5.77828V5.89828C20.6202 5.89828 20.6202 5.95828 20.6202 5.95828V6.01828L20.5602 6.07828C20.5602 6.07828 20.5602 6.13828 20.6202 6.13828V6.55828L20.5302 6.59828C20.5302 6.65828 20.4702 6.65828 20.4102 6.65828C20.3502 6.65828 20.3502 6.71828 20.4102 6.71828L20.4702 6.77828H20.5902V6.59828L20.6502 6.53828V6.47828H20.7102V6.71828C20.7102 6.71828 20.7102 6.77828 20.6502 6.77828L20.5902 6.83828L20.5302 6.89828V6.95828H20.6502V6.77828C20.6502 6.77828 20.6502 6.71828 20.7102 6.71828V6.59828H20.8902C20.8902 6.59828 20.8902 6.65828 20.9502 6.59828V6.71828L20.9002 6.77828L20.8402 6.83828C20.7802 6.83828 20.7802 6.89828 20.7202 6.89828H20.6602V6.95828H20.7802V6.77828L20.9002 6.65828H20.9602L21.0202 6.59828H21.2002V6.65828L21.1402 6.71828C21.1402 6.77828 21.0802 6.77828 21.0802 6.77828C21.0202 6.77828 21.0202 6.83828 21.0202 6.83828H20.9602C20.9602 6.83828 20.9602 6.89828 21.0202 6.89828V6.95828H21.1402C21.1402 6.95828 21.2002 6.95828 21.2002 6.89828V6.83828L21.2602 6.77828L21.3802 6.65828L21.4402 6.59828V6.48828C21.5002 6.48828 21.5002 6.42828 21.4402 6.42828C21.5002 6.42828 21.4402 6.36828 21.4402 6.36828V6.30828C21.5002 6.30828 21.5002 6.30828 21.5002 6.24828V6.18828H21.6202C21.6802 6.18828 21.6802 6.18828 21.6802 6.12828V6.06828C21.7402 6.06828 21.7402 6.06828 21.7402 6.00828C22.1302 6.07828 22.1302 6.07828 22.0602 6.01828C22.1302 6.01828 22.1302 6.01828 22.0602 6.01828Z" fill="#F7DB17"/>
<path d="M22.0003 6.13047C22.0603 6.07047 22.0603 6.07047 22.1203 6.07047C22.1203 6.01047 22.1203 6.01047 22.0603 6.01047H21.7003L21.6403 5.95047H21.1603C21.1603 5.95047 21.1603 5.89047 21.1003 5.89047C21.1003 5.83047 21.1003 5.83047 21.0403 5.83047H20.9803V5.65047C20.9803 5.65047 21.0403 5.71047 21.0403 5.65047C21.1003 5.65047 21.1003 5.65047 21.1003 5.59047C21.1603 5.59047 21.1603 5.53047 21.1003 5.53047C21.1603 5.53047 21.2203 5.59047 21.2803 5.59047C21.3403 5.65047 21.4003 5.65047 21.4603 5.71047C21.5803 5.77047 21.6403 5.77047 21.7703 5.77047C21.8303 5.77047 21.8903 5.77047 21.8903 5.71047H21.8303C21.7703 5.71047 21.7103 5.71047 21.6503 5.65047C21.5303 5.59047 21.5303 5.59047 21.4703 5.53047L21.3503 5.41047C21.4703 5.47047 21.6003 5.53047 21.7803 5.47047H21.5203C21.5203 5.35047 21.4603 5.35047 21.4603 5.35047C21.4003 5.35047 21.4003 5.29047 21.3403 5.29047C21.2803 5.29047 21.2803 5.23047 21.2203 5.23047H21.1003L20.6703 6.17047V6.47047L20.6103 6.53047C20.6103 6.59047 20.5503 6.59047 20.4903 6.59047C20.4303 6.59047 20.4303 6.65047 20.4903 6.65047L20.5503 6.71047H20.6703V6.54047L20.7303 6.48047V6.42047H20.7903V6.66047C20.7903 6.66047 20.7903 6.72047 20.7303 6.72047L20.6703 6.78047L20.6103 6.84047V6.90047H20.7303V6.72047C20.7303 6.72047 20.7303 6.66047 20.7903 6.66047V6.54047H20.9703C20.9703 6.54047 20.9703 6.60047 21.0303 6.54047V6.66047L20.9703 6.72047L20.9103 6.78047C20.8503 6.78047 20.8503 6.84047 20.7903 6.84047H20.7303V6.90047H20.8503V6.72047L20.9703 6.60047H21.0303L21.0903 6.54047H21.2703V6.60047L21.2103 6.66047C21.2103 6.72047 21.1503 6.72047 21.1503 6.72047C21.0903 6.72047 21.0903 6.78047 21.0903 6.78047H21.0303C21.0303 6.78047 21.0303 6.84047 21.0903 6.84047V6.90047H21.2103C21.2103 6.90047 21.2703 6.90047 21.2703 6.84047V6.78047L21.3303 6.72047L21.4503 6.60047L21.5103 6.54047V6.43047C21.5703 6.43047 21.5703 6.37047 21.5103 6.37047C21.5703 6.37047 21.5103 6.31047 21.5103 6.31047V6.25047C21.5703 6.25047 21.5703 6.25047 21.5703 6.19047V6.13047H21.6903C22.0003 6.19047 22.0003 6.19047 22.0003 6.13047Z" fill="#DDA300"/>
</g>
</g>
<defs>
<clipPath id="clip0_26003_69999">
<rect width="38" height="25" fill="white" transform="translate(0 0.5)"/>
</clipPath>
<clipPath id="clip1_26003_69999">
<rect width="38" height="25" fill="white" transform="translate(0 0.5)"/>
</clipPath>
</defs>
</svg>
