<svg width="38" height="26" viewBox="0 0 38 26" fill="none" xmlns="http://www.w3.org/2000/svg">
<g clip-path="url(#clip0_26003_92556)">
<g clip-path="url(#clip1_26003_92556)">
<path fill-rule="evenodd" clip-rule="evenodd" d="M2.5 25.5H35.5C36.8 25.3 37.8 24.1 38 22.6V3.4C37.8 1.9 36.8 0.7 35.5 0.5H2.5C1.2 0.7 0.2 1.9 0 3.4V22.6C0.2 24.1 1.2 25.3 2.5 25.5Z" fill="#FEFEFE"/>
<path fill-rule="evenodd" clip-rule="evenodd" d="M0 8H38V3.4C37.8 1.9 36.8 0.7 35.5 0.5H2.5C1.2 0.7 0.2 1.9 0 3.4V8Z" fill="#242222"/>
<path fill-rule="evenodd" clip-rule="evenodd" d="M2.5 25.5H35.5C36.8 25.3 37.8 24.1 38 22.6V18H0V22.6C0.2 24.1 1.2 25.3 2.5 25.5Z" fill="#2E6F3A"/>
<path fill-rule="evenodd" clip-rule="evenodd" d="M14.9004 20.4008L15.1004 20.6008L21.6004 8.00078C22.0004 7.90078 22.2004 7.50078 22.4004 7.10078C22.5004 6.80078 23.1004 5.70078 23.3004 4.30078C22.3004 5.20078 21.8004 6.30078 21.6004 6.60078C21.4004 7.00078 21.2004 7.40078 21.3004 7.80078L14.9004 20.4008Z" fill="#242222"/>
<path fill-rule="evenodd" clip-rule="evenodd" d="M23.2998 4.19922C22.8998 4.59922 22.2998 5.39922 21.6998 6.49922C21.4998 6.89922 21.2998 7.29922 21.3998 7.69922L14.8998 20.3992L15.0998 20.4992L21.5998 7.89922C21.9998 7.79922 22.1998 7.39922 22.3998 6.99922C22.8998 5.89922 23.1998 4.89922 23.2998 4.19922ZM15.0998 20.5992L14.7998 20.3992L21.2998 7.69922C21.1998 7.29922 21.3998 6.89922 21.5998 6.49922C22.1998 5.39922 22.7998 4.59922 23.2998 4.19922C23.1998 4.89922 22.9998 5.89922 22.3998 6.99922C22.1998 7.39922 21.9998 7.79922 21.5998 7.89922L15.0998 20.5992Z" fill="#242222"/>
<path fill-rule="evenodd" clip-rule="evenodd" d="M14.9004 20.4008L15.1004 20.6008L21.6004 8.00078C22.0004 7.90078 22.2004 7.50078 22.4004 7.10078C22.5004 6.80078 23.1004 5.70078 23.3004 4.30078C22.3004 5.20078 21.8004 6.30078 21.6004 6.60078C21.4004 7.00078 21.2004 7.40078 21.3004 7.80078L14.9004 20.4008Z" fill="#FEFEFE"/>
<path fill-rule="evenodd" clip-rule="evenodd" d="M22.8004 20.3992L22.6004 20.5992L16.1004 7.89922C15.7004 7.79922 15.5004 7.39922 15.3004 6.99922C15.2004 6.69922 14.6004 5.59922 14.4004 4.19922C15.4004 5.09922 15.9004 6.19922 16.1004 6.49922C16.3004 6.89922 16.5004 7.29922 16.4004 7.69922L22.8004 20.3992Z" fill="#242222"/>
<path fill-rule="evenodd" clip-rule="evenodd" d="M14.2998 4.30078C14.3998 4.90078 14.6998 5.90078 15.2998 7.00078C15.4998 7.40078 15.6998 7.80078 16.0998 7.90078L22.5998 20.5008L22.7998 20.4008L16.2998 7.80078C16.3998 7.40078 16.1998 7.00078 15.9998 6.60078C15.3998 5.40078 14.7998 4.70078 14.2998 4.30078ZM22.4998 20.6008L16.0998 8.00078C15.6998 7.90078 15.4998 7.50078 15.2998 7.10078C14.6998 6.00078 14.4998 5.00078 14.3998 4.30078C14.7998 4.70078 15.4998 5.40078 15.9998 6.50078C16.1998 6.90078 16.3998 7.30078 16.2998 7.70078L22.7998 20.3008L22.4998 20.6008Z" fill="#242222"/>
<path fill-rule="evenodd" clip-rule="evenodd" d="M22.8004 20.3992L22.6004 20.5992L16.1004 7.89922C15.7004 7.79922 15.5004 7.39922 15.3004 6.99922C15.2004 6.69922 14.6004 5.59922 14.4004 4.19922C15.4004 5.09922 15.9004 6.19922 16.1004 6.49922C16.3004 6.89922 16.5004 7.29922 16.4004 7.69922L22.8004 20.3992Z" fill="#FEFEFE"/>
<path fill-rule="evenodd" clip-rule="evenodd" d="M0 9.3V16.8H16.2C16.6 18 18 20.6 18.8 20.6C19.6 20.6 21 18.1 21.4 16.8H38V9.3H21.5C21.1 8 19.7 5.5 18.8 5.5C18 5.5 16.6 8 16.2 9.2H0V9.3Z" fill="#B3292C"/>
<path fill-rule="evenodd" clip-rule="evenodd" d="M21.5 16.8008C21.9 15.5008 22.2 14.3008 22.2 13.0008C22.2 11.8008 21.9 10.5008 21.5 9.30078C21.1 10.5008 20.8 11.8008 20.8 13.0008C20.8 14.3008 21.1 15.5008 21.5 16.8008ZM16.2 16.8008C15.8 15.5008 15.5 14.3008 15.5 13.0008C15.5 11.8008 15.8 10.5008 16.2 9.30078C16.6 10.5008 16.9 11.8008 16.9 13.0008C16.9 14.3008 16.6 15.5008 16.2 16.8008Z" fill="#242222"/>
<path fill-rule="evenodd" clip-rule="evenodd" d="M18.8002 12.0996C19.1002 12.0996 19.4002 12.4996 19.4002 12.9996C19.4002 13.4996 19.2002 13.8996 18.8002 13.8996C18.5002 13.8996 18.2002 13.4996 18.2002 12.9996C18.3002 12.4996 18.5002 12.0996 18.8002 12.0996ZM19.0002 13.8996C19.0002 13.8996 19.6002 15.0996 19.6002 17.1996C19.6002 19.1996 19.0002 20.4996 19.0002 20.4996V13.8996Z" fill="#FEFEFE"/>
<path fill-rule="evenodd" clip-rule="evenodd" d="M18.6996 12.1C18.6996 12.1 18.0996 10.8 18.0996 8.8C18.0996 6.8 18.6996 5.5 18.6996 5.5V12.1ZM18.6996 13.9C18.6996 13.9 18.0996 15.1 18.0996 17.2C18.0996 19.2 18.6996 20.5 18.6996 20.5V13.9ZM18.9996 12.1C18.9996 12.1 19.5996 10.8 19.5996 8.8C19.4996 6.8 18.9996 5.5 18.9996 5.5V12.1Z" fill="#FEFEFE"/>
</g>
</g>
<defs>
<clipPath id="clip0_26003_92556">
<rect width="38" height="25" fill="white" transform="translate(0 0.5)"/>
</clipPath>
<clipPath id="clip1_26003_92556">
<rect width="38" height="25" fill="white" transform="translate(0 0.5)"/>
</clipPath>
</defs>
</svg>
