<svg width="38" height="26" viewBox="0 0 38 26" fill="none" xmlns="http://www.w3.org/2000/svg">
<g clip-path="url(#clip0_26003_90489)">
<g clip-path="url(#clip1_26003_90489)">
<path fill-rule="evenodd" clip-rule="evenodd" d="M2.5 0.5H35.6C36.9 0.8 37.9 1.9 38.1 3.4V22.6C37.9 24.1 36.9 25.3 35.6 25.5H2.5C1.2 25.2 0.2 24.1 0 22.6V3.4C0.2 1.9 1.2 0.8 2.5 0.5Z" fill="#FEFEFE"/>
<path fill-rule="evenodd" clip-rule="evenodd" d="M9.00039 6.1C9.00039 6.6 9.00039 7.1 8.90039 7.5C8.90039 7.6 8.90039 7.8 8.80039 7.9C9.00039 7.9 9.30039 7.8 9.60039 7.8C9.90039 7.8 10.1004 7.8 10.4004 7.9C10.4004 7.8 10.4004 7.6 10.3004 7.5C10.2004 7.1 10.2004 6.6 10.2004 6.1C10.7004 6.1 11.3004 6.2 11.8004 6.3V4.5C11.3004 4.6 10.8004 4.7 10.2004 4.7C10.2004 4.1 10.3004 3.5 10.4004 2.9C10.2004 2.9 9.90039 3 9.60039 3C9.30039 3 9.10039 3 8.80039 2.9C8.90039 3.7 9.00039 4.3 9.00039 4.9C8.50039 4.9 7.90039 4.8 7.40039 4.7V6.5C7.90039 6.2 8.50039 6.2 9.00039 6.1ZM27.9004 6.1C27.9004 6.6 27.8004 7 27.8004 7.5C27.8004 7.6 27.8004 7.8 27.7004 7.9C27.9004 7.9 28.2004 7.8 28.5004 7.8C28.8004 7.8 29.0004 7.8 29.3004 7.9C29.3004 7.8 29.3004 7.6 29.2004 7.5C29.0004 7.1 29.0004 6.6 29.0004 6.1C29.5004 6.1 30.1004 6.2 30.6004 6.3C30.6004 6 30.5004 5.7 30.5004 5.4C30.5004 5.1 30.5004 4.8 30.6004 4.5C30.1004 4.6 29.6004 4.7 29.0004 4.7C29.0004 4.1 29.1004 3.5 29.2004 2.9C29.0004 2.9 28.7004 3 28.4004 3C28.1004 3 27.9004 3 27.6004 2.9C27.7004 3.5 27.8004 4.1 27.8004 4.7C27.3004 4.7 26.7004 4.6 26.2004 4.5V6.3C26.8004 6.2 27.3004 6.2 27.9004 6.1ZM10.2004 19.9C10.2004 19.4 10.3004 19 10.3004 18.5C10.3004 18.4 10.3004 18.2 10.4004 18.1C10.2004 18.1 9.90039 18.2 9.60039 18.2C9.30039 18.2 9.10039 18.2 8.80039 18.1C8.80039 18.2 8.80039 18.4 8.90039 18.5C9.00039 18.9 9.00039 19.4 9.00039 19.9C8.50039 19.9 7.90039 19.8 7.40039 19.7V21.5C7.90039 21.4 8.40039 21.3 9.00039 21.3C9.00039 21.9 8.90039 22.5 8.80039 23.1C9.00039 23.1 9.30039 23 9.60039 23C9.90039 23 10.1004 23 10.4004 23.1C10.3004 22.5 10.2004 21.9 10.2004 21.3C10.7004 21.3 11.3004 21.4 11.8004 21.5V19.7C11.2004 19.8 10.7004 19.8 10.2004 19.9ZM29.0004 19.9C29.0004 19.4 29.1004 19 29.1004 18.5C29.1004 18.4 29.1004 18.2 29.2004 18.1C29.0004 18.1 28.7004 18.2 28.4004 18.2C28.1004 18.2 27.9004 18.2 27.6004 18.1C27.6004 18.2 27.6004 18.4 27.7004 18.5C27.8004 18.9 27.8004 19.4 27.8004 19.9C27.3004 19.9 26.7004 19.8 26.2004 19.7V21.5C26.7004 21.4 27.2004 21.3 27.8004 21.3C27.8004 21.9 27.7004 22.5 27.6004 23.1C27.8004 23.1 28.1004 23 28.4004 23C28.7004 23 28.9004 23 29.2004 23.1C29.1004 22.5 29.0004 21.9 29.0004 21.3C29.5004 21.3 30.1004 21.4 30.6004 21.5C30.6004 21.2 30.5004 20.9 30.5004 20.6C30.5004 20.3 30.5004 20 30.6004 19.7C30.1004 19.8 29.5004 19.8 29.0004 19.9ZM16.8004 0.5H21.3004V25.5H16.8004V0.5Z" fill="#D6253A"/>
<path fill-rule="evenodd" clip-rule="evenodd" d="M0 10.5H38V15.5H0V10.5Z" fill="#D6253A"/>
</g>
</g>
<defs>
<clipPath id="clip0_26003_90489">
<rect width="38" height="25" fill="white" transform="translate(0 0.5)"/>
</clipPath>
<clipPath id="clip1_26003_90489">
<rect width="38" height="25" fill="white" transform="translate(0 0.5)"/>
</clipPath>
</defs>
</svg>
