<svg width="38" height="26" viewBox="0 0 38 26" fill="none" xmlns="http://www.w3.org/2000/svg">
<g clip-path="url(#clip0_26003_69821)">
<g clip-path="url(#clip1_26003_69821)">
<path fill-rule="evenodd" clip-rule="evenodd" d="M0 17.2H38V3.4C37.8 1.9 36.8 0.7 35.5 0.5H2.5C1.2 0.8 0.2 1.9 0 3.4V17.2Z" fill="#C0282D"/>
<path fill-rule="evenodd" clip-rule="evenodd" d="M2.5 25.4992H35.6C36.9 25.1992 37.9 24.0992 38.1 22.5992V17.1992H0V22.5992C0.2 24.0992 1.2 25.2992 2.5 25.4992Z" fill="#36A83A"/>
<path fill-rule="evenodd" clip-rule="evenodd" d="M2.5 25.5H4.9V0.5H2.5C1.2 0.8 0.2 1.9 0 3.4V22.6C0.2 24.1 1.2 25.3 2.5 25.5Z" fill="#FEFEFE"/>
<path fill-rule="evenodd" clip-rule="evenodd" d="M3.19961 0.5V1.1H2.99961V1.7H2.79961V2.3H2.49961V2.9H2.29961V2.2H2.09961V1.7H1.89961V1.1H1.69961V0.8C1.59961 0.8 1.59961 0.9 1.49961 0.9V1.1H1.19961V1.7H0.999609V2.3H0.799609V2.9H0.599609V3.5H0.799609V4.1H0.999609V4.5H1.19961V5.1H1.39961V5.7H1.59961V5.1H1.79961V4.5H1.99961V4H2.19961V3.4H2.39961V4H2.59961V4.5H2.99961V5.1H3.19961V5.7H3.39961V5.1H3.59961V4.5H3.79961V4H3.99961V3.4H4.19961V2.8H4.09961V2.2H3.89961V1.7H3.59961V1.1H3.39961V0.5H3.19961ZM1.69961 25.3C1.59961 25.3 1.59961 25.2 1.49961 25.2V25H1.19961V24.4H0.999609V23.8H0.799609V23.2H0.599609V22.6H0.799609V22H0.999609V21.5H1.19961V20.9H1.39961V20.3H1.59961V20.9H1.79961V21.5H1.99961V22.1H2.19961V22.7H2.39961V22.1H2.59961V21.5H2.99961V20.9H3.19961V20.3H3.39961V20.9H3.59961V21.5H3.79961V22.1H3.99961V22.7H4.19961V23.3H4.09961V23.9H3.89961V24.5H3.59961V25.1H3.39961V25.5H3.19961V24.9H2.99961V24.3H2.79961V23.7H2.49961V23.1H2.29961V23.7H2.09961V24.3H1.89961V24.9H1.69961V25.3ZM0.799609 24.5V24.4H0.699609L0.799609 24.5ZM0.699609 1.7C0.699609 1.6 0.799609 1.6 0.799609 1.5V1.7H0.699609ZM2.79961 2.8H2.99961V2.2H3.19961V1.7H3.39961V2.3H3.59961V2.9H3.79961V3.5H3.59961V4.1H3.39961V4.5H3.19961V4H2.99961V3.4H2.79961V2.8ZM0.999609 2.8H1.19961V2.2H1.39961V1.7H1.59961V2.3H1.79961V2.9H1.99961V3.5H1.89961V4.1H1.69961V4.5H1.49961V4H1.19961V3.4H0.999609V2.8ZM4.09961 1.7V1H4.29961V1.7H4.09961ZM2.29961 1.7V1H2.49961V1.7H2.29961ZM3.19961 3.4V2.8H3.39961V3.4H3.19961ZM1.49961 3.4V2.8H1.69961V3.4H1.49961ZM4.09961 5V4.3H4.29961V5H4.09961ZM2.29961 5V4.3H2.49961V5H2.29961ZM0.599609 5V4.3H0.799609V5H0.599609ZM3.69961 5.2H3.99961V5.5H4.09961V5.9H4.19961V6.7H4.09961V7H3.69961V6.7H3.59961V6.4H3.49961V5.9H3.59961V5.6H3.69961V5.2ZM3.69961 6V6.2H3.79961V6.5H3.99961V6.3H4.09961V6H3.99961V5.8H3.79961V6H3.69961ZM1.99961 5.6V5.2H2.29961V5.5H2.49961V5.2H2.79961V5.5H2.99961V5.9H3.09961V6.4H2.99961V6.7H2.89961V7H2.49961V6.7H2.29961V7H1.99961V6.7H1.89961V6.4H1.79961V5.9H1.89961V5.6H1.99961ZM2.49961 6V6.2H2.59961V6.5H2.69961V6.3H2.79961V5.8H2.69961V6H2.49961ZM1.99961 6V6.2H2.09961V6.5H2.19961V6.3H2.29961V6H2.19961V5.8H2.09961V6H1.99961ZM0.799609 5.6V5.2H1.09961V5.5H1.19961V5.9H1.29961V6.4H1.19961V6.7H1.09961V7H0.799609V6.7H0.699609V6.4H0.599609V5.9H0.699609V5.6H0.799609ZM0.799609 6V6.2H0.899609V6.5H0.999609V6.3H1.09961V6H0.999609V5.8H0.899609V6H0.799609ZM3.19961 6.6V7.2H2.99961V7.8H2.79961V8.4H2.49961V9H2.29961V8.4H2.09961V7.8H1.89961V7.2H1.69961V6.6H1.49961V7.2H1.19961V7.8H0.999609V8.4H0.799609V9H0.599609V9.5H0.799609V10.1H0.999609V10.7H1.19961V11.3H1.39961V10.7H1.59961V10.1H1.79961V9.5H1.69961V8.8H1.89961V9.3H2.09961V10.2H2.19961V10.8H1.89961V11.3H1.69961V11.6H1.49961V12.2H1.19961V11.6H0.999609V11.3H0.799609V11H0.599609V12H0.799609V12.5H0.999609V12.9H1.19961V13.3H0.999609V13.7H0.799609V14.2H0.599609V15.2H0.799609V14.9H0.999609V14.5H1.19961V13.9H1.39961V14.5H1.59961V14.8H1.79961V15.3H2.09961V16.8H1.89961V17.2H1.69961V16.5H1.89961V15.9H1.69961V15.3H1.49961V14.7H1.19961V15.3H0.999609V15.9H0.799609V16.5H0.599609V17.1H0.799609V17.7H0.999609V18.3H1.19961V18.9H1.39961V19.5H1.59961V18.9H1.79961V18.3H1.99961V17.7H2.19961V17.1H2.39961V17.7H2.59961V18.3H2.99961V18.9H3.19961V19.5H3.39961V18.9H3.59961V18.3H3.79961V17.7H3.99961V17.1H4.19961V16.5H4.09961V15.9H3.89961V15.3H3.59961V14.7H3.39961V15.3H3.19961V15.9H2.99961V16.5H3.19961V17.2H2.99961V16.8H2.79961V15.9H2.69961V15.3H2.99961V14.8H3.19961V14.5H3.39961V13.9H3.59961V14.5H3.79961V14.8H3.99961V15.1H4.19961V14.1H4.09961V13.6H3.89961V13.2H3.59961V12.8H3.79961V12.4H3.99961V11.9H4.19961V10.9H4.09961V11.2H3.89961V11.5H3.59961V12.1H3.39961V11.5H3.19961V11.2H2.99961V10.7H2.69961V10.2H2.79961V9.3H2.99961V8.8H3.19961V9.5H2.99961V10.1H3.19961V10.7H3.39961V11.3H3.59961V10.7H3.79961V10.1H3.99961V9.5H4.19961V8.9H4.09961V8.4H3.89961V7.8H3.59961V7.2H3.39961V6.6H3.19961ZM1.49961 13V12.8H1.69961V12.4H1.89961V11.9H2.19961V11.4H2.29961V11.1H2.49961V11.4H2.59961V12H2.99961V12.4H3.19961V12.8H3.39961V13.2H3.19961V13.6H2.99961V14H2.69961V14.5H2.49961V14.8H2.29961V14.5H2.19961V14H1.89961V13.5H1.69961V13.1H1.49961V13ZM4.09961 8V7.3H4.29961V8H4.09961ZM2.29961 8V7.3H2.49961V8H2.29961ZM0.599609 8V7.3H0.799609V8H0.599609ZM4.09961 10.7V10.2H4.29961V10.7H4.09961ZM0.599609 10.7V10.2H0.799609V10.7H0.599609ZM2.29961 12.4V11.8H2.49961V12.4H2.29961ZM2.69961 12.3H2.89961V12.6H2.79961V12.8H2.69961V13.2H2.79961V13.4H2.89961V13.7H2.69961V13.5H2.49961V13.3H2.29961V13.5H2.19961V13.7H1.99961V13.4H2.09961V13.2H2.19961V12.8H2.09961V12.6H1.99961V12.3H2.19961V12.5H2.29961V12.7H2.49961V12.5H2.59961V12.3H2.69961ZM4.09961 12.7H4.29961V13.3H4.09961V12.7ZM2.89961 12.7H3.09961V13.3H2.89961V12.7ZM1.79961 12.7H1.99961V13.3H1.79961V12.7ZM0.599609 12.7H0.799609V13.3H0.599609V12.7ZM2.29961 14.2V13.6H2.49961V14.2H2.29961ZM4.09961 15.9V15.4H4.29961V15.9H4.09961ZM0.599609 15.9V15.4H0.799609V15.9H0.599609ZM4.09961 18.7V18H4.29961V18.7H4.09961ZM2.29961 18.7V18H2.49961V18.7H2.29961ZM0.599609 18.7V18H0.799609V18.7H0.599609ZM2.49961 19V19.3H2.29961V19H1.99961V19.3H1.89961V19.6H1.79961V20.1H1.89961V20.5H1.99961V20.8H2.29961V20.5H2.49961V20.8H2.79961V20.5H2.99961V20.2H3.09961V19.7H2.99961V19.4H2.89961V19.1H2.49961V19ZM2.49961 19.8H2.59961V19.5H2.69961V19.7H2.79961V20.1H2.69961V19.9H2.49961V19.8ZM1.99961 19.8H2.09961V19.5H2.19961V19.7H2.29961V19.9H2.19961V20.1H2.09961V19.9H1.99961V19.8ZM0.799609 19V19.3H0.699609V19.6H0.599609V20.1H0.699609V20.5H0.799609V20.8H1.09961V20.5H1.19961V20.2H1.29961V19.7H1.19961V19.4H1.09961V19.1H0.799609V19ZM0.799609 19.8H0.899609V19.5H0.999609V19.7H1.09961V19.9H0.999609V20.1H0.899609V19.9H0.799609V19.8ZM3.69961 19V19.3H3.59961V19.7H3.49961V20.2H3.59961V20.5H3.69961V20.8H3.99961V20.5H4.09961V20.2H4.19961V19.3H4.09961V19H3.69961ZM3.69961 19.8H3.79961V19.6H3.99961V19.8H4.09961V20H3.99961V20.2H3.79961V20H3.69961V19.8ZM2.79961 22.7V23.3H2.99961V23.9H3.19961V24.5H3.39961V23.9H3.59961V23.3H3.79961V22.7H3.59961V22.1H3.39961V21.5H3.19961V22.1H2.99961V22.7H2.79961ZM0.999609 22.7V23.3H1.19961V23.9H1.39961V24.5H1.59961V23.9H1.79961V23.3H1.99961V22.7H1.89961V22.1H1.69961V21.5H1.49961V22.1H1.19961V22.7H0.999609ZM4.09961 21.7H4.29961V21H4.09961V21.7ZM2.29961 21.7H2.49961V21H2.29961V21.7ZM0.599609 21.7H0.799609V21H0.599609V21.7ZM3.19961 23.2H3.39961V22.6H3.19961V23.2ZM1.49961 23.2H1.69961V22.6H1.49961V23.2ZM4.09961 25.1H4.29961V24.4H4.09961V25.1ZM2.29961 25.1H2.49961V24.4H2.29961V25.1Z" fill="#C0282D"/>
</g>
</g>
<defs>
<clipPath id="clip0_26003_69821">
<rect width="38" height="25" fill="white" transform="translate(0 0.5)"/>
</clipPath>
<clipPath id="clip1_26003_69821">
<rect width="38" height="25" fill="white" transform="translate(0 0.5)"/>
</clipPath>
</defs>
</svg>
