<svg width="39" height="26" viewBox="0 0 39 26" fill="none" xmlns="http://www.w3.org/2000/svg">
<g clip-path="url(#clip0_26003_54106)">
<g clip-path="url(#clip1_26003_54106)">
<path d="M35.8951 25.2114H3.59513C3.22002 25.2114 2.8486 25.1374 2.50217 24.9935C2.15574 24.8497 1.84111 24.6388 1.57634 24.3731C1.31156 24.1074 1.10184 23.7921 0.959201 23.4451C0.816565 23.0982 0.743819 22.7265 0.745135 22.3514V3.05141C0.743819 2.6763 0.816565 2.30462 0.959201 1.95769C1.10184 1.61075 1.31156 1.29539 1.57634 1.02968C1.84111 0.763977 2.15574 0.553153 2.50217 0.409302C2.8486 0.265451 3.22002 0.191404 3.59513 0.191406H35.9051C36.6619 0.194052 37.3868 0.496541 37.921 1.03261C38.4552 1.56868 38.7551 2.29462 38.7551 3.05141V22.3514C38.7525 23.1091 38.4503 23.835 37.9146 24.3708C37.3788 24.9066 36.6528 25.2088 35.8951 25.2114Z" fill="#243096"/>
<path d="M11.8851 4.19141V0.201406H8.60512V4.20141L2.73512 0.331406C2.05512 0.541406 1.47512 1.01141 1.12512 1.63141L5.95512 4.81141H0.745117V8.10141H5.95512L0.745117 11.5214V12.0414C0.745117 12.4014 1.03512 12.7014 1.40512 12.7014H2.54512L8.60512 8.71141V12.7114H11.8851V8.71141L17.9551 12.7114H19.0951C19.4551 12.7114 19.7551 12.4214 19.7551 12.0514V11.5314L14.5451 8.10141H19.7451V4.80141H14.5351L19.7451 1.38141V0.851406C19.7451 0.678082 19.677 0.511707 19.5554 0.388216C19.4337 0.264725 19.2684 0.194032 19.0951 0.191406H17.9551L11.8851 4.19141Z" fill="#F5F5F5"/>
<path d="M19.7451 5.46141H11.2251V0.191406H9.26512V5.46141H0.745117V7.44141H9.26512V12.7014H11.2251V7.44141H19.7451V5.46141Z" fill="#F9283D"/>
<path d="M1.35496 1.29141L6.74496 4.80141H7.94496L1.82496 0.811406C1.65496 0.951406 1.49496 1.11141 1.35496 1.29141ZM13.085 4.80141L19.645 0.521406C19.588 0.422754 19.5065 0.340515 19.4084 0.282688C19.3103 0.224861 19.1988 0.193414 19.085 0.191406H18.945L11.875 4.80141H13.085ZM7.38496 8.09141L0.834961 12.3614C0.944961 12.5614 1.15496 12.7014 1.39496 12.7014H1.51496L8.58496 8.09141H7.38496ZM19.735 12.1014L13.595 8.10141H12.395L19.365 12.6414C19.575 12.5414 19.715 12.3414 19.735 12.1014Z" fill="#F9283D"/>
<path d="M29.5254 6.37109H25.2354V14.2311C25.2354 16.0011 29.5254 17.7811 29.5254 17.7811C29.5254 17.7811 33.8154 16.0111 33.8154 14.2311V6.37109H29.5254Z" fill="#73AF00"/>
<path d="M27.0149 12.3711C27.0149 12.3711 26.9949 12.2911 27.0149 12.2111C27.0349 12.1311 26.9849 12.0711 26.9649 12.0011C26.9349 11.8211 27.0849 11.7811 27.0949 11.6211C27.0949 11.6211 27.2049 11.7311 27.1649 11.8411C27.1249 11.9411 27.2249 11.9611 27.2149 12.0611C27.2049 12.1611 27.0949 12.2611 27.1049 12.3511L27.0149 12.3711Z" fill="#FF4B55"/>
<path d="M28.6946 12.2013C28.6046 12.0913 28.4546 12.2113 28.3446 12.2913L28.3046 12.3212L27.8846 11.7013L27.9046 11.6413C27.9046 11.5813 27.8546 11.5312 27.7946 11.5312C27.7346 11.5312 27.6846 11.5813 27.6846 11.6413L27.7046 11.7013L27.2746 12.3413H26.9746C26.9746 12.3413 26.9646 12.5313 27.2946 12.5513C27.3346 12.6113 27.3946 12.6713 27.4746 12.7013C27.4446 12.7113 27.4146 12.7313 27.4146 12.7713V12.8212H28.1846V12.7713C28.1846 12.7313 28.1546 12.7113 28.1246 12.7013C28.1898 12.6746 28.2465 12.6307 28.2888 12.5744C28.331 12.518 28.3573 12.4513 28.3646 12.3813C28.3761 12.3689 28.3896 12.3588 28.4046 12.3513C28.4846 12.2913 28.6046 12.1913 28.6446 12.2413L28.6546 12.2613C28.6546 12.2913 28.5846 12.3312 28.5346 12.3612C28.4546 12.4112 28.3746 12.4713 28.3646 12.5513C28.3646 12.5713 28.3746 12.5913 28.4046 12.5913C28.4246 12.5913 28.4446 12.5713 28.4446 12.5513C28.4446 12.5113 28.5146 12.4613 28.5746 12.4213C28.6446 12.3713 28.7146 12.3313 28.7246 12.2613L28.6946 12.2013ZM27.9846 12.3513C27.9766 12.31 27.96 12.2708 27.9359 12.2364C27.9118 12.2019 27.8807 12.1729 27.8446 12.1512C27.8846 12.1312 27.9046 12.1013 27.9046 12.0513C27.9046 12.0221 27.8931 11.9941 27.8724 11.9735C27.8518 11.9528 27.8238 11.9412 27.7946 11.9412C27.7655 11.9412 27.7375 11.9528 27.7169 11.9735C27.6962 11.9941 27.6846 12.0221 27.6846 12.0513C27.6846 12.0913 27.7146 12.1312 27.7446 12.1512C27.6746 12.1812 27.6246 12.2613 27.6046 12.3513H27.3746L27.7746 11.7613L27.8046 11.7713L27.8346 11.7613L28.2346 12.3513H27.9846Z" fill="#FFE15A"/>
<path d="M29.2447 8.61191C29.2447 8.61191 28.8447 8.49191 28.6647 9.90191C28.6647 9.90191 27.6847 11.1519 27.6547 11.2219C27.6247 11.2919 27.6547 11.8219 27.7547 11.7819C27.8647 11.7419 28.0447 11.4919 28.0347 11.3119C28.0247 11.1319 28.1047 11.0319 28.1847 10.9419C28.3347 10.7719 29.1747 10.0119 29.2147 9.84191C29.2547 9.67191 29.2447 8.61191 29.2447 8.61191Z" fill="#FFC8B9"/>
<path d="M29.8751 8.35069C29.8751 8.35069 30.4951 8.27069 30.6751 8.90069C30.6751 8.90069 30.1651 9.18069 30.2351 9.54069C30.2951 9.90069 30.2251 11.5707 30.2251 11.5707C29.2551 11.8907 28.7451 11.4907 28.7451 11.4907C28.7451 11.4907 28.9951 10.5507 28.9551 9.78069C28.9551 9.78069 28.7251 9.61069 28.7851 9.41069C28.8451 9.21069 28.9851 8.99069 29.0251 8.82069C29.0751 8.65069 29.1951 8.38069 29.5051 8.35069C29.8051 8.33069 29.8751 8.35069 29.8751 8.35069Z" fill="#F5F5F5"/>
<path d="M28.9152 11.3105C28.9152 11.3105 28.4352 13.1505 28.5952 15.6505C28.5952 15.6505 30.1052 15.8505 30.9252 15.5505C30.9252 15.5505 30.4952 12.5605 30.0852 11.3805L28.9152 11.3105Z" fill="#F5F5F5"/>
<path d="M29.1953 7.26172V8.02172C29.1953 8.10172 29.2653 8.17172 29.3453 8.17172H29.3553C29.4153 8.17172 29.4653 8.22172 29.4653 8.28172V8.46172C29.4653 8.46172 29.5653 8.73172 29.9653 8.41172V7.27172L29.1953 7.26172Z" fill="#FFC8B9"/>
<path d="M29.1051 7.11004C29.0851 7.17004 29.1051 7.34004 29.2551 7.33004C29.4451 7.32004 29.6751 7.31004 29.7251 7.52004C29.7751 7.72004 29.7451 8.20004 29.9551 8.23004C30.1651 8.26004 30.4051 8.12004 30.3951 7.70004C30.3951 7.33004 30.1551 6.89004 29.8151 6.96004C29.8151 6.96004 29.5151 6.75004 29.3451 6.99004C29.3451 6.99004 29.1651 6.98004 29.1051 7.11004Z" fill="#8C5A28"/>
<path d="M30.6648 8.90039C30.6648 8.90039 30.8848 10.3204 30.8648 10.4404C30.8548 10.5604 30.1048 11.7304 30.1448 11.8604C30.1848 11.9904 30.2248 12.1604 29.9948 12.2204C29.7648 12.2804 29.7848 11.9104 29.8548 11.7204C29.9148 11.5304 30.4448 10.5204 30.4448 10.4004C30.4448 10.2804 30.1448 9.53039 30.2148 9.24039C30.3048 8.94039 30.6648 8.90039 30.6648 8.90039Z" fill="#FFC8B9"/>
<path d="M26.0647 7.87109C26.0647 7.87109 26.0447 7.79109 26.0647 7.71109C26.0847 7.63109 26.0347 7.57109 26.0147 7.50109C25.9847 7.32109 26.1347 7.28109 26.1447 7.12109C26.1447 7.12109 26.2547 7.23109 26.2147 7.34109C26.1747 7.44109 26.2747 7.46109 26.2647 7.56109C26.2547 7.66109 26.1447 7.76109 26.1547 7.85109L26.0647 7.87109Z" fill="#FF4B55"/>
<path d="M27.7552 7.71078C27.6652 7.60078 27.5152 7.72078 27.4052 7.80078L27.3652 7.83078L26.9452 7.22078L26.9652 7.16078C26.9652 7.10078 26.9152 7.05078 26.8552 7.05078C26.7952 7.05078 26.7452 7.10078 26.7452 7.16078L26.7652 7.22078L26.3352 7.86078H26.0352C26.0352 7.86078 26.0252 8.05078 26.3552 8.07078C26.3952 8.13078 26.4552 8.19078 26.5352 8.22078C26.5052 8.23078 26.4752 8.25078 26.4752 8.29078V8.34078H27.2452V8.28078C27.2452 8.24078 27.2152 8.22078 27.1852 8.21078C27.2504 8.18408 27.3071 8.14023 27.3493 8.08389C27.3916 8.02755 27.4178 7.96082 27.4252 7.89078C27.4366 7.87846 27.4502 7.8683 27.4652 7.86078C27.5452 7.80078 27.6652 7.70078 27.7052 7.75078L27.7152 7.77078C27.7152 7.80078 27.6452 7.84078 27.5952 7.87078C27.5152 7.92078 27.4352 7.98078 27.4252 8.06078C27.4252 8.08078 27.4352 8.10078 27.4652 8.10078C27.4852 8.10078 27.5052 8.08078 27.5052 8.06078C27.5052 8.02078 27.5752 7.97078 27.6352 7.93078C27.7052 7.88078 27.7752 7.84078 27.7852 7.77078C27.7817 7.74815 27.7712 7.72717 27.7552 7.71078ZM27.0452 7.85078C27.0372 7.80949 27.0206 7.77035 26.9965 7.7359C26.9723 7.70144 26.9412 7.67244 26.9052 7.65078C26.9452 7.63078 26.9652 7.60078 26.9652 7.55078C26.9652 7.52161 26.9536 7.49363 26.933 7.473C26.9123 7.45237 26.8844 7.44078 26.8552 7.44078C26.826 7.44078 26.798 7.45237 26.7774 7.473C26.7568 7.49363 26.7452 7.52161 26.7452 7.55078C26.7452 7.59078 26.7752 7.63078 26.8052 7.65078C26.7352 7.68078 26.6852 7.76078 26.6652 7.85078H26.4352L26.8352 7.26078L26.8652 7.27078L26.8952 7.26078L27.2952 7.85078H27.0452Z" fill="#FFE15A"/>
<path d="M26.0647 9.37109C26.0647 9.37109 26.0447 9.29109 26.0647 9.21109C26.0847 9.13109 26.0347 9.07109 26.0147 9.00109C25.9847 8.82109 26.1347 8.78109 26.1447 8.62109C26.1447 8.62109 26.2547 8.73109 26.2147 8.84109C26.1747 8.94109 26.2747 8.96109 26.2647 9.06109C26.2547 9.16109 26.1447 9.26109 26.1547 9.35109L26.0647 9.37109Z" fill="#FF4B55"/>
<path d="M27.7552 9.20102C27.6652 9.09102 27.5152 9.21102 27.3952 9.30102L27.3552 9.33102L26.9452 8.71102L26.9652 8.65102C26.9652 8.59102 26.9152 8.54102 26.8552 8.54102C26.7952 8.54102 26.7452 8.59102 26.7452 8.65102L26.7652 8.71102L26.3352 9.35102H26.0352C26.0352 9.35102 26.0252 9.54102 26.3552 9.56102C26.3952 9.62102 26.4552 9.68102 26.5352 9.71102C26.5052 9.72102 26.4752 9.74102 26.4752 9.78102V9.83102H27.2452V9.78102C27.2452 9.74102 27.2152 9.72102 27.1852 9.71102C27.2504 9.68432 27.3071 9.64047 27.3493 9.58413C27.3916 9.52779 27.4178 9.46105 27.4252 9.39102C27.4366 9.3787 27.4502 9.36853 27.4652 9.36102C27.5452 9.30102 27.6652 9.20102 27.7052 9.25102L27.7152 9.27102C27.7152 9.30102 27.6452 9.34102 27.5952 9.37102C27.5152 9.42102 27.4352 9.48102 27.4252 9.56102C27.4252 9.58102 27.4352 9.60102 27.4652 9.60102C27.4852 9.60102 27.5052 9.58102 27.5052 9.56102C27.5052 9.52102 27.5752 9.47102 27.6352 9.43102C27.7052 9.38102 27.7752 9.34102 27.7852 9.27102C27.7806 9.24571 27.7704 9.22178 27.7552 9.20102ZM27.0452 9.35102C27.0372 9.30973 27.0206 9.27059 26.9965 9.23613C26.9723 9.20168 26.9412 9.17268 26.9052 9.15102C26.9452 9.13102 26.9652 9.10102 26.9652 9.05102C26.9652 9.02184 26.9536 8.99386 26.933 8.97323C26.9123 8.95261 26.8844 8.94102 26.8552 8.94102C26.826 8.94102 26.798 8.95261 26.7774 8.97323C26.7568 8.99386 26.7452 9.02184 26.7452 9.05102C26.7452 9.09102 26.7752 9.13102 26.8052 9.15102C26.7352 9.18102 26.6852 9.26102 26.6652 9.35102H26.4352L26.8352 8.76102L26.8652 8.77102L26.8952 8.76102L27.2952 9.35102H27.0452Z" fill="#FFE15A"/>
<path d="M26.0647 10.8711C26.0647 10.8711 26.0447 10.7911 26.0647 10.7111C26.0847 10.6311 26.0347 10.5711 26.0147 10.5011C25.9847 10.3211 26.1347 10.2811 26.1447 10.1211C26.1447 10.1211 26.2547 10.2311 26.2147 10.3411C26.1747 10.4411 26.2747 10.4611 26.2647 10.5611C26.2547 10.6611 26.1447 10.7611 26.1547 10.8511L26.0647 10.8711Z" fill="#FF4B55"/>
<path d="M27.7552 10.701C27.6652 10.591 27.5152 10.711 27.4052 10.791L27.3652 10.821L26.9452 10.211L26.9652 10.151C26.9652 10.091 26.9152 10.041 26.8552 10.041C26.7952 10.041 26.7452 10.091 26.7452 10.151L26.7652 10.211L26.3352 10.851H26.0352C26.0352 10.851 26.0252 11.041 26.3552 11.061C26.3952 11.121 26.4552 11.181 26.5352 11.211C26.5052 11.221 26.4752 11.241 26.4752 11.281V11.331H27.2452V11.281C27.2452 11.241 27.2152 11.221 27.1852 11.211C27.2504 11.1843 27.3071 11.1405 27.3493 11.0841C27.3916 11.0278 27.4178 10.9611 27.4252 10.891C27.4366 10.8787 27.4502 10.8685 27.4652 10.861C27.5452 10.801 27.6652 10.701 27.7052 10.751L27.7152 10.771C27.7152 10.801 27.6452 10.841 27.5952 10.871C27.5152 10.921 27.4352 10.981 27.4252 11.061C27.4252 11.081 27.4352 11.101 27.4652 11.101C27.4852 11.101 27.5052 11.081 27.5052 11.061C27.5052 11.021 27.5752 10.971 27.6352 10.931C27.7052 10.881 27.7752 10.841 27.7852 10.771C27.7806 10.7457 27.7704 10.7218 27.7552 10.701ZM27.0452 10.851C27.0372 10.8097 27.0206 10.7706 26.9965 10.7361C26.9723 10.7017 26.9412 10.6727 26.9052 10.651C26.9452 10.631 26.9652 10.601 26.9652 10.551C26.9652 10.5218 26.9536 10.4939 26.933 10.4732C26.9123 10.4526 26.8844 10.441 26.8552 10.441C26.826 10.441 26.798 10.4526 26.7774 10.4732C26.7568 10.4939 26.7452 10.5218 26.7452 10.551C26.7452 10.591 26.7752 10.631 26.8052 10.651C26.7352 10.681 26.6852 10.761 26.6652 10.851H26.4352L26.8352 10.261L26.8652 10.271L26.8952 10.261L27.2952 10.851H27.0452Z" fill="#FFE15A"/>
<path d="M26.0647 13.8711C26.0647 13.8711 26.0447 13.7911 26.0647 13.7111C26.0847 13.6311 26.0347 13.5711 26.0147 13.5011C25.9847 13.3211 26.1347 13.2811 26.1447 13.1211C26.1447 13.1211 26.2547 13.2311 26.2147 13.3411C26.1747 13.4411 26.2747 13.4611 26.2647 13.5611C26.2547 13.6611 26.1447 13.7611 26.1547 13.8511L26.0647 13.8711Z" fill="#FF4B55"/>
<path d="M27.7552 13.701C27.6652 13.591 27.5152 13.711 27.4052 13.791L27.3652 13.821L26.9452 13.211L26.9652 13.151C26.9652 13.091 26.9152 13.041 26.8552 13.041C26.7952 13.041 26.7452 13.091 26.7452 13.151L26.7652 13.211L26.3352 13.851H26.0352C26.0352 13.851 26.0252 14.041 26.3552 14.061C26.3952 14.121 26.4552 14.181 26.5352 14.211C26.5052 14.221 26.4752 14.241 26.4752 14.281V14.331H27.2452V14.281C27.2452 14.241 27.2152 14.221 27.1852 14.211C27.2504 14.1843 27.3071 14.1405 27.3493 14.0841C27.3916 14.0278 27.4178 13.9611 27.4252 13.891C27.4366 13.8787 27.4502 13.8685 27.4652 13.861C27.5452 13.801 27.6652 13.701 27.7052 13.751L27.7152 13.771C27.7152 13.801 27.6452 13.841 27.5952 13.871C27.5152 13.921 27.4352 13.981 27.4252 14.061C27.4252 14.081 27.4352 14.101 27.4652 14.101C27.4852 14.101 27.5052 14.081 27.5052 14.061C27.5052 14.021 27.5752 13.971 27.6352 13.931C27.7052 13.881 27.7752 13.841 27.7852 13.771L27.7552 13.701ZM27.0452 13.851C27.0372 13.8097 27.0206 13.7706 26.9965 13.7361C26.9723 13.7017 26.9412 13.6727 26.9052 13.651C26.9452 13.631 26.9652 13.601 26.9652 13.551C26.9652 13.5218 26.9536 13.4939 26.933 13.4732C26.9123 13.4526 26.8844 13.441 26.8552 13.441C26.826 13.441 26.798 13.4526 26.7774 13.4732C26.7568 13.4939 26.7452 13.5218 26.7452 13.551C26.7452 13.591 26.7752 13.631 26.8052 13.651C26.7352 13.681 26.6852 13.761 26.6652 13.851H26.4352L26.8352 13.261L26.8652 13.271L26.8952 13.261L27.2952 13.851H27.0452Z" fill="#FFE15A"/>
<path d="M26.0647 15.3711C26.0647 15.3711 26.0447 15.2911 26.0647 15.2111C26.0847 15.1311 26.0347 15.0711 26.0147 15.0011C25.9847 14.8211 26.1347 14.7811 26.1447 14.6211C26.1447 14.6211 26.2547 14.7311 26.2147 14.8411C26.1747 14.9411 26.2747 14.9611 26.2647 15.0611C26.2547 15.1611 26.1447 15.2611 26.1547 15.3511L26.0647 15.3711Z" fill="#FF4B55"/>
<path d="M27.7552 15.201C27.6652 15.091 27.5152 15.211 27.4052 15.291L27.3652 15.321L26.9452 14.711L26.9652 14.651C26.9652 14.591 26.9152 14.541 26.8552 14.541C26.7952 14.541 26.7452 14.591 26.7452 14.651L26.7652 14.711L26.3352 15.351H26.0352C26.0352 15.351 26.0252 15.541 26.3552 15.561C26.3952 15.621 26.4552 15.681 26.5352 15.711C26.5052 15.721 26.4752 15.741 26.4752 15.781V15.831H27.2452V15.781C27.2452 15.741 27.2152 15.721 27.1852 15.711C27.2504 15.6843 27.3071 15.6405 27.3493 15.5841C27.3916 15.5278 27.4178 15.4611 27.4252 15.391C27.4366 15.3787 27.4502 15.3685 27.4652 15.361C27.5452 15.301 27.6652 15.201 27.7052 15.251L27.7152 15.271C27.7152 15.301 27.6452 15.341 27.5952 15.371C27.5152 15.421 27.4352 15.481 27.4252 15.561C27.4252 15.581 27.4352 15.601 27.4652 15.601C27.4852 15.601 27.5052 15.581 27.5052 15.561C27.5052 15.521 27.5752 15.471 27.6352 15.431C27.7052 15.381 27.7752 15.341 27.7852 15.271C27.7848 15.2446 27.774 15.2195 27.7552 15.201ZM27.0452 15.341C27.0372 15.2997 27.0206 15.2606 26.9965 15.2261C26.9723 15.1917 26.9412 15.1627 26.9052 15.141C26.9452 15.121 26.9652 15.091 26.9652 15.041C26.9652 15.0118 26.9536 14.9839 26.933 14.9632C26.9123 14.9426 26.8844 14.931 26.8552 14.931C26.826 14.931 26.798 14.9426 26.7774 14.9632C26.7568 14.9839 26.7452 15.0118 26.7452 15.041C26.7452 15.081 26.7752 15.121 26.8052 15.141C26.7352 15.171 26.6852 15.251 26.6652 15.341H26.4352L26.8352 14.751L26.8652 14.761L26.8952 14.751L27.2952 15.341H27.0452Z" fill="#FFE15A"/>
<path d="M31.2551 7.87109C31.2551 7.87109 31.2351 7.79109 31.2551 7.71109C31.2751 7.63109 31.2251 7.57109 31.2051 7.50109C31.1751 7.32109 31.3251 7.28109 31.3351 7.12109C31.3351 7.12109 31.4451 7.23109 31.4051 7.34109C31.3651 7.44109 31.4651 7.46109 31.4551 7.56109C31.4451 7.66109 31.3351 7.76109 31.3451 7.85109L31.2551 7.87109Z" fill="#FF4B55"/>
<path d="M32.9446 7.71102C32.8546 7.60102 32.7046 7.72102 32.5946 7.80102L32.5546 7.83102L32.1346 7.21102L32.1546 7.15102C32.1546 7.09102 32.1046 7.04102 32.0446 7.04102C31.9846 7.04102 31.9346 7.09102 31.9346 7.15102L31.9546 7.21102L31.5246 7.85102H31.2246C31.2246 7.85102 31.2146 8.04102 31.5446 8.06102C31.5846 8.12102 31.6446 8.18102 31.7246 8.21102C31.6946 8.22102 31.6646 8.24102 31.6646 8.28102V8.33102H32.4346V8.28102C32.4346 8.24102 32.4046 8.22102 32.3746 8.21102C32.4398 8.18432 32.4965 8.14047 32.5388 8.08413C32.581 8.02779 32.6073 7.96105 32.6146 7.89102C32.6261 7.8787 32.6396 7.86853 32.6546 7.86102C32.7346 7.80102 32.8546 7.70102 32.8946 7.75102L32.9046 7.77102C32.9046 7.80102 32.8346 7.84102 32.7846 7.87102C32.7046 7.92102 32.6246 7.98102 32.6146 8.06102C32.6146 8.08102 32.6246 8.10102 32.6546 8.10102C32.6746 8.10102 32.6946 8.08102 32.6946 8.06102C32.6946 8.02102 32.7646 7.97102 32.8246 7.93102C32.8946 7.88102 32.9646 7.84102 32.9746 7.77102C32.9711 7.74838 32.9606 7.7274 32.9446 7.71102ZM32.2346 7.85102C32.2266 7.80973 32.21 7.77059 32.1859 7.73613C32.1618 7.70168 32.1307 7.67268 32.0946 7.65102C32.1346 7.63102 32.1546 7.60102 32.1546 7.55102C32.1546 7.52184 32.1431 7.49386 32.1224 7.47323C32.1018 7.45261 32.0738 7.44102 32.0446 7.44102C32.0155 7.44102 31.9875 7.45261 31.9669 7.47323C31.9462 7.49386 31.9346 7.52184 31.9346 7.55102C31.9346 7.59102 31.9646 7.63102 31.9946 7.65102C31.9246 7.68102 31.8746 7.76102 31.8546 7.85102H31.6246L32.0246 7.26102L32.0546 7.27102L32.0846 7.26102L32.4846 7.85102H32.2346Z" fill="#FFE15A"/>
<path d="M31.2551 9.37109C31.2551 9.37109 31.2351 9.29109 31.2551 9.21109C31.2751 9.13109 31.2251 9.07109 31.2051 9.00109C31.1751 8.82109 31.3251 8.78109 31.3351 8.62109C31.3351 8.62109 31.4451 8.73109 31.4051 8.84109C31.3651 8.94109 31.4651 8.96109 31.4551 9.06109C31.4451 9.16109 31.3351 9.26109 31.3451 9.35109L31.2551 9.37109Z" fill="#FF4B55"/>
<path d="M32.9449 9.20102C32.8549 9.09102 32.6949 9.21102 32.5849 9.30102L32.5449 9.33102L32.1249 8.71102L32.1449 8.65102C32.1449 8.59102 32.0949 8.54102 32.0349 8.54102C31.9749 8.54102 31.9249 8.59102 31.9249 8.65102L31.9449 8.71102L31.5149 9.35102H31.2149C31.2149 9.35102 31.2049 9.54102 31.5349 9.56102C31.5749 9.62102 31.6349 9.68102 31.7149 9.71102C31.6963 9.71102 31.6785 9.71839 31.6654 9.73152C31.6523 9.74465 31.6449 9.76245 31.6449 9.78102V9.83102H32.4149V9.78102C32.4149 9.74102 32.3849 9.72102 32.3549 9.71102C32.42 9.68432 32.4768 9.64047 32.519 9.58413C32.5613 9.52779 32.5875 9.46105 32.5949 9.39102C32.6063 9.3787 32.6199 9.36853 32.6349 9.36102C32.7149 9.30102 32.8349 9.20102 32.8749 9.25102L32.8849 9.27102C32.8849 9.30102 32.8149 9.34102 32.7649 9.37102C32.6849 9.42102 32.6049 9.48102 32.5949 9.56102C32.5949 9.58102 32.6049 9.60102 32.6349 9.60102C32.6549 9.60102 32.6749 9.58102 32.6749 9.56102C32.6749 9.52102 32.7449 9.47102 32.8049 9.43102C32.8749 9.38102 32.9449 9.34102 32.9549 9.27102C32.9749 9.26102 32.9649 9.23102 32.9449 9.20102ZM32.2349 9.35102C32.2269 9.30973 32.2103 9.27059 32.1861 9.23613C32.162 9.20168 32.1309 9.17268 32.0949 9.15102C32.1349 9.13102 32.1549 9.10102 32.1549 9.05102C32.1549 9.02184 32.1433 8.99386 32.1227 8.97323C32.102 8.95261 32.0741 8.94102 32.0449 8.94102C32.0157 8.94102 31.9877 8.95261 31.9671 8.97323C31.9465 8.99386 31.9349 9.02184 31.9349 9.05102C31.9349 9.09102 31.9649 9.13102 31.9949 9.15102C31.9249 9.18102 31.8749 9.26102 31.8549 9.35102H31.6249L32.0249 8.76102L32.0549 8.77102L32.0849 8.76102L32.4849 9.35102H32.2349Z" fill="#FFE15A"/>
<path d="M31.2551 10.8711C31.2551 10.8711 31.2351 10.7911 31.2551 10.7111C31.2751 10.6311 31.2251 10.5711 31.2051 10.5011C31.1751 10.3211 31.3251 10.2811 31.3351 10.1211C31.3351 10.1211 31.4451 10.2311 31.4051 10.3411C31.3651 10.4411 31.4651 10.4611 31.4551 10.5611C31.4451 10.6611 31.3351 10.7611 31.3451 10.8511L31.2551 10.8711Z" fill="#FF4B55"/>
<path d="M32.9449 10.701C32.8549 10.591 32.7049 10.711 32.5949 10.791L32.5549 10.821L32.1249 10.211L32.1449 10.151C32.1449 10.091 32.0949 10.041 32.0349 10.041C31.9749 10.041 31.9249 10.091 31.9249 10.151L31.9449 10.211L31.5149 10.851H31.2149C31.2149 10.851 31.2049 11.041 31.5349 11.061C31.5749 11.121 31.6349 11.181 31.7149 11.211C31.6849 11.221 31.6549 11.241 31.6549 11.281V11.331H32.4249V11.281C32.4249 11.241 32.3949 11.221 32.3649 11.211C32.43 11.1843 32.4868 11.1405 32.529 11.0841C32.5713 11.0278 32.5975 10.9611 32.6049 10.891C32.6163 10.8787 32.6299 10.8685 32.6449 10.861C32.7249 10.801 32.8449 10.701 32.8849 10.751L32.8949 10.771C32.8949 10.801 32.8249 10.841 32.7749 10.871C32.6949 10.921 32.6149 10.981 32.6049 11.061C32.6049 11.081 32.6149 11.101 32.6449 11.101C32.6649 11.101 32.6849 11.081 32.6849 11.061C32.6849 11.021 32.7549 10.971 32.8149 10.931C32.8849 10.881 32.9549 10.841 32.9649 10.771C32.9749 10.761 32.9649 10.731 32.9449 10.701ZM32.2349 10.851C32.2269 10.8097 32.2103 10.7706 32.1861 10.7361C32.162 10.7017 32.1309 10.6727 32.0949 10.651C32.1349 10.631 32.1549 10.601 32.1549 10.551C32.1549 10.5218 32.1433 10.4939 32.1227 10.4732C32.102 10.4526 32.0741 10.441 32.0449 10.441C32.0157 10.441 31.9877 10.4526 31.9671 10.4732C31.9465 10.4939 31.9349 10.5218 31.9349 10.551C31.9349 10.591 31.9649 10.631 31.9949 10.651C31.9249 10.681 31.8749 10.761 31.8549 10.851H31.6249L32.0249 10.261L32.0549 10.271L32.0849 10.261L32.4849 10.851H32.2349Z" fill="#FFE15A"/>
<path d="M31.2551 12.3711C31.2551 12.3711 31.2351 12.2911 31.2551 12.2111C31.2751 12.1311 31.2251 12.0711 31.2051 12.0011C31.1751 11.8211 31.3251 11.7811 31.3351 11.6211C31.3351 11.6211 31.4451 11.7311 31.4051 11.8411C31.3651 11.9411 31.4651 11.9611 31.4551 12.0611C31.4451 12.1611 31.3351 12.2611 31.3451 12.3511L31.2551 12.3711Z" fill="#FF4B55"/>
<path d="M32.9446 12.2013C32.8546 12.0913 32.7046 12.2113 32.5946 12.2913L32.5546 12.3212L32.1346 11.7013L32.1546 11.6413C32.1546 11.5813 32.1046 11.5312 32.0446 11.5312C31.9846 11.5312 31.9346 11.5813 31.9346 11.6413L31.9546 11.7013L31.5246 12.3413H31.2246C31.2246 12.3413 31.2146 12.5313 31.5446 12.5513C31.5846 12.6113 31.6446 12.6713 31.7246 12.7013C31.6946 12.7113 31.6646 12.7313 31.6646 12.7713V12.8212H32.4346V12.7713C32.4346 12.7313 32.4046 12.7113 32.3746 12.7013C32.4398 12.6746 32.4965 12.6307 32.5388 12.5744C32.581 12.518 32.6073 12.4513 32.6146 12.3813C32.6261 12.3689 32.6396 12.3588 32.6546 12.3513C32.7346 12.2913 32.8546 12.1913 32.8946 12.2413L32.9046 12.2613C32.9046 12.2913 32.8346 12.3312 32.7846 12.3612C32.7046 12.4112 32.6246 12.4713 32.6146 12.5513C32.6146 12.5713 32.6246 12.5913 32.6546 12.5913C32.6746 12.5913 32.6946 12.5713 32.6946 12.5513C32.6946 12.5113 32.7646 12.4613 32.8246 12.4213C32.8946 12.3713 32.9646 12.3313 32.9746 12.2613L32.9446 12.2013ZM32.2346 12.3513C32.2266 12.31 32.21 12.2708 32.1859 12.2364C32.1618 12.2019 32.1307 12.1729 32.0946 12.1512C32.1346 12.1312 32.1546 12.1013 32.1546 12.0513C32.1546 12.0221 32.1431 11.9941 32.1224 11.9735C32.1018 11.9528 32.0738 11.9412 32.0446 11.9412C32.0155 11.9412 31.9875 11.9528 31.9669 11.9735C31.9462 11.9941 31.9346 12.0221 31.9346 12.0513C31.9346 12.0913 31.9646 12.1312 31.9946 12.1512C31.9246 12.1812 31.8746 12.2613 31.8546 12.3513H31.6246L32.0246 11.7613L32.0546 11.7713L32.0846 11.7613L32.4846 12.3513H32.2346Z" fill="#FFE15A"/>
<path d="M31.2551 13.8711C31.2551 13.8711 31.2351 13.7911 31.2551 13.7111C31.2751 13.6311 31.2251 13.5711 31.2051 13.5011C31.1751 13.3211 31.3251 13.2811 31.3351 13.1211C31.3351 13.1211 31.4451 13.2311 31.4051 13.3411C31.3651 13.4411 31.4651 13.4611 31.4551 13.5611C31.4451 13.6611 31.3351 13.7611 31.3451 13.8511L31.2551 13.8711Z" fill="#FF4B55"/>
<path d="M32.9449 13.701C32.8549 13.591 32.7049 13.711 32.5949 13.791L32.5549 13.821L32.1249 13.211L32.1449 13.151C32.1449 13.091 32.0949 13.041 32.0349 13.041C31.9749 13.041 31.9249 13.091 31.9249 13.151L31.9449 13.211L31.5149 13.851H31.2149C31.2149 13.851 31.2049 14.041 31.5349 14.061C31.5749 14.121 31.6349 14.181 31.7149 14.211C31.6849 14.221 31.6549 14.241 31.6549 14.281V14.331H32.4249V14.281C32.4249 14.241 32.3949 14.221 32.3649 14.211C32.43 14.1843 32.4868 14.1405 32.529 14.0841C32.5713 14.0278 32.5975 13.9611 32.6049 13.891C32.6163 13.8787 32.6299 13.8685 32.6449 13.861C32.7249 13.801 32.8449 13.701 32.8849 13.751L32.8949 13.771C32.8949 13.801 32.8249 13.841 32.7749 13.871C32.6949 13.921 32.6149 13.981 32.6049 14.061C32.6049 14.081 32.6149 14.101 32.6449 14.101C32.6649 14.101 32.6849 14.081 32.6849 14.061C32.6849 14.021 32.7549 13.971 32.8149 13.931C32.8849 13.881 32.9549 13.841 32.9649 13.771C32.9749 13.751 32.9649 13.731 32.9449 13.701ZM32.2349 13.851C32.2269 13.8097 32.2103 13.7706 32.1861 13.7361C32.162 13.7017 32.1309 13.6727 32.0949 13.651C32.1349 13.631 32.1549 13.601 32.1549 13.551C32.1549 13.5218 32.1433 13.4939 32.1227 13.4732C32.102 13.4526 32.0741 13.441 32.0449 13.441C32.0157 13.441 31.9877 13.4526 31.9671 13.4732C31.9465 13.4939 31.9349 13.5218 31.9349 13.551C31.9349 13.591 31.9649 13.631 31.9949 13.651C31.9249 13.681 31.8749 13.761 31.8549 13.851H31.6249L32.0249 13.261L32.0549 13.271L32.0849 13.261L32.4849 13.851H32.2349Z" fill="#FFE15A"/>
<path d="M31.2551 15.3711C31.2551 15.3711 31.2351 15.2911 31.2551 15.2111C31.2751 15.1311 31.2251 15.0711 31.2051 15.0011C31.1751 14.8211 31.3251 14.7811 31.3351 14.6211C31.3351 14.6211 31.4451 14.7311 31.4051 14.8411C31.3651 14.9411 31.4651 14.9611 31.4551 15.0611C31.4451 15.1611 31.3351 15.2611 31.3451 15.3511L31.2551 15.3711Z" fill="#FF4B55"/>
<path d="M32.9446 15.2013C32.8546 15.0913 32.7046 15.2113 32.5946 15.2913L32.5546 15.3212L32.1346 14.7013L32.1546 14.6413C32.1546 14.5813 32.1046 14.5312 32.0446 14.5312C31.9846 14.5312 31.9346 14.5813 31.9346 14.6413L31.9546 14.7013L31.5246 15.3413H31.2246C31.2246 15.3413 31.2146 15.5313 31.5446 15.5513C31.5846 15.6113 31.6446 15.6713 31.7246 15.7013C31.6946 15.7113 31.6646 15.7313 31.6646 15.7713V15.8212H32.4346V15.7713C32.4346 15.7313 32.4046 15.7113 32.3746 15.7013C32.4398 15.6746 32.4965 15.6307 32.5388 15.5744C32.581 15.518 32.6073 15.4513 32.6146 15.3813C32.6261 15.3689 32.6396 15.3588 32.6546 15.3513C32.7346 15.2913 32.8546 15.1913 32.8946 15.2413L32.9046 15.2613C32.9046 15.2913 32.8346 15.3312 32.7846 15.3612C32.7046 15.4112 32.6246 15.4713 32.6146 15.5513C32.6146 15.5713 32.6246 15.5913 32.6546 15.5913C32.6746 15.5913 32.6946 15.5713 32.6946 15.5513C32.6946 15.5113 32.7646 15.4613 32.8246 15.4213C32.8946 15.3713 32.9646 15.3313 32.9746 15.2613C32.9711 15.2386 32.9606 15.2176 32.9446 15.2013ZM32.2346 15.3413C32.2266 15.3 32.21 15.2608 32.1859 15.2264C32.1618 15.1919 32.1307 15.1629 32.0946 15.1413C32.1346 15.1213 32.1546 15.0913 32.1546 15.0413C32.1546 15.0121 32.1431 14.9841 32.1224 14.9635C32.1018 14.9428 32.0738 14.9313 32.0446 14.9313C32.0155 14.9313 31.9875 14.9428 31.9669 14.9635C31.9462 14.9841 31.9346 15.0121 31.9346 15.0413C31.9346 15.0813 31.9646 15.1213 31.9946 15.1413C31.9246 15.1713 31.8746 15.2513 31.8546 15.3413H31.6246L32.0246 14.7513L32.0546 14.7613L32.0846 14.7513L32.4846 15.3413H32.2346Z" fill="#FFE15A"/>
<path d="M33.8154 6.37109V14.2311C33.8154 16.0011 29.5254 17.7811 29.5254 17.7811C29.5254 17.7811 25.2354 16.0111 25.2354 14.2311V6.37109H33.8154ZM34.0654 6.12109H24.9854V14.2311C24.9854 15.0611 25.7454 15.9511 27.2454 16.8911C28.3254 17.5611 29.3854 18.0011 29.4254 18.0211L29.5254 18.0611L29.6254 18.0211C29.6654 18.0011 30.7254 17.5611 31.8054 16.8911C33.3054 15.9611 34.0654 15.0611 34.0654 14.2311V6.12109Z" fill="#F5F5F5"/>
<path d="M34.1055 15.631L35.2455 16.421C34.5711 17.2966 33.7047 18.0057 32.713 18.4937C31.7213 18.9816 30.6308 19.2353 29.5255 19.2353C28.4203 19.2353 27.3298 18.9816 26.3381 18.4937C25.3464 18.0057 24.48 17.2966 23.8055 16.421L24.9455 15.631C25.4945 16.3187 26.1912 16.874 26.9841 17.2557C27.777 17.6373 28.6456 17.8354 29.5255 17.8354C30.4055 17.8354 31.2741 17.6373 32.067 17.2557C32.8599 16.874 33.5566 16.3187 34.1055 15.631ZM34.0555 15.291L33.9055 15.471C33.3855 16.1361 32.7208 16.674 31.9619 17.044C31.203 17.414 30.3698 17.6062 29.5255 17.6062C28.6813 17.6062 27.8481 17.414 27.0892 17.044C26.3303 16.674 25.6656 16.1361 25.1455 15.471L24.9955 15.291L24.8055 15.421L23.6555 16.211L23.4355 16.361L23.5955 16.571C24.2921 17.4794 25.1883 18.2153 26.2149 18.7218C27.2415 19.2283 28.3708 19.4917 29.5155 19.4917C30.6603 19.4917 31.7896 19.2283 32.8162 18.7218C33.8428 18.2153 34.739 17.4794 35.4355 16.571L35.5955 16.361L35.3855 16.211L34.2455 15.421L34.0555 15.291Z" fill="#F5F5F5"/>
<path d="M29.5247 19.2409C31.8447 19.2409 33.9147 18.1409 35.2447 16.4209L34.1047 15.6309C33.5558 16.3186 32.859 16.8739 32.0661 17.2555C31.2733 17.6371 30.4046 17.8353 29.5247 17.8353C28.6448 17.8353 27.7761 17.6371 26.9832 17.2555C26.1904 16.8739 25.4936 16.3186 24.9447 15.6309L23.8047 16.4209C24.477 17.2992 25.3428 18.0106 26.3349 18.4997C27.327 18.9888 28.4186 19.2425 29.5247 19.2409Z" fill="#FFE15A"/>
</g>
</g>
<defs>
<clipPath id="clip0_26003_54106">
<rect width="38" height="25" fill="white" transform="translate(0.745117 0.210938)"/>
</clipPath>
<clipPath id="clip1_26003_54106">
<rect width="38" height="25" fill="white" transform="translate(0.745117 0.210938)"/>
</clipPath>
</defs>
</svg>
