<svg width="38" height="26" viewBox="0 0 38 26" fill="none" xmlns="http://www.w3.org/2000/svg">
<g clip-path="url(#clip0_26003_92419)">
<g clip-path="url(#clip1_26003_92419)">
<path d="M0 -1.25H38V27.25H0V-1.25Z" fill="#E32118"/>
<path d="M0 -1.25H38V17.75H0V-1.25Z" fill="white"/>
<path d="M0 -1.25H38V8.25H0V-1.25Z" fill="#3E9A00"/>
<path d="M0 -1.25V27.25L10.6875 13L0 -1.25Z" fill="#0073CE"/>
<path d="M16.7207 10.1387H21.2688V14.9005C21.2688 16.5037 19.1788 15.2687 19.0007 16.1237C18.692 15.2449 16.7326 16.5155 16.7326 14.8055L16.7207 10.1387Z" fill="white" stroke="black" stroke-width="0.059375"/>
<path d="M19.3211 15.3629C19.3211 15.3629 19.2618 15.4223 19.1549 15.3748C19.048 15.3273 19.0361 12.3229 19.0361 12.3229C19.2736 12.0616 19.4636 11.9785 19.4636 11.9785L19.6061 12.0973C19.0718 12.3704 19.1193 12.7623 19.1668 13.4391C19.1786 13.6885 19.1786 14.0091 19.238 14.3179C19.3211 14.7098 19.4874 15.0423 19.4993 15.2916C19.5111 15.446 19.3211 15.3629 19.3211 15.3629Z" fill="#73452B" stroke="black" stroke-width="0.011875"/>
<path d="M18.9528 11.9082H19.1665C18.9884 13.6301 19.1428 14.6513 19.1428 15.1501C19.1428 15.3163 19.2378 15.3757 19.2259 15.3757C19.0121 15.6132 18.9053 15.3638 18.9053 15.3638L18.9528 11.9082Z" fill="#73452B" stroke="black" stroke-width="0.011875"/>
<path d="M18.6206 15.3647C18.4187 15.4597 18.3949 15.2697 18.4068 15.2459C18.8462 14.3553 19.0362 12.3959 18.6324 12.1822L18.6562 11.9922C18.8106 12.0397 18.9531 12.2416 18.9531 12.2416C19.0124 14.4384 18.9531 15.3409 18.9174 15.3766C18.7037 15.6022 18.6206 15.3409 18.6087 15.3172" fill="#A36629"/>
<path d="M18.6206 15.3647C18.4187 15.4597 18.3949 15.2697 18.4068 15.2459C18.8462 14.3553 19.0362 12.3959 18.6324 12.1822L18.6562 11.9922C18.8106 12.0397 18.9531 12.2416 18.9531 12.2416C19.0124 14.4384 18.9531 15.3409 18.9174 15.3766C18.7037 15.6022 18.6206 15.3409 18.6087 15.3172" stroke="black" stroke-width="0.011875"/>
<path d="M18.609 15.3281C18.5734 15.1381 18.9178 14.6513 18.894 14.1406M19.1909 14.5562C19.2978 14.8531 19.3453 15.1144 19.3215 15.3637" stroke="black" stroke-width="0.011875"/>
<path d="M19.6531 11.1016C19.7244 11.0184 19.7244 11.0184 19.855 11.0184C19.8787 10.8403 20.1756 10.8403 20.1994 11.0659C20.4369 11.0184 20.4844 11.1609 20.3894 11.3034C20.615 11.2441 20.8169 11.3034 20.7575 11.5647C21.1612 11.6716 21.0069 11.9566 20.8287 12.0159C20.805 12.1941 20.6387 12.2534 20.4131 12.1822C20.1281 12.3841 19.9619 12.3128 19.8312 12.1109C19.5106 12.1584 19.4869 12.0872 19.3444 11.9091C19.095 12.0159 19.0475 12.0159 18.8337 11.8853C18.8219 12.0516 18.7625 12.0041 18.6556 11.9922C18.6675 12.2059 18.5844 12.3009 18.3944 12.2297C18.5369 12.5266 18.1687 12.6572 17.9906 12.4078C17.8244 12.4197 17.8125 12.3722 17.7294 12.3128C17.6581 12.5503 17.3969 12.5147 17.3494 12.3841C17.0169 12.3366 17.0525 12.1584 17.3256 12.1466C17.3494 11.9566 17.5156 11.9922 17.6225 12.0159C17.6344 11.8972 17.7056 11.9209 17.765 11.9447C17.7294 11.8616 17.7531 11.8141 17.86 11.7903C17.7056 11.5884 17.8006 11.5172 17.955 11.4459C17.8719 11.2559 18.0144 11.2678 18.1212 11.2559C18.1094 11.0541 18.1687 11.0184 18.3825 10.9947C18.3587 10.9234 18.3944 10.8641 18.5131 10.8641C18.4419 10.6622 18.5369 10.6147 18.7506 10.6503C18.7862 10.3534 19.4156 10.4959 19.3681 10.8997C19.5462 10.9234 19.6056 10.9591 19.6531 11.1016Z" fill="#009A3B" stroke="black" stroke-width="0.011875"/>
<path d="M18.3833 10.9934C18.4308 11.0172 18.4902 10.9934 18.5021 11.1241C18.5971 10.9578 18.7158 11.0528 18.7158 11.2428M19.3689 10.8984C19.3214 10.9697 19.1433 10.9697 19.1671 11.1597C19.1077 11.0766 18.9889 11.0528 18.9414 11.1359M19.6539 11.1003C19.6539 11.1478 19.6421 11.2903 19.5946 11.3616M20.3902 11.3022C20.4021 11.3141 20.2239 11.3022 20.1408 11.3616M20.8296 12.0147C20.7821 11.9909 20.6871 11.9316 20.6158 12.0266C20.6158 11.9791 20.6158 11.8484 20.4852 11.8484M20.4139 12.1809C20.4139 12.0622 20.3902 12.0266 20.3664 11.9909M20.0221 12.0147C19.9271 11.9434 19.8321 12.0503 19.8321 12.1097M19.3333 11.9078C19.3333 11.8603 19.2977 11.7653 19.3808 11.7297M17.9796 12.4066C18.0033 12.2878 18.0864 12.2878 18.0746 12.2284M18.0746 12.2284C18.0627 12.1334 17.9558 12.0503 17.8252 12.1809M18.0746 12.2284C18.1458 12.2047 18.2171 12.2166 18.2408 12.2522M17.8727 11.7891C17.9202 11.7416 18.0389 11.7534 18.1102 11.7891M18.1102 11.5041C18.1696 11.5041 18.2764 11.4803 18.3121 11.5872C18.4427 11.3853 18.5377 11.4091 18.5614 11.4566M18.7989 11.4328C18.8939 11.3972 19.0602 11.4922 19.1552 11.6584C19.2027 11.5278 19.2739 11.5516 19.3452 11.5397M19.7964 11.6584C19.9508 11.5872 20.0458 11.7297 20.0933 11.7891C20.1646 11.6941 20.2239 11.6941 20.2952 11.6941M18.3596 11.9434C18.3952 11.8841 18.4783 11.8722 18.5377 11.9078C18.5258 11.8009 18.5971 11.7534 18.6446 11.7772" stroke="black" stroke-width="0.011875"/>
<path d="M18.8456 9.46781L18.5844 9.47969L18.4537 9.71719L18.3112 9.49156L18.05 9.50344L18.1688 9.26594L18.0263 9.04625L18.2994 9.03437L18.4181 8.79688L18.5606 9.0225L18.8219 9.01063L18.7031 9.24813L18.8456 9.46781ZM17.7294 9.55688L17.4681 9.61625L17.3969 9.87156L17.2069 9.68156L16.9575 9.74094L17.0287 9.49156L16.8506 9.30156L17.1 9.23625L17.1713 8.98094L17.3612 9.17094L17.6225 9.11156L17.5394 9.36688L17.7294 9.55688ZM16.6487 9.77656L16.4112 9.89531L16.3994 10.1566L16.1737 10.0141L15.9362 10.1328L15.96 9.86563L15.7344 9.72313L15.9719 9.60438L15.9956 9.33719L16.2094 9.48563L16.4469 9.36688L16.435 9.62813L16.6487 9.77656ZM19.19 9.46781L19.4513 9.47969L19.57 9.71719L19.7125 9.49156L19.9737 9.50344L19.855 9.26594L19.9975 9.04625L19.7362 9.03437L19.6056 8.79688L19.4631 9.0225L19.2019 9.01063L19.3206 9.24813L19.19 9.46781ZM20.3063 9.55688L20.5556 9.61625L20.6269 9.87156L20.8169 9.68156L21.0662 9.74094L20.995 9.49156L21.185 9.30156L20.9237 9.23625L20.8525 8.98094L20.6625 9.17094L20.4131 9.11156L20.4844 9.36688L20.3063 9.55688ZM21.375 9.77656L21.6125 9.89531L21.6244 10.1566L21.85 10.0141L22.0875 10.1328L22.0756 9.86563L22.2894 9.72313L22.0519 9.60438L22.04 9.33719L21.8144 9.48563L21.5769 9.36688L21.6006 9.62813L21.375 9.77656Z" fill="#FFD700" stroke="black" stroke-width="0.0415625"/>
<path d="M21.6966 14.8058L21.9934 15.2333L22.2666 14.8295L22.0766 14.4852L21.6966 14.8058ZM19.8084 16.0527L19.8322 16.4802C19.8322 16.4802 19.9509 16.4802 20.0578 16.4445C20.1528 16.4089 20.2359 16.3377 20.2359 16.3377L20.2241 16.112L19.8084 16.0527ZM18.2172 16.0527L18.1934 16.4683C18.1934 16.4683 18.0866 16.4683 17.9797 16.4445C17.8847 16.4208 17.8016 16.3614 17.8016 16.3614L17.6828 16.0764L18.2172 16.0527ZM16.3053 14.8058L15.9966 15.2333L15.6641 14.687L15.9134 14.4258L16.3053 14.8058Z" fill="white" stroke="black" stroke-width="0.0415625"/>
<path d="M17.7891 16.9079C17.7891 17.3116 20.2353 17.3116 20.2353 16.9079V16.3379C20.2353 16.6348 17.7891 16.5754 17.7891 16.3379V16.9079Z" fill="white" stroke="black" stroke-width="0.0415625"/>
<path d="M15.6045 15.5899C15.8182 16.6824 17.7895 16.7062 17.7895 16.7062V16.338C17.742 16.1955 17.8251 16.148 18.1457 16.1005C18.2764 16.0887 18.217 15.8987 18.217 15.8987C18.217 15.8987 17.362 16.053 16.7564 15.8155C15.937 15.483 15.8182 14.8418 15.8182 14.8418C15.8182 14.8418 15.7589 15.3405 15.6045 15.5899ZM22.4089 15.5899C22.207 16.6824 20.2357 16.7062 20.2357 16.7062V16.338C20.2714 16.1955 20.1882 16.148 19.8676 16.1005C19.737 16.0887 19.8082 15.8987 19.8082 15.8987C19.8082 15.8987 20.6632 16.053 21.2689 15.8155C22.0764 15.483 22.1714 14.8418 22.1714 14.8418C22.1714 14.8418 22.2545 15.3405 22.4089 15.5899Z" fill="white" stroke="black" stroke-width="0.0415625"/>
<path d="M15.7586 15.1738C15.2123 14.877 15.6398 14.5682 15.6873 13.6895C15.7705 14.2238 16.3761 14.4495 16.3048 14.7938C16.0555 14.8057 15.9367 14.4257 15.818 14.8413L15.7586 15.1738ZM22.2542 15.1738C22.8005 14.8651 22.3492 14.5682 22.3017 13.6895C22.2186 14.2238 21.6248 14.4495 21.6961 14.7938C21.9336 14.8057 22.0523 14.4257 22.1711 14.8413L22.2542 15.162V15.1738Z" fill="white" stroke="black" stroke-width="0.0415625"/>
<path d="M16.0908 15.5784L16.1502 15.6259L16.0196 15.7684C15.9602 15.8278 15.9542 15.8634 15.9899 15.8991C16.0314 15.9406 16.0671 15.9228 16.1086 15.8753L16.2571 15.7209L16.3046 15.7684L16.1621 15.9347C16.0849 16.0237 16.0136 16.0059 15.9483 15.9466C15.9008 15.8991 15.8652 15.8278 15.9483 15.7388L16.0908 15.5784ZM16.3283 15.7803L16.3877 15.8159L16.3758 16.1009L16.5064 15.8991L16.5658 15.9347L16.3758 16.2434L16.3046 16.2078L16.3164 15.9228L16.1858 16.1247L16.1264 16.0891L16.3283 15.7803ZM16.4352 16.2791L16.6014 15.9466L16.6608 15.9822L16.5064 16.3028L16.4352 16.2791ZM16.6964 15.9941L16.5658 16.3384L16.6964 16.3859C16.8152 16.4275 16.8746 16.3741 16.9102 16.2731C16.9517 16.1663 16.9339 16.095 16.8152 16.0416L16.6964 15.9941ZM16.7439 16.0772C16.8627 16.1187 16.8746 16.1662 16.8389 16.2553C16.8033 16.3325 16.7796 16.3622 16.6608 16.3028L16.7439 16.0772ZM17.0883 16.1247L16.8746 16.4453L16.9577 16.4691L17.0052 16.3859L17.1477 16.4216L17.1596 16.5047L17.2427 16.5166L17.1596 16.1366L17.0883 16.1247ZM17.1121 16.2078L17.1358 16.3503L17.0408 16.3384L17.1121 16.2078ZM17.2902 16.1544L17.2783 16.5225H17.4149C17.5455 16.5284 17.5811 16.4631 17.5871 16.3444C17.5871 16.2375 17.5455 16.1662 17.4149 16.1662L17.2902 16.1544ZM17.3614 16.2138C17.4921 16.2197 17.5099 16.2612 17.5099 16.3503C17.5039 16.4394 17.4861 16.475 17.3555 16.4572V16.2197L17.3614 16.2138ZM18.5371 16.6709V17.0509H18.6202V16.9084C18.6202 16.9084 18.6914 16.9084 18.7508 16.8966C18.7924 16.8847 18.828 16.855 18.828 16.7778C18.828 16.7066 18.7864 16.6709 18.7152 16.6709H18.5371ZM18.6202 16.7303H18.7033C18.7686 16.7303 18.7627 16.8372 18.7033 16.8372H18.6202V16.7303ZM18.9646 16.6709L18.8102 17.0509H18.8933L18.9289 16.9559H19.0833L19.1189 17.0509H19.2021L19.0477 16.6709H18.9646ZM19.0002 16.7541L19.0596 16.8966H18.9527L19.0002 16.7541ZM19.2021 16.9797L19.4039 16.7303H19.2258V16.6709H19.5108V16.7303L19.2971 16.9797H19.5108V17.0509H19.2021V16.9797ZM20.4014 16.2434L20.4727 16.2316L20.5083 16.4453C20.5202 16.5225 20.4846 16.57 20.4311 16.5938C20.3717 16.6175 20.2886 16.5937 20.2827 16.4928L20.3421 16.4809C20.3539 16.5403 20.3777 16.5463 20.4014 16.5403C20.4311 16.5284 20.443 16.4928 20.4371 16.4572L20.4014 16.2434ZM20.5202 16.2197L20.5855 16.2078L20.6211 16.3859C20.633 16.4631 20.6567 16.4928 20.7102 16.4869C20.7696 16.475 20.7755 16.4394 20.7636 16.3681L20.7221 16.1841L20.7933 16.1722L20.8408 16.3681C20.8646 16.4869 20.8052 16.5284 20.7221 16.5463C20.6567 16.5581 20.5796 16.5463 20.5558 16.4275L20.5202 16.2197ZM20.8883 16.3859L20.9477 16.3622C20.9774 16.4156 21.0189 16.4097 21.0546 16.3978C21.1021 16.3741 21.1139 16.3325 21.0842 16.3147C21.0486 16.2969 20.9655 16.3266 20.9239 16.3147C20.8705 16.2909 20.8467 16.2553 20.8527 16.2138C20.8527 16.1544 20.9002 16.1306 20.9536 16.1128C21.013 16.095 21.0724 16.1009 21.1139 16.1722L21.0427 16.1959C21.0189 16.1544 20.9833 16.1603 20.9596 16.1722C20.9358 16.1841 20.9002 16.2019 20.9239 16.2316C20.9358 16.2612 21.0249 16.2434 21.0724 16.2434C21.1199 16.2434 21.1555 16.2791 21.1614 16.3206C21.1733 16.3859 21.1496 16.4216 21.0724 16.4513C20.9833 16.4869 20.9002 16.4513 20.8883 16.3859ZM21.2089 16.0891L21.1139 16.1366L21.0902 16.0772L21.3514 15.9703L21.3752 16.0178L21.2802 16.0653L21.3871 16.3266L21.3277 16.3622L21.2089 16.0891ZM21.3633 15.9584L21.4227 15.9228L21.5889 16.2316L21.5296 16.2672L21.3633 15.9584ZM21.7671 15.9822L21.8383 15.9584C21.8475 15.9809 21.8507 16.0053 21.8478 16.0294C21.8449 16.0535 21.8359 16.0765 21.8216 16.0961C21.8073 16.1157 21.7883 16.1314 21.7663 16.1416C21.7443 16.1518 21.72 16.1562 21.6958 16.1544C21.5177 16.1544 21.4939 15.9525 21.5236 15.8872C21.5711 15.7744 21.7017 15.7803 21.7611 15.8397L21.7017 15.8872C21.6661 15.8397 21.583 15.8694 21.583 15.9109C21.5751 15.9456 21.579 15.982 21.594 16.0142C21.6091 16.0465 21.6345 16.0728 21.6661 16.0891C21.7255 16.1128 21.8086 16.0416 21.7671 15.9822ZM21.7314 15.7328L21.7908 15.6853L22.0046 15.9703L21.9452 16.0178L21.7314 15.7328ZM21.9571 15.5547L21.8977 15.6022L22.0283 15.9584L22.0877 15.8991L22.0521 15.8278L22.1589 15.7328L22.2302 15.7684L22.2896 15.7209L21.9571 15.5547ZM21.9808 15.6378L22.0996 15.6972L22.0283 15.7684L21.9808 15.6378Z" fill="black"/>
</g>
</g>
<defs>
<clipPath id="clip0_26003_92419">
<rect width="38" height="25" fill="white" transform="translate(0 0.5)"/>
</clipPath>
<clipPath id="clip1_26003_92419">
<rect width="38" height="28.5" fill="white" transform="translate(0 -1.25)"/>
</clipPath>
</defs>
</svg>
