<svg width="38" height="26" viewBox="0 0 38 26" fill="none" xmlns="http://www.w3.org/2000/svg">
<g clip-path="url(#clip0_26003_75585)">
<g clip-path="url(#clip1_26003_75585)">
<path d="M35.1398 25.5009H2.6598C1.90129 25.5009 1.17383 25.1996 0.637479 24.6633C0.101125 24.1269 -0.200195 23.3995 -0.200195 22.6409V3.32094C-0.200195 2.56242 0.101125 1.83497 0.637479 1.29861C1.17383 0.762258 1.90129 0.460938 2.6598 0.460938H35.1398C35.8983 0.460938 36.6258 0.762258 37.1621 1.29861C37.6985 1.83497 37.9998 2.56242 37.9998 3.32094V22.6409C37.9998 23.3995 37.6985 24.1269 37.1621 24.6633C36.6258 25.1996 35.8983 25.5009 35.1398 25.5009Z" fill="#2A359B"/>
<path d="M0.449805 12.9692H1.5998L7.6998 8.96922V12.9692H10.9898V8.96922L17.0898 12.9692H18.2298C18.5898 12.9692 18.8898 12.6692 18.8898 12.3092V11.7892L13.6598 8.35922H18.8898V5.05922H13.6598L18.8898 1.62922V1.10922C18.8885 0.946276 18.8279 0.78938 18.7193 0.667897C18.6107 0.546413 18.4616 0.46867 18.2998 0.449219H17.0798L10.9798 4.44922V0.449219H7.6998V4.44922L1.7998 0.579219C1.1098 0.799219 0.539805 1.26922 0.179805 1.88922L5.0298 5.06922H-0.200195V8.36922H5.0298L-0.200195 11.7992V12.3192C-0.200195 12.6792 0.0898046 12.9692 0.449805 12.9692Z" fill="#F5F5F5"/>
<path d="M18.8998 5.71922H10.3298V0.449219H8.3598V5.71922H-0.200195V7.69922H8.3598V12.9692H10.3298V7.69922H18.8998V5.71922Z" fill="#F9263B"/>
<path d="M0.409648 1.53922L5.82965 5.05922H7.03965L0.889648 1.05922C0.709648 1.20922 0.549648 1.36922 0.409648 1.53922ZM12.1996 5.05922L18.7896 0.779219C18.7327 0.680567 18.6512 0.598328 18.5531 0.540501C18.455 0.482674 18.3435 0.451227 18.2296 0.449219H18.0996L10.9996 5.05922H12.1996ZM6.46965 8.35922L-0.110352 12.6292C-0.000351563 12.8292 0.209648 12.9692 0.449648 12.9692H0.569648L7.66965 8.35922H6.46965ZM18.8896 12.3692L12.7196 8.35922H11.5096L18.5096 12.9092C18.7196 12.8092 18.8696 12.6092 18.8896 12.3692Z" fill="#F9263B"/>
<path d="M28.4398 6.72031C28.4398 6.72031 28.1598 5.62031 27.3398 5.07031C27.3398 5.07031 28.1698 6.45031 28.1698 7.55031L28.4398 6.72031Z" fill="#FFE15A"/>
<path d="M27.1602 5.52148C27.1602 5.52148 27.7402 5.87148 28.0502 6.45148L27.8002 7.03148C27.8002 7.03148 27.5902 6.21148 27.1602 5.52148Z" fill="#FFE15A"/>
<path d="M26.5303 5.65039C26.5303 5.65039 27.5303 5.96039 28.0003 6.61039L27.7203 7.04039C27.7103 7.04039 27.3303 6.30039 26.5303 5.65039Z" fill="#FFE15A"/>
<path d="M26.3799 6.15039C26.3799 6.15039 27.4299 6.31039 27.8999 6.81039L27.7799 7.28039C27.7799 7.29039 27.2099 6.60039 26.3799 6.15039Z" fill="#FFE15A"/>
<path d="M26.4102 6.49031C26.4102 6.49031 27.4302 6.59031 27.8902 7.13031C28.3602 7.67031 27.7202 7.50031 27.7202 7.50031C27.7202 7.50031 27.1902 6.89031 26.4102 6.49031ZM28.4402 6.72031C28.4402 6.72031 28.7202 5.62031 29.5402 5.07031C29.5402 5.07031 28.7102 6.45031 28.7102 7.55031L28.4402 6.72031Z" fill="#FFE15A"/>
<path d="M29.7103 5.52148C29.7103 5.52148 29.1303 5.87148 28.8203 6.45148L29.0703 7.03148C29.0703 7.03148 29.2803 6.21148 29.7103 5.52148Z" fill="#FFE15A"/>
<path d="M30.3499 5.65039C30.3499 5.65039 29.3499 5.96039 28.8799 6.61039L29.1599 7.04039C29.1599 7.04039 29.5399 6.30039 30.3499 5.65039Z" fill="#FFE15A"/>
<path d="M30.4897 6.15039C30.4897 6.15039 29.4397 6.31039 28.9697 6.81039L29.0897 7.28039C29.0897 7.29039 29.6697 6.60039 30.4897 6.15039Z" fill="#FFE15A"/>
<path d="M30.4599 6.49055C30.4599 6.49055 29.4399 6.59055 28.9799 7.13055C28.5099 7.67055 29.1499 7.50055 29.1499 7.50055C29.1499 7.50055 29.6799 6.89055 30.4599 6.49055ZM28.4399 5.06055C28.4399 5.06055 28.1599 5.64055 28.4399 5.93055C28.7099 5.64055 28.4399 5.06055 28.4399 5.06055Z" fill="#FFE15A"/>
<path d="M28.1595 5.21094C28.1595 5.21094 28.1195 5.85094 28.4895 6.02094C28.6395 5.64094 28.1595 5.21094 28.1595 5.21094Z" fill="#FFE15A"/>
<path d="M28.7096 5.21094C28.7096 5.21094 28.7496 5.85094 28.3796 6.02094C28.2396 5.64094 28.7096 5.21094 28.7096 5.21094Z" fill="#FFE15A"/>
<path d="M28.8002 5.58008C28.8002 5.58008 28.5602 6.18008 28.1602 6.17008C28.1902 5.77008 28.8002 5.58008 28.8002 5.58008Z" fill="#FFE15A"/>
<path d="M28.0703 5.58008C28.0703 5.58008 28.3103 6.18008 28.7103 6.17008C28.6803 5.77008 28.0703 5.58008 28.0703 5.58008Z" fill="#FFE15A"/>
<path d="M28.4404 8.09063C28.8987 8.09063 29.2704 7.59814 29.2704 6.99062C29.2704 6.38311 28.8987 5.89062 28.4404 5.89062C27.982 5.89062 27.6104 6.38311 27.6104 6.99062C27.6104 7.59814 27.982 8.09063 28.4404 8.09063Z" fill="#FFD255"/>
<path d="M26.5497 8.12001L26.3597 7.83001C26.3597 7.83001 25.8097 7.96001 25.6797 7.55001L25.4697 7.53001C25.4697 7.53001 25.4997 7.25001 25.7497 7.21001C25.7497 7.21001 25.8997 7.03001 26.1597 7.06001C26.4197 7.09001 26.5597 7.32001 26.7097 7.38001C26.8597 7.44001 26.8797 7.63001 26.8797 7.63001L28.0397 8.82001C28.0397 8.82001 27.7097 9.24001 27.4097 9.38001C27.0997 9.51001 26.0097 8.84001 26.5497 8.12001ZM30.3097 8.34001C30.3097 8.34001 30.7897 8.67001 30.8097 9.57001H30.0097C30.0097 9.57001 30.0197 8.96001 29.8597 8.63001L30.3097 8.34001Z" fill="#73AF00"/>
<path d="M30.21 8.37C30.21 8.37 30.81 8.57 31.18 8.09L30.55 8L30.21 8.37Z" fill="#73AF00"/>
<path d="M30.03 7.71055L30.64 7.92055C30.72 7.95055 30.74 8.04055 30.69 8.10055C30.46 8.36055 29.76 8.99055 28.65 8.99055C27.2 8.99055 26.82 8.07055 26.8 8.01055L26.71 7.38055L27.33 7.31055L30.03 7.71055Z" fill="#73AF00"/>
<path d="M24.0803 16.1406H25.6803L24.8603 17.7406L24.0303 16.6406L24.0803 16.1406ZM32.7903 16.1406H31.1903L32.0203 17.7406L32.8403 16.6406L32.7903 16.1406Z" fill="#FF4B55"/>
<path d="M24.0696 18.8491C23.5591 18.8428 23.0618 18.6863 22.6396 18.3991L23.2796 17.4991C23.2896 17.4991 23.8196 17.8691 24.3596 17.6991C24.9096 17.5291 25.2696 16.8791 25.4796 16.3691L26.4996 16.7791C26.0696 17.8691 25.4496 18.5291 24.6596 18.7591C24.4596 18.8191 24.2596 18.8491 24.0696 18.8491ZM32.7996 18.8491C33.5896 18.8491 34.1996 18.4291 34.2296 18.3991L33.5896 17.4991C33.5796 17.4991 33.0496 17.8691 32.5096 17.6991C31.9596 17.5291 31.5996 16.8791 31.3896 16.3691L30.3696 16.7791C30.7997 17.8691 31.4196 18.5291 32.2096 18.7591C32.4096 18.8191 32.6096 18.8491 32.7996 18.8491Z" fill="#FFD25A"/>
<path d="M32.0204 13.06H24.8604V10.41C24.8604 10.05 25.1504 9.75 25.5204 9.75H31.3604C31.7204 9.75 32.0204 10.05 32.0204 10.41V13.06Z" fill="#F92D40"/>
<path d="M26.81 11.6787L26.72 11.1287C26.32 11.1087 26.08 10.6387 26.08 10.6387L25.75 10.8187C26.1 11.6387 26.81 11.6787 26.81 11.6787Z" fill="#FCCF10"/>
<path d="M31.1202 11.1091C31.2402 11.0191 31.5002 10.9791 31.5002 10.9791C31.3102 10.7791 31.1002 10.9191 31.1002 10.9191C31.2702 10.7591 31.1702 10.5291 31.1702 10.5291C31.1702 10.5991 31.0502 10.6591 31.0502 10.6591C31.0602 10.5091 30.9002 10.3691 30.9002 10.3691L30.8302 10.4991C30.7802 10.3691 30.5902 10.2791 30.5902 10.2791L30.5202 10.5891C30.3502 10.4391 30.0402 10.4491 30.0402 10.4491L30.1002 10.5891C29.9202 10.5991 29.4202 10.6991 29.1202 10.7291C28.8302 10.7591 28.5902 10.6791 28.5902 10.5491C28.5902 10.4391 28.8502 10.4291 28.9602 10.4191L29.2802 10.5091C29.5402 10.5891 29.6902 10.4791 29.6902 10.4791C29.6002 10.4491 29.5902 10.4091 29.5902 10.4091C29.7802 10.2991 29.9702 10.3291 29.9702 10.3291C29.9102 10.1891 29.6302 10.1991 29.6302 10.1991C29.7002 10.1591 29.7602 10.0391 29.7602 10.0391C29.7402 10.0591 29.5802 10.0991 29.3702 10.1291C29.2284 10.1617 29.0974 10.2306 28.9902 10.3291C28.8202 10.3191 28.3702 10.3091 28.4502 10.6191C28.5502 10.9991 29.3202 10.8691 29.8002 10.7891C30.2802 10.7191 30.5202 10.7791 30.6302 10.8391C30.7302 10.8991 30.5902 11.1191 30.1002 11.0291C29.8452 10.9672 29.5818 10.947 29.3202 10.9691C29.1802 10.9791 29.0602 11.0191 28.9802 11.0291C28.7902 11.0691 28.0602 11.3291 27.9202 10.9591C27.7802 10.5891 27.1102 11.5691 27.1102 11.5691L27.1602 11.6291L26.9802 11.5891C26.7402 11.9091 26.0202 12.0091 26.0202 12.0091C26.0202 12.0091 25.9102 11.8191 25.8202 11.7891C25.7302 11.7591 25.6902 11.9091 25.6902 11.9091C25.6902 11.9091 25.5802 11.9091 25.5702 12.0091C25.5602 12.1091 25.6502 12.1191 25.6502 12.1191C25.6502 12.1191 25.5502 12.2691 25.7202 12.3091C25.7202 12.3091 25.7102 12.5191 25.9602 12.3691C26.7102 12.4691 27.2602 12.0791 27.5002 11.8691C27.6602 11.8791 27.9002 11.8791 28.0802 11.7791C28.3802 11.6191 28.7202 11.4291 28.9202 11.4991C28.9202 11.4991 29.0802 11.9891 28.4502 12.0091C28.4502 12.0091 28.3602 11.8891 28.2602 11.8891C28.2202 11.8891 28.1802 11.9391 28.1902 11.9791C28.1902 11.9791 28.0802 11.9691 28.0602 12.0391C28.0402 12.0891 28.0802 12.1491 28.1602 12.1391C28.1602 12.1391 28.1002 12.2191 28.1602 12.2691C28.2202 12.3191 28.2802 12.2691 28.2802 12.2691C28.2802 12.2691 28.2502 12.3691 28.3202 12.3791C28.3802 12.3891 28.4602 12.2891 28.4802 12.2591C28.5802 12.2791 29.2702 12.3591 29.4202 11.6291C29.4202 11.6291 29.7602 11.7791 30.1002 11.7491C30.4402 11.7191 30.7702 11.7691 30.7402 11.9391C30.7002 12.0591 30.6302 12.0491 30.6302 12.0491C30.5502 12.0191 30.4102 12.0191 30.3902 12.1391C30.3702 12.2591 30.5302 12.2591 30.5302 12.2591C30.5802 12.3691 30.7002 12.3191 30.7002 12.3191C30.8102 12.3991 30.8902 12.3091 30.8902 12.3091C30.9402 12.3491 30.9902 12.3591 31.0402 12.3191C31.0902 12.2791 31.0602 12.0191 31.0602 11.9291C31.0502 11.7791 31.0302 11.3691 30.8102 11.3691C30.5902 11.3591 30.3002 11.4991 29.9002 11.1591L29.8402 11.1191C30.0302 11.1391 30.1602 11.1891 30.2902 11.2091C30.4802 11.2491 31.0002 11.1991 31.1202 11.1091ZM25.7602 10.8191L25.6002 10.8091C25.5102 10.7791 25.5002 10.6391 25.6002 10.6091C25.6002 10.6091 25.4802 10.5291 25.5402 10.4391C25.5802 10.3691 25.7002 10.3691 25.7302 10.4091C25.7302 10.4091 25.6902 10.2891 25.8002 10.2491C25.8802 10.2191 25.9502 10.3091 25.9502 10.4391C25.9502 10.4391 26.0702 10.3391 26.1402 10.4091C26.1802 10.4591 26.1702 10.5191 26.1002 10.6491C26.0102 10.7691 25.7602 10.8191 25.7602 10.8191Z" fill="#FCCF10"/>
<path d="M25.6201 10.7706C25.6201 10.7706 25.5601 10.8706 25.3901 10.8106C25.3901 10.8106 25.5401 10.7406 25.5601 10.6806L25.6201 10.7706ZM25.5601 10.4706C25.5601 10.4706 25.4701 10.4106 25.3701 10.4106C25.3701 10.4106 25.5201 10.3006 25.6501 10.4006L25.5601 10.4706ZM25.7701 10.3106C25.7701 10.3106 25.8001 10.2006 25.7401 10.1406C25.7401 10.1406 25.8601 10.1906 25.8801 10.2906L25.7701 10.3106ZM26.0401 10.4206C26.0401 10.4206 26.1001 10.2906 26.0501 10.2306C26.0501 10.2306 26.2101 10.3206 26.1401 10.4706L26.0401 10.4206ZM25.7301 11.8706C25.7301 11.8706 25.6701 11.7406 25.5901 11.7406C25.5901 11.7406 25.7601 11.6806 25.8301 11.8206L25.7301 11.8706ZM25.6001 12.0306C25.6001 12.0306 25.4901 11.9406 25.4201 11.9806C25.4201 11.9806 25.5501 11.8506 25.6701 11.9506L25.6001 12.0306ZM25.6801 12.2606C25.6801 12.2606 25.5401 12.2606 25.5001 12.3306C25.5001 12.3306 25.5201 12.1506 25.6801 12.1506V12.2606ZM25.8101 12.4106C25.8101 12.4106 25.7501 12.5106 25.5801 12.4506C25.5801 12.4506 25.7301 12.3806 25.7501 12.3206L25.8101 12.4106ZM28.3701 12.3506C28.3701 12.3506 28.3201 12.4306 28.1801 12.3806C28.1801 12.3806 28.2901 12.3406 28.3101 12.2906L28.3701 12.3506Z" fill="#41479B"/>
<path d="M26.9104 10.5793C26.9104 10.5793 26.6004 11.1093 26.6704 11.8693C26.6704 11.8693 27.5804 11.7393 27.9804 10.8193C27.9804 10.8193 28.0804 10.7793 28.1104 10.6893C28.1404 10.6093 28.1404 10.4793 27.9904 10.4793C27.9904 10.4793 28.0404 10.3893 28.0904 10.3693C28.0904 10.3693 27.9904 10.3293 27.8704 10.3593C27.8704 10.3593 27.9604 10.2693 27.9604 10.1493C27.9604 10.1493 27.8204 10.2393 27.7404 10.2493C27.7404 10.2493 27.7304 10.1093 27.7704 10.0893C27.7704 10.0893 27.5904 10.1093 27.5004 10.1993C27.5004 10.1993 27.4404 10.1193 27.4404 10.0293C27.4404 10.0293 27.2704 10.0993 27.2104 10.2093C27.2104 10.2093 27.1604 10.1493 27.1604 10.0993C27.1604 10.0993 27.0404 10.2493 27.0104 10.3193C27.0104 10.3193 26.9004 10.2893 26.8504 10.3793C26.8204 10.4493 26.8304 10.5193 26.9104 10.5793Z" fill="#FFD255"/>
<path d="M28.2304 11.9707C28.2304 11.9707 28.1904 11.9007 28.0804 11.8907C28.0804 11.8907 28.2204 11.8307 28.3104 11.9207L28.2304 11.9707ZM30.5104 12.2307C30.5104 12.2307 30.4304 12.2607 30.3904 12.3707C30.3904 12.3707 30.3504 12.2107 30.4604 12.1307L30.5104 12.2307ZM30.6804 12.2907C30.6804 12.2907 30.6004 12.3607 30.6104 12.4807C30.6104 12.4807 30.5204 12.3407 30.6004 12.2307L30.6804 12.2907ZM31.0404 12.2907C31.0404 12.2907 31.0204 12.3707 31.0904 12.4507C31.0904 12.4507 30.9504 12.4007 30.9404 12.2807L31.0404 12.2907ZM30.8704 12.3207C30.8704 12.3207 30.8104 12.3807 30.8304 12.5007C30.8304 12.5007 30.7204 12.4007 30.7904 12.2807L30.8704 12.3207ZM28.1104 12.1107C28.1104 12.1107 28.0404 12.0807 27.9404 12.1507C27.9404 12.1507 28.0004 12.0107 28.1304 12.0207L28.1104 12.1107ZM28.2104 12.2707C28.2104 12.2707 28.1304 12.2507 28.0504 12.3207C28.0504 12.3207 28.0604 12.1807 28.1904 12.1807L28.2104 12.2707Z" fill="#41479B"/>
<path d="M32.0199 13.5C31.4199 13.5 31.4199 14.04 30.8299 14.04C30.2299 14.04 30.2299 13.5 29.6399 13.5C29.0399 13.5 29.0399 14.04 28.4499 14.04C27.8499 14.04 27.8499 13.5 27.2599 13.5C26.6599 13.5 26.6599 14.04 26.0699 14.04C25.4699 14.04 25.4699 13.5 24.8799 13.5V12.5C25.4799 12.5 25.4799 13.04 26.0699 13.04C26.6699 13.04 26.6699 12.5 27.2599 12.5C27.8599 12.5 27.8599 13.04 28.4499 13.04C29.0499 13.04 29.0499 12.5 29.6399 12.5C30.2399 12.5 30.2399 13.04 30.8299 13.04C31.4299 13.04 31.4299 12.5 32.0199 12.5V13.5Z" fill="#F5F5F5"/>
<path d="M30.8201 14.04C30.2201 14.04 30.2201 13.5 29.6301 13.5C29.0301 13.5 29.0301 14.04 28.4401 14.04C27.8401 14.04 27.8401 13.5 27.2501 13.5C26.6501 13.5 26.6501 14.04 26.0601 14.04C25.4601 14.04 25.4601 13.5 24.8701 13.5C24.8801 13.74 24.9101 14.09 24.9801 14.51C25.4601 14.57 25.5101 15.04 26.0601 15.04C26.6601 15.04 26.6601 14.5 27.2501 14.5C27.8501 14.5 27.8501 15.04 28.4401 15.04C29.0401 15.04 29.0401 14.5 29.6301 14.5C30.2301 14.5 30.2301 15.04 30.8201 15.04C31.3801 15.04 31.4201 14.58 31.9101 14.51C31.9801 14.09 32.0101 13.74 32.0201 13.5C31.4201 13.5 31.4201 14.04 30.8201 14.04Z" fill="#41479B"/>
<path d="M30.8205 15.04C30.2205 15.04 30.2205 14.5 29.6305 14.5C29.0305 14.5 29.0305 15.04 28.4405 15.04C27.8405 15.04 27.8405 14.5 27.2505 14.5C26.6505 14.5 26.6505 15.04 26.0605 15.04C25.5005 15.04 25.4605 14.58 24.9805 14.51C25.0405 14.84 25.1205 15.21 25.2405 15.59C25.5105 15.74 25.6305 16.04 26.0605 16.04C26.6605 16.04 26.6605 15.5 27.2505 15.5C27.8505 15.5 27.8505 16.04 28.4405 16.04C29.0405 16.04 29.0405 15.5 29.6305 15.5C30.2305 15.5 30.2305 16.04 30.8205 16.04C31.2605 16.04 31.3805 15.75 31.6505 15.59C31.7705 15.21 31.8505 14.84 31.9105 14.51C31.4205 14.57 31.3805 15.04 30.8205 15.04Z" fill="#F5F5F5"/>
<path d="M30.8202 16.0302C30.2202 16.0302 30.2202 15.4902 29.6302 15.4902C29.0302 15.4902 29.0302 16.0302 28.4402 16.0302C27.8402 16.0302 27.8402 15.4902 27.2502 15.4902C26.6502 15.4902 26.6502 16.0302 26.0602 16.0302C25.6202 16.0302 25.5002 15.7402 25.2402 15.5802C25.3902 16.0502 25.6002 16.5402 25.9002 17.0002L26.0602 17.0202C26.6602 17.0202 26.6602 16.4802 27.2502 16.4802C27.8502 16.4802 27.8502 17.0202 28.4402 17.0202C29.0402 17.0202 29.0402 16.4802 29.6302 16.4802C30.2302 16.4802 30.2302 17.0202 30.8202 17.0202L30.9802 17.0002C31.2802 16.5402 31.4902 16.0502 31.6402 15.5802C31.3802 15.7402 31.2602 16.0302 30.8202 16.0302Z" fill="#41479B"/>
<path d="M30.8204 17.0302C30.2204 17.0302 30.2204 16.4902 29.6304 16.4902C29.0304 16.4902 29.0304 17.0302 28.4404 17.0302C27.8404 17.0302 27.8404 16.4902 27.2504 16.4902C26.6504 16.4902 26.6504 17.0302 26.0604 17.0302C26.0065 17.0291 25.9529 17.0224 25.9004 17.0102C26.0904 17.3002 26.3104 17.5802 26.5804 17.8302C26.7604 17.6802 26.9104 17.4902 27.2604 17.4902C27.8604 17.4902 27.8604 18.0302 28.4504 18.0302C29.0504 18.0302 29.0504 17.4902 29.6404 17.4902C29.9904 17.4902 30.1404 17.6802 30.3204 17.8302C30.5804 17.5802 30.8104 17.3002 31.0004 17.0102L30.8204 17.0302Z" fill="#F5F5F5"/>
<path d="M30.3103 17.8302C30.1303 17.6802 29.9803 17.4902 29.6303 17.4902C29.0303 17.4902 29.0303 18.0302 28.4403 18.0302C27.8403 18.0302 27.8403 17.4902 27.2503 17.4902C26.9003 17.4902 26.7503 17.6802 26.5703 17.8302C27.0503 18.2902 27.6603 18.6502 28.4503 18.8502C29.2203 18.6502 29.8303 18.2802 30.3103 17.8302Z" fill="#41479B"/>
<path d="M29.6301 12.5098C29.0301 12.5098 29.0301 13.0498 28.4401 13.0498C27.8401 13.0498 27.8401 12.5098 27.2501 12.5098C26.6501 12.5098 26.6501 13.0498 26.0601 13.0498C25.4601 13.0498 25.4601 12.5098 24.8701 12.5098V13.5098C25.4601 13.5098 25.4601 14.0498 26.0601 14.0498C26.6601 14.0498 26.6601 13.5098 27.2501 13.5098C27.8501 13.5098 27.8501 14.0498 28.4401 14.0498C29.0401 14.0498 29.0401 13.5098 29.6301 13.5098C30.2301 13.5098 30.2301 14.0498 30.8201 14.0498C31.4201 14.0498 31.4201 13.5098 32.0101 13.5098V12.5098C31.4101 12.5098 31.4101 13.0498 30.8201 13.0498C30.2201 13.0498 30.2201 12.5098 29.6301 12.5098Z" fill="#F5F5F5"/>
<path d="M31.7404 9.74906C31.8904 9.74906 32.0204 9.86906 32.0204 10.0291V13.5091C31.9858 14.2186 31.8615 14.9208 31.6504 15.5991C31.5004 16.0691 31.2904 16.5591 30.9904 17.0191C30.3989 17.9282 29.4897 18.5843 28.4404 18.8591C27.3787 18.6054 26.4593 17.9445 25.8804 17.0191C25.5804 16.5591 25.3704 16.0691 25.2204 15.5991C25.0133 14.9199 24.889 14.2181 24.8504 13.5091V10.0291C24.8504 9.87906 24.9704 9.74906 25.1304 9.74906H31.7404ZM31.7404 9.53906H25.1304C25.0674 9.53906 25.0049 9.55148 24.9467 9.5756C24.8885 9.59972 24.8356 9.63508 24.791 9.67965C24.7464 9.72422 24.7111 9.77714 24.6869 9.83537C24.6628 9.89361 24.6504 9.95603 24.6504 10.0191V13.5091C24.6709 14.2372 24.7989 14.9584 25.0304 15.6491C25.2004 16.1891 25.4404 16.6891 25.7204 17.1191C26.3288 18.0844 27.2906 18.7735 28.4004 19.0391L28.4504 19.0491L28.5004 19.0391C29.6118 18.7711 30.5739 18.0782 31.1804 17.1091C31.6815 16.3314 32.009 15.4548 32.1404 14.5391C32.2204 14.0891 32.2404 13.7291 32.2504 13.5091V10.0291C32.2204 9.75906 32.0104 9.53906 31.7404 9.53906Z" fill="#F5F5F5"/>
<path d="M28.44 17.1809L27.68 17.7009L27.95 16.8209L27.21 16.2709L28.13 16.2509L28.44 15.3809L28.74 16.2509L29.66 16.2709L28.93 16.8209L29.19 17.7009L28.44 17.1809Z" fill="#73AF00"/>
<path d="M28.4398 15.5509L28.6998 16.3109L29.4998 16.3309L28.8598 16.8109L29.0898 17.5809L28.4298 17.1209L27.7698 17.5809L27.9998 16.8109L27.3598 16.3309L28.1598 16.3109L28.4398 15.5509ZM28.4398 15.2109L28.3298 15.5109L28.0898 16.1909L27.3698 16.2009L27.0498 16.2109L27.3098 16.4009L27.8798 16.8409L27.6698 17.5309L27.5798 17.8409L27.8398 17.6609L28.4298 17.2509L29.0198 17.6609L29.2798 17.8409L29.1898 17.5309L28.9798 16.8409L29.5498 16.4009L29.8098 16.2109L29.4898 16.2009L28.7698 16.1909L28.5298 15.5109L28.4398 15.2109Z" fill="#FFE15A"/>
<path d="M26.7798 15.0305L26.0198 15.5605L26.2898 14.6705L25.5498 14.1205L26.4698 14.1005L26.7798 13.2305L27.0798 14.1005L27.9998 14.1205L27.2698 14.6705L27.5298 15.5605L26.7798 15.0305Z" fill="#73AF00"/>
<path d="M26.7796 13.4005L27.0396 14.1605L27.8396 14.1805L27.1996 14.6605L27.4296 15.4305L26.7696 14.9705L26.1096 15.4305L26.3396 14.6605L25.6996 14.1805L26.4996 14.1605L26.7796 13.4005ZM26.7796 13.0605L26.6696 13.3605L26.4296 14.0405L25.7096 14.0505L25.3896 14.0605L25.6496 14.2505L26.2196 14.6905L26.0096 15.3805L25.9196 15.6905L26.1796 15.5105L26.7696 15.1005L27.3596 15.5105L27.6196 15.6905L27.5296 15.3805L27.3196 14.6905L27.8896 14.2505L28.1496 14.0605L27.8296 14.0505L27.1096 14.0405L26.8696 13.3605L26.7796 13.0605Z" fill="#FFE15A"/>
<path d="M30.0804 15.0305L29.3304 15.5605L29.5904 14.6705L28.8604 14.1205L29.7804 14.1005L30.0804 13.2305L30.3804 14.1005L31.3004 14.1205L30.5704 14.6705L30.8404 15.5605L30.0804 15.0305Z" fill="#8CCC00"/>
<path d="M30.08 13.4005L30.34 14.1605L31.14 14.1805L30.5 14.6605L30.73 15.4305L30.07 14.9705L29.41 15.4305L29.64 14.6605L29 14.1805L29.8 14.1605L30.08 13.4005ZM30.08 13.0605L29.97 13.3605L29.73 14.0405L29.01 14.0505L28.69 14.0605L28.95 14.2505L29.52 14.6905L29.31 15.3805L29.22 15.6905L29.48 15.5105L30.07 15.1005L30.66 15.5105L30.92 15.6905L30.83 15.3805L30.62 14.6905L31.19 14.2505L31.45 14.0605L31.13 14.0505L30.41 14.0405L30.17 13.3605L30.08 13.0605ZM32.79 16.1405C32.4437 17.0143 31.8429 17.7638 31.0655 18.2919C30.2881 18.82 29.3699 19.1024 28.43 19.1024C27.4902 19.1024 26.572 18.82 25.7946 18.2919C25.0172 17.7638 24.4163 17.0143 24.07 16.1405L23.04 16.5405C23.4684 17.6175 24.2102 18.5412 25.1694 19.1919C26.1286 19.8426 27.261 20.1905 28.42 20.1905C29.5791 20.1905 30.7115 19.8426 31.6707 19.1919C32.6298 18.5412 33.3716 17.6175 33.8 16.5405L32.79 16.1405Z" fill="#FCD329"/>
<path d="M28.9896 9.74992H28.1596L27.8896 8.91992H28.7096L28.9896 9.74992ZM30.3596 9.74992H29.8096L29.6296 9.19992H29.8796C29.9661 9.1981 30.0509 9.22442 30.1212 9.2749C30.1916 9.32539 30.2436 9.39733 30.2696 9.47992L30.3596 9.74992ZM27.3296 9.74992H26.7796L26.7196 9.55992C26.705 9.51876 26.7006 9.47468 26.7068 9.43146C26.7131 9.38825 26.7297 9.34718 26.7552 9.31178C26.7808 9.27639 26.8145 9.24772 26.8536 9.22824C26.8927 9.20876 26.9359 9.19904 26.9796 9.19992H27.1496L27.3296 9.74992Z" fill="#F5F5F5"/>
<path d="M29.8104 9.74992H28.9804L28.7004 8.91992H29.3304C29.4504 8.91992 29.5504 8.99992 29.5904 9.10992L29.8104 9.74992ZM28.1604 9.74992H27.3304L27.1404 9.18992C27.1004 9.05992 27.1904 8.91992 27.3304 8.91992H27.8704L28.1604 9.74992Z" fill="#41479B"/>
<path d="M30.4596 7.83953C30.2396 8.14953 29.6396 8.51953 28.6596 8.51953C27.8496 8.51953 27.3296 8.02953 27.1596 7.83953C27.1207 7.79141 27.0995 7.7314 27.0996 7.66953V7.47953C27.0996 7.39953 27.1396 7.32953 27.2096 7.27953C27.3796 7.17953 27.7896 7.01953 28.5896 7.01953C29.5696 7.01953 30.4596 7.83953 30.4596 7.83953Z" fill="#509664"/>
</g>
</g>
<defs>
<clipPath id="clip0_26003_75585">
<rect width="38" height="25" fill="white" transform="translate(0 0.5)"/>
</clipPath>
<clipPath id="clip1_26003_75585">
<rect width="38" height="25" fill="white" transform="translate(0 0.5)"/>
</clipPath>
</defs>
</svg>
