<svg width="38" height="26" viewBox="0 0 38 26" fill="none" xmlns="http://www.w3.org/2000/svg">
<g clip-path="url(#clip0_26001_4769)">
<g clip-path="url(#clip1_26001_4769)">
<path d="M26.2171 0.14328C26.1613 0.175379 26.1122 0.217802 26.0723 0.26828L25.9934 0.353806C25.9868 0.353806 25.9736 0.320911 25.9671 0.281438C25.9539 0.195911 25.9342 0.176175 25.8486 0.156438C25.7565 0.136701 25.7236 0.182754 25.7236 0.320911C25.7236 0.419596 25.7171 0.432754 25.6842 0.432754C25.6437 0.438719 25.6053 0.454532 25.5723 0.478806C25.5328 0.505122 25.4999 0.51828 25.4999 0.511701C25.4934 0.505122 25.4999 0.472227 25.5065 0.432754C25.5328 0.334069 25.5328 0.301175 25.4934 0.261701C25.4407 0.20249 25.3684 0.222227 25.2368 0.320911C25.1381 0.39328 25.0921 0.419596 24.9999 0.432754C24.9335 0.441542 24.8689 0.461564 24.8092 0.491964C24.7039 0.544596 24.5592 0.722227 24.5197 0.840648C24.4605 1.0117 24.3947 1.06433 24.2697 1.03144C24.2039 1.0117 24.1907 1.01828 24.0592 1.11039C23.8749 1.24196 23.8157 1.30775 23.7894 1.41302C23.7656 1.48835 23.7198 1.55481 23.6578 1.60381C23.5526 1.70249 23.4342 1.84065 23.2105 2.13012C23.1513 2.20249 23.046 2.30775 22.9802 2.36696C22.8947 2.43275 22.8421 2.49854 22.8223 2.5446C22.8026 2.59065 22.6907 2.73538 22.5723 2.86696C22.4539 2.99854 22.3421 3.14328 22.3157 3.19591C22.2763 3.28802 22.2697 3.3867 22.296 3.43933C22.3092 3.45907 22.2894 3.48538 22.2039 3.53144C22.0526 3.61696 21.9999 3.70249 22.0131 3.84723C22.0197 3.90644 22.0394 3.97881 22.0526 4.00512C22.0855 4.05775 22.0789 4.07091 21.9473 4.15644C21.8355 4.22881 21.7828 4.2946 21.796 4.36038C21.8026 4.4196 21.796 4.42617 21.6118 4.5446C21.2697 4.7617 21.0855 4.95249 21.0592 5.11696C21.0394 5.2617 21.0657 5.26828 21.2368 5.13012C21.5065 4.91302 21.6184 4.87354 21.6315 4.99196C21.6381 5.03802 21.6184 5.06433 21.5394 5.14328C21.3684 5.30775 21.2697 5.34065 21.0855 5.30117C20.9868 5.28144 20.9605 5.28144 20.8421 5.32091C20.4199 5.4924 20.0219 5.71797 19.6578 5.99196C19.3618 6.18933 19.3223 6.22881 19.3355 6.2617C19.3618 6.34723 19.3684 6.45907 19.3552 6.5117C19.3322 6.56793 19.2987 6.61927 19.2565 6.66302C19.1958 6.72525 19.1586 6.80664 19.1513 6.89328L19.1052 7.16302C19.0723 7.34723 19.0789 7.36696 19.2105 7.36696C19.3421 7.36696 19.4013 7.3867 19.4013 7.42617C19.4013 7.44591 19.3157 7.5446 19.2105 7.64986C19.0394 7.82091 19.0263 7.84065 19.046 7.87354C19.0592 7.89328 19.0921 7.9196 19.1249 7.93933C19.1776 7.96565 19.2039 7.95907 19.3486 7.89986C19.3815 7.88012 19.3881 7.8867 19.3749 7.96565C19.3618 8.0446 19.3355 8.08407 19.1907 8.20249C19.1315 8.25512 19.1184 8.2946 19.1249 8.46565C19.1315 8.57091 19.2039 8.64986 19.3552 8.70249L19.5526 8.78802C19.7236 8.89328 20.0789 8.71565 20.6513 8.24854C20.8486 8.08407 20.8684 8.06433 20.9342 7.91302L21.0197 7.75512L21.0657 7.84723C21.0921 7.91302 21.1052 7.98538 21.1052 8.09065C21.1052 8.28144 21.1513 8.55775 21.2039 8.71565C21.2236 8.78144 21.2828 8.89328 21.3289 8.96565C21.4013 9.07749 21.4144 9.11038 21.3947 9.14986C21.3618 9.24196 21.3749 9.28144 21.4539 9.33407C21.4999 9.36696 21.5328 9.40644 21.5328 9.43275C21.5328 9.49854 21.6184 9.6367 21.7105 9.72223C21.796 9.80117 21.796 9.80117 21.8092 9.95907C21.8355 10.2814 21.8618 10.5512 21.8749 10.5643C21.8815 10.5709 21.9605 10.5643 22.0526 10.5446C22.2434 10.5051 22.2302 10.5249 22.2631 10.242C22.2763 10.1499 22.296 10.0512 22.3092 10.0249C22.3355 9.97881 22.3421 9.97223 22.4868 9.97223C22.5734 9.97861 22.6601 9.96037 22.7368 9.9196C22.9868 9.78144 23.2697 9.33407 23.2697 9.07749L23.2368 8.73538C23.1842 8.33407 23.1973 8.30775 23.5657 8.09723C23.7828 7.97223 23.8749 7.89986 23.8881 7.84723L23.9802 7.62354C24.0855 7.3867 24.0855 7.36696 23.9802 7.34065C23.8355 7.30117 23.8355 7.30117 23.9144 7.22223C23.9446 7.19171 23.9691 7.15607 23.9868 7.11696C23.9868 7.07749 23.921 7.05117 23.7236 7.01828C23.4473 6.97223 23.4539 6.97223 23.4276 6.9196C23.3947 6.84723 23.4013 6.72223 23.4342 6.53144L23.4605 6.27486C23.4605 6.18933 23.4802 6.14986 23.6776 5.84723C23.9688 5.37566 24.2897 4.92301 24.6381 4.49196C24.6973 4.42617 24.7302 4.40644 24.7631 4.4196C24.8157 4.43275 24.8157 4.43275 24.7499 4.19591C24.7247 4.12069 24.7049 4.04373 24.6907 3.96565C24.6907 3.9196 24.7236 3.89986 24.9144 3.84723C25.1315 3.78144 25.1249 3.78802 25.0723 3.69591C24.9934 3.57749 25.0065 3.55117 25.1644 3.43275L25.3092 3.32749L25.4802 3.41302L25.7368 3.53802C25.8157 3.57749 25.9342 3.68275 25.9342 3.72223C25.9342 3.73538 25.9078 3.74196 25.8749 3.75512C25.796 3.77486 25.6776 3.89328 25.6052 4.02486C25.546 4.14328 25.4539 4.40644 25.4342 4.53144C25.4276 4.59723 25.4144 4.61696 25.3749 4.62354C25.3026 4.63012 25.2763 4.68933 25.3223 4.74196C25.3552 4.78144 25.3552 4.78144 25.296 4.81433C25.2257 4.87086 25.1617 4.93483 25.1052 5.00512C25.0328 5.09065 24.9342 5.18275 24.8947 5.21565C24.8223 5.2617 24.8092 5.27486 24.8092 5.32749C24.8029 5.38446 24.7873 5.44001 24.7631 5.49196C24.7171 5.59065 24.7171 5.59723 24.7434 5.77486L24.796 6.14328C24.8223 6.36038 24.8618 6.61039 24.8881 6.70249C24.9342 6.86696 24.9605 6.89328 25.2236 7.03144C25.3684 7.10381 25.4934 7.17617 25.5065 7.18933C25.5263 7.20249 25.5855 7.20907 25.6644 7.20249C25.8552 7.18933 25.9934 7.11696 26.3947 6.80775C26.7763 6.51828 26.9407 6.4196 27.0986 6.39986C27.2236 6.38012 27.3026 6.32091 27.5855 6.0117C27.796 5.78802 27.9144 5.61038 28.0394 5.34723C28.1381 5.13012 28.1578 4.99196 28.0986 4.86038C28.0597 4.77754 28.0039 4.70374 27.9348 4.6437C27.8657 4.58366 27.7848 4.5387 27.6973 4.5117L27.6184 4.49196L27.6447 4.4196C27.6644 4.36696 27.671 4.31433 27.6644 4.26828C27.6578 4.20249 27.6578 4.17617 27.7105 4.09723L27.7697 4.00512L27.5986 3.99196L27.4013 3.97223C27.3881 3.96565 27.3684 3.9196 27.3618 3.86696C27.3486 3.77486 27.3421 3.76828 27.2763 3.73539C27.2322 3.71397 27.1939 3.68241 27.1644 3.64328L27.1249 3.58407L27.2105 3.31433L27.3026 3.0446L27.0921 2.80117C26.9736 2.6696 26.8618 2.53144 26.8486 2.50512C26.8092 2.43933 26.8092 2.37354 26.8486 2.18933L26.8815 2.0446L26.7434 1.90644C26.6447 1.80775 26.5855 1.7617 26.5197 1.74196L26.4276 1.71565L26.3684 1.44591L26.3026 1.14986C26.3026 1.1367 26.3421 1.11696 26.3947 1.10381C26.4736 1.08407 26.5197 1.05117 26.6249 0.939332L26.7565 0.801175L26.7171 0.761701C26.673 0.737075 26.6227 0.725656 26.5723 0.728806C26.5249 0.730531 26.4776 0.721536 26.4342 0.70249C26.4013 0.676175 26.4013 0.669596 26.4473 0.649859C26.5197 0.623543 26.546 0.57749 26.5394 0.511701C26.5328 0.459069 26.5394 0.45249 26.6315 0.426175C26.796 0.380122 26.7894 0.380122 26.7434 0.32749C26.6776 0.248543 26.4802 0.149859 26.3749 0.136701C26.3223 0.103806 26.2763 0.116964 26.2171 0.14328ZM12.5592 1.74854C12.5516 1.77199 12.5472 1.79632 12.546 1.82091C12.546 1.87354 12.5328 1.87354 12.4736 1.81433L12.4276 1.76828L12.296 1.83407C12.1184 1.92617 11.9473 2.03802 11.9276 2.07091C11.9013 2.15644 11.9802 2.22881 12.1578 2.28802C12.2697 2.32749 12.2763 2.34065 12.1973 2.39986C12.1381 2.44591 12.1184 2.45249 12.0526 2.43933C11.9276 2.4196 11.7499 2.4196 11.7039 2.45249C11.6513 2.47881 11.6249 2.55117 11.6381 2.62354C11.6447 2.67617 11.6513 2.67617 11.7565 2.67617C11.9078 2.67617 11.9934 2.72881 11.9934 2.83407C11.9934 2.89328 11.9802 2.92617 11.9276 2.97881C11.8618 3.05117 11.8552 3.05117 11.7565 3.03802C11.6315 3.02486 11.6184 3.03802 11.6052 3.1696L11.5986 3.26828L11.7039 3.28144C11.8684 3.30117 11.9868 3.38012 12.1513 3.58407C12.3157 3.78144 12.4407 3.87354 12.5526 3.89328C12.5986 3.89986 12.7171 3.88012 12.8421 3.84723C13.1052 3.78144 13.296 3.7617 13.3749 3.7946C13.4276 3.81433 13.4473 3.81433 13.5197 3.77486C13.5657 3.75512 13.7368 3.68933 13.9013 3.64328C14.2434 3.53802 14.3684 3.48538 14.4671 3.39328C14.6118 3.2617 14.6381 3.06433 14.5526 2.87354C14.4934 2.74854 14.4934 2.68275 14.546 2.64986C14.5986 2.61696 14.5986 2.52486 14.546 2.45907C14.5065 2.40644 14.5065 2.40644 14.4539 2.43933L14.3947 2.47223L14.3815 2.39328C14.3684 2.30775 14.3092 2.22881 14.2434 2.21565C14.1644 2.19591 14.1381 2.22223 14.1184 2.32091C14.0921 2.42617 14.0789 2.43275 14.0526 2.36696C14.0197 2.28802 13.9736 2.27486 13.8947 2.32091L13.8092 2.36696C13.8026 2.37354 13.796 2.36039 13.796 2.34065C13.796 2.27486 13.6842 2.22223 13.5263 2.22881C13.3421 2.22881 13.2894 2.24854 13.2631 2.30775C13.2368 2.37354 13.2105 2.36696 13.2368 2.30117C13.2631 2.23539 13.2631 2.15644 13.2368 2.1367C13.1954 2.12958 13.1532 2.12958 13.1118 2.1367C13.0131 2.14986 13.0065 2.15644 12.9539 2.26828C12.9013 2.38012 12.8881 2.3867 12.8223 2.39328L12.7499 2.39986L12.8092 2.27486C12.9013 2.08407 12.8815 1.8867 12.7565 1.77486C12.671 1.70907 12.5789 1.69591 12.5592 1.74854Z" fill="#36A83A"/>
<path d="M26.8491 7.16151C26.678 7.18125 26.3885 7.26019 26.2241 7.32598C26.1326 7.36959 26.0446 7.42018 25.9609 7.4773C25.7701 7.61546 25.7635 7.66151 25.882 7.78651C25.9609 7.87203 25.9675 7.87203 25.9609 7.99046C25.9543 8.18782 26.007 8.22072 26.1912 8.12203C26.257 8.08914 26.257 8.08914 26.2899 8.13519C26.3228 8.18124 26.3228 8.18782 26.2964 8.24046C26.2635 8.31282 26.257 8.51677 26.2899 8.71414C26.3162 8.87861 26.2964 8.95756 26.2109 8.99703C26.0925 9.04967 25.9675 8.98388 25.8293 8.78651L25.7372 8.66151H25.6056C25.5436 8.66422 25.4815 8.65756 25.4214 8.64177C25.382 8.62203 25.3622 8.62861 25.303 8.70756C25.1368 8.95606 25.0164 9.23236 24.9478 9.52335L24.9938 9.67467C25.0135 9.7273 25.0464 9.86546 25.0662 9.98388C25.0925 10.1747 25.1056 10.2076 25.1583 10.2602C25.2175 10.3194 25.2175 10.3194 25.3951 10.3062C25.5991 10.2865 25.5991 10.2865 25.5991 10.451C25.5991 10.5102 25.5793 10.5826 25.553 10.6484C25.5135 10.7405 25.507 10.7668 25.5135 10.8852L25.5267 11.0168L25.4478 11.0365C25.3688 11.0562 25.3688 11.0562 25.3359 10.9839L25.303 10.9115L25.132 10.9247C24.8688 10.9444 24.6451 10.9773 24.4741 11.0234C24.2899 11.0694 24.2767 11.0628 24.0793 10.8918C24.0004 10.826 23.9412 10.7865 23.9083 10.7865C23.8228 10.7865 23.507 10.9115 23.3096 11.0234L22.8885 11.2602C22.7635 11.3326 22.6254 11.4049 22.5728 11.4247C22.5201 11.4444 22.428 11.5036 22.3622 11.5694C22.257 11.6681 22.2504 11.6747 22.2504 11.6286C22.2504 11.5497 22.2043 11.497 22.0925 11.4444L21.9806 11.3918C21.9741 11.3852 21.9938 11.3655 22.0201 11.3326C22.0464 11.2997 22.0728 11.2602 22.0728 11.2339C22.0728 11.1549 21.9741 10.9641 21.9083 10.9247C21.8293 10.872 21.8162 10.8786 21.7438 10.9444C21.6714 11.0102 21.6649 11.0826 21.7306 11.1155C21.7964 11.1483 21.7899 11.1681 21.7175 11.2273C21.5728 11.3457 21.3359 11.4049 21.2043 11.3589C21.1649 11.3457 21.1517 11.3523 21.0991 11.4444C21.0399 11.5431 21.0399 11.5431 20.9675 11.5299C20.9397 11.5205 20.9111 11.5139 20.882 11.5102C20.8754 11.5102 20.8688 11.4773 20.8688 11.4378C20.8688 11.3655 20.8688 11.3655 20.7372 11.326L20.507 11.2602C20.4478 11.247 20.4017 11.2273 20.4017 11.2207C20.4081 11.1979 20.4169 11.1758 20.428 11.1549C20.4451 11.1131 20.454 11.0685 20.4543 11.0234C20.4543 10.9444 20.4478 10.9444 20.3359 10.8852L20.1912 10.826C20.178 10.826 20.2175 10.7602 20.2899 10.6812C20.4149 10.5299 20.5728 10.2734 20.632 10.1155C20.6583 10.0299 20.678 10.0168 20.8228 9.93782C21.0333 9.82598 21.0201 9.77993 20.7504 9.7273C20.6912 9.71414 20.6385 9.70098 20.6254 9.68782C20.6122 9.67467 20.632 9.59572 20.6714 9.49703C20.7307 9.33914 20.7701 9.0694 20.7438 9.0694C20.6978 9.0694 20.5333 9.18782 20.5004 9.23388C20.4741 9.28651 20.4609 9.29309 20.3688 9.29309L20.1451 9.30624L20.0201 9.3194L19.9214 9.46414L19.8162 9.63519C19.803 9.68782 19.8688 9.6944 19.9346 9.64835C19.9814 9.61984 20.0335 9.60107 20.0878 9.59316C20.1421 9.58525 20.1974 9.58835 20.2504 9.6023C20.2964 9.61546 20.3359 9.63519 20.3359 9.64177C20.3359 9.66809 20.1583 9.74703 20.0662 9.76019C19.9954 9.76588 19.9241 9.7592 19.8556 9.74046C19.7899 9.72072 19.7306 9.71414 19.7241 9.72072C19.712 9.86292 19.7076 10.0057 19.7109 10.1484C19.7109 10.5497 19.7109 10.5694 19.7504 10.6418C19.7899 10.7076 19.7899 10.747 19.7899 10.9049C19.7899 11.1089 19.8293 11.2536 19.9149 11.3918C19.9543 11.4576 19.9543 11.4707 19.9346 11.5299C19.9017 11.6089 19.8228 11.6549 19.7833 11.6155C19.7438 11.576 19.7109 11.6023 19.7109 11.6812C19.7109 11.7207 19.7043 11.7799 19.6912 11.8128C19.6714 11.8655 19.6649 11.8786 19.5991 11.8786C19.5333 11.8786 19.5135 11.8655 19.428 11.7602L19.3293 11.6418L19.2175 11.7339L19.0859 11.8589C19.0728 11.8852 19.053 11.8852 18.9938 11.8786C18.8425 11.8391 18.4872 11.9115 18.3622 12.0102C18.303 12.0562 18.303 12.0497 18.3425 12.3062C18.3491 12.372 18.3425 12.3984 18.3096 12.4444C18.2701 12.497 18.257 12.5036 18.1649 12.497L18.0662 12.4905L18.0464 12.3062L18.0267 12.122L17.9609 12.2339L17.7964 12.5234C17.6714 12.7405 17.6122 12.8128 17.4214 12.9444C17.257 13.0628 17.1583 13.1484 17.1583 13.1812C16.9675 13.2491 16.7826 13.3328 16.6056 13.4312C16.5974 13.4382 16.5869 13.442 16.576 13.442C16.5652 13.442 16.5547 13.4382 16.5464 13.4312C16.507 13.4049 16.1912 13.4312 16.1122 13.4641C16.053 13.4905 16.0267 13.5431 15.9412 13.7734C15.8491 14.0234 15.7701 14.1089 15.5596 14.1747C15.4938 14.1944 15.4675 14.1944 15.4149 14.1747C15.3359 14.1418 15.2899 14.1615 15.1846 14.3194C15.0859 14.4576 15.0399 14.4707 14.9149 14.4049C14.8228 14.3523 14.7899 14.2931 14.7833 14.1681L14.7767 14.0628L14.678 14.0891C14.5859 14.1155 14.5793 14.1155 14.507 14.076C14.4214 14.0233 14.3885 14.0299 14.3162 14.1286C14.2836 14.1817 14.2653 14.2423 14.263 14.3045C14.2607 14.3668 14.2745 14.4285 14.303 14.4839C14.3359 14.5431 14.3359 14.5694 14.3228 14.6549C14.3118 14.7084 14.2917 14.7595 14.2635 14.8062C14.2241 14.8457 14.2109 14.8523 14.0333 14.8391L13.8162 14.8194C13.7842 14.7915 13.7574 14.7581 13.7372 14.7207L13.6846 14.6286L13.2241 14.6418L12.7635 14.6549L12.7109 14.7207C12.6889 14.7487 12.6712 14.7797 12.6583 14.8128C12.6583 14.826 12.6978 14.8589 12.7372 14.8852L12.8228 14.9312L12.7372 14.9707L12.6057 15.0234C12.5793 15.0299 12.5596 15.0431 12.5596 15.0562C12.5596 15.1023 12.6188 15.1944 12.6912 15.2668C12.7701 15.3391 12.7701 15.3457 12.8885 15.3326C12.9872 15.3194 13.0135 15.326 13.1057 15.3786C13.2307 15.451 13.3359 15.5891 13.428 15.7931C13.4807 15.9115 13.507 15.951 13.5662 15.9773L13.6451 16.0234C13.6517 16.0299 13.632 16.0694 13.5991 16.1155L13.5464 16.2076L13.6057 16.3457C13.6517 16.4444 13.6714 16.5299 13.6978 16.7207C13.7109 16.8589 13.7372 17.0233 13.757 17.0891C13.7833 17.2076 13.7833 17.2076 13.7307 17.2865C13.6649 17.3852 13.5201 17.7207 13.4083 18.0036C13.3293 18.2141 13.3162 18.2405 13.1649 18.3983C13.0399 18.5365 12.7701 18.7668 12.678 18.826C12.6237 18.826 12.5699 18.8148 12.5201 18.7931L12.1057 18.6747C11.7886 18.6187 11.4809 18.519 11.1912 18.3786C10.928 18.2405 10.7635 18.1878 10.6714 18.2076C10.6261 18.21 10.5808 18.201 10.5399 18.1812C10.4588 18.15 10.3751 18.1258 10.2899 18.1089C10.1478 18.0935 10.0143 18.0336 9.90828 17.9378C9.84249 17.8918 9.79644 17.8655 9.74381 17.8655C9.64512 17.8655 9.61881 17.8786 9.55302 17.9773L9.49381 18.0628L9.31618 18.076C9.05302 18.0957 8.96749 18.1549 8.90828 18.3457C8.88197 18.4181 8.88855 18.4312 8.9346 18.5168C8.95799 18.5581 8.9757 18.6023 8.98723 18.6484C8.96751 18.7028 8.93607 18.7522 8.89512 18.7931C8.84249 18.8589 8.79644 18.9247 8.78986 18.951C8.7767 18.9905 8.70433 19.0562 8.37539 19.3062C8.29644 19.3655 8.23065 19.4247 8.23065 19.4312L8.27012 19.5234C8.32933 19.622 8.3096 19.6812 8.17802 19.7865C8.00039 19.9312 7.95433 19.9905 7.94776 20.0957C7.94118 20.1878 7.92144 20.2076 7.42802 20.7405C7.14512 21.0431 6.91486 21.2997 6.91486 21.3128L6.94776 21.4576C6.98065 21.6023 7.03328 21.7076 7.10565 21.7997C7.15828 21.8655 7.15828 21.8655 7.12539 21.9378C7.10565 21.9773 7.04644 22.0431 6.98723 22.0957C6.87539 22.1878 6.85565 22.2339 6.90828 22.3194C6.96749 22.4115 6.92802 22.497 6.74381 22.701C6.64512 22.8128 6.57933 22.8918 6.59249 22.9049L7.08591 23.0102L7.5596 23.0957L7.65828 23.1944C7.71091 23.247 7.82933 23.3457 7.92144 23.4115C8.21091 23.6286 8.34249 23.7997 8.38197 24.0299C8.40828 24.201 8.55302 24.2207 9.0596 24.122C9.40114 24.0351 9.75591 24.0128 10.1057 24.0562C10.2833 24.0826 10.3491 24.0957 10.382 24.1286C10.4346 24.1812 10.4741 24.1812 10.5399 24.122C10.5793 24.0891 10.6254 24.0694 10.7307 24.0628C10.8359 24.0562 10.9412 24.0233 11.178 23.9247C11.4063 23.8263 11.6416 23.7449 11.882 23.6812C11.9412 23.6484 11.9412 23.6484 11.9346 23.5628L11.9214 23.4773L12.053 23.3852C12.1254 23.3326 12.2964 23.2339 12.428 23.1615C12.632 23.0431 12.6714 23.0168 12.6978 22.9576C12.7504 22.826 12.7504 22.7076 12.7043 22.5365C12.6385 22.3062 12.6451 22.1681 12.7241 22.0299C12.8096 21.8852 13.007 21.6812 13.303 21.4444C13.4346 21.3391 13.5925 21.201 13.6583 21.1352C13.8162 20.9839 13.8688 20.951 14.053 20.9312C14.1846 20.9115 14.2504 20.8852 14.5399 20.7405L14.8754 20.5694H15.0728C15.178 20.5694 15.2767 20.5628 15.2899 20.5497C15.303 20.5431 15.3293 20.4905 15.3425 20.4378C15.3688 20.3457 15.3754 20.3391 15.4412 20.326C15.5333 20.3062 15.5662 20.2602 15.5662 20.1615C15.5662 20.1089 15.5596 20.0826 15.5333 20.076C15.4938 20.0628 15.4741 19.9839 15.4741 19.8128C15.4741 19.576 15.5925 19.3589 15.7701 19.2602L15.8557 19.2141L16.0793 19.3194C16.428 19.4839 16.428 19.4839 16.5596 19.451L16.6978 19.4247C16.7109 19.4247 16.7701 19.4707 16.8293 19.5299C16.8885 19.5891 16.9675 19.6483 17.007 19.6615C17.0925 19.701 17.4083 19.701 17.4741 19.6615C17.5004 19.6418 17.6517 19.4905 17.8096 19.3194C18.0596 19.0431 18.0925 19.0036 18.1451 19.0168C18.2109 19.0299 18.3556 18.9641 18.5925 18.8194L18.8556 18.6615L18.9346 18.6155L19.0399 18.6681L19.2372 18.747C19.3293 18.7733 19.3359 18.7799 19.4872 19.0168C19.6649 19.2931 19.6912 19.372 19.7109 19.6089C19.7306 19.8852 19.803 19.9839 20.3359 20.3589C20.5728 20.5299 20.6714 20.6155 20.8228 20.7799C21.0596 21.0497 21.1385 21.0957 21.3096 21.0891C21.4214 21.0891 21.4543 21.0957 21.5267 21.1483C21.5991 21.1944 21.6254 21.2339 21.6846 21.3655C21.7504 21.5102 21.7635 21.5299 21.8556 21.5694C21.9149 21.5957 22.0267 21.6286 22.1122 21.6484L22.2701 21.6747L22.2767 21.747C22.2833 21.8457 22.3425 22.0628 22.3688 22.0628L22.5004 22.0891C22.5793 22.1089 22.632 22.1352 22.6978 22.201C22.8425 22.3326 22.9083 22.4905 23.0333 22.9378C23.0925 23.1549 23.0925 23.1484 22.9478 23.2207C22.8885 23.247 22.8754 23.2668 22.8556 23.372C22.8425 23.4378 22.8096 23.5497 22.7767 23.622C22.7306 23.7536 22.7306 23.7536 22.7635 23.7799C22.8425 23.8391 22.9609 23.8062 23.0596 23.6878C23.1056 23.6352 23.1978 23.4049 23.2504 23.2076C23.2833 23.076 23.3425 23.0168 23.4806 22.9378C23.6254 22.8589 23.632 22.8457 23.6188 22.6878C23.5991 22.4641 23.5925 22.451 23.5399 22.451C23.507 22.451 23.3491 22.3589 23.2306 22.2602C23.1912 22.2339 23.3688 21.8326 23.4806 21.6878L23.5399 21.622L23.6649 21.6549L23.9083 21.7536C24.0201 21.8128 24.2438 22.0233 24.2899 22.1089C24.3096 22.1483 24.3096 22.1483 24.3425 22.1089C24.3885 22.0431 24.4017 21.9049 24.3622 21.8128C24.2964 21.6352 24.178 21.5562 23.5333 21.2405C23.2942 21.1356 23.0671 21.0055 22.8556 20.8523C22.8556 20.8391 22.8951 20.7799 22.9412 20.7141L23.0267 20.5891C23.0267 20.5562 22.8556 20.5299 22.6451 20.5299C22.4609 20.5299 22.3885 20.5233 22.2964 20.4905C21.9412 20.3589 21.7175 20.0694 21.6583 19.6484C21.6122 19.3589 21.5662 19.2799 21.2504 19.0234C21.1623 18.9543 21.0788 18.8795 21.0004 18.7997C20.9455 18.7418 20.9097 18.6685 20.8979 18.5897C20.8862 18.5108 20.899 18.4302 20.9346 18.3589C20.9741 18.2602 20.9741 18.247 20.9412 18.1681C20.9017 18.0562 20.9017 17.872 20.9478 17.8326C21.0399 17.7627 21.1366 17.6989 21.2372 17.6418L21.4938 17.4839L21.5793 17.5233C21.6254 17.5431 21.6912 17.5694 21.7175 17.5694C21.7438 17.5694 21.7701 17.5826 21.7701 17.5891L21.7043 17.7207L21.6451 17.8457L21.6978 17.9576L21.7701 18.1615C21.7833 18.2207 21.7964 18.247 21.8162 18.2405C21.8838 18.1751 21.9336 18.0936 21.9609 18.0036C21.9609 17.9839 21.9872 17.9312 22.0201 17.8984L22.0793 17.8326L22.132 17.9049C22.1846 17.9773 22.2306 18.0233 22.3359 18.122C22.3951 18.1747 22.3951 18.1747 22.3951 18.3589C22.3951 18.4576 22.4017 18.5562 22.4149 18.576C22.428 18.5957 22.4741 18.6418 22.5267 18.6812C22.5859 18.7273 22.6188 18.7734 22.632 18.8194C22.6451 18.8984 22.7372 18.9773 22.882 19.0431C22.9806 19.0891 22.9938 19.1023 23.0135 19.1747L23.0399 19.2536H23.1517C23.3622 19.2536 23.5267 19.3391 23.7767 19.5694C23.882 19.6681 23.9346 19.7076 24.007 19.7273C24.1583 19.7602 24.4543 19.9444 24.5925 20.0826C24.6649 20.1549 24.6714 20.1549 24.8162 20.1155C24.8622 20.1023 24.8688 20.1089 24.8688 20.1549C24.8688 20.1944 24.882 20.2076 24.9149 20.2207C24.9609 20.2339 24.9609 20.2405 24.9543 20.3918C24.9478 20.5431 24.9478 20.5628 25.0333 20.7997L25.1254 21.0431L25.0596 21.1812L24.9938 21.3194L25.0267 21.4247C25.0728 21.5694 25.178 21.7141 25.3359 21.8523C25.5399 22.0299 25.5859 22.0891 25.5991 22.201C25.6056 22.2734 25.6254 22.3128 25.6714 22.3523C25.7701 22.4378 25.882 22.4905 26.053 22.5299L26.2175 22.5628L26.1649 22.6023C26.1301 22.6301 26.1029 22.6664 26.0859 22.7076C26.0596 22.7668 26.0596 22.7865 26.0859 22.8391C26.1188 22.9115 26.2175 22.9905 26.3096 23.0234C26.4017 23.0562 26.6846 23.0497 26.9609 23.0168C27.2701 22.9773 27.3951 22.9773 27.3951 23.0168C27.3951 23.0826 27.3359 23.1681 27.2767 23.1878C27.1912 23.2207 27.1122 23.2141 26.8885 23.1681C26.632 23.1155 26.4346 23.1155 26.3491 23.1681C26.3 23.2049 26.2603 23.2525 26.2328 23.3073C26.2054 23.3622 26.1912 23.4226 26.1912 23.4839C26.1912 23.6286 26.2372 23.6812 26.4346 23.7405C26.5399 23.7733 26.6056 23.8062 26.6188 23.8326C26.632 23.8523 26.6451 23.9839 26.6451 24.122C26.6517 24.3391 26.6583 24.3786 26.6978 24.4181C26.7235 24.4463 26.7551 24.4685 26.7903 24.4833C26.8255 24.4981 26.8635 24.505 26.9017 24.5036C26.9675 24.497 27.0464 24.3852 27.0464 24.2997C27.0464 24.2668 27.053 24.2405 27.0596 24.2405L27.2043 24.4378C27.2767 24.5431 27.3425 24.6352 27.3556 24.6352C27.3885 24.6352 27.428 24.5431 27.4412 24.4378L27.4609 24.326C27.4675 24.3194 27.5333 24.3786 27.6057 24.451C27.6912 24.5365 27.757 24.5891 27.7833 24.5891C27.8228 24.5891 27.8228 24.5826 27.8162 24.4247C27.8096 24.2273 27.7635 24.1418 27.6188 24.0299C27.4412 23.8852 27.4478 23.9049 27.4609 23.7931L27.4741 23.6878L27.6517 23.7799C27.9083 23.9115 28.0464 23.9115 28.0464 23.7602C28.0464 23.6878 27.9872 23.6418 27.7964 23.5694L27.6517 23.5102V23.201L27.7043 23.2339C27.7372 23.2536 27.803 23.2733 27.8556 23.2865C27.9149 23.2997 27.9938 23.3457 28.0662 23.4115C28.2043 23.5299 28.2635 23.5497 28.3293 23.5102C28.4083 23.4576 28.4017 23.4181 28.2767 23.2799C28.2274 23.2329 28.1873 23.1771 28.1583 23.1155C28.1583 23.0497 28.007 22.9247 27.7701 22.7865C27.4807 22.622 27.3556 22.5102 27.2701 22.3062C27.2043 22.1484 27.178 22.0431 27.2043 22.0431C27.2109 22.0431 27.2899 22.0628 27.3688 22.0957C27.5399 22.1549 27.5728 22.1615 27.5991 22.1089C27.632 22.0497 27.5728 21.9839 27.3491 21.8391C27.2438 21.7733 27.1188 21.6747 27.0793 21.622C26.9872 21.5168 26.9872 21.4839 27.0201 21.2273C27.0464 21.0233 27.053 21.0102 27.1056 21.0102C27.1649 21.0102 27.2372 21.1089 27.382 21.3918C27.5399 21.701 27.6583 21.8062 27.7306 21.6944C27.7701 21.6352 27.7701 21.5233 27.7306 21.4905C27.6846 21.451 27.6188 21.3457 27.6385 21.3457C27.6517 21.3457 27.7175 21.3984 27.7833 21.4707C27.9149 21.6023 27.9543 21.6155 28.0201 21.5628C28.0596 21.5299 28.0728 21.5497 27.8425 21.2668C27.7372 21.1352 27.803 21.1352 28.007 21.2733C28.1517 21.3655 28.1846 21.3852 28.2043 21.3589C28.2438 21.2865 28.2109 21.2207 28.0793 21.0826C28.0201 21.0233 28.0004 21.0036 28.0399 21.0299C28.1254 21.0957 28.1583 21.0694 28.2175 20.8918C28.2438 20.8128 28.2833 20.7273 28.303 20.701C28.3491 20.6483 28.553 20.5694 28.632 20.5694C28.6649 20.5694 28.757 20.5497 28.8491 20.5234C28.9741 20.4905 29.0399 20.4839 29.1649 20.4905C29.257 20.497 29.3359 20.4905 29.3622 20.4773C29.3885 20.4641 29.4149 20.4576 29.4214 20.4641C29.4116 20.5283 29.3916 20.5905 29.3622 20.6483C29.2964 20.8128 29.2767 20.8984 29.3096 20.8984C29.468 20.8134 29.6141 20.7071 29.7438 20.5826C29.803 20.5168 29.8162 20.4905 29.8096 20.4378C29.803 20.3852 29.8162 20.3655 29.9083 20.3062C30.0859 20.1878 30.1714 20.1549 30.4609 20.0694C30.7964 19.9773 30.8425 19.951 30.8688 19.8655L30.8951 19.7997L30.6649 19.6812C30.4085 19.5493 30.1822 19.3656 30.0004 19.1418L29.8556 18.9905L29.9214 18.8655C29.9806 18.747 29.9872 18.7207 29.9938 18.5299C30.0004 18.3852 30.0201 18.247 30.053 18.0891L30.1056 17.8589L30.0662 17.5233C30.0424 17.4087 30.0357 17.2912 30.0464 17.1747L30.2701 16.951L30.4741 16.7405L30.4478 16.6747L30.2833 16.2602C30.2899 16.2536 30.3359 16.2668 30.3951 16.2799C30.4609 16.2931 30.5004 16.2931 30.5135 16.2799L30.5596 16.076C30.6122 15.7339 30.7372 15.5234 30.9543 15.4247C31.0333 15.3852 31.0859 15.3786 31.2504 15.3786H31.4478L31.4609 14.9049L31.4872 13.7997L31.5004 13.1681L31.4478 13.201C31.3754 13.2536 31.178 13.2339 30.9083 13.1549C30.5399 13.0431 30.4609 13.0365 30.3096 13.0891C30.1385 13.1418 30.132 13.1418 30.0201 13.0826L29.8425 13.0102L29.757 12.9839L29.7767 12.872C29.7964 12.7602 29.7964 12.7602 29.7372 12.6944C29.689 12.635 29.6552 12.5652 29.6385 12.4905C29.5991 12.3589 29.5662 12.3128 29.428 12.2076C29.3951 12.1812 29.3885 12.1484 29.3754 11.9641L29.3622 11.747L29.4872 11.8326L29.632 11.9378C29.6649 11.9707 29.7109 11.9576 29.7438 11.9049C29.765 11.8758 29.7919 11.8512 29.8228 11.8326C29.928 11.7931 29.8556 11.5694 29.6978 11.4378L29.4872 11.2668C29.4219 11.2165 29.3623 11.1591 29.3096 11.0957L29.2504 11.0168L29.257 10.701L29.2635 10.3852L29.2043 10.3128C29.132 10.2207 29.0464 10.1681 28.7833 10.0497C28.6819 10.0053 28.5868 9.94778 28.5004 9.87861C28.4017 9.78651 27.9741 9.28651 27.9083 9.18782L27.8622 9.12203L27.9017 8.99046C28.0464 8.54309 27.928 8.37861 27.4346 8.31282C27.3552 8.30147 27.2777 8.27934 27.2043 8.24703L27.1188 8.20098L27.2306 8.1023C27.3556 7.99703 27.428 7.89835 27.4149 7.86546C27.3937 7.84051 27.3693 7.8184 27.3425 7.79967C27.3064 7.77709 27.2712 7.75294 27.2372 7.7273C27.178 7.68782 27.178 7.65493 27.2372 7.59572C27.2635 7.5694 27.2899 7.52993 27.2964 7.49703L27.3425 7.36546C27.3754 7.29309 27.3688 7.28651 27.3359 7.24703C27.238 7.19708 27.13 7.17008 27.0201 7.16809C27.0135 7.14177 26.928 7.15493 26.8491 7.16151ZM14.6846 7.79309C14.6333 7.81204 14.5863 7.84113 14.5464 7.87861C14.4862 7.95967 14.4477 8.05479 14.4346 8.15493C14.4346 8.1944 14.4412 8.20098 14.5596 8.18782C14.6903 8.17801 14.8145 8.12738 14.9149 8.04309C14.9642 7.97466 14.9854 7.88986 14.9741 7.80624C14.9609 7.76019 14.9543 7.75361 14.8688 7.75361C14.8096 7.76019 14.7306 7.77335 14.6846 7.79309Z" fill="#36A83A"/>
<path d="M15.2961 7.98713C15.1974 8.00029 15.079 8.09897 14.8093 8.37529L14.6119 8.58581L14.5527 8.52002C14.4672 8.42792 14.3817 8.39502 14.2895 8.42792C14.2501 8.44108 14.2238 8.46081 14.2238 8.46739L14.3027 8.63844C14.3553 8.74371 14.4014 8.8095 14.4474 8.83581L14.5132 8.88844L14.329 8.99371C14.1119 9.11213 13.9803 9.23713 13.9474 9.36213C13.9211 9.48713 13.9343 9.50029 14.0527 9.50029C14.2369 9.50029 14.3356 9.52002 14.3356 9.56607C14.3356 9.58581 14.2698 9.71081 14.1843 9.84897L14.0198 10.1187C14.0067 10.1384 14.0198 10.1384 14.0659 10.1187C14.2698 10.0463 14.3553 10.0332 14.3751 10.0529C14.408 10.0858 14.3488 10.1845 14.2567 10.2569C14.1777 10.3227 14.158 10.3621 14.204 10.4148C14.283 10.5134 14.3882 10.5398 14.5988 10.4871C14.7698 10.4411 14.829 10.4411 14.8685 10.474C14.9277 10.5266 14.9014 10.645 14.7961 10.7898L14.7567 10.849L14.7961 10.9805C14.8685 11.2042 14.8553 11.27 14.6777 11.4477C14.5527 11.5792 14.5395 11.5792 14.2895 11.4477C14.1974 11.395 14.1185 11.3687 14.0988 11.3819C14.0593 11.4016 14.0593 11.5003 14.0922 11.6121L14.1185 11.6977L14.0395 11.7042C13.9211 11.7108 13.9211 11.7634 14.0461 11.849C14.158 11.9213 14.1645 11.9477 14.1053 12.0463C14.0461 12.145 13.9409 12.2108 13.7172 12.2832C13.6053 12.3161 13.5067 12.3555 13.5001 12.3621C13.4567 12.4495 13.4257 12.5425 13.408 12.6384C13.4145 12.6582 13.4935 12.6713 13.7106 12.6779L14.0067 12.6911L14.0593 12.7569C14.1053 12.8161 14.1185 12.8227 14.2435 12.8227C14.3159 12.8227 14.3751 12.8292 14.3751 12.8358C14.3751 12.8555 14.2435 12.974 14.1843 13.0069C14.1382 13.0332 14.1119 13.0332 13.954 12.9871C13.8883 12.9642 13.8196 12.9509 13.7501 12.9477C13.7172 12.9608 13.5659 13.1187 13.5198 13.2042C13.4935 13.2371 13.3948 13.2832 13.079 13.395C12.6645 13.5398 12.6645 13.5398 12.6974 13.5858C12.7895 13.6977 12.9869 13.7174 13.3224 13.6319L13.5988 13.5792C13.6448 13.5792 13.6645 13.5924 13.6777 13.6319C13.6909 13.6582 13.704 13.6845 13.7172 13.6845L13.829 13.6121C14.0198 13.4674 14.1119 13.4477 14.2435 13.5529C14.329 13.6187 14.3882 13.6121 14.6119 13.5398L14.8093 13.4805C14.8159 13.4805 14.8488 13.52 14.8817 13.5727C14.9606 13.6977 15.0593 13.7766 15.1185 13.7634C15.1711 13.7503 15.2106 13.6713 15.2106 13.5727C15.2106 13.5134 15.2172 13.5003 15.2435 13.5134C15.4277 13.5727 15.6382 13.5792 15.8356 13.5332C16.0198 13.4937 16.2764 13.3358 16.2764 13.2634C16.2764 13.2174 16.2106 13.1713 16.0922 13.1319C16.0264 13.1121 15.9672 13.0792 15.9606 13.0727C15.954 13.0661 15.9869 13.02 16.0395 12.9805L16.1711 12.8621C16.1909 12.8358 16.2303 12.8161 16.2501 12.8161C16.3553 12.8161 16.6317 12.6319 16.7303 12.5003C16.7698 12.4477 16.7698 12.4345 16.7501 12.3819C16.6995 12.2773 16.6096 12.1969 16.5001 12.1582C16.4067 12.1419 16.3119 12.1353 16.2172 12.1384C16.0922 12.1384 16.0067 12.1319 16.0067 12.1187L16.1053 11.8358C16.2764 11.3819 16.2632 11.2042 16.033 10.9805L15.908 10.8555L15.9211 10.7634C15.9343 10.6516 15.9145 10.6319 15.8224 10.6648C15.7567 10.6911 15.6777 10.6648 15.6777 10.6253L15.7567 10.4148C15.8488 10.1779 15.8685 10.0924 15.8356 10.0069C15.8093 9.94765 15.7303 9.88186 15.6711 9.88186C15.6398 9.8758 15.6105 9.86226 15.5856 9.84239C15.5535 9.81777 15.518 9.79784 15.4803 9.78318C15.4277 9.76344 15.4277 9.76344 15.454 9.69108C15.5067 9.5595 15.5988 9.44765 15.8817 9.14502C16.1514 8.86213 16.204 8.78976 16.1777 8.71739C16.1514 8.63844 15.908 8.62529 15.5461 8.67792L15.3224 8.71081C15.283 8.71081 15.5132 8.48713 15.7567 8.29634C15.8948 8.1845 16.0198 8.08581 16.0198 8.07265C16.0264 8.06608 16.0198 8.04634 16.0132 8.0266C16.0001 8.00029 15.9343 7.99371 15.6909 7.99371C15.5598 7.97863 15.4276 7.97643 15.2961 7.98713Z" fill="#36A83A"/>
<path d="M13.211 9.92738C13.113 9.94532 13.0233 9.99366 12.9544 10.0655C12.9215 10.0984 12.8886 10.1182 12.8425 10.1182C12.7636 10.1182 12.6978 10.184 12.7307 10.23C12.7439 10.2497 12.7833 10.2629 12.8228 10.2695C12.882 10.2826 12.8886 10.2892 12.8886 10.3419C12.8886 10.3879 12.8754 10.4076 12.8097 10.434C12.7439 10.4669 12.7241 10.4669 12.6978 10.4471C12.5597 10.3419 12.3031 10.2892 12.1583 10.3419C12.0662 10.3747 11.9544 10.48 11.9544 10.5261C11.9544 10.5458 11.9741 10.5787 11.9939 10.5919C12.0136 10.6116 12.0399 10.6445 12.0531 10.6774C12.086 10.7497 12.0531 10.7826 11.9281 10.8155C11.7702 10.855 11.757 10.8616 11.757 10.8879C11.757 10.934 11.836 11.0195 11.8952 11.059C11.9281 11.0787 12.0136 11.105 12.0925 11.1182L12.2307 11.1445L12.1189 11.184C11.9873 11.23 11.9215 11.2169 11.8886 11.1379C11.8557 11.0655 11.8228 11.0853 11.7833 11.1971L11.7439 11.309C11.7373 11.3155 11.6912 11.3024 11.6452 11.2892L11.5202 11.2563C11.4675 11.2563 11.4083 11.3287 11.4083 11.3945C11.4083 11.4405 11.4215 11.4603 11.4675 11.4866L11.5268 11.5195L11.4083 11.5458C11.3425 11.559 11.2768 11.5853 11.2636 11.5984C11.2373 11.6247 11.2636 11.684 11.3097 11.73C11.3557 11.7695 11.3491 11.7958 11.2702 11.8945C11.2307 11.9405 11.2044 11.9932 11.211 12.0129C11.2175 12.0326 11.2965 12.0853 11.4083 12.1379L11.6057 12.23L11.836 12.2103C12.1847 12.1774 12.5202 12.1313 12.6715 12.0919C12.9544 12.0261 13.2373 11.8747 13.3623 11.7234C13.4939 11.5655 13.586 11.2761 13.5728 11.0984L13.5662 10.9997L13.7504 10.8682L13.9347 10.7366V10.4997C13.9347 10.3155 13.9281 10.2432 13.9018 10.1708C13.8557 10.0524 13.8228 10.0326 13.7373 10.0655C13.6912 10.0853 13.6583 10.0853 13.6452 10.0721C13.6087 10.0499 13.5686 10.0343 13.5268 10.0261C13.4478 10.0063 13.4347 9.99975 13.4412 9.95369C13.4478 9.90764 13.4412 9.90106 13.3689 9.90764C13.3491 9.89448 13.2636 9.90764 13.211 9.92738ZM18.8886 19.8419C18.5925 20.0984 18.5531 20.1445 18.5202 20.309C18.5004 20.3945 18.4807 20.5326 18.4807 20.6247C18.4807 20.7695 18.4873 20.8024 18.5333 20.8747C18.5925 20.9734 18.7636 21.0787 18.8294 21.059C18.8952 21.0392 19.0202 20.855 19.086 20.6971C19.1847 20.434 19.2175 20.0787 19.1649 19.8813C19.1386 19.7892 19.086 19.7037 19.0597 19.7037C19.0531 19.7037 18.9741 19.7629 18.8886 19.8419ZM18.7439 21.2629C18.6978 21.3024 18.5728 21.3879 18.4675 21.4471C18.2175 21.5984 18.211 21.6182 18.211 22.0326C18.211 22.2826 18.2044 22.3682 18.1649 22.559C18.1123 22.8155 18.0925 23.0326 18.132 23.0721C18.1518 23.0919 18.1781 23.0919 18.257 23.0721C18.336 23.0524 18.382 23.0195 18.4675 22.934C18.5794 22.8155 18.6254 22.8024 18.6781 22.8747C18.6912 22.8945 18.711 22.9076 18.7175 22.9076C18.7373 22.9076 18.8097 22.7629 18.8886 22.5392L18.9544 22.3682L18.9018 22.2234C18.836 22.0524 18.8425 21.9932 18.9412 21.934C19.0202 21.8813 19.0399 21.7826 19.007 21.5721C18.9873 21.4142 18.9018 21.2037 18.8557 21.1971C18.8155 21.2137 18.7779 21.2358 18.7439 21.2629ZM22.2965 23.6576C22.2373 23.6642 22.0597 23.7103 21.9018 23.7629C21.5531 23.8682 21.4083 23.8682 21.2241 23.7761L21.1123 23.7169L20.9807 23.7563L20.7373 23.8221C20.5728 23.855 20.507 23.9142 20.461 24.0524C20.4149 24.1905 20.4281 24.2234 20.5662 24.3419C20.711 24.4603 20.9544 24.5919 21.4281 24.7826L22.0268 25.0326L22.1912 25.105L22.2373 25.0458C22.336 24.9142 22.3491 24.8747 22.3425 24.6642C22.3228 24.2234 22.3294 24.1182 22.3754 24.0524C22.4324 23.959 22.4641 23.8525 22.4675 23.7432C22.4675 23.6313 22.4675 23.6313 22.2965 23.6576Z" fill="#36A83A"/>
</g>
</g>
<defs>
<clipPath id="clip0_26001_4769">
<rect width="38" height="25" fill="white" transform="translate(0 0.109375)"/>
</clipPath>
<clipPath id="clip1_26001_4769">
<rect width="25" height="25" fill="white" transform="translate(6.5 0.109375)"/>
</clipPath>
</defs>
</svg>
