<svg width="38" height="26" viewBox="0 0 38 26" fill="none" xmlns="http://www.w3.org/2000/svg">
<g clip-path="url(#clip0_26003_70561)">
<g clip-path="url(#clip1_26003_70561)">
<path d="M0 17.1992V21.8992C0 23.8992 1.7 25.4992 3.7 25.4992H34.3C36.3 25.4992 38 23.8992 38 21.8992V17.1992H0Z" fill="white"/>
<path d="M34.3 0.601562H3.7C1.7 0.601562 0 2.10156 0 4.10156V8.80156H38V4.10156C38 2.10156 36.3 0.601562 34.3 0.601562Z" fill="#C1262D"/>
<path d="M0 8.80078H38V17.2008H0V8.80078Z" fill="#0C4076"/>
<path d="M34.2996 25.4992C36.2996 25.4992 37.9996 23.8992 37.9996 21.8992V17.1992H24.0996L34.2996 25.4992Z" fill="#FEFFFF"/>
<path d="M34.3002 0.601562H3.7002L13.8002 8.90156H38.0002V4.10156C38.0002 2.10156 36.3002 0.601562 34.3002 0.601562Z" fill="#C12727"/>
<path d="M24.1998 17.2008H37.9998V8.80078H13.7998L24.1998 17.2008Z" fill="#0D416F"/>
<path d="M34.3002 0.601562H3.7002L31.9002 8.90156H38.0002V4.10156C38.0002 2.10156 36.3002 0.601562 34.3002 0.601562Z" fill="#C32525"/>
<path d="M38.0004 10.6008V8.80078H31.9004L38.0004 10.6008Z" fill="#0D416F"/>
<path d="M38 21.8984C38 23.8984 36.3 25.4984 34.3 25.4984H3.7C1.7 25.4984 0 23.8984 0 21.8984" fill="#FEFFFF"/>
<path d="M4.90039 8L5.00039 8.4H11.0004L11.1004 8H4.90039Z" fill="#FFD350"/>
<path d="M11.7996 5.2C11.6996 5 11.4996 4.9 11.2996 4.8C10.5996 4.7 9.29962 4.5 8.09962 4.5V4H8.39962V3.8H8.09962V3.5H7.89962V3.7H7.59962V3.9H7.89962V4.5C6.69962 4.5 5.39962 4.7 4.79962 4.9C4.59962 4.9 4.39962 5.1 4.29962 5.3C4.19962 5.4 4.09962 5.6 4.19962 5.8L4.69962 7.2C4.69962 7.2 4.69962 7.3 4.79962 7.3L4.99962 8.3H10.9996L11.1996 7.3L11.2996 7.2L11.7996 5.8C11.8996 5.6 11.8996 5.4 11.7996 5.2ZM5.19962 6.9L4.69962 5.7V5.5C4.69962 5.5 4.79962 5.4 4.89962 5.4C5.09962 5.3 5.49962 5.3 5.79962 5.2C5.69962 5.4 5.69962 5.6 5.69962 5.8L5.99962 6.9H5.19962ZM6.19962 5.7V5.3C6.49962 5.2 7.09962 5 7.69962 5V6.9H6.49962L6.19962 5.7ZM9.79962 5.7L9.59963 6.9H8.29962V5C8.89962 5 9.49962 5.2 9.79962 5.3C9.79962 5.4 9.89962 5.5 9.79962 5.7ZM11.3996 5.7L10.8996 7H10.0996L10.2996 5.9C10.2996 5.7 10.2996 5.5 10.1996 5.3C10.5996 5.4 10.8996 5.4 11.0996 5.5C11.1996 5.5 11.1996 5.6 11.2996 5.6C11.3996 5.5 11.3996 5.6 11.3996 5.7Z" fill="#EDB92E"/>
<path d="M7.9002 3.60156V3.80156H7.6002L8.1002 4.20156V4.00156H8.4002V3.80156H8.1002V3.60156H7.9002ZM11.3002 4.90156C10.7002 4.80156 9.6002 4.60156 8.5002 4.50156L9.3002 5.20156C9.5002 5.20156 9.6002 5.30156 9.7002 5.30156C9.7002 5.30156 9.8002 5.40156 9.8002 5.60156L10.3002 6.00156V5.80156C10.3002 5.60156 10.3002 5.40156 10.2002 5.20156C10.6002 5.30156 10.9002 5.30156 11.1002 5.40156C11.2002 5.40156 11.2002 5.50156 11.3002 5.50156V5.70156L11.0002 6.60156L11.4002 6.90156L11.8002 5.80156C11.9002 5.60156 11.9002 5.40156 11.7002 5.20156C11.7002 5.10156 11.5002 4.90156 11.3002 4.90156ZM4.8002 7.30156H11.2002L11.3002 6.90156H4.7002L4.8002 7.30156Z" fill="#36A83A"/>
<path d="M3.2 8.39844C3.1 8.39844 3 8.49844 3 8.59844V16.9984C3 19.6984 5.3 21.7984 8 21.7984C10.7 21.7984 13 19.5984 13 16.9984V8.59844C13 8.49844 12.9 8.39844 12.7 8.39844H3.2Z" fill="#C12727"/>
<path d="M10.0004 17.2016H10.2004C10.3004 17.3016 10.4004 17.4016 10.5004 17.3016C10.6004 17.3016 10.3004 17.1016 10.0004 16.9016C9.60039 16.5016 9.60039 16.3016 9.50039 16.1016C9.60039 16.1016 9.80039 16.1016 10.1004 16.4016C10.3004 16.7016 10.5004 16.9016 10.8004 17.2016C10.9004 17.3016 10.9004 17.2016 11.0004 17.3016C11.1004 17.3016 11.5004 17.2016 11.5004 17.2016C11.6004 17.1016 11.7004 17.1016 11.8004 17.2016C11.9004 17.1016 12.0004 17.1016 12.1004 17.3016C12.1004 17.4016 12.0004 17.4016 12.0004 17.4016C11.9004 17.3016 11.9004 17.4016 11.8004 17.4016C11.8004 17.5016 11.7004 17.6016 11.6004 17.5016C11.5004 17.4016 11.2004 17.5016 11.1004 17.5016C11.2004 17.6016 11.4004 17.6016 11.6004 17.6016C11.8004 17.6016 11.9004 17.7016 11.8004 18.0016C11.7004 18.1016 11.7004 18.1016 11.7004 18.0016C11.7004 18.0016 11.7004 17.9016 11.6004 17.9016C11.5004 18.0016 11.4004 18.0016 11.4004 17.9016C11.4004 17.8016 10.9004 17.7016 10.9004 17.6016C11.0004 17.8016 11.2004 17.9016 11.3004 18.1016C11.4004 18.2016 11.4004 18.2016 11.4004 18.4016C11.4004 18.5016 11.4004 18.6016 11.3004 18.7016C11.2004 18.8016 11.2004 18.7016 11.2004 18.6016V18.4016C11.0004 18.4016 10.9004 18.4016 11.0004 18.2016C11.0004 18.0016 10.8004 17.8016 10.8004 17.7016C10.7004 17.6016 10.7004 17.6016 10.7004 17.5016C10.6004 17.4016 10.3004 17.3016 10.2004 17.4016C10.1004 17.5016 10.0004 17.5016 9.90039 17.3016C9.80039 17.3016 9.70039 17.2016 9.60039 17.3016C9.50039 17.3016 9.50039 17.3016 9.50039 17.2016C9.70039 17.2016 9.90039 17.1016 10.0004 17.2016ZM5.70039 19.1016L5.90039 18.9016C6.00039 18.8016 6.00039 18.5016 5.90039 18.4016L5.60039 18.1016C5.50039 18.2016 5.50039 18.3016 5.40039 18.4016C5.30039 18.5016 5.30039 18.8016 5.40039 18.9016C5.50039 19.0016 5.60039 19.2016 5.60039 19.3016V19.5016C5.60039 19.4016 5.60039 19.3016 5.50039 19.2016C5.30039 18.8016 4.60039 19.0016 5.00039 19.5016C5.00039 19.4016 5.10039 19.3016 5.20039 19.3016C5.50039 19.4016 5.50039 19.9016 5.20039 19.8016C5.10039 19.8016 5.10039 19.9016 5.20039 20.0016C5.30039 20.0016 5.30039 20.1016 5.40039 20.0016L5.50039 20.1016L5.60039 20.2016H5.70039C5.70039 20.1016 5.80039 20.1016 5.80039 20.1016C5.90039 20.1016 5.90039 20.0016 5.90039 20.0016H6.00039C6.10039 19.9016 6.10039 19.8016 6.00039 19.8016C5.70039 19.9016 5.70039 19.3016 6.00039 19.3016C6.10039 19.3016 6.20039 19.4016 6.20039 19.5016H6.30039C6.60039 18.9016 5.90039 18.7016 5.70039 19.1016ZM6.00039 17.2016H5.80039C5.70039 17.3016 5.60039 17.4016 5.50039 17.3016C5.40039 17.3016 5.70039 17.1016 6.00039 16.9016C6.40039 16.5016 6.40039 16.3016 6.50039 16.1016C6.40039 16.1016 6.20039 16.1016 5.90039 16.4016C5.70039 16.7016 5.50039 16.9016 5.20039 17.2016C5.10039 17.3016 5.10039 17.2016 5.00039 17.3016C4.90039 17.3016 4.50039 17.2016 4.50039 17.2016C4.40039 17.1016 4.30039 17.1016 4.20039 17.2016C4.10039 17.1016 4.00039 17.1016 3.90039 17.3016C3.90039 17.4016 4.00039 17.4016 4.00039 17.4016C4.10039 17.3016 4.10039 17.4016 4.20039 17.4016C4.20039 17.5016 4.30039 17.6016 4.40039 17.5016C4.50039 17.4016 4.80039 17.5016 4.90039 17.5016C4.80039 17.6016 4.60039 17.6016 4.40039 17.6016C4.20039 17.6016 4.10039 17.7016 4.20039 18.0016C4.30039 18.1016 4.30039 18.1016 4.30039 18.0016C4.30039 18.0016 4.30039 17.9016 4.40039 17.9016C4.50039 18.0016 4.60039 18.0016 4.60039 17.9016C4.60039 17.8016 5.10039 17.7016 5.10039 17.6016C5.00039 17.8016 4.80039 17.9016 4.70039 18.1016C4.60039 18.2016 4.60039 18.2016 4.60039 18.4016C4.60039 18.5016 4.60039 18.6016 4.70039 18.7016C4.80039 18.8016 4.80039 18.7016 4.80039 18.6016V18.4016C5.00039 18.4016 5.10039 18.4016 5.00039 18.2016C5.00039 18.0016 5.20039 17.8016 5.20039 17.7016C5.30039 17.6016 5.30039 17.6016 5.30039 17.5016C5.40039 17.4016 5.70039 17.3016 5.80039 17.4016C5.90039 17.5016 6.00039 17.5016 6.10039 17.3016C6.20039 17.3016 6.30039 17.2016 6.40039 17.3016C6.50039 17.3016 6.50039 17.3016 6.50039 17.2016C6.30039 17.2016 6.10039 17.1016 6.00039 17.2016Z" fill="#EDB92E"/>
<path d="M5.70027 19.1016L5.90027 18.9016C6.00027 18.8016 6.00027 18.5016 5.90027 18.4016L5.60027 18.1016C5.50027 18.2016 5.50027 18.3016 5.40027 18.4016C5.30027 18.5016 5.30027 18.8016 5.40027 18.9016C5.50027 19.0016 5.60027 19.2016 5.60027 19.3016V19.5016C5.60027 19.4016 5.60027 19.3016 5.50027 19.2016C5.30027 18.8016 4.60027 19.0016 5.00027 19.5016C5.00027 19.4016 5.10027 19.3016 5.20027 19.3016C5.50027 19.4016 5.50027 19.9016 5.20027 19.8016C5.10027 19.8016 5.10027 19.9016 5.20027 20.0016C5.30027 20.0016 5.30027 20.1016 5.40027 20.0016L5.50027 20.1016L5.60027 20.2016H5.70027C5.70027 20.1016 5.80027 20.1016 5.80027 20.1016C5.90027 20.1016 5.90027 20.0016 5.90027 20.0016H6.00027C6.10027 19.9016 6.10027 19.8016 6.00027 19.8016C5.70027 19.9016 5.70027 19.3016 6.00027 19.3016C6.10027 19.3016 6.20027 19.4016 6.20027 19.5016H6.30027C6.60027 18.9016 5.90027 18.7016 5.70027 19.1016Z" fill="#EDB92E"/>
<path d="M10 17.2016H10.2C10.3 17.3016 10.4 17.4016 10.5 17.3016C10.6 17.3016 10.3 17.1016 10 16.9016C9.6 16.5016 9.6 16.3016 9.5 16.1016C9.6 16.1016 9.8 16.1016 10.1 16.4016C10.3 16.7016 10.5 16.9016 10.8 17.2016C10.9 17.3016 10.9 17.2016 11 17.3016C11.1 17.3016 11.5 17.2016 11.5 17.2016C11.6 17.1016 11.7 17.1016 11.8 17.2016C11.9 17.1016 12 17.1016 12.1 17.3016C12.1 17.4016 12 17.4016 12 17.4016C11.9 17.3016 11.9 17.4016 11.8 17.4016C11.8 17.5016 11.7 17.6016 11.6 17.5016C11.5 17.4016 11.2 17.5016 11.1 17.5016C11.2 17.6016 11.4 17.6016 11.6 17.6016C11.8 17.6016 11.9 17.7016 11.8 18.0016C11.7 18.1016 11.7 18.1016 11.7 18.0016C11.7 18.0016 11.7 17.9016 11.6 17.9016C11.5 18.0016 11.4 18.0016 11.4 17.9016C11.4 17.8016 10.9 17.7016 10.9 17.6016C11 17.8016 11.2 17.9016 11.3 18.1016C11.4 18.2016 11.4 18.2016 11.4 18.4016C11.4 18.5016 11.4 18.6016 11.3 18.7016C11.2 18.8016 11.2 18.7016 11.2 18.6016V18.4016C11 18.4016 10.9 18.4016 11 18.2016C11 18.0016 10.8 17.8016 10.8 17.7016C10.7 17.6016 10.7 17.6016 10.7 17.5016C10.6 17.4016 10.3 17.3016 10.2 17.4016C10.1 17.5016 10 17.5016 9.9 17.3016C9.8 17.3016 9.7 17.2016 9.6 17.3016C9.5 17.3016 9.5 17.3016 9.5 17.2016C9.7 17.2016 9.9 17.1016 10 17.2016ZM10.3 19.1016L10.1 18.9016C10 18.8016 10 18.5016 10.1 18.4016L10.4 18.1016C10.5 18.2016 10.5 18.3016 10.6 18.4016C10.7 18.5016 10.7 18.8016 10.6 18.9016C10.5 19.0016 10.4 19.2016 10.4 19.3016V19.5016C10.4 19.4016 10.4 19.3016 10.5 19.2016C10.7 18.8016 11.4 19.0016 11 19.5016C11 19.4016 10.9 19.3016 10.8 19.3016C10.5 19.4016 10.5 19.9016 10.8 19.8016C10.9 19.8016 10.9 19.9016 10.8 20.0016C10.7 20.0016 10.7 20.1016 10.6 20.0016L10.5 20.1016L10.4 20.2016H10.3C10.3 20.1016 10.2 20.1016 10.2 20.1016C10.1 20.1016 10.1 20.0016 10.1 20.0016H10C9.9 19.9016 9.9 19.8016 10 19.8016C10.3 19.9016 10.3 19.3016 10 19.3016C9.9 19.3016 9.8 19.4016 9.8 19.5016C9.4 18.9016 10.1 18.7016 10.3 19.1016Z" fill="#EDB92E"/>
<path d="M5.5 18.7984C5.6 18.6984 5.6 18.7984 5.5 18.7984V18.7984Z" fill="#EDB92E"/>
<path d="M8.6002 16.3008L9.0002 15.3008L8.0002 15.5008L7.0002 15.3008L7.4002 16.4008V16.7008L6.3002 20.3008C6.2002 20.5008 6.3002 20.8008 6.6002 20.9008C7.0002 20.9008 7.5002 21.0008 8.0002 21.0008C8.5002 21.0008 9.00019 20.8008 9.40019 20.7008C9.60019 20.6008 9.80019 20.4008 9.7002 20.1008L8.6002 16.5008C8.5002 16.5008 8.5002 16.4008 8.6002 16.3008Z" fill="#F5F5F5"/>
<path d="M6.3 10.8016L5.1 10.2016C4.9 10.1016 4.8 9.90156 4.8 9.70156L4.9 9.50156C4.9 9.30156 4.8 9.20156 4.6 9.20156C4.5 9.20156 4.4 9.20156 4.4 9.30156C3.8 10.0016 3.5 10.9016 3.5 11.8016C3.7 13.0016 3.6 14.9016 3.5 16.9016C3.5 16.9016 4.5 16.7016 5.5 15.4016C5.7 15.2016 6 15.0016 6.3 15.0016L5.7 16.5016C5.8 16.5016 6 16.4016 6 16.3016V16.5016C6.1 16.5016 6.2 16.4016 6.2 16.3016C6.2 16.4016 6.2 16.5016 6.3 16.6016C6.4 16.6016 6.5 16.5016 6.5 16.4016C6.5 16.5016 6.6 16.6016 6.7 16.7016C6.9 16.4016 7.2 16.1016 7.6 15.7016L6.3 10.8016ZM8.4 15.6016C8.7 16.0016 9.1 16.3016 9.3 16.6016C9.4 16.5016 9.4 16.5016 9.5 16.3016C9.5 16.4016 9.6 16.5016 9.7 16.5016C9.8 16.4016 9.8 16.3016 9.8 16.2016L10 16.4016V16.2016C10 16.3016 10.2 16.3016 10.3 16.4016L9.7 14.9016C10 14.9016 10.3 15.1016 10.5 15.3016C11.4 16.6016 12.5 16.8016 12.5 16.8016C12.4 14.8016 12.3 12.9016 12.5 11.7016C12.5 10.8016 12.2 9.90156 11.6 9.20156C11.5 9.10156 11.5 9.10156 11.4 9.10156C11.2 9.10156 11.1 9.30156 11.1 9.40156L11.2 9.60156C11.3 9.80156 11.1 10.0016 10.9 10.1016L9.8 10.6016L8.4 15.6016Z" fill="#F5F5F5"/>
<path d="M6.40039 9.10156H5.80039C5.50039 9.10156 5.40039 9.40156 5.50039 9.60156C5.80039 9.60156 6.10039 9.60156 6.40039 9.80156C6.30039 9.90156 6.20039 10.0016 5.90039 10.1016C6.20039 10.2016 6.40039 10.2016 6.70039 10.1016L6.40039 9.10156ZM9.40039 10.1016C9.70039 10.2016 9.90039 10.2016 10.2004 10.1016C9.90039 10.0016 9.70039 9.90156 9.60039 9.80156C9.90039 9.60156 10.2004 9.50156 10.5004 9.60156C10.7004 9.40156 10.5004 9.10156 10.2004 9.10156H9.60039L9.40039 10.1016Z" fill="#EDB92E"/>
<path d="M9.69961 8.90234L8.59961 9.10234C8.49961 9.10234 8.49961 9.20234 8.39961 9.20234C8.29961 9.50234 8.09961 9.90234 7.99961 10.3023C7.89961 9.90234 7.79961 9.50234 7.59961 9.20234C7.59961 9.10234 7.49961 9.10234 7.39961 9.10234L6.29961 8.90234C6.19961 8.90234 6.09961 9.00234 6.09961 9.10234L6.69961 10.3023L6.19961 10.8023H9.79961L9.29961 10.3023L9.89961 9.10234C9.89961 9.00234 9.79961 8.90234 9.69961 8.90234Z" fill="#F5F5F5"/>
<path d="M7.99961 7.40156C8.22052 7.40156 8.39961 7.22248 8.39961 7.00156C8.39961 6.78065 8.22052 6.60156 7.99961 6.60156C7.7787 6.60156 7.59961 6.78065 7.59961 7.00156C7.59961 7.22248 7.7787 7.40156 7.99961 7.40156Z" fill="#F5F5F5"/>
<path d="M8.0002 8.09922C8.16588 8.09922 8.3002 8.00968 8.3002 7.89922C8.3002 7.78876 8.16588 7.69922 8.0002 7.69922C7.83451 7.69922 7.7002 7.78876 7.7002 7.89922C7.7002 8.00968 7.83451 8.09922 8.0002 8.09922Z" fill="#0C4076"/>
<path d="M6.5002 8.09922C6.66588 8.09922 6.8002 8.00968 6.8002 7.89922C6.8002 7.78876 6.66588 7.69922 6.5002 7.69922C6.33451 7.69922 6.2002 7.78876 6.2002 7.89922C6.2002 8.00968 6.33451 8.09922 6.5002 8.09922Z" fill="#C1262D"/>
<path d="M5.0002 8.09922C5.16588 8.09922 5.3002 8.00968 5.3002 7.89922C5.3002 7.78876 5.16588 7.69922 5.0002 7.69922C4.83451 7.69922 4.7002 7.78876 4.7002 7.89922C4.7002 8.00968 4.83451 8.09922 5.0002 8.09922Z" fill="#0C4076"/>
<path d="M11.0002 8.09922C11.1659 8.09922 11.3002 8.00968 11.3002 7.89922C11.3002 7.78876 11.1659 7.69922 11.0002 7.69922C10.8345 7.69922 10.7002 7.78876 10.7002 7.89922C10.7002 8.00968 10.8345 8.09922 11.0002 8.09922Z" fill="#0C4076"/>
<path d="M9.5002 8.09922C9.66588 8.09922 9.8002 8.00968 9.8002 7.89922C9.8002 7.78876 9.66588 7.69922 9.5002 7.69922C9.33451 7.69922 9.2002 7.78876 9.2002 7.89922C9.2002 8.00968 9.33451 8.09922 9.5002 8.09922Z" fill="#C1262D"/>
<path d="M9.80039 7.40156C10.0213 7.40156 10.2004 7.22248 10.2004 7.00156C10.2004 6.78065 10.0213 6.60156 9.80039 6.60156C9.57948 6.60156 9.40039 6.78065 9.40039 7.00156C9.40039 7.22248 9.57948 7.40156 9.80039 7.40156Z" fill="#F5F5F5"/>
<path d="M11.1002 7.40156C11.3211 7.40156 11.5002 7.22248 11.5002 7.00156C11.5002 6.78065 11.3211 6.60156 11.1002 6.60156C10.8793 6.60156 10.7002 6.78065 10.7002 7.00156C10.7002 7.22248 10.8793 7.40156 11.1002 7.40156Z" fill="#F5F5F5"/>
<path d="M6.30039 7.40156C6.5213 7.40156 6.70039 7.22248 6.70039 7.00156C6.70039 6.78065 6.5213 6.60156 6.30039 6.60156C6.07948 6.60156 5.90039 6.78065 5.90039 7.00156C5.90039 7.22248 6.07948 7.40156 6.30039 7.40156Z" fill="#F5F5F5"/>
<path d="M4.9 7.40156C5.12091 7.40156 5.3 7.22248 5.3 7.00156C5.3 6.78065 5.12091 6.60156 4.9 6.60156C4.67909 6.60156 4.5 6.78065 4.5 7.00156C4.5 7.22248 4.67909 7.40156 4.9 7.40156Z" fill="#F5F5F5"/>
<path d="M8.5 5.00078C8.5 4.90078 8.6 4.80078 8.6 4.80078C8.5 4.50078 8.3 4.30078 8 4.30078C7.7 4.30078 7.5 4.50078 7.5 4.80078C7.5 4.90078 7.5 5.00078 7.6 5.00078H8.5Z" fill="#0C4076"/>
<path d="M7.99961 15.7016C6.99961 15.7016 6.09961 14.9016 6.09961 13.9016V10.6016H9.89961V13.9016C9.89961 14.9016 9.09961 15.7016 7.99961 15.7016Z" fill="#C1262D"/>
<path d="M9.8 10.8V13.9C9.8 14.8 9 15.6 8 15.6C7 15.6 6.2 14.8 6.2 13.9V10.8H9.8ZM10 10.5H6V13.8C6 14.9 6.9 15.7 8 15.7C9.1 15.7 10 14.8 10 13.8V10.5Z" fill="#A54B50"/>
<path d="M9.7998 12.6008H8.3998V10.8008H7.5998V12.6008H6.2998V13.3008H7.6998V15.5008H8.4998V13.3008H9.8998L9.7998 12.6008Z" fill="white"/>
<path d="M6.6 13.8023C6.6 14.0023 6.9 14.2023 7 14.0023C7.1 13.9023 7 13.8023 6.9 13.8023C6.8 13.8023 6.8 13.8023 6.8 13.9023C6.6 13.8023 7 13.5023 7.3 13.8023C7.3 13.9023 7.1 14.0023 7.1 14.1023C7.1 14.2023 7.3 14.3023 7.2 14.4023C7 14.8023 6.5 14.5023 6.8 14.4023C6.8 14.5023 6.8 14.5023 6.9 14.5023C7 14.5023 7 14.4023 7 14.3023C6.9 14.1023 6.6 14.2023 6.6 14.5023C6.7 15.1023 7.3 14.9023 7.6 14.7023V13.5023C7.2 13.5023 6.6 13.3023 6.6 13.8023ZM6.6 11.3023C6.6 11.5023 6.9 11.7023 7 11.5023C7.1 11.4023 7 11.3023 6.9 11.3023C6.8 11.3023 6.8 11.3023 6.8 11.4023C6.6 11.3023 7 11.0023 7.3 11.3023C7.3 11.4023 7.1 11.5023 7.1 11.6023C7.1 11.7023 7.3 11.8023 7.2 11.9023C7 12.3023 6.5 12.0023 6.7 11.8023C6.7 11.9023 6.8 11.9023 6.8 11.9023C6.9 11.9023 6.9 11.8023 6.9 11.7023C6.8 11.5023 6.5 11.6023 6.5 11.9023C6.6 12.5023 7.2 12.3023 7.5 12.1023V10.9023C7.2 11.0023 6.6 10.8023 6.6 11.3023ZM9.1 14.4023C9 14.5023 9.1 14.6023 9.2 14.6023C9.3 14.6023 9.3 14.5023 9.3 14.5023C9.6 14.5023 9.1 14.8023 8.8 14.5023C8.7 14.4023 8.9 14.3023 8.9 14.2023C8.9 14.1023 8.7 14.0023 8.7 13.9023C9 13.5023 9.5 13.8023 9.2 13.9023C9.2 13.8023 9.1 13.8023 9.1 13.8023C9 13.8023 9 13.9023 9 14.0023C9.1 14.2023 9.4 14.1023 9.4 13.8023C9.4 13.3023 8.7 13.5023 8.5 13.6023V14.8023C8.8 14.9023 9.4 15.2023 9.5 14.6023C9.6 14.3023 9.2 14.1023 9.1 14.4023ZM9.6 12.0023C9.6 11.8023 9.2 11.6023 9.2 11.8023C9.1 11.9023 9.2 12.0023 9.3 12.0023C9.4 12.0023 9.4 11.9023 9.4 11.9023C9.6 12.0023 9.2 12.3023 8.9 12.0023C8.8 11.9023 9 11.8023 9 11.7023C9 11.6023 8.8 11.5023 8.8 11.4023C9 11.0023 9.5 11.3023 9.2 11.5023C9.2 11.4023 9.1 11.4023 9.1 11.4023C9 11.4023 9 11.5023 9 11.6023C9.1 11.8023 9.4 11.7023 9.4 11.4023C9.4 10.9023 8.7 11.1023 8.5 11.2023V12.4023C8.9 12.4023 9.5 12.6023 9.6 12.0023Z" fill="white"/>
</g>
</g>
<defs>
<clipPath id="clip0_26003_70561">
<rect width="38" height="25" fill="white" transform="translate(0 0.5)"/>
</clipPath>
<clipPath id="clip1_26003_70561">
<rect width="38" height="25" fill="white" transform="translate(0 0.5)"/>
</clipPath>
</defs>
</svg>
