<svg width="38" height="26" viewBox="0 0 38 26" fill="none" xmlns="http://www.w3.org/2000/svg">
<g clip-path="url(#clip0_26003_91522)">
<g clip-path="url(#clip1_26003_91522)">
<path fill-rule="evenodd" clip-rule="evenodd" d="M0 13H38V3.4C37.8 1.9 36.8 0.7 35.5 0.5H2.5C1.2 0.8 0.2 2 0 3.4V13Z" fill="#313C91"/>
<path fill-rule="evenodd" clip-rule="evenodd" d="M2.5 25.5H35.6C36.9 25.2 37.9 24.1 38.1 22.6V13H0V22.6C0.2 24.1 1.2 25.2 2.5 25.5Z" fill="#C12837"/>
<path fill-rule="evenodd" clip-rule="evenodd" d="M0 3.39922V22.5992C0.1 23.4992 0.5 24.2992 1.1 24.7992L19.3 12.9992L1.1 1.19922C0.5 1.79922 0.1 2.49922 0 3.39922Z" fill="#FEFEFE"/>
<path fill-rule="evenodd" clip-rule="evenodd" d="M2.60039 23.0992L1.80039 22.4992L1.00039 23.2992L1.20039 22.1992L0.400391 21.5992L1.40039 21.4992L1.60039 20.3992L2.00039 21.4992L2.90039 21.2992L2.20039 22.0992L2.60039 23.0992ZM4.40039 11.6992L3.10039 10.8992V10.3992L4.50039 11.4992L4.40039 11.6992ZM4.60039 11.3992L4.90039 10.9992L3.70039 9.29922H3.10039L3.20039 10.0992L4.60039 11.3992ZM5.20039 10.6992L4.50039 9.29922H4.10039L5.10039 10.8992L5.20039 10.6992ZM5.80039 10.4992L5.50039 8.89922L5.70039 8.49922L6.00039 10.4992H5.80039ZM6.20039 10.4992H6.60039L6.80039 8.29922L6.40039 7.69922L6.00039 8.29922L6.20039 10.4992ZM7.00039 10.4992H6.80039L7.10039 8.49922L7.40039 8.89922L7.00039 10.4992ZM7.60039 10.7992L8.30039 9.39922H8.70039L7.70039 10.9992L7.60039 10.7992ZM7.90039 11.0992L8.20039 11.3992L9.80039 9.99922V9.29922H9.10039L7.90039 11.0992ZM8.40039 11.6992L9.70039 10.8992L9.80039 10.4992L8.30039 11.4992L8.40039 11.6992ZM8.60039 12.3992L10.0004 11.9992L10.3004 12.2992L8.60039 12.5992V12.3992ZM8.70039 12.7992V13.2992L10.7004 13.4992L11.1004 12.9992L10.6004 12.4992L8.70039 12.7992ZM8.70039 13.6992V13.4992L10.4004 13.7992L10.1004 14.0992L8.70039 13.6992ZM8.40039 14.2992L9.60039 15.0992L9.70039 15.5992L8.30039 14.4992L8.40039 14.2992ZM8.20039 14.5992L7.90039 14.9992L9.20039 16.6992H9.80039L9.70039 15.8992L8.20039 14.5992ZM7.60039 15.2992L8.30039 16.6992L8.70039 16.7992L7.70039 15.1992L7.60039 15.2992ZM7.00039 15.4992L7.40039 17.0992L7.10039 17.4992L6.80039 15.5992L7.00039 15.4992ZM6.60039 15.5992H6.20039L6.00039 17.7992L6.50039 18.2992L6.90039 17.6992L6.60039 15.5992ZM5.80039 15.5992H6.00039L5.70039 17.4992L5.40039 17.0992L5.80039 15.5992ZM5.20039 15.1992L4.50039 16.5992H4.10039L5.10039 14.9992L5.20039 15.1992ZM4.90039 14.9992L4.60039 14.6992L3.00039 16.0992V16.7992L3.70039 16.6992L4.90039 14.9992ZM4.40039 14.2992L3.20039 15.0992L3.10039 15.5992L4.50039 14.4992L4.40039 14.2992ZM4.20039 13.6992L2.80039 14.0992L2.50039 13.7992L4.20039 13.3992V13.6992ZM4.10039 13.2992V12.7992L2.10039 12.5992L1.70039 13.0992L2.20039 13.4992L4.10039 13.2992ZM4.10039 12.3992V12.5992L2.40039 12.2992L2.70039 11.9992L4.10039 12.3992Z" fill="#F5D71C"/>
<path fill-rule="evenodd" clip-rule="evenodd" d="M6.40039 10.4004C7.70039 10.4004 8.70039 11.6004 8.70039 13.0004C8.70039 14.5004 7.70039 15.6004 6.40039 15.6004C5.10039 15.6004 4.10039 14.4004 4.10039 13.0004C4.10039 11.5004 5.10039 10.4004 6.40039 10.4004ZM14.4004 13.9004L15.0004 13.0004L14.4004 12.1004L15.4004 12.5004L16.0004 11.5004V12.7004L16.9004 13.0004L16.0004 13.3004V14.5004L15.4004 13.6004L14.4004 13.9004ZM2.60039 2.60039L1.80039 3.20039L1.00039 2.40039L1.20039 3.50039L0.400391 4.10039L1.40039 4.20039L1.60039 5.30039L2.00039 4.30039L2.90039 4.40039L2.20039 3.70039L2.60039 2.60039Z" fill="#F5D71C"/>
</g>
</g>
<defs>
<clipPath id="clip0_26003_91522">
<rect width="38" height="25" fill="white" transform="translate(0 0.5)"/>
</clipPath>
<clipPath id="clip1_26003_91522">
<rect width="38" height="25" fill="white" transform="translate(0 0.5)"/>
</clipPath>
</defs>
</svg>
