<svg width="38" height="26" viewBox="0 0 38 26" fill="none" xmlns="http://www.w3.org/2000/svg">
<g clip-path="url(#clip0_26003_90315)">
<g clip-path="url(#clip1_26003_90315)">
<path fill-rule="evenodd" clip-rule="evenodd" d="M38 22.6V3.5C37.8 1.8 36.5 0.5 35 0.5H3C1.5 0.5 0.2 1.8 0 3.5V22.7C0.2 24.4 1.5 25.7 3 25.7H35C36.5 25.6 37.8 24.3 38 22.6ZM17.1 4.4C21.3 4.4 24.7 8.2 24.7 13C24.7 17.8 21.3 21.6 17.1 21.6C12.9 21.6 9.5 17.8 9.5 13C9.5 8.3 12.9 4.4 17.1 4.4Z" fill="#2D7153"/>
<path fill-rule="evenodd" clip-rule="evenodd" d="M17.1 4.40039C21.3 4.40039 24.7 8.20039 24.7 13.0004C24.7 17.8004 21.3 21.6004 17.1 21.6004C12.9 21.6004 9.5 17.8004 9.5 13.0004C9.5 8.30039 12.9 4.40039 17.1 4.40039Z" fill="#DE2246"/>
</g>
</g>
<defs>
<clipPath id="clip0_26003_90315">
<rect width="38" height="25" fill="white" transform="translate(0 0.5)"/>
</clipPath>
<clipPath id="clip1_26003_90315">
<rect width="38" height="25" fill="white" transform="translate(0 0.5)"/>
</clipPath>
</defs>
</svg>
