<svg width="38" height="26" viewBox="0 0 38 26" fill="none" xmlns="http://www.w3.org/2000/svg">
<g clip-path="url(#clip0_26003_74064)">
<g clip-path="url(#clip1_26003_74064)">
<path fill-rule="evenodd" clip-rule="evenodd" d="M2.5 25.5H35.6C36.9 25.2 37.9 24.1 38.1 22.6V3.4C37.9 1.9 36.9 0.7 35.6 0.5H2.5C1.2 0.8 0.2 1.9 0 3.4V22.6C0.2 24.1 1.2 25.2 2.5 25.5Z" fill="#36A83A"/>
<path fill-rule="evenodd" clip-rule="evenodd" d="M0 3.4V22.6C0.1 23.6 0.6 24.5 1.4 25L38 13L1.4 1C0.6 1.5 0.1 2.4 0 3.4Z" fill="#FEFEFE"/>
<path fill-rule="evenodd" clip-rule="evenodd" d="M0.6 24.2008L34.7 13.0008L0.6 1.80078C0.3 2.20078 0.1 2.80078 0 3.40078V22.6008C0.1 23.2008 0.3 23.8008 0.6 24.2008Z" fill="#F5D71C"/>
<path fill-rule="evenodd" clip-rule="evenodd" d="M0 3.39922V22.5992C0.1 23.4992 0.5 24.2992 1.1 24.7992L19 12.9992L1.1 1.19922C0.5 1.79922 0.1 2.49922 0 3.39922Z" fill="#242222"/>
<path fill-rule="evenodd" clip-rule="evenodd" d="M0.4 23.7992L16.8 12.9992L0.4 2.19922C0.2 2.59922 0 2.99922 0 3.39922V22.5992C0 22.9992 0.2 23.3992 0.4 23.7992Z" fill="#C12837"/>
</g>
</g>
<defs>
<clipPath id="clip0_26003_74064">
<rect width="38" height="25" fill="white" transform="translate(0 0.5)"/>
</clipPath>
<clipPath id="clip1_26003_74064">
<rect width="38" height="25" fill="white" transform="translate(0 0.5)"/>
</clipPath>
</defs>
</svg>
