<svg width="38" height="26" viewBox="0 0 38 26" fill="none" xmlns="http://www.w3.org/2000/svg">
<g clip-path="url(#clip0_26003_82691)">
<g clip-path="url(#clip1_26003_82691)">
<path fill-rule="evenodd" clip-rule="evenodd" d="M2.5 25.5H35.6C36.9 25.2 37.9 24.1 38.1 22.6V3.4C37.9 1.9 36.9 0.7 35.6 0.5H2.5C1.2 0.8 0.2 1.9 0 3.4V22.6C0.2 24.1 1.2 25.2 2.5 25.5Z" fill="#426DB3"/>
<path fill-rule="evenodd" clip-rule="evenodd" d="M9.5 25.5H35.5C36.8 25.2 37.8 24.1 38 22.6V3.4C37.8 1.9 36.8 0.7 35.5 0.5H9.5V25.5Z" fill="#F5D71C"/>
<path fill-rule="evenodd" clip-rule="evenodd" d="M28.4998 25.5H35.4998C36.7998 25.2 37.7998 24.1 37.9998 22.6V3.4C37.7998 1.9 36.7998 0.7 35.4998 0.5H28.4998V25.5ZM16.8998 18.8L18.9998 23.5L21.0998 18.8L18.9998 14.2L16.8998 18.8ZM19.4998 13L21.5998 17.7L23.6998 13L21.5998 8.3L19.4998 13ZM14.2998 13L16.3998 17.7L18.4998 13L16.3998 8.3L14.2998 13Z" fill="#379E5E"/>
</g>
</g>
<defs>
<clipPath id="clip0_26003_82691">
<rect width="38" height="25" fill="white" transform="translate(0 0.5)"/>
</clipPath>
<clipPath id="clip1_26003_82691">
<rect width="38" height="25" fill="white" transform="translate(0 0.5)"/>
</clipPath>
</defs>
</svg>
