<svg width="39" height="26" viewBox="0 0 39 26" fill="none" xmlns="http://www.w3.org/2000/svg">
<g clip-path="url(#clip0_26003_53730)">
<g clip-path="url(#clip1_26003_53730)">
<path fill-rule="evenodd" clip-rule="evenodd" d="M0.745117 9.41094H38.7451V3.11094C38.5451 1.61094 37.5451 0.410938 36.2451 0.210938H3.24512C1.94512 0.510938 0.945117 1.61094 0.745117 3.11094V9.41094Z" fill="#6ABAE8"/>
<path fill-rule="evenodd" clip-rule="evenodd" d="M0.745117 9.41016H38.7451V10.8102H0.745117V9.41016Z" fill="#FEFEFE"/>
<path fill-rule="evenodd" clip-rule="evenodd" d="M3.24512 25.2117H36.3451C37.6451 24.9117 38.6451 23.8117 38.8451 22.3117V16.0117H0.745117V22.3117C0.945117 23.8117 1.94512 24.9117 3.24512 25.2117Z" fill="#6ABAE8"/>
<path fill-rule="evenodd" clip-rule="evenodd" d="M0.745117 14.6113H38.7451V16.0113H0.745117V14.6113Z" fill="#FEFEFE"/>
<path fill-rule="evenodd" clip-rule="evenodd" d="M0.745117 10.4102H38.7451V14.9102H0.745117V10.4102Z" fill="#242222"/>
</g>
</g>
<defs>
<clipPath id="clip0_26003_53730">
<rect width="38" height="25" fill="white" transform="translate(0.745117 0.210938)"/>
</clipPath>
<clipPath id="clip1_26003_53730">
<rect width="38" height="25" fill="white" transform="translate(0.745117 0.210938)"/>
</clipPath>
</defs>
</svg>
