<svg width="38" height="26" viewBox="0 0 38 26" fill="none" xmlns="http://www.w3.org/2000/svg">
<g clip-path="url(#clip0_26003_92715)">
<g clip-path="url(#clip1_26003_92715)">
<path d="M0 -1.25H38V27.25H0V-1.25Z" fill="#20603D"/>
<path d="M0 -1.25H38V20.125H0V-1.25Z" fill="#FAD201"/>
<path d="M0 -1.25H38V13H0V-1.25Z" fill="#00A1DE"/>
<path d="M34.936 6.19583L31.7535 6.38188L34.7777 7.3873L31.6585 6.74209L34.3225 8.49168L31.4725 7.05875L33.5862 9.44564L31.2072 7.32792L32.6402 10.1779L30.8866 7.51397L31.5279 10.6292L30.5264 7.60897L30.3404 10.7915L30.3008 6.15625L34.936 6.19583Z" fill="#E5BE01"/>
<path d="M34.936 6.19479L31.7535 6.00875L34.7777 5.00333L31.6585 5.64854L34.3225 3.89895L31.4725 5.33187L33.5862 2.94498L31.2072 5.0627L32.6402 2.21269L30.8866 4.87666L31.5279 1.76144L30.5264 4.78166L30.3404 1.59914L30.3008 6.23438L34.936 6.19479Z" fill="#E5BE01"/>
<path d="M25.7447 6.19583L28.9272 6.38188L25.903 7.3873L29.0222 6.74209L26.3582 8.49168L29.2082 7.05875L27.0944 9.44564L29.4734 7.32792L28.0405 10.1779L29.794 7.51397L29.1528 10.6292L30.1543 7.60897L30.3403 10.7915L30.3799 6.15625L25.7447 6.19583Z" fill="#E5BE01"/>
<path d="M25.7447 6.19479L28.9272 6.00875L25.903 5.00333L29.0222 5.64854L26.3582 3.89895L29.2082 5.33187L27.0944 2.94498L29.4734 5.0627L28.0405 2.21269L29.794 4.87666L29.1528 1.76144L30.1543 4.78166L30.3403 1.59914L30.3799 6.23438L25.7447 6.19479Z" fill="#E5BE01"/>
<path d="M30.3411 7.55332C31.091 7.55332 31.6988 6.94545 31.6988 6.19561C31.6988 5.44576 31.091 4.83789 30.3411 4.83789C29.5913 4.83789 28.9834 5.44576 28.9834 6.19561C28.9834 6.94545 29.5913 7.55332 30.3411 7.55332Z" fill="#E5BE01" stroke="#00A1DE" stroke-width="0.134584"/>
</g>
</g>
<defs>
<clipPath id="clip0_26003_92715">
<rect width="38" height="25" fill="white" transform="translate(0 0.5)"/>
</clipPath>
<clipPath id="clip1_26003_92715">
<rect width="38" height="28.5" fill="white" transform="translate(0 -1.25)"/>
</clipPath>
</defs>
</svg>
