<svg width="38" height="26" viewBox="0 0 38 26" fill="none" xmlns="http://www.w3.org/2000/svg">
<g clip-path="url(#clip0_26003_93512)">
<g clip-path="url(#clip1_26003_93512)">
<path fill-rule="evenodd" clip-rule="evenodd" d="M2.4302 25.4984H35.5302C36.8302 25.2484 37.8402 24.0484 38.0002 22.5684V17.1484H-0.0498047V22.5684C0.110195 24.0484 1.1302 25.2484 2.4302 25.4984Z" fill="#242222"/>
<path fill-rule="evenodd" clip-rule="evenodd" d="M2.2502 25.4591H35.7002L35.5202 25.4991H2.4302L2.2502 25.4591ZM37.9602 22.8191V17.1891H-0.00980469V22.8491L-0.0498047 22.5691V17.1191H38.0002V22.5691L37.9602 22.8191Z" fill="#242222"/>
<path fill-rule="evenodd" clip-rule="evenodd" d="M-0.0498047 8.79883H38.0002V17.1488H-0.0498047V8.79883Z" fill="#FEFEFE"/>
<path fill-rule="evenodd" clip-rule="evenodd" d="M-0.00980469 17.1098H37.9602V8.84977H-0.00980469V17.1098ZM38.0002 8.75977V17.1998H-0.0498047V8.75977H38.0002Z" fill="#FEFEFE"/>
<path fill-rule="evenodd" clip-rule="evenodd" d="M-0.0498047 8.79898H38.0002V3.38898C37.8402 1.90898 36.8202 0.708984 35.5302 0.458984H2.4302C1.1302 0.708984 0.110195 1.89898 -0.0498047 3.38898V8.79898Z" fill="#C12837"/>
<path fill-rule="evenodd" clip-rule="evenodd" d="M-0.00980469 8.75922H37.9602V3.12922L38.0002 3.38922V8.84922H-0.0498047V3.38922L-0.00980469 3.10922V8.75922ZM35.7202 0.499219H2.2402L2.4302 0.449219H35.5302L35.7202 0.499219Z" fill="#C12837"/>
<path fill-rule="evenodd" clip-rule="evenodd" d="M18.7705 16.929C19.5005 16.929 20.1905 16.869 20.6005 16.739C20.7705 16.709 20.7705 16.609 20.7705 16.469C20.9405 16.399 20.8505 16.179 20.9705 16.179C20.8505 16.219 20.8205 15.949 20.6805 15.989C20.6805 15.759 20.4705 15.729 20.3005 15.789C19.9605 15.919 19.3405 15.949 18.7605 15.949C18.1805 15.919 17.5705 15.919 17.2205 15.789C17.0505 15.719 16.8505 15.759 16.8505 15.989C16.7105 15.949 16.6805 16.219 16.5605 16.179C16.6805 16.179 16.5905 16.409 16.7605 16.469C16.7605 16.599 16.7605 16.709 16.9405 16.739C17.3405 16.869 18.0405 16.929 18.7705 16.929Z" fill="#FEFEFE"/>
<path fill-rule="evenodd" clip-rule="evenodd" d="M16.7005 16.2102L16.7205 16.2702C16.7305 16.3402 16.7405 16.3702 16.7905 16.3902C16.8205 16.4002 16.8405 16.4302 16.8405 16.4702C16.8405 16.6002 16.8405 16.6402 16.9605 16.6602C17.3405 16.7902 18.0205 16.8502 18.7705 16.8502C19.5305 16.8502 20.2005 16.7802 20.5805 16.6602C20.7005 16.6402 20.7005 16.6002 20.7005 16.4702C20.7005 16.4402 20.7205 16.4002 20.7505 16.3902C20.8105 16.3702 20.8105 16.3302 20.8305 16.2702L20.8405 16.2102L20.7905 16.1402C20.7605 16.0802 20.7405 16.0602 20.7105 16.0602C20.6905 16.0702 20.6605 16.0602 20.6405 16.0402C20.6205 16.0202 20.6105 16.0102 20.6105 15.9802C20.6105 15.9402 20.6105 15.8302 20.4605 15.8302C19.912 15.9888 19.3405 16.053 18.7705 16.0202L18.4505 16.0102C17.9705 15.9802 17.5005 15.9702 17.2105 15.8602C17.1695 15.8419 17.1253 15.8317 17.0805 15.8302C16.9305 15.8302 16.9305 15.9402 16.9305 15.9802L16.9005 16.0402C16.8905 16.0602 16.8705 16.0702 16.8405 16.0602C16.8005 16.0702 16.7805 16.0802 16.7505 16.1402C16.7305 16.161 16.7137 16.1846 16.7005 16.2102ZM18.7705 17.0202C17.9805 17.0202 17.3205 16.9402 16.9205 16.8202C16.7205 16.7802 16.6905 16.6502 16.6905 16.5302C16.6005 16.4702 16.5805 16.3602 16.5705 16.3002L16.5605 16.2602H16.5405C16.5105 16.2402 16.4805 16.2102 16.4805 16.1702C16.4805 16.1302 16.5205 16.1002 16.5605 16.1002H16.5705L16.6305 16.0402C16.6705 15.9902 16.7105 15.9202 16.7905 15.9102C16.8305 15.7102 17.0305 15.6402 17.2505 15.7102C17.5305 15.8102 17.9805 15.8402 18.4605 15.8602L18.7705 15.8702C19.5105 15.8702 20.0105 15.8202 20.2805 15.7102C20.5005 15.6302 20.7105 15.7102 20.7405 15.9202C20.8205 15.9402 20.8605 16.0002 20.8905 16.0402L20.9405 16.1002H20.9705C21.0005 16.1002 21.0405 16.1302 21.0405 16.1702C21.0405 16.2102 21.0205 16.2502 20.9905 16.2602H20.9705V16.3002C20.9605 16.3602 20.9405 16.4702 20.8505 16.5302C20.8505 16.6502 20.8205 16.7802 20.6205 16.8202C20.2205 16.9402 19.5505 17.0202 18.7705 17.0202Z" fill="#F1CD0D"/>
<path fill-rule="evenodd" clip-rule="evenodd" d="M17.1104 16.1094C17.0504 16.1094 17.0504 16.1494 17.1104 16.1494C17.1404 16.1494 17.1404 16.1094 17.1104 16.1094Z" fill="#F5D722"/>
<path fill-rule="evenodd" clip-rule="evenodd" d="M17.1103 16.1984C17.0303 16.1984 17.0303 16.1384 17.0303 16.1284C17.0303 16.0884 17.0803 16.0684 17.1103 16.0684C17.1303 16.0684 17.1703 16.1084 17.1703 16.1284C17.1703 16.1484 17.1303 16.1984 17.1103 16.1984Z" fill="#F1CD0D"/>
<path fill-rule="evenodd" clip-rule="evenodd" d="M17.1104 15.9883C17.0804 15.9883 17.0804 16.0483 17.1104 16.0483C17.1704 16.0483 17.1704 15.9883 17.1104 15.9883Z" fill="#F5D722"/>
<path fill-rule="evenodd" clip-rule="evenodd" d="M17.1098 16.0895C17.0898 16.0895 17.0498 16.0395 17.0498 16.0195C17.0498 15.9895 17.0898 15.9395 17.1098 15.9395C17.1698 15.9395 17.1898 15.9795 17.1898 16.0195C17.1998 16.0495 17.1698 16.0895 17.1098 16.0895Z" fill="#F1CD0D"/>
<path fill-rule="evenodd" clip-rule="evenodd" d="M17.1104 16.4688C17.0804 16.4688 17.0804 16.5388 17.1104 16.5388C17.1404 16.5388 17.1404 16.4688 17.1104 16.4688Z" fill="#F5D722"/>
<path fill-rule="evenodd" clip-rule="evenodd" d="M17.1098 16.5799C17.0898 16.5799 17.0498 16.5299 17.0498 16.4999C17.0498 16.4799 17.0898 16.4199 17.1098 16.4199C17.1298 16.4199 17.1698 16.4699 17.1698 16.4999C17.1698 16.5299 17.1298 16.5799 17.1098 16.5799Z" fill="#F1CD0D"/>
<path fill-rule="evenodd" clip-rule="evenodd" d="M17.2306 16.5098C17.2243 16.5132 17.2191 16.5183 17.2155 16.5245C17.2119 16.5306 17.21 16.5376 17.21 16.5448C17.21 16.5519 17.2119 16.5589 17.2155 16.5651C17.2191 16.5712 17.2243 16.5763 17.2306 16.5798C17.2606 16.5698 17.2606 16.5098 17.2306 16.5098Z" fill="#F5D722"/>
<path fill-rule="evenodd" clip-rule="evenodd" d="M17.2304 16.6188C17.1804 16.6188 17.1504 16.5787 17.1504 16.5487C17.1504 16.5087 17.1904 16.4688 17.2304 16.4688C17.2504 16.4688 17.2904 16.5287 17.2904 16.5487C17.2904 16.5787 17.2604 16.6188 17.2304 16.6188Z" fill="#F1CD0D"/>
<path fill-rule="evenodd" clip-rule="evenodd" d="M17.3402 16.5391C17.3202 16.5391 17.3202 16.6091 17.3402 16.6091C17.4002 16.5991 17.4002 16.5391 17.3402 16.5391Z" fill="#F5D722"/>
<path fill-rule="evenodd" clip-rule="evenodd" d="M17.3403 16.65C17.3203 16.65 17.2803 16.6 17.2803 16.57C17.2803 16.55 17.3203 16.5 17.3403 16.5C17.4003 16.5 17.4303 16.54 17.4303 16.57C17.4303 16.6 17.4003 16.65 17.3403 16.65Z" fill="#F1CD0D"/>
<path fill-rule="evenodd" clip-rule="evenodd" d="M19.1504 16.2188C19.1204 16.2188 19.1204 16.2787 19.1504 16.2787C19.1704 16.2787 19.1704 16.2188 19.1504 16.2188Z" fill="#F5D722"/>
<path fill-rule="evenodd" clip-rule="evenodd" d="M19.1498 16.3202C19.1198 16.3202 19.0898 16.2702 19.0898 16.2402C19.0898 16.2202 19.1298 16.1602 19.1498 16.1602C19.1698 16.1602 19.2098 16.2102 19.2098 16.2402L19.1498 16.3202Z" fill="#F1CD0D"/>
<path fill-rule="evenodd" clip-rule="evenodd" d="M19.17 16.3398C19.11 16.3398 19.11 16.3698 19.17 16.3698C19.2 16.3698 19.2 16.3398 19.17 16.3398ZM19.26 16.6698C19.23 16.6698 19.23 16.7398 19.26 16.7398C19.29 16.7398 19.29 16.6698 19.26 16.6698Z" fill="#F5D722"/>
<path fill-rule="evenodd" clip-rule="evenodd" d="M19.2602 16.7889C19.2302 16.7889 19.2002 16.7289 19.2002 16.7089C19.2002 16.6789 19.2302 16.6289 19.2602 16.6289C19.2802 16.6289 19.3202 16.6889 19.3202 16.7089C19.3202 16.7289 19.2802 16.7889 19.2602 16.7889Z" fill="#F1CD0D"/>
<path fill-rule="evenodd" clip-rule="evenodd" d="M19.38 16.6699C19.32 16.6699 19.32 16.7399 19.38 16.7399C19.4 16.7399 19.4 16.6699 19.38 16.6699Z" fill="#F5D722"/>
<path fill-rule="evenodd" clip-rule="evenodd" d="M19.38 16.7889C19.32 16.7889 19.29 16.7489 19.29 16.7089C19.29 16.6689 19.32 16.6289 19.38 16.6289C19.4 16.6289 19.44 16.6889 19.44 16.7089C19.44 16.7389 19.41 16.7889 19.38 16.7889Z" fill="#F1CD0D"/>
<path fill-rule="evenodd" clip-rule="evenodd" d="M20.5704 16.4102C20.5104 16.4102 20.5104 16.4502 20.5704 16.4502C20.6004 16.4502 20.6004 16.4102 20.5704 16.4102Z" fill="#F5D722"/>
<path fill-rule="evenodd" clip-rule="evenodd" d="M20.5706 16.4892C20.4906 16.4892 20.4906 16.4392 20.4906 16.4292C20.4906 16.3892 20.5406 16.3592 20.5706 16.3592C20.5906 16.3592 20.6306 16.3992 20.6306 16.4292C20.6306 16.4492 20.5906 16.4892 20.5706 16.4892ZM17.4306 16.5292L17.3606 16.5192C17.3267 16.5107 17.2957 16.4935 17.2706 16.4692C17.2506 16.4692 17.2206 16.4692 17.1806 16.4492C17.1606 16.4492 17.1006 16.3992 17.1006 16.2992C17.1306 16.2392 17.1506 16.1492 17.1706 16.0492L17.1906 15.9692C17.1906 15.9492 17.2106 15.9392 17.2306 15.9492C17.2506 15.9492 17.2606 15.9692 17.2606 15.9892L17.2406 16.0692C17.2106 16.1792 17.2006 16.2692 17.1706 16.3192L17.1906 16.3492L17.2506 16.3792L17.2606 16.3092C17.2706 16.2492 17.2806 16.2192 17.3006 16.2092L17.3306 16.2692L17.3506 16.2792V16.3292L17.3306 16.4092L17.3806 16.4392L17.4406 16.4492C17.4606 16.4392 17.4706 16.3992 17.4806 16.3392L17.4906 16.3492L17.4506 16.2892C17.4679 16.2763 17.4889 16.2692 17.5106 16.2692C17.5306 16.2692 17.5506 16.3292 17.5506 16.3392C17.5406 16.4192 17.5206 16.4892 17.4706 16.5192L17.4306 16.5292Z" fill="#F1CD0D"/>
<path fill-rule="evenodd" clip-rule="evenodd" d="M17.1998 16.4494C17.0998 16.4194 17.0498 16.3694 17.0498 16.3094C17.0498 16.2794 17.0798 16.2294 17.1698 16.2094C17.1898 16.2094 17.2098 16.2194 17.2198 16.2394C17.2198 16.2694 17.2098 16.2794 17.1898 16.2894C17.1398 16.2994 17.1298 16.3194 17.1298 16.3194C17.1298 16.3294 17.1598 16.3494 17.2198 16.3694C17.2398 16.3794 17.2498 16.3994 17.2398 16.4194C17.2298 16.4394 17.2198 16.4494 17.1998 16.4494ZM18.0298 16.7194C18.0116 16.7174 17.9943 16.7105 17.9798 16.6994C17.9798 16.7194 17.9098 16.6994 17.9098 16.5694C17.8889 16.5659 17.8686 16.5592 17.8498 16.5494C17.7798 16.5794 17.6898 16.5994 17.6398 16.5694C17.6246 16.6022 17.6003 16.6299 17.5698 16.6494C17.5498 16.6594 17.5198 16.6494 17.5198 16.6294C17.5157 16.6186 17.5155 16.6067 17.5191 16.5958C17.5228 16.5849 17.5301 16.5755 17.5398 16.5694L17.5898 16.5294C17.5787 16.5075 17.5719 16.4838 17.5698 16.4594C17.5598 16.4394 17.5498 16.3994 17.5698 16.3694C17.6298 16.3594 17.6598 16.3894 17.6798 16.4494V16.5094C17.7098 16.5194 17.7498 16.5194 17.7998 16.4994C17.7698 16.4594 17.7598 16.3994 17.7798 16.3594C17.7829 16.3447 17.7893 16.3308 17.7985 16.3189C17.8077 16.307 17.8195 16.2973 17.8329 16.2906C17.8464 16.2839 17.8612 16.2803 17.8762 16.2801C17.8913 16.2798 17.9062 16.283 17.9198 16.2894C17.9698 16.3094 17.9898 16.3594 17.9898 16.4094C17.9898 16.4594 17.9698 16.4994 17.9398 16.5194L17.9798 16.5494C17.9998 16.6294 18.0098 16.6294 18.0198 16.6294C18.0298 16.6294 18.0698 16.5694 18.0698 16.5094V16.2194C18.0698 16.1694 18.1498 16.1694 18.1498 16.2194V16.5094C18.1498 16.5894 18.1098 16.6994 18.0598 16.7194H18.0298ZM18.1898 16.6194C18.1698 16.6194 18.1498 16.5994 18.1498 16.5694L18.1698 16.3794L18.1798 16.2094C18.1798 16.1594 18.2598 16.1594 18.2598 16.2094L18.2398 16.3894L18.2198 16.5694C18.2198 16.5994 18.2098 16.6194 18.1898 16.6194ZM18.5298 16.5594H18.6498C18.7598 16.5594 18.7698 16.6294 18.7698 16.6694L18.7998 16.6094C18.7998 16.5694 18.8098 16.5494 18.7998 16.5394C18.7231 16.5589 18.642 16.5519 18.5698 16.5194H18.5298V16.5594ZM18.2698 16.8094C18.2598 16.8094 18.2498 16.8094 18.2398 16.7894C18.2198 16.7694 18.2298 16.7394 18.2498 16.7194C18.3098 16.6694 18.3298 16.6394 18.3398 16.5994L18.2998 16.5594C18.2798 16.5194 18.2798 16.4794 18.2898 16.4594C18.2998 16.4394 18.3298 16.4294 18.3498 16.4294C18.3798 16.4294 18.4098 16.4594 18.4198 16.5194V16.5494H18.4398L18.4498 16.4894L18.4298 16.4394C18.4298 16.4094 18.4598 16.3694 18.4798 16.3694C18.4998 16.3694 18.5198 16.3994 18.5298 16.4294H18.5798C18.6398 16.4694 18.7598 16.4594 18.7898 16.4494C18.8598 16.4294 18.8798 16.4894 18.8798 16.5794L18.8598 16.6494C18.8398 16.7094 18.8198 16.7494 18.7898 16.7594C18.7498 16.7694 18.7198 16.7394 18.6998 16.7094C18.6898 16.6694 18.6898 16.6494 18.6398 16.6494H18.4398L18.4098 16.6394C18.3998 16.6894 18.3598 16.7394 18.2898 16.7994L18.2698 16.8094Z" fill="#F1CD0D"/>
<path fill-rule="evenodd" clip-rule="evenodd" d="M18.9701 16.6484L18.9501 16.6384H18.8901C18.8701 16.6384 18.8301 16.6184 18.8301 16.5984C18.8301 16.5684 18.8301 16.5484 18.8501 16.5484V16.5984L18.8701 16.5484L18.9101 16.5384C18.9101 16.4884 18.9201 16.4584 18.9401 16.4484C18.9701 16.4184 19.0001 16.4084 19.0401 16.4284C19.0801 16.4484 19.1001 16.4884 19.1001 16.5284C19.1001 16.5984 19.0101 16.6484 18.9701 16.6484ZM19.2001 16.6384L19.1701 16.6284C19.1601 16.6184 19.1301 16.5884 19.1301 16.5684C19.1392 16.5471 19.1529 16.528 19.1702 16.5124C19.1874 16.4969 19.2079 16.4853 19.2301 16.4784C19.2381 16.3946 19.2313 16.31 19.2101 16.2284C19.2001 16.2084 19.2101 16.1784 19.2401 16.1784C19.2601 16.1684 19.2801 16.1884 19.2901 16.2084C19.3101 16.2884 19.3201 16.4084 19.3101 16.5084L19.3701 16.5384C19.4001 16.5384 19.4101 16.5184 19.4201 16.4584C19.4001 16.4284 19.3801 16.3884 19.3901 16.3784C19.4001 16.3584 19.4301 16.3484 19.4501 16.3484C19.4701 16.3484 19.5001 16.3984 19.5001 16.4184V16.4584C19.5001 16.5884 19.4701 16.6284 19.3801 16.6284C19.3401 16.6484 19.3101 16.6384 19.2901 16.6184V16.6084C19.2638 16.6273 19.2324 16.6378 19.2001 16.6384ZM19.5501 16.7484C19.5401 16.7484 19.5301 16.7484 19.5301 16.7284C19.5101 16.7184 19.5101 16.6884 19.5301 16.6684C19.5501 16.6384 19.5801 16.5984 19.5901 16.5484C19.5201 16.5184 19.5101 16.4684 19.5101 16.4384C19.5101 16.4184 19.5101 16.3584 19.5501 16.3384C19.5901 16.3284 19.6301 16.3684 19.6601 16.3984C19.7101 16.4984 19.6401 16.6484 19.5801 16.7184L19.5501 16.7484ZM19.7601 16.6784L19.7201 16.6584C19.7101 16.6284 19.7201 16.5984 19.7401 16.5984C19.7701 16.5884 19.7801 16.5684 19.7901 16.5484C19.7301 16.5484 19.7001 16.5184 19.7001 16.4884C19.6901 16.4384 19.7101 16.3984 19.7601 16.3584C19.7819 16.3473 19.8057 16.3405 19.8301 16.3384C19.8601 16.3484 19.8801 16.3884 19.8801 16.4584C20.0039 16.4375 20.1226 16.3934 20.2301 16.3284C20.2501 16.3084 20.2701 16.3184 20.2801 16.3384C20.2901 16.3684 20.2901 16.3884 20.2701 16.3984C20.1546 16.4785 20.0201 16.5268 19.8801 16.5384C19.8758 16.5683 19.8633 16.5963 19.8438 16.6193C19.8243 16.6423 19.7988 16.6593 19.7701 16.6684L19.7601 16.6784Z" fill="#F1CD0D"/>
<path fill-rule="evenodd" clip-rule="evenodd" d="M20.0999 16.5585L20.0599 16.5485C20.0299 16.5085 20.0199 16.4685 20.0099 16.4285L19.9999 16.4685C19.9999 16.5285 19.9199 16.5285 19.9199 16.4685C19.9199 16.3985 19.9499 16.3385 19.9799 16.3185V16.2885L19.9499 16.1685C19.9499 16.1485 19.9499 16.1185 19.9699 16.1085C19.9999 16.0985 20.0199 16.1185 20.0199 16.1385L20.0499 16.2685V16.2785C20.0699 16.2685 20.0899 16.2785 20.1199 16.2885C20.1599 16.3185 20.1899 16.3585 20.1899 16.3985C20.1999 16.4285 20.1999 16.4785 20.1699 16.5185C20.1599 16.5485 20.1299 16.5585 20.0999 16.5585ZM20.3199 16.4685C20.2699 16.4685 20.2299 16.4385 20.2099 16.3885V16.3085C20.2499 16.2285 20.3899 16.2185 20.4399 16.2785C20.4599 16.3285 20.4499 16.3585 20.4399 16.3985C20.4277 16.4196 20.4103 16.4372 20.3892 16.4495C20.3682 16.4618 20.3443 16.4683 20.3199 16.4685ZM20.5599 16.3485L20.5099 16.3385C20.4399 16.2985 20.4099 16.2085 20.4099 16.0485C20.4099 16.0185 20.3999 15.9885 20.3799 15.9885C20.3599 15.9685 20.3199 15.9885 20.2999 16.0085C20.2908 16.0138 20.2805 16.0166 20.2699 16.0166C20.2594 16.0166 20.249 16.0138 20.2399 16.0085V15.9485C20.2799 15.8885 20.3599 15.8685 20.4099 15.8985C20.4499 15.9185 20.4799 15.9685 20.4799 16.0385C20.4799 16.1785 20.5099 16.2385 20.5399 16.2685H20.5799V16.2585C20.5899 16.2385 20.6299 16.1885 20.6499 16.1985C20.6699 16.1985 20.6799 16.2585 20.6799 16.2785C20.6399 16.3385 20.5899 16.3485 20.5599 16.3485Z" fill="#F1CD0D"/>
<path fill-rule="evenodd" clip-rule="evenodd" d="M18.8002 13.1789L21.3002 15.7889L21.1202 11.0389C21.0902 10.3189 20.5402 10.4789 20.1302 10.7389C19.7202 11.0389 19.2602 11.0389 18.7702 10.8389C18.2802 11.0289 17.8102 11.0289 17.4002 10.7389C17.0002 10.4789 16.4402 10.3189 16.4202 11.0389L16.2402 15.7889L18.8002 13.1789Z" fill="#FEFEFE"/>
<path fill-rule="evenodd" clip-rule="evenodd" d="M16.8 10.5685C16.58 10.5685 16.46 10.7185 16.45 11.0385L16.28 15.6885L18.76 13.1485C18.77 13.1285 18.8 13.1285 18.82 13.1485L21.25 15.6885L21.07 11.0385C21.05 10.4985 20.68 10.4385 20.14 10.7785C19.76 11.0585 19.28 11.0985 18.74 10.8785C18.26 11.0885 17.76 11.0585 17.37 10.7785C17.17 10.6485 16.96 10.5685 16.8 10.5685ZM16.24 15.8285H16.23L16.21 15.7885L16.39 11.0385C16.41 10.5785 16.63 10.4785 16.82 10.4785C17.05 10.4785 17.31 10.6185 17.44 10.6985C17.81 10.9685 18.26 10.9985 18.77 10.7985C19.35 10.9985 19.76 10.9685 20.13 10.6985C20.26 10.6185 20.52 10.4785 20.74 10.4785C20.93 10.4785 21.16 10.5785 21.17 11.0385L21.35 15.7885L21.33 15.8285L21.28 15.8185L18.81 13.2285L16.28 15.8185L16.24 15.8285Z" fill="#F1CD0D"/>
<path fill-rule="evenodd" clip-rule="evenodd" d="M19.1697 11.0097C19.3197 11.1097 19.4597 11.1097 19.5497 11.1097C19.2597 10.8697 19.1697 10.2597 19.1997 9.99971C19.2597 9.46971 19.1397 9.17971 18.8497 9.10971C18.7897 9.10971 18.7597 9.07971 18.6397 9.07971C18.5497 9.04971 18.4797 9.14971 18.4497 9.20971C18.3597 9.14971 18.2897 9.18971 18.1997 9.11971C18.1097 9.08971 17.9697 9.11971 17.9697 9.34971L18.0297 9.31971C18.0597 9.31971 18.1097 9.35971 18.1697 9.38971C18.2397 9.44971 18.3497 9.50971 18.3797 9.73971C18.4397 10.2297 18.3797 10.6797 17.9697 11.1197C18.0597 11.1197 18.1997 11.1197 18.3397 11.0197C18.2897 11.1197 18.2597 11.1497 18.1997 11.2197C18.3697 11.1797 18.5197 11.1197 18.5997 10.9597L18.7497 11.1897L18.8997 10.9597C18.9797 11.1197 19.1297 11.1897 19.2997 11.2197L19.1697 11.0097Z" fill="#FEFEFE"/>
<path fill-rule="evenodd" clip-rule="evenodd" d="M18.9106 10.8693L18.9506 10.9293C19.0006 11.0193 19.0906 11.0993 19.2106 11.1293L19.1506 11.0293L19.2006 10.9693C19.2906 11.0293 19.3806 11.0493 19.4606 11.0593C19.2106 10.7793 19.1506 10.2293 19.1706 9.9993C19.2206 9.4893 19.1206 9.2093 18.8506 9.1493C18.8306 9.1693 18.8106 9.1493 18.7806 9.1393C18.7355 9.12457 18.6881 9.1178 18.6406 9.1193C18.5506 9.1193 18.5106 9.1993 18.4906 9.2193L18.4706 9.2593L18.4406 9.2393C18.4006 9.1993 18.3606 9.1993 18.3306 9.1993C18.2906 9.1893 18.2406 9.1793 18.1906 9.1393C18.1706 9.1293 18.0406 9.0893 18.0206 9.2693C18.0706 9.2693 18.1106 9.2993 18.1606 9.3293L18.2206 9.3793C18.3006 9.4393 18.3906 9.5093 18.4206 9.7193C18.4606 10.0993 18.4606 10.5993 18.0706 11.0493C18.1506 11.0493 18.2506 11.0193 18.3406 10.9593L18.3906 11.0193C18.3606 11.0593 18.3506 11.0993 18.3206 11.1193C18.4335 11.091 18.5306 11.0191 18.5906 10.9193L18.6206 10.8593L18.6506 10.9193L18.7206 11.0293L18.7706 11.0993L18.8106 11.0293C18.8291 10.9928 18.8527 10.9591 18.8806 10.9293L18.9106 10.8693ZM18.1106 11.2693L18.1906 11.1793L18.2506 11.1193C18.1506 11.1493 18.0506 11.1493 17.9806 11.1493H17.8906L17.9606 11.0693C18.3006 10.7093 18.4206 10.3093 18.3506 9.7293C18.3306 9.5593 18.2606 9.5093 18.1906 9.4493L18.1506 9.4193L18.0306 9.3593L17.9506 9.3993V9.3393C17.9506 9.0693 18.1206 9.0193 18.2306 9.0693C18.2706 9.0993 18.3106 9.1093 18.3506 9.1193L18.4606 9.1493C18.4906 9.0993 18.5506 9.0293 18.6206 9.0293L18.8006 9.0593L18.8606 9.0693C19.1706 9.1393 19.3006 9.4593 19.2406 10.0093C19.2106 10.2693 19.3106 10.8593 19.5806 11.0693L19.6806 11.1493H19.5606C19.5006 11.1493 19.4006 11.1493 19.3006 11.1193L19.3506 11.1893L19.4306 11.2693L19.3106 11.2493C19.2332 11.2402 19.1585 11.2151 19.0913 11.1755C19.0242 11.1359 18.966 11.0827 18.9206 11.0193L18.8706 11.0893L18.8006 11.1893L18.7706 11.2493L18.7406 11.1893C18.7244 11.1515 18.7006 11.1175 18.6706 11.0893L18.6206 11.0193C18.5752 11.0827 18.5171 11.1359 18.4499 11.1755C18.3827 11.2151 18.3081 11.2402 18.2306 11.2493L18.1106 11.2693Z" fill="#F1CD0D"/>
<path fill-rule="evenodd" clip-rule="evenodd" d="M19.19 11.0783C19.175 11.0756 19.1612 11.0686 19.15 11.0583C19.07 10.8683 18.98 10.6683 18.98 10.3783C18.98 10.3383 19.06 10.3383 19.06 10.3783C19.06 10.6383 19.14 10.8283 19.22 11.0083C19.23 11.0383 19.22 11.0583 19.2 11.0683L19.19 11.0783ZM18.92 10.9883C18.91 10.9883 18.89 10.9883 18.89 10.9683C18.83 10.8683 18.79 10.6683 18.79 10.3883C18.79 10.3483 18.87 10.3483 18.87 10.3883C18.87 10.6483 18.9 10.8383 18.95 10.9283C18.96 10.9483 18.95 10.9683 18.94 10.9883H18.92ZM18.34 11.0783H18.32C18.3 11.0683 18.3 11.0483 18.31 11.0183C18.39 10.8483 18.47 10.6483 18.47 10.3883C18.47 10.3483 18.55 10.3483 18.55 10.3883C18.55 10.6783 18.47 10.8783 18.38 11.0683L18.34 11.0783ZM18.62 10.9883H18.6C18.58 10.9683 18.58 10.9483 18.59 10.9283C18.64 10.8283 18.68 10.6483 18.68 10.3883C18.68 10.3483 18.75 10.3483 18.75 10.3883C18.75 10.6683 18.72 10.8683 18.66 10.9683C18.6488 10.9786 18.635 10.9856 18.62 10.9883ZM18 9.30828C18.06 9.31828 18.08 9.33828 18.17 9.38828C18.23 9.41828 18.35 9.49828 18.39 9.69828C18.35 9.59828 18.42 9.49828 18.48 9.53828C18.39 9.29828 18.12 9.24828 18 9.30828Z" fill="#F1CD0D"/>
<path fill-rule="evenodd" clip-rule="evenodd" d="M18.06 9.30977L18.14 9.33977L18.18 9.36977C18.2622 9.41999 18.3282 9.49292 18.37 9.57977L18.4 9.54977L18.46 9.51977C18.4246 9.44657 18.3666 9.38667 18.2946 9.34887C18.2226 9.31107 18.1404 9.29736 18.06 9.30977ZM18.39 9.71977L18.37 9.70977V9.69977L18.36 9.65977C18.3293 9.55056 18.2577 9.45741 18.16 9.39977L18.13 9.35977L18.12 9.37977C18.07 9.34977 18.05 9.32977 18 9.32977C18.03 9.26977 18.06 9.25977 18.11 9.25977C18.25 9.25977 18.43 9.33977 18.5 9.51977L18.48 9.53977H18.46C18.4 9.57977 18.4 9.61977 18.4 9.64977V9.66977L18.41 9.69977L18.39 9.71977ZM18.88 13.6998L19.23 15.4898L19.11 15.6298L19 15.5198L18.8 13.9198L18.88 15.5198L18.77 15.6998L18.65 15.5198L18.73 13.9198L18.54 15.5198L18.42 15.6298L18.3 15.4898L18.65 13.6998H18.88Z" fill="#F1CD0D"/>
<path fill-rule="evenodd" clip-rule="evenodd" d="M18.8502 13.7091L18.6502 13.7391L18.3402 15.4991L18.4502 15.5891L18.5202 15.4791L18.7102 13.8991H18.8302L19.0302 15.4991L19.1402 15.5691L19.2102 15.4391L18.8502 13.7091ZM18.7702 13.9491L18.8602 15.4991L18.7702 15.6291L18.6902 15.5191L18.7702 13.9491ZM18.7702 15.7491L18.6302 15.5491L18.6602 14.7791L18.5702 15.5291L18.4402 15.6491L18.2802 15.5191L18.6202 13.6891L18.8802 13.6591L19.2602 15.4891L19.1402 15.6591L18.9702 15.5591L18.8702 14.7691L18.9102 15.5291L18.7702 15.7491ZM16.7102 10.8691L16.5402 15.4891L16.2402 15.7891L16.4202 11.0391C16.5002 10.9691 16.6502 10.8691 16.7102 10.8691ZM17.0602 11.2091L16.9102 15.0691L16.6202 15.4091L16.8002 10.9391C16.8502 11.0091 17.0202 11.1691 17.0602 11.2091ZM17.3702 11.4991L17.2602 14.7191L17.0302 14.9791L17.1802 11.2991C17.2302 11.3691 17.3402 11.4691 17.3702 11.4991ZM17.7202 11.6691L17.6002 14.4091L17.3702 14.6191L17.4902 11.5691C17.5502 11.5891 17.6602 11.6691 17.7202 11.6691ZM18.0402 11.6691L17.9602 13.9591L17.7202 14.2091L17.8102 11.6891C17.8702 11.6991 18.0102 11.6991 18.0402 11.6691ZM20.8302 10.8691L21.0002 15.4891L21.2902 15.7891L21.1102 11.0391C21.0302 10.9691 20.8902 10.8691 20.8302 10.8691ZM20.4802 11.2091L20.6302 15.0691L20.9202 15.3691L20.7402 10.9491L20.4802 11.2091ZM20.1602 11.4991L20.2802 14.7191L20.5102 14.9191L20.3602 11.2991L20.1602 11.4991ZM19.8102 11.6691L19.9202 14.3591L20.1502 14.5791L20.0402 11.5691C19.9902 11.5891 19.8702 11.6691 19.8102 11.6691ZM19.4902 11.6691L19.5802 13.9591L19.8102 14.2091L19.7202 11.6891C19.6702 11.6991 19.5202 11.6991 19.4902 11.6691Z" fill="#F1CD0D"/>
<path fill-rule="evenodd" clip-rule="evenodd" d="M17.98 12.9102L17.29 15.7002L18.24 15.8502L18.65 13.7602L17.98 12.9102Z" fill="#FEFEFE"/>
<path fill-rule="evenodd" clip-rule="evenodd" d="M17.33 15.6491L18.21 15.7991L18.61 13.7391L18 12.9891L17.33 15.6491ZM18.24 15.8891L17.28 15.7291L17.25 15.7091V15.6891L17.95 12.8991C17.95 12.8791 17.96 12.8691 17.97 12.8691L18.01 12.8791L18.68 13.7391L18.28 15.8691L18.24 15.8891Z" fill="#F1CD0D"/>
<path fill-rule="evenodd" clip-rule="evenodd" d="M19.5499 12.9102L20.2499 15.7002L19.2899 15.8502L18.8799 13.7602L19.5499 12.9102Z" fill="#FEFEFE"/>
<path fill-rule="evenodd" clip-rule="evenodd" d="M19.5397 12.9894L18.9197 13.7794L19.3297 15.7994L20.2097 15.6494L19.5397 12.9894ZM19.2897 15.8894C19.2697 15.8894 19.2597 15.8794 19.2597 15.8594L18.8497 13.7594L19.5297 12.8694L19.5597 12.8594C19.5697 12.8594 19.5797 12.8694 19.5797 12.8894L20.2797 15.6794V15.6994L20.2497 15.7194L19.2897 15.8894ZM17.8397 14.1294C17.8297 14.1294 17.8297 14.1294 17.8397 14.1294C17.8197 14.1294 17.8097 14.1194 17.7997 14.0994L17.7197 13.8694C17.7197 13.8394 17.7197 13.8294 17.7397 13.8194C17.7597 13.7994 17.7797 13.8194 17.7897 13.8394L17.8497 14.0094L18.0697 13.7294C18.0797 13.7094 18.0997 13.7094 18.1197 13.7294C18.1397 13.7494 18.1397 13.7694 18.1197 13.7894L17.8597 14.1194L17.8397 14.1294Z" fill="#F1CD0D"/>
<path fill-rule="evenodd" clip-rule="evenodd" d="M18.1603 14.3184C18.1403 14.3184 18.1203 14.3084 18.1203 14.2884L18.0303 13.3684C18.0303 13.3484 18.0503 13.3184 18.0703 13.3184C18.0903 13.3084 18.1103 13.3384 18.1103 13.3584L18.1903 14.1584L18.4203 13.8284C18.4303 13.8084 18.4603 13.7984 18.4703 13.8184C18.4903 13.8284 18.4903 13.8584 18.4803 13.8784L18.1903 14.3084L18.1603 14.3184Z" fill="#F1CD0D"/>
<path fill-rule="evenodd" clip-rule="evenodd" d="M18.5 14.5596L18.46 14.5296L18.29 14.0296C18.28 14.0196 18.29 13.9896 18.31 13.9796C18.33 13.9696 18.35 13.9796 18.36 13.9996L18.53 14.4796C18.54 14.5096 18.53 14.5296 18.51 14.5396C18.52 14.5596 18.51 14.5596 18.5 14.5596ZM18.24 14.9496H18.23L18.2 14.9196L18.08 14.4896L17.98 14.6896C17.97 14.7096 17.96 14.7296 17.95 14.7196C17.93 14.7196 17.92 14.6996 17.91 14.6896L17.81 14.4196L17.59 14.6396C17.58 14.6596 17.55 14.6596 17.54 14.6396V14.5796L17.8 14.3196H17.83L17.86 14.3396L17.95 14.5796L18.05 14.3596L18.09 14.3396C18.11 14.3396 18.12 14.3496 18.12 14.3696L18.25 14.8296L18.44 14.6096H18.49C18.5 14.6296 18.5 14.6596 18.49 14.6796L18.25 14.9396L18.24 14.9496ZM18.34 15.5396C18.32 15.5396 18.3 15.5296 18.3 15.4996L18.23 15.0996L18.05 15.3496C18.04 15.3696 18.03 15.3696 18.01 15.3696L17.98 15.3396L17.89 15.0196L17.73 15.2496C17.72 15.2696 17.71 15.2696 17.7 15.2696L17.67 15.2396L17.49 14.7496C17.48 14.7296 17.49 14.7096 17.51 14.6996C17.53 14.6896 17.55 14.6996 17.56 14.7296L17.72 15.1496L17.88 14.9096L17.91 14.8996C17.93 14.8996 17.94 14.9096 17.94 14.9296L18.03 15.2496L18.21 14.9796C18.22 14.9696 18.23 14.9596 18.25 14.9696L18.28 14.9996L18.37 15.4896C18.37 15.5096 18.36 15.5296 18.34 15.5396ZM18.1 15.8996C18.09 15.8896 18.09 15.8996 18.1 15.8996L18.07 15.8696L17.98 15.5696L17.85 15.8196C17.85 15.8396 17.83 15.8496 17.81 15.8396L17.78 15.8196L17.66 15.4596L17.53 15.6696C17.52 15.6896 17.49 15.6896 17.48 15.6796C17.47 15.6596 17.46 15.6396 17.47 15.6096L17.64 15.3496C17.6511 15.3393 17.665 15.3323 17.68 15.3296L17.71 15.3596L17.83 15.7096L17.96 15.4496L18 15.4296C18.02 15.4296 18.03 15.4496 18.03 15.4496L18.13 15.7896L18.26 15.6596C18.27 15.6496 18.3 15.6496 18.32 15.6696V15.7296L18.14 15.8996H18.1ZM19.7 14.1296L19.67 14.1196L19.41 13.7896V13.7396C19.42 13.7196 19.45 13.7196 19.46 13.7396L19.68 14.0096L19.74 13.8396C19.75 13.8196 19.77 13.7996 19.8 13.8196C19.82 13.8296 19.83 13.8496 19.82 13.8696L19.73 14.0896C19.73 14.1196 19.72 14.1296 19.7 14.1296Z" fill="#F1CD0D"/>
<path fill-rule="evenodd" clip-rule="evenodd" d="M19.3803 14.3184L19.3503 14.3084L19.0603 13.8784C19.0503 13.8584 19.0503 13.8284 19.0703 13.8184C19.0903 13.7984 19.1103 13.7984 19.1203 13.8284L19.3503 14.1584L19.4303 13.3584C19.4303 13.3384 19.4503 13.3184 19.4703 13.3184C19.4903 13.3184 19.5103 13.3484 19.5003 13.3684L19.4203 14.2784C19.4203 14.2984 19.4003 14.3084 19.3903 14.3084L19.3803 14.3184Z" fill="#F1CD0D"/>
<path fill-rule="evenodd" clip-rule="evenodd" d="M19.0303 14.5585L19.0103 14.5485C18.9903 14.5385 18.9803 14.5185 18.9903 14.4885L19.1603 13.9985C19.1703 13.9785 19.1903 13.9685 19.2103 13.9785C19.2303 13.9885 19.2403 14.0185 19.2303 14.0285L19.0603 14.5285C19.0603 14.5385 19.0503 14.5585 19.0303 14.5585ZM19.2903 14.9485L19.2703 14.9385L19.0403 14.6785C19.0311 14.6692 19.026 14.6566 19.026 14.6435C19.026 14.6304 19.0311 14.6179 19.0403 14.6085C19.0503 14.5885 19.0803 14.5885 19.1003 14.6085L19.2803 14.8185L19.3803 14.3685C19.3803 14.3485 19.4003 14.3385 19.4103 14.3385C19.4303 14.3285 19.4403 14.3385 19.4503 14.3585L19.5803 14.5885L19.6703 14.3385C19.6703 14.3185 19.6903 14.3185 19.6903 14.3185H19.7303L19.9903 14.5785C20.0103 14.5885 20.0103 14.6085 19.9903 14.6385C19.9803 14.6585 19.9503 14.6585 19.9403 14.6385L19.7203 14.4185L19.6203 14.6885C19.6203 14.7085 19.6003 14.7185 19.5903 14.7185L19.5603 14.6985L19.4403 14.4785L19.3403 14.9085C19.3403 14.9185 19.3303 14.9385 19.3103 14.9385L19.2903 14.9485ZM19.2003 15.5385C19.1703 15.5285 19.1603 15.5085 19.1603 15.4885L19.2503 14.9985C19.2503 14.9785 19.2603 14.9685 19.2803 14.9685C19.3003 14.9585 19.3103 14.9685 19.3203 14.9885L19.5103 15.2485L19.6003 14.9285C19.6003 14.9085 19.6203 14.9085 19.6303 14.8985L19.6703 14.9085L19.8303 15.1485L19.9803 14.7285C19.9903 14.6985 20.0103 14.6885 20.0303 14.6985C20.0503 14.7085 20.0603 14.7385 20.0503 14.7585L19.8703 15.2485C19.8703 15.2685 19.8503 15.2785 19.8403 15.2785L19.8003 15.2585L19.6403 15.0285L19.5403 15.3485C19.5403 15.3685 19.5203 15.3785 19.5103 15.3785C19.5003 15.3885 19.4803 15.3785 19.4703 15.3585L19.2903 15.1085L19.2403 15.4985C19.2303 15.5185 19.2203 15.5385 19.2003 15.5385ZM19.4403 15.8985L19.4103 15.8885L19.2303 15.7185C19.2103 15.7085 19.2103 15.6885 19.2203 15.6685C19.2403 15.6485 19.2603 15.6485 19.2803 15.6585L19.4103 15.7885L19.5003 15.4485L19.5303 15.4285L19.5703 15.4485L19.7003 15.7085L19.8203 15.3585L19.8503 15.3285C19.8603 15.3285 19.8803 15.3285 19.8903 15.3485L20.0603 15.6085C20.0703 15.6385 20.0703 15.6585 20.0503 15.6785C20.0403 15.6885 20.0103 15.6885 20.0003 15.6685L19.8703 15.4585L19.7503 15.8185C19.7503 15.8385 19.7303 15.8385 19.7203 15.8385C19.7103 15.8485 19.6903 15.8385 19.6803 15.8185L19.5503 15.5785L19.4603 15.8785C19.4603 15.8985 19.4403 15.9085 19.4303 15.9085L19.4403 15.8985Z" fill="#F1CD0D"/>
<path fill-rule="evenodd" clip-rule="evenodd" d="M18.7699 11.3086C19.0599 11.5686 19.4399 11.6986 19.8699 11.6686C19.8399 12.8086 19.5499 13.5986 18.7699 14.1886C17.9799 13.5986 17.6999 12.8186 17.6699 11.6686C18.0999 11.6986 18.4799 11.5686 18.7699 11.3086Z" fill="#FEFEFE"/>
<path fill-rule="evenodd" clip-rule="evenodd" d="M17.6606 11.6993C17.7206 12.8593 18.0506 13.5993 18.7606 14.1493C19.4806 13.5893 19.8106 12.8593 19.8406 11.6693C19.8306 11.7093 19.7906 11.7093 19.7506 11.7093C19.3706 11.7093 19.0206 11.5793 18.7506 11.3393C18.5206 11.5793 18.1706 11.7093 17.7906 11.7093L17.6606 11.6993ZM18.7706 14.2193L18.7506 14.2093C18.0006 13.6393 17.6706 12.8793 17.6406 11.6593C17.7106 11.6293 17.7506 11.6293 17.7906 11.6393C18.1606 11.6393 18.5006 11.5093 18.7506 11.2793C19.0806 11.5393 19.4406 11.6693 19.8706 11.6393C19.8706 12.8893 19.5306 13.6493 18.7906 14.2193H18.7706Z" fill="#F1CD0D"/>
<path fill-rule="evenodd" clip-rule="evenodd" d="M18.77 14.0495C19.38 13.5995 19.73 12.8095 19.76 11.7595C19.38 11.7595 19 11.6695 18.77 11.4395C18.51 11.6695 18.16 11.7595 17.75 11.7595C17.81 12.8095 18.16 13.5995 18.77 14.0495Z" fill="#F1CD0D"/>
<path fill-rule="evenodd" clip-rule="evenodd" d="M17.7897 11.7987C17.8597 12.7987 18.1897 13.5587 18.7697 14.0087C19.3497 13.5587 19.6897 12.7987 19.7197 11.7987C19.4697 11.7887 19.0497 11.7487 18.7697 11.4887C18.5197 11.6887 18.1997 11.7887 17.7897 11.7987ZM18.7697 14.0987H18.7497C18.1297 13.6287 17.7797 12.8287 17.7197 11.7787L17.7297 11.7487L17.7497 11.7287C18.1797 11.7287 18.4997 11.6287 18.7397 11.4187C18.7597 11.4087 18.7697 11.4087 18.7897 11.4287C18.9897 11.6187 19.3397 11.7387 19.7597 11.7387L19.7797 11.7587L19.7897 11.7887C19.7597 12.8287 19.4097 13.6387 18.7797 14.1087C18.7797 14.0887 18.7697 14.0987 18.7697 14.0987Z" fill="#F1CD0D"/>
<path fill-rule="evenodd" clip-rule="evenodd" d="M17.7801 15.6984C18.0101 15.7284 18.2701 15.7584 18.4801 15.7284C18.5901 15.7284 18.6801 15.9584 18.4501 15.9884C18.2401 16.0184 17.9201 15.9884 17.7501 15.9484C17.6001 15.9184 17.2901 15.8584 17.0801 15.7884C16.8801 15.6984 17.0201 15.4884 17.1401 15.5284C17.3201 15.5884 17.5501 15.6484 17.7801 15.6984Z" fill="#FEFEFE"/>
<path fill-rule="evenodd" clip-rule="evenodd" d="M17.1301 15.5685C17.0801 15.5685 17.0301 15.5985 17.0201 15.6485C17.0101 15.7085 17.0601 15.7285 17.1001 15.7585C17.3001 15.8185 17.6201 15.8885 17.7601 15.9085C17.9201 15.9485 18.2401 15.9685 18.4401 15.9485C18.5101 15.9385 18.5501 15.8985 18.5501 15.8585C18.5501 15.8185 18.5201 15.7685 18.4801 15.7685C18.2701 15.8085 17.9601 15.7685 17.7701 15.7385C17.4901 15.6985 17.2501 15.6085 17.1301 15.5685ZM18.2501 16.0385C18.0601 16.0385 17.8601 16.0185 17.7501 15.9985C17.6101 15.9685 17.2801 15.8985 17.0801 15.8285C16.9401 15.7585 16.9401 15.6685 16.9501 15.6285C16.9701 15.5385 17.0401 15.4785 17.1201 15.4785C17.2801 15.5285 17.5101 15.6085 17.7901 15.6485C17.9701 15.6785 18.2701 15.7085 18.4801 15.6885C18.5601 15.6885 18.6301 15.7585 18.6401 15.8485C18.6401 15.9185 18.6001 16.0085 18.4601 16.0285L18.2501 16.0385Z" fill="#F1CD0D"/>
<path fill-rule="evenodd" clip-rule="evenodd" d="M19.7603 15.6984C19.5203 15.7284 19.2603 15.7584 19.0603 15.7284C18.9403 15.7284 18.8603 15.9584 19.0903 15.9884C19.2903 16.0184 19.6203 15.9884 19.7903 15.9484C19.9403 15.9184 20.2503 15.8584 20.4603 15.7884C20.6603 15.6984 20.5203 15.4884 20.4003 15.5284C20.2203 15.5884 19.9903 15.6484 19.7603 15.6984Z" fill="#FEFEFE"/>
<path fill-rule="evenodd" clip-rule="evenodd" d="M19.0504 15.7597C19.0104 15.7597 18.9704 15.8097 18.9704 15.8497C18.9704 15.8897 19.0104 15.9297 19.0904 15.9397C19.3004 15.9597 19.6204 15.9397 19.7804 15.8997C19.9204 15.8697 20.2404 15.8097 20.4504 15.7497C20.4804 15.7297 20.5304 15.6997 20.5204 15.6397C20.5157 15.6167 20.5032 15.5962 20.4849 15.5816C20.4666 15.5669 20.4438 15.5592 20.4204 15.5597C20.2904 15.5997 20.0404 15.6897 19.7604 15.7197C19.5604 15.7597 19.2704 15.7997 19.0504 15.7597ZM19.2904 16.0397C19.2104 16.0397 19.1504 16.0397 19.0904 16.0197C18.9504 15.9997 18.9004 15.9197 18.9104 15.8397C18.9104 15.7497 18.9904 15.6797 19.0704 15.6797C19.3004 15.6997 19.5804 15.6697 19.7604 15.6397C20.0404 15.5997 20.2704 15.5197 20.3904 15.4797C20.5004 15.4597 20.5804 15.5397 20.6004 15.6197C20.6104 15.6597 20.6104 15.7497 20.4804 15.8197L19.8004 15.9897C19.6704 16.0197 19.4704 16.0397 19.2904 16.0397Z" fill="#F1CD0D"/>
<path fill-rule="evenodd" clip-rule="evenodd" d="M17.0604 15.5593C16.8904 15.5193 16.8004 15.7493 16.8604 15.8793C16.8904 15.8093 17.0104 15.8093 17.0304 15.7493C17.0604 15.6493 17.0004 15.6493 17.0604 15.5593Z" fill="#FEFEFE"/>
<path fill-rule="evenodd" clip-rule="evenodd" d="M16.9901 15.6098C16.9401 15.6298 16.9101 15.6498 16.9001 15.6898C16.8798 15.7265 16.8695 15.7678 16.8701 15.8098L16.9201 15.7798C16.9501 15.7598 16.9801 15.7598 16.9801 15.7298V15.6698L16.9901 15.6098ZM16.8501 15.9298L16.8201 15.9098C16.8013 15.8665 16.7932 15.8193 16.7967 15.7723C16.8002 15.7252 16.8151 15.6797 16.8401 15.6398C16.8801 15.5598 16.9501 15.5098 17.0301 15.5098L17.0801 15.5398L17.1001 15.5798C17.0701 15.6198 17.0801 15.6298 17.0801 15.6498C17.0801 15.6798 17.0901 15.7098 17.0701 15.7598C17.0501 15.8198 17.0001 15.8398 16.9601 15.8598C16.9344 15.8685 16.9107 15.882 16.8901 15.8998C16.8801 15.9198 16.8701 15.9298 16.8501 15.9298Z" fill="#F1CD0D"/>
<path fill-rule="evenodd" clip-rule="evenodd" d="M17.7506 16.16C17.7506 16.02 17.8706 16.04 17.8706 15.91C17.8706 15.85 17.8406 15.75 17.7806 15.75C17.7206 15.75 17.6606 15.81 17.6606 15.88C17.6406 16.01 17.7506 16.03 17.7506 16.16Z" fill="#FEFEFE"/>
<path fill-rule="evenodd" clip-rule="evenodd" d="M17.7804 15.7992C17.7404 15.7992 17.7004 15.8492 17.7004 15.8892C17.6904 15.9492 17.7104 15.9692 17.7304 16.0092L17.7504 16.0392L17.7804 16.0092C17.8104 15.9792 17.8304 15.9692 17.8304 15.9192C17.8304 15.8592 17.8004 15.7992 17.7804 15.7992ZM17.7504 16.2092C17.7304 16.2092 17.7204 16.1892 17.7204 16.1692C17.7204 16.1192 17.7004 16.0892 17.6804 16.0592C17.6504 16.0192 17.6104 15.9692 17.6304 15.8692C17.6304 15.7892 17.7004 15.6992 17.7904 15.6992C17.8804 15.6992 17.9204 15.8292 17.9204 15.9092C17.9204 15.9992 17.8804 16.0392 17.8504 16.0692C17.8204 16.0892 17.8104 16.1092 17.8104 16.1592C17.7904 16.1892 17.7704 16.2092 17.7504 16.2092Z" fill="#F1CD0D"/>
<path fill-rule="evenodd" clip-rule="evenodd" d="M18.58 15.7891C18.75 15.7891 18.73 16.0491 18.65 16.1791C18.65 16.0891 18.5 16.0491 18.5 15.9891C18.5 15.8891 18.63 15.8891 18.58 15.7891Z" fill="#FEFEFE"/>
<path fill-rule="evenodd" clip-rule="evenodd" d="M18.6297 15.8385C18.6286 15.8549 18.6235 15.8708 18.6148 15.8848C18.606 15.8987 18.594 15.9103 18.5797 15.9185C18.5497 15.9385 18.5397 15.9585 18.5397 15.9785C18.5397 15.9885 18.5697 16.0085 18.5897 16.0085L18.6597 16.0685C18.6797 15.9985 18.6897 15.9185 18.6597 15.8685L18.6297 15.8385ZM18.6497 16.2185L18.6397 16.2085L18.6197 16.1685C18.6197 16.1385 18.5797 16.1185 18.5497 16.0885C18.5097 16.0585 18.4697 16.0185 18.4697 15.9785C18.4697 15.9085 18.5097 15.8785 18.5397 15.8485C18.5297 15.8285 18.5397 15.7885 18.5397 15.7785L18.5797 15.7285C18.6497 15.7285 18.6997 15.7585 18.7297 15.8285C18.7619 15.9493 18.7476 16.0777 18.6897 16.1885C18.6797 16.2185 18.6597 16.2185 18.6497 16.2185Z" fill="#F1CD0D"/>
<path fill-rule="evenodd" clip-rule="evenodd" d="M20.4805 15.5593C20.6605 15.5193 20.7405 15.7493 20.6905 15.8793C20.6605 15.8093 20.5405 15.8093 20.5205 15.7493C20.4805 15.6493 20.5305 15.6493 20.4805 15.5593Z" fill="#FEFEFE"/>
<path fill-rule="evenodd" clip-rule="evenodd" d="M20.5405 15.5987V15.6687C20.5405 15.6887 20.5305 15.6987 20.5405 15.7387C20.5405 15.7587 20.5805 15.7587 20.6105 15.7787C20.6305 15.7787 20.6405 15.7987 20.6605 15.8087C20.6611 15.7667 20.6508 15.7254 20.6305 15.6887C20.6254 15.6667 20.6143 15.6467 20.5984 15.6308C20.5825 15.6148 20.5624 15.6037 20.5405 15.5987ZM20.6805 15.9287L20.6405 15.9087C20.6405 15.8887 20.6005 15.8787 20.5705 15.8687C20.5305 15.8487 20.4805 15.8287 20.4605 15.7787C20.4405 15.7187 20.4505 15.6987 20.4505 15.6587L20.4305 15.5887C20.4256 15.5832 20.4229 15.5761 20.4229 15.5687C20.4229 15.5613 20.4256 15.5542 20.4305 15.5487L20.4605 15.5187C20.5905 15.5087 20.6505 15.5687 20.6905 15.6387C20.7405 15.7187 20.7405 15.8287 20.7105 15.9087C20.7105 15.9187 20.7005 15.9287 20.6805 15.9287Z" fill="#F1CD0D"/>
<path fill-rule="evenodd" clip-rule="evenodd" d="M19.7799 16.16C19.7799 16.02 19.6699 16.04 19.6699 15.91C19.6699 15.85 19.6999 15.75 19.7599 15.75C19.8199 15.75 19.8699 15.81 19.8699 15.88C19.8999 16.01 19.7799 16.03 19.7799 16.16Z" fill="#FEFEFE"/>
<path fill-rule="evenodd" clip-rule="evenodd" d="M19.7599 15.799C19.7399 15.799 19.7099 15.859 19.7099 15.919C19.7099 15.969 19.7299 15.989 19.7499 16.009L19.7799 16.039L19.8099 16.009C19.8399 15.969 19.8499 15.959 19.8399 15.899C19.8299 15.839 19.7899 15.799 19.7599 15.799ZM19.7799 16.209C19.7693 16.209 19.7591 16.2048 19.7516 16.1973C19.7441 16.1898 19.7399 16.1796 19.7399 16.169C19.7399 16.119 19.7199 16.099 19.6999 16.079C19.6699 16.049 19.6299 16.009 19.6299 15.919C19.6299 15.839 19.6699 15.709 19.7599 15.709C19.8399 15.709 19.9199 15.799 19.9199 15.889C19.9238 15.9192 19.9214 15.95 19.9128 15.9792C19.9041 16.0085 19.8895 16.0357 19.8699 16.059C19.8447 16.0902 19.8306 16.1289 19.8299 16.169C19.8199 16.189 19.7999 16.209 19.7799 16.209Z" fill="#F1CD0D"/>
<path fill-rule="evenodd" clip-rule="evenodd" d="M18.96 15.7891C18.79 15.7891 18.8 16.0491 18.89 16.1791C18.89 16.0891 19.04 16.0491 19.04 15.9891C19.03 15.8891 18.9 15.8891 18.96 15.7891Z" fill="#FEFEFE"/>
<path fill-rule="evenodd" clip-rule="evenodd" d="M18.9 15.8383C18.8876 15.8497 18.8775 15.8633 18.87 15.8783C18.84 15.9283 18.85 16.0083 18.88 16.0783L18.94 16.0183L18.99 15.9883C18.99 15.9683 18.98 15.9483 18.95 15.9283C18.9232 15.9051 18.9055 15.8732 18.9 15.8383ZM18.88 16.2183L18.85 16.1983C18.79 16.0983 18.75 15.9483 18.81 15.8383C18.84 15.7683 18.89 15.7383 18.96 15.7383L18.99 15.7583V15.8083C19.04 15.8783 19.07 15.9083 19.07 15.9883C19.07 16.0283 19.03 16.0683 18.99 16.0983C18.96 16.1283 18.92 16.1483 18.92 16.1783C18.92 16.1983 18.91 16.2183 18.89 16.2183H18.88Z" fill="#F1CD0D"/>
<path fill-rule="evenodd" clip-rule="evenodd" d="M17.1104 15.6289C17.1704 15.6289 17.2604 15.6489 17.2804 15.6989L17.1104 15.6289Z" fill="#FEFEFE"/>
<path fill-rule="evenodd" clip-rule="evenodd" d="M17.2898 15.7196C17.2798 15.7196 17.2798 15.7196 17.2898 15.7196L17.1098 15.6596L17.0898 15.6296C17.0898 15.6096 17.0998 15.5996 17.1098 15.5996C17.1698 15.5996 17.2698 15.6296 17.3098 15.6796V15.7096L17.2898 15.7196Z" fill="#F1CD0D"/>
<path fill-rule="evenodd" clip-rule="evenodd" d="M17.4004 15.7188C17.4304 15.7188 17.5504 15.7487 17.6004 15.7887L17.4004 15.7188Z" fill="#FEFEFE"/>
<path fill-rule="evenodd" clip-rule="evenodd" d="M17.6001 15.8185L17.3901 15.7485L17.3701 15.7085C17.3801 15.6585 17.5301 15.6985 17.6201 15.7485C17.6301 15.7485 17.6401 15.7685 17.6301 15.7885C17.6201 15.8085 17.6201 15.8185 17.6001 15.8185Z" fill="#F1CD0D"/>
<path fill-rule="evenodd" clip-rule="evenodd" d="M18.4502 15.8496C18.3902 15.8496 18.2702 15.8496 18.2402 15.8796L18.4502 15.8496Z" fill="#FEFEFE"/>
<path fill-rule="evenodd" clip-rule="evenodd" d="M18.24 15.9101L18.21 15.8901L18.22 15.8601C18.25 15.8301 18.33 15.8301 18.45 15.8301C18.46 15.8301 18.47 15.8301 18.47 15.8501L18.45 15.8901L18.24 15.9101Z" fill="#F1CD0D"/>
<path fill-rule="evenodd" clip-rule="evenodd" d="M18.1299 15.8484C18.0999 15.8084 17.9799 15.8084 17.9199 15.8484H18.1299Z" fill="#FEFEFE"/>
<path fill-rule="evenodd" clip-rule="evenodd" d="M18.1306 15.8899H17.9206L17.8906 15.8599L17.9006 15.8299C17.9506 15.7999 18.0706 15.7599 18.1406 15.8299V15.8699C18.1506 15.8799 18.1406 15.8899 18.1306 15.8899Z" fill="#F1CD0D"/>
<path fill-rule="evenodd" clip-rule="evenodd" d="M20.42 15.6289C20.36 15.6289 20.28 15.6489 20.25 15.6989L20.42 15.6289Z" fill="#FEFEFE"/>
<path fill-rule="evenodd" clip-rule="evenodd" d="M20.2505 15.7194L20.2305 15.7094V15.6794C20.2846 15.6361 20.3512 15.6115 20.4205 15.6094C20.4305 15.6094 20.4505 15.6194 20.4505 15.6394C20.4505 15.6494 20.4505 15.6594 20.4305 15.6694L20.2505 15.7194Z" fill="#F1CD0D"/>
<path fill-rule="evenodd" clip-rule="evenodd" d="M20.1307 15.7188C20.06 15.7284 19.9919 15.7522 19.9307 15.7887L20.1307 15.7188Z" fill="#FEFEFE"/>
<path fill-rule="evenodd" clip-rule="evenodd" d="M19.9304 15.8186C19.9251 15.8186 19.92 15.8165 19.9162 15.8127C19.9125 15.809 19.9104 15.8039 19.9104 15.7986C19.9004 15.7786 19.9104 15.7586 19.9204 15.7586C20.0104 15.6986 20.1504 15.6686 20.1604 15.7186C20.1604 15.7386 20.1604 15.7486 20.1404 15.7586L19.9304 15.8186Z" fill="#F1CD0D"/>
<path fill-rule="evenodd" clip-rule="evenodd" d="M19.0801 15.8496C19.1401 15.8496 19.2601 15.8496 19.2801 15.8796L19.0801 15.8496Z" fill="#FEFEFE"/>
<path fill-rule="evenodd" clip-rule="evenodd" d="M19.2905 15.9084L19.0905 15.8784C19.0705 15.8784 19.0605 15.8584 19.0605 15.8384C19.0605 15.8184 19.0705 15.8184 19.0905 15.8184C19.2105 15.8184 19.2805 15.8184 19.3205 15.8484L19.3305 15.8784C19.3105 15.8984 19.3005 15.9184 19.2905 15.9084Z" fill="#F1CD0D"/>
<path fill-rule="evenodd" clip-rule="evenodd" d="M19.4004 15.8484C19.4304 15.8084 19.5504 15.8084 19.6104 15.8484H19.4004Z" fill="#FEFEFE"/>
<path fill-rule="evenodd" clip-rule="evenodd" d="M19.6102 15.8895H19.4002C19.3949 15.8895 19.3898 15.8874 19.3861 15.8836C19.3823 15.8799 19.3802 15.8748 19.3802 15.8695L19.3902 15.8295C19.4602 15.7595 19.5702 15.7995 19.6202 15.8295L19.6302 15.8595C19.6302 15.8795 19.6202 15.8895 19.6102 15.8895ZM19.1702 9.39948C19.1102 9.23948 19.0102 9.09948 18.8702 9.06948C18.8002 9.04948 18.7302 9.04948 18.6402 9.04948C18.5502 9.02948 18.4802 9.12948 18.4502 9.18948C18.5402 9.25948 18.5602 9.32948 18.6002 9.35948C18.6902 9.39948 18.7302 9.35948 18.8202 9.26948C18.9202 9.17948 19.1102 9.19948 19.1702 9.39948Z" fill="#F1CD0D"/>
<path fill-rule="evenodd" clip-rule="evenodd" d="M18.6307 9.07931C18.5507 9.07931 18.4907 9.14931 18.4607 9.20931C18.5107 9.21931 18.5407 9.25931 18.5607 9.28931L18.6107 9.34931C18.6907 9.37931 18.7207 9.35931 18.8107 9.25931C18.8807 9.18931 19.0007 9.18931 19.0907 9.24931C19.0346 9.17779 18.9577 9.12539 18.8707 9.09931C18.8247 9.08842 18.7778 9.08173 18.7307 9.07931H18.6307ZM18.6607 9.39931C18.6407 9.39931 18.6207 9.39931 18.5907 9.37931C18.5707 9.36931 18.5507 9.34931 18.5307 9.30931C18.5027 9.27103 18.469 9.23729 18.4307 9.20931C18.4407 9.14931 18.5107 9.02931 18.6007 9.02931H18.6807C18.7707 9.01931 18.8207 9.02931 18.8707 9.04931C19.0007 9.07931 19.1007 9.18931 19.1707 9.33931C19.0607 9.24931 18.9107 9.19931 18.8407 9.28931C18.7707 9.35931 18.7307 9.39931 18.6607 9.39931Z" fill="#F1CD0D"/>
<path fill-rule="evenodd" clip-rule="evenodd" d="M18.6205 9.14844C18.5705 9.14844 18.5705 9.24844 18.6205 9.24844C18.6805 9.24844 18.6805 9.14844 18.6205 9.14844Z" fill="#FEFEFE"/>
<path fill-rule="evenodd" clip-rule="evenodd" d="M18.6199 9.28969C18.5799 9.28969 18.5399 9.24969 18.5399 9.19969C18.5399 9.08969 18.7099 9.08969 18.7099 9.19969C18.6999 9.24969 18.6699 9.28969 18.6199 9.28969ZM19.1199 11.6497V13.7097C19.0199 13.8297 18.8999 13.9497 18.7699 14.0397C18.6392 13.9456 18.5216 13.8346 18.4199 13.7097V11.6397C18.5499 11.5797 18.6699 11.5097 18.7699 11.4297C18.8599 11.5297 18.9799 11.5997 19.1199 11.6497Z" fill="#FEFEFE"/>
</g>
</g>
<defs>
<clipPath id="clip0_26003_93512">
<rect width="38" height="25" fill="white" transform="translate(0 0.5)"/>
</clipPath>
<clipPath id="clip1_26003_93512">
<rect width="38" height="25" fill="white" transform="translate(0 0.5)"/>
</clipPath>
</defs>
</svg>
