<svg width="38" height="26" viewBox="0 0 38 26" fill="none" xmlns="http://www.w3.org/2000/svg">
<g clip-path="url(#clip0_26003_75657)">
<g clip-path="url(#clip1_26003_75657)">
<path fill-rule="evenodd" clip-rule="evenodd" d="M2.51004 25.4998H35.53C36.82 25.2498 37.84 24.0598 38 22.5798V3.42977C37.84 1.94977 36.82 0.759766 35.53 0.509766H2.51004C1.22004 0.759766 0.200039 1.94977 0.0400391 3.42977V22.5798C0.200039 24.0598 1.22004 25.2498 2.51004 25.4998Z" fill="#2D7347"/>
<path fill-rule="evenodd" clip-rule="evenodd" d="M0.0400391 14.0488H38V16.1288H0.0400391V14.0488Z" fill="#FEFEFE"/>
<path fill-rule="evenodd" clip-rule="evenodd" d="M0.0400391 11.959H38V14.039H0.0400391V11.959Z" fill="#242222"/>
<path fill-rule="evenodd" clip-rule="evenodd" d="M0.0400391 9.87891H38V11.9589H0.0400391V9.87891Z" fill="#F5D71C"/>
<path fill-rule="evenodd" clip-rule="evenodd" d="M16.25 0.509766H18.1V25.4998H16.25V0.509766Z" fill="#F5D71C"/>
<path fill-rule="evenodd" clip-rule="evenodd" d="M18.0996 0.509766H19.9396V25.4998H18.0996V0.509766Z" fill="#242222"/>
<path fill-rule="evenodd" clip-rule="evenodd" d="M19.9404 0.509766H21.7904V25.4998H19.9404V0.509766Z" fill="#FEFEFE"/>
<path fill-rule="evenodd" clip-rule="evenodd" d="M24.5605 13.0098C24.5605 16.4598 22.0805 19.2498 19.0205 19.2498C15.9605 19.2498 13.4805 16.4498 13.4805 13.0098C13.4805 9.55977 15.9605 6.75977 19.0205 6.75977C22.0805 6.75977 24.5605 9.55977 24.5605 13.0098Z" fill="#C8273C"/>
<path fill-rule="evenodd" clip-rule="evenodd" d="M18.8501 8.07L19.0301 7.5L19.1901 8.06L19.7301 8.07L19.3001 8.44L19.5001 9.07L19.0301 8.68L18.5701 9.05L18.7501 8.44L18.3301 8.08L18.8501 8.07Z" fill="#2D7347"/>
<path fill-rule="evenodd" clip-rule="evenodd" d="M19.0098 7.52C19.0098 7.61 18.8698 8.05 18.8598 8.07L18.3198 8.1L18.7498 8.42C18.7398 8.5 18.6198 8.95 18.5798 9.04C18.6298 8.96 18.9898 8.67 19.0098 8.66L19.4498 9L19.2698 8.44L19.6498 8.09L19.1698 8.08L19.0098 7.52ZM19.4798 9.11L19.4698 9.08C19.3228 8.94592 19.1692 8.8191 19.0098 8.7C18.9098 8.8 18.5998 9.04 18.5698 9.06C18.5498 9.01 18.6498 8.66 18.7198 8.43L18.2998 8.1L18.8298 8.06L18.9998 7.5L19.1998 8.06H19.7198L19.7298 8.05V8.08L19.7098 8.1C19.6298 8.19 19.4098 8.38 19.3198 8.46L19.5198 9.06V9.09L19.4798 9.11Z" fill="#242222"/>
<path fill-rule="evenodd" clip-rule="evenodd" d="M19.2003 17.9492L19.0203 18.5192L18.8603 17.9592L18.3203 17.9492L18.7503 17.5792L18.5603 16.9492L19.0303 17.3392L19.4903 16.9692L19.3103 17.5792L19.7303 17.9392L19.2003 17.9492Z" fill="#2D7347"/>
<path fill-rule="evenodd" clip-rule="evenodd" d="M18.3803 17.9292L18.8503 17.9392L19.0203 18.4592L19.1803 17.9492L19.7203 17.9192L19.2903 17.5992C19.3003 17.5292 19.4203 17.0792 19.4603 16.9792C19.4103 17.0592 19.0503 17.3392 19.0303 17.3592C18.8661 17.238 18.706 17.1112 18.5503 16.9792C18.6103 17.0692 18.7703 17.5692 18.7703 17.5692L18.3803 17.9292ZM19.0203 18.5892L18.8403 17.9692H18.3203V17.9592C18.3203 17.9392 18.3303 17.9292 18.3403 17.9292C18.4103 17.8392 18.6003 17.6792 18.7303 17.5692L18.5303 16.9692V16.9492C18.5803 16.9692 18.8603 17.1992 19.0203 17.3292L19.4603 16.9692L19.4803 16.9592L19.4703 16.9692V16.9892C19.4703 17.0792 19.3803 17.3892 19.3203 17.5992L19.7303 17.9292L19.2003 17.9792L19.0303 18.5392L19.0203 18.5892Z" fill="#242222"/>
<path fill-rule="evenodd" clip-rule="evenodd" d="M21.5902 9.48047L21.4102 10.0505L21.2402 9.49047L20.7002 9.48047L21.1302 9.11047L20.9402 8.48047L21.4102 8.87047L21.8702 8.50047L21.6902 9.11047L22.1102 9.47047L21.5902 9.48047Z" fill="#2D7347"/>
<path fill-rule="evenodd" clip-rule="evenodd" d="M20.7797 9.46047L21.2597 9.47047L21.4197 9.99047L21.5797 9.48047L22.1197 9.45047L21.6897 9.13047C21.6997 9.05047 21.8197 8.60047 21.8497 8.51047C21.7997 8.59047 21.4397 8.87047 21.4197 8.89047C21.2555 8.76923 21.0954 8.64249 20.9397 8.51047C20.9997 8.60047 21.1497 9.11047 21.1497 9.11047C21.1197 9.16047 20.8797 9.37047 20.7797 9.46047ZM21.4197 10.1205L21.2397 9.50047H20.7197L20.7297 9.49047C20.8522 9.34981 20.986 9.21938 21.1297 9.10047L20.9297 8.51047V8.48047L21.4197 8.86047L21.8597 8.49047L21.8797 8.48047L21.8697 8.49047L21.8797 8.50047H21.8597V8.52047C21.8597 8.61047 21.7697 8.92047 21.7097 9.13047L22.1297 9.47047L21.5997 9.50047L21.4297 10.0605L21.4197 10.1205Z" fill="#242222"/>
<path fill-rule="evenodd" clip-rule="evenodd" d="M23.1505 14.6094L22.9705 15.1794L22.8105 14.6194L22.2705 14.6094L22.7005 14.2394L22.5005 13.6094L22.9705 13.9994L23.4305 13.6294L23.2505 14.2394L23.6705 14.5994L23.1505 14.6094Z" fill="#2D7347"/>
<path fill-rule="evenodd" clip-rule="evenodd" d="M22.3305 14.5894L22.8105 14.5994L22.9705 15.1194L23.1305 14.6094L23.6805 14.5794L23.2505 14.2594C23.2605 14.1794 23.3805 13.7394 23.4105 13.6394C23.3605 13.7194 23.0005 13.9994 22.9805 14.0194C22.8163 13.8981 22.6562 13.7714 22.5005 13.6394C22.5605 13.7294 22.7105 14.2394 22.7105 14.2394L22.3305 14.5894ZM22.9705 15.2494L22.7905 14.6294H22.2705V14.6194C22.2705 14.5994 22.2805 14.5894 22.2905 14.5894L22.6705 14.2294L22.4705 13.6294V13.6094C22.5205 13.6294 22.7905 13.8594 22.9605 13.9894L23.4005 13.6194L23.4205 13.6094L23.4105 13.6194V13.6394C23.4105 13.7294 23.3205 14.0494 23.2605 14.2494L23.6705 14.5894L23.1405 14.6294L22.9705 15.1894V15.2494Z" fill="#242222"/>
<path fill-rule="evenodd" clip-rule="evenodd" d="M15.2501 14.7598L15.0701 15.3298L14.9101 14.7698L14.3701 14.7598L14.8001 14.3898L14.6101 13.7598L15.0801 14.1498L15.5401 13.7798L15.3601 14.3898L15.7801 14.7498L15.2501 14.7598Z" fill="#2D7347"/>
<path fill-rule="evenodd" clip-rule="evenodd" d="M14.4301 14.73L14.9101 14.74L15.0701 15.26L15.2301 14.75L15.7701 14.73L15.3401 14.41L15.5101 13.79C15.4601 13.87 15.1001 14.16 15.0801 14.17C14.9159 14.0488 14.7558 13.922 14.6001 13.79C14.6601 13.88 14.8201 14.39 14.8201 14.39L14.4301 14.73ZM15.0701 15.39L14.8901 14.77H14.3701L14.3801 14.76C14.5055 14.6221 14.6391 14.4919 14.7801 14.37C14.7093 14.1724 14.646 13.9723 14.5901 13.77V13.75C14.6401 13.77 14.9201 14 15.0901 14.13L15.5201 13.77L15.5401 13.76L15.5301 13.77V13.79C15.5301 13.88 15.4401 14.2 15.3901 14.4L15.8001 14.74L15.2801 14.79L15.1101 15.35L15.0701 15.39Z" fill="#242222"/>
<path fill-rule="evenodd" clip-rule="evenodd" d="M16.6798 9.53906L16.4998 10.1091L16.3398 9.54906L15.7998 9.53906L16.2298 9.16906L16.0298 8.53906L16.4998 8.91906L16.9598 8.54906L16.7798 9.15906L17.1998 9.51906L16.6798 9.53906Z" fill="#2D7347"/>
<path fill-rule="evenodd" clip-rule="evenodd" d="M15.8696 9.51906L16.3496 9.52906L16.5096 10.0491L16.6696 9.53906L17.2096 9.51906L16.7796 9.19906C16.7896 9.11906 16.9096 8.67906 16.9496 8.57906C16.8996 8.65906 16.5296 8.94906 16.5196 8.95906C16.3553 8.83782 16.1953 8.71108 16.0396 8.57906C16.0996 8.66906 16.2596 9.16906 16.2596 9.16906C16.1331 9.28957 16.003 9.40629 15.8696 9.51906ZM16.4996 10.1791L16.3296 9.55906H15.8096V9.54906C15.8096 9.52906 15.8196 9.51906 15.8296 9.51906L16.2096 9.15906C16.1388 8.96149 16.0754 8.76136 16.0196 8.55906V8.53906C16.0696 8.55906 16.3396 8.78906 16.5196 8.91906L16.9496 8.55906L16.9696 8.54906L16.9596 8.55906V8.57906C16.9596 8.66906 16.8696 8.97906 16.8096 9.18906L17.2196 9.51906L16.6896 9.56906L16.5196 10.1291L16.4996 10.1791Z" fill="#242222"/>
<path fill-rule="evenodd" clip-rule="evenodd" d="M14.8601 11.4196L15.0401 10.8496L15.2001 11.4096L15.7401 11.4196L15.3101 11.7896L15.5001 12.4196L15.0301 12.0296L14.5701 12.3996L14.7501 11.7896L14.3301 11.4296L14.8601 11.4196Z" fill="#2D7347"/>
<path fill-rule="evenodd" clip-rule="evenodd" d="M15.0201 10.8701C15.0201 10.9601 14.8801 11.4001 14.8801 11.4201L14.3301 11.4501L14.7601 11.7701C14.7601 11.8401 14.6301 12.2901 14.6001 12.3901C14.6501 12.3101 15.0101 12.0201 15.0301 12.0101L15.4701 12.3501L15.2901 11.7901L15.6701 11.4401L15.1901 11.4301L15.0201 10.8701ZM15.5101 12.4501L15.4901 12.4201C15.4701 12.3901 15.1901 12.1701 15.0301 12.0401L14.5901 12.4101C14.5801 12.3601 14.6701 12.0101 14.7401 11.7801L14.3301 11.4401L14.8501 11.3901L15.0201 10.8301L15.2201 11.3901H15.7401V11.4101H15.7301L15.7101 11.4301C15.5865 11.5569 15.4564 11.6771 15.3201 11.7901L15.5201 12.3801V12.4001L15.5101 12.4501Z" fill="#242222"/>
<path fill-rule="evenodd" clip-rule="evenodd" d="M16.4099 16.529L16.5799 15.959L16.7499 16.519L17.2899 16.529L16.8599 16.899L17.0499 17.529C16.8961 17.3955 16.7394 17.2655 16.5799 17.139L16.1199 17.509L16.2999 16.899L15.8799 16.539L16.4099 16.529Z" fill="#2D7347"/>
<path fill-rule="evenodd" clip-rule="evenodd" d="M16.5699 15.9792C16.5699 16.0692 16.4299 16.5092 16.4199 16.5392L15.8799 16.5692L16.3099 16.8892C16.2999 16.9692 16.1799 17.4092 16.1399 17.5092C16.1899 17.4292 16.5499 17.1392 16.5699 17.1292L17.0099 17.4692L16.8399 16.9092L17.2199 16.5592L16.7399 16.5492L16.5699 15.9792ZM17.0499 17.5692L17.0399 17.5392C16.8906 17.4077 16.7372 17.281 16.5799 17.1592L16.1399 17.5292C16.1199 17.4792 16.2199 17.1292 16.2899 16.8992L15.8799 16.5592L16.3999 16.5092L16.5699 15.9492L16.7599 16.5092H17.2899L17.2799 16.5192V16.5292L17.2599 16.5492C17.1899 16.6392 16.9699 16.8292 16.8799 16.9092L17.0799 17.5092V17.5292L17.0499 17.5692Z" fill="#242222"/>
<path fill-rule="evenodd" clip-rule="evenodd" d="M22.7597 11.279L22.9397 10.709L23.0997 11.269L23.6397 11.279L23.2097 11.649L23.3997 12.279C23.246 12.1455 23.0893 12.0155 22.9297 11.889L22.4697 12.259L22.6397 11.649L22.2197 11.289L22.7597 11.279Z" fill="#2D7347"/>
<path fill-rule="evenodd" clip-rule="evenodd" d="M22.9305 10.7292C22.9305 10.8192 22.7905 11.2592 22.7805 11.2792L22.2305 11.3092L22.6705 11.6292C22.6605 11.6992 22.5405 12.1492 22.5005 12.2492C22.5505 12.1692 22.9105 11.8792 22.9205 11.8692L23.3605 12.2192L23.1805 11.6592C23.2205 11.6092 23.4605 11.3992 23.5705 11.3092L23.0905 11.2992L22.9305 10.7292ZM23.4005 12.3192L23.3905 12.2892C23.3705 12.2592 23.0905 12.0392 22.9305 11.9092C22.8305 11.9992 22.5105 12.2492 22.5005 12.2792C22.4805 12.2292 22.5805 11.8792 22.6505 11.6492L22.2405 11.3092L22.7705 11.2592L22.9405 10.6992L23.1405 11.2592H23.6605V11.2792L23.6405 11.2992L23.2605 11.6692L23.4605 12.2692V12.2892L23.4005 12.3192Z" fill="#242222"/>
<path fill-rule="evenodd" clip-rule="evenodd" d="M21.3298 16.4899L21.5098 15.9199L21.6698 16.4799L22.2098 16.4899L21.7798 16.8599L21.9698 17.4899C21.816 17.3565 21.6593 17.2264 21.4998 17.0999L21.0398 17.4699L21.2198 16.8599L20.7998 16.4999L21.3298 16.4899Z" fill="#2D7347"/>
<path fill-rule="evenodd" clip-rule="evenodd" d="M21.4898 15.9302C21.4798 16.0202 21.3498 16.4602 21.3398 16.4902L20.7998 16.5202L21.2298 16.8402C21.2298 16.9102 21.0998 17.3602 21.0698 17.4602C21.1198 17.3802 21.4798 17.0902 21.4898 17.0802L21.9298 17.4202L21.7598 16.8602L22.1398 16.5102L21.6598 16.5002L21.4898 15.9302ZM21.9698 17.5202L21.9598 17.4902C21.8128 17.3561 21.6592 17.2293 21.4998 17.1102L21.0698 17.4802C21.0498 17.4302 21.1498 17.0802 21.2198 16.8502L20.8098 16.5102L21.3398 16.4702L21.5098 15.9102L21.7098 16.4702H22.2398V16.4902H22.1998L22.1698 16.5002C22.0998 16.5902 21.9098 16.7502 21.7898 16.8702L21.9798 17.4702V17.4902L21.9698 17.5202Z" fill="#242222"/>
<path fill-rule="evenodd" clip-rule="evenodd" d="M19.6603 12.8207C19.8503 12.8007 20.0403 13.6107 20.1103 14.6207C20.1703 15.6307 20.0803 16.4707 19.9003 16.4907C19.7203 16.5207 19.5203 15.7107 19.4603 14.6907C19.3903 13.6807 19.4803 12.8407 19.6603 12.8207Z" fill="#2D7347"/>
<path fill-rule="evenodd" clip-rule="evenodd" d="M19.6705 12.8388C19.5205 12.8588 19.4005 13.6088 19.4705 14.6888C19.5405 15.7488 19.7405 16.4688 19.8905 16.4688C20.0405 16.4488 20.1605 15.6988 20.0905 14.6188C20.0205 13.5588 19.8205 12.8388 19.6705 12.8388ZM19.8905 16.5188C19.6705 16.5188 19.4905 15.5788 19.4405 14.6988C19.3805 13.7788 19.4505 12.8288 19.6705 12.7988C19.9005 12.7988 20.0805 13.7388 20.1305 14.6188C20.1905 15.5288 20.1205 16.4888 19.9005 16.5188H19.8905Z" fill="#242222"/>
<path fill-rule="evenodd" clip-rule="evenodd" d="M19.9896 12.8207C20.1796 12.8007 20.3896 13.6007 20.4596 14.6107C20.5196 15.6307 20.4196 16.4707 20.2296 16.4907C20.0396 16.5107 19.8296 15.7107 19.7696 14.7007C19.6896 13.6807 19.7996 12.8407 19.9896 12.8207Z" fill="#2D7347"/>
<path fill-rule="evenodd" clip-rule="evenodd" d="M19.9899 12.8388C19.8199 12.8588 19.6999 13.6088 19.7699 14.6988C19.8399 15.7588 20.0499 16.4788 20.2099 16.4788C20.3699 16.4588 20.4999 15.7088 20.4299 14.6288C20.3699 13.5488 20.1499 12.8388 19.9899 12.8388ZM20.2199 16.5088C19.9799 16.5088 19.7999 15.5788 19.7399 14.6988C19.6899 13.7888 19.7599 12.8288 19.9899 12.7988C20.2299 12.7988 20.4199 13.7388 20.4699 14.6188C20.5299 15.5188 20.4499 16.4788 20.2199 16.5088Z" fill="#242222"/>
<path fill-rule="evenodd" clip-rule="evenodd" d="M19.8297 12.7191C19.9797 12.6991 20.1597 13.5991 20.2297 14.7191C20.2997 15.8391 20.2297 16.7591 20.0797 16.7791C19.9297 16.7991 19.7397 15.8991 19.6797 14.7791C19.5997 13.6591 19.6697 12.7391 19.8297 12.7191Z" fill="#2D7347"/>
<path fill-rule="evenodd" clip-rule="evenodd" d="M19.8296 12.7392C19.6996 12.7492 19.6196 13.5992 19.6896 14.7792C19.7596 15.9592 19.9496 16.7592 20.0696 16.7592C20.1896 16.7492 20.2796 15.8992 20.1996 14.7192C20.1396 13.5392 19.9596 12.7392 19.8296 12.7392ZM20.0696 16.7992C19.8796 16.7992 19.7096 15.7592 19.6496 14.7792C19.5896 13.7892 19.6196 12.7192 19.8196 12.6992C20.0196 12.6992 20.1896 13.7392 20.2396 14.7092C20.3096 15.7092 20.2696 16.7792 20.0696 16.7992Z" fill="#242222"/>
<path fill-rule="evenodd" clip-rule="evenodd" d="M17.3896 15.6106C17.6696 15.6006 17.5496 15.4306 17.6896 15.3406C17.8296 15.2506 18.0396 15.3106 18.0996 15.4206C18.1596 15.5306 18.1096 15.6406 18.1896 15.6506C18.2596 15.6506 20.3996 15.5506 20.4796 15.6406C20.5596 15.7406 20.5696 15.9206 20.4896 16.0006C20.4096 16.0706 17.7096 16.1006 17.6196 16.0306C17.5196 15.9506 17.3896 15.6306 17.3896 15.6106Z" fill="#9C5229"/>
<path fill-rule="evenodd" clip-rule="evenodd" d="M17.8501 15.3101C17.7971 15.3065 17.7443 15.3206 17.7001 15.3501C17.6501 15.3801 17.6401 15.4201 17.6201 15.4701C17.6001 15.5401 17.5701 15.6201 17.3901 15.6301C17.4101 15.6301 17.5401 15.9401 17.6301 16.0101C17.6601 16.0301 17.9401 16.0501 18.6401 16.0501C19.5301 16.0501 20.4201 16.0201 20.4801 15.9801C20.5055 15.9452 20.5194 15.9033 20.5201 15.8601C20.526 15.7866 20.5085 15.7131 20.4701 15.6501C20.286 15.6125 20.0972 15.6024 19.9101 15.6201C19.4201 15.6201 18.7401 15.6501 18.4001 15.6601L18.1901 15.6701C18.1301 15.6701 18.1201 15.6201 18.1201 15.5601C18.12 15.5151 18.1097 15.4707 18.0901 15.4301C18.0501 15.3601 17.9501 15.3101 17.8501 15.3101ZM18.6401 16.0901C18.2001 16.0901 17.6601 16.0801 17.6101 16.0401C17.5201 15.9601 17.3701 15.6401 17.3701 15.6101C17.5501 15.5801 17.5701 15.5301 17.5901 15.4601C17.6101 15.4101 17.6201 15.3601 17.6801 15.3201C17.8201 15.2401 18.0501 15.2901 18.1101 15.4101C18.1401 15.4601 18.1501 15.5101 18.1501 15.5501C18.1601 15.6101 18.1601 15.6201 18.1901 15.6201L18.4001 15.6101C18.7401 15.6001 19.4201 15.5701 19.9101 15.5701C20.4601 15.5701 20.4801 15.6001 20.4901 15.6201C20.5401 15.6801 20.5701 15.7701 20.5601 15.8501C20.5601 15.9201 20.5401 15.9701 20.5001 16.0001C20.4401 16.0701 19.1901 16.0901 18.6401 16.0901Z" fill="#242222"/>
<path fill-rule="evenodd" clip-rule="evenodd" d="M18.8899 15.8498C18.8899 16.0898 19.1999 16.0198 19.1999 16.2198C19.1899 16.4298 18.6699 16.2298 18.6699 15.8398C18.6899 15.4498 19.1999 15.2598 19.2099 15.4798C19.2199 15.6698 18.8999 15.5998 18.8899 15.8498Z" fill="#F5D71C"/>
<path fill-rule="evenodd" clip-rule="evenodd" d="M19.1004 15.4098C18.9604 15.4098 18.7104 15.5798 18.6904 15.8398C18.6904 16.1098 18.9604 16.2798 19.1004 16.2798C19.1404 16.2798 19.1904 16.2698 19.1904 16.2098C19.1904 16.1298 19.1204 16.0998 19.0504 16.0598C18.9704 16.0198 18.8704 15.9698 18.8704 15.8298C18.8704 15.6898 18.9704 15.6398 19.0604 15.5998C19.1404 15.5598 19.1904 15.5398 19.1904 15.4698C19.1904 15.4198 19.1404 15.4098 19.1004 15.4098ZM19.1004 16.3298C18.9504 16.3298 18.6604 16.1498 18.6504 15.8498C18.6804 15.4298 19.2204 15.2598 19.2204 15.4898C19.2204 15.5898 19.1404 15.6298 19.0704 15.6598C18.9804 15.6998 18.9004 15.7398 18.9004 15.8498C18.9004 15.9598 18.9704 15.9998 19.0504 16.0398C19.1304 16.0698 19.2104 16.1198 19.2104 16.2198C19.2304 16.2798 19.1804 16.3298 19.1004 16.3298Z" fill="#242222"/>
<path fill-rule="evenodd" clip-rule="evenodd" d="M19.0804 15.8498C19.0704 16.0898 19.3904 16.0198 19.3904 16.2198C19.3804 16.4298 18.8604 16.2298 18.8604 15.8398C18.8804 15.4498 19.3904 15.2598 19.4004 15.4798C19.4004 15.6698 19.0904 15.6098 19.0804 15.8498Z" fill="#F5D71C"/>
<path fill-rule="evenodd" clip-rule="evenodd" d="M19.2898 15.4098C19.1498 15.4098 18.8898 15.5798 18.8798 15.8398C18.8798 16.1098 19.1498 16.2798 19.2898 16.2798C19.3298 16.2798 19.3698 16.2698 19.3798 16.2098C19.3798 16.1298 19.3198 16.0998 19.2398 16.0698C19.1598 16.0298 19.0598 15.9798 19.0598 15.8398C19.0598 15.6998 19.1598 15.6498 19.2498 15.6098C19.3298 15.5698 19.3798 15.5398 19.3798 15.4698C19.3798 15.4198 19.3298 15.4098 19.2898 15.4098ZM19.2898 16.3298C19.1398 16.3298 18.8498 16.1498 18.8398 15.8498C18.8598 15.4298 19.4098 15.2598 19.4098 15.4898C19.4098 15.5898 19.3398 15.6298 19.2598 15.6598C19.1798 15.6998 19.0998 15.7398 19.0998 15.8498C19.0998 15.9598 19.1698 15.9998 19.2498 16.0398C19.3298 16.0798 19.4098 16.1198 19.4098 16.2298C19.4098 16.2898 19.3698 16.3298 19.2898 16.3298Z" fill="#242222"/>
<path fill-rule="evenodd" clip-rule="evenodd" d="M19.2803 15.84C19.2803 16.08 19.5903 16.01 19.6003 16.21C19.5903 16.42 19.0703 16.22 19.0703 15.83C19.0903 15.44 19.6003 15.25 19.6003 15.47C19.6003 15.66 19.2903 15.6 19.2803 15.84Z" fill="#F5D71C"/>
<path fill-rule="evenodd" clip-rule="evenodd" d="M19.49 15.4C19.35 15.4 19.1 15.57 19.08 15.83C19.08 16.1 19.35 16.27 19.49 16.27C19.53 16.27 19.58 16.26 19.58 16.21C19.58 16.13 19.51 16.1 19.44 16.06C19.35 16.02 19.26 15.97 19.26 15.83C19.26 15.69 19.36 15.64 19.45 15.6C19.53 15.56 19.58 15.54 19.58 15.47C19.58 15.42 19.53 15.4 19.49 15.4ZM19.49 16.32C19.34 16.32 19.05 16.14 19.04 15.84C19.06 15.42 19.61 15.25 19.61 15.48C19.61 15.58 19.53 15.62 19.46 15.66C19.37 15.7 19.3 15.73 19.3 15.85C19.3 15.96 19.37 16 19.46 16.04C19.53 16.08 19.61 16.11 19.61 16.23C19.61 16.28 19.57 16.32 19.49 16.32Z" fill="#242222"/>
<path fill-rule="evenodd" clip-rule="evenodd" d="M19.47 15.84C19.47 16.08 19.78 16.01 19.78 16.21C19.77 16.42 19.25 16.22 19.25 15.83C19.27 15.44 19.78 15.25 19.79 15.47C19.79 15.66 19.47 15.6 19.47 15.84Z" fill="#F5D71C"/>
<path fill-rule="evenodd" clip-rule="evenodd" d="M19.6805 15.41C19.5405 15.41 19.2805 15.57 19.2605 15.84C19.2705 16.11 19.5405 16.28 19.6805 16.28C19.7205 16.28 19.7605 16.27 19.7705 16.21C19.7705 16.13 19.7005 16.1 19.6305 16.06C19.5505 16.02 19.4505 15.97 19.4505 15.83C19.4505 15.69 19.5605 15.64 19.6405 15.6C19.7205 15.56 19.7705 15.54 19.7705 15.47C19.7605 15.42 19.7105 15.41 19.6805 15.41ZM19.6805 16.32C19.5205 16.32 19.2305 16.14 19.2305 15.84C19.2505 15.42 19.8005 15.25 19.8105 15.48C19.8105 15.58 19.7305 15.62 19.6505 15.65C19.5705 15.69 19.4905 15.73 19.4805 15.84C19.4805 15.95 19.5505 15.99 19.6405 16.03C19.7205 16.07 19.8005 16.11 19.8005 16.22C19.8005 16.28 19.7505 16.32 19.6805 16.32Z" fill="#242222"/>
<path fill-rule="evenodd" clip-rule="evenodd" d="M20.3596 15.6101C20.4596 15.6101 20.5396 15.7101 20.5396 15.8201C20.5396 15.9401 20.4596 16.0301 20.3496 16.0201C20.2496 16.0201 20.1696 15.9301 20.1796 15.8101C20.1796 15.6901 20.2596 15.6001 20.3596 15.6101Z" fill="#9C5229"/>
<path fill-rule="evenodd" clip-rule="evenodd" d="M20.3604 15.6301C20.2704 15.6301 20.2004 15.7101 20.2004 15.8101C20.2004 15.8601 20.2204 15.9101 20.2404 15.9401C20.2704 15.9801 20.3104 16.0001 20.3504 16.0001L20.3604 16.0201V16.0001C20.4504 16.0001 20.5204 15.9201 20.5204 15.8201C20.5204 15.7701 20.5004 15.7201 20.4804 15.6901C20.4404 15.6501 20.4004 15.6301 20.3604 15.6301ZM20.3504 16.0401C20.3232 16.0405 20.2963 16.0343 20.2719 16.0221C20.2475 16.01 20.2265 15.9921 20.2104 15.9701C20.1706 15.9264 20.1492 15.8691 20.1504 15.8101C20.1504 15.6801 20.2404 15.5801 20.3504 15.5801C20.4104 15.5801 20.4604 15.6101 20.4904 15.6501C20.5304 15.6901 20.5504 15.7501 20.5504 15.8101C20.5504 15.9401 20.4604 16.0401 20.3504 16.0401Z" fill="#242222"/>
<path fill-rule="evenodd" clip-rule="evenodd" d="M19.2397 14.7192C19.3297 14.7092 19.4097 14.8692 19.4297 15.0892C19.4497 15.3092 19.3997 15.4992 19.3097 15.5192C19.2197 15.5292 19.1297 15.3692 19.1097 15.1492C19.0997 14.9292 19.1497 14.7392 19.2397 14.7192Z" fill="#2D7347"/>
<path fill-rule="evenodd" clip-rule="evenodd" d="M19.2498 14.7392C19.1698 14.7492 19.1098 14.9192 19.1298 15.1392C19.1498 15.3592 19.2298 15.4892 19.2998 15.4892V15.5092L19.3098 15.4992C19.3798 15.4892 19.4398 15.3192 19.4198 15.0992C19.3998 14.8792 19.3098 14.7392 19.2498 14.7392ZM19.2998 15.5392C19.1998 15.5392 19.1198 15.3692 19.0898 15.1492C19.0698 14.9192 19.1298 14.7192 19.2298 14.6992C19.3398 14.6992 19.4298 14.8692 19.4498 15.0892C19.4698 15.3192 19.4098 15.5192 19.3098 15.5392H19.2998Z" fill="#242222"/>
<path fill-rule="evenodd" clip-rule="evenodd" d="M18.9704 14.6989C19.0604 14.6789 19.1404 14.8489 19.1604 15.0689C19.1804 15.2889 19.1304 15.4789 19.0404 15.4989C18.9504 15.5189 18.8604 15.3489 18.8504 15.1289C18.8204 14.9089 18.8704 14.7189 18.9704 14.6989Z" fill="#2D7347"/>
<path fill-rule="evenodd" clip-rule="evenodd" d="M18.98 14.7197C18.9 14.7297 18.84 14.8997 18.87 15.1197C18.89 15.3397 18.97 15.4697 19.03 15.4697V15.4897L19.04 15.4697C19.11 15.4597 19.17 15.2897 19.15 15.0697C19.12 14.8597 19.04 14.7197 18.98 14.7197ZM19.03 15.5197C18.94 15.5197 18.85 15.3497 18.83 15.1297C18.81 14.8897 18.87 14.6997 18.97 14.6797H18.98C19.08 14.6797 19.17 14.8497 19.2 15.0697C19.22 15.2997 19.16 15.4997 19.06 15.5197H19.03Z" fill="#242222"/>
<path fill-rule="evenodd" clip-rule="evenodd" d="M18.7699 14.3102C18.8599 14.2902 18.9499 14.4602 18.9699 14.6802C18.9899 14.9002 18.9399 15.0902 18.8499 15.1002C18.7599 15.1202 18.6699 14.9502 18.6499 14.7302C18.6299 14.5102 18.6799 14.3202 18.7699 14.3102Z" fill="#2D7347"/>
<path fill-rule="evenodd" clip-rule="evenodd" d="M18.7798 14.3293C18.7098 14.3393 18.6498 14.5093 18.6698 14.7293C18.6898 14.9493 18.7698 15.0793 18.8398 15.0793V15.0993L18.8498 15.0793C18.9198 15.0693 18.9798 14.8993 18.9598 14.6793C18.9298 14.4593 18.8498 14.3293 18.7798 14.3293ZM18.8298 15.1193C18.7398 15.1193 18.6398 14.9493 18.6298 14.7293C18.6098 14.4993 18.6698 14.2993 18.7698 14.2793C18.8798 14.2793 18.9698 14.4493 18.9898 14.6693C19.0198 14.8993 18.9598 15.0993 18.8598 15.1193H18.8298Z" fill="#242222"/>
<path fill-rule="evenodd" clip-rule="evenodd" d="M19.0402 14.2504C19.1202 14.2404 19.2102 14.4204 19.2302 14.6604C19.2502 14.9004 19.2002 15.1104 19.1202 15.1204C19.0302 15.1404 18.9502 14.9504 18.9302 14.7104C18.9102 14.4704 18.9602 14.2604 19.0402 14.2504Z" fill="#2D7347"/>
<path fill-rule="evenodd" clip-rule="evenodd" d="M19.0496 14.2705C18.9796 14.2805 18.9196 14.4705 18.9496 14.7105C18.9696 14.9505 19.0496 15.1005 19.1096 15.1005V15.1205L19.1196 15.1005C19.1796 15.0905 19.2396 14.9105 19.2196 14.6605C19.1996 14.4305 19.1096 14.2705 19.0496 14.2705ZM19.1096 15.1505C19.0196 15.1505 18.9296 14.9605 18.9096 14.7205C18.8896 14.4605 18.9396 14.2505 19.0396 14.2305C19.1496 14.2305 19.2296 14.4105 19.2496 14.6605C19.2796 14.9205 19.2196 15.1305 19.1296 15.1505H19.1096Z" fill="#242222"/>
<path fill-rule="evenodd" clip-rule="evenodd" d="M19.4201 14.2797C19.5001 14.2697 19.5901 14.4397 19.6101 14.6597C19.6301 14.8797 19.5801 15.0797 19.4901 15.0997C19.4001 15.1197 19.3201 14.9397 19.3001 14.7197C19.2901 14.4897 19.3401 14.2997 19.4201 14.2797Z" fill="#349644"/>
<path fill-rule="evenodd" clip-rule="evenodd" d="M19.4305 14.2998C19.3605 14.3098 19.3005 14.4798 19.3305 14.7198C19.3505 14.9498 19.4305 15.0898 19.4905 15.0898V15.1098L19.5005 15.0898C19.5705 15.0798 19.6205 14.9098 19.6005 14.6798C19.5805 14.4398 19.4905 14.2998 19.4305 14.2998ZM19.4905 15.1198C19.4005 15.1198 19.3205 14.9498 19.2905 14.7198C19.2705 14.4798 19.3205 14.2798 19.4205 14.2598C19.5305 14.2598 19.6105 14.4298 19.6305 14.6598C19.6505 14.8998 19.6005 15.0998 19.5005 15.1198H19.4905Z" fill="#242222"/>
<path fill-rule="evenodd" clip-rule="evenodd" d="M19.2203 14.1391C19.3003 14.1291 19.3903 14.2991 19.4103 14.5191C19.4303 14.7491 19.3803 14.9391 19.3003 14.9591C19.2203 14.9791 19.1303 14.7991 19.1103 14.5791C19.0803 14.3491 19.1303 14.1491 19.2203 14.1391Z" fill="#349644"/>
<path fill-rule="evenodd" clip-rule="evenodd" d="M19.2303 14.1591C19.1603 14.1691 19.1003 14.3391 19.1203 14.5791C19.1503 14.8091 19.2303 14.9491 19.2903 14.9491V14.9691L19.3003 14.9491C19.3603 14.9391 19.4203 14.7691 19.4003 14.5291C19.3703 14.2991 19.2903 14.1591 19.2303 14.1591ZM19.2903 14.9791C19.1903 14.9791 19.1103 14.8091 19.0903 14.5791C19.0703 14.3391 19.1203 14.1391 19.2203 14.1191C19.3203 14.1191 19.4103 14.2891 19.4303 14.5191C19.4503 14.7591 19.3903 14.9591 19.2903 14.9791Z" fill="#242222"/>
<path fill-rule="evenodd" clip-rule="evenodd" d="M18.9504 13.9301C19.0304 13.9201 19.1204 14.0901 19.1404 14.3201C19.1604 14.5401 19.1104 14.7401 19.0204 14.7601C18.9404 14.7701 18.8504 14.6001 18.8304 14.3701C18.8204 14.1401 18.8704 13.9501 18.9504 13.9301Z" fill="#349644"/>
<path fill-rule="evenodd" clip-rule="evenodd" d="M18.9703 13.9499C18.9003 13.9599 18.8403 14.1299 18.8603 14.3599C18.8803 14.5899 18.9703 14.7299 19.0203 14.7299V14.7499L19.0303 14.7299C19.0903 14.7199 19.1503 14.5499 19.1303 14.3099C19.1003 14.0999 19.0203 13.9499 18.9703 13.9499ZM19.0203 14.7799C18.9303 14.7799 18.8403 14.6099 18.8203 14.3799C18.8003 14.1399 18.8603 13.9399 18.9503 13.9199C19.0503 13.9199 19.1403 14.0899 19.1603 14.3199C19.1803 14.5599 19.1303 14.7699 19.0303 14.7799H19.0203Z" fill="#242222"/>
<path fill-rule="evenodd" clip-rule="evenodd" d="M18.7103 13.8101C18.7903 13.7901 18.8803 13.9701 18.9003 14.1901C18.9203 14.4101 18.8703 14.6101 18.7803 14.6301C18.7003 14.6401 18.6103 14.4701 18.5903 14.2501C18.5703 14.0201 18.6203 13.8301 18.7103 13.8101Z" fill="#2D7347"/>
<path fill-rule="evenodd" clip-rule="evenodd" d="M18.7205 13.8291C18.6405 13.8391 18.5905 14.0091 18.6105 14.2491C18.6305 14.4691 18.7105 14.6091 18.7805 14.6091C18.8505 14.5991 18.9005 14.4191 18.8805 14.1991C18.8605 13.9691 18.7805 13.8291 18.7205 13.8291ZM18.7805 14.6591C18.6905 14.6591 18.6005 14.4891 18.5805 14.2491C18.5605 14.0091 18.6105 13.7991 18.7105 13.7891C18.8205 13.7891 18.9005 13.9691 18.9205 14.1891C18.9405 14.4291 18.8805 14.6391 18.7805 14.6591Z" fill="#242222"/>
<path fill-rule="evenodd" clip-rule="evenodd" d="M18.4798 10.8105C18.4798 10.8105 17.9398 11.3405 17.9998 12.7705C18.0698 14.2105 19.1898 14.8905 19.1898 14.8905C19.1898 14.8905 19.4798 14.4805 19.4498 13.3205C19.4622 12.468 19.2519 11.627 18.8398 10.8805L18.4798 10.8105Z" fill="#875BA2"/>
<path fill-rule="evenodd" clip-rule="evenodd" d="M18.4702 10.8291C18.4802 10.8291 17.9502 11.3691 18.0102 12.7691C18.0343 13.1833 18.1521 13.5866 18.3548 13.9487C18.5574 14.3107 18.8397 14.622 19.1802 14.8591C19.2302 14.7691 19.4502 14.3391 19.4202 13.3191C19.4309 12.4699 19.2207 11.6325 18.8102 10.8891L18.4702 10.8291ZM19.2002 14.9191L19.1802 14.9091C19.1702 14.8991 18.0402 14.2091 17.9802 12.7691C17.9202 11.3391 18.4602 10.7991 18.4602 10.7891L18.8302 10.8591C18.8502 10.8791 19.3802 11.6391 19.4602 13.3191C19.4902 14.4691 19.2102 14.8891 19.2002 14.8991V14.9191Z" fill="#242222"/>
<path fill-rule="evenodd" clip-rule="evenodd" d="M19.7196 14.7695C19.8096 14.7695 19.8696 14.9495 19.8496 15.1695C19.8396 15.3895 19.7496 15.5695 19.6596 15.5695C19.5696 15.5695 19.5096 15.3795 19.5196 15.1695C19.5496 14.9395 19.6296 14.7695 19.7196 14.7695Z" fill="#2D7347"/>
<path fill-rule="evenodd" clip-rule="evenodd" d="M19.7197 14.79C19.6497 14.79 19.5697 14.94 19.5597 15.16C19.5497 15.31 19.5697 15.45 19.6197 15.51L19.6697 15.54C19.7397 15.54 19.8297 15.39 19.8397 15.17C19.8497 15.02 19.8197 14.88 19.7697 14.82C19.7656 14.8104 19.7585 14.8023 19.7495 14.797C19.7406 14.7916 19.7301 14.7891 19.7197 14.79ZM19.6697 15.59C19.6397 15.59 19.6097 15.57 19.5897 15.54C19.5297 15.47 19.4997 15.32 19.5097 15.16C19.5297 14.93 19.6097 14.75 19.7097 14.75C19.7397 14.75 19.7697 14.77 19.7897 14.79C19.8497 14.86 19.8797 15.01 19.8697 15.17C19.8597 15.41 19.7697 15.59 19.6697 15.59Z" fill="#242222"/>
<path fill-rule="evenodd" clip-rule="evenodd" d="M19.4602 14.6895C19.5502 14.6895 19.6102 14.8795 19.6002 15.0895C19.5802 15.3095 19.5002 15.4895 19.4102 15.4795C19.3202 15.4795 19.2602 15.2995 19.2802 15.0795C19.2902 14.8595 19.3702 14.6895 19.4602 14.6895Z" fill="#2D7347"/>
<path fill-rule="evenodd" clip-rule="evenodd" d="M19.4599 14.7099C19.3899 14.7099 19.3099 14.8599 19.2899 15.0799C19.2799 15.2299 19.2999 15.3699 19.3499 15.4299C19.3699 15.4499 19.3799 15.4599 19.3999 15.4599C19.4699 15.4599 19.5499 15.3099 19.5699 15.0899C19.5799 14.9399 19.5499 14.7999 19.4999 14.7399L19.4599 14.7099ZM19.4099 15.5099C19.3799 15.5099 19.3499 15.4899 19.3299 15.4599C19.2699 15.3899 19.2399 15.2399 19.2499 15.0799C19.2599 14.8499 19.3499 14.6699 19.4599 14.6699C19.4899 14.6699 19.5099 14.6899 19.5399 14.7199C19.5999 14.7899 19.6299 14.9399 19.6099 15.0999C19.5999 15.3299 19.5099 15.5099 19.4099 15.5099Z" fill="#242222"/>
<path fill-rule="evenodd" clip-rule="evenodd" d="M19.3296 14.2699C19.4196 14.2699 19.4796 14.4599 19.4596 14.6699C19.4396 14.8899 19.3596 15.0699 19.2696 15.0599C19.1796 15.0599 19.1196 14.8799 19.1396 14.6599C19.1596 14.4399 19.2396 14.2599 19.3296 14.2699Z" fill="#2D7347"/>
<path fill-rule="evenodd" clip-rule="evenodd" d="M19.3301 14.29C19.2601 14.29 19.1701 14.44 19.1601 14.67C19.1501 14.82 19.1801 14.96 19.2301 15.02C19.2401 15.04 19.2601 15.05 19.2801 15.05C19.3501 15.05 19.4301 14.9 19.4501 14.68C19.4601 14.53 19.4301 14.39 19.3801 14.33C19.3601 14.3 19.3501 14.29 19.3301 14.29ZM19.2801 15.09C19.2501 15.09 19.2301 15.07 19.2001 15.04C19.1401 14.97 19.1101 14.82 19.1201 14.66C19.1401 14.43 19.2301 14.25 19.3201 14.25C19.3501 14.25 19.3801 14.27 19.4001 14.3C19.4601 14.37 19.4801 14.52 19.4801 14.68C19.4701 14.9 19.3801 15.09 19.2801 15.09Z" fill="#242222"/>
<path fill-rule="evenodd" clip-rule="evenodd" d="M19.6003 14.2598C19.6903 14.2598 19.7403 14.4598 19.7303 14.6998C19.7103 14.9398 19.6303 15.1398 19.5403 15.1398C19.4603 15.1398 19.4003 14.9398 19.4103 14.6998C19.4403 14.4598 19.5203 14.2598 19.6003 14.2598Z" fill="#2D7347"/>
<path fill-rule="evenodd" clip-rule="evenodd" d="M19.6003 14.2893C19.5403 14.2893 19.4503 14.4593 19.4403 14.6993C19.4303 14.8793 19.4603 15.0293 19.5103 15.0993L19.5503 15.1293C19.6203 15.1293 19.7003 14.9593 19.7203 14.7093C19.7303 14.5393 19.7003 14.3793 19.6503 14.3093C19.6303 14.2893 19.6203 14.2893 19.6003 14.2893ZM19.5503 15.1593C19.5364 15.1585 19.5228 15.1545 19.5106 15.1475C19.4985 15.1406 19.4881 15.1309 19.4803 15.1193C19.4203 15.0493 19.3903 14.8793 19.4003 14.6893C19.4303 14.3593 19.5803 14.1593 19.6703 14.2793C19.7303 14.3493 19.7603 14.5193 19.7503 14.7093C19.7303 14.9593 19.6503 15.1593 19.5503 15.1593Z" fill="#242222"/>
<path fill-rule="evenodd" clip-rule="evenodd" d="M19.97 14.3691C20.05 14.3691 20.11 14.5591 20.1 14.7891C20.09 15.0191 20 15.1991 19.92 15.1991C19.83 15.1991 19.77 15.0091 19.79 14.7791C19.81 14.5491 19.89 14.3691 19.97 14.3691Z" fill="#2D7347"/>
<path fill-rule="evenodd" clip-rule="evenodd" d="M19.9704 14.3894C19.9004 14.3894 19.8204 14.5494 19.8004 14.7794C19.7904 14.9394 19.8205 15.0794 19.8705 15.1494C19.8905 15.1694 19.9004 15.1794 19.9204 15.1794C19.9804 15.1794 20.0704 15.0294 20.0804 14.7894C20.093 14.6629 20.0723 14.5354 20.0204 14.4194C20.0004 14.3994 19.9904 14.3894 19.9704 14.3894ZM19.9204 15.2194C19.8904 15.2194 19.8704 15.1994 19.8504 15.1794C19.7904 15.1094 19.7604 14.9594 19.7704 14.7894C19.7804 14.5494 19.8704 14.3594 19.9704 14.3594C20.0004 14.3594 20.0205 14.3694 20.0405 14.3994C20.1005 14.4694 20.1304 14.6194 20.1104 14.7894C20.1004 15.0294 20.0204 15.2194 19.9204 15.2194Z" fill="#242222"/>
<path fill-rule="evenodd" clip-rule="evenodd" d="M19.7905 14.1895C19.8805 14.1895 19.9305 14.3795 19.9205 14.6095C19.9105 14.8395 19.8305 15.0195 19.7405 15.0195C19.6605 15.0195 19.6005 14.8295 19.6105 14.6095C19.6305 14.3695 19.7105 14.1895 19.7905 14.1895Z" fill="#2D7347"/>
<path fill-rule="evenodd" clip-rule="evenodd" d="M19.7899 14.2102C19.7199 14.2102 19.6399 14.3702 19.6299 14.6002C19.6199 14.7602 19.6499 14.9002 19.6899 14.9702L19.7299 15.0002C19.7999 15.0002 19.8799 14.8402 19.8899 14.6102C19.9055 14.4825 19.881 14.3532 19.8199 14.2402C19.8299 14.2202 19.8099 14.2102 19.7899 14.2102ZM19.7399 15.0302C19.7099 15.0302 19.6899 15.0202 19.6699 14.9902C19.6099 14.9202 19.5799 14.7602 19.5999 14.5902C19.6199 14.3502 19.6999 14.1602 19.7999 14.1602C19.8299 14.1602 19.8599 14.1702 19.8699 14.2002C19.9299 14.2702 19.9599 14.4302 19.9499 14.6002C19.9199 14.8502 19.8399 15.0302 19.7399 15.0302Z" fill="#242222"/>
<path fill-rule="evenodd" clip-rule="evenodd" d="M19.5698 13.9297C19.6498 13.9297 19.7098 14.1197 19.6998 14.3497C19.6898 14.5797 19.5998 14.7597 19.5198 14.7597C19.4398 14.7597 19.3798 14.5697 19.3898 14.3497C19.3998 14.1097 19.4798 13.9297 19.5698 13.9297Z" fill="#2D7347"/>
<path fill-rule="evenodd" clip-rule="evenodd" d="M19.5704 13.9602C19.5004 13.9602 19.4204 14.1202 19.4104 14.3502C19.3964 14.4767 19.4172 14.6046 19.4704 14.7202L19.5104 14.7502C19.5704 14.7502 19.6604 14.5902 19.6704 14.3602C19.6804 14.2002 19.6504 14.0502 19.6004 13.9902C19.6004 13.9702 19.5804 13.9602 19.5704 13.9602ZM19.5204 14.7802C19.4904 14.7802 19.4704 14.7602 19.4404 14.7402C19.3804 14.6702 19.3504 14.5102 19.3704 14.3402C19.3804 14.1002 19.4704 13.9102 19.5704 13.9102C19.6004 13.9102 19.6204 13.9302 19.6404 13.9502C19.7004 14.0202 19.7304 14.1802 19.7204 14.3502C19.7004 14.5902 19.6104 14.7802 19.5204 14.7802Z" fill="#242222"/>
<path fill-rule="evenodd" clip-rule="evenodd" d="M19.3502 13.7598C19.4302 13.7598 19.4902 13.9498 19.4802 14.1798C19.4702 14.4098 19.3902 14.5898 19.3002 14.5898C19.2102 14.5898 19.1602 14.3998 19.1702 14.1698C19.1802 13.9398 19.2602 13.7598 19.3502 13.7598Z" fill="#2D7347"/>
<path fill-rule="evenodd" clip-rule="evenodd" d="M19.3496 13.7802C19.2796 13.7802 19.1996 13.9402 19.1796 14.1702C19.1696 14.3302 19.1996 14.4702 19.2496 14.5402L19.2896 14.5702C19.3596 14.5702 19.4396 14.4102 19.4596 14.1802C19.4752 14.0526 19.4507 13.9233 19.3896 13.8102C19.3746 13.8027 19.361 13.7926 19.3496 13.7802ZM19.2896 14.6102C19.2596 14.6102 19.2396 14.5902 19.2196 14.5702C19.1596 14.5002 19.1296 14.3402 19.1396 14.1702C19.1596 13.9302 19.2396 13.7402 19.3396 13.7402C19.3696 13.7402 19.3896 13.7502 19.4096 13.7802C19.4596 13.8502 19.4896 14.0102 19.4796 14.1802C19.4796 14.4202 19.3896 14.6102 19.2896 14.6102Z" fill="#242222"/>
<path fill-rule="evenodd" clip-rule="evenodd" d="M19.0699 11.8201C19.2999 11.7201 19.7399 12.2801 20.0499 13.0901C20.3499 13.8901 20.4099 14.6201 20.1799 14.7301C19.9399 14.8301 19.4999 14.2601 19.1999 13.4601C18.8899 12.6601 18.8399 11.9201 19.0699 11.8201Z" fill="#C8273C"/>
<path fill-rule="evenodd" clip-rule="evenodd" d="M19.1296 11.8305L19.0796 11.8405C19.0396 11.8605 19.0096 11.9005 18.9796 11.9605C18.8796 12.2305 18.9796 12.8305 19.2196 13.4605C19.5096 14.2405 19.9496 14.8105 20.1696 14.7205C20.2096 14.7005 20.2396 14.6605 20.2596 14.6005C20.3596 14.3305 20.2596 13.7305 20.0296 13.1105C19.7596 12.3705 19.3696 11.8305 19.1296 11.8305ZM20.1196 14.7605C19.8596 14.7605 19.4696 14.2205 19.1896 13.4705C18.9496 12.8305 18.8496 12.2205 18.9596 11.9505C18.9796 11.8805 19.0196 11.8305 19.0696 11.8105C19.3096 11.7005 19.7596 12.2705 20.0696 13.0905C20.3096 13.7305 20.3996 14.3405 20.2996 14.6105C20.2696 14.6805 20.2296 14.7305 20.1896 14.7505L20.1196 14.7605Z" fill="#242222"/>
<path fill-rule="evenodd" clip-rule="evenodd" d="M19.2803 11.5898C19.3903 11.5898 19.4803 11.6798 19.4803 11.7898C19.4804 11.817 19.4749 11.8438 19.4642 11.8688C19.4535 11.8937 19.4379 11.9162 19.4183 11.9349C19.3986 11.9536 19.3754 11.9681 19.35 11.9776C19.3245 11.987 19.2974 11.9912 19.2703 11.9898C19.2445 11.9899 19.219 11.9847 19.1952 11.9745C19.1715 11.9643 19.1501 11.9494 19.1323 11.9307C19.1145 11.912 19.1008 11.8898 19.0918 11.8656C19.0829 11.8414 19.079 11.8156 19.0803 11.7898C19.0803 11.6798 19.1703 11.5898 19.2803 11.5898Z" fill="#349644"/>
<path fill-rule="evenodd" clip-rule="evenodd" d="M19.2798 11.6103C19.2333 11.6121 19.1889 11.6301 19.1542 11.6611C19.1195 11.6921 19.0968 11.7343 19.0898 11.7803C19.0898 11.8803 19.1698 11.9603 19.2698 11.9603C19.3698 11.9603 19.4498 11.8803 19.4498 11.7903C19.4598 11.7003 19.3698 11.6103 19.2798 11.6103ZM19.2698 12.0103C19.2115 12.0103 19.1555 11.9871 19.1142 11.9459C19.073 11.9046 19.0498 11.8487 19.0498 11.7903C19.0498 11.6703 19.1498 11.5703 19.2698 11.5703C19.3898 11.5703 19.4898 11.6703 19.4898 11.7903C19.4898 11.9103 19.3898 12.0103 19.2698 12.0103Z" fill="#242222"/>
<path fill-rule="evenodd" clip-rule="evenodd" d="M19.4302 11.3105C19.5202 11.3105 19.6002 11.4005 19.6002 11.5105C19.6002 11.6205 19.5202 11.7105 19.4202 11.7005C19.3202 11.7005 19.2402 11.6105 19.2402 11.5005C19.2402 11.3905 19.3302 11.3105 19.4302 11.3105Z" fill="#349644"/>
<path fill-rule="evenodd" clip-rule="evenodd" d="M19.4305 11.3291C19.3405 11.3291 19.2705 11.4091 19.2705 11.4991C19.2705 11.5491 19.2805 11.5891 19.3205 11.6291C19.3505 11.6691 19.3805 11.6791 19.4305 11.6791C19.5105 11.6791 19.5805 11.5991 19.5905 11.5091C19.5928 11.4624 19.5786 11.4164 19.5505 11.3791C19.5172 11.3495 19.4749 11.3319 19.4305 11.3291ZM19.4205 11.7291C19.3933 11.7295 19.3663 11.7233 19.342 11.7111C19.3176 11.699 19.2965 11.6811 19.2805 11.6591C19.2598 11.6384 19.2444 11.6131 19.2357 11.5852C19.227 11.5574 19.2252 11.5278 19.2305 11.4991C19.2305 11.3791 19.3205 11.2891 19.4205 11.2891C19.4805 11.2891 19.5305 11.3191 19.5605 11.3591C19.6005 11.3991 19.6205 11.4591 19.6105 11.5191C19.6118 11.5453 19.608 11.5716 19.5992 11.5964C19.5903 11.6212 19.5767 11.644 19.5591 11.6635C19.5414 11.683 19.5201 11.6988 19.4963 11.7101C19.4725 11.7213 19.4468 11.7278 19.4205 11.7291Z" fill="#242222"/>
<path fill-rule="evenodd" clip-rule="evenodd" d="M19.19 11.3094C19.29 11.3094 19.36 11.3994 19.36 11.5094C19.36 11.6194 19.28 11.7094 19.18 11.6994C19.08 11.6994 19 11.6094 19 11.4994C19.01 11.3894 19.09 11.2994 19.19 11.3094Z" fill="#349644"/>
<path fill-rule="evenodd" clip-rule="evenodd" d="M19.1805 11.3293C19.0905 11.3293 19.0205 11.4093 19.0205 11.5093C19.0205 11.6093 19.0905 11.6893 19.1805 11.6893C19.2705 11.6893 19.3405 11.6093 19.3405 11.5193C19.3391 11.4715 19.3214 11.4257 19.2905 11.3893C19.2605 11.3493 19.2305 11.3293 19.1805 11.3293ZM19.1805 11.7193C19.0705 11.7193 18.9805 11.6193 18.9805 11.4993C18.9805 11.3793 19.0705 11.2793 19.1805 11.2793C19.2405 11.2793 19.2905 11.3093 19.3205 11.3493C19.3505 11.3893 19.3705 11.4493 19.3705 11.5093C19.3733 11.5359 19.3705 11.5627 19.3622 11.5882C19.3539 11.6136 19.3403 11.637 19.3224 11.6568C19.3045 11.6766 19.2826 11.6924 19.2581 11.7032C19.2337 11.714 19.2072 11.7194 19.1805 11.7193Z" fill="#242222"/>
<path fill-rule="evenodd" clip-rule="evenodd" d="M19.24 11.1094C19.34 11.1094 19.43 11.1994 19.42 11.2994C19.42 11.3994 19.34 11.4794 19.23 11.4794C19.1804 11.477 19.1335 11.4562 19.0984 11.421C19.0633 11.3859 19.0425 11.339 19.04 11.2894C19.045 11.2399 19.0683 11.194 19.1052 11.1607C19.1422 11.1274 19.1903 11.1091 19.24 11.1094Z" fill="#2D7347"/>
<path fill-rule="evenodd" clip-rule="evenodd" d="M19.2403 11.1298C19.1503 11.1298 19.0703 11.1998 19.0703 11.2898C19.0703 11.3298 19.0803 11.3698 19.1103 11.3998C19.1403 11.4398 19.1903 11.4598 19.2403 11.4598C19.3303 11.4598 19.4003 11.3898 19.4103 11.2998C19.4113 11.2798 19.4083 11.2597 19.4014 11.2408C19.3946 11.2219 19.384 11.2046 19.3703 11.1898C19.3303 11.1598 19.2903 11.1298 19.2403 11.1298ZM19.2403 11.4998C19.18 11.4974 19.1229 11.4724 19.0803 11.4298C19.0492 11.3896 19.0317 11.3406 19.0303 11.2898C19.0303 11.1798 19.1203 11.0898 19.2303 11.0898C19.2613 11.0898 19.2919 11.0971 19.3197 11.111C19.3475 11.1248 19.3716 11.145 19.3903 11.1698C19.4203 11.2098 19.4403 11.2598 19.4403 11.3098C19.4403 11.4098 19.3503 11.4998 19.2403 11.4998Z" fill="#242222"/>
<path fill-rule="evenodd" clip-rule="evenodd" d="M19.2203 10.8797C19.3203 10.8797 19.4003 10.9697 19.4003 11.0697C19.3978 11.1193 19.3771 11.1662 19.3419 11.2013C19.3068 11.2364 19.2599 11.2572 19.2103 11.2597C19.1103 11.2597 19.0303 11.1697 19.0303 11.0697C19.0303 10.9597 19.1103 10.8697 19.2203 10.8797Z" fill="#2D7347"/>
<path fill-rule="evenodd" clip-rule="evenodd" d="M19.22 10.8994C19.12 10.8994 19.05 10.9694 19.05 11.0594C19.05 11.1494 19.12 11.2194 19.21 11.2294L19.22 11.2494V11.2294C19.31 11.2294 19.38 11.1594 19.39 11.0694C19.38 10.9694 19.31 10.8994 19.22 10.8994ZM19.21 11.2694C19.1 11.2594 19 11.1694 19 11.0594C19 10.9494 19.09 10.8594 19.2 10.8594C19.32 10.8594 19.41 10.9594 19.41 11.0694C19.42 11.1794 19.33 11.2694 19.21 11.2694Z" fill="#242222"/>
<path fill-rule="evenodd" clip-rule="evenodd" d="M18.9605 11.1504C19.0605 11.1504 19.1405 11.2404 19.1305 11.3504C19.1305 11.4604 19.0505 11.5504 18.9505 11.5404C18.8505 11.5404 18.7705 11.4504 18.7705 11.3404C18.7805 11.2304 18.8505 11.1504 18.9605 11.1504Z" fill="#2D7347"/>
<path fill-rule="evenodd" clip-rule="evenodd" d="M18.9598 11.1691C18.8698 11.1691 18.7998 11.2491 18.7998 11.3391C18.7998 11.3891 18.8198 11.4291 18.8398 11.4691C18.8698 11.5091 18.9098 11.5291 18.9598 11.5291C19.0498 11.5291 19.1198 11.4491 19.1198 11.3491C19.1211 11.3252 19.1173 11.3012 19.1087 11.2788C19.1001 11.2564 19.0868 11.2361 19.0698 11.2191C19.0411 11.1887 19.0016 11.1708 18.9598 11.1691ZM18.9498 11.5691C18.9225 11.5695 18.8956 11.5634 18.8712 11.5512C18.8469 11.539 18.8258 11.5212 18.8098 11.4991C18.7798 11.4491 18.7498 11.3991 18.7598 11.3391C18.7598 11.2191 18.8498 11.1191 18.9598 11.1191C19.0198 11.1191 19.0598 11.1491 19.0998 11.1891C19.1298 11.2291 19.1498 11.2891 19.1498 11.3491C19.1398 11.4691 19.0598 11.5691 18.9498 11.5691Z" fill="#242222"/>
<path fill-rule="evenodd" clip-rule="evenodd" d="M19.0103 10.8992C19.1103 10.8992 19.1903 10.9892 19.1803 11.0992C19.1803 11.1992 19.1003 11.2892 19.0003 11.2892C18.9762 11.2894 18.9523 11.2844 18.9303 11.2746C18.9082 11.2649 18.8885 11.2505 18.8724 11.2326C18.8563 11.2146 18.8443 11.1934 18.837 11.1704C18.8297 11.1474 18.8274 11.1231 18.8303 11.0992C18.8303 10.9792 18.9103 10.8892 19.0103 10.8992Z" fill="#2D7347"/>
<path fill-rule="evenodd" clip-rule="evenodd" d="M19.0098 10.9189C18.9198 10.9189 18.8498 10.9989 18.8498 11.0889C18.8498 11.1789 18.9198 11.2689 19.0098 11.2689C19.0898 11.2689 19.1698 11.1889 19.1698 11.0989C19.1698 10.9989 19.0998 10.9189 19.0098 10.9189ZM19.0098 11.3089C18.8998 11.3089 18.8098 11.2089 18.8098 11.0889C18.8085 11.0618 18.8126 11.0347 18.8221 11.0093C18.8315 10.9839 18.846 10.9606 18.8647 10.941C18.8835 10.9213 18.906 10.9057 18.9309 10.895C18.9558 10.8844 18.9827 10.8789 19.0098 10.8789C19.1198 10.8789 19.1998 10.9789 19.1998 11.0989C19.1998 11.2089 19.1098 11.3089 19.0098 11.3089Z" fill="#242222"/>
<path fill-rule="evenodd" clip-rule="evenodd" d="M18.7203 10.9004C18.8303 10.9004 18.9203 10.9904 18.9203 11.1004C18.9203 11.2104 18.8303 11.3004 18.7203 11.2904C18.6672 11.2904 18.6164 11.2693 18.5789 11.2318C18.5414 11.1943 18.5203 11.1434 18.5203 11.0904C18.5103 10.9804 18.6003 10.9004 18.7203 10.9004Z" fill="#2D7347"/>
<path fill-rule="evenodd" clip-rule="evenodd" d="M18.72 10.9191C18.62 10.9191 18.53 10.9991 18.53 11.0891C18.53 11.1291 18.55 11.1691 18.57 11.2091C18.61 11.2491 18.65 11.2691 18.71 11.2691C18.8 11.2691 18.89 11.1891 18.89 11.0991C18.89 10.9991 18.81 10.9191 18.72 10.9191ZM18.72 11.3191C18.6874 11.3199 18.6551 11.3131 18.6256 11.2992C18.596 11.2853 18.5702 11.2648 18.55 11.2391C18.51 11.1991 18.5 11.1491 18.5 11.0891C18.5 10.9691 18.6 10.8691 18.72 10.8691C18.84 10.8691 18.94 10.9691 18.94 11.0891C18.93 11.2191 18.83 11.3191 18.72 11.3191Z" fill="#242222"/>
<path fill-rule="evenodd" clip-rule="evenodd" d="M19.0804 10.5801C19.1804 10.5801 19.2604 10.6701 19.2604 10.7701C19.2604 10.8701 19.1804 10.9501 19.0704 10.9501C18.9704 10.9501 18.8804 10.8601 18.8904 10.7601C18.8904 10.6601 18.9804 10.5801 19.0804 10.5801Z" fill="#2D7347"/>
<path fill-rule="evenodd" clip-rule="evenodd" d="M19.0801 10.6005C18.9801 10.6005 18.9101 10.6705 18.9101 10.7605C18.9101 10.8005 18.9201 10.8405 18.9501 10.8705C18.9801 10.9105 19.0301 10.9305 19.0801 10.9305C19.1701 10.9305 19.2401 10.8605 19.2401 10.7705C19.2501 10.6805 19.1701 10.6005 19.0801 10.6005ZM19.0801 10.9705C19.0501 10.9704 19.0204 10.9641 18.9929 10.9521C18.9654 10.9401 18.9406 10.9225 18.9201 10.9005C18.8891 10.8603 18.8715 10.8113 18.8701 10.7605C18.8701 10.6505 18.9601 10.5605 19.0701 10.5605C19.1901 10.5605 19.2801 10.6605 19.2801 10.7705C19.2801 10.8236 19.259 10.8745 19.2215 10.912C19.184 10.9495 19.1332 10.9705 19.0801 10.9705Z" fill="#242222"/>
<path fill-rule="evenodd" clip-rule="evenodd" d="M18.8296 10.6094C18.9296 10.6094 19.0096 10.6994 18.9996 10.8094C18.9996 10.9194 18.9196 11.0094 18.8196 10.9994C18.7196 10.9994 18.6396 10.9094 18.6396 10.7994C18.6496 10.6894 18.7296 10.6094 18.8296 10.6094Z" fill="#2D7347"/>
<path fill-rule="evenodd" clip-rule="evenodd" d="M18.8299 10.6298C18.7848 10.6298 18.7416 10.6478 18.7097 10.6796C18.6778 10.7115 18.6599 10.7548 18.6599 10.7998C18.6599 10.8498 18.6799 10.8898 18.7099 10.9198C18.7399 10.9498 18.7699 10.9698 18.8199 10.9698C18.9099 10.9698 18.9699 10.8898 18.9799 10.7998C18.9828 10.7785 18.981 10.7569 18.9748 10.7363C18.9685 10.7157 18.9579 10.6967 18.9437 10.6806C18.9295 10.6645 18.912 10.6516 18.8923 10.6428C18.8727 10.6341 18.8514 10.6297 18.8299 10.6298ZM18.8299 11.0198C18.8027 11.0202 18.7757 11.0141 18.7514 11.0019C18.727 10.9897 18.7059 10.9719 18.6899 10.9498C18.6499 10.9098 18.6399 10.8498 18.6399 10.7998C18.6385 10.7728 18.6427 10.7457 18.6522 10.7202C18.6616 10.6948 18.6761 10.6716 18.6948 10.6519C18.7135 10.6323 18.736 10.6166 18.761 10.606C18.7859 10.5953 18.8128 10.5898 18.8399 10.5898C18.9499 10.5898 19.0399 10.6898 19.0399 10.8098C19.0199 10.9198 18.9399 11.0198 18.8299 11.0198Z" fill="#242222"/>
<path fill-rule="evenodd" clip-rule="evenodd" d="M18.4605 10.9102C18.5505 10.9102 18.6405 11.0002 18.6305 11.1102C18.6305 11.2202 18.5505 11.3102 18.4505 11.3002C18.3505 11.3002 18.2705 11.2102 18.2705 11.1002C18.2705 10.9902 18.3505 10.9102 18.4605 10.9102Z" fill="#2D7347"/>
<path fill-rule="evenodd" clip-rule="evenodd" d="M18.4602 10.9304C18.3602 10.9304 18.2903 11.0104 18.2903 11.1004C18.2903 11.1504 18.3103 11.1904 18.3403 11.2304C18.3703 11.2704 18.4103 11.2804 18.4503 11.2804L18.4602 11.3004V11.2804C18.5402 11.2804 18.6203 11.2104 18.6203 11.1104C18.6225 11.0637 18.6084 11.0177 18.5803 10.9804C18.5303 10.9504 18.5002 10.9304 18.4602 10.9304ZM18.4503 11.3304C18.423 11.3308 18.3961 11.3246 18.3717 11.3125C18.3473 11.3003 18.3263 11.2824 18.3102 11.2604C18.2904 11.2409 18.2748 11.2175 18.2644 11.1917C18.2541 11.1659 18.2493 11.1382 18.2503 11.1104C18.2489 11.0833 18.2531 11.0562 18.2625 11.0308C18.2719 11.0053 18.2865 10.9821 18.3052 10.9625C18.3239 10.9428 18.3464 10.9272 18.3713 10.9165C18.3963 10.9058 18.4231 10.9004 18.4503 10.9004C18.5003 10.9004 18.5503 10.9204 18.5903 10.9704C18.6303 11.0104 18.6502 11.0704 18.6402 11.1304C18.6402 11.2304 18.5503 11.3304 18.4503 11.3304Z" fill="#242222"/>
<path fill-rule="evenodd" clip-rule="evenodd" d="M18.5103 10.7598C18.6103 10.7598 18.6903 10.8498 18.6803 10.9598C18.6803 11.0698 18.6003 11.1598 18.5003 11.1498C18.4003 11.1498 18.3203 11.0598 18.3203 10.9498C18.3403 10.8498 18.4103 10.7598 18.5103 10.7598Z" fill="#2D7347"/>
<path fill-rule="evenodd" clip-rule="evenodd" d="M18.5099 10.79C18.4199 10.79 18.3499 10.87 18.3499 10.96C18.3499 11.01 18.3599 11.05 18.3899 11.09C18.4199 11.12 18.4599 11.14 18.4999 11.14C18.5899 11.14 18.6599 11.07 18.6599 10.97C18.6599 10.92 18.6499 10.88 18.6199 10.85C18.5999 10.81 18.5599 10.79 18.5099 10.79ZM18.5099 11.18C18.4572 11.1792 18.4069 11.1577 18.3699 11.12C18.3299 11.07 18.3099 11.02 18.3199 10.96C18.3199 10.84 18.3999 10.75 18.5099 10.75C18.5699 10.75 18.6199 10.78 18.6499 10.82C18.6698 10.8395 18.6854 10.8628 18.6958 10.8887C18.7061 10.9145 18.7109 10.9422 18.7099 10.97C18.7099 11.08 18.6199 11.18 18.5099 11.18Z" fill="#242222"/>
<path fill-rule="evenodd" clip-rule="evenodd" d="M18.5904 10.5996C18.6904 10.5996 18.7704 10.6896 18.7604 10.7996C18.7604 10.9096 18.6804 10.9896 18.5804 10.9896C18.4804 10.9896 18.4004 10.8996 18.4004 10.7896C18.4104 10.6896 18.4904 10.5996 18.5904 10.5996Z" fill="#2D7347"/>
<path fill-rule="evenodd" clip-rule="evenodd" d="M18.5899 10.6201C18.4999 10.6201 18.4299 10.7001 18.4299 10.7901C18.4299 10.8401 18.4499 10.8801 18.4699 10.9101C18.4999 10.9401 18.5399 10.9601 18.5799 10.9601C18.6699 10.9601 18.7399 10.8801 18.7399 10.7901C18.7371 10.7473 18.7233 10.706 18.6999 10.6701C18.6712 10.6397 18.6317 10.6217 18.5899 10.6201ZM18.5899 11.0101C18.5627 11.0105 18.5357 11.0043 18.5114 10.9921C18.487 10.98 18.4659 10.9621 18.4499 10.9401C18.4116 10.8995 18.3902 10.8459 18.3899 10.7901C18.3885 10.763 18.3927 10.7359 18.4022 10.7105C18.4116 10.685 18.4261 10.6618 18.4448 10.6421C18.4635 10.6225 18.486 10.6069 18.511 10.5962C18.5359 10.5855 18.5628 10.58 18.5899 10.5801C18.6499 10.5801 18.6999 10.6101 18.7299 10.6501C18.7599 10.6901 18.7799 10.7401 18.7799 10.8001C18.7799 10.9201 18.6899 11.0101 18.5899 11.0101Z" fill="#242222"/>
<path fill-rule="evenodd" clip-rule="evenodd" d="M19.1004 11.2989C19.4004 11.1789 19.9404 11.8589 20.3104 12.8089C20.6704 13.7689 20.7204 14.6389 20.4204 14.7589C20.1104 14.8789 19.5804 14.1989 19.2104 13.2489C18.8504 12.2889 18.8004 11.4189 19.1004 11.2989Z" fill="#2D7347"/>
<path fill-rule="evenodd" clip-rule="evenodd" d="M19.1696 11.3094L19.0996 11.3194C19.0396 11.3394 18.9996 11.3894 18.9696 11.4694C18.8396 11.7994 18.9496 12.5094 19.2296 13.2394C19.5896 14.1694 20.1196 14.8494 20.4096 14.7394C20.4696 14.7194 20.5096 14.6694 20.5396 14.5894C20.6696 14.2594 20.5596 13.5494 20.2796 12.8194C19.9596 11.9494 19.4796 11.3094 19.1696 11.3094ZM20.3396 14.7894C20.0196 14.7894 19.5296 14.1294 19.1896 13.2494C18.9096 12.5094 18.7996 11.7894 18.9396 11.4494C18.9512 11.4109 18.9705 11.3751 18.9963 11.3442C19.0221 11.3132 19.0538 11.2878 19.0896 11.2694C19.3996 11.1494 19.9596 11.8394 20.3196 12.7994C20.5996 13.5394 20.7096 14.2694 20.5696 14.5994C20.5579 14.638 20.5387 14.6737 20.5129 14.7047C20.4871 14.7356 20.4554 14.761 20.4196 14.7794L20.3396 14.7894Z" fill="#242222"/>
<path fill-rule="evenodd" clip-rule="evenodd" d="M20.0902 12.9691C20.1402 12.9391 20.2502 13.0691 20.3302 13.2791C20.4102 13.4791 20.4302 13.6591 20.3702 13.6891C20.3102 13.7191 20.2002 13.5791 20.1202 13.3791C20.0502 13.1891 20.0302 12.9991 20.0902 12.9691Z" fill="#2D7347"/>
<path fill-rule="evenodd" clip-rule="evenodd" d="M20.1003 12.9892C20.0603 13.0092 20.0603 13.1592 20.1403 13.3792C20.2103 13.5592 20.3103 13.6792 20.3503 13.6792V13.6992L20.3603 13.6692C20.4003 13.6492 20.3903 13.4992 20.3103 13.2792C20.2403 13.0992 20.1503 12.9892 20.1003 12.9892ZM20.3603 13.7192C20.2803 13.7192 20.1803 13.5492 20.1103 13.3992C20.0403 13.2092 20.0003 12.9992 20.0803 12.9492C20.1903 12.9492 20.2903 13.1092 20.3503 13.2692C20.4303 13.4492 20.4603 13.6692 20.3803 13.7092L20.3603 13.7192Z" fill="#242222"/>
<path fill-rule="evenodd" clip-rule="evenodd" d="M20.1804 13.3298C20.6604 13.9798 20.5904 14.3898 20.5404 14.7398C20.3904 14.3398 20.3104 14.0898 19.8404 13.4398C19.3704 12.7898 19.6004 12.3298 19.6304 12.0898C19.7104 12.2998 19.7104 12.6798 20.1804 13.3298Z" fill="#2D7347"/>
<path fill-rule="evenodd" clip-rule="evenodd" d="M19.64 12.1598L19.62 12.2298C19.56 12.4898 19.46 12.8798 19.85 13.4198C20.3 14.0398 20.39 14.2998 20.53 14.6598C20.58 14.3198 20.6 13.9298 20.16 13.3398C19.79 12.8198 19.71 12.4798 19.65 12.2498L19.64 12.1598ZM20.56 14.8098L20.51 14.6898C20.37 14.3298 20.28 14.0598 19.83 13.4498C19.43 12.8998 19.53 12.4798 19.59 12.2298L19.62 12.0898C19.67 12.1298 19.68 12.1798 19.7 12.2398C19.75 12.4698 19.83 12.8098 20.2 13.3098C20.68 13.9698 20.62 14.3898 20.57 14.7298L20.56 14.8098Z" fill="#242222"/>
<path fill-rule="evenodd" clip-rule="evenodd" d="M20.2203 13.8494C20.7003 14.4994 20.6303 14.9094 20.5803 15.2594C20.4303 14.8594 20.3503 14.6094 19.8803 13.9594C19.4103 13.3094 19.6403 12.8494 19.6803 12.6094C19.7503 12.8194 19.7503 13.2094 20.2203 13.8494Z" fill="#2D7347"/>
<path fill-rule="evenodd" clip-rule="evenodd" d="M19.6797 12.6894L19.6697 12.7594C19.6097 13.0194 19.5097 13.4194 19.8997 13.9494C20.3497 14.5594 20.4497 14.8294 20.5797 15.1894C20.6197 14.8494 20.6497 14.4694 20.2097 13.8694C19.8297 13.3494 19.7597 13.0094 19.6997 12.7794C19.7001 12.7482 19.6933 12.7174 19.6797 12.6894ZM20.5997 15.3394L20.5497 15.2094C20.3979 14.7592 20.1677 14.3394 19.8697 13.9694C19.4697 13.4194 19.5797 12.9894 19.6297 12.7394L19.6597 12.6094C19.7097 12.6494 19.7197 12.6994 19.7397 12.7594C19.7897 12.9794 19.8697 13.3294 20.2397 13.8294C20.7197 14.4794 20.6597 14.9094 20.6097 15.2494L20.5997 15.3394Z" fill="#242222"/>
<path fill-rule="evenodd" clip-rule="evenodd" d="M20.2399 14.2788C20.7299 14.9188 20.6699 15.3288 20.6299 15.6788C20.4799 15.2788 20.3899 15.0288 19.9099 14.3888C19.4299 13.7488 19.6599 13.2888 19.6799 13.0488C19.7499 13.2588 19.7499 13.6388 20.2399 14.2788Z" fill="#2D7347"/>
<path fill-rule="evenodd" clip-rule="evenodd" d="M19.6802 13.1188L19.6702 13.1888C19.6102 13.4488 19.5202 13.8488 19.9202 14.3688C20.3802 14.9688 20.4802 15.2388 20.6202 15.5888C20.6602 15.2488 20.6702 14.8688 20.2302 14.2788C19.9595 13.94 19.7712 13.5429 19.6802 13.1188ZM20.6402 15.7488L20.5902 15.6288C20.4502 15.2688 20.3502 15.0088 19.8902 14.4088C19.4802 13.8688 19.5802 13.4488 19.6302 13.1888L19.6602 13.0488C19.7102 13.0888 19.7202 13.1388 19.7402 13.1988C19.7902 13.4188 19.8802 13.7588 20.2602 14.2588C20.7502 14.8988 20.7002 15.3288 20.6502 15.6688L20.6402 15.7488Z" fill="#242222"/>
<path fill-rule="evenodd" clip-rule="evenodd" d="M19.6497 12.0805C19.7597 12.0505 19.9697 12.3105 20.0997 12.6605C20.2297 13.0105 20.2597 13.3305 20.1497 13.3605C20.0397 13.3905 19.8397 13.1305 19.6997 12.7805C19.5597 12.4205 19.5397 12.1105 19.6497 12.0805Z" fill="#2D7347"/>
<path fill-rule="evenodd" clip-rule="evenodd" d="M19.6699 12.1005C19.6399 12.1105 19.6299 12.1205 19.6199 12.1405C19.5799 12.2405 19.6199 12.5005 19.7199 12.7705C19.8599 13.1305 20.0399 13.3405 20.1299 13.3405V13.3605L20.1399 13.3405C20.1576 13.3325 20.1719 13.3183 20.1799 13.3005C20.2199 13.2005 20.1799 12.9405 20.0799 12.6705C19.9499 12.3105 19.7599 12.1005 19.6699 12.1005ZM20.1299 13.3805C20.0099 13.3805 19.8099 13.1205 19.6799 12.7805C19.5699 12.5005 19.5299 12.2305 19.5799 12.1205C19.5899 12.0805 19.6099 12.0605 19.6399 12.0605C19.7899 12.0605 19.9799 12.3205 20.1099 12.6605C20.2199 12.9405 20.2599 13.2105 20.2099 13.3205C20.2056 13.3347 20.1979 13.3476 20.1874 13.3581C20.1769 13.3685 20.164 13.3763 20.1499 13.3805H20.1299Z" fill="#242222"/>
<path fill-rule="evenodd" clip-rule="evenodd" d="M19.5204 12.5501C19.6204 12.5301 19.7904 12.7501 19.8904 13.0401C20.0004 13.3301 20.0004 13.5901 19.9104 13.6101C19.8104 13.6301 19.6404 13.4101 19.5304 13.1101C19.4304 12.8201 19.4204 12.5701 19.5204 12.5501Z" fill="#2D7347"/>
<path fill-rule="evenodd" clip-rule="evenodd" d="M19.5303 12.5693C19.5003 12.5693 19.4903 12.5793 19.4803 12.5993C19.4403 12.6793 19.4703 12.8893 19.5503 13.1093C19.6603 13.4093 19.8203 13.5893 19.9003 13.5893V13.6093L19.9103 13.5893C19.9203 13.5893 19.9403 13.5793 19.9403 13.5593C19.9803 13.4793 19.9503 13.2693 19.8803 13.0493C19.7703 12.7493 19.6103 12.5693 19.5303 12.5693ZM19.9003 13.6293C19.7903 13.6293 19.6303 13.4093 19.5203 13.1193C19.4303 12.8793 19.4103 12.6693 19.4503 12.5793C19.4703 12.5493 19.4803 12.5293 19.5103 12.5293C19.6403 12.5293 19.8003 12.7493 19.9003 13.0393C19.9903 13.2693 20.0103 13.4893 19.9603 13.5793C19.9503 13.6093 19.9303 13.6293 19.9003 13.6293Z" fill="#242222"/>
<path fill-rule="evenodd" clip-rule="evenodd" d="M19.3104 12.7903C19.4104 12.7703 19.5704 13.0003 19.6804 13.2903C19.7804 13.5803 19.7804 13.8403 19.6804 13.8603C19.5804 13.8803 19.4104 13.6503 19.3104 13.3503C19.2104 13.0603 19.2104 12.8103 19.3104 12.7903Z" fill="#2D7347"/>
<path fill-rule="evenodd" clip-rule="evenodd" d="M19.3199 12.8095C19.2999 12.8095 19.2799 12.8195 19.2799 12.8395C19.2399 12.9195 19.2599 13.1295 19.3399 13.3495C19.4399 13.6595 19.5899 13.8395 19.6799 13.8395V13.8595L19.6899 13.8395C19.7099 13.8395 19.7199 13.8295 19.7299 13.8095C19.7699 13.7295 19.7399 13.5195 19.6699 13.2995C19.5499 12.9995 19.3999 12.8095 19.3199 12.8095ZM19.6699 13.8795C19.5599 13.8795 19.3999 13.6595 19.2999 13.3595C19.2199 13.1295 19.1999 12.9095 19.2499 12.8195C19.2599 12.7895 19.2899 12.7695 19.3099 12.7695H19.3199C19.4399 12.7695 19.5999 12.9895 19.7099 13.2895C19.7899 13.5195 19.8099 13.7395 19.7599 13.8295C19.7499 13.8595 19.7299 13.8795 19.6999 13.8795H19.6699Z" fill="#242222"/>
<path fill-rule="evenodd" clip-rule="evenodd" d="M19.5103 12.0407C19.6003 12.0207 19.7303 12.1907 19.8303 12.4107C19.9303 12.6307 19.9303 12.8207 19.8503 12.8407C19.7703 12.8607 19.6303 12.6907 19.5303 12.4707C19.4403 12.2507 19.4303 12.0607 19.5103 12.0407Z" fill="#2D7347"/>
<path fill-rule="evenodd" clip-rule="evenodd" d="M19.5197 12.0598C19.4597 12.1398 19.4697 12.2798 19.5397 12.4498C19.6397 12.6698 19.7597 12.8098 19.8297 12.8098V12.8298L19.8397 12.8098C19.8897 12.7298 19.8797 12.5898 19.7997 12.4098C19.7097 12.1898 19.5797 12.0598 19.5197 12.0598ZM19.8297 12.8498C19.7397 12.8498 19.5997 12.6898 19.5097 12.4698C19.4297 12.2998 19.4097 12.1398 19.4497 12.0598C19.4597 12.0298 19.4797 12.0198 19.4997 12.0098C19.5997 12.0098 19.7397 12.1698 19.8297 12.3898C19.9097 12.5598 19.9297 12.7198 19.8897 12.7998C19.8797 12.8298 19.8597 12.8398 19.8397 12.8498H19.8297Z" fill="#242222"/>
<path fill-rule="evenodd" clip-rule="evenodd" d="M19.3403 12.1899C19.4203 12.1799 19.5503 12.3499 19.6303 12.5699C19.7103 12.7999 19.7103 12.9899 19.6303 12.9999C19.5503 13.0099 19.4203 12.8399 19.3403 12.6099C19.2603 12.3999 19.2603 12.2099 19.3403 12.1899Z" fill="#2D7347"/>
<path fill-rule="evenodd" clip-rule="evenodd" d="M19.3496 12.2099C19.2896 12.2899 19.2896 12.4199 19.3496 12.6099C19.4396 12.8399 19.5596 12.9799 19.6196 12.9799C19.6796 12.8899 19.6596 12.7399 19.6096 12.5799C19.5296 12.3599 19.4196 12.2199 19.3496 12.2099ZM19.6296 13.0299C19.5396 13.0299 19.4096 12.8599 19.3196 12.6299C19.2596 12.4499 19.2396 12.2899 19.2796 12.2199C19.2896 12.1899 19.3096 12.1799 19.3396 12.1699C19.4396 12.1699 19.5696 12.3399 19.6496 12.5699C19.7096 12.7399 19.7296 12.9099 19.6896 12.9799C19.6796 13.0099 19.6596 13.0199 19.6296 13.0299Z" fill="#242222"/>
<path fill-rule="evenodd" clip-rule="evenodd" d="M19.3398 12.3496C19.4798 12.7396 19.5398 13.0796 19.4698 13.1196C19.3998 13.1596 19.2198 12.8796 19.0898 12.4996L19.3398 12.3496Z" fill="#2D7347"/>
<path fill-rule="evenodd" clip-rule="evenodd" d="M19.4703 13.1401H19.4303C19.3403 13.1101 19.1903 12.8401 19.0703 12.5101C19.2403 12.8501 19.3803 13.0801 19.4403 13.1001C19.5003 13.0701 19.4703 12.7701 19.3203 12.3501L19.3503 12.3301C19.4803 12.7001 19.5703 13.0801 19.4703 13.1401Z" fill="#242222"/>
<path fill-rule="evenodd" clip-rule="evenodd" d="M19.3198 11.7407C19.3998 11.7307 19.5298 11.9007 19.6098 12.1207C19.6898 12.3507 19.6898 12.5407 19.6098 12.5507C19.5298 12.5607 19.3998 12.3907 19.3198 12.1607C19.2398 11.9507 19.2398 11.7507 19.3198 11.7407Z" fill="#2D7347"/>
<path fill-rule="evenodd" clip-rule="evenodd" d="M19.3305 11.7607C19.2605 11.8507 19.2805 12.0007 19.3405 12.1607C19.4205 12.3807 19.5405 12.5307 19.6005 12.5307C19.6605 12.4507 19.6605 12.3207 19.5905 12.1307C19.5105 11.9107 19.3905 11.7607 19.3305 11.7607ZM19.6005 12.5707C19.5105 12.5707 19.3805 12.4007 19.3005 12.1707C19.2405 12.0007 19.2305 11.8307 19.2605 11.7607C19.2805 11.7307 19.3005 11.7207 19.3205 11.7207C19.4205 11.7207 19.5505 11.8907 19.6305 12.1207C19.6905 12.2907 19.7105 12.4507 19.6705 12.5307C19.6505 12.5607 19.6405 12.5707 19.6105 12.5707H19.6005Z" fill="#242222"/>
<path fill-rule="evenodd" clip-rule="evenodd" d="M19.0896 11.8695C19.1696 11.8595 19.2996 12.0395 19.3696 12.2595C19.4496 12.4895 19.4396 12.6795 19.3596 12.6895C19.2796 12.6995 19.1496 12.5295 19.0796 12.2995C19.0096 12.0695 19.0096 11.8795 19.0896 11.8695Z" fill="#2D7347"/>
<path fill-rule="evenodd" clip-rule="evenodd" d="M19.0996 11.8896C19.0296 11.9696 19.0496 12.1296 19.0996 12.2896C19.1696 12.5096 19.2996 12.6696 19.3596 12.6696V12.6896L19.3696 12.6696C19.4296 12.5896 19.4196 12.4296 19.3596 12.2696C19.2896 12.0396 19.1696 11.8896 19.0996 11.8896ZM19.3596 12.7096C19.2696 12.7096 19.1396 12.5296 19.0696 12.2996C19.0096 12.1196 18.9996 11.9596 19.0396 11.8896C19.0596 11.8596 19.0796 11.8496 19.0996 11.8496C19.1996 11.8496 19.3196 12.0196 19.3996 12.2496C19.4596 12.4296 19.4696 12.5896 19.4296 12.6596C19.4196 12.6896 19.3996 12.6996 19.3596 12.7096Z" fill="#242222"/>
<path fill-rule="evenodd" clip-rule="evenodd" d="M19.1004 11.8203C19.2404 12.0803 19.3104 12.3203 19.2604 12.3603C19.2204 12.4003 19.0704 12.2203 18.9404 11.9603L19.1004 11.8203Z" fill="#2D7347"/>
<path fill-rule="evenodd" clip-rule="evenodd" d="M19.2699 12.3805C19.1599 12.3705 19.0199 12.1705 18.9199 11.9705C19.0799 12.1905 19.1999 12.3305 19.2399 12.3405C19.2699 12.3205 19.2399 12.1305 19.0799 11.8305L19.1099 11.8105C19.2099 12.0105 19.3399 12.3305 19.2699 12.3805Z" fill="#242222"/>
<path fill-rule="evenodd" clip-rule="evenodd" d="M19.1905 11.6504C19.3205 11.9104 19.4005 12.1504 19.3505 12.1904C19.3105 12.2304 19.1605 12.0504 19.0205 11.7904L19.1905 11.6504Z" fill="#2D7347"/>
<path fill-rule="evenodd" clip-rule="evenodd" d="M19.3598 12.2089C19.2398 12.1989 19.1098 11.9989 19.0098 11.7989C19.1698 12.0189 19.2898 12.1589 19.3298 12.1689C19.3598 12.1489 19.3298 11.9589 19.1698 11.6489L19.1998 11.6289C19.3098 11.8389 19.4298 12.1489 19.3598 12.2089Z" fill="#242222"/>
<path fill-rule="evenodd" clip-rule="evenodd" d="M19.6101 11.6895C19.8001 12.0495 19.9001 12.3795 19.8301 12.4295C19.7601 12.4795 19.5701 12.2395 19.3701 11.8795L19.6101 11.6895Z" fill="#2D7347"/>
<path fill-rule="evenodd" clip-rule="evenodd" d="M19.8101 12.4597C19.7201 12.4397 19.5301 12.2097 19.3701 11.8997C19.5801 12.2097 19.7501 12.4097 19.8201 12.4197C19.8801 12.3797 19.8101 12.0897 19.6101 11.6997L19.6401 11.6797C19.8101 12.0097 19.9501 12.3797 19.8601 12.4497L19.8101 12.4597Z" fill="#242222"/>
<path fill-rule="evenodd" clip-rule="evenodd" d="M19.3302 11.5C19.4602 11.79 19.5402 12.06 19.4902 12.1C19.4502 12.14 19.3002 11.95 19.1602 11.66L19.3302 11.5Z" fill="#2D7347"/>
<path fill-rule="evenodd" clip-rule="evenodd" d="M19.5104 12.12C19.3904 12.12 19.2604 11.89 19.1504 11.67C19.3104 11.91 19.4304 12.08 19.4804 12.09C19.5104 12.07 19.4804 11.85 19.3204 11.52L19.3504 11.5C19.4504 11.71 19.5804 12.05 19.5104 12.12Z" fill="#242222"/>
<path fill-rule="evenodd" clip-rule="evenodd" d="M19.3198 11.0903C19.2298 11.1903 19.3198 11.3903 19.3998 11.4603C19.4898 11.5503 20.0198 12.1803 20.3898 11.6503C20.0898 11.6403 19.5398 10.8503 19.3198 11.0903Z" fill="#875BA2"/>
<path fill-rule="evenodd" clip-rule="evenodd" d="M19.4198 11.0693C19.3898 11.0693 19.3498 11.0793 19.3298 11.1093C19.3098 11.1393 19.2898 11.1693 19.2998 11.2193C19.3098 11.3093 19.3598 11.3993 19.4198 11.4393C19.5398 11.5693 19.7898 11.8393 20.0498 11.8393C20.1798 11.8393 20.2898 11.7693 20.3798 11.6393C20.2598 11.6693 20.0798 11.5193 19.8998 11.3693C19.7198 11.2193 19.5398 11.0693 19.4198 11.0693ZM20.0398 11.8793C19.7698 11.8793 19.5098 11.5993 19.4098 11.4893C19.332 11.4178 19.2794 11.3231 19.2598 11.2193C19.2598 11.1593 19.2698 11.1093 19.3098 11.0693C19.4298 10.9393 19.6698 11.1193 19.9198 11.3293C20.0898 11.4793 20.2698 11.6193 20.3898 11.6293C20.3098 11.7993 20.1798 11.8793 20.0398 11.8793Z" fill="#242222"/>
<path fill-rule="evenodd" clip-rule="evenodd" d="M19.2602 10.7807C19.1702 10.8907 19.2502 11.0807 19.3402 11.1507C19.4302 11.2507 19.9602 11.8707 20.3302 11.3407C20.0302 11.3307 19.4702 10.5507 19.2602 10.7807Z" fill="#875BA2"/>
<path fill-rule="evenodd" clip-rule="evenodd" d="M19.3502 10.7605C19.3332 10.7604 19.3164 10.7639 19.3009 10.7708C19.2854 10.7777 19.2715 10.7878 19.2602 10.8005C19.2385 10.8329 19.228 10.8715 19.2302 10.9105C19.2302 11.0005 19.2902 11.0905 19.3402 11.1305C19.4602 11.2605 19.7102 11.5305 19.9702 11.5305C20.1002 11.5305 20.2102 11.4605 20.3002 11.3305C20.1802 11.3605 20.0002 11.2105 19.8202 11.0605C19.6602 10.9105 19.4802 10.7605 19.3502 10.7605ZM19.9802 11.5705C19.7102 11.5705 19.4502 11.2905 19.3502 11.1905C19.2685 11.1179 19.2154 11.0187 19.2002 10.9105C19.2002 10.8605 19.2102 10.8005 19.2402 10.7705C19.3702 10.6405 19.6002 10.8205 19.8602 11.0305C20.0302 11.1705 20.2102 11.3205 20.3302 11.3305C20.2402 11.5005 20.1202 11.5705 19.9802 11.5705Z" fill="#242222"/>
<path fill-rule="evenodd" clip-rule="evenodd" d="M19.1703 10.4795C19.0803 10.5795 19.1703 10.7795 19.2503 10.8495C19.3503 10.9395 19.8703 11.5695 20.2403 11.0395C19.9503 11.0395 19.3903 10.2495 19.1703 10.4795Z" fill="#875BA2"/>
<path fill-rule="evenodd" clip-rule="evenodd" d="M19.2701 10.4599C19.2531 10.4599 19.2363 10.4634 19.2208 10.4703C19.2053 10.4772 19.1914 10.4873 19.1801 10.4999C19.1601 10.5299 19.1401 10.5599 19.1501 10.6099C19.1601 10.6899 19.2201 10.7899 19.2601 10.8299C19.3801 10.9599 19.6301 11.2299 19.8901 11.2299C20.0201 11.2299 20.1301 11.1699 20.2201 11.0299C20.1001 11.0599 19.9301 10.9099 19.7401 10.7599C19.5801 10.6099 19.4001 10.4599 19.2701 10.4599ZM19.9001 11.2699C19.6301 11.2699 19.3601 10.9899 19.2701 10.8899C19.1885 10.8174 19.1353 10.7181 19.1201 10.6099C19.1201 10.5499 19.1301 10.4999 19.1601 10.4699C19.2801 10.3299 19.5201 10.5199 19.7701 10.7299C19.9401 10.8799 20.1201 11.0199 20.2401 11.0299C20.1601 11.1999 20.0301 11.2699 19.9001 11.2699Z" fill="#242222"/>
<path fill-rule="evenodd" clip-rule="evenodd" d="M18.9897 10.1396C18.8997 10.2396 18.9897 10.4396 19.0697 10.5096C19.1697 10.6096 19.6897 11.2296 20.0597 10.6996C19.7597 10.6996 19.2097 9.90964 18.9897 10.1396Z" fill="#875BA2"/>
<path fill-rule="evenodd" clip-rule="evenodd" d="M19.0897 10.1201C19.0742 10.1201 19.0589 10.1237 19.045 10.1307C19.0311 10.1376 19.019 10.1477 19.0097 10.1601C18.9797 10.1901 18.9697 10.2201 18.9697 10.2701C18.9797 10.3601 19.0297 10.4501 19.0797 10.4901C19.1997 10.6201 19.4597 10.8901 19.7097 10.8901C19.8397 10.8901 19.9497 10.8201 20.0397 10.6901C19.9197 10.7201 19.7397 10.5801 19.5597 10.4201C19.3997 10.2701 19.2097 10.1201 19.0897 10.1201ZM19.7097 10.9301C19.4397 10.9301 19.1797 10.6501 19.0797 10.5501C18.998 10.4775 18.9449 10.3783 18.9297 10.2701C18.9297 10.2101 18.9397 10.1601 18.9697 10.1301C19.0997 9.99009 19.3397 10.1801 19.5897 10.3901C19.7597 10.5401 19.9397 10.6801 20.0597 10.6901C19.9697 10.8601 19.8597 10.9301 19.7097 10.9301Z" fill="#242222"/>
<path fill-rule="evenodd" clip-rule="evenodd" d="M18.3401 9.81945C18.5301 9.65945 18.8701 9.61946 19.1401 9.76946C19.3701 9.88946 19.7401 10.3995 20.0201 10.5195C19.9464 10.5394 19.8696 10.5444 19.794 10.5341C19.7184 10.5238 19.6457 10.4984 19.5801 10.4595C19.3301 10.6595 19.2401 10.6995 18.9901 10.7295C18.6401 10.7895 18.3501 10.6795 18.2401 10.4795C18.1401 10.2795 18.1801 9.96945 18.3401 9.81945Z" fill="#875BA2"/>
<path fill-rule="evenodd" clip-rule="evenodd" d="M18.7803 9.69921C18.6281 9.69443 18.4792 9.74406 18.3603 9.83921C18.2839 9.92295 18.2337 10.0273 18.2159 10.1392C18.1982 10.2512 18.2136 10.3659 18.2603 10.4692C18.3603 10.6692 18.6403 10.7692 18.9903 10.7092C19.2093 10.6898 19.4145 10.5943 19.5703 10.4392C19.7503 10.5192 19.8403 10.5392 20.0203 10.4992C19.8603 10.4692 19.6803 10.2892 19.4903 10.1092C19.3842 9.98785 19.2633 9.88034 19.1303 9.78921C19.0239 9.72819 18.903 9.69709 18.7803 9.69921ZM18.8003 10.7592C18.5203 10.7592 18.3103 10.6592 18.2303 10.4792C18.1203 10.2692 18.1703 9.94921 18.3403 9.79921C18.5403 9.62921 18.9103 9.59921 19.1603 9.74921C19.2603 9.80921 19.3903 9.93921 19.5303 10.0692C19.7003 10.2392 19.8803 10.4292 20.0403 10.4892C19.9957 10.5274 19.9391 10.5486 19.8803 10.5492C19.778 10.5511 19.6772 10.5233 19.5903 10.4692C19.4406 10.6341 19.2326 10.7345 19.0103 10.7492C18.9303 10.7592 18.8603 10.7692 18.8003 10.7592Z" fill="#242222"/>
<path fill-rule="evenodd" clip-rule="evenodd" d="M18.7401 10.0293C18.8301 10.0293 18.9001 10.0793 18.9001 10.1393C18.9001 10.1993 18.8301 10.2393 18.7401 10.2393C18.6501 10.2393 18.5801 10.1893 18.5801 10.1293C18.5801 10.0693 18.6601 10.0293 18.7401 10.0293Z" fill="#C8273C"/>
<path fill-rule="evenodd" clip-rule="evenodd" d="M18.7396 10.05C18.6596 10.05 18.5996 10.09 18.5996 10.13C18.5996 10.18 18.6696 10.22 18.7396 10.22C18.8196 10.22 18.8796 10.18 18.8796 10.14C18.8896 10.09 18.8296 10.05 18.7396 10.05ZM18.7396 10.26C18.6396 10.26 18.5596 10.2 18.5596 10.13C18.5696 10.06 18.6396 10 18.7396 10C18.8496 10 18.9196 10.06 18.9196 10.13C18.9196 10.21 18.8496 10.26 18.7396 10.26Z" fill="#242222"/>
<path fill-rule="evenodd" clip-rule="evenodd" d="M18.2104 10.419C18.3204 10.369 18.4404 10.399 18.4704 10.479C18.5004 10.559 18.4204 10.659 18.3104 10.709C18.1904 10.759 18.0804 10.729 18.0504 10.649C18.0104 10.569 18.0904 10.469 18.2104 10.419Z" fill="#F5D71C"/>
<path fill-rule="evenodd" clip-rule="evenodd" d="M18.3205 10.4103C18.2819 10.4109 18.2441 10.4212 18.2105 10.4403C18.1105 10.4803 18.0305 10.5803 18.0605 10.6403C18.0805 10.7103 18.1905 10.7303 18.2905 10.6803C18.4005 10.6403 18.4705 10.5403 18.4505 10.4703C18.435 10.4509 18.4152 10.4354 18.3926 10.425C18.37 10.4145 18.3454 10.4095 18.3205 10.4103ZM18.1805 10.7503C18.1005 10.7503 18.0405 10.7103 18.0205 10.6603C17.9905 10.5703 18.0605 10.4503 18.2005 10.4003C18.3205 10.3503 18.4505 10.3803 18.4805 10.4703C18.5105 10.5603 18.4405 10.6803 18.3005 10.7303C18.2615 10.7418 18.2212 10.7486 18.1805 10.7503ZM18.7405 10.0703C18.7705 10.0703 18.8005 10.1003 18.8005 10.1303C18.8005 10.1603 18.7705 10.1903 18.7405 10.1803C18.7246 10.1803 18.7094 10.174 18.6981 10.1627C18.6868 10.1515 18.6805 10.1362 18.6805 10.1203C18.6805 10.0903 18.7105 10.0703 18.7405 10.0703Z" fill="#242222"/>
<path fill-rule="evenodd" clip-rule="evenodd" d="M18.3901 10.2803C18.3932 10.3297 18.3802 10.3787 18.3532 10.4201C18.3262 10.4616 18.2865 10.4932 18.2401 10.5103C18.1201 10.5603 18.0301 10.6903 17.9801 10.9003C17.8001 10.4303 17.9101 10.2403 18.1001 10.1903C18.2601 10.1203 18.3601 10.1303 18.3901 10.2803Z" fill="#F5D71C"/>
<path fill-rule="evenodd" clip-rule="evenodd" d="M18.25 10.1707C18.2021 10.1739 18.1549 10.184 18.11 10.2007C18.0718 10.207 18.036 10.2233 18.0062 10.2479C17.9763 10.2725 17.9535 10.3045 17.94 10.3407C17.89 10.4507 17.9 10.6107 17.98 10.8307C18.03 10.6607 18.12 10.5407 18.23 10.4907C18.2739 10.4771 18.3118 10.4488 18.3373 10.4106C18.3628 10.3723 18.3743 10.3265 18.37 10.2807C18.36 10.2007 18.32 10.1707 18.25 10.1707ZM17.98 10.9507L17.96 10.9007C17.86 10.6507 17.84 10.4507 17.9 10.3207C17.93 10.2407 18 10.1807 18.09 10.1607C18.29 10.0907 18.37 10.1307 18.4 10.2707C18.42 10.3607 18.36 10.4807 18.23 10.5307C18.12 10.5807 18.03 10.7107 17.98 10.9007V10.9507Z" fill="#242222"/>
<path fill-rule="evenodd" clip-rule="evenodd" d="M18.2099 10.2598C18.2299 10.2598 18.2499 10.2798 18.2499 10.3098C18.2499 10.3298 18.2299 10.3598 18.2099 10.3598C18.1993 10.3598 18.1891 10.3556 18.1816 10.3481C18.1741 10.3405 18.1699 10.3304 18.1699 10.3198C18.1699 10.2898 18.1899 10.2698 18.2099 10.2598Z" fill="#242222"/>
</g>
</g>
<defs>
<clipPath id="clip0_26003_75657">
<rect width="38" height="25" fill="white" transform="translate(0 0.5)"/>
</clipPath>
<clipPath id="clip1_26003_75657">
<rect width="38" height="25" fill="white" transform="translate(0 0.5)"/>
</clipPath>
</defs>
</svg>
