<svg width="38" height="26" viewBox="0 0 38 26" fill="none" xmlns="http://www.w3.org/2000/svg">
<g clip-path="url(#clip0_26003_70151)">
<g clip-path="url(#clip1_26003_70151)">
<path fill-rule="evenodd" clip-rule="evenodd" d="M2.5 25.5H35.6C36.9 25.2 37.9 24.1 38.1 22.6V3.4C37.9 1.9 36.9 0.7 35.6 0.5H2.5C1.2 0.8 0.2 1.9 0 3.4V22.6C0.2 24.1 1.2 25.2 2.5 25.5Z" fill="#293A8C"/>
<path fill-rule="evenodd" clip-rule="evenodd" d="M8.59961 0.5H13.4996V25.5H8.59961V0.5Z" fill="#FEFEFE"/>
<path fill-rule="evenodd" clip-rule="evenodd" d="M0 10.1992H38V15.7992H0V10.1992Z" fill="#FEFEFE"/>
<path fill-rule="evenodd" clip-rule="evenodd" d="M9.90039 0.5H12.4004V25.5H9.90039V0.5Z" fill="#C92836"/>
<path fill-rule="evenodd" clip-rule="evenodd" d="M0 11.6016H38V14.4016H0V11.6016Z" fill="#C92836"/>
</g>
</g>
<defs>
<clipPath id="clip0_26003_70151">
<rect width="38" height="25" fill="white" transform="translate(0 0.5)"/>
</clipPath>
<clipPath id="clip1_26003_70151">
<rect width="38" height="25" fill="white" transform="translate(0 0.5)"/>
</clipPath>
</defs>
</svg>
