<svg width="38" height="26" viewBox="0 0 38 26" fill="none" xmlns="http://www.w3.org/2000/svg">
<g clip-path="url(#clip0_26003_90540)">
<g clip-path="url(#clip1_26003_90540)">
<path fill-rule="evenodd" clip-rule="evenodd" d="M2.59961 25.5004H35.5996C36.8996 25.3004 37.8996 24.1004 38.0996 22.6004V18.4004H0.0996094V22.6004C0.131415 23.2939 0.395088 23.9567 0.848383 24.4825C1.30168 25.0083 1.91836 25.3668 2.59961 25.5004Z" fill="#52B044"/>
<path fill-rule="evenodd" clip-rule="evenodd" d="M0.0996094 7.59961H37.9996V18.2996H0.0996094V7.59961Z" fill="#FEFEFE"/>
<path fill-rule="evenodd" clip-rule="evenodd" d="M0.0996094 7.6H37.9996V3.4C37.7996 1.9 36.7996 0.7 35.4996 0.5H2.49961C1.29961 0.7 0.199609 1.9 0.0996094 3.4V7.6Z" fill="#E42041"/>
<path fill-rule="evenodd" clip-rule="evenodd" d="M18.9998 12.4996C18.7998 12.0996 18.2998 11.8996 18.2998 11.8996C18.2998 11.8996 18.4998 11.4996 18.9998 11.4996C19.4998 11.4996 19.6998 11.8996 19.6998 11.8996C19.6998 11.8996 19.1998 12.0996 18.9998 12.4996ZM18.9998 15.4996C19.1998 15.7996 19.8998 15.9996 20.3998 15.6996C20.4998 15.9996 21.1998 16.4996 21.7998 15.9996C21.0998 15.8996 20.6998 15.5996 20.2998 14.9996C19.8998 15.2996 19.2998 14.9996 19.0998 14.8996V12.8996L19.9998 11.8996C19.9998 11.6996 19.3998 11.0996 18.7998 11.0996C18.1998 11.0996 17.5998 11.6996 17.5998 11.8996L18.4998 12.8996V14.8996C18.3998 15.0996 17.6998 15.3996 17.2998 14.9996C16.8998 15.5996 16.4998 15.7996 15.7998 15.9996C16.3998 16.4996 17.1998 15.9996 17.1998 15.6996C18.1998 15.9996 18.7998 15.7996 18.9998 15.4996Z" fill="#D3BC14"/>
<path fill-rule="evenodd" clip-rule="evenodd" d="M18.9998 15.6992C18.9998 15.6992 19.1998 16.1992 19.5998 16.1992C20.1998 16.1992 20.3998 15.7992 20.3998 15.7992C20.3998 15.7992 20.1998 15.9992 20.2998 16.2992C20.3998 16.6992 20.6998 16.7992 20.8998 17.0992L20.6998 17.3992C20.3998 16.9992 19.8998 16.6992 18.9998 16.6992V15.6992ZM18.9998 16.5992V15.6992C18.9998 15.6992 18.7998 16.1992 18.3998 16.1992C17.7998 16.1992 17.5998 15.7992 17.5998 15.7992C17.5998 15.7992 17.7998 15.9992 17.6998 16.2992C17.5998 16.6992 17.2998 16.7992 17.0998 17.0992L17.2998 17.3992C17.5998 16.8992 18.1998 16.5992 18.9998 16.5992ZM23.0998 13.2992L23.1998 13.7992H23.6998L23.2998 14.1992L23.4998 14.6992L23.0998 14.3992L22.6998 14.6992L22.7998 14.1992L22.3998 13.7992H22.8998L23.0998 13.2992ZM22.4998 10.9992L22.6998 11.5992H23.1998L22.7998 11.8992L22.8998 12.4992L22.4998 12.0992L22.0998 12.4992L22.2998 11.8992L21.8998 11.5992H22.3998L22.4998 10.9992ZM21.0998 9.29922L21.1998 9.89922H21.6998L21.2998 10.1992L21.4998 10.7992L21.0998 10.3992L20.5998 10.7992L20.7998 10.1992L20.3998 9.89922H20.8998L21.0998 9.29922ZM18.9998 8.69922L19.1998 9.29922H19.6998L19.2998 9.59922L19.4998 10.1992L18.9998 9.79922L18.5998 10.1992L18.7998 9.59922L18.3998 9.29922H18.8998L18.9998 8.69922ZM16.9998 9.29922L17.1998 9.89922H17.6998L17.2998 10.1992L17.3998 10.7992L16.9998 10.3992L16.5998 10.7992L16.7998 10.1992L16.2998 9.89922H16.8998L16.9998 9.29922ZM15.4998 10.9992L15.6998 11.5992H16.1998L15.7998 11.8992L15.9998 12.4992L15.4998 12.0992L15.0998 12.4992L15.2998 11.8992L14.8998 11.5992H15.3998L15.4998 10.9992ZM14.9998 13.2992L15.1998 13.7992H15.6998L15.2998 14.1992L15.3998 14.6992L14.9998 14.3992L14.5998 14.6992L14.6998 14.1992L14.2998 13.7992H14.7998L14.9998 13.2992Z" fill="#D3BC14"/>
</g>
</g>
<defs>
<clipPath id="clip0_26003_90540">
<rect width="38" height="25" fill="white" transform="translate(0 0.5)"/>
</clipPath>
<clipPath id="clip1_26003_90540">
<rect width="38" height="25" fill="white" transform="translate(0 0.5)"/>
</clipPath>
</defs>
</svg>
