<svg width="38" height="26" viewBox="0 0 38 26" fill="none" xmlns="http://www.w3.org/2000/svg">
<g clip-path="url(#clip0_26003_90364)">
<g clip-path="url(#clip1_26003_90364)">
<path fill-rule="evenodd" clip-rule="evenodd" d="M2.5 25.5H35.6C36.9 25.2 37.9 24.1 38.1 22.6V3.4C37.9 1.9 36.9 0.7 35.6 0.5H2.5C1.2 0.8 0.2 1.9 0 3.4V22.6C0.2 24.1 1.2 25.2 2.5 25.5Z" fill="#FEFEFE"/>
<path fill-rule="evenodd" clip-rule="evenodd" d="M18.9998 5.5C22.6998 5.5 25.5998 8.9 25.5998 13C25.5998 17.1 22.5998 20.5 18.9998 20.5C15.3998 20.5 12.2998 17.1 12.2998 13C12.3998 8.9 15.2998 5.5 18.9998 5.5Z" fill="#B5282D"/>
</g>
</g>
<defs>
<clipPath id="clip0_26003_90364">
<rect width="38" height="25" fill="white" transform="translate(0 0.5)"/>
</clipPath>
<clipPath id="clip1_26003_90364">
<rect width="38" height="25" fill="white" transform="translate(0 0.5)"/>
</clipPath>
</defs>
</svg>
