<svg width="39" height="26" viewBox="0 0 39 26" fill="none" xmlns="http://www.w3.org/2000/svg">
<g clip-path="url(#clip0_26003_53585)">
<g clip-path="url(#clip1_26003_53585)">
<path d="M35.9451 25.2109H3.54512C2.04512 25.2109 0.745117 23.9109 0.745117 22.3109V3.11094C0.745117 1.51094 2.04512 0.210938 3.54512 0.210938H35.8451C37.4451 0.210938 38.7451 1.51094 38.7451 3.11094V22.4109C38.7451 23.9109 37.4451 25.2109 35.9451 25.2109Z" fill="#256ACE"/>
<path d="M38.7451 9.41094H17.7451V0.210938H11.2451V9.41094H0.745117V16.0109H11.2451V25.2109H17.7451V16.0109H38.7451V9.41094Z" fill="#FFE15A"/>
<path d="M38.7451 11.4109H15.8451V0.210938H13.1451V11.4109H0.745117V14.0109H13.1451V25.2109H15.8451V14.0109H38.7451V11.4109Z" fill="#F22539"/>
</g>
</g>
<defs>
<clipPath id="clip0_26003_53585">
<rect width="38" height="25" fill="white" transform="translate(0.745117 0.210938)"/>
</clipPath>
<clipPath id="clip1_26003_53585">
<rect width="38" height="25" fill="white" transform="translate(0.745117 0.210938)"/>
</clipPath>
</defs>
</svg>
