<svg width="38" height="26" viewBox="0 0 38 26" fill="none" xmlns="http://www.w3.org/2000/svg">
<g clip-path="url(#clip0_26003_74075)">
<g clip-path="url(#clip1_26003_74075)">
<path d="M35.15 0.5H2.85002C2.47491 0.499998 2.10349 0.574045 1.75706 0.717896C1.41062 0.861747 1.096 1.07257 0.831219 1.33828C0.566441 1.60399 0.356721 1.91935 0.214084 2.26628C0.0714475 2.61321 -0.00129863 2.98489 1.75455e-05 3.36V8.84H38V3.36C38.0013 2.98489 37.9286 2.61321 37.786 2.26628C37.6433 1.91935 37.4336 1.60399 37.1688 1.33828C36.904 1.07257 36.5894 0.861747 36.243 0.717896C35.8965 0.574045 35.5251 0.499998 35.15 0.5Z" fill="#C4273E"/>
<path d="M1.75455e-05 22.6402C-0.00129863 23.0153 0.0714475 23.3869 0.214084 23.7339C0.356721 24.0808 0.566441 24.3962 0.831219 24.6619C1.096 24.9276 1.41062 25.1384 1.75706 25.2823C2.10349 25.4261 2.47491 25.5002 2.85002 25.5002H35.16C35.9168 25.4975 36.6417 25.195 37.1759 24.659C37.7101 24.1229 38.01 23.3969 38.01 22.6402V17.1602H1.75455e-05V22.6402Z" fill="#232F99"/>
<path d="M0 8.83008H38V17.1601H0V8.83008Z" fill="#F5F5F5"/>
<path d="M18.9998 9.71094C18.1286 9.71094 17.2931 10.057 16.677 10.6731C16.0609 11.2891 15.7148 12.1247 15.7148 12.9959C15.7148 13.8672 16.0609 14.7027 16.677 15.3188C17.2931 15.9348 18.1286 16.2809 18.9998 16.2809C19.8711 16.2809 20.7066 15.9348 21.3227 15.3188C21.9387 14.7027 22.2848 13.8672 22.2848 12.9959C22.2848 12.1247 21.9387 11.2891 21.3227 10.6731C20.7066 10.057 19.8711 9.71094 18.9998 9.71094ZM18.9998 15.4809C18.3421 15.4809 17.7113 15.2197 17.2462 14.7546C16.7811 14.2895 16.5198 13.6587 16.5198 13.0009C16.5198 12.3432 16.7811 11.7124 17.2462 11.2473C17.7113 10.7822 18.3421 10.5209 18.9998 10.5209C19.6576 10.5209 20.2884 10.7822 20.7535 11.2473C21.2186 11.7124 21.4798 12.3432 21.4798 13.0009C21.4798 13.6587 21.2186 14.2895 20.7535 14.7546C20.2884 15.2197 19.6576 15.4809 18.9998 15.4809Z" fill="#E5293B"/>
<path d="M19.0004 14.1394C19.63 14.1394 20.1404 13.629 20.1404 12.9994C20.1404 12.3698 19.63 11.8594 19.0004 11.8594C18.3707 11.8594 17.8604 12.3698 17.8604 12.9994C17.8604 13.629 18.3707 14.1394 19.0004 14.1394Z" fill="#41479B"/>
<path d="M19.0698 12.1401L19.2498 12.6901H19.8298C19.8998 12.6901 19.9398 12.7901 19.8798 12.8301L19.4098 13.1801L19.5798 13.7301C19.5998 13.8001 19.5198 13.8601 19.4598 13.8201L18.9998 13.4801L18.5298 13.8201C18.4698 13.8601 18.3898 13.8001 18.4098 13.7301L18.5798 13.1801L18.1098 12.8301C18.0498 12.7901 18.0798 12.6901 18.1598 12.6901H18.7398L18.9198 12.1401C18.9498 12.0601 19.0498 12.0601 19.0698 12.1401Z" fill="#FFE15A"/>
<path d="M21.1501 13.0294C21.1501 13.0294 21.2101 12.7294 20.9001 13.0894V12.8994C20.9701 12.8194 21.0601 12.6594 21.0401 12.2994C21.0401 12.2994 20.9901 11.9994 20.8301 12.4494C20.8301 12.4494 20.7901 12.3194 20.7401 12.2394C20.7801 12.1594 20.8101 12.0094 20.7201 11.7194C20.7201 11.7194 20.6101 11.4794 20.5701 11.8894C20.5701 11.8894 20.4801 11.7494 20.4201 11.7194C20.4301 11.6494 20.4201 11.5394 20.2901 11.3494C20.2901 11.3494 20.1601 11.1994 20.2201 11.5094C20.2201 11.5094 20.1001 11.4094 20.0601 11.4194C20.0401 11.3594 19.9801 11.2594 19.7801 11.1294C19.7801 11.1294 19.6101 11.0394 19.8101 11.2794C19.8101 11.2794 19.6401 11.2094 19.6401 11.2494C19.6401 11.2894 19.7301 11.3594 19.7901 11.3994C19.7901 11.3994 19.5401 11.4294 19.6401 11.4794C19.6401 11.4794 19.9001 11.5694 20.0501 11.4794C20.0601 11.5294 20.0901 11.5794 20.1301 11.6094C20.1301 11.6094 19.8301 11.5494 19.9101 11.6394C19.9101 11.6394 20.1401 11.8094 20.3601 11.7794C20.3601 11.8394 20.3801 11.9194 20.4101 11.9794C20.4101 11.9794 20.0501 11.7894 20.1201 11.9294C20.1201 11.9294 20.3401 12.2194 20.6201 12.2794C20.6101 12.349 20.6101 12.4197 20.6201 12.4894C20.6201 12.4894 20.2801 12.1594 20.3101 12.3494C20.3101 12.3494 20.4501 12.7294 20.7401 12.8894L20.6901 13.0394C20.6901 13.0394 20.4901 12.6094 20.4501 12.7894C20.4501 12.7894 20.4401 13.2194 20.6701 13.4794C20.6201 13.5194 20.5701 13.5794 20.5401 13.6294C20.5401 13.6294 20.5001 13.1594 20.4001 13.3194C20.4001 13.3194 20.2601 13.6794 20.3601 13.9894C20.2954 14.009 20.2346 14.0395 20.1801 14.0794C20.1801 14.0794 20.3201 13.6294 20.1701 13.7394C20.1701 13.7394 19.9001 14.0394 19.8801 14.3694C19.795 14.369 19.7116 14.3933 19.6401 14.4394C19.6401 14.4394 19.8501 14.0094 19.6801 14.0994C19.6801 14.0994 19.3801 14.3394 19.3101 14.6594L19.0001 14.8394L18.8101 14.7294L18.1301 14.1594L18.1401 14.3494L17.8001 13.7394L17.7601 13.9494L17.6501 13.2794L17.5501 13.3794L17.5901 12.7494L17.4601 12.8194L17.6901 12.3494L17.5801 12.3794L17.8701 12.0994L17.7201 12.1094L18.0801 11.9394L17.9501 11.9194L18.3101 11.7394L18.1601 11.7294L18.6201 11.5694L18.5401 11.4994L18.9401 11.3794L18.4601 11.3394L18.6001 11.1694L18.2301 11.3594L18.2801 11.1094L17.9601 11.4394L18.0001 11.2194L17.7001 11.5194L17.7201 11.2894L17.4201 11.7894L17.3801 11.5694L17.1301 12.1294L17.0601 11.8794L16.9501 12.5794L16.8601 12.4794L16.9801 13.1594L16.8301 13.0494L17.1101 13.6594C17.1101 13.6594 16.9101 13.5694 16.8801 13.5694C16.8501 13.5694 17.3701 14.0894 17.3701 14.0894L17.1001 14.0594L17.6201 14.4194L17.4301 14.4694L17.8601 14.6394L17.7601 14.7194L18.6501 14.7794L18.8501 14.9294L18.7001 15.0094C18.6701 15.0294 18.6301 15.0294 18.5901 15.0194C18.5022 14.9776 18.4121 14.9409 18.3201 14.9094C18.3201 14.9094 18.3301 15.1594 18.5901 15.1694C18.7001 15.1694 18.8501 15.0994 18.9801 15.0194C19.1201 15.1094 19.2701 15.1894 19.3901 15.1794C19.6501 15.1694 19.6501 14.9194 19.6501 14.9194L19.3901 15.0294C19.372 15.0353 19.353 15.0374 19.3341 15.0357C19.3151 15.034 19.2968 15.0284 19.2801 15.0194L19.1101 14.9294L19.2801 14.8094C19.3401 14.8594 19.5301 14.9494 19.9401 14.7894C19.9401 14.7894 20.2101 14.6494 19.7301 14.6294L19.8801 14.4994C19.9601 14.5394 20.1501 14.5894 20.5201 14.3794C20.5201 14.3794 20.7701 14.1994 20.2901 14.2494L20.4001 14.1194C20.4801 14.1294 20.6901 14.1094 20.9601 13.7594C20.9601 13.7594 21.1201 13.4994 20.7001 13.7294L20.7701 13.5094C20.9001 13.4894 21.0401 13.3694 21.1501 13.0294Z" fill="#64C86E"/>
</g>
</g>
<defs>
<clipPath id="clip0_26003_74075">
<rect width="38" height="25" fill="white" transform="translate(0 0.5)"/>
</clipPath>
<clipPath id="clip1_26003_74075">
<rect width="38" height="25" fill="white" transform="translate(0 0.5)"/>
</clipPath>
</defs>
</svg>
