<svg width="38" height="26" viewBox="0 0 38 26" fill="none" xmlns="http://www.w3.org/2000/svg">
<g clip-path="url(#clip0_26003_69990)">
<g clip-path="url(#clip1_26003_69990)">
<path fill-rule="evenodd" clip-rule="evenodd" d="M2.5 25.5H35.5C36.8 25.3 37.8 24.1 38 22.6V3.4C37.8 1.9 36.8 0.7 35.5 0.5H2.5C1.2 0.7 0.2 1.9 0 3.4V22.6C0.2 24.1 1.2 25.3 2.5 25.5Z" fill="#FEFEFE"/>
<path fill-rule="evenodd" clip-rule="evenodd" d="M2.5 25.5008H35.5C36.8 25.3008 37.8 24.1008 38 22.6008V8.80078H0V22.5008C0.2 24.1008 1.2 25.3008 2.5 25.5008Z" fill="#52B044"/>
<path fill-rule="evenodd" clip-rule="evenodd" d="M2.5 25.4992H35.5C36.8 25.2992 37.8 24.0992 38 22.5992V17.1992H0V22.5992C0.2 24.0992 1.2 25.2992 2.5 25.4992Z" fill="#C9282D"/>
</g>
</g>
<defs>
<clipPath id="clip0_26003_69990">
<rect width="38" height="25" fill="white" transform="translate(0 0.5)"/>
</clipPath>
<clipPath id="clip1_26003_69990">
<rect width="38" height="25" fill="white" transform="translate(0 0.5)"/>
</clipPath>
</defs>
</svg>
