<svg width="38" height="26" viewBox="0 0 38 26" fill="none" xmlns="http://www.w3.org/2000/svg">
<g clip-path="url(#clip0_26003_70226)">
<g clip-path="url(#clip1_26003_70226)">
<path fill-rule="evenodd" clip-rule="evenodd" d="M38 13V3.41C37.83 1.94 36.82 0.75 35.53 0.5H2.47C1.18 0.75 0.17 1.94 0 3.41V13H38Z" fill="#2C377A"/>
<path fill-rule="evenodd" clip-rule="evenodd" d="M7.98957 5.60094L7.92957 8.20094H5.58957C5.2635 7.6191 5.08175 6.96754 5.05957 6.30094C5.05957 5.69094 5.48957 5.21094 6.09957 5.21094C6.73957 5.21094 7.44957 5.46094 7.98957 5.60094Z" fill="#F9DF3D"/>
<path fill-rule="evenodd" clip-rule="evenodd" d="M5.33957 7.25172C5.31957 7.25172 5.30957 7.24172 5.30957 7.22172V5.72172C5.30957 5.69172 5.36957 5.69172 5.36957 5.72172V7.22172L5.33957 7.25172Z" fill="#242222"/>
<path fill-rule="evenodd" clip-rule="evenodd" d="M5.52 7.60156L5.5 7.56156V5.56156C5.5 5.53156 5.56 5.53156 5.56 5.56156V7.56156C5.55 7.58156 5.54 7.60156 5.52 7.60156Z" fill="#242222"/>
<path fill-rule="evenodd" clip-rule="evenodd" d="M5.70969 7.88C5.68969 7.88 5.67969 7.86 5.67969 7.85V5.46C5.67969 5.43 5.73969 5.43 5.73969 5.46V7.85C5.73969 7.86 5.72969 7.88 5.70969 7.88Z" fill="#242222"/>
<path fill-rule="evenodd" clip-rule="evenodd" d="M5.90012 7.30922C5.88012 7.30922 5.87012 7.29922 5.87012 7.27922V5.40922C5.87012 5.37922 5.93012 5.37922 5.93012 5.40922V7.27922C5.93012 7.29922 5.92012 7.30922 5.90012 7.30922Z" fill="#242222"/>
<path fill-rule="evenodd" clip-rule="evenodd" d="M6.08957 7.32141C6.06957 7.32141 6.05957 7.31141 6.05957 7.29141V5.40141C6.05957 5.37141 6.10957 5.37141 6.10957 5.40141V7.29141C6.10957 7.30141 6.10957 7.32141 6.08957 7.32141Z" fill="#242222"/>
<path fill-rule="evenodd" clip-rule="evenodd" d="M6.28 7.31891C6.26 7.31891 6.25 7.30891 6.25 7.28891V5.33891C6.25 5.30891 6.3 5.30891 6.3 5.33891V7.28891L6.28 7.31891Z" fill="#242222"/>
<path fill-rule="evenodd" clip-rule="evenodd" d="M6.47043 7.32109C6.45043 7.32109 6.44043 7.31109 6.44043 7.29109V5.33109C6.44043 5.30109 6.49043 5.30109 6.49043 5.33109V7.28109L6.47043 7.32109Z" fill="#242222"/>
<path fill-rule="evenodd" clip-rule="evenodd" d="M6.65012 7.34063C6.63012 7.34063 6.62012 7.33063 6.62012 7.31063V5.35062C6.62012 5.32062 6.68012 5.32062 6.68012 5.35062V7.30063C6.68012 7.32063 6.67012 7.34063 6.65012 7.34063Z" fill="#242222"/>
<path fill-rule="evenodd" clip-rule="evenodd" d="M6.84957 7.36156C6.82957 7.36156 6.80957 7.35156 6.80957 7.33156V5.38156C6.80957 5.34156 6.86957 5.34156 6.86957 5.38156V7.33156L6.84957 7.36156Z" fill="#242222"/>
<path fill-rule="evenodd" clip-rule="evenodd" d="M7.03 7.48125C7.01 7.48125 7 7.47125 7 7.45125V5.49125C7 5.46125 7.06 5.46125 7.06 5.49125V7.45125C7.06 7.47125 7.05 7.48125 7.03 7.48125Z" fill="#242222"/>
<path fill-rule="evenodd" clip-rule="evenodd" d="M7.22043 7.74828C7.20043 7.74828 7.19043 7.73828 7.19043 7.71828V5.51828C7.19043 5.47828 7.24043 5.47828 7.24043 5.51828V7.71828L7.22043 7.74828Z" fill="#242222"/>
<path fill-rule="evenodd" clip-rule="evenodd" d="M7.39988 7.49828C7.38988 7.49828 7.37988 7.48828 7.37988 7.46828V5.51828C7.37988 5.47828 7.42988 5.47828 7.42988 5.51828V7.46828C7.42988 7.48828 7.41988 7.49828 7.39988 7.49828Z" fill="#242222"/>
<path fill-rule="evenodd" clip-rule="evenodd" d="M7.60031 7.49828C7.58031 7.49828 7.57031 7.48828 7.57031 7.46828V5.51828C7.57031 5.47828 7.62031 5.47828 7.62031 5.51828V7.46828C7.62031 7.48828 7.61031 7.49828 7.60031 7.49828Z" fill="#242222"/>
<path fill-rule="evenodd" clip-rule="evenodd" d="M6.51969 5.41016C6.91969 5.48016 7.78969 5.95016 7.68969 6.57016C7.54969 7.45016 7.08969 7.10016 6.47969 6.97016L6.01969 7.15016C5.85969 7.34016 5.61969 7.51016 5.44969 7.28016H5.17969V8.48016H8.17969V5.59016L6.51969 5.41016Z" fill="#242222"/>
<path fill-rule="evenodd" clip-rule="evenodd" d="M5.43016 7.30063L5.18016 7.31063L5.21016 8.47062L8.16016 8.44063V5.59063L6.80016 5.47062C7.09016 5.59062 7.43016 5.80063 7.60016 6.08063C7.70016 6.24063 7.74016 6.41063 7.71016 6.58063C7.65016 7.00063 7.50016 7.19063 7.24016 7.19063C7.11016 7.19063 6.96016 7.14062 6.81016 7.10063C6.7029 7.06135 6.5925 7.03124 6.48016 7.01063L6.03016 7.18062C5.96016 7.26063 5.80016 7.42063 5.64016 7.42063C5.56016 7.42063 5.49016 7.38063 5.43016 7.30063ZM8.19016 8.51063H5.19016L5.16016 7.28063L5.46016 7.25063C5.68016 7.49063 5.90016 7.25063 6.01016 7.12063L6.48016 6.94063L6.82016 7.03063C6.98016 7.08063 7.12016 7.12063 7.24016 7.12063C7.40016 7.12063 7.58016 7.05063 7.66016 6.57063C7.68135 6.41668 7.6458 6.26029 7.56016 6.13063C7.30524 5.78302 6.93162 5.54106 6.51016 5.45062C6.49016 5.45062 6.48016 5.43063 6.48016 5.42063C6.48016 5.40063 6.49016 5.39062 6.51016 5.39062L8.18016 5.56063L8.20016 8.48063C8.22016 8.50063 8.20016 8.51063 8.19016 8.51063Z" fill="#242222"/>
<path fill-rule="evenodd" clip-rule="evenodd" d="M8.03992 5.21C8.03992 5.32 7.95992 5.42 7.85992 5.42C7.75992 5.42 7.66992 5.33 7.66992 5.21C7.66992 5.1 7.74992 5 7.84992 5C7.95992 5 8.03992 5.1 8.03992 5.21Z" fill="#F9DF3D"/>
<path fill-rule="evenodd" clip-rule="evenodd" d="M7.86039 5.02875C7.78039 5.02875 7.71039 5.10875 7.71039 5.20875C7.71039 5.30875 7.78039 5.37875 7.87039 5.37875C7.95039 5.37875 8.02039 5.29875 8.02039 5.20875C8.01039 5.10875 7.95039 5.02875 7.86039 5.02875ZM7.86039 5.44875C7.74039 5.44875 7.65039 5.33875 7.65039 5.20875C7.65039 5.07875 7.75039 4.96875 7.86039 4.96875C7.98039 4.96875 8.07039 5.07875 8.07039 5.20875C8.07039 5.33875 7.98039 5.44875 7.86039 5.44875Z" fill="#242222"/>
<path fill-rule="evenodd" clip-rule="evenodd" d="M7.62977 5.10063C7.62977 5.21063 7.54977 5.31063 7.44977 5.31063C7.34977 5.31063 7.25977 5.22063 7.25977 5.10063C7.25977 4.99063 7.33977 4.89062 7.44977 4.89062C7.54977 4.89062 7.62977 4.98063 7.62977 5.10063Z" fill="#F9DF3D"/>
<path fill-rule="evenodd" clip-rule="evenodd" d="M7.45023 4.91937C7.37023 4.91937 7.30023 4.99937 7.30023 5.09937C7.30023 5.23937 7.48023 5.31937 7.56023 5.21937C7.59214 5.18758 7.61012 5.14442 7.61023 5.09937C7.61023 4.99937 7.54023 4.91937 7.45023 4.91937ZM7.45023 5.33938C7.33023 5.33938 7.24023 5.22937 7.24023 5.09937C7.24023 4.96937 7.34023 4.85938 7.45023 4.85938C7.57023 4.85938 7.66023 4.96937 7.66023 5.09937C7.66023 5.15937 7.64023 5.21937 7.60023 5.26937C7.58128 5.2906 7.55821 5.30774 7.53242 5.31978C7.50664 5.33181 7.47868 5.33848 7.45023 5.33938Z" fill="#242222"/>
<path fill-rule="evenodd" clip-rule="evenodd" d="M7.21961 4.97953C7.21961 5.08953 7.13961 5.17953 7.03961 5.17953C6.93961 5.17953 6.84961 5.08953 6.84961 4.97953C6.84961 4.86953 6.92961 4.76953 7.03961 4.76953C7.13961 4.77953 7.21961 4.86953 7.21961 4.97953Z" fill="#F9DF3D"/>
<path fill-rule="evenodd" clip-rule="evenodd" d="M7.03031 4.80828C6.95031 4.80828 6.87031 4.88828 6.87031 4.98828C6.87031 5.08828 6.95031 5.15828 7.03031 5.15828C7.12031 5.15828 7.18031 5.07828 7.18031 4.98828C7.19031 4.87828 7.12031 4.80828 7.03031 4.80828ZM7.03031 5.21828C6.91031 5.21828 6.82031 5.10828 6.82031 4.97828C6.82031 4.84828 6.91031 4.73828 7.03031 4.73828C7.15031 4.73828 7.24031 4.84828 7.24031 4.97828C7.24031 5.10828 7.15031 5.21828 7.03031 5.21828Z" fill="#242222"/>
<path fill-rule="evenodd" clip-rule="evenodd" d="M6.80043 4.90141C6.80043 5.01141 6.72043 5.11141 6.62043 5.11141C6.52043 5.11141 6.44043 5.02141 6.44043 4.90141C6.44043 4.79141 6.52043 4.69141 6.62043 4.69141C6.72043 4.70141 6.80043 4.79141 6.80043 4.90141Z" fill="#F9DF3D"/>
<path fill-rule="evenodd" clip-rule="evenodd" d="M6.62016 4.73016C6.54016 4.73016 6.47016 4.81016 6.47016 4.90016C6.47016 5.00016 6.54016 5.07016 6.62016 5.07016C6.70016 5.07016 6.77016 4.99016 6.77016 4.90016C6.77016 4.81016 6.70016 4.73016 6.62016 4.73016ZM6.62016 5.14016C6.50016 5.14016 6.41016 5.03016 6.41016 4.90016C6.41016 4.77016 6.51016 4.66016 6.62016 4.66016C6.74016 4.66016 6.83016 4.77016 6.83016 4.90016C6.83016 5.03016 6.73016 5.14016 6.62016 5.14016Z" fill="#242222"/>
<path fill-rule="evenodd" clip-rule="evenodd" d="M6.37977 4.85844C6.37977 4.96844 6.29977 5.06844 6.19977 5.06844C6.09977 5.06844 6.00977 4.97844 6.00977 4.85844C6.00977 4.74844 6.09977 4.64844 6.19977 4.64844C6.29977 4.64844 6.37977 4.73844 6.37977 4.85844Z" fill="#F9DF3D"/>
<path fill-rule="evenodd" clip-rule="evenodd" d="M6.20023 4.67937C6.11023 4.67937 6.04023 4.75937 6.04023 4.84937C6.04023 4.93937 6.11023 5.01937 6.19023 5.01937C6.27023 5.01937 6.34023 4.93937 6.34023 4.84937C6.35023 4.75937 6.28023 4.67937 6.20023 4.67937ZM6.20023 5.08938C6.08023 5.08938 5.99023 4.97937 5.99023 4.84937C5.99023 4.71937 6.09023 4.60938 6.20023 4.60938C6.31023 4.60938 6.41023 4.71937 6.41023 4.84937C6.41023 4.98937 6.32023 5.08938 6.20023 5.08938Z" fill="#242222"/>
<path fill-rule="evenodd" clip-rule="evenodd" d="M5.96961 4.87969C5.96961 4.98969 5.87961 5.08969 5.77961 5.08969C5.67961 5.08969 5.59961 4.99969 5.59961 4.87969C5.59961 4.76969 5.67961 4.67969 5.77961 4.67969C5.88961 4.67969 5.96961 4.76969 5.96961 4.87969Z" fill="#F9DF3D"/>
<path fill-rule="evenodd" clip-rule="evenodd" d="M5.79008 4.70886C5.74829 4.71051 5.7088 4.72846 5.68008 4.75886C5.65008 4.78886 5.64008 4.83886 5.64008 4.87886C5.64008 4.97886 5.71008 5.04886 5.79008 5.04886C5.88008 5.04886 5.95008 4.96886 5.95008 4.87886C5.95008 4.78886 5.87008 4.70886 5.79008 4.70886ZM5.79008 5.11886C5.68008 5.11886 5.58008 5.00886 5.58008 4.87886C5.58008 4.81886 5.60008 4.75886 5.64008 4.70886C5.76008 4.57886 6.00008 4.68886 6.00008 4.87886C6.00008 5.00886 5.90008 5.11886 5.79008 5.11886Z" fill="#242222"/>
<path fill-rule="evenodd" clip-rule="evenodd" d="M5.58973 5.03031C5.58973 5.14031 5.49973 5.24031 5.39973 5.24031C5.29973 5.24031 5.21973 5.15031 5.21973 5.03031C5.21973 4.92031 5.29973 4.82031 5.39973 4.82031C5.49973 4.83031 5.58973 4.92031 5.58973 5.03031Z" fill="#F9DF3D"/>
<path fill-rule="evenodd" clip-rule="evenodd" d="M5.40043 4.86121C5.31043 4.86121 5.24043 4.94121 5.24043 5.03121C5.24043 5.13121 5.31043 5.21121 5.39043 5.21121C5.48043 5.21121 5.54043 5.13121 5.54043 5.03121C5.55043 4.94121 5.49043 4.86121 5.40043 4.86121ZM5.40043 5.27121C5.28043 5.27121 5.19043 5.16121 5.19043 5.03121C5.19043 4.84121 5.43043 4.73121 5.55043 4.86121C5.59043 4.90121 5.61043 4.96121 5.61043 5.03121C5.61043 5.16121 5.51043 5.27121 5.40043 5.27121Z" fill="#242222"/>
<path fill-rule="evenodd" clip-rule="evenodd" d="M5.24988 5.29984C5.24988 5.40984 5.16988 5.50984 5.06988 5.50984C4.96988 5.50984 4.87988 5.41984 4.87988 5.29984C4.87988 5.18984 4.95988 5.08984 5.06988 5.08984C5.16988 5.09984 5.24988 5.18984 5.24988 5.29984Z" fill="#F9DF3D"/>
<path fill-rule="evenodd" clip-rule="evenodd" d="M5.07035 5.12859C4.98035 5.12859 4.91035 5.20859 4.91035 5.30859C4.91035 5.40859 4.98035 5.48859 5.07035 5.48859C5.15035 5.48859 5.23035 5.40859 5.23035 5.30859C5.23035 5.20859 5.16035 5.12859 5.07035 5.12859ZM5.07035 5.53859C4.95035 5.53859 4.86035 5.42859 4.86035 5.29859C4.86035 5.16859 4.95035 5.05859 5.07035 5.05859C5.19035 5.05859 5.28035 5.16859 5.28035 5.29859C5.28035 5.43859 5.19035 5.53859 5.07035 5.53859Z" fill="#242222"/>
<path fill-rule="evenodd" clip-rule="evenodd" d="M5.02039 5.69047C5.02039 5.80047 4.93039 5.90047 4.84039 5.90047C4.74039 5.90047 4.65039 5.81047 4.65039 5.69047C4.65039 5.58047 4.74039 5.48047 4.84039 5.48047C4.94039 5.48047 5.02039 5.57047 5.02039 5.69047Z" fill="#F9DF3D"/>
<path fill-rule="evenodd" clip-rule="evenodd" d="M4.83988 5.5082C4.79809 5.50985 4.7586 5.5278 4.72988 5.5582C4.69736 5.59365 4.67949 5.6401 4.67988 5.6882C4.67988 5.7882 4.74988 5.8582 4.83988 5.8582C4.92988 5.8582 4.98988 5.7782 4.98988 5.6882C4.98988 5.5882 4.92988 5.5082 4.83988 5.5082ZM4.83988 5.9182C4.72988 5.9182 4.62988 5.8082 4.62988 5.6782C4.62988 5.6182 4.64988 5.5582 4.68988 5.5082C4.80988 5.3682 5.04988 5.4782 5.04988 5.6782C5.04988 5.8182 4.94988 5.9182 4.83988 5.9182Z" fill="#242222"/>
<path fill-rule="evenodd" clip-rule="evenodd" d="M4.91004 6.13188C4.91004 6.24188 4.83004 6.33187 4.73004 6.33187C4.62004 6.33187 4.54004 6.24188 4.54004 6.13188C4.54004 6.01188 4.62004 5.92188 4.73004 5.92188C4.83004 5.93187 4.91004 6.02188 4.91004 6.13188Z" fill="#F9DF3D"/>
<path fill-rule="evenodd" clip-rule="evenodd" d="M4.72977 5.96063C4.63977 5.96063 4.56977 6.04063 4.56977 6.13063C4.56977 6.22063 4.63977 6.30063 4.72977 6.30063C4.80977 6.30063 4.87977 6.22063 4.87977 6.13063C4.87977 6.04063 4.80977 5.96063 4.72977 5.96063ZM4.72977 6.37063C4.60977 6.37063 4.50977 6.26063 4.50977 6.13063C4.50977 6.00063 4.59977 5.89062 4.71977 5.89062C4.82977 5.89062 4.92977 6.00063 4.92977 6.13063C4.93977 6.26063 4.83977 6.37063 4.72977 6.37063Z" fill="#242222"/>
<path fill-rule="evenodd" clip-rule="evenodd" d="M4.91004 6.60063C4.91004 6.71063 4.83004 6.81063 4.73004 6.81063C4.63004 6.81063 4.54004 6.72063 4.54004 6.60063C4.54004 6.49063 4.62004 6.39062 4.73004 6.39062C4.83004 6.39062 4.91004 6.48063 4.91004 6.60063Z" fill="#F9DF3D"/>
<path fill-rule="evenodd" clip-rule="evenodd" d="M4.72977 6.42156C4.63977 6.42156 4.57977 6.50156 4.57977 6.60156C4.57977 6.69156 4.64977 6.77156 4.73977 6.77156C4.81977 6.77156 4.88977 6.69156 4.88977 6.60156C4.87977 6.50156 4.80977 6.42156 4.72977 6.42156ZM4.72977 6.83156C4.60977 6.83156 4.50977 6.72156 4.50977 6.59156C4.50977 6.46156 4.59977 6.35156 4.71977 6.35156C4.82977 6.35156 4.92977 6.46156 4.92977 6.59156C4.93977 6.73156 4.84977 6.83156 4.72977 6.83156Z" fill="#242222"/>
<path fill-rule="evenodd" clip-rule="evenodd" d="M4.99012 7.04984C4.99012 7.16984 4.91012 7.25984 4.81012 7.25984C4.71012 7.25984 4.62012 7.16984 4.62012 7.04984C4.62012 6.93984 4.70012 6.83984 4.81012 6.83984C4.91012 6.84984 4.99012 6.93984 4.99012 7.04984Z" fill="#F9DF3D"/>
<path fill-rule="evenodd" clip-rule="evenodd" d="M4.80961 6.87859C4.71961 6.87859 4.64961 6.95859 4.64961 7.04859C4.64961 7.13859 4.71961 7.22859 4.80961 7.22859C4.88961 7.22859 4.95961 7.14859 4.95961 7.04859C4.95961 6.95859 4.88961 6.87859 4.80961 6.87859ZM4.80961 7.28859C4.68961 7.28859 4.59961 7.17859 4.59961 7.04859C4.59961 6.91859 4.68961 6.80859 4.80961 6.80859C4.92961 6.80859 5.01961 6.90859 5.01961 7.04859C5.01961 7.17859 4.92961 7.28859 4.80961 7.28859Z" fill="#242222"/>
<path fill-rule="evenodd" clip-rule="evenodd" d="M7.94043 5.47984L7.93043 5.74984C7.47043 5.66984 6.83043 5.38984 6.23043 5.38984C5.68043 5.38984 5.24043 5.63984 5.24043 6.26984C5.24043 6.88984 5.48043 7.44984 5.78043 8.02984L5.47043 8.19984C5.14436 7.61801 4.96261 6.96645 4.94043 6.29984C4.94043 5.68984 5.36043 5.08984 6.10043 5.08984C6.74043 5.09984 7.40043 5.34984 7.94043 5.47984Z" fill="#F9DF3D"/>
<path fill-rule="evenodd" clip-rule="evenodd" d="M6.09016 5.12859C5.36016 5.12859 4.96016 5.73859 4.96016 6.29859C4.96016 7.01859 5.21016 7.56859 5.47016 8.14859L5.77016 7.98859C5.42789 7.47814 5.23403 6.88271 5.21016 6.26859C5.21016 5.68859 5.58016 5.35859 6.23016 5.35859C6.62016 5.35859 7.03016 5.47859 7.38016 5.57859C7.58016 5.63859 7.77016 5.68859 7.93016 5.71859L7.92016 5.47859C7.81016 5.47859 7.68016 5.43859 7.53016 5.39859C7.06514 5.24173 6.58042 5.15085 6.09016 5.12859ZM5.47016 8.22859L5.44016 8.20859C5.11986 7.62079 4.93855 6.9674 4.91016 6.29859C4.91016 5.69859 5.33016 5.05859 6.10016 5.05859C6.59016 5.05859 7.10016 5.19859 7.55016 5.32859L7.96016 5.43859V5.73859C7.77016 5.73859 7.58016 5.67859 7.38016 5.62859C7.01016 5.53859 6.61016 5.41859 6.23016 5.41859C5.87016 5.41859 5.27016 5.52859 5.27016 6.26859C5.27016 6.91859 5.54016 7.51859 5.81016 8.00859L5.48016 8.22859H5.47016Z" fill="#242222"/>
<path fill-rule="evenodd" clip-rule="evenodd" d="M8.41016 5.59904L8.48016 8.19904H10.8202C11.1102 7.56904 11.3502 7.02904 11.3502 6.30904C11.3502 5.69904 10.9302 5.21904 10.3102 5.21904C9.66016 5.20904 8.95016 5.45904 8.41016 5.59904Z" fill="#F9DF3D"/>
<path fill-rule="evenodd" clip-rule="evenodd" d="M11.07 7.25172C11.05 7.25172 11.04 7.24172 11.04 7.22172V5.72172C11.04 5.69172 11.09 5.69172 11.09 5.72172V7.22172C11.09 7.24172 11.08 7.25172 11.07 7.25172Z" fill="#242222"/>
<path fill-rule="evenodd" clip-rule="evenodd" d="M10.8698 7.59937L10.8398 7.56938V5.56937C10.8398 5.53937 10.8998 5.53937 10.8998 5.56937V7.56938C10.8998 7.57938 10.8898 7.59937 10.8698 7.59937Z" fill="#242222"/>
<path fill-rule="evenodd" clip-rule="evenodd" d="M10.6902 7.88C10.6702 7.88 10.6602 7.86 10.6602 7.85V5.46C10.6602 5.43 10.7202 5.43 10.7202 5.46V7.85L10.6902 7.88Z" fill="#242222"/>
<path fill-rule="evenodd" clip-rule="evenodd" d="M10.4997 7.30922C10.4897 7.30922 10.4697 7.29922 10.4697 7.27922V5.40922C10.4697 5.37922 10.5297 5.37922 10.5297 5.40922V7.27922C10.5297 7.29922 10.5097 7.30922 10.4997 7.30922Z" fill="#242222"/>
<path fill-rule="evenodd" clip-rule="evenodd" d="M10.3103 7.32141C10.2903 7.32141 10.2803 7.31141 10.2803 7.29141V5.40141C10.2803 5.37141 10.3303 5.37141 10.3303 5.40141V7.29141C10.3403 7.30141 10.3303 7.32141 10.3103 7.32141Z" fill="#242222"/>
<path fill-rule="evenodd" clip-rule="evenodd" d="M10.1196 7.31891C10.1096 7.31891 10.0996 7.30891 10.0996 7.28891V5.33891C10.0996 5.30891 10.1496 5.30891 10.1496 5.33891V7.28891C10.1496 7.29891 10.1396 7.31891 10.1196 7.31891Z" fill="#242222"/>
<path fill-rule="evenodd" clip-rule="evenodd" d="M9.94016 7.31891C9.92016 7.31891 9.91016 7.30891 9.91016 7.28891V5.33891C9.91016 5.30891 9.96016 5.30891 9.96016 5.33891V7.28891L9.94016 7.31891Z" fill="#242222"/>
<path fill-rule="evenodd" clip-rule="evenodd" d="M9.74973 7.33844C9.72973 7.33844 9.71973 7.32844 9.71973 7.30844V5.35844C9.71973 5.32844 9.77973 5.32844 9.77973 5.35844V7.30844L9.74973 7.33844Z" fill="#242222"/>
<path fill-rule="evenodd" clip-rule="evenodd" d="M9.56027 7.35984C9.55027 7.35984 9.53027 7.34984 9.53027 7.32984V5.36984C9.53027 5.32984 9.59027 5.32984 9.59027 5.36984V7.31984C9.59027 7.33984 9.57027 7.35984 9.56027 7.35984Z" fill="#242222"/>
<path fill-rule="evenodd" clip-rule="evenodd" d="M9.36984 7.48125C9.35984 7.48125 9.33984 7.47125 9.33984 7.45125V5.49125C9.33984 5.46125 9.39984 5.46125 9.39984 5.49125V7.45125C9.39984 7.47125 9.37984 7.48125 9.36984 7.48125Z" fill="#242222"/>
<path fill-rule="evenodd" clip-rule="evenodd" d="M9.18039 7.74828C9.16039 7.74828 9.15039 7.73828 9.15039 7.71828V5.51828C9.15039 5.47828 9.20039 5.47828 9.20039 5.51828V7.71828C9.21039 7.72828 9.20039 7.74828 9.18039 7.74828Z" fill="#242222"/>
<path fill-rule="evenodd" clip-rule="evenodd" d="M8.98996 7.49828C8.97996 7.49828 8.95996 7.48828 8.95996 7.46828V5.51828C8.95996 5.47828 9.01996 5.47828 9.01996 5.51828V7.46828C9.01996 7.48828 9.00996 7.49828 8.98996 7.49828Z" fill="#242222"/>
<path fill-rule="evenodd" clip-rule="evenodd" d="M8.80027 7.49828C8.79027 7.49828 8.78027 7.48828 8.78027 7.46828V5.51828C8.78027 5.47828 8.84027 5.47828 8.84027 5.51828V7.46828C8.84027 7.48828 8.82027 7.49828 8.80027 7.49828Z" fill="#242222"/>
<path fill-rule="evenodd" clip-rule="evenodd" d="M9.87973 5.41016C9.47973 5.48016 8.60973 5.95016 8.70973 6.57016C8.84973 7.45016 9.30973 7.10016 9.91973 6.97016L10.3797 7.14016C10.5397 7.33016 10.7897 7.50016 10.9497 7.28016H11.2197V8.48016H8.21973V5.59016L9.87973 5.41016Z" fill="#242222"/>
<path fill-rule="evenodd" clip-rule="evenodd" d="M9.57969 5.48063L8.21969 5.62063L8.23969 8.48063L11.1897 8.45062V7.28063L10.9497 7.31063C10.9312 7.3447 10.9037 7.37302 10.8702 7.39243C10.8367 7.41185 10.7984 7.4216 10.7597 7.42063C10.5997 7.42063 10.4497 7.26063 10.3597 7.17063L9.90969 7.01063L9.58969 7.09063C9.43969 7.14063 9.27969 7.19063 9.14969 7.19063C8.88969 7.19063 8.74969 7.00063 8.67969 6.58063C8.66038 6.40508 8.70281 6.22829 8.79969 6.08063C8.96969 5.81063 9.29969 5.59063 9.57969 5.48063ZM11.2197 8.51063H8.21969L8.17969 5.59063L9.87969 5.39062C9.88969 5.39062 9.90969 5.40063 9.90969 5.42063C9.90969 5.44063 9.89969 5.45062 9.88969 5.45062C9.59969 5.50062 9.06969 5.75063 8.83969 6.12063C8.75488 6.25065 8.71941 6.40672 8.73969 6.56063C8.81969 7.06063 8.99969 7.12063 9.14969 7.12063C9.26969 7.12063 9.40969 7.08063 9.56969 7.03063L9.90969 6.94063L10.3797 7.11063C10.5097 7.25063 10.7697 7.46063 10.9197 7.25063L11.2197 7.24062L11.2497 8.47062C11.2497 8.50062 11.2297 8.51063 11.2197 8.51063Z" fill="#242222"/>
<path fill-rule="evenodd" clip-rule="evenodd" d="M8.34961 5.21C8.34961 5.32 8.42961 5.42 8.53961 5.42C8.63961 5.42 8.71961 5.33 8.71961 5.21C8.71961 5.1 8.63961 5 8.53961 5C8.43961 5 8.34961 5.1 8.34961 5.21Z" fill="#F9DF3D"/>
<path fill-rule="evenodd" clip-rule="evenodd" d="M8.54008 5.02875C8.45008 5.02875 8.38008 5.10875 8.38008 5.20875C8.38008 5.30875 8.45008 5.37875 8.54008 5.37875C8.62008 5.37875 8.69008 5.29875 8.69008 5.20875C8.69008 5.10875 8.62008 5.03875 8.54008 5.02875ZM8.54008 5.44875C8.42008 5.44875 8.33008 5.33875 8.33008 5.20875C8.33008 5.07875 8.42008 4.96875 8.54008 4.96875C8.66008 4.96875 8.75008 5.07875 8.75008 5.20875C8.75008 5.33875 8.66008 5.44875 8.54008 5.44875Z" fill="#242222"/>
<path fill-rule="evenodd" clip-rule="evenodd" d="M8.76953 5.10063C8.76953 5.21063 8.84953 5.31063 8.94953 5.31063C9.04953 5.31063 9.12953 5.22063 9.12953 5.10063C9.12953 4.99063 9.04953 4.89062 8.94953 4.89062C8.84953 4.89062 8.76953 4.98063 8.76953 5.10063Z" fill="#F9DF3D"/>
<path fill-rule="evenodd" clip-rule="evenodd" d="M8.95023 4.91937C8.86023 4.91937 8.80023 4.99937 8.80023 5.09937C8.80023 5.19937 8.87023 5.26937 8.95023 5.26937C9.03023 5.26937 9.10023 5.19937 9.10023 5.09937C9.10023 4.99937 9.03023 4.91937 8.95023 4.91937ZM8.95023 5.33938C8.84023 5.33938 8.74023 5.22937 8.74023 5.09937C8.74023 4.96937 8.84023 4.85938 8.95023 4.85938C9.07023 4.85938 9.16023 4.96937 9.16023 5.09937C9.16023 5.22937 9.07023 5.33938 8.95023 5.33938Z" fill="#242222"/>
<path fill-rule="evenodd" clip-rule="evenodd" d="M9.17999 4.97953C9.17999 5.08953 9.25999 5.17953 9.35999 5.17953C9.45999 5.17953 9.53999 5.08953 9.53999 4.97953C9.53999 4.86953 9.45999 4.76953 9.35999 4.76953C9.30871 4.77461 9.26137 4.79928 9.22784 4.8384C9.1943 4.87752 9.17716 4.92808 9.17999 4.97953Z" fill="#F9DF3D"/>
<path fill-rule="evenodd" clip-rule="evenodd" d="M9.36039 4.80828C9.27039 4.80828 9.20039 4.88828 9.20039 4.98828C9.20039 5.08828 9.27039 5.15828 9.36039 5.15828C9.40039 5.15828 9.44039 5.13828 9.47039 5.10828C9.50136 5.0719 9.519 5.02604 9.52039 4.97828C9.52039 4.88828 9.45039 4.80828 9.36039 4.80828ZM9.36039 5.21828C9.24039 5.21828 9.15039 5.10828 9.15039 4.97828C9.15039 4.84828 9.24039 4.73828 9.36039 4.73828C9.48039 4.73828 9.57039 4.84828 9.57039 4.97828C9.57039 5.04828 9.55039 5.09828 9.51039 5.14828C9.49144 5.1695 9.46836 5.18665 9.44258 5.19868C9.41679 5.21072 9.38883 5.21738 9.36039 5.21828Z" fill="#242222"/>
<path fill-rule="evenodd" clip-rule="evenodd" d="M9.59991 4.90141C9.59991 5.01141 9.67991 5.11141 9.77991 5.11141C9.87991 5.11141 9.95991 5.02141 9.95991 4.90141C9.95991 4.79141 9.87991 4.69141 9.77991 4.69141C9.72863 4.69648 9.68129 4.72115 9.64776 4.76028C9.61422 4.7994 9.59708 4.84996 9.59991 4.90141Z" fill="#F9DF3D"/>
<path fill-rule="evenodd" clip-rule="evenodd" d="M9.78031 4.7289C9.70031 4.7289 9.62031 4.8089 9.62031 4.8989C9.62031 4.9989 9.69031 5.0789 9.78031 5.0789C9.86031 5.0789 9.93031 4.9989 9.93031 4.9089C9.93031 4.8589 9.92031 4.8189 9.89031 4.7889C9.86031 4.7489 9.83031 4.7289 9.78031 4.7289ZM9.78031 5.1389C9.66031 5.1389 9.57031 5.0289 9.57031 4.8989C9.57031 4.7089 9.81031 4.5889 9.93031 4.7289C9.97031 4.7689 9.99031 4.8289 9.99031 4.8989C9.99031 5.0289 9.90031 5.1389 9.78031 5.1389Z" fill="#242222"/>
<path fill-rule="evenodd" clip-rule="evenodd" d="M10.0195 4.85844C10.0195 4.96844 10.0995 5.06844 10.2095 5.06844C10.3095 5.06844 10.3895 4.97844 10.3895 4.85844C10.3895 4.74844 10.3095 4.64844 10.2095 4.64844C10.0995 4.64844 10.0195 4.73844 10.0195 4.85844Z" fill="#F9DF3D"/>
<path fill-rule="evenodd" clip-rule="evenodd" d="M10.2005 4.68109C10.1105 4.68109 10.0405 4.76109 10.0405 4.85109C10.0405 4.90109 10.0605 4.94109 10.0805 4.97109C10.1705 5.07109 10.3505 4.99109 10.3505 4.85109C10.3505 4.76109 10.2805 4.68109 10.2005 4.68109ZM10.2005 5.09109C10.1719 5.09081 10.1438 5.08441 10.1179 5.07234C10.092 5.06027 10.069 5.04279 10.0505 5.02109C10.0092 4.97438 9.98763 4.9134 9.99049 4.85109C9.99049 4.72109 10.0805 4.62109 10.2105 4.62109C10.3205 4.62109 10.4205 4.73109 10.4205 4.86109C10.4105 4.99109 10.3205 5.09109 10.2005 5.09109Z" fill="#242222"/>
<path fill-rule="evenodd" clip-rule="evenodd" d="M10.4297 4.87969C10.4297 4.98969 10.5097 5.08969 10.6097 5.08969C10.7097 5.08969 10.7897 4.99969 10.7897 4.87969C10.7897 4.76969 10.6997 4.67969 10.6097 4.67969C10.5097 4.67969 10.4297 4.76969 10.4297 4.87969Z" fill="#F9DF3D"/>
<path fill-rule="evenodd" clip-rule="evenodd" d="M10.6104 4.71063C10.5304 4.71063 10.4604 4.79063 10.4604 4.88063C10.4604 4.98063 10.5304 5.05063 10.6104 5.05063C10.6904 5.05063 10.7704 4.97063 10.7704 4.88063C10.7704 4.79063 10.6904 4.71063 10.6104 4.71063ZM10.6104 5.12063C10.5004 5.12063 10.4004 5.01063 10.4004 4.88063C10.4004 4.75063 10.4904 4.64062 10.6104 4.64062C10.7304 4.64062 10.8204 4.75063 10.8204 4.88063C10.8204 5.01063 10.7304 5.12063 10.6104 5.12063Z" fill="#242222"/>
<path fill-rule="evenodd" clip-rule="evenodd" d="M10.8196 5.03031C10.8196 5.14031 10.8996 5.24031 10.9996 5.24031C11.0996 5.24031 11.1796 5.15031 11.1796 5.03031C11.1796 4.92031 11.0996 4.82031 10.9996 4.82031C10.9484 4.82539 10.901 4.85006 10.8675 4.88918C10.834 4.9283 10.8168 4.97886 10.8196 5.03031Z" fill="#F9DF3D"/>
<path fill-rule="evenodd" clip-rule="evenodd" d="M11 4.85906C10.9582 4.86071 10.9188 4.87866 10.89 4.90906C10.86 4.93906 10.85 4.98906 10.85 5.02906C10.85 5.12906 10.92 5.20906 11 5.20906C11.09 5.20906 11.16 5.12906 11.16 5.02906C11.15 4.93906 11.09 4.85906 11 4.85906ZM11 5.26906C10.88 5.26906 10.79 5.15906 10.79 5.02906C10.79 4.89906 10.88 4.78906 11 4.78906C11.11 4.78906 11.21 4.89906 11.21 5.02906C11.21 5.15906 11.11 5.26906 11 5.26906Z" fill="#242222"/>
<path fill-rule="evenodd" clip-rule="evenodd" d="M11.1497 5.29984C11.1497 5.40984 11.2297 5.50984 11.3297 5.50984C11.4297 5.50984 11.5197 5.41984 11.5197 5.29984C11.5197 5.18984 11.4397 5.08984 11.3297 5.08984C11.2784 5.09492 11.2311 5.11959 11.1976 5.15871C11.164 5.19784 11.1469 5.24839 11.1497 5.29984Z" fill="#F9DF3D"/>
<path fill-rule="evenodd" clip-rule="evenodd" d="M11.3301 5.12859C11.2501 5.12859 11.1801 5.20859 11.1801 5.30859C11.1801 5.40859 11.2501 5.48859 11.3301 5.48859C11.4201 5.48859 11.4901 5.40859 11.4901 5.30859C11.4801 5.20859 11.4101 5.12859 11.3301 5.12859ZM11.3301 5.53859C11.2101 5.53859 11.1201 5.42859 11.1201 5.29859C11.1201 5.16859 11.2101 5.05859 11.3301 5.05859C11.4401 5.05859 11.5401 5.16859 11.5401 5.29859C11.5401 5.43859 11.4401 5.53859 11.3301 5.53859Z" fill="#242222"/>
<path fill-rule="evenodd" clip-rule="evenodd" d="M11.3799 5.69047C11.3799 5.80047 11.4599 5.90047 11.5599 5.90047C11.6599 5.90047 11.7499 5.81047 11.7499 5.69047C11.7499 5.58047 11.6699 5.48047 11.5599 5.48047C11.4599 5.48047 11.3799 5.57047 11.3799 5.69047Z" fill="#F9DF3D"/>
<path fill-rule="evenodd" clip-rule="evenodd" d="M11.5596 5.51141C11.4696 5.51141 11.4096 5.59141 11.4096 5.68141C11.4096 5.78141 11.4696 5.85141 11.5596 5.85141C11.6496 5.85141 11.7196 5.77141 11.7196 5.68141C11.7196 5.59141 11.6496 5.51141 11.5596 5.51141ZM11.5596 5.92141C11.4396 5.92141 11.3496 5.81141 11.3496 5.68141C11.3496 5.55141 11.4396 5.44141 11.5596 5.44141C11.6796 5.44141 11.7696 5.55141 11.7696 5.68141C11.7696 5.82141 11.6796 5.92141 11.5596 5.92141Z" fill="#242222"/>
<path fill-rule="evenodd" clip-rule="evenodd" d="M11.4902 6.13188C11.4902 6.24188 11.5702 6.33187 11.6802 6.33187C11.7802 6.33187 11.8602 6.24188 11.8602 6.13188C11.8602 6.01188 11.7702 5.92188 11.6802 5.92188C11.5802 5.93187 11.4902 6.02188 11.4902 6.13188Z" fill="#F9DF3D"/>
<path fill-rule="evenodd" clip-rule="evenodd" d="M11.6797 5.96063C11.5897 5.96063 11.5297 6.04063 11.5297 6.13063C11.5297 6.23063 11.5897 6.30063 11.6797 6.30063C11.7597 6.30063 11.8297 6.22063 11.8297 6.13063C11.8297 6.04063 11.7597 5.96063 11.6797 5.96063ZM11.6797 6.37063C11.5597 6.37063 11.4697 6.26063 11.4697 6.13063C11.4697 6.00063 11.5697 5.89062 11.6797 5.89062C11.7897 5.89062 11.8897 6.00063 11.8897 6.13063C11.8897 6.26063 11.7897 6.37063 11.6797 6.37063Z" fill="#242222"/>
<path fill-rule="evenodd" clip-rule="evenodd" d="M11.4902 6.60063C11.4902 6.71063 11.5702 6.81063 11.6702 6.81063C11.7702 6.81063 11.8602 6.72063 11.8602 6.60063C11.8602 6.49063 11.7802 6.39062 11.6802 6.39062C11.5702 6.39062 11.4902 6.48063 11.4902 6.60063Z" fill="#F9DF3D"/>
<path fill-rule="evenodd" clip-rule="evenodd" d="M11.67 6.42156C11.58 6.42156 11.51 6.50156 11.51 6.59156C11.51 6.68156 11.58 6.76156 11.66 6.76156C11.75 6.76156 11.82 6.68156 11.82 6.59156C11.82 6.50156 11.75 6.42156 11.67 6.42156ZM11.67 6.83156C11.56 6.83156 11.46 6.72156 11.46 6.59156C11.46 6.46156 11.56 6.35156 11.67 6.35156C11.78 6.35156 11.88 6.46156 11.88 6.59156C11.88 6.73156 11.79 6.83156 11.67 6.83156Z" fill="#242222"/>
<path fill-rule="evenodd" clip-rule="evenodd" d="M11.4105 7.04984C11.4105 7.16984 11.4905 7.25984 11.5905 7.25984C11.6905 7.25984 11.7705 7.16984 11.7705 7.04984C11.7705 6.93984 11.6905 6.83984 11.5905 6.83984C11.5392 6.84492 11.4918 6.86959 11.4583 6.90871C11.4248 6.94784 11.4076 6.99839 11.4105 7.04984Z" fill="#F9DF3D"/>
<path fill-rule="evenodd" clip-rule="evenodd" d="M11.5899 6.87859C11.5099 6.87859 11.4399 6.95859 11.4399 7.04859C11.4399 7.13859 11.5099 7.22859 11.5899 7.22859C11.6799 7.22859 11.7499 7.14859 11.7499 7.04859C11.7499 6.95859 11.6799 6.87859 11.5899 6.87859ZM11.5899 7.28859C11.4799 7.28859 11.3799 7.17859 11.3799 7.04859C11.3799 6.91859 11.4699 6.80859 11.5899 6.80859C11.7099 6.80859 11.8099 6.90859 11.8099 7.04859C11.7999 7.17859 11.7099 7.28859 11.5899 7.28859Z" fill="#242222"/>
<path fill-rule="evenodd" clip-rule="evenodd" d="M8.45996 5.48156L8.46996 5.75156C8.92996 5.67156 9.56996 5.39156 10.17 5.39156C10.72 5.39156 11.15 5.64156 11.15 6.27156C11.15 6.89156 10.92 7.45156 10.61 8.03156L10.94 8.20156C11.23 7.57156 11.47 7.03156 11.47 6.31156C11.47 5.70156 11.05 5.10156 10.31 5.10156C9.65996 5.10156 8.99996 5.35156 8.45996 5.48156Z" fill="#F9DF3D"/>
<path fill-rule="evenodd" clip-rule="evenodd" d="M10.1697 5.35031C10.8097 5.35031 11.1797 5.68031 11.1797 6.26031C11.1797 6.93031 10.9097 7.53031 10.6297 8.04031L10.9097 8.16031C11.1797 7.58031 11.4197 7.03031 11.4197 6.30031C11.4197 5.73031 11.0297 5.13031 10.2997 5.13031C9.80969 5.13031 9.30969 5.27031 8.85969 5.40031L8.45969 5.51031L8.49969 5.75031C8.62969 5.69031 8.81969 5.64031 9.01969 5.58031C9.36969 5.47031 9.77969 5.35031 10.1697 5.35031ZM10.9397 8.23031H10.9297L10.5997 8.06031C10.8497 7.52031 11.1297 6.92031 11.1297 6.27031C11.1297 5.53031 10.5297 5.42031 10.1697 5.42031C9.78969 5.42031 9.37969 5.54031 9.02969 5.64031C8.82969 5.70031 8.63969 5.75031 8.47969 5.78031L8.42969 5.48031C9.02675 5.2322 9.66353 5.09333 10.3097 5.07031C11.0797 5.07031 11.4897 5.71031 11.4897 6.31031C11.4897 7.06031 11.2297 7.63031 10.9597 8.22031L10.9397 8.23031Z" fill="#242222"/>
<path fill-rule="evenodd" clip-rule="evenodd" d="M0 13H38V22.58C37.83 24.06 36.82 25.25 35.53 25.5H2.47C1.18 25.25 0.17 24.06 0 22.59V13Z" fill="#C12837"/>
<path fill-rule="evenodd" clip-rule="evenodd" d="M8.2 3.72875L8 4.12875L8.2 4.52875L8.38 4.12875L8.2 3.72875ZM8.2 2.71875L8 3.11875L8.2 3.51875L8.38 3.11875L8.2 2.71875Z" fill="#F9DF3D"/>
<path fill-rule="evenodd" clip-rule="evenodd" d="M8.20047 2.77969L8.04047 3.12969L8.20047 3.44969L8.36047 3.09969L8.20047 2.77969ZM8.20047 3.54969C8.18047 3.54969 8.18047 3.53969 8.17047 3.52969L7.98047 3.12969L8.18047 2.69969L8.20047 2.67969L8.22047 2.69969L8.41047 3.09969L8.22047 3.52969L8.20047 3.54969ZM8.20047 3.78969L8.04047 4.14969L8.20047 4.46969L8.36047 4.11969L8.20047 3.78969ZM8.20047 4.56969C8.18047 4.56969 8.18047 4.55969 8.17047 4.54969L7.98047 4.14969L8.17047 3.71969C8.18047 3.69969 8.19047 3.69969 8.20047 3.69969L8.22047 3.71969L8.41047 4.11969L8.22047 4.54969L8.20047 4.56969Z" fill="#242222"/>
<path fill-rule="evenodd" clip-rule="evenodd" d="M8.27953 3.63016L8.57953 3.84016L8.87953 3.63016L8.57953 3.41016L8.27953 3.63016ZM7.51953 3.63016L7.81953 3.84016L8.11953 3.63016L7.81953 3.41016L7.51953 3.63016Z" fill="#F9DF3D"/>
<path fill-rule="evenodd" clip-rule="evenodd" d="M7.57023 3.61891L7.82023 3.79891L8.07023 3.61891L7.81023 3.43891L7.57023 3.61891ZM7.82023 3.86891H7.81023L7.51023 3.64891C7.50493 3.64891 7.49984 3.6468 7.49609 3.64305C7.49234 3.6393 7.49023 3.63421 7.49023 3.62891L7.50023 3.59891L7.80023 3.37891L8.13023 3.59891L8.15023 3.62891L8.13023 3.65891L7.83023 3.87891L7.82023 3.86891ZM8.33023 3.61891L8.58023 3.79891L8.83023 3.61891L8.56024 3.43891L8.33023 3.61891ZM8.58023 3.86891H8.56024L8.26023 3.64891L8.25023 3.62891L8.26023 3.59891L8.56024 3.37891L8.89023 3.59891L8.90023 3.62891L8.89023 3.65891L8.59023 3.87891L8.58023 3.86891Z" fill="#242222"/>
<path fill-rule="evenodd" clip-rule="evenodd" d="M8.3398 3.62875C8.3398 3.71875 8.2798 3.78875 8.1998 3.78875C8.1198 3.78875 8.0498 3.71875 8.0498 3.62875C8.0498 3.53875 8.1198 3.46875 8.1998 3.46875C8.2798 3.46875 8.3398 3.53875 8.3398 3.62875Z" fill="#F9DF3D"/>
<path fill-rule="evenodd" clip-rule="evenodd" d="M8.19953 3.49969C8.12953 3.49969 8.08953 3.55969 8.08953 3.62969C8.08953 3.77969 8.31953 3.77969 8.31953 3.62969C8.30953 3.55969 8.26953 3.49969 8.19953 3.49969ZM8.19953 3.81969C8.09953 3.81969 8.01953 3.72969 8.01953 3.61969C8.01953 3.50969 8.09953 3.42969 8.19953 3.42969C8.28953 3.42969 8.36953 3.50969 8.36953 3.61969C8.36953 3.72969 8.28953 3.81969 8.19953 3.81969Z" fill="#242222"/>
<path fill-rule="evenodd" clip-rule="evenodd" d="M8.58957 4.67047C8.58957 4.91047 8.40957 5.10047 8.19957 5.10047C7.97957 5.10047 7.80957 4.90047 7.80957 4.67047C7.80957 4.43047 7.97957 4.23047 8.19957 4.23047C8.40957 4.23047 8.58957 4.43047 8.58957 4.67047Z" fill="#F9DF3D"/>
<path fill-rule="evenodd" clip-rule="evenodd" d="M8.20027 4.25922C8.00027 4.25922 7.84027 4.43922 7.84027 4.66922C7.84027 4.88922 8.00027 5.06922 8.20027 5.06922C8.39027 5.06922 8.56027 4.88922 8.56027 4.66922C8.56027 4.44922 8.40027 4.25922 8.20027 4.25922ZM8.20027 5.13922C7.97027 5.13922 7.78027 4.92922 7.78027 4.66922C7.78027 4.40922 7.97027 4.19922 8.20027 4.19922C8.43027 4.19922 8.61027 4.40922 8.61027 4.66922C8.62027 4.92922 8.43027 5.13922 8.20027 5.13922Z" fill="#242222"/>
<path fill-rule="evenodd" clip-rule="evenodd" d="M7.8298 4.58875C7.8098 4.58875 7.7998 4.57875 7.7998 4.55875C7.7998 4.53875 7.8098 4.52875 7.8198 4.52875L8.0998 4.48875L8.0798 4.42875V4.24875C8.0798 4.20875 8.1298 4.20875 8.1298 4.24875V4.52875L7.8298 4.58875ZM8.5698 4.58875C8.4806 4.57053 8.39046 4.55718 8.2998 4.54875L8.2698 4.24875C8.2698 4.20875 8.3298 4.20875 8.3298 4.24875V4.52875C8.3898 4.49875 8.4898 4.50875 8.5798 4.52875C8.5998 4.52875 8.6098 4.54875 8.6098 4.55875C8.5998 4.57875 8.5898 4.58875 8.5698 4.58875ZM8.5698 4.80875C8.3198 4.75875 8.0698 4.75875 7.8298 4.80875C7.8098 4.80875 7.7998 4.79875 7.7998 4.77875L7.8198 4.73875C8.0698 4.68875 8.3298 4.68875 8.5798 4.73875L8.5998 4.77875C8.5998 4.78875 8.5898 4.80875 8.5698 4.80875Z" fill="#242222"/>
<path fill-rule="evenodd" clip-rule="evenodd" d="M8.57973 5.39844L8.31973 5.44844C8.35973 5.81844 8.38973 6.58844 8.52973 7.17844L8.92973 7.35844C8.69938 6.73059 8.58092 6.06721 8.57973 5.39844ZM7.81973 5.39844C7.81766 6.07039 7.69924 6.7369 7.46973 7.36844L7.86973 7.18844C7.99973 6.58844 8.03973 5.81844 8.07973 5.44844L7.81973 5.39844Z" fill="#F9DF3D"/>
<path fill-rule="evenodd" clip-rule="evenodd" d="M8.5502 5.40891L8.3302 5.47891C8.3602 5.54891 8.3702 5.67891 8.3902 5.82891C8.4202 6.21891 8.4702 6.74891 8.5702 7.17891L8.8902 7.30891C8.66715 6.70019 8.55209 6.0572 8.5502 5.40891ZM8.9302 7.39891H8.9202L8.5202 7.21891C8.38747 6.64094 8.31045 6.05157 8.2902 5.45891L8.5702 5.37891C8.6302 6.06891 8.7002 6.81891 8.9502 7.35891V7.39891H8.9302ZM7.8202 5.43891C7.8202 6.04891 7.7602 6.76891 7.5302 7.30891L7.8602 7.15891C7.9502 6.74891 7.9902 6.20891 8.0202 5.81891L8.0502 5.44891L7.8202 5.43891ZM7.4702 7.39891L7.4502 7.38891V7.34891C7.67639 6.72371 7.79145 6.06376 7.7902 5.39891L8.0802 5.41891C8.0902 5.54891 8.0802 5.67891 8.0702 5.81891C8.0402 6.21891 7.9902 6.75891 7.8902 7.18891L7.4702 7.39891Z" fill="#242222"/>
<path fill-rule="evenodd" clip-rule="evenodd" d="M8.19969 6.94922C7.71969 6.94922 7.36969 7.19922 7.34969 7.84922C7.22969 7.60922 6.73969 6.88922 6.27969 6.97922C6.00969 7.03922 5.75969 7.46922 5.80969 7.95922C5.58969 7.22922 4.90969 7.10922 4.42969 7.53922C4.85969 7.93922 5.04969 9.11922 5.40969 9.62922H10.9797C11.3497 9.11922 11.5397 7.93922 11.9697 7.53922C11.4897 7.10922 10.8297 7.22922 10.5897 7.95922C10.6397 7.46922 10.3897 7.03922 10.1197 6.97922C9.65969 6.87922 9.16969 7.60922 9.04969 7.83922C9.02969 7.19922 8.67969 6.94922 8.19969 6.94922Z" fill="#F9DF3D"/>
<path fill-rule="evenodd" clip-rule="evenodd" d="M5.03016 7.32188C4.83016 7.32188 4.62016 7.41187 4.44016 7.56187C4.68016 7.74187 4.85016 8.21187 5.02016 8.67188C5.15016 9.04187 5.27016 9.38188 5.43016 9.60188L10.9602 9.59188C11.1102 9.37188 11.2302 9.03188 11.3602 8.67188C11.5202 8.21187 11.6902 7.74188 11.9402 7.51188C11.7639 7.3971 11.5602 7.3315 11.3502 7.32188C11.0102 7.32188 10.7302 7.56187 10.6102 7.97187L10.5802 7.99187C10.5602 7.99187 10.5602 7.97187 10.5602 7.96187C10.6002 7.47187 10.3502 7.07187 10.1002 7.02187C9.70016 6.93187 9.22016 7.57188 9.07016 7.86188L9.04016 7.88188L9.02016 7.85187C9.00016 7.13187 8.56016 6.98187 8.20016 6.98187C7.84016 6.98187 7.40016 7.13187 7.38016 7.85187C7.38016 7.87187 7.37016 7.88188 7.36016 7.88188C7.35016 7.88188 7.33016 7.88188 7.33016 7.86188C7.24016 7.68188 6.75016 6.92188 6.28016 7.01188C6.04016 7.07188 5.79016 7.47187 5.84016 7.96187L5.82016 7.99187C5.80016 7.99187 5.79016 7.98187 5.79016 7.97187C5.65016 7.56187 5.38016 7.32188 5.03016 7.32188ZM10.9802 9.66187H5.41016C5.2187 9.36436 5.07055 9.04112 4.97016 8.70187C4.81016 8.25187 4.65016 7.78187 4.41016 7.56187C4.60016 7.35187 4.82016 7.26188 5.03016 7.26188C5.35016 7.26188 5.62016 7.46188 5.77016 7.80188C5.79016 7.35188 6.03016 7.01187 6.27016 6.96187C6.72016 6.86187 7.16016 7.48187 7.32016 7.75187C7.38016 7.21187 7.68016 6.92188 8.20016 6.92188C8.72016 6.92188 9.02016 7.21187 9.07016 7.75187C9.23016 7.47187 9.68016 6.86187 10.1202 6.96187C10.3602 7.01187 10.6102 7.35188 10.6302 7.80188C10.7802 7.46188 11.0502 7.26188 11.3702 7.26188C11.6026 7.2652 11.8248 7.35837 11.9902 7.52187C11.7602 7.79187 11.5902 8.25187 11.4302 8.70187C11.3002 9.07187 11.1802 9.42187 11.0102 9.65187L10.9802 9.66187Z" fill="#242222"/>
<path fill-rule="evenodd" clip-rule="evenodd" d="M10.9699 9.62953C10.9699 9.85953 9.72992 10.1195 8.19992 10.1195C6.66992 10.1195 5.41992 9.85953 5.41992 9.62953C5.41992 9.39953 6.66992 9.26953 8.19992 9.26953C9.72992 9.26953 10.9699 9.39953 10.9699 9.62953Z" fill="#242222"/>
<path fill-rule="evenodd" clip-rule="evenodd" d="M8.20039 9.29828C6.39039 9.29828 5.45039 9.45828 5.45039 9.62828C5.45039 9.80828 6.60039 10.0883 8.20039 10.0883C9.79039 10.0883 10.9404 9.81828 10.9404 9.62828C10.9504 9.46828 10.0104 9.29828 8.20039 9.29828ZM8.20039 10.1483C6.70039 10.1483 5.40039 9.89828 5.40039 9.62828C5.40039 9.26828 7.55039 9.23828 8.21039 9.23828C8.86039 9.23828 11.0104 9.26828 11.0104 9.62828C11.0004 9.89828 9.69039 10.1483 8.20039 10.1483Z" fill="#242222"/>
<path fill-rule="evenodd" clip-rule="evenodd" d="M8.33031 5.27109C8.33031 5.35109 8.27031 5.42109 8.20031 5.42109C8.13031 5.42109 8.07031 5.36109 8.07031 5.27109C8.07031 5.19109 8.12031 5.12109 8.20031 5.12109C8.27031 5.12109 8.33031 5.19109 8.33031 5.27109Z" fill="#F9DF3D"/>
<path fill-rule="evenodd" clip-rule="evenodd" d="M8.20004 5.16015C8.18538 5.15956 8.17075 5.16191 8.15701 5.16707C8.14327 5.17222 8.1307 5.18007 8.12004 5.19015C8.1076 5.21503 8.10077 5.24234 8.10004 5.27015C8.10004 5.40015 8.30004 5.40015 8.30004 5.27015C8.30004 5.21015 8.26004 5.16015 8.20004 5.16015ZM8.20004 5.45015C8.11004 5.45015 8.04004 5.37015 8.04004 5.27015C8.04004 5.22015 8.06004 5.18015 8.09004 5.15015C8.18004 5.05015 8.36004 5.13015 8.36004 5.27015C8.36004 5.37015 8.29004 5.45015 8.20004 5.45015Z" fill="#242222"/>
<path fill-rule="evenodd" clip-rule="evenodd" d="M8.33957 5.58969C8.33957 5.66969 8.27957 5.73969 8.19957 5.73969C8.11957 5.73969 8.05957 5.66969 8.05957 5.58969C8.06957 5.49969 8.11957 5.42969 8.19957 5.42969C8.27957 5.42969 8.33957 5.49969 8.33957 5.58969Z" fill="#F9DF3D"/>
<path fill-rule="evenodd" clip-rule="evenodd" d="M8.20027 5.46063C8.13027 5.46063 8.09027 5.51063 8.09027 5.58063C8.09027 5.72063 8.31027 5.72063 8.31027 5.58063C8.31027 5.52063 8.26027 5.46063 8.20027 5.46063ZM8.20027 5.77063C8.11027 5.77063 8.03027 5.69063 8.03027 5.58063C8.03027 5.48063 8.10027 5.39062 8.20027 5.39062C8.29027 5.39062 8.36027 5.47063 8.36027 5.58063C8.36027 5.69063 8.29027 5.77063 8.20027 5.77063Z" fill="#242222"/>
<path fill-rule="evenodd" clip-rule="evenodd" d="M8.3498 5.93172C8.3498 6.02172 8.2798 6.10172 8.1998 6.10172C8.1098 6.10172 8.0498 6.02172 8.0498 5.93172C8.0498 5.84172 8.1098 5.76172 8.1998 5.76172C8.2798 5.76172 8.3498 5.83172 8.3498 5.93172Z" fill="#F9DF3D"/>
<path fill-rule="evenodd" clip-rule="evenodd" d="M8.19977 5.79047C8.12977 5.79047 8.06977 5.85047 8.06977 5.93047C8.06977 6.08047 8.31977 6.08047 8.31977 5.93047C8.31977 5.85047 8.26977 5.79047 8.19977 5.79047ZM8.19977 6.13047C8.09977 6.13047 8.00977 6.04047 8.00977 5.93047C8.00977 5.82047 8.08977 5.73047 8.19977 5.73047C8.28977 5.73047 8.37977 5.82047 8.37977 5.93047C8.37977 6.04047 8.29977 6.13047 8.19977 6.13047Z" fill="#242222"/>
<path fill-rule="evenodd" clip-rule="evenodd" d="M8.37027 6.29938C8.37027 6.40938 8.29027 6.49937 8.20027 6.49937C8.10027 6.49937 8.03027 6.40938 8.03027 6.29938C8.03027 6.18938 8.11027 6.10938 8.21027 6.10938C8.29027 6.10938 8.37027 6.19938 8.37027 6.29938Z" fill="#F9DF3D"/>
<path fill-rule="evenodd" clip-rule="evenodd" d="M8.2 6.14031C8.12 6.14031 8.05 6.21031 8.05 6.30031C8.05 6.39031 8.12 6.46031 8.19 6.46031C8.27 6.46031 8.33 6.39031 8.33 6.30031C8.34 6.21031 8.28 6.14031 8.2 6.14031ZM8.2 6.53031C8.09 6.53031 8 6.43031 8 6.30031C8 6.18031 8.09 6.07031 8.2 6.07031C8.31 6.07031 8.39 6.17031 8.39 6.30031C8.4 6.43031 8.31 6.53031 8.2 6.53031Z" fill="#242222"/>
<path fill-rule="evenodd" clip-rule="evenodd" d="M8.38953 6.72172C8.38953 6.84172 8.30953 6.93172 8.20953 6.93172C8.09953 6.93172 8.01953 6.84172 8.01953 6.72172C8.01953 6.60172 8.09953 6.51172 8.20953 6.51172C8.30953 6.51172 8.38953 6.61172 8.38953 6.72172Z" fill="#F9DF3D"/>
<path fill-rule="evenodd" clip-rule="evenodd" d="M8.1998 6.54047C8.1098 6.54047 8.0398 6.62047 8.0398 6.72047C8.0398 6.82047 8.1098 6.90047 8.1998 6.90047C8.2898 6.90047 8.3598 6.82047 8.3598 6.72047C8.3598 6.63047 8.2898 6.54047 8.1998 6.54047ZM8.1998 6.97047C8.0798 6.97047 7.9798 6.86047 7.9798 6.72047C7.9798 6.59047 8.0798 6.48047 8.1998 6.48047C8.3198 6.48047 8.4098 6.59047 8.4098 6.72047C8.4198 6.86047 8.3198 6.97047 8.1998 6.97047ZM11.1898 7.99047C11.1748 7.9932 11.161 8.00014 11.1498 8.01047C11.0728 8.0841 11.0026 8.16441 10.9398 8.25047C10.8898 8.32047 10.8398 8.31047 10.8298 8.29047C10.8134 8.25154 10.8001 8.21143 10.7898 8.17047C10.7798 8.11047 10.7398 8.10047 10.7398 8.17047C10.7398 8.24047 10.7698 8.31047 10.7798 8.43047C10.7998 8.54047 10.7798 8.73047 10.6898 8.95047C10.6598 9.02047 10.7098 8.99047 10.7498 8.92047C10.8398 8.73047 11.0598 8.53047 11.2898 8.34047C11.3298 8.30047 11.3198 8.27047 11.2598 8.29047C11.1998 8.30047 11.1698 8.36047 11.0998 8.36047C11.0798 8.36047 11.0598 8.36047 11.0598 8.30047C11.0598 8.25047 11.1198 8.12047 11.1798 8.03047C11.2098 8.01047 11.1998 7.99047 11.1898 7.99047ZM5.2098 7.99047C5.1898 7.99047 5.1898 8.01047 5.2098 8.04047C5.2698 8.13047 5.3298 8.26047 5.3298 8.31047C5.3398 8.37047 5.3098 8.37047 5.2898 8.37047C5.2198 8.37047 5.1898 8.31047 5.1298 8.30047C5.0698 8.28047 5.0598 8.32047 5.0998 8.36047C5.3298 8.54047 5.5498 8.75047 5.6398 8.94047C5.6798 9.02047 5.7298 9.04047 5.6998 8.97047C5.6198 8.74047 5.5998 8.55047 5.6098 8.44047C5.6298 8.32047 5.6598 8.25047 5.6498 8.18047C5.6498 8.11047 5.6198 8.12047 5.5998 8.18047L5.5698 8.30047C5.5498 8.32047 5.4998 8.33047 5.4598 8.26047C5.39704 8.17441 5.32676 8.0941 5.2498 8.02047L5.2098 7.99047ZM10.4098 7.82047C10.3998 7.82047 10.3898 7.82047 10.3898 7.84047L10.2998 7.98047C10.2798 8.03047 10.3198 8.04047 10.3298 8.01047L10.4398 7.88047C10.4598 7.85047 10.4398 7.82047 10.4098 7.82047C10.4198 7.82047 10.4198 7.82047 10.4098 7.82047ZM5.9798 7.82047C5.9598 7.82047 5.9298 7.85047 5.9598 7.89047L6.0698 8.02047C6.0898 8.04047 6.1198 8.03047 6.0998 7.98047L6.0098 7.84047C5.9998 7.82047 5.9898 7.82047 5.9798 7.82047ZM10.8998 7.76047C10.8898 7.76047 10.8698 7.77047 10.8698 7.80047L10.8598 7.93047C10.8598 7.97047 10.8898 7.98047 10.8998 7.93047L10.9298 7.80047C10.9298 7.77047 10.9198 7.76047 10.8998 7.76047ZM5.4998 7.76047C5.4798 7.76047 5.4698 7.77047 5.4798 7.80047L5.4998 7.94047C5.5098 7.98047 5.5398 7.98047 5.5398 7.94047L5.5298 7.81047C5.5298 7.78047 5.5098 7.76047 5.4998 7.76047ZM10.3698 7.60047C10.3898 7.60047 10.3898 7.67047 10.3698 7.69047L10.2798 7.82047C10.2398 7.86047 10.2298 7.82047 10.2398 7.79047L10.3298 7.63047L10.3698 7.60047ZM6.0298 7.60047L6.0598 7.63047L6.1498 7.79047C6.1598 7.83047 6.1498 7.86047 6.1198 7.82047L6.0198 7.69047C5.9998 7.66047 6.0098 7.59047 6.0298 7.60047ZM11.0698 7.67047C11.0498 7.67047 11.0298 7.68047 11.0198 7.71047L10.9998 7.84047C10.9998 7.89047 11.0298 7.91047 11.0398 7.87047L11.0998 7.72047C11.0998 7.68047 11.0898 7.67047 11.0698 7.67047ZM5.3398 7.67047C5.3198 7.67047 5.2998 7.68047 5.3098 7.72047L5.3698 7.87047C5.3698 7.90047 5.4098 7.89047 5.3998 7.84047L5.3798 7.71047C5.3798 7.68047 5.3598 7.67047 5.3398 7.67047ZM9.9298 7.57047L9.9098 7.61047C9.8798 7.69047 9.7998 7.87047 9.7598 7.93047C9.7198 8.00047 9.6698 7.97047 9.6398 7.89047C9.5898 7.78047 9.5598 7.85047 9.5898 7.92047C9.6698 8.11047 9.6598 8.40047 9.6098 8.76047C9.5998 8.83047 9.6298 8.82047 9.6498 8.76047C9.7098 8.47047 9.8698 8.24047 10.0898 8.03047C10.1298 7.99047 10.0998 7.96047 10.0698 7.98047L9.9698 8.05047C9.9298 8.07047 9.8998 8.06047 9.8898 8.01047C9.8798 7.96047 9.8998 7.85047 9.9498 7.64047C9.9598 7.60047 9.9498 7.57047 9.9298 7.57047C9.9398 7.57047 9.9398 7.57047 9.9298 7.57047ZM6.4598 7.57047C6.4498 7.57047 6.4398 7.60047 6.4498 7.64047C6.4998 7.85047 6.5198 7.96047 6.5098 8.01047C6.4998 8.06047 6.4698 8.07047 6.4398 8.05047C6.40317 8.03656 6.36931 8.01625 6.3398 7.99047C6.3098 7.97047 6.2798 7.99047 6.3198 8.04047C6.5398 8.24047 6.6998 8.48047 6.7498 8.76047C6.7598 8.82047 6.7998 8.83047 6.7898 8.76047C6.7398 8.40047 6.7298 8.11047 6.8098 7.92047C6.8398 7.85047 6.8098 7.78047 6.7598 7.90047C6.7298 7.97047 6.6798 8.00047 6.6398 7.93047C6.58122 7.82942 6.53426 7.72207 6.4998 7.61047C6.4898 7.58047 6.4698 7.57047 6.4598 7.57047ZM8.8198 7.65047C8.8098 7.65047 8.7898 7.66047 8.7898 7.69047L8.7698 7.86047C8.7598 7.90047 8.8098 7.90047 8.8198 7.85047L8.8498 7.70047C8.8598 7.67047 8.8398 7.65047 8.8198 7.65047ZM7.5698 7.65047C7.5498 7.65047 7.5398 7.67047 7.5498 7.70047L7.5798 7.85047C7.5998 7.90047 7.6398 7.90047 7.6298 7.86047L7.6098 7.69047C7.5998 7.66047 7.5898 7.65047 7.5698 7.65047C7.5798 7.65047 7.5798 7.65047 7.5698 7.65047ZM11.6198 7.62047L11.5798 7.63047C11.5338 7.65643 11.4958 7.69447 11.4698 7.74047C11.4498 7.77047 11.4598 7.81047 11.5098 7.77047L11.6198 7.68047C11.6598 7.65047 11.6498 7.62047 11.6198 7.62047ZM4.7798 7.62047C4.7498 7.62047 4.7498 7.65047 4.7698 7.67047L4.8798 7.77047C4.9198 7.81047 4.9498 7.77047 4.9198 7.74047C4.89383 7.69447 4.8558 7.65643 4.8098 7.63047L4.7798 7.62047ZM11.2598 7.61047C11.2398 7.61047 11.2198 7.62047 11.1998 7.65047L11.1498 7.81047C11.1298 7.87047 11.1798 7.86047 11.1998 7.82047L11.2698 7.66047C11.2998 7.62047 11.2798 7.61047 11.2598 7.61047ZM5.1398 7.61047C5.1198 7.61047 5.1098 7.62047 5.1198 7.66047L5.1898 7.82047C5.2098 7.86047 5.2698 7.88047 5.2398 7.81047L5.1898 7.65047C5.1798 7.62047 5.1598 7.61047 5.1398 7.61047ZM11.4498 7.56047C11.4698 7.56047 11.4798 7.61047 11.4498 7.64047C11.4254 7.6814 11.3951 7.71847 11.3598 7.75047C11.3298 7.78047 11.3198 7.74047 11.3398 7.71047L11.4098 7.60047L11.4498 7.56047ZM4.9498 7.56047C4.9698 7.56047 4.9798 7.57047 4.9898 7.60047L5.0598 7.71047C5.0698 7.74047 5.0598 7.78047 5.0298 7.75047L4.9398 7.65047C4.9198 7.61047 4.9298 7.56047 4.9498 7.56047ZM10.2798 7.43047C10.2598 7.43047 10.2498 7.44047 10.2398 7.46047C10.2098 7.52047 10.2098 7.57047 10.1798 7.61047C10.1598 7.66047 10.1898 7.68047 10.2098 7.65047L10.2898 7.51047C10.3098 7.46047 10.2998 7.43047 10.2798 7.43047ZM6.1198 7.43047C6.0998 7.43047 6.0898 7.46047 6.1098 7.50047L6.1898 7.64047C6.2098 7.67047 6.2398 7.65047 6.2198 7.60047C6.1898 7.57047 6.1898 7.52047 6.1598 7.46047C6.1498 7.43047 6.1298 7.42047 6.1198 7.43047ZM9.5098 7.41047C9.4898 7.41047 9.4698 7.43047 9.4598 7.47047L9.4398 7.59047C9.4298 7.64047 9.4698 7.65047 9.4798 7.61047L9.5198 7.45047C9.5298 7.43047 9.5198 7.41047 9.5098 7.41047ZM6.8998 7.41047C6.8798 7.41047 6.8698 7.43047 6.8798 7.45047L6.9198 7.61047C6.9298 7.65047 6.9698 7.64047 6.9598 7.59047L6.9398 7.46047C6.9298 7.43047 6.9098 7.41047 6.8998 7.41047ZM8.1998 7.48047C8.1698 7.48047 8.1698 7.52047 8.1598 7.55047C8.1598 7.66047 8.1198 7.76047 8.0898 7.81047C8.0598 7.86047 8.0098 7.85047 7.9698 7.82047C7.92418 7.79391 7.88071 7.76382 7.8398 7.73047C7.7898 7.69047 7.7598 7.72047 7.8098 7.81047C7.9798 8.08047 8.1598 8.32047 8.1598 8.77047C8.1598 8.83047 8.1698 8.84047 8.1998 8.84047C8.2198 8.84047 8.2298 8.82047 8.2298 8.77047C8.2298 8.32047 8.4098 8.09047 8.5898 7.81047C8.6498 7.72047 8.6098 7.69047 8.5598 7.73047L8.4398 7.82047C8.3898 7.85047 8.3398 7.86047 8.3098 7.81047C8.25695 7.73413 8.229 7.64331 8.2298 7.55047C8.2298 7.52047 8.2198 7.48047 8.1998 7.48047ZM8.7298 7.43047C8.7498 7.43047 8.7698 7.46047 8.7698 7.49047L8.7198 7.64047C8.7098 7.70047 8.6698 7.67047 8.6698 7.63047L8.6898 7.47047C8.6998 7.44047 8.7098 7.43047 8.7298 7.43047ZM7.6698 7.43047C7.6798 7.43047 7.6998 7.44047 7.6998 7.47047C7.71363 7.52266 7.72036 7.57648 7.7198 7.63047C7.7198 7.67047 7.6898 7.70047 7.6798 7.64047L7.6298 7.48047C7.6298 7.46047 7.6498 7.43047 7.6698 7.43047ZM10.1498 7.31047C10.1698 7.31047 10.1898 7.35047 10.1798 7.38047L10.1198 7.49047C10.0998 7.54047 10.0798 7.50047 10.0898 7.47047L10.1198 7.35047C10.1198 7.32047 10.1398 7.31047 10.1498 7.31047ZM6.2498 7.31047C6.2598 7.31047 6.2798 7.32047 6.2798 7.35047L6.3098 7.47047C6.3198 7.50047 6.2998 7.54047 6.2798 7.49047L6.2198 7.38047C6.2098 7.35047 6.2298 7.31047 6.2498 7.31047ZM9.6998 7.28047C9.7098 7.28047 9.7298 7.32047 9.7098 7.36047L9.6598 7.51047C9.6298 7.57047 9.5998 7.56047 9.6098 7.52047L9.6498 7.33047C9.6598 7.29047 9.6798 7.28047 9.6998 7.28047ZM6.7098 7.28047C6.7198 7.28047 6.7398 7.29047 6.7498 7.33047L6.7898 7.52047C6.7998 7.56047 6.7698 7.57047 6.7498 7.51047L6.6898 7.36047C6.6698 7.32047 6.6898 7.29047 6.7098 7.28047ZM9.8698 7.24047C9.8598 7.24047 9.8398 7.26047 9.8298 7.29047L9.7898 7.44047C9.7798 7.49047 9.8098 7.50047 9.8298 7.45047L9.8898 7.29047C9.8998 7.27047 9.8898 7.24047 9.8798 7.24047H9.8698ZM6.5198 7.24047C6.5098 7.25047 6.4998 7.27047 6.5098 7.29047L6.5698 7.45047C6.5798 7.50047 6.6198 7.49047 6.6098 7.44047L6.5698 7.29047C6.5598 7.25047 6.5398 7.24047 6.5198 7.24047ZM10.0298 7.24047C10.0198 7.24047 9.9998 7.25047 9.9898 7.28047L9.9398 7.43047C9.9298 7.47047 9.9598 7.51047 9.9798 7.45047L10.0498 7.30047C10.0598 7.27047 10.0498 7.24047 10.0298 7.24047ZM6.3698 7.24047C6.3498 7.24047 6.3398 7.27047 6.3498 7.31047L6.4198 7.45047C6.4398 7.51047 6.4698 7.47047 6.4598 7.43047L6.4098 7.28047C6.3998 7.25047 6.3898 7.24047 6.3698 7.24047ZM8.5598 7.23047C8.5898 7.24047 8.5998 7.26047 8.5898 7.29047L8.5698 7.46047C8.5698 7.51047 8.5398 7.49047 8.5298 7.46047V7.30047C8.5398 7.25047 8.5498 7.24047 8.5598 7.23047ZM7.8298 7.23047C7.8498 7.22047 7.8598 7.24047 7.8598 7.28047V7.44047C7.8598 7.47047 7.8198 7.49047 7.8198 7.44047L7.8098 7.27047C7.7998 7.26047 7.8098 7.24047 7.8298 7.23047ZM8.3998 7.16047L8.3698 7.20047V7.36047C8.3798 7.40047 8.4098 7.42047 8.4198 7.36047L8.4398 7.21047C8.4498 7.18047 8.4298 7.16047 8.3998 7.16047C8.4098 7.16047 8.4098 7.16047 8.3998 7.16047ZM7.9898 7.16047C7.9698 7.16047 7.9498 7.19047 7.9498 7.21047C7.96277 7.25942 7.96949 7.30983 7.9698 7.36047C7.9698 7.42047 8.0098 7.40047 8.0198 7.36047V7.20047C8.0198 7.17047 8.0098 7.16047 7.9898 7.16047ZM8.2698 7.13047C8.2498 7.13047 8.2298 7.15047 8.2298 7.20047L8.2398 7.37047C8.2498 7.42047 8.2798 7.44047 8.2898 7.37047L8.3098 7.19047C8.3098 7.16047 8.2898 7.13047 8.2698 7.13047ZM8.1198 7.13047C8.0998 7.13047 8.0798 7.15047 8.0898 7.19047L8.1098 7.37047C8.1198 7.43047 8.1498 7.42047 8.1598 7.37047L8.1698 7.20047C8.1698 7.16047 8.1498 7.13047 8.1198 7.13047Z" fill="#242222"/>
<path fill-rule="evenodd" clip-rule="evenodd" d="M7.92953 9.39156C7.90953 9.39156 7.89953 9.38156 7.89953 9.36156V9.09156C7.89953 9.07156 7.90953 9.06156 7.92953 9.05156C7.94953 9.05156 7.95953 9.06156 7.95953 9.08156L7.96953 9.35156C7.96151 9.36932 7.94729 9.38355 7.92953 9.39156ZM8.46953 9.39156C8.44953 9.39156 8.43953 9.38156 8.43953 9.36156L8.44953 9.09156C8.44953 9.07156 8.46953 9.06156 8.47953 9.06156L8.49953 9.10156V9.36156L8.46953 9.39156ZM7.70953 9.39156L7.67953 9.36156L7.66953 9.09156C7.66953 9.07156 7.67953 9.06156 7.69953 9.05156C7.71953 9.06156 7.71953 9.07156 7.71953 9.08156L7.72953 9.35156C7.73953 9.38156 7.72953 9.39156 7.70953 9.39156ZM8.68953 9.39156C8.66953 9.39156 8.65953 9.37156 8.65953 9.36156L8.66953 9.09156C8.66953 9.07156 8.67953 9.07156 8.69953 9.06156C8.70953 9.06156 8.72953 9.08156 8.72953 9.10156L8.71953 9.36156C8.71953 9.38156 8.69953 9.40156 8.68953 9.39156ZM8.19953 9.39156C8.17953 9.39156 8.16953 9.38156 8.16953 9.36156V9.06156C8.16953 9.03156 8.22953 9.03156 8.22953 9.06156V9.36156C8.22953 9.38156 8.21953 9.40156 8.19953 9.39156ZM7.51953 9.41156C7.49953 9.41156 7.48953 9.40156 7.48953 9.38156L7.47953 9.11156C7.47953 9.09156 7.48953 9.08156 7.49953 9.08156C7.52953 9.08156 7.52953 9.09156 7.53953 9.10156L7.54953 9.37156C7.54953 9.39156 7.53953 9.41156 7.51953 9.41156ZM8.87953 9.41156C8.85953 9.41156 8.84953 9.39156 8.84953 9.37156L8.85953 9.10156L8.88953 9.07156C8.89953 9.07156 8.90953 9.08156 8.90953 9.10156V9.38156L8.87953 9.41156ZM7.34953 9.42156C7.33953 9.42156 7.32953 9.41156 7.32953 9.39156L7.29953 9.12156C7.29953 9.10156 7.30953 9.09156 7.32953 9.09156C7.35953 9.09156 7.35953 9.10156 7.35953 9.12156L7.36953 9.39156C7.37953 9.40156 7.35953 9.42156 7.34953 9.42156ZM7.15953 9.42156C7.14953 9.42156 7.12953 9.41156 7.12953 9.39156L7.10953 9.12156C7.10953 9.10156 7.11953 9.09156 7.12953 9.09156C7.15953 9.09156 7.15953 9.10156 7.15953 9.12156L7.17953 9.39156C7.18953 9.40156 7.16953 9.42156 7.15953 9.42156ZM9.23953 9.42156C9.21953 9.42156 9.20953 9.40156 9.20953 9.39156L9.22953 9.12156C9.22953 9.10156 9.25953 9.09156 9.25953 9.09156C9.26953 9.09156 9.27953 9.10156 9.27953 9.12156L9.26953 9.39156C9.26953 9.41156 9.25953 9.42156 9.23953 9.42156ZM9.04953 9.42156C9.02953 9.42156 9.01953 9.40156 9.01953 9.39156L9.02953 9.12156C9.02953 9.10156 9.03953 9.09156 9.06953 9.09156C9.08953 9.09156 9.08953 9.10156 9.08953 9.12156L9.07953 9.39156C9.07953 9.41156 9.06953 9.42156 9.04953 9.42156ZM6.98953 9.44156C6.97953 9.44156 6.95953 9.43156 6.95953 9.41156L6.92953 9.14156C6.92953 9.12156 6.93953 9.11156 6.95953 9.10156C6.97953 9.10156 6.98953 9.11156 6.98953 9.13156L7.01953 9.40156C7.01953 9.42156 7.00953 9.44156 6.98953 9.44156ZM9.40953 9.44156C9.38953 9.44156 9.37953 9.42156 9.37953 9.41156L9.40953 9.14156C9.40953 9.12156 9.41953 9.11156 9.43953 9.11156C9.45953 9.11156 9.46953 9.13156 9.46953 9.15156L9.43953 9.41156C9.43953 9.43156 9.42953 9.44156 9.40953 9.44156ZM6.61953 9.45156L6.58953 9.42156L6.56953 9.15156C6.56953 9.13156 6.57953 9.12156 6.58953 9.12156C6.61953 9.12156 6.61953 9.13156 6.61953 9.15156L6.64953 9.42156C6.64953 9.44156 6.63953 9.45156 6.61953 9.45156ZM9.77953 9.45156C9.75953 9.45156 9.74953 9.43156 9.74953 9.42156L9.77953 9.15156C9.77953 9.13156 9.77953 9.12156 9.80953 9.12156L9.82953 9.15156L9.80953 9.42156C9.80953 9.44156 9.78953 9.45156 9.77953 9.45156ZM6.80953 9.47156C6.79953 9.47156 6.77953 9.46156 6.77953 9.44156L6.74953 9.17156C6.74953 9.15156 6.75953 9.14156 6.76953 9.14156C6.79953 9.13156 6.79953 9.15156 6.80953 9.16156L6.83953 9.43156C6.83953 9.45156 6.82953 9.47156 6.80953 9.47156ZM9.58953 9.47156C9.56953 9.46156 9.55953 9.45156 9.55953 9.43156L9.58953 9.16156L9.61953 9.14156C9.63953 9.14156 9.63953 9.16156 9.63953 9.17156L9.60953 9.44156L9.58953 9.47156ZM6.22953 9.53156L6.19953 9.50156L6.15953 9.23156L6.17953 9.19156C6.19953 9.19156 6.20953 9.20156 6.20953 9.21156L6.24953 9.48156C6.25953 9.51156 6.24953 9.52156 6.22953 9.53156ZM10.1695 9.53156C10.1495 9.53156 10.1395 9.51156 10.1395 9.49156L10.1795 9.22156C10.1795 9.20156 10.1995 9.19156 10.2195 9.20156L10.2395 9.24156L10.1895 9.50156L10.1695 9.53156ZM6.43953 9.53156C6.41953 9.53156 6.40953 9.51156 6.40953 9.50156L6.36953 9.23156C6.36953 9.21156 6.36953 9.20156 6.38953 9.19156C6.40953 9.18156 6.41953 9.20156 6.41953 9.21156L6.45953 9.48156C6.46953 9.51156 6.44953 9.52156 6.43953 9.53156ZM9.95953 9.53156C9.93953 9.53156 9.92953 9.51156 9.92953 9.49156L9.96953 9.22156C9.96953 9.20156 9.97953 9.19156 9.99953 9.20156C10.0195 9.20156 10.0295 9.22156 10.0295 9.24156L9.98953 9.50156C9.98953 9.51156 9.97953 9.53156 9.95953 9.53156ZM6.04953 9.54156L6.01953 9.52156L5.96953 9.26156L5.98953 9.22156C6.00953 9.22156 6.01953 9.23156 6.01953 9.25156L6.06953 9.51156C6.07953 9.53156 6.06953 9.54156 6.04953 9.54156ZM10.3495 9.54156C10.3295 9.54156 10.3195 9.52156 10.3295 9.50156L10.3695 9.24156C10.3695 9.22156 10.3895 9.21156 10.3995 9.21156L10.4195 9.25156L10.3695 9.51156C10.3795 9.54156 10.3595 9.54156 10.3495 9.54156ZM10.4995 9.58156C10.4795 9.58156 10.4695 9.56156 10.4695 9.54156L10.5195 9.28156C10.5195 9.26156 10.5395 9.25156 10.5495 9.25156C10.5695 9.25156 10.5695 9.27156 10.5695 9.29156L10.5295 9.55156C10.5295 9.57156 10.5095 9.58156 10.4995 9.58156ZM5.89953 9.58156L5.86953 9.55156L5.82953 9.29156L5.84953 9.25156C5.85953 9.24156 5.87953 9.26156 5.87953 9.28156L5.92953 9.54156C5.92953 9.56156 5.91953 9.58156 5.89953 9.58156ZM5.75953 9.61156L5.72953 9.59156L5.66953 9.32156C5.66953 9.30156 5.66953 9.28156 5.68953 9.28156C5.70953 9.28156 5.71953 9.29156 5.71953 9.30156L5.77953 9.56156C5.78953 9.58156 5.77953 9.60156 5.75953 9.61156ZM10.6395 9.61156C10.6195 9.60156 10.6095 9.59156 10.6195 9.57156L10.6795 9.31156C10.6895 9.30156 10.6895 9.29156 10.7095 9.29156C10.7295 9.29156 10.7295 9.31156 10.7295 9.33156L10.6695 9.59156L10.6395 9.61156ZM5.61953 9.65156C5.61423 9.65156 5.60914 9.64945 5.60539 9.6457C5.60164 9.64195 5.59953 9.63687 5.59953 9.63156L5.51953 9.37156C5.51953 9.35156 5.51953 9.34156 5.53953 9.33156C5.55953 9.32156 5.56953 9.33156 5.57953 9.35156L5.64953 9.61156C5.64953 9.63156 5.63953 9.64156 5.61953 9.65156ZM10.7795 9.65156C10.7495 9.64156 10.7495 9.63156 10.7495 9.61156L10.8195 9.35156C10.8195 9.33156 10.8295 9.32156 10.8495 9.33156C10.8695 9.34156 10.8695 9.36156 10.8695 9.37156L10.7995 9.63156L10.7795 9.65156Z" fill="#242222"/>
</g>
</g>
<defs>
<clipPath id="clip0_26003_70226">
<rect width="38" height="25" fill="white" transform="translate(0 0.5)"/>
</clipPath>
<clipPath id="clip1_26003_70226">
<rect width="38" height="25" fill="white" transform="translate(0 0.5)"/>
</clipPath>
</defs>
</svg>
