<svg width="38" height="26" viewBox="0 0 38 26" fill="none" xmlns="http://www.w3.org/2000/svg">
<g clip-path="url(#clip0_26003_93863)">
<g clip-path="url(#clip1_26003_93863)">
<path d="M0 17.0996V21.7996C0 23.7996 1.7 25.3996 3.7 25.3996H34.3C36.3 25.3996 38 23.7996 38 21.7996V17.0996H0Z" fill="#008000"/>
<path d="M34.3 0.5H3.7C1.7 0.5 0 2.1 0 4.1V8.8H38V4.1C38 2.1 36.3 0.5 34.3 0.5Z" fill="#ECFFEB"/>
<path d="M0 8.69922H38V17.1992H0V8.69922Z" fill="#DB161B"/>
<path d="M34.2996 25.3996C36.2996 25.3996 37.9996 23.7996 37.9996 21.7996V17.0996H24.0996L34.2996 25.3996Z" fill="#008000"/>
<path d="M34.3002 0.5H3.7002L13.9002 8.8H38.0002V4.1C38.0002 2.1 36.3002 0.5 34.3002 0.5Z" fill="#ECFFEB"/>
<path d="M24.1998 17.1992H37.9998V8.69922H13.7998L24.1998 17.1992Z" fill="#DB161B"/>
<path d="M34.3002 0.5H3.7002L32.1002 8.8H38.0002V4.1C38.0002 2.1 36.3002 0.5 34.3002 0.5Z" fill="#ECFFEB"/>
<path d="M38.0002 10.4992V8.69922H31.7002L38.0002 10.4992Z" fill="#DB161B"/>
<path d="M38 21.9004C38 23.9004 36.3 25.5004 34.3 25.5004H3.7C1.7 25.5004 0 23.9004 0 21.9004" fill="#008000"/>
<path d="M9.4 0.5H3.7C1.7 0.5 0 2.1 0 4.1V22.1C0 24.1 1.7 25.7 3.7 25.7H9.4V0.5Z" fill="#DB161B"/>
<path d="M9.4 8.69922H0V17.1992H9.4V8.69922Z" fill="#DB161B"/>
<path d="M0 17.0996V21.7996C0 23.7996 1.7 25.3996 3.7 25.3996H9.4V17.0996H0Z" fill="#DB161B"/>
<path d="M0 21.9C0 23.9 1.7 25.5 3.7 25.5H9.4V21.9H0ZM9.4 0.5H3.7L9.4 5.1V0.5Z" fill="#DB161B"/>
<path d="M9.4002 0.5H3.7002L9.4002 2.1V0.5Z" fill="#DB161B"/>
<path d="M7.4002 9.00039C7.2002 8.90039 7.0002 8.80039 6.8002 8.50039H6.7002C6.4002 8.30039 6.0002 7.90039 5.5002 7.40039C5.3002 7.30039 5.2002 7.20039 5.1002 7.10039V6.80039C5.2002 6.60039 5.3002 6.60039 5.4002 6.50039C5.4002 6.60039 5.5002 6.70039 5.7002 6.70039C5.8002 6.60039 5.9002 6.60039 6.0002 6.50039H6.10019V6.60039C6.10019 6.70039 6.2002 6.70039 6.2002 6.70039H7.3002C7.4002 6.70039 7.4002 6.60039 7.4002 6.60039V6.20039C7.4002 6.10039 7.3002 6.10039 7.3002 6.10039H6.3002C6.2002 6.10039 6.2002 6.20039 6.2002 6.20039V6.30039H6.0002C6.0002 6.20039 5.9002 6.20039 5.7002 6.20039C6.4002 5.10039 6.8002 4.20039 6.7002 4.00039V3.90039C6.5002 3.90039 5.9002 4.80039 5.2002 5.90039H5.3002C5.3002 5.90039 5.30019 6.00039 5.2002 6.00039H5.1002V5.90039C5.2002 5.90039 5.2002 5.80039 5.2002 5.70039C5.2002 5.60039 5.1002 5.60039 5.1002 5.50039V5.40039H5.0002C5.0002 5.30039 4.9002 5.20039 4.9002 5.20039V5.10039H4.4002V5.30039C4.4002 5.40039 4.3002 5.40039 4.3002 5.40039H4.2002V5.50039C4.2002 5.50039 4.1002 5.60039 4.1002 5.70039C4.1002 5.80039 4.2002 5.80039 4.2002 5.90039V6.00039C4.2002 6.00039 4.2002 5.90039 4.1002 5.90039H4.2002C3.5002 4.70039 2.9002 3.90039 2.7002 3.90039V4.00039C2.6002 4.10039 3.0002 5.10039 3.7002 6.10039C3.6002 6.10039 3.5002 6.20039 3.4002 6.20039H3.1002C3.1002 6.10039 3.0002 6.10039 3.0002 6.10039H2.0002C1.9002 6.10039 1.9002 6.20039 1.9002 6.20039V6.70039C1.9002 6.80039 2.0002 6.80039 2.0002 6.80039H3.1002C3.2002 6.80039 3.2002 6.70039 3.2002 6.70039V6.50039H3.3002C3.4002 6.60039 3.5002 6.60039 3.6002 6.60039C3.7002 6.60039 3.9002 6.60039 3.9002 6.50039L4.0002 6.60039L4.2002 6.80039C4.2002 6.90039 4.2002 6.90039 4.1002 6.90039H2.6002C2.3002 6.90039 2.1002 7.00039 2.1002 7.10039C2.1002 7.20039 2.3002 7.30039 2.7002 7.40039L2.9002 7.50039C2.9002 7.40039 3.0002 7.50039 3.1002 7.50039H3.6002C3.2002 7.90039 2.9002 8.10039 2.6002 8.40039H2.5002L2.0002 8.90039C1.9002 9.00039 1.7002 9.00039 1.7002 9.10039C1.7002 9.10039 1.7002 9.20039 1.8002 9.20039H1.9002C2.1002 9.20039 2.6002 9.00039 3.1002 8.60039C3.5002 8.30039 3.80019 8.00039 4.2002 7.70039H4.5002C4.7002 7.60039 4.7002 7.50039 4.8002 7.50039L4.9002 7.40039L5.0002 7.50039C5.4002 7.90039 5.9002 8.30039 6.2002 8.60039C6.6002 9.00039 7.10019 9.20039 7.4002 9.20039H7.5002C7.5002 9.20039 7.60019 9.20039 7.60019 9.10039C7.60019 9.20039 7.5002 9.10039 7.4002 9.00039ZM5.2002 6.00039C5.1002 6.10039 5.2002 6.10039 5.2002 6.00039V6.00039ZM5.2002 5.70039C5.2002 5.80039 5.2002 5.80039 5.1002 5.80039L5.2002 5.70039ZM4.1002 5.70039C4.1002 5.60039 4.1002 5.60039 4.2002 5.60039L4.1002 5.70039C4.2002 5.70039 4.2002 5.80039 4.2002 5.80039C4.1002 5.80039 4.1002 5.70039 4.1002 5.70039ZM4.2002 6.00039C4.2002 6.10039 4.2002 6.10039 4.2002 6.00039V6.00039Z" fill="#ECFFEB"/>
<path d="M4.5 4.69922H4.9V4.89922H4.5V4.69922Z" fill="#DEF7DC"/>
<path d="M4.29962 4.19922C4.39962 4.29922 4.39962 4.29922 4.49962 4.29922V4.49922H4.79962V4.39922C4.99962 4.39922 4.99962 4.29922 5.09962 4.19922C5.19962 4.19922 5.19962 4.09922 5.19962 4.09922C5.19962 3.99922 5.09962 3.99922 5.09962 3.99922C4.99962 3.89922 4.99962 3.79922 4.79962 3.79922C4.79962 3.69922 4.69962 3.69922 4.69962 3.69922C4.69962 3.69922 4.49962 3.69922 4.49962 3.79922C4.39962 3.79922 4.29962 3.89922 4.29962 3.99922C4.19962 3.99922 4.19962 4.09922 4.19962 4.09922C4.09962 4.19922 4.19962 4.19922 4.29962 4.19922ZM7.39962 8.99922C7.19962 8.89922 6.99962 8.79922 6.79962 8.49922H6.69962C6.39962 8.29922 5.99962 7.89922 5.49962 7.39922C5.29962 7.29922 5.19962 7.19922 5.09962 7.09922V6.79922C5.19962 6.59922 5.29962 6.59922 5.39962 6.49922C5.39962 6.59922 5.49962 6.69922 5.69962 6.69922C5.79962 6.59922 5.89962 6.59922 5.99962 6.49922H6.09962V6.59922C6.09962 6.69922 6.19962 6.69922 6.19962 6.69922H7.29962C7.39962 6.69922 7.39962 6.59922 7.39962 6.59922V6.19922C7.39962 6.09922 7.29962 6.09922 7.29962 6.09922H6.29962C6.19962 6.09922 6.19962 6.19922 6.19962 6.19922V6.29922H5.99962C5.99962 6.19922 5.89962 6.19922 5.69962 6.19922C6.39962 5.09922 6.79962 4.19922 6.69962 3.99922V3.89922C6.49962 3.89922 5.89962 4.79922 5.19962 5.89922H5.29962C5.29962 5.89922 5.29962 5.99922 5.19962 5.99922H5.09962V5.89922C5.19962 5.89922 5.19962 5.79922 5.19962 5.69922C5.19962 5.59922 5.09962 5.59922 5.09962 5.49922V5.39922H4.99962C4.99962 5.29922 4.89962 5.19922 4.89962 5.19922V5.09922H4.59962V7.69922C4.69962 7.69922 4.79962 7.59922 4.79962 7.59922L4.89962 7.49922L4.99962 7.59922C5.39962 7.99922 5.89962 8.39922 6.19962 8.69922C6.59962 9.09922 7.09962 9.29922 7.39962 9.29922H7.49962C7.49962 9.29922 7.59962 9.29922 7.59962 9.19922L7.39962 8.99922ZM5.09962 5.59922L5.19962 5.69922C5.19962 5.79922 5.19962 5.79922 5.09962 5.79922V5.59922ZM5.09962 5.99922C5.09962 6.09922 5.19962 6.09922 5.09962 5.99922V5.99922Z" fill="#C9EAC5"/>
</g>
</g>
<defs>
<clipPath id="clip0_26003_93863">
<rect width="38" height="25" fill="white" transform="translate(0 0.5)"/>
</clipPath>
<clipPath id="clip1_26003_93863">
<rect width="38" height="25" fill="white" transform="translate(0 0.5)"/>
</clipPath>
</defs>
</svg>
