<svg width="39" height="26" viewBox="0 0 39 26" fill="none" xmlns="http://www.w3.org/2000/svg">
<g clip-path="url(#clip0_26003_54180)">
<g clip-path="url(#clip1_26003_54180)">
<path d="M35.8951 25.2109H3.59513C3.22002 25.2109 2.8486 25.1369 2.50217 24.993C2.15574 24.8492 1.84111 24.6384 1.57634 24.3727C1.31156 24.107 1.10184 23.7916 0.959201 23.4447C0.816565 23.0977 0.743819 22.726 0.745135 22.3509V3.07094C0.743819 2.69583 0.816565 2.32415 0.959201 1.97722C1.10184 1.63029 1.31156 1.31492 1.57634 1.04922C1.84111 0.783509 2.15574 0.572684 2.50217 0.428834C2.8486 0.284983 3.22002 0.210935 3.59513 0.210938L35.9051 0.210938C36.2794 0.212248 36.6497 0.287265 36.995 0.431703C37.3403 0.576141 37.6537 0.787173 37.9175 1.05275C38.1812 1.31833 38.39 1.63324 38.532 1.97953C38.674 2.32581 38.7465 2.69667 38.7451 3.07094V22.3509C38.7465 22.726 38.6737 23.0977 38.5311 23.4447C38.3884 23.7916 38.1787 24.107 37.9139 24.3727C37.6492 24.6384 37.3345 24.8492 36.9881 24.993C36.6417 25.1369 36.2702 25.2109 35.8951 25.2109Z" fill="#F42539"/>
<path d="M0.745135 3.07094V12.0609C0.745135 12.4209 1.03513 12.7209 1.40513 12.7209H19.0951C19.4551 12.7209 19.7551 12.4309 19.7551 12.0609V0.870938C19.7526 0.696699 19.6822 0.530321 19.559 0.407102C19.4358 0.283884 19.2694 0.213519 19.0951 0.210938L3.59513 0.210938C3.22002 0.210935 2.8486 0.284983 2.50217 0.428834C2.15574 0.572684 1.84111 0.783509 1.57634 1.04922C1.31156 1.31492 1.10184 1.63029 0.959201 1.97722C0.816565 2.32415 0.743819 2.69583 0.745135 3.07094Z" fill="#293499"/>
<path d="M11.8851 4.20094V0.210938H8.60512V4.20094L2.73512 0.340937C2.04512 0.560937 1.47512 1.03094 1.12512 1.64094L5.95512 4.81094H0.745117V8.10094H5.95512L0.745117 11.5309V12.0509C0.745117 12.4109 1.03512 12.7109 1.40512 12.7109H2.54512L8.61512 8.72094V12.7109H11.8951V8.72094L17.9651 12.7109H19.1051C19.4651 12.7109 19.7651 12.4209 19.7651 12.0509V11.5309L14.5551 8.10094H19.7451V4.82094H14.5351L19.7451 1.39094V0.870938C19.7464 0.784741 19.7306 0.699141 19.6985 0.619121C19.6665 0.539102 19.6188 0.466261 19.5583 0.40484C19.4978 0.343419 19.4257 0.294644 19.3462 0.261355C19.2667 0.228066 19.1813 0.210927 19.0951 0.210938H17.9551L11.8851 4.20094Z" fill="#F5F5F5"/>
<path d="M19.7451 5.47094H11.2251V0.210938H9.26512V5.47094H0.745117V7.45094H9.26512V12.7109H11.2251V7.45094H19.7451V5.47094Z" fill="#F22539"/>
<path d="M1.35496 1.30094L6.74496 4.82094H7.94496L1.82496 0.820938C1.65496 0.960938 1.49496 1.12094 1.35496 1.30094ZM13.085 4.82094L19.645 0.540938C19.5896 0.440935 19.5085 0.357586 19.41 0.299553C19.3115 0.24152 19.1993 0.210922 19.085 0.210938H18.945L11.875 4.82094H13.085ZM7.38496 8.10094L0.834961 12.3709C0.944961 12.5709 1.15496 12.7109 1.39496 12.7109H1.51496L8.58496 8.10094H7.38496ZM19.735 12.1009L13.595 8.10094H12.395L19.365 12.6409C19.575 12.5509 19.715 12.3409 19.735 12.1009Z" fill="#F22539"/>
<path d="M24.565 6.60156C24.504 6.60156 24.4455 6.62579 24.4023 6.66893C24.3592 6.71206 24.335 6.77056 24.335 6.83156V15.5216C24.335 16.2216 24.805 18.5716 29.245 19.2816C33.695 18.5816 34.155 16.2316 34.155 15.5216V6.84156C34.155 6.71156 34.055 6.61156 33.925 6.61156L24.565 6.60156Z" fill="#F5F5F5"/>
<path d="M29.2448 19.29C32.9548 18.7 33.8948 16.97 34.1048 16H24.3848C24.5948 16.97 25.5348 18.7 29.2448 19.29Z" fill="#73AF00"/>
<path d="M32.2856 11.5412C32.2856 11.5412 32.5156 11.3112 32.2856 10.8412L29.2456 10.7012L26.2056 10.8412C25.9756 11.3112 26.2056 11.5412 26.2056 11.5412C25.9756 11.7712 25.9756 12.0112 25.9756 12.0112H26.4456L26.9556 12.8512L29.2556 14.1212L31.5556 12.8512L32.0656 12.0112H32.5356C32.5256 12.0112 32.5256 11.7712 32.2856 11.5412Z" fill="#82AFFF"/>
<path d="M31.5453 12.8508C31.5453 12.8508 31.3953 12.5308 31.0053 12.5708C31.0053 12.5708 30.7953 12.2908 30.4253 12.3608C30.4253 12.3608 30.0053 12.1208 29.7653 12.5708C29.7653 12.5708 28.9853 12.4908 28.9453 13.0808C28.9453 13.0808 30.1553 14.9108 30.1853 14.9308C30.2153 14.9508 31.6253 14.9408 31.6253 14.9408L32.2853 14.2108L31.6453 13.2808L31.5453 12.8508Z" fill="#F5F5F5"/>
<path d="M29.2755 13.4206C29.2755 13.4206 28.2555 11.7406 28.1055 11.6006C27.9655 11.4606 27.6855 11.3406 27.4055 11.5706C27.4055 11.5706 26.5555 11.5006 26.6755 12.1506L26.9155 13.1306C26.9155 13.1306 26.7055 13.8106 26.6055 13.8706C26.5055 13.9406 26.1455 14.1206 26.1455 14.1206L26.3455 14.9306L29.0755 14.7906L29.2755 13.4206Z" fill="#F0C850"/>
<path d="M30.455 12.6914L30.375 12.5114L30.345 12.4814H30.295L29.785 12.7014L29.185 11.7114C29.215 11.6914 29.225 11.6514 29.215 11.6114C29.195 11.5614 29.145 11.5414 29.105 11.5614L28.975 11.6114L28.885 11.3414C28.875 11.3114 28.845 11.2914 28.815 11.3014C28.785 11.3114 28.765 11.3414 28.775 11.3714L28.865 11.6414L28.725 11.6914C28.675 11.7114 28.655 11.7614 28.675 11.8014C28.685 11.8414 28.725 11.8614 28.755 11.8614H28.775L28.975 13.0614L28.845 13.1214C28.815 13.1314 28.805 13.1614 28.815 13.1914L28.885 13.3914L28.875 13.5614L28.055 12.1514C28.0705 12.1403 28.0825 12.125 28.0896 12.1073C28.0967 12.0896 28.0986 12.0702 28.095 12.0514C28.075 12.0014 28.025 11.9814 27.985 12.0014L27.855 12.0514L27.745 11.7914C27.735 11.7614 27.705 11.7414 27.675 11.7514C27.645 11.7614 27.625 11.7914 27.635 11.8214L27.725 12.0914L27.585 12.1414C27.535 12.1614 27.515 12.2114 27.535 12.2514C27.545 12.2814 27.575 12.3014 27.605 12.3114L27.955 14.5314L27.815 14.5914C27.815 14.5914 27.645 15.3814 27.775 15.4214L29.205 15.8614L31.045 14.9814C31.085 14.9614 31.165 14.3914 31.165 14.3914L30.455 12.6914ZM30.345 12.7414L30.195 12.8114L30.145 12.6914L30.295 12.6214L30.345 12.7414ZM29.435 12.9914L29.555 12.9414L29.605 13.0614L29.475 13.1214L29.435 12.9914ZM29.365 13.1614L29.215 13.2214L29.165 13.1114L29.315 13.0414L29.365 13.1614ZM29.705 13.0114L29.655 12.8914L29.785 12.8314L29.835 12.9514L29.705 13.0114ZM29.905 12.7914L30.035 12.7314L30.085 12.8514L29.955 12.9114L29.905 12.7914ZM29.075 11.7614L29.685 12.7514L29.395 12.8814L29.025 11.7814L29.075 11.7614ZM28.865 11.8414L28.905 11.8214L29.275 12.9314L29.055 13.0314L28.865 11.8414ZM29.065 13.1614L29.115 13.2714L28.975 13.3314L28.935 13.2214L29.065 13.1614ZM27.935 12.2114L28.825 13.7414C28.785 13.8714 28.695 14.0214 28.545 14.1714L27.895 12.2314L27.935 12.2114ZM27.715 12.2914L27.785 12.2714L28.455 14.2514C28.355 14.3314 28.225 14.4214 28.075 14.4914L27.715 12.2914Z" fill="#965032"/>
<path d="M32.495 10.4705C32.435 10.3705 32.235 10.4105 32.235 10.4105C32.235 10.4105 32.175 10.3005 32.025 10.2805C31.875 10.2705 31.845 10.4005 31.845 10.4005C31.845 10.4005 31.815 10.3805 31.655 10.3805C31.485 10.3805 31.525 10.6605 31.525 10.6605C31.525 10.6605 31.465 10.6605 31.245 10.5905C31.035 10.5205 30.885 10.5705 30.885 10.5705C30.875 10.4605 30.815 10.3705 30.815 10.3705C30.635 10.4405 30.495 10.3605 30.455 10.3005C30.425 10.2405 30.505 10.1405 30.505 10.0605C30.505 9.98055 30.395 9.98055 30.355 9.91055C30.315 9.84055 30.355 9.80055 30.465 9.75055C30.5292 9.71635 30.5789 9.65996 30.6046 9.59189C30.6304 9.52382 30.6305 9.44871 30.605 9.38055C30.535 9.24055 30.345 9.26055 30.345 9.26055C30.415 9.27055 30.465 9.40055 30.355 9.42055C30.245 9.45055 30.155 9.06055 30.155 9.06055C30.395 9.23055 30.575 9.13055 30.635 8.98055C30.685 8.84055 30.555 8.74055 30.555 8.74055C30.445 8.91055 30.265 8.76055 30.365 8.65055C30.465 8.54055 30.475 8.36055 30.475 8.36055C30.255 8.47055 30.115 8.33055 30.115 8.33055C30.405 8.13055 30.315 7.85055 30.315 7.85055C30.205 7.80055 29.975 7.84055 29.975 7.84055C30.025 7.74055 30.015 7.57055 30.015 7.57055C29.895 7.55055 29.755 7.63055 29.755 7.63055C29.795 7.49055 29.745 7.25055 29.745 7.25055C29.655 7.26055 29.495 7.31055 29.495 7.31055C29.425 7.15055 29.235 7.06055 29.235 7.06055C29.235 7.06055 29.045 7.15055 28.975 7.31055L28.725 7.25055C28.725 7.25055 28.675 7.49055 28.715 7.63055C28.715 7.63055 28.575 7.55055 28.455 7.57055C28.455 7.57055 28.445 7.75055 28.495 7.84055C28.495 7.84055 28.265 7.80055 28.155 7.85055C28.155 7.85055 28.075 8.13055 28.355 8.33055C28.355 8.33055 28.215 8.47055 27.995 8.36055C27.995 8.36055 28.005 8.54055 28.105 8.65055C28.205 8.76055 28.025 8.91055 27.915 8.74055C27.915 8.74055 27.775 8.84055 27.835 8.98055C27.885 9.12055 28.065 9.22055 28.315 9.06055C28.315 9.06055 28.215 9.45055 28.115 9.42055C28.005 9.39055 28.065 9.27055 28.125 9.26055C28.125 9.26055 27.935 9.23055 27.865 9.38055C27.795 9.52055 27.895 9.70055 28.005 9.75055C28.115 9.80055 28.155 9.84055 28.115 9.91055C28.075 9.98055 27.965 9.98055 27.965 10.0605C27.965 10.1405 28.055 10.2405 28.015 10.3005C27.985 10.3605 27.835 10.4505 27.655 10.3705C27.655 10.3705 27.595 10.4505 27.585 10.5705C27.585 10.5705 27.445 10.5205 27.225 10.5905C27.015 10.6605 26.945 10.6605 26.945 10.6605C26.945 10.6605 26.975 10.3905 26.815 10.3805C26.645 10.3805 26.625 10.4005 26.625 10.4005C26.625 10.4005 26.595 10.2705 26.445 10.2805C26.295 10.2905 26.235 10.4105 26.235 10.4105C26.235 10.4105 26.035 10.3705 25.975 10.4705C25.915 10.5705 25.905 10.7205 26.025 10.7805C26.145 10.8405 26.455 11.1005 26.455 11.1005L26.895 11.2905L28.435 10.6105L29.235 10.8205L30.035 10.6105L31.575 11.2905L32.015 11.1005C32.015 11.1005 32.325 10.8405 32.445 10.7805C32.565 10.7205 32.565 10.5705 32.495 10.4705Z" fill="#FF4B55"/>
<path d="M28.7646 7.99031C28.7646 7.99031 28.7846 8.20031 29.0846 8.14031C29.0846 8.14031 29.0746 7.92031 28.7646 7.99031Z" fill="#F5F5F5"/>
<path d="M27.635 16.1818C27.635 16.1818 27.415 16.1718 27.185 16.3418C26.955 16.5118 26.855 16.3918 26.635 16.3918C26.405 16.3918 26.355 16.6318 26.355 16.6318C26.355 16.6318 25.915 16.7418 26.095 17.0618C26.205 17.2618 26.365 17.2618 26.455 17.2318C26.455 17.3718 26.485 17.5218 26.635 17.5518C26.935 17.6018 27.065 17.4418 27.005 17.1918C27.005 17.1918 27.045 17.4518 27.235 17.4418C27.435 17.4318 27.565 17.3218 27.545 17.0618C27.525 16.8018 27.875 16.9618 28.145 16.5718L27.635 16.1818Z" fill="#FF4B55"/>
<path d="M26.3553 17.1202C26.3553 17.1202 26.2153 17.3002 26.2553 17.4802C26.2553 17.4802 25.9653 17.3902 26.1153 16.9502C26.1153 16.9502 26.3153 16.9002 26.3553 17.1202ZM26.8153 17.3602C26.8153 17.3602 26.7353 17.5902 26.8453 17.7902C26.8453 17.7902 26.4753 17.7802 26.5553 17.3302C26.5453 17.3202 26.6653 17.2002 26.8153 17.3602ZM27.1753 17.3402C27.1753 17.3402 27.2453 17.5302 27.1753 17.7102C27.1753 17.7102 27.4753 17.6902 27.4253 17.2602C27.4253 17.2602 27.2653 17.2002 27.1753 17.3402Z" fill="#82AFFF"/>
<path d="M26.9149 12.9417C26.8849 12.7117 25.4749 12.5817 25.5649 13.7717C25.5649 13.7717 25.4049 13.7717 25.3349 13.9117C25.322 13.937 25.3035 13.959 25.2809 13.9762C25.2583 13.9935 25.2321 14.0054 25.2043 14.0111C25.1765 14.0169 25.1477 14.0163 25.1201 14.0095C25.0925 14.0027 25.0668 13.9897 25.0449 13.9717C25.0449 13.9717 25.0549 14.2417 25.3849 14.2217C25.3849 14.2217 25.2849 14.3017 25.2949 14.4217C25.3049 14.5417 25.3949 14.6917 25.3949 14.7917C25.3849 14.8917 25.2949 15.0417 25.2949 15.0417C25.2949 15.0417 25.5449 14.9517 25.5649 14.7717C25.5849 14.5917 25.5449 14.4417 25.5949 14.3517C25.5949 14.3517 25.5749 14.4817 25.6849 14.6417C25.7949 14.8017 25.8049 15.0017 25.7549 15.1217C25.7549 15.1217 26.0349 14.9817 25.9849 14.7117C25.9349 14.4417 25.8749 14.4717 25.9049 14.3217C25.9049 14.3217 26.1949 14.6217 26.1449 14.8717C26.1449 14.8717 26.2349 14.7617 26.2249 14.5517C26.2149 14.3417 26.0449 14.2117 26.0449 14.2117C26.0449 14.2117 27.0049 13.7217 26.9149 12.9417ZM30.8549 16.1817C30.8549 16.1817 31.0749 16.1717 31.3049 16.3417C31.5349 16.5117 31.6349 16.3917 31.8549 16.3917C32.0849 16.3917 32.1349 16.6317 32.1349 16.6317C32.1349 16.6317 32.5749 16.7417 32.3949 17.0617C32.2849 17.2617 32.1249 17.2617 32.0349 17.2317C32.0349 17.3717 32.0049 17.5217 31.8549 17.5517C31.5549 17.6017 31.4249 17.4417 31.4849 17.1917C31.4849 17.1917 31.4449 17.4517 31.2549 17.4417C31.0549 17.4317 30.9249 17.3217 30.9449 17.0617C30.9649 16.8017 30.6149 16.9617 30.3449 16.5717L30.8549 16.1817Z" fill="#FF4B55"/>
<path d="M32.1352 17.1202C32.1352 17.1202 32.2752 17.3002 32.2352 17.4802C32.2352 17.4802 32.5252 17.3902 32.3752 16.9502C32.3752 16.9502 32.1752 16.9002 32.1352 17.1202ZM31.6752 17.3602C31.6752 17.3602 31.7552 17.5902 31.6452 17.7902C31.6452 17.7902 32.0152 17.7802 31.9352 17.3302C31.9452 17.3202 31.8252 17.2002 31.6752 17.3602ZM31.3152 17.3402C31.3152 17.3402 31.2452 17.5302 31.3152 17.7102C31.3152 17.7102 31.0152 17.6902 31.0652 17.2602C31.0652 17.2602 31.2252 17.2002 31.3152 17.3402Z" fill="#82AFFF"/>
<path d="M31.5753 12.9417C31.6053 12.7117 33.0153 12.5817 32.9253 13.7717C32.9253 13.7717 33.0853 13.7717 33.1553 13.9117C33.2253 14.0517 33.3953 14.0217 33.4453 13.9717C33.4453 13.9717 33.4353 14.2417 33.1053 14.2217C33.1053 14.2217 33.2053 14.3017 33.1953 14.4217C33.1853 14.5417 33.0953 14.6917 33.0953 14.7917C33.1053 14.8917 33.1953 15.0417 33.1953 15.0417C33.1953 15.0417 32.9453 14.9517 32.9253 14.7717C32.9053 14.5917 32.9453 14.4417 32.8953 14.3517C32.8953 14.3517 32.9153 14.4817 32.8053 14.6417C32.6953 14.8017 32.6853 15.0017 32.7353 15.1217C32.7353 15.1217 32.4553 14.9817 32.5053 14.7117C32.5553 14.4417 32.6153 14.4717 32.5853 14.3217C32.5853 14.3217 32.2953 14.6217 32.3453 14.8717C32.3453 14.8717 32.2553 14.7617 32.2653 14.5517C32.3053 14.3517 32.4453 14.2117 32.4453 14.2117C32.4453 14.2117 31.4853 13.7217 31.5753 12.9417Z" fill="#FF4B55"/>
<path d="M32.155 10.9112C32.1049 10.8712 32.025 10.8912 31.995 10.9412C31.9629 10.9947 31.9194 11.0404 31.8675 11.075C31.8156 11.1096 31.7567 11.1322 31.695 11.1412C31.275 11.2112 30.675 10.8012 30.495 10.6712C30.245 10.4812 29.9249 10.4512 29.7149 10.5812C29.5604 10.6385 29.399 10.6755 29.235 10.6912C29.071 10.6744 28.9098 10.6375 28.755 10.5812C28.545 10.4512 28.2349 10.4812 27.9749 10.6712C27.7949 10.8012 27.195 11.2112 26.775 11.1412C26.7137 11.1309 26.6552 11.1078 26.6035 11.0733C26.5518 11.0388 26.508 10.9938 26.4749 10.9412C26.4349 10.8912 26.3649 10.8712 26.3149 10.9112C26.2649 10.9512 26.245 11.0212 26.285 11.0712C26.395 11.2412 26.545 11.3412 26.735 11.3712L26.8849 11.3812C27.3349 11.3812 27.835 11.0612 28.115 10.8612C28.325 10.7112 28.555 10.7112 28.655 10.8012C28.685 10.8212 28.7149 10.8612 28.7049 10.9012C28.7049 10.9212 28.685 10.9412 28.665 10.9612C28.675 10.9212 28.6649 10.8912 28.6349 10.8612C28.6238 10.85 28.6106 10.8411 28.596 10.8351C28.5814 10.829 28.5657 10.8259 28.55 10.8259C28.5342 10.8259 28.5185 10.829 28.5039 10.8351C28.4893 10.8411 28.4761 10.85 28.4649 10.8612C28.4352 10.8911 28.4169 10.9305 28.4132 10.9725C28.4096 11.0146 28.4208 11.0566 28.445 11.0912C28.495 11.1712 28.6049 11.2312 28.735 11.1812C28.7678 11.1715 28.7981 11.1548 28.824 11.1324C28.8499 11.11 28.8707 11.0823 28.8849 11.0512C29.0649 11.0012 29.2249 11.0012 29.2249 11.0012C29.2249 11.0012 29.3849 11.0012 29.5649 11.0512C29.6049 11.1112 29.6549 11.1512 29.7149 11.1812C29.8449 11.2312 29.955 11.1712 30.005 11.0912C30.055 11.0112 30.045 10.9112 29.985 10.8612C29.9738 10.85 29.9606 10.8411 29.946 10.8351C29.9314 10.829 29.9157 10.8259 29.9 10.8259C29.8842 10.8259 29.8685 10.829 29.8539 10.8351C29.8393 10.8411 29.8261 10.85 29.8149 10.8612C29.785 10.8912 29.775 10.9312 29.785 10.9612C29.765 10.9412 29.745 10.9212 29.745 10.9012C29.735 10.8612 29.7649 10.8212 29.7949 10.8012C29.8949 10.7112 30.135 10.7112 30.335 10.8612C30.615 11.0612 31.115 11.3812 31.5649 11.3812L31.7149 11.3712C31.8067 11.3552 31.8941 11.3202 31.9716 11.2686C32.049 11.2169 32.1149 11.1497 32.165 11.0712C32.225 11.0212 32.215 10.9512 32.155 10.9112Z" fill="#FFE15A"/>
<path d="M26.2654 11.0416L26.2354 10.6916C26.2254 10.6016 26.0654 10.5416 26.0054 10.6316C25.9454 10.7216 25.9354 10.8716 26.2654 11.0416ZM26.3254 10.9616C26.3254 10.9616 26.5554 10.7716 26.5254 10.6716C26.4954 10.5716 26.4354 10.5216 26.3554 10.5516C26.2754 10.5816 26.2354 10.7616 26.3254 10.9616ZM26.7654 10.8116C26.7954 10.7816 26.8054 10.6216 26.7154 10.6016C26.6254 10.5816 26.5054 10.7216 26.5154 10.9016C26.5154 10.9016 26.7054 10.8716 26.7654 10.8116ZM26.6754 10.9016C26.5654 10.9316 26.4654 11.0216 26.4654 11.0216C26.4654 11.0216 26.6554 11.1616 26.7854 11.1216C26.9154 11.0816 26.8554 10.8516 26.6754 10.9016Z" fill="#82AFFF"/>
<path d="M29.7253 7.99031C29.7253 7.99031 29.7053 8.20031 29.4053 8.14031C29.4053 8.14031 29.4153 7.92031 29.7253 7.99031Z" fill="#F5F5F5"/>
<path d="M32.2256 11.0416L32.2556 10.6916C32.2656 10.6016 32.4256 10.5416 32.4856 10.6316C32.5456 10.7216 32.5556 10.8716 32.2256 11.0416ZM32.1656 10.9616C32.1656 10.9616 31.9356 10.7716 31.9656 10.6716C31.9956 10.5716 32.0556 10.5216 32.1356 10.5516C32.2156 10.5816 32.2556 10.7616 32.1656 10.9616ZM31.7256 10.8116C31.6956 10.7816 31.6856 10.6216 31.7756 10.6016C31.8656 10.5816 31.9856 10.7216 31.9756 10.9016C31.9756 10.9016 31.7856 10.8716 31.7256 10.8116ZM31.8156 10.9016C31.9256 10.9316 32.0256 11.0216 32.0256 11.0216C32.0256 11.0216 31.8356 11.1616 31.7056 11.1216C31.5756 11.0816 31.6356 10.8516 31.8156 10.9016Z" fill="#82AFFF"/>
<path d="M29.1252 8.47039L29.2152 8.56039C29.2352 8.58039 29.2552 8.58039 29.2752 8.56039L29.3652 8.47039C29.3952 8.44039 29.3752 8.40039 29.3352 8.40039H29.1452C29.1152 8.41039 29.0952 8.45039 29.1252 8.47039Z" fill="#464655"/>
<path d="M29.075 8.86117C29.005 8.86117 28.945 8.84117 28.905 8.79117C28.8846 8.76634 28.8695 8.73748 28.8609 8.70648C28.8523 8.67547 28.8503 8.643 28.855 8.61117C28.855 8.59117 28.885 8.57117 28.905 8.58117C28.925 8.58117 28.945 8.60117 28.935 8.63117C28.925 8.67117 28.935 8.71117 28.965 8.74117C28.995 8.77117 29.035 8.78117 29.085 8.78117C29.185 8.78117 29.205 8.67117 29.205 8.67117V8.49117C29.205 8.47117 29.225 8.45117 29.245 8.45117C29.265 8.45117 29.285 8.47117 29.285 8.49117V8.68117C29.275 8.75117 29.225 8.86117 29.085 8.86117H29.075Z" fill="#464655"/>
<path d="M29.4151 8.85945H29.4051C29.3559 8.85761 29.309 8.83859 29.2725 8.80569C29.2359 8.7728 29.2121 8.72812 29.2051 8.67945V8.47945C29.2051 8.45945 29.2251 8.43945 29.2451 8.43945C29.2651 8.43945 29.2851 8.45945 29.2851 8.47945V8.66945C29.2851 8.66945 29.3051 8.76945 29.4051 8.76945C29.4551 8.76945 29.4951 8.75945 29.5251 8.72945C29.5551 8.69945 29.5651 8.65945 29.5551 8.61945C29.5551 8.59945 29.5651 8.57945 29.5851 8.56945C29.6051 8.56945 29.6251 8.57945 29.6351 8.59945C29.6398 8.63129 29.6378 8.66375 29.6292 8.69476C29.6206 8.72576 29.6055 8.75462 29.5851 8.77945C29.5649 8.80507 29.539 8.82564 29.5095 8.83953C29.48 8.85341 29.4477 8.86023 29.4151 8.85945Z" fill="#464655"/>
<path d="M30.6454 14.8209C30.6454 14.8209 30.3554 14.3509 30.0154 14.6609C29.6754 14.9709 29.5454 15.3609 29.1554 15.3309C28.9454 15.3109 28.8354 15.2209 28.7754 15.1309C28.8754 15.0409 28.9554 14.9109 28.8754 14.7209C28.6954 14.3009 28.0554 14.4309 27.8854 14.8909C27.8854 14.8909 28.0854 14.2109 27.3754 14.4409C27.3754 14.4409 27.2854 13.9709 26.8754 14.1009C26.6554 14.1709 26.5654 14.3109 26.5354 14.4209C26.4841 14.4067 26.4303 14.4048 26.3782 14.4152C26.3261 14.4256 26.2772 14.4481 26.2354 14.4809L26.7554 15.8809L27.5354 15.8909L27.7154 16.1509L28.7354 16.8009L28.9254 17.1909H29.5654C29.5654 17.1909 29.6154 16.7909 29.9554 16.6709C30.2954 16.5509 30.8554 16.3109 30.9154 16.0909L30.9754 15.8709L31.5954 15.8809C31.6654 15.8309 32.1254 15.0809 32.1254 15.0809L32.3354 14.1109C32.2154 14.1009 30.8754 13.9309 30.6454 14.8209Z" fill="#F5F5F5"/>
<path d="M32.335 14.1113C32.335 14.1213 32.345 14.1213 32.335 14.1113V14.1113Z" fill="#F5F5F5"/>
<path d="M28.0849 16.3302C27.8349 16.2302 27.7449 16.0802 27.7149 16.0102C27.6849 15.9402 27.6949 15.8902 27.6949 15.8702L27.7449 15.8002L27.7849 15.8102V15.8602C27.7349 15.9002 27.7349 15.9802 27.7849 16.0302C27.8249 16.0802 27.9049 16.0802 27.9549 16.0302C27.9797 16.0072 27.9996 15.9794 28.0134 15.9484C28.0271 15.9175 28.0344 15.8841 28.0349 15.8502C28.0328 15.7779 28.0083 15.708 27.9649 15.6502C27.923 15.6105 27.8705 15.5837 27.8137 15.573C27.757 15.5624 27.6984 15.5684 27.6449 15.5902C27.6649 15.4302 27.5949 15.3402 27.5549 15.3102C27.5141 15.2809 27.4651 15.2652 27.4149 15.2652C27.3647 15.2652 27.3157 15.2809 27.2749 15.3102C27.1849 15.3702 27.1249 15.4602 27.1449 15.5602C27.1549 15.6202 27.2149 15.6602 27.2849 15.6502C27.3449 15.6402 27.3949 15.5802 27.3949 15.5102C27.404 15.5023 27.4141 15.4956 27.4249 15.4902C27.4249 15.4902 27.4449 15.5202 27.4249 15.6002C27.3949 15.7302 27.3249 15.8102 27.2249 15.8402C27.0949 15.8802 26.9249 15.8202 26.8249 15.7102C26.5699 15.2305 26.3687 14.7241 26.2249 14.2002C26.9649 13.8502 27.0549 13.2602 27.0449 12.9402C27.0249 12.4402 26.7249 11.9302 26.3949 11.8302C26.244 11.7823 26.0811 11.7894 25.9349 11.8502C25.8962 11.8686 25.8619 11.8951 25.8343 11.9279C25.8067 11.9607 25.7865 11.999 25.7749 12.0402C25.7249 12.2002 25.8249 12.3402 25.9449 12.3802C26.0749 12.4302 26.1949 12.3702 26.2449 12.2502C26.2649 12.1902 26.2449 12.1202 26.1849 12.1002C26.1249 12.0802 26.0549 12.1002 26.0349 12.1602C26.0349 12.1602 26.0149 12.1602 26.0049 12.1402L25.9949 12.1102C25.9949 12.1002 26.0049 12.0802 26.0349 12.0602C26.1149 12.0202 26.2349 12.0302 26.3249 12.0502C26.5149 12.1102 26.7849 12.4802 26.8049 12.9502C26.8149 13.2302 26.7349 13.7402 26.0349 14.0302C25.9749 14.0502 25.9549 14.1202 25.9649 14.1702C26.0149 14.3202 26.4149 15.6102 26.6449 15.8702C26.7649 16.0102 26.9549 16.0902 27.1349 16.0902L27.2749 16.0702C27.3493 16.0498 27.4178 16.0121 27.4749 15.9602L27.5049 16.0902C27.5549 16.2002 27.6749 16.4102 28.0249 16.5502C28.7349 16.8402 28.8049 17.0302 28.7949 17.1002C28.7949 17.1402 28.7749 17.1602 28.7549 17.1702L28.7349 17.1802C28.7489 17.1618 28.7573 17.1398 28.7591 17.1167C28.7609 17.0936 28.7559 17.0705 28.7449 17.0502C28.73 17.0226 28.705 17.002 28.6751 16.9926C28.6452 16.9833 28.6128 16.986 28.5849 17.0002C28.5611 17.0119 28.5399 17.0282 28.5225 17.0481C28.5051 17.0681 28.4919 17.0913 28.4835 17.1164C28.4751 17.1415 28.4718 17.1681 28.4738 17.1945C28.4757 17.2209 28.4829 17.2466 28.4949 17.2702C28.5349 17.3602 28.6149 17.4102 28.7149 17.4102H28.7649C28.9149 17.3902 29.0149 17.2602 29.0249 17.1102C29.0449 16.7502 28.5149 16.5002 28.0849 16.3302ZM30.4049 16.3302C30.6549 16.2302 30.7449 16.0802 30.7749 16.0102C30.8049 15.9402 30.7949 15.8902 30.7949 15.8702L30.7449 15.8002L30.7049 15.8102V15.8602C30.7549 15.9002 30.7549 15.9802 30.7049 16.0302C30.6649 16.0802 30.5849 16.0802 30.5349 16.0302C30.5101 16.0072 30.4902 15.9794 30.4764 15.9484C30.4627 15.9175 30.4553 15.8841 30.4549 15.8502C30.4549 15.7802 30.4849 15.7002 30.5249 15.6502C30.5668 15.6105 30.6193 15.5837 30.676 15.573C30.7328 15.5624 30.7914 15.5684 30.8449 15.5902C30.8249 15.4302 30.8949 15.3402 30.9349 15.3102C30.9757 15.2809 31.0247 15.2652 31.0749 15.2652C31.1251 15.2652 31.1741 15.2809 31.2149 15.3102C31.3049 15.3702 31.3649 15.4602 31.3449 15.5602C31.3349 15.6202 31.2749 15.6602 31.2049 15.6502C31.1449 15.6402 31.0949 15.5802 31.0949 15.5102C31.0858 15.5023 31.0757 15.4956 31.0649 15.4902C31.0649 15.4902 31.0449 15.5202 31.0649 15.6002C31.0949 15.7302 31.1649 15.8102 31.2649 15.8402C31.3949 15.8802 31.5649 15.8202 31.6649 15.7102C31.8049 15.5602 32.0949 14.7402 32.2649 14.2002C31.5249 13.8502 31.4349 13.2602 31.4449 12.9402C31.4649 12.4402 31.7649 11.9302 32.0949 11.8302C32.2458 11.7823 32.4087 11.7894 32.5549 11.8502C32.5936 11.8686 32.6279 11.8951 32.6555 11.9279C32.6831 11.9607 32.7033 11.999 32.7149 12.0402C32.7649 12.2002 32.6649 12.3402 32.5449 12.3802C32.5169 12.393 32.4864 12.3998 32.4556 12.4001C32.4248 12.4004 32.3942 12.3942 32.366 12.382C32.3377 12.3697 32.3123 12.3517 32.2914 12.329C32.2706 12.3063 32.2547 12.2794 32.2449 12.2502C32.2249 12.1902 32.2449 12.1202 32.3049 12.1002C32.3649 12.0802 32.4349 12.1002 32.4549 12.1602C32.4549 12.1602 32.4749 12.1602 32.4849 12.1402L32.4949 12.1102C32.4949 12.1002 32.4849 12.0802 32.4549 12.0602C32.3749 12.0202 32.2549 12.0302 32.1649 12.0502C31.9749 12.1102 31.7049 12.4802 31.6849 12.9502C31.6749 13.2302 31.7549 13.7402 32.4549 14.0302C32.5149 14.0502 32.5349 14.1202 32.5249 14.1702C32.4749 14.3202 32.0749 15.6102 31.8449 15.8702C31.7832 15.9392 31.7077 15.9944 31.6233 16.0323C31.5389 16.0702 31.4474 16.0899 31.3549 16.0902C31.3076 16.0892 31.2606 16.0825 31.2149 16.0702C31.1405 16.0498 31.072 16.0121 31.0149 15.9602L30.9849 16.0902C30.9335 16.1978 30.8609 16.294 30.7716 16.373C30.6823 16.452 30.578 16.5123 30.4649 16.5502C29.7549 16.8402 29.6849 17.0302 29.6949 17.1002C29.6949 17.1402 29.7149 17.1602 29.7349 17.1702L29.7549 17.1802C29.7409 17.1618 29.7325 17.1398 29.7307 17.1167C29.7289 17.0936 29.7339 17.0705 29.7449 17.0502C29.7749 16.9902 29.8449 16.9702 29.9049 17.0002C29.9286 17.0119 29.9498 17.0282 29.9673 17.0481C29.9847 17.0681 29.9979 17.0913 30.0063 17.1164C30.0147 17.1415 30.018 17.1681 30.016 17.1945C30.0141 17.2209 30.0069 17.2466 29.9949 17.2702C29.9767 17.3131 29.9459 17.3494 29.9067 17.3744C29.8674 17.3994 29.8214 17.4119 29.7749 17.4102H29.7249C29.5749 17.3902 29.4749 17.2602 29.4649 17.1102C29.4449 16.7502 29.9749 16.5002 30.4049 16.3302Z" fill="#FFE15A"/>
</g>
</g>
<defs>
<clipPath id="clip0_26003_54180">
<rect width="38" height="25" fill="white" transform="translate(0.745117 0.210938)"/>
</clipPath>
<clipPath id="clip1_26003_54180">
<rect width="38" height="25" fill="white" transform="translate(0.745117 0.210938)"/>
</clipPath>
</defs>
</svg>
