<svg width="38" height="26" viewBox="0 0 38 26" fill="none" xmlns="http://www.w3.org/2000/svg">
<g clip-path="url(#clip0_26003_75530)">
<g clip-path="url(#clip1_26003_75530)">
<path fill-rule="evenodd" clip-rule="evenodd" d="M3 25.5H12.7V0.5H3C1.5 0.5 0.2 1.8 0 3.4V22.5C0.2 24.2 1.5 25.5 3 25.5ZM35 0.5C36.5 0.5 37.8 1.8 38 3.4V22.5C37.8 24.2 36.5 25.4 35 25.4H25.3V0.5H35Z" fill="#2D3579"/>
<path fill-rule="evenodd" clip-rule="evenodd" d="M12.7002 0.5H25.4002V25.5H12.7002V0.5Z" fill="#F6CD28"/>
<path fill-rule="evenodd" clip-rule="evenodd" d="M19 6.09961C18.6 7.39961 18.2 8.69961 17.3 9.69961C17.5 9.59961 18 9.49961 18.4 9.49961V14.7996L17 14.9996C17 14.9996 16.9 14.8996 16.9 14.7996C16.8 13.0996 16.4 11.7996 16 10.2996C16 10.0996 15.5 9.39961 15.9 9.49961C15.9 9.49961 16.5 9.69961 16.4 9.59961C15.7 8.79961 14.7 8.19961 13.6 7.99961C13.5 7.99961 13.5 7.99961 13.5 8.09961C14.8 10.3996 16 13.1996 15.9 16.3996C16.4 16.3996 17.7 16.0996 18.2 16.0996V19.8996H19.5V16.0996C20 16.0996 21.3 16.3996 21.8 16.3996C21.8 13.1996 22.9 10.3996 24.2 8.09961C24.3 7.99961 24.2 7.89961 24.1 7.99961C23.1 8.19961 22.1 8.79961 21.3 9.59961C21.5 9.79961 22 9.49961 22.1 9.49961C22.5 9.39961 22 10.0996 22 10.2996C21.6 11.6996 21.3 13.0996 21.1 14.7996C21.1 14.8996 21.1 14.9996 21 14.9996L19.7 14.7996V9.49961C20 9.49961 20.5 9.59961 20.8 9.69961C19.8 8.69961 19.4 7.29961 19 6.09961Z" fill="#242222"/>
</g>
</g>
<defs>
<clipPath id="clip0_26003_75530">
<rect width="38" height="25" fill="white" transform="translate(0 0.5)"/>
</clipPath>
<clipPath id="clip1_26003_75530">
<rect width="38" height="25" fill="white" transform="translate(0 0.5)"/>
</clipPath>
</defs>
</svg>
