<svg width="38" height="26" viewBox="0 0 38 26" fill="none" xmlns="http://www.w3.org/2000/svg">
<g clip-path="url(#clip0_26003_72303)">
<g clip-path="url(#clip1_26003_72303)">
<path fill-rule="evenodd" clip-rule="evenodd" d="M2.5 25.5H9V0.5H2.5C1.2 0.8 0.2 1.9 0 3.4V22.6C0.2 24.1 1.2 25.2 2.5 25.5ZM29.1 25.5H35.6C36.9 25.2 37.9 24.1 38.1 22.6V3.4C37.9 1.9 36.9 0.7 35.6 0.5H29.1V25.5Z" fill="#E42229"/>
<path fill-rule="evenodd" clip-rule="evenodd" d="M8.90039 0.5H29.0004V25.5H8.90039V0.5Z" fill="#FEFEFE"/>
<path fill-rule="evenodd" clip-rule="evenodd" d="M18.9998 3.69922L17.6998 6.59922C17.5998 6.89922 17.2998 6.89922 16.9998 6.69922L15.9998 6.09922L16.6998 10.4992C16.8998 11.2992 16.3998 11.2992 16.0998 10.9992L14.3998 8.79922L14.0998 9.89922C14.0998 9.99922 13.8998 10.1992 13.6998 10.1992L11.5998 9.69922L12.1998 12.0992C12.2998 12.5992 12.3998 12.7992 12.0998 12.9992L11.2998 13.3992L14.8998 16.8992C14.9998 16.9992 15.0998 17.2992 15.0998 17.4992L14.7998 18.6992C15.9998 18.4992 17.1998 18.3992 18.3998 18.1992C18.4998 18.1992 18.6998 18.2992 18.6998 18.4992L18.4998 22.9992H19.0998L18.9998 18.4992C18.9998 18.3992 19.1998 18.1992 19.2998 18.1992C20.4998 18.3992 21.6998 18.4992 22.8998 18.6992L22.5998 17.4992C22.5998 17.2992 22.5998 17.0992 22.7998 16.8992L26.3998 13.3992L25.5998 12.9992C25.2998 12.8992 25.3998 12.5992 25.4998 12.0992L26.0998 9.69922L23.9998 10.1992C23.7998 10.1992 23.6998 10.0992 23.5998 9.89922L23.2998 8.79922L21.5998 10.9992C21.3998 11.2992 20.8998 11.2992 20.9998 10.4992L21.9998 6.19922L20.9998 6.79922C20.6998 6.99922 20.4998 6.99922 20.2998 6.69922L18.9998 3.69922Z" fill="#E42229"/>
</g>
</g>
<defs>
<clipPath id="clip0_26003_72303">
<rect width="38" height="25" fill="white" transform="translate(0 0.5)"/>
</clipPath>
<clipPath id="clip1_26003_72303">
<rect width="38" height="25" fill="white" transform="translate(0 0.5)"/>
</clipPath>
</defs>
</svg>
