<svg width="70" height="62" viewBox="0 0 70 62" fill="none" xmlns="http://www.w3.org/2000/svg">
<path d="M1.07665 2.97847C1.39309 2.52641 2.252 1.89353 2.97529 1.48668C3.74379 1.12503 4.46708 0.808594 4.64791 0.808594C4.87393 0.808594 5.73284 1.12503 6.59175 1.48668C7.54108 1.89353 8.44519 2.75244 8.89725 3.61135C9.34931 4.51547 9.53013 5.64561 9.34931 6.45932C9.21369 7.22782 8.76163 8.17714 8.30957 8.58399C7.85752 8.99084 6.9534 9.53331 6.27531 9.80454C5.28079 10.2114 4.64791 10.121 3.33694 9.57852C2.38762 9.17166 1.39309 8.53878 1.07665 8.13193C0.760209 7.72508 0.53418 6.54973 0.53418 5.5552C0.53418 4.56067 0.760209 3.38532 1.07665 2.97847Z" fill="#36A83A"/>
<path d="M61.0647 2.93327C61.6072 2.20997 62.4661 1.44147 63.0086 1.26065C63.551 1.03462 64.2743 0.8538 64.5456 0.8538C64.862 0.808594 65.8565 1.12503 66.7154 1.48668C67.5743 1.84833 68.4785 2.57162 68.7497 3.06888C68.9757 3.56615 69.2018 4.69629 69.2018 5.5552C69.2018 6.41411 68.9757 7.54426 68.7497 8.04152C68.4785 8.53878 67.5291 9.26208 66.5798 9.66893C65.6757 10.0306 64.3647 10.2566 63.6414 10.121C62.9634 9.98537 61.9236 9.26208 61.2907 8.49358C60.6127 7.67987 60.1606 6.54973 60.1606 5.64561C60.1154 4.87711 60.5674 3.61135 61.0647 2.93327Z" fill="#36A83A"/>
<path d="M14.9096 5.82644C14.8644 3.43053 15 3.02368 16.0398 2.25518C16.9891 1.48668 17.4863 1.39627 18.6617 1.75792C19.4754 1.98394 20.1535 2.16477 20.1987 2.16477C20.1987 2.16477 20.4699 2.84285 20.7864 3.61135C21.0576 4.42506 21.2836 5.87164 21.2836 6.77576C21.2836 7.72508 20.8316 9.66893 20.2891 11.0703C19.6562 12.8333 18.5713 14.4607 17.0343 15.9977C15.4973 17.4895 13.9603 18.5293 12.4685 19.0265C11.2027 19.4786 9.75616 19.795 9.16848 19.795C8.62601 19.795 7.7671 19.3882 7.26984 18.8909C6.77258 18.3936 6.36573 17.4443 6.36573 16.721C6.32052 16.0429 6.68217 15.184 7.13422 14.7772C7.58628 14.3703 8.5356 13.8731 9.3041 13.7374C10.0274 13.5566 11.3384 12.9237 12.1069 12.2909C12.9206 11.7032 13.9151 10.6182 14.2767 9.84975C14.6836 9.08125 14.9548 7.36343 14.9096 5.82644Z" fill="#36A83A"/>
<path d="M26.6179 2.84285C26.7987 2.57162 27.3412 2.11956 27.8385 1.84833C28.3357 1.53189 29.0138 1.39627 29.2851 1.48668C29.6015 1.6223 30.0536 1.71271 30.3248 1.71271C30.596 1.71271 31.0933 2.02915 31.4549 2.3908C31.9522 2.88806 32.133 4.10862 32.133 7.00179C32.133 9.21687 31.8618 11.9744 31.5453 13.2402C31.2289 14.4607 30.144 16.9471 29.1946 18.6649C28.2453 20.3827 26.3015 22.9594 24.9453 24.3156C23.4083 25.8526 21.0576 27.5252 19.0233 28.5197C16.5822 29.7855 15.3165 30.1471 14.5028 29.9663C13.8699 29.7855 13.1466 29.3334 12.8302 28.8814C12.5137 28.4745 12.2877 27.6608 12.2425 27.0279C12.2425 26.3951 12.4233 25.6718 12.6041 25.4005C12.7849 25.1293 14.0507 24.3156 15.4069 23.6375C16.7631 22.9594 18.6617 21.7389 19.611 20.9704C20.5603 20.2019 22.0521 18.5293 22.911 17.3087C23.7699 16.0429 24.8549 13.7827 25.3522 12.2005C25.8946 10.573 26.2563 8.13193 26.2563 6.3237C26.2563 4.65109 26.4371 3.06888 26.6179 2.84285Z" fill="#36A83A"/>
<path d="M37.6029 3.92779C37.9194 3.02368 38.6427 2.07436 39.1399 1.80312C39.6372 1.53189 40.1796 1.30586 40.3605 1.30586C40.5865 1.26065 41.1742 1.48668 41.7166 1.75792C42.3043 2.07436 42.892 2.52641 43.0728 2.79765C43.2536 3.06888 43.4345 4.60588 43.4345 6.23329C43.4345 7.8607 43.7961 10.4826 44.2934 12.11C44.7906 13.7374 46.0112 16.1786 47.0057 17.5347C48.0002 18.8909 49.6729 20.6539 50.7578 21.4676C51.8427 22.2361 53.651 23.3211 54.8263 23.8183C56.2277 24.4512 57.0866 25.1293 57.2674 25.7622C57.403 26.3499 57.403 27.3444 57.2674 28.0225C57.1318 28.7458 56.5441 29.5143 55.9565 29.7855C55.414 30.0567 54.3291 30.1924 53.6058 30.0115C52.8825 29.8759 50.7126 28.791 48.8592 27.5704C47.0057 26.3499 44.8358 24.632 44.0221 23.8183C43.2536 22.9594 41.8523 21.0608 40.9481 19.569C40.044 18.0772 38.9591 15.6361 38.507 14.1443C38.055 12.6525 37.5125 10.121 37.3317 8.49358C37.1057 6.41411 37.1961 5.05794 37.6029 3.92779Z" fill="#36A83A"/>
<path d="M48.9044 3.61135C49.266 2.75244 50.0345 1.93874 50.6674 1.71271C51.3003 1.53189 52.2044 1.44147 52.7016 1.57709C53.1989 1.71271 53.877 2.11956 54.1934 2.57162C54.5099 2.97847 54.7359 4.51547 54.7359 6.00726C54.7359 7.95111 55.0071 9.12646 55.64 10.1662C56.1373 10.9799 57.2222 12.0648 57.9907 12.5621C58.8044 13.0594 59.9798 13.6018 60.6127 13.7827C61.2455 13.9183 62.1044 14.3703 62.5565 14.7772C63.0086 15.184 63.3702 15.9977 63.325 16.6306C63.325 17.2635 63.0086 18.2128 62.6469 18.7553C62.1497 19.5238 61.5168 19.795 60.251 19.795C59.3469 19.795 57.5387 19.2978 56.3181 18.7101C55.0523 18.1224 53.3345 16.8566 52.3852 15.9073C51.4811 14.9128 50.3057 13.3306 49.8085 12.3361C49.266 11.3415 48.7235 9.30728 48.5427 7.81549C48.3619 5.91685 48.4523 4.65109 48.9044 3.61135Z" fill="#36A83A"/>
<path d="M28.9686 29.8307C30.3248 29.5143 31.8618 29.1978 32.359 29.1074C32.8563 28.9718 34.5741 28.9718 36.2015 29.1074C37.8289 29.243 40.1344 29.5595 41.4002 29.9211C42.6208 30.2376 44.9715 31.1869 46.5537 32.0458C48.1811 32.9047 50.0345 34.1253 50.7578 34.8033C51.4811 35.5266 52.0236 36.5664 52.0236 37.1992C52.0236 37.8321 51.5715 38.7362 50.9838 39.2335C50.4414 39.7308 49.492 40.1376 48.8592 40.1376C48.2263 40.1376 47.0057 39.5499 46.1468 38.9171C45.2879 38.239 43.4345 37.1992 42.0783 36.5212C39.9084 35.5266 38.9591 35.391 34.8454 35.391C30.596 35.391 29.8275 35.5266 27.3864 36.6568C25.8946 37.3801 23.996 38.4198 23.1823 39.0527C22.4138 39.6404 21.2384 40.1376 20.6055 40.1376C19.9727 40.1376 19.0686 39.7308 18.5713 39.2335C18.074 38.7362 17.6672 37.8321 17.6672 37.1992C17.6672 36.5664 18.1192 35.617 18.6617 35.0294C19.2494 34.4417 20.5151 33.4924 21.5097 32.8595C22.5042 32.2718 24.0412 31.4581 24.9001 31.0513C25.759 30.6444 27.6124 30.1019 28.9686 29.8307Z" fill="#36A83A"/>
<path d="M26.4371 43.1212C27.3864 42.3527 29.2398 41.3582 30.5056 40.9513C31.7714 40.4993 33.6248 40.1376 34.6193 40.1376C35.6139 40.1376 37.4221 40.4089 38.6879 40.7705C39.9084 41.1322 41.8071 42.0815 42.8468 42.8048C43.9317 43.5733 45.1071 44.7034 45.4687 45.3363C46.0112 46.2856 46.0564 46.6925 45.5591 47.8678C45.2879 48.6815 44.655 49.4952 44.203 49.676C43.7961 49.9021 43.1632 50.0829 42.8468 50.0829C42.5756 50.0829 41.1742 49.2692 39.818 48.2295C37.4673 46.4664 37.1961 46.376 34.6193 46.5116C32.9467 46.6473 31.4097 47.0089 30.7768 47.461C30.144 47.913 29.1042 48.7267 28.3809 49.2692C27.3412 50.1281 26.9344 50.2185 25.8946 49.8569C25.2165 49.5856 24.4028 48.8171 24.0864 48.139C23.6343 47.1445 23.6343 46.6925 24.0864 45.6979C24.4028 45.0651 25.4426 43.8897 26.4371 43.1212Z" fill="#36A83A"/>
<path d="M30.7768 55.0555C31.0481 54.5583 31.907 53.7446 32.6755 53.2473C33.4892 52.75 34.3029 52.3432 34.4837 52.3432C34.7097 52.3432 35.5234 52.6144 36.292 52.9309C37.1057 53.2473 38.1454 54.0158 38.5974 54.6487C39.0043 55.2364 39.3659 56.4117 39.3659 57.1802C39.3659 58.0843 38.9139 59.2145 38.2358 60.0282C37.2865 61.1583 36.7892 61.3843 35.0714 61.3843C33.3988 61.3843 32.7659 61.1131 31.681 60.0282C30.7768 59.1241 30.3248 58.2199 30.3248 57.3158C30.3248 56.5925 30.5056 55.5528 30.7768 55.0555Z" fill="#36A83A"/>
</svg>
