<svg width="38" height="26" viewBox="0 0 38 26" fill="none" xmlns="http://www.w3.org/2000/svg">
<g clip-path="url(#clip0_26003_91968)">
<g clip-path="url(#clip1_26003_91968)">
<path d="M35.1502 25.5H2.8002C2.04341 25.4974 1.31852 25.1949 0.784331 24.6588C0.250138 24.1227 -0.0498093 23.3968 -0.0498047 22.64V3.36C-0.0498093 2.60321 0.250138 1.87727 0.784331 1.3412C1.31852 0.805134 2.04341 0.502646 2.8002 0.5L35.1502 0.5C35.907 0.502646 36.6319 0.805134 37.1661 1.3412C37.7003 1.87727 38.0002 2.60321 38.0002 3.36V22.64C38.0002 23.3968 37.7003 24.1227 37.1661 24.6588C36.6319 25.1949 35.907 25.4974 35.1502 25.5Z" fill="#253384"/>
<path d="M18.9796 6.41992C16.4896 7.73992 14.8096 10.8699 14.8096 12.9999C14.8096 15.1299 16.4896 18.2599 18.9796 19.5799C21.4696 18.2599 23.1496 15.1299 23.1496 12.9999C23.1496 10.8699 21.4696 7.73992 18.9796 6.41992Z" fill="#3CC8FF"/>
<path d="M19.52 10.7491C19.92 10.5391 20.61 10.2991 21.39 10.5891C21.39 10.5891 20.64 9.74906 19.59 10.4291C19.87 10.0891 20.29 9.66906 20.75 9.54906C20.75 9.54906 19.84 9.20906 19.29 10.4291C19.4 9.81906 19.38 8.84906 18.39 8.28906C18.39 8.28906 18.94 9.47906 19 10.4591C18.9678 10.2585 18.8733 10.0731 18.73 9.92906C18.21 9.37906 17.76 9.33906 17.76 9.33906C17.76 9.33906 18.48 10.1391 18.84 10.8991C18.64 10.6491 18.27 10.3391 17.69 10.3591C16.33 10.4091 16.04 11.2191 16.04 11.2191C16.7267 10.9653 17.4601 10.863 18.19 10.9191C17.29 11.0791 16.98 12.1991 16.98 12.1991C17.7 11.2991 18.48 11.1491 18.8 11.1291C18.23 11.5991 18.26 12.4791 18.26 12.4791C18.39 11.9891 18.91 11.4291 19.16 11.1791C19.84 11.9091 19.92 12.7391 19.92 12.7391C19.92 12.7391 20.07 12.4891 20 11.9891C19.9715 11.7962 19.9045 11.611 19.8032 11.4444C19.7019 11.2778 19.5682 11.1332 19.41 11.0191C20.6 11.1891 21.38 12.0491 21.38 12.0491C21.2584 11.6566 21.0096 11.3158 20.6728 11.0804C20.336 10.845 19.9304 10.7284 19.52 10.7491Z" fill="#96D805"/>
<path d="M35.15 0.5H2.79996C2.07111 0.501547 1.37054 0.782278 0.842311 1.28447C0.314077 1.78667 -0.00167991 2.47216 -0.0400391 3.2V22.8C-0.00167991 23.5278 0.314077 24.2133 0.842311 24.7155C1.37054 25.2177 2.07111 25.4985 2.79996 25.5H35.15C35.9067 25.4974 36.6316 25.1949 37.1658 24.6588C37.7 24.1227 38 23.3968 38 22.64V3.36C38 2.60321 37.7 1.87727 37.1658 1.3412C36.6316 0.805134 35.9067 0.502646 35.15 0.5ZM36.69 24.18H1.26996V1.82H36.69V24.18Z" fill="#D31E38"/>
<path d="M17.6504 14.5895L18.2504 13.5495L23.1904 13.4395L22.8604 14.8095L17.6504 14.5895Z" fill="#FF965A"/>
<path d="M14.9902 14.3203C15.5745 16.5312 17.0086 18.4218 18.9802 19.5803C19.959 19.0096 20.8154 18.2511 21.5001 17.3484C22.1848 16.4458 22.6844 15.4167 22.9702 14.3203H14.9902Z" fill="#4173CD"/>
<path d="M15.7002 16.2904C15.7002 16.2904 17.1302 16.2204 17.9902 16.5704C18.0366 16.5927 18.0764 16.6267 18.1059 16.6689C18.1353 16.7111 18.1534 16.7601 18.1585 16.8113C18.1635 16.8626 18.1552 16.9142 18.1345 16.9613C18.1138 17.0085 18.0813 17.0495 18.0402 17.0804C17.6202 17.3604 17.0102 17.8304 17.0102 18.2604L15.7002 16.2904ZM18.2102 18.9204C18.1602 18.3704 18.6402 17.9704 19.3002 17.7104C20.1602 17.3704 19.6902 16.8404 19.2602 16.4904C18.7502 16.0704 19.4102 15.9604 22.2002 15.9004L20.8302 18.0404L18.9702 19.5804L18.2102 18.9204Z" fill="#FFCE00"/>
<path d="M18.9805 19.9508L18.8305 19.8708C16.2305 18.5008 14.4805 15.2108 14.4805 13.0008C14.4805 10.7908 16.2305 7.50078 18.8305 6.13078L18.9805 6.05078L19.1305 6.13078C21.7305 7.50078 23.4805 10.7908 23.4805 13.0008C23.4805 15.2108 21.7305 18.5008 19.1305 19.8708L18.9805 19.9508ZM18.9805 6.80078C16.6705 8.11078 15.1305 11.0308 15.1305 13.0008C15.1305 14.9708 16.6705 17.9008 18.9805 19.2008C21.2905 17.8908 22.8305 14.9708 22.8305 13.0008C22.8305 11.0308 21.2905 8.10078 18.9805 6.80078Z" fill="#C9233B"/>
<path d="M20.3702 16.7602C20.3378 16.7596 20.3064 16.7491 20.2802 16.7302C19.8463 16.4624 19.4893 16.0867 19.244 15.6398C18.9986 15.1929 18.8733 14.69 18.8802 14.1802V11.1502C18.8802 11.0602 18.9502 10.9902 19.0402 10.9902C19.1302 10.9902 19.2002 11.0602 19.2002 11.1502V14.1802C19.2002 15.1202 19.6602 15.9502 20.4502 16.4502C20.5302 16.5002 20.5502 16.6002 20.5002 16.6802C20.4802 16.7302 20.4302 16.7602 20.3702 16.7602Z" fill="#A54B37"/>
<path d="M19.0504 11.5208C19.2493 11.5208 19.4104 11.3596 19.4104 11.1608C19.4104 10.962 19.2493 10.8008 19.0504 10.8008C18.8516 10.8008 18.6904 10.962 18.6904 11.1608C18.6904 11.3596 18.8516 11.5208 19.0504 11.5208Z" fill="#A54B37"/>
</g>
</g>
<defs>
<clipPath id="clip0_26003_91968">
<rect width="38" height="25" fill="white" transform="translate(0 0.5)"/>
</clipPath>
<clipPath id="clip1_26003_91968">
<rect width="38" height="25" fill="white" transform="translate(0 0.5)"/>
</clipPath>
</defs>
</svg>
