<svg width="38" height="26" viewBox="0 0 38 26" fill="none" xmlns="http://www.w3.org/2000/svg">
<g clip-path="url(#clip0_26003_74105)">
<g clip-path="url(#clip1_26003_74105)">
<path fill-rule="evenodd" clip-rule="evenodd" d="M2.47 25.5H35.53C36.82 25.25 37.83 24.06 38 22.59V3.41C37.83 1.94 36.82 0.75 35.53 0.5H2.47C1.18 0.75 0.17 1.94 0 3.41V22.59C0.17 24.06 1.18 25.25 2.47 25.5Z" fill="#FEFEFE"/>
<path fill-rule="evenodd" clip-rule="evenodd" d="M12.32 6.04953H38V3.40953L37.98 3.26953H12.32V6.04953ZM38 22.5895L37.98 22.7295H0.02C0.00910781 22.6836 0.00241363 22.6367 0 22.5895L0 19.9395H38V22.5895ZM12.32 11.6095H38V8.82953H12.32V11.6095ZM0 17.1695H38V14.3895H0V17.1695Z" fill="#4472B6"/>
<path fill-rule="evenodd" clip-rule="evenodd" d="M6.17969 7.46094L6.28969 9.51094C4.60969 10.8809 5.64969 11.6909 4.42969 12.1309C5.24969 11.2109 4.17969 11.2109 5.10969 9.11094L6.17969 7.46094Z" fill="#EDC806"/>
<path fill-rule="evenodd" clip-rule="evenodd" d="M4.68027 11.1309C4.64027 10.7309 4.57027 10.2009 5.07027 9.12094L5.14027 9.16094C4.67027 10.2509 4.71027 10.7309 4.78027 11.1309H4.68027ZM4.39027 12.1309L4.46027 12.1709C4.85027 11.7309 4.82027 11.4409 4.78027 11.1209H4.67027C4.75027 11.4509 4.75027 11.6909 4.39027 12.1309ZM4.46027 12.1709L4.28027 12.2509L4.39027 12.1309H4.42027L4.46027 12.1709ZM5.21027 11.2509C5.10027 11.6909 5.03027 11.9709 4.46027 12.1809L4.42027 12.1009C4.96027 11.9009 5.03027 11.6209 5.10027 11.2609H5.21027V11.2509ZM6.32027 9.56094L6.25027 9.48094C5.36027 10.2009 5.21027 10.8109 5.10027 11.2509H5.21027C5.32027 10.8509 5.43027 10.2809 6.32027 9.56094ZM6.32027 9.52094V9.56094L6.28027 9.52094H6.32027ZM6.21027 7.46094L6.32027 9.51094H6.25027L6.11027 7.46094H6.21027Z" fill="#36383A"/>
<path fill-rule="evenodd" clip-rule="evenodd" d="M5.02992 11.0502C4.95992 11.5702 4.88992 11.9802 4.45992 12.1802L4.41992 12.1002C4.80992 11.9002 4.84992 11.5302 4.91992 11.0102L5.02992 11.0502ZM5.60992 9.03023L5.53992 8.99023C5.21541 9.62086 5.0087 10.3054 4.92992 11.0102L5.03992 11.0502C5.06992 10.5202 5.17992 9.88023 5.60992 9.03023Z" fill="#36383A"/>
<path fill-rule="evenodd" clip-rule="evenodd" d="M6.18004 7.46L6.04004 5.36C7.71004 4 6.68004 3.19 7.89004 2.75C7.10004 3.72 8.14004 3.72 7.21004 5.77L6.18004 7.46Z" fill="#EDC806"/>
<path fill-rule="evenodd" clip-rule="evenodd" d="M7.64 3.75992C7.67 4.15992 7.75 4.68992 7.24 5.80992L7.18 5.76992C7.64 4.68992 7.6 4.15992 7.53 3.79992L7.64 3.75992ZM7.93 2.78992L7.86 2.70992C7.46 3.19992 7.5 3.43992 7.53 3.79992L7.64 3.75992C7.57 3.43992 7.57 3.23992 7.93 2.78992ZM7.86 2.70992L8.04 2.66992L7.93 2.78992L7.89 2.74992L7.86 2.70992ZM7.1 3.63992C7.21 3.22992 7.28 2.90992 7.85 2.70992L7.89 2.78992C7.35 2.98992 7.28 3.26992 7.21 3.67992L7.1 3.63992ZM6 5.36992L6.07 5.40992C6.96 4.68992 7.1 4.11992 7.21 3.67992L7.1 3.63992C7.03 4.07992 6.89 4.64992 6 5.36992ZM6 5.40992V5.36992H6.03L6 5.40992ZM6.11 7.45992L6 5.40992L6.07 5.36992L6.21 7.46992H6.11V7.45992Z" fill="#36383A"/>
<path fill-rule="evenodd" clip-rule="evenodd" d="M7.31996 3.88094C7.38996 3.32094 7.42996 2.95094 7.84996 2.71094L7.88996 2.79094C7.49996 2.99094 7.45996 3.36094 7.38996 3.88094H7.31996ZM6.70996 5.85094L6.77996 5.89094C7.20996 5.05094 7.31996 4.40094 7.38996 3.88094H7.31996C7.23468 4.5685 7.02815 5.23549 6.70996 5.85094Z" fill="#36383A"/>
<path fill-rule="evenodd" clip-rule="evenodd" d="M6.18 7.46023L4.32 7.58023C3.11 5.69023 2.39 6.86023 2 5.49023C2.86 6.42023 2.82 5.25023 4.68 6.25023L6.18 7.46023Z" fill="#EDC806"/>
<path fill-rule="evenodd" clip-rule="evenodd" d="M2.88965 5.80914C3.24965 5.72914 3.70965 5.64914 4.70965 6.20914L4.63965 6.29914C3.67965 5.77914 3.24965 5.85914 2.92965 5.89914L2.88965 5.80914ZM2.03965 5.48914L1.95965 5.52914C2.38965 5.96914 2.59965 5.92914 2.91965 5.88914L2.88965 5.80914C2.60965 5.84914 2.42965 5.88914 2.03965 5.48914ZM1.95965 5.52914L1.88965 5.36914L2.02965 5.48914H1.99965L1.95965 5.52914ZM2.78965 6.37914C2.42965 6.25914 2.13965 6.17914 1.96965 5.53914L2.03965 5.49914C2.21965 6.09914 2.46965 6.18914 2.78965 6.29914V6.37914ZM4.27965 7.62914L4.34965 7.58914C3.70965 6.53914 3.20965 6.41914 2.78965 6.29914V6.37914C3.17965 6.49914 3.67965 6.61914 4.27965 7.62914ZM4.31965 7.65914L4.27965 7.62914L4.30965 7.58914V7.65914H4.31965ZM6.17965 7.49914L4.31965 7.65914V7.53914L6.13965 7.41914L6.17965 7.49914Z" fill="#36383A"/>
<path fill-rule="evenodd" clip-rule="evenodd" d="M2.99996 6.18023C2.49996 6.09023 2.17996 6.02023 1.95996 5.53023L2.02996 5.49023C2.20996 5.93023 2.53996 6.02023 2.99996 6.05023V6.18023ZM4.74996 6.86023L4.77996 6.78023C4.25387 6.39746 3.64332 6.14706 2.99996 6.05023V6.17023C3.42996 6.26023 3.99996 6.34023 4.74996 6.86023Z" fill="#36383A"/>
<path fill-rule="evenodd" clip-rule="evenodd" d="M6.17969 7.46078L7.99969 7.30078C9.20969 9.19078 9.92969 8.06078 10.3197 9.39078C9.45969 8.51078 9.49969 9.68078 7.63969 8.63078L6.17969 7.46078Z" fill="#EDC806"/>
<path fill-rule="evenodd" clip-rule="evenodd" d="M9.42965 9.10977C9.06965 9.14977 8.59965 9.22977 7.63965 8.66977L7.66965 8.58977C8.63965 9.14977 9.05965 9.06977 9.38965 9.02977L9.42965 9.10977ZM10.2796 9.43976L10.3496 9.35977C9.91965 8.91976 9.70965 8.95977 9.38965 9.03977L9.42965 9.11977C9.70965 9.06977 9.92965 9.02977 10.2796 9.43976ZM10.3496 9.39977L10.4196 9.55977L10.2796 9.43976L10.3096 9.39977H10.3496ZM9.52965 8.54977C9.88965 8.62977 10.1696 8.70976 10.3496 9.39977H10.2796C10.0996 8.79976 9.84965 8.70977 9.52965 8.62977V8.54977ZM8.02965 7.25977L7.95965 7.33977C8.59965 8.34977 9.10965 8.50977 9.52965 8.62977V8.54977C9.13965 8.42977 8.63965 8.26977 8.02965 7.25977ZM7.99965 7.25977H8.02965L7.99965 7.29977V7.25977ZM6.13965 7.41977L7.99965 7.25977V7.33977L6.17965 7.49977L6.13965 7.41977Z" fill="#36383A"/>
<path fill-rule="evenodd" clip-rule="evenodd" d="M9.35027 8.75031C9.82027 8.83031 10.1403 8.87031 10.3503 9.39031L10.2803 9.43031C10.1003 8.95031 9.78027 8.91031 9.32027 8.83031L9.35027 8.75031ZM7.57027 8.07031L7.53027 8.15031C8.28027 8.67031 8.89027 8.75031 9.32027 8.83031L9.35027 8.75031C8.71448 8.65607 8.10696 8.42399 7.57027 8.07031Z" fill="#36383A"/>
<path fill-rule="evenodd" clip-rule="evenodd" d="M6.18 7.46094L4.96 9.03094C2.89 8.63094 3.11 10.0409 2 9.40094C3.18 9.36094 2.43 8.55094 4.36 7.79094L6.18 7.46094Z" fill="#EDC806"/>
<path fill-rule="evenodd" clip-rule="evenodd" d="M2.82031 8.86992C3.03031 8.54992 3.32031 8.14992 4.36031 7.73992L4.40031 7.81992C3.37031 8.21992 3.08031 8.61992 2.90031 8.94992L2.82031 8.86992ZM2.00031 9.34992V9.42992C2.57031 9.42992 2.71031 9.22992 2.89031 8.94992L2.82031 8.86992C2.64031 9.14992 2.54031 9.31992 2.00031 9.34992ZM1.96031 9.43992L1.82031 9.34992H2.00031V9.39992L1.96031 9.43992ZM3.11031 9.39992C2.79031 9.59992 2.54031 9.75992 1.96031 9.43992L2.00031 9.34992C2.54031 9.62992 2.75031 9.50992 3.04031 9.30992L3.11031 9.39992ZM4.96031 9.06992V8.94992C3.85031 8.74992 3.39031 9.06992 3.03031 9.30992L3.11031 9.39992C3.43031 9.14992 3.89031 8.86992 4.96031 9.06992ZM5.00031 9.02992L4.96031 9.06992V9.02992H5.00031ZM6.18031 7.45992L5.00031 9.02992L4.93031 8.98992L6.14031 7.41992L6.18031 7.45992Z" fill="#36383A"/>
<path fill-rule="evenodd" clip-rule="evenodd" d="M3.11 9.07031C2.71 9.40031 2.46 9.64031 2 9.44031V9.35031C2.43 9.51031 2.68 9.31031 3.07 8.99031L3.11 9.07031ZM4.78 8.15031L4.75 8.07031C3.89 8.31031 3.43 8.71031 3.07 8.99031L3.11 9.07031C3.46 8.79031 3.93 8.39031 4.78 8.15031Z" fill="#36383A"/>
<path fill-rule="evenodd" clip-rule="evenodd" d="M6.17969 7.4601L7.35969 5.8901C9.42969 6.2501 9.21969 4.8401 10.3197 5.4901C9.13969 5.5301 9.88969 6.3801 7.95969 7.1001L6.17969 7.4601Z" fill="#EDC806"/>
<path fill-rule="evenodd" clip-rule="evenodd" d="M9.49965 6.01909C9.27965 6.33909 8.99965 6.73909 7.95965 7.13909L7.92965 7.05909C8.96965 6.69909 9.24965 6.25909 9.42965 5.96909L9.49965 6.01909ZM10.3196 5.56909V5.44909C9.74965 5.48909 9.63965 5.68909 9.42965 5.96909L9.49965 6.01909C9.67965 5.76909 9.77965 5.56909 10.3196 5.56909ZM10.3496 5.44909L10.4896 5.52909L10.3096 5.56909V5.48909L10.3496 5.44909ZM9.20965 5.52909C9.56965 5.28909 9.77965 5.16909 10.3496 5.44909L10.3096 5.52909C9.77965 5.24909 9.56965 5.40909 9.27965 5.60909L9.20965 5.52909ZM7.34965 5.84909V5.92909C8.45965 6.12909 8.91965 5.84909 9.27965 5.60909L9.20965 5.52909C8.88965 5.72909 8.42965 6.04909 7.34965 5.84909ZM7.31965 5.84909H7.34965V5.88909L7.31965 5.84909ZM6.13965 7.41909L7.31965 5.84909L7.38965 5.92909L6.17965 7.45909L6.13965 7.41909Z" fill="#36383A"/>
<path fill-rule="evenodd" clip-rule="evenodd" d="M9.21027 5.81084C9.61027 5.49084 9.89027 5.29084 10.3203 5.45084V5.53084C9.89027 5.37084 9.64027 5.61084 9.25027 5.89084L9.21027 5.81084ZM7.53027 6.74084L7.56027 6.86084C8.42027 6.62084 8.88027 6.21084 9.24027 5.89084L9.21027 5.81084C8.86027 6.13084 8.39027 6.54084 7.53027 6.74084Z" fill="#36383A"/>
<path fill-rule="evenodd" clip-rule="evenodd" d="M6.18032 7.46L4.78032 6.09C5.10032 3.76 3.86032 4 4.43032 2.75C4.47032 4.08 5.22032 3.23 5.86032 5.41L6.18032 7.46Z" fill="#EDC806"/>
<path fill-rule="evenodd" clip-rule="evenodd" d="M4.8902 3.67984C5.1802 3.91984 5.5302 4.24984 5.8902 5.40984L5.8202 5.44984C5.4602 4.27984 5.1002 3.99984 4.8502 3.75984L4.8902 3.67984ZM4.4602 2.74984H4.3902C4.4202 3.38984 4.6002 3.54984 4.8502 3.75984L4.8902 3.67984C4.6402 3.47984 4.5002 3.35984 4.4602 2.74984ZM4.3902 2.74984L4.4602 2.58984V2.74984H4.3902ZM4.4602 3.99984C4.2502 3.63984 4.1102 3.35984 4.3902 2.74984L4.4602 2.78984C4.2102 3.35984 4.3602 3.59984 4.5302 3.95984L4.4602 3.99984ZM4.7502 6.08984H4.8202C5.0002 4.84984 4.7102 4.35984 4.5302 3.95984L4.4602 3.99984C4.6402 4.35984 4.8902 4.88984 4.7502 6.08984ZM4.7502 6.12984V6.08984H4.7902L4.7502 6.12984ZM6.1402 7.49984L4.7502 6.12984L4.8202 6.04984L6.1802 7.41984L6.1402 7.49984Z" fill="#36383A"/>
<path fill-rule="evenodd" clip-rule="evenodd" d="M4.71034 4C4.43034 3.56 4.25034 3.28 4.39034 2.75H4.46034C4.32034 3.24 4.50034 3.52 4.78034 3.96L4.71034 4ZM5.54034 5.89H5.65034C5.43034 4.89 5.07034 4.36 4.78034 3.96L4.71034 4C5.00034 4.4 5.36034 4.93 5.54034 5.89Z" fill="#36383A"/>
<path fill-rule="evenodd" clip-rule="evenodd" d="M6.17969 7.46094L7.53969 8.79094C7.21969 11.1309 8.46969 10.8809 7.89969 12.1309C7.85969 10.8409 7.10969 11.6909 6.46969 9.47094L6.17969 7.46094Z" fill="#EDC806"/>
<path fill-rule="evenodd" clip-rule="evenodd" d="M7.42965 11.2099C7.13965 11.0099 6.78965 10.6799 6.42965 9.47992H6.49965C6.85965 10.6099 7.20965 10.9299 7.45965 11.1699L7.42965 11.2099ZM7.85965 12.1299H7.92965C7.89965 11.4799 7.71965 11.3599 7.45965 11.1599L7.42965 11.1999C7.67965 11.4099 7.81965 11.5699 7.85965 12.1299ZM7.92965 12.1699L7.85965 12.3299V12.1299H7.89965L7.92965 12.1699ZM7.85965 10.9299C8.07965 11.2899 8.21965 11.5799 7.92965 12.1799L7.85965 12.1399C8.10965 11.5799 7.96965 11.2999 7.78965 10.9699L7.85965 10.9299ZM7.56965 8.82992L7.49965 8.78992C7.31965 10.0399 7.60965 10.5599 7.77965 10.9599L7.84965 10.9199C7.67965 10.5199 7.42965 10.0399 7.56965 8.82992ZM7.56965 8.74992L7.59965 8.78992L7.56965 8.82992L7.52965 8.78992L7.56965 8.74992ZM6.17965 7.41992L7.56965 8.74992L7.52965 8.82992L6.13965 7.49992L6.17965 7.41992Z" fill="#36383A"/>
<path fill-rule="evenodd" clip-rule="evenodd" d="M7.59996 10.8802C7.88996 11.3202 8.06996 11.6502 7.91996 12.1702L7.84996 12.1302C7.98996 11.6502 7.80996 11.3602 7.52996 10.9602L7.59996 10.8802ZM6.77996 8.99023L6.70996 9.03023C6.88996 10.0002 7.23996 10.5202 7.52996 10.9602L7.59996 10.8802C7.31996 10.4802 6.99996 9.96023 6.77996 8.99023Z" fill="#36383A"/>
<path fill-rule="evenodd" clip-rule="evenodd" d="M6.18035 7.46094H6.96035L6.18035 12.5409L5.36035 7.46094H6.18035Z" fill="#EDC806"/>
<path fill-rule="evenodd" clip-rule="evenodd" d="M6.21004 12.5399H6.11004V7.45992H6.22004V12.5399H6.21004ZM6.18004 7.41992V7.45992H6.22004V7.41992H6.18004ZM5.36004 7.41992V7.49992H6.18004V7.41992H5.36004ZM5.29004 7.41992H5.36004V7.45992H5.29004V7.41992ZM6.11004 12.5399H6.22004L5.39004 7.45992H5.29004L6.11004 12.5399ZM6.21004 12.5399H6.11004L6.18004 12.7799L6.21004 12.5399ZM7.03004 7.45992H6.93004L6.11004 12.5299H6.22004L7.03004 7.45992ZM6.96004 7.41992H7.03004V7.45992H6.96004V7.41992ZM6.18004 7.41992V7.49992H6.96004V7.41992H6.18004Z" fill="#36383A"/>
<path fill-rule="evenodd" clip-rule="evenodd" d="M6.18035 7.45961H5.36035L6.18035 2.34961L6.96035 7.45961H6.18035Z" fill="#EDC806"/>
<path fill-rule="evenodd" clip-rule="evenodd" d="M6.11004 2.34938H6.22004V7.45937H6.11004V2.34938ZM6.18004 7.49937V7.45937H6.11004V7.49937H6.18004ZM6.96004 7.49937V7.41937H6.18004V7.49937H6.96004ZM7.03004 7.49937H6.96004V7.45937H7.03004V7.49937ZM6.21004 2.34938L6.11004 2.38937L6.93004 7.45937H7.04004L6.21004 2.34938ZM6.11004 2.34938H6.22004L6.18004 2.10938L6.11004 2.34938ZM5.29004 7.45937H5.40004L6.22004 2.38937L6.11004 2.34938L5.29004 7.45937ZM5.36004 7.49937H5.29004V7.45937H5.36004V7.49937ZM6.18004 7.49937V7.41937H5.36004V7.49937H6.18004Z" fill="#36383A"/>
<path fill-rule="evenodd" clip-rule="evenodd" d="M6.17965 7.45906V8.38906L1.63965 7.45906L6.17965 6.53906V7.45906Z" fill="#EDC806"/>
<path fill-rule="evenodd" clip-rule="evenodd" d="M6.17969 7.50094H1.63969V7.42094H6.16969V7.50094H6.17969ZM6.20969 7.50094V7.46094H6.17969V7.50094H6.20969ZM6.20969 7.46094V6.54094H6.10969V7.47094H6.20969V7.46094ZM6.13969 6.50094L6.20969 6.46094V6.54094H6.17969L6.13969 6.50094ZM1.63969 7.42094L1.67969 7.50094L6.17969 6.57094L6.13969 6.50094L1.63969 7.42094ZM1.63969 7.50094V7.42094L1.42969 7.46094L1.63969 7.50094ZM6.13969 8.43094L6.17969 8.35094L1.67969 7.42094L1.63969 7.50094L6.13969 8.43094ZM6.20969 8.39094V8.43094H6.13969L6.17969 8.39094H6.20969ZM6.20969 8.39094V7.46094H6.10969V8.38094H6.20969V8.39094Z" fill="#36383A"/>
<path fill-rule="evenodd" clip-rule="evenodd" d="M6.17969 7.45906V6.53906L10.6797 7.45906L6.17969 8.38906V7.45906Z" fill="#EDC806"/>
<path fill-rule="evenodd" clip-rule="evenodd" d="M6.18035 7.42094H10.6804V7.50094H6.18035V7.42094ZM6.11035 7.42094V7.46094H6.18035V7.42094H6.11035ZM6.11035 7.46094V8.38094H6.22035V7.46094H6.11035ZM6.18035 8.43094H6.11035V8.39094H6.18035V8.43094ZM10.6804 7.50094L10.6404 7.42094L6.14035 8.35094L6.18035 8.43094L10.6804 7.50094ZM10.6804 7.42094V7.50094L10.9004 7.46094L10.6804 7.42094ZM6.18035 6.50094L6.14035 6.58094L10.6404 7.50094L10.6804 7.42094L6.18035 6.50094ZM6.11035 6.54094V6.46094L6.18035 6.50094V6.54094H6.11035ZM6.11035 6.54094V7.47094H6.22035V6.54094H6.11035Z" fill="#36383A"/>
<path fill-rule="evenodd" clip-rule="evenodd" d="M6.17996 7.4593L6.74996 8.1093L2.95996 11.0493L5.56996 6.7793L6.17996 7.4593Z" fill="#EDC806"/>
<path fill-rule="evenodd" clip-rule="evenodd" d="M6.18031 7.50023L3.00031 11.0902L2.97031 11.0102L6.15031 7.42023L6.18031 7.50023ZM6.18031 7.42023V7.50023L6.22031 7.46023L6.18031 7.42023ZM5.61031 6.78023L5.54031 6.82023L6.14031 7.50023L6.18031 7.42023L5.61031 6.78023ZM5.54031 6.78023L5.57031 6.74023L5.60031 6.78023H5.54031ZM2.93031 11.0102L3.00031 11.0902L5.61031 6.82023L5.54031 6.78023L2.93031 11.0102ZM3.00031 11.0902L2.97031 11.0502L2.93031 11.0102L2.82031 11.2502L3.00031 11.0902ZM6.75031 8.15023L6.71031 8.07023L2.96031 11.0102L3.00031 11.0902L6.75031 8.15023ZM6.78031 8.07023L6.81031 8.11023L6.75031 8.15023V8.11023L6.78031 8.07023ZM6.18031 7.42023L6.14031 7.50023L6.71031 8.14023L6.78031 8.06023L6.18031 7.42023Z" fill="#36383A"/>
<path fill-rule="evenodd" clip-rule="evenodd" d="M6.18031 7.45984L5.57031 6.77984L9.35031 3.83984L6.75031 8.10984L6.18031 7.45984Z" fill="#EDC806"/>
<path fill-rule="evenodd" clip-rule="evenodd" d="M6.14004 7.41969L9.32004 3.83969L9.39004 3.87969L6.18004 7.49969L6.14004 7.41969ZM6.14004 7.49969L6.18004 7.45969L6.14004 7.41969L6.11004 7.45969L6.14004 7.49969ZM6.71004 8.14969L6.78004 8.06969L6.18004 7.41969L6.14004 7.49969L6.71004 8.14969ZM6.78004 8.14969L6.75004 8.18969L6.71004 8.14969L6.75004 8.10969L6.78004 8.14969ZM9.39004 3.87969L9.32004 3.83969L6.71004 8.06969L6.78004 8.14969L9.39004 3.87969ZM9.32004 3.79969L9.36004 3.83969L9.40004 3.87969L9.51004 3.67969L9.32004 3.79969ZM5.57004 6.77969L5.60004 6.81969L9.35004 3.87969L9.32004 3.79969L5.57004 6.77969ZM5.54004 6.81969V6.77969H5.57004L5.54004 6.81969ZM6.14004 7.49969L6.18004 7.41969L5.61004 6.77969L5.54004 6.81969L6.14004 7.49969Z" fill="#36383A"/>
<path fill-rule="evenodd" clip-rule="evenodd" d="M6.17996 7.45984L5.56996 8.10984L2.95996 3.83984L6.74996 6.77984L6.17996 7.45984Z" fill="#EDC806"/>
<path fill-rule="evenodd" clip-rule="evenodd" d="M6.14031 7.49969L2.96031 3.87969L3.00031 3.83969L6.18031 7.41969L6.14031 7.49969ZM6.18031 7.49969V7.45969L6.14031 7.49969H6.18031ZM6.78031 6.81969L6.71031 6.77969L6.14031 7.41969L6.18031 7.49969L6.78031 6.81969ZM6.75031 6.77969H6.82031L6.78031 6.81969L6.75031 6.77969ZM3.00031 3.79969L2.96031 3.87969L6.71031 6.81969L6.75031 6.77969L3.00031 3.79969ZM2.93031 3.87969L2.97031 3.83969L3.00031 3.79969L2.82031 3.67969L2.93031 3.87969ZM5.54031 8.14969L5.61031 8.06969L3.00031 3.83969L2.93031 3.87969L5.54031 8.14969ZM5.61031 8.14969L5.57031 8.18969L5.54031 8.14969L5.57031 8.10969L5.61031 8.14969ZM6.18031 7.49969L6.14031 7.41969L5.54031 8.06969L5.61031 8.14969L6.18031 7.49969Z" fill="#36383A"/>
<path fill-rule="evenodd" clip-rule="evenodd" d="M6.18031 7.4593L6.75031 6.7793L9.35031 11.0493L5.57031 8.1093L6.18031 7.4593Z" fill="#EDC806"/>
<path fill-rule="evenodd" clip-rule="evenodd" d="M6.18004 7.42023L9.39004 11.0102L9.32004 11.0902L6.14004 7.50023L6.18004 7.42023ZM6.14004 7.42023L6.18004 7.46023V7.38023L6.14004 7.42023ZM5.54004 8.07023L5.61004 8.15023L6.18004 7.50023L6.14004 7.42023L5.54004 8.07023ZM5.57004 8.15023L5.54004 8.11023V8.07023L5.57004 8.11023V8.15023ZM9.32004 11.0902L9.36004 11.0102L5.61004 8.07023L5.57004 8.15023L9.32004 11.0902ZM9.39004 11.0102L9.35004 11.0502L9.31004 11.0902L9.49004 11.2502L9.39004 11.0102ZM6.78004 6.78023L6.71004 6.82023L9.32004 11.0902L9.39004 11.0102L6.78004 6.78023ZM6.71004 6.78023L6.75004 6.74023L6.79004 6.78023H6.71004ZM6.14004 7.42023L6.18004 7.50023L6.79004 6.81023L6.71004 6.78023L6.14004 7.42023Z" fill="#36383A"/>
<path fill-rule="evenodd" clip-rule="evenodd" d="M7.67965 7.45953C7.67965 6.49953 6.99965 5.76953 6.17965 5.76953C5.31965 5.76953 4.63965 6.49953 4.63965 7.46953C4.63965 8.38953 5.31965 9.15953 6.17965 9.15953C6.99965 9.14953 7.67965 8.38953 7.67965 7.45953Z" fill="#EDC806"/>
<path fill-rule="evenodd" clip-rule="evenodd" d="M7.17961 8.62945C7.45961 8.30945 7.59961 7.90945 7.59961 7.46945H7.70961C7.70961 7.94945 7.52961 8.35945 7.24961 8.67945L7.17961 8.62945ZM6.17961 9.10945V9.18945C6.56961 9.18945 6.95961 8.98945 7.24961 8.66945L7.17961 8.62945C6.92961 8.90945 6.56961 9.10945 6.17961 9.10945ZM5.13961 8.62945C5.38961 8.90945 5.73961 9.10945 6.17961 9.10945V9.18945C5.74961 9.18945 5.35961 8.98945 5.06961 8.66945L5.13961 8.62945ZM4.70961 7.45945H4.59961C4.59961 7.93945 4.77961 8.33945 5.06961 8.66945L5.13961 8.62945C4.85331 8.30797 4.69963 7.88983 4.70961 7.45945ZM5.13961 6.29945C4.84961 6.57945 4.70961 6.97945 4.70961 7.46945H4.59961C4.59961 6.98945 4.77961 6.53945 5.06961 6.21945L5.13961 6.29945ZM6.17961 5.80945V5.68945C5.74961 5.68945 5.35961 5.88945 5.06961 6.20945L5.13961 6.29945C5.38961 5.97945 5.74961 5.80945 6.17961 5.80945ZM7.17961 6.29945C7.06163 6.1473 6.90985 6.02472 6.73627 5.9414C6.5627 5.85809 6.37212 5.81634 6.17961 5.81945V5.68945C6.56961 5.68945 6.95961 5.88945 7.24961 6.20945L7.17961 6.29945ZM7.59961 7.45945H7.70961C7.70961 6.97945 7.52961 6.52945 7.24961 6.20945L7.17961 6.29945C7.45961 6.57945 7.59961 6.97945 7.59961 7.45945ZM7.24961 6.77945C7.17961 6.89945 7.09961 6.69945 6.77961 6.69945C6.41961 6.69945 6.38961 6.89945 6.31961 6.85945C6.27961 6.81945 6.60961 6.53945 6.70961 6.53945C6.81961 6.49945 7.13961 6.61945 7.24961 6.77945ZM6.85961 6.89945C6.96961 7.01945 6.88961 7.21945 6.78961 7.21945C6.67961 7.21945 6.49961 7.01945 6.60961 6.89945H6.85961Z" fill="#36383A"/>
<path fill-rule="evenodd" clip-rule="evenodd" d="M6.42969 7.06031C6.42969 6.86031 6.56969 6.82031 6.78969 6.82031C6.99969 6.82031 7.10969 7.02031 7.17969 7.06031C7.09969 7.06031 6.99969 6.90031 6.77969 6.90031C6.56969 6.90031 6.56969 6.90031 6.42969 7.06031Z" fill="#36383A"/>
<path fill-rule="evenodd" clip-rule="evenodd" d="M6.45992 7.0993C6.49992 7.0193 6.56992 7.1793 6.74992 7.1793C6.88992 7.1793 6.95992 7.1393 7.06992 7.0593C7.13992 6.9793 6.92992 7.2593 6.77992 7.2593C6.63992 7.2593 6.42992 7.1393 6.45992 7.0993Z" fill="#36383A"/>
<path fill-rule="evenodd" clip-rule="evenodd" d="M6.93035 7.18039C7.10035 7.10039 7.00035 6.94039 6.93035 6.90039C6.96035 6.94039 7.07035 7.10039 6.93035 7.18039ZM6.18035 8.11039C6.25035 8.11039 6.29035 8.07039 6.39035 8.07039C6.50035 8.07039 6.75035 8.27039 6.89035 8.19039C6.57035 8.35039 6.71035 8.23039 6.18035 8.23039H6.11035L6.18035 8.11039Z" fill="#36383A"/>
<path fill-rule="evenodd" clip-rule="evenodd" d="M6.96027 8.35031C6.89027 8.23031 6.93027 8.27031 6.78027 8.07031C6.93027 8.19031 6.93027 8.23031 6.96027 8.35031Z" fill="#36383A"/>
<path fill-rule="evenodd" clip-rule="evenodd" d="M6.18031 8.47096C6.50031 8.47096 6.47031 8.39096 6.89031 8.19096C6.57031 8.23096 6.50031 8.35096 6.18031 8.35096H6.11031L6.18031 8.47096ZM6.18031 7.91096C6.25031 7.91096 6.29031 7.83096 6.39031 7.83096C6.50031 7.83096 6.64031 7.87096 6.71031 7.95096C6.75031 7.95096 6.68031 7.83096 6.57031 7.83096C6.46031 7.79096 6.50031 7.58096 6.39031 7.54096C6.39031 7.62096 6.43031 7.62096 6.43031 7.70096C6.43031 7.78096 6.32031 7.78096 6.29031 7.70096C6.33031 7.82096 6.22031 7.82096 6.18031 7.82096V7.91096ZM5.07031 6.78096C5.14031 6.90096 5.21031 6.70096 5.54031 6.70096C5.89031 6.70096 5.93031 6.90096 6.00031 6.86096C6.03031 6.82096 5.71031 6.54096 5.60031 6.54096C5.50031 6.50096 5.18031 6.62096 5.07031 6.78096ZM5.46031 6.90096C5.36031 7.02096 5.43031 7.22096 5.54031 7.22096C5.65031 7.22096 5.82031 7.02096 5.72031 6.90096H5.46031Z" fill="#36383A"/>
<path fill-rule="evenodd" clip-rule="evenodd" d="M5.88965 7.06031C5.88965 6.86031 5.74965 6.82031 5.52965 6.82031C5.30965 6.82031 5.20965 7.02031 5.13965 7.06031C5.24965 7.06031 5.31965 6.90031 5.52965 6.90031C5.74965 6.90031 5.74965 6.90031 5.88965 7.06031Z" fill="#36383A"/>
<path fill-rule="evenodd" clip-rule="evenodd" d="M5.86021 7.0993C5.82021 7.0193 5.75021 7.1793 5.57021 7.1793C5.45191 7.18293 5.33694 7.13982 5.25021 7.0593C5.18021 6.9793 5.39021 7.2593 5.54021 7.2593C5.71021 7.2593 5.89021 7.1393 5.86021 7.0993Z" fill="#36383A"/>
<path fill-rule="evenodd" clip-rule="evenodd" d="M5.38992 7.18039C5.20992 7.10039 5.31992 6.94039 5.38992 6.90039C5.35992 6.94039 5.24992 7.10039 5.38992 7.18039ZM6.17992 8.11039C6.06992 8.11039 6.03992 8.07039 5.92992 8.07039C5.81992 8.07039 5.56992 8.27039 5.42992 8.19039C5.74992 8.35039 5.60992 8.23039 6.17992 8.23039H6.21992L6.17992 8.11039Z" fill="#36383A"/>
<path fill-rule="evenodd" clip-rule="evenodd" d="M5.36035 8.35031C5.43035 8.23031 5.43035 8.27031 5.54035 8.07031C5.43035 8.19031 5.39035 8.23031 5.36035 8.35031Z" fill="#36383A"/>
<path fill-rule="evenodd" clip-rule="evenodd" d="M6.17969 8.47078C5.81969 8.47078 5.88969 8.39078 5.42969 8.19078C5.74969 8.23078 5.81969 8.35078 6.17969 8.35078H6.21969L6.17969 8.47078ZM6.17969 7.91078C6.06969 7.91078 6.03969 7.83078 5.92969 7.83078C5.81969 7.83078 5.67969 7.87078 5.60969 7.95078C5.57969 7.95078 5.64969 7.83078 5.74969 7.83078C5.85969 7.79078 5.81969 7.59078 5.92969 7.55078C5.92969 7.63078 5.88969 7.63078 5.88969 7.71078C5.88969 7.79078 5.99969 7.79078 6.02969 7.71078C5.99969 7.83078 6.10969 7.83078 6.17969 7.83078V7.91078ZM6.17969 8.63078C6.10969 8.63078 5.92969 8.67078 6.17969 8.67078C6.38969 8.67078 6.20969 8.63078 6.17969 8.63078Z" fill="#36383A"/>
</g>
</g>
<defs>
<clipPath id="clip0_26003_74105">
<rect width="38" height="25" fill="white" transform="translate(0 0.5)"/>
</clipPath>
<clipPath id="clip1_26003_74105">
<rect width="38" height="25" fill="white" transform="translate(0 0.5)"/>
</clipPath>
</defs>
</svg>
