<svg width="39" height="26" viewBox="0 0 39 26" fill="none" xmlns="http://www.w3.org/2000/svg">
<g clip-path="url(#clip0_26003_91533)">
<g clip-path="url(#clip1_26003_91533)">
<path fill-rule="evenodd" clip-rule="evenodd" d="M0.666992 13H38.667V3.4C38.467 1.9 37.467 0.7 36.167 0.5H3.16699C1.86699 0.7 0.866992 1.9 0.666992 3.4V13Z" fill="#DA2440"/>
<path fill-rule="evenodd" clip-rule="evenodd" d="M3.16699 25.5H36.167C37.467 25.3 38.467 24.1 38.667 22.6V13H0.666992V22.6C0.866992 24.1 1.86699 25.3 3.16699 25.5ZM12.067 6.7C12.067 9.3 10.167 11.4 7.86699 11.4C5.56699 11.4 3.66699 9.3 3.66699 6.7C3.66699 4.1 5.56699 2 7.86699 2C10.167 2.1 12.067 4.2 12.067 6.7Z" fill="#FEFEFE"/>
<path fill-rule="evenodd" clip-rule="evenodd" d="M13.3674 6.70078C13.3674 9.20078 11.5674 11.1008 9.46738 11.1008C7.26738 11.1008 5.56738 9.10078 5.56738 6.70078C5.56738 4.30078 7.36738 2.30078 9.46738 2.30078C11.6674 2.30078 13.3674 4.30078 13.3674 6.70078Z" fill="#DA2440"/>
<path fill-rule="evenodd" clip-rule="evenodd" d="M8.4668 6.90039L7.8668 6.40039L7.2668 6.90039L7.4668 6.10039L6.9668 5.60039H7.6668L7.8668 4.80039L8.0668 5.60039H8.7668L8.1668 6.10039L8.4668 6.90039ZM12.8668 6.90039L12.2668 6.40039L11.7668 6.90039L11.9668 6.10039L11.3668 5.60039H12.0668L12.2668 4.80039L12.4668 5.60039H13.1668L12.6668 6.10039L12.8668 6.90039ZM10.6668 5.00039L10.0668 4.50039L9.4668 5.00039L9.7668 4.20039L9.1668 3.70039H9.8668L10.0668 2.90039L10.2668 3.70039H10.9668L10.4668 4.20039L10.6668 5.00039ZM9.2668 9.80039L8.6668 9.40039L8.0668 9.80039L8.3668 9.00039L7.7668 8.60039H8.4668L8.6668 7.80039L8.8668 8.60039H9.5668L9.0668 9.00039L9.2668 9.80039ZM12.0668 9.80039L11.4668 9.40039L10.8668 9.80039L11.0668 9.00039L10.5668 8.60039H11.2668L11.4668 7.80039L11.6668 8.60039H12.3668L11.7668 9.00039L12.0668 9.80039Z" fill="#FEFEFE"/>
</g>
</g>
<defs>
<clipPath id="clip0_26003_91533">
<rect width="38" height="25" fill="white" transform="translate(0.666992 0.5)"/>
</clipPath>
<clipPath id="clip1_26003_91533">
<rect width="38" height="25" fill="white" transform="translate(0.666992 0.5)"/>
</clipPath>
</defs>
</svg>
