<svg width="38" height="26" viewBox="0 0 38 26" fill="none" xmlns="http://www.w3.org/2000/svg">
<g clip-path="url(#clip0_26003_90551)">
<g clip-path="url(#clip1_26003_90551)">
<path fill-rule="evenodd" clip-rule="evenodd" d="M0 8.5H38V3.4C37.8 1.9 36.8 0.7 35.5 0.5H2.5C1.2 0.7 0.2 1.9 0 3.4V8.5Z" fill="#4497B4"/>
<path fill-rule="evenodd" clip-rule="evenodd" d="M0 8.5H38V9H0V8.5Z" fill="#C12837"/>
<path fill-rule="evenodd" clip-rule="evenodd" d="M0 9H38V17H0V9Z" fill="#FEFEFE"/>
<path fill-rule="evenodd" clip-rule="evenodd" d="M0 17H38V17.5H0V17Z" fill="#C12837"/>
<path fill-rule="evenodd" clip-rule="evenodd" d="M2.5 25.5H35.5C36.8 25.3 37.8 24.1 38 22.6V17.5H0V22.6C0.2 24.1 1.2 25.3 2.5 25.5Z" fill="#48B040"/>
<path fill-rule="evenodd" clip-rule="evenodd" d="M8.9 4.5C8.9 6.2 7.7 7.5 6.2 7.5C4.7 7.5 3.5 6.2 3.5 4.5C3.5 2.8 4.7 1.5 6.2 1.5C7.7 1.5 8.9 2.8 8.9 4.5Z" fill="#FEFEFE"/>
<path fill-rule="evenodd" clip-rule="evenodd" d="M9.6002 4.5C9.6002 5.9 8.6002 7 7.4002 7C6.2002 7 5.2002 5.9 5.2002 4.5C5.2002 3.1 6.2002 2 7.4002 2C8.6002 2 9.6002 3.1 9.6002 4.5Z" fill="#4497B4"/>
<path fill-rule="evenodd" clip-rule="evenodd" d="M12.8998 1.5L12.7998 2.1L12.9998 2.2L12.8998 1.5Z" fill="#FEFEFE"/>
<path fill-rule="evenodd" clip-rule="evenodd" d="M12.9004 1.5L13.1004 2.1L12.9004 2.2V1.5Z" fill="#FEFEFE"/>
<path fill-rule="evenodd" clip-rule="evenodd" d="M13.5004 1.90039H12.9004V2.20039L13.5004 1.90039Z" fill="#FEFEFE"/>
<path fill-rule="evenodd" clip-rule="evenodd" d="M13.5004 1.90039L13.0004 2.30039L12.9004 2.00039L13.5004 1.90039Z" fill="#FEFEFE"/>
<path fill-rule="evenodd" clip-rule="evenodd" d="M12.4004 1.90039L12.9004 2.30039L13.0004 2.00039L12.4004 1.90039Z" fill="#FEFEFE"/>
<path fill-rule="evenodd" clip-rule="evenodd" d="M12.4004 1.90039H13.0004V2.20039L12.4004 1.90039Z" fill="#FEFEFE"/>
<path fill-rule="evenodd" clip-rule="evenodd" d="M13.2998 2.6L13.0998 2L12.7998 2.1L13.2998 2.6Z" fill="#FEFEFE"/>
<path fill-rule="evenodd" clip-rule="evenodd" d="M13.2998 2.6L12.7998 2.2L12.9998 2L13.2998 2.6Z" fill="#FEFEFE"/>
<path fill-rule="evenodd" clip-rule="evenodd" d="M12.5996 2.6L13.0996 2.2L12.8996 2L12.5996 2.6Z" fill="#FEFEFE"/>
<path fill-rule="evenodd" clip-rule="evenodd" d="M12.5996 2.6L12.7996 2L12.9996 2.1L12.5996 2.6ZM15.0996 1.5L14.8996 2.1L15.1996 2.2L15.0996 1.5Z" fill="#FEFEFE"/>
<path fill-rule="evenodd" clip-rule="evenodd" d="M15.1 1.5L15.2 2.1L15 2.2L15.1 1.5Z" fill="#FEFEFE"/>
<path fill-rule="evenodd" clip-rule="evenodd" d="M15.6 1.90039H15V2.20039L15.6 1.90039Z" fill="#FEFEFE"/>
<path fill-rule="evenodd" clip-rule="evenodd" d="M15.6 1.90039L15.1 2.30039L15 2.00039L15.6 1.90039Z" fill="#FEFEFE"/>
<path fill-rule="evenodd" clip-rule="evenodd" d="M14.5996 1.90039L14.9996 2.30039L15.1996 2.00039L14.5996 1.90039Z" fill="#FEFEFE"/>
<path fill-rule="evenodd" clip-rule="evenodd" d="M14.5996 1.90039H15.0996V2.20039L14.5996 1.90039Z" fill="#FEFEFE"/>
<path fill-rule="evenodd" clip-rule="evenodd" d="M15.4 2.6L15.2 2L15 2.1L15.4 2.6Z" fill="#FEFEFE"/>
<path fill-rule="evenodd" clip-rule="evenodd" d="M15.4 2.6L15 2.2L15.1 2L15.4 2.6Z" fill="#FEFEFE"/>
<path fill-rule="evenodd" clip-rule="evenodd" d="M14.7998 2.6L15.1998 2.2L14.9998 2L14.7998 2.6Z" fill="#FEFEFE"/>
<path fill-rule="evenodd" clip-rule="evenodd" d="M14.7998 2.6L14.8998 2L15.1998 2.1L14.7998 2.6ZM17.1998 1.5L16.9998 2.1L17.2998 2.2L17.1998 1.5Z" fill="#FEFEFE"/>
<path fill-rule="evenodd" clip-rule="evenodd" d="M17.1996 1.5L17.3996 2.1L17.0996 2.2L17.1996 1.5Z" fill="#FEFEFE"/>
<path fill-rule="evenodd" clip-rule="evenodd" d="M17.7002 1.90039H17.2002V2.20039L17.7002 1.90039Z" fill="#FEFEFE"/>
<path fill-rule="evenodd" clip-rule="evenodd" d="M17.6996 1.90039L17.2996 2.30039L17.0996 2.00039L17.6996 1.90039Z" fill="#FEFEFE"/>
<path fill-rule="evenodd" clip-rule="evenodd" d="M16.7002 1.90039L17.1002 2.30039L17.3002 2.00039L16.7002 1.90039Z" fill="#FEFEFE"/>
<path fill-rule="evenodd" clip-rule="evenodd" d="M16.7002 1.90039H17.2002V2.20039L16.7002 1.90039Z" fill="#FEFEFE"/>
<path fill-rule="evenodd" clip-rule="evenodd" d="M17.4996 2.6L17.2996 2L17.0996 2.1L17.4996 2.6Z" fill="#FEFEFE"/>
<path fill-rule="evenodd" clip-rule="evenodd" d="M17.4996 2.6L17.0996 2.2L17.1996 2L17.4996 2.6Z" fill="#FEFEFE"/>
<path fill-rule="evenodd" clip-rule="evenodd" d="M16.9004 2.6L17.3004 2.2L17.2004 2L16.9004 2.6Z" fill="#FEFEFE"/>
<path fill-rule="evenodd" clip-rule="evenodd" d="M16.9002 2.6L17.1002 2L17.3002 2.1L16.9002 2.6ZM10.8002 3.9L10.7002 4.5L10.9002 4.6L10.8002 3.9Z" fill="#FEFEFE"/>
<path fill-rule="evenodd" clip-rule="evenodd" d="M10.8002 3.90039L11.0002 4.50039L10.7002 4.60039L10.8002 3.90039Z" fill="#FEFEFE"/>
<path fill-rule="evenodd" clip-rule="evenodd" d="M11.2998 4.30078H10.7998V4.60078L11.2998 4.30078Z" fill="#FEFEFE"/>
<path fill-rule="evenodd" clip-rule="evenodd" d="M11.3002 4.30078L10.9002 4.70078L10.7002 4.40078L11.3002 4.30078Z" fill="#FEFEFE"/>
<path fill-rule="evenodd" clip-rule="evenodd" d="M10.2998 4.30078L10.6998 4.70078L10.8998 4.40078L10.2998 4.30078Z" fill="#FEFEFE"/>
<path fill-rule="evenodd" clip-rule="evenodd" d="M10.2998 4.30078H10.7998V4.60078L10.2998 4.30078Z" fill="#FEFEFE"/>
<path fill-rule="evenodd" clip-rule="evenodd" d="M11.1002 5.00039L11.0002 4.40039L10.7002 4.50039L11.1002 5.00039Z" fill="#FEFEFE"/>
<path fill-rule="evenodd" clip-rule="evenodd" d="M11.1002 5.00039L10.7002 4.60039L10.9002 4.40039L11.1002 5.00039Z" fill="#FEFEFE"/>
<path fill-rule="evenodd" clip-rule="evenodd" d="M10.5 5.00039L10.9 4.60039L10.8 4.40039L10.5 5.00039Z" fill="#FEFEFE"/>
<path fill-rule="evenodd" clip-rule="evenodd" d="M10.5 5.00039L10.7 4.40039L10.9 4.50039L10.5 5.00039ZM12.9 3.90039L12.8 4.50039L13 4.60039L12.9 3.90039Z" fill="#FEFEFE"/>
<path fill-rule="evenodd" clip-rule="evenodd" d="M12.9004 3.90039L13.1004 4.50039L12.9004 4.60039V3.90039Z" fill="#FEFEFE"/>
<path fill-rule="evenodd" clip-rule="evenodd" d="M13.5004 4.30078H12.9004V4.60078L13.5004 4.30078Z" fill="#FEFEFE"/>
<path fill-rule="evenodd" clip-rule="evenodd" d="M13.5004 4.30078L13.0004 4.70078L12.9004 4.40078L13.5004 4.30078Z" fill="#FEFEFE"/>
<path fill-rule="evenodd" clip-rule="evenodd" d="M12.4004 4.30078L12.9004 4.70078L13.0004 4.40078L12.4004 4.30078Z" fill="#FEFEFE"/>
<path fill-rule="evenodd" clip-rule="evenodd" d="M12.4004 4.30078H13.0004V4.60078L12.4004 4.30078Z" fill="#FEFEFE"/>
<path fill-rule="evenodd" clip-rule="evenodd" d="M13.2998 5.00039L13.0998 4.40039L12.7998 4.50039L13.2998 5.00039Z" fill="#FEFEFE"/>
<path fill-rule="evenodd" clip-rule="evenodd" d="M13.2998 5.00039L12.7998 4.60039L12.9998 4.40039L13.2998 5.00039Z" fill="#FEFEFE"/>
<path fill-rule="evenodd" clip-rule="evenodd" d="M12.5996 5.00039L13.0996 4.60039L12.8996 4.40039L12.5996 5.00039Z" fill="#FEFEFE"/>
<path fill-rule="evenodd" clip-rule="evenodd" d="M12.5996 5.00039L12.7996 4.40039L12.9996 4.50039L12.5996 5.00039ZM15.0996 3.90039L14.8996 4.50039L15.1996 4.60039L15.0996 3.90039Z" fill="#FEFEFE"/>
<path fill-rule="evenodd" clip-rule="evenodd" d="M15.1 3.90039L15.2 4.50039L15 4.60039L15.1 3.90039Z" fill="#FEFEFE"/>
<path fill-rule="evenodd" clip-rule="evenodd" d="M15.6 4.30078H15V4.60078L15.6 4.30078Z" fill="#FEFEFE"/>
<path fill-rule="evenodd" clip-rule="evenodd" d="M15.6 4.30078L15.1 4.70078L15 4.40078L15.6 4.30078Z" fill="#FEFEFE"/>
<path fill-rule="evenodd" clip-rule="evenodd" d="M14.5996 4.30078L14.9996 4.70078L15.1996 4.40078L14.5996 4.30078Z" fill="#FEFEFE"/>
<path fill-rule="evenodd" clip-rule="evenodd" d="M14.5996 4.30078H15.0996V4.60078L14.5996 4.30078Z" fill="#FEFEFE"/>
<path fill-rule="evenodd" clip-rule="evenodd" d="M15.4 5.00039L15.2 4.40039L15 4.50039L15.4 5.00039Z" fill="#FEFEFE"/>
<path fill-rule="evenodd" clip-rule="evenodd" d="M15.4 5.00039L15 4.60039L15.1 4.40039L15.4 5.00039Z" fill="#FEFEFE"/>
<path fill-rule="evenodd" clip-rule="evenodd" d="M14.7998 5.00039L15.1998 4.60039L14.9998 4.40039L14.7998 5.00039Z" fill="#FEFEFE"/>
<path fill-rule="evenodd" clip-rule="evenodd" d="M14.7998 5.00039L14.8998 4.40039L15.1998 4.50039L14.7998 5.00039ZM17.1998 3.90039L16.9998 4.50039L17.2998 4.60039L17.1998 3.90039Z" fill="#FEFEFE"/>
<path fill-rule="evenodd" clip-rule="evenodd" d="M17.1996 3.90039L17.3996 4.50039L17.0996 4.60039L17.1996 3.90039Z" fill="#FEFEFE"/>
<path fill-rule="evenodd" clip-rule="evenodd" d="M17.7002 4.30078H17.2002V4.60078L17.7002 4.30078Z" fill="#FEFEFE"/>
<path fill-rule="evenodd" clip-rule="evenodd" d="M17.6996 4.30078L17.2996 4.70078L17.0996 4.40078L17.6996 4.30078Z" fill="#FEFEFE"/>
<path fill-rule="evenodd" clip-rule="evenodd" d="M16.7002 4.30078L17.1002 4.70078L17.3002 4.40078L16.7002 4.30078Z" fill="#FEFEFE"/>
<path fill-rule="evenodd" clip-rule="evenodd" d="M16.7002 4.30078H17.2002V4.60078L16.7002 4.30078Z" fill="#FEFEFE"/>
<path fill-rule="evenodd" clip-rule="evenodd" d="M17.4996 5.00039L17.2996 4.40039L17.0996 4.50039L17.4996 5.00039Z" fill="#FEFEFE"/>
<path fill-rule="evenodd" clip-rule="evenodd" d="M17.4996 5.00039L17.0996 4.60039L17.1996 4.40039L17.4996 5.00039Z" fill="#FEFEFE"/>
<path fill-rule="evenodd" clip-rule="evenodd" d="M16.9004 5.00039L17.3004 4.60039L17.2004 4.40039L16.9004 5.00039Z" fill="#FEFEFE"/>
<path fill-rule="evenodd" clip-rule="evenodd" d="M16.9 5.00039L17.1 4.40039L17.3 4.50039L16.9 5.00039ZM8.7 6.30039L8.5 6.90039L8.8 7.00039L8.7 6.30039Z" fill="#FEFEFE"/>
<path fill-rule="evenodd" clip-rule="evenodd" d="M8.69961 6.30078L8.89961 6.90078L8.59961 7.00078L8.69961 6.30078Z" fill="#FEFEFE"/>
<path fill-rule="evenodd" clip-rule="evenodd" d="M9.2002 6.69922H8.7002V6.99922L9.2002 6.69922Z" fill="#FEFEFE"/>
<path fill-rule="evenodd" clip-rule="evenodd" d="M9.19961 6.69922L8.79961 7.09922L8.59961 6.79922L9.19961 6.69922Z" fill="#FEFEFE"/>
<path fill-rule="evenodd" clip-rule="evenodd" d="M8.2002 6.69922L8.6002 7.09922L8.8002 6.79922L8.2002 6.69922Z" fill="#FEFEFE"/>
<path fill-rule="evenodd" clip-rule="evenodd" d="M8.2002 6.69922H8.7002V6.99922L8.2002 6.69922Z" fill="#FEFEFE"/>
<path fill-rule="evenodd" clip-rule="evenodd" d="M8.99961 7.40078L8.79961 6.80078L8.59961 6.90078L8.99961 7.40078Z" fill="#FEFEFE"/>
<path fill-rule="evenodd" clip-rule="evenodd" d="M8.99961 7.40078L8.59961 7.00078L8.69961 6.80078L8.99961 7.40078Z" fill="#FEFEFE"/>
<path fill-rule="evenodd" clip-rule="evenodd" d="M8.40039 7.40078L8.80039 7.00078L8.60039 6.80078L8.40039 7.40078Z" fill="#FEFEFE"/>
<path fill-rule="evenodd" clip-rule="evenodd" d="M8.40039 7.40078L8.50039 6.80078L8.80039 6.90078L8.40039 7.40078ZM10.8004 6.30078L10.7004 6.90078L10.9004 7.00078L10.8004 6.30078Z" fill="#FEFEFE"/>
<path fill-rule="evenodd" clip-rule="evenodd" d="M10.8002 6.30078L11.0002 6.90078L10.7002 7.00078L10.8002 6.30078Z" fill="#FEFEFE"/>
<path fill-rule="evenodd" clip-rule="evenodd" d="M11.2998 6.69922H10.7998V6.99922L11.2998 6.69922Z" fill="#FEFEFE"/>
<path fill-rule="evenodd" clip-rule="evenodd" d="M11.3002 6.69922L10.9002 7.09922L10.7002 6.79922L11.3002 6.69922Z" fill="#FEFEFE"/>
<path fill-rule="evenodd" clip-rule="evenodd" d="M10.2998 6.69922L10.6998 7.09922L10.8998 6.79922L10.2998 6.69922Z" fill="#FEFEFE"/>
<path fill-rule="evenodd" clip-rule="evenodd" d="M10.2998 6.69922H10.7998V6.99922L10.2998 6.69922Z" fill="#FEFEFE"/>
<path fill-rule="evenodd" clip-rule="evenodd" d="M11.1002 7.40078L11.0002 6.80078L10.7002 6.90078L11.1002 7.40078Z" fill="#FEFEFE"/>
<path fill-rule="evenodd" clip-rule="evenodd" d="M11.1002 7.40078L10.7002 7.00078L10.9002 6.80078L11.1002 7.40078Z" fill="#FEFEFE"/>
<path fill-rule="evenodd" clip-rule="evenodd" d="M10.5 7.40078L10.9 7.00078L10.8 6.80078L10.5 7.40078Z" fill="#FEFEFE"/>
<path fill-rule="evenodd" clip-rule="evenodd" d="M10.5 7.40078L10.7 6.80078L10.9 6.90078L10.5 7.40078ZM12.9 6.30078L12.8 6.90078L13 7.00078L12.9 6.30078Z" fill="#FEFEFE"/>
<path fill-rule="evenodd" clip-rule="evenodd" d="M12.9004 6.30078L13.1004 6.90078L12.9004 7.00078V6.30078Z" fill="#FEFEFE"/>
<path fill-rule="evenodd" clip-rule="evenodd" d="M13.5004 6.69922H12.9004V6.99922L13.5004 6.69922Z" fill="#FEFEFE"/>
<path fill-rule="evenodd" clip-rule="evenodd" d="M13.5004 6.69922L13.0004 7.09922L12.9004 6.79922L13.5004 6.69922Z" fill="#FEFEFE"/>
<path fill-rule="evenodd" clip-rule="evenodd" d="M12.4004 6.69922L12.9004 7.09922L13.0004 6.79922L12.4004 6.69922Z" fill="#FEFEFE"/>
<path fill-rule="evenodd" clip-rule="evenodd" d="M12.4004 6.69922H13.0004V6.99922L12.4004 6.69922Z" fill="#FEFEFE"/>
<path fill-rule="evenodd" clip-rule="evenodd" d="M13.2998 7.40078L13.0998 6.80078L12.7998 6.90078L13.2998 7.40078Z" fill="#FEFEFE"/>
<path fill-rule="evenodd" clip-rule="evenodd" d="M13.2998 7.40078L12.7998 7.00078L12.9998 6.80078L13.2998 7.40078Z" fill="#FEFEFE"/>
<path fill-rule="evenodd" clip-rule="evenodd" d="M12.5996 7.40078L13.0996 7.00078L12.8996 6.80078L12.5996 7.40078Z" fill="#FEFEFE"/>
<path fill-rule="evenodd" clip-rule="evenodd" d="M12.5996 7.40078L12.7996 6.80078L12.9996 6.90078L12.5996 7.40078ZM15.0996 6.30078L14.8996 6.90078L15.1996 7.00078L15.0996 6.30078Z" fill="#FEFEFE"/>
<path fill-rule="evenodd" clip-rule="evenodd" d="M15.1 6.30078L15.2 6.90078L15 7.00078L15.1 6.30078Z" fill="#FEFEFE"/>
<path fill-rule="evenodd" clip-rule="evenodd" d="M15.6 6.69922H15V6.99922L15.6 6.69922Z" fill="#FEFEFE"/>
<path fill-rule="evenodd" clip-rule="evenodd" d="M15.6 6.69922L15.1 7.09922L15 6.79922L15.6 6.69922Z" fill="#FEFEFE"/>
<path fill-rule="evenodd" clip-rule="evenodd" d="M14.5996 6.69922L14.9996 7.09922L15.1996 6.79922L14.5996 6.69922Z" fill="#FEFEFE"/>
<path fill-rule="evenodd" clip-rule="evenodd" d="M14.5996 6.69922H15.0996V6.99922L14.5996 6.69922Z" fill="#FEFEFE"/>
<path fill-rule="evenodd" clip-rule="evenodd" d="M15.4 7.40078L15.2 6.80078L15 6.90078L15.4 7.40078Z" fill="#FEFEFE"/>
<path fill-rule="evenodd" clip-rule="evenodd" d="M15.4 7.40078L15 7.00078L15.1 6.80078L15.4 7.40078Z" fill="#FEFEFE"/>
<path fill-rule="evenodd" clip-rule="evenodd" d="M14.7998 7.40078L15.1998 7.00078L14.9998 6.80078L14.7998 7.40078Z" fill="#FEFEFE"/>
<path fill-rule="evenodd" clip-rule="evenodd" d="M14.7998 7.40078L14.8998 6.80078L15.1998 6.90078L14.7998 7.40078ZM17.1998 6.30078L16.9998 6.90078L17.2998 7.00078L17.1998 6.30078Z" fill="#FEFEFE"/>
<path fill-rule="evenodd" clip-rule="evenodd" d="M17.1996 6.30078L17.3996 6.90078L17.0996 7.00078L17.1996 6.30078Z" fill="#FEFEFE"/>
<path fill-rule="evenodd" clip-rule="evenodd" d="M17.7002 6.69922H17.2002V6.99922L17.7002 6.69922Z" fill="#FEFEFE"/>
<path fill-rule="evenodd" clip-rule="evenodd" d="M17.6996 6.69922L17.2996 7.09922L17.0996 6.79922L17.6996 6.69922Z" fill="#FEFEFE"/>
<path fill-rule="evenodd" clip-rule="evenodd" d="M16.7002 6.69922L17.1002 7.09922L17.3002 6.79922L16.7002 6.69922Z" fill="#FEFEFE"/>
<path fill-rule="evenodd" clip-rule="evenodd" d="M16.7002 6.69922H17.2002V6.99922L16.7002 6.69922Z" fill="#FEFEFE"/>
<path fill-rule="evenodd" clip-rule="evenodd" d="M17.4996 7.40078L17.2996 6.80078L17.0996 6.90078L17.4996 7.40078Z" fill="#FEFEFE"/>
<path fill-rule="evenodd" clip-rule="evenodd" d="M17.4996 7.40078L17.0996 7.00078L17.1996 6.80078L17.4996 7.40078Z" fill="#FEFEFE"/>
<path fill-rule="evenodd" clip-rule="evenodd" d="M16.9004 7.40078L17.3004 7.00078L17.2004 6.80078L16.9004 7.40078Z" fill="#FEFEFE"/>
<path fill-rule="evenodd" clip-rule="evenodd" d="M16.9004 7.40078L17.1004 6.80078L17.3004 6.90078L16.9004 7.40078Z" fill="#FEFEFE"/>
</g>
</g>
<defs>
<clipPath id="clip0_26003_90551">
<rect width="38" height="25" fill="white" transform="translate(0 0.5)"/>
</clipPath>
<clipPath id="clip1_26003_90551">
<rect width="38" height="25" fill="white" transform="translate(0 0.5)"/>
</clipPath>
</defs>
</svg>
