<svg width="38" height="26" viewBox="0 0 38 26" fill="none" xmlns="http://www.w3.org/2000/svg">
<g clip-path="url(#clip0_26003_92788)">
<g clip-path="url(#clip1_26003_92788)">
<path fill-rule="evenodd" clip-rule="evenodd" d="M2.5 25.5H35.6C36.9 25.3 37.9 24.1 38.1 22.6V3.4C37.9 1.9 36.9 0.8 35.6 0.5H2.5C1.2 0.8 0.2 1.9 0 3.4V22.6C0.2 24.1 1.2 25.3 2.5 25.5Z" fill="#D5272D"/>
<path fill-rule="evenodd" clip-rule="evenodd" d="M19 6.69922C22.1 6.69922 24.5 9.49922 24.5 12.8992C24.5 16.3992 22 19.0992 19 19.0992C15.9 19.0992 13.5 16.2992 13.5 12.8992C13.4 9.59922 15.9 6.69922 19 6.69922Z" fill="#FEFEFE"/>
<path fill-rule="evenodd" clip-rule="evenodd" d="M18.9998 8.30078C20.3998 8.30078 21.5998 9.10078 22.3998 10.2008C21.7998 9.60078 20.9998 9.20078 20.0998 9.20078C18.2998 9.20078 16.7998 10.9008 16.7998 12.9008C16.7998 15.0008 18.2998 16.6008 20.0998 16.6008C20.9998 16.6008 21.7998 16.2008 22.3998 15.6008C21.5998 16.8008 20.3998 17.5008 18.9998 17.5008C16.6998 17.5008 14.7998 15.4008 14.7998 12.8008C14.7998 10.4008 16.6998 8.30078 18.9998 8.30078Z" fill="#D5272D"/>
<path fill-rule="evenodd" clip-rule="evenodd" d="M17.5996 13L19.9996 13.9L20.3996 12.5L17.5996 13Z" fill="#D5272D"/>
<path fill-rule="evenodd" clip-rule="evenodd" d="M17.5996 12.9996L19.9996 12.0996L20.3996 13.4996L17.5996 12.9996Z" fill="#D5272D"/>
<path fill-rule="evenodd" clip-rule="evenodd" d="M19.2998 10.3008V13.1008H20.5998L19.2998 10.3008Z" fill="#D5272D"/>
<path fill-rule="evenodd" clip-rule="evenodd" d="M19.2998 10.3008L20.7998 12.6008L19.7998 13.4008L19.2998 10.3008Z" fill="#D5272D"/>
<path fill-rule="evenodd" clip-rule="evenodd" d="M19.2998 15.6996L20.7998 13.3996L19.7998 12.5996L19.2998 15.6996Z" fill="#D5272D"/>
<path fill-rule="evenodd" clip-rule="evenodd" d="M19.2998 15.7004V12.9004H20.5998L19.2998 15.7004Z" fill="#D5272D"/>
<path fill-rule="evenodd" clip-rule="evenodd" d="M22.1002 11.3008L19.7002 12.2008L20.1002 13.6008L22.1002 11.3008Z" fill="#D5272D"/>
<path fill-rule="evenodd" clip-rule="evenodd" d="M22.0996 11.3008L20.6996 13.6008L19.5996 12.8008L22.0996 11.3008Z" fill="#D5272D"/>
<path fill-rule="evenodd" clip-rule="evenodd" d="M22.0996 14.7004L20.6996 12.4004L19.5996 13.2004L22.0996 14.7004Z" fill="#D5272D"/>
<path fill-rule="evenodd" clip-rule="evenodd" d="M22.1002 14.7004L19.7002 13.8004L20.1002 12.4004L22.1002 14.7004Z" fill="#D5272D"/>
</g>
</g>
<defs>
<clipPath id="clip0_26003_92788">
<rect width="38" height="25" fill="white" transform="translate(0 0.5)"/>
</clipPath>
<clipPath id="clip1_26003_92788">
<rect width="38" height="25" fill="white" transform="translate(0 0.5)"/>
</clipPath>
</defs>
</svg>
