<svg width="38" height="26" viewBox="0 0 38 26" fill="none" xmlns="http://www.w3.org/2000/svg">
<g clip-path="url(#clip0_26003_90372)">
<g clip-path="url(#clip1_26003_90372)">
<path fill-rule="evenodd" clip-rule="evenodd" d="M2.46023 25.5005H35.5302C36.8202 25.2505 37.8302 24.0705 38.0002 22.6005V3.46055C37.8302 1.99055 36.8202 0.810547 35.5302 0.560547H2.46023C1.17023 0.810547 0.160234 1.99055 -0.00976562 3.46055V22.6005C0.160234 24.0705 1.17023 25.2505 2.46023 25.5005Z" fill="#53AFC7"/>
<path fill-rule="evenodd" clip-rule="evenodd" d="M2.48038 18.1506C2.48038 17.6506 2.88038 17.3906 3.19038 17.3906C3.61038 17.3906 3.84038 17.6706 3.84038 18.0406C3.84038 18.2506 3.80038 18.3806 3.72038 18.5906L2.75038 20.8406C2.719 20.9374 2.70544 21.039 2.71038 21.1406C2.71038 21.3406 2.89038 21.5106 3.07038 21.5106C3.24038 21.5206 3.42038 21.3406 3.42038 21.1306C3.42038 20.8906 3.31038 20.7806 3.19038 20.7806C3.04038 20.7806 2.98038 20.8406 2.98038 20.9606C2.98038 21.0406 3.02038 21.0706 3.07038 21.0706C3.19038 21.0706 3.16038 20.8806 3.16038 20.8806C3.22038 20.8906 3.27038 20.9706 3.25038 21.0506C3.29038 21.0606 3.34038 21.0906 3.37038 21.1306C3.33619 21.1651 3.29537 21.1923 3.25038 21.2106C3.28038 21.3206 3.24038 21.3706 3.15038 21.3906C3.17038 21.3606 3.17038 21.3206 3.17038 21.2806C3.04038 21.3206 2.83038 21.2506 2.83038 21.0006C2.83038 20.7506 2.99038 20.5306 3.28038 20.5806C3.21038 20.5406 3.18038 20.4706 3.17038 20.3806L3.28038 20.4106C3.25038 20.3406 3.20038 20.2806 3.20038 20.1506C3.25038 20.1806 3.30038 20.2306 3.37038 20.2106C3.26038 19.9606 3.40038 19.6306 3.74038 19.5506C3.62276 19.699 3.55612 19.8814 3.55038 20.0706C3.55038 20.6506 3.69038 20.7506 3.69038 21.1406C3.69038 21.3106 3.61038 21.4906 3.46038 21.6206V21.6106C3.56038 21.6406 3.62038 21.6906 3.66038 21.7706C3.43038 21.8406 3.10038 21.8406 2.92038 21.7606C2.71038 21.7406 2.57038 21.5606 2.53038 21.4706C2.43649 21.2433 2.43649 20.988 2.53038 20.7606L3.51038 18.4206C3.55038 18.3206 3.58038 18.2106 3.58038 18.0906C3.58038 17.7906 3.34038 17.6906 3.20038 17.6906C3.11457 17.6906 3.03211 17.724 2.9705 17.7837C2.9089 17.8435 2.87298 17.9248 2.87038 18.0106C2.87038 18.1106 2.93038 18.1806 3.00038 18.1806C3.19038 18.1806 3.17038 18.0106 3.13038 17.8906C3.25038 17.9506 3.32038 18.0506 3.30038 18.1606C3.37038 18.1706 3.43038 18.2106 3.49038 18.2906C3.47112 18.324 3.44343 18.3517 3.41008 18.371C3.37674 18.3903 3.33891 18.4005 3.30038 18.4006C3.34038 18.5706 3.24038 18.6406 3.13038 18.6806C3.17038 18.5606 3.19038 18.4206 3.00038 18.4206C2.86038 18.4206 2.75038 18.3906 2.69038 18.3006L2.67038 18.9606C2.66038 19.1606 2.91038 19.1506 3.06038 19.1006C3.00038 19.3306 2.88038 19.4506 2.60038 19.4206C2.67038 19.4506 2.74038 19.5206 2.74038 19.6606C2.74038 19.8406 2.61038 20.0506 2.52038 20.1106L2.48038 18.1506Z" fill="#F6CF23"/>
<path fill-rule="evenodd" clip-rule="evenodd" d="M2.56996 18.1506C2.56996 17.6506 2.16996 17.3906 1.84996 17.3906C1.42996 17.3906 1.20996 17.6706 1.20996 18.0406C1.20996 18.2506 1.23996 18.3806 1.32996 18.5906L2.29996 20.8406C2.32996 20.9206 2.33996 21.0106 2.33996 21.1406C2.33996 21.3406 2.16996 21.5106 1.97996 21.5106C1.80996 21.5206 1.62996 21.3406 1.62996 21.1306C1.62996 20.8906 1.73996 20.7806 1.85996 20.7806C2.00996 20.7806 2.05996 20.8406 2.05996 20.9606C2.05996 21.0406 2.02996 21.0706 1.97996 21.0706C1.85996 21.0706 1.88996 20.8806 1.88996 20.8806C1.82996 20.8906 1.77996 20.9706 1.80996 21.0506C1.76366 21.0664 1.72229 21.0939 1.68996 21.1306C1.72996 21.1606 1.75996 21.1906 1.80996 21.2106C1.77996 21.3206 1.81996 21.3706 1.89996 21.3906C1.87996 21.3606 1.87996 21.3206 1.88996 21.2806C2.01996 21.3206 2.22996 21.2506 2.22996 21.0006C2.22996 20.7506 2.07996 20.5306 1.77996 20.5806C1.81484 20.5605 1.84353 20.5313 1.86293 20.496C1.88232 20.4607 1.89167 20.4208 1.88996 20.3806L1.77996 20.4106C1.81996 20.3406 1.86996 20.2806 1.85996 20.1506C1.79996 20.1806 1.74996 20.2306 1.67996 20.2106C1.78996 19.9606 1.64996 19.6306 1.30996 19.5506C1.43996 19.7106 1.49996 19.8906 1.49996 20.0706C1.49996 20.6506 1.35996 20.7506 1.35996 21.1406C1.35996 21.3106 1.43996 21.4906 1.58996 21.6206V21.6106C1.48996 21.6406 1.41996 21.6906 1.38996 21.7706C1.61996 21.8406 1.95996 21.8406 2.13996 21.7606C2.34996 21.7406 2.48996 21.5606 2.53996 21.4706C2.57996 21.3806 2.65996 21.0506 2.53996 20.7606L1.54996 18.4206C1.50556 18.3162 1.48179 18.2041 1.47996 18.0906C1.47996 17.7906 1.71996 17.6906 1.85996 17.6906C2.01996 17.6906 2.18996 17.8306 2.18996 18.0106C2.18996 18.1106 2.13996 18.1806 2.05996 18.1806C1.87996 18.1806 1.88996 18.0106 1.91996 17.8906C1.80996 17.9506 1.73996 18.0506 1.75996 18.1606C1.68229 18.178 1.61426 18.2245 1.56996 18.2906C1.61996 18.3506 1.66996 18.4006 1.75996 18.4006C1.71996 18.5706 1.81996 18.6406 1.91996 18.6806C1.88996 18.5606 1.86996 18.4206 2.05996 18.4206C2.19996 18.4206 2.30996 18.3906 2.36996 18.3006L2.37996 18.9606C2.38996 19.1606 2.13996 19.1506 1.98996 19.1006C2.04996 19.3306 2.16996 19.4506 2.44996 19.4206C2.37996 19.4306 2.29996 19.5006 2.29996 19.6406C2.29996 19.8206 2.43996 20.0306 2.52996 20.0906L2.56996 18.1506ZM2.52996 23.5406C2.52996 23.5406 2.73996 23.7306 2.80996 23.6306C2.92996 23.4706 2.45996 22.6706 2.45996 22.3906C2.45996 21.9306 2.72996 21.8006 3.06996 21.7406C3.29996 21.6906 3.66996 21.7606 3.66996 21.7606C3.59996 21.8606 3.55996 21.9006 3.43996 21.9006C3.56996 21.9806 3.70996 22.1406 3.70996 22.4006C3.70996 22.8006 3.55996 22.9606 3.55996 23.4006C3.55996 23.6506 3.73996 23.9706 3.73996 23.9706C3.41996 23.9406 3.25996 23.6006 3.34996 23.3306C3.29996 23.3206 3.24996 23.3406 3.20996 23.3806C3.18996 23.3106 3.21996 23.2206 3.26996 23.1406C3.22996 23.1206 3.19996 23.1406 3.13996 23.1506C3.14996 23.0706 3.18996 23.0006 3.28996 22.9206C2.99996 23.0206 2.81996 22.7906 2.81996 22.5506C2.81996 22.3806 2.92996 22.2506 3.03996 22.2506C3.07996 22.2506 3.12996 22.2606 3.15996 22.2906C3.1693 22.2642 3.17235 22.236 3.16888 22.2083C3.16541 22.1805 3.15551 22.1539 3.13996 22.1306C3.21996 22.1506 3.26996 22.2006 3.23996 22.3106C3.29996 22.3106 3.34996 22.3306 3.37996 22.3806C3.34996 22.4306 3.29996 22.4606 3.23996 22.4506C3.27996 22.5506 3.23996 22.6106 3.15996 22.6606C3.15996 22.6606 3.20996 22.4506 3.08996 22.4506C3.02996 22.4506 2.98996 22.4806 2.98996 22.5606C2.98996 22.6306 3.04996 22.7406 3.18996 22.7406C3.31996 22.7306 3.43996 22.6306 3.43996 22.3806C3.43996 22.1606 3.27996 22.0406 3.05996 22.0406C2.86996 22.0306 2.71996 22.1506 2.71996 22.3806C2.71996 22.6706 3.10996 23.3506 3.10996 23.6206C3.10996 23.8206 2.94996 23.9306 2.78996 23.9306C2.58996 23.9306 2.41996 23.7106 2.41996 23.7106L2.52996 23.5406Z" fill="#F6CF23"/>
<path fill-rule="evenodd" clip-rule="evenodd" d="M2.53031 23.5404C2.53031 23.5404 2.32031 23.7304 2.25031 23.6304C2.13031 23.4804 2.60031 22.6804 2.60031 22.4004C2.60031 21.9404 2.32031 21.8104 1.99031 21.7504C1.76031 21.7004 1.39031 21.7704 1.39031 21.7704C1.46031 21.8704 1.51031 21.9104 1.62031 21.9104C1.53665 21.9633 1.46851 22.0375 1.42283 22.1253C1.37716 22.2131 1.35559 22.3115 1.36031 22.4104C1.36031 22.8104 1.50031 22.9704 1.50031 23.4104C1.50031 23.6604 1.32031 23.9804 1.32031 23.9804C1.64031 23.9504 1.80031 23.6104 1.71031 23.3404C1.76031 23.3304 1.81031 23.3504 1.85031 23.3904C1.87031 23.3204 1.84031 23.2304 1.79031 23.1504C1.83031 23.1304 1.86031 23.1504 1.92031 23.1604C1.91031 23.0804 1.87031 23.0104 1.77031 22.9304C2.06031 23.0204 2.24031 22.7904 2.24031 22.5504C2.24031 22.3804 2.13031 22.2504 2.02031 22.2504C1.97715 22.2511 1.93525 22.265 1.90031 22.2904C1.8834 22.2377 1.88697 22.1806 1.91031 22.1304C1.83031 22.1504 1.78031 22.2004 1.82031 22.3104C1.76031 22.3104 1.71031 22.3304 1.68031 22.3804C1.71031 22.4304 1.76031 22.4604 1.82031 22.4504C1.78031 22.5504 1.83031 22.6104 1.90031 22.6604C1.90031 22.6604 1.85031 22.4504 1.97031 22.4504C2.02031 22.4504 2.07031 22.4804 2.07031 22.5604C2.07031 22.6304 2.01031 22.7404 1.87031 22.7404C1.74031 22.7304 1.62031 22.6304 1.62031 22.3804C1.62031 22.1604 1.78031 22.0404 2.00031 22.0404C2.19031 22.0304 2.34031 22.1504 2.34031 22.3804C2.34031 22.6704 1.96031 23.3504 1.96031 23.6204C1.96031 23.8204 2.12031 23.9304 2.27031 23.9304C2.48031 23.9304 2.64031 23.7104 2.64031 23.7104L2.53031 23.5404ZM2.48031 9.41039C2.48031 8.91039 2.88031 8.65039 3.19031 8.65039C3.61031 8.65039 3.84031 8.94039 3.84031 9.31039C3.84031 9.52039 3.80031 9.65039 3.72031 9.85039L2.75031 12.1004C2.71893 12.1971 2.70537 12.2988 2.71031 12.4004C2.71031 12.6104 2.89031 12.7704 3.07031 12.7704C3.24031 12.7704 3.42031 12.6004 3.42031 12.3904C3.42031 12.1404 3.31031 12.0404 3.19031 12.0404C3.04031 12.0404 2.98031 12.1004 2.98031 12.2204C2.98031 12.3004 3.02031 12.3304 3.07031 12.3304C3.19031 12.3304 3.16031 12.1404 3.16031 12.1404C3.22031 12.1604 3.27031 12.2304 3.25031 12.3204C3.29031 12.3304 3.34031 12.3504 3.37031 12.4004C3.33612 12.4349 3.2953 12.4621 3.25031 12.4804C3.28031 12.5804 3.24031 12.6404 3.15031 12.6604C3.17031 12.6204 3.17031 12.5804 3.17031 12.5504C3.04031 12.5904 2.83031 12.5204 2.83031 12.2704C2.83031 12.0204 2.99031 11.8004 3.28031 11.8604C3.21031 11.8304 3.18031 11.7404 3.17031 11.6604L3.28031 11.6804C3.25031 11.6104 3.20031 11.5604 3.20031 11.4204C3.25031 11.4504 3.30031 11.5004 3.37031 11.4704C3.26031 11.2304 3.40031 10.8904 3.74031 10.8104C3.62374 10.9632 3.55736 11.1483 3.55031 11.3404C3.55031 11.9204 3.69031 12.0104 3.69031 12.4104C3.69031 12.5804 3.61031 12.7604 3.46031 12.8904V12.8804C3.56031 12.9004 3.62031 12.9604 3.66031 13.0304C3.44031 13.1004 3.10031 13.1004 2.92031 13.0204C2.83716 13.0059 2.75857 12.9721 2.69084 12.9217C2.62311 12.8714 2.56813 12.8058 2.53031 12.7304C2.43642 12.503 2.43642 12.2477 2.53031 12.0204L3.51031 9.68039C3.55031 9.58039 3.58031 9.47039 3.58031 9.35039C3.58031 9.06039 3.34031 8.95039 3.20031 8.95039C3.03031 8.95039 2.87031 9.09039 2.87031 9.26039C2.87031 9.37039 2.93031 9.43039 3.00031 9.43039C3.19031 9.43039 3.17031 9.26039 3.13031 9.15039C3.26031 9.21039 3.33031 9.32039 3.30031 9.42039C3.37031 9.43039 3.43031 9.47039 3.49031 9.54039C3.46963 9.57333 3.44183 9.60121 3.40895 9.62198C3.37606 9.64275 3.33894 9.65587 3.30031 9.66039C3.34031 9.83039 3.24031 9.90039 3.14031 9.94039C3.17031 9.81039 3.19031 9.67039 3.00031 9.67039C2.86031 9.67039 2.75031 9.64039 2.69031 9.55039L2.67031 10.2104C2.67031 10.4104 2.92031 10.4004 3.07031 10.3404C3.01031 10.5704 2.89031 10.6904 2.61031 10.6604C2.68031 10.7004 2.75031 10.7604 2.75031 10.9004C2.75031 11.0804 2.62031 11.2904 2.53031 11.3504L2.48031 9.41039Z" fill="#F6CF23"/>
<path fill-rule="evenodd" clip-rule="evenodd" d="M2.56996 9.41039C2.56996 8.91039 2.16996 8.65039 1.84996 8.65039C1.42996 8.65039 1.20996 8.94039 1.20996 9.31039C1.20996 9.52039 1.23996 9.65039 1.32996 9.85039L2.29996 12.1004C2.32996 12.1804 2.33996 12.2704 2.33996 12.4004C2.33996 12.6104 2.16996 12.7704 1.97996 12.7704C1.80996 12.7704 1.62996 12.6004 1.62996 12.3904C1.62996 12.1404 1.73996 12.0404 1.85996 12.0404C2.00996 12.0404 2.05996 12.1004 2.05996 12.2204C2.05996 12.3004 2.02996 12.3304 1.97996 12.3304C1.85996 12.3304 1.88996 12.1404 1.88996 12.1404C1.82996 12.1604 1.77996 12.2304 1.80996 12.3204C1.76177 12.3321 1.71926 12.3604 1.68996 12.4004C1.72996 12.4304 1.75996 12.4604 1.80996 12.4804C1.77996 12.5804 1.81996 12.6404 1.89996 12.6604C1.89092 12.6437 1.88537 12.6253 1.88365 12.6064C1.88194 12.5875 1.88408 12.5684 1.88996 12.5504C2.01996 12.5904 2.22996 12.5204 2.22996 12.2704C2.22996 12.0204 2.07996 11.8004 1.77996 11.8604C1.84996 11.8304 1.88996 11.7404 1.88996 11.6604C1.83996 11.6804 1.77996 11.6804 1.77996 11.6804C1.81996 11.6104 1.86996 11.5604 1.85996 11.4204C1.79996 11.4504 1.74996 11.5004 1.67996 11.4704C1.78996 11.2304 1.64996 10.8904 1.30996 10.8104C1.43996 10.9804 1.49996 11.1604 1.49996 11.3404C1.49996 11.9204 1.35996 12.0104 1.35996 12.4104C1.35996 12.5804 1.43996 12.7604 1.58996 12.8904V12.8804C1.547 12.8874 1.50638 12.9047 1.47155 12.9308C1.43673 12.957 1.40874 12.9911 1.38996 13.0304C1.61996 13.1004 1.95996 13.1004 2.13996 13.0204C2.34996 12.9904 2.48996 12.8204 2.53996 12.7304C2.57996 12.6404 2.65996 12.3104 2.53996 12.0204C2.38996 11.7004 1.73996 10.1604 1.53996 9.68039C1.49899 9.57526 1.47862 9.46322 1.47996 9.35039C1.47996 9.06039 1.71996 8.95039 1.85996 8.95039C2.01996 8.95039 2.18996 9.09039 2.18996 9.26039C2.18996 9.37039 2.13996 9.43039 2.05996 9.43039C1.87996 9.43039 1.88996 9.26039 1.91996 9.15039C1.79996 9.21039 1.73996 9.32039 1.74996 9.42039C1.71246 9.42806 1.67701 9.44362 1.64598 9.46603C1.61495 9.48844 1.58903 9.5172 1.56996 9.55039C1.61996 9.60039 1.66996 9.65039 1.75996 9.66039C1.71996 9.83039 1.81996 9.90039 1.91996 9.94039C1.87996 9.81039 1.85996 9.67039 2.04996 9.67039C2.18996 9.67039 2.29996 9.64039 2.35996 9.55039L2.36996 10.2104C2.37996 10.4104 2.12996 10.4004 1.97996 10.3404C2.03996 10.5704 2.15996 10.6904 2.43996 10.6604C2.3955 10.6821 2.35847 10.7164 2.33355 10.7592C2.30863 10.8019 2.29694 10.851 2.29996 10.9004C2.29996 11.0804 2.43996 11.2904 2.52996 11.3504L2.56996 9.41039Z" fill="#F6CF23"/>
<path fill-rule="evenodd" clip-rule="evenodd" d="M2.56996 7.91069C2.56996 8.41069 2.16996 8.67069 1.84996 8.67069C1.42996 8.67069 1.20996 8.39069 1.20996 8.01069C1.20996 7.81069 1.23996 7.67069 1.32996 7.47069L2.29996 5.21069C2.33226 5.11414 2.34584 5.01232 2.33996 4.91069C2.34 4.81427 2.30239 4.72164 2.23515 4.65253C2.16791 4.58342 2.07635 4.54329 1.97996 4.54069C1.81996 4.54069 1.63996 4.73069 1.63996 4.92069C1.63996 5.17069 1.74996 5.28069 1.86996 5.28069C2.01996 5.28069 2.06996 5.21069 2.06996 5.10069C2.06996 5.02069 2.03996 4.99069 1.98996 4.99069C1.86996 4.99069 1.89996 5.18069 1.89996 5.18069C1.83996 5.16069 1.78996 5.09069 1.81996 5.00069C1.79509 4.99768 1.77128 4.98887 1.75044 4.97497C1.72959 4.96108 1.7123 4.94249 1.69996 4.92069C1.73996 4.89069 1.76996 4.86069 1.81996 4.85069C1.78996 4.74069 1.82996 4.69069 1.90996 4.67069C1.8921 4.70813 1.88854 4.75081 1.89996 4.79069C2.02996 4.75069 2.23996 4.82069 2.23996 5.07069C2.23996 5.32069 2.08996 5.54069 1.78996 5.48069C1.85996 5.52069 1.89996 5.60069 1.89996 5.68069L1.77996 5.66069C1.81996 5.73069 1.86996 5.78069 1.85996 5.92069C1.80996 5.89069 1.75996 5.83069 1.68996 5.87069C1.79996 6.11069 1.65996 6.45069 1.31996 6.53069C1.44097 6.38034 1.50789 6.19367 1.50996 6.00069C1.50996 5.42069 1.36996 5.32069 1.36996 4.92069C1.36996 4.76069 1.44996 4.57069 1.59996 4.45069C1.55688 4.44043 1.51661 4.42077 1.48203 4.3931C1.44745 4.36544 1.41942 4.33046 1.39996 4.29069C1.62996 4.21069 1.96996 4.22069 2.14996 4.29069C2.35996 4.32069 2.49996 4.50069 2.54996 4.58069C2.58996 4.67069 2.66996 5.00069 2.54996 5.29069L1.53996 7.66069C1.5 7.76263 1.47965 7.8712 1.47996 7.98069C1.47996 8.27069 1.71996 8.38069 1.85996 8.38069C2.01996 8.38069 2.18996 8.24069 2.18996 8.07069C2.18996 7.96069 2.13996 7.89069 2.05996 7.89069C1.87996 7.89069 1.88996 8.07069 1.91996 8.18069C1.79996 8.12069 1.73996 8.01069 1.74996 7.91069C1.71289 7.90544 1.67746 7.89194 1.64631 7.87117C1.61515 7.8504 1.58906 7.82289 1.56996 7.79069C1.61996 7.73069 1.66996 7.68069 1.75996 7.68069C1.71996 7.51069 1.81996 7.43069 1.91996 7.40069C1.87996 7.52069 1.85996 7.66069 2.04996 7.66069C2.18996 7.66069 2.29996 7.68069 2.35996 7.79069L2.36996 7.12069C2.37996 6.92069 2.12996 6.93069 1.97996 6.99069C2.03996 6.76069 2.15996 6.64069 2.43996 6.67069C2.39707 6.64713 2.36138 6.61235 2.33672 6.57008C2.31206 6.5278 2.29935 6.47962 2.29996 6.43069C2.29996 6.25069 2.43996 6.04069 2.52996 5.98069L2.56996 7.91069Z" fill="#F6CF23"/>
<path fill-rule="evenodd" clip-rule="evenodd" d="M2.47996 7.91086C2.47996 8.41086 2.87996 8.67086 3.18996 8.67086C3.60996 8.67086 3.83996 8.39086 3.83996 8.01086C3.83996 7.81086 3.79996 7.67086 3.71996 7.47086L2.74996 5.21086C2.71766 5.11432 2.70408 5.0125 2.70996 4.91086C2.70996 4.70086 2.88996 4.55086 3.06996 4.54086C3.23996 4.53086 3.41996 4.72086 3.41996 4.92086C3.41996 5.17086 3.30996 5.28086 3.18996 5.28086C3.03996 5.28086 2.97996 5.21086 2.97996 5.10086C2.97996 5.02086 3.01996 4.99086 3.06996 4.99086C3.18996 4.99086 3.15996 5.18086 3.15996 5.18086C3.21996 5.16086 3.26996 5.09086 3.23996 5.00086C3.27996 4.98086 3.32996 4.97086 3.35996 4.92086C3.32774 4.88621 3.28599 4.86186 3.23996 4.85086C3.26996 4.74086 3.22996 4.69086 3.13996 4.66086C3.15996 4.71086 3.15996 4.74086 3.15996 4.78086C3.01996 4.74086 2.81996 4.81086 2.81996 5.06086C2.81996 5.31086 2.97996 5.53086 3.26996 5.47086C3.23832 5.49656 3.21225 5.52843 3.19334 5.56454C3.17443 5.60064 3.16307 5.64022 3.15996 5.68086L3.26996 5.66086C3.23996 5.72086 3.18996 5.78086 3.19996 5.92086C3.24996 5.89086 3.29996 5.83086 3.36996 5.87086C3.25996 6.11086 3.38996 6.45086 3.73996 6.53086C3.62339 6.37807 3.55701 6.19292 3.54996 6.00086C3.54996 5.42086 3.68996 5.32086 3.68996 4.92086C3.68754 4.83062 3.66575 4.74195 3.62606 4.66086C3.58638 4.57976 3.52974 4.50815 3.45996 4.45086C3.55996 4.42086 3.61996 4.36086 3.65996 4.29086C3.41904 4.21555 3.16088 4.21555 2.91996 4.29086C2.70996 4.33086 2.56996 4.52086 2.52996 4.60086C2.43607 4.82822 2.43607 5.08351 2.52996 5.31086L3.50996 7.65086C3.54996 7.75086 3.57996 7.86086 3.57996 7.98086C3.57996 8.27086 3.33996 8.38086 3.19996 8.38086C3.02996 8.38086 2.86996 8.24086 2.86996 8.07086C2.86996 7.96086 2.92996 7.89086 2.99996 7.89086C3.18996 7.89086 3.16996 8.07086 3.12996 8.18086C3.25996 8.12086 3.32996 8.01086 3.29996 7.91086C3.33839 7.90568 3.37525 7.89228 3.40804 7.87157C3.44082 7.85086 3.46877 7.82334 3.48996 7.79086C3.4707 7.7575 3.44301 7.72977 3.40966 7.71047C3.37632 7.69116 3.33849 7.68096 3.29996 7.68086C3.33996 7.51086 3.23996 7.43086 3.13996 7.40086C3.16996 7.52086 3.18996 7.66086 2.99996 7.66086C2.85996 7.66086 2.74996 7.68086 2.68996 7.79086L2.66996 7.12086C2.65996 6.92086 2.90996 6.93086 3.05996 6.99086C3.00996 6.76086 2.88996 6.64086 2.60996 6.67086C2.67996 6.64086 2.74996 6.57086 2.74996 6.43086C2.74488 6.34503 2.72281 6.26106 2.68505 6.18382C2.64728 6.10658 2.59457 6.03759 2.52996 5.98086L2.47996 7.91086ZM2.56996 16.6509C2.56996 17.1509 2.16996 17.4109 1.84996 17.4109C1.42996 17.4109 1.20996 17.1209 1.20996 16.7509C1.20996 16.5409 1.23996 16.4109 1.32996 16.2109L2.29996 13.9609C2.33135 13.8641 2.3449 13.7625 2.33996 13.6609C2.33996 13.4609 2.16996 13.2909 1.97996 13.2809C1.80996 13.2709 1.62996 13.4609 1.62996 13.6609C1.62996 13.9109 1.73996 14.0209 1.85996 14.0209C2.00996 14.0209 2.05996 13.9509 2.05996 13.8409C2.05996 13.7609 2.02996 13.7309 1.97996 13.7309C1.85996 13.7309 1.88996 13.9209 1.88996 13.9209C1.82996 13.9009 1.77996 13.8309 1.80996 13.7409C1.76177 13.7292 1.71926 13.7009 1.68996 13.6609C1.72996 13.6309 1.75996 13.5909 1.80996 13.5809C1.77996 13.4709 1.81996 13.4209 1.89996 13.4009C1.8821 13.4383 1.87854 13.481 1.88996 13.5209C2.01996 13.4709 2.22996 13.5409 2.22996 13.8009C2.22996 14.0609 2.07996 14.2709 1.77996 14.2209C1.84996 14.2609 1.88996 14.3309 1.88996 14.4309C1.83996 14.4009 1.77996 14.4009 1.77996 14.4009C1.81996 14.4709 1.86996 14.5309 1.85996 14.6609C1.79996 14.6309 1.74996 14.5809 1.67996 14.6109C1.78996 14.8509 1.64996 15.1909 1.30996 15.2709C1.43166 15.1248 1.49883 14.941 1.49996 14.7509C1.49996 14.1709 1.35996 14.0809 1.35996 13.6709C1.35996 13.5109 1.43996 13.3209 1.58996 13.2009C1.48996 13.1709 1.41996 13.1209 1.38996 13.0409C1.61996 12.9709 1.95996 12.9709 2.13996 13.0509C2.34996 13.0809 2.48996 13.2509 2.53996 13.3409C2.57996 13.4309 2.65996 13.7609 2.53996 14.0509L1.54996 16.3909C1.50671 16.4957 1.48298 16.6075 1.47996 16.7209C1.47996 17.0209 1.71996 17.1209 1.85996 17.1209C2.01996 17.1209 2.18996 16.9809 2.18996 16.8109C2.18996 16.7009 2.13996 16.6309 2.05996 16.6309C1.87996 16.6309 1.88996 16.8109 1.91996 16.9209C1.80996 16.8609 1.73996 16.7609 1.75996 16.6509C1.68564 16.6377 1.61834 16.5988 1.56996 16.5409C1.61996 16.4709 1.66996 16.4309 1.75996 16.4309C1.71996 16.2609 1.81996 16.1809 1.91996 16.1409C1.88996 16.2709 1.86996 16.4109 2.05996 16.4109C2.19996 16.4109 2.30996 16.4409 2.36996 16.5409L2.37996 15.8709C2.38996 15.6709 2.13996 15.6809 1.98996 15.7309C2.04996 15.5009 2.16996 15.3809 2.44996 15.4109C2.37996 15.3809 2.30996 15.3109 2.30996 15.1709C2.30996 14.9809 2.44996 14.7709 2.53996 14.7109L2.56996 16.6509Z" fill="#F6CF23"/>
<path fill-rule="evenodd" clip-rule="evenodd" d="M2.48016 16.6498C2.48016 17.1498 2.88016 17.4098 3.19016 17.4098C3.61016 17.4098 3.84016 17.1198 3.84016 16.7498C3.84016 16.5398 3.80016 16.4098 3.72016 16.2098L2.75016 13.9598C2.71877 13.8631 2.70522 13.7614 2.71016 13.6598C2.71016 13.4598 2.89016 13.2898 3.07016 13.2798C3.24016 13.2698 3.42016 13.4598 3.42016 13.6598C3.42016 13.9098 3.31016 14.0198 3.19016 14.0198C3.04016 14.0198 2.98016 13.9498 2.98016 13.8398C2.98016 13.7598 3.02016 13.7298 3.07016 13.7298C3.19016 13.7298 3.16016 13.9198 3.16016 13.9198C3.22016 13.8998 3.27016 13.8298 3.25016 13.7398C3.27459 13.7355 3.29787 13.7262 3.31852 13.7124C3.33917 13.6986 3.35675 13.6807 3.37016 13.6598C3.34016 13.6298 3.30016 13.5898 3.25016 13.5798C3.28016 13.4698 3.24016 13.4198 3.15016 13.3998C3.17016 13.4398 3.17016 13.4798 3.17016 13.5198C3.04016 13.4698 2.83016 13.5398 2.83016 13.7998C2.83016 14.0598 2.99016 14.2698 3.28016 14.2198C3.21016 14.2598 3.18016 14.3298 3.17016 14.4298C3.23016 14.3998 3.28016 14.3998 3.28016 14.3998C3.25016 14.4698 3.20016 14.5298 3.20016 14.6598C3.25016 14.6298 3.30016 14.5798 3.37016 14.6098C3.26016 14.8498 3.40016 15.1898 3.74016 15.2698C3.62253 15.1215 3.5559 14.9391 3.55016 14.7498C3.55016 14.1698 3.69016 14.0798 3.69016 13.6698C3.68773 13.5796 3.66594 13.4909 3.62626 13.4098C3.58658 13.3287 3.52993 13.2571 3.46016 13.1998C3.50324 13.1896 3.54351 13.1699 3.57809 13.1423C3.61267 13.1146 3.64069 13.0796 3.66016 13.0398C3.41822 12.9678 3.16005 12.9713 2.92016 13.0498C2.83701 13.0643 2.75842 13.0981 2.69069 13.1485C2.62296 13.1989 2.56798 13.2644 2.53016 13.3398C2.43626 13.5672 2.43626 13.8225 2.53016 14.0498L3.51016 16.3898C3.55016 16.4998 3.58016 16.5998 3.58016 16.7198C3.58016 17.0198 3.34016 17.1198 3.20016 17.1198C3.03016 17.1198 2.87016 16.9798 2.87016 16.8098C2.87016 16.6998 2.93016 16.6298 3.00016 16.6298C3.19016 16.6298 3.17016 16.8098 3.13016 16.9198C3.25016 16.8598 3.32016 16.7598 3.30016 16.6498C3.37511 16.6385 3.443 16.5992 3.49016 16.5398C3.47266 16.505 3.44536 16.476 3.4116 16.4564C3.37784 16.4369 3.3391 16.4277 3.30016 16.4298C3.34016 16.2598 3.24016 16.1798 3.13016 16.1398C3.17016 16.2698 3.19016 16.4098 3.00016 16.4098C2.86016 16.4098 2.75016 16.4398 2.69016 16.5398L2.67016 15.8698C2.66016 15.6698 2.91016 15.6798 3.06016 15.7298C3.00016 15.4998 2.88016 15.3798 2.60016 15.4098C2.67016 15.3798 2.74016 15.3098 2.74016 15.1698C2.74016 14.9798 2.61016 14.7698 2.52016 14.7098L2.48016 16.6498ZM2.53016 2.52984C2.53016 2.52984 2.74016 2.32984 2.81016 2.42984C2.93016 2.58984 2.46016 3.38984 2.46016 3.66984C2.46016 4.12984 2.73016 4.25984 3.07016 4.31984C3.30016 4.35984 3.67016 4.29984 3.67016 4.29984C3.60016 4.18984 3.56016 4.15984 3.44016 4.15984C3.52242 4.10548 3.58947 4.03103 3.63497 3.94354C3.68046 3.85606 3.7029 3.75841 3.70016 3.65984C3.70016 3.25984 3.55016 3.09984 3.55016 2.64984C3.55016 2.39984 3.73016 2.08984 3.73016 2.08984C3.41016 2.10984 3.26016 2.44984 3.35016 2.71984C3.30016 2.72984 3.25016 2.71984 3.21016 2.67984C3.19016 2.74984 3.22016 2.82984 3.27016 2.89984C3.23016 2.92984 3.20016 2.90984 3.14016 2.89984C3.15016 2.96984 3.19016 3.05984 3.29016 3.12984C3.00016 3.04984 2.82016 3.26984 2.82016 3.50984C2.82016 3.68984 2.93016 3.80984 3.04016 3.80984C3.08016 3.80984 3.13016 3.78984 3.16016 3.76984C3.16961 3.79789 3.17272 3.82769 3.16926 3.85709C3.1658 3.88649 3.15586 3.91475 3.14016 3.93984C3.22016 3.91984 3.27016 3.85984 3.24016 3.74984C3.30016 3.74984 3.35016 3.71984 3.38016 3.67984C3.36599 3.65531 3.34557 3.63497 3.32097 3.62092C3.29637 3.60686 3.26849 3.59959 3.24016 3.59984C3.28016 3.49984 3.24016 3.43984 3.16016 3.39984C3.16016 3.39984 3.21016 3.59984 3.09016 3.59984C3.03016 3.59984 2.99016 3.57984 2.99016 3.49984C2.99016 3.41984 3.05016 3.31984 3.19016 3.32984C3.32016 3.33984 3.44016 3.42984 3.44016 3.67984C3.44016 3.89984 3.28016 4.01984 3.06016 4.01984C2.87016 4.02984 2.71016 3.90984 2.71016 3.68984C2.71016 3.38984 3.10016 2.69984 3.10016 2.43984C3.10016 2.23984 2.94016 2.12984 2.78016 2.12984C2.58016 2.12984 2.41016 2.35984 2.41016 2.35984L2.53016 2.52984Z" fill="#F6CF23"/>
<path fill-rule="evenodd" clip-rule="evenodd" d="M2.53031 2.52984C2.53031 2.52984 2.32031 2.32984 2.25031 2.42984C2.13031 2.58984 2.60031 3.38984 2.60031 3.66984C2.60031 4.12984 2.32031 4.25984 1.99031 4.31984C1.76031 4.35984 1.39031 4.29984 1.39031 4.29984C1.46031 4.18984 1.50031 4.15984 1.62031 4.15984C1.53665 4.10692 1.46851 4.03277 1.42283 3.94493C1.37716 3.8571 1.35559 3.75873 1.36031 3.65984C1.36031 3.25984 1.50031 3.09984 1.50031 2.64984C1.50031 2.39984 1.32031 2.08984 1.32031 2.08984C1.64031 2.10984 1.80031 2.44984 1.71031 2.71984C1.76031 2.72984 1.81031 2.71984 1.85031 2.67984C1.87031 2.74984 1.83031 2.82984 1.79031 2.89984C1.82031 2.92984 1.85031 2.90984 1.92031 2.89984C1.91268 2.9465 1.89539 2.99106 1.86956 3.03066C1.84374 3.07026 1.80993 3.10404 1.77031 3.12984C2.06031 3.04984 2.24031 3.26984 2.24031 3.50984C2.24031 3.68984 2.13031 3.80984 2.02031 3.80984C1.97816 3.80413 1.93746 3.79057 1.90031 3.76984C1.88365 3.82593 1.88719 3.88609 1.91031 3.93984C1.84031 3.90984 1.78031 3.85984 1.82031 3.74984C1.79308 3.75025 1.76614 3.7441 1.74178 3.73191C1.71741 3.71973 1.69633 3.70187 1.68031 3.67984C1.69448 3.65531 1.7149 3.63497 1.7395 3.62092C1.7641 3.60686 1.79198 3.59959 1.82031 3.59984C1.77031 3.49984 1.82031 3.43984 1.89031 3.39984C1.89031 3.39984 1.84031 3.59984 1.96031 3.59984C2.01031 3.59984 2.06031 3.57984 2.06031 3.49984C2.06031 3.41984 2.00031 3.31984 1.86031 3.32984C1.73031 3.33984 1.61031 3.42984 1.61031 3.67984C1.62031 3.89984 1.79031 4.00984 2.00031 4.01984C2.20031 4.02984 2.34031 3.90984 2.34031 3.68984C2.34031 3.38984 1.96031 2.69984 1.96031 2.43984C1.96031 2.23984 2.12031 2.12984 2.27031 2.12984C2.48031 2.12984 2.64031 2.35984 2.64031 2.35984L2.53031 2.52984Z" fill="#F6CF23"/>
<path fill-rule="evenodd" clip-rule="evenodd" d="M2.1102 16.6096C2.1102 16.5796 2.0302 16.5996 1.9802 16.6096C1.9202 16.6196 1.8802 16.6596 1.8902 16.6996C1.8902 16.7396 1.9602 16.7196 2.0202 16.6996C2.0802 16.6796 2.1202 16.6496 2.1102 16.6096Z" fill="#53AFC7"/>
<path fill-rule="evenodd" clip-rule="evenodd" d="M1.92035 16.7403H1.90035L1.86035 16.7003C1.86035 16.6503 1.89035 16.6003 1.97035 16.5903L2.08035 16.5703H2.10035L2.14035 16.6103C2.14035 16.6603 2.10035 16.7103 2.03035 16.7303L1.92035 16.7403Z" fill="#53AFC7"/>
<path fill-rule="evenodd" clip-rule="evenodd" d="M19.8305 17.5101C16.8505 17.5201 14.7605 14.8401 14.5705 12.1501C14.5705 12.1501 14.4505 12.1001 14.4405 12.2201C14.4105 12.5001 14.5105 13.3801 14.4705 13.3201C14.4005 13.2101 13.8505 11.5701 13.7605 11.7501C13.6305 11.9901 14.3705 13.8501 14.3205 13.9101C14.1705 14.1101 13.3205 12.0901 13.2505 12.2401C12.9905 12.8101 14.3005 14.6401 14.2905 14.7101C14.2605 14.9501 13.2905 13.7301 13.2105 13.8501C13.0305 14.1501 14.2505 15.2301 14.3205 15.3201C14.5105 15.5601 13.6505 14.8801 13.6305 15.1201C13.6105 15.3101 14.0505 15.7001 14.3105 15.8701C14.5705 16.0401 14.6605 15.9901 14.7305 16.1301C14.7805 16.2401 14.2405 16.0601 14.2505 16.1901C14.2805 16.4601 14.8505 16.4001 14.9405 16.5201C15.0305 16.6401 14.5505 16.5501 14.5705 16.6501C14.6005 16.8201 15.0905 16.8501 15.0905 16.9201C15.1005 16.9901 14.7805 16.9501 14.8005 17.0801C14.8205 17.2001 15.2905 17.1801 15.4105 17.2701C15.5305 17.3601 14.9905 17.2801 15.4105 17.5101C15.8305 17.7501 16.3105 18.0101 16.9705 18.1601C17.6305 18.3101 17.9705 18.1401 17.9905 18.1001C18.0105 18.0601 17.6805 18.1401 17.2105 18.0501C16.7405 17.9501 16.1105 17.6201 15.8605 17.4501C15.7805 17.4101 16.1105 17.3001 16.0405 17.1901C15.9705 17.0901 15.7105 17.2101 15.6005 17.0601C15.5305 16.9701 15.7305 16.9701 15.7205 16.9101C15.7205 16.8601 15.3605 16.7601 15.2905 16.6601C15.2205 16.5601 15.4505 16.5801 15.4605 16.5101C15.4705 16.4601 15.2305 16.3701 15.2205 16.3101C15.2005 16.2401 15.4805 16.2601 15.3505 16.1801C15.2105 16.0901 14.8305 15.9801 14.7605 15.8301C14.6905 15.6901 15.0505 15.8501 14.9505 15.7101C14.8905 15.6101 14.5405 15.4501 14.4705 15.2201C14.4205 15.0701 14.7205 15.2001 14.7205 15.1001C14.7205 14.9501 14.5505 15.0501 14.4905 14.6001C14.4705 14.4601 14.7205 14.5601 14.7205 14.5601L14.7605 14.4801C14.7605 14.4801 15.0505 14.6601 15.4305 15.1601C15.8105 15.6501 15.9105 16.1201 16.2705 16.4501C16.4405 16.6101 16.4505 16.3901 16.8305 16.6601C17.2205 16.9301 17.3805 17.1201 17.7805 17.5101C17.8405 17.5601 18.1005 17.4601 18.8805 17.6401C19.3005 17.7401 19.3905 17.9801 19.3905 17.9801C19.3905 17.9901 19.6205 17.8201 19.7305 17.6401C19.7705 17.5601 19.8205 17.6301 19.8305 17.6201C19.8805 17.5701 19.8305 17.5101 19.8305 17.5101Z" fill="#F6CF23"/>
<path fill-rule="evenodd" clip-rule="evenodd" d="M14.3604 16.1712C14.2904 16.1712 14.2804 16.1812 14.2704 16.1912C14.2904 16.3412 14.5004 16.3812 14.6804 16.4212C14.8104 16.4412 14.9104 16.4612 14.9504 16.5112L14.9604 16.5312V16.5712C14.9404 16.6112 14.8704 16.6112 14.7504 16.6212C14.6904 16.6312 14.5904 16.6312 14.5804 16.6512C14.6004 16.7312 14.7804 16.7912 14.9104 16.8312C15.0404 16.8612 15.1004 16.8812 15.1004 16.9312C15.1104 16.9812 15.0404 17.0012 14.9704 17.0112C14.9104 17.0312 14.8504 17.0312 14.8204 17.0612C14.8204 17.1412 15.0004 17.1712 15.1204 17.1812C15.2404 17.2012 15.3604 17.2212 15.4204 17.2612L15.4504 17.3112C15.4404 17.3412 15.4104 17.3412 15.3504 17.3612C15.3187 17.3651 15.2881 17.3753 15.2604 17.3912C15.2604 17.3912 15.2604 17.4212 15.4104 17.5012C15.7804 17.7112 16.2904 18.0012 16.9704 18.1412C17.1504 18.1812 17.3104 18.2012 17.4704 18.2012C17.7904 18.2012 17.9504 18.1112 17.9704 18.0812L17.8704 18.1112H17.7004C17.5204 18.1112 17.3704 18.0912 17.2104 18.0612C16.7281 17.9346 16.269 17.7321 15.8504 17.4612C15.8304 17.3812 15.8704 17.3612 15.9204 17.3212C15.9704 17.2912 16.0204 17.2412 16.0304 17.2212C16.0004 17.1612 15.9404 17.1612 15.8604 17.1612C15.7604 17.1612 15.6504 17.1612 15.5904 17.0612L15.5704 17.0012C15.5804 16.9612 15.6204 16.9512 15.6504 16.9212L15.7004 16.8912C15.6904 16.8712 15.6004 16.8412 15.5404 16.8112C15.4304 16.7712 15.3104 16.7212 15.2704 16.6512L15.2604 16.5812C15.2704 16.5512 15.3204 16.5312 15.3704 16.5112C15.3904 16.5012 15.4404 16.4912 15.4404 16.4712L15.3404 16.4012C15.2604 16.3512 15.2104 16.3212 15.1904 16.2812C15.2104 16.2212 15.2504 16.2012 15.3004 16.2012L15.3604 16.1812L15.1504 16.0812C14.9804 16.0112 14.7904 15.9312 14.7404 15.8212V15.7412C14.7604 15.6912 14.8204 15.7112 14.8804 15.7212H14.9304C14.9204 15.6712 14.8704 15.6312 14.8004 15.5712C14.6704 15.4712 14.5104 15.3612 14.4604 15.2012C14.4504 15.1755 14.4504 15.1469 14.4604 15.1212C14.4804 15.0912 14.5204 15.0912 14.5604 15.0912H14.6504C14.6804 15.0912 14.7104 15.0912 14.7104 15.0712C14.7104 15.0312 14.6904 15.0112 14.6604 14.9812C14.6004 14.9312 14.5204 14.8612 14.4804 14.5812C14.4804 14.5512 14.4804 14.5312 14.5004 14.5112C14.5504 14.4512 14.7404 14.5112 14.7404 14.5112L14.7504 14.4412C14.8004 14.4412 15.0804 14.6212 15.4604 15.1112C15.6304 15.3312 15.7404 15.5412 15.8504 15.7512C15.9804 15.9912 16.1004 16.2212 16.3004 16.4112C16.3504 16.4612 16.3904 16.4612 16.4204 16.4612H16.5004C16.5704 16.4612 16.6704 16.4812 16.8604 16.6112C17.1604 16.8212 17.3304 16.9812 17.5804 17.2312L17.8104 17.4612C17.8204 17.5012 17.8604 17.5012 17.8904 17.5012H18.0304C18.2004 17.5012 18.4604 17.5112 18.9004 17.6112C19.3304 17.7112 19.4204 17.9612 19.4204 17.9712C19.4204 17.9512 19.6204 17.7812 19.7304 17.6212C19.7504 17.5912 19.7704 17.5712 19.7904 17.5712L19.8404 17.5912V17.5112L19.8204 17.5412C16.7704 17.5412 14.7504 14.8212 14.5504 12.1812H14.5204C14.4904 12.1812 14.4704 12.1912 14.4604 12.2412C14.4404 12.3912 14.4604 12.7412 14.4804 13.0012C14.5004 13.2912 14.5104 13.3412 14.4904 13.3512C14.4304 13.3112 14.3704 13.1712 14.2804 12.9212C14.1551 12.5228 13.9839 12.1402 13.7704 11.7812C13.6904 11.9212 13.9904 12.8112 14.1704 13.3412C14.3404 13.8312 14.3604 13.9112 14.3404 13.9312L14.3004 13.9612C14.1804 13.9612 13.9704 13.5612 13.6504 12.9312C13.4904 12.6312 13.3204 12.2812 13.2704 12.2612C13.0904 12.6712 13.8004 13.8412 14.1504 14.4012C14.3004 14.6512 14.3304 14.6912 14.3204 14.7212V14.7512L14.2704 14.7812C14.1904 14.7812 14.0004 14.6012 13.7204 14.3112C13.5304 14.1112 13.3004 13.8812 13.2404 13.8812C13.1004 14.1112 13.9404 14.9212 14.2204 15.1812L14.3504 15.3112C14.3804 15.3412 14.3904 15.3712 14.3804 15.3912C14.3204 15.4012 14.2604 15.3712 14.1404 15.3012C13.9904 15.2212 13.7904 15.1012 13.7004 15.1012C13.6704 15.1012 13.6604 15.1212 13.6604 15.1312C13.6404 15.3012 14.0404 15.6712 14.3304 15.8512C14.4404 15.9212 14.5204 15.9612 14.5804 15.9812C14.6604 16.0112 14.7104 16.0312 14.7604 16.1312C14.7404 16.2812 14.6404 16.2112 14.5404 16.1912C14.4704 16.1712 14.4104 16.1712 14.3604 16.1712ZM17.4804 18.2612C17.3204 18.2612 17.1504 18.2412 16.9704 18.2012C16.2804 18.0512 15.7804 17.7612 15.4004 17.5512C15.2704 17.4712 15.2204 17.4312 15.2304 17.3812C15.2304 17.3412 15.2904 17.3212 15.3504 17.3112C15.372 17.3112 15.3931 17.3042 15.4104 17.2912C15.3504 17.2612 15.2404 17.2512 15.1204 17.2312C14.9404 17.2012 14.7904 17.1812 14.7804 17.0912V17.0812L14.8004 17.0212C14.8304 16.9712 14.9104 16.9612 14.9704 16.9512L15.0604 16.9212L14.9004 16.8712C14.7504 16.8312 14.5604 16.7812 14.5304 16.6512C14.5604 16.5812 14.6304 16.5712 14.7404 16.5712C14.8004 16.5612 14.9004 16.5612 14.9104 16.5412C14.8804 16.4912 14.7704 16.4712 14.6604 16.4512C14.4604 16.4112 14.2304 16.3712 14.2104 16.1912C14.2704 16.0612 14.3804 16.1112 14.5104 16.1212L14.6404 16.1312C14.6404 16.0612 14.6004 16.0512 14.5204 16.0112C14.4279 15.9806 14.3404 15.9368 14.2604 15.8812C14.0204 15.7312 13.5504 15.3212 13.5704 15.1012C13.5704 15.0712 13.5904 15.0312 13.6504 15.0312C13.7604 15.0312 13.9604 15.1512 14.1104 15.2412L14.3004 15.3412L14.1404 15.2112C13.5704 14.6612 13.0104 14.0712 13.1604 13.8412C13.2704 13.8212 13.4404 13.9912 13.7004 14.2612C13.9004 14.4612 14.1504 14.7212 14.2204 14.7212C14.2204 14.6912 14.1404 14.5612 14.0604 14.4212C13.7104 13.8512 12.9904 12.6712 13.1904 12.2312C13.2804 12.2012 13.3804 12.3912 13.6304 12.8912C13.8404 13.2912 14.1504 13.9012 14.2504 13.9012C14.2604 13.8612 14.1704 13.6012 14.0904 13.3412C13.8204 12.5512 13.6104 11.8912 13.6904 11.7312C13.8004 11.7112 13.9804 12.1012 14.2704 12.8812L14.4204 13.2612C14.4004 13.2012 14.4004 13.0912 14.3904 12.9812C14.365 12.7254 14.3583 12.468 14.3704 12.2112C14.3804 12.1412 14.4204 12.1112 14.4704 12.1112L14.5304 12.1312C14.7304 14.7712 16.7304 17.4812 19.7604 17.4812C19.8004 17.5012 19.8204 17.5312 19.8204 17.5712V17.5812L19.7904 17.6312L19.7504 17.6112L19.7104 17.6212C19.5804 17.8212 19.3504 18.0012 19.3204 18.0012C19.2904 17.9612 19.1904 17.7412 18.8104 17.6512C18.3804 17.5512 18.1104 17.5412 17.9504 17.5412H17.8104C17.7504 17.5412 17.7204 17.5412 17.7004 17.5112L17.4704 17.2912C17.2204 17.0412 17.0604 16.8812 16.7504 16.6612C16.5704 16.5312 16.4804 16.5312 16.4204 16.5312H16.3404C16.2904 16.5312 16.2504 16.5212 16.1904 16.4612C15.9904 16.2712 15.8704 16.0412 15.7304 15.7912C15.4729 15.2878 15.1116 14.8447 14.6704 14.4912V14.5612C14.6404 14.5712 14.5704 14.5412 14.5004 14.5412L14.4404 14.5612C14.4704 14.8512 14.5404 14.9112 14.6004 14.9612C14.6404 14.9912 14.6704 15.0212 14.6704 15.0912C14.6704 15.1512 14.6004 15.1512 14.5704 15.1512H14.4804L14.4204 15.1612C14.4704 15.3312 14.6304 15.4512 14.7504 15.5412C14.8204 15.5912 14.8804 15.6312 14.9004 15.6712L14.9104 15.6812L15.0004 15.7612C14.9904 15.7912 14.9604 15.7912 14.9404 15.7912L14.8304 15.7812C14.8404 15.9112 15.0304 15.9912 15.1804 16.0612L15.3704 16.1512C15.3904 16.1612 15.4204 16.1812 15.4104 16.2212C15.4004 16.2512 15.3704 16.2612 15.3204 16.2712L15.2504 16.3012L15.3704 16.3912C15.4404 16.4412 15.4904 16.4712 15.4904 16.5112C15.4904 16.5612 15.4304 16.5812 15.3904 16.5912L15.3104 16.6212C15.3504 16.6912 15.4704 16.7412 15.5704 16.7912C15.7004 16.8412 15.7504 16.8712 15.7604 16.9112C15.7604 16.9512 15.7204 16.9712 15.6804 16.9912C15.6589 17.0022 15.6388 17.0156 15.6204 17.0312C15.6804 17.1212 15.7704 17.1212 15.8604 17.1312C15.9404 17.1312 16.0204 17.1312 16.0604 17.1912L16.0704 17.2412C16.0604 17.2912 16.0004 17.3412 15.9404 17.3812L15.8704 17.4412C16.1004 17.5812 16.7304 17.9312 17.2104 18.0212C17.3604 18.0512 17.5204 18.0712 17.6904 18.0712L17.8604 18.0612H17.9304C17.9704 18.0612 17.9904 18.0612 18.0004 18.0812C17.9904 18.1712 17.8104 18.2612 17.4804 18.2612ZM21.8404 18.5112C21.7304 18.4812 21.7404 18.5812 21.7404 18.5812C21.7504 18.7012 21.6704 18.8312 21.5804 18.8612C21.5104 18.8812 21.5504 18.9412 21.5204 18.9912L21.2304 18.9812C20.7047 19.2754 20.0933 19.3779 19.5004 19.2712L19.2304 19.5212C19.1004 19.6512 19.0104 19.6812 18.9804 19.7812C18.9504 19.8912 19.0504 19.9412 19.1704 19.9412C19.2904 19.9412 19.4504 19.8212 19.4504 19.8212C19.4504 19.8212 19.4704 19.9212 19.5804 19.9312C19.6904 19.9412 19.8904 19.8512 19.8904 19.8512C19.8904 19.8512 20.0604 19.9412 20.1904 19.9112C20.3104 19.8912 20.4204 19.8012 20.4204 19.8012C20.4204 19.8012 20.4504 19.9612 20.5804 19.9712C20.7104 19.9812 20.9004 19.8012 20.9004 19.8012C20.9004 19.8012 20.9904 19.9212 21.1104 19.9012C21.2304 19.8812 21.3704 19.7312 21.3704 19.7312C21.3704 19.7312 21.5204 19.8012 21.6504 19.7612C21.7904 19.7212 21.9204 19.5612 21.9204 19.5612C21.9204 19.5612 22.0404 19.6712 22.1504 19.6312C22.2604 19.5912 22.3304 19.4212 22.3304 19.4212C22.3304 19.4212 22.6204 19.5612 22.8204 19.4512C22.9504 19.3812 22.9204 19.1412 22.9204 19.1412C22.9204 19.1412 23.7304 19.2712 23.6904 18.6812C23.7004 18.6012 22.4004 18.6212 21.8404 18.5112Z" fill="#F6CF23"/>
<path fill-rule="evenodd" clip-rule="evenodd" d="M20.4101 19.7907C20.4501 19.8207 20.4801 19.9507 20.5901 19.9507L20.6001 19.9707V19.9507C20.7201 19.9507 20.9001 19.7807 20.9001 19.7807C20.9301 19.7807 21.0101 19.8807 21.1001 19.8807C21.2301 19.8607 21.3601 19.7207 21.3701 19.7207C21.3901 19.7207 21.4701 19.7507 21.5601 19.7507C21.5901 19.7507 21.6201 19.7507 21.6501 19.7307C21.75 19.6878 21.8389 19.6229 21.9101 19.5407C21.9301 19.5407 22.0201 19.6207 22.1101 19.6207C22.2501 19.5707 22.3201 19.4107 22.3201 19.4107C22.3601 19.4007 22.5001 19.4607 22.6501 19.4607C22.7201 19.4607 22.7801 19.4407 22.8201 19.4207C22.9401 19.3607 22.9101 19.1307 22.9101 19.1307C22.9301 19.1107 23.0101 19.1107 23.1101 19.1107C23.2701 19.1107 23.4901 19.0907 23.6001 18.9507C23.6322 18.9122 23.6559 18.8674 23.6697 18.8192C23.6835 18.7709 23.687 18.7204 23.6801 18.6707L23.1101 18.6407C22.6801 18.6207 22.1501 18.6007 21.8301 18.5407H21.7701C21.7701 18.7107 21.6901 18.8507 21.5901 18.8807C21.5601 18.8907 21.5601 18.9007 21.5601 18.9307L21.5501 18.9907L21.2401 18.9807C20.7901 19.2607 20.2101 19.3607 19.5101 19.2807L19.2601 19.5207L19.1401 19.6207C19.0801 19.6707 19.0401 19.7007 19.0201 19.7607C19.0001 19.8107 19.0001 19.8307 19.0201 19.8507C19.0401 19.8907 19.1001 19.9107 19.1801 19.9207C19.3001 19.9207 19.4401 19.8107 19.4401 19.8007C19.4801 19.8207 19.4901 19.9007 19.5801 19.9107C19.7001 19.9107 19.8701 19.8407 19.8801 19.8407C19.9001 19.8407 20.0301 19.9007 20.1501 19.9007C20.2446 19.8864 20.334 19.8486 20.4101 19.7907ZM20.5901 20.0107C20.4601 20.0007 20.4201 19.8807 20.4001 19.8307C20.3901 19.8607 20.2901 19.9307 20.1801 19.9407C20.0301 19.9407 19.8801 19.8807 19.8701 19.8807C19.8801 19.8807 19.7001 19.9507 19.5901 19.9507C19.552 19.9486 19.5154 19.9351 19.4851 19.9119C19.4548 19.8887 19.4321 19.8569 19.4201 19.8207C19.4101 19.8607 19.2801 19.9507 19.1701 19.9507C19.0701 19.9407 19.0001 19.9207 18.9701 19.8707C18.9501 19.8307 18.9401 19.7907 18.9601 19.7507C18.9801 19.6807 19.0301 19.6407 19.1001 19.5907L19.2101 19.4907L19.4901 19.2407L19.9701 19.2607C20.4501 19.2607 20.8701 19.1607 21.2201 18.9407L21.5201 18.9607C21.5101 18.8907 21.5101 18.8507 21.5701 18.8307C21.6501 18.8107 21.7201 18.6907 21.7101 18.5807C21.7101 18.5807 21.7001 18.5407 21.7201 18.5107C21.7401 18.4907 21.7601 18.4707 21.7901 18.4707C22.1401 18.5507 22.6701 18.5707 23.0901 18.5907C23.6701 18.6107 23.7001 18.6207 23.7101 18.6707C23.7177 18.7274 23.7136 18.785 23.6981 18.84C23.6827 18.895 23.6561 18.9463 23.6201 18.9907C23.4901 19.1407 23.2701 19.1707 23.1001 19.1707L22.9301 19.1607C22.9501 19.1807 22.9701 19.4007 22.8401 19.4707C22.6801 19.5607 22.3801 19.4607 22.3401 19.4507C22.3501 19.4707 22.2801 19.6307 22.1701 19.6607C22.0701 19.6907 21.9401 19.6107 21.9201 19.5807C21.9201 19.6107 21.8001 19.7407 21.6701 19.7807C21.5501 19.8207 21.3901 19.7607 21.3701 19.7607C21.3801 19.7707 21.2401 19.9207 21.1201 19.9407C20.9901 19.9407 20.9101 19.8407 20.8901 19.8207C20.9001 19.8507 20.7201 20.0107 20.5901 20.0107Z" fill="#F6CF23"/>
<path fill-rule="evenodd" clip-rule="evenodd" d="M20.1204 17.8804C20.1204 17.8804 20.3504 17.7804 20.7704 17.6904C21.5504 17.5104 21.8204 17.5704 21.8804 17.5104C22.5004 16.7404 22.9504 16.6804 23.4004 16.4804C23.7604 16.1404 23.8804 15.6604 24.2504 15.1704C24.6304 14.6804 24.8504 14.6404 24.8504 14.6404L24.9004 14.7504C24.9004 14.7504 25.1004 14.5804 25.0904 14.7204C25.0704 14.9404 24.9104 15.1504 24.9204 15.3004C24.9204 15.4004 25.2004 15.2604 25.1704 15.3404C25.1104 15.5704 24.8904 15.7104 24.8304 15.8104C24.7304 15.9604 25.0804 15.7604 25.0104 15.9104C24.9404 16.0604 24.5904 16.2204 24.4604 16.3104C24.3804 16.3604 24.5504 16.3804 24.5304 16.4404C24.5104 16.5104 24.1604 16.6604 24.1604 16.7104C24.1704 16.7804 24.2604 16.7904 24.2104 16.8404C24.1304 16.9304 23.8404 16.9404 23.8404 17.0004C23.8404 17.0604 23.9004 17.1104 23.8404 17.2104C23.7404 17.3604 23.6604 17.2104 23.6104 17.3304C23.5904 17.4004 23.7804 17.5304 23.6504 17.5604C23.4704 17.6004 23.3404 17.6804 23.1804 17.7904C23.1204 17.8304 22.8604 17.8904 22.7104 17.9304C22.6104 17.9604 22.0604 18.0304 22.0804 18.0904C22.1004 18.1404 22.4504 18.1304 23.1904 17.9904C23.5104 17.9304 23.6904 17.8904 24.1904 17.7104C24.7604 17.5104 24.0404 17.4904 24.1604 17.4104C24.2804 17.3304 24.7704 17.3704 24.7904 17.2404C24.8104 17.1004 24.5104 17.1404 24.5204 17.0704C24.5304 16.9904 25.1204 16.9904 25.1604 16.8204C25.1804 16.7204 24.8204 16.7904 24.9104 16.6804C24.9904 16.5604 25.4704 16.5304 25.4904 16.3004C25.5004 16.1604 25.1004 16.3304 25.1504 16.2204C25.1704 16.1804 25.3304 16.1204 25.4904 16.0004C25.7404 15.8004 26.1304 15.4704 26.1104 15.2804C26.0904 15.0404 25.2904 15.8304 25.3604 15.5304C25.3804 15.4204 26.6504 14.3004 26.4504 14.0204C26.3104 13.8404 25.4004 15.0504 25.3704 14.8104C25.3604 14.7304 26.7804 12.9304 26.5304 12.3604C26.4604 12.2104 25.3904 14.5204 25.2404 14.3204C25.2004 14.2704 26.1504 12.0404 26.0004 11.8204C25.9304 11.7104 25.7804 12.0804 25.6204 12.4804C25.4604 12.8904 25.2804 13.3404 25.2404 13.4004C25.2004 13.4604 25.2804 12.5304 25.2404 12.2504C25.2304 12.1304 25.1104 12.1804 25.1104 12.1804C25.0101 13.4448 24.5104 14.6444 23.6835 15.6061C22.8566 16.5678 21.7454 17.2417 20.5104 17.5304C20.0004 17.6104 19.8404 17.8804 19.2804 18.2404C19.0904 18.3504 18.8004 18.4104 18.5504 18.5704C18.3378 18.7048 18.1625 18.8905 18.0404 19.1104C18.0004 19.1804 18.0604 19.3904 18.1104 19.4204C18.1704 19.4404 18.1604 19.2704 18.2204 19.2304C18.2804 19.2004 18.2804 19.3004 18.3504 19.2904C18.4204 19.2804 18.5004 19.2104 18.5004 19.2104L20.4804 19.1904C20.5904 19.1804 20.7704 19.1404 20.8404 19.0504C20.8204 18.9704 20.6604 19.0204 20.5504 19.0204C20.1304 18.9904 19.5804 19.0204 19.1904 19.0004C19.1904 19.0004 19.1304 18.9904 19.1304 18.9204C19.1304 18.8904 19.3804 18.5904 19.3804 18.5904H19.1804C19.1804 18.5904 19.0604 18.6604 19.0004 18.6704C18.9404 18.6804 18.9204 18.6404 18.9404 18.6204C19.2204 18.3304 20.1204 17.8804 20.1204 17.8804Z" fill="#F6CF23"/>
<path fill-rule="evenodd" clip-rule="evenodd" d="M25.1404 12.17L25.1004 12.18C24.9604 14.95 22.6004 17.18 20.4904 17.52C20.1504 17.57 19.9604 17.72 19.7104 17.91C19.5904 18.01 19.4504 18.11 19.2704 18.22C19.1804 18.28 19.0704 18.32 18.9504 18.36C18.8204 18.41 18.6804 18.46 18.5504 18.55C18.3204 18.69 18.1404 18.91 18.0504 19.08C18.0304 19.11 18.0404 19.18 18.0604 19.24L18.1104 19.34C18.1234 19.3227 18.1304 19.3016 18.1304 19.28C18.1363 19.2293 18.1613 19.1828 18.2004 19.15C18.2604 19.15 18.2704 19.16 18.2904 19.18C18.3104 19.21 18.3204 19.22 18.3404 19.22C18.4004 19.22 18.4804 19.15 18.4804 19.15C18.4904 19.14 19.8804 19.14 20.4804 19.12C20.5804 19.12 20.7504 19.08 20.8204 18.99C20.8104 19 20.7804 18.98 20.7404 18.98L20.6304 18.99L20.5504 19C20.1304 18.97 19.5804 19 19.1904 18.97C19.1904 18.97 19.1504 18.97 19.1304 18.94C19.1104 18.92 19.1104 18.9 19.1104 18.87C19.1104 18.84 19.2004 18.73 19.3704 18.53L19.1904 18.57C19.1904 18.57 19.0804 18.65 19.0104 18.65C18.9604 18.65 18.9304 18.63 18.9204 18.6L18.9104 18.58L18.9304 18.55C19.2304 18.29 20.0904 17.86 20.1304 17.84C20.6373 17.6474 21.1695 17.5296 21.7104 17.49L21.8804 17.47C22.3904 16.83 22.7904 16.68 23.1704 16.53L23.4104 16.43C23.6004 16.25 23.7304 16.02 23.8604 15.76C23.9704 15.56 24.0804 15.35 24.2504 15.12C24.6304 14.63 24.8504 14.58 24.8604 14.58L24.9304 14.7C24.9304 14.67 25.0104 14.61 25.0704 14.61L25.1204 14.63C25.1304 14.64 25.1404 14.67 25.1304 14.7C25.1204 14.82 25.0804 14.93 25.0404 15.03C25.0004 15.12 24.9604 15.21 24.9704 15.28H25.0904L25.1704 15.27L25.2204 15.29C25.1802 15.4511 25.089 15.5949 24.9604 15.7L24.8704 15.8C24.8804 15.82 24.9004 15.82 24.9204 15.81L24.9904 15.8H25.0004L25.0404 15.83C25.0604 15.86 25.0404 15.89 25.0404 15.9C24.9904 16.02 24.8004 16.12 24.6404 16.21L24.4804 16.3C24.5304 16.35 24.5804 16.38 24.5604 16.43C24.5504 16.47 24.4804 16.52 24.3404 16.59L24.1804 16.69C24.1804 16.71 24.2004 16.72 24.2104 16.73L24.2404 16.78C24.1804 16.88 24.0704 16.91 23.9804 16.93C23.9358 16.939 23.8923 16.9524 23.8504 16.97C23.8804 17.06 23.9004 17.12 23.8404 17.19C23.7904 17.26 23.7404 17.27 23.7104 17.27L23.6604 17.26C23.6404 17.26 23.6304 17.27 23.6204 17.3L23.6604 17.38C23.6904 17.41 23.7204 17.46 23.7004 17.5C23.6904 17.52 23.6704 17.53 23.6404 17.54C23.4604 17.58 23.3304 17.67 23.1804 17.77L22.8604 17.87L22.7004 17.91L22.5104 17.95C22.3904 17.97 22.1804 18 22.1004 18.04C22.1504 18.04 22.3004 18.09 23.1704 17.92C23.4904 17.86 23.6704 17.82 24.1704 17.64C24.3704 17.56 24.3804 17.53 24.3804 17.53C24.3804 17.51 24.2804 17.47 24.2404 17.47C24.1604 17.44 24.1204 17.42 24.1104 17.39V17.37L24.1304 17.34C24.2269 17.294 24.3336 17.2734 24.4404 17.28C24.5604 17.26 24.7404 17.24 24.7504 17.19C24.7604 17.14 24.7004 17.12 24.6004 17.1C24.5404 17.09 24.4704 17.07 24.4804 17.02C24.4804 16.97 24.5504 16.96 24.7104 16.93C24.8604 16.9 25.0904 16.86 25.1104 16.77C25.1004 16.74 25.0304 16.74 24.9904 16.73C24.9204 16.73 24.8604 16.72 24.8404 16.68L24.8304 16.67L24.8504 16.62C24.8904 16.57 24.9804 16.53 25.0904 16.5C25.2404 16.45 25.4204 16.38 25.4204 16.26C25.4104 16.22 25.3304 16.23 25.2404 16.24C25.1704 16.25 25.1104 16.27 25.0804 16.22C25.1004 16.15 25.1404 16.12 25.2004 16.08L25.4204 15.95C25.9704 15.51 26.0404 15.32 26.0304 15.25C25.9404 15.22 25.7804 15.32 25.6504 15.41C25.5104 15.5 25.3904 15.58 25.3204 15.58L25.2704 15.56V15.47C25.2704 15.44 25.3404 15.37 25.5404 15.16C25.8704 14.81 26.4904 14.17 26.3604 13.99C26.2404 13.99 25.9804 14.23 25.7804 14.44C25.5504 14.67 25.4004 14.82 25.3304 14.82H25.3104L25.2804 14.77C25.2804 14.74 25.3104 14.7 25.4804 14.45C25.8504 13.9 26.6304 12.75 26.4404 12.34C26.4004 12.36 26.1804 12.76 25.9804 13.12C25.5804 13.85 25.3104 14.32 25.1904 14.32C25.1304 14.27 25.1504 14.22 25.3704 13.63C25.6104 12.99 26.0004 11.93 25.9104 11.8C25.8404 11.79 25.6804 12.18 25.5604 12.46L25.5104 12.59C25.3604 12.97 25.2204 13.33 25.1804 13.38C25.1304 13.36 25.1304 13.31 25.1404 12.97C25.1504 12.7 25.1604 12.36 25.1504 12.21C25.1904 12.18 25.1804 12.17 25.1404 12.17ZM18.1004 19.41H18.0804C18.0404 19.4 18.0104 19.31 18.0004 19.28C17.9804 19.21 17.9704 19.12 18.0004 19.07C18.2023 18.7117 18.5359 18.4462 18.9304 18.33C19.0504 18.28 19.1604 18.25 19.2504 18.19C19.4304 18.08 19.5604 17.97 19.6904 17.88C19.9504 17.69 20.1404 17.54 20.4904 17.48C22.5704 17.15 24.9104 14.92 25.0704 12.15C25.1104 12.09 25.2304 12.12 25.2504 12.21C25.2704 12.37 25.2504 12.7 25.2504 12.98C25.2404 13.15 25.2304 13.33 25.2404 13.36C25.2404 13.31 25.3904 12.94 25.5404 12.58L25.5904 12.45C25.7804 11.98 25.8804 11.75 25.9704 11.75H25.9804L26.0004 11.78C26.1004 11.93 25.8104 12.71 25.4604 13.66C25.3404 13.96 25.2404 14.24 25.2404 14.29C25.3504 14.28 25.7204 13.6 25.9904 13.11C26.3104 12.53 26.4304 12.31 26.4904 12.31C26.7204 12.77 25.9404 13.94 25.5604 14.5L25.3704 14.78C25.4304 14.77 25.6304 14.59 25.7904 14.43C26.0204 14.2 26.2604 13.96 26.3804 13.96H26.3904L26.4404 13.99C26.5804 14.18 26.1104 14.71 25.6204 15.23C25.5004 15.36 25.3604 15.49 25.3604 15.52C25.4204 15.56 25.5504 15.48 25.6704 15.4C25.9004 15.24 26.1004 15.14 26.1104 15.27C26.1304 15.42 25.9204 15.68 25.4804 16.02L25.2504 16.16C25.2104 16.18 25.1604 16.21 25.1504 16.23L25.2604 16.22C25.3504 16.21 25.4404 16.21 25.4704 16.24L25.4904 16.29C25.4804 16.45 25.2904 16.51 25.1204 16.57C25.0304 16.61 24.9404 16.63 24.9104 16.68C24.9104 16.71 24.9704 16.72 25.0104 16.72C25.0804 16.73 25.1404 16.74 25.1604 16.77C25.1504 16.93 24.9204 16.98 24.7304 17.01L24.5304 17.06L24.6204 17.08C24.7004 17.09 24.8104 17.13 24.8004 17.23C24.7904 17.31 24.6304 17.33 24.4504 17.35C24.3304 17.37 24.2104 17.38 24.1604 17.41L24.2504 17.44C24.3404 17.47 24.4204 17.49 24.4204 17.55C24.4204 17.59 24.3904 17.64 24.1804 17.71C23.5525 17.9482 22.8911 18.0865 22.2204 18.12C22.0904 18.12 22.0604 18.1 22.0504 18.08C22.0704 18.02 22.1604 18 22.5004 17.93L22.6904 17.89L22.8504 17.85L23.1504 17.76C23.3004 17.65 23.4404 17.56 23.6304 17.53C23.6604 17.5 23.6304 17.47 23.6204 17.44C23.5904 17.4 23.5604 17.35 23.5804 17.31C23.6004 17.26 23.6204 17.25 23.6604 17.25L23.7104 17.28V17.25C23.7404 17.25 23.7704 17.25 23.8004 17.19C23.8404 17.15 23.8204 17.11 23.8104 17.07L23.8004 17C23.8104 16.95 23.8604 16.93 23.9604 16.91C24.0404 16.89 24.1404 16.87 24.1804 16.82C24.1504 16.78 24.1204 16.76 24.1204 16.72C24.1104 16.68 24.1604 16.65 24.3004 16.57C24.3704 16.54 24.4804 16.47 24.4904 16.44C24.4904 16.42 24.4704 16.41 24.4504 16.4C24.4304 16.39 24.4004 16.37 24.4004 16.34V16.32L24.4304 16.28L24.5904 16.18C24.7404 16.1 24.9204 15.99 24.9704 15.89C24.9404 15.86 24.9104 15.87 24.8904 15.87L24.8304 15.88L24.7804 15.85C24.7704 15.83 24.7904 15.8 24.8004 15.78L24.8904 15.68C24.9804 15.59 25.0904 15.48 25.1404 15.33L25.0604 15.34C24.9504 15.37 24.8904 15.33 24.8904 15.3C24.8804 15.22 24.9204 15.13 24.9604 15.02C25.0004 14.92 25.0504 14.82 25.0504 14.71C25.0004 14.68 24.9304 14.73 24.8904 14.76L24.8104 14.65C24.8104 14.67 24.5904 14.73 24.2404 15.18C24.0704 15.4 23.9604 15.61 23.8504 15.82C23.7104 16.07 23.5904 16.31 23.3904 16.5L23.1404 16.6C22.7704 16.74 22.3704 16.9 21.8704 17.52C21.8404 17.55 21.7904 17.56 21.6804 17.56C21.1456 17.5899 20.6191 17.7047 20.1204 17.9C20.1104 17.9 19.2304 18.35 18.9304 18.6C19.0204 18.6 19.1104 18.56 19.1404 18.54L19.3504 18.53C19.2504 18.71 19.1304 18.86 19.1204 18.89L19.1604 18.97V18.94C19.5504 18.97 20.1004 18.94 20.5204 18.98L20.5904 18.97C20.6804 18.96 20.7904 18.93 20.8204 19.02C20.7304 19.14 20.5504 19.19 20.4404 19.19C19.8504 19.21 18.5004 19.21 18.4604 19.21C18.4604 19.22 18.3904 19.29 18.3104 19.29C18.2935 19.2912 18.2766 19.287 18.2622 19.278C18.2478 19.2691 18.2367 19.2557 18.2304 19.24C18.1804 19.23 18.1604 19.28 18.1504 19.32C18.1504 19.37 18.1304 19.41 18.1004 19.41Z" fill="#F6CF23"/>
<path fill-rule="evenodd" clip-rule="evenodd" d="M18.7398 18.8205C18.7398 18.7905 18.6698 18.8105 18.6198 18.8205C18.5698 18.8305 18.5398 18.8505 18.5498 18.8905C18.5498 18.9305 18.6098 18.9105 18.6598 18.8905C18.7098 18.8805 18.7398 18.8605 18.7398 18.8205Z" fill="#53AFC7"/>
<path fill-rule="evenodd" clip-rule="evenodd" d="M18.5803 18.9412H18.5603L18.5303 18.9012C18.5303 18.8612 18.5603 18.8212 18.6203 18.8012L18.7103 18.7812H18.7303L18.7603 18.8212C18.7603 18.8612 18.7303 18.9012 18.6603 18.9212C18.6354 18.9337 18.6081 18.9405 18.5803 18.9412Z" fill="#53AFC7"/>
<path fill-rule="evenodd" clip-rule="evenodd" d="M20.5204 7.49055C20.6904 7.53055 20.7704 7.43055 20.8004 7.29055C20.8404 7.10055 20.7604 6.15055 20.7604 6.15055C20.7604 6.15055 20.3704 7.00055 20.3404 7.18055C20.3104 7.33055 20.3504 7.46055 20.5204 7.49055ZM21.1304 7.70055C21.2904 7.78055 21.3904 7.69055 21.4404 7.56055C21.5004 7.39055 21.6004 6.44055 21.6004 6.44055C21.6004 6.44055 21.0704 7.18055 21.0104 7.36055C20.9604 7.49055 20.9704 7.63055 21.1304 7.70055ZM21.6904 8.04055C21.8304 8.14055 21.9404 8.08055 22.0204 7.96055C22.1104 7.81055 22.3704 6.90055 22.3704 6.90055C22.3704 6.90055 21.7304 7.51055 21.6304 7.67055C21.5604 7.79055 21.5504 7.94055 21.6904 8.04055ZM22.1904 8.50055C22.3104 8.64055 22.4304 8.60055 22.5204 8.50055C22.6404 8.37055 23.0504 7.54055 23.0504 7.54055C23.0504 7.54055 22.3104 8.00055 22.1904 8.13055C22.1004 8.23055 22.0704 8.36055 22.1904 8.50055ZM22.5904 9.06055C22.6804 9.22055 22.8104 9.21055 22.9104 9.13055C23.0504 9.02055 23.6004 8.30055 23.6004 8.30055C23.6004 8.30055 22.8004 8.59055 22.6604 8.69055C22.5504 8.77055 22.5004 8.90055 22.5904 9.06055ZM22.8904 9.69055C22.9604 9.87055 23.0804 9.89055 23.2004 9.83055C23.3604 9.75055 24.0204 9.16055 24.0204 9.16055C24.0204 9.16055 23.1804 9.27055 23.0204 9.34055C22.9004 9.40055 22.8304 9.51055 22.8904 9.69055ZM23.0804 10.3805C23.1104 10.5605 23.2304 10.6105 23.3604 10.5805C23.5304 10.5405 24.2804 10.1105 24.2804 10.1105C24.2804 10.1105 23.4404 10.0305 23.2704 10.0705C23.1404 10.0905 23.0504 10.1905 23.0804 10.3805ZM23.1404 11.0905C23.1404 11.2905 23.2504 11.3505 23.3804 11.3505C23.5504 11.3505 24.3604 11.0905 24.3604 11.0905C24.3604 11.0905 23.5504 10.8305 23.3804 10.8305C23.2504 10.8305 23.1404 10.9005 23.1404 11.0905ZM23.0804 11.8105C23.0504 12.0005 23.1404 12.0905 23.2704 12.1205C23.4304 12.1605 24.2804 12.0805 24.2804 12.0805C24.2804 12.0805 23.5304 11.6405 23.3604 11.6005C23.2304 11.5705 23.1104 11.6105 23.0804 11.8105ZM22.8904 12.4905C22.8304 12.6705 22.9004 12.7805 23.0204 12.8305C23.1804 12.9105 24.0204 13.0105 24.0204 13.0105C24.0204 13.0105 23.3604 12.4205 23.2004 12.3405C23.0804 12.3005 22.9604 12.3105 22.8904 12.4905ZM22.5904 13.1305C22.5004 13.2805 22.5504 13.4105 22.6604 13.5005C22.8004 13.6005 23.6004 13.8905 23.6004 13.8905C23.6004 13.8905 23.0604 13.1605 22.9104 13.0505C22.8104 12.9805 22.6904 12.9705 22.5904 13.1305ZM22.1904 13.6805C22.0704 13.8105 22.1004 13.9505 22.1904 14.0605C22.3104 14.1905 23.0504 14.6505 23.0504 14.6505C23.0504 14.6505 22.6404 13.8105 22.5204 13.6805C22.4304 13.5805 22.3104 13.5505 22.1904 13.6805ZM21.6904 14.1305C21.5504 14.2405 21.5604 14.3805 21.6204 14.5005C21.7204 14.6605 22.3604 15.2705 22.3604 15.2705C22.3604 15.2705 22.1004 14.3705 22.0104 14.2105C21.9504 14.0905 21.8404 14.0305 21.6904 14.1305ZM21.1304 14.4805C20.9704 14.5605 20.9604 14.6905 21.0004 14.8205C21.0704 15.0005 21.5904 15.7405 21.5904 15.7405C21.5904 15.7405 21.5004 14.8005 21.4304 14.6205C21.3904 14.4905 21.2904 14.4005 21.1304 14.4805ZM18.0704 14.1305C17.9304 14.0305 17.8104 14.0905 17.7404 14.2105C17.6504 14.3705 17.3904 15.2705 17.3904 15.2705C17.3904 15.2705 18.0404 14.6605 18.1304 14.5005C18.2104 14.3805 18.2204 14.2405 18.0704 14.1305ZM17.5804 13.6805C17.4604 13.5505 17.3404 13.5805 17.2504 13.6905C17.1304 13.8205 16.7204 14.6605 16.7204 14.6605C16.7204 14.6605 17.4604 14.2005 17.5804 14.0705C17.6704 13.9605 17.7004 13.8205 17.5804 13.6805ZM17.1704 13.1305C17.0704 12.9705 16.9504 12.9805 16.8404 13.0505C16.7004 13.1605 16.1504 13.8905 16.1504 13.8905C16.1504 13.8905 16.9604 13.6005 17.1004 13.5005C17.2104 13.4105 17.2704 13.2805 17.1704 13.1305ZM16.8704 12.4905C16.8004 12.3105 16.6804 12.3005 16.5604 12.3505C16.4004 12.4205 15.7404 13.0205 15.7404 13.0205C15.7404 13.0205 16.5804 12.9205 16.7404 12.8405C16.8604 12.7805 16.9404 12.6705 16.8704 12.4905ZM16.6904 11.8105C16.6504 11.6105 16.5404 11.5805 16.4104 11.6005C16.2504 11.6405 15.5004 12.0805 15.5004 12.0805C15.5004 12.0805 16.3404 12.1605 16.5104 12.1205C16.6204 12.0905 16.7204 11.9905 16.6904 11.8105ZM16.6204 11.0905C16.6204 10.9005 16.5104 10.8305 16.3904 10.8305C16.2204 10.8305 15.4004 11.0905 15.4004 11.0905C15.4004 11.0905 16.2104 11.3505 16.3904 11.3505C16.5204 11.3505 16.6204 11.2805 16.6204 11.0905ZM16.6904 10.3805C16.7204 10.1905 16.6304 10.1005 16.5004 10.0705C16.3304 10.0305 15.4904 10.1105 15.4904 10.1105C15.4904 10.1105 16.2404 10.5405 16.4004 10.5805C16.5404 10.6105 16.6504 10.5705 16.6904 10.3805ZM16.8704 9.69055C16.9304 9.52055 16.8604 9.40055 16.7404 9.35055C16.5804 9.28055 15.7404 9.17055 15.7404 9.17055C15.7404 9.17055 16.4004 9.76055 16.5604 9.84055C16.6804 9.89055 16.8104 9.87055 16.8704 9.69055ZM17.1704 9.06055C17.2604 8.90055 17.2104 8.77055 17.1004 8.69055C16.9604 8.59055 16.1504 8.30055 16.1504 8.30055C16.1504 8.30055 16.6904 9.02055 16.8404 9.13055C16.9504 9.21055 17.0804 9.22055 17.1704 9.06055ZM17.5804 8.50055C17.7004 8.37055 17.6704 8.23055 17.5804 8.13055C17.3053 7.91758 17.0181 7.72059 16.7204 7.54055C16.7204 7.54055 17.1304 8.37055 17.2504 8.50055C17.3404 8.60055 17.4604 8.64055 17.5804 8.50055ZM19.8804 7.87055C21.4604 7.87055 22.7504 9.31055 22.7504 11.0905C22.7504 12.8805 21.4704 14.3205 19.8804 14.3205C18.2904 14.3205 17.0104 12.8805 17.0104 11.0905C17.0104 9.31055 18.2904 7.87055 19.8804 7.87055ZM19.8804 7.43055C20.0504 7.42055 20.1204 7.31055 20.1204 7.16055C20.1204 6.97055 19.8804 6.06055 19.8804 6.06055C19.8804 6.06055 19.6504 6.98055 19.6504 7.16055C19.6504 7.30055 19.7104 7.43055 19.8804 7.43055ZM20.5204 14.6805C20.3504 14.7205 20.3104 14.8505 20.3404 15.0005C20.3704 15.1805 20.7604 16.0305 20.7604 16.0305C20.7604 16.0305 20.8304 15.0805 20.8004 14.9005C20.7704 14.7505 20.6804 14.6505 20.5204 14.6805ZM19.8804 14.7505C19.7104 14.7505 19.6504 14.8705 19.6504 15.0205C19.6504 15.2105 19.8804 16.1205 19.8804 16.1205C19.8804 16.1205 20.1204 15.2105 20.1204 15.0205C20.1204 14.8805 20.0504 14.7505 19.8804 14.7505ZM19.2504 14.6805C19.0804 14.6505 19.0004 14.7505 18.9704 14.8905C18.9404 15.0705 19.0104 16.0205 19.0104 16.0205C19.0104 16.0205 19.4004 15.1705 19.4304 14.9905C19.4604 14.8605 19.4104 14.7205 19.2504 14.6805ZM18.6404 14.4805C18.4804 14.4105 18.3804 14.4905 18.3304 14.6205C18.2551 14.9904 18.2016 15.3644 18.1704 15.7405C18.1704 15.7405 18.7004 15.0005 18.7604 14.8205C18.8104 14.6905 18.7904 14.5505 18.6404 14.4805ZM18.0704 8.04055C18.2104 7.93055 18.2004 7.79055 18.1304 7.67055C18.0404 7.51055 17.3904 6.90055 17.3904 6.90055C17.3904 6.90055 17.6504 7.81055 17.7404 7.96055C17.8204 8.08055 17.9304 8.15055 18.0704 8.04055ZM18.6404 7.70055C18.8004 7.63055 18.8104 7.49055 18.7704 7.36055C18.7004 7.18055 18.1804 6.44055 18.1804 6.44055C18.1804 6.44055 18.2704 7.39055 18.3404 7.56055C18.3804 7.69055 18.4804 7.78055 18.6404 7.70055ZM19.2504 7.49055C19.4204 7.45055 19.4604 7.33055 19.4304 7.18055C19.3904 7.00055 19.0104 6.15055 19.0104 6.15055C19.0104 6.15055 18.9404 7.10055 18.9704 7.29055C19.0004 7.43055 19.0804 7.54055 19.2504 7.49055Z" fill="#F6CF23"/>
</g>
</g>
<defs>
<clipPath id="clip0_26003_90372">
<rect width="38" height="25" fill="white" transform="translate(0 0.5)"/>
</clipPath>
<clipPath id="clip1_26003_90372">
<rect width="38" height="25" fill="white" transform="translate(0 0.5)"/>
</clipPath>
</defs>
</svg>
