<svg width="38" height="26" viewBox="0 0 38 26" fill="none" xmlns="http://www.w3.org/2000/svg">
<g clip-path="url(#clip0_26003_75496)">
<g clip-path="url(#clip1_26003_75496)">
<path fill-rule="evenodd" clip-rule="evenodd" d="M2.5 25.5H35.6C36.9 25.2 37.9 24.1 38.1 22.6V3.4C37.9 1.9 36.9 0.7 35.6 0.5H2.5C1.2 0.8 0.2 1.9 0 3.4V22.6C0.2 24.1 1.2 25.2 2.5 25.5Z" fill="#FEFEFE"/>
<path fill-rule="evenodd" clip-rule="evenodd" d="M0 10.3008H38V15.7008H0V10.3008Z" fill="#426DB3"/>
<path fill-rule="evenodd" clip-rule="evenodd" d="M0 10.3H38V3.4C37.8 1.9 36.8 0.7 35.5 0.5H2.5C1.2 0.8 0.2 1.9 0 3.4V10.3Z" fill="#242222"/>
<path fill-rule="evenodd" clip-rule="evenodd" d="M37.2 1.5L19 25.5L0.8 1.5C0.4 2 0.1 2.7 0 3.4V22.6C0.2 24.1 1.2 25.3 2.5 25.5H35.6C36.9 25.2 37.9 24.1 38.1 22.6V3.4C37.9 2.7 37.6 2 37.2 1.5Z" fill="#C12837"/>
<path fill-rule="evenodd" clip-rule="evenodd" d="M22.5998 9.49961L25.6998 7.19961L22.0998 7.99961L24.0998 4.49961L20.9998 6.79961L21.7998 2.69961L19.6998 6.19961L18.9998 2.09961L18.2998 6.19961L16.1998 2.69961L16.8998 6.79961L13.8998 4.49961L15.8998 7.99961L12.2998 7.19961L15.3998 9.49961L11.7998 10.2996H26.1998L22.5998 9.49961Z" fill="#F5D71C"/>
</g>
</g>
<defs>
<clipPath id="clip0_26003_75496">
<rect width="38" height="25" fill="white" transform="translate(0 0.5)"/>
</clipPath>
<clipPath id="clip1_26003_75496">
<rect width="38" height="25" fill="white" transform="translate(0 0.5)"/>
</clipPath>
</defs>
</svg>
