<svg width="38" height="26" viewBox="0 0 38 26" fill="none" xmlns="http://www.w3.org/2000/svg">
<g clip-path="url(#clip0_26003_72497)">
<g clip-path="url(#clip1_26003_72497)">
<path d="M12.46 0.509766H25.51V25.4998H12.46V0.509766Z" fill="white"/>
<path d="M12.4595 0.510267H3.69953C3.22247 0.50233 2.74854 0.58878 2.30501 0.764647C1.86147 0.940513 1.45708 1.20233 1.11509 1.53503C0.773091 1.86773 0.50024 2.26476 0.312224 2.70328C0.124208 3.1418 0.0247374 3.61317 0.0195312 4.09027V21.9203C0.0195312 23.9203 1.67953 25.5003 3.69953 25.5003H12.5195V0.510267H12.4595Z" fill="#006847"/>
<path d="M34.3196 0.510267H25.5596V25.5003H34.3196C34.7966 25.5082 35.2706 25.4218 35.7141 25.2459C36.1576 25.07 36.562 24.8082 36.904 24.4755C37.246 24.1428 37.5189 23.7458 37.7069 23.3073C37.8949 22.8687 37.9944 22.3974 37.9996 21.9203V4.09027C37.9944 3.61317 37.8949 3.1418 37.7069 2.70328C37.5189 2.26476 37.246 1.86773 36.904 1.53503C36.562 1.20233 36.1576 0.940513 35.7141 0.764647C35.2706 0.58878 34.7966 0.50233 34.3196 0.510267Z" fill="#CE1126"/>
<path d="M34.3196 0.510267H25.5596V18.3403L34.3196 25.5003C34.7966 25.5082 35.2706 25.4218 35.7141 25.2459C36.1576 25.07 36.562 24.8082 36.904 24.4755C37.246 24.1428 37.5189 23.7458 37.7069 23.3073C37.8949 22.8687 37.9944 22.3974 37.9996 21.9203V4.09027C37.9944 3.61317 37.8949 3.1418 37.7069 2.70328C37.5189 2.26476 37.246 1.86773 36.904 1.53503C36.562 1.20233 36.1576 0.940513 35.7141 0.764647C35.2706 0.58878 34.7966 0.50233 34.3196 0.510267Z" fill="#CE1126"/>
<path d="M25.57 18.3398V0.509766H12.46V7.66977L25.57 18.3398Z" fill="white"/>
<path d="M12.4602 0.509766H3.7002L12.4602 7.66977V0.509766Z" fill="#006847"/>
<path d="M25.5703 25.4999H34.3303C34.8074 25.5079 35.2813 25.4214 35.7248 25.2455C36.1684 25.0697 36.5728 24.8079 36.9148 24.4752C37.2568 24.1425 37.5296 23.7454 37.7176 23.3069C37.9056 22.8684 38.0051 22.397 38.0103 21.9199H25.5703V25.4999Z" fill="#CE1126"/>
<path d="M12.46 21.9199H25.51V25.4999H12.46V21.9199Z" fill="white"/>
<path d="M0.0195312 21.9199C0.0195312 23.9199 1.67953 25.4999 3.69953 25.4999H12.5195V21.9199H0.0195312Z" fill="#006847"/>
<path d="M34.3196 0.510267H25.5596V6.90027L37.9996 10.5403V4.09027C37.9944 3.61317 37.8949 3.1418 37.7069 2.70328C37.5189 2.26476 37.246 1.86773 36.904 1.53503C36.562 1.20233 36.1576 0.940513 35.7141 0.764647C35.2706 0.58878 34.7966 0.50233 34.3196 0.510267Z" fill="#CE1126"/>
<path d="M25.57 6.90977V0.509766H12.46V3.08977L25.57 6.90977Z" fill="white"/>
<path d="M12.4602 0.509766H3.7002L12.4602 3.08977V0.509766ZM24.8902 12.5998C24.8902 12.5398 24.8902 12.5398 24.8902 12.5998V12.5398C24.8902 12.5398 24.8302 12.5998 24.8302 12.6598V12.7798C24.8302 12.7798 24.8302 12.6598 24.7702 12.5498L24.6502 12.3198C24.6502 12.3198 24.5302 12.4398 24.4702 12.5498C24.4102 12.6698 24.4102 12.8398 24.4102 12.9598C24.3877 12.8568 24.3471 12.7586 24.2902 12.6698C24.1702 12.4898 24.1102 12.5498 24.1102 12.5498C24.1102 12.5498 24.2302 12.6698 24.1702 12.7798C24.1702 12.8998 24.1102 13.1298 24.1702 13.2498C24.2302 13.3698 24.2902 13.4298 24.3502 13.4798V13.7698L24.1702 13.6498V13.5898C24.1702 13.5298 24.1102 13.4698 24.0502 13.4698C23.9902 13.4698 23.9302 13.5898 23.9302 13.6498C23.9302 13.7098 23.9902 13.7698 24.0502 13.7698H24.1102L24.2902 13.9498C24.2902 14.0098 24.2302 14.0698 24.2302 14.0698H24.1702C24.1102 14.1298 23.9902 14.2998 23.9902 14.2998V14.0598L23.6202 14.2398C23.4402 14.4198 23.3102 14.5898 23.3702 14.7098C23.3702 14.8298 23.4902 14.9998 23.4902 15.1798V15.4698C23.4902 15.4698 23.4902 15.5298 23.4302 15.5298L23.1802 15.2998L23.2402 15.2398C23.2379 15.2087 23.2245 15.1795 23.2025 15.1575C23.1805 15.1355 23.1513 15.1221 23.1202 15.1198C23.0602 15.1198 23.0002 15.1798 23.0002 15.2398C23.0002 15.2998 23.0602 15.3598 23.1202 15.3598L23.3002 15.6498C23.2402 15.7098 23.2402 15.7098 23.1802 15.7098C23.1802 15.7098 23.1202 15.7098 22.9302 15.7698C22.8102 15.8298 22.6802 15.9498 22.6802 15.9498C22.6802 15.9498 22.7402 15.8898 22.7402 15.7698C22.7402 15.5898 22.6802 15.5398 22.6802 15.5398V15.7198C22.6802 15.7198 22.6802 15.7798 22.6202 15.7798C22.5602 15.8998 22.1302 16.1298 22.0702 16.3098C22.0102 16.4898 22.0702 16.4898 22.0102 16.5398C21.9502 16.6598 21.8902 16.7198 21.8902 16.7698L21.8302 16.8298C21.8302 16.8298 21.7702 16.8298 21.7702 16.8898L21.7102 16.6598L21.7702 16.5998C21.7679 16.5687 21.7545 16.5395 21.7325 16.5175C21.7105 16.4955 21.6813 16.4821 21.6502 16.4798C21.6191 16.4821 21.5899 16.4955 21.5679 16.5175C21.5459 16.5395 21.5325 16.5687 21.5302 16.5998C21.5302 16.6598 21.5902 16.7198 21.6502 16.7198V17.0098L21.5902 17.0698C21.5902 17.1298 21.5302 17.1298 21.5302 17.1898C21.4702 17.1898 21.4102 17.1298 21.3502 17.1298H21.1702C21.1702 17.1298 21.2302 17.0698 21.2902 17.0698L21.3502 17.0098C21.3502 17.0098 21.1702 16.9498 21.0402 16.9498C20.9102 16.9498 20.7302 16.9498 20.6102 17.0698C20.4902 17.1298 20.4302 17.2998 20.2402 17.3598C20.1202 17.4198 19.9302 17.4798 19.9302 17.4798H19.8702C19.7502 17.4798 19.6902 17.4198 19.5602 17.4198H19.3102V17.2998H18.8902C18.8902 17.2998 18.8302 17.2998 18.8302 17.3598V17.4798C18.7702 17.4798 18.7102 17.4198 18.5802 17.4198C18.3302 17.4198 18.2102 17.4798 18.1502 17.4798H18.0902C17.9702 17.4198 17.9702 17.2998 17.9102 17.2998C17.8502 17.2998 17.9102 17.4798 17.8502 17.4798C17.7902 17.4798 17.6702 17.1898 17.4802 17.1298C17.3602 17.1298 17.3002 17.1298 17.3002 17.1898C17.3002 17.2498 17.4802 17.4198 17.4202 17.4198C17.3602 17.4198 17.1702 17.1298 16.9902 17.1298C16.8702 17.1298 16.8102 17.1898 16.8702 17.1898C16.8702 17.2498 17.0502 17.2498 16.9902 17.3698C16.9302 17.4898 16.8102 17.1898 16.6802 17.2498H16.5602L16.5002 16.8998C16.5002 16.8998 16.5602 16.8998 16.5602 16.8398L16.6202 16.7798V16.7198H16.5002V16.6598L16.4402 16.5998C16.4402 16.5998 16.3802 16.5998 16.3802 16.6598V16.7798H16.3202V16.8398C16.3202 16.8998 16.3202 16.8998 16.3802 16.8998H16.5002V17.1298L16.3802 17.0098C16.3802 17.0098 16.2602 16.9498 16.2002 16.8298C16.1402 16.7098 16.2002 16.5398 16.1402 16.5398C16.0802 16.5398 16.0802 16.7198 16.0202 16.6598C15.9602 16.5998 16.0202 16.3698 15.9602 16.2498C15.9002 16.1298 15.7802 16.0198 15.7102 16.0698C15.6502 16.1298 15.7102 16.3598 15.5902 16.2998C15.5302 16.2398 15.5902 16.0098 15.5902 15.8898C15.5902 15.7698 15.5302 15.7098 15.4702 15.7098C15.4102 15.7098 15.4702 15.9398 15.4102 15.9398C15.3502 15.9398 15.3502 15.8198 15.2902 15.7598H15.2302C15.2302 15.7598 15.2302 15.6398 15.1702 15.6398V15.8798C15.1702 15.8798 15.1102 15.8198 15.0502 15.8198V15.5298H15.1102L15.1702 15.4698C15.1702 15.4698 15.1702 15.4098 15.1102 15.4098H15.0502V15.2898L14.9902 15.2298C14.9902 15.2298 14.9302 15.2298 14.9302 15.2898V15.4098H14.8702L14.8102 15.4698C14.8102 15.5298 14.8102 15.5298 14.8702 15.5298H14.9302V15.7598L14.7502 15.5798C14.7502 15.5798 14.6902 15.4598 14.6902 15.3498C14.6902 15.1698 14.8102 14.9398 14.8102 14.8798C14.7502 14.8198 14.6902 15.0598 14.6302 14.9998C14.5702 14.9398 14.6902 14.7098 14.6302 14.5898C14.5702 14.4698 14.5702 14.4098 14.5102 14.4098C14.3902 14.4098 14.3902 14.6998 14.3302 14.6998C14.2702 14.6398 14.3302 14.5198 14.3302 14.4098C14.0802 14.1798 14.0802 14.1798 14.0202 14.1798C13.9602 14.1798 13.9602 14.3598 13.9002 14.3598L13.7802 14.2398V14.0098L13.9002 13.7198H14.0202L14.0802 13.6598V13.5998L14.0202 13.5398L14.0802 13.4798V13.3598C14.0202 13.3598 14.0202 13.3598 13.9602 13.4198V13.4798H13.9002C13.9002 13.4798 13.8402 13.4798 13.8402 13.5398V13.5998C13.8402 13.6598 13.8402 13.6598 13.9002 13.7198L13.7802 13.8998C13.7202 13.7798 13.7202 13.7198 13.7202 13.6098C13.7202 13.4898 13.7802 13.4898 13.7802 13.4298C13.7802 13.3698 13.7202 13.4898 13.7202 13.3698C13.7202 13.3098 14.0302 13.1398 13.9702 13.0798C13.9102 13.0198 13.6602 13.1998 13.7202 13.0798C13.7802 12.9598 14.0302 12.9598 14.0302 12.7298C14.0302 12.6098 13.7802 12.7898 13.7802 12.7298C13.7802 12.6698 13.9002 12.5498 13.9002 12.4398C13.9002 12.3798 13.9602 12.3198 13.9002 12.3198H13.8402C13.7202 12.3798 13.7802 12.4398 13.6602 12.4398C13.6602 12.4398 13.6002 12.3198 13.6002 12.3798C13.5402 12.3798 13.4802 12.4998 13.4802 12.5598V12.7898C13.4202 12.8498 13.4202 12.6698 13.3002 12.6698C13.2402 12.6698 13.1802 12.7898 13.1802 12.8498C13.1802 12.9098 13.3602 13.0798 13.3002 13.1398C13.2402 13.1998 13.1202 12.9598 12.9902 13.0798C12.9302 13.1998 13.2402 13.3698 13.3002 13.3698C13.3602 13.3698 13.3002 13.4298 13.3602 13.4898C13.4202 13.5498 13.4802 13.6098 13.5402 13.6098C13.6002 13.6698 13.6602 13.7898 13.6602 13.8998L13.4102 13.7798V13.6598L13.3502 13.5998H13.2902L13.2302 13.6598L13.1702 13.5998H13.1102C13.1102 13.5998 13.0502 13.5998 13.0502 13.6598C13.0502 13.7198 13.0502 13.7198 13.1102 13.7798H13.1702V13.8398C13.1702 13.8398 13.1702 13.8998 13.2302 13.8998H13.2902C13.3502 13.8998 13.3502 13.8998 13.4102 13.8398L13.7202 14.0698V14.3098C13.6602 14.3098 13.6002 14.2498 13.6002 14.3098C13.6002 14.3698 13.7202 14.4298 13.6602 14.4898C13.6602 14.4898 13.4102 14.4298 13.4102 14.4898C13.4102 14.5498 13.4102 14.6698 13.5302 14.6698C13.6502 14.7298 13.9602 14.7898 13.9002 14.7898C13.8402 14.8498 13.5302 14.6098 13.5302 14.7898C13.5302 14.9698 13.6502 15.0198 13.7102 15.0198C13.7702 15.0198 14.0802 15.0198 14.0802 15.0798C14.0802 15.1398 13.8302 15.0798 13.8302 15.1398C13.8302 15.2598 14.0102 15.2598 14.0102 15.2598C14.0702 15.2598 14.1902 15.2598 14.2602 15.3198L14.5702 15.6098H14.3902C14.3902 15.5498 14.3902 15.5498 14.3302 15.4898L14.2702 15.4298H14.2102V15.5498H14.0902C14.0902 15.5498 14.1502 15.6098 14.2102 15.6098V15.6698L14.2702 15.7298C14.3302 15.7298 14.3902 15.6698 14.3902 15.6098H14.7002C14.8202 15.6698 14.8802 15.7298 14.8802 15.7298H14.7002C14.7002 15.7898 15.1902 15.9598 15.0102 16.0198C14.8902 16.0798 14.7002 15.8998 14.7002 16.0198C14.6402 16.1398 14.8202 16.2498 14.8802 16.2498C14.9402 16.3098 15.3702 16.2498 15.3102 16.3698C15.2502 16.4898 14.9402 16.3098 14.8802 16.4298C14.8802 16.5498 15.0602 16.7198 15.1902 16.7198C15.3102 16.7198 15.4402 16.5398 15.5002 16.6598C15.5602 16.7798 15.4402 16.7798 15.5002 16.8398C15.6202 16.8398 15.6802 16.7198 15.8102 16.7798C15.9302 16.7798 16.1202 16.8998 16.1802 16.9598H15.9302C15.9302 16.9598 15.9302 16.8998 15.8702 16.8998L15.8102 16.8398H15.7002V16.9598H15.6402L15.5802 17.0198C15.5802 17.0198 15.5802 17.0798 15.6402 17.0798H15.7602V17.1398H15.8202C15.8202 17.1398 15.8802 17.1398 15.8802 17.0798V16.9398H16.1902L16.3102 17.0598C16.3102 17.0598 16.1902 17.0598 16.1302 17.1198C16.0702 17.1198 16.0102 17.2398 16.0102 17.2398V17.2998H16.1302L16.1902 17.2398C16.1902 17.2398 16.1902 17.2998 16.2502 17.2998C16.3102 17.2998 16.4302 17.1798 16.5602 17.2398C16.6802 17.2998 16.3802 17.3598 16.4402 17.4698C16.5002 17.5898 16.6902 17.5298 16.7502 17.4698C16.8102 17.4698 16.9302 17.2398 17.0602 17.3498C17.1202 17.4698 16.8802 17.5298 16.9402 17.6398C17.0002 17.7598 17.1202 17.6998 17.2502 17.6998C17.3102 17.6398 17.5002 17.4098 17.5602 17.4698C17.6202 17.5898 17.4402 17.6498 17.4402 17.7598C17.5002 17.8198 17.6202 17.7598 17.6902 17.6998C17.7502 17.6398 17.8102 17.5198 17.9402 17.4698L18.0602 17.4098C18.0602 17.4098 18.1202 17.3498 18.1802 17.3498C18.265 17.2725 18.3755 17.2297 18.4902 17.2298C18.5502 17.2298 18.6102 17.2298 18.6102 17.2898L18.1802 17.4698C18.0602 17.5298 18.0002 17.5898 17.9302 17.6498C17.9302 17.6498 17.9902 17.7098 18.0502 17.7098C18.1102 17.7098 18.1702 17.6498 18.1702 17.6498C18.1702 17.6498 18.2902 17.5898 18.4202 17.4698C18.5118 17.4044 18.6184 17.3631 18.7302 17.3498V17.4698C18.7302 17.5298 18.6102 17.5298 18.4202 17.6998C18.2402 17.8798 18.1702 18.0498 18.1702 18.0498C18.1702 18.0498 18.2302 17.9898 18.2902 17.9898C18.3502 17.9898 18.4102 17.9298 18.4102 17.9298H18.4702C18.5302 17.9298 18.5302 17.9898 18.5902 17.9898L18.6502 18.0498C18.6502 18.1098 18.7102 18.1098 18.7102 18.1098C18.7102 18.1098 18.7702 17.9898 18.8902 17.9298L19.0102 17.8098C19.0102 17.8698 19.0702 17.8698 19.1302 17.9298C19.1902 17.9898 19.3102 17.9898 19.3802 18.0498C19.4402 18.1098 19.5002 18.1098 19.5002 18.1098L19.5602 18.0498L19.6202 17.9898L19.6802 17.9298H19.8602C19.9802 17.9298 19.9802 17.9898 19.9802 17.9898C19.9802 17.9898 19.8602 17.8098 19.8002 17.7598C19.7402 17.6998 19.5502 17.6398 19.4302 17.5798L19.3102 17.4598V17.3998C19.3702 17.3998 19.4902 17.4598 19.6202 17.5198C19.7402 17.5798 19.8002 17.6398 19.8002 17.6998C19.8002 17.6998 19.8602 17.7598 19.9202 17.7598C19.9802 17.7598 20.0402 17.6998 19.9802 17.6998C19.9802 17.6998 19.9202 17.5798 19.6702 17.4698C19.4902 17.4098 19.3602 17.3498 19.3002 17.3498V17.2898C19.3602 17.2898 19.6702 17.2898 19.7902 17.3498L20.1602 17.5298C20.2802 17.6498 20.5302 17.8198 20.6502 17.8198C20.9002 17.8198 21.3902 17.5298 21.5102 17.5298C21.6302 17.4698 21.7602 17.4698 21.7602 17.4698C21.7602 17.4698 21.7002 17.4098 21.5802 17.4098C21.5202 17.4098 21.5202 17.3498 21.5202 17.3498H21.3402C21.3402 17.3498 21.4602 17.2298 21.5202 17.2298C21.5749 17.1823 21.6354 17.142 21.7002 17.1098L21.8202 16.9898L22.1302 17.1698V17.2298L22.1902 17.2898H22.2502C22.3102 17.2898 22.3102 17.2298 22.3102 17.1698V17.1098L22.2502 17.0498H22.2002L22.0202 16.8698C22.0802 16.8098 22.1402 16.8098 22.2002 16.8098C22.3202 16.8098 22.9402 16.8098 23.1802 16.6898C23.4902 16.5098 23.4302 16.2198 23.4302 16.1598C23.4302 16.0998 23.4902 16.0398 23.4902 16.0398H23.3702C23.3102 16.0398 23.2502 16.0998 23.2502 16.0998C23.2502 16.0998 23.2502 15.9798 23.3102 15.9198V15.7998C23.3702 15.7998 23.3702 15.7998 23.4302 15.7398L23.6802 15.7998C23.6802 15.8598 23.7402 15.9198 23.8002 15.9198C23.8602 15.9198 23.9202 15.8598 23.9202 15.7998C23.9202 15.7398 23.8602 15.6798 23.8002 15.6798C23.7402 15.6798 23.7402 15.6798 23.6802 15.7398L23.5002 15.6798C23.5002 15.6198 23.5602 15.6198 23.6202 15.5598C23.6202 15.5598 23.6802 15.4998 23.7402 15.4998C23.8002 15.4998 23.9202 15.4998 24.1102 15.3798C24.3602 15.2598 24.4802 14.9098 24.5402 14.7298C24.6002 14.5498 24.7902 14.4398 24.7902 14.4398C24.7902 14.4398 24.6702 14.3798 24.4202 14.6198V14.0298L24.7902 13.9098L24.8502 13.9698C24.9102 13.9698 24.9702 13.9098 24.9702 13.8498C24.9679 13.8187 24.9545 13.7895 24.9325 13.7675C24.9105 13.7455 24.8813 13.7321 24.8502 13.7298C24.8191 13.7321 24.7899 13.7455 24.7679 13.7675C24.7459 13.7895 24.7325 13.8187 24.7302 13.8498H24.4002V13.7898C24.4002 13.7298 24.5202 13.6698 24.5802 13.5598C24.7002 13.4398 25.0102 13.3298 25.0102 13.0298C25.0802 12.7098 24.9502 12.6498 24.8902 12.5998ZM19.3202 17.4598C19.2602 17.4598 19.2602 17.4598 19.3202 17.4598V17.4598Z" fill="#006847"/>
<path d="M14.6596 12.5395L14.7796 12.7195L14.7196 12.7795H14.7796V12.8395H14.7196V12.7795L14.5996 12.8995H14.6596V12.9595L14.7196 13.0195H14.8396C14.8396 13.0795 14.8396 13.1395 14.8996 13.1995C14.9596 13.3195 15.0196 13.3795 15.0796 13.3795C15.0796 13.4395 15.0196 13.4995 15.0196 13.6095V13.6695H14.9596C14.9596 13.6695 14.9596 13.7295 15.0196 13.7295C15.0796 13.8495 15.1396 13.9595 15.2696 14.0795H15.1496C15.1496 14.0795 15.2096 14.1395 15.2696 14.1395H15.3296C15.4496 14.1995 15.5796 14.2595 15.6396 14.3195V14.3795L15.5796 14.4395C15.5796 14.4395 15.6996 14.4395 15.6996 14.3795V14.2995C15.8196 14.3595 15.9496 14.3595 16.0096 14.3595C16.0096 14.4195 16.0696 14.4795 16.1296 14.5895C16.0696 14.5895 16.0096 14.7095 16.0096 14.7095C16.0096 14.7095 16.1296 14.7095 16.1296 14.6495H16.1896C16.3096 14.7095 16.4396 14.7695 16.6196 14.8295V14.8895C16.6196 14.8895 16.6796 14.8295 16.7396 14.8295C16.7396 14.8895 16.6796 14.9495 16.6796 14.9495C16.6796 14.9495 16.7396 14.9495 16.7996 14.8895C16.7996 14.8895 16.7996 14.8295 16.8596 14.8295H17.0396C17.2896 14.8295 17.4696 14.7695 17.5296 14.7095C17.5296 14.8295 17.5896 14.8895 17.6496 14.9995C17.7096 15.0595 17.7696 15.0595 17.8296 15.1195V15.1795C17.8296 15.1795 17.8896 15.1795 17.8896 15.1195H17.9496C18.0096 15.1195 18.1296 15.1795 18.3196 15.1795C18.3196 15.2395 18.2596 15.2995 18.2596 15.2995C18.2596 15.2995 18.3196 15.2995 18.3796 15.2395H18.6796C18.6796 15.2995 18.6196 15.3595 18.6196 15.3595C18.6196 15.3595 18.6796 15.3595 18.6796 15.2995L18.7396 15.2395V15.3595C18.7396 15.3595 18.7996 15.2995 18.7996 15.2395V15.1795C18.9196 15.1195 18.9796 15.1195 19.0496 15.0595V15.5295H18.2596C18.1996 15.4695 18.1996 15.4695 18.1396 15.4695C18.0796 15.4695 18.0196 15.5295 18.0196 15.5295C17.9596 15.5895 17.9596 15.6495 17.9596 15.7095H17.8996C17.8396 15.7095 17.7796 15.6495 17.7196 15.6495C17.6596 15.5895 17.5996 15.5295 17.5396 15.4195C17.5396 15.3595 17.4796 15.3595 17.4796 15.3595C17.5396 15.2995 17.5396 15.2995 17.5396 15.2395C17.5396 15.1195 17.4796 15.0595 17.3596 15.0595C17.2396 15.0595 17.1796 15.1195 17.1796 15.2395C17.1796 15.3595 17.2396 15.4195 17.2996 15.4195V15.5395H17.1796C17.0596 15.4795 16.8096 15.4195 16.6296 15.3095C16.5096 15.2495 16.4496 15.1895 16.3796 15.1895C16.3196 15.1895 16.3196 15.1295 16.3196 15.1295C16.2596 15.0095 15.8296 14.8995 15.8296 15.0095C15.7696 15.1295 15.9496 15.3595 16.1396 15.3595H16.3196C16.3796 15.3595 16.4996 15.4795 16.6296 15.5395C16.6896 15.5995 16.7496 15.5995 16.7496 15.6595L16.8096 15.7195V15.7795C16.8096 15.7795 16.7496 15.7795 16.7496 15.8395H16.6896C16.6296 15.7795 16.6296 15.7795 16.5696 15.7795C16.4496 15.7795 16.3896 15.8395 16.3896 15.9595C16.3896 16.0795 16.4496 16.1395 16.5696 16.1395C16.6896 16.1395 16.7496 16.0795 16.7496 15.9595C16.8696 15.9595 17.0596 15.9595 17.2396 16.0195C17.3596 16.0195 17.4196 16.0795 17.4896 16.0795C17.5596 16.0795 17.5496 16.1395 17.5496 16.1395V16.2595C17.5496 16.2595 17.4896 16.3195 17.4296 16.3195H17.1896C17.0696 16.3795 16.9396 16.4995 17.0096 16.5495C17.0696 16.6095 17.2596 16.6695 17.3796 16.6095C17.4396 16.5495 17.4996 16.5495 17.5596 16.4895H18.0496C18.0496 16.5495 18.1096 16.5495 18.1096 16.6095C18.1696 16.6695 18.1696 16.6695 18.2296 16.6695H18.2896C18.3496 16.7295 18.4096 16.7895 18.4696 16.7895C18.4696 16.7895 18.5296 16.7895 18.5896 16.8495C18.7096 16.8495 18.9596 16.9095 19.1996 16.9095H19.9896C20.1096 16.9095 20.1696 16.8495 20.2396 16.7295C20.2396 16.7295 20.2996 16.7295 20.2996 16.6695L20.3596 16.6095C20.4444 16.5323 20.5549 16.4895 20.6696 16.4895C20.8496 16.4295 20.9196 16.4295 21.0396 16.4295H21.0996C21.1596 16.4895 21.2196 16.5495 21.2796 16.5495C21.3996 16.5495 21.4596 16.4895 21.4596 16.3695C21.4596 16.2495 21.3996 16.1895 21.2796 16.1895C21.2196 16.1895 21.0996 16.2495 21.0996 16.3095C21.0996 16.3095 21.0396 16.3095 21.0396 16.2495L20.9796 16.1895V16.1295L21.0396 16.0695C21.1486 15.9944 21.2772 15.9527 21.4096 15.9495C21.4696 15.9495 21.5296 15.8895 21.5896 15.8895C21.7096 16.0095 21.8396 15.8895 21.8996 15.8295C21.9596 15.7695 22.0796 15.7095 22.0196 15.5995C21.9596 15.5395 21.8396 15.5395 21.7696 15.5395C21.7096 15.5395 21.6496 15.5995 21.5896 15.6595C21.5296 15.6595 21.4696 15.6595 21.3396 15.7195C21.2196 15.7795 20.9696 15.8395 20.6696 15.8395H20.4896V15.7795C20.4896 15.7195 20.4296 15.6595 20.4296 15.5995L20.3696 15.5395H20.2996C20.2396 15.5395 20.2396 15.5395 20.1796 15.5995C20.1796 15.5995 20.1196 15.5995 20.1196 15.6595L20.0596 15.5995C20.0596 15.5395 20.1196 15.5395 20.1196 15.5395C20.1196 15.5395 20.1796 15.4795 20.2396 15.4795C20.2996 15.4795 20.2996 15.4195 20.2996 15.4195H20.3596L20.5396 15.3595H20.6596C20.7196 15.3595 20.8396 15.3595 20.9096 15.2995C20.9696 15.2995 21.0296 15.3595 21.1596 15.4195H21.2196C21.2196 15.4195 21.2196 15.4795 21.2796 15.5395C21.3396 15.5995 21.3996 15.5995 21.3996 15.5995L21.3396 15.4795C21.4596 15.5395 21.6496 15.5395 21.7696 15.5395C21.8896 15.5395 22.0196 15.4795 22.1396 15.4795C22.1396 15.4795 22.1396 15.5395 22.1996 15.5395H22.3196C22.3196 15.5395 22.2596 15.4795 22.1996 15.4795H22.3196C22.3196 15.4795 22.1996 15.4795 22.1996 15.4195C22.1996 15.4195 22.2596 15.4195 22.2596 15.3595C22.3196 15.2995 22.3796 15.2995 22.4396 15.2395L22.4996 15.1795L22.5596 15.1195H22.6196C22.6796 15.1195 22.7396 15.0595 22.7396 15.0595H22.6196V14.7595C22.6796 14.7595 22.6796 14.6995 22.7396 14.6995C22.7996 14.6395 22.8596 14.5795 22.8596 14.5195H22.9796V14.3395V14.3995H22.9196V14.3395H22.9796L23.0996 14.1595H23.1596C23.2196 14.1595 23.2196 14.1595 23.2796 14.0995V14.0395C23.2796 13.9795 23.2796 13.9795 23.2196 13.9195H23.1596C23.0996 13.9195 23.0996 13.9195 23.0396 13.9795V14.0995L22.8596 14.2195H22.7996V14.1595L22.6796 14.0995V14.1595H22.6196L22.5596 14.2195V14.2795H22.6196C22.5596 14.2795 22.4996 14.3395 22.4396 14.3995L22.3196 14.5195C22.2596 14.5195 22.2596 14.4595 22.1996 14.4595C22.1396 14.4595 22.1396 14.3995 22.0796 14.3995H22.0196L22.0796 14.2795C22.0796 14.2795 22.0196 14.2795 21.9596 14.3395V14.3995C21.8996 14.3995 21.8996 14.4595 21.8396 14.4595C21.7796 14.5195 21.7196 14.5195 21.6596 14.5795V14.4595L21.5996 14.5195V14.6395L21.4196 14.8195L21.3596 14.8795H21.1196V14.5795C21.1196 14.5795 21.2396 14.5795 21.2396 14.6395C21.2996 14.7595 21.1196 14.7595 21.1196 14.7595H21.2996C21.2996 14.7595 21.3596 14.7595 21.3596 14.6995V14.6395C21.3596 14.5795 21.3596 14.5195 21.2996 14.5195L21.2396 14.4595V14.3995L21.1796 14.3395H20.9996C20.9996 14.3395 20.9996 14.2795 20.9396 14.2795L20.8796 14.2195L20.8196 14.1595C20.8196 14.0995 20.7596 14.0995 20.7596 14.0995C20.7596 14.0995 20.7596 14.0395 20.6996 14.0395C20.6996 14.0395 20.6396 14.0395 20.6396 13.9795V13.7995C20.6996 13.8595 20.7596 13.9195 20.7596 13.8595C20.8196 13.8595 20.7596 13.7395 20.7596 13.6795V13.4995L21.1896 13.9695C21.1896 13.9695 21.2496 14.0295 21.3696 14.0295C21.4296 14.0295 21.4896 13.9695 21.4896 13.9695C21.4896 13.9695 21.5496 14.0895 21.7396 14.0895C21.8596 14.0895 21.9196 14.0295 21.9896 13.9695C22.0496 13.9695 22.0496 14.0295 22.0496 14.0295C22.2296 14.0895 22.4796 13.9095 22.5396 13.9095H22.5996C22.9096 13.9695 23.0896 13.7295 23.0896 13.7295L22.9696 13.6095C22.9696 13.6095 22.5996 13.3195 22.0496 12.9595C21.6196 12.6695 21.1896 12.3095 21.0096 12.1995C21.0096 12.0795 21.0096 11.9095 20.9496 11.7895C20.8896 11.6095 20.8296 11.5595 20.8296 11.4995C20.8896 11.4395 20.8896 11.3795 20.8896 11.3195H20.9496C21.0096 11.3795 21.0696 11.4995 21.1996 11.5495C21.3196 11.6095 21.3196 11.5495 21.3796 11.6095C21.4396 11.6695 21.7496 12.0795 21.7496 12.0795C21.8096 12.1395 21.8096 12.1995 21.8096 12.1995L21.8696 12.2595C21.9296 12.2595 21.9296 12.2595 21.9296 12.1995C21.9296 12.1995 21.8096 12.0795 21.7496 11.9695C21.6896 11.8495 21.6296 11.6195 21.5696 11.4995H21.6896C21.7496 11.4995 21.9996 11.7295 21.9996 11.7895C21.9996 11.8495 21.9996 11.9095 22.1196 12.0795C22.2396 12.3095 22.2996 12.3695 22.2996 12.3695C22.2996 12.4295 22.3596 12.4895 22.4196 12.4895C22.4796 12.4895 22.4196 12.4295 22.3596 12.3695C22.3596 12.3095 22.2996 12.1895 22.2396 12.0195L22.1196 11.6095L22.0596 11.5495H22.1196L22.1796 11.6095C22.2396 11.6695 22.3596 11.8395 22.3596 11.8995C22.4196 12.0195 22.4196 12.1895 22.4796 12.3695C22.5396 12.5495 22.5996 12.7195 22.6596 12.6595C22.6596 12.5995 22.6596 12.3095 22.5396 12.0695C22.4868 11.8757 22.4467 11.6786 22.4196 11.4795C22.4196 11.4795 22.4796 11.5395 22.5396 11.6595C22.5996 11.7795 22.5396 11.8895 22.6596 12.2495C22.7796 12.5995 22.8396 12.6595 22.9096 12.7795C22.9696 12.8995 22.8496 13.2495 22.9696 13.3095V12.5495C22.9696 12.3695 22.9696 12.3695 22.9096 11.9595L22.8496 11.4895C22.8496 11.4895 22.9096 11.5495 22.9696 11.7195C23.0296 12.0095 23.0296 12.4195 23.0896 12.5395C23.1496 12.6595 23.1496 12.5995 23.2096 12.7695C23.2696 12.8895 23.1496 13.5295 23.2696 13.5295C23.3896 13.5295 23.3296 12.7095 23.3296 12.4695C23.3296 12.2295 23.2696 11.5295 23.2696 11.4695C23.3296 11.5295 23.3896 11.6495 23.3896 11.6995C23.3896 11.8795 23.3896 12.5195 23.4496 12.6995C23.4496 12.9295 23.5096 12.9295 23.5096 13.1695C23.5096 13.3495 23.4496 13.5795 23.4496 13.6395C23.4496 13.6995 23.4496 13.8195 23.5096 13.8195C23.5696 13.8195 23.5096 13.6995 23.5696 13.6395C23.5696 13.5795 23.6296 13.5795 23.6296 13.5195C23.6896 13.3995 23.6896 12.6995 23.7496 12.3495C23.8096 11.9995 23.8696 12.0595 23.8696 11.6495C23.8696 11.2995 23.7496 10.9995 23.7496 10.9495H23.8696C23.9296 10.9495 23.9296 10.8895 23.9296 10.8895C23.9296 10.8295 23.8696 10.8295 23.7496 10.7695L23.6296 10.5395C23.5096 10.3095 23.3796 9.94953 23.0796 9.53953C22.8279 9.17219 22.4918 8.87045 22.0996 8.65953C22.0996 8.65953 22.0996 8.59953 22.1596 8.59953C22.1596 8.59953 22.2796 8.47953 22.2196 8.47953H21.9696C21.9096 8.47953 21.8496 8.47953 21.5996 8.29953C21.5996 8.29953 20.9296 7.82953 19.8196 7.76953C19.4496 7.76953 19.3296 7.88953 19.3296 7.94953V8.00953H19.2096C19.1496 8.00953 19.0296 8.00953 18.9596 8.06953C18.4696 8.00953 18.4096 8.06953 18.4096 8.24953C18.4096 8.30953 18.4096 8.36953 18.4696 8.42953C18.4696 8.48953 18.5296 8.48953 18.5896 8.48953C18.6496 8.48953 18.7096 8.48953 18.8396 8.54953C18.9596 8.54953 19.0196 8.60953 19.1496 8.72953C19.2696 8.78953 19.2696 8.90953 19.3296 8.95953V9.31953C19.2696 9.25953 19.2696 9.19953 19.2096 9.13953C19.1496 9.01953 19.0296 8.90953 18.9596 8.90953V8.78953C18.9596 8.78953 18.9596 8.84953 18.8396 8.84953C18.7796 8.84953 18.7196 8.78953 18.5296 8.72953C18.4096 8.66953 18.3496 8.66953 18.2796 8.66953H18.1596C18.1586 8.56099 18.1156 8.45706 18.0396 8.37953C18.0396 8.37953 18.0396 8.43953 17.9796 8.49953C17.9796 8.55953 17.8596 8.61953 17.8596 8.67953C17.8596 8.55953 17.7996 8.44953 17.7996 8.44953C17.7996 8.32953 17.7396 8.32953 17.7396 8.32953V8.38953C17.7396 8.56953 17.6796 8.73953 17.6796 8.79953C17.5996 8.89953 17.5396 8.89953 17.5396 8.89953C17.5996 8.83953 17.5996 8.83953 17.5996 8.71953C17.5996 8.53953 17.4796 8.53953 17.4796 8.53953V8.76953C17.4796 8.88953 17.3596 8.99953 17.3596 8.99953V8.87953C17.3596 8.69953 17.2996 8.69953 17.2996 8.69953C17.2996 8.69953 17.2996 8.75953 17.2396 8.87953C17.1796 9.05953 17.1196 9.05953 17.0596 9.16953C16.8796 9.34953 16.8096 9.34953 16.8096 9.39953V9.57953C16.8096 9.57953 16.7496 9.57953 16.6896 9.63953C16.6296 9.63953 16.5696 9.69953 16.3796 9.69953C16.3196 9.69953 16.2596 9.69953 16.2596 9.63953V9.51953C16.3196 9.51953 16.3196 9.51953 16.3796 9.45953C16.3796 9.45953 16.4396 9.39953 16.4996 9.39953C16.6196 9.33953 16.6796 9.21953 16.6796 9.21953H16.6196C16.6196 9.21953 16.5596 9.27953 16.4996 9.27953C16.3796 9.33953 16.2496 9.33953 16.2496 9.33953V9.27953C16.2496 9.27953 16.3096 9.21953 16.3096 9.15953L16.3696 9.09953C16.3696 9.03953 16.3696 9.03953 16.4296 8.97953V8.95953C16.4296 8.95953 16.4296 8.89953 16.4896 8.89953C16.4896 8.89953 16.5496 8.95953 16.5496 9.01953V9.13953C16.6696 9.13953 16.6096 8.84953 16.6096 8.78953V8.72953L16.5496 8.66953L16.4296 8.72953H16.3096C16.2496 8.72953 15.8796 9.01953 15.8796 9.13953C15.8796 9.25953 15.9396 9.31953 15.9396 9.36953C15.9396 9.48953 15.9396 9.83953 16.1196 9.89953C16.2996 9.95953 16.6096 9.89953 16.6096 9.89953C16.6096 9.95953 16.6696 9.95953 16.7296 10.0195C16.7896 10.0795 16.9096 10.1395 16.9796 10.1395C17.0396 10.1395 17.0396 10.1395 17.0996 10.0795V10.1395C16.9796 10.3695 16.7296 10.4895 16.5496 10.6695C16.4296 10.7295 16.3696 10.8495 16.2396 10.9595C15.9896 11.2495 15.9296 11.3695 15.9296 11.6095V11.6695C15.9296 12.0195 16.1096 12.2595 16.2396 12.3195C16.3596 12.3795 16.5496 12.4395 16.6096 12.4395H17.1596V12.4995C17.1596 12.4995 17.1596 12.5595 17.0996 12.5595C17.0996 12.4995 17.1596 12.4995 17.1596 12.4995H16.8596C16.7996 12.4995 16.7396 12.5595 16.7396 12.5595C16.7396 12.6195 16.6796 12.6195 16.6796 12.6795H16.6196C16.6196 12.6795 16.5596 12.6795 16.5596 12.7395C16.5596 12.7395 16.4996 12.7995 16.4996 12.8595H16.4396V12.9795H16.3796C16.3196 12.9795 16.3196 12.9795 16.2596 12.9195C16.1996 12.8595 16.1996 12.7995 16.1996 12.7395C16.1996 12.6795 16.1996 12.6195 16.1396 12.5095C16.0796 12.3895 15.9596 12.3295 15.8896 12.2195C15.7696 12.1595 15.7096 12.0395 15.6396 11.9895V11.9295C15.6396 11.8695 15.6996 11.8095 15.6996 11.6995V11.5995C15.6996 11.5395 15.7596 11.4795 15.7596 11.4195V11.2995C15.7596 11.1795 15.6396 11.0695 15.5096 10.9495C15.4496 10.8895 15.3896 10.8895 15.3296 10.8295C15.3296 10.8295 15.3296 10.7695 15.2696 10.7695L15.2096 10.7095H15.1496C15.1496 10.7095 15.1496 10.7695 15.0896 10.7695V10.7095L15.0296 10.6495H14.9696L14.9096 10.5895H14.8496C14.8496 10.5895 14.8496 10.6495 14.7896 10.6495H14.7296L14.6696 10.7095C14.6696 10.7695 14.6696 10.7695 14.7296 10.7695V10.8295H15.0896V10.8895H15.1496C15.2096 10.8895 15.2096 10.8895 15.2096 10.8295C15.2096 10.8295 15.2696 10.8295 15.2696 10.8895C15.3296 10.9495 15.3296 10.9495 15.3296 11.0095V11.0695C15.3296 11.1295 15.2696 11.1895 15.2696 11.2995C15.2096 11.4195 15.2096 11.5295 15.2096 11.6495V11.8295C15.2096 11.8895 15.2696 11.9495 15.2696 12.0095L15.3896 12.1295C15.5096 12.1895 15.6396 12.2495 15.6996 12.3595C15.7596 12.4795 15.7596 12.5895 15.8196 12.7095C15.8196 12.7695 15.8196 12.8295 15.8796 12.8895C15.8796 12.9495 15.9396 13.0095 15.9996 13.0095C16.0596 13.0695 16.1196 13.0695 16.2496 13.0695H16.4296C16.4896 13.0695 16.5496 13.0695 16.5496 13.0095C16.6096 13.0095 16.6696 12.9495 16.6696 12.9495C16.6696 12.9495 16.7296 13.0095 16.7896 13.0095C16.8496 13.0095 16.9096 12.9495 16.9696 12.9495C17.0296 12.9495 17.0896 12.8895 17.0896 12.8895H17.1496L17.2096 12.9495H17.2696C17.2696 12.9495 17.3296 12.9495 17.3296 12.8895L17.4496 12.7695L17.5096 12.8295C17.4496 12.8295 17.3896 12.8895 17.3896 12.8895C17.3896 12.8895 17.4496 12.9495 17.6396 13.0095C17.8196 13.0695 17.9496 13.0695 17.9496 13.0695C17.8896 13.1295 17.8896 13.1895 17.9496 13.1895C17.9496 13.1895 18.0096 13.2495 18.3196 13.1895C18.5696 13.1295 18.5696 13.1295 18.5696 13.0695H18.6296C18.6296 13.0695 18.6896 13.2495 18.7496 13.2495C18.8696 13.2495 18.8696 12.9595 18.8696 12.8395C19.0496 13.0195 19.1796 13.1895 19.1796 13.1895C19.1796 13.1895 19.2396 13.2495 19.2996 13.2495L19.4196 13.4795C19.4796 13.5995 19.5396 13.7095 19.5996 13.6595C19.6596 13.6595 19.6596 13.5395 19.6596 13.5395V13.4795L19.7796 13.5995H19.7196C19.6596 13.5995 19.6596 13.6595 19.5996 13.6595C19.5996 13.6595 19.5396 13.6595 19.5396 13.7195H19.3796L19.3196 13.6595C19.2596 13.6595 19.2596 13.6595 19.1996 13.7195L19.1396 13.7795H19.0196C18.9596 13.7795 18.8396 13.8395 18.8396 13.8995C18.7796 13.8995 18.7796 13.8395 18.7196 13.8395C18.6596 13.8395 18.6596 13.7795 18.5996 13.7795V13.7195C18.5996 13.6595 18.5396 13.5995 18.5396 13.5995V13.7795H18.4796V13.7195C18.4796 13.6595 18.4196 13.6595 18.4196 13.6595V13.7795C18.3596 13.7795 18.2996 13.7195 18.2396 13.7195C18.1796 13.7195 18.1196 13.6595 18.0596 13.6595V13.5995L17.9396 13.4795C17.9396 13.4795 17.9396 13.5395 17.9996 13.5995C17.9396 13.5395 17.8796 13.5395 17.8796 13.5395C17.8796 13.5395 17.9396 13.5995 17.9396 13.6595V13.7195C17.8796 13.7195 17.8196 13.7795 17.8196 13.7795C17.7596 13.7795 17.7596 13.8395 17.6996 13.8395L17.6396 13.7795L17.5196 13.7195C17.5196 13.7195 17.5196 13.7795 17.5796 13.7795C17.5796 13.8395 17.6396 13.8395 17.6396 13.8395C17.5796 13.8995 17.5796 13.9595 17.5196 13.9595L17.2696 13.7295L17.1496 13.6095V13.3195L17.2096 13.3795H17.2696L17.3296 13.3195V13.2595H17.3896L17.2696 13.1395V13.1995H17.2096V13.0795C17.2096 13.0795 17.1496 13.0795 17.1496 13.0195V12.9595C17.2096 12.9595 17.2096 12.8995 17.2696 12.8995C17.2696 12.8395 17.2096 12.8395 17.2096 12.7795C17.1496 12.7795 17.1496 12.8395 17.0896 12.8395V12.8995L17.1496 13.5995L17.0896 13.6595L17.0296 13.5995H16.9096L16.8496 13.6595V13.7195L16.9096 13.7795C16.8496 13.8395 16.8496 13.8995 16.8496 13.9595H16.4896L16.3696 13.8995V13.9595C16.2496 13.9595 16.1896 14.0195 16.1196 14.0795C16.1196 14.0195 16.1196 13.8995 16.0596 13.7295C16.1196 13.7295 16.1196 13.6095 16.1196 13.6095C16.1196 13.6095 16.0596 13.6095 16.0596 13.6695C15.9996 13.6095 15.9396 13.4895 15.8796 13.4395C15.8196 13.3795 15.6996 13.3195 15.6296 13.2595V13.1995C15.6296 13.1395 15.5696 13.0795 15.5696 13.0795V13.2595C15.5096 13.2595 15.4496 13.1995 15.3896 13.1995H15.3296C15.3296 13.1395 15.3296 13.0795 15.2696 13.0195C15.2096 12.8995 15.1496 12.8395 15.0196 12.8395H15.1396V12.6595C15.1396 12.6595 15.0796 12.6595 15.0796 12.5995V12.5395C15.0796 12.4795 14.8996 12.5395 14.8996 12.5395H14.9596C14.9596 12.5395 14.8996 12.5395 14.8996 12.5995H14.8396V12.5395H14.7796V12.4795L14.8396 12.4195V12.3595L14.7796 12.2995H14.7196L14.6596 12.3595V12.4195C14.5996 12.5395 14.6596 12.5395 14.6596 12.5395ZM16.7396 11.9495H16.5596C16.4996 11.9495 16.4996 11.8895 16.4396 11.8895C16.3796 11.8295 16.3796 11.7095 16.3796 11.6595C16.3796 11.5395 16.4396 11.4295 16.4996 11.3695C16.6196 11.1895 16.8696 11.0795 17.0496 10.8995C17.2296 10.7195 17.3596 10.5495 17.4196 10.3695V10.3095C17.4176 10.2012 17.3747 10.0976 17.2996 10.0195C17.3596 10.0195 17.4196 9.95953 17.4796 9.95953C17.5396 9.95953 17.5996 9.89953 17.6596 9.83953L17.7196 9.77953V9.71953H17.7796C17.8396 9.77953 17.8396 9.83953 17.8396 9.83953C17.8396 9.83953 17.8396 9.89953 17.7796 9.95953C17.8396 10.0195 17.7796 10.0795 17.7796 10.0795L17.8396 10.1395C17.8396 10.1995 17.7196 10.2595 17.7196 10.3695C17.6596 10.4895 17.5396 10.5995 17.5996 10.5995H17.6596V10.6595C17.5996 10.7195 17.4096 11.0095 17.4096 11.1295C17.4096 11.3095 17.4696 11.2495 17.4696 11.4195C17.5296 11.5995 17.5296 11.8295 17.5296 11.8295C17.5296 11.8295 17.5896 11.8295 17.6496 11.7695C17.6496 11.8295 17.7096 11.8895 17.7696 11.9495C17.7696 12.0095 17.7696 12.1795 17.8296 12.2995C17.8896 12.4195 18.0796 12.5895 18.1396 12.6495L18.0796 12.5895C18.0796 12.5895 18.0796 12.5295 18.0196 12.5295H17.8996C17.8996 12.5295 17.9596 12.6495 17.9596 12.7095C17.9596 12.7095 18.0796 12.7695 18.1396 12.8295C18.0796 12.8295 17.9596 12.8295 17.9596 12.8895C17.9596 12.8895 17.8996 12.8895 17.8996 12.9495C17.8996 12.9495 17.8396 12.9495 17.8396 12.8895V12.7095H17.7796C17.7796 12.6495 17.7196 12.6495 17.7196 12.5895L17.5996 12.4695C17.5996 12.2895 17.5396 12.1795 17.4796 12.0595C17.3596 11.9395 17.2296 11.9395 17.1096 11.9395L16.7396 11.9495ZM18.2796 10.0195C18.2796 10.0195 18.2796 9.95953 18.2196 9.95953L18.2796 10.0195ZM17.2996 10.3695L17.3596 10.4295C17.3596 10.3695 17.2996 10.3695 17.2996 10.3695ZM18.0896 10.0695C18.0296 10.0695 18.0296 10.1295 17.9696 10.1295C17.9696 10.1295 18.0296 10.1295 18.0896 10.0695ZM17.2296 9.54953C17.2896 9.54953 17.3496 9.48953 17.4796 9.48953C17.3596 9.48953 17.3596 9.54953 17.2296 9.54953ZM18.1496 8.77953C18.1496 8.72953 18.1496 8.72953 18.1496 8.77953V8.77953ZM21.7096 8.72953L21.6496 8.66953C21.7096 8.66953 21.7096 8.66953 21.7096 8.72953ZM18.0296 14.1195C18.0296 14.1795 18.0296 14.1795 18.0296 14.1195V14.1195ZM14.9696 12.8295C15.0296 12.8295 15.0296 12.8295 14.9696 12.8295V12.8295Z" fill="#006847"/>
<path d="M24.8901 12.6003C24.8901 12.5403 24.8901 12.5403 24.8901 12.6003V12.5403C24.8901 12.5403 24.8301 12.6003 24.8301 12.6603V12.7803C24.8301 12.7803 24.8301 12.6603 24.7701 12.5503L24.6501 12.3203C24.6501 12.3203 24.5301 12.4403 24.4701 12.5503C24.4101 12.6703 24.4101 12.8403 24.4101 12.9603C24.3876 12.8573 24.347 12.7591 24.2901 12.6703C24.1701 12.4903 24.1101 12.5503 24.1101 12.5503C24.1101 12.5503 24.2301 12.6703 24.1701 12.7803C24.1701 12.9003 24.1101 13.1303 24.1701 13.2503C24.2301 13.3703 24.2901 13.4303 24.3501 13.4803V13.7703L24.1701 13.6503V13.5903C24.1701 13.5303 24.1101 13.4703 24.0501 13.4703C23.9901 13.4703 23.9301 13.5903 23.9301 13.6503C23.9301 13.7103 23.9901 13.7703 24.0501 13.7703H24.1101L24.2901 13.9503C24.2901 14.0103 24.2301 14.0703 24.2301 14.0703H24.1701C24.1101 14.1303 23.9901 14.3003 23.9901 14.3003V14.0603L23.6201 14.2403C23.4401 14.4203 23.3101 14.5903 23.3701 14.7103C23.3701 14.8303 23.4901 15.0003 23.4901 15.1803V15.4703C23.4901 15.4703 23.4901 15.5303 23.4301 15.5303L23.1801 15.3003L23.2401 15.2403C23.2378 15.2093 23.2244 15.1801 23.2024 15.158C23.1803 15.136 23.1511 15.1226 23.1201 15.1203C23.0601 15.1203 23.0001 15.1803 23.0001 15.2403C23.0001 15.3003 23.0601 15.3603 23.1201 15.3603L23.3001 15.6503C23.2401 15.7103 23.2401 15.7103 23.1801 15.7103C23.1801 15.7103 23.1201 15.7103 22.9301 15.7703C22.8101 15.8303 22.6801 15.9503 22.6801 15.9503C22.6801 15.9503 22.7401 15.8903 22.7401 15.7703C22.7401 15.5903 22.6801 15.5403 22.6801 15.5403V15.7203C22.6801 15.7203 22.6801 15.7803 22.6201 15.7803C22.5601 15.9003 22.1301 16.1303 22.0701 16.3103C22.0101 16.4903 22.0701 16.4903 22.0101 16.5403C21.9501 16.6603 21.8901 16.7203 21.8901 16.7703L21.8301 16.8303C21.8301 16.8303 21.7701 16.8303 21.7701 16.8903L21.7101 16.6603L21.7701 16.6003C21.7678 16.5693 21.7544 16.5401 21.7324 16.518C21.7103 16.496 21.6811 16.4826 21.6501 16.4803C21.619 16.4826 21.5898 16.496 21.5678 16.518C21.5458 16.5401 21.5324 16.5693 21.5301 16.6003C21.5301 16.6603 21.5901 16.7203 21.6501 16.7203V17.0103L21.5901 17.0703C21.5901 17.1303 21.5301 17.1303 21.5301 17.1903C21.4701 17.1903 21.4101 17.1303 21.3501 17.1303H21.1701C21.1701 17.1303 21.2301 17.0703 21.2901 17.0703L21.3501 17.0103C21.3501 17.0103 21.1701 16.9503 21.0401 16.9503C20.9101 16.9503 20.7301 16.9503 20.6101 17.0703C20.4901 17.1303 20.4301 17.3003 20.2401 17.3603C20.1201 17.4203 19.9301 17.4803 19.9301 17.4803H19.8701C19.7501 17.4803 19.6901 17.4203 19.5601 17.4203H19.3101V17.3003H18.8901C18.8901 17.3003 18.8301 17.3003 18.8301 17.3603V17.4803C18.7701 17.4803 18.7101 17.4203 18.5801 17.4203C18.3301 17.4203 18.2101 17.4803 18.1501 17.4803H18.0901C17.9701 17.4203 17.9701 17.3003 17.9101 17.3003C17.8501 17.3003 17.9101 17.4803 17.8501 17.4803C17.7901 17.4803 17.6701 17.1903 17.4801 17.1303C17.3601 17.1303 17.3001 17.1303 17.3001 17.1903C17.3001 17.2503 17.4801 17.4203 17.4201 17.4203C17.3601 17.4203 17.1701 17.1303 16.9901 17.1303C16.8701 17.1303 16.8101 17.1903 16.8701 17.1903C16.8701 17.2503 17.0501 17.2503 16.9901 17.3703C16.9301 17.4903 16.8101 17.1903 16.6801 17.2503H16.5601L16.5001 16.9003C16.5001 16.9003 16.5601 16.9003 16.5601 16.8403L16.6201 16.7803V16.7203H16.5001V16.6603L16.4401 16.6003C16.4401 16.6003 16.3801 16.6003 16.3801 16.6603V16.7803H16.3201V16.8403C16.3201 16.9003 16.3201 16.9003 16.3801 16.9003H16.5001V17.1303L16.3801 17.0103C16.3801 17.0103 16.2601 16.9503 16.2001 16.8303C16.1401 16.7103 16.2001 16.5403 16.1401 16.5403C16.0801 16.5403 16.0801 16.7203 16.0201 16.6603C15.9601 16.6003 16.0201 16.3703 15.9601 16.2503C15.9001 16.1303 15.7801 16.0203 15.7101 16.0703C15.6501 16.1303 15.7101 16.3603 15.5901 16.3003C15.5301 16.2403 15.5901 16.0103 15.5901 15.8903C15.5901 15.7703 15.5301 15.7103 15.4701 15.7103C15.4101 15.7103 15.4701 15.9403 15.4101 15.9403C15.3501 15.9403 15.3501 15.8203 15.2901 15.7603H15.2301C15.2301 15.7603 15.2301 15.6403 15.1701 15.6403V15.8803C15.1701 15.8803 15.1101 15.8203 15.0501 15.8203V15.5303H15.1101L15.1701 15.4703C15.1701 15.4703 15.1701 15.4103 15.1101 15.4103H15.0501V15.2903L14.9901 15.2303C14.9901 15.2303 14.9301 15.2303 14.9301 15.2903V15.4103H14.8701L14.8101 15.4703C14.8101 15.5303 14.8101 15.5303 14.8701 15.5303H14.9301V15.7603L14.7501 15.5803C14.7501 15.5803 14.6901 15.4603 14.6901 15.3503C14.6901 15.1703 14.8101 14.9403 14.8101 14.8803C14.7501 14.8203 14.6901 15.0603 14.6301 15.0003C14.5701 14.9403 14.6901 14.7103 14.6301 14.5903C14.5701 14.4703 14.5701 14.4103 14.5101 14.4103C14.3901 14.4103 14.3901 14.7003 14.3301 14.7003C14.2701 14.6403 14.3301 14.5203 14.3301 14.4103C14.0801 14.1803 14.0801 14.1803 14.0201 14.1803C13.9601 14.1803 13.9601 14.3603 13.9001 14.3603L13.7801 14.2403V14.0103L13.9001 13.7203H14.0201L14.0801 13.6603V13.6003L14.0201 13.5403L14.0801 13.4803V13.3603C14.0201 13.3603 14.0201 13.3603 13.9601 13.4203V13.4803H13.9001C13.9001 13.4803 13.8401 13.4803 13.8401 13.5403V13.6003C13.8401 13.6603 13.8401 13.6603 13.9001 13.7203L13.7801 13.9003C13.7201 13.7803 13.7201 13.7203 13.7201 13.6103C13.7201 13.4903 13.7801 13.4903 13.7801 13.4303C13.7801 13.3703 13.7201 13.4903 13.7201 13.3703C13.7201 13.3103 14.0301 13.1403 13.9701 13.0803C13.9101 13.0203 13.6601 13.2003 13.7201 13.0803C13.7801 12.9603 14.0301 12.9603 14.0301 12.7303C14.0301 12.6103 13.7801 12.7903 13.7801 12.7303C13.7801 12.6703 13.9001 12.5503 13.9001 12.4403C13.9001 12.3803 13.9601 12.3203 13.9001 12.3203H13.8401C13.7201 12.3803 13.7801 12.4403 13.6601 12.4403C13.6601 12.4403 13.6001 12.3203 13.6001 12.3803C13.5401 12.3803 13.4801 12.5003 13.4801 12.5603V12.7903C13.4201 12.8503 13.4201 12.6703 13.3001 12.6703C13.2401 12.6703 13.1801 12.7903 13.1801 12.8503C13.1801 12.9103 13.3601 13.0803 13.3001 13.1403C13.2401 13.2003 13.1201 12.9603 12.9901 13.0803C12.9301 13.2003 13.2401 13.3703 13.3001 13.3703C13.3601 13.3703 13.3001 13.4303 13.3601 13.4903C13.4201 13.5503 13.4801 13.6103 13.5401 13.6103C13.6001 13.6703 13.6601 13.7903 13.6601 13.9003L13.4101 13.7803V13.6603L13.3501 13.6003H13.2901L13.2301 13.6603L13.1701 13.6003H13.1101C13.1101 13.6003 13.0501 13.6003 13.0501 13.6603C13.0501 13.7203 13.0501 13.7203 13.1101 13.7803H13.1701V13.8403C13.1701 13.8403 13.1701 13.9003 13.2301 13.9003H13.2901C13.3501 13.9003 13.3501 13.9003 13.4101 13.8403L13.7201 14.0703V14.3103C13.6601 14.3103 13.6001 14.2503 13.6001 14.3103C13.6001 14.3703 13.7201 14.4303 13.6601 14.4903C13.6601 14.4903 13.4101 14.4303 13.4101 14.4903C13.4101 14.5503 13.4101 14.6703 13.5301 14.6703C13.6501 14.7303 13.9601 14.7903 13.9001 14.7903C13.8401 14.8503 13.5301 14.6103 13.5301 14.7903C13.5301 14.9703 13.6501 15.0203 13.7101 15.0203C13.7701 15.0203 14.0801 15.0203 14.0801 15.0803C14.0801 15.1403 13.8301 15.0803 13.8301 15.1403C13.8301 15.2603 14.0101 15.2603 14.0101 15.2603C14.0701 15.2603 14.1901 15.2603 14.2601 15.3203L14.5701 15.6103H14.3901C14.3901 15.5503 14.3901 15.5503 14.3301 15.4903L14.2701 15.4303H14.2101V15.5503H14.0901C14.0901 15.5503 14.1501 15.6103 14.2101 15.6103V15.6703L14.2701 15.7303C14.3301 15.7303 14.3901 15.6703 14.3901 15.6103H14.7001C14.8201 15.6703 14.8801 15.7303 14.8801 15.7303H14.7001C14.7001 15.7903 15.1901 15.9603 15.0101 16.0203C14.8901 16.0803 14.7001 15.9003 14.7001 16.0203C14.6401 16.1403 14.8201 16.2503 14.8801 16.2503C14.9401 16.3103 15.3701 16.2503 15.3101 16.3703C15.2501 16.4903 14.9401 16.3103 14.8801 16.4303C14.8801 16.5503 15.0601 16.7203 15.1901 16.7203C15.3101 16.7203 15.4401 16.5403 15.5001 16.6603C15.5601 16.7803 15.4401 16.7803 15.5001 16.8403C15.6201 16.8403 15.6801 16.7203 15.8101 16.7803C15.9301 16.7803 16.1201 16.9003 16.1801 16.9603H15.9301C15.9301 16.9603 15.9301 16.9003 15.8701 16.9003L15.8101 16.8403H15.7001V16.9603H15.6401L15.5801 17.0203C15.5801 17.0203 15.5801 17.0803 15.6401 17.0803H15.7601V17.1403H15.8201C15.8201 17.1403 15.8801 17.1403 15.8801 17.0803V16.9403H16.1901L16.3101 17.0603C16.3101 17.0603 16.1901 17.0603 16.1301 17.1203C16.0701 17.1203 16.0101 17.2403 16.0101 17.2403V17.3003H16.1301L16.1901 17.2403C16.1901 17.2403 16.1901 17.3003 16.2501 17.3003C16.3101 17.3003 16.4301 17.1803 16.5601 17.2403C16.6801 17.3003 16.3801 17.3603 16.4401 17.4703C16.5001 17.5903 16.6901 17.5303 16.7501 17.4703C16.8101 17.4703 16.9301 17.2403 17.0601 17.3503C17.1201 17.4703 16.8801 17.5303 16.9401 17.6403C17.0001 17.7603 17.1201 17.7003 17.2501 17.7003C17.3101 17.6403 17.5001 17.4103 17.5601 17.4703C17.6201 17.5903 17.4401 17.6503 17.4401 17.7603C17.5001 17.8203 17.6201 17.7603 17.6901 17.7003C17.7501 17.6403 17.8101 17.5203 17.9401 17.4703L18.0601 17.4103C18.0601 17.4103 18.1201 17.3503 18.1801 17.3503C18.2649 17.2731 18.3754 17.2303 18.4901 17.2303C18.5501 17.2303 18.6101 17.2303 18.6101 17.2903L18.1801 17.4703C18.0601 17.5303 18.0001 17.5903 17.9301 17.6503C17.9301 17.6503 17.9901 17.7103 18.0501 17.7103C18.1101 17.7103 18.1701 17.6503 18.1701 17.6503C18.1701 17.6503 18.2901 17.5903 18.4201 17.4703C18.5117 17.4049 18.6183 17.3636 18.7301 17.3503V17.4703C18.7301 17.5303 18.6101 17.5303 18.4201 17.7003C18.2401 17.8803 18.1701 18.0503 18.1701 18.0503C18.1701 18.0503 18.2301 17.9903 18.2901 17.9903C18.3501 17.9903 18.4101 17.9303 18.4101 17.9303H18.4701C18.5301 17.9303 18.5301 17.9903 18.5901 17.9903L18.6501 18.0503C18.6501 18.1103 18.7101 18.1103 18.7101 18.1103C18.7101 18.1103 18.7701 17.9903 18.8901 17.9303L19.0101 17.8103C19.0101 17.8703 19.0701 17.8703 19.1301 17.9303C19.1901 17.9903 19.3101 17.9903 19.3801 18.0503C19.4401 18.1103 19.5001 18.1103 19.5001 18.1103L19.5601 18.0503L19.6201 17.9903L19.6801 17.9303H19.8601C19.9801 17.9303 19.9801 17.9903 19.9801 17.9903C19.9801 17.9903 19.8601 17.8103 19.8001 17.7603C19.7401 17.7003 19.5501 17.6403 19.4301 17.5803L19.3101 17.4603V17.4003C19.3701 17.4003 19.4901 17.4603 19.6201 17.5203C19.7401 17.5803 19.8001 17.6403 19.8001 17.7003C19.8001 17.7003 19.8601 17.7603 19.9201 17.7603C19.9801 17.7603 20.0401 17.7003 19.9801 17.7003C19.9801 17.7003 19.9201 17.5803 19.6701 17.4703C19.4901 17.4103 19.3601 17.3503 19.3001 17.3503V17.2903C19.3601 17.2903 19.6701 17.2903 19.7901 17.3503L20.1601 17.5303C20.2801 17.6503 20.5301 17.8203 20.6501 17.8203C20.9001 17.8203 21.3901 17.5303 21.5101 17.5303C21.6301 17.4703 21.7601 17.4703 21.7601 17.4703C21.7601 17.4703 21.7001 17.4103 21.5801 17.4103C21.5201 17.4103 21.5201 17.3503 21.5201 17.3503H21.3401C21.3401 17.3503 21.4601 17.2303 21.5201 17.2303C21.5748 17.1829 21.6353 17.1426 21.7001 17.1103L21.8201 16.9903L22.1301 17.1703V17.2303L22.1901 17.2903H22.2501C22.3101 17.2903 22.3101 17.2303 22.3101 17.1703V17.1103L22.2501 17.0503H22.2001L22.0201 16.8703C22.0801 16.8103 22.1401 16.8103 22.2001 16.8103C22.3201 16.8103 22.9401 16.8103 23.1801 16.6903C23.4901 16.5103 23.4301 16.2203 23.4301 16.1603C23.4301 16.1003 23.4901 16.0403 23.4901 16.0403H23.3701C23.3101 16.0403 23.2501 16.1003 23.2501 16.1003C23.2501 16.1003 23.2501 15.9803 23.3101 15.9203V15.8003C23.3701 15.8003 23.3701 15.8003 23.4301 15.7403L23.6801 15.8003C23.6801 15.8603 23.7401 15.9203 23.8001 15.9203C23.8601 15.9203 23.9201 15.8603 23.9201 15.8003C23.9201 15.7403 23.8601 15.6803 23.8001 15.6803C23.7401 15.6803 23.7401 15.6803 23.6801 15.7403L23.5001 15.6803C23.5001 15.6203 23.5601 15.6203 23.6201 15.5603C23.6201 15.5603 23.6801 15.5003 23.7401 15.5003C23.8001 15.5003 23.9201 15.5003 24.1101 15.3803C24.3601 15.2603 24.4801 14.9103 24.5401 14.7303C24.6001 14.5503 24.7901 14.4403 24.7901 14.4403C24.7901 14.4403 24.6701 14.3803 24.4201 14.6203V14.0303L24.7901 13.9103L24.8501 13.9703C24.9101 13.9703 24.9701 13.9103 24.9701 13.8503C24.9678 13.8193 24.9544 13.7901 24.9324 13.768C24.9103 13.746 24.8811 13.7326 24.8501 13.7303C24.819 13.7326 24.7898 13.746 24.7678 13.768C24.7458 13.7901 24.7324 13.8193 24.7301 13.8503H24.4001V13.7903C24.4001 13.7303 24.5201 13.6703 24.5801 13.5603C24.7001 13.4403 25.0101 13.3303 25.0101 13.0303C25.0801 12.7103 24.9501 12.6503 24.8901 12.6003ZM19.3201 17.4603C19.2601 17.4603 19.2601 17.4603 19.3201 17.4603V17.4603Z" fill="#006847"/>
<path d="M22.1999 15.2893L22.2599 15.2293L22.3199 15.1693H22.3799C22.4399 15.1693 22.4999 15.1093 22.4999 15.1093H22.3799V14.8093C22.4399 14.8093 22.4399 14.7493 22.4999 14.7493C22.5599 14.6893 22.6199 14.6293 22.6199 14.5693H22.7399V14.3893V14.4493H22.6799V14.3893H22.7399L22.8599 14.2093H22.9199C22.9799 14.2093 22.9799 14.2093 23.0399 14.1493V14.0893C23.0399 14.0293 23.0399 14.0293 22.9799 13.9693H22.9199C22.8599 13.9693 22.8599 13.9693 22.7999 14.0293V14.1493L22.6199 14.2693H22.5599V14.2093L22.4399 14.1493V14.2093H22.3799L22.3199 14.2693V14.3293H22.3799C22.3199 14.3293 22.2599 14.3893 22.1999 14.4493L22.0799 14.5693C22.0199 14.5693 22.0199 14.5093 21.9599 14.5093C21.8999 14.5093 21.8999 14.4493 21.8399 14.4493H21.7799L21.8399 14.3293C21.8399 14.3293 21.7799 14.3293 21.7199 14.3893V14.4493C21.6599 14.4493 21.6599 14.5093 21.5999 14.5093C21.5399 14.5693 21.4799 14.5693 21.4199 14.6293V14.5093L21.3599 14.5693V14.6893L21.2999 14.7493L21.9699 15.2793C22.0699 15.3493 22.1399 15.2893 22.1999 15.2893ZM20.9099 14.4093L20.8499 14.3493H20.6699C20.6699 14.3493 20.6699 14.2893 20.6099 14.2893H20.5499L21.0999 14.7593C21.0999 14.6993 21.0999 14.6993 21.0399 14.6393L20.9799 14.5793C20.9699 14.4693 20.9699 14.4093 20.9099 14.4093ZM23.3599 10.7793L23.2399 10.5493C23.1199 10.3193 22.9899 9.9593 22.6899 9.5493C22.4381 9.18195 22.1021 8.88021 21.7099 8.6693C21.7099 8.6693 21.7699 8.6693 21.7699 8.7293L21.7099 8.6693C21.7099 8.6693 21.7099 8.6093 21.7699 8.6093C21.7699 8.6093 21.8899 8.4893 21.8299 8.4893H21.5799C21.5199 8.4893 21.4599 8.4893 21.2099 8.3093C21.2099 8.3093 20.5399 7.8393 19.4299 7.7793C19.0599 7.7793 18.9399 7.8993 18.9399 7.9593V8.0193H18.8199C18.7599 8.0193 18.6399 8.0193 18.5699 8.0793C18.4499 8.0793 18.3899 8.1393 18.3899 8.3093C18.3899 8.3693 18.3899 8.4293 18.4499 8.4893C18.4499 8.5493 18.5099 8.5493 18.5699 8.5493C18.657 8.54716 18.7432 8.56785 18.8199 8.6093C18.9399 8.6093 18.9999 8.6693 19.1299 8.7893C19.2499 8.8493 19.2499 8.9693 19.3099 9.0193V9.3793C19.2499 9.3193 19.2499 9.2593 19.1899 9.1993C19.1299 9.0793 19.0099 8.9693 18.9399 8.9693V8.8493C18.9399 8.8493 18.9399 8.9093 18.8199 8.9093C18.7599 8.9093 18.6999 8.8493 18.5099 8.7893C18.3899 8.7293 18.3299 8.7293 18.2599 8.7293H18.1399C18.1389 8.62075 18.0959 8.51682 18.0199 8.4393C18.0199 8.4393 18.0199 8.4993 17.9599 8.5593C17.9599 8.6193 17.8399 8.6793 17.8399 8.7393C17.8399 8.6193 17.7799 8.5093 17.7799 8.5093C17.7799 8.3893 17.7199 8.3893 17.7199 8.3893V8.4493C17.7199 8.6293 17.6599 8.7993 17.6599 8.8593C17.5999 8.8993 17.5399 8.8993 17.5399 8.8993C17.5999 8.8393 17.5999 8.8393 17.5999 8.7193C17.5999 8.5393 17.4799 8.5393 17.4799 8.5393V8.7693C17.4799 8.8893 17.3599 8.9993 17.3599 8.9993V8.8793C17.3599 8.6993 17.2999 8.6993 17.2999 8.6993C17.2999 8.6993 17.2999 8.7593 17.2399 8.8793C17.1799 9.0593 17.1199 9.0593 17.0599 9.1693C16.8799 9.3493 16.8099 9.3493 16.8099 9.3993V9.5793C16.8099 9.5793 16.7499 9.5793 16.6899 9.6393C16.6299 9.6393 16.5699 9.6993 16.3799 9.6993C16.3199 9.6993 16.2599 9.6993 16.2599 9.6393V9.5193C16.3199 9.5193 16.3199 9.5193 16.3799 9.4593C16.3799 9.4593 16.4399 9.3993 16.4999 9.3993C16.6199 9.3393 16.6799 9.2193 16.6799 9.2193H16.6199C16.6199 9.2193 16.5599 9.2793 16.4999 9.2793C16.3799 9.3393 16.2499 9.3393 16.2499 9.3393V9.2793C16.2499 9.2793 16.3099 9.2193 16.3099 9.1593L16.3699 9.0993C16.3699 9.0393 16.3699 9.0393 16.4299 8.9793V8.9593C16.4299 8.9593 16.4299 8.8993 16.4899 8.8993C16.4899 8.8993 16.5499 8.9593 16.5499 9.0193V9.1393C16.6699 9.1393 16.6099 8.8493 16.6099 8.7893V8.7293L16.5499 8.6693L16.4299 8.7293H16.3099C16.2499 8.7293 15.8799 9.0193 15.8799 9.1393C15.8799 9.2593 15.9399 9.3193 15.9399 9.3693C15.9399 9.4893 15.9399 9.8393 16.1199 9.8993C16.2999 9.9593 16.6099 9.8993 16.6099 9.8993C16.6099 9.9593 16.6699 9.9593 16.7299 10.0193C16.7899 10.0793 16.9099 10.1393 16.9799 10.1393C17.0399 10.1393 17.0399 10.1393 17.0999 10.0793V10.1393C16.9799 10.3693 16.7299 10.4893 16.5499 10.6693L16.9199 10.9593C17.0399 10.8393 17.1699 10.7793 17.2899 10.6693C17.4699 10.4893 17.5999 10.3193 17.6599 10.1393V10.0793C17.6578 9.97096 17.615 9.86739 17.5399 9.7893C17.5999 9.7893 17.6599 9.7293 17.7199 9.7293C17.7799 9.7293 17.8399 9.6693 17.8999 9.6093L17.9599 9.5493V9.4893H18.0199C18.0799 9.5493 18.0799 9.6093 18.0799 9.6093C18.0799 9.6093 18.0799 9.6693 18.0199 9.7293C17.8399 10.0193 17.7699 10.0793 17.7699 10.0793L17.8299 10.1393C17.8299 10.1993 17.7099 10.2593 17.7099 10.3693C17.6499 10.4893 17.5299 10.5993 17.5899 10.5993H17.6499V10.6593C17.5899 10.7193 17.3999 11.0093 17.3999 11.1293C17.3999 11.3093 17.4599 11.2493 17.4599 11.4193C17.5199 11.5993 17.5199 11.8293 17.5199 11.8293C17.5199 11.8293 17.5799 11.8293 17.6399 11.7693C17.6399 11.8293 17.6999 11.8893 17.7599 11.9493V12.0693L20.2099 14.0593V13.8793C20.2699 13.9393 20.3299 13.9993 20.3299 13.9393C20.3899 13.9393 20.3299 13.8193 20.3299 13.7593V13.5793L20.7599 14.0493C20.7599 14.0493 20.8199 14.1093 20.9399 14.1093C20.9999 14.1093 21.0599 14.0493 21.0599 14.0493C21.0599 14.0493 21.1199 14.1693 21.3099 14.1693C21.4299 14.1693 21.4899 14.1093 21.5599 14.0493C21.6199 14.0493 21.6199 14.1093 21.6199 14.1093C21.7999 14.1693 22.0499 13.9893 22.1099 13.9893H22.1699C22.4799 14.0493 22.6599 13.8093 22.6599 13.8093L22.5399 13.6893C22.5399 13.6893 22.1699 13.3993 21.6199 13.0393C21.1899 12.7493 20.7599 12.3893 20.5799 12.2793C20.5799 12.1593 20.5799 11.9893 20.5199 11.8693C20.4599 11.6893 20.3999 11.6393 20.3999 11.5793C20.4599 11.5193 20.4599 11.4593 20.4599 11.3993H20.5199C20.5799 11.4593 20.6399 11.5793 20.7699 11.6293C20.8899 11.6893 20.8899 11.6293 20.9499 11.6893C21.0993 11.8815 21.2427 12.0782 21.3799 12.2793L21.4399 12.3393C21.4999 12.3393 21.4999 12.3393 21.4999 12.2793C21.4999 12.2793 21.3799 12.1593 21.3199 12.0493C21.2599 11.9293 21.1999 11.6993 21.1399 11.5793H21.2599C21.3199 11.5793 21.5699 11.8093 21.5699 11.8693C21.5699 11.9293 21.5699 11.9893 21.6899 12.1593C21.8099 12.3893 21.8699 12.4493 21.8699 12.4493C21.8699 12.5093 21.9299 12.5693 21.9899 12.5693C22.0499 12.5693 21.9899 12.5093 21.9299 12.4493C21.9299 12.3893 21.8699 12.2693 21.8099 12.0993L21.6899 11.6893L21.6299 11.6293H21.6899L21.7499 11.6893C21.8099 11.7493 21.9299 11.9193 21.9299 11.9793C21.9899 12.0993 21.9899 12.2693 22.0499 12.4493C22.1099 12.6293 22.1699 12.7993 22.2299 12.7393C22.2299 12.6793 22.2299 12.3893 22.1099 12.1493C22.0571 11.9554 22.017 11.7584 21.9899 11.5593C21.9899 11.5593 22.0499 11.6193 22.1099 11.7393C22.1699 11.8593 22.1099 11.9693 22.2299 12.3293C22.3499 12.6793 22.4099 12.7393 22.4799 12.8593C22.5399 12.9793 22.4199 13.3293 22.5399 13.3893V12.6293C22.5399 12.4493 22.5399 12.4493 22.4799 12.0393L22.4199 11.5693C22.4199 11.5693 22.4799 11.6293 22.5399 11.7993C22.5999 12.0893 22.5999 12.4993 22.6599 12.6193C22.7199 12.7393 22.7199 12.6793 22.7799 12.8493C22.8399 12.9693 22.7199 13.6093 22.8399 13.6093C22.9599 13.6093 22.8999 12.7893 22.8999 12.5493C22.8999 12.3193 22.8399 11.6093 22.8399 11.5493C22.8999 11.6093 22.9599 11.7293 22.9599 11.7793C22.9599 11.9593 22.9599 12.5993 23.0199 12.7793C23.0199 13.0093 23.0799 13.0093 23.0799 13.2493C23.0799 13.4293 23.0199 13.6593 23.0199 13.7193C23.0199 13.7793 23.0199 13.8993 23.0799 13.8993C23.1399 13.8993 23.0799 13.7793 23.1399 13.7193C23.1399 13.6593 23.1999 13.6593 23.1999 13.5993C23.2599 13.4793 23.2599 12.7793 23.3199 12.4293C23.3799 12.0793 23.4399 12.1393 23.4399 11.7293C23.4399 11.3793 23.3199 11.0793 23.3199 11.0293H23.4399C23.4999 11.0293 23.4999 10.9693 23.4999 10.9693C23.5399 10.8993 23.4199 10.8993 23.3599 10.7793ZM17.3599 10.4293L17.2999 10.3693C17.2999 10.3693 17.3599 10.3693 17.3599 10.4293ZM17.2299 9.5493C17.2899 9.5493 17.3499 9.4893 17.4799 9.4893C17.3599 9.4893 17.3599 9.5493 17.2299 9.5493Z" fill="#006847"/>
</g>
</g>
<defs>
<clipPath id="clip0_26003_72497">
<rect width="38" height="25" fill="white" transform="translate(0 0.5)"/>
</clipPath>
<clipPath id="clip1_26003_72497">
<rect width="38" height="25" fill="white" transform="translate(0 0.5)"/>
</clipPath>
</defs>
</svg>
