<svg width="38" height="26" viewBox="0 0 38 26" fill="none" xmlns="http://www.w3.org/2000/svg">
<g clip-path="url(#clip0_26003_75507)">
<g clip-path="url(#clip1_26003_75507)">
<path d="M35.2 25.5H2.8C1.3 25.5 0 24.2 0 22.6V3.4C0 1.8 1.3 0.5 2.8 0.5H35.1C36.7 0.5 38 1.8 38 3.4V22.7C38 24.2 36.7 25.5 35.2 25.5Z" fill="#1864D3"/>
<path d="M0 17.5996H38V18.8996H0V17.5996ZM0 20.1996H38V21.4996H0V20.1996Z" fill="#F9D12B"/>
<path d="M4.80039 7.00039L2.40039 6.20039L4.80039 5.40039L5.70039 2.90039L6.50039 5.40039L8.90039 6.20039L6.50039 7.00039L5.70039 9.50039L4.80039 7.00039Z" fill="#F93245"/>
<path d="M5.7 3.4L6.4 5.5L8.5 6.2L6.4 6.9L5.7 9L5 6.9L2.8 6.2L5 5.5L5.7 3.4ZM5.7 2.5L5.4 3.3L4.7 5.3L2.7 6L2 6.2L2.8 6.5L4.8 7.2L5.5 9.2L5.8 10L6.1 9.2L6.8 7.2L8.8 6.5L9.6 6.2L8.6 5.9L6.6 5.2L5.9 3.2L5.7 2.5Z" fill="#F5F5F5"/>
</g>
</g>
<defs>
<clipPath id="clip0_26003_75507">
<rect width="38" height="25" fill="white" transform="translate(0 0.5)"/>
</clipPath>
<clipPath id="clip1_26003_75507">
<rect width="38" height="25" fill="white" transform="translate(0 0.5)"/>
</clipPath>
</defs>
</svg>
