<svg width="39" height="26" viewBox="0 0 39 26" fill="none" xmlns="http://www.w3.org/2000/svg">
<g clip-path="url(#clip0_26003_53753)">
<g clip-path="url(#clip1_26003_53753)">
<path d="M13.1875 -0.34375H26.2423V25.7659H13.1875V-0.34375Z" fill="#F3C515"/>
<path d="M13.1871 -0.34375H4.42254C2.39996 -0.34375 0.745117 1.31109 0.745117 3.39496V22.0272C0.745117 24.1111 2.39996 25.7659 4.42254 25.7659H13.2483V-0.34375H13.1871Z" fill="#1F429A"/>
<path d="M35.0672 -0.34375H26.3027V25.7659H35.0672C37.0898 25.7659 38.7447 24.1111 38.7447 22.0272V3.39496C38.7447 1.31109 37.0898 -0.34375 35.0672 -0.34375Z" fill="#ED2524"/>
<path d="M35.0672 -0.34375H26.3027V18.2885L35.0672 25.7659C37.0898 25.7659 38.7447 24.1111 38.7447 22.0272V3.39496C38.7447 1.31109 37.0898 -0.34375 35.0672 -0.34375Z" fill="#ED2524"/>
<path d="M26.3036 18.2885V-0.34375H13.1875V7.13367L26.3036 18.2885Z" fill="#F3C515"/>
<path d="M13.1874 -0.34375H4.42285L13.1874 7.13367V-0.34375Z" fill="#1F429A"/>
<path d="M26.3027 25.7661H35.0672C37.0898 25.7661 38.7447 24.1112 38.7447 22.0273H26.3027V25.7661Z" fill="#ED2524"/>
<path d="M13.1875 22.0273H26.2423V25.7661H13.1875V22.0273Z" fill="#F3C515"/>
<path d="M0.745117 22.0273C0.745117 24.1112 2.39996 25.7661 4.42254 25.7661H13.2483V22.0273H0.745117Z" fill="#1F429A"/>
<path d="M35.0672 -0.34375H26.3027V6.3369L38.7447 10.1369V3.39496C38.7447 1.31109 37.0898 -0.34375 35.0672 -0.34375Z" fill="#ED2524"/>
<path d="M26.3036 6.3369V-0.34375H13.1875V2.35302L26.3036 6.3369Z" fill="#F3C515"/>
<path d="M13.1874 -0.34375H4.42285L13.1874 2.35302V-0.34375Z" fill="#1F429A"/>
<path d="M25.1389 11.6693C25.2002 11.4854 25.2615 11.3629 25.2615 11.179V11.1177C25.2615 11.0564 25.2615 10.8725 25.2002 10.75C25.1389 10.4435 24.8938 10.1983 24.8325 10.1371C24.7099 10.0145 24.526 9.95319 24.3422 9.95319H24.2196C24.1583 9.95319 24.0357 10.0145 23.9744 10.0145V9.8919C23.9744 9.76932 23.9131 9.70803 23.7905 9.70803L23.9131 9.2177L24.2196 8.91125C24.4035 8.66609 24.4647 8.6048 24.4647 8.35964C24.4647 8.23706 24.3422 8.05319 24.2196 8.05319C24.1583 7.93061 24.0357 7.80803 23.9131 7.80803L23.8518 7.74674C23.7906 7.68545 23.7293 7.62416 23.668 7.62416C23.6067 7.62416 23.4841 7.62416 23.4228 7.68545H23.3615C23.3615 7.68545 23.3615 7.62416 23.3002 7.62416C23.2389 7.62416 23.2389 7.56287 23.1776 7.56287C23.1164 7.56287 23.0551 7.62416 22.9938 7.62416C22.9325 7.62416 22.9325 7.62416 22.9325 7.56287C22.8712 7.50158 22.8712 7.50158 22.8099 7.50158C22.6873 7.50158 22.6873 7.56287 22.626 7.62416V7.68545H22.5647C22.4422 7.74674 22.3196 7.80803 22.3196 7.9919V8.05319L21.8905 8.17577H21.4615V7.9919C21.4615 8.05319 21.4615 8.05319 21.4002 8.05319L21.4615 7.93061V7.9919C21.5228 7.86932 21.6454 7.62416 21.6454 7.50158C21.6454 7.25641 21.5841 7.07254 21.4615 6.94996C21.4002 6.88867 21.3389 6.88867 21.2776 6.88867H21.0938C20.9712 6.88867 20.8486 6.94996 20.6647 7.01125C20.4196 7.13383 20.2357 7.25641 19.9905 7.25641C19.5615 7.25641 19.3776 6.88867 18.8873 6.88867C18.7035 6.88867 18.5809 6.94996 18.5196 7.07254C18.397 7.19512 18.397 7.3177 18.397 7.44028C18.397 7.62416 18.4583 7.74674 18.5196 7.93061C18.5809 8.05319 18.6422 8.11448 18.6422 8.23706H18.0905L17.7228 8.17577V8.11448C17.7228 7.93061 17.6002 7.86932 17.4776 7.80803H17.4164L17.2938 7.68545C17.2325 7.62416 17.1712 7.62416 17.1099 7.62416C17.0486 7.62416 16.9873 7.62416 16.926 7.68545C16.926 7.68545 16.926 7.74674 16.8647 7.74674C16.8035 7.74674 16.7422 7.68545 16.6809 7.68545C16.6196 7.68545 16.6196 7.68545 16.5583 7.74674C16.497 7.74674 16.497 7.80803 16.497 7.80803H16.3131C16.1905 7.80803 16.1293 7.86932 16.068 7.93061C16.068 7.9919 16.0067 7.9919 16.0067 7.9919C15.5776 7.80803 15.5164 7.74674 15.4551 7.80803C15.3938 7.86932 15.3938 7.86932 15.3938 7.93061C15.3938 7.93061 15.3938 7.9919 15.3325 7.9919H15.2099C15.0873 8.05319 15.026 8.11448 15.026 8.23706V8.35964C15.0873 8.66609 15.3325 8.84996 15.5164 9.03383L15.6389 9.58545C15.5164 9.58545 15.4551 9.70803 15.4551 9.83061V9.8919H15.3938C15.3325 9.83061 15.2712 9.83061 15.2099 9.83061H15.0873C14.9647 9.83061 14.8422 9.8919 14.7196 9.95319C14.5357 10.0145 14.4744 10.0758 14.4131 10.2596C14.2293 10.5048 14.168 10.6887 14.168 10.9338V11.0564C14.168 11.179 14.168 11.3016 14.2293 11.4242C14.2905 11.5467 14.2906 11.608 14.3518 11.7306C14.4744 11.8532 14.4744 11.9758 14.6583 12.0983C14.7809 12.1596 14.8422 12.1596 14.9035 12.2209C14.7809 12.2822 14.7196 12.3435 14.7196 12.4661C14.7196 12.5887 14.7809 12.7113 14.9035 12.7725L14.7196 13.8145C14.6583 13.8758 14.597 13.9371 14.597 13.9983C14.597 14.0596 14.5357 14.0596 14.5357 14.0596V14.1822C14.5357 14.2435 14.4744 14.2435 14.4744 14.2435V14.3661C14.4744 14.55 14.597 14.6113 14.7196 14.6725H14.9035C14.6583 14.9177 14.5357 15.1016 14.5357 15.4693V15.5919C14.597 16.2661 14.9647 16.6338 15.5776 16.879C15.7615 16.9403 15.8841 16.9403 16.068 17.0016C16.3131 17.0629 16.4357 17.0629 16.6809 17.0629H17.1712L18.1518 17.3693L18.3357 17.5532C18.2744 17.6145 18.2131 17.6758 18.2131 17.7983C18.2131 17.9822 18.3357 18.1048 18.5196 18.1661C18.5809 18.1661 18.5809 18.1661 18.6422 18.2274C18.7035 18.2274 18.7035 18.2887 18.7035 18.2887C18.7647 18.35 18.826 18.35 18.9486 18.35C19.0099 18.35 19.0712 18.35 19.1325 18.2887H19.1938C19.1938 18.2887 19.2551 18.2274 19.3164 18.2274C19.3776 18.35 19.4389 18.4113 19.5615 18.4725C19.6228 18.5338 19.6841 18.5951 19.7454 18.5951C19.8067 18.5951 19.8067 18.5338 19.868 18.5338C19.9293 18.4725 19.9905 18.4725 20.0518 18.4113L20.1744 18.2887L20.2357 18.2274C20.3583 18.35 20.4809 18.35 20.6035 18.35C20.6647 18.35 20.726 18.35 20.8486 18.2887L20.9099 18.2274H21.0325C21.2164 18.1661 21.3389 18.0435 21.3389 17.8596C21.3389 17.7371 21.2776 17.6145 21.2164 17.5532L21.5228 17.308L21.9518 17.1242H22.1357C22.4422 17.1242 22.626 17.1242 22.9325 17.0629C23.1776 17.0629 23.3002 17.0016 23.5454 17.0016C23.9131 16.9403 24.1583 16.879 24.4647 16.6338C24.6486 16.5113 24.7712 16.3887 24.8938 16.1435C25.0164 15.8983 25.0776 15.7758 25.0776 15.4693V15.3467C25.0776 15.1629 25.0164 15.0403 24.8938 14.8564C24.8325 14.7338 24.7712 14.6725 24.6486 14.6113H24.7712C24.9551 14.6113 25.0776 14.4887 25.0776 14.3048C25.0776 14.2435 25.0776 14.1822 25.0164 14.1209C25.0164 14.0596 24.9551 14.0596 24.9551 14.0596V13.8758C24.9551 13.8145 24.8938 13.8145 24.8938 13.8145V13.7532C24.8938 13.6919 24.8325 13.6306 24.7712 13.6306L24.5873 12.65C24.7099 12.65 24.7712 12.5274 24.7712 12.4048C24.7712 12.2822 24.7099 12.2209 24.6486 12.1596L24.5873 12.0983H24.526C24.8938 12.0983 25.0776 11.9145 25.1389 11.6693ZM16.8035 15.1016C16.6809 14.979 16.6809 14.979 16.6196 14.8564C16.5583 14.7338 16.5583 14.6725 16.5583 14.6113V12.2822H19.6228V15.1629H19.3164V12.3435H18.9486V15.1629H18.5809V12.3435H18.2131V15.1629H17.8454V12.3435H17.4776V15.2242H17.1099V12.3435H16.7422V15.1629C16.7422 15.1629 16.8035 15.1629 16.8035 15.2242H16.7422C16.8647 15.2242 16.8035 15.1629 16.8035 15.1016ZM21.0325 15.1016V14.9177C21.0325 14.9177 20.9712 14.9177 20.9712 14.8564L21.0325 14.7951H21.2164V15.0403L21.0325 15.1016ZM21.2776 15.1016V14.7338H21.6454L21.7067 14.7951V14.8564H21.8293V14.7951H21.8905V14.9177C21.8905 14.9177 21.8906 14.979 21.8293 14.979V15.0403L21.768 15.1016C21.768 15.1016 21.7067 15.1016 21.7067 15.1629L21.2776 15.1016ZM22.2583 15.0403C22.197 15.0403 22.197 15.0403 22.2583 15.0403L22.0131 15.1016V15.0403C22.0744 14.979 22.0744 14.9177 22.1357 14.9177C22.1357 14.9177 22.197 14.9177 22.197 14.8564V14.7951C22.2583 14.7951 22.2583 14.7951 22.2583 14.8564V15.0403ZM22.3196 15.0403V14.7951C22.3196 14.7338 22.3196 14.7338 22.2583 14.6725V14.4274C22.3196 14.4274 22.3196 14.3661 22.3196 14.3661V14.1209C22.3196 14.0596 22.2583 14.0596 22.197 14.0596H21.2776C21.2164 14.0596 21.1551 14.0596 21.0325 14.1209H20.8486L20.9099 14.0596V13.9371H20.6647H20.5422V13.8145H20.4809V14.2435L20.4196 14.3048L20.3583 14.3661V14.4274H20.4809C20.4809 14.4274 20.5422 14.4274 20.5422 14.4887H20.6647L20.726 14.55V14.6113C20.726 14.6725 20.7873 14.7338 20.7873 14.7338C20.7873 14.7338 20.7873 14.7951 20.8486 14.7951L20.7873 14.8564C20.7873 14.9177 20.726 14.9177 20.7873 14.979C20.7873 15.0403 20.7873 15.0403 20.8486 15.0403V15.1629H19.9293V12.3435H22.9938V14.6725C22.9938 14.7338 22.9938 14.7951 22.9325 14.9177L22.8099 15.0403H22.3196ZM22.9325 8.97254V12.0371H19.868V8.97254H22.9325ZM19.5615 8.97254V12.0371H16.497V8.97254H19.5615Z" fill="#ED2524"/>
<path d="M22.3801 14.1824C22.3188 14.1211 22.3188 14.1211 22.2575 14.1211H21.3994L22.1962 14.7953C22.2575 14.7953 22.2575 14.7953 22.2575 14.8566L22.3801 14.9792V14.8566C22.3801 14.7953 22.3801 14.7953 22.3188 14.734V14.4888C22.3801 14.4888 22.3801 14.4275 22.3801 14.4275V14.3663C22.4413 14.2437 22.3801 14.2437 22.3801 14.1824Z" fill="#C40000"/>
<path d="M24.8318 10.1371C24.7093 10.0145 24.5254 9.95319 24.3415 9.95319H24.2189C24.1576 9.95319 24.0351 10.0145 23.9738 10.0145V9.8919C23.9738 9.76932 23.9125 9.70803 23.7899 9.70803L23.9125 9.2177L24.2189 8.91125C24.4028 8.66609 24.4641 8.6048 24.4641 8.35964C24.4641 8.23706 24.3415 8.05319 24.2189 8.05319C24.1576 7.93061 24.0351 7.80803 23.9125 7.80803L23.8512 7.74674C23.7899 7.68545 23.7286 7.62416 23.6673 7.62416C23.606 7.62416 23.4835 7.62416 23.4222 7.68545H23.3609C23.3609 7.68545 23.3609 7.62416 23.2996 7.62416C23.2383 7.62416 23.2383 7.56287 23.177 7.56287C23.1157 7.56287 23.0544 7.62416 22.9931 7.62416C22.9318 7.62416 22.9318 7.62416 22.9318 7.56287C22.8706 7.50158 22.8706 7.50158 22.8093 7.50158C22.6867 7.50158 22.6867 7.56287 22.6254 7.62416V7.68545H22.5641C22.4415 7.74674 22.3189 7.80803 22.3189 7.9919V8.05319L21.8899 8.17577H21.4609V7.9919C21.4609 8.05319 21.4609 8.05319 21.3996 8.05319L21.4609 7.93061V7.9919C21.5222 7.86932 21.6447 7.62416 21.6447 7.50158C21.6447 7.25641 21.5835 7.07254 21.4609 6.94996C21.3996 6.88867 21.3383 6.88867 21.277 6.88867H21.0931C20.9706 6.88867 20.848 6.94996 20.6641 7.01125C20.4189 7.13383 20.2351 7.25641 19.9899 7.25641C19.5609 7.25641 19.377 6.88867 18.8867 6.88867C18.7028 6.88867 18.5802 6.94996 18.5189 7.07254C18.3964 7.19512 18.3964 7.3177 18.3964 7.44028C18.3964 7.62416 18.4576 7.74674 18.5189 7.93061C18.5802 8.05319 18.6415 8.11448 18.6415 8.23706H18.0899L17.7222 8.17577V8.11448C17.7222 7.93061 17.5996 7.86932 17.477 7.80803H17.4157L17.2931 7.68545C17.2318 7.62416 17.1706 7.62416 17.1093 7.62416C17.048 7.62416 16.9867 7.62416 16.9254 7.68545C16.9254 7.68545 16.9254 7.74674 16.8641 7.74674C16.8028 7.74674 16.7415 7.68545 16.6802 7.68545C16.6189 7.68545 16.6189 7.68545 16.5576 7.74674C16.4964 7.74674 16.4964 7.80803 16.4964 7.80803H16.3125C16.1899 7.80803 16.1286 7.86932 16.0673 7.93061C16.0673 7.9919 16.006 7.9919 16.006 7.9919C15.577 7.80803 15.5157 7.74674 15.4544 7.80803C15.3931 7.86932 15.3931 7.86932 15.3931 7.93061C15.3931 7.93061 15.3931 7.9919 15.3318 7.9919H15.2093C15.0867 8.05319 15.0254 8.11448 15.0254 8.23706V8.35964C15.0867 8.66609 15.3318 8.84996 15.5157 9.03383V9.09512L16.4351 9.8919V8.91125H19.4996V11.9758H18.8254L19.1931 12.2822H19.4383V12.5274L19.7447 12.8338V12.3435H22.8093V14.6725C22.8093 14.7338 22.8093 14.7951 22.748 14.9177L22.6254 15.0403H22.3802L24.3415 16.6951C24.5254 16.5725 24.648 16.45 24.7093 16.2048C24.8318 15.9596 24.8931 15.8371 24.8931 15.5306V15.408C24.8931 15.2242 24.8318 15.1016 24.7093 14.9177C24.648 14.7951 24.5867 14.7338 24.4641 14.6725H24.5867C24.7706 14.6725 24.8931 14.55 24.8931 14.3661C24.8931 14.3048 24.8931 14.2435 24.8318 14.1822C24.8318 14.1209 24.7706 14.1209 24.7706 14.1209V13.9371C24.7706 13.8758 24.7093 13.8758 24.7093 13.8758V13.8145C24.7093 13.7532 24.648 13.6919 24.5867 13.6919L24.4028 12.7113C24.5254 12.7113 24.5867 12.5887 24.5867 12.4661C24.5867 12.3435 24.5254 12.2822 24.4641 12.2209L24.4028 12.1596H24.3415C24.7093 12.0371 24.9544 11.8532 25.0157 11.6693C25.077 11.4854 25.1383 11.3629 25.1383 11.179V11.1177C25.1383 11.0564 25.1383 10.8725 25.077 10.75C25.1996 10.4435 24.9544 10.1983 24.8318 10.1371ZM22.9318 12.0371H19.8673V8.97254H22.9318V12.0371Z" fill="#C40000"/>
<path d="M20.3574 8.97266H20.7865V11.9759H20.3574V8.97266Z" fill="#C40000"/>
<path d="M16.8641 11.6687L16.7415 11.7913L16.8641 11.9138L17.1705 11.5461C17.2318 11.73 17.2931 11.9138 17.477 11.9138C17.5383 11.9138 17.5996 11.9138 17.7221 11.8526C17.7834 11.8526 17.8447 11.7913 17.8447 11.73C17.906 11.6687 17.906 11.6687 17.906 11.6074C17.906 11.5461 17.9673 11.4235 17.9673 11.4235H18.2125C18.2125 11.4235 18.2125 11.5461 18.2737 11.6074L18.335 11.73L18.4576 11.8526C18.5189 11.9138 18.5802 11.9138 18.7028 11.9138C18.8866 11.9138 19.0092 11.6687 19.0705 11.4848C19.1318 11.3009 19.2544 11.1784 19.377 11.2397C19.4383 11.3009 19.4383 11.3622 19.377 11.4235L19.2544 11.5461L19.377 11.6687C19.377 11.6687 19.6221 11.6687 19.6834 11.4235C19.6834 11.3009 19.6834 11.1784 19.4996 11.1171C19.3157 11.0558 19.1931 11.1784 19.1318 11.3009C19.0705 11.4848 19.0092 11.7913 18.7641 11.73C18.6415 11.73 18.5802 11.5461 18.5802 11.4235C18.6415 11.4235 18.6415 11.4848 18.7028 11.4848C19.0705 10.7493 19.1318 10.259 19.1318 10.259L18.8866 9.95256L19.0092 9.76869C19.0705 9.7074 19.0705 9.64611 19.0705 9.64611V9.40095C19.1318 9.33965 19.1931 9.27836 19.2544 9.27836C19.3157 9.27836 19.4383 9.33966 19.4383 9.46224C19.4383 9.52353 19.377 9.64611 19.2544 9.58482L19.0705 9.64611C19.1318 9.7074 19.1931 9.7074 19.3157 9.7074C19.4996 9.64611 19.4996 9.33965 19.377 9.21707C19.1931 9.0332 18.8866 9.15578 18.8254 9.27836H18.7028V9.40095H18.8254V9.52353H18.7028V9.64611H18.7641C18.7641 9.7074 18.7028 9.76869 18.7028 9.76869L18.5802 9.89127L18.0286 9.0332L17.1092 10.1977C17.1092 10.1977 17.1705 10.5042 17.3544 11.0558L17.1092 11.3009C17.0479 11.1784 16.9254 11.0558 16.7415 11.1171C16.5576 11.1784 16.5576 11.3622 16.5576 11.4235C16.6802 11.6074 16.7415 11.6687 16.8641 11.6687ZM18.7641 10.259C18.7641 10.259 18.7028 10.6268 18.4576 11.2397C18.335 11.2397 18.2737 11.1784 18.1512 11.1784V10.5042L18.4576 10.1977L18.5802 10.0138L18.7641 10.259ZM18.4576 9.89127L18.2737 10.0751L18.1512 10.259V9.46224L18.4576 9.89127ZM17.9673 11.1784C17.8447 11.1784 17.7834 11.1784 17.6608 11.2397C17.6608 11.1784 17.5996 11.1171 17.5996 11.0558L17.9673 10.688V11.1784ZM17.3544 10.259L17.9673 9.46224V10.4429L17.5383 10.8719C17.4157 10.5042 17.3544 10.259 17.3544 10.259ZM17.477 11.2397C17.5383 11.3009 17.5383 11.4235 17.5996 11.4848C17.6608 11.4848 17.7221 11.4235 17.7221 11.4235C17.7221 11.4848 17.6608 11.6687 17.5383 11.73C17.3544 11.7913 17.2931 11.6074 17.2318 11.4848L17.477 11.2397ZM16.8641 11.3009C16.9254 11.2397 17.0479 11.3009 17.1092 11.4235L16.9866 11.5461C16.9254 11.5461 16.9254 11.4848 16.8641 11.4848C16.8028 11.3622 16.8028 11.3009 16.8641 11.3009ZM20.7867 13.0784C20.7254 13.0171 20.7254 13.0171 20.7254 13.0784V13.2009H20.6641C20.6641 13.2009 20.7254 13.2009 20.7254 13.2622H20.7867V13.0784C20.7867 13.1397 20.7867 13.1397 20.7867 13.0784Z" fill="#ED2524"/>
<path d="M22.3802 12.8333C22.3189 12.772 22.3189 12.772 22.2577 12.772H21.3383C21.277 12.772 21.2157 12.772 21.0931 12.8333H20.9093L20.9706 12.772V12.6495H20.7254V12.4043V12.5882C20.6641 12.5882 20.6641 12.5882 20.6028 12.5269V12.4043H20.5415V12.8333L20.4802 12.8946L20.4189 12.9559V13.0172H20.5415C20.5415 13.0172 20.6028 13.0172 20.6028 13.0785H20.7254L20.7867 13.1398V13.2011C20.7867 13.2624 20.848 13.3237 20.848 13.3237C20.848 13.3237 20.848 13.3849 20.9093 13.3849L20.848 13.4462C20.848 13.5075 20.7867 13.5075 20.848 13.5688C20.848 13.6301 20.848 13.6301 20.9093 13.6301V13.7527C20.9093 13.7527 20.9093 13.814 20.9706 13.814V13.5688L20.9093 13.5075L20.9706 13.4462H21.1544V13.7527H21.0931L21.0318 13.814H21.277V13.4462H21.6448L21.706 13.5075V13.5688H21.8899V13.6914C21.8899 13.6914 21.8899 13.7527 21.8286 13.7527V13.814L21.7673 13.8753C21.7673 13.8753 21.706 13.8753 21.706 13.9366L21.6448 13.9978H21.8899V13.9366C21.9512 13.8753 21.9512 13.814 22.0125 13.814C22.0125 13.814 22.0738 13.814 22.0738 13.7527V13.6914C22.1351 13.6914 22.1351 13.6914 22.1351 13.7527V13.9978C22.1351 13.9978 22.1351 14.0591 22.0738 14.0591L22.0125 14.1204H22.1964V13.7527C22.1964 13.6914 22.1964 13.6914 22.1351 13.6301V13.3849C22.1964 13.3849 22.1964 13.3849 22.1964 13.3237V13.2624C22.4415 12.8946 22.3802 12.8946 22.3802 12.8333Z" fill="#C40000"/>
<path d="M20.7874 14.6109V14.4883H20.6648V14.6109H20.6035H20.7874Z" fill="#ED2524"/>
<path d="M21.2158 8.97266H21.6449V11.9759H21.2158V8.97266ZM22.0739 8.97266H22.5029V11.9759H22.0739V8.97266Z" fill="#C40000"/>
</g>
</g>
<defs>
<clipPath id="clip0_26003_53753">
<rect width="38" height="25" fill="white" transform="translate(0.745117 0.210938)"/>
</clipPath>
<clipPath id="clip1_26003_53753">
<rect width="38" height="26.1097" fill="white" transform="translate(0.745117 -0.34375)"/>
</clipPath>
</defs>
</svg>
