<svg width="38" height="26" viewBox="0 0 38 26" fill="none" xmlns="http://www.w3.org/2000/svg">
<g clip-path="url(#clip0_26003_90498)">
<g clip-path="url(#clip1_26003_90498)">
<path fill-rule="evenodd" clip-rule="evenodd" d="M2.47 25.5H35.53C36.82 25.25 37.83 24.06 38 22.59V3.41C37.83 1.94 36.82 0.75 35.53 0.5H2.47C1.18 0.75 0.17 1.94 0 3.41V22.6C0.17 24.06 1.18 25.25 2.47 25.5Z" fill="#D6253A"/>
<path fill-rule="evenodd" clip-rule="evenodd" d="M22.6301 13.49C22.6101 13.7 22.5801 13.89 22.5301 14.08L22.6001 14.1C22.5729 14.1083 22.5461 14.1184 22.5201 14.13C22.4701 14.32 22.4101 14.51 22.3401 14.69C22.3586 14.7088 22.3837 14.7196 22.4101 14.72L22.3301 14.73C22.2501 14.92 22.1701 15.09 22.0701 15.26L22.1401 15.3H22.0601C21.9601 15.47 21.8501 15.63 21.7301 15.77L21.7901 15.83C21.7629 15.8217 21.7361 15.8116 21.7101 15.8C21.5901 15.95 21.4601 16.08 21.3201 16.21L21.3701 16.27C21.3401 16.26 21.3201 16.24 21.2901 16.24C21.1501 16.36 21.0001 16.47 20.8501 16.57L20.8901 16.64C20.8693 16.6201 20.8457 16.6032 20.8201 16.59C20.6701 16.69 20.5101 16.78 20.3401 16.85L20.3701 16.92L20.3101 16.86C20.1401 16.93 19.9701 16.99 19.7901 17.03L19.8101 17.11L19.7601 17.04C19.5901 17.08 19.4101 17.1 19.2301 17.11L19.2401 17.19L19.2001 17.11H19.0501C18.9232 17.1086 18.7965 17.1019 18.6701 17.09V17.17L18.6401 17.09C18.4601 17.06 18.2801 17.03 18.1101 16.98L18.1001 17.06L18.0801 16.96C17.9073 16.9099 17.7398 16.8429 17.5801 16.76L17.5601 16.84L17.5501 16.74C17.3901 16.65 17.2301 16.56 17.0801 16.45C17.0683 16.4725 17.0583 16.4959 17.0501 16.52L17.0601 16.43C16.9101 16.31 16.7701 16.2 16.6401 16.06L16.6001 16.13C16.6114 16.1012 16.6181 16.0709 16.6201 16.04C16.4939 15.8958 16.3705 15.7491 16.2501 15.6C16.2311 15.6179 16.2143 15.638 16.2001 15.66L16.2301 15.57C16.1185 15.4141 16.0182 15.2503 15.9301 15.08L15.8701 15.12L15.9201 15.05C15.8308 14.8722 15.7539 14.6885 15.6901 14.5L15.6201 14.54L15.6801 14.46C15.6184 14.2699 15.5683 14.0762 15.5301 13.88L15.4601 13.91L15.5301 13.84C15.4964 13.6447 15.473 13.4478 15.4601 13.25L15.3901 13.26L15.4601 13.21V13.04L15.4801 12.61H15.4001C15.4286 12.6007 15.4556 12.5873 15.4801 12.57C15.5001 12.37 15.5301 12.17 15.5801 11.97L15.5101 11.96L15.5901 11.94C15.6401 11.75 15.7001 11.55 15.7701 11.37C15.7501 11.35 15.7301 11.35 15.7001 11.34L15.7901 11.33C15.8601 11.15 15.9501 10.97 16.0501 10.81C16.0306 10.7909 16.0065 10.7771 15.9801 10.77L16.0601 10.78C16.1601 10.61 16.2701 10.46 16.3901 10.3L16.3301 10.26L16.4101 10.28C16.5301 10.13 16.6601 9.99 16.8001 9.87C16.7901 9.84 16.7701 9.83 16.7501 9.81L16.8301 9.84C16.9701 9.72 17.1201 9.6 17.2701 9.5L17.2301 9.43C17.2509 9.44994 17.2745 9.46678 17.3001 9.48C17.4601 9.38 17.6201 9.3 17.7901 9.23L17.7601 9.15L17.8201 9.21C17.9901 9.14 18.1601 9.08 18.3401 9.04L18.3201 8.96L18.3701 9.04C18.5401 8.99 18.7201 8.97 18.9001 8.96L18.8901 8.88L18.9401 8.96H19.0901C19.2201 8.96 19.3501 8.97 19.4701 8.99V8.9L19.5001 8.99C19.6801 9.01 19.8601 9.05 20.0301 9.1L20.0401 9.02L20.0601 9.11C20.2301 9.17 20.4001 9.24 20.5601 9.32L20.5901 9.24L20.6001 9.33C20.7001 9.39 20.8601 9.49 21.0001 9.6L21.0401 9.53L21.0301 9.62C21.1801 9.73 21.3201 9.86 21.4501 9.99L21.5001 9.92L21.4801 10.02C21.6101 10.15 21.7301 10.3 21.8501 10.46L21.9001 10.4L21.8701 10.49C21.9801 10.64 22.0801 10.81 22.1701 10.99L22.2301 10.94L22.1801 11.02C22.2701 11.19 22.3501 11.37 22.4101 11.57L22.4801 11.53L22.4201 11.6C22.4801 11.79 22.5301 11.98 22.5701 12.18L22.6401 12.15L22.5701 12.21C22.6101 12.41 22.6301 12.61 22.6401 12.81L22.7101 12.79L22.6401 12.84V13.01L22.6201 13.44L22.7001 13.45L22.6301 13.49ZM25.6801 13.02C24.8201 13.26 23.8901 12.49 23.0901 12.65V12.62C23.8601 12.21 25.1301 12.66 25.6001 11.84C24.7901 12.23 23.7701 11.64 23.0101 11.94L23.0001 11.9C23.7001 11.37 25.0201 11.59 25.3601 10.7C24.6201 11.23 23.5301 10.83 22.8201 11.24L22.8101 11.2C23.4301 10.55 24.7501 10.54 24.9601 9.6C24.3001 10.25 23.1801 10.05 22.5301 10.58C22.5274 10.565 22.5205 10.5512 22.5101 10.54C23.0401 9.8 24.3301 9.55 24.4101 8.59C23.8501 9.35 22.7201 9.35 22.1501 9.98L22.1201 9.95C22.5401 9.13 23.7801 8.66 23.7301 7.69C23.2801 8.54 22.1701 8.74 21.6901 9.46L21.6601 9.43C21.9701 8.55 23.1101 7.86 22.9301 6.93C22.6001 7.84 21.5401 8.23 21.1601 9.03C21.1487 9.01768 21.1351 9.00752 21.1201 9C21.3101 8.08 22.3401 7.2 22.0301 6.32C21.8401 7.27 20.8401 7.85 20.5801 8.69L20.5401 8.68C20.6001 7.74 21.4901 6.69 21.0701 5.87C21.0101 6.85 20.1101 7.59 19.9701 8.47L19.9301 8.46C19.8601 7.52 20.6001 6.33 20.0601 5.6C20.1301 6.57 19.3501 7.47 19.3301 8.36L19.2901 8.35C19.0901 7.43 19.6501 6.13 19.0201 5.5C19.2301 6.45 18.5801 7.48 18.6901 8.36H18.6501C18.3201 7.49 18.7001 6.11 17.9901 5.59C18.3301 6.49 17.8201 7.61 18.0601 8.47C18.0452 8.47273 18.0313 8.47967 18.0201 8.49C17.5801 7.69 17.7601 6.25 16.9801 5.87C17.4401 6.7 17.1001 7.91 17.4501 8.71L17.4101 8.74C16.8601 8.02 16.8301 6.57 16.0201 6.33C16.5901 7.06 16.4201 8.32 16.8801 9.05L16.8401 9.07C16.1901 8.47 15.9701 7.03 15.1301 6.93C15.8001 7.56 15.8001 8.84 16.3601 9.48L16.3301 9.51C15.6001 9.03 15.1801 7.63 14.3301 7.69C15.0701 8.23 15.2501 9.5 15.9001 10.03L15.8801 10.06C15.0901 9.72 14.4801 8.41 13.6501 8.61C14.4601 8.98 14.8101 10.21 15.5301 10.61L15.5101 10.64C14.6801 10.45 13.9001 9.26 13.1001 9.61C13.9601 9.83 14.4701 10.99 15.2401 11.26L15.2301 11.3C14.3901 11.27 13.4401 10.21 12.7001 10.7C13.5801 10.77 14.2501 11.83 15.0501 11.95L15.0401 11.99C14.2001 12.11 13.1101 11.23 12.4501 11.84C13.3301 11.76 14.1501 12.69 14.9601 12.66V12.69C14.1501 12.97 12.9401 12.29 12.3701 13.01C13.2301 12.77 14.1701 13.55 14.9701 13.37V13.4C14.2101 13.83 12.9201 13.35 12.4501 14.18C13.2701 13.78 14.3101 14.4 15.0801 14.07V14.1C14.3901 14.67 13.0401 14.42 12.6901 15.33C13.4501 14.79 14.5701 15.22 15.2801 14.76L15.2901 14.78C14.6901 15.47 13.3101 15.46 13.0901 16.42C13.7701 15.75 14.9401 15.99 15.5801 15.39L15.5901 15.41C15.1001 16.2 13.7301 16.44 13.6401 17.42C14.2201 16.64 15.4101 16.66 15.9501 15.96L15.9601 15.97C15.5901 16.85 14.2601 17.32 14.3101 18.31C14.7701 17.43 15.9601 17.25 16.4001 16.45L16.4101 16.46C16.1701 17.4 14.9201 18.1 15.1001 19.07C15.4401 18.12 16.5901 17.73 16.9101 16.86L16.9201 16.87C16.8101 17.84 15.6701 18.75 15.9901 19.68C16.1901 18.68 17.2801 18.09 17.4701 17.18L17.4801 17.19C17.5101 18.17 16.5101 19.27 16.9501 20.13C17.0101 19.1 18.0001 18.33 18.0601 17.4H18.0701C18.2401 18.36 17.4001 19.63 17.9601 20.41C17.8801 19.38 18.7501 18.44 18.6801 17.51H18.6901C18.9901 18.42 18.3401 19.84 19.0001 20.49C18.7801 19.5 19.5101 18.42 19.3101 17.51H19.3201C19.7501 18.36 19.2901 19.86 20.0401 20.41C19.6801 19.46 20.2501 18.27 19.9401 17.4H19.9501C20.4901 18.17 20.2501 19.73 21.0601 20.13C20.5801 19.26 20.9801 17.98 20.5401 17.19L20.5501 17.18C21.1801 17.85 21.1701 19.43 22.0201 19.68C21.4201 18.91 21.6401 17.58 21.1001 16.86L21.1101 16.85C21.8301 17.4 22.0301 18.96 22.9101 19.06C22.2101 18.41 22.2401 17.06 21.6101 16.44L21.6201 16.43C22.4001 16.85 22.8201 18.35 23.7001 18.29C22.9201 17.77 22.7601 16.44 22.0601 15.94L22.0701 15.93C22.8901 16.21 23.5101 17.61 24.3701 17.4C23.5401 17.02 23.1901 15.74 22.4401 15.37L22.4501 15.35C23.3001 15.49 24.1101 16.75 24.9201 16.39C24.0501 16.16 23.5301 14.97 22.7401 14.73L22.7501 14.71C23.6101 14.71 24.5701 15.8 25.3201 15.31C24.4301 15.24 23.7601 14.17 22.9401 14.05L22.9501 14.03C23.7901 13.89 24.8901 14.79 25.5601 14.17C24.6701 14.26 23.8601 13.32 23.0501 13.35V13.32C23.9001 13.07 25.1001 13.75 25.6801 13.02Z" fill="#F7ED14"/>
<path fill-rule="evenodd" clip-rule="evenodd" d="M18.6702 10.6703C18.16 10.4266 17.6052 10.2904 17.0402 10.2703L16.9102 10.4203C17.4602 10.4503 17.9802 10.5803 18.4602 10.8103L18.6702 10.6703ZM20.7602 10.0503C20.2748 9.64071 19.6602 9.41602 19.0252 9.41602C18.3901 9.41602 17.7755 9.64071 17.2902 10.0503C17.9002 10.0803 18.4902 10.2303 19.0302 10.4903C19.5709 10.2275 20.1596 10.0778 20.7602 10.0503ZM18.1802 11.0003C17.7305 10.788 17.2459 10.6592 16.7502 10.6203L16.6602 10.7603C17.1402 10.8003 17.6002 10.9403 18.0202 11.1403L18.1802 11.0003ZM19.4402 11.9203L19.2702 12.0803C20.1522 13.041 20.6442 14.2961 20.6502 15.6003L20.9102 15.3803C20.8566 14.0867 20.3341 12.8568 19.4402 11.9203ZM19.5902 10.8003C20.0781 10.575 20.6037 10.4428 21.1402 10.4103L21.0002 10.2703C20.4302 10.3003 19.8802 10.4303 19.3702 10.6703L19.5902 10.8003Z" fill="#F7ED14"/>
<path fill-rule="evenodd" clip-rule="evenodd" d="M19.9296 11.5391C19.8566 11.5801 19.7894 11.6305 19.7296 11.6891C20.6036 12.565 21.1568 13.71 21.2996 14.9391C21.3796 14.8291 21.4596 14.7091 21.5296 14.5791C21.3185 13.4264 20.7603 12.3658 19.9296 11.5391ZM17.7796 11.3491C17.3896 11.1491 16.9696 11.0191 16.5296 10.9591C16.2812 11.4082 16.1272 11.9034 16.0774 12.4141C16.0275 12.9249 16.0827 13.4405 16.2396 13.9291C16.5396 12.9091 17.0796 12.0191 17.7796 11.3491ZM20.0396 11.1391C20.4596 10.9291 20.9196 10.7991 21.3996 10.7591L21.3096 10.6191C20.7996 10.6591 20.3196 10.7891 19.8796 10.9991L20.0396 11.1391ZM17.7996 15.6991V15.8491C18.1791 16.0423 18.5988 16.143 19.0246 16.143C19.4504 16.143 19.8702 16.0423 20.2496 15.8491V15.6991C20.2496 14.3791 19.7796 13.1891 19.0196 12.3191C18.2234 13.2646 17.7908 14.4631 17.7996 15.6991ZM19.0196 10.8591C18.9474 10.8988 18.8773 10.9422 18.8096 10.9891L19.0196 11.1191L19.2296 10.9891C19.1649 10.9378 19.0944 10.8942 19.0196 10.8591ZM20.2696 11.3491C21.0056 12.055 21.5376 12.9463 21.8096 13.9291C21.9732 13.4416 22.032 12.925 21.982 12.4131C21.932 11.9013 21.7745 11.4058 21.5196 10.9591C21.0796 11.0091 20.6596 11.1491 20.2696 11.3491Z" fill="#F7ED14"/>
<path fill-rule="evenodd" clip-rule="evenodd" d="M18.7904 12.0791L18.6204 11.9191C17.7241 12.854 17.2012 14.0849 17.1504 15.3791L17.4104 15.5991C17.4114 14.294 17.9042 13.0371 18.7904 12.0791ZM18.8504 11.6891L19.0204 11.8391L19.1904 11.6891L19.0204 11.5391L18.8504 11.6891Z" fill="#F7ED14"/>
<path fill-rule="evenodd" clip-rule="evenodd" d="M18.3303 11.6895L18.1303 11.5395C17.2975 12.3645 16.7389 13.4259 16.5303 14.5795C16.6003 14.7095 16.6803 14.8295 16.7603 14.9395C16.9046 13.7108 17.4575 12.5663 18.3303 11.6895ZM19.3103 11.3295L19.4903 11.4695L19.7003 11.3295L19.5303 11.1895L19.3103 11.3295ZM18.3603 11.3295L18.5703 11.4695L18.7403 11.3295L18.5303 11.1995C18.4695 11.2372 18.4126 11.2807 18.3603 11.3295Z" fill="#F7ED14"/>
</g>
</g>
<defs>
<clipPath id="clip0_26003_90498">
<rect width="38" height="25" fill="white" transform="translate(0 0.5)"/>
</clipPath>
<clipPath id="clip1_26003_90498">
<rect width="38" height="25" fill="white" transform="translate(0 0.5)"/>
</clipPath>
</defs>
</svg>
