<svg width="38" height="26" viewBox="0 0 38 26" fill="none" xmlns="http://www.w3.org/2000/svg">
<g clip-path="url(#clip0_26003_69911)">
<g clip-path="url(#clip1_26003_69911)">
<path fill-rule="evenodd" clip-rule="evenodd" d="M2.5 25.4992H35.6C36.9 25.2992 37.8 24.0992 38.1 22.6992H0C0.2 24.0992 1.2 25.2992 2.5 25.4992Z" fill="#2D2F77"/>
<path fill-rule="evenodd" clip-rule="evenodd" d="M0 22.6984H38V19.8984H0V22.6984Z" fill="#FEFEFE"/>
<path fill-rule="evenodd" clip-rule="evenodd" d="M0 17.1992H38V19.9992H0V17.1992Z" fill="#2D2F77"/>
<path fill-rule="evenodd" clip-rule="evenodd" d="M0 14.3984H38V17.1984H0V14.3984Z" fill="#FEFEFE"/>
<path fill-rule="evenodd" clip-rule="evenodd" d="M0 11.6016H38V14.4016H0V11.6016Z" fill="#2D2F77"/>
<path fill-rule="evenodd" clip-rule="evenodd" d="M0 8.80078H38V11.6008H0V8.80078Z" fill="#FEFEFE"/>
<path fill-rule="evenodd" clip-rule="evenodd" d="M0 6.10156H38V8.90156H0V6.10156Z" fill="#2D2F77"/>
<path fill-rule="evenodd" clip-rule="evenodd" d="M0 6.10078H38V3.30078H0V6.10078Z" fill="#FEFEFE"/>
<path fill-rule="evenodd" clip-rule="evenodd" d="M0 3.3H38C37.8 1.9 36.8 0.8 35.5 0.5H2.5C1.2 0.7 0.2 1.9 0 3.3Z" fill="#2D2F77"/>
<path fill-rule="evenodd" clip-rule="evenodd" d="M0 14.4H12.3V0.5H2.5C1.2 0.8 0.2 1.9 0 3.4V14.4Z" fill="#2D2F77"/>
<path fill-rule="evenodd" clip-rule="evenodd" d="M0 6.10156H12.3V8.90156H0V6.10156Z" fill="#FEFEFE"/>
<path fill-rule="evenodd" clip-rule="evenodd" d="M4.90039 0.5H7.40039V14.4H4.90039V0.5Z" fill="#FEFEFE"/>
</g>
</g>
<defs>
<clipPath id="clip0_26003_69911">
<rect width="38" height="25" fill="white" transform="translate(0 0.5)"/>
</clipPath>
<clipPath id="clip1_26003_69911">
<rect width="38" height="25" fill="white" transform="translate(0 0.5)"/>
</clipPath>
</defs>
</svg>
