<svg width="38" height="26" viewBox="0 0 38 26" fill="none" xmlns="http://www.w3.org/2000/svg">
<g clip-path="url(#clip0_26003_91937)">
<g clip-path="url(#clip1_26003_91937)">
<path fill-rule="evenodd" clip-rule="evenodd" d="M2.5 25.5H35.6C36.9 25.3 37.9 24.1 38.1 22.6V3.4C37.9 1.9 36.9 0.7 35.6 0.5H2.5C1.82633 0.649241 1.21895 1.01223 0.768421 1.53485C0.317892 2.05746 0.0483544 2.7117 0 3.4L0 22.6C0.0318054 23.2935 0.295479 23.9563 0.748774 24.4821C1.20207 25.0079 1.81875 25.3664 2.5 25.5Z" fill="#2E307C"/>
<path fill-rule="evenodd" clip-rule="evenodd" d="M10 15.8L10.6 17.8L12.3 17.1L11.3 18.9L12.9 20L11 20.1L11.3 22.2L10 20.7L8.7 22.2L8.9 20.1L7.1 20L8.7 18.9L7.6 17.1L9.4 17.8L10 15.8ZM30 19.5L30.3 20.4L31.1 20.1L30.6 20.9L31.4 21.4L30.5 21.5L30.6 22.5L30 21.8L29.4 22.5L29.5 21.5L28.6 21.4L29.4 20.9L28.9 20.1L29.7 20.4L30 19.5ZM25 10.5L25.3 11.5L26.1 11.1L25.6 12L26.4 12.5L25.5 12.6L25.6 13.6L25 12.9L24.4 13.6L24.5 12.6L23.6 12.5L24.4 12L23.9 11.1L24.7 11.5L25 10.5ZM30 4.4L30.3 5.4L31.1 5L30.6 5.9L31.4 6.4L30.5 6.5L30.6 7.5L30 6.8L29.4 7.5L29.5 6.5L28.6 6.4L29.4 5.9L28.9 5L29.7 5.4L30 4.4ZM34.4 9L34.7 10L35.6 9.6L35.1 10.5L35.8 11L34.9 11.1L35.1 12.1L34.4 11.4L33.8 12.1L33.9 11.1L33 11L33.8 10.5L33.3 9.6L34.2 10L34.4 9ZM32 13.6L32.2 14.2H32.8L32.3 14.6L32.5 15.3L32 14.9L31.5 15.3L31.6 14.6L31.2 14.2H31.8L32 13.6ZM8.3 0.5V4.3H0V8H8.3V11.8H11.6V8H20V4.3H11.6V0.5H8.3Z" fill="#FEFEFE"/>
<path fill-rule="evenodd" clip-rule="evenodd" d="M0.400391 2L17.7004 11.8H20.0004V10.5L2.30039 0.5C1.50039 0.7 0.800391 1.3 0.400391 2Z" fill="#FEFEFE"/>
<path fill-rule="evenodd" clip-rule="evenodd" d="M17.7 0.5L0 10.5V11.8H2.2L20 1.8V0.5H17.7Z" fill="#FEFEFE"/>
<path fill-rule="evenodd" clip-rule="evenodd" d="M9 0.5V5H0V7.3H9V11.8H11V7.3H20V5H11V0.5H9Z" fill="#E42229"/>
<path fill-rule="evenodd" clip-rule="evenodd" d="M18.5 0.5L11.8 4.3H13.3L20 0.5H18.5ZM0.6 1.7C0.8 1.5 0.9 1.3 1.1 1.2L6.6 4.3H5.2L0.6 1.7ZM13.3 8L20 11.8V11L14.8 8.1H13.3V8ZM6.6 8L0 11.8H1.5L8.2 8H6.6Z" fill="#E42229"/>
</g>
</g>
<defs>
<clipPath id="clip0_26003_91937">
<rect width="38" height="25" fill="white" transform="translate(0 0.5)"/>
</clipPath>
<clipPath id="clip1_26003_91937">
<rect width="38" height="25" fill="white" transform="translate(0 0.5)"/>
</clipPath>
</defs>
</svg>
