<svg width="38" height="26" viewBox="0 0 38 26" fill="none" xmlns="http://www.w3.org/2000/svg">
<g clip-path="url(#clip0_26003_91490)">
<g clip-path="url(#clip1_26003_91490)">
<path fill-rule="evenodd" clip-rule="evenodd" d="M2.5 25.5H35.6C36.9 25.2 37.9 24.1 38.1 22.6V3.4C37.9 1.9 36.9 0.7 35.6 0.5H2.5C1.2 0.8 0.2 1.9 0 3.4V22.6C0.2 24.1 1.2 25.2 2.5 25.5Z" fill="#C12837"/>
<path fill-rule="evenodd" clip-rule="evenodd" d="M0 6.69922H38V19.1992H0V6.69922Z" fill="#2A3569"/>
<path fill-rule="evenodd" clip-rule="evenodd" d="M18.9996 8C21.4996 8 23.3996 10.2 23.3996 13C23.3996 15.8 21.3996 18 18.9996 18C16.5996 18 14.5996 15.8 14.5996 13C14.5996 10.2 16.5996 8 18.9996 8Z" fill="#FEFEFE"/>
</g>
</g>
<defs>
<clipPath id="clip0_26003_91490">
<rect width="38" height="25" fill="white" transform="translate(0 0.5)"/>
</clipPath>
<clipPath id="clip1_26003_91490">
<rect width="38" height="25" fill="white" transform="translate(0 0.5)"/>
</clipPath>
</defs>
</svg>
