<svg width="38" height="26" viewBox="0 0 38 26" fill="none" xmlns="http://www.w3.org/2000/svg">
<g clip-path="url(#clip0_26003_75539)">
<g clip-path="url(#clip1_26003_75539)">
<path d="M35.15 25.5005H2.85002C2.47491 25.5005 2.10349 25.4264 1.75706 25.2826C1.41062 25.1387 1.096 24.9279 0.831219 24.6622C0.566441 24.3965 0.356721 24.0811 0.214084 23.7342C0.0714475 23.3873 -0.00129863 23.0156 1.75455e-05 22.6405V3.34047C-0.00129863 2.96536 0.0714475 2.59368 0.214084 2.24675C0.356721 1.89982 0.566441 1.58445 0.831219 1.31875C1.096 1.05304 1.41062 0.842216 1.75706 0.698365C2.10349 0.554514 2.47491 0.480466 2.85002 0.480469H35.16C35.9168 0.483115 36.6417 0.785603 37.1759 1.32167C37.7101 1.85774 38.01 2.58368 38.01 3.34047V22.6405C38.0074 23.3982 37.7052 24.1241 37.1694 24.6599C36.6337 25.1957 35.9077 25.4978 35.15 25.5005Z" fill="#243096"/>
<path d="M11.14 4.48047V0.490469H7.86V4.49047L1.99 0.620469C1.31 0.830469 0.73 1.30047 0.38 1.92047L5.21 5.10047H0V8.39047H5.21L0 11.8105V12.3305C0 12.6905 0.29 12.9905 0.66 12.9905H1.8L7.86 9.00047V13.0005H11.14V9.00047L17.21 13.0005H18.35C18.71 13.0005 19.01 12.7105 19.01 12.3405V11.8205L13.8 8.39047H19V5.09047H13.79L19 1.67047V1.14047C19 0.967145 18.9319 0.800769 18.8102 0.677279C18.6886 0.553788 18.5233 0.483095 18.35 0.480469H17.21L11.14 4.48047Z" fill="#F5F5F5"/>
<path d="M19 5.75047H10.48V0.480469H8.52V5.75047H0V7.73047H8.52V12.9905H10.48V7.73047H19V5.75047Z" fill="#F9283D"/>
<path d="M0.609844 1.58047L5.99984 5.09047H7.19984L1.07984 1.10047C0.909844 1.24047 0.749844 1.40047 0.609844 1.58047ZM12.3398 5.09047L18.8998 0.810469C18.8429 0.711817 18.7614 0.629578 18.6633 0.571751C18.5652 0.513924 18.4537 0.482477 18.3398 0.480469H18.1998L11.1298 5.09047H12.3398ZM6.63984 8.38047L0.0898438 12.6505C0.199844 12.8505 0.409844 12.9905 0.649844 12.9905H0.769844L7.83984 8.38047H6.63984ZM18.9898 12.3905L12.8498 8.39047H11.6498L18.6198 12.9305C18.8298 12.8305 18.9698 12.6305 18.9898 12.3905Z" fill="#F9283D"/>
<path d="M28.7802 6.66016H24.4902V14.5202C24.4902 16.2902 28.7802 18.0702 28.7802 18.0702C28.7802 18.0702 33.0702 16.3002 33.0702 14.5202V6.66016H28.7802Z" fill="#73AF00"/>
<path d="M26.2698 12.6602C26.2698 12.6602 26.2498 12.5802 26.2698 12.5002C26.2898 12.4202 26.2398 12.3602 26.2198 12.2902C26.1898 12.1102 26.3398 12.0702 26.3498 11.9102C26.3498 11.9102 26.4598 12.0202 26.4198 12.1302C26.3798 12.2302 26.4798 12.2502 26.4698 12.3502C26.4598 12.4502 26.3498 12.5502 26.3598 12.6402L26.2698 12.6602Z" fill="#FF4B55"/>
<path d="M27.9495 12.4903C27.8595 12.3803 27.7095 12.5003 27.5995 12.5803L27.5595 12.6103L27.1395 11.9903L27.1595 11.9303C27.1595 11.8703 27.1095 11.8203 27.0495 11.8203C26.9895 11.8203 26.9395 11.8703 26.9395 11.9303L26.9595 11.9903L26.5295 12.6303H26.2295C26.2295 12.6303 26.2195 12.8203 26.5495 12.8403C26.5895 12.9003 26.6495 12.9603 26.7295 12.9903C26.6995 13.0003 26.6695 13.0203 26.6695 13.0603V13.1103H27.4395V13.0603C27.4395 13.0203 27.4095 13.0003 27.3795 12.9903C27.4447 12.9636 27.5014 12.9198 27.5437 12.8634C27.5859 12.8071 27.6121 12.7404 27.6195 12.6703C27.631 12.658 27.6445 12.6478 27.6595 12.6403C27.7395 12.5803 27.8595 12.4803 27.8995 12.5303L27.9095 12.5503C27.9095 12.5803 27.8395 12.6203 27.7895 12.6503C27.7095 12.7003 27.6295 12.7603 27.6195 12.8403C27.6195 12.8603 27.6295 12.8803 27.6595 12.8803C27.6795 12.8803 27.6995 12.8603 27.6995 12.8403C27.6995 12.8003 27.7695 12.7503 27.8295 12.7103C27.8995 12.6603 27.9695 12.6203 27.9795 12.5503L27.9495 12.4903ZM27.2395 12.6403C27.2315 12.599 27.2149 12.5599 27.1908 12.5254C27.1667 12.491 27.1356 12.462 27.0995 12.4403C27.1395 12.4203 27.1595 12.3903 27.1595 12.3403C27.1595 12.3111 27.1479 12.2832 27.1273 12.2625C27.1067 12.2419 27.0787 12.2303 27.0495 12.2303C27.0204 12.2303 26.9924 12.2419 26.9717 12.2625C26.9511 12.2832 26.9395 12.3111 26.9395 12.3403C26.9395 12.3803 26.9695 12.4203 26.9995 12.4403C26.9295 12.4703 26.8795 12.5503 26.8595 12.6403H26.6295L27.0295 12.0503L27.0595 12.0603L27.0895 12.0503L27.4895 12.6403H27.2395Z" fill="#FFE15A"/>
<path d="M28.4995 8.90098C28.4995 8.90098 28.0995 8.78098 27.9195 10.191C27.9195 10.191 26.9395 11.441 26.9095 11.511C26.8795 11.581 26.9095 12.111 27.0095 12.071C27.1195 12.031 27.2995 11.781 27.2895 11.601C27.2795 11.421 27.3595 11.321 27.4395 11.231C27.5895 11.061 28.4295 10.301 28.4695 10.131C28.5095 9.96098 28.4995 8.90098 28.4995 8.90098Z" fill="#FFC8B9"/>
<path d="M29.13 8.63975C29.13 8.63975 29.75 8.55975 29.93 9.18975C29.93 9.18975 29.42 9.46975 29.49 9.82975C29.55 10.1897 29.48 11.8597 29.48 11.8597C28.51 12.1797 28 11.7797 28 11.7797C28 11.7797 28.25 10.8397 28.21 10.0697C28.21 10.0697 27.98 9.89975 28.04 9.69975C28.1 9.49975 28.24 9.27975 28.28 9.10975C28.33 8.93975 28.45 8.66975 28.76 8.63975C29.06 8.61975 29.13 8.63975 29.13 8.63975Z" fill="#F5F5F5"/>
<path d="M28.17 11.5996C28.17 11.5996 27.69 13.4396 27.85 15.9396C27.85 15.9396 29.36 16.1396 30.18 15.8396C30.18 15.8396 29.75 12.8496 29.34 11.6696L28.17 11.5996Z" fill="#F5F5F5"/>
<path d="M28.4502 7.55078V8.31078C28.4502 8.39078 28.5202 8.46078 28.6002 8.46078H28.6102C28.6702 8.46078 28.7202 8.51078 28.7202 8.57078V8.75078C28.7202 8.75078 28.8202 9.02078 29.2202 8.70078V7.56078L28.4502 7.55078Z" fill="#FFC8B9"/>
<path d="M28.36 7.3991C28.34 7.4591 28.36 7.6291 28.51 7.6191C28.7 7.6091 28.93 7.5991 28.98 7.8091C29.03 8.0091 29 8.4891 29.21 8.5191C29.42 8.5491 29.66 8.4091 29.65 7.9891C29.65 7.6191 29.41 7.1791 29.07 7.2491C29.07 7.2491 28.77 7.0391 28.6 7.2791C28.6 7.2791 28.42 7.2691 28.36 7.3991Z" fill="#8C5A28"/>
<path d="M29.9197 9.18945C29.9197 9.18945 30.1397 10.6095 30.1197 10.7295C30.1097 10.8495 29.3597 12.0195 29.3997 12.1495C29.4397 12.2795 29.4797 12.4495 29.2497 12.5095C29.0197 12.5695 29.0397 12.1995 29.1097 12.0095C29.1697 11.8195 29.6997 10.8095 29.6997 10.6895C29.6997 10.5695 29.3997 9.81945 29.4697 9.52945C29.5597 9.22945 29.9197 9.18945 29.9197 9.18945Z" fill="#FFC8B9"/>
<path d="M25.3196 8.16016C25.3196 8.16016 25.2996 8.08016 25.3196 8.00016C25.3396 7.92016 25.2896 7.86016 25.2696 7.79016C25.2396 7.61016 25.3896 7.57016 25.3996 7.41016C25.3996 7.41016 25.5096 7.52016 25.4696 7.63016C25.4296 7.73016 25.5296 7.75016 25.5196 7.85016C25.5096 7.95016 25.3996 8.05016 25.4096 8.14016L25.3196 8.16016Z" fill="#FF4B55"/>
<path d="M27.0101 7.99984C26.9201 7.88984 26.7701 8.00984 26.6601 8.08984L26.6201 8.11984L26.2001 7.50984L26.2201 7.44984C26.2201 7.38984 26.1701 7.33984 26.1101 7.33984C26.0501 7.33984 26.0001 7.38984 26.0001 7.44984L26.0201 7.50984L25.5901 8.14984H25.2901C25.2901 8.14984 25.2801 8.33984 25.6101 8.35984C25.6501 8.41984 25.7101 8.47984 25.7901 8.50984C25.7601 8.51984 25.7301 8.53984 25.7301 8.57984V8.62984H26.5001V8.56984C26.5001 8.52984 26.4701 8.50984 26.4401 8.49984C26.5052 8.47314 26.562 8.4293 26.6042 8.37296C26.6465 8.31661 26.6727 8.24988 26.6801 8.17984C26.6915 8.16752 26.705 8.15736 26.7201 8.14984C26.8001 8.08984 26.9201 7.98984 26.9601 8.03984L26.9701 8.05984C26.9701 8.08984 26.9001 8.12984 26.8501 8.15984C26.7701 8.20984 26.6901 8.26984 26.6801 8.34984C26.6801 8.36984 26.6901 8.38984 26.7201 8.38984C26.7401 8.38984 26.7601 8.36984 26.7601 8.34984C26.7601 8.30984 26.8301 8.25984 26.8901 8.21984C26.9601 8.16984 27.0301 8.12984 27.0401 8.05984C27.0366 8.03721 27.0261 8.01623 27.0101 7.99984ZM26.3001 8.13984C26.2921 8.09856 26.2755 8.05941 26.2513 8.02496C26.2272 7.9905 26.1961 7.9615 26.1601 7.93984C26.2001 7.91984 26.2201 7.88984 26.2201 7.83984C26.2201 7.81067 26.2085 7.78269 26.1879 7.76206C26.1672 7.74143 26.1392 7.72984 26.1101 7.72984C26.0809 7.72984 26.0529 7.74143 26.0323 7.76206C26.0117 7.78269 26.0001 7.81067 26.0001 7.83984C26.0001 7.87984 26.0301 7.91984 26.0601 7.93984C25.9901 7.96984 25.9401 8.04984 25.9201 8.13984H25.6901L26.0901 7.54984L26.1201 7.55984L26.1501 7.54984L26.5501 8.13984H26.3001Z" fill="#FFE15A"/>
<path d="M25.3196 9.66016C25.3196 9.66016 25.2996 9.58016 25.3196 9.50016C25.3396 9.42016 25.2896 9.36016 25.2696 9.29016C25.2396 9.11016 25.3896 9.07016 25.3996 8.91016C25.3996 8.91016 25.5096 9.02016 25.4696 9.13016C25.4296 9.23016 25.5296 9.25016 25.5196 9.35016C25.5096 9.45016 25.3996 9.55016 25.4096 9.64016L25.3196 9.66016Z" fill="#FF4B55"/>
<path d="M27.0101 9.49008C26.9201 9.38008 26.7701 9.50008 26.6501 9.59008L26.6101 9.62008L26.2001 9.00008L26.2201 8.94008C26.2201 8.88008 26.1701 8.83008 26.1101 8.83008C26.0501 8.83008 26.0001 8.88008 26.0001 8.94008L26.0201 9.00008L25.5901 9.64008H25.2901C25.2901 9.64008 25.2801 9.83008 25.6101 9.85008C25.6501 9.91008 25.7101 9.97008 25.7901 10.0001C25.7601 10.0101 25.7301 10.0301 25.7301 10.0701V10.1201H26.5001V10.0701C26.5001 10.0301 26.4701 10.0101 26.4401 10.0001C26.5052 9.97338 26.562 9.92953 26.6042 9.87319C26.6465 9.81685 26.6727 9.75012 26.6801 9.68008C26.6915 9.66776 26.705 9.6576 26.7201 9.65008C26.8001 9.59008 26.9201 9.49008 26.9601 9.54008L26.9701 9.56008C26.9701 9.59008 26.9001 9.63008 26.8501 9.66008C26.7701 9.71008 26.6901 9.77008 26.6801 9.85008C26.6801 9.87008 26.6901 9.89008 26.7201 9.89008C26.7401 9.89008 26.7601 9.87008 26.7601 9.85008C26.7601 9.81008 26.8301 9.76008 26.8901 9.72008C26.9601 9.67008 27.0301 9.63008 27.0401 9.56008C27.0355 9.53478 27.0252 9.51084 27.0101 9.49008ZM26.3001 9.64008C26.2921 9.59879 26.2755 9.55965 26.2513 9.52519C26.2272 9.49074 26.1961 9.46174 26.1601 9.44008C26.2001 9.42008 26.2201 9.39008 26.2201 9.34008C26.2201 9.3109 26.2085 9.28293 26.1879 9.2623C26.1672 9.24167 26.1392 9.23008 26.1101 9.23008C26.0809 9.23008 26.0529 9.24167 26.0323 9.2623C26.0117 9.28293 26.0001 9.3109 26.0001 9.34008C26.0001 9.38008 26.0301 9.42008 26.0601 9.44008C25.9901 9.47008 25.9401 9.55008 25.9201 9.64008H25.6901L26.0901 9.05008L26.1201 9.06008L26.1501 9.05008L26.5501 9.64008H26.3001Z" fill="#FFE15A"/>
<path d="M25.3196 11.1602C25.3196 11.1602 25.2996 11.0802 25.3196 11.0002C25.3396 10.9202 25.2896 10.8602 25.2696 10.7902C25.2396 10.6102 25.3896 10.5702 25.3996 10.4102C25.3996 10.4102 25.5096 10.5202 25.4696 10.6302C25.4296 10.7302 25.5296 10.7502 25.5196 10.8502C25.5096 10.9502 25.3996 11.0502 25.4096 11.1402L25.3196 11.1602Z" fill="#FF4B55"/>
<path d="M27.0101 10.9901C26.9201 10.8801 26.7701 11.0001 26.6601 11.0801L26.6201 11.1101L26.2001 10.5001L26.2201 10.4401C26.2201 10.3801 26.1701 10.3301 26.1101 10.3301C26.0501 10.3301 26.0001 10.3801 26.0001 10.4401L26.0201 10.5001L25.5901 11.1401H25.2901C25.2901 11.1401 25.2801 11.3301 25.6101 11.3501C25.6501 11.4101 25.7101 11.4701 25.7901 11.5001C25.7601 11.5101 25.7301 11.5301 25.7301 11.5701V11.6201H26.5001V11.5701C26.5001 11.5301 26.4701 11.5101 26.4401 11.5001C26.5052 11.4734 26.562 11.4295 26.6042 11.3732C26.6465 11.3168 26.6727 11.2501 26.6801 11.1801C26.6915 11.1678 26.705 11.1576 26.7201 11.1501C26.8001 11.0901 26.9201 10.9901 26.9601 11.0401L26.9701 11.0601C26.9701 11.0901 26.9001 11.1301 26.8501 11.1601C26.7701 11.2101 26.6901 11.2701 26.6801 11.3501C26.6801 11.3701 26.6901 11.3901 26.7201 11.3901C26.7401 11.3901 26.7601 11.3701 26.7601 11.3501C26.7601 11.3101 26.8301 11.2601 26.8901 11.2201C26.9601 11.1701 27.0301 11.1301 27.0401 11.0601C27.0355 11.0348 27.0252 11.0108 27.0101 10.9901ZM26.3001 11.1401C26.2921 11.0988 26.2755 11.0596 26.2513 11.0252C26.2272 10.9907 26.1961 10.9617 26.1601 10.9401C26.2001 10.9201 26.2201 10.8901 26.2201 10.8401C26.2201 10.8109 26.2085 10.7829 26.1879 10.7623C26.1672 10.7417 26.1392 10.7301 26.1101 10.7301C26.0809 10.7301 26.0529 10.7417 26.0323 10.7623C26.0117 10.7829 26.0001 10.8109 26.0001 10.8401C26.0001 10.8801 26.0301 10.9201 26.0601 10.9401C25.9901 10.9701 25.9401 11.0501 25.9201 11.1401H25.6901L26.0901 10.5501L26.1201 10.5601L26.1501 10.5501L26.5501 11.1401H26.3001Z" fill="#FFE15A"/>
<path d="M25.3196 14.1602C25.3196 14.1602 25.2996 14.0802 25.3196 14.0002C25.3396 13.9202 25.2896 13.8602 25.2696 13.7902C25.2396 13.6102 25.3896 13.5702 25.3996 13.4102C25.3996 13.4102 25.5096 13.5202 25.4696 13.6302C25.4296 13.7302 25.5296 13.7502 25.5196 13.8502C25.5096 13.9502 25.3996 14.0502 25.4096 14.1402L25.3196 14.1602Z" fill="#FF4B55"/>
<path d="M27.0101 13.9901C26.9201 13.8801 26.7701 14.0001 26.6601 14.0801L26.6201 14.1101L26.2001 13.5001L26.2201 13.4401C26.2201 13.3801 26.1701 13.3301 26.1101 13.3301C26.0501 13.3301 26.0001 13.3801 26.0001 13.4401L26.0201 13.5001L25.5901 14.1401H25.2901C25.2901 14.1401 25.2801 14.3301 25.6101 14.3501C25.6501 14.4101 25.7101 14.4701 25.7901 14.5001C25.7601 14.5101 25.7301 14.5301 25.7301 14.5701V14.6201H26.5001V14.5701C26.5001 14.5301 26.4701 14.5101 26.4401 14.5001C26.5052 14.4734 26.562 14.4295 26.6042 14.3732C26.6465 14.3168 26.6727 14.2501 26.6801 14.1801C26.6915 14.1678 26.705 14.1576 26.7201 14.1501C26.8001 14.0901 26.9201 13.9901 26.9601 14.0401L26.9701 14.0601C26.9701 14.0901 26.9001 14.1301 26.8501 14.1601C26.7701 14.2101 26.6901 14.2701 26.6801 14.3501C26.6801 14.3701 26.6901 14.3901 26.7201 14.3901C26.7401 14.3901 26.7601 14.3701 26.7601 14.3501C26.7601 14.3101 26.8301 14.2601 26.8901 14.2201C26.9601 14.1701 27.0301 14.1301 27.0401 14.0601L27.0101 13.9901ZM26.3001 14.1401C26.2921 14.0988 26.2755 14.0596 26.2513 14.0252C26.2272 13.9907 26.1961 13.9617 26.1601 13.9401C26.2001 13.9201 26.2201 13.8901 26.2201 13.8401C26.2201 13.8109 26.2085 13.7829 26.1879 13.7623C26.1672 13.7417 26.1392 13.7301 26.1101 13.7301C26.0809 13.7301 26.0529 13.7417 26.0323 13.7623C26.0117 13.7829 26.0001 13.8109 26.0001 13.8401C26.0001 13.8801 26.0301 13.9201 26.0601 13.9401C25.9901 13.9701 25.9401 14.0501 25.9201 14.1401H25.6901L26.0901 13.5501L26.1201 13.5601L26.1501 13.5501L26.5501 14.1401H26.3001Z" fill="#FFE15A"/>
<path d="M25.3196 15.6602C25.3196 15.6602 25.2996 15.5802 25.3196 15.5002C25.3396 15.4202 25.2896 15.3602 25.2696 15.2902C25.2396 15.1102 25.3896 15.0702 25.3996 14.9102C25.3996 14.9102 25.5096 15.0202 25.4696 15.1302C25.4296 15.2302 25.5296 15.2502 25.5196 15.3502C25.5096 15.4502 25.3996 15.5502 25.4096 15.6402L25.3196 15.6602Z" fill="#FF4B55"/>
<path d="M27.0101 15.4901C26.9201 15.3801 26.7701 15.5001 26.6601 15.5801L26.6201 15.6101L26.2001 15.0001L26.2201 14.9401C26.2201 14.8801 26.1701 14.8301 26.1101 14.8301C26.0501 14.8301 26.0001 14.8801 26.0001 14.9401L26.0201 15.0001L25.5901 15.6401H25.2901C25.2901 15.6401 25.2801 15.8301 25.6101 15.8501C25.6501 15.9101 25.7101 15.9701 25.7901 16.0001C25.7601 16.0101 25.7301 16.0301 25.7301 16.0701V16.1201H26.5001V16.0701C26.5001 16.0301 26.4701 16.0101 26.4401 16.0001C26.5052 15.9734 26.562 15.9295 26.6042 15.8732C26.6465 15.8168 26.6727 15.7501 26.6801 15.6801C26.6915 15.6678 26.705 15.6576 26.7201 15.6501C26.8001 15.5901 26.9201 15.4901 26.9601 15.5401L26.9701 15.5601C26.9701 15.5901 26.9001 15.6301 26.8501 15.6601C26.7701 15.7101 26.6901 15.7701 26.6801 15.8501C26.6801 15.8701 26.6901 15.8901 26.7201 15.8901C26.7401 15.8901 26.7601 15.8701 26.7601 15.8501C26.7601 15.8101 26.8301 15.7601 26.8901 15.7201C26.9601 15.6701 27.0301 15.6301 27.0401 15.5601C27.0397 15.5337 27.0289 15.5085 27.0101 15.4901ZM26.3001 15.6301C26.2921 15.5888 26.2755 15.5496 26.2513 15.5152C26.2272 15.4807 26.1961 15.4517 26.1601 15.4301C26.2001 15.4101 26.2201 15.3801 26.2201 15.3301C26.2201 15.3009 26.2085 15.2729 26.1879 15.2523C26.1672 15.2317 26.1392 15.2201 26.1101 15.2201C26.0809 15.2201 26.0529 15.2317 26.0323 15.2523C26.0117 15.2729 26.0001 15.3009 26.0001 15.3301C26.0001 15.3701 26.0301 15.4101 26.0601 15.4301C25.9901 15.4601 25.9401 15.5401 25.9201 15.6301H25.6901L26.0901 15.0401L26.1201 15.0501L26.1501 15.0401L26.5501 15.6301H26.3001Z" fill="#FFE15A"/>
<path d="M30.51 8.16016C30.51 8.16016 30.49 8.08016 30.51 8.00016C30.53 7.92016 30.48 7.86016 30.46 7.79016C30.43 7.61016 30.58 7.57016 30.59 7.41016C30.59 7.41016 30.7 7.52016 30.66 7.63016C30.62 7.73016 30.72 7.75016 30.71 7.85016C30.7 7.95016 30.59 8.05016 30.6 8.14016L30.51 8.16016Z" fill="#FF4B55"/>
<path d="M32.1995 8.00008C32.1095 7.89008 31.9595 8.01008 31.8495 8.09008L31.8095 8.12008L31.3895 7.50008L31.4095 7.44008C31.4095 7.38008 31.3595 7.33008 31.2995 7.33008C31.2395 7.33008 31.1895 7.38008 31.1895 7.44008L31.2095 7.50008L30.7795 8.14008H30.4795C30.4795 8.14008 30.4695 8.33008 30.7995 8.35008C30.8395 8.41008 30.8995 8.47008 30.9795 8.50008C30.9495 8.51008 30.9195 8.53008 30.9195 8.57008V8.62008H31.6895V8.57008C31.6895 8.53008 31.6595 8.51008 31.6295 8.50008C31.6947 8.47338 31.7514 8.42953 31.7937 8.37319C31.8359 8.31685 31.8621 8.25012 31.8695 8.18008C31.881 8.16776 31.8945 8.1576 31.9095 8.15008C31.9895 8.09008 32.1095 7.99008 32.1495 8.04008L32.1595 8.06008C32.1595 8.09008 32.0895 8.13008 32.0395 8.16008C31.9595 8.21008 31.8795 8.27008 31.8695 8.35008C31.8695 8.37008 31.8795 8.39008 31.9095 8.39008C31.9295 8.39008 31.9495 8.37008 31.9495 8.35008C31.9495 8.31008 32.0195 8.26008 32.0795 8.22008C32.1495 8.17008 32.2195 8.13008 32.2295 8.06008C32.226 8.03744 32.2155 8.01647 32.1995 8.00008ZM31.4895 8.14008C31.4815 8.09879 31.4649 8.05965 31.4408 8.02519C31.4167 7.99074 31.3856 7.96174 31.3495 7.94008C31.3895 7.92008 31.4095 7.89008 31.4095 7.84008C31.4095 7.8109 31.3979 7.78293 31.3773 7.7623C31.3567 7.74167 31.3287 7.73008 31.2995 7.73008C31.2704 7.73008 31.2424 7.74167 31.2217 7.7623C31.2011 7.78293 31.1895 7.8109 31.1895 7.84008C31.1895 7.88008 31.2195 7.92008 31.2495 7.94008C31.1795 7.97008 31.1295 8.05008 31.1095 8.14008H30.8795L31.2795 7.55008L31.3095 7.56008L31.3395 7.55008L31.7395 8.14008H31.4895Z" fill="#FFE15A"/>
<path d="M30.51 9.66016C30.51 9.66016 30.49 9.58016 30.51 9.50016C30.53 9.42016 30.48 9.36016 30.46 9.29016C30.43 9.11016 30.58 9.07016 30.59 8.91016C30.59 8.91016 30.7 9.02016 30.66 9.13016C30.62 9.23016 30.72 9.25016 30.71 9.35016C30.7 9.45016 30.59 9.55016 30.6 9.64016L30.51 9.66016Z" fill="#FF4B55"/>
<path d="M32.1998 9.49008C32.1098 9.38008 31.9498 9.50008 31.8398 9.59008L31.7998 9.62008L31.3798 9.00008L31.3998 8.94008C31.3998 8.88008 31.3498 8.83008 31.2898 8.83008C31.2298 8.83008 31.1798 8.88008 31.1798 8.94008L31.1998 9.00008L30.7698 9.64008H30.4698C30.4698 9.64008 30.4598 9.83008 30.7898 9.85008C30.8298 9.91008 30.8898 9.97008 30.9698 10.0001C30.9512 10.0001 30.9334 10.0075 30.9203 10.0206C30.9071 10.0337 30.8998 10.0515 30.8998 10.0701V10.1201H31.6698V10.0701C31.6698 10.0301 31.6398 10.0101 31.6098 10.0001C31.6749 9.97338 31.7317 9.92953 31.7739 9.87319C31.8162 9.81685 31.8424 9.75012 31.8498 9.68008C31.8612 9.66776 31.8747 9.6576 31.8898 9.65008C31.9698 9.59008 32.0898 9.49008 32.1298 9.54008L32.1398 9.56008C32.1398 9.59008 32.0698 9.63008 32.0198 9.66008C31.9398 9.71008 31.8598 9.77008 31.8498 9.85008C31.8498 9.87008 31.8598 9.89008 31.8898 9.89008C31.9098 9.89008 31.9298 9.87008 31.9298 9.85008C31.9298 9.81008 31.9998 9.76008 32.0598 9.72008C32.1298 9.67008 32.1998 9.63008 32.2098 9.56008C32.2298 9.55008 32.2198 9.52008 32.1998 9.49008ZM31.4898 9.64008C31.4817 9.59879 31.4651 9.55965 31.441 9.52519C31.4169 9.49074 31.3858 9.46174 31.3498 9.44008C31.3898 9.42008 31.4098 9.39008 31.4098 9.34008C31.4098 9.3109 31.3982 9.28293 31.3775 9.2623C31.3569 9.24167 31.3289 9.23008 31.2998 9.23008C31.2706 9.23008 31.2426 9.24167 31.222 9.2623C31.2013 9.28293 31.1898 9.3109 31.1898 9.34008C31.1898 9.38008 31.2198 9.42008 31.2498 9.44008C31.1798 9.47008 31.1298 9.55008 31.1098 9.64008H30.8798L31.2798 9.05008L31.3098 9.06008L31.3398 9.05008L31.7398 9.64008H31.4898Z" fill="#FFE15A"/>
<path d="M30.51 11.1602C30.51 11.1602 30.49 11.0802 30.51 11.0002C30.53 10.9202 30.48 10.8602 30.46 10.7902C30.43 10.6102 30.58 10.5702 30.59 10.4102C30.59 10.4102 30.7 10.5202 30.66 10.6302C30.62 10.7302 30.72 10.7502 30.71 10.8502C30.7 10.9502 30.59 11.0502 30.6 11.1402L30.51 11.1602Z" fill="#FF4B55"/>
<path d="M32.1998 10.9901C32.1098 10.8801 31.9598 11.0001 31.8498 11.0801L31.8098 11.1101L31.3798 10.5001L31.3998 10.4401C31.3998 10.3801 31.3498 10.3301 31.2898 10.3301C31.2298 10.3301 31.1798 10.3801 31.1798 10.4401L31.1998 10.5001L30.7698 11.1401H30.4698C30.4698 11.1401 30.4598 11.3301 30.7898 11.3501C30.8298 11.4101 30.8898 11.4701 30.9698 11.5001C30.9398 11.5101 30.9098 11.5301 30.9098 11.5701V11.6201H31.6798V11.5701C31.6798 11.5301 31.6498 11.5101 31.6198 11.5001C31.6849 11.4734 31.7417 11.4295 31.7839 11.3732C31.8262 11.3168 31.8524 11.2501 31.8598 11.1801C31.8712 11.1678 31.8847 11.1576 31.8998 11.1501C31.9798 11.0901 32.0998 10.9901 32.1398 11.0401L32.1498 11.0601C32.1498 11.0901 32.0798 11.1301 32.0298 11.1601C31.9498 11.2101 31.8698 11.2701 31.8598 11.3501C31.8598 11.3701 31.8698 11.3901 31.8998 11.3901C31.9198 11.3901 31.9398 11.3701 31.9398 11.3501C31.9398 11.3101 32.0098 11.2601 32.0698 11.2201C32.1398 11.1701 32.2098 11.1301 32.2198 11.0601C32.2298 11.0501 32.2198 11.0201 32.1998 10.9901ZM31.4898 11.1401C31.4817 11.0988 31.4651 11.0596 31.441 11.0252C31.4169 10.9907 31.3858 10.9617 31.3498 10.9401C31.3898 10.9201 31.4098 10.8901 31.4098 10.8401C31.4098 10.8109 31.3982 10.7829 31.3775 10.7623C31.3569 10.7417 31.3289 10.7301 31.2998 10.7301C31.2706 10.7301 31.2426 10.7417 31.222 10.7623C31.2013 10.7829 31.1898 10.8109 31.1898 10.8401C31.1898 10.8801 31.2198 10.9201 31.2498 10.9401C31.1798 10.9701 31.1298 11.0501 31.1098 11.1401H30.8798L31.2798 10.5501L31.3098 10.5601L31.3398 10.5501L31.7398 11.1401H31.4898Z" fill="#FFE15A"/>
<path d="M30.51 12.6602C30.51 12.6602 30.49 12.5802 30.51 12.5002C30.53 12.4202 30.48 12.3602 30.46 12.2902C30.43 12.1102 30.58 12.0702 30.59 11.9102C30.59 11.9102 30.7 12.0202 30.66 12.1302C30.62 12.2302 30.72 12.2502 30.71 12.3502C30.7 12.4502 30.59 12.5502 30.6 12.6402L30.51 12.6602Z" fill="#FF4B55"/>
<path d="M32.1995 12.4903C32.1095 12.3803 31.9595 12.5003 31.8495 12.5803L31.8095 12.6103L31.3895 11.9903L31.4095 11.9303C31.4095 11.8703 31.3595 11.8203 31.2995 11.8203C31.2395 11.8203 31.1895 11.8703 31.1895 11.9303L31.2095 11.9903L30.7795 12.6303H30.4795C30.4795 12.6303 30.4695 12.8203 30.7995 12.8403C30.8395 12.9003 30.8995 12.9603 30.9795 12.9903C30.9495 13.0003 30.9195 13.0203 30.9195 13.0603V13.1103H31.6895V13.0603C31.6895 13.0203 31.6595 13.0003 31.6295 12.9903C31.6947 12.9636 31.7514 12.9198 31.7937 12.8634C31.8359 12.8071 31.8621 12.7404 31.8695 12.6703C31.881 12.658 31.8945 12.6478 31.9095 12.6403C31.9895 12.5803 32.1095 12.4803 32.1495 12.5303L32.1595 12.5503C32.1595 12.5803 32.0895 12.6203 32.0395 12.6503C31.9595 12.7003 31.8795 12.7603 31.8695 12.8403C31.8695 12.8603 31.8795 12.8803 31.9095 12.8803C31.9295 12.8803 31.9495 12.8603 31.9495 12.8403C31.9495 12.8003 32.0195 12.7503 32.0795 12.7103C32.1495 12.6603 32.2195 12.6203 32.2295 12.5503L32.1995 12.4903ZM31.4895 12.6403C31.4815 12.599 31.4649 12.5599 31.4408 12.5254C31.4167 12.491 31.3856 12.462 31.3495 12.4403C31.3895 12.4203 31.4095 12.3903 31.4095 12.3403C31.4095 12.3111 31.3979 12.2832 31.3773 12.2625C31.3567 12.2419 31.3287 12.2303 31.2995 12.2303C31.2704 12.2303 31.2424 12.2419 31.2217 12.2625C31.2011 12.2832 31.1895 12.3111 31.1895 12.3403C31.1895 12.3803 31.2195 12.4203 31.2495 12.4403C31.1795 12.4703 31.1295 12.5503 31.1095 12.6403H30.8795L31.2795 12.0503L31.3095 12.0603L31.3395 12.0503L31.7395 12.6403H31.4895Z" fill="#FFE15A"/>
<path d="M30.51 14.1602C30.51 14.1602 30.49 14.0802 30.51 14.0002C30.53 13.9202 30.48 13.8602 30.46 13.7902C30.43 13.6102 30.58 13.5702 30.59 13.4102C30.59 13.4102 30.7 13.5202 30.66 13.6302C30.62 13.7302 30.72 13.7502 30.71 13.8502C30.7 13.9502 30.59 14.0502 30.6 14.1402L30.51 14.1602Z" fill="#FF4B55"/>
<path d="M32.1998 13.9901C32.1098 13.8801 31.9598 14.0001 31.8498 14.0801L31.8098 14.1101L31.3798 13.5001L31.3998 13.4401C31.3998 13.3801 31.3498 13.3301 31.2898 13.3301C31.2298 13.3301 31.1798 13.3801 31.1798 13.4401L31.1998 13.5001L30.7698 14.1401H30.4698C30.4698 14.1401 30.4598 14.3301 30.7898 14.3501C30.8298 14.4101 30.8898 14.4701 30.9698 14.5001C30.9398 14.5101 30.9098 14.5301 30.9098 14.5701V14.6201H31.6798V14.5701C31.6798 14.5301 31.6498 14.5101 31.6198 14.5001C31.6849 14.4734 31.7417 14.4295 31.7839 14.3732C31.8262 14.3168 31.8524 14.2501 31.8598 14.1801C31.8712 14.1678 31.8847 14.1576 31.8998 14.1501C31.9798 14.0901 32.0998 13.9901 32.1398 14.0401L32.1498 14.0601C32.1498 14.0901 32.0798 14.1301 32.0298 14.1601C31.9498 14.2101 31.8698 14.2701 31.8598 14.3501C31.8598 14.3701 31.8698 14.3901 31.8998 14.3901C31.9198 14.3901 31.9398 14.3701 31.9398 14.3501C31.9398 14.3101 32.0098 14.2601 32.0698 14.2201C32.1398 14.1701 32.2098 14.1301 32.2198 14.0601C32.2298 14.0401 32.2198 14.0201 32.1998 13.9901ZM31.4898 14.1401C31.4817 14.0988 31.4651 14.0596 31.441 14.0252C31.4169 13.9907 31.3858 13.9617 31.3498 13.9401C31.3898 13.9201 31.4098 13.8901 31.4098 13.8401C31.4098 13.8109 31.3982 13.7829 31.3775 13.7623C31.3569 13.7417 31.3289 13.7301 31.2998 13.7301C31.2706 13.7301 31.2426 13.7417 31.222 13.7623C31.2013 13.7829 31.1898 13.8109 31.1898 13.8401C31.1898 13.8801 31.2198 13.9201 31.2498 13.9401C31.1798 13.9701 31.1298 14.0501 31.1098 14.1401H30.8798L31.2798 13.5501L31.3098 13.5601L31.3398 13.5501L31.7398 14.1401H31.4898Z" fill="#FFE15A"/>
<path d="M30.51 15.6602C30.51 15.6602 30.49 15.5802 30.51 15.5002C30.53 15.4202 30.48 15.3602 30.46 15.2902C30.43 15.1102 30.58 15.0702 30.59 14.9102C30.59 14.9102 30.7 15.0202 30.66 15.1302C30.62 15.2302 30.72 15.2502 30.71 15.3502C30.7 15.4502 30.59 15.5502 30.6 15.6402L30.51 15.6602Z" fill="#FF4B55"/>
<path d="M32.1995 15.4903C32.1095 15.3803 31.9595 15.5003 31.8495 15.5803L31.8095 15.6103L31.3895 14.9903L31.4095 14.9303C31.4095 14.8703 31.3595 14.8203 31.2995 14.8203C31.2395 14.8203 31.1895 14.8703 31.1895 14.9303L31.2095 14.9903L30.7795 15.6303H30.4795C30.4795 15.6303 30.4695 15.8203 30.7995 15.8403C30.8395 15.9003 30.8995 15.9603 30.9795 15.9903C30.9495 16.0003 30.9195 16.0203 30.9195 16.0603V16.1103H31.6895V16.0603C31.6895 16.0203 31.6595 16.0003 31.6295 15.9903C31.6947 15.9636 31.7514 15.9198 31.7937 15.8634C31.8359 15.8071 31.8621 15.7404 31.8695 15.6703C31.881 15.658 31.8945 15.6478 31.9095 15.6403C31.9895 15.5803 32.1095 15.4803 32.1495 15.5303L32.1595 15.5503C32.1595 15.5803 32.0895 15.6203 32.0395 15.6503C31.9595 15.7003 31.8795 15.7603 31.8695 15.8403C31.8695 15.8603 31.8795 15.8803 31.9095 15.8803C31.9295 15.8803 31.9495 15.8603 31.9495 15.8403C31.9495 15.8003 32.0195 15.7503 32.0795 15.7103C32.1495 15.6603 32.2195 15.6203 32.2295 15.5503C32.226 15.5277 32.2155 15.5067 32.1995 15.4903ZM31.4895 15.6303C31.4815 15.589 31.4649 15.5499 31.4408 15.5154C31.4167 15.481 31.3856 15.452 31.3495 15.4303C31.3895 15.4103 31.4095 15.3803 31.4095 15.3303C31.4095 15.3011 31.3979 15.2732 31.3773 15.2525C31.3567 15.2319 31.3287 15.2203 31.2995 15.2203C31.2704 15.2203 31.2424 15.2319 31.2217 15.2525C31.2011 15.2732 31.1895 15.3011 31.1895 15.3303C31.1895 15.3703 31.2195 15.4103 31.2495 15.4303C31.1795 15.4603 31.1295 15.5403 31.1095 15.6303H30.8795L31.2795 15.0403L31.3095 15.0503L31.3395 15.0403L31.7395 15.6303H31.4895Z" fill="#FFE15A"/>
<path d="M33.0702 6.66016V14.5202C33.0702 16.2902 28.7802 18.0702 28.7802 18.0702C28.7802 18.0702 24.4902 16.3002 24.4902 14.5202V6.66016H33.0702ZM33.3202 6.41016H24.2402V14.5202C24.2402 15.3502 25.0002 16.2402 26.5002 17.1802C27.5802 17.8502 28.6402 18.2902 28.6802 18.3102L28.7802 18.3502L28.8802 18.3102C28.9202 18.2902 29.9802 17.8502 31.0602 17.1802C32.5602 16.2502 33.3202 15.3502 33.3202 14.5202V6.41016Z" fill="#F5F5F5"/>
<path d="M33.3604 15.9201L34.5004 16.7101C33.826 17.5857 32.9596 18.2948 31.9679 18.7827C30.9762 19.2707 29.8857 19.5244 28.7804 19.5244C27.6752 19.5244 26.5847 19.2707 25.593 18.7827C24.6013 18.2948 23.7349 17.5857 23.0604 16.7101L24.2004 15.9201C24.7493 16.6078 25.4461 17.1631 26.239 17.5447C27.0319 17.9263 27.9005 18.1245 28.7804 18.1245C29.6604 18.1245 30.529 17.9263 31.3219 17.5447C32.1148 17.1631 32.8115 16.6078 33.3604 15.9201ZM33.3104 15.5801L33.1604 15.7601C32.6404 16.4252 31.9757 16.9631 31.2168 17.3331C30.4579 17.703 29.6247 17.8953 28.7804 17.8953C27.9362 17.8953 27.103 17.703 26.3441 17.3331C25.5852 16.9631 24.9205 16.4252 24.4004 15.7601L24.2504 15.5801L24.0604 15.7101L22.9104 16.5001L22.6904 16.6501L22.8504 16.8601C23.547 17.7685 24.4432 18.5044 25.4698 19.0109C26.4964 19.5173 27.6257 19.7808 28.7704 19.7808C29.9151 19.7808 31.0445 19.5173 32.0711 19.0109C33.0976 18.5044 33.9939 17.7685 34.6904 16.8601L34.8504 16.6501L34.6404 16.5001L33.5004 15.7101L33.3104 15.5801Z" fill="#F5F5F5"/>
<path d="M28.7796 19.5299C31.0996 19.5299 33.1696 18.4299 34.4996 16.7099L33.3596 15.9199C32.8107 16.6077 32.1139 17.1629 31.321 17.5446C30.5281 17.9262 29.6595 18.1244 28.7796 18.1244C27.8996 18.1244 27.031 17.9262 26.2381 17.5446C25.4452 17.1629 24.7485 16.6077 24.1996 15.9199L23.0596 16.7099C23.7318 17.5883 24.5977 18.2997 25.5898 18.7888C26.5819 19.2779 27.6735 19.5315 28.7796 19.5299Z" fill="#FFE15A"/>
</g>
</g>
<defs>
<clipPath id="clip0_26003_75539">
<rect width="38" height="25" fill="white" transform="translate(0 0.5)"/>
</clipPath>
<clipPath id="clip1_26003_75539">
<rect width="38" height="25" fill="white" transform="translate(0 0.5)"/>
</clipPath>
</defs>
</svg>
