<svg width="38" height="26" viewBox="0 0 38 26" fill="none" xmlns="http://www.w3.org/2000/svg">
<g clip-path="url(#clip0_26003_70387)">
<g clip-path="url(#clip1_26003_70387)">
<path fill-rule="evenodd" clip-rule="evenodd" d="M19.0596 25.5H35.6296C36.9196 25.25 37.9396 24.06 38.1096 22.59V3.41C37.9396 1.94 36.9196 0.75 35.6296 0.5H19.0596V25.5Z" fill="#C3283A"/>
<path fill-rule="evenodd" clip-rule="evenodd" d="M2.48 25.5H19.05V0.5H2.48C1.19 0.75 0.17 1.94 0 3.41V22.59C0.17 24.06 1.19 25.25 2.48 25.5Z" fill="#FEFEFE"/>
<path fill-rule="evenodd" clip-rule="evenodd" d="M4.39973 4.30828C4.39973 4.34828 4.35973 4.37828 4.30973 4.37828C4.25973 4.37828 4.21973 4.34828 4.21973 4.30828C4.21973 4.26828 4.25973 4.23828 4.30973 4.23828C4.36973 4.23828 4.39973 4.26828 4.39973 4.30828Z" fill="#F4F2F3"/>
<path fill-rule="evenodd" clip-rule="evenodd" d="M1.58984 3.96172V5.80172H3.22984C3.22984 6.11172 3.50984 6.41172 3.77984 6.41172V8.25172H5.41984V6.41172C5.68984 6.41172 5.96984 6.10172 5.96984 5.80172H7.60984V3.96172H5.94984C5.94984 3.65172 5.66984 3.35172 5.39984 3.35172V1.51172H3.76984V3.35172C3.49984 3.35172 3.21984 3.65172 3.21984 3.96172H1.58984Z" fill="#D5263B"/>
<path fill-rule="evenodd" clip-rule="evenodd" d="M1.63965 4.01859V5.73859H3.27965C3.27965 6.04859 3.54965 6.34859 3.81965 6.34859V8.18859H5.34965V6.34859C5.61965 6.34859 5.89965 6.03859 5.89965 5.73859H7.53965V4.01859H5.89965C5.89965 3.70859 5.62965 3.40859 5.34965 3.40859V1.55859H3.81965V3.39859C3.54965 3.39859 3.27965 3.70859 3.27965 4.00859H1.63965V4.01859Z" fill="#C3283A"/>
<path fill-rule="evenodd" clip-rule="evenodd" d="M1.7002 4.08109V5.67109H3.3402C3.3402 5.98109 3.6102 6.28109 3.8802 6.28109V8.12109H5.3002V6.29109C5.5702 6.29109 5.85019 5.99109 5.85019 5.68109H7.4902V4.08109H5.85019C5.85019 3.77109 5.5702 3.46109 5.3002 3.46109V1.62109H3.8802V3.46109C3.6102 3.46109 3.3402 3.77109 3.3402 4.08109H1.7002Z" fill="#9B8D80"/>
<path fill-rule="evenodd" clip-rule="evenodd" d="M1.75 4.14141V5.61141H3.39C3.39 5.92141 3.66 6.22141 3.94 6.22141V8.06141H5.25V6.23141C5.52 6.23141 5.79 5.92141 5.79 5.62141H7.43V4.14141H5.79C5.79 3.83141 5.52 3.52141 5.25 3.52141V1.69141H3.93V3.53141C3.66 3.53141 3.38 3.84141 3.38 4.15141H1.75V4.14141Z" fill="#D4D2D1"/>
<path fill-rule="evenodd" clip-rule="evenodd" d="M3.95036 3.37069C4.05036 3.48069 3.97036 3.74069 3.78036 3.96069C3.59036 4.18069 3.35036 4.26069 3.26036 4.15069C3.16036 4.05069 3.24036 3.78069 3.42036 3.57069C3.62036 3.35069 3.85036 3.27069 3.95036 3.37069Z" fill="#D8D7D5"/>
<path fill-rule="evenodd" clip-rule="evenodd" d="M3.82977 3.50029C3.92977 3.61029 3.89977 3.81029 3.76977 3.95029C3.64977 4.10029 3.46977 4.13029 3.36977 4.03029C3.26977 3.92029 3.29977 3.71029 3.41977 3.57029C3.55977 3.43029 3.73977 3.40029 3.82977 3.50029Z" fill="#9B8D80"/>
<path fill-rule="evenodd" clip-rule="evenodd" d="M3.34961 3.83117L3.38961 3.79117L3.53961 3.87117L3.46961 3.70117L3.49961 3.66117L3.65961 4.00117L3.34961 3.83117ZM3.57961 3.57117L3.61961 3.52117L3.84961 3.79117L3.80961 3.83117L3.57961 3.57117ZM5.91961 4.15117C5.82961 4.26117 5.58961 4.18117 5.39961 3.96117C5.20961 3.74117 5.12961 3.48117 5.22961 3.37117C5.32961 3.26117 5.55961 3.35117 5.74961 3.57117C5.93961 3.78117 6.01961 4.05117 5.91961 4.15117Z" fill="#D8D7D5"/>
<path fill-rule="evenodd" clip-rule="evenodd" d="M5.81024 4.03036C5.71024 4.13036 5.53024 4.10036 5.40024 3.96036C5.28024 3.82036 5.25024 3.61036 5.35024 3.50036C5.45024 3.39036 5.63024 3.42036 5.75024 3.56036C5.88024 3.71036 5.90024 3.92036 5.81024 4.03036Z" fill="#9B8D80"/>
<path fill-rule="evenodd" clip-rule="evenodd" d="M5.51983 3.48047L5.55983 3.52047L5.47983 3.70047L5.63983 3.61047L5.66983 3.66047L5.35983 3.83047L5.51983 3.48047ZM5.74983 3.74047L5.78983 3.79047L5.55983 4.05047L5.51983 4.00047L5.74983 3.74047ZM5.22983 6.38047C5.12983 6.27047 5.20983 6.01047 5.39983 5.79047C5.58983 5.58047 5.82983 5.49047 5.91983 5.59047C6.01983 5.70047 5.92983 5.96047 5.74983 6.18047C5.55983 6.40047 5.31983 6.49047 5.22983 6.38047Z" fill="#D8D7D5"/>
<path fill-rule="evenodd" clip-rule="evenodd" d="M5.35024 6.24904C5.25024 6.13904 5.28024 5.93904 5.40024 5.78904C5.53024 5.64904 5.71024 5.61904 5.81024 5.71904C5.91024 5.82904 5.88024 6.02904 5.75024 6.17904C5.62024 6.32904 5.44024 6.35904 5.35024 6.24904Z" fill="#9B8D80"/>
<path fill-rule="evenodd" clip-rule="evenodd" d="M5.83004 5.92163L5.79004 5.97163L5.64004 5.88163L5.71004 6.05163L5.67004 6.09163L5.52004 5.75163L5.83004 5.92163ZM5.59004 6.18163L5.56004 6.23163L5.33004 5.97163L5.36004 5.92163L5.59004 6.18163ZM3.25004 5.60163C3.35004 5.49163 3.58004 5.58164 3.77004 5.80164C3.96004 6.02163 4.04004 6.28163 3.94004 6.39163C3.84004 6.50163 3.61004 6.41163 3.42004 6.19163C3.24004 5.97163 3.16004 5.71163 3.25004 5.60163Z" fill="#D8D7D5"/>
<path fill-rule="evenodd" clip-rule="evenodd" d="M3.36977 5.73015C3.46977 5.62015 3.64977 5.65015 3.77977 5.80015C3.89977 5.94015 3.92977 6.14015 3.82977 6.25015C3.72977 6.36015 3.55977 6.33015 3.41977 6.18015C3.29977 6.04015 3.26977 5.84015 3.36977 5.73015Z" fill="#9B8D80"/>
<path fill-rule="evenodd" clip-rule="evenodd" d="M3.65965 6.27094L3.61965 6.23094L3.69965 6.05094L3.53965 6.14094L3.49965 6.09094L3.80965 5.92094L3.65965 6.27094ZM3.42965 6.01094L3.38965 5.97094L3.61965 5.71094L3.65965 5.75094L3.42965 6.01094Z" fill="#D8D7D5"/>
<path fill-rule="evenodd" clip-rule="evenodd" d="M4.58969 3.59812C3.95969 3.59812 3.44969 4.16813 3.44969 4.87813C3.44969 5.58813 3.95969 6.15812 4.58969 6.15812C4.88969 6.15812 5.17969 6.02813 5.38969 5.78813C5.59969 5.53813 5.71969 5.22813 5.71969 4.87813C5.71969 4.53813 5.59969 4.21813 5.38969 3.97813C5.17969 3.72813 4.88969 3.59812 4.58969 3.59812ZM4.58969 6.17812C3.94969 6.17812 3.42969 5.59813 3.42969 4.87813C3.42969 4.15813 3.94969 3.57812 4.58969 3.57812C4.89969 3.57812 5.18969 3.70813 5.39969 3.95813C5.61969 4.19813 5.73969 4.52813 5.73969 4.87813C5.73969 5.22813 5.61969 5.54813 5.39969 5.79813C5.18969 6.03813 4.89969 6.17812 4.58969 6.17812Z" fill="#9B8D80"/>
<path fill-rule="evenodd" clip-rule="evenodd" d="M4.5902 3.90062C4.1102 3.90062 3.7202 4.34062 3.7202 4.87062C3.7202 5.41062 4.1102 5.84063 4.5902 5.84063C5.0602 5.84063 5.4502 5.40062 5.4502 4.87062C5.4502 4.34062 5.0602 3.90062 4.5902 3.90062ZM4.5902 5.87062C4.1002 5.87062 3.7002 5.43062 3.7002 4.88063C3.7002 4.33062 4.1002 3.89062 4.5902 3.89062C5.0802 3.89062 5.4702 4.33062 5.4702 4.88063C5.4702 5.42062 5.0802 5.87062 4.5902 5.87062Z" fill="#9B8D80"/>
<path fill-rule="evenodd" clip-rule="evenodd" d="M4.20978 5.92132C4.20978 5.94132 4.19978 5.96132 4.17978 5.97132H4.12978C4.12018 5.96717 4.11212 5.96012 4.10673 5.95115C4.10135 5.94218 4.09892 5.93174 4.09978 5.92132C4.09978 5.90132 4.10978 5.88132 4.12978 5.87132H4.17978C4.19978 5.88132 4.20978 5.90132 4.20978 5.92132ZM5.07978 5.92132C5.07978 5.94132 5.06978 5.96132 5.04978 5.97132H4.99978C4.99018 5.96717 4.98212 5.96012 4.97673 5.95115C4.97135 5.94218 4.96892 5.93174 4.96978 5.92132C4.96978 5.90132 4.97978 5.88132 4.99978 5.87132C5.0089 5.86605 5.01925 5.86328 5.02978 5.86328C5.04031 5.86328 5.05066 5.86605 5.05978 5.87132L5.07978 5.92132ZM4.54978 5.92132V5.98132H4.47978C4.39978 5.98132 4.39978 6.05132 4.47978 6.05132H4.54978V6.11132C4.54978 6.18132 4.60978 6.19132 4.61978 6.11132L4.62978 6.04132H4.69978C4.76978 6.04132 4.76978 5.97132 4.69978 5.97132H4.62978V5.92132C4.62978 5.86132 4.54978 5.86132 4.54978 5.92132Z" fill="#242222"/>
<path fill-rule="evenodd" clip-rule="evenodd" d="M5.21027 5.06172H5.26027V5.08172H5.30027L5.28027 5.09172L5.31027 5.11172H5.27027V5.14172C5.27027 5.14172 5.23027 5.14172 5.21027 5.10172V5.06172ZM5.14027 5.04172C5.13027 5.06172 5.05027 5.01172 5.05027 5.01172C5.05027 5.01172 5.08027 5.07172 5.14027 5.08172V5.04172ZM4.14027 5.61172H5.08027L5.15027 5.55172L5.03027 5.47172L4.84027 5.40172L4.77027 5.36172L4.63027 5.37172L4.51027 5.43172L4.36027 5.45172L4.32027 5.50172L4.21027 5.51172H4.03027L4.33027 5.56172L4.08027 5.55172L4.14027 5.61172Z" fill="#9B8D80"/>
<path fill-rule="evenodd" clip-rule="evenodd" d="M4.08027 5.54938L4.15027 5.59937H5.08027L5.15027 5.53937L4.77027 5.35938L4.63027 5.36937L4.52027 5.43937L4.36027 5.45937L4.33027 5.50938L4.21027 5.51937H4.03027L4.34027 5.55937L4.08027 5.54938ZM5.08027 5.60938H4.14027L4.08027 5.54938L4.33027 5.55937L4.03027 5.50938L4.32027 5.49937L4.35027 5.45937L4.51027 5.43937L4.63027 5.36937L4.77027 5.35938L4.85027 5.39937L5.15027 5.53937L5.08027 5.60938Z" fill="#242222"/>
<path fill-rule="evenodd" clip-rule="evenodd" d="M4.65043 5.31016C4.53043 5.24016 4.50043 5.41016 4.44043 5.45016C4.51043 5.47016 4.56043 5.40016 4.62043 5.36016C4.66043 5.49016 4.73043 5.40016 4.73043 5.40016C4.73043 5.40016 4.80043 5.53016 4.90043 5.47016C4.93043 5.49016 4.95043 5.47016 4.95043 5.47016L4.99043 5.46016C5.01043 5.47016 5.03043 5.44016 5.03043 5.44016C5.03043 5.44016 5.07043 5.44016 5.08043 5.42016C5.14043 5.43016 5.22043 5.28016 5.22043 5.28016L5.25043 5.23016L5.29043 5.22016L5.28043 5.20016C5.28043 5.18016 5.27043 5.17016 5.25043 5.18016L5.24043 5.16016C5.21043 5.17016 5.21043 5.26016 5.21043 5.26016L5.13043 5.32016C5.13043 5.26016 5.05043 5.19016 5.06043 5.16016C5.08043 5.13016 5.13043 5.21016 5.18043 5.20016C5.22043 5.18016 5.25043 5.12016 5.25043 5.07016L5.19043 4.98016H5.16043L5.14043 4.91016C5.14043 4.91016 5.08043 4.95016 5.09043 4.98016C5.09043 5.01016 5.15043 5.04016 5.15043 5.04016C5.15043 5.04016 5.12043 5.06016 5.09043 5.05016C5.09043 5.09016 5.13043 5.08016 5.14043 5.08016L5.17043 5.12016C5.17043 5.12016 5.18043 5.16016 5.15043 5.15016C5.12043 5.15016 5.07043 5.05016 5.02043 5.10016C4.95043 5.16016 5.03043 5.24016 5.03043 5.24016C5.03043 5.24016 4.99043 5.27016 4.95043 5.34016C4.84043 5.23016 4.77043 5.28016 4.65043 5.31016Z" fill="#9B8D80"/>
<path fill-rule="evenodd" clip-rule="evenodd" d="M5.10996 5.06844L5.12996 5.04844C5.11996 5.04844 5.07996 5.00844 5.07996 4.97844C5.07996 4.93844 5.12996 4.89844 5.12996 4.89844L5.13996 4.91844L5.12996 4.90844L5.08996 4.97844C5.08996 4.99844 5.12996 5.02844 5.13996 5.03844V5.05844L5.10996 5.06844ZM4.45996 5.43844L4.47996 5.38844C4.51996 5.32844 4.56996 5.25844 4.64996 5.29844L4.70996 5.27844C4.79996 5.25844 4.86996 5.24844 4.95996 5.32844C4.97996 5.25844 5.01996 5.22844 5.02996 5.22844C5.02996 5.22844 4.98996 5.17844 4.98996 5.13844L5.03996 5.08844C5.05996 5.08844 5.07996 5.10844 5.09996 5.12844L5.13996 5.15844C5.15996 5.12844 5.13996 5.11844 5.12996 5.09844L5.16996 5.12844L5.12996 5.16844L5.08996 5.13844C5.06996 5.11844 5.04996 5.09844 5.02996 5.09844L4.98996 5.14844C4.98996 5.18844 5.02996 5.23844 5.02996 5.23844C5.02996 5.24844 4.97996 5.27844 4.95996 5.34844C4.86996 5.26844 4.79996 5.26844 4.70996 5.29844L4.64996 5.30844C4.55996 5.26844 4.51996 5.33844 4.48996 5.39844L4.45996 5.43844ZM4.84996 5.49844L4.89996 5.48844L4.96996 5.49844L5.03996 5.46844C5.03996 5.46844 5.07996 5.46844 5.08996 5.44844C5.14996 5.44844 5.22996 5.31844 5.22996 5.30844L5.26996 5.19844L5.22996 5.15844C5.18996 5.16844 5.18996 5.25844 5.18996 5.25844L5.11996 5.32844C5.11996 5.29844 5.09996 5.26844 5.07996 5.23844C5.05996 5.21844 5.04996 5.18844 5.08996 5.18844L5.16996 5.20844C5.20996 5.19844 5.23996 5.12844 5.23996 5.06844C5.22698 5.03964 5.21016 5.01273 5.18996 4.98844C5.20695 5.01667 5.22039 5.0469 5.22996 5.07844C5.22996 5.12844 5.19996 5.18844 5.14996 5.20844C5.13954 5.2093 5.1291 5.20686 5.12013 5.20148C5.11117 5.1961 5.10411 5.18804 5.09996 5.17844L5.04996 5.16844C5.02996 5.18844 5.04996 5.21844 5.07996 5.24844L5.11996 5.33844C5.14875 5.31765 5.17553 5.29421 5.19996 5.26844C5.19996 5.23844 5.20996 5.17844 5.23996 5.17844V5.22844H5.24996L5.21996 5.28844C5.21996 5.28844 5.14996 5.42844 5.07996 5.42844L5.00996 5.45844L4.95996 5.46844H4.89996C4.81996 5.51844 4.73996 5.39844 4.72996 5.39844C4.72996 5.39844 4.65996 5.44844 4.61996 5.34844L4.55996 5.38844C4.5358 5.42271 4.50043 5.44746 4.45996 5.45844V5.46844C4.49996 5.46844 4.52996 5.43844 4.56996 5.40844L4.61996 5.36844C4.64996 5.46844 4.72996 5.42844 4.72996 5.41844C4.73996 5.42844 4.77996 5.49844 4.84996 5.49844Z" fill="#242222"/>
<path fill-rule="evenodd" clip-rule="evenodd" d="M4.4804 5.11966C4.5304 5.16966 4.5004 5.25966 4.5204 5.26966C4.5404 5.28966 4.5704 5.25966 4.5704 5.25966C4.6104 5.27966 4.7004 5.24966 4.7004 5.24966C4.7404 5.26966 4.7204 5.23966 4.7504 5.23966C4.7704 5.29966 4.8404 5.28966 4.8404 5.28966C4.8404 5.28966 4.7804 5.21966 4.7404 5.19966C4.7004 5.21966 4.6104 5.21966 4.6004 5.21966C4.5804 5.21966 4.5904 5.18966 4.5804 5.17966C4.6104 5.13966 4.5904 5.04966 4.5704 5.01966C4.5004 4.95966 4.4104 5.04966 4.4804 5.11966Z" fill="#9B8D80"/>
<path fill-rule="evenodd" clip-rule="evenodd" d="M4.75021 5.23019C4.77021 5.28019 4.80021 5.28019 4.83021 5.28019V5.29019L4.84021 5.28019L4.73021 5.19019C4.71021 5.22019 4.65021 5.22019 4.61021 5.22019L4.58021 5.17019C4.61021 5.14019 4.58021 5.05019 4.57021 5.02019C4.54021 5.00019 4.48021 5.01019 4.47021 5.05019C4.46021 5.07019 4.47021 5.10019 4.49021 5.12019C4.51021 5.15019 4.51021 5.20019 4.51021 5.23019L4.53021 5.28019L4.55021 5.26019C4.64021 5.26019 4.69021 5.24019 4.69021 5.24019L4.75021 5.23019ZM4.83021 5.30019C4.80021 5.30019 4.76021 5.29019 4.75021 5.25019L4.59021 5.28019L4.53021 5.29019L4.50021 5.23019C4.50021 5.20019 4.50021 5.16019 4.47021 5.13019C4.45021 5.10019 4.44021 5.07019 4.45021 5.05019C4.47021 5.00019 4.53021 4.98019 4.57021 5.01019C4.60021 5.05019 4.62021 5.14019 4.59021 5.18019C4.65021 5.22019 4.71021 5.21019 4.73021 5.19019C4.77021 5.21019 4.84021 5.28019 4.84021 5.29019L4.83021 5.30019Z" fill="#242222"/>
<path fill-rule="evenodd" clip-rule="evenodd" d="M4.1602 4.96972C4.1002 4.98972 3.99021 4.88972 3.94021 4.91972C3.89021 4.95972 3.91021 5.05972 3.94021 5.10972C3.97021 5.15972 3.9002 5.17972 3.8702 5.20972C3.8602 5.23972 3.89021 5.26972 3.89021 5.26972L3.91021 5.27972V5.31972L3.92021 5.35972H3.94021C3.95021 5.36972 3.94021 5.39972 3.97021 5.40972C3.95021 5.38972 3.97021 5.32972 3.97021 5.32972C3.97021 5.32972 4.01021 5.32972 4.03021 5.30972C4.04021 5.28972 4.0202 5.23972 4.0202 5.23972H4.0402C4.0102 5.23972 4.01021 5.19972 4.01021 5.19972C4.01021 5.19972 4.07021 5.17972 4.07021 5.12972C4.07021 5.07972 3.97021 5.01972 4.01021 4.99972C4.05021 4.96972 4.1202 5.07972 4.1802 5.02972C4.2402 4.97972 4.2002 5.02972 4.2002 5.02972C4.1902 5.01972 4.2202 4.94972 4.1602 4.96972Z" fill="#9B8D80"/>
<path fill-rule="evenodd" clip-rule="evenodd" d="M3.89965 5.28069H3.88965C3.87965 5.26069 3.85965 5.23069 3.87965 5.21069C3.93965 5.17069 3.94965 5.16069 3.94965 5.14069L3.90965 5.02069C3.90965 4.98069 3.91965 4.94069 3.93965 4.92069C3.99965 4.91069 4.02965 4.93069 4.04965 4.94069L4.13965 4.97069H4.18965L4.17965 5.00069L4.13965 4.98069L4.04965 4.95069L3.96965 4.92069C3.91965 4.95069 3.91965 4.99069 3.91965 5.01069C3.91965 5.05069 3.93965 5.08069 3.94965 5.11069C3.94965 5.16069 3.92965 5.18069 3.90965 5.19069C3.86965 5.24069 3.89965 5.27069 3.89965 5.27069V5.28069ZM3.96965 5.42069V5.41069C3.95965 5.40069 3.96965 5.35069 3.97965 5.34069C3.99965 5.34069 4.02965 5.34069 4.02965 5.32069C4.03965 5.30069 4.01965 5.25069 4.00965 5.21069C4.00965 5.21069 4.06965 5.19069 4.06965 5.13069C4.06965 5.10069 4.04965 5.08069 4.02965 5.06069C4.00965 5.04069 3.99965 5.02069 4.01965 5.00069L3.98965 5.01069C3.98965 5.03069 3.99965 5.05069 4.01965 5.06069L4.05965 5.13069C4.05965 5.18069 3.99965 5.20069 3.99965 5.20069V5.25069C4.00965 5.26069 4.02965 5.30069 4.01965 5.31069L3.95965 5.33069L3.94965 5.40069L3.90965 5.32069L3.94965 5.41069L3.96965 5.42069Z" fill="#242222"/>
<path fill-rule="evenodd" clip-rule="evenodd" d="M4.4702 4.24844C4.3902 4.20844 4.2202 4.20844 4.1302 4.14844C4.0902 4.14844 4.0702 4.18844 4.0702 4.19844C4.0302 4.19844 4.0002 4.27844 4.0102 4.29844C3.9302 4.25844 3.9002 4.38844 3.9202 4.41844C3.8502 4.41844 3.8602 4.51844 3.8602 4.53844C3.8402 4.59844 3.8602 4.61844 3.9102 4.59844C3.9102 4.61844 3.9102 4.63844 3.8902 4.63844C4.0002 4.78844 4.0702 4.54844 4.1702 4.54844C4.23647 4.52932 4.29561 4.49105 4.3402 4.43844L4.3902 4.44844L4.4702 4.24844Z" fill="#9B8D80"/>
<path fill-rule="evenodd" clip-rule="evenodd" d="M3.85961 4.59844H3.90961L3.87961 4.64844C3.94961 4.70844 3.99961 4.67844 4.04961 4.61844C4.07961 4.57844 4.11961 4.54844 4.15961 4.54844C4.22588 4.52932 4.28502 4.49105 4.32961 4.43844L4.37961 4.44844L4.46961 4.23844C4.42002 4.2265 4.36998 4.21649 4.31961 4.20844C4.25371 4.20376 4.18927 4.1868 4.12961 4.15844C4.09961 4.15844 4.07961 4.19844 4.07961 4.20844C4.04961 4.20844 4.02961 4.23844 4.02961 4.24844V4.25844L4.00961 4.29844C3.96961 4.29844 3.93961 4.30844 3.92961 4.34844C3.91961 4.37844 3.91961 4.40844 3.92961 4.41844C3.87961 4.42844 3.86961 4.48844 3.86961 4.51844L3.85961 4.59844ZM3.94961 4.69844C3.92961 4.69844 3.90961 4.67844 3.86961 4.64844L3.84961 4.59844V4.53844C3.84961 4.47844 3.85961 4.41844 3.91961 4.40844V4.32844C3.93961 4.28844 3.95961 4.26844 3.98961 4.26844L4.01961 4.22844C4.02961 4.22844 4.03961 4.19844 4.06961 4.19844C4.06961 4.18844 4.08961 4.14844 4.12961 4.14844C4.17961 4.17844 4.25961 4.18844 4.31961 4.19844L4.46961 4.23844L4.37961 4.45844H4.32961C4.32961 4.45844 4.27961 4.52844 4.15961 4.56844C4.12961 4.56844 4.08961 4.60844 4.05961 4.63844C4.02961 4.65844 3.98961 4.69844 3.94961 4.69844Z" fill="#242222"/>
<path fill-rule="evenodd" clip-rule="evenodd" d="M4.6902 4.14C4.6902 4.21 4.6402 4.27 4.5702 4.27C4.5002 4.27 4.4502 4.21 4.4502 4.14C4.4502 4.07 4.5002 4 4.5702 4C4.6402 4.01 4.6902 4.07 4.6902 4.14Z" fill="#9B8D80"/>
<path fill-rule="evenodd" clip-rule="evenodd" d="M4.5702 4.01172C4.5102 4.01172 4.4602 4.07172 4.4602 4.14172C4.4602 4.28172 4.6902 4.28172 4.6902 4.14172C4.6802 4.07172 4.6402 4.01172 4.5702 4.01172ZM4.5702 4.28172C4.5002 4.28172 4.4502 4.22172 4.4502 4.14172C4.4502 3.99172 4.7002 3.99172 4.7002 4.14172C4.7002 4.22172 4.6402 4.28172 4.5702 4.28172Z" fill="#242222"/>
<path fill-rule="evenodd" clip-rule="evenodd" d="M4.37016 5.20109C4.29016 5.18109 4.17016 5.10109 4.16016 4.99109C4.22016 4.69109 4.58016 4.84109 4.61016 4.62109C4.59808 4.46888 4.62928 4.31635 4.70016 4.18109C4.70887 4.16631 4.72043 4.15339 4.73416 4.14309C4.74789 4.1328 4.76352 4.12532 4.78016 4.12109V4.18109C4.83016 4.16109 4.91016 4.20109 4.97016 4.21109C4.99016 4.25109 4.99016 4.26109 4.98016 4.28109C4.98016 4.30109 4.95016 4.30109 4.95016 4.30109C4.94016 4.31109 4.92016 4.33109 4.89016 4.32109C4.86016 4.34109 4.79016 4.35109 4.79016 4.35109C4.79016 4.35109 4.92016 4.50109 4.90016 4.55109C4.93016 4.56109 4.96016 4.63109 4.96016 4.63109C4.96016 4.63109 5.05016 4.58109 5.07016 4.53109C5.12016 4.53109 5.21016 4.59109 5.25016 4.60109L5.35016 4.69109C5.35016 4.69109 5.30016 4.74109 5.27016 4.68109C5.24016 4.68109 5.17016 4.60109 5.08016 4.62109C5.08016 4.72109 4.98016 4.78109 4.98016 4.78109C4.98016 4.78109 5.07016 4.77109 5.12016 4.80109L5.24016 4.91109L5.30016 5.03109C5.30016 5.03109 5.24016 5.04109 5.22016 4.96109C5.20016 5.03109 5.20016 4.92109 5.11016 4.87109C5.08016 4.87109 5.07016 4.88109 5.05016 4.85109C4.99016 4.87109 4.91016 4.91109 4.82016 4.90109C4.76016 4.92109 4.71016 4.98109 4.65016 5.01109C4.59016 5.05109 4.56016 5.03109 4.56016 5.03109H4.51016C4.50016 5.07109 4.51016 5.12109 4.48016 5.13109C4.50016 5.15109 4.47016 5.24109 4.44016 5.26109C4.45016 5.32109 4.50016 5.34109 4.54016 5.37109C4.54016 5.37109 4.58016 5.35109 4.61016 5.38109C4.64016 5.41109 4.66016 5.48109 4.66016 5.48109H4.59016C4.57016 5.47109 4.57016 5.45109 4.55016 5.45109C4.42016 5.32109 4.36016 5.37109 4.34016 5.35109C4.33016 5.32109 4.38016 5.24109 4.37016 5.20109Z" fill="#9B8D80"/>
<path fill-rule="evenodd" clip-rule="evenodd" d="M5.02039 4.75938C5.03039 4.72938 5.07039 4.67937 5.07039 4.61937C5.16039 4.60938 5.20039 4.62938 5.23039 4.64938L5.27039 4.67937V4.66938L5.31039 4.69937L5.26039 4.59938L5.19039 4.56938C5.1611 4.54758 5.12663 4.53379 5.09039 4.52938C5.07039 4.56938 4.98039 4.62938 4.98039 4.62938L4.91039 4.54938C4.92039 4.50938 4.84039 4.38938 4.80039 4.34938C4.80039 4.33938 4.87039 4.32938 4.89039 4.30938C4.94039 4.30938 4.95039 4.29938 4.96039 4.28938C4.99039 4.25938 4.99039 4.23938 4.97039 4.19938L4.90039 4.18938L4.80039 4.16938C4.84039 4.15938 4.87039 4.16938 4.90039 4.17938L4.97039 4.19938L4.99039 4.27938C4.94039 4.30938 4.93039 4.32938 4.90039 4.32938L4.80039 4.35938C4.81039 4.35938 4.93039 4.49938 4.90039 4.54938C4.93039 4.55938 4.96039 4.61938 4.96039 4.62938C4.96039 4.61938 5.05039 4.56938 5.07039 4.52938C5.10933 4.53536 5.14671 4.54895 5.18039 4.56938L5.25039 4.59938L5.35039 4.68938C5.35039 4.70938 5.28039 4.72937 5.26039 4.67937L5.22039 4.65937C5.19039 4.63937 5.16039 4.61937 5.12039 4.61937C5.09447 4.67091 5.06074 4.71814 5.02039 4.75938ZM5.29039 5.02938L5.23039 4.99938C5.24634 5.01599 5.26753 5.02658 5.29039 5.02938L5.24039 4.90937L5.12039 4.79938C5.09134 4.78898 5.06111 4.78226 5.03039 4.77938H5.02039C5.06039 4.76938 5.10039 4.77938 5.12039 4.78938L5.24039 4.89938L5.31039 5.01938L5.29039 5.02938ZM4.58039 5.03938L4.65039 5.01938L4.73039 4.95938C4.76039 4.93938 4.79039 4.90938 4.85039 4.89938L5.00039 4.86937L5.05039 4.84938L5.11039 4.86937L5.18039 4.93938C5.17502 4.92186 5.166 4.90568 5.15394 4.89189C5.14188 4.87811 5.12704 4.86702 5.11039 4.85938L5.05039 4.84938L5.00039 4.85938C4.94473 4.88769 4.8828 4.90145 4.82039 4.89938C4.78039 4.90938 4.75039 4.93938 4.72039 4.95938C4.69478 4.97259 4.6712 4.98943 4.65039 5.00938C4.61039 5.02938 4.60039 5.02938 4.56039 5.01938L4.54039 5.03938H4.58039ZM4.35039 5.33938V5.28938C4.36039 5.24938 4.37039 5.21937 4.36039 5.19937C4.28039 5.18937 4.16039 5.09937 4.15039 4.98937C4.19039 4.81937 4.31039 4.78938 4.42039 4.75938C4.51039 4.73938 4.59039 4.71938 4.61039 4.60938C4.59617 4.46024 4.62755 4.31029 4.70039 4.17938C4.74039 4.12938 4.78039 4.11937 4.78039 4.10938L4.79039 4.14938L4.78039 4.11937V4.12938C4.78039 4.12938 4.74039 4.13938 4.71039 4.18938C4.63769 4.31697 4.60299 4.4627 4.61039 4.60938C4.59039 4.71938 4.51039 4.73938 4.41039 4.76938C4.31039 4.78938 4.20039 4.81938 4.16039 4.97938C4.17039 5.08938 4.29039 5.16938 4.37039 5.18938C4.38039 5.21938 4.37039 5.25938 4.36039 5.28938L4.35039 5.33938ZM4.60039 5.37938L4.57039 5.35938H4.52039C4.49039 5.32938 4.45039 5.30938 4.44039 5.26938C4.46039 5.25938 4.48039 5.22938 4.48039 5.16938C4.48039 5.20938 4.45039 5.24938 4.43039 5.25938C4.44039 5.30938 4.48039 5.32938 4.53039 5.36937L4.60039 5.37938ZM4.63039 5.47938H4.59039C4.46039 5.36938 4.40039 5.36937 4.38039 5.36937L4.36039 5.34938C4.41039 5.35938 4.47039 5.36937 4.55039 5.44937L4.63039 5.47938Z" fill="#242222"/>
<path fill-rule="evenodd" clip-rule="evenodd" d="M4.0602 4.63952C4.0702 4.62952 4.1102 4.64952 4.1102 4.64952L4.2002 4.70952L4.3702 4.82952L4.4302 4.92952L4.3202 4.88952L4.1702 4.73952L4.0902 4.67952C4.0902 4.67952 4.0502 4.64952 4.0602 4.63952Z" fill="#9B8D80"/>
<path fill-rule="evenodd" clip-rule="evenodd" d="M4.06963 4.62891L4.31963 4.87891L4.41963 4.90891L4.36963 4.82891L4.06963 4.62891ZM4.43963 4.93891L4.31963 4.88891L4.08963 4.68891C4.07963 4.66891 4.04963 4.63891 4.05963 4.62891L4.11963 4.63891L4.37963 4.81891L4.43963 4.93891Z" fill="#242222"/>
<path fill-rule="evenodd" clip-rule="evenodd" d="M5.07012 4.95062C5.01012 4.93062 4.87012 5.13062 4.87012 5.13062L4.98012 5.26063C4.97012 5.26063 4.98012 5.04062 5.07012 4.95062Z" fill="#9B8D80"/>
<path fill-rule="evenodd" clip-rule="evenodd" d="M4.98035 5.28141L4.86035 5.13141C4.86035 5.11141 5.00035 4.94141 5.06035 4.94141V4.95141C4.99035 4.97141 4.87035 5.13141 4.87035 5.13141L4.97035 5.25141C4.97035 5.21141 4.98035 5.07141 5.04035 4.98141C4.99035 5.08141 4.98035 5.26141 4.98035 5.26141V5.28141Z" fill="#242222"/>
<path fill-rule="evenodd" clip-rule="evenodd" d="M4.35984 4.39984C4.32984 4.44984 4.31984 4.53984 4.35984 4.57984C4.35984 4.63984 4.39984 4.74984 4.43984 4.75984C4.47984 4.76984 4.61984 4.80984 4.67984 4.79984C4.66984 4.89984 4.73984 4.97984 4.80984 5.03984L4.81984 5.06984L4.85984 5.07984C4.87984 5.09984 4.94984 5.10984 4.95984 5.09984C4.96984 5.08984 4.84984 4.99984 4.81984 4.96984C4.78196 4.89838 4.7582 4.82029 4.74984 4.73984C4.68984 4.65984 4.58984 4.65984 4.58984 4.65984V4.33984L4.53984 4.30984L4.55984 4.29984C4.56984 4.30984 4.59984 4.27984 4.59984 4.26984H4.61984L4.62984 4.21984C4.66984 4.17984 4.61984 4.09984 4.55984 4.08984C4.49984 4.08984 4.48984 4.16984 4.48984 4.17984V4.21984L4.45984 4.23984C4.45984 4.23984 4.41984 4.21984 4.37984 4.23984C4.35984 4.25984 4.30984 4.28984 4.29984 4.31984C4.27984 4.31984 4.24984 4.34984 4.24984 4.36984C4.22984 4.36984 4.20984 4.37984 4.17984 4.44984C4.10984 4.47984 4.10984 4.62984 4.10984 4.62984L4.08984 4.66984L4.09984 4.69984L4.11984 4.71984L4.13984 4.72984H4.15984V4.68984L4.18984 4.69984V4.67984L4.15984 4.63984L4.16984 4.57984C4.16984 4.57984 4.23984 4.51984 4.23984 4.46984C4.30984 4.46984 4.33984 4.41984 4.35984 4.39984Z" fill="#9B8D80"/>
<path fill-rule="evenodd" clip-rule="evenodd" d="M4.65035 4.79984C4.57932 4.79933 4.50868 4.78924 4.44035 4.76984C4.40035 4.74984 4.36035 4.62984 4.36035 4.57984C4.33035 4.54984 4.32035 4.47984 4.34035 4.42984C4.32035 4.44984 4.30035 4.46984 4.27035 4.46984C4.26035 4.51984 4.19035 4.57984 4.18035 4.57984L4.17035 4.62984L4.20035 4.69984L4.15035 4.73984L4.11035 4.69984L4.15035 4.72984L4.18035 4.68984C4.17035 4.61984 4.18035 4.58984 4.19035 4.58984C4.19035 4.58984 4.26035 4.52984 4.27035 4.47984C4.32035 4.47984 4.34035 4.43984 4.36035 4.41984L4.37035 4.39984L4.36035 4.42984C4.33035 4.46984 4.33035 4.53984 4.37035 4.56984C4.37035 4.62984 4.42035 4.73984 4.45035 4.74984L4.65035 4.79984ZM4.94035 5.10984L4.96035 5.09984L4.88035 5.01984L4.83035 4.96984C4.78898 4.89911 4.76181 4.82098 4.75035 4.73984C4.69035 4.65984 4.60035 4.65984 4.60035 4.65984V4.33984L4.56035 4.30984L4.62035 4.27984L4.64035 4.21984C4.66035 4.19984 4.66035 4.17984 4.65035 4.14984C4.64444 4.13305 4.63369 4.11839 4.61945 4.10771C4.60521 4.09703 4.58812 4.09081 4.57035 4.08984L4.51035 4.11984C4.50054 4.13866 4.49379 4.15891 4.49035 4.17984L4.47035 4.23984H4.39035C4.35035 4.25984 4.30035 4.27984 4.30035 4.30984C4.28035 4.30984 4.25035 4.33984 4.24035 4.35984C4.22035 4.35984 4.19035 4.37984 4.16035 4.43984C4.11035 4.47984 4.11035 4.62984 4.11035 4.62984C4.11035 4.62984 4.11035 4.47984 4.18035 4.44984C4.19226 4.41501 4.21741 4.38627 4.25035 4.36984C4.25035 4.34984 4.28035 4.31984 4.30035 4.31984C4.30035 4.28984 4.35035 4.26984 4.39035 4.24984V4.23984L4.46035 4.24984L4.50035 4.17984C4.50035 4.16984 4.50035 4.13984 4.52035 4.11984C4.53035 4.09984 4.55035 4.09984 4.57035 4.09984C4.61035 4.09984 4.64035 4.12984 4.65035 4.15984C4.66035 4.17984 4.65035 4.19984 4.64035 4.21984L4.55035 4.31984V4.32984L4.60035 4.33984V4.66984C4.60035 4.66984 4.70035 4.66984 4.75035 4.73984C4.76035 4.83984 4.82035 4.95984 4.83035 4.97984L4.87035 5.02984L4.95035 5.09984L4.94035 5.10984V5.09984C4.91273 5.09784 4.88566 5.09108 4.86035 5.07984C4.87035 5.09984 4.92035 5.10984 4.94035 5.10984Z" fill="#242222"/>
<path fill-rule="evenodd" clip-rule="evenodd" d="M4.23047 4.17984C4.25047 4.13984 4.31047 4.13984 4.31047 4.13984C4.31047 4.13984 4.33047 4.07984 4.41047 4.11984C4.44047 4.09984 4.51047 4.12984 4.51047 4.12984C4.51047 4.12984 4.54047 4.08984 4.58047 4.08984C4.64047 4.09984 4.66047 4.16984 4.65047 4.17984C4.61047 4.18984 4.54047 4.14984 4.50047 4.15984C4.47047 4.17984 4.42047 4.19984 4.40047 4.22984C4.36047 4.22984 4.31047 4.17984 4.23047 4.17984Z" fill="#9B8D80"/>
<path fill-rule="evenodd" clip-rule="evenodd" d="M4.40023 4.22984L4.34023 4.20984L4.24023 4.18984C4.28023 4.16984 4.31023 4.18984 4.33023 4.19984L4.40023 4.21984C4.41023 4.19984 4.44023 4.18984 4.47023 4.16984L4.52023 4.14984L4.59023 4.16984L4.64023 4.17984C4.63023 4.11984 4.61023 4.09984 4.57023 4.09984C4.55852 4.09942 4.54689 4.10195 4.53641 4.10719C4.52592 4.11243 4.51692 4.12022 4.51023 4.12984L4.43023 4.10984H4.36023C4.32023 4.10984 4.31023 4.13984 4.31023 4.13984C4.29023 4.13984 4.25023 4.14984 4.24023 4.16984C4.25023 4.13984 4.29023 4.13984 4.30023 4.13984C4.30023 4.13984 4.34023 4.08984 4.40023 4.11984C4.46023 4.10984 4.50023 4.12984 4.50023 4.12984C4.50023 4.12984 4.53023 4.08984 4.56023 4.08984C4.61023 4.09984 4.63023 4.11984 4.64023 4.13984L4.65023 4.18984L4.58023 4.17984C4.55907 4.16712 4.53492 4.16022 4.51023 4.15984L4.47023 4.17984C4.44462 4.19306 4.42104 4.2099 4.40023 4.22984Z" fill="#242222"/>
<path fill-rule="evenodd" clip-rule="evenodd" d="M4.37987 4.25022C4.39987 4.24022 4.43987 4.22022 4.46987 4.25022L4.53987 4.32022L4.59987 4.34022L4.61987 4.36022L4.59987 4.63022C4.54987 4.57022 4.50987 4.56022 4.47987 4.50022C4.45987 4.47022 4.47987 4.41022 4.43987 4.36022C4.39987 4.31022 4.36987 4.28022 4.37987 4.25022Z" fill="#9B8D80"/>
<path fill-rule="evenodd" clip-rule="evenodd" d="M4.61033 4.64047L4.54033 4.58047C4.50986 4.56101 4.48558 4.53325 4.47033 4.50047L4.46033 4.44047C4.4596 4.41266 4.45277 4.38535 4.44033 4.36047C4.38033 4.30047 4.37033 4.27047 4.38033 4.25047C4.38033 4.24047 4.40033 4.23047 4.43033 4.23047L4.46033 4.25047C4.41033 4.24047 4.39033 4.25047 4.38033 4.26047L4.42033 4.32047C4.46033 4.38047 4.46033 4.41047 4.47033 4.44047L4.48033 4.49047C4.50033 4.53047 4.52033 4.55047 4.55033 4.57047L4.60033 4.62047L4.61033 4.53047V4.64047Z" fill="#242222"/>
<path fill-rule="evenodd" clip-rule="evenodd" d="M4.5 4.32951H4.53L4.55 4.34951L4.57 4.36951L4.58 4.38951V4.39951L4.57 4.37951L4.55 4.35951C4.5447 4.35951 4.53961 4.35741 4.53586 4.35366C4.53211 4.34991 4.53 4.34482 4.53 4.33951C4.51 4.34951 4.5 4.32951 4.5 4.32951ZM4.74 4.14951C4.72 4.12951 4.7 4.14951 4.7 4.14951L4.62 4.28951L4.59 4.31951V4.42951L4.61 4.52951L4.6 4.61951C4.6 4.61951 4.64 4.57951 4.64 4.55951L4.63 4.46951C4.63 4.46951 4.61 4.42951 4.63 4.34951C4.66 4.26951 4.72 4.19951 4.74 4.14951Z" fill="#9B8D80"/>
<path fill-rule="evenodd" clip-rule="evenodd" d="M4.73008 4.14844L4.63008 4.28844L4.59008 4.43844L4.61008 4.53844V4.60844C4.62008 4.59844 4.64008 4.57844 4.64008 4.55844L4.63008 4.46844C4.63008 4.46844 4.61008 4.42844 4.63008 4.33844L4.69008 4.22844L4.73008 4.14844ZM4.60008 4.62844L4.61008 4.53844L4.58008 4.43844V4.31844L4.62008 4.28844L4.69008 4.14844H4.73008C4.73008 4.17844 4.71008 4.20844 4.69008 4.22844C4.67773 4.2701 4.66097 4.31033 4.64008 4.34844C4.63118 4.36719 4.62657 4.38768 4.62657 4.40844C4.62657 4.42919 4.63118 4.44969 4.64008 4.46844C4.64008 4.46844 4.66008 4.53844 4.65008 4.55844C4.63585 4.58342 4.6191 4.60688 4.60008 4.62844Z" fill="#242222"/>
<path fill-rule="evenodd" clip-rule="evenodd" d="M4.90987 4.28125C4.90987 4.28125 4.79987 4.47125 4.60987 4.53125C4.55987 4.55125 4.57987 4.39125 4.57987 4.39125H4.56987C4.56987 4.39125 4.53987 4.54125 4.60987 4.54125C4.79987 4.51125 4.93987 4.28125 4.93987 4.28125H4.90987Z" fill="#9B8D80"/>
<path fill-rule="evenodd" clip-rule="evenodd" d="M4.62024 4.54125L4.60024 4.52125C4.80024 4.46125 4.91024 4.28125 4.91024 4.28125V4.31125C4.83494 4.41156 4.73506 4.49077 4.62024 4.54125ZM4.61024 4.55125C4.73026 4.51525 4.83324 4.43713 4.90024 4.33125C4.84024 4.40125 4.74024 4.52125 4.61024 4.54125V4.55125L4.58024 4.53125C4.56024 4.50125 4.57024 4.45125 4.57024 4.42125L4.56024 4.40125C4.56024 4.40125 4.54024 4.50125 4.57024 4.54125L4.61024 4.55125Z" fill="#242222"/>
<path fill-rule="evenodd" clip-rule="evenodd" d="M5.00035 5.34913H4.96035C4.94035 5.31913 4.91035 5.30913 4.91035 5.30913C4.91035 5.30913 4.89035 5.23913 4.86035 5.25913C4.86035 5.21913 4.82035 5.23913 4.82035 5.23913C4.82035 5.23913 4.82035 5.18913 4.78035 5.19913C4.79035 5.13913 4.72035 5.14913 4.72035 5.14913C4.72035 5.14913 4.72035 5.08913 4.61035 5.09913C4.84035 4.98913 5.02035 5.27913 5.02035 5.27913L5.00035 5.34913Z" fill="#9B8D80"/>
<path fill-rule="evenodd" clip-rule="evenodd" d="M4.95035 5.35031C4.94035 5.32031 4.91035 5.32031 4.91035 5.32031L4.88035 5.27031H4.87035L4.81035 5.25031H4.80035L4.77035 5.20031C4.75035 5.15031 4.72035 5.16031 4.72035 5.16031C4.68035 5.11031 4.66035 5.10031 4.61035 5.10031C4.84035 4.98031 5.02035 5.27031 5.02035 5.27031C5.02035 5.28031 4.89035 5.07031 4.72035 5.07031C4.68509 5.07214 4.65079 5.08243 4.62035 5.10031C4.66035 5.09031 4.68035 5.10031 4.71035 5.11031C4.72035 5.14031 4.76035 5.14031 4.78035 5.16031L4.85035 5.24031C4.90035 5.27031 4.91035 5.31031 4.91035 5.31031C4.91035 5.31031 4.95035 5.31031 4.95035 5.35031Z" fill="#242222"/>
<path fill-rule="evenodd" clip-rule="evenodd" d="M5.11008 5.37109C5.11008 5.37109 5.16008 5.43109 5.19008 5.43109C5.22008 5.43109 5.22008 5.37109 5.22008 5.37109C5.22008 5.37109 5.22008 5.40109 5.24008 5.39109C5.24008 5.41109 5.26008 5.42109 5.26008 5.42109C5.26008 5.42109 5.21008 5.54109 5.08008 5.43109L5.11008 5.37109Z" fill="#9B8D80"/>
<path fill-rule="evenodd" clip-rule="evenodd" d="M5.16957 5.48109C5.13957 5.48109 5.09957 5.46109 5.05957 5.43109C5.10957 5.46109 5.15957 5.48109 5.18957 5.47109C5.22957 5.46109 5.24957 5.42109 5.24957 5.42109L5.21957 5.38109C5.21957 5.40109 5.21957 5.45109 5.18957 5.45109C5.15957 5.45109 5.11957 5.39109 5.10957 5.38109L5.11957 5.37109L5.18957 5.43109C5.20957 5.43109 5.21957 5.39109 5.21957 5.37109H5.23957L5.27957 5.41109C5.27957 5.41109 5.25957 5.46109 5.21957 5.47109L5.16957 5.48109Z" fill="#242222"/>
<path fill-rule="evenodd" clip-rule="evenodd" d="M4.70016 5.39891L4.68016 5.47891L4.66016 5.50891C4.67016 5.51891 4.71016 5.49891 4.71016 5.49891C4.71016 5.49891 4.77016 5.48891 4.78016 5.46891C4.79016 5.49891 4.82016 5.49891 4.82016 5.49891V5.47891H4.85016C4.85016 5.47891 4.86016 5.45891 4.84016 5.44891C4.84016 5.42891 4.85016 5.41891 4.82016 5.41891C4.79016 5.44891 4.74016 5.46891 4.73016 5.45891C4.72016 5.44891 4.78016 5.41891 4.76016 5.37891L4.70016 5.39891Z" fill="#9B8D80"/>
<path fill-rule="evenodd" clip-rule="evenodd" d="M4.65981 5.51844L4.69981 5.39844H4.70981L4.67981 5.47844C4.71981 5.48844 4.76982 5.47844 4.77982 5.46844L4.80981 5.49844L4.82981 5.44844L4.84981 5.48844L4.81982 5.50844H4.80981C4.78981 5.49844 4.77982 5.49844 4.77982 5.47844C4.76982 5.49844 4.70981 5.50844 4.70981 5.50844L4.65981 5.51844ZM5.64982 5.23844L5.62982 5.30844V5.27844L5.60982 5.25844L5.53981 5.17844L5.49981 5.16844H5.46981L5.45981 5.18844V5.19844L5.47982 5.09844V5.12844L5.49981 5.13844L5.53981 5.14844L5.63981 5.10844L5.65981 5.09844L5.66982 5.08844V5.07844H5.67981L5.65981 5.17844V5.14844H5.63981L5.55981 5.17844L5.60982 5.23844L5.62982 5.25844H5.63981V5.24844L5.64982 5.23844ZM5.58982 4.77844L5.60982 4.83844L5.63981 4.84844L5.65981 4.83844L5.66982 4.80844V4.77844H5.58982ZM5.49981 4.94844V4.88844L5.58982 4.80844V4.79844H5.50982V4.82844V4.73844H5.51981V4.76844H5.53981L5.65981 4.75844L5.68982 4.74844V4.71844V4.84844L5.66982 4.87844L5.64982 4.88844L5.61981 4.87844L5.58982 4.83844L5.53981 4.88844L5.50982 4.91844L5.49981 4.94844ZM5.65981 4.54844L5.61981 4.57844V4.56844L5.63981 4.55844L5.64982 4.53844V4.51844L5.61981 4.48844L5.47982 4.54844L5.45981 4.55844V4.57844L5.42981 4.49844V4.50844L5.43981 4.52844H5.45981L5.59981 4.46844L5.60982 4.43844L5.59981 4.41844L5.57981 4.40844H5.55981V4.39844L5.59981 4.37844L5.65981 4.54844ZM5.40981 4.03844L5.43981 4.08844L5.39981 4.29844L5.48981 4.21844L5.49981 4.19844V4.16844L5.53981 4.22844V4.21844L5.51981 4.20844L5.49981 4.21844L5.35982 4.33844L5.39981 4.11844L5.30981 4.19844L5.28981 4.20844V4.24844L5.25982 4.17844L5.26981 4.18844L5.27982 4.19844L5.29982 4.18844L5.40981 4.09844V4.03844ZM5.16981 3.98844L5.18981 3.89844L5.11981 3.94844L5.16981 3.98844ZM5.16981 4.00844L5.10982 3.95844L5.07981 3.97844L5.06982 3.98844V3.99844L5.07981 4.01844L5.02982 3.97844V3.96844L5.04982 3.97844L5.07981 3.95844L5.22981 3.85844L5.18981 4.05844V4.08844L5.19981 4.10844V4.11844L5.12981 4.05844L5.14981 4.06844L5.15981 4.05844V4.03844L5.16981 4.00844ZM4.95981 3.87844L4.92981 3.92844L4.78981 3.87844V3.86844H4.81982L4.82981 3.84844L4.86981 3.71844V3.68844L4.85982 3.67844H4.84981V3.66844L4.93981 3.69844V3.70844H4.89981L4.88981 3.72844L4.85982 3.85844V3.88844L4.87981 3.89844H4.88981L4.91981 3.90844L4.93981 3.89844L4.95981 3.87844ZM4.69981 3.79844L4.67981 3.85844H4.53981V3.84844H4.54982L4.56982 3.83844V3.65844L4.55981 3.64844H4.54982H4.63981V3.65844H4.61981L4.60982 3.66844V3.84844H4.67981L4.69981 3.83844V3.79844ZM4.35982 3.79844L4.29982 3.72844L4.28981 3.82844L4.35982 3.79844ZM4.35982 3.80844L4.27982 3.83844V3.89844L4.28981 3.90844H4.30981V3.91844H4.24981L4.26981 3.90844L4.27982 3.86844L4.29982 3.67844L4.40981 3.83844L4.42981 3.85844H4.44981L4.37982 3.88844V3.87844L4.39982 3.86844V3.85844L4.38981 3.83844L4.35982 3.80844ZM4.03981 3.78844L4.07981 3.84844L4.03981 3.82844C4.02981 3.81844 4.00981 3.82844 3.98981 3.83844C3.96981 3.84844 3.95981 3.86844 3.95981 3.89844L3.97981 3.96844L4.01981 4.00844L4.05981 4.01844L4.09981 4.00844L4.11981 3.99844L4.12982 3.97844L4.08982 3.91844L4.07981 3.89844H4.06982L4.04982 3.90844L4.10982 3.85844V3.86844L4.09981 3.88844L4.10982 3.90844L4.13981 3.96844L4.11981 3.99844L4.08982 4.02844C4.05982 4.04844 4.01981 4.05844 3.98981 4.04844L3.95981 3.98844C3.94757 3.97458 3.9405 3.95691 3.93981 3.93844L3.94981 3.86844C3.95783 3.85068 3.97206 3.83645 3.98981 3.82844L3.99981 3.81844L4.02982 3.80844H4.03981V3.78844ZM3.62982 4.51844C3.62982 4.50844 3.62982 4.50844 3.62982 4.51844V4.45844L3.60981 4.42844H3.56981L3.54981 4.45844V4.47844L3.62982 4.51844ZM3.76981 4.41844L3.74981 4.46844L3.63982 4.49844V4.50844L3.68981 4.52844L3.70981 4.54844L3.71981 4.52844V4.51844L3.69981 4.61844H3.68981V4.58844L3.66981 4.57844L3.55981 4.51844H3.53981L3.52981 4.53844V4.54844L3.54981 4.47844L3.56981 4.42844C3.56981 4.40844 3.57981 4.39844 3.58981 4.39844H3.61981L3.64981 4.41844V4.46844L3.71981 4.44844C3.73981 4.44844 3.74981 4.43844 3.74981 4.42844L3.76981 4.41844ZM3.48981 4.81844C3.48981 4.83844 3.48981 4.85844 3.50981 4.86844L3.56981 4.89844C3.60981 4.89844 3.62981 4.89844 3.64981 4.87844C3.66206 4.86458 3.66913 4.84691 3.66981 4.82844C3.66981 4.80844 3.66981 4.78844 3.64981 4.77844C3.63981 4.75844 3.61981 4.74844 3.57981 4.74844C3.54981 4.74844 3.51981 4.74844 3.50981 4.76844C3.48981 4.77844 3.48981 4.78844 3.48981 4.81844ZM3.46981 4.80844C3.47019 4.78206 3.48097 4.7569 3.49981 4.73844C3.51828 4.7196 3.54344 4.70881 3.56981 4.70844C3.59981 4.70844 3.61982 4.72844 3.63982 4.74844C3.65223 4.75775 3.66231 4.76983 3.66926 4.78372C3.6762 4.7976 3.67981 4.81291 3.67981 4.82844C3.67981 4.85844 3.66981 4.88844 3.64981 4.90844C3.62493 4.92088 3.59762 4.92771 3.56981 4.92844C3.53981 4.92844 3.51981 4.90844 3.49981 4.88844C3.48973 4.87778 3.48188 4.86521 3.47673 4.85147C3.47158 4.83773 3.46923 4.8231 3.46981 4.80844ZM3.51981 5.19844L3.59981 5.16844L3.58981 5.13844L3.57981 5.11844H3.55981L3.62982 5.09844L3.60981 5.10844V5.13844L3.61981 5.17844L3.67981 5.15844L3.69981 5.14844V5.10844H3.70981L3.72981 5.19844H3.71981L3.70981 5.17844H3.68981L3.54981 5.21844L3.52981 5.22844V5.25844H3.51981L3.48981 5.09844L3.52981 5.07844V5.08844L3.51981 5.10844V5.19844Z" fill="#242222"/>
</g>
</g>
<defs>
<clipPath id="clip0_26003_70387">
<rect width="38" height="25" fill="white" transform="translate(0 0.5)"/>
</clipPath>
<clipPath id="clip1_26003_70387">
<rect width="38" height="25" fill="white" transform="translate(0 0.5)"/>
</clipPath>
</defs>
</svg>
