<svg width="38" height="26" viewBox="0 0 38 26" fill="none" xmlns="http://www.w3.org/2000/svg">
<g clip-path="url(#clip0_26003_91993)">
<g clip-path="url(#clip1_26003_91993)">
<path fill-rule="evenodd" clip-rule="evenodd" d="M19 0.5V1.7L14.8 4.1H19V7.7H14.8L19 10V11.3H17L11.1 8V11.3H7.9V7.9L2 11.3H0V22.6C0.2 24.1 1.2 25.3 2.5 25.5H35.6C36.9 25.2 37.9 24.1 38.1 22.6V3.4C37.9 1.9 36.9 0.7 35.6 0.5H19ZM0 7.6V10L4.2 7.6H0ZM11.1 0.5V3.8L16.9 0.5H11.1ZM7.9 0.5H2.5C2.4 0.5 2.3 0.5 2.2 0.6L7.9 3.8V0.5ZM0 4.1H4.2L0.5 2C0.2 2.4 0.1 2.9 0 3.4V4.1Z" fill="#2D3577"/>
<path fill-rule="evenodd" clip-rule="evenodd" d="M19 0.5L12.7 4.1H11.2L17.6 0.5H16.9L11.1 3.8V0.5H10.4V4.8H19V4.1H14.8L19 1.7V0.5ZM7.9 0.5V3.8L2.2 0.6C1.8 0.7 1.5 0.9 1.2 1.2L6.4 4.1H4.9L0.7 1.7C0.6 1.8 0.5 1.9 0.5 2L4.2 4.1H0V4.8H8.6V0.5H7.9ZM12.8 6.9H10.4V11.3H11.1V7.9L17 11.3H19V11.2L12.7 7.6H14.1L19 10.4V10L14.8 7.6H19V6.9H13.5H12.8ZM7.6 6.9H0V7.6H4.2L0 10V11.2L6.3 7.6H7.7L1.3 11.3H2L7.9 7.9V11.3H8.6V6.9H7.6Z" fill="#FEFEFE"/>
<path fill-rule="evenodd" clip-rule="evenodd" d="M6.3 7.6L0 11.2V11.3H1.3L7.7 7.6H6.3ZM0.7 1.7L4.9 4.1H6.3L1.2 1.2C1 1.3 0.8 1.5 0.7 1.7ZM19 0.5H17.6L11.2 4.1H12.7L19 0.5ZM12.7 7.6L19 11.2V10.4L14.1 7.6H12.7Z" fill="#C3283A"/>
<path fill-rule="evenodd" clip-rule="evenodd" d="M8.6 0.5V4.8H0V6.9H8.6V11.3H10.4V6.9H19V4.8H10.4V0.5H8.6Z" fill="#C3283A"/>
<path fill-rule="evenodd" clip-rule="evenodd" d="M26.4004 7.79922H27.4004L27.7004 6.69922L28.0004 7.79922H29.1004L28.2004 8.49922L28.6004 9.59922L27.7004 8.89922L26.9004 9.59922L27.2004 8.49922L26.4004 7.79922Z" fill="#FEFEFE"/>
<path fill-rule="evenodd" clip-rule="evenodd" d="M26.7998 7.99922H27.4998L27.6998 7.19922L27.8998 7.99922H28.5998L28.0998 8.39922L28.2998 9.19922L27.6998 8.69922L27.1998 9.19922L27.3998 8.39922L26.7998 7.99922Z" fill="#C3283A"/>
<path fill-rule="evenodd" clip-rule="evenodd" d="M22.2002 12.5004H23.3002L23.6002 11.4004L23.9002 12.5004H24.9002L24.1002 13.2004L24.4002 14.3004L23.6002 13.6004L22.8002 14.3004L23.1002 13.2004L22.2002 12.5004Z" fill="#FEFEFE"/>
<path fill-rule="evenodd" clip-rule="evenodd" d="M22.7002 12.7004H23.4002L23.6002 11.9004L23.8002 12.7004H24.5002L23.9002 13.1004L24.2002 13.8004L23.6002 13.4004L23.0002 13.8004L23.3002 13.1004L22.7002 12.7004Z" fill="#C3283A"/>
<path fill-rule="evenodd" clip-rule="evenodd" d="M30.0996 11.3008H30.9996L31.2996 10.3008L31.5996 11.3008H32.4996L31.6996 11.9008L31.9996 12.9008L31.2996 12.3008L30.4996 12.9008L30.7996 11.9008L30.0996 11.3008Z" fill="#FEFEFE"/>
<path fill-rule="evenodd" clip-rule="evenodd" d="M30.5 11.5008H31.1L31.3 10.8008L31.5 11.5008H32.1L31.6 11.9008L31.8 12.5008L31.3 12.1008L30.8 12.5008L31 11.9008L30.5 11.5008Z" fill="#C3283A"/>
<path fill-rule="evenodd" clip-rule="evenodd" d="M26.2002 19.7996H27.4002L27.7002 18.5996L28.1002 19.7996H29.2002L28.3002 20.5996L28.7002 21.7996L27.7002 21.0996L26.8002 21.7996L27.2002 20.5996L26.2002 19.7996Z" fill="#FEFEFE"/>
<path fill-rule="evenodd" clip-rule="evenodd" d="M26.7002 19.9992H27.5002L27.7002 19.1992L28.0002 19.9992H28.7002L28.1002 20.4992L28.3002 21.2992L27.7002 20.7992L27.1002 21.2992L27.4002 20.4992L26.7002 19.9992Z" fill="#C3283A"/>
</g>
</g>
<defs>
<clipPath id="clip0_26003_91993">
<rect width="38" height="25" fill="white" transform="translate(0 0.5)"/>
</clipPath>
<clipPath id="clip1_26003_91993">
<rect width="38" height="25" fill="white" transform="translate(0 0.5)"/>
</clipPath>
</defs>
</svg>
