<svg width="38" height="26" viewBox="0 0 38 26" fill="none" xmlns="http://www.w3.org/2000/svg">
<g clip-path="url(#clip0_26003_92409)">
<g clip-path="url(#clip1_26003_92409)">
<path fill-rule="evenodd" clip-rule="evenodd" d="M38 22.5V3.5C37.8 1.8 36.5 0.5 35 0.5H3C1.5 0.5 0.2 1.8 0 3.5V22.5C0.2 24.2 1.5 25.5 3 25.5H35C36.5 25.5 37.8 24.2 38 22.5Z" fill="#5571B5"/>
<path fill-rule="evenodd" clip-rule="evenodd" d="M35.5 0.5L0 19.2V22.5C0.2 24 1.2 25.2 2.5 25.4L38 6.8V3.5C37.8 2 36.8 0.8 35.5 0.5Z" fill="#F2DC1B"/>
<path fill-rule="evenodd" clip-rule="evenodd" d="M36.8 1.09961L0 20.4996V22.4996C0.1 23.3996 0.6 24.2996 1.2 24.7996L38 5.49961V3.49961C37.9 2.49961 37.4 1.69961 36.8 1.09961Z" fill="#C22834"/>
<path fill-rule="evenodd" clip-rule="evenodd" d="M6.7998 2.19922L7.7998 5.49922H10.7998L8.2998 7.49922L9.2998 10.7992L6.7998 8.69922L4.2998 10.7992L5.2998 7.49922L2.7998 5.49922H5.8998L6.7998 2.19922Z" fill="#F2DC1B"/>
</g>
</g>
<defs>
<clipPath id="clip0_26003_92409">
<rect width="38" height="25" fill="white" transform="translate(0 0.5)"/>
</clipPath>
<clipPath id="clip1_26003_92409">
<rect width="38" height="25" fill="white" transform="translate(0 0.5)"/>
</clipPath>
</defs>
</svg>
