<svg width="38" height="26" viewBox="0 0 38 26" fill="none" xmlns="http://www.w3.org/2000/svg">
<g clip-path="url(#clip0_26003_72554)">
<g clip-path="url(#clip1_26003_72554)">
<path d="M37.3 13H19V24.8C19 25.2 18.7 25.5 18.3 25.5H35.1C36.7 25.5 37.9 24.2 37.9 22.6V12.3C38 12.7 37.7 13 37.3 13ZM0.7 13H19V1.2C19 0.8 19.3 0.5 19.7 0.5H2.8C1.3 0.5 0 1.8 0 3.4V13.7C0 13.3 0.3 13 0.7 13Z" fill="#F5F5F5"/>
<path d="M35.2 0.5H19.7C19.3 0.5 19 0.8 19 1.2V13H37.3C37.7 13 38 12.7 38 12.3V3.3C38 1.8 36.7 0.5 35.2 0.5Z" fill="#EF263A"/>
<path d="M19 24.8V13H0.7C0.3 13 0 13.3 0 13.7V22.7C0 24.2 1.3 25.5 2.8 25.5H18.3C18.7 25.5 19 25.2 19 24.8ZM9.8 3.9L10.4 5.8H12.4C12.7 5.8 12.8 6.1 12.6 6.3L10.9 7.5L11.5 9.4C11.6 9.6 11.3 9.8 11.1 9.7L9.5 8.5L7.9 9.7C7.7 9.8 7.4 9.6 7.5 9.4L8.1 7.5L6.5 6.3C6.3 6.2 6.4 5.8 6.6 5.8H8.6L9.2 3.9C9.3 3.7 9.7 3.7 9.8 3.9Z" fill="#296CCE"/>
<path d="M28.8001 16.4L29.4001 18.3H31.4001C31.7001 18.3 31.8001 18.6 31.6001 18.8L30.0001 20L30.6001 21.9C30.7001 22.1 30.4001 22.3 30.2001 22.2L28.6001 21L27.0001 22.2C26.8001 22.3 26.5001 22.1 26.6001 21.9L27.2001 20L25.6001 18.8C25.4001 18.6 25.5001 18.3 25.8001 18.3H27.8001L28.4001 16.4C28.3001 16.2 28.7001 16.2 28.8001 16.4Z" fill="#F22539"/>
</g>
</g>
<defs>
<clipPath id="clip0_26003_72554">
<rect width="38" height="25" fill="white" transform="translate(0 0.5)"/>
</clipPath>
<clipPath id="clip1_26003_72554">
<rect width="38" height="25" fill="white" transform="translate(0 0.5)"/>
</clipPath>
</defs>
</svg>
