<svg width="38" height="26" viewBox="0 0 38 26" fill="none" xmlns="http://www.w3.org/2000/svg">
<g clip-path="url(#clip0_26003_92633)">
<g clip-path="url(#clip1_26003_92633)">
<path d="M0 -1.25H38V27.25H0V-1.25Z" fill="#CD2A3E"/>
<path d="M0 3.02539H38V22.9754H0V3.02539Z" fill="#006233"/>
<path d="M27.9063 7.92969C27.9063 10.2918 26.9679 12.5571 25.2977 14.2274C23.6274 15.8976 21.3621 16.8359 19 16.8359C16.6379 16.8359 14.3726 15.8976 12.7023 14.2274C11.0321 12.5571 10.0938 10.2918 10.0938 7.92969C9.89583 8.68966 9.79606 9.47186 9.79688 10.2572C9.79688 12.698 10.7665 15.0389 12.4924 16.7648C14.2183 18.4907 16.5592 19.4603 19 19.4603C21.4408 19.4603 23.7817 18.4907 25.5076 16.7648C27.2335 15.0389 28.2031 12.698 28.2031 10.2572C28.2043 9.47184 28.1045 8.6896 27.9063 7.92969Z" fill="#FFC400"/>
<path d="M18.9996 4.32031L18.198 6.78437H15.6152L17.7112 8.30437L16.9096 10.7625L19.0055 9.2425L21.1015 10.7625L20.2999 8.30437L22.3959 6.78437H19.8071L18.9996 4.32031Z" fill="#FFC400"/>
</g>
</g>
<defs>
<clipPath id="clip0_26003_92633">
<rect width="38" height="25" fill="white" transform="translate(0 0.5)"/>
</clipPath>
<clipPath id="clip1_26003_92633">
<rect width="38" height="28.5" fill="white" transform="translate(0 -1.25)"/>
</clipPath>
</defs>
</svg>
