<svg width="38" height="26" viewBox="0 0 38 26" fill="none" xmlns="http://www.w3.org/2000/svg">
<g clip-path="url(#clip0_26003_92807)">
<g clip-path="url(#clip1_26003_92807)">
<path fill-rule="evenodd" clip-rule="evenodd" d="M2.5 25.5H35.5C36.8 25.3 37.8 24.1 38 22.6V3.4C37.8 1.9 36.8 0.7 35.5 0.5H2.5C1.2 0.8 0.2 1.9 0 3.4V22.6C0.2 24.1 1.2 25.3 2.5 25.5Z" fill="#242222"/>
<path fill-rule="evenodd" clip-rule="evenodd" d="M0 4.69922H38V8.89922H0V4.69922Z" fill="#F8EB08"/>
<path fill-rule="evenodd" clip-rule="evenodd" d="M0 8.80078H38V13.0008H0V8.80078Z" fill="#CF382C"/>
<path fill-rule="evenodd" clip-rule="evenodd" d="M0 17.1992H38V21.3992H0V17.1992Z" fill="#F8EB08"/>
<path fill-rule="evenodd" clip-rule="evenodd" d="M2.5 25.5008H35.5C36.8 25.3008 37.8 24.1008 38 22.6008V21.3008H0V22.6008C0.2 24.1008 1.2 25.3008 2.5 25.5008Z" fill="#CF382C"/>
<path fill-rule="evenodd" clip-rule="evenodd" d="M22.4996 12.9996C22.4996 15.1996 20.9996 16.8996 18.9996 16.8996C17.0996 16.8996 15.5996 15.1996 15.5996 12.9996C15.5996 10.8996 17.0996 9.09961 18.9996 9.09961C20.8996 9.09961 22.4996 10.8996 22.4996 12.9996Z" fill="#FEFDFE"/>
<path fill-rule="evenodd" clip-rule="evenodd" d="M19 9.09961C17.1 9.09961 15.6 10.7996 15.6 12.9996C15.6 15.0996 17.1 16.8996 19 16.8996C20.9 16.8996 22.4 15.1996 22.4 12.9996C22.5 10.8996 20.9 9.09961 19 9.09961ZM19 16.8996C17.1 16.8996 15.5 15.0996 15.5 12.9996C15.5 10.7996 17.1 9.09961 19 9.09961C20.9 9.09961 22.5 10.8996 22.5 12.9996C22.5 15.1996 20.9 16.8996 19 16.8996Z" fill="#242222"/>
<path fill-rule="evenodd" clip-rule="evenodd" d="M18.4002 10.0008L18.2002 9.50078C18.3002 9.40078 18.4002 9.30078 18.7002 9.30078V9.80078L18.4002 10.0008Z" fill="#CE302C"/>
<path fill-rule="evenodd" clip-rule="evenodd" d="M18.6002 9.40078C18.4002 9.40078 18.3002 9.50078 18.2002 9.60078L18.4002 10.0008L18.6002 9.90078V9.40078ZM18.4002 10.0008L18.2002 9.50078C18.3002 9.40078 18.5002 9.30078 18.7002 9.30078V9.80078L18.4002 10.0008Z" fill="#242222"/>
<path fill-rule="evenodd" clip-rule="evenodd" d="M18.5996 9.90039V9.40039C18.5996 9.40039 19.0996 9.40039 19.2996 9.70039L19.0996 10.1004L18.5996 9.90039Z" fill="#F8EB08"/>
<path fill-rule="evenodd" clip-rule="evenodd" d="M18.6996 9.40078V9.90078L19.1996 10.1008C19.1996 10.0008 19.3996 9.70078 19.3996 9.70078C19.1996 9.40078 18.7996 9.40078 18.6996 9.40078ZM19.0996 10.1008L18.5996 9.90078V9.30078C18.6996 9.30078 19.0996 9.30078 19.2996 9.60078C19.3996 9.70078 19.3996 9.70078 19.0996 10.1008Z" fill="#242222"/>
<path fill-rule="evenodd" clip-rule="evenodd" d="M19.0996 10.0992L19.2996 9.69922C19.4996 9.89922 19.4996 9.99922 19.4996 10.1992L19.0996 10.2992C19.1996 10.2992 19.0996 10.0992 19.0996 10.0992Z" fill="#CE302C"/>
<path fill-rule="evenodd" clip-rule="evenodd" d="M19.1996 10.0992C19.1996 10.0992 19.2996 10.1992 19.2996 10.2992C19.3996 10.2992 19.5996 10.1992 19.5996 10.1992C19.5996 9.99922 19.4996 9.89922 19.3996 9.69922L19.1996 10.0992ZM19.1996 10.2992L19.0996 10.0992L19.2996 9.69922C19.4996 9.89922 19.4996 9.99922 19.5996 10.1992L19.1996 10.2992Z" fill="#242222"/>
<path fill-rule="evenodd" clip-rule="evenodd" d="M18.4999 16.6993C18.4999 16.6993 18.8999 16.1993 19.7999 16.2993C19.6999 16.0993 19.2999 16.0993 19.2999 16.0993C19.2999 16.0993 19.1999 14.9993 19.2999 14.9993C19.3999 14.8993 19.7999 14.9993 19.7999 14.9993C19.8999 14.9993 19.8999 14.7993 19.8999 14.6993C19.7999 14.5993 19.5999 14.1993 19.6999 14.0993C19.7999 13.9993 20.2999 14.0993 20.2999 14.0993L18.8999 12.0993C18.8999 12.0993 18.7999 11.2993 18.9999 10.9993C19.2999 10.6993 19.2999 10.2993 19.2999 10.2993C19.2999 9.99926 18.7999 9.69926 18.4999 9.99926C18.2999 10.2993 18.3999 10.4993 18.3999 10.4993C18.3999 10.4993 17.8999 10.5993 17.8999 10.6993C17.8999 10.7993 18.4999 10.6993 18.4999 10.6993L18.3999 11.0993C18.3999 11.0993 17.2999 12.2993 18.0999 13.2993C18.0999 13.2993 18.3999 13.6993 18.6999 13.7993L18.9999 14.0993C18.9999 14.0993 19.0999 14.5993 18.9999 14.6993C18.8999 14.6993 18.1999 14.5993 17.9999 14.6993C17.8999 14.6993 17.4999 14.6993 17.5999 15.3993C17.6999 15.1993 17.6999 14.9993 17.6999 14.9993C17.6999 14.9993 17.6999 15.2993 17.7999 15.3993C17.7999 15.0993 17.8999 14.8993 17.8999 14.8993C17.8999 14.8993 17.8999 15.1993 17.9999 15.1993C18.0999 15.1993 18.0999 14.6993 18.3999 14.7993H18.9999L19.0999 15.8993C18.8999 15.7993 18.2999 15.8993 18.2999 16.0993H18.7999C18.7999 16.0993 18.3999 16.4993 18.4999 16.6993Z" fill="#242222"/>
<path fill-rule="evenodd" clip-rule="evenodd" d="M18.5 16.7007C18.4 16.5007 18.6 16.3007 18.7 16.2007H18.2C18.2 16.0007 18.8 15.9007 19 16.0007C19 15.9007 19 15.3007 18.9 14.9007H18.4C18.2 14.9007 18.1 15.1007 18.1 15.2007C18.1 15.3007 18.1 15.3007 18 15.3007C17.9 15.3007 17.9 15.1007 17.9 15.0007C17.9 15.1007 17.8 15.2007 17.8 15.4007C17.7 15.3007 17.7 15.1007 17.7 15.0007L17.6 15.4007C17.5 14.7007 17.8 14.7007 17.9 14.6007H18.8V14.0007C18.8 14.1007 18.9 14.6007 18.8 14.7007H17.7C17.6 14.7007 17.3 14.8007 17.4 15.4007L17.5 15.0007C17.5 15.0007 17.5 15.3007 17.6 15.3007C17.6 15.0007 17.7 14.9007 17.7 14.8007C17.7 14.9007 17.8 15.1007 17.8 15.1007V15.0007C17.8 14.9007 17.9 14.6007 18.1 14.6007H18.7L18.8 15.8007H18.6C18.3 15.8007 18 15.9007 18 16.0007H18.5C18.7 16.3007 18.5 16.5007 18.5 16.7007C18.6 16.5007 19 16.1007 19.8 16.2007C19.7 16.1007 19.4 16.0007 19.3 16.0007H19.2C19.2 15.7007 19.1 14.9007 19.2 14.8007C19.3 14.7007 19.7 14.8007 19.7 14.8007L19.8 14.7007V14.5007C19.8 14.4007 19.6 14.1007 19.6 13.9007V13.8007C19.7 13.7007 20.2 13.8007 20.2 13.8007L18.8 11.8007C18.8 11.8007 18.7 11.0007 18.9 10.7007C19.2 10.4007 19.2 10.1007 19.2 10.1007C19.2 9.70069 18.7 9.60069 18.4 9.80069C18.2 10.0007 18.3 10.2007 18.3 10.2007C18.1 10.3007 17.8 10.4007 17.8 10.5007H17.9C18.1 10.5007 18.3 10.4007 18.3 10.4007V10.9007C18.3 10.9007 17.7 11.5007 17.7 12.2007C17.7 12.5007 17.8 12.8007 18 13.1007C17.7 12.8007 17.6 12.5007 17.7 12.2007C17.7 11.5007 18.3 10.9007 18.3 10.9007L18.4 10.5007C18.4 10.5007 18.1 10.6007 18 10.6007H17.9C17.9 10.5007 18.3 10.3007 18.4 10.3007C18.4 10.3007 18.3 10.1007 18.5 9.80069C18.8 9.50069 19.3 9.70069 19.4 10.1007C19.4 10.1007 19.4 10.5007 19.1 10.8007C18.8 11.1007 19 11.9007 19 11.9007L20.4 13.9007H19.8C19.8 14.0007 19.9 14.4007 20 14.5007V14.7007L19.9 14.8007H19.3C19.2 14.8007 19.3 15.4007 19.3 15.9007C19.4 15.9007 19.7 15.9007 19.8 16.1007H19.6C18.9 16.2007 18.5 16.7007 18.5 16.7007Z" fill="#242222"/>
<path fill-rule="evenodd" clip-rule="evenodd" d="M18.7001 11C18.7001 11 17.9001 12 18.2001 12.8V12.6L18.3001 12.7V12.5H18.4001C18.4001 12.5 18.4001 12.4 18.3001 12.4H18.5001C18.5001 12.4 18.4001 12.2 18.5001 12.2H18.6001C18.3001 11.8 18.6001 11.4 18.7001 11Z" fill="#A4AC9E"/>
<path fill-rule="evenodd" clip-rule="evenodd" d="M18.6001 10.9996C18.5001 11.0996 17.9001 11.9996 18.1001 12.6996V12.4996L18.2001 12.5996C18.2001 12.5996 18.1001 12.4996 18.1001 12.3996H18.2001L18.1001 12.2996H18.3001C18.2001 12.1996 18.2001 12.0996 18.2001 12.0996H18.3001C18.1001 11.6996 18.2001 11.3996 18.3001 11.0996C18.6001 11.1996 18.6001 11.0996 18.6001 10.9996ZM18.2001 12.7996C17.8001 11.9996 18.6001 10.8996 18.6001 10.8996V11.1996C18.5001 11.4996 18.4001 11.7996 18.6001 12.1996H18.5001C18.5001 12.1996 18.5001 12.2996 18.6001 12.2996H18.4001L18.5001 12.3996H18.4001V12.5996L18.3001 12.4996C18.2001 12.6996 18.2001 12.6996 18.2001 12.7996ZM18.9001 10.0996C18.9001 10.0996 18.9001 10.4996 18.8001 10.4996L18.7001 10.5996C18.7001 10.6996 18.8001 10.6996 18.8001 10.6996C19.0001 10.6996 19.2001 10.2996 18.9001 10.0996Z" fill="#A4AC9E"/>
<path fill-rule="evenodd" clip-rule="evenodd" d="M18.9002 10.0996C18.9002 10.0996 18.9002 10.3996 18.8002 10.4996C18.7002 10.4996 18.7002 10.5996 18.7002 10.5996C18.7002 10.6996 18.7002 10.6996 18.8002 10.6996H18.9002C19.0002 10.6996 19.1002 10.4996 19.1002 10.3996C19.1002 10.3996 19.1002 10.1996 18.9002 10.0996ZM18.8002 10.7996C18.7002 10.7996 18.7002 10.7996 18.8002 10.7996C18.7002 10.5996 18.8002 10.5996 18.8002 10.5996C19.0002 10.4996 18.9002 10.1996 18.9002 10.1996C19.0002 10.2996 19.1002 10.3996 19.1002 10.4996C19.1002 10.5996 18.9002 10.7996 18.8002 10.7996Z" fill="#A4AC9E"/>
<path fill-rule="evenodd" clip-rule="evenodd" d="M18.6 10.3999C18.6 10.4999 18.6 10.4999 18.6 10.3999C18.5 10.4999 18.5 10.3999 18.5 10.3999C18.5 10.3999 18.5 10.2999 18.6 10.3999Z" fill="#FEFEFE"/>
<path fill-rule="evenodd" clip-rule="evenodd" d="M18.3999 10.6992C18.3999 10.6992 18.0999 10.9992 18.3999 11.0992C18.5999 10.9992 18.5999 10.9992 18.5999 10.8992C18.5999 10.7992 18.3999 10.7992 18.3999 10.6992Z" fill="#CE302C"/>
<path fill-rule="evenodd" clip-rule="evenodd" d="M18.4002 10.6992C18.4002 10.6992 18.3002 10.8992 18.3002 10.9992C18.3002 10.9992 18.3002 11.0992 18.4002 11.0992C18.6002 11.0992 18.6002 10.9992 18.6002 10.9992C18.5002 10.8992 18.5002 10.7992 18.4002 10.6992C18.4002 10.7992 18.4002 10.7992 18.4002 10.6992ZM18.3002 11.0992C18.2002 11.0992 18.2002 10.9992 18.2002 10.9992C18.2002 10.8992 18.3002 10.6992 18.3002 10.6992C18.3002 10.6992 18.4002 10.6992 18.4002 10.7992C18.5002 10.7992 18.5002 10.8992 18.5002 10.9992V11.0992C18.5002 10.9992 18.5002 11.0992 18.3002 11.0992Z" fill="#242222"/>
<path fill-rule="evenodd" clip-rule="evenodd" d="M18.8999 13.1992C18.8999 13.2992 18.7999 13.4992 18.8999 13.5992C19.0999 13.4992 19.1999 13.4992 19.2999 13.5992C19.0999 13.4992 18.9999 13.3992 18.8999 13.1992Z" fill="#A4AC9E"/>
<path fill-rule="evenodd" clip-rule="evenodd" d="M18.8999 13.6992C19.0999 13.5992 19.0999 13.5992 19.1999 13.5992C18.9999 13.4992 18.9999 13.3992 18.8999 13.1992L19.2999 13.5992H19.1999C18.9999 13.5992 18.9999 13.5992 18.8999 13.6992Z" fill="#A4AC9E"/>
<path fill-rule="evenodd" clip-rule="evenodd" d="M19.2002 14.1992V14.6992H19.4002C19.5002 14.6992 19.4002 14.3992 19.2002 14.1992Z" fill="#FEFEFE"/>
<path fill-rule="evenodd" clip-rule="evenodd" d="M19.3003 14.6992H19.5003C19.5003 14.5992 19.4003 14.3992 19.3003 14.1992V14.6992ZM19.4003 14.7992H19.3003V14.2992C19.5003 14.3992 19.6003 14.5992 19.6003 14.6992C19.5003 14.6992 19.5003 14.6992 19.4003 14.7992Z" fill="#FEFEFE"/>
<path fill-rule="evenodd" clip-rule="evenodd" d="M20.3002 14.3C20.3002 14.3 20.0002 13.5 19.3002 13.3C18.6002 13.1 18.7003 12.2 18.7003 12.2C18.7003 12.1 18.8003 12 19.0003 12.1C19.2003 12.2 20.2002 12.8 20.3002 12.8C20.5002 12.8 20.3002 14.3 20.3002 14.3Z" fill="#A4AC9E"/>
<path fill-rule="evenodd" clip-rule="evenodd" d="M18.9002 12.1004C18.8002 12.1004 18.8002 12.2004 18.9002 12.1004C18.8002 12.2004 18.7002 12.4004 18.8002 12.7004C18.8002 12.9004 19.0002 13.2004 19.4002 13.3004C20.0002 13.5004 20.3002 14.0004 20.4002 14.2004C20.4002 13.9004 20.5002 13.0004 20.4002 12.8004C20.3002 12.8004 19.8002 12.5004 19.3002 12.2004H19.0002L18.9002 12.1004ZM20.3002 14.3004C20.3002 14.3004 20.0002 13.5004 19.3002 13.3004C18.9002 13.2004 18.8002 12.9004 18.7002 12.6004V12.1004C18.7002 12.0004 18.8002 11.9004 19.0002 12.0004L19.2002 12.1004C19.6002 12.3004 20.2002 12.6004 20.3002 12.7004C20.4002 12.7004 20.4002 13.6004 20.4002 14.0004L20.3002 14.3004Z" fill="#242222"/>
<path fill-rule="evenodd" clip-rule="evenodd" d="M19.5996 13.2992C19.5996 13.2992 20.5996 13.9992 20.2996 14.4992C20.5996 14.2992 20.4996 13.8992 20.4996 13.8992C20.4996 13.8992 20.6996 14.5992 20.1996 14.8992H20.2996L20.1996 14.9992C20.1996 14.9992 20.1996 15.0992 20.4996 14.8992C20.3996 14.9992 20.3996 15.0992 20.3996 15.0992C20.3996 15.0992 20.3996 15.1992 20.6996 14.8992C20.4996 15.1992 20.4996 15.2992 20.4996 15.2992C20.9996 15.2992 22.1996 13.2992 20.0996 12.6992L20.1996 12.7992L19.5996 13.2992Z" fill="#CE302C"/>
<path fill-rule="evenodd" clip-rule="evenodd" d="M20.7002 15.0008C20.6002 15.1008 20.6002 15.3008 20.5002 15.3008C20.8002 15.2008 21.2002 14.7008 21.3002 14.1008C21.3002 13.5008 20.9002 13.0008 20.1002 12.8008L20.2002 12.9008L19.7002 13.3008C20.3002 13.8008 20.5002 14.2008 20.3002 14.5008C20.5002 14.3008 20.5002 13.9008 20.5002 13.9008C20.6002 14.0008 20.7002 14.6008 20.2002 14.9008H20.3002L20.2002 15.0008C20.2002 15.0008 20.3002 15.0008 20.5002 14.8008C20.4002 14.9008 20.4002 15.0008 20.4002 15.0008C20.4002 15.1008 20.5002 15.1008 20.7002 15.0008ZM20.4002 15.4008C20.4002 15.3008 20.5002 15.2008 20.6002 15.1008L20.5002 15.2008C20.5002 15.2008 20.5002 15.1008 20.6002 15.0008C20.4002 15.1008 20.3002 15.2008 20.3002 15.2008V15.1008L20.4002 15.0008H20.3002C20.6002 14.8008 20.7002 14.4008 20.7002 14.2008C20.7002 14.3008 20.6002 14.5008 20.5002 14.6008C20.6002 14.4008 20.6002 14.0008 19.8002 13.4008V13.3008L20.3002 12.8008H20.0002C21.1002 13.1008 21.2002 13.7008 21.2002 14.1008C21.2002 14.8008 20.7002 15.3008 20.4002 15.4008Z" fill="#242222"/>
<path fill-rule="evenodd" clip-rule="evenodd" d="M19.6998 13.1002C19.7998 13.2002 19.8998 13.2002 19.8998 13.3002H19.6998L19.3998 13.0002L19.1998 12.9001C19.0998 12.8001 18.9998 12.4002 19.3998 12.6002L19.7998 12.8002C19.9998 12.9002 20.0998 12.9002 20.2998 13.0002L20.5998 13.3002L20.0998 13.0002C20.1998 13.1002 20.2998 13.3002 20.2998 13.3002C19.9998 13.2002 19.7998 13.2002 19.6998 13.1002Z" fill="#FEFEFE"/>
<path fill-rule="evenodd" clip-rule="evenodd" d="M19.8998 13.3992H19.5998L19.2998 13.0992L19.0998 12.9992C18.9998 12.9992 18.9998 12.7992 18.9998 12.6992C18.9998 12.5992 19.0998 12.4992 19.2998 12.5992L19.6998 12.7992L20.1998 12.9992L20.4998 13.2992C20.2998 13.1992 19.9998 13.0992 19.9998 13.0992C20.0998 13.1992 20.1998 13.2992 20.1998 13.3992H20.0998L19.8998 13.1992C19.9998 13.1992 20.3998 13.3992 20.4998 13.3992L20.2998 13.2992L20.1998 13.0992L19.7998 12.8992C19.7998 12.8992 19.6998 12.8992 19.2998 12.6992C19.1998 12.6992 19.0998 12.6992 19.0998 12.7992C19.0998 12.8992 19.0998 12.9992 19.1998 12.9992C19.2998 13.0992 19.3998 13.0992 19.3998 13.0992C19.4998 13.0992 19.6998 13.3992 19.6998 13.3992C19.6998 13.2992 19.7998 13.2992 19.8998 13.3992L19.6998 13.1992C19.7998 13.1992 19.8998 13.2992 19.8998 13.3992Z" fill="#242222"/>
<path fill-rule="evenodd" clip-rule="evenodd" d="M17.7998 10.7996C17.8998 10.6996 18.1998 10.5996 18.2998 10.6996C18.2998 10.6996 17.9998 10.6996 17.7998 10.7996Z" fill="#FEFEFE"/>
</g>
</g>
<defs>
<clipPath id="clip0_26003_92807">
<rect width="38" height="25" fill="white" transform="translate(0 0.5)"/>
</clipPath>
<clipPath id="clip1_26003_92807">
<rect width="38" height="25" fill="white" transform="translate(0 0.5)"/>
</clipPath>
</defs>
</svg>
