<svg width="38" height="26" viewBox="0 0 38 26" fill="none" xmlns="http://www.w3.org/2000/svg">
<g clip-path="url(#clip0_26003_73977)">
<g clip-path="url(#clip1_26003_73977)">
<path fill-rule="evenodd" clip-rule="evenodd" d="M2.5 25.5H35.6C36.9 25.2 37.9 24.1 38.1 22.6V3.4C37.9 1.9 36.9 0.7 35.6 0.5H2.5C1.2 0.8 0.2 1.9 0 3.4V22.6C0.2 24.1 1.2 25.2 2.5 25.5Z" fill="#FEFEFE"/>
<path fill-rule="evenodd" clip-rule="evenodd" d="M2.5 25.5H11.1V0.5H2.5C1.2 0.8 0.2 1.9 0 3.4V22.6C0.2 24.1 1.2 25.2 2.5 25.5Z" fill="#313C91"/>
<path fill-rule="evenodd" clip-rule="evenodd" d="M2.5 25.5H35.6C36.9 25.2 37.9 24.1 38.1 22.6V13H0V22.6C0.2 24.1 1.2 25.2 2.5 25.5Z" fill="#C72D2D"/>
<path fill-rule="evenodd" clip-rule="evenodd" d="M5.5002 3.59961L4.7002 6.59961L6.0002 7.09961L5.5002 3.59961Z" fill="#FEFEFE"/>
<path fill-rule="evenodd" clip-rule="evenodd" d="M5.49961 3.59961L6.39961 6.59961L5.09961 7.09961L5.49961 3.59961Z" fill="#FEFEFE"/>
<path fill-rule="evenodd" clip-rule="evenodd" d="M8.20039 5.80078H5.40039V7.30078L8.20039 5.80078Z" fill="#FEFEFE"/>
<path fill-rule="evenodd" clip-rule="evenodd" d="M8.19961 5.80078L5.89961 7.60078L5.09961 6.40078L8.19961 5.80078Z" fill="#FEFEFE"/>
<path fill-rule="evenodd" clip-rule="evenodd" d="M2.90039 5.80078L5.20039 7.60078L6.00039 6.40078L2.90039 5.80078Z" fill="#FEFEFE"/>
<path fill-rule="evenodd" clip-rule="evenodd" d="M2.90039 5.80078H5.70039V7.30078L2.90039 5.80078Z" fill="#FEFEFE"/>
<path fill-rule="evenodd" clip-rule="evenodd" d="M7.2 9.30078L6.3 6.30078L5 6.80078L7.2 9.30078Z" fill="#FEFEFE"/>
<path fill-rule="evenodd" clip-rule="evenodd" d="M7.20039 9.29922L4.90039 7.39922L5.70039 6.19922L7.20039 9.29922Z" fill="#FEFEFE"/>
<path fill-rule="evenodd" clip-rule="evenodd" d="M3.90039 9.29922L6.20039 7.39922L5.30039 6.19922L3.90039 9.29922Z" fill="#FEFEFE"/>
<path fill-rule="evenodd" clip-rule="evenodd" d="M3.90039 9.30078L4.80039 6.30078L6.10039 6.80078L3.90039 9.30078Z" fill="#FEFEFE"/>
</g>
</g>
<defs>
<clipPath id="clip0_26003_73977">
<rect width="38" height="25" fill="white" transform="translate(0 0.5)"/>
</clipPath>
<clipPath id="clip1_26003_73977">
<rect width="38" height="25" fill="white" transform="translate(0 0.5)"/>
</clipPath>
</defs>
</svg>
