<svg width="38" height="26" viewBox="0 0 38 26" fill="none" xmlns="http://www.w3.org/2000/svg">
<g clip-path="url(#clip0_26003_70827)">
<g clip-path="url(#clip1_26003_70827)">
<path fill-rule="evenodd" clip-rule="evenodd" d="M2.5 25.5H35.6C36.9 25.3 37.9 24.1 38.1 22.6V3.4C37.9 1.9 36.9 0.7 35.6 0.5H2.5C1.2 0.8 0.2 1.9 0 3.4V22.6C0.2 24.1 1.2 25.3 2.5 25.5Z" fill="#C6282D"/>
<path fill-rule="evenodd" clip-rule="evenodd" d="M1.1 1.2L19 13L5.7 0.5H2.5C2 0.6 1.5 0.9 1.1 1.2ZM36.9 24.8C36.5 25.2 36 25.4 35.5 25.5H32.3L19 13L36.9 24.8ZM17.1 0.5L19 13L20.9 0.5H17.1ZM17.1 25.5L19 13L20.9 25.5H17.1ZM32.3 0.5L19 13L36.9 1.2C36.5 0.9 36 0.6 35.5 0.5H32.3ZM2.5 25.5C2 25.4 1.5 25.1 1.1 24.8L19 13L5.7 25.5H2.5ZM19 13L38 15.5V10.5L19 13ZM0 15.5V10.5L19 13L0 15.5Z" fill="#F8EB02"/>
<path fill-rule="evenodd" clip-rule="evenodd" d="M19 8.5C21.2 8.5 23 10.5 23 13C23 15.5 21.2 17.5 19 17.5C16.8 17.5 15 15.5 15 13C15 10.5 16.8 8.5 19 8.5Z" fill="#C6282D"/>
<path fill-rule="evenodd" clip-rule="evenodd" d="M18.9998 9.39844C20.6998 9.39844 22.1998 10.9984 22.1998 12.9984C22.1998 14.9984 20.7998 16.5984 18.9998 16.5984C17.2998 16.5984 15.7998 14.9984 15.7998 12.9984C15.7998 10.9984 17.2998 9.39844 18.9998 9.39844Z" fill="#F8EB02"/>
</g>
</g>
<defs>
<clipPath id="clip0_26003_70827">
<rect width="38" height="25" fill="white" transform="translate(0 0.5)"/>
</clipPath>
<clipPath id="clip1_26003_70827">
<rect width="38" height="25" fill="white" transform="translate(0 0.5)"/>
</clipPath>
</defs>
</svg>
