<svg width="38" height="26" viewBox="0 0 38 26" fill="none" xmlns="http://www.w3.org/2000/svg">
<g clip-path="url(#clip0_26003_91552)">
<g clip-path="url(#clip1_26003_91552)">
<path fill-rule="evenodd" clip-rule="evenodd" d="M2.5 25.5H35.5C36.8 25.3 37.8 24.1 38 22.6V3.4C37.8 1.9 36.8 0.7 35.5 0.5H2.5C1.2 0.7 0.2 1.9 0 3.4V22.6C0.2 24.1 1.2 25.3 2.5 25.5Z" fill="#CB2831"/>
<path fill-rule="evenodd" clip-rule="evenodd" d="M21.7 14.8L23.3 20.5L19 17L14.7 20.5L16.3 14.8L12 11.2H17.3L19 5.5L20.7 11.2H26L21.7 14.8Z" fill="#F5EC15"/>
</g>
</g>
<defs>
<clipPath id="clip0_26003_91552">
<rect width="38" height="25" fill="white" transform="translate(0 0.5)"/>
</clipPath>
<clipPath id="clip1_26003_91552">
<rect width="38" height="25" fill="white" transform="translate(0 0.5)"/>
</clipPath>
</defs>
</svg>
