<svg width="38" height="26" viewBox="0 0 38 26" fill="none" xmlns="http://www.w3.org/2000/svg">
<g clip-path="url(#clip0_26003_90323)">
<g clip-path="url(#clip1_26003_90323)">
<path fill-rule="evenodd" clip-rule="evenodd" d="M38 22.6V3.4C37.8 1.8 36.5 0.5 35 0.5H3C1.5 0.5 0.2 1.8 0 3.4V22.5C0.2 24.2 1.5 25.5 3 25.5H35C36.5 25.5 37.8 24.2 38 22.6Z" fill="#CE282D"/>
<path fill-rule="evenodd" clip-rule="evenodd" d="M3.7 9.50078L4.4 7.10078L2.5 5.50078H4.8L5.5 3.00078L6.3 5.50078H8.6L6.7 7.10078L7.4 9.50078L5.5 8.00078L3.7 9.50078ZM10.1 10.9008L10.9 11.3008L11.5 10.5008L11.4 11.5008L12.2 11.8008L11.4 12.1008L11.3 13.0008L10.9 12.2008L10 12.4008L10.6 11.7008L10.1 10.9008ZM14.4 6.10078L13.5 5.90078L13.1 6.80078L13 5.80078L12.2 5.70078L13 5.20078L12.8 4.30078L13.4 5.00078L14.2 4.60078L13.8 5.40078L14.4 6.10078ZM12.6 10.4008L12.9 9.50078L12.2 8.90078H13L13.3 8.00078L13.6 8.90078H14.4L13.7 9.50078L14 10.4008L13.3 9.80078L12.6 10.4008ZM10.2 2.10078L10.9 2.50078L11.5 1.80078L11.4 2.70078L12.2 3.20078L11.4 3.30078L11.3 4.30078L10.8 3.40078L10 3.60078L10.6 2.90078L10.2 2.10078Z" fill="#F7E30A"/>
</g>
</g>
<defs>
<clipPath id="clip0_26003_90323">
<rect width="38" height="25" fill="white" transform="translate(0 0.5)"/>
</clipPath>
<clipPath id="clip1_26003_90323">
<rect width="38" height="25" fill="white" transform="translate(0 0.5)"/>
</clipPath>
</defs>
</svg>
