<svg width="38" height="26" viewBox="0 0 38 26" fill="none" xmlns="http://www.w3.org/2000/svg">
<g clip-path="url(#clip0_26003_72921)">
<g clip-path="url(#clip1_26003_72921)">
<path fill-rule="evenodd" clip-rule="evenodd" d="M0 8.83008H38V17.1601H0V8.83008Z" fill="#FEFEFE"/>
<path fill-rule="evenodd" clip-rule="evenodd" d="M0 8.83H38V3.44C37.81 1.79 36.55 0.51 35.03 0.5H2.97C1.45 0.51 0.19 1.79 0 3.44V8.83ZM2.98 25.5H35.02C36.54 25.5 37.81 24.21 38 22.56V17.17H0V22.56C0.19 24.21 1.46 25.5 2.98 25.5Z" fill="#8AABD9"/>
<path fill-rule="evenodd" clip-rule="evenodd" d="M18.8496 13L18.9696 16.41C18.9696 16.41 18.9696 16.47 19.0096 16.47C19.0496 16.47 19.0496 16.41 19.0496 16.41L19.1696 13H18.8496Z" fill="#F2C549"/>
<path fill-rule="evenodd" clip-rule="evenodd" d="M18.9998 16.48C18.9598 16.48 18.9498 16.43 18.9498 16.41L18.8398 13H18.8598L18.9698 16.41C18.9698 16.41 18.9698 16.46 18.9998 16.46C19.0298 16.46 19.0298 16.41 19.0298 16.41L19.1398 13L19.0498 16.41C19.0498 16.43 19.0398 16.48 18.9998 16.48Z" fill="#88402A"/>
<path fill-rule="evenodd" clip-rule="evenodd" d="M18.9297 13L18.9997 15.34L19.0797 13H18.9297Z" fill="#88402A"/>
<path fill-rule="evenodd" clip-rule="evenodd" d="M18.7204 14.0996C18.5504 14.5296 18.6904 14.8796 18.5204 15.2496C18.3404 15.6196 18.4504 15.9296 18.4404 16.1096C18.4304 16.2796 18.3104 16.3296 18.3304 16.3696C18.3604 16.4096 18.4904 16.3296 18.5404 16.0996C18.5904 15.8696 18.4704 15.7396 18.6704 15.2796C18.8804 14.8196 18.7204 14.6096 18.9304 14.1996L18.7204 14.0996Z" fill="#F2C549"/>
<path fill-rule="evenodd" clip-rule="evenodd" d="M18.3701 16.3896L18.3301 16.3796C18.3201 16.3596 18.3301 16.3296 18.3501 16.2996C18.3801 16.2596 18.4201 16.1996 18.4301 16.1096L18.4201 15.9396C18.3813 15.7058 18.4126 15.4657 18.5101 15.2496C18.5901 15.0596 18.6001 14.8896 18.6001 14.6996C18.6001 14.5096 18.6101 14.3196 18.7001 14.0996L18.7201 14.1096C18.6301 14.3196 18.6201 14.5196 18.6201 14.7096C18.6101 14.8996 18.6001 15.0796 18.5201 15.2696C18.3901 15.5396 18.4201 15.7796 18.4301 15.9496L18.4401 16.1196C18.4301 16.2196 18.3801 16.2796 18.3501 16.3196C18.3301 16.3496 18.3201 16.3596 18.3301 16.3696C18.4101 16.3596 18.4901 16.2796 18.5301 16.1096C18.5483 16.0411 18.5517 15.9695 18.5401 15.8996C18.5301 15.7596 18.5301 15.5996 18.6701 15.2896C18.7701 15.0596 18.7901 14.8996 18.7901 14.7396C18.8001 14.5696 18.8101 14.4196 18.9201 14.2096C18.8301 14.4296 18.8201 14.5796 18.8101 14.7396C18.8001 14.8996 18.7901 15.0696 18.6901 15.2996C18.5501 15.5996 18.5601 15.7596 18.5601 15.8996L18.5501 16.1196C18.5201 16.2696 18.4401 16.3696 18.3701 16.3896Z" fill="#88402A"/>
<path fill-rule="evenodd" clip-rule="evenodd" d="M18.7698 14.2109C18.6298 14.6409 18.7698 14.9209 18.5898 15.2809C18.7898 15.0209 18.6598 14.6809 18.8298 14.2409L18.7698 14.2109Z" fill="#88402A"/>
<path fill-rule="evenodd" clip-rule="evenodd" d="M19.1501 12.9993L19.0301 9.5893C19.0301 9.5893 19.0301 9.5293 18.9901 9.5293C18.9501 9.5293 18.9501 9.5893 18.9501 9.5893L18.8301 12.9993H19.1501Z" fill="#F2C549"/>
<path fill-rule="evenodd" clip-rule="evenodd" d="M19.1404 12.9998L19.0304 9.58977C19.0304 9.58977 19.0304 9.53977 19.0004 9.53977C18.9704 9.53977 18.9704 9.58977 18.9704 9.58977L18.8604 12.9998L18.9604 9.58977C18.9604 9.55977 18.9704 9.50977 19.0104 9.50977C19.0504 9.50977 19.0604 9.55977 19.0604 9.58977L19.1804 12.9998H19.1404Z" fill="#88402A"/>
<path fill-rule="evenodd" clip-rule="evenodd" d="M19.0797 13.0002L18.9997 10.6602L18.9297 13.0002H19.0797Z" fill="#88402A"/>
<path fill-rule="evenodd" clip-rule="evenodd" d="M19.2903 11.9007C19.4603 11.4707 19.3103 11.1207 19.4903 10.7507C19.6703 10.3707 19.5603 10.0707 19.5603 9.90072C19.5703 9.73072 19.7003 9.68072 19.6703 9.64072C19.6403 9.60072 19.5103 9.68072 19.4603 9.91072C19.4103 10.1407 19.5303 10.2707 19.3203 10.7307C19.1103 11.1907 19.2803 11.3907 19.0703 11.8107L19.2903 11.9007Z" fill="#F2C549"/>
<path fill-rule="evenodd" clip-rule="evenodd" d="M19.3003 11.8998L19.2803 11.8898C19.3603 11.6798 19.3703 11.4898 19.3803 11.2998C19.3803 11.1098 19.3903 10.9298 19.4803 10.7398C19.6003 10.4698 19.5803 10.2398 19.5603 10.0598V9.88984C19.5603 9.77984 19.6103 9.72984 19.6403 9.68984C19.6603 9.65984 19.6703 9.64984 19.6603 9.63984C19.5903 9.64984 19.5003 9.72984 19.4603 9.89984C19.4403 9.97984 19.4503 10.0398 19.4503 10.1098C19.4503 10.2498 19.4603 10.4098 19.3203 10.7198C19.2203 10.9498 19.2103 11.1098 19.2003 11.2698C19.1903 11.4298 19.1803 11.5898 19.0703 11.7898C19.1603 11.5798 19.1703 11.4198 19.1803 11.2598C19.1903 11.0998 19.2003 10.9298 19.3103 10.6998C19.4503 10.3998 19.4403 10.2398 19.4303 10.0998L19.4403 9.87984C19.4803 9.68984 19.5703 9.60984 19.6203 9.58984L19.6603 9.59984C19.6803 9.61984 19.6603 9.64984 19.6403 9.67984C19.6103 9.71984 19.5603 9.76984 19.5603 9.86984L19.5703 10.0398C19.5903 10.2198 19.6103 10.4598 19.4803 10.7298C19.3903 10.9098 19.3903 11.0898 19.3803 11.2798C19.3903 11.4898 19.3803 11.6898 19.3003 11.8998Z" fill="#88402A"/>
<path fill-rule="evenodd" clip-rule="evenodd" d="M19.2397 11.7907C19.3797 11.3607 19.2297 11.0807 19.4197 10.7207C19.2197 10.9807 19.3497 11.3107 19.1797 11.7507L19.2397 11.7907Z" fill="#88402A"/>
<path fill-rule="evenodd" clip-rule="evenodd" d="M18.9999 12.8301L15.9799 12.9601C15.9799 12.9601 15.9199 12.9601 15.9199 13.0001C15.9199 13.0501 15.9799 13.0501 15.9799 13.0501L18.9999 13.1701V12.8301Z" fill="#F2C549"/>
<path fill-rule="evenodd" clip-rule="evenodd" d="M19.0002 13.1603L15.9702 13.0503C15.9502 13.0503 15.9102 13.0403 15.9102 13.0003C15.9102 12.9603 15.9502 12.9503 15.9702 12.9503L19.0002 12.8203V12.8403L15.9702 12.9703C15.9702 12.9703 15.9202 12.9703 15.9202 13.0003C15.9202 13.0303 15.9702 13.0303 15.9702 13.0303L19.0002 13.1603Z" fill="#88402A"/>
<path fill-rule="evenodd" clip-rule="evenodd" d="M18.9997 12.9102L16.9297 13.0002L18.9997 13.0802V12.9102Z" fill="#88402A"/>
<path fill-rule="evenodd" clip-rule="evenodd" d="M18.0196 12.6809C17.6396 12.4809 17.3296 12.6509 16.9996 12.4609C16.6596 12.2709 16.3896 12.3909 16.2396 12.3709C16.0896 12.3609 16.0496 12.2109 16.0096 12.2509C15.9796 12.2809 16.0496 12.4309 16.2496 12.4909C16.4496 12.5509 16.5696 12.4109 16.9796 12.6509C17.3896 12.8909 17.5696 12.7009 17.9396 12.9409L18.0196 12.6809Z" fill="#F2C549"/>
<path fill-rule="evenodd" clip-rule="evenodd" d="M17.94 12.9202C17.75 12.8202 17.61 12.8102 17.47 12.8002C17.33 12.7902 17.18 12.7802 16.97 12.6602C16.71 12.5102 16.57 12.5102 16.44 12.5202C16.37 12.5202 16.32 12.5302 16.25 12.5102C16.1 12.4702 16.01 12.3702 16 12.3102V12.3002L16.01 12.2502C16.04 12.2302 16.06 12.2502 16.08 12.2802C16.11 12.3102 16.16 12.3702 16.25 12.3702L16.39 12.3602C16.55 12.3402 16.76 12.3102 17.01 12.4602C17.18 12.5602 17.33 12.5702 17.5 12.5702C17.67 12.5702 17.84 12.5802 18.03 12.6802V12.7002C17.84 12.6002 17.67 12.6002 17.5 12.5902C17.33 12.5802 17.17 12.5802 17 12.4802C16.8185 12.3758 16.6055 12.3403 16.4 12.3802L16.25 12.3902C16.1798 12.38 16.1157 12.3445 16.07 12.2902L16.03 12.2702C16.04 12.3502 16.11 12.4502 16.26 12.4902C16.3216 12.5088 16.3868 12.5122 16.45 12.5002C16.57 12.4902 16.72 12.4902 16.99 12.6402C17.19 12.7602 17.34 12.7702 17.48 12.7802C17.61 12.7902 17.75 12.8002 17.94 12.9202Z" fill="#88402A"/>
<path fill-rule="evenodd" clip-rule="evenodd" d="M17.9305 12.7291C17.5505 12.5791 17.3005 12.7391 16.9805 12.5391C17.2105 12.7691 17.5105 12.6191 17.9005 12.8191L17.9305 12.7291Z" fill="#88402A"/>
<path fill-rule="evenodd" clip-rule="evenodd" d="M19 13.1701L22.02 13.0401C22.02 13.0401 22.08 13.0401 22.08 12.9901C22.08 12.9501 22.02 12.9501 22.02 12.9501L19 12.8301V13.1701Z" fill="#F2C549"/>
<path fill-rule="evenodd" clip-rule="evenodd" d="M19 13.1798V13.1598L22.02 13.0298C22.02 13.0298 22.07 13.0298 22.07 12.9998C22.07 12.9698 22.02 12.9698 22.02 12.9698L19 12.8398L22.02 12.9498C22.04 12.9498 22.08 12.9598 22.08 12.9998C22.08 13.0398 22.04 13.0498 22.02 13.0498L19 13.1798Z" fill="#88402A"/>
<path fill-rule="evenodd" clip-rule="evenodd" d="M19 13.0802L21.08 13.0002L19 12.9102V13.0802Z" fill="#88402A"/>
<path fill-rule="evenodd" clip-rule="evenodd" d="M19.9805 13.3203C20.3605 13.5203 20.6805 13.3503 21.0105 13.5403C21.3405 13.7403 21.6105 13.6103 21.7705 13.6303C21.9205 13.6403 21.9605 13.7803 22.0005 13.7503C22.0405 13.7103 21.9605 13.5703 21.7605 13.5103C21.5605 13.4503 21.4405 13.5903 21.0405 13.3603C20.6305 13.1203 20.4505 13.3103 20.0805 13.0703L19.9805 13.3203Z" fill="#F2C549"/>
<path fill-rule="evenodd" clip-rule="evenodd" d="M21.9805 13.7701C21.9605 13.7701 21.9505 13.7601 21.9305 13.7401C21.9005 13.7101 21.8505 13.6601 21.7605 13.6501C21.7205 13.6401 21.6705 13.6501 21.6105 13.6601C21.4017 13.6998 21.1856 13.6644 21.0005 13.5601C20.8305 13.4601 20.6805 13.4601 20.5105 13.4501C20.3405 13.4401 20.1705 13.4401 19.9805 13.3401L19.9905 13.3201C20.1805 13.4201 20.3505 13.4301 20.5105 13.4301C20.6805 13.4401 20.8405 13.4401 21.0105 13.5401C21.2505 13.6801 21.4605 13.6501 21.6105 13.6401L21.7605 13.6301C21.8505 13.6401 21.9005 13.6901 21.9405 13.7201L21.9805 13.7501C21.9805 13.6701 21.9005 13.5701 21.7505 13.5301C21.6906 13.5042 21.6244 13.4972 21.5605 13.5101C21.4305 13.5201 21.2905 13.5301 21.0205 13.3701C20.8205 13.2501 20.6705 13.2401 20.5305 13.2301C20.3619 13.2308 20.1974 13.1783 20.0605 13.0801C20.2505 13.1801 20.3805 13.1901 20.5305 13.2001C20.6705 13.2101 20.8205 13.2301 21.0205 13.3401C21.2805 13.4901 21.4205 13.4901 21.5505 13.4801C21.6105 13.4801 21.6705 13.4701 21.7405 13.4901C21.9005 13.5401 21.9805 13.6401 21.9905 13.7001V13.7101L21.9805 13.7601V13.7701Z" fill="#88402A"/>
<path fill-rule="evenodd" clip-rule="evenodd" d="M20.0703 13.2692C20.4503 13.4192 20.7003 13.2692 21.0303 13.4692C20.8003 13.2392 20.5003 13.3892 20.1103 13.1992L20.0703 13.2692Z" fill="#88402A"/>
<path fill-rule="evenodd" clip-rule="evenodd" d="M18.8898 12.8809L16.8298 15.3809C16.8298 15.3809 16.7898 15.4309 16.8198 15.4609C16.8398 15.4909 16.8798 15.4409 16.8798 15.4409L19.0998 13.1209L18.8898 12.8809Z" fill="#F2C549"/>
<path fill-rule="evenodd" clip-rule="evenodd" d="M16.8499 15.4791C16.7999 15.4391 16.8199 15.3891 16.8299 15.3691L18.8899 12.8691L18.9099 12.8791L16.8499 15.3791C16.8499 15.3791 16.8199 15.4191 16.8299 15.4391C16.8499 15.4591 16.8899 15.4191 16.8899 15.4191L19.1099 13.0991L16.9099 15.4291C16.8999 15.4491 16.8699 15.4791 16.8499 15.4791Z" fill="#88402A"/>
<path fill-rule="evenodd" clip-rule="evenodd" d="M18.95 12.9395L17.54 14.6495L19.06 13.0595L18.95 12.9395Z" fill="#88402A"/>
<path fill-rule="evenodd" clip-rule="evenodd" d="M18.1099 13.5508C17.7199 13.7108 17.5999 14.0808 17.2499 14.2108C16.8899 14.3408 16.7699 14.6408 16.6599 14.7508C16.5399 14.8608 16.4299 14.8008 16.4199 14.8508C16.4199 14.9008 16.5599 14.9508 16.7399 14.8308C16.9099 14.7108 16.9099 14.5208 17.3499 14.3608C17.7899 14.2008 17.7999 13.9208 18.2099 13.8008L18.1099 13.5508Z" fill="#F2C549"/>
<path fill-rule="evenodd" clip-rule="evenodd" d="M16.5202 14.9205C16.4891 14.9198 16.4586 14.913 16.4302 14.9005L16.4102 14.8605C16.4102 14.8205 16.4402 14.8205 16.4702 14.8205C16.5102 14.8105 16.5802 14.8105 16.6502 14.7505C16.6849 14.7143 16.7151 14.674 16.7402 14.6305C16.8402 14.4905 16.9702 14.3005 17.2402 14.2105C17.4202 14.1505 17.5302 14.0305 17.6502 13.9005C17.7702 13.7705 17.9002 13.6405 18.1002 13.5605L18.1102 13.5805C17.9202 13.6605 17.7902 13.7905 17.6702 13.9205C17.5502 14.0505 17.4302 14.1705 17.2502 14.2405C17.0428 14.3191 16.8695 14.4677 16.7602 14.6605L16.6602 14.7905C16.5902 14.8605 16.5202 14.8605 16.4702 14.8705C16.4402 14.8705 16.4302 14.8705 16.4302 14.8905C16.4902 14.9405 16.6002 14.9505 16.7302 14.8605C16.7902 14.8205 16.8302 14.7705 16.8702 14.7205C16.9502 14.6205 17.0502 14.5005 17.3402 14.3905C17.5602 14.3105 17.6702 14.2005 17.7702 14.1005C17.8829 13.9739 18.0282 13.8806 18.1902 13.8305C17.9902 13.9105 17.8902 14.0105 17.7802 14.1205C17.6702 14.2205 17.5602 14.3305 17.3402 14.4105C17.1567 14.4655 16.9955 14.5776 16.8802 14.7305C16.8402 14.7805 16.8002 14.8305 16.7302 14.8705C16.6639 14.9002 16.5927 14.9172 16.5202 14.9205Z" fill="#88402A"/>
<path fill-rule="evenodd" clip-rule="evenodd" d="M18.0703 13.6699C17.7103 13.8599 17.6303 14.1799 17.2803 14.2899C17.5803 14.2699 17.7003 13.9199 18.1003 13.7499L18.0703 13.6699Z" fill="#88402A"/>
<path fill-rule="evenodd" clip-rule="evenodd" d="M19.1104 13.1205L21.1704 10.6205C21.1704 10.6205 21.2104 10.5705 21.1904 10.5405C21.1604 10.5105 21.1204 10.5505 21.1204 10.5505L18.9004 12.8705L19.1104 13.1205Z" fill="#F2C549"/>
<path fill-rule="evenodd" clip-rule="evenodd" d="M19.1104 13.1307L19.1004 13.1207L21.1604 10.6207C21.1604 10.6207 21.1904 10.5807 21.1704 10.5607C21.1504 10.5407 21.1204 10.5707 21.1204 10.5707L18.9004 12.8907L21.1104 10.5507C21.1204 10.5307 21.1604 10.5107 21.1904 10.5407C21.2104 10.5707 21.1904 10.6107 21.1804 10.6307L19.1104 13.1307Z" fill="#88402A"/>
<path fill-rule="evenodd" clip-rule="evenodd" d="M19.0602 13.0596L20.4702 11.3496L18.9502 12.9396L19.0602 13.0596Z" fill="#88402A"/>
<path fill-rule="evenodd" clip-rule="evenodd" d="M19.89 12.4499C20.28 12.2899 20.39 11.9199 20.75 11.7899C21.11 11.6699 21.23 11.3599 21.34 11.2499C21.46 11.1399 21.57 11.1999 21.57 11.1499C21.57 11.0999 21.44 11.0499 21.25 11.1699C21.07 11.2899 21.07 11.4799 20.64 11.6399C20.2 11.7999 20.19 12.0799 19.79 12.1999L19.89 12.4499Z" fill="#F2C549"/>
<path fill-rule="evenodd" clip-rule="evenodd" d="M19.8898 12.4601V12.4401C20.0798 12.3601 20.2098 12.2301 20.3298 12.1001C20.4498 11.9701 20.5698 11.8401 20.7598 11.7801C20.9648 11.7018 21.135 11.5528 21.2398 11.3601L21.3398 11.2301C21.4098 11.1601 21.4798 11.1601 21.5298 11.1501C21.5598 11.1501 21.5698 11.1401 21.5698 11.1301C21.5098 11.0801 21.3998 11.0701 21.2698 11.1601C21.2098 11.2001 21.1698 11.2501 21.1298 11.3001C21.0092 11.4541 20.8456 11.5689 20.6598 11.6301C20.4398 11.7101 20.3298 11.8101 20.2198 11.9201C20.1088 12.0487 19.9629 12.1425 19.7998 12.1901C19.9998 12.1101 20.0998 12.0101 20.2098 11.9001C20.3198 11.7901 20.4298 11.6901 20.6498 11.6101C20.8316 11.5515 20.9917 11.4401 21.1098 11.2901L21.2598 11.1401C21.3898 11.0501 21.5098 11.0501 21.5698 11.0901L21.5998 11.1401C21.5998 11.1701 21.5698 11.1701 21.5398 11.1801C21.5083 11.18 21.477 11.1861 21.4478 11.1981C21.4187 11.2101 21.3922 11.2278 21.3698 11.2501C21.3324 11.2901 21.2989 11.3336 21.2698 11.3801C21.1698 11.5201 21.0398 11.7101 20.7798 11.8001C20.5998 11.8601 20.4798 11.9901 20.3598 12.1101C20.2198 12.2401 20.0898 12.3701 19.8898 12.4601Z" fill="#88402A"/>
<path fill-rule="evenodd" clip-rule="evenodd" d="M19.9302 12.3309C20.2902 12.1309 20.3702 11.8209 20.7302 11.7109C20.4302 11.7309 20.3102 12.0709 19.9102 12.2509L19.9302 12.3309Z" fill="#88402A"/>
<path fill-rule="evenodd" clip-rule="evenodd" d="M19.1095 12.8802L16.8895 10.5602C16.8895 10.5602 16.8495 10.5202 16.8295 10.5502C16.7995 10.5802 16.8395 10.6302 16.8395 10.6302L18.8995 13.1302L19.1095 12.8802Z" fill="#F2C549"/>
<path fill-rule="evenodd" clip-rule="evenodd" d="M18.8996 13.1203L16.8296 10.6303C16.8196 10.6103 16.7896 10.5703 16.8196 10.5403C16.8496 10.5103 16.8796 10.5403 16.8996 10.5503L19.1196 12.8703L19.1096 12.8903L16.8896 10.5703C16.8896 10.5703 16.8496 10.5403 16.8296 10.5603C16.8096 10.5803 16.8396 10.6203 16.8496 10.6203L18.8996 13.1203Z" fill="#88402A"/>
<path fill-rule="evenodd" clip-rule="evenodd" d="M19.06 12.9396L17.54 11.3496L18.95 13.0596L19.06 12.9396Z" fill="#88402A"/>
<path fill-rule="evenodd" clip-rule="evenodd" d="M18.5098 11.9901C18.3698 11.5501 18.0398 11.4201 17.9298 11.0201C17.8198 10.6101 17.5498 10.4801 17.4498 10.3501C17.3498 10.2201 17.4098 10.0901 17.3598 10.0801C17.3098 10.0801 17.2698 10.2401 17.3798 10.4401C17.4898 10.6401 17.6598 10.6401 17.7998 11.1301C17.9398 11.6201 18.1798 11.6401 18.2898 12.0901L18.5098 11.9901Z" fill="#F2C549"/>
<path fill-rule="evenodd" clip-rule="evenodd" d="M18.3002 12.0903C18.2466 11.9226 18.1617 11.7666 18.0502 11.6303C17.9502 11.5103 17.8602 11.3803 17.7902 11.1403C17.7002 10.8203 17.5902 10.7103 17.5002 10.6103C17.4502 10.5603 17.4102 10.5203 17.3702 10.4503C17.2902 10.2903 17.2902 10.1503 17.3202 10.1003L17.3602 10.0703C17.3802 10.0703 17.3902 10.1103 17.3902 10.1403C17.3902 10.1903 17.4002 10.2703 17.4502 10.3403L17.5702 10.4503C17.6902 10.5603 17.8602 10.7103 17.9402 11.0103C18.0002 11.2103 18.1002 11.3403 18.2202 11.4803C18.3302 11.6203 18.4502 11.7603 18.5302 11.9803L18.5102 11.9903C18.4402 11.7703 18.3202 11.6303 18.2102 11.4903C18.1002 11.3503 17.9902 11.2203 17.9302 11.0103C17.8502 10.7203 17.6802 10.5703 17.5702 10.4603L17.4502 10.3503C17.3902 10.2703 17.3902 10.1903 17.3802 10.1403C17.3802 10.1003 17.3802 10.0903 17.3602 10.0903C17.3102 10.1503 17.3102 10.2803 17.3802 10.4303C17.4202 10.5003 17.4602 10.5403 17.5102 10.5903C17.6002 10.6903 17.7102 10.8003 17.8002 11.1203C17.8602 11.3603 17.9602 11.4903 18.0502 11.6103C18.1502 11.7403 18.2402 11.8603 18.3002 12.0903Z" fill="#88402A"/>
<path fill-rule="evenodd" clip-rule="evenodd" d="M18.4096 11.9508C18.2296 11.5408 17.9496 11.4608 17.8496 11.0508C17.8696 11.3908 18.1796 11.5208 18.3296 11.9808L18.4096 11.9508Z" fill="#88402A"/>
<path fill-rule="evenodd" clip-rule="evenodd" d="M18.8896 13.1209L21.1096 15.4409C21.1096 15.4409 21.1496 15.4909 21.1796 15.4609C21.1996 15.4309 21.1596 15.3809 21.1596 15.3809L19.0996 12.8809L18.8896 13.1209Z" fill="#F2C549"/>
<path fill-rule="evenodd" clip-rule="evenodd" d="M21.1596 15.4609C21.1296 15.4609 21.1096 15.4409 21.1096 15.4409L18.8896 13.1209L18.8996 13.1009L21.1196 15.4209C21.1196 15.4209 21.1496 15.4609 21.1696 15.4409C21.1896 15.4209 21.1596 15.3809 21.1596 15.3809L19.0996 12.8809L21.1696 15.3709C21.1896 15.3909 21.2096 15.4309 21.1796 15.4609H21.1596Z" fill="#88402A"/>
<path fill-rule="evenodd" clip-rule="evenodd" d="M18.9502 13.0595L20.4702 14.6495L19.0602 12.9395L18.9502 13.0595Z" fill="#88402A"/>
<path fill-rule="evenodd" clip-rule="evenodd" d="M19.4902 14.0104C19.6402 14.4504 19.9602 14.5804 20.0702 14.9804C20.1802 15.3804 20.4502 15.5204 20.5502 15.6404C20.6502 15.7704 20.5902 15.9104 20.6402 15.9104C20.6802 15.9104 20.7302 15.7504 20.6202 15.5504C20.5102 15.3504 20.3502 15.3504 20.2102 14.8604C20.0702 14.3704 19.8202 14.3504 19.7102 13.9004L19.4902 14.0104Z" fill="#F2C549"/>
<path fill-rule="evenodd" clip-rule="evenodd" d="M20.6405 15.9202C20.6105 15.9202 20.6105 15.8802 20.6105 15.8502C20.6101 15.7791 20.5893 15.7097 20.5505 15.6502L20.4405 15.5402C20.3205 15.4302 20.1505 15.2802 20.0705 14.9802C20.0205 14.7802 19.9105 14.6502 19.7905 14.5102C19.6805 14.3702 19.5605 14.2302 19.4805 14.0102L19.5005 14.0002C19.5705 14.2202 19.6905 14.3602 19.8005 14.5002C19.9205 14.6402 20.0305 14.7702 20.0805 14.9802C20.1605 15.2702 20.3305 15.4202 20.4505 15.5302C20.5005 15.5702 20.5405 15.6002 20.5605 15.6402C20.6205 15.7202 20.6205 15.8002 20.6205 15.8502C20.6205 15.8902 20.6305 15.9002 20.6405 15.9002C20.6905 15.8302 20.7005 15.7102 20.6205 15.5602C20.5805 15.4902 20.5405 15.4502 20.5005 15.4002C20.4105 15.3002 20.3005 15.1902 20.2105 14.8702C20.1619 14.6893 20.073 14.5218 19.9505 14.3802C19.8605 14.2602 19.7705 14.1402 19.7105 13.9102C19.7805 14.1302 19.8705 14.2502 19.9705 14.3702C20.0605 14.4902 20.1605 14.6202 20.2305 14.8702C20.3205 15.1902 20.4305 15.3002 20.5205 15.3902C20.5705 15.4402 20.6105 15.4802 20.6505 15.5502C20.7305 15.7002 20.7305 15.8302 20.7005 15.8902L20.6405 15.9202Z" fill="#88402A"/>
<path fill-rule="evenodd" clip-rule="evenodd" d="M19.5898 14.0395C19.7598 14.4495 20.0398 14.5395 20.1398 14.9395C20.1198 14.5995 19.8198 14.4595 19.6598 14.0195L19.5898 14.0395Z" fill="#88402A"/>
<path fill-rule="evenodd" clip-rule="evenodd" d="M18.8602 12.9297L17.8102 16.1297C17.8102 16.1297 17.7902 16.1897 17.8202 16.1997C17.8502 16.2197 17.8802 16.1597 17.8802 16.1597L19.1402 13.0597L18.8602 12.9297Z" fill="#F2C549"/>
<path fill-rule="evenodd" clip-rule="evenodd" d="M17.8503 16.2197C17.7903 16.1997 17.8003 16.1597 17.8103 16.1297L18.8603 12.9297L18.8803 12.9397L17.8303 16.1397C17.8303 16.1397 17.8203 16.1897 17.8403 16.1997L17.8903 16.1597L19.1503 13.0597L17.9103 16.1697C17.8903 16.1697 17.8803 16.1997 17.8503 16.2197Z" fill="#88402A"/>
<path fill-rule="evenodd" clip-rule="evenodd" d="M18.94 12.9707L18.21 15.1607L19.07 13.0307L18.94 12.9707Z" fill="#88402A"/>
<path fill-rule="evenodd" clip-rule="evenodd" d="M18.3701 13.8906C18.0601 14.2106 18.0801 14.6006 17.7901 14.8706C17.5001 15.1406 17.5001 15.4706 17.4301 15.6306C17.3601 15.7806 17.2301 15.7706 17.2501 15.8206C17.2701 15.8706 17.4101 15.8506 17.5401 15.6606C17.6601 15.4706 17.6001 15.3006 17.9501 14.9606C18.3001 14.6306 18.2101 14.3606 18.5401 14.0706L18.3701 13.8906Z" fill="#F2C549"/>
<path fill-rule="evenodd" clip-rule="evenodd" d="M17.2902 15.8606H17.2802L17.2402 15.8306C17.2302 15.8006 17.2602 15.7906 17.2902 15.7706C17.3302 15.7406 17.3902 15.7106 17.4302 15.6306L17.4802 15.4706C17.5202 15.3006 17.5802 15.0706 17.8002 14.8706C17.9402 14.7306 18.0102 14.5706 18.0802 14.4006C18.1502 14.2306 18.2202 14.0506 18.3702 13.8906L18.3802 13.9106C18.2302 14.0706 18.1602 14.2406 18.0902 14.4106C18.0326 14.5889 17.9371 14.7527 17.8102 14.8906C17.6002 15.0906 17.5502 15.3106 17.5002 15.4806C17.4927 15.5364 17.4758 15.5905 17.4502 15.6406C17.4202 15.7072 17.3668 15.7606 17.3002 15.7906C17.2702 15.8106 17.2602 15.8206 17.2702 15.8306C17.3402 15.8506 17.4502 15.8106 17.5402 15.6706C17.577 15.612 17.604 15.5479 17.6202 15.4806C17.6702 15.3506 17.7102 15.2006 17.9502 14.9706C18.1202 14.8006 18.1902 14.6606 18.2502 14.5106C18.3202 14.3606 18.3802 14.2306 18.5502 14.0806C18.4002 14.2406 18.3402 14.3806 18.2702 14.5206C18.2002 14.6706 18.1402 14.8206 17.9602 14.9806C17.7302 15.2006 17.6802 15.3506 17.6402 15.4806C17.6223 15.5504 17.5954 15.6177 17.5602 15.6806C17.4502 15.8006 17.3502 15.8606 17.2902 15.8606Z" fill="#88402A"/>
<path fill-rule="evenodd" clip-rule="evenodd" d="M18.3698 14.0195C18.0998 14.3495 18.1398 14.6795 17.8398 14.9295C18.1098 14.7795 18.0998 14.4095 18.4098 14.0795L18.3698 14.0195Z" fill="#88402A"/>
<path fill-rule="evenodd" clip-rule="evenodd" d="M19.1401 13.0592L20.2001 9.85924C20.2001 9.85924 20.2201 9.79924 20.1801 9.78924C20.1501 9.76924 20.1301 9.82924 20.1301 9.82924L18.8701 12.9292L19.1401 13.0592Z" fill="#F2C549"/>
<path fill-rule="evenodd" clip-rule="evenodd" d="M19.1499 13.0693L19.1299 13.0593L20.1799 9.8593C20.1799 9.8593 20.1999 9.8093 20.1799 9.7993L20.1399 9.8393L18.8799 12.9393L20.1199 9.8293L20.1599 9.7793L20.2099 9.7993V9.8593L19.1499 13.0693Z" fill="#88402A"/>
<path fill-rule="evenodd" clip-rule="evenodd" d="M19.0704 13.0298L19.8004 10.8398L18.9404 12.9698L19.0704 13.0298Z" fill="#88402A"/>
<path fill-rule="evenodd" clip-rule="evenodd" d="M19.64 12.1002C19.94 11.7802 19.93 11.3902 20.21 11.1202C20.5 10.8502 20.5 10.5202 20.57 10.3602C20.65 10.2102 20.78 10.2202 20.76 10.1702C20.74 10.1202 20.6 10.1402 20.47 10.3202C20.34 10.5102 20.41 10.6802 20.06 11.0202C19.71 11.3502 19.79 11.6202 19.46 11.9102L19.64 12.1002Z" fill="#F2C549"/>
<path fill-rule="evenodd" clip-rule="evenodd" d="M19.6502 12.1107L19.6402 12.1007C19.7902 11.9407 19.8602 11.7707 19.9302 11.5907C20.0002 11.4207 20.0602 11.2507 20.2102 11.1107C20.4202 10.9207 20.4802 10.6907 20.5202 10.5207L20.5702 10.3607C20.6003 10.2941 20.6536 10.2408 20.7202 10.2107L20.7602 10.1707C20.6802 10.1507 20.5802 10.1907 20.4902 10.3307C20.4402 10.3907 20.4302 10.4607 20.4002 10.5207C20.3485 10.7195 20.2368 10.8976 20.0802 11.0307C19.9102 11.1907 19.8402 11.3407 19.7802 11.4807C19.7202 11.6307 19.6502 11.7707 19.4902 11.9107C19.6402 11.7507 19.7002 11.6107 19.7702 11.4707C19.8302 11.3307 19.9002 11.1807 20.0702 11.0107C20.3002 10.7907 20.3402 10.6407 20.3902 10.5107C20.4118 10.4405 20.442 10.3734 20.4802 10.3107C20.5702 10.1707 20.6802 10.1107 20.7402 10.1307L20.7802 10.1607C20.7902 10.1907 20.7602 10.2007 20.7402 10.2207C20.7002 10.2407 20.6402 10.2707 20.6002 10.3607L20.5502 10.5207C20.5102 10.6907 20.4502 10.9207 20.2302 11.1207C20.0902 11.2507 20.0302 11.4207 19.9502 11.5907C19.8702 11.7707 19.8002 11.9507 19.6502 12.1107Z" fill="#88402A"/>
<path fill-rule="evenodd" clip-rule="evenodd" d="M19.6301 11.9805C19.9001 11.6405 19.8601 11.3205 20.1601 11.0605C19.8801 11.2105 19.8901 11.5805 19.5801 11.9105L19.6301 11.9805Z" fill="#88402A"/>
<path fill-rule="evenodd" clip-rule="evenodd" d="M19.0598 12.8391L16.2198 11.6491C16.2198 11.6491 16.1698 11.6291 16.1498 11.6591C16.1398 11.6991 16.1898 11.7191 16.1898 11.7191L18.9398 13.1391L19.0598 12.8391Z" fill="#F2C549"/>
<path fill-rule="evenodd" clip-rule="evenodd" d="M18.95 13.1496L16.2 11.7496C16.18 11.7396 16.14 11.7096 16.15 11.6696C16.17 11.6296 16.21 11.6396 16.23 11.6496L19.07 12.8296V12.8496L16.23 11.6696C16.23 11.6696 16.18 11.6496 16.17 11.6796C16.16 11.7096 16.2 11.7296 16.2 11.7296L18.95 13.1496Z" fill="#88402A"/>
<path fill-rule="evenodd" clip-rule="evenodd" d="M19.0301 12.9196L17.0801 12.0996L18.9701 13.0796L19.0301 12.9196Z" fill="#88402A"/>
<path fill-rule="evenodd" clip-rule="evenodd" d="M18.21 12.2794C17.93 11.9294 17.58 11.9594 17.34 11.6294C17.1 11.3094 16.81 11.2994 16.67 11.2294C16.53 11.1494 16.54 10.9994 16.5 11.0194C16.46 11.0394 16.47 11.1994 16.64 11.3394C16.8 11.4794 16.96 11.4094 17.26 11.7994C17.56 12.1994 17.79 12.0994 18.05 12.4694L18.21 12.2794Z" fill="#F2C549"/>
<path fill-rule="evenodd" clip-rule="evenodd" d="M18.0402 12.46C17.9002 12.28 17.7802 12.22 17.6502 12.15C17.5202 12.07 17.3902 12 17.2402 11.8C17.0502 11.54 16.9102 11.49 16.8002 11.44C16.7344 11.4185 16.6733 11.3846 16.6202 11.34C16.5002 11.24 16.4502 11.11 16.4602 11.04L16.4902 11C16.5102 10.99 16.5302 11.02 16.5502 11.05C16.5702 11.09 16.6002 11.16 16.6802 11.21L16.8102 11.26C16.9602 11.31 17.1702 11.38 17.3502 11.62C17.4702 11.78 17.6102 11.85 17.7702 11.93C17.9302 12.01 18.0802 12.09 18.2302 12.26L18.2102 12.27C18.0702 12.1 17.9102 12.02 17.7702 11.94C17.6102 11.86 17.4702 11.78 17.3402 11.62C17.1702 11.38 16.9602 11.32 16.8102 11.27L16.6702 11.22C16.6061 11.1828 16.5593 11.1217 16.5402 11.05C16.5302 11.02 16.5202 11 16.5102 11.01C16.4902 11.09 16.5302 11.21 16.6502 11.32C16.7102 11.37 16.7602 11.39 16.8202 11.41C16.9402 11.46 17.0702 11.51 17.2702 11.77C17.4102 11.97 17.5502 12.04 17.6702 12.11C17.7902 12.21 17.9202 12.28 18.0402 12.46Z" fill="#88402A"/>
<path fill-rule="evenodd" clip-rule="evenodd" d="M18.1 12.2892C17.8 11.9892 17.51 12.0192 17.29 11.6992C17.43 12.0092 17.75 11.9992 18.05 12.3492L18.1 12.2892Z" fill="#88402A"/>
<path fill-rule="evenodd" clip-rule="evenodd" d="M18.9404 13.1594L21.7704 14.3494C21.7704 14.3494 21.8204 14.3794 21.8404 14.3394C21.8604 14.2994 21.8004 14.2794 21.8004 14.2794L19.0504 12.8594L18.9404 13.1594Z" fill="#F2C549"/>
<path fill-rule="evenodd" clip-rule="evenodd" d="M21.8097 14.3596L21.7697 14.3496L18.9297 13.1596L18.9397 13.1396L21.7797 14.3296C21.7797 14.3296 21.8197 14.3496 21.8297 14.3196C21.8397 14.2896 21.7997 14.2696 21.7997 14.2696L19.0497 12.8496L21.8097 14.2496C21.8297 14.2596 21.8697 14.2896 21.8497 14.3296C21.8497 14.3496 21.8297 14.3596 21.8097 14.3596Z" fill="#88402A"/>
<path fill-rule="evenodd" clip-rule="evenodd" d="M18.9697 13.0799L20.9197 13.8899L19.0297 12.9199L18.9697 13.0799Z" fill="#88402A"/>
<path fill-rule="evenodd" clip-rule="evenodd" d="M19.79 13.7195C20.08 14.0695 20.42 14.0495 20.66 14.3695C20.9 14.6995 21.19 14.6995 21.33 14.7695C21.47 14.8495 21.46 14.9995 21.51 14.9795C21.55 14.9595 21.54 14.7995 21.37 14.6495C21.2 14.5095 21.05 14.5895 20.76 14.1995C20.46 13.8095 20.23 13.8995 19.97 13.5195L19.79 13.7195Z" fill="#F2C549"/>
<path fill-rule="evenodd" clip-rule="evenodd" d="M21.5 14.9895C21.48 14.9895 21.47 14.9595 21.45 14.9295C21.427 14.8654 21.3852 14.8096 21.33 14.7695C21.2857 14.7469 21.2387 14.7301 21.19 14.7195C21.04 14.6695 20.83 14.5995 20.66 14.3695C20.5493 14.2315 20.4046 14.1247 20.24 14.0595C20.09 13.9795 19.93 13.8995 19.79 13.7295L19.8 13.7095C19.94 13.8795 20.1 13.9595 20.25 14.0395C20.4 14.1195 20.55 14.1895 20.67 14.3595C20.84 14.5995 21.05 14.6595 21.19 14.7095L21.33 14.7595C21.41 14.8095 21.44 14.8795 21.46 14.9195C21.47 14.9595 21.48 14.9695 21.49 14.9595C21.51 14.8795 21.48 14.7595 21.35 14.6495C21.3002 14.6081 21.2423 14.5775 21.18 14.5595C21.06 14.5095 20.93 14.4595 20.73 14.1895C20.6267 14.045 20.4893 13.9282 20.33 13.8495C20.1757 13.7761 20.0444 13.662 19.95 13.5195C20.09 13.6895 20.21 13.7595 20.34 13.8395C20.47 13.9095 20.6 13.9895 20.75 14.1795C20.94 14.4395 21.07 14.4895 21.19 14.5395C21.2528 14.5612 21.3106 14.5952 21.36 14.6395C21.5 14.7495 21.53 14.8795 21.52 14.9395L21.5 14.9795V14.9895Z" fill="#88402A"/>
<path fill-rule="evenodd" clip-rule="evenodd" d="M19.9004 13.7104C20.1904 14.0204 20.4804 13.9704 20.7104 14.3004C20.5704 13.9904 20.2504 14.0004 19.9604 13.6504L19.9004 13.7104Z" fill="#88402A"/>
<path fill-rule="evenodd" clip-rule="evenodd" d="M18.9398 12.8398L16.1898 14.2598C16.1898 14.2598 16.1398 14.2798 16.1498 14.3198C16.1698 14.3598 16.2198 14.3298 16.2198 14.3298L19.0598 13.1398L18.9398 12.8398Z" fill="#F2C549"/>
<path fill-rule="evenodd" clip-rule="evenodd" d="M16.1897 14.3601C16.1792 14.3609 16.1688 14.3585 16.1598 14.3531C16.1509 14.3477 16.1438 14.3397 16.1397 14.3301C16.1297 14.2901 16.1597 14.2601 16.1897 14.2501L18.9397 12.8301L18.9497 12.8501L16.1997 14.2701C16.1997 14.2701 16.1597 14.2901 16.1697 14.3201C16.1797 14.3501 16.2197 14.3301 16.2297 14.3301L19.0697 13.1401L16.2397 14.3401L16.1897 14.3601Z" fill="#88402A"/>
<path fill-rule="evenodd" clip-rule="evenodd" d="M18.9701 12.9199L17.0801 13.8899L19.0301 13.0799L18.9701 12.9199Z" fill="#88402A"/>
<path fill-rule="evenodd" clip-rule="evenodd" d="M17.9902 13.1201C17.5702 13.1001 17.3402 13.3901 16.9702 13.3601C16.6002 13.3201 16.3902 13.5501 16.2502 13.6101C16.1002 13.6601 16.0202 13.5501 16.0002 13.6001C15.9802 13.6501 16.1002 13.7501 16.3002 13.7201C16.5102 13.6901 16.5702 13.5101 17.0202 13.5501C17.4802 13.5901 17.5802 13.3401 18.0002 13.4001V13.1201H17.9902Z" fill="#F2C549"/>
<path fill-rule="evenodd" clip-rule="evenodd" d="M16.2105 13.7302C16.0905 13.7302 16.0105 13.6802 15.9905 13.6402L15.9805 13.5902C16.0005 13.5602 16.0205 13.5702 16.0505 13.5902C16.0905 13.6102 16.1605 13.6302 16.2305 13.6002L16.3705 13.5302C16.5105 13.4402 16.6905 13.3302 16.9705 13.3502C17.1605 13.3702 17.3105 13.3102 17.4605 13.2402C17.6205 13.1702 17.7805 13.1102 17.9905 13.1202V13.1402C17.7905 13.1302 17.6205 13.2002 17.4605 13.2602C17.3076 13.3435 17.1342 13.3816 16.9605 13.3702C16.75 13.356 16.5411 13.4162 16.3705 13.5402L16.2405 13.6102C16.2081 13.6219 16.1738 13.627 16.1395 13.6253C16.1051 13.6235 16.0715 13.615 16.0405 13.6002H16.0005C16.0405 13.6802 16.1305 13.7302 16.2905 13.7102C16.3605 13.7002 16.4105 13.6702 16.4705 13.6402C16.5905 13.5802 16.7105 13.5102 17.0205 13.5402C17.1912 13.5569 17.3634 13.5294 17.5205 13.4602C17.6605 13.4102 17.7905 13.3602 18.0005 13.3902C17.7805 13.3802 17.6605 13.4302 17.5205 13.4802C17.3805 13.5302 17.2405 13.5802 17.0105 13.5602C16.8243 13.5288 16.633 13.5642 16.4705 13.6602C16.4105 13.6902 16.3605 13.7202 16.2905 13.7302H16.2105Z" fill="#88402A"/>
<path fill-rule="evenodd" clip-rule="evenodd" d="M17.9197 13.2109C17.5197 13.2309 17.3397 13.4909 16.9697 13.4409C17.2597 13.5509 17.4797 13.2909 17.9097 13.3009L17.9197 13.2109Z" fill="#88402A"/>
<path fill-rule="evenodd" clip-rule="evenodd" d="M19.0602 13.161L21.8102 11.741C21.8102 11.741 21.8602 11.721 21.8502 11.681C21.8302 11.641 21.7802 11.671 21.7802 11.671L18.9502 12.861L19.0602 13.161Z" fill="#F2C549"/>
<path fill-rule="evenodd" clip-rule="evenodd" d="M19.0604 13.1696L19.0504 13.1496L21.8004 11.7296C21.8004 11.7296 21.8504 11.7096 21.8304 11.6796C21.8204 11.6496 21.7804 11.6696 21.7804 11.6696L18.9404 12.8496L21.7704 11.6496C21.7904 11.6396 21.8404 11.6296 21.8504 11.6696C21.8704 11.7096 21.8304 11.7396 21.8104 11.7496L19.0604 13.1696Z" fill="#88402A"/>
<path fill-rule="evenodd" clip-rule="evenodd" d="M19.0297 13.0796L20.9197 12.0996L18.9697 12.9196L19.0297 13.0796Z" fill="#88402A"/>
<path fill-rule="evenodd" clip-rule="evenodd" d="M20.0098 12.8709C20.4198 12.8909 20.6598 12.6009 21.0298 12.6409C21.3998 12.6809 21.6098 12.4509 21.7598 12.3909C21.9098 12.3409 21.9898 12.4509 22.0198 12.4009C22.0398 12.3509 21.9198 12.2509 21.7198 12.2809C21.5198 12.3209 21.4498 12.4909 20.9998 12.4509C20.5498 12.4109 20.4398 12.6609 20.0198 12.6009V12.8709H20.0098Z" fill="#F2C549"/>
<path fill-rule="evenodd" clip-rule="evenodd" d="M20.05 12.8902H20.01V12.8702C20.21 12.8802 20.37 12.8102 20.53 12.7502C20.6833 12.668 20.8564 12.6299 21.03 12.6402C21.3 12.6702 21.48 12.5502 21.62 12.4702L21.75 12.4002C21.7823 12.3886 21.8167 12.3835 21.851 12.3852C21.8853 12.3869 21.919 12.3954 21.95 12.4102L22 12.4202C21.97 12.3502 21.87 12.2902 21.71 12.3102C21.64 12.3202 21.59 12.3502 21.53 12.3802C21.41 12.4402 21.29 12.5102 20.98 12.4802C20.76 12.4602 20.61 12.5102 20.48 12.5602C20.34 12.6102 20.21 12.6602 20 12.6302C20.21 12.6402 20.34 12.5902 20.47 12.5402C20.61 12.4902 20.75 12.4402 20.98 12.4602C21.1662 12.4916 21.3574 12.4562 21.52 12.3602C21.58 12.3302 21.63 12.3002 21.7 12.2902C21.86 12.2602 21.97 12.3102 22 12.3702L22.01 12.4202C22 12.4502 21.97 12.4402 21.94 12.4302C21.9109 12.4151 21.8789 12.4064 21.8461 12.4046C21.8133 12.4029 21.7806 12.4082 21.75 12.4202C21.71 12.4302 21.67 12.4602 21.62 12.4902C21.4468 12.6178 21.2348 12.6814 21.02 12.6702C20.84 12.6502 20.69 12.7202 20.53 12.7802C20.4 12.8202 20.24 12.8902 20.05 12.8902Z" fill="#88402A"/>
<path fill-rule="evenodd" clip-rule="evenodd" d="M20.0898 12.7799C20.4898 12.7599 20.6698 12.4999 21.0298 12.5499C20.7398 12.4399 20.5198 12.7099 20.0898 12.6899V12.7799Z" fill="#88402A"/>
<path fill-rule="evenodd" clip-rule="evenodd" d="M19.1402 12.9292L17.8802 9.82924C17.8802 9.82924 17.8602 9.76924 17.8202 9.78924C17.7902 9.80924 17.8102 9.85924 17.8102 9.85924L18.8602 13.0592L19.1402 12.9292Z" fill="#F2C549"/>
<path fill-rule="evenodd" clip-rule="evenodd" d="M18.8698 13.0593L17.7998 9.8693V9.8093L17.8498 9.7793C17.8798 9.7893 17.8898 9.8293 17.8898 9.8293L19.1498 12.9293L19.1298 12.9393L17.8498 9.7893L17.8298 9.7993L17.8198 9.8593L18.8698 13.0593Z" fill="#88402A"/>
<path fill-rule="evenodd" clip-rule="evenodd" d="M19.07 12.9698L18.21 10.8398L18.94 13.0298L19.07 12.9698Z" fill="#88402A"/>
<path fill-rule="evenodd" clip-rule="evenodd" d="M18.8905 11.8594C18.9105 11.3894 18.6505 11.1294 18.6805 10.7094C18.7105 10.2894 18.5105 10.0494 18.4605 9.88944C18.4205 9.71944 18.5105 9.62944 18.4705 9.60944C18.4205 9.58944 18.3305 9.71944 18.3605 9.94944C18.3905 10.1794 18.5505 10.2494 18.5105 10.7694C18.4805 11.2794 18.7005 11.3994 18.6405 11.8694L18.8905 11.8594Z" fill="#F2C549"/>
<path fill-rule="evenodd" clip-rule="evenodd" d="M18.9002 11.8603H18.8802C18.8902 11.6303 18.8302 11.4503 18.7702 11.2703C18.7102 11.0903 18.6502 10.9203 18.6702 10.7103C18.7002 10.4003 18.5902 10.2003 18.5202 10.0403L18.4502 9.89031C18.4202 9.79031 18.4502 9.71031 18.4602 9.66031V9.60031C18.3902 9.64031 18.3502 9.75031 18.3602 9.93031C18.3702 10.0103 18.4002 10.0703 18.4202 10.1303C18.4702 10.2603 18.5402 10.4003 18.5102 10.7503C18.4902 11.0003 18.5402 11.1603 18.5802 11.3103C18.6202 11.4703 18.6702 11.6103 18.6402 11.8503C18.6502 11.6203 18.6102 11.4703 18.5602 11.3103C18.5202 11.1603 18.4702 11.0003 18.4902 10.7403C18.5102 10.4003 18.4602 10.2603 18.4002 10.1303C18.3685 10.0642 18.3482 9.9932 18.3402 9.92031C18.3202 9.74031 18.3602 9.62031 18.4102 9.58031L18.4602 9.57031C18.4902 9.58031 18.4802 9.61031 18.4602 9.65031C18.4307 9.7166 18.4272 9.79153 18.4502 9.86031L18.5202 10.0103C18.5902 10.1603 18.7002 10.3803 18.6802 10.6903C18.6602 10.9003 18.7202 11.0703 18.7802 11.2403C18.8502 11.4403 18.9102 11.6203 18.9002 11.8603Z" fill="#88402A"/>
<path fill-rule="evenodd" clip-rule="evenodd" d="M18.8104 11.7809C18.7904 11.3309 18.5604 11.1309 18.6104 10.7109C18.5104 11.0309 18.7504 11.2909 18.7404 11.7709L18.8104 11.7809Z" fill="#88402A"/>
<path fill-rule="evenodd" clip-rule="evenodd" d="M18.8604 13.0597L20.1204 16.1597C20.1204 16.1597 20.1404 16.2197 20.1704 16.1997C20.2104 16.1897 20.1904 16.1297 20.1904 16.1297L19.1304 12.9297L18.8604 13.0597Z" fill="#F2C549"/>
<path fill-rule="evenodd" clip-rule="evenodd" d="M20.1796 16.2195C20.1296 16.2095 20.1096 16.1695 20.1096 16.1695L18.8496 13.0695L18.8696 13.0595L20.1296 16.1595C20.1296 16.1595 20.1496 16.2095 20.1696 16.1995C20.1996 16.1895 20.1696 16.1395 20.1696 16.1395L19.1196 12.9395L20.1896 16.1295C20.2096 16.1495 20.2196 16.1995 20.1796 16.2195Z" fill="#88402A"/>
<path fill-rule="evenodd" clip-rule="evenodd" d="M18.9404 13.0307L19.8004 15.1607L19.0704 12.9707L18.9404 13.0307Z" fill="#88402A"/>
<path fill-rule="evenodd" clip-rule="evenodd" d="M19.1105 14.1409C19.0905 14.6109 19.3505 14.8709 19.3205 15.2909C19.2905 15.7109 19.4905 15.9509 19.5405 16.1109C19.5905 16.2709 19.4905 16.3709 19.5305 16.3909C19.5705 16.4109 19.6605 16.2809 19.6405 16.0509C19.6105 15.8209 19.4505 15.7509 19.4905 15.2309C19.5305 14.7209 19.3105 14.6009 19.3605 14.1309L19.1105 14.1409Z" fill="#F2C549"/>
<path fill-rule="evenodd" clip-rule="evenodd" d="M19.5296 16.4106C19.4996 16.3906 19.5096 16.3606 19.5296 16.3306C19.5396 16.2806 19.5696 16.2106 19.5396 16.1206L19.4696 15.9706C19.3996 15.8206 19.2896 15.6106 19.3096 15.2906C19.3296 15.0806 19.2696 14.9206 19.2196 14.7406C19.1596 14.5606 19.0996 14.3806 19.0996 14.1406H19.1196C19.1096 14.3706 19.1696 14.5606 19.2296 14.7306C19.2896 14.9106 19.3496 15.0806 19.3296 15.2906C19.3096 15.5906 19.4096 15.8006 19.4796 15.9606L19.5496 16.1106C19.5796 16.2106 19.5596 16.2806 19.5396 16.3406V16.3906C19.5996 16.3506 19.6496 16.2406 19.6296 16.0606C19.6217 15.9909 19.6013 15.9232 19.5696 15.8606C19.5196 15.7306 19.4596 15.5906 19.4796 15.2406C19.4996 14.9906 19.4496 14.8306 19.4096 14.6806C19.3696 14.5206 19.3196 14.3806 19.3496 14.1406C19.3396 14.3806 19.3896 14.5206 19.4296 14.6806C19.4696 14.8306 19.5196 14.9906 19.4996 15.2506C19.4796 15.5906 19.5396 15.7306 19.5896 15.8606L19.6596 16.0706C19.6796 16.2406 19.6396 16.3706 19.5896 16.4106H19.5296Z" fill="#88402A"/>
<path fill-rule="evenodd" clip-rule="evenodd" d="M19.1904 14.2207C19.2104 14.6707 19.4404 14.8707 19.3904 15.2907C19.4904 14.9607 19.2504 14.7107 19.2704 14.2307L19.1904 14.2207Z" fill="#88402A"/>
<path fill-rule="evenodd" clip-rule="evenodd" d="M18.9995 11.6094C19.6795 11.6094 20.2295 12.2294 20.2295 12.9994C20.2295 13.7694 19.6795 14.3894 18.9995 14.3894C18.3195 14.3894 17.7695 13.7694 17.7695 12.9994C17.7695 12.2294 18.3195 11.6094 18.9995 11.6094Z" fill="#F2C549"/>
<path fill-rule="evenodd" clip-rule="evenodd" d="M18.9998 11.6196C18.3298 11.6196 17.7698 12.2396 17.7698 12.9996C17.7698 13.7596 18.3198 14.3796 18.9998 14.3796C19.6798 14.3796 20.2198 13.7596 20.2198 12.9996C20.2198 12.2396 19.6798 11.6196 18.9998 11.6196ZM18.9998 14.3996C18.3198 14.3996 17.7598 13.7696 17.7598 12.9996C17.7598 12.2296 18.3198 11.5996 18.9998 11.5996C19.6798 11.5996 20.2398 12.2296 20.2398 12.9996C20.2398 13.7696 19.6898 14.3996 18.9998 14.3996Z" fill="#88402A"/>
<path fill-rule="evenodd" clip-rule="evenodd" d="M19.7801 12.7009C19.5601 12.4909 19.2901 12.4609 19.1301 12.6209C19.0201 12.7809 19.0301 12.9809 19.1601 13.1809C19.1451 13.1836 19.1313 13.1905 19.1201 13.2009C19.0292 13.0106 19.0114 12.7935 19.0701 12.5909C19.2901 12.4009 19.5701 12.3809 19.7801 12.7009Z" fill="#88402A"/>
<path fill-rule="evenodd" clip-rule="evenodd" d="M19.4399 12.6309C19.3099 12.6309 19.2899 12.6609 19.2299 12.7209C19.1699 12.7709 19.1399 12.7609 19.1299 12.7809C19.1199 12.7909 19.1299 12.8209 19.1499 12.8109C19.1699 12.8009 19.2099 12.7809 19.2699 12.7209C19.3199 12.6709 19.3799 12.6709 19.4399 12.6709C19.6099 12.6709 19.6999 12.8309 19.7199 12.8209C19.7399 12.8109 19.6299 12.6309 19.4399 12.6309Z" fill="#88402A"/>
<path fill-rule="evenodd" clip-rule="evenodd" d="M19.65 12.8201C19.53 12.6701 19.3 12.6601 19.21 12.8301H19.25C19.35 12.6601 19.58 12.7301 19.59 12.8101V12.8301L19.65 12.8201Z" fill="#88402A"/>
<path fill-rule="evenodd" clip-rule="evenodd" d="M19.4201 12.7109C19.4601 12.7109 19.5101 12.7509 19.5101 12.8109C19.5101 12.8609 19.4701 12.9109 19.4201 12.9109C19.3701 12.9109 19.3301 12.8709 19.3301 12.8109C19.3301 12.7509 19.3701 12.7109 19.4201 12.7109Z" fill="#88402A"/>
<path fill-rule="evenodd" clip-rule="evenodd" d="M19.21 12.8305C19.3 12.9205 19.51 12.9405 19.65 12.8205L19.59 12.8105C19.5708 12.8369 19.5461 12.8588 19.5175 12.8744C19.4889 12.8901 19.4572 12.8992 19.4247 12.9011C19.3922 12.903 19.3596 12.8977 19.3294 12.8855C19.2992 12.8733 19.272 12.8545 19.25 12.8305V12.8105L19.21 12.8305Z" fill="#88402A"/>
<path fill-rule="evenodd" clip-rule="evenodd" d="M19.6705 12.8696C19.5105 13.0096 19.3505 12.9996 19.2505 12.9396C19.1605 12.8696 19.1605 12.8496 19.1805 12.8496L19.2905 12.9096C19.3605 12.9496 19.4805 12.9496 19.6705 12.8696ZM19.2005 13.1896C19.2305 13.1996 19.2505 13.2396 19.2305 13.2696C19.2205 13.2996 19.1905 13.3196 19.1605 13.3096C19.1305 13.2996 19.1205 13.2796 19.1205 13.2496C19.1105 13.2696 19.0705 13.3296 19.0005 13.3296H18.9805L19.0005 13.3696C19.0205 13.3696 19.0705 13.3696 19.1105 13.3396C19.1405 13.3796 19.1905 13.3996 19.2305 13.3696C19.2705 13.3396 19.2805 13.2796 19.2505 13.2296L19.2005 13.1896ZM19.3105 13.6396C19.2305 13.5796 19.1905 13.4796 19.0905 13.4796C19.0584 13.4818 19.0274 13.4922 19.0005 13.5096H18.9805L19.0005 13.5396C19.0405 13.5396 19.0905 13.4896 19.1605 13.5296L19.3105 13.6396ZM19.2905 13.6396C19.1005 13.5796 19.0605 13.6196 19.0005 13.6196H18.9805L19.0005 13.6596C19.0805 13.6596 19.1105 13.5996 19.2905 13.6396Z" fill="#88402A"/>
<path fill-rule="evenodd" clip-rule="evenodd" d="M19.3097 13.6409C19.1097 13.6209 19.1697 13.7609 18.9997 13.7609H18.9797L18.9997 13.7909C19.2097 13.7909 19.1097 13.6609 19.3097 13.6409ZM19.1697 13.9809C19.1697 13.8809 19.0897 13.7909 18.9997 13.7909C18.9097 13.7909 18.8297 13.8809 18.8297 13.9809C18.8497 13.8709 18.9497 13.8109 19.0397 13.8409C19.1097 13.8509 19.1597 13.9109 19.1697 13.9809ZM18.2197 12.7009C18.4397 12.4909 18.7097 12.4609 18.8697 12.6209C18.9797 12.7809 18.9697 12.9809 18.8397 13.1809L18.8797 13.2009C18.9697 13.0009 18.9897 12.7909 18.9297 12.5909C18.7197 12.4009 18.4297 12.3809 18.2197 12.7009Z" fill="#88402A"/>
<path fill-rule="evenodd" clip-rule="evenodd" d="M18.5697 12.6309C18.6897 12.6309 18.7197 12.6609 18.7797 12.7209C18.8397 12.7709 18.8597 12.7609 18.8797 12.7809C18.8897 12.7909 18.8797 12.8209 18.8597 12.8109C18.8185 12.7869 18.7814 12.7565 18.7497 12.7209C18.6897 12.6709 18.6397 12.6709 18.5797 12.6709C18.4097 12.6709 18.3197 12.8309 18.2897 12.8209C18.2597 12.8109 18.3797 12.6309 18.5697 12.6309Z" fill="#88402A"/>
<path fill-rule="evenodd" clip-rule="evenodd" d="M18.3496 12.8201C18.4696 12.6701 18.6996 12.6601 18.7996 12.8301H18.7596C18.6696 12.6601 18.4396 12.7301 18.4196 12.8101V12.8301L18.3496 12.8201Z" fill="#88402A"/>
<path fill-rule="evenodd" clip-rule="evenodd" d="M18.59 12.7109C18.54 12.7109 18.5 12.7509 18.5 12.8109C18.5 12.8609 18.54 12.9109 18.59 12.9109C18.63 12.9109 18.67 12.8709 18.67 12.8109C18.67 12.7509 18.63 12.7109 18.59 12.7109Z" fill="#88402A"/>
<path fill-rule="evenodd" clip-rule="evenodd" d="M18.7898 12.8305C18.6898 12.9205 18.4898 12.9405 18.3398 12.8205L18.4098 12.8105C18.4998 12.9305 18.6498 12.9205 18.7498 12.8305V12.8105L18.7898 12.8305Z" fill="#88402A"/>
<path fill-rule="evenodd" clip-rule="evenodd" d="M18.3398 12.8696C18.4998 13.0096 18.6598 12.9996 18.7598 12.9396C18.8598 12.8696 18.8498 12.8496 18.8398 12.8496L18.7298 12.9096C18.6398 12.9496 18.5298 12.9496 18.3398 12.8696ZM18.7998 13.1896C18.7698 13.1996 18.7598 13.2396 18.7698 13.2696C18.7798 13.2996 18.8098 13.3196 18.8398 13.3096C18.8513 13.3042 18.8611 13.2957 18.8682 13.2852C18.8752 13.2746 18.8792 13.2623 18.8798 13.2496C18.8898 13.2696 18.9298 13.3296 18.9998 13.3296H19.0198L18.9998 13.3696C18.9798 13.3696 18.9298 13.3696 18.8898 13.3396C18.8598 13.3796 18.8098 13.3996 18.7698 13.3696C18.7298 13.3396 18.7198 13.2796 18.7398 13.2296C18.7573 13.2127 18.7776 13.1992 18.7998 13.1896ZM18.6898 13.6396C18.7798 13.5796 18.8098 13.4796 18.9098 13.4796L19.0098 13.5096H19.0298L18.9998 13.5396C18.9598 13.5396 18.8998 13.4896 18.8398 13.5296L18.6898 13.6396ZM18.7198 13.6396C18.9098 13.5796 18.9498 13.6196 19.0098 13.6196H19.0298L18.9998 13.6596C18.9298 13.6596 18.8898 13.5996 18.7198 13.6396Z" fill="#88402A"/>
<path fill-rule="evenodd" clip-rule="evenodd" d="M18.6904 13.6406C18.9004 13.6206 18.8304 13.7606 19.0004 13.7606H19.0204L19.0004 13.7906C18.7904 13.7906 18.8904 13.6606 18.6904 13.6406ZM18.8304 13.9806C18.8304 13.8806 18.9104 13.7906 19.0004 13.7906C19.0904 13.7906 19.1704 13.8806 19.1704 13.9806C19.1504 13.8706 19.0504 13.8106 18.9604 13.8406C18.9272 13.8483 18.8971 13.8657 18.8739 13.8906C18.8507 13.9156 18.8356 13.947 18.8304 13.9806Z" fill="#88402A"/>
</g>
</g>
<defs>
<clipPath id="clip0_26003_72921">
<rect width="38" height="25" fill="white" transform="translate(0 0.5)"/>
</clipPath>
<clipPath id="clip1_26003_72921">
<rect width="38" height="25" fill="white" transform="translate(0 0.5)"/>
</clipPath>
</defs>
</svg>
