<svg width="39" height="26" viewBox="0 0 39 26" fill="none" xmlns="http://www.w3.org/2000/svg">
<g clip-path="url(#clip0_26003_53604)">
<g clip-path="url(#clip1_26003_53604)">
<path d="M0.745117 16.8809V21.6309C0.745117 23.6309 2.39512 25.2109 4.42512 25.2109H35.0751C35.5522 25.2188 36.0261 25.1323 36.4696 24.9565C36.9132 24.7806 37.3176 24.5188 37.6596 24.1861C38.0016 23.8534 38.2744 23.4564 38.4624 23.0178C38.6504 22.5793 38.7499 22.108 38.7551 21.6309V16.8809H0.745117Z" fill="#D32030"/>
<path d="M35.0651 25.2114C35.5422 25.2194 36.0161 25.1329 36.4596 24.9571C36.9032 24.7812 37.3076 24.5194 37.6496 24.1867C37.9916 23.854 38.2644 23.4569 38.4524 23.0184C38.6404 22.5799 38.7399 22.1085 38.7451 21.6314V16.8814H24.8951L35.0651 25.2114ZM35.0651 0.211438H4.42512C3.94805 0.203502 3.47413 0.289952 3.03059 0.465819C2.58706 0.641685 2.18267 0.903497 1.84067 1.2362C1.49868 1.5689 1.22583 1.96593 1.03781 2.40445C0.849794 2.84297 0.750323 3.31434 0.745117 3.79144V8.54144H38.7451V3.79144C38.7451 1.79144 37.0951 0.211438 35.0651 0.211438Z" fill="#D32030"/>
<path d="M35.0648 0.210938H4.4248L14.5948 8.54094H38.7448V3.79094C38.7448 1.79094 37.0948 0.210938 35.0648 0.210938Z" fill="#D32030"/>
<path d="M35.0648 0.210938H4.4248L32.8048 8.54094H38.7448V3.79094C38.7448 1.79094 37.0948 0.210938 35.0648 0.210938Z" fill="#D32030"/>
<path d="M0.745117 4.85156V20.5716H38.7451V4.85156H0.745117Z" fill="#FFD034"/>
<path d="M14.535 8.43156L24.955 16.9916L29.365 20.5716H38.745V4.85156H10.125L14.535 8.43156Z" fill="#FFD034"/>
<path d="M20.2949 4.85156L32.4949 8.43156L38.7449 10.2516V4.85156H20.2949Z" fill="#FFD034"/>
<path d="M38.7451 21.6305C38.7451 23.6305 37.0951 25.2105 35.0651 25.2105H4.42512C3.94805 25.2184 3.47413 25.132 3.03059 24.9561C2.58706 24.7802 2.18267 24.5184 1.84067 24.1857C1.49868 23.853 1.22583 23.456 1.03781 23.0175C0.849794 22.5789 0.750323 22.1076 0.745117 21.6305M6.07512 12.4805V14.9405C6.07512 16.1705 7.11512 17.1705 8.40512 17.1705C9.69512 17.1705 10.7351 16.1705 10.7351 14.9405V12.4805H6.07512ZM11.2851 12.8305H12.0251V16.2305H11.2851V12.8305ZM12.3251 16.6405C12.2651 16.5805 12.2051 16.5805 12.0751 16.5805C12.0151 16.5805 11.8951 16.5805 11.8251 16.6405C11.7651 16.7005 11.7051 16.7005 11.5751 16.7005C11.5151 16.7005 11.3951 16.7005 11.3251 16.6405C11.2651 16.6405 11.2051 16.5805 11.0751 16.5805C10.9551 16.5805 10.8951 16.5805 10.8251 16.6405C10.7651 16.7005 10.7051 16.7005 10.5751 16.7005V16.8205C10.6351 16.8205 10.7551 16.8205 10.8251 16.7605C10.8851 16.7605 10.9451 16.7005 11.0751 16.7005C11.1951 16.7005 11.2551 16.7005 11.3251 16.7605C11.3851 16.8205 11.4451 16.8205 11.5751 16.8205C11.6351 16.8205 11.7551 16.8205 11.8251 16.7605C11.8851 16.7605 11.9451 16.7005 12.0751 16.7005C12.1351 16.7005 12.2551 16.7005 12.3251 16.7605C12.3851 16.8205 12.5051 16.8205 12.5751 16.8205V16.7005C12.5151 16.7005 12.3951 16.7005 12.3251 16.6405ZM12.1451 16.8805C12.0851 16.8805 11.9651 16.8805 11.8951 16.9405C11.8351 17.0005 11.7751 17.0005 11.6451 17.0005C11.5851 17.0005 11.4651 17.0005 11.3951 16.9405C11.3351 16.9405 11.2751 16.8805 11.1451 16.8805C11.0251 16.8805 10.9651 16.8805 10.8951 16.9405C10.8351 17.0005 10.7751 17.0005 10.6451 17.0005V17.1205C10.7051 17.1205 10.8251 17.1205 10.8951 17.0605C10.9551 17.0605 11.0151 17.0005 11.1451 17.0005C11.2651 17.0005 11.3251 17.0005 11.3951 17.0605C11.4551 17.1205 11.5151 17.1205 11.6451 17.1205C11.7051 17.1205 11.8251 17.1205 11.8951 17.0605C11.9551 17.0605 12.0151 17.0005 12.1451 17.0005C12.2051 17.0005 12.3251 17.0005 12.3951 17.0605C12.4551 17.1205 12.5151 17.1205 12.6451 17.1205V17.0005C12.5851 17.0005 12.4651 17.0005 12.3951 16.9405C12.2651 16.8805 12.2051 16.8805 12.1451 16.8805Z" fill="#D32030"/>
<path d="M12.1455 17.1104C12.0855 17.1104 11.9655 17.1104 11.8955 17.1704C11.8355 17.2304 11.7755 17.2304 11.6455 17.2304C11.5855 17.2304 11.4655 17.2304 11.3955 17.1704C11.3355 17.1704 11.2755 17.1104 11.1455 17.1104C11.0255 17.1104 10.9655 17.1104 10.8955 17.1704C10.8355 17.2304 10.7755 17.2304 10.6455 17.2304V17.3504C10.7055 17.3504 10.8255 17.3504 10.8955 17.2904C10.9555 17.2904 11.0155 17.2304 11.1455 17.2304C11.2655 17.2304 11.3255 17.2304 11.3955 17.2904C11.4555 17.3504 11.5155 17.3504 11.6455 17.3504C11.7055 17.3504 11.8255 17.3504 11.8955 17.2904C11.9555 17.2904 12.0155 17.2304 12.1455 17.2304C12.2055 17.2304 12.3255 17.2304 12.3955 17.2904C12.4555 17.3504 12.5155 17.3504 12.6455 17.3504V17.2304C12.5855 17.2304 12.4655 17.2304 12.3955 17.1704C12.2655 17.1704 12.2055 17.1104 12.1455 17.1104ZM12.1455 16.2904C12.1455 16.3504 12.0855 16.4104 12.0255 16.4104H11.2255C11.1944 16.4081 11.1653 16.3947 11.1432 16.3727C11.1212 16.3506 11.1078 16.3215 11.1055 16.2904C11.1055 16.2304 11.1655 16.1704 11.2255 16.1704H12.0255C12.0855 16.1704 12.1455 16.2304 12.1455 16.2904ZM12.1455 12.7704C12.1455 12.8304 12.0855 12.8904 12.0255 12.8904H11.2255C11.1944 12.8881 11.1653 12.8747 11.1432 12.8527C11.1212 12.8306 11.1078 12.8015 11.1055 12.7704C11.1055 12.7104 11.1655 12.6504 11.2255 12.6504H12.0255C12.0855 12.7104 12.1455 12.7104 12.1455 12.7704Z" fill="#D32030"/>
<path d="M4.85551 12.8301H5.59551V16.2301H4.85551V12.8301ZM5.89551 16.6401C5.83551 16.5801 5.77551 16.5801 5.64551 16.5801C5.58551 16.5801 5.46551 16.5801 5.39551 16.6401C5.33551 16.7001 5.27551 16.7001 5.14551 16.7001C5.08551 16.7001 4.96551 16.7001 4.89551 16.6401C4.83551 16.6401 4.77551 16.5801 4.64551 16.5801C4.58551 16.5801 4.46551 16.5801 4.39551 16.6401C4.33551 16.7001 4.27551 16.7001 4.14551 16.7001V16.8201C4.20551 16.8201 4.32551 16.8201 4.39551 16.7601C4.45551 16.7601 4.51551 16.7001 4.64551 16.7001C4.70551 16.7001 4.82551 16.7001 4.89551 16.7601C5.01551 16.8201 5.07551 16.8201 5.20551 16.8201C5.26551 16.8201 5.38551 16.8201 5.45551 16.7601C5.51551 16.7601 5.57551 16.7001 5.70551 16.7001C5.76551 16.7001 5.88551 16.7001 5.95551 16.7601C5.95551 16.8201 6.01551 16.8201 6.13551 16.8201V16.7001C6.01551 16.7001 5.95551 16.7001 5.89551 16.6401ZM5.64551 16.8801C5.58551 16.8801 5.46551 16.8801 5.39551 16.9401C5.33551 17.0001 5.27551 17.0001 5.14551 17.0001C5.08551 17.0001 4.96551 17.0001 4.89551 16.9401C4.83551 16.9401 4.77551 16.8801 4.64551 16.8801C4.58551 16.8801 4.46551 16.8801 4.39551 16.9401C4.33551 17.0001 4.27551 17.0001 4.14551 17.0001V17.1201C4.20551 17.1201 4.32551 17.1201 4.39551 17.0601C4.45551 17.0601 4.51551 17.0001 4.64551 17.0001C4.70551 17.0001 4.82551 17.0001 4.89551 17.0601C4.96551 17.1201 5.01551 17.1201 5.14551 17.1201C5.20551 17.1201 5.32551 17.1201 5.39551 17.0601C5.45551 17.0601 5.51551 17.0001 5.64551 17.0001C5.70551 17.0001 5.82551 17.0001 5.89551 17.0601C5.96551 17.1201 6.01551 17.1201 6.14551 17.1201V17.0001C6.08551 17.0001 5.96551 17.0001 5.89551 16.9401C5.83551 16.8801 5.77551 16.8801 5.64551 16.8801Z" fill="#D32030"/>
<path d="M5.64551 17.1109C5.58551 17.1109 5.46551 17.1109 5.39551 17.1709C5.33551 17.2309 5.27551 17.2309 5.14551 17.2309C5.08551 17.2309 4.96551 17.2309 4.89551 17.1709C4.83551 17.1709 4.77551 17.1109 4.64551 17.1109C4.58551 17.1109 4.46551 17.1109 4.39551 17.1709C4.33551 17.2309 4.27551 17.2309 4.14551 17.2309V17.3509C4.20551 17.3509 4.32551 17.3509 4.39551 17.2909C4.45551 17.2909 4.51551 17.2309 4.64551 17.2309C4.70551 17.2309 4.82551 17.2309 4.89551 17.2909C4.95551 17.3509 5.01551 17.3509 5.14551 17.3509C5.20551 17.3509 5.32551 17.3509 5.39551 17.2909C5.45551 17.2909 5.51551 17.2309 5.64551 17.2309C5.70551 17.2309 5.82551 17.2309 5.89551 17.2909C5.95551 17.3509 6.01551 17.3509 6.14551 17.3509V17.2309C6.08551 17.2309 5.96551 17.2309 5.89551 17.1709C5.83551 17.1709 5.77551 17.1109 5.64551 17.1109ZM5.70551 16.2909C5.70551 16.3509 5.64551 16.4109 5.58551 16.4109H4.78551C4.75445 16.4086 4.72525 16.3952 4.70323 16.3732C4.6812 16.3512 4.66782 16.322 4.66551 16.2909C4.66551 16.2309 4.72551 16.1709 4.78551 16.1709H5.58551C5.64551 16.1709 5.70551 16.2309 5.70551 16.2909ZM5.70551 12.7709C5.70551 12.8309 5.64551 12.8909 5.58551 12.8909H4.78551C4.75445 12.8886 4.72525 12.8752 4.70323 12.8532C4.6812 12.8312 4.66782 12.802 4.66551 12.7709C4.72551 12.7109 4.78551 12.7109 4.78551 12.7109H5.58551C5.64551 12.7109 5.70551 12.7109 5.70551 12.7709Z" fill="#D32030"/>
<path d="M10.2455 12.0104C10.2455 11.8904 10.1855 11.8304 10.0655 11.8304C10.0655 11.7104 9.32551 11.6504 8.41551 11.6504C7.50551 11.6504 6.76551 11.7104 6.76551 11.8304C6.70551 11.8304 6.64551 11.9504 6.64551 12.0104C6.64551 12.0704 6.70551 12.1904 6.82551 12.1904C6.82551 12.3104 7.56551 12.3704 8.47551 12.3704C9.38551 12.3704 10.1255 12.3104 10.1255 12.1904C10.1855 12.1804 10.2455 12.1204 10.2455 12.0104Z" fill="#A5001C"/>
<path d="M11.2852 10.4809L11.3452 10.4209C11.4052 10.3009 11.4652 10.1909 11.4652 10.0709C11.4652 9.84086 11.2852 9.60086 11.0952 9.48086L11.1552 9.54086C10.9189 9.39106 10.645 9.31131 10.3652 9.31086H10.0552C10.0552 9.31086 9.99521 9.31086 9.99521 9.37086H9.93521V9.43086L9.75521 9.25086C9.58726 9.10026 9.37075 9.01507 9.14521 9.01086C8.96521 9.01086 8.77521 9.07086 8.59521 9.13086V9.25086C8.71521 9.19086 8.90521 9.13086 9.08521 9.13086C9.45521 9.13086 9.82521 9.31086 9.82521 9.60086V9.66086C9.82521 9.78086 9.76521 9.84086 9.70521 9.89086C9.55407 9.88761 9.40619 9.84634 9.27521 9.77086C9.05402 9.70594 8.82558 9.66899 8.59521 9.66086V9.13086C8.59521 9.08086 8.46521 9.01086 8.40521 9.01086C8.52521 9.01086 8.58521 8.95086 8.65521 8.89086V8.77086C8.65521 8.65086 8.59521 8.59086 8.47521 8.54086V8.37086H8.59521V8.25086H8.46521V8.13086H8.34521V8.25086H8.22521V8.37086H8.34521V8.55086C8.22521 8.55086 8.16521 8.67086 8.16521 8.78086V8.90086C8.22521 8.95086 8.28521 9.01086 8.34521 9.01086C8.28521 9.01086 8.22521 9.07086 8.22521 9.07086V9.01086C8.22521 8.95086 8.22521 8.95086 8.16521 8.95086C8.10521 8.95086 8.10521 8.95086 8.10521 9.01086C8.10521 9.07086 8.10521 9.07086 8.16521 9.07086H8.22521L8.16521 9.13086C8.03521 9.07086 7.85521 9.01086 7.60521 9.01086C7.35521 9.01086 7.11521 9.07086 6.99521 9.25086C6.93521 9.31086 6.81521 9.36086 6.81521 9.42086V9.36086H6.75521C6.75521 9.36086 6.75521 9.30086 6.69521 9.30086H6.37521C6.06521 9.30086 5.76521 9.42086 5.57521 9.53086L5.64521 9.48086C5.53579 9.53539 5.44397 9.61968 5.38029 9.72404C5.31661 9.82841 5.28366 9.94861 5.28521 10.0709C5.28521 10.1909 5.34521 10.3609 5.40521 10.4209L5.46521 10.4809C5.40521 10.4809 5.34521 10.5409 5.34521 10.6609C5.34521 10.6609 5.46521 10.6609 5.52521 10.7209C5.58521 10.7809 5.64521 10.9009 5.64521 10.9009V11.0209C5.70521 11.0809 5.70521 11.0809 5.76521 11.0209C5.82521 11.0809 5.88521 11.2009 6.01521 11.2509C6.07521 11.3109 6.19521 11.3109 6.26521 11.3109C6.20521 11.3109 6.20521 11.3709 6.20521 11.3709C6.20521 11.4309 6.26521 11.4309 6.26521 11.4309C6.26521 11.4309 6.32521 11.4309 6.38521 11.4909L6.44521 11.5509L6.56521 11.6109V11.7309C7.77335 11.4294 9.03706 11.4294 10.2452 11.7309C10.1852 11.7309 10.1852 11.6709 10.2452 11.6109L10.3652 11.5509L10.3052 11.4909C10.3652 11.4309 10.4252 11.4309 10.4252 11.4309C10.4852 11.4309 10.4852 11.4309 10.4852 11.3709C10.4852 11.3109 10.4852 11.3109 10.4252 11.3109H10.3052L10.3652 11.3709C10.4252 11.3709 10.5452 11.3709 10.6152 11.3109C10.7352 11.2509 10.7952 11.1309 10.8652 11.0809H10.9852C11.0452 11.0209 11.0452 10.9609 10.9852 10.9609C10.9852 10.9609 11.0452 10.8409 11.1052 10.7809C11.1652 10.7209 11.2852 10.7209 11.2852 10.7209C11.4752 10.6009 11.3452 10.4809 11.2852 10.4809ZM6.75521 9.48086C6.69521 9.48086 6.69521 9.48086 6.69521 9.54086C6.69521 9.60086 6.69521 9.60086 6.75521 9.60086V9.66086C6.75521 9.66086 6.69521 9.66086 6.69521 9.72086C6.69521 9.78086 6.69521 9.78086 6.75521 9.78086V9.90086H6.57521C6.39521 9.90086 6.20521 9.96086 5.96521 10.0209C5.83521 10.0709 5.77521 10.1309 5.64521 10.1309C5.58521 10.0709 5.58521 10.0109 5.58521 9.89086C5.58521 9.83086 5.58521 9.77086 5.64521 9.71086C5.76521 9.48086 6.13521 9.36086 6.56521 9.36086H6.81521C6.81521 9.42086 6.81521 9.42086 6.75521 9.48086ZM8.22521 9.36086V9.59086C7.91521 9.59086 7.67521 9.65086 7.48521 9.71086C7.36521 9.78086 7.24521 9.78086 7.05521 9.83086C6.99077 9.76965 6.94855 9.68873 6.93521 9.60086V9.54086C6.93521 9.31086 7.24521 9.07086 7.67521 9.07086C7.85521 9.07086 8.04521 9.13086 8.16521 9.19086V9.13086C8.22521 9.19086 8.22521 9.25086 8.22521 9.36086ZM11.3452 9.72086C11.3452 9.66086 11.2852 9.60086 11.2252 9.54086C11.2852 9.60086 11.2852 9.66086 11.3452 9.72086ZM11.1652 10.1309C11.0715 10.0557 10.967 9.995 10.8552 9.95086C10.6152 9.83086 10.3652 9.83086 10.2452 9.83086H10.1252C10.1252 9.83086 10.1252 9.77086 10.0652 9.77086V9.72086C10.1252 9.72086 10.1252 9.72086 10.1252 9.66086C10.1252 9.66086 10.1252 9.60086 10.0652 9.60086V9.54086C10.1252 9.54086 10.1252 9.54086 10.1252 9.48086C10.1252 9.42086 10.1252 9.42086 10.0652 9.42086C10.0652 9.42086 10.0652 9.36086 10.0052 9.36086H10.2552C10.6852 9.36086 11.0552 9.54086 11.1752 9.71086C11.1752 9.77086 11.2352 9.83086 11.2352 9.89086C11.2852 10.0109 11.2252 10.0709 11.1652 10.1309Z" fill="#A5001C"/>
<path d="M11.476 10.5399C11.5092 10.5399 11.536 10.5131 11.536 10.4799C11.536 10.4468 11.5092 10.4199 11.476 10.4199C11.4429 10.4199 11.416 10.4468 11.416 10.4799C11.416 10.5131 11.4429 10.5399 11.476 10.5399Z" fill="#A5001C"/>
<path d="M11.5356 10.3602C11.5687 10.3602 11.5956 10.3334 11.5956 10.3002C11.5956 10.2671 11.5687 10.2402 11.5356 10.2402C11.5024 10.2402 11.4756 10.2671 11.4756 10.3002C11.4756 10.3334 11.5024 10.3602 11.5356 10.3602Z" fill="#A5001C"/>
<path d="M11.5952 10.2509C11.6283 10.2509 11.6552 10.224 11.6552 10.1909C11.6552 10.1577 11.6283 10.1309 11.5952 10.1309C11.562 10.1309 11.5352 10.1577 11.5352 10.1909C11.5352 10.224 11.562 10.2509 11.5952 10.2509Z" fill="#A5001C"/>
<path d="M11.5952 10.0106C11.6283 10.0106 11.6552 9.98376 11.6552 9.95062C11.6552 9.91749 11.6283 9.89062 11.5952 9.89062C11.562 9.89062 11.5352 9.91749 11.5352 9.95062C11.5352 9.98376 11.562 10.0106 11.5952 10.0106Z" fill="#A5001C"/>
<path d="M11.5356 9.8407C11.5687 9.8407 11.5956 9.81384 11.5956 9.7807C11.5956 9.74757 11.5687 9.7207 11.5356 9.7207C11.5024 9.7207 11.4756 9.74757 11.4756 9.7807C11.4756 9.81384 11.5024 9.8407 11.5356 9.8407Z" fill="#A5001C"/>
<path d="M11.4759 9.66102C11.5359 9.66102 11.5359 9.66102 11.5359 9.60102C11.5359 9.54102 11.5359 9.54102 11.4759 9.54102C11.4159 9.54102 11.4159 9.54102 11.4159 9.60102C11.4059 9.66102 11.4059 9.66102 11.4759 9.66102Z" fill="#A5001C"/>
<path d="M11.2856 9.53992C11.3187 9.53992 11.3456 9.51306 11.3456 9.47992C11.3456 9.44679 11.3187 9.41992 11.2856 9.41992C11.2524 9.41992 11.2256 9.44679 11.2256 9.47992C11.2256 9.51306 11.2524 9.53992 11.2856 9.53992Z" fill="#A5001C"/>
<path d="M11.1655 9.42078C11.1986 9.42078 11.2255 9.39392 11.2255 9.36078C11.2255 9.32764 11.1986 9.30078 11.1655 9.30078C11.1323 9.30078 11.1055 9.32764 11.1055 9.36078C11.1055 9.39392 11.1323 9.42078 11.1655 9.42078Z" fill="#A5001C"/>
<path d="M10.9858 9.37C11.0189 9.37 11.0458 9.34314 11.0458 9.31C11.0458 9.27686 11.0189 9.25 10.9858 9.25C10.9526 9.25 10.9258 9.27686 10.9258 9.31C10.9258 9.34314 10.9526 9.37 10.9858 9.37Z" fill="#A5001C"/>
<path d="M10.7954 9.25086C10.8285 9.25086 10.8554 9.224 10.8554 9.19086C10.8554 9.15772 10.8285 9.13086 10.7954 9.13086C10.7622 9.13086 10.7354 9.15772 10.7354 9.19086C10.7354 9.224 10.7622 9.25086 10.7954 9.25086Z" fill="#A5001C"/>
<path d="M10.5551 9.25086C10.5883 9.25086 10.6151 9.224 10.6151 9.19086C10.6151 9.15772 10.5883 9.13086 10.5551 9.13086C10.522 9.13086 10.4951 9.15772 10.4951 9.19086C10.4951 9.224 10.522 9.25086 10.5551 9.25086Z" fill="#A5001C"/>
<path d="M10.3657 9.25086C10.4257 9.25086 10.4257 9.25086 10.4257 9.19086C10.4257 9.13086 10.3657 9.13086 10.3657 9.13086C10.3057 9.13086 10.3057 9.13086 10.3057 9.19086C10.3057 9.19086 10.3057 9.25086 10.3657 9.25086Z" fill="#A5001C"/>
<path d="M10.186 9.25086C10.2191 9.25086 10.246 9.224 10.246 9.19086C10.246 9.15772 10.2191 9.13086 10.186 9.13086C10.1528 9.13086 10.126 9.15772 10.126 9.19086C10.126 9.224 10.1528 9.25086 10.186 9.25086Z" fill="#A5001C"/>
<path d="M9.99555 9.25086C10.0287 9.25086 10.0555 9.224 10.0555 9.19086C10.0555 9.15772 10.0287 9.13086 9.99555 9.13086C9.96241 9.13086 9.93555 9.15772 9.93555 9.19086C9.93555 9.224 9.96241 9.25086 9.99555 9.25086Z" fill="#A5001C"/>
<path d="M9.81586 9.13172C9.849 9.13172 9.87586 9.10486 9.87586 9.07172C9.87586 9.03858 9.849 9.01172 9.81586 9.01172C9.78272 9.01172 9.75586 9.03858 9.75586 9.07172C9.75586 9.10486 9.78272 9.13172 9.81586 9.13172Z" fill="#A5001C"/>
<path d="M9.6352 9.01062C9.66833 9.01062 9.6952 8.98376 9.6952 8.95062C9.6952 8.91749 9.66833 8.89062 9.6352 8.89062C9.60206 8.89062 9.5752 8.91749 9.5752 8.95062C9.5752 8.98376 9.60206 9.01062 9.6352 9.01062Z" fill="#A5001C"/>
<path d="M9.44574 8.9618C9.47888 8.9618 9.50574 8.93493 9.50574 8.9018C9.50574 8.86866 9.47888 8.8418 9.44574 8.8418C9.4126 8.8418 9.38574 8.86866 9.38574 8.9018C9.38574 8.93493 9.4126 8.9618 9.44574 8.9618Z" fill="#A5001C"/>
<path d="M9.26606 8.9618C9.29919 8.9618 9.32605 8.93493 9.32605 8.9018C9.32605 8.86866 9.29919 8.8418 9.26606 8.8418C9.23292 8.8418 9.20605 8.86866 9.20605 8.9018C9.20605 8.93493 9.23292 8.9618 9.26606 8.9618Z" fill="#A5001C"/>
<path d="M9.08539 8.9618C9.11853 8.9618 9.14539 8.93493 9.14539 8.9018C9.14539 8.86866 9.11853 8.8418 9.08539 8.8418C9.05225 8.8418 9.02539 8.86866 9.02539 8.9018C9.02539 8.93493 9.05225 8.9618 9.08539 8.9618Z" fill="#A5001C"/>
<path d="M8.83539 8.9618C8.86853 8.9618 8.89539 8.93493 8.89539 8.9018C8.89539 8.86866 8.86853 8.8418 8.83539 8.8418C8.80225 8.8418 8.77539 8.86866 8.77539 8.9018C8.77539 8.93493 8.80225 8.9618 8.83539 8.9618Z" fill="#A5001C"/>
<path d="M8.6557 9.01062C8.68884 9.01062 8.7157 8.98376 8.7157 8.95062C8.7157 8.91749 8.68884 8.89062 8.6557 8.89062C8.62257 8.89062 8.5957 8.91749 8.5957 8.95062C8.5957 8.98376 8.62257 9.01062 8.6557 9.01062Z" fill="#A5001C"/>
<path d="M5.4057 10.5399C5.43884 10.5399 5.4657 10.5131 5.4657 10.4799C5.4657 10.4468 5.43884 10.4199 5.4057 10.4199C5.37257 10.4199 5.3457 10.4468 5.3457 10.4799C5.3457 10.5131 5.37257 10.5399 5.4057 10.5399Z" fill="#A5001C"/>
<path d="M5.34516 10.3602C5.37829 10.3602 5.40516 10.3334 5.40516 10.3002C5.40516 10.2671 5.37829 10.2402 5.34516 10.2402C5.31202 10.2402 5.28516 10.2671 5.28516 10.3002C5.28516 10.3334 5.31202 10.3602 5.34516 10.3602Z" fill="#A5001C"/>
<path d="M5.28559 10.2509C5.31872 10.2509 5.34559 10.224 5.34559 10.1909C5.34559 10.1577 5.31872 10.1309 5.28559 10.1309C5.25245 10.1309 5.22559 10.1577 5.22559 10.1909C5.22559 10.224 5.25245 10.2509 5.28559 10.2509Z" fill="#A5001C"/>
<path d="M5.28559 10.0106C5.31872 10.0106 5.34559 9.98376 5.34559 9.95062C5.34559 9.91749 5.31872 9.89062 5.28559 9.89062C5.25245 9.89062 5.22559 9.91749 5.22559 9.95062C5.22559 9.98376 5.25245 10.0106 5.28559 10.0106Z" fill="#A5001C"/>
<path d="M5.34516 9.8407C5.37829 9.8407 5.40516 9.81384 5.40516 9.7807C5.40516 9.74757 5.37829 9.7207 5.34516 9.7207C5.31202 9.7207 5.28516 9.74757 5.28516 9.7807C5.28516 9.81384 5.31202 9.8407 5.34516 9.8407Z" fill="#A5001C"/>
<path d="M5.4057 9.66102C5.43884 9.66102 5.4657 9.63415 5.4657 9.60102C5.4657 9.56788 5.43884 9.54102 5.4057 9.54102C5.37257 9.54102 5.3457 9.56788 5.3457 9.60102C5.3457 9.63415 5.37257 9.66102 5.4057 9.66102Z" fill="#A5001C"/>
<path d="M5.52582 9.53992C5.55896 9.53992 5.58582 9.51306 5.58582 9.47992C5.58582 9.44679 5.55896 9.41992 5.52582 9.41992C5.49268 9.41992 5.46582 9.44679 5.46582 9.47992C5.46582 9.51306 5.49268 9.53992 5.52582 9.53992Z" fill="#A5001C"/>
<path d="M5.70551 9.42078C5.73864 9.42078 5.76551 9.39392 5.76551 9.36078C5.76551 9.32764 5.73864 9.30078 5.70551 9.30078C5.67237 9.30078 5.64551 9.32764 5.64551 9.36078C5.64551 9.39392 5.67237 9.42078 5.70551 9.42078Z" fill="#A5001C"/>
<path d="M5.89594 9.37C5.92907 9.37 5.95594 9.34314 5.95594 9.31C5.95594 9.27686 5.92907 9.25 5.89594 9.25C5.8628 9.25 5.83594 9.27686 5.83594 9.31C5.83594 9.34314 5.8628 9.37 5.89594 9.37Z" fill="#A5001C"/>
<path d="M6.07562 9.25086C6.10876 9.25086 6.13562 9.224 6.13562 9.19086C6.13562 9.15772 6.10876 9.13086 6.07562 9.13086C6.04249 9.13086 6.01562 9.15772 6.01562 9.19086C6.01562 9.224 6.04249 9.25086 6.07562 9.25086Z" fill="#A5001C"/>
<path d="M6.32562 9.25086C6.35876 9.25086 6.38562 9.224 6.38562 9.19086C6.38562 9.15772 6.35876 9.13086 6.32562 9.13086C6.29249 9.13086 6.26562 9.15772 6.26562 9.19086C6.26562 9.224 6.29249 9.25086 6.32562 9.25086Z" fill="#A5001C"/>
<path d="M6.50531 9.25086C6.53845 9.25086 6.56531 9.224 6.56531 9.19086C6.56531 9.15772 6.53845 9.13086 6.50531 9.13086C6.47218 9.13086 6.44531 9.15772 6.44531 9.19086C6.44531 9.224 6.47218 9.25086 6.50531 9.25086Z" fill="#A5001C"/>
<path d="M6.69574 9.25086C6.72888 9.25086 6.75574 9.224 6.75574 9.19086C6.75574 9.15772 6.72888 9.13086 6.69574 9.13086C6.66261 9.13086 6.63574 9.15772 6.63574 9.19086C6.63574 9.224 6.66261 9.25086 6.69574 9.25086Z" fill="#A5001C"/>
<path d="M6.87543 9.25086C6.90857 9.25086 6.93543 9.224 6.93543 9.19086C6.93543 9.15772 6.90857 9.13086 6.87543 9.13086C6.84229 9.13086 6.81543 9.15772 6.81543 9.19086C6.81543 9.224 6.84229 9.25086 6.87543 9.25086Z" fill="#A5001C"/>
<path d="M7.05512 9.13172C7.08825 9.13172 7.11512 9.10486 7.11512 9.07172C7.11512 9.03858 7.08825 9.01172 7.05512 9.01172C7.02198 9.01172 6.99512 9.03858 6.99512 9.07172C6.99512 9.10486 7.02198 9.13172 7.05512 9.13172Z" fill="#A5001C"/>
<path d="M7.24555 9.01062C7.27868 9.01062 7.30555 8.98376 7.30555 8.95062C7.30555 8.91749 7.27868 8.89062 7.24555 8.89062C7.21241 8.89062 7.18555 8.91749 7.18555 8.95062C7.18555 8.98376 7.21241 9.01062 7.24555 9.01062Z" fill="#A5001C"/>
<path d="M7.42523 8.9618C7.45837 8.9618 7.48523 8.93493 7.48523 8.9018C7.48523 8.86866 7.45837 8.8418 7.42523 8.8418C7.3921 8.8418 7.36523 8.86866 7.36523 8.9018C7.36523 8.93493 7.3921 8.9618 7.42523 8.9618Z" fill="#A5001C"/>
<path d="M7.6059 8.9618C7.63904 8.9618 7.6659 8.93493 7.6659 8.9018C7.6659 8.86866 7.63904 8.8418 7.6059 8.8418C7.57276 8.8418 7.5459 8.86866 7.5459 8.9018C7.5459 8.93493 7.57276 8.9618 7.6059 8.9618Z" fill="#A5001C"/>
<path d="M7.79535 8.9618C7.82849 8.9618 7.85535 8.93493 7.85535 8.9018C7.85535 8.86866 7.82849 8.8418 7.79535 8.8418C7.76221 8.8418 7.73535 8.86866 7.73535 8.9018C7.73535 8.93493 7.76221 8.9618 7.79535 8.9618Z" fill="#A5001C"/>
<path d="M8.03559 8.9618C8.06872 8.9618 8.09559 8.93493 8.09559 8.9018C8.09559 8.86866 8.06872 8.8418 8.03559 8.8418C8.00245 8.8418 7.97559 8.86866 7.97559 8.9018C7.97559 8.93493 8.00245 8.9618 8.03559 8.9618Z" fill="#A5001C"/>
<path d="M5.6448 12.6509C5.6448 12.5909 5.6448 12.5909 5.6448 12.6509C5.5848 12.5909 5.3948 12.5909 5.2148 12.5909C4.9648 12.5909 4.7848 12.5909 4.7848 12.6509V12.7109C4.7848 12.7109 4.7848 12.7709 4.8448 12.7709C4.8448 12.7709 5.0248 12.8309 5.2748 12.8309C5.5248 12.8309 5.5848 12.7109 5.6448 12.6509ZM5.8948 12.2409C5.9548 12.1809 5.9548 12.1809 5.9548 12.1209C5.95249 12.0899 5.93911 12.0607 5.91709 12.0387C5.89506 12.0166 5.86586 12.0032 5.8348 12.0009C5.7748 11.9409 5.7148 11.9409 5.6548 11.9409H5.5848C5.5848 11.9409 5.5848 11.8809 5.5248 11.8809C5.4648 11.8209 5.4648 11.8209 5.3448 11.8209C5.2848 11.8209 5.2248 11.8209 5.2248 11.8809C5.2848 11.8809 5.2848 11.8209 5.3448 11.8209C5.4648 11.8209 5.5248 11.8809 5.5248 11.9409V12.0009H5.4048C5.3448 12.0009 5.2848 12.0009 5.2248 11.9409V11.8209C5.2248 11.8209 5.2248 11.7609 5.1648 11.7609C5.1648 11.7609 5.2248 11.7609 5.2248 11.7009C5.2248 11.7009 5.2248 11.6409 5.1648 11.6409V11.5809H5.2248V11.4609V11.5209H5.1548V11.5809H5.2148V11.6409C5.2148 11.6409 5.1548 11.6409 5.1548 11.7009C5.1548 11.7009 5.1548 11.7609 5.2148 11.7609H5.1548C5.0948 11.7609 5.0948 11.7009 5.0348 11.7009C4.9748 11.7009 4.9148 11.7009 4.8548 11.7609C4.8548 11.7609 4.7948 11.7609 4.7948 11.8209H4.7248C4.6648 11.8209 4.6048 11.8209 4.5448 11.8809C4.4848 11.9409 4.4248 11.9409 4.4248 12.0009C4.4248 12.0609 4.4248 12.0609 4.4848 12.1209C4.4848 12.1209 4.4248 12.1209 4.4248 12.1809H4.4848L4.5448 12.2409V12.3009C4.5448 12.3009 4.5448 12.3609 4.6048 12.3609H4.6648V12.4209C4.7848 12.3609 4.9148 12.3609 5.0948 12.3609C5.2748 12.3609 5.4648 12.3609 5.5248 12.4209V12.3609H5.5848L5.6448 12.3009V12.2409C5.8348 12.3609 5.8948 12.3009 5.8948 12.2409C5.9548 12.3009 5.8948 12.3009 5.8948 12.2409ZM4.7948 12.0109V12.0709H4.7348C4.6748 12.0709 4.6148 12.0709 4.6148 12.1309C4.6148 12.1309 4.5548 12.1309 4.5548 12.1909V12.0709C4.5548 12.0109 4.6748 11.9509 4.8048 11.9509L4.7948 12.0109ZM5.1548 12.0109C5.0948 12.0709 5.0348 12.0709 4.9748 12.0709H4.8548V12.0109C4.8548 11.9509 4.9148 11.8909 5.0348 11.8909L5.1548 12.0109ZM5.8948 12.1809C5.8948 12.1809 5.8348 12.1809 5.8348 12.1209H5.5948H5.6448C5.7648 12.1209 5.8248 12.1809 5.8948 12.2409V12.1809Z" fill="#D32030"/>
<path d="M12.0854 12.6509C12.0854 12.5909 12.0854 12.5909 12.0854 12.6509C12.0254 12.5909 11.8354 12.5909 11.6554 12.5909C11.4054 12.5909 11.2254 12.5909 11.2254 12.6509V12.7109C11.2254 12.7109 11.2254 12.7709 11.2854 12.7709C11.2854 12.7709 11.4654 12.8309 11.7154 12.8309C11.8954 12.7109 12.0854 12.7109 12.0854 12.6509ZM12.3254 12.2409C12.3854 12.2409 12.3854 12.1809 12.3854 12.1209C12.3831 12.0899 12.3697 12.0607 12.3477 12.0387C12.3256 12.0166 12.2964 12.0032 12.2654 12.0009C12.2054 11.9409 12.1454 11.9409 12.0854 11.9409H12.0254C12.0254 11.9409 12.0254 11.8809 11.9654 11.8809C11.9054 11.8209 11.9054 11.8209 11.7854 11.8209C11.7254 11.8209 11.6654 11.8209 11.6654 11.8809C11.7254 11.8809 11.7254 11.8209 11.7854 11.8209C11.9054 11.8209 11.9654 11.8809 11.9654 11.9409V12.0009H11.8454C11.7854 12.0009 11.7254 12.0009 11.6654 11.9409V11.8209C11.6654 11.8209 11.6654 11.7609 11.6054 11.7609C11.6054 11.7609 11.6654 11.7609 11.6654 11.7009C11.6654 11.7009 11.6654 11.6409 11.6054 11.6409V11.5809H11.6654V11.5209H11.6054V11.4609H11.5454V11.5209H11.4854V11.5809H11.5454V11.6409C11.5454 11.6409 11.4854 11.6409 11.4854 11.7009C11.4854 11.7009 11.4854 11.7609 11.5454 11.7609H11.4854C11.4254 11.7609 11.4254 11.7009 11.3654 11.7009C11.3054 11.7009 11.2454 11.7009 11.1854 11.7609C11.1854 11.7609 11.1254 11.7609 11.1254 11.8209H11.0454C10.9854 11.8209 10.9254 11.8209 10.8654 11.8809C10.8054 11.9409 10.7454 11.9409 10.7454 12.0009C10.7454 12.0609 10.7454 12.0609 10.8054 12.1209C10.8054 12.1209 10.7454 12.1209 10.7454 12.1809H10.8054L10.8654 12.2409V12.3009C10.8654 12.3009 10.8654 12.3609 10.9254 12.3609H10.9854V12.4209C11.1054 12.3609 11.2354 12.3609 11.4154 12.3609C11.5954 12.3609 11.7854 12.3609 11.8454 12.4209V12.3609H11.9054L11.9654 12.3009V12.2409C12.3254 12.3609 12.3254 12.3009 12.3254 12.2409C12.3954 12.3009 12.3254 12.3009 12.3254 12.2409C12.3954 12.3009 12.3954 12.2409 12.3254 12.2409ZM11.2854 12.0109C11.2254 12.0109 11.2254 12.0109 11.2854 12.0109C11.2254 12.0109 11.2254 12.0609 11.2854 12.0109V12.0709H11.2254C11.1654 12.0709 11.1054 12.0709 11.1054 12.1309C11.1054 12.1309 11.0454 12.1309 11.0454 12.1909V12.0709C11.0454 12.0109 11.1654 11.9509 11.2954 11.9509C11.2254 12.0109 11.2254 12.0109 11.2854 12.0109ZM11.5954 12.0109C11.5354 12.0709 11.4754 12.0709 11.4154 12.0709H11.2954V12.0109C11.2954 11.9509 11.3554 11.8909 11.4754 11.8909C11.5354 11.9509 11.5954 11.9509 11.5954 12.0109ZM12.3254 12.1809C12.3254 12.1809 12.2654 12.1809 12.2654 12.1209C12.2054 12.1209 12.1454 12.0609 12.1454 12.0609C12.2654 12.0609 12.3254 12.1209 12.3954 12.1809C12.3254 12.0609 12.3254 12.1209 12.3254 12.1809Z" fill="#A5001C"/>
<path d="M8.40516 11.4801V8.08008H8.34516V8.20008H8.22516V8.31008H8.34516V8.49008C8.22516 8.49008 8.16516 8.61008 8.16516 8.72008V8.84008C8.22516 8.90008 8.28516 8.95008 8.34516 8.95008C8.28516 8.95008 8.22516 9.01008 8.22516 9.01008V8.95008C8.22516 8.89008 8.22516 8.89008 8.16516 8.89008C8.10516 8.89008 8.10516 8.89008 8.10516 8.95008C8.10516 9.01008 8.10516 9.01008 8.16516 9.01008H8.22516L8.16516 9.07008C8.03516 9.01008 7.85516 8.95008 7.60516 8.95008C7.35516 8.95008 7.11516 9.01008 6.99516 9.19008C6.93516 9.25008 6.81516 9.31008 6.81516 9.36008V9.30008H6.75516C6.75516 9.30008 6.75516 9.24008 6.69516 9.24008H6.37516C6.06516 9.24008 5.76516 9.36008 5.57516 9.47008L5.64516 9.42008C5.53648 9.47554 5.44531 9.56003 5.38175 9.66419C5.3182 9.76834 5.28477 9.88807 5.28516 10.0101C5.28516 10.1301 5.34516 10.3001 5.40516 10.3601L5.46516 10.4201C5.40516 10.4201 5.34516 10.4801 5.34516 10.6001C5.34516 10.6001 5.46516 10.6001 5.52516 10.6601C5.58516 10.7201 5.64516 10.8401 5.64516 10.8401V10.9601C5.70516 11.0201 5.70516 11.0201 5.76516 10.9601C5.82516 11.0201 5.88516 11.1401 6.01516 11.1901C6.07516 11.2501 6.19516 11.2501 6.26516 11.2501C6.20516 11.2501 6.20516 11.3101 6.20516 11.3101C6.20516 11.3701 6.26516 11.3701 6.26516 11.3701C6.26516 11.3701 6.32516 11.3701 6.38516 11.4301L6.44516 11.5501L6.56516 11.6101V11.7301C7.15959 11.5417 7.78202 11.4571 8.40516 11.4801ZM6.93516 9.54008C6.93516 9.31008 7.24516 9.07008 7.67516 9.07008C7.85516 9.07008 8.04516 9.13008 8.16516 9.19008V9.13008V9.61008C7.85516 9.61008 7.61516 9.67008 7.42516 9.73008C7.30516 9.78008 7.18516 9.78008 6.99516 9.83008C6.99516 9.78008 6.93516 9.66008 6.93516 9.54008ZM6.56516 9.83008C6.38516 9.83008 6.19516 9.89008 5.95516 9.95008C5.83516 10.0101 5.77516 10.0701 5.64516 10.0701C5.58516 10.0101 5.58516 9.95008 5.58516 9.83008C5.58516 9.77008 5.58516 9.71008 5.64516 9.65008C5.77516 9.42008 6.13516 9.31008 6.56516 9.31008H6.81516C6.81516 9.31008 6.81516 9.37008 6.75516 9.37008C6.69516 9.37008 6.69516 9.37008 6.69516 9.43008C6.69516 9.49008 6.69516 9.49008 6.75516 9.49008V9.55008C6.75516 9.55008 6.69516 9.55008 6.69516 9.61008C6.69516 9.67008 6.69516 9.67008 6.75516 9.67008V9.79008C6.69516 9.83008 6.62516 9.83008 6.56516 9.83008ZM8.40516 11.6501C7.42516 11.6501 6.68516 11.7101 6.68516 11.8301C6.62516 11.8301 6.56516 11.9501 6.56516 12.0101C6.56516 12.0701 6.62516 12.1901 6.74516 12.1901C6.74516 12.3101 7.48516 12.3701 8.39516 12.3701V11.6501H8.40516ZM8.40516 12.4801H6.07516V14.9401C6.08165 15.2395 6.14708 15.5347 6.2677 15.8089C6.38833 16.083 6.56178 16.3307 6.77815 16.5378C6.99453 16.7449 7.24959 16.9073 7.52875 17.0158C7.80792 17.1243 8.10573 17.1767 8.40516 17.1701V12.4801Z" fill="#D32030"/>
</g>
</g>
<defs>
<clipPath id="clip0_26003_53604">
<rect width="38" height="25" fill="white" transform="translate(0.745117 0.210938)"/>
</clipPath>
<clipPath id="clip1_26003_53604">
<rect width="38" height="25" fill="white" transform="translate(0.745117 0.210938)"/>
</clipPath>
</defs>
</svg>
