<svg width="38" height="26" viewBox="0 0 38 26" fill="none" xmlns="http://www.w3.org/2000/svg">
<g clip-path="url(#clip0_26003_70446)">
<g clip-path="url(#clip1_26003_70446)">
<path d="M1.30957 1.82031H36.6896V24.1903H1.30957V1.82031Z" fill="#F5F5F5"/>
<path d="M35.15 0.5H2.85002C2.47491 0.499998 2.10349 0.574045 1.75706 0.717896C1.41062 0.861747 1.096 1.07257 0.831219 1.33828C0.566441 1.60399 0.356721 1.91935 0.214084 2.26628C0.0714475 2.61321 -0.00129863 2.98489 1.75455e-05 3.36V22.64C-0.00129863 23.0151 0.0714475 23.3868 0.214084 23.7337C0.356721 24.0807 0.566441 24.396 0.831219 24.6617C1.096 24.9274 1.41062 25.1383 1.75706 25.2821C2.10349 25.426 2.47491 25.5 2.85002 25.5H35.16C35.9168 25.4974 36.6417 25.1949 37.1759 24.6588C37.7101 24.1227 38.01 23.3968 38.01 22.64V3.36C38.0074 2.60229 37.7052 1.87637 37.1694 1.34059C36.6337 0.804802 35.9077 0.502636 35.15 0.5ZM36.69 24.18H1.31002V1.82H36.69V24.18Z" fill="#F5F5F5"/>
<path d="M24.3799 18.1289C24.9322 18.1289 25.3799 17.6812 25.3799 17.1289C25.3799 16.5766 24.9322 16.1289 24.3799 16.1289C23.8276 16.1289 23.3799 16.5766 23.3799 17.1289C23.3799 17.6812 23.8276 18.1289 24.3799 18.1289Z" fill="#F5F5F5"/>
<path d="M26.1299 11.3798C25.3999 11.9998 24.8999 12.0298 24.8999 12.0298C26.2099 11.4998 26.0699 10.4798 26.0699 10.4798C25.4499 11.2998 24.8199 11.5198 24.8199 11.5198C26.1299 10.6298 25.9199 9.42984 25.9199 9.42984C25.4899 10.3798 24.9499 10.7498 24.9499 10.7498C26.0399 9.28984 25.5099 8.34984 25.5099 8.34984C25.0799 9.69984 24.7199 10.0898 24.7199 10.0898C25.5599 7.83984 24.8399 7.18984 24.8399 7.18984C24.8399 8.39984 24.3899 9.08984 24.3899 9.08984C24.8599 7.49984 24.1199 6.58984 24.1199 6.58984C24.1199 6.58984 24.1099 7.88984 23.8599 8.56984C23.7999 8.47984 23.7599 8.48984 23.7599 8.48984C23.6592 9.09507 23.3965 9.66176 22.9999 10.1298C22.9599 9.91984 22.8299 9.85984 22.8299 9.85984C22.8299 9.85984 22.8099 10.0598 22.6199 10.3598C22.4999 10.5598 21.9399 11.0198 21.8499 11.4198C21.7799 11.7398 22.0999 12.0098 22.1999 12.0798C22.2999 12.1498 22.4099 12.2598 22.3699 12.4498C22.3199 12.6398 21.9899 12.6198 21.7499 12.6098C21.5099 12.5998 21.4799 12.9998 21.2099 12.9898L21.1599 13.2898L21.0599 13.3098C21.0599 13.3098 19.9699 15.4898 19.8799 16.2398L19.0799 16.3498L18.2799 16.2398C18.1899 15.4998 17.0999 13.3098 17.0999 13.3098L16.9999 13.2898L16.9499 12.9898C16.6799 12.9998 16.6499 12.6098 16.4099 12.6098C16.1699 12.6198 15.8299 12.6398 15.7899 12.4498C15.7399 12.2598 15.8499 12.1398 15.9599 12.0798C16.0599 12.0098 16.3799 11.7498 16.3099 11.4198C16.2199 11.0198 15.6599 10.5598 15.5399 10.3598C15.3599 10.0598 15.3299 9.85984 15.3299 9.85984C15.3299 9.85984 15.1999 9.91984 15.1599 10.1298C14.7589 9.66456 14.4956 9.09659 14.3999 8.48984C14.3999 8.48984 14.3599 8.47984 14.2999 8.56984C14.0499 7.88984 14.0399 6.58984 14.0399 6.58984C14.0399 6.58984 13.2999 7.49984 13.7699 9.08984C13.7699 9.08984 13.3199 8.39984 13.3199 7.18984C13.3199 7.18984 12.5999 7.83984 13.4399 10.0898C13.4399 10.0898 13.0799 9.69984 12.6499 8.34984C12.6499 8.34984 12.1099 9.28984 13.2099 10.7498C13.2099 10.7498 12.6699 10.3798 12.2399 9.42984C12.2399 9.42984 12.0299 10.6298 13.3399 11.5198C13.3399 11.5198 12.7099 11.2898 12.0899 10.4798C12.0899 10.4798 11.9499 11.4998 13.2599 12.0298C13.2599 12.0298 12.7699 11.9998 12.0299 11.3798C12.0299 11.3798 11.8999 12.2798 13.5999 12.7398C13.5999 12.7398 12.9099 12.7298 12.1999 12.2498C12.1999 12.2498 12.1799 13.1398 13.6399 13.3098C13.6399 13.3098 13.1599 13.3798 12.6199 13.1898C12.6199 13.1898 12.6399 13.9098 13.9099 13.9998C13.9099 13.9998 13.4099 14.0398 13.0899 13.9598C13.0899 13.9598 13.1199 14.6998 14.1199 14.5698L13.6699 14.7098C13.6699 14.7098 13.6899 15.3098 14.7299 15.0998C14.7299 15.0998 14.5399 15.2198 14.2899 15.2498C14.2899 15.2498 14.4999 15.7498 15.3699 15.5298L15.1899 15.7298C15.1899 15.7298 15.8599 16.1198 16.3799 15.5798L16.1899 15.9098C16.1899 15.9098 16.6299 16.0798 16.8999 15.6498C16.8999 15.6498 16.8299 16.2998 15.9199 16.4098C15.9199 16.4098 15.9499 16.5498 15.9899 16.5998C15.9899 16.5998 15.9299 16.7098 15.4099 16.7998C15.4099 16.7998 15.5199 16.9698 15.6399 17.0198C15.6399 17.0198 15.4099 17.2198 15.2899 17.2498C15.2899 17.2498 15.4799 17.3498 15.6099 17.3698C15.6099 17.3698 15.3399 17.6398 14.9999 17.6398C14.6599 17.6498 14.0599 17.6098 14.0599 17.6098C14.0599 17.6098 14.0499 17.2798 13.8999 16.9998C13.7399 16.7198 13.6899 16.6998 13.6899 16.6998C13.6899 16.6998 13.7199 16.4798 13.6299 16.3798C13.5399 16.2798 13.4799 16.2398 13.4799 16.2398C13.4799 16.2398 13.5299 15.7898 13.3899 15.5098C13.2499 15.2298 12.7399 14.6198 12.7099 14.1598C12.6799 13.6998 12.6999 13.5298 12.6999 13.5298L12.5399 13.5698L12.4399 13.3498L12.6199 13.3298L12.5499 12.9998L12.3099 13.0898L12.2799 12.8098L11.9899 12.9298L12.1299 13.1798L11.8799 13.2498L12.0299 13.5498L12.2199 13.4298L12.2699 13.6898C12.2699 13.6898 12.1499 13.7198 12.0899 13.8198C12.0899 13.8198 12.4099 14.0298 12.5099 14.2898C12.6599 14.6898 12.6099 15.6098 12.8299 15.8798C13.0399 16.1498 13.2099 16.3398 13.2099 16.3398C13.2099 16.3398 13.1499 16.5298 13.2199 16.6298C13.2899 16.7298 13.3899 16.7598 13.3899 16.7598C13.3899 16.7598 13.3299 17.1798 13.4799 17.4498C13.6299 17.7198 13.7199 17.7898 13.7199 17.7898C13.7199 17.7898 13.1699 18.1298 13.5599 18.5198C13.5599 18.5198 13.5099 18.8798 13.8799 18.9598C13.8799 18.9598 13.8999 19.2398 14.2199 19.2098C14.2199 19.2098 14.3799 19.1598 14.4099 19.2398C14.4499 19.3198 14.4099 19.7698 14.4099 19.7698C14.4099 19.7698 14.5499 19.7598 14.6399 19.6898L14.9299 19.8298L14.9399 19.5098L15.2999 19.3698C15.2999 19.3698 15.1399 19.3998 14.8299 19.0998C14.8299 19.0998 14.8799 19.0698 14.9199 18.8098C14.9199 18.8098 15.1699 18.6098 15.2299 18.4398C15.2799 18.2798 15.6399 17.9198 16.0499 17.7998L16.1099 18.0498C16.1099 18.0498 16.6999 17.5198 16.9499 17.4898L17.1499 17.7598C17.1499 17.7598 17.9199 16.6198 18.2499 16.4198C18.2199 16.5098 18.4099 16.5198 17.9899 16.9898C17.5699 17.4598 17.8299 17.8298 17.8299 17.8298C17.5699 18.0498 17.6199 18.2398 17.5899 18.4598C17.5599 18.6798 16.6899 19.2598 16.6899 19.2598C16.9599 19.6098 17.2699 19.5298 17.2699 19.5298C17.0999 19.6398 17.1499 20.0098 17.1499 20.0098C17.3999 20.0798 17.6399 19.9598 17.6399 19.9598C17.5599 20.1898 17.6899 20.3598 17.6899 20.3598C17.8499 20.2598 18.1999 20.1998 18.1999 20.1998C18.1499 20.5998 18.4099 20.8198 18.4099 20.8198L18.6399 20.5698C18.6799 21.0298 19.0799 21.2898 19.0799 21.2898C19.0799 21.2898 19.4799 21.0298 19.5199 20.5698L19.7499 20.8198C19.7499 20.8198 20.0099 20.5998 19.9599 20.1998C19.9599 20.1998 20.3199 20.2598 20.4699 20.3598C20.4699 20.3598 20.5999 20.1998 20.5199 19.9598C20.5199 19.9598 20.7699 20.0698 21.0099 20.0098C21.0099 20.0098 21.0599 19.6398 20.8899 19.5298C20.8899 19.5298 21.1999 19.6098 21.4699 19.2598C21.4699 19.2598 20.6099 18.6898 20.5699 18.4598C20.5399 18.2398 20.5899 18.0398 20.3299 17.8298C20.3299 17.8298 20.5899 17.4598 20.1699 16.9898C19.7499 16.5198 19.9399 16.5098 19.9099 16.4198C20.2499 16.6198 21.0099 17.7598 21.0099 17.7598L21.2099 17.4898C21.4599 17.5198 22.0499 18.0498 22.0499 18.0498L22.1099 17.7998L22.1199 17.7898C22.4299 17.9598 22.9399 18.1798 23.1499 18.3398C23.3699 18.5098 23.5499 18.5198 24.0899 18.3398C24.6199 18.1598 25.6099 17.8798 25.4699 17.5398L25.4399 17.4998C25.4574 17.4332 25.4554 17.3628 25.4342 17.2972C25.4129 17.2316 25.3732 17.1735 25.3199 17.1298V17.2098L24.8099 17.0198C24.793 16.9688 24.7617 16.9236 24.7199 16.8898L24.7099 16.9798L24.5799 16.9298L24.8399 16.1998L24.7799 16.1698L24.8199 15.9198C24.8769 15.9384 24.9308 15.9653 24.9799 15.9998L25.0499 15.7298L24.8699 15.7098L24.9599 15.5098L24.6199 15.4098V15.6498C24.5557 15.6247 24.4951 15.5911 24.4399 15.5498L24.3599 15.8498L24.5899 15.8798C24.5772 15.9609 24.5427 16.037 24.4899 16.0998L24.4499 16.0898L24.1999 16.7998L23.5199 16.5398L23.4499 16.6898L23.4599 16.6698C23.4599 16.6698 23.1999 16.8098 23.1999 17.0098C23.146 17.0331 23.1031 17.076 23.0799 17.1298C22.9999 17.3398 23.4799 17.7998 23.3599 17.8498C23.2499 17.9098 22.6499 17.4098 22.5499 17.3298C22.6699 17.3098 22.8499 17.2198 22.8499 17.2198C22.7299 17.1798 22.4999 16.9898 22.4999 16.9898C22.6199 16.9398 22.7299 16.7698 22.7299 16.7698C22.1999 16.6798 22.1499 16.5698 22.1499 16.5698C22.1832 16.5106 22.2068 16.4465 22.2199 16.3798C21.3099 16.2598 21.2399 15.6198 21.2399 15.6198C21.5099 16.0498 21.9499 15.8798 21.9499 15.8798L21.7599 15.5498C22.2799 16.0898 22.9499 15.6998 22.9499 15.6998L22.7699 15.4998C23.6399 15.7198 23.8499 15.2198 23.8499 15.2198C23.5999 15.1798 23.4099 15.0698 23.4099 15.0698C24.4499 15.2898 24.4699 14.6798 24.4699 14.6798L24.0199 14.5398C25.0199 14.6598 25.0499 13.9298 25.0499 13.9298C24.7299 14.0098 24.2299 13.9698 24.2299 13.9698C25.4999 13.8798 25.5199 13.1598 25.5199 13.1598C24.9799 13.3598 24.4999 13.2798 24.4999 13.2798C25.9499 13.0998 25.9399 12.2198 25.9399 12.2198C25.2299 12.6998 24.5399 12.7098 24.5399 12.7098C26.2599 12.2798 26.1299 11.3798 26.1299 11.3798ZM24.6499 17.8298C24.5799 17.7198 24.7499 17.6198 24.8199 17.5098L25.1099 17.6198C25.0099 17.7298 24.7199 17.9498 24.6499 17.8298ZM24.4599 17.3698C24.3699 17.5198 24.2999 17.6798 24.0099 17.6898C23.6499 17.6998 23.5899 17.3798 23.5099 17.1998C23.4876 17.1487 23.4489 17.1065 23.3999 17.0798V16.9798L24.4599 17.3698Z" fill="#F5F5F5"/>
<path d="M18.9703 10.4792C18.9703 10.4792 18.5103 10.0792 18.3703 9.86922C18.3703 9.86922 18.5303 9.80922 18.6003 9.70922C18.6003 9.70922 18.1803 9.48922 17.9603 9.25922C17.9603 9.25922 18.1103 9.23922 18.2203 9.13922C18.2203 9.13922 17.8403 9.06922 17.6503 8.75922C18.0803 8.60922 17.9403 8.19922 17.9403 8.19922C17.8503 8.31922 17.4903 8.45922 17.1003 8.29922C16.7103 8.12922 16.2803 8.24922 16.2803 8.46922C16.2803 8.46922 15.4003 8.21922 15.6203 9.06922C15.6203 9.06922 15.7603 8.74922 16.0703 8.86922C16.3803 8.98922 16.7003 9.38922 16.7003 9.38922C16.7003 9.38922 16.5103 9.49922 16.1403 9.37922C16.1403 9.37922 16.2903 9.93922 16.9403 9.65922C16.9403 9.65922 17.2003 9.79922 17.2103 10.2092C17.2103 10.2092 17.3203 10.1492 17.3903 10.0192C17.3903 10.0192 17.4903 10.4192 17.3603 10.7392C17.3603 10.7392 17.5403 10.7092 17.6003 10.6492C17.6003 10.6492 17.6503 10.9992 17.4203 11.2792C17.4203 11.2792 18.4203 11.7592 19.0503 11.2292C19.0503 11.2292 18.8103 10.9592 18.7303 10.6992C18.7603 10.6992 18.8903 10.6392 18.9703 10.4792ZM21.8703 8.46922C21.8703 8.24922 21.4403 8.13922 21.0503 8.29922C20.6603 8.46922 20.3003 8.31922 20.2103 8.19922C20.2103 8.19922 20.0603 8.60922 20.5003 8.75922C20.3103 9.06922 19.9303 9.13922 19.9303 9.13922C20.0403 9.22922 20.1903 9.25922 20.1903 9.25922C19.9703 9.48922 19.5503 9.70922 19.5503 9.70922C19.6303 9.80922 19.7803 9.86922 19.7803 9.86922C19.6403 10.0892 19.1803 10.4792 19.1803 10.4792C19.2257 10.5726 19.2991 10.6495 19.3903 10.6992C19.3103 10.9492 19.0703 11.2292 19.0703 11.2292C19.7003 11.7492 20.7003 11.2792 20.7003 11.2792C20.4703 10.9992 20.5203 10.6492 20.5203 10.6492C20.5803 10.7092 20.7603 10.7392 20.7603 10.7392C20.6203 10.4092 20.7303 10.0192 20.7303 10.0192C20.7723 10.0974 20.8345 10.163 20.9103 10.2092C20.9203 9.79922 21.1803 9.65922 21.1803 9.65922C21.8603 9.92922 22.0003 9.36922 22.0003 9.36922C21.6403 9.48922 21.4403 9.37922 21.4403 9.37922C21.4403 9.37922 21.7603 8.97922 22.0703 8.85922C22.3803 8.73922 22.5203 9.05922 22.5203 9.05922C22.7503 8.20922 21.8703 8.46922 21.8703 8.46922Z" fill="#F5F5F5"/>
<path d="M21.4698 13.6602C21.3798 13.1602 21.3098 12.7302 21.5298 12.2302L21.5698 12.1402L20.7198 11.1602L20.6198 11.1902C20.6098 11.1902 19.7198 11.4802 19.1498 11.2002L19.0798 11.1602L19.0098 11.2002C18.4398 11.4902 17.5498 11.1902 17.5398 11.1902L17.4398 11.1602L16.5898 12.1402L16.6298 12.2302C16.8398 12.7202 16.7698 13.1602 16.6898 13.6602C16.5652 14.2061 16.5618 14.7727 16.6798 15.3202C16.8498 16.0302 17.4398 16.2802 17.9598 16.5002C18.3598 16.6702 18.7398 16.8302 18.9498 17.1702L19.0798 17.3802L19.2098 17.1702C19.4198 16.8302 19.7998 16.6702 20.1998 16.5002C20.7198 16.2802 21.3098 16.0302 21.4798 15.3202C21.6498 14.6702 21.5498 14.1302 21.4698 13.6602ZM16.9598 12.2002L17.5398 11.5302C17.7998 11.6002 18.5198 11.7602 19.0798 11.5202C19.6398 11.7602 20.3498 11.6002 20.6198 11.5302L21.1998 12.2002C20.9998 12.7402 21.0798 13.2102 21.1598 13.7102C21.2198 14.0802 21.2898 14.4702 21.2298 14.9102H16.9198C16.8698 14.4702 16.9298 14.0802 16.9898 13.7102C17.0798 13.2202 17.1698 12.7402 16.9598 12.2002ZM20.0798 16.2102C19.7198 16.3602 19.3498 16.5202 19.0798 16.8302C18.8098 16.5302 18.4398 16.3702 18.0798 16.2102C17.5698 15.9902 17.1398 15.8002 16.9898 15.2702H21.1698C21.0198 15.8002 20.5898 15.9902 20.0798 16.2102Z" fill="#F5F5F5"/>
<path d="M16.96 12.1995L17.54 11.5295C17.8 11.5995 18.52 11.7595 19.08 11.5195C19.64 11.7595 20.35 11.5995 20.62 11.5295L21.2 12.1995C21 12.7395 21.08 13.2095 21.16 13.7095C21.22 14.0795 21.29 14.4695 21.23 14.9095H16.92C16.87 14.4695 16.93 14.0795 16.99 13.7095C17.08 13.2195 17.17 12.7395 16.96 12.1995ZM16.97 15.1795L16.98 15.2495C17.12 15.7995 17.56 15.9895 18.08 16.2195C18.44 16.3695 18.81 16.5295 19.08 16.8395C19.35 16.5395 19.72 16.3795 20.08 16.2195C20.6 15.9995 21.04 15.8095 21.18 15.2495L21.19 15.1795H16.97Z" fill="#F5F5F5"/>
<path d="M20.9904 13.3314C20.9904 13.0414 20.7204 13.0014 20.4704 13.0014C20.2204 13.0014 19.8604 12.9614 19.8504 12.7714C19.8404 12.6514 20.0504 12.6414 20.1804 12.6814C20.2604 12.7014 20.7304 12.7914 20.8804 12.4714C20.8804 12.4714 20.7104 12.4814 20.5204 12.4314C20.3804 12.4014 19.8004 12.4714 19.7004 12.6914C19.6004 12.9114 19.9304 13.1414 20.3204 13.1414C20.7104 13.1414 20.7604 13.2214 20.7604 13.3114C20.7604 13.4314 20.4504 13.4714 20.2704 13.4714C19.9904 13.3714 19.3404 13.4514 19.3404 13.4414L19.1904 13.1714C19.1904 13.1714 19.4604 13.1514 19.4904 13.1014C19.5204 13.0514 19.2904 12.8614 19.2904 12.8614C19.2904 12.8614 19.4904 12.7814 19.5004 12.7214C19.5104 12.6614 19.3404 12.5114 19.3404 12.5114C19.3404 12.5114 19.4104 12.4514 19.4504 12.3414C19.4904 12.2614 19.2104 12.2414 19.2104 12.2414C19.2204 12.1814 19.2204 12.1214 19.1504 12.1014C19.0904 12.0814 18.8804 12.1614 18.7404 12.1614C18.6004 12.1614 18.5404 12.2614 18.5404 12.2614C18.5404 12.2614 18.2904 12.2914 18.2504 12.3214C18.2204 12.3514 18.2604 12.5414 18.2604 12.5414C18.1304 12.5214 18.0704 12.4114 18.0704 12.4114C18.0104 12.7014 18.3104 12.7314 18.3104 12.7314L18.3604 12.8914L18.4804 12.9014C18.6004 12.9114 18.5404 13.0314 18.3504 13.0314C18.1604 13.0314 18.0704 13.2614 18.0704 13.2614C17.9404 13.2614 17.8604 13.1514 17.8304 13.0214C17.8004 12.8714 17.8204 12.6314 17.8404 12.4814C17.8704 12.3014 17.7804 12.2514 17.7804 12.2514L17.7204 12.4014C17.7204 12.2514 17.5804 12.2314 17.5804 12.2314L17.5604 12.4214C17.4904 12.3014 17.3804 12.3514 17.3804 12.3514L17.4904 12.7814C17.4904 12.8014 17.4504 12.8214 17.4004 12.7614C17.3504 12.7014 17.3104 12.7414 17.3104 12.7414C17.3704 13.1514 17.5804 13.0914 17.5804 13.0914C17.5804 13.0914 17.5904 13.2214 17.6604 13.4714C17.7304 13.7514 18.0204 13.6914 18.0204 13.6914C18.0204 13.7814 18.0904 13.9114 18.1104 14.2114C18.1304 14.5114 17.8604 14.7214 17.8604 14.7214C17.6104 14.7214 17.6404 14.9614 17.6404 14.9614H18.3304C18.3304 14.3214 18.6004 14.2114 18.6004 14.2114C19.0004 14.2314 19.3904 14.0614 19.3904 14.0614C19.3304 14.3014 19.4304 14.4114 19.4304 14.4114C19.5904 14.3914 19.5104 14.7114 19.4604 14.7114H19.2504C19.1904 14.7114 19.0004 14.9314 19.0004 14.9314H19.7104L19.8604 14.6914C19.9004 14.6114 19.7804 14.5014 19.7704 14.4214C19.7604 14.3414 19.8904 14.2814 19.8904 14.2814C20.0304 14.4814 20.3504 14.4914 20.3504 14.4914L20.3404 14.3414C20.3404 14.3414 20.5004 14.4014 20.5404 14.4514C20.5804 14.5014 20.5704 14.7214 20.3704 14.7514C20.1704 14.7814 20.1604 14.9214 20.1604 14.9214H20.7004C20.7904 14.9214 20.8604 14.7514 20.8604 14.6914V14.1214C20.8604 14.0314 20.7904 14.0414 20.6104 14.0214C20.4504 14.0014 20.4704 13.8314 20.4004 13.6214C20.6304 13.6214 20.9904 13.5714 20.9904 13.3314ZM20.9404 6.51141C20.9004 6.12141 20.5804 5.62141 19.3904 5.38141C19.3906 5.32104 19.3725 5.26202 19.3386 5.21206C19.3047 5.16211 19.2566 5.12354 19.2004 5.10141V4.88141H19.3904V4.64141H19.2004V4.44141H18.9704V4.64141H18.7804V4.87141H18.9704V5.10141C18.9142 5.12354 18.8661 5.16211 18.8322 5.21206C18.7983 5.26202 18.7802 5.32104 18.7804 5.38141C17.5904 5.61141 17.2804 6.12141 17.2304 6.51141C17.1704 7.00141 17.5204 7.47141 17.8404 7.64141V7.89141H20.3304V7.64141C20.6504 7.46141 21.0004 7.00141 20.9404 6.51141ZM19.6404 7.26141H19.2904V5.82141C19.5804 5.95141 19.7604 6.15141 19.8104 6.43141C19.8704 6.77141 19.7404 7.12141 19.6404 7.26141ZM18.3704 6.43141C18.4204 6.16141 18.6004 5.96141 18.8904 5.82141V7.26141H18.5404C18.4404 7.12141 18.3004 6.77141 18.3704 6.43141ZM18.0804 6.03141C18.0204 6.15141 17.9904 6.26141 17.9704 6.37141C17.9104 6.69141 17.9804 7.02141 18.0904 7.27141H18.0004C17.8304 7.15141 17.6004 6.85141 17.6304 6.56141C17.6604 6.35141 17.8104 6.17141 18.0804 6.03141ZM20.1804 7.26141H20.1004C20.2104 7.01141 20.2704 6.68141 20.2204 6.36141C20.196 6.24446 20.1591 6.13048 20.1104 6.02141C20.3804 6.16141 20.5304 6.34141 20.5604 6.54141C20.5704 6.85141 20.3504 7.14141 20.1804 7.26141Z" fill="#F5F5F5"/>
<path d="M1.30957 1.82031H36.6896V24.1903H1.30957V1.82031Z" fill="#CE2439"/>
<path d="M35.15 0.5H2.85002C2.47491 0.499998 2.10349 0.574045 1.75706 0.717896C1.41062 0.861747 1.096 1.07257 0.831219 1.33828C0.566441 1.60399 0.356721 1.91935 0.214084 2.26628C0.0714475 2.61321 -0.00129863 2.98489 1.75455e-05 3.36V22.64C-0.00129863 23.0151 0.0714475 23.3868 0.214084 23.7337C0.356721 24.0807 0.566441 24.396 0.831219 24.6617C1.096 24.9274 1.41062 25.1383 1.75706 25.2821C2.10349 25.426 2.47491 25.5 2.85002 25.5H35.16C35.9168 25.4974 36.6417 25.1949 37.1759 24.6588C37.7101 24.1227 38.01 23.3968 38.01 22.64V3.36C38.0074 2.60229 37.7052 1.87637 37.1694 1.34059C36.6337 0.804802 35.9077 0.502636 35.15 0.5ZM36.69 24.18H1.31002V1.82H36.69V24.18Z" fill="#E5A820"/>
<path d="M24.3799 18.1289C24.9322 18.1289 25.3799 17.6812 25.3799 17.1289C25.3799 16.5766 24.9322 16.1289 24.3799 16.1289C23.8276 16.1289 23.3799 16.5766 23.3799 17.1289C23.3799 17.6812 23.8276 18.1289 24.3799 18.1289Z" fill="#41479B"/>
<path d="M26.1299 11.3798C25.3999 11.9998 24.8999 12.0298 24.8999 12.0298C26.2099 11.4998 26.0699 10.4798 26.0699 10.4798C25.4499 11.2998 24.8199 11.5198 24.8199 11.5198C26.1299 10.6298 25.9199 9.42984 25.9199 9.42984C25.4899 10.3798 24.9499 10.7498 24.9499 10.7498C26.0399 9.28984 25.5099 8.34984 25.5099 8.34984C25.0799 9.69984 24.7199 10.0898 24.7199 10.0898C25.5599 7.83984 24.8399 7.18984 24.8399 7.18984C24.8399 8.39984 24.3899 9.08984 24.3899 9.08984C24.8599 7.49984 24.1199 6.58984 24.1199 6.58984C24.1199 6.58984 24.1099 7.88984 23.8599 8.56984C23.7999 8.47984 23.7599 8.48984 23.7599 8.48984C23.6592 9.09507 23.3965 9.66176 22.9999 10.1298C22.9599 9.91984 22.8299 9.85984 22.8299 9.85984C22.8299 9.85984 22.8099 10.0598 22.6199 10.3598C22.4999 10.5598 21.9399 11.0198 21.8499 11.4198C21.7799 11.7398 22.0999 12.0098 22.1999 12.0798C22.2999 12.1498 22.4099 12.2598 22.3699 12.4498C22.3199 12.6398 21.9899 12.6198 21.7499 12.6098C21.5099 12.5998 21.4799 12.9998 21.2099 12.9898L21.1599 13.2898L21.0599 13.3098C21.0599 13.3098 19.9699 15.4898 19.8799 16.2398L19.0799 16.3498L18.2799 16.2398C18.1899 15.4998 17.0999 13.3098 17.0999 13.3098L16.9999 13.2898L16.9499 12.9898C16.6799 12.9998 16.6499 12.6098 16.4099 12.6098C16.1699 12.6198 15.8299 12.6398 15.7899 12.4498C15.7399 12.2598 15.8499 12.1398 15.9599 12.0798C16.0599 12.0098 16.3799 11.7498 16.3099 11.4198C16.2199 11.0198 15.6599 10.5598 15.5399 10.3598C15.3599 10.0598 15.3299 9.85984 15.3299 9.85984C15.3299 9.85984 15.1999 9.91984 15.1599 10.1298C14.7589 9.66456 14.4956 9.09659 14.3999 8.48984C14.3999 8.48984 14.3599 8.47984 14.2999 8.56984C14.0499 7.88984 14.0399 6.58984 14.0399 6.58984C14.0399 6.58984 13.2999 7.49984 13.7699 9.08984C13.7699 9.08984 13.3199 8.39984 13.3199 7.18984C13.3199 7.18984 12.5999 7.83984 13.4399 10.0898C13.4399 10.0898 13.0799 9.69984 12.6499 8.34984C12.6499 8.34984 12.1099 9.28984 13.2099 10.7498C13.2099 10.7498 12.6699 10.3798 12.2399 9.42984C12.2399 9.42984 12.0299 10.6298 13.3399 11.5198C13.3399 11.5198 12.7099 11.2898 12.0899 10.4798C12.0899 10.4798 11.9499 11.4998 13.2599 12.0298C13.2599 12.0298 12.7699 11.9998 12.0299 11.3798C12.0299 11.3798 11.8999 12.2798 13.5999 12.7398C13.5999 12.7398 12.9099 12.7298 12.1999 12.2498C12.1999 12.2498 12.1799 13.1398 13.6399 13.3098C13.6399 13.3098 13.1599 13.3798 12.6199 13.1898C12.6199 13.1898 12.6399 13.9098 13.9099 13.9998C13.9099 13.9998 13.4099 14.0398 13.0899 13.9598C13.0899 13.9598 13.1199 14.6998 14.1199 14.5698L13.6699 14.7098C13.6699 14.7098 13.6899 15.3098 14.7299 15.0998C14.7299 15.0998 14.5399 15.2198 14.2899 15.2498C14.2899 15.2498 14.4999 15.7498 15.3699 15.5298L15.1899 15.7298C15.1899 15.7298 15.8599 16.1198 16.3799 15.5798L16.1899 15.9098C16.1899 15.9098 16.6299 16.0798 16.8999 15.6498C16.8999 15.6498 16.8299 16.2998 15.9199 16.4098C15.9199 16.4098 15.9499 16.5498 15.9899 16.5998C15.9899 16.5998 15.9299 16.7098 15.4099 16.7998C15.4099 16.7998 15.5199 16.9698 15.6399 17.0198C15.6399 17.0198 15.4099 17.2198 15.2899 17.2498C15.2899 17.2498 15.4799 17.3498 15.6099 17.3698C15.6099 17.3698 15.3399 17.6398 14.9999 17.6398C14.6599 17.6498 14.0599 17.6098 14.0599 17.6098C14.0599 17.6098 14.0499 17.2798 13.8999 16.9998C13.7399 16.7198 13.6899 16.6998 13.6899 16.6998C13.6899 16.6998 13.7199 16.4798 13.6299 16.3798C13.5399 16.2798 13.4799 16.2398 13.4799 16.2398C13.4799 16.2398 13.5299 15.7898 13.3899 15.5098C13.2499 15.2298 12.7399 14.6198 12.7099 14.1598C12.6799 13.6998 12.6999 13.5298 12.6999 13.5298L12.5399 13.5698L12.4399 13.3498L12.6199 13.3298L12.5499 12.9998L12.3099 13.0898L12.2799 12.8098L11.9899 12.9298L12.1299 13.1798L11.8799 13.2498L12.0299 13.5498L12.2199 13.4298L12.2699 13.6898C12.2699 13.6898 12.1499 13.7198 12.0899 13.8198C12.0899 13.8198 12.4099 14.0298 12.5099 14.2898C12.6599 14.6898 12.6099 15.6098 12.8299 15.8798C13.0399 16.1498 13.2099 16.3398 13.2099 16.3398C13.2099 16.3398 13.1499 16.5298 13.2199 16.6298C13.2899 16.7298 13.3899 16.7598 13.3899 16.7598C13.3899 16.7598 13.3299 17.1798 13.4799 17.4498C13.6299 17.7198 13.7199 17.7898 13.7199 17.7898C13.7199 17.7898 13.1699 18.1298 13.5599 18.5198C13.5599 18.5198 13.5099 18.8798 13.8799 18.9598C13.8799 18.9598 13.8999 19.2398 14.2199 19.2098C14.2199 19.2098 14.3799 19.1598 14.4099 19.2398C14.4499 19.3198 14.4099 19.7698 14.4099 19.7698C14.4099 19.7698 14.5499 19.7598 14.6399 19.6898L14.9299 19.8298L14.9399 19.5098L15.2999 19.3698C15.2999 19.3698 15.1399 19.3998 14.8299 19.0998C14.8299 19.0998 14.8799 19.0698 14.9199 18.8098C14.9199 18.8098 15.1699 18.6098 15.2299 18.4398C15.2799 18.2798 15.6399 17.9198 16.0499 17.7998L16.1099 18.0498C16.1099 18.0498 16.6999 17.5198 16.9499 17.4898L17.1499 17.7598C17.1499 17.7598 17.9199 16.6198 18.2499 16.4198C18.2199 16.5098 18.4099 16.5198 17.9899 16.9898C17.5699 17.4598 17.8299 17.8298 17.8299 17.8298C17.5699 18.0498 17.6199 18.2398 17.5899 18.4598C17.5599 18.6798 16.6899 19.2598 16.6899 19.2598C16.9599 19.6098 17.2699 19.5298 17.2699 19.5298C17.0999 19.6398 17.1499 20.0098 17.1499 20.0098C17.3999 20.0798 17.6399 19.9598 17.6399 19.9598C17.5599 20.1898 17.6899 20.3598 17.6899 20.3598C17.8499 20.2598 18.1999 20.1998 18.1999 20.1998C18.1499 20.5998 18.4099 20.8198 18.4099 20.8198L18.6399 20.5698C18.6799 21.0298 19.0799 21.2898 19.0799 21.2898C19.0799 21.2898 19.4799 21.0298 19.5199 20.5698L19.7499 20.8198C19.7499 20.8198 20.0099 20.5998 19.9599 20.1998C19.9599 20.1998 20.3199 20.2598 20.4699 20.3598C20.4699 20.3598 20.5999 20.1998 20.5199 19.9598C20.5199 19.9598 20.7699 20.0698 21.0099 20.0098C21.0099 20.0098 21.0599 19.6398 20.8899 19.5298C20.8899 19.5298 21.1999 19.6098 21.4699 19.2598C21.4699 19.2598 20.6099 18.6898 20.5699 18.4598C20.5399 18.2398 20.5899 18.0398 20.3299 17.8298C20.3299 17.8298 20.5899 17.4598 20.1699 16.9898C19.7499 16.5198 19.9399 16.5098 19.9099 16.4198C20.2499 16.6198 21.0099 17.7598 21.0099 17.7598L21.2099 17.4898C21.4599 17.5198 22.0499 18.0498 22.0499 18.0498L22.1099 17.7998L22.1199 17.7898C22.4299 17.9598 22.9399 18.1798 23.1499 18.3398C23.3699 18.5098 23.5499 18.5198 24.0899 18.3398C24.6199 18.1598 25.6099 17.8798 25.4699 17.5398L25.4399 17.4998C25.4574 17.4332 25.4554 17.3628 25.4342 17.2972C25.4129 17.2316 25.3732 17.1735 25.3199 17.1298V17.2098L24.8099 17.0198C24.793 16.9688 24.7617 16.9236 24.7199 16.8898L24.7099 16.9798L24.5799 16.9298L24.8399 16.1998L24.7799 16.1698L24.8199 15.9198C24.8769 15.9384 24.9308 15.9653 24.9799 15.9998L25.0499 15.7298L24.8699 15.7098L24.9599 15.5098L24.6199 15.4098V15.6498C24.5557 15.6247 24.4951 15.5911 24.4399 15.5498L24.3599 15.8498L24.5899 15.8798C24.5772 15.9609 24.5427 16.037 24.4899 16.0998L24.4499 16.0898L24.1999 16.7998L23.5199 16.5398L23.4499 16.6898L23.4599 16.6698C23.4599 16.6698 23.1999 16.8098 23.1999 17.0098C23.146 17.0331 23.1031 17.076 23.0799 17.1298C22.9999 17.3398 23.4799 17.7998 23.3599 17.8498C23.2499 17.9098 22.6499 17.4098 22.5499 17.3298C22.6699 17.3098 22.8499 17.2198 22.8499 17.2198C22.7299 17.1798 22.4999 16.9898 22.4999 16.9898C22.6199 16.9398 22.7299 16.7698 22.7299 16.7698C22.1999 16.6798 22.1499 16.5698 22.1499 16.5698C22.1832 16.5106 22.2068 16.4465 22.2199 16.3798C21.3099 16.2598 21.2399 15.6198 21.2399 15.6198C21.5099 16.0498 21.9499 15.8798 21.9499 15.8798L21.7599 15.5498C22.2799 16.0898 22.9499 15.6998 22.9499 15.6998L22.7699 15.4998C23.6399 15.7198 23.8499 15.2198 23.8499 15.2198C23.5999 15.1798 23.4099 15.0698 23.4099 15.0698C24.4499 15.2898 24.4699 14.6798 24.4699 14.6798L24.0199 14.5398C25.0199 14.6598 25.0499 13.9298 25.0499 13.9298C24.7299 14.0098 24.2299 13.9698 24.2299 13.9698C25.4999 13.8798 25.5199 13.1598 25.5199 13.1598C24.9799 13.3598 24.4999 13.2798 24.4999 13.2798C25.9499 13.0998 25.9399 12.2198 25.9399 12.2198C25.2299 12.6998 24.5399 12.7098 24.5399 12.7098C26.2599 12.2798 26.1299 11.3798 26.1299 11.3798ZM24.6499 17.8298C24.5799 17.7198 24.7499 17.6198 24.8199 17.5098L25.1099 17.6198C25.0099 17.7298 24.7199 17.9498 24.6499 17.8298ZM24.4599 17.3698C24.3699 17.5198 24.2999 17.6798 24.0099 17.6898C23.6499 17.6998 23.5899 17.3798 23.5099 17.1998C23.4876 17.1487 23.4489 17.1065 23.3999 17.0798V16.9798L24.4599 17.3698Z" fill="#E5A923"/>
<path d="M18.9703 10.4792C18.9703 10.4792 18.5103 10.0792 18.3703 9.86922C18.3703 9.86922 18.5303 9.80922 18.6003 9.70922C18.6003 9.70922 18.1803 9.48922 17.9603 9.25922C17.9603 9.25922 18.1103 9.23922 18.2203 9.13922C18.2203 9.13922 17.8403 9.06922 17.6503 8.75922C18.0803 8.60922 17.9403 8.19922 17.9403 8.19922C17.8503 8.31922 17.4903 8.45922 17.1003 8.29922C16.7103 8.12922 16.2803 8.24922 16.2803 8.46922C16.2803 8.46922 15.4003 8.21922 15.6203 9.06922C15.6203 9.06922 15.7603 8.74922 16.0703 8.86922C16.3803 8.98922 16.7003 9.38922 16.7003 9.38922C16.7003 9.38922 16.5103 9.49922 16.1403 9.37922C16.1403 9.37922 16.2903 9.93922 16.9403 9.65922C16.9403 9.65922 17.2003 9.79922 17.2103 10.2092C17.2103 10.2092 17.3203 10.1492 17.3903 10.0192C17.3903 10.0192 17.4903 10.4192 17.3603 10.7392C17.3603 10.7392 17.5403 10.7092 17.6003 10.6492C17.6003 10.6492 17.6503 10.9992 17.4203 11.2792C17.4203 11.2792 18.4203 11.7592 19.0503 11.2292C19.0503 11.2292 18.8103 10.9592 18.7303 10.6992C18.7603 10.6992 18.8903 10.6392 18.9703 10.4792ZM21.8703 8.46922C21.8703 8.24922 21.4403 8.13922 21.0503 8.29922C20.6603 8.46922 20.3003 8.31922 20.2103 8.19922C20.2103 8.19922 20.0603 8.60922 20.5003 8.75922C20.3103 9.06922 19.9303 9.13922 19.9303 9.13922C20.0403 9.22922 20.1903 9.25922 20.1903 9.25922C19.9703 9.48922 19.5503 9.70922 19.5503 9.70922C19.6303 9.80922 19.7803 9.86922 19.7803 9.86922C19.6403 10.0892 19.1803 10.4792 19.1803 10.4792C19.2257 10.5726 19.2991 10.6495 19.3903 10.6992C19.3103 10.9492 19.0703 11.2292 19.0703 11.2292C19.7003 11.7492 20.7003 11.2792 20.7003 11.2792C20.4703 10.9992 20.5203 10.6492 20.5203 10.6492C20.5803 10.7092 20.7603 10.7392 20.7603 10.7392C20.6203 10.4092 20.7303 10.0192 20.7303 10.0192C20.7723 10.0974 20.8345 10.163 20.9103 10.2092C20.9203 9.79922 21.1803 9.65922 21.1803 9.65922C21.8603 9.92922 22.0003 9.36922 22.0003 9.36922C21.6403 9.48922 21.4403 9.37922 21.4403 9.37922C21.4403 9.37922 21.7603 8.97922 22.0703 8.85922C22.3803 8.73922 22.5203 9.05922 22.5203 9.05922C22.7503 8.20922 21.8703 8.46922 21.8703 8.46922Z" fill="#E5A923"/>
<path d="M21.4698 13.6602C21.3798 13.1602 21.3098 12.7302 21.5298 12.2302L21.5698 12.1402L20.7198 11.1602L20.6198 11.1902C20.6098 11.1902 19.7198 11.4802 19.1498 11.2002L19.0798 11.1602L19.0098 11.2002C18.4398 11.4902 17.5498 11.1902 17.5398 11.1902L17.4398 11.1602L16.5898 12.1402L16.6298 12.2302C16.8398 12.7202 16.7698 13.1602 16.6898 13.6602C16.5652 14.2061 16.5618 14.7727 16.6798 15.3202C16.8498 16.0302 17.4398 16.2802 17.9598 16.5002C18.3598 16.6702 18.7398 16.8302 18.9498 17.1702L19.0798 17.3802L19.2098 17.1702C19.4198 16.8302 19.7998 16.6702 20.1998 16.5002C20.7198 16.2802 21.3098 16.0302 21.4798 15.3202C21.6498 14.6702 21.5498 14.1302 21.4698 13.6602ZM16.9598 12.2002L17.5398 11.5302C17.7998 11.6002 18.5198 11.7602 19.0798 11.5202C19.6398 11.7602 20.3498 11.6002 20.6198 11.5302L21.1998 12.2002C20.9998 12.7402 21.0798 13.2102 21.1598 13.7102C21.2198 14.0802 21.2898 14.4702 21.2298 14.9102H16.9198C16.8698 14.4702 16.9298 14.0802 16.9898 13.7102C17.0798 13.2202 17.1698 12.7402 16.9598 12.2002ZM20.0798 16.2102C19.7198 16.3602 19.3498 16.5202 19.0798 16.8302C18.8098 16.5302 18.4398 16.3702 18.0798 16.2102C17.5698 15.9902 17.1398 15.8002 16.9898 15.2702H21.1698C21.0198 15.8002 20.5898 15.9902 20.0798 16.2102Z" fill="#E5A923"/>
<path d="M16.96 12.1995L17.54 11.5295C17.8 11.5995 18.52 11.7595 19.08 11.5195C19.64 11.7595 20.35 11.5995 20.62 11.5295L21.2 12.1995C21 12.7395 21.08 13.2095 21.16 13.7095C21.22 14.0795 21.29 14.4695 21.23 14.9095H16.92C16.87 14.4695 16.93 14.0795 16.99 13.7095C17.08 13.2195 17.17 12.7395 16.96 12.1995Z" fill="#41479B"/>
<path d="M16.9697 15.1797L16.9797 15.2497C17.1197 15.7997 17.5597 15.9897 18.0797 16.2197C18.4397 16.3697 18.8097 16.5297 19.0797 16.8397C19.3497 16.5397 19.7197 16.3797 20.0797 16.2197C20.5997 15.9997 21.0397 15.8097 21.1797 15.2497L21.1897 15.1797H16.9697Z" fill="#73AF00"/>
<path d="M20.9904 13.3314C20.9904 13.0414 20.7204 13.0014 20.4704 13.0014C20.2204 13.0014 19.8604 12.9614 19.8504 12.7714C19.8404 12.6514 20.0504 12.6414 20.1804 12.6814C20.2604 12.7014 20.7304 12.7914 20.8804 12.4714C20.8804 12.4714 20.7104 12.4814 20.5204 12.4314C20.3804 12.4014 19.8004 12.4714 19.7004 12.6914C19.6004 12.9114 19.9304 13.1414 20.3204 13.1414C20.7104 13.1414 20.7604 13.2214 20.7604 13.3114C20.7604 13.4314 20.4504 13.4714 20.2704 13.4714C19.9904 13.3714 19.3404 13.4514 19.3404 13.4414L19.1904 13.1714C19.1904 13.1714 19.4604 13.1514 19.4904 13.1014C19.5204 13.0514 19.2904 12.8614 19.2904 12.8614C19.2904 12.8614 19.4904 12.7814 19.5004 12.7214C19.5104 12.6614 19.3404 12.5114 19.3404 12.5114C19.3404 12.5114 19.4104 12.4514 19.4504 12.3414C19.4904 12.2614 19.2104 12.2414 19.2104 12.2414C19.2204 12.1814 19.2204 12.1214 19.1504 12.1014C19.0904 12.0814 18.8804 12.1614 18.7404 12.1614C18.6004 12.1614 18.5404 12.2614 18.5404 12.2614C18.5404 12.2614 18.2904 12.2914 18.2504 12.3214C18.2204 12.3514 18.2604 12.5414 18.2604 12.5414C18.1304 12.5214 18.0704 12.4114 18.0704 12.4114C18.0104 12.7014 18.3104 12.7314 18.3104 12.7314L18.3604 12.8914L18.4804 12.9014C18.6004 12.9114 18.5404 13.0314 18.3504 13.0314C18.1604 13.0314 18.0704 13.2614 18.0704 13.2614C17.9404 13.2614 17.8604 13.1514 17.8304 13.0214C17.8004 12.8714 17.8204 12.6314 17.8404 12.4814C17.8704 12.3014 17.7804 12.2514 17.7804 12.2514L17.7204 12.4014C17.7204 12.2514 17.5804 12.2314 17.5804 12.2314L17.5604 12.4214C17.4904 12.3014 17.3804 12.3514 17.3804 12.3514L17.4904 12.7814C17.4904 12.8014 17.4504 12.8214 17.4004 12.7614C17.3504 12.7014 17.3104 12.7414 17.3104 12.7414C17.3704 13.1514 17.5804 13.0914 17.5804 13.0914C17.5804 13.0914 17.5904 13.2214 17.6604 13.4714C17.7304 13.7514 18.0204 13.6914 18.0204 13.6914C18.0204 13.7814 18.0904 13.9114 18.1104 14.2114C18.1304 14.5114 17.8604 14.7214 17.8604 14.7214C17.6104 14.7214 17.6404 14.9614 17.6404 14.9614H18.3304C18.3304 14.3214 18.6004 14.2114 18.6004 14.2114C19.0004 14.2314 19.3904 14.0614 19.3904 14.0614C19.3304 14.3014 19.4304 14.4114 19.4304 14.4114C19.5904 14.3914 19.5104 14.7114 19.4604 14.7114H19.2504C19.1904 14.7114 19.0004 14.9314 19.0004 14.9314H19.7104L19.8604 14.6914C19.9004 14.6114 19.7804 14.5014 19.7704 14.4214C19.7604 14.3414 19.8904 14.2814 19.8904 14.2814C20.0304 14.4814 20.3504 14.4914 20.3504 14.4914L20.3404 14.3414C20.3404 14.3414 20.5004 14.4014 20.5404 14.4514C20.5804 14.5014 20.5704 14.7214 20.3704 14.7514C20.1704 14.7814 20.1604 14.9214 20.1604 14.9214H20.7004C20.7904 14.9214 20.8604 14.7514 20.8604 14.6914V14.1214C20.8604 14.0314 20.7904 14.0414 20.6104 14.0214C20.4504 14.0014 20.4704 13.8314 20.4004 13.6214C20.6304 13.6214 20.9904 13.5714 20.9904 13.3314ZM20.9404 6.51141C20.9004 6.12141 20.5804 5.62141 19.3904 5.38141C19.3906 5.32104 19.3725 5.26202 19.3386 5.21206C19.3047 5.16211 19.2566 5.12354 19.2004 5.10141V4.88141H19.3904V4.64141H19.2004V4.44141H18.9704V4.64141H18.7804V4.87141H18.9704V5.10141C18.9142 5.12354 18.8661 5.16211 18.8322 5.21206C18.7983 5.26202 18.7802 5.32104 18.7804 5.38141C17.5904 5.61141 17.2804 6.12141 17.2304 6.51141C17.1704 7.00141 17.5204 7.47141 17.8404 7.64141V7.89141H20.3304V7.64141C20.6504 7.46141 21.0004 7.00141 20.9404 6.51141ZM19.6404 7.26141H19.2904V5.82141C19.5804 5.95141 19.7604 6.15141 19.8104 6.43141C19.8704 6.77141 19.7404 7.12141 19.6404 7.26141ZM18.3704 6.43141C18.4204 6.16141 18.6004 5.96141 18.8904 5.82141V7.26141H18.5404C18.4404 7.12141 18.3004 6.77141 18.3704 6.43141ZM18.0804 6.03141C18.0204 6.15141 17.9904 6.26141 17.9704 6.37141C17.9104 6.69141 17.9804 7.02141 18.0904 7.27141H18.0004C17.8304 7.15141 17.6004 6.85141 17.6304 6.56141C17.6604 6.35141 17.8104 6.17141 18.0804 6.03141ZM20.1804 7.26141H20.1004C20.2104 7.01141 20.2704 6.68141 20.2204 6.36141C20.196 6.24446 20.1591 6.13048 20.1104 6.02141C20.3804 6.16141 20.5304 6.34141 20.5604 6.54141C20.5704 6.85141 20.3504 7.14141 20.1804 7.26141Z" fill="#E6B432"/>
</g>
</g>
<defs>
<clipPath id="clip0_26003_70446">
<rect width="38" height="25" fill="white" transform="translate(0 0.5)"/>
</clipPath>
<clipPath id="clip1_26003_70446">
<rect width="38" height="25" fill="white" transform="translate(0 0.5)"/>
</clipPath>
</defs>
</svg>
