<svg width="39" height="26" viewBox="0 0 39 26" fill="none" xmlns="http://www.w3.org/2000/svg">
<g clip-path="url(#clip0_26003_53456)">
<g clip-path="url(#clip1_26003_53456)">
<path d="M13.1855 0.210938H26.2355V25.2109H13.1855V0.210938Z" fill="#BF0000"/>
<path d="M13.1851 0.211438H4.42512C3.94805 0.203502 3.47413 0.289952 3.03059 0.465819C2.58706 0.641685 2.18267 0.903497 1.84067 1.2362C1.49868 1.5689 1.22583 1.96593 1.03781 2.40445C0.849794 2.84297 0.750323 3.31434 0.745117 3.79144V21.6314C0.745117 23.6314 2.39512 25.2114 4.42512 25.2114H13.2551V0.211438H13.1851Z" fill="black"/>
<path d="M35.0647 0.210938H26.3047V25.2109H35.0647C35.5417 25.2189 36.0157 25.1324 36.4592 24.9566C36.9027 24.7807 37.3071 24.5189 37.6491 24.1862C37.9911 23.8535 38.264 23.4564 38.452 23.0179C38.64 22.5794 38.7395 22.108 38.7447 21.6309V3.79094C38.7447 1.79094 37.0947 0.210938 35.0647 0.210938Z" fill="#009900"/>
<path d="M35.0647 0.210938H26.3047V18.0509L35.0647 25.2109C35.5417 25.2189 36.0157 25.1324 36.4592 24.9566C36.9027 24.7807 37.3071 24.5189 37.6491 24.1862C37.9911 23.8535 38.264 23.4564 38.452 23.0179C38.64 22.5794 38.7395 22.108 38.7447 21.6309V3.79094C38.7447 1.79094 37.0947 0.210938 35.0647 0.210938Z" fill="#009900"/>
<path d="M26.3055 18.0509V0.210938H13.1855V7.37094L26.3055 18.0509Z" fill="#BF0000"/>
<path d="M13.1848 0.210938H4.4248L13.1848 7.37094V0.210938Z" fill="black"/>
<path d="M26.3047 25.2109H35.0647C35.5417 25.2188 36.0157 25.1323 36.4592 24.9565C36.9027 24.7806 37.3071 24.5188 37.6491 24.1861C37.9911 23.8534 38.264 23.4564 38.452 23.0178C38.64 22.5793 38.7395 22.108 38.7447 21.6309H26.3047V25.2109Z" fill="#009900"/>
<path d="M13.1855 21.6309H26.2355V25.2109H13.1855V21.6309Z" fill="#BF0000"/>
<path d="M0.745117 21.6309C0.745117 23.6309 2.39512 25.2109 4.42512 25.2109H13.2551V21.6309H0.745117Z" fill="black"/>
<path d="M35.0647 0.210938H26.3047V6.61094L38.7447 10.2509V3.79094C38.7447 1.79094 37.0947 0.210938 35.0647 0.210938Z" fill="#009900"/>
<path d="M26.3055 6.61094V0.210938H13.1855V2.79094L26.3055 6.61094Z" fill="#BF0000"/>
<path d="M13.1848 0.210938H4.4248L13.1848 2.79094V0.210938Z" fill="black"/>
<path d="M21.3954 14.1815H20.9054C20.9054 14.3615 20.8454 14.5315 20.7254 14.6515H21.7054C21.5254 14.5915 21.3954 14.3515 21.3954 14.1815ZM18.0254 11.7715H21.4654L21.7054 11.4815H20.8454L20.4154 11.3015H19.0754L18.6454 11.4815H17.7854L18.0254 11.7715ZM19.1354 11.1315H20.2954C20.4754 11.0715 20.4754 10.7815 20.4754 10.6615C20.4794 10.5784 20.4667 10.4954 20.4379 10.4173C20.4092 10.3393 20.3651 10.2678 20.3082 10.2071C20.2513 10.1465 20.1827 10.0979 20.1067 10.0643C20.0306 10.0307 19.9485 10.0127 19.8654 10.0115C19.8054 10.0115 19.7454 9.95148 19.7454 9.95148V9.77148C19.7454 9.77148 19.7454 9.83148 19.6854 9.89148C19.6854 9.95148 19.6254 9.95148 19.5654 9.95148C19.1954 9.95148 18.9554 10.2415 18.9554 10.6015C18.9454 10.8915 19.0054 11.0115 19.1354 11.1315ZM21.8254 14.8215H17.6654L17.2354 15.1715H22.2554L21.8254 14.8215Z" fill="#DFEFDF"/>
<path d="M20.6052 14.2406V14.0106L20.4852 13.9506V13.7106L20.2352 13.5906V13.3606L20.0552 13.3006V13.0706L19.8052 13.0106L19.6852 12.9506V12.8306H18.8252V12.7106C18.8252 12.3006 19.3752 11.9506 19.7452 11.9506C20.1752 11.9506 20.6652 12.3006 20.6652 12.7106V13.1206H20.7252V12.7106C20.7252 12.3606 20.2952 11.9506 19.8052 11.9506H21.3952V11.8906H18.0852V11.9506H19.6752C19.4252 11.9506 18.7552 12.2406 18.7552 12.7106V14.1206H19.0652V14.3506H18.6452C18.5852 14.3506 18.5252 14.2906 18.5252 14.1706H18.0952C18.0952 14.3506 17.9752 14.5206 17.7852 14.7006H19.1352V14.3506H19.5052L19.5652 14.6406H19.8752L19.7452 14.3506H20.0552L20.2352 14.6406H20.6652L20.3552 14.3506H20.8452L20.6052 14.2406ZM19.0752 13.8306V13.3606H19.2552V13.8306H19.3152L19.3752 14.0606H19.0652V13.8306H19.0752ZM19.6852 14.3506H19.4352L19.3752 14.1206H19.5552L19.4952 13.8306H19.6152V13.0106L19.7452 13.0606V13.2906L19.9252 13.3506V13.5306L20.1752 13.6506V13.8806L20.2952 14.0006V14.2306L19.8652 13.8806H19.6852L19.8652 14.1106H19.6852V14.3506ZM19.9952 14.3506L19.8152 14.1206H20.0652L20.3152 14.3506H19.9952Z" fill="#DFEFDF"/>
<path d="M20.6657 13.3013H20.7257V13.7113H20.6657V13.3013ZM17.2357 12.7713C17.2957 12.7113 17.4857 12.5913 17.5457 12.5413L18.0957 13.4213V13.6513H18.5857V13.1813H18.0957V13.3013L17.1757 11.7713L17.2357 11.7113C17.2357 11.6513 17.1757 11.5913 17.1157 11.5913C17.0557 11.5913 16.9957 11.6513 16.9957 11.7113C16.9957 11.7713 17.0557 11.8313 17.1157 11.8313H17.1757V11.8913C17.1157 11.8913 16.9957 12.1213 16.8057 12.2413V12.4213C16.8057 12.4213 16.8057 12.4813 16.8657 12.4813C16.9257 12.4813 16.9257 12.5413 16.9857 12.5413C16.9857 12.5413 17.0457 12.5413 17.0457 12.6013L17.2357 12.7713C17.1757 12.7713 17.1757 12.7713 17.2357 12.7713ZM16.9857 13.3613C16.9857 13.3013 16.9257 13.3013 16.9257 13.2413L16.8657 13.1813L16.7457 13.0613H16.5657H16.6257L16.4457 12.8813V13.1213C16.4457 13.1813 16.3857 13.3513 16.3857 13.3513C16.5057 13.4713 16.6957 13.6413 16.7557 13.7613C16.9257 13.8313 16.9857 13.5313 16.9857 13.3613ZM18.0957 10.3613H18.5257V10.4813H18.0957V10.3613ZM18.0957 10.5413H18.5257V11.3013H18.0957V10.5413ZM18.0957 10.2513H18.5857C18.5857 10.0713 18.4657 9.96134 18.3357 9.96134C18.2157 9.95134 18.0957 10.1313 18.0957 10.2513Z" fill="#DFEFDF"/>
<path d="M18.0958 13.0017H18.5858V13.1217H18.0958V13.0017ZM18.0958 13.8317H18.5858V14.1217H18.0958V13.8317ZM18.1558 12.8917H18.5858L18.6458 12.7117H18.0958L18.1558 12.8917ZM19.0058 12.0117H18.6958V12.3617C18.7658 12.2417 18.8858 12.1217 19.0058 12.0117ZM18.1558 12.1217V12.5317C18.1558 12.5917 18.2158 12.5917 18.2158 12.5317V12.2417C18.2158 12.1817 18.3358 12.1817 18.3358 12.2417V12.5917C18.3358 12.6517 18.4558 12.6517 18.4558 12.5917V12.1817C18.5158 12.0117 18.1558 12.0117 18.1558 12.1217ZM16.3758 9.19172C16.1958 9.37172 16.0658 9.48172 16.1258 9.66172C16.3158 9.72172 16.4358 9.54172 16.3758 9.19172ZM16.0058 9.89172C16.1258 9.77172 16.0658 9.30172 16.0058 9.01172C15.9458 9.25172 15.8858 9.83172 16.0058 9.89172Z" fill="#DFEFDF"/>
<path d="M16.065 9.95055C16.315 10.0105 16.555 9.77055 16.615 9.48055C16.375 9.72055 16.065 9.72055 16.065 9.95055ZM15.885 10.2505C16.005 10.1905 15.885 9.60055 15.825 9.31055C15.765 9.60055 15.635 10.1905 15.885 10.2505Z" fill="#DFEFDF"/>
<path d="M15.9453 10.251C16.1953 10.311 16.3153 10.071 16.3153 9.96102C16.1953 10.071 15.9453 10.011 15.9453 10.251ZM15.6953 10.541C15.8753 10.481 15.6353 9.78102 15.6353 9.54102C15.5753 9.78102 15.4553 10.481 15.6953 10.541Z" fill="#DFEFDF"/>
<path d="M15.7655 10.4815C15.9455 10.5415 16.1355 10.4215 16.1955 10.2515C16.0655 10.3615 15.8255 10.2515 15.7655 10.4815ZM15.5155 10.8315C15.6955 10.7115 15.4555 10.2415 15.3955 9.77148C15.4555 10.2515 15.3355 10.8315 15.5155 10.8315Z" fill="#DFEFDF"/>
<path d="M15.5752 10.771C15.6952 10.831 15.9452 10.711 16.0052 10.541C15.8252 10.661 15.6352 10.541 15.5752 10.771ZM17.1052 9.54102C16.8652 9.66102 16.7452 9.78102 16.8052 9.95102C16.9852 9.95102 17.1052 9.78102 17.1052 9.54102ZM16.6852 10.251C16.9952 10.311 17.0552 10.071 17.2952 9.78102C16.9852 9.95102 16.6852 10.011 16.6852 10.251ZM16.5552 10.191C16.7452 10.011 16.6152 9.89102 16.6852 9.60102C16.5552 9.78102 16.4352 10.011 16.5552 10.191Z" fill="#DFEFDF"/>
<path d="M16.9856 10.1906C16.8656 10.3106 16.4956 10.3106 16.5556 10.4806C16.8656 10.5406 16.9256 10.3006 16.9856 10.1906ZM16.4356 10.4806C16.5556 10.3606 16.3756 10.1906 16.4356 9.89062C16.3156 10.1306 16.2556 10.4806 16.4356 10.4806ZM16.2556 10.7706C16.4356 10.5906 16.1956 10.4206 16.2556 10.1806C16.1956 10.3606 16.0056 10.7106 16.2556 10.7706Z" fill="#DFEFDF"/>
<path d="M16.315 10.7705C16.435 10.9505 16.685 10.7105 16.745 10.4805C16.555 10.6605 16.375 10.6005 16.315 10.7705ZM16.495 11.0705C16.555 11.0105 16.495 10.8905 16.435 10.9505L16.255 11.1305C16.195 11.1305 16.255 11.0105 16.255 10.9505C16.255 10.8905 16.195 10.8905 16.135 10.8905C16.075 10.9505 16.015 11.0705 16.015 11.1805C16.015 11.2905 15.955 11.0005 15.895 10.9505C15.835 10.8905 15.775 11.0105 15.835 11.0105C15.955 11.2405 15.775 11.7105 15.835 11.9505C15.945 11.4205 16.195 11.3005 16.495 11.0705ZM16.125 16.1105C16.615 16.0505 16.735 15.9305 17.105 15.7605C17.165 15.7605 17.165 15.7005 17.225 15.7005C17.285 15.8205 17.345 15.8805 17.405 15.8205C17.465 15.7605 17.465 15.7005 17.405 15.6405H17.525C17.525 15.8205 17.465 15.9305 17.585 15.9905C17.705 15.9905 17.705 15.8105 17.585 15.6405C17.645 15.6405 17.705 15.6405 17.765 15.7005C17.885 15.7605 17.945 15.7605 17.825 15.6405C17.765 15.5805 17.705 15.4605 17.575 15.4105C17.3484 15.2865 17.0932 15.2244 16.835 15.2305C16.465 15.2905 16.165 15.5205 15.795 15.5805C15.615 15.6405 15.425 15.6405 15.185 15.5805C15.125 15.5805 15.125 15.5805 15.125 15.6405C15.515 16.0605 15.635 16.1705 16.125 16.1105ZM17.965 16.4705C18.025 16.4705 18.085 16.4105 18.085 16.3505C18.145 16.3505 18.205 16.4705 18.205 16.4105C18.265 16.2905 18.205 16.1805 18.145 16.1805C18.085 16.1805 18.085 16.2405 18.025 16.3005C18.025 16.1805 17.965 16.0705 17.905 15.9505C18.025 16.1705 17.845 16.4105 17.965 16.4705ZM17.905 16.4705C17.905 16.2905 17.595 16.4105 17.295 16.2905C17.415 16.4105 17.905 16.6405 17.905 16.4705ZM17.105 16.0605C17.225 16.1805 17.655 16.3505 17.655 16.1805C17.665 16.0605 17.415 16.1705 17.105 16.0605Z" fill="#DFEFDF"/>
<path d="M17.7255 16.2312C17.9055 16.2912 17.8455 15.8812 17.7255 15.7012C17.7855 15.9412 17.5955 16.1712 17.7255 16.2312ZM17.0455 15.8212C17.1655 16.0012 17.5355 16.1112 17.4755 15.9412C17.4755 15.8212 17.2955 15.9412 17.0455 15.8212ZM16.3155 16.3512C16.3155 16.1712 15.9455 16.2312 15.6455 16.1712C15.7655 16.2912 16.3155 16.5212 16.3155 16.3512ZM16.3155 16.0612C16.3155 16.1812 16.4955 16.4712 16.6255 16.3512C16.7455 16.3512 16.4955 16.1112 16.3155 16.0612ZM16.6155 16.5212C16.6155 16.4012 16.3655 16.5212 15.8755 16.4612C16.0655 16.5812 16.6855 16.7012 16.6155 16.5212Z" fill="#DFEFDF"/>
<path d="M16.9249 16.6412C16.8649 16.5212 16.5549 16.6412 16.2549 16.6412C16.4349 16.7612 16.9849 16.8212 16.9249 16.6412Z" fill="#DFEFDF"/>
<path d="M17.1755 16.7613C17.1155 16.6413 16.8055 16.8213 16.4355 16.8213C16.7455 16.8813 17.2355 16.8813 17.1755 16.7613ZM16.9255 16.5213C17.0455 16.4013 16.8655 16.2913 16.6155 16.1113C16.7455 16.3513 16.7455 16.6413 16.9255 16.5213Z" fill="#DFEFDF"/>
<path d="M16.8053 16.1112C16.9253 16.3412 17.0553 16.7613 17.1753 16.6413C17.3553 16.5213 17.0453 16.3512 16.8053 16.1112ZM17.6653 16.7612C17.7853 16.6412 17.2353 16.2913 17.0553 16.0613C17.1753 16.3513 17.5353 16.9412 17.6653 16.7612ZM16.6853 14.5312C16.6853 14.7613 16.4353 14.8813 16.5653 15.0013C16.7453 15.0013 16.8053 14.7613 16.6853 14.5312ZM16.7453 15.1713C16.9253 15.2313 16.9253 14.9913 16.8653 14.7613C16.8653 15.0613 16.6153 15.1213 16.7453 15.1713ZM16.6853 15.2313C16.7453 15.1113 16.4353 15.1113 16.1953 14.8813C16.2553 15.0613 16.6153 15.4113 16.6853 15.2313Z" fill="#DFEFDF"/>
<path d="M16.4957 14.9407C16.5557 14.8207 16.1257 14.6507 15.8857 14.4707C16.0057 14.6507 16.4357 15.1207 16.4957 14.9407Z" fill="#DFEFDF"/>
<path d="M16.4356 14.6511C16.4956 14.5311 15.9456 14.3611 15.7656 14.1211C15.8256 14.3511 16.3156 14.8811 16.4356 14.6511Z" fill="#DFEFDF"/>
<path d="M16.1249 14.3513C16.1849 14.2913 16.0649 14.2313 15.8749 14.0613C15.8249 14.1813 16.0049 14.4113 16.1249 14.3513ZM16.9249 15.2313C17.0449 15.2913 17.1049 15.1112 16.9849 14.9412C16.9249 15.1212 16.8649 15.1213 16.9249 15.2313ZM14.9049 14.0613C14.9649 13.9413 14.4749 13.7712 14.2949 13.5312C14.3549 13.7113 14.7149 14.1813 14.9049 14.0613Z" fill="#DFEFDF"/>
<path d="M15.0852 14.2914C15.1452 14.1114 14.7152 14.0614 14.5352 13.9414C14.5952 14.1214 14.9652 14.4114 15.0852 14.2914Z" fill="#DFEFDF"/>
<path d="M15.275 14.5308C15.335 14.3508 14.845 14.3508 14.605 14.1808C14.715 14.3508 15.205 14.7108 15.275 14.5308ZM15.145 14.7108C15.205 14.5908 14.775 14.5308 14.535 14.3008C14.655 14.5308 15.085 14.8808 15.145 14.7108ZM15.145 14.2908C15.325 14.2908 15.205 14.0608 15.145 13.8808C15.455 13.9408 15.885 14.0608 16.125 14.1108H16.185C16.185 14.3408 16.245 14.5208 16.435 14.5208C16.615 14.4608 16.435 14.3408 16.255 14.1708C16.375 14.2308 16.505 14.2908 16.625 14.4008C16.565 14.5808 16.445 14.6308 16.565 14.7508C16.685 14.8108 16.815 14.5208 16.685 14.2808V14.3408C16.625 14.1608 16.625 14.0508 16.565 13.8708C16.505 13.6908 16.315 13.5208 16.135 13.5208C16.255 13.4608 16.315 13.2308 16.315 13.1708C16.195 13.1708 16.005 13.3508 16.005 13.5208C15.635 13.5208 15.205 13.4608 14.905 13.3408C14.725 13.2808 14.595 13.1608 14.475 13.0508C14.475 13.0508 14.415 13.0508 14.415 13.1108C14.415 13.1708 14.535 13.6408 14.785 13.8108C14.845 13.8108 14.905 13.8708 14.965 13.8708C14.965 13.9908 14.905 14.0508 15.025 14.1008C15.085 14.0408 15.085 13.9808 15.085 13.9208H15.145C15.085 14.0608 15.025 14.2408 15.145 14.2908Z" fill="#DFEFDF"/>
<path d="M15.2757 13.9414C15.2757 14.2314 15.1557 14.4114 15.2757 14.4714C15.4557 14.4714 15.3957 14.2414 15.2757 13.9414ZM15.2057 14.9414C15.2657 14.8214 14.8357 14.7614 14.5957 14.5314C14.7157 14.7114 15.1457 15.1214 15.2057 14.9414Z" fill="#DFEFDF"/>
<path d="M15.5154 15.2309C15.5754 15.0509 15.0854 15.0509 14.7754 14.8809C14.9654 15.0009 15.4554 15.4109 15.5154 15.2309Z" fill="#DFEFDF"/>
<path d="M15.825 15.471C15.885 15.291 15.395 15.351 15.085 15.121C15.205 15.351 15.695 15.701 15.825 15.471ZM15.335 14.881C15.455 14.941 15.515 14.591 15.455 14.291C15.455 14.591 15.145 14.761 15.335 14.881ZM15.575 15.171C15.755 15.231 15.695 14.821 15.575 14.521C15.515 14.761 15.395 15.061 15.575 15.171Z" fill="#DFEFDF"/>
<path d="M15.825 15.412C16.005 15.412 15.885 15.062 15.705 14.882C15.765 15.122 15.695 15.412 15.825 15.412ZM15.515 15.592C15.515 15.532 15.265 15.412 15.085 15.412C15.335 15.532 15.455 15.702 15.515 15.592ZM15.395 12.592C15.575 12.472 15.455 12.242 15.395 12.002C15.335 12.182 15.205 12.482 15.395 12.592Z" fill="#DFEFDF"/>
<path d="M15.3955 12.8908C15.4555 12.6608 15.2755 12.6008 15.1455 12.3008C15.2055 12.5308 15.1455 12.8308 15.3955 12.8908ZM15.4555 12.8308C15.7055 12.8308 15.6355 12.6008 15.7055 12.3608C15.5755 12.5308 15.4555 12.5908 15.4555 12.8308Z" fill="#DFEFDF"/>
<path d="M15.4555 13.1209C15.4555 12.8909 15.3355 12.9409 15.1455 12.7109C15.1455 13.0009 15.2755 13.1209 15.4555 13.1209ZM15.6955 12.7109C15.6355 12.8909 15.4455 12.9409 15.5155 13.1209C15.6955 13.1209 15.6955 12.8909 15.6955 12.7109Z" fill="#DFEFDF"/>
<path d="M15.1455 13.002C15.1455 13.182 15.2655 13.412 15.4555 13.352C15.5155 13.182 15.2755 13.122 15.1455 13.002Z" fill="#DFEFDF"/>
<path d="M15.6956 13.0011C15.6356 13.1811 15.3856 13.2311 15.4456 13.4111C15.7656 13.4111 15.7656 13.2411 15.6956 13.0011ZM14.7856 11.7111C14.9056 11.5911 14.7856 11.3611 14.7856 11.1211C14.7156 11.3611 14.5956 11.6511 14.7856 11.7111ZM14.7856 12.0111C14.8456 11.7811 14.5356 11.6611 14.4756 11.3611C14.4756 11.5411 14.5356 12.0111 14.7856 12.0111ZM14.8456 12.0111C15.0256 11.9511 14.9656 11.7211 15.0256 11.6011C14.9056 11.7711 14.7856 11.7711 14.8456 12.0111Z" fill="#DFEFDF"/>
<path d="M14.7855 12.3016C14.7855 12.0116 14.4755 11.8916 14.3555 11.6016C14.4155 11.7716 14.5355 12.3016 14.7855 12.3016ZM14.8455 12.3016C15.0955 12.2416 15.0255 12.1216 15.0255 11.8916C14.9655 12.0616 14.7855 12.0616 14.8455 12.3016Z" fill="#DFEFDF"/>
<path d="M14.7849 12.5906C14.8449 12.4106 14.4749 12.1206 14.2949 11.8906C14.5349 12.2406 14.5349 12.6506 14.7849 12.5906ZM14.8449 12.5906C15.0249 12.5906 15.0949 12.3006 15.0949 12.1806C15.0249 12.3006 14.7849 12.4206 14.8449 12.5906Z" fill="#DFEFDF"/>
<path d="M14.7855 12.8902C14.8455 12.7102 14.6055 12.6602 14.3555 12.2402C14.4755 12.5902 14.5955 12.9402 14.7855 12.8902ZM14.8455 12.8302C15.0955 12.8902 15.0955 12.7102 15.0955 12.4202C15.0255 12.6502 14.7855 12.7102 14.8455 12.8302ZM14.8455 13.2402C14.9055 13.0102 14.5955 12.9502 14.4155 12.6502C14.5955 12.9402 14.6555 13.2402 14.8455 13.2402Z" fill="#DFEFDF"/>
<path d="M14.9049 13.1814C15.1549 13.2414 15.1549 13.0614 15.1549 12.7714C15.0249 12.9414 14.7849 13.0014 14.9049 13.1814ZM15.5749 10.8314C15.3949 10.8914 15.3249 11.0114 15.3249 11.1814C15.4549 11.2414 15.6349 11.0714 15.5749 10.8314ZM14.8449 11.0714C14.8449 11.1314 14.9649 11.1314 14.9049 11.0714V10.8914C14.9649 10.8314 14.9049 10.6614 14.9049 10.6614C14.9049 10.6014 14.7849 10.6614 14.8449 10.6614C14.9049 10.7214 14.9049 10.8414 14.8449 10.8914V11.0714ZM16.1949 12.0114C16.2549 11.9514 16.3749 11.8314 16.3749 11.7214C16.3749 11.6614 16.4349 11.4314 16.4949 11.3714C16.5549 11.3114 16.4949 11.2514 16.4349 11.3114C16.3749 11.3714 16.3149 11.5414 16.3149 11.6614C16.3149 11.7814 16.1949 11.8414 16.1349 11.8914C16.0649 12.0114 16.1249 12.0614 16.1949 12.0114ZM16.0049 11.8314C16.0649 11.7714 16.0049 11.6514 16.1249 11.5414C16.1849 11.4814 16.2449 11.3614 16.3049 11.3114C16.3649 11.2514 16.3049 11.1914 16.2449 11.2514C16.1849 11.3114 16.0649 11.3714 15.9949 11.4814C15.9349 11.5414 15.9349 11.6614 15.8749 11.7114C15.8849 11.8914 16.0049 11.9514 16.0049 11.8314Z" fill="#DFEFDF"/>
<path d="M15.1454 11.4212C15.1454 11.2412 15.0254 11.0712 15.0854 10.8312C15.145 10.6802 15.145 10.5122 15.0854 10.3612C15.0854 10.2412 14.9654 10.3012 15.0254 10.4212C15.0854 10.5412 15.0254 10.7712 14.9654 10.8312C14.9054 11.1212 15.0254 11.3012 15.0254 11.4212C15.0854 11.5412 15.2054 11.5912 15.1454 11.4212ZM15.2754 10.7712C15.2754 10.8912 15.3354 10.8912 15.3354 10.8312V10.0712C15.3954 10.0112 15.2754 9.95117 15.2754 10.0112C15.2754 10.0712 15.2154 10.3012 15.2754 10.4212V10.7712ZM14.4154 12.9412C14.4754 13.0012 14.5354 12.9412 14.4154 12.9412V12.7612C14.3554 12.7012 14.3554 12.6412 14.3554 12.5812C14.2954 12.5212 14.2354 12.5812 14.2954 12.6412C14.3554 12.7012 14.3554 12.7612 14.3554 12.7612C14.4154 12.8312 14.3554 12.8912 14.4154 12.9412ZM16.0054 15.1212C15.9454 15.0012 15.8854 14.8912 15.8854 14.7112C15.8854 14.5912 15.7654 14.4212 15.6354 14.3612C15.6954 14.4812 15.8154 14.5912 15.8154 14.7712C15.8254 14.9412 15.8854 15.1212 16.0054 15.1212ZM16.2554 15.3512C16.1954 15.1712 16.1954 15.1712 16.1954 15.0612C16.1954 14.9412 16.0754 14.8812 15.9454 14.7112C15.9454 14.8912 16.0654 14.9412 16.0654 15.1212C16.1254 15.3512 16.1254 15.3512 16.2554 15.3512ZM19.3154 16.5812C19.3154 16.5212 19.1954 16.4612 19.0654 16.3512C19.1354 16.4112 19.1954 16.5812 19.3154 16.5812ZM19.6854 16.5812C19.6854 16.4612 19.4354 16.4612 19.2554 16.4012C19.4354 16.5212 19.4954 16.5812 19.6854 16.5812ZM18.2754 15.6412C18.3954 15.8212 18.4554 15.9312 18.4554 16.1112C18.5154 16.2912 18.6354 16.4012 18.7654 16.5212C18.6629 16.3755 18.5789 16.2176 18.5154 16.0512C18.5854 15.8812 18.4554 15.7612 18.2754 15.6412ZM19.0754 16.5212C18.9554 16.3412 18.9554 16.2312 18.8954 16.0512C18.8354 15.8712 18.7154 15.7612 18.5254 15.5812C18.6454 15.7612 18.7754 15.8712 18.7754 16.0512C18.8254 16.2912 18.8854 16.4712 19.0754 16.5212ZM19.1354 16.2312C19.1954 16.2312 19.2554 16.1712 19.2554 16.1712C19.2554 16.1712 19.3154 16.1712 19.3154 16.1112V15.9912L19.2554 15.9312C19.1954 15.9312 19.1354 15.9312 19.0754 15.9912L19.0154 16.0512V16.1712C19.0754 16.2312 19.1354 16.2312 19.1354 16.2312ZM19.4954 15.9412C19.4354 15.9412 19.4354 15.9412 19.4354 16.0012V16.1812C19.4954 16.1812 19.5554 16.1812 19.5554 16.2412C19.6154 16.2412 19.6154 16.2412 19.6154 16.1812V16.0612C19.6154 16.0012 19.6154 16.0012 19.5554 16.0012C19.5654 16.0012 19.5654 15.9412 19.4954 15.9412ZM22.6254 13.7712L22.9954 13.3612C23.0554 13.3012 22.9954 13.1812 22.9354 13.1312V12.8912L22.8154 13.0712H22.8754H22.6854C22.6254 13.0712 22.6254 13.1312 22.5654 13.1912L22.5054 13.2512C22.4454 13.3112 22.4454 13.3112 22.4454 13.3712C22.5054 13.5312 22.5654 13.8312 22.6254 13.7712ZM22.5054 12.5912C22.5654 12.5912 22.5654 12.5312 22.5654 12.5312C22.6254 12.5312 22.6254 12.4712 22.6854 12.4712C22.6854 12.4712 22.6854 12.4112 22.7454 12.4112C22.7454 12.4112 22.7454 12.3512 22.8054 12.3512V12.2312C22.5554 12.0512 22.4954 11.8812 22.4354 11.8812V11.8212H22.4954C22.5554 11.8212 22.6154 11.7612 22.6154 11.7012C22.6131 11.6701 22.5997 11.6409 22.5776 11.6189C22.5556 11.5969 22.5264 11.5835 22.4954 11.5812C22.4643 11.5835 22.4351 11.5969 22.4131 11.6189C22.3911 11.6409 22.3777 11.6701 22.3754 11.7012C22.3754 11.7612 22.3754 11.7612 22.4354 11.7612L21.5154 13.2912V13.1712H21.0254V13.6412H21.5154V13.4112L22.0654 12.5312C22.1254 12.5912 22.3154 12.6512 22.3754 12.7612L22.4354 12.8212L22.5054 12.5912ZM20.9754 10.3612H21.4054V10.4812H20.9754V10.3612ZM20.9754 10.5412H21.4054V11.3012H20.9754V10.5412ZM21.1554 9.95117C21.0354 9.95117 20.9054 10.1312 20.9054 10.2412H21.3954C21.3954 10.1312 21.2754 9.95117 21.1554 9.95117Z" fill="#DFEFDF"/>
<path d="M20.9056 13.0017H21.3956V13.1217H20.9056V13.0017ZM20.9056 13.8317H21.3956V14.1217H20.9056V13.8317ZM20.8456 12.7117L20.9056 12.8917H21.3356L21.3956 12.7117H20.8456ZM20.7856 12.3617V12.0117H20.4756C20.6056 12.1217 20.7256 12.2417 20.7856 12.3617ZM21.2156 12.5317C21.2156 12.5917 21.2756 12.5917 21.2756 12.5317V12.1217C21.2756 12.0017 20.9656 12.0017 20.9656 12.1217V12.5317C20.9656 12.5917 21.0856 12.5917 21.0856 12.5317V12.1817C21.0856 12.1217 21.2056 12.1217 21.2056 12.1817L21.2156 12.5317ZM23.3656 9.66172C23.4256 9.48172 23.3056 9.37172 23.1156 9.19172C23.0556 9.54172 23.1756 9.72172 23.3656 9.66172ZM23.4856 9.01172C23.4256 9.30172 23.3656 9.77172 23.4856 9.89172C23.6056 9.83172 23.5456 9.25172 23.4856 9.01172Z" fill="#DFEFDF"/>
<path d="M22.875 9.42055C22.935 9.71055 23.185 10.0105 23.425 9.89055C23.425 9.72055 23.115 9.72055 22.875 9.42055ZM23.605 10.2505C23.785 10.1905 23.665 9.60055 23.665 9.31055C23.605 9.60055 23.485 10.1905 23.605 10.2505Z" fill="#DFEFDF"/>
<path d="M23.1758 9.95102C23.1758 10.071 23.2958 10.241 23.5458 10.241C23.5458 10.011 23.2958 10.071 23.1758 9.95102ZM23.7958 10.541C23.9758 10.481 23.8558 9.84102 23.9158 9.54102C23.8558 9.78102 23.6658 10.421 23.7958 10.541ZM23.2958 10.251C23.2958 10.431 23.5458 10.541 23.7258 10.481C23.6658 10.251 23.4258 10.361 23.2958 10.251Z" fill="#DFEFDF"/>
<path d="M23.9756 10.8315C24.1556 10.8315 24.0956 10.3015 24.0956 9.77148C23.9756 10.2515 23.7956 10.6615 23.9756 10.8315Z" fill="#DFEFDF"/>
<path d="M23.4853 10.5405C23.5453 10.7705 23.7953 10.8305 23.9153 10.7705C23.8553 10.5405 23.6653 10.6605 23.4853 10.5405ZM22.6853 9.89047C22.7453 9.71047 22.5653 9.60047 22.3753 9.48047C22.3853 9.78047 22.5053 9.95047 22.6853 9.89047ZM22.8053 10.2505C22.8053 10.0205 22.4953 10.0205 22.1953 9.78047C22.4453 10.0705 22.5053 10.2505 22.8053 10.2505ZM22.9353 10.1905C23.1153 10.0105 22.9353 9.78047 22.8153 9.60047C22.8053 9.89047 22.6853 10.0105 22.9353 10.1905Z" fill="#DFEFDF"/>
<path d="M22.5049 10.1906C22.5649 10.3106 22.6249 10.6006 22.9349 10.4806C22.9949 10.3006 22.6849 10.2506 22.5049 10.1906ZM23.0549 10.4806C23.3049 10.4806 23.1749 10.0706 23.0549 9.89062C23.0549 10.1906 22.8749 10.3606 23.0549 10.4806Z" fill="#DFEFDF"/>
<path d="M23.2353 10.7716C23.4853 10.6516 23.2953 10.3616 23.2353 10.1816C23.2353 10.4216 23.0553 10.6016 23.2353 10.7716Z" fill="#DFEFDF"/>
<path d="M23.175 10.7705C23.115 10.5905 22.925 10.6505 22.745 10.4805C22.745 10.7105 23.055 10.9505 23.175 10.7705ZM23.725 11.0105C23.725 10.9505 23.665 10.8905 23.665 10.9505C23.605 11.0105 23.545 11.3005 23.545 11.1805C23.545 11.0605 23.485 10.8905 23.425 10.8905C23.365 10.8905 23.305 10.8305 23.305 10.9505C23.305 11.0105 23.365 11.1305 23.305 11.1305C23.245 11.1305 23.185 11.0105 23.125 10.9505C23.065 10.8905 23.005 10.9505 23.065 11.0705C23.375 11.3005 23.615 11.4205 23.805 11.9505C23.795 11.6505 23.545 11.2405 23.725 11.0105ZM24.285 15.6405C24.105 15.7005 23.855 15.7005 23.675 15.6405C23.305 15.5805 23.005 15.3505 22.635 15.2905C22.5062 15.2592 22.3718 15.2593 22.2431 15.2906C22.1144 15.3219 21.995 15.3836 21.895 15.4705C21.835 15.5305 21.715 15.6505 21.645 15.7005C21.585 15.7605 21.645 15.7605 21.705 15.7605C21.765 15.7605 21.825 15.7605 21.885 15.7005C21.825 15.8805 21.765 16.0505 21.885 16.0505C22.005 16.0505 21.945 15.9305 21.945 15.7005H22.065C22.005 15.7605 22.005 15.8205 22.065 15.8805C22.125 15.9405 22.185 15.8205 22.245 15.7605C22.305 15.7605 22.305 15.8205 22.365 15.8205C22.735 16.0005 22.855 16.1105 23.345 16.1705C23.855 16.1705 23.975 16.0605 24.285 15.6405C24.345 15.5905 24.285 15.5905 24.285 15.6405ZM21.585 16.4705C21.585 16.6505 22.075 16.4705 22.195 16.2905C21.895 16.4105 21.645 16.2905 21.585 16.4705Z" fill="#DFEFDF"/>
<path d="M21.8249 16.1712C21.8249 16.3512 22.2549 16.1712 22.3749 16.0512C22.0749 16.1712 21.8249 16.0612 21.8249 16.1712ZM21.7649 16.2312C21.8849 16.1712 21.7049 16.0012 21.7649 15.7012C21.5849 15.8212 21.5849 16.2312 21.7649 16.2312ZM22.0149 15.9412C22.0149 16.1212 22.3249 16.0012 22.4449 15.8212C22.1949 15.9412 22.0149 15.8212 22.0149 15.9412ZM23.1749 16.3512C23.1749 16.5312 23.6649 16.3512 23.8449 16.1712C23.5449 16.2312 23.2349 16.1712 23.1749 16.3512ZM22.8749 16.4112C22.9949 16.4712 23.1249 16.2312 23.1849 16.1212C22.9949 16.1112 22.7449 16.3512 22.8749 16.4112ZM22.8749 16.5212C22.8749 16.7012 23.4249 16.5812 23.6149 16.4612C23.0549 16.5212 22.8749 16.4112 22.8749 16.5212Z" fill="#DFEFDF"/>
<path d="M22.5651 16.6412C22.5051 16.8212 23.0551 16.7612 23.2351 16.6412C22.9351 16.6412 22.6251 16.5212 22.5651 16.6412Z" fill="#DFEFDF"/>
<path d="M22.3154 16.7609C22.2554 16.8809 22.7454 16.8809 23.0554 16.8209C22.6854 16.8209 22.3854 16.6409 22.3154 16.7609ZM22.5654 16.5209C22.7454 16.6409 22.7454 16.3509 22.8754 16.1109C22.6254 16.2909 22.4454 16.4709 22.5654 16.5209ZM22.2554 16.6409C22.3754 16.7609 22.5054 16.3509 22.6254 16.1109C22.4454 16.3509 22.1354 16.5209 22.2554 16.6409ZM21.8254 16.7609C21.9454 16.8809 22.3154 16.3509 22.4354 16.0609C22.2554 16.2909 21.7654 16.6409 21.8254 16.7609ZM25.1954 13.0009C25.1954 12.9409 25.1354 12.8809 25.1354 12.9409C25.0172 13.0704 24.8698 13.1699 24.7054 13.2309C24.3516 13.3528 23.9796 13.4137 23.6054 13.4109C23.6054 13.2309 23.4254 13.0609 23.2954 13.0609C23.2954 13.1209 23.2954 13.3509 23.4754 13.4109C23.2954 13.4109 23.1054 13.5909 23.0454 13.7609C22.9854 13.9309 22.9254 14.0509 22.9254 14.2309V14.1709C22.8054 14.4609 22.9254 14.7609 23.0454 14.6409C23.1654 14.5209 23.0454 14.4609 22.9854 14.2909C23.1054 14.1709 23.2354 14.1109 23.3554 14.0609C23.1754 14.2909 22.9854 14.4109 23.1754 14.4109C23.3554 14.4109 23.4254 14.2309 23.4254 14.0009H23.4854C23.7354 13.9409 24.1554 13.8809 24.4654 13.7709C24.4054 14.0009 24.2154 14.1809 24.4654 14.1809C24.5854 14.1809 24.5254 14.0009 24.5254 13.7709H24.5854C24.5854 13.8309 24.5854 13.8909 24.6454 13.9509C24.7654 13.8909 24.7654 13.8309 24.7054 13.7209C24.8254 13.6609 24.8854 13.6609 24.8854 13.6609C25.0154 13.5309 25.1354 13.1209 25.1954 13.0009ZM22.8754 15.0009C22.9954 14.9409 22.7554 14.7709 22.7554 14.5309C22.6854 14.7609 22.7454 15.0009 22.8754 15.0009ZM22.7454 15.1709C22.8654 15.1109 22.6254 15.0509 22.6254 14.7609C22.5654 15.0009 22.6254 15.2909 22.7454 15.1709ZM23.2954 14.8809C23.1154 15.1109 22.8054 15.0609 22.8054 15.2309C22.8754 15.4109 23.2354 15.0609 23.2954 14.8809Z" fill="#DFEFDF"/>
<path d="M22.9949 14.9411C23.0549 15.1211 23.4849 14.6511 23.6049 14.4711C23.3649 14.6511 22.9349 14.8211 22.9949 14.9411ZM23.0549 14.6511C23.1149 14.8311 23.6049 14.3011 23.7249 14.1211C23.5449 14.3511 23.0549 14.5311 23.0549 14.6511Z" fill="#DFEFDF"/>
<path d="M23.6658 14.0613C23.4858 14.2413 23.3558 14.2913 23.4158 14.3513C23.4858 14.4113 23.6658 14.1813 23.6658 14.0613ZM22.5658 15.2313C22.6258 15.1713 22.5658 15.1112 22.5058 14.9412C22.3858 15.0612 22.4458 15.2913 22.5658 15.2313ZM24.5858 14.0613C24.7658 14.1813 25.0758 13.7113 25.1958 13.5312C25.0158 13.7113 24.5858 13.9413 24.5858 14.0613Z" fill="#DFEFDF"/>
<path d="M24.4053 14.2914C24.5253 14.4114 24.8353 14.1114 24.9553 13.9414C24.8353 14.1214 24.4053 14.1214 24.4053 14.2914Z" fill="#DFEFDF"/>
<path d="M24.8956 14.1816C24.6456 14.3616 24.2256 14.3616 24.2256 14.5316C24.2856 14.7116 24.7756 14.3516 24.8956 14.1816Z" fill="#DFEFDF"/>
<path d="M24.3452 14.7114C24.4052 14.8314 24.8352 14.4814 24.9552 14.3014C24.6452 14.5314 24.2852 14.5914 24.3452 14.7114ZM24.2152 13.9414C24.0952 14.2314 24.0352 14.4114 24.2152 14.4714C24.3452 14.4114 24.1552 14.2414 24.2152 13.9414ZM24.2852 14.9414C24.3452 15.1214 24.8352 14.7114 24.8952 14.5314C24.6452 14.7114 24.2152 14.8214 24.2852 14.9414Z" fill="#DFEFDF"/>
<path d="M23.9756 15.2309C24.0356 15.4109 24.5256 15.0509 24.7156 14.8809C24.4056 15.0609 23.9756 15.0609 23.9756 15.2309Z" fill="#DFEFDF"/>
<path d="M23.665 15.471C23.725 15.701 24.275 15.351 24.405 15.121C24.095 15.411 23.665 15.291 23.665 15.471ZM24.155 14.881C24.335 14.821 24.035 14.591 24.035 14.291C23.975 14.531 24.035 14.941 24.155 14.881ZM23.915 15.171C24.095 15.051 23.975 14.821 23.915 14.521C23.855 14.761 23.795 15.171 23.915 15.171Z" fill="#DFEFDF"/>
<path d="M23.6652 15.4117C23.8452 15.3517 23.7252 15.1217 23.7852 14.8817C23.6052 15.0617 23.4852 15.4717 23.6652 15.4117ZM23.9752 15.5917C24.0352 15.7117 24.1552 15.5317 24.4052 15.4117C24.1552 15.4117 23.9752 15.5317 23.9752 15.5917ZM24.0952 12.0117C24.0352 12.2417 23.9152 12.4817 24.0952 12.6017C24.2852 12.4817 24.1552 12.1817 24.0952 12.0117Z" fill="#DFEFDF"/>
<path d="M24.0952 12.8908C24.3452 12.8308 24.3452 12.5408 24.3452 12.3008C24.2152 12.5908 24.0352 12.6508 24.0952 12.8908ZM24.0352 12.8308C24.0352 12.6008 23.9152 12.5408 23.7852 12.3608C23.8552 12.5908 23.8552 12.8308 24.0352 12.8308Z" fill="#DFEFDF"/>
<path d="M24.0356 13.1211C24.2156 13.1211 24.2856 12.9411 24.3456 12.7111C24.1556 12.9411 24.0356 12.8911 24.0356 13.1211ZM23.7956 12.7111C23.7956 12.8911 23.7356 13.1211 23.9756 13.1211C24.0356 12.9411 23.8556 12.8911 23.7956 12.7111ZM24.0356 13.3611C24.2156 13.4211 24.3456 13.1311 24.3456 13.0111C24.2156 13.1211 23.9756 13.1811 24.0356 13.3611ZM23.9756 13.4111C24.0356 13.2911 23.7956 13.1811 23.7256 13.0011C23.7256 13.2411 23.7256 13.4111 23.9756 13.4111ZM24.7056 11.7111C24.8856 11.5911 24.7656 11.3611 24.7056 11.1211C24.7056 11.3611 24.5856 11.5911 24.7056 11.7111ZM24.7056 12.0111C24.9556 12.0111 25.0156 11.5411 25.0156 11.3611C24.9556 11.5911 24.6456 11.7711 24.7056 12.0111ZM24.6456 12.0111C24.7056 11.7811 24.5856 11.7811 24.4656 11.6011C24.5256 11.7111 24.4656 11.8911 24.6456 12.0111Z" fill="#DFEFDF"/>
<path d="M24.7057 12.3016C24.9557 12.3016 25.1357 11.7716 25.1357 11.6016C25.0157 11.8916 24.6457 12.0116 24.7057 12.3016ZM24.6457 12.3016C24.7057 12.0716 24.5257 12.1216 24.4657 11.8916C24.4657 12.0616 24.4057 12.2416 24.6457 12.3016Z" fill="#DFEFDF"/>
<path d="M24.7055 12.5906C25.0155 12.6506 24.9555 12.2406 25.1955 11.8906C25.0155 12.1206 24.6455 12.4206 24.7055 12.5906ZM24.6455 12.5906C24.7055 12.4106 24.4655 12.3006 24.3955 12.1806C24.4055 12.3006 24.4055 12.5906 24.6455 12.5906Z" fill="#DFEFDF"/>
<path d="M24.7054 12.8902C24.8854 12.8902 25.0154 12.6002 25.1354 12.2402C24.8954 12.7102 24.5854 12.7102 24.7054 12.8902Z" fill="#DFEFDF"/>
<path d="M24.6456 12.8314C24.7056 12.7114 24.4656 12.6014 24.3956 12.4214C24.4056 12.7114 24.4056 12.8914 24.6456 12.8314ZM24.6456 13.2414C24.8256 13.3014 24.8956 12.9514 25.0756 12.6514C24.8956 12.9414 24.5856 13.0014 24.6456 13.2414ZM24.5856 13.1814C24.6456 13.0014 24.4056 12.9514 24.3356 12.7714C24.3456 13.0014 24.4056 13.2414 24.5856 13.1814ZM23.9156 10.8314C23.8556 11.0614 24.0356 11.2414 24.1656 11.1814C24.1556 11.0114 24.0956 10.8914 23.9156 10.8314ZM24.5856 11.0714C24.5856 11.1914 24.6456 11.1314 24.6456 11.0714V10.6114C24.7056 10.5514 24.5856 10.5514 24.5856 10.6114C24.5856 10.6714 24.5256 10.7914 24.5856 10.8414V11.0714ZM23.0556 11.3014C22.9956 11.2414 22.9356 11.3014 22.9956 11.3614C23.0556 11.4214 23.1156 11.5914 23.1156 11.7114C23.1156 11.8314 23.2356 11.8914 23.2956 12.0014C23.3556 12.0614 23.4756 12.0614 23.3556 11.9414C23.2956 11.8214 23.1756 11.7614 23.1756 11.7114C23.1756 11.5414 23.1156 11.3614 23.0556 11.3014Z" fill="#DFEFDF"/>
<path d="M23.5457 11.7713C23.4857 11.6513 23.4857 11.5913 23.4257 11.5413C23.3657 11.4213 23.2457 11.3613 23.1757 11.3113C23.1157 11.2513 23.0557 11.3113 23.1157 11.3713C23.1757 11.4313 23.2957 11.5513 23.2957 11.6013C23.3557 11.7213 23.3557 11.8313 23.4157 11.8913C23.4857 11.9513 23.6057 11.8913 23.5457 11.7713ZM24.4057 11.4213C24.4057 11.2413 24.5857 11.1313 24.4657 10.8313C24.4657 10.7113 24.4057 10.5413 24.4057 10.4213C24.4657 10.3013 24.3457 10.2413 24.3457 10.3613V10.8313C24.4057 11.0613 24.2857 11.2413 24.2857 11.4213C24.2857 11.5913 24.4057 11.5413 24.4057 11.4213ZM24.1557 10.8313C24.1557 10.9513 24.2757 10.9513 24.2157 10.7713V10.4813C24.2757 10.3613 24.2157 10.1313 24.2157 10.0713C24.2157 9.95127 24.0957 10.0113 24.1557 10.1313C24.2157 10.1913 24.2157 10.3613 24.1557 10.4813C24.0957 10.5413 24.0957 10.7113 24.1557 10.8313ZM25.1357 12.5913C25.0757 12.6513 25.0757 12.7113 25.0757 12.7713C25.0157 12.8313 25.0757 12.8313 25.0157 12.8913C24.9557 12.9513 25.0157 13.0113 25.0757 12.9513C25.1357 12.8913 25.1357 12.8313 25.1357 12.7713C25.1957 12.7113 25.1957 12.6513 25.1357 12.5913C25.2657 12.5913 25.1957 12.5313 25.1357 12.5913ZM23.6057 14.7113C23.6057 14.8913 23.5457 15.0013 23.4857 15.1213C23.6057 15.0613 23.6657 14.8913 23.6657 14.7113C23.6657 14.5313 23.7857 14.4813 23.8457 14.3013C23.7257 14.4113 23.6057 14.5913 23.6057 14.7113Z" fill="#DFEFDF"/>
<path d="M23.4257 15.122C23.4257 14.942 23.6057 14.832 23.5457 14.712C23.4257 14.892 23.2957 14.942 23.2957 15.062C23.2957 15.242 23.2957 15.242 23.2357 15.352C23.3657 15.352 23.3657 15.352 23.4257 15.122ZM20.4157 16.352C20.2957 16.472 20.1657 16.532 20.1657 16.582C20.2957 16.582 20.3557 16.412 20.4157 16.352ZM20.2357 16.352C19.9857 16.472 19.8057 16.412 19.8057 16.532C19.9957 16.582 20.0557 16.522 20.2357 16.352ZM20.9757 16.112L21.1557 15.642C21.0041 15.7344 20.8933 15.8809 20.8457 16.052C20.7857 16.232 20.7257 16.342 20.5957 16.522C20.8457 16.412 20.9057 16.292 20.9757 16.112ZM20.7257 16.112C20.7857 15.932 20.8457 15.822 20.9757 15.642C20.804 15.7536 20.6739 15.9188 20.6057 16.112C20.5457 16.292 20.5457 16.402 20.4257 16.582C20.6057 16.472 20.6657 16.292 20.7257 16.112ZM20.4157 16.172V16.052C20.4157 15.992 20.4157 15.992 20.3557 15.992C20.2957 15.992 20.2357 15.932 20.1757 15.932C20.1157 15.932 20.1157 15.932 20.1157 15.992V16.112C20.1157 16.172 20.1157 16.172 20.1757 16.172C20.2357 16.172 20.2957 16.172 20.2957 16.232C20.3557 16.232 20.4157 16.232 20.4157 16.172ZM19.8657 16.002L19.8057 16.062V16.182C19.8057 16.242 19.8657 16.242 19.8657 16.242C19.9257 16.242 19.9857 16.182 19.9857 16.182V16.002C19.9857 16.002 19.9857 15.942 19.9257 15.942C19.9257 15.942 19.9257 16.002 19.8657 16.002ZM17.9057 8.90195C17.7857 8.90195 17.7257 8.67195 17.6557 8.67195C17.5957 8.73195 17.6557 8.85195 17.7157 8.90195C17.7757 8.96195 18.0257 8.96195 18.1457 8.90195C18.2657 8.84195 18.3257 8.72195 18.3257 8.55195C18.3257 8.49195 18.2657 8.37195 18.2657 8.32195C18.3857 8.26195 18.4457 8.14195 18.5157 8.03195C18.5157 7.97195 18.5757 7.85195 18.6357 7.85195C18.6957 7.85195 18.8157 7.97195 18.8857 7.85195C18.9457 7.79195 19.0657 7.91195 19.0657 7.85195C19.1257 7.79195 19.0657 7.73195 19.0657 7.67195C19.0657 7.61195 19.0057 7.61195 19.0057 7.67195V7.79195H18.9457C18.9457 7.79195 18.9457 7.73195 18.8857 7.73195H18.8257C18.7657 7.79195 18.7657 7.85195 18.7057 7.79195C18.6457 7.73195 18.6457 7.61195 18.5857 7.79195C18.5857 7.85195 18.4657 7.91195 18.4057 7.91195C18.3457 7.91195 18.3457 7.73195 18.2257 7.79195C18.1657 7.79195 18.1657 7.97195 18.1657 7.97195C18.1657 8.03195 18.4157 7.97195 18.4157 8.03195C18.4157 8.15195 18.2957 8.21195 18.2357 8.26195C18.1757 8.08195 18.0557 7.97195 18.0557 7.91195C18.0557 7.79195 17.9357 7.79195 17.9357 7.91195C17.9357 8.03195 18.0557 8.20195 18.1157 8.38195C18.0557 8.44195 17.9957 8.44195 17.9357 8.50195C17.8757 8.56195 17.9357 8.62195 17.9957 8.56195C18.0557 8.50195 18.1157 8.50195 18.1757 8.44195C18.2357 8.56195 18.2357 8.62195 18.2357 8.67195C18.2757 8.72195 18.0957 8.90195 17.9057 8.90195ZM18.2757 7.84195V7.72195C18.2757 7.72195 18.3357 7.78195 18.3357 7.84195C18.3357 7.90195 18.2757 7.90195 18.2757 7.84195Z" fill="#DFEFDF"/>
<path d="M18.5151 8.3712C18.4551 8.3712 18.5151 8.4912 18.5751 8.4912C18.5851 8.4312 18.5151 8.3112 18.5151 8.3712ZM18.5851 8.1912C18.6451 8.1312 18.7651 8.0712 18.8351 8.0112C18.8351 8.0112 18.8351 7.9512 18.7751 7.9512C18.7051 8.0212 18.5851 8.0712 18.5851 8.1912ZM19.3751 7.6012C19.4351 7.6012 19.4951 7.5412 19.4951 7.4812V7.4312C19.4351 7.4912 19.3751 7.5512 19.3751 7.6012ZM19.6251 7.6012C19.6851 7.5412 19.8051 7.4812 19.8051 7.4212C19.8051 7.4212 19.7451 7.3612 19.7451 7.4212C19.6851 7.4312 19.6251 7.5512 19.6251 7.6012ZM19.4951 7.7212C19.4351 7.7812 19.4351 7.7812 19.3751 7.7812V7.8412H19.4951C19.5651 7.7812 19.4951 7.6612 19.4951 7.7212Z" fill="#DFEFDF"/>
<path d="M19.075 8.02151C19.015 7.96151 18.895 8.02151 18.955 8.08151C19.015 8.14151 19.015 8.20151 18.955 8.20151C18.895 8.26151 18.895 8.32151 18.835 8.38151V8.15151C18.835 8.10151 18.775 8.09151 18.775 8.15151V8.44151L18.595 8.62151C18.535 8.68151 18.595 8.74151 18.595 8.74151C18.655 8.68151 18.715 8.62151 18.775 8.51151C19.085 8.57151 19.265 8.28151 19.325 8.33151C19.385 8.33151 19.445 8.51151 19.505 8.56151C19.625 8.62151 19.625 8.56151 19.625 8.50151C19.565 8.44151 19.565 8.38151 19.505 8.32151C19.565 8.26151 19.625 8.14151 19.685 8.14151C19.805 8.14151 19.865 8.14151 19.995 8.08151C20.115 8.08151 20.115 7.96151 19.995 7.96151C19.815 7.96151 19.505 7.96151 19.505 7.90151C19.505 7.84151 19.685 7.72151 19.745 7.72151C19.865 7.72151 19.925 7.60151 19.865 7.49151C19.805 7.43151 19.685 7.49151 19.685 7.49151C19.685 7.55151 19.805 7.49151 19.805 7.55151C19.805 7.61151 19.745 7.61151 19.685 7.61151C19.625 7.61151 19.435 7.79151 19.375 7.84151C19.375 7.90151 19.315 7.96151 19.375 7.96151C19.435 7.96151 19.625 7.96151 19.555 8.02151C19.495 8.02151 19.435 8.14151 19.375 8.20151C19.255 8.02151 19.195 7.85151 19.125 7.67151C19.125 7.61151 19.005 7.61151 19.065 7.73151C19.125 7.85151 19.245 8.08151 19.245 8.20151C19.185 8.32151 18.935 8.43151 18.875 8.43151H18.815C19.005 8.25151 19.135 8.07151 19.075 8.02151ZM20.235 7.78151C20.295 7.78151 20.295 7.72151 20.295 7.66151C20.295 7.60151 20.295 7.60151 20.235 7.60151C20.235 7.66151 20.175 7.66151 20.235 7.78151C20.175 7.78151 20.175 7.72151 20.235 7.78151ZM20.545 7.66151C20.605 7.66151 20.605 7.54151 20.545 7.54151C20.485 7.60151 20.545 7.72151 20.545 7.66151ZM20.545 7.96151C20.605 7.96151 20.665 7.96151 20.665 7.90151C20.665 7.84151 20.605 7.78151 20.605 7.78151C20.605 7.84151 20.605 7.90151 20.545 7.90151V7.96151C20.485 7.96151 20.485 7.90151 20.485 7.84151H20.425C20.415 7.96151 20.485 7.96151 20.545 7.96151Z" fill="#DFEFDF"/>
<path d="M20.2354 8.19211C20.1754 8.31211 20.0554 8.54211 19.9254 8.54211C19.8654 8.54211 19.8654 8.36211 19.8654 8.31211C19.8654 8.25211 19.8054 8.25211 19.8054 8.37211C19.7454 8.48211 19.8654 8.66211 19.9254 8.72211C19.9854 8.72211 20.1054 8.43211 20.1754 8.43211C20.2454 8.43211 20.1154 8.72211 20.3554 8.72211C20.4154 8.72211 20.4754 8.60211 20.5354 8.60211C20.5954 8.60211 20.6554 8.66211 20.7154 8.66211C20.7754 8.66211 20.8954 8.60211 20.8954 8.43211C20.8954 8.37211 20.9554 8.25211 20.9554 8.14211C20.8954 8.02211 20.7754 8.02211 20.8354 8.08211C20.8954 8.20211 20.8354 8.31211 20.8354 8.43211C20.8354 8.61211 20.6554 8.49211 20.6554 8.49211V8.08211C20.6554 8.02211 20.5954 8.02211 20.5954 8.08211V8.43211C20.5954 8.49211 20.4154 8.55211 20.4154 8.49211C20.3554 8.43211 20.3554 8.20211 20.4154 8.08211C20.2954 8.13211 20.2354 8.13211 20.2354 8.19211Z" fill="#DFEFDF"/>
<path d="M20.8455 7.84156C20.9655 7.90156 21.0255 8.02156 21.1555 8.19156C21.1555 8.19156 21.0355 8.60156 21.0355 8.66156C21.0355 8.78156 21.0955 8.78156 21.0955 8.72156C21.1555 8.54156 21.1555 8.49156 21.2155 8.25156C21.2155 8.25156 21.3355 8.54156 21.3355 8.60156C21.3355 8.60156 21.4555 8.66156 21.3955 8.60156L21.2155 8.13156L21.3355 7.78156C21.3355 7.66156 21.2755 7.66156 21.2755 7.72156C21.2755 7.84156 21.2755 8.01156 21.2155 8.01156C21.1555 8.01156 21.0355 7.72156 20.9655 7.60156C20.9055 7.60156 20.7855 7.78156 20.8455 7.84156Z" fill="#DFEFDF"/>
<path d="M21.0355 8.78186C21.0355 8.78186 20.9755 8.84186 21.0955 8.84186C21.2755 8.90186 21.4655 8.84186 21.5255 8.66186C21.5855 8.43186 21.6455 8.25186 21.7055 8.19186C21.7655 8.07186 21.8255 8.13186 21.7655 7.96186C21.7055 7.84186 21.7055 7.90186 21.6455 7.96186C21.5855 8.08186 21.4655 8.55186 21.4655 8.61186C21.4655 8.72186 21.2755 8.78186 21.0355 8.78186Z" fill="#DFEFDF"/>
<path d="M21.4654 8.1918C21.5254 8.1918 21.5854 8.1918 21.5854 8.1318C21.5854 8.0718 21.5254 8.0718 21.5254 8.0718C21.5254 8.1318 21.4654 8.1318 21.4654 8.0718C21.4654 8.0118 21.4054 8.0718 21.4054 8.1318C21.3954 8.1318 21.3954 8.1918 21.4654 8.1918ZM21.5254 7.9618C21.5854 7.9618 21.6454 7.9618 21.7054 7.9018V7.8418C21.6454 7.8418 21.5254 7.8418 21.5254 7.9018C21.4654 7.9018 21.4654 7.9618 21.5254 7.9618ZM21.7654 8.7818C21.8254 8.7218 22.1354 8.1318 22.1354 8.0818C22.1954 7.9618 22.0754 7.9618 22.0154 8.0818C22.0154 8.0718 21.7654 8.6618 21.7654 8.7818C21.7054 8.8418 21.6454 8.7818 21.7654 8.7818ZM22.1354 8.4818C22.1354 8.4818 22.0754 8.4818 22.0754 8.5418C22.0754 8.6018 22.1354 8.6018 22.1354 8.6018C22.1954 8.4818 22.0754 8.5418 22.1354 8.4818ZM21.9554 8.7218C21.9554 8.7218 21.8954 8.7818 21.9554 8.7818H22.2054C22.2054 8.7818 22.2654 8.7218 22.2054 8.7218H21.9554ZM16.6854 9.1318H16.5654C16.5654 9.1318 16.5654 9.2518 16.6254 9.2518C16.6854 9.2518 16.7454 9.1318 16.6854 9.1318Z" fill="#DFEFDF"/>
<path d="M16.9251 9.48047C16.9851 9.42047 16.8651 9.19047 16.9251 9.13047C16.9251 9.13047 17.1051 9.31047 17.1751 9.31047C17.3551 9.31047 17.2951 9.02047 17.4851 9.08047C17.6051 9.08047 17.6051 8.96047 17.6051 8.85047C17.6051 8.79047 17.4251 8.62047 17.3551 8.62047C17.2951 8.56047 17.2351 8.68047 17.2951 8.74047C17.3551 8.80047 17.4751 8.92047 17.4751 8.97047C17.4751 9.03047 17.4151 9.09047 17.3551 9.03047C17.2951 8.97047 17.1751 8.80047 17.1051 8.74047C17.1051 8.74047 17.0451 8.74047 17.0451 8.80047C17.1051 8.86047 17.2251 8.98047 17.2251 9.03047C17.2251 9.09047 17.1651 9.21047 17.1051 9.21047C17.0451 9.21047 16.9251 9.03047 16.8551 8.98047C16.8551 8.92047 16.7951 8.92047 16.7351 8.98047V9.27047C16.7351 9.39047 16.6751 9.39047 16.6751 9.33047C16.6751 9.33047 16.5551 9.39047 16.6151 9.45047C16.8051 9.54047 16.9251 9.54047 16.9251 9.48047ZM16.6151 8.84047C16.6151 8.84047 16.5551 8.90047 16.4951 8.90047L16.5551 8.96047C16.5551 8.96047 16.6751 8.84047 16.6751 8.78047C16.6751 8.72047 16.4951 8.66047 16.4951 8.72047C16.4951 8.78047 16.6851 8.84047 16.6151 8.84047ZM16.8651 8.54047C16.8651 8.48047 16.8051 8.48047 16.8051 8.48047C16.8051 8.48047 16.8651 8.60047 16.8651 8.54047Z" fill="#DFEFDF"/>
<path d="M16.8657 8.6618L16.8057 8.7218C16.8657 8.7218 16.9857 8.7818 16.9257 8.6618C16.9257 8.6018 17.1057 8.6618 17.0457 8.5418C17.0434 8.51074 17.03 8.48154 17.0079 8.45951C16.9859 8.43749 16.9567 8.42411 16.9257 8.4218L16.8657 8.4818C16.8657 8.4818 16.9857 8.5418 16.9257 8.6018C16.8657 8.6618 16.8657 8.6018 16.8057 8.6018C16.9257 8.6018 16.9257 8.6618 16.8657 8.6618ZM17.1757 8.2518C17.1757 8.2518 17.2357 8.1918 17.2357 8.1318V8.0718C17.1757 8.1318 17.1057 8.1918 17.1757 8.2518ZM17.7857 8.7218C17.8457 8.7818 17.9057 8.7218 17.8457 8.6618C17.7857 8.5418 17.4757 8.1318 17.4757 8.0718C17.4157 7.9518 17.3557 8.0118 17.3557 8.0718C17.5357 8.3118 17.6657 8.5418 17.7857 8.7218ZM17.6657 8.1318C17.7257 8.0718 17.8457 7.9518 17.7857 7.9018C17.7857 7.8418 17.7257 7.8418 17.6657 7.8418C17.6057 7.9018 17.7257 7.9018 17.6657 7.9018C17.7257 7.9618 17.6657 8.0218 17.6657 8.1318ZM22.5057 8.6018C22.3857 8.8318 22.2557 9.0718 22.1357 9.1318C22.0157 9.2518 22.0157 9.0118 22.0157 8.9518C22.0157 8.8918 21.9557 8.8318 21.8957 8.8918C21.8357 8.9518 21.7757 8.9518 21.6457 8.9518C21.5857 8.9518 21.5857 8.9518 21.5257 8.8918C21.5257 8.8318 21.4657 8.7718 21.4657 8.8918C21.4657 9.1218 21.7757 9.0718 21.8957 8.9518C21.9557 8.8918 21.8957 9.1818 22.0157 9.2418C22.0757 9.2418 22.1957 9.1818 22.2657 9.1218C22.3857 9.0018 22.4457 8.8318 22.5157 8.7118C22.5157 8.7718 22.5757 8.8918 22.5757 8.9418C22.5157 9.0618 22.4557 9.1718 22.4557 9.2318C22.4557 9.2918 22.5157 9.3518 22.5157 9.2918C22.5157 9.2318 22.5757 9.1718 22.6357 9.0618V9.2918L22.6957 9.2318C22.6957 9.1118 22.6957 9.0518 22.6357 8.9418C22.6957 8.8218 22.8157 8.7118 22.8857 8.6518C23.0057 8.5918 22.8857 8.4218 22.8857 8.4718C22.8857 8.5218 22.7457 8.7218 22.6857 8.8418C22.6857 8.7818 22.6857 8.6618 22.6257 8.6118C22.6857 8.5518 22.6857 8.4918 22.7457 8.4318C22.8057 8.3718 22.6857 8.3118 22.6857 8.3718C22.6857 8.4318 22.6257 8.4318 22.6257 8.4918C22.5657 8.3718 22.5657 8.2618 22.5057 8.2018C22.4457 8.1418 22.3857 8.2518 22.4457 8.3118C22.3857 8.3718 22.4457 8.4818 22.5057 8.6018Z" fill="#DFEFDF"/>
<path d="M22.2558 9.31178C22.1958 9.31178 22.1958 9.37178 22.1958 9.37178C22.2558 9.43178 22.3758 9.43178 22.5058 9.43178C22.8158 9.37178 22.8758 9.02178 23.1158 8.78178C23.2358 8.66178 23.1158 8.37178 23.0558 8.60178C22.9683 8.85058 22.8206 9.07387 22.6258 9.25178C22.5058 9.42178 22.3158 9.36178 22.2558 9.31178ZM19.4958 9.66178V9.43178C19.4958 9.43178 19.5558 9.43178 19.5558 9.37178V9.31178H19.4358C19.3758 9.31178 19.4358 9.37178 19.4358 9.37178C19.4958 9.37178 19.4358 9.49178 19.4358 9.60178C19.4358 9.71178 19.4958 9.72178 19.4958 9.66178Z" fill="#DFEFDF"/>
<path d="M19.495 9.19141C19.375 9.25141 19.315 9.31141 19.245 9.37141C19.245 9.37141 19.185 9.49141 19.185 9.55141C19.125 9.55141 19.125 9.49141 19.065 9.49141C19.005 9.49141 19.005 9.61141 18.885 9.61141C18.825 9.61141 18.945 9.67141 18.945 9.67141C19.005 9.67141 19.005 9.61141 19.065 9.55141C19.125 9.49141 19.125 9.61141 19.125 9.61141C19.125 9.61141 19.185 9.61141 19.245 9.55141C19.245 9.49141 19.245 9.43141 19.305 9.43141C19.365 9.31141 19.485 9.31141 19.555 9.25141C19.565 9.25141 19.565 9.19141 19.495 9.19141ZM20.055 9.60141C19.995 9.60141 19.995 9.54141 19.995 9.54141C19.875 9.48141 19.875 9.54141 19.875 9.54141C19.815 9.54141 19.815 9.66141 19.815 9.66141C19.875 9.66141 19.875 9.66141 19.935 9.60141C19.935 9.54141 19.935 9.78141 20.055 9.72141C20.115 9.66141 20.235 9.72141 20.305 9.66141C20.365 9.60141 20.365 9.60141 20.305 9.48141C20.305 9.48141 20.245 9.48141 20.245 9.54141C20.245 9.60141 20.185 9.66141 20.185 9.60141V9.48141H20.125C20.115 9.48141 20.115 9.60141 20.055 9.60141Z" fill="#DFEFDF"/>
<path d="M20.4855 9.3107C20.4255 9.3707 20.4255 9.3707 20.3655 9.3707C20.3055 9.3707 20.3655 9.4307 20.3655 9.4307V9.6107H20.4255V9.3807C20.4155 9.3107 20.4855 9.3607 20.4855 9.3107C20.5455 9.3607 20.5455 9.3107 20.4855 9.3107ZM20.1155 9.2507C20.0555 9.3107 20.0555 9.3107 20.0555 9.3707H20.1155C20.1155 9.3607 20.1755 9.2507 20.1155 9.2507ZM18.9455 9.1907C19.1255 9.0707 19.3755 9.0707 19.6855 9.0707C19.9955 9.0707 20.2355 9.1307 20.4255 9.1907L20.9755 8.9607L20.4855 9.1907L20.7355 9.0107L20.3655 9.1307L20.6155 8.8407L20.1855 9.0707L20.3055 8.8407L20.0555 9.0107L20.1155 8.7207L19.8655 9.0107V8.7807L19.7455 9.0107V8.7207L19.6855 9.0107L19.5655 8.7807V9.0107L19.3155 8.7207L19.3755 9.0107L19.1255 8.8907L19.2455 9.1207L18.8155 8.8907L19.0655 9.1807L18.7655 9.0107L18.9455 9.1907ZM19.1955 15.7007V15.8207C19.2555 15.7607 19.2555 15.7007 19.1955 15.7007C19.2555 15.6407 19.2555 15.5807 19.2555 15.5807V15.4607C19.2555 15.4607 19.2555 15.4007 19.1955 15.4007L19.1355 15.5207C19.1355 15.5807 19.1955 15.5807 19.1955 15.5807C19.1955 15.5807 19.1955 15.6407 19.2555 15.6407C19.1955 15.6407 19.1955 15.7007 19.1955 15.7007ZM19.6255 15.3507C19.6255 15.4107 19.5655 15.4107 19.5655 15.4107H19.5055L19.4455 15.3507L19.3855 15.4707C19.3855 15.5307 19.4455 15.5307 19.4455 15.5907C19.4455 15.5907 19.4455 15.6507 19.5055 15.6507V15.8307V15.5907C19.5655 15.5907 19.5655 15.5907 19.5655 15.5307V15.4707C19.6255 15.4107 19.6255 15.4107 19.6255 15.3507C19.6255 15.4107 19.6255 15.4107 19.6255 15.3507ZM19.9255 15.5307V15.3507H19.8655C19.8055 15.3507 19.8055 15.3507 19.8055 15.4107C19.8055 15.4707 19.7455 15.4707 19.7455 15.5307V15.5907H19.8655V15.7707C19.8655 15.7707 19.8655 15.8307 19.9255 15.8307V15.7107L19.8655 15.6507C19.9255 15.6407 19.9255 15.5907 19.9255 15.5307ZM19.8655 15.5307C19.8055 15.5307 19.8055 15.5307 19.8655 15.5307C19.8655 15.4707 19.8655 15.4707 19.8655 15.5307ZM20.1755 15.7007C20.1755 15.6407 20.2355 15.5807 20.2355 15.5207C20.2355 15.6407 20.2955 15.7007 20.2955 15.7507C20.2955 15.8107 20.3555 15.8107 20.3555 15.8707V15.7507C20.3555 15.6907 20.2955 15.6907 20.2955 15.6907C20.2955 15.6907 20.2355 15.6307 20.2355 15.5707C20.2355 15.5107 20.2355 15.5107 20.1755 15.4507V15.5707C20.1755 15.6307 20.1755 15.6307 20.1155 15.6907C20.1155 15.6907 20.1155 15.7507 20.0555 15.7507V15.8707C20.0555 15.8707 20.1155 15.8707 20.1155 15.8107C20.1155 15.7607 20.1155 15.7007 20.1755 15.7007ZM21.0355 16.9407C21.0355 16.9907 21.0355 16.9907 21.0355 16.9407C21.0955 17.0007 21.0955 16.9407 21.0955 16.9407H21.0355Z" fill="#DFEFDF"/>
<path d="M22.0154 16.9416C22.1354 17.0016 22.4454 17.0016 22.5654 16.9416C22.2554 16.8816 22.0154 16.7116 21.9554 16.8216V16.8816L21.7754 16.7016C21.8354 16.6416 21.8954 16.6416 21.9554 16.5816H21.6454L21.5254 16.4616C21.4654 16.4016 21.4654 16.4016 21.3454 16.4016L21.4054 16.3416C21.4054 16.4016 21.4654 16.4616 21.5254 16.4616C21.6454 16.4016 21.4654 16.1716 21.5254 15.9316C21.4502 16.0331 21.4082 16.1554 21.4054 16.2816C21.4054 16.2216 21.3454 16.2216 21.2854 16.1616C21.2254 16.1616 21.1654 16.2816 21.2254 16.3916H21.1654C20.6827 16.6057 20.1632 16.7246 19.6354 16.7416C19.13 16.7033 18.6339 16.5852 18.1654 16.3916C18.1054 16.3316 17.9854 16.3916 17.9154 16.4516L17.8554 16.5116H17.4854C17.5454 16.5716 17.6054 16.6316 17.6654 16.6316C17.5951 16.7079 17.51 16.7691 17.4154 16.8116V16.7516C17.3554 16.6316 17.1054 16.8116 16.8054 16.8716C16.9254 16.9316 17.2354 16.9316 17.3554 16.8716C17.2954 16.9316 17.1754 16.9916 17.1054 17.0516C16.9854 16.9316 16.4954 16.9316 16.0654 16.7016C16.1254 16.8816 16.6754 17.1116 16.9854 17.1716C16.9254 17.2316 16.9854 17.3516 17.2354 17.4616C17.2354 17.4616 17.5454 17.5816 17.7254 17.5816C17.7854 17.5816 17.7854 17.7016 17.7854 17.7016C17.7254 17.7616 17.7854 17.7616 17.7254 17.8216C17.6654 17.8816 17.7254 17.9416 17.7854 17.8816C18.0354 17.7016 18.3354 17.8216 18.7054 17.9416C18.7654 17.9416 18.9554 17.9416 18.9554 17.8216C18.9554 17.7016 19.0154 17.6416 19.0754 17.6416C19.1954 17.6416 19.9354 17.7016 20.1154 17.6416C20.2354 17.6416 20.2354 17.8216 20.2954 17.8716C20.3554 17.9316 20.5454 17.9316 20.6654 17.8716C20.9154 17.7516 21.2754 17.7516 21.4054 17.8716C21.4654 17.9316 21.5254 17.8716 21.4654 17.8116C21.5854 17.8716 21.5854 17.8116 21.5854 17.7516C21.5254 17.6316 21.5854 17.6316 21.6454 17.6316C22.1954 17.5716 22.4454 17.4016 22.3854 17.2216C22.6354 17.2216 23.2454 16.9316 23.3054 16.7516C22.8754 16.9816 22.3854 16.9816 22.2654 17.1016C22.1354 17.0516 22.0754 16.9916 22.0154 16.9416ZM20.7854 16.6416H20.9654V16.7616H20.7854V16.6416ZM20.4854 16.8216H20.6654V16.9416H20.4854V16.8216ZM19.0754 16.9416L19.1354 17.0016L19.1954 16.9416L19.3154 17.0016L19.1954 17.0616L19.1354 17.0016L19.0754 17.0616L18.9554 17.0016L19.0754 16.9416ZM18.5154 16.8816L18.6354 17.0016L18.5154 17.0616L18.3954 16.9416L18.5154 16.8816ZM18.5154 17.2916C18.5154 17.3516 18.4554 17.3516 18.4554 17.3516C18.4554 17.3516 18.3954 17.3516 18.3354 17.4116H18.2154C18.1554 17.4116 18.0954 17.4116 18.0354 17.3516C17.9154 17.2916 17.8554 17.2916 17.8554 17.2316C17.7954 17.1716 17.7954 17.1716 17.8554 17.1116C17.8554 17.0516 17.9154 17.0516 17.9754 17.0516C18.0354 17.0516 18.0954 16.9916 18.2254 16.9916C18.1654 16.9916 18.1054 17.0516 18.0454 17.0516L17.9854 17.1116V17.1716C17.9854 17.2316 18.0454 17.2316 18.1654 17.2316C18.2254 17.2316 18.2854 17.2916 18.3454 17.2916C18.4554 17.3516 18.4554 17.2916 18.5154 17.2916C18.4554 17.2316 18.5154 17.2316 18.5154 17.2316V17.1116L18.6354 17.0516V17.1116C18.6354 17.1116 18.6354 17.1716 18.5754 17.1716L18.5154 17.2916ZM19.9954 17.4616H19.3954L19.3354 17.4016L19.2754 17.4616H19.0354L18.8554 17.4016H18.7954C18.7354 17.4016 18.7354 17.3416 18.7354 17.3416C18.7354 17.2816 18.7354 17.2816 18.7954 17.1616L18.8554 17.0416V16.9216L18.9754 16.8616V16.9216C18.9754 16.9216 18.9754 16.9816 18.9154 17.0416L18.8554 17.1016C18.7954 17.1616 18.7954 17.2216 18.7954 17.2216V17.2816H18.8554L19.1654 17.3416V17.2816L19.1054 17.2216L19.2254 17.1016L19.2854 17.1616V17.2816H19.4054C19.4654 17.2816 19.4654 17.2216 19.4654 17.1616H19.5254V17.3416H19.7654L19.8254 17.2816V17.3416H19.9454V17.2816L20.0054 17.2216V17.3416H20.2554C20.2554 17.3416 20.2554 17.2816 20.1954 17.2816L20.1354 17.2216L20.1954 17.1016C20.2554 17.1016 20.2554 17.1616 20.2554 17.1616C20.2554 17.1616 20.3154 17.2216 20.3154 17.2816V17.4016L19.9954 17.4616ZM21.0354 17.2316H20.7954L20.7354 17.2916H20.4954C20.4354 17.2916 20.4354 17.2316 20.3754 17.1716L20.3154 17.0516C20.3154 17.0516 20.3154 16.9916 20.2554 16.9916V17.0516L20.0754 16.9916L20.1354 16.8716H20.2554V16.8116C20.3154 16.8116 20.3154 16.8716 20.3154 16.8716C20.3154 16.8716 20.3754 16.9316 20.3754 16.9916V17.0516C20.3754 17.1116 20.4354 17.1716 20.4354 17.1716H20.6754H20.5554C20.5554 17.1116 20.4954 17.1116 20.5554 17.0516C20.5554 17.0516 20.6154 16.9916 20.6754 16.9916H20.7954C20.8554 16.9916 20.8554 16.9916 20.8554 17.0516V17.1716H20.9754L21.3454 17.0516C21.3454 17.0516 21.3454 16.9916 21.2854 16.9916L21.2254 16.9316V16.9916C21.2254 16.9916 21.1654 16.9916 21.1654 17.0516H21.0454C20.9854 17.0516 20.9854 17.0516 20.9854 16.9916C20.9854 16.9316 20.9254 16.9316 20.9254 16.8716C20.9254 16.8116 20.9254 16.8116 20.9854 16.7516C21.0454 16.7516 21.1054 16.7516 21.1654 16.8116C21.2254 16.8716 21.2854 16.8716 21.3454 16.9316L21.4654 17.1116L21.0354 17.2316ZM21.4654 17.1116C21.4654 17.0516 21.4054 17.0516 21.4054 17.0516L21.3454 16.9916L21.2854 16.9316C21.2254 16.9316 21.2254 16.8716 21.1654 16.8116H21.1054V16.6916L21.2254 16.8116C21.2854 16.8716 21.3454 16.8716 21.3454 16.9316L21.4054 16.9916L21.4654 17.0516C21.5254 17.0516 21.5254 17.1116 21.4654 17.1116Z" fill="#DFEFDF"/>
</g>
</g>
<defs>
<clipPath id="clip0_26003_53456">
<rect width="38" height="25" fill="white" transform="translate(0.745117 0.210938)"/>
</clipPath>
<clipPath id="clip1_26003_53456">
<rect width="38" height="25" fill="white" transform="translate(0.745117 0.210938)"/>
</clipPath>
</defs>
</svg>
