<svg width="39" height="26" viewBox="0 0 39 26" fill="none" xmlns="http://www.w3.org/2000/svg">
<g clip-path="url(#clip0_26003_54081)">
<g clip-path="url(#clip1_26003_54081)">
<path fill-rule="evenodd" clip-rule="evenodd" d="M3.24512 25.2109H36.3451C37.6451 25.0109 38.6451 23.8109 38.8451 22.3109V3.11094C38.6451 1.61094 37.6451 0.410938 36.3451 0.210938H3.24512C2.57145 0.360179 1.96407 0.72317 1.51354 1.24578C1.06301 1.7684 0.793472 2.42263 0.745117 3.11094L0.745117 22.3109C0.776923 23.0044 1.0406 23.6672 1.49389 24.193C1.94719 24.7189 2.56386 25.0773 3.24512 25.2109Z" fill="#2E307C"/>
<path fill-rule="evenodd" clip-rule="evenodd" d="M10.7451 15.5109L11.3451 17.5109L13.0451 16.8109L12.0451 18.6109L13.6451 19.7109L11.7451 19.8109L12.0451 21.9109L10.7451 20.4109L9.44512 21.9109L9.64512 19.8109L7.84512 19.7109L9.44512 18.6109L8.34512 16.8109L10.1451 17.5109L10.7451 15.5109ZM30.7451 19.2109L31.0451 20.1109L31.8451 19.8109L31.3451 20.6109L32.1451 21.1109L31.2451 21.2109L31.3451 22.2109L30.7451 21.5109L30.1451 22.2109L30.2451 21.2109L29.3451 21.1109L30.1451 20.6109L29.6451 19.8109L30.4451 20.1109L30.7451 19.2109ZM25.7451 10.2109L26.0451 11.2109L26.8451 10.8109L26.3451 11.7109L27.1451 12.2109L26.2451 12.3109L26.3451 13.3109L25.7451 12.6109L25.1451 13.3109L25.2451 12.3109L24.3451 12.2109L25.1451 11.7109L24.6451 10.8109L25.4451 11.2109L25.7451 10.2109ZM30.7451 4.11094L31.0451 5.11094L31.8451 4.71094L31.3451 5.61094L32.1451 6.11094L31.2451 6.21094L31.3451 7.21094L30.7451 6.51094L30.1451 7.21094L30.2451 6.21094L29.3451 6.11094L30.1451 5.61094L29.6451 4.71094L30.4451 5.11094L30.7451 4.11094ZM35.1451 8.71094L35.4451 9.71094L36.3451 9.31094L35.8451 10.2109L36.5451 10.7109L35.6451 10.8109L35.8451 11.8109L35.1451 11.1109L34.5451 11.8109L34.6451 10.8109L33.7451 10.7109L34.5451 10.2109L34.0451 9.31094L34.9451 9.71094L35.1451 8.71094ZM32.7451 13.3109L32.9451 13.9109H33.5451L33.0451 14.3109L33.2451 15.0109L32.7451 14.6109L32.2451 15.0109L32.3451 14.3109L31.9451 13.9109H32.5451L32.7451 13.3109ZM9.04512 0.210938V4.01094H0.745117V7.71094H9.04512V11.5109H12.3451V7.71094H20.7451V4.01094H12.3451V0.210938H9.04512Z" fill="#FEFEFE"/>
<path fill-rule="evenodd" clip-rule="evenodd" d="M1.14551 1.71094L18.4455 11.5109H20.7455V10.2109L3.04551 0.210938C2.24551 0.410938 1.54551 1.01094 1.14551 1.71094Z" fill="#FEFEFE"/>
<path fill-rule="evenodd" clip-rule="evenodd" d="M18.4451 0.210938L0.745117 10.2109V11.5109H2.94512L20.7451 1.51094V0.210938H18.4451Z" fill="#FEFEFE"/>
<path fill-rule="evenodd" clip-rule="evenodd" d="M9.74512 0.210938V4.71094H0.745117V7.01094H9.74512V11.5109H11.7451V7.01094H20.7451V4.71094H11.7451V0.210938H9.74512Z" fill="#E42229"/>
<path fill-rule="evenodd" clip-rule="evenodd" d="M19.2451 0.210938L12.5451 4.01094H14.0451L20.7451 0.210938H19.2451ZM1.34512 1.41094C1.54512 1.21094 1.64512 1.01094 1.84512 0.910937L7.34512 4.01094H5.94512L1.34512 1.41094ZM14.0451 7.71094L20.7451 11.5109V10.7109L15.5451 7.81094H14.0451V7.71094ZM7.34512 7.71094L0.745117 11.5109H2.24512L8.94512 7.71094H7.34512Z" fill="#E42229"/>
</g>
</g>
<defs>
<clipPath id="clip0_26003_54081">
<rect width="38" height="25" fill="white" transform="translate(0.745117 0.210938)"/>
</clipPath>
<clipPath id="clip1_26003_54081">
<rect width="38" height="25" fill="white" transform="translate(0.745117 0.210938)"/>
</clipPath>
</defs>
</svg>
