<svg width="38" height="26" viewBox="0 0 38 26" fill="none" xmlns="http://www.w3.org/2000/svg">
<g clip-path="url(#clip0_26003_90119)">
<g clip-path="url(#clip1_26003_90119)">
<path d="M12.4404 0.5H25.4904V25.5H12.4404V0.5Z" fill="#BF0000"/>
<path d="M12.44 0.500501H3.68C3.20294 0.492564 2.72901 0.579015 2.28548 0.754881C1.84194 0.930747 1.43755 1.19256 1.09556 1.52526C0.75356 1.85796 0.480709 2.25499 0.292693 2.69351C0.104677 3.13204 0.00520612 3.6034 0 4.0805L0 21.9205C0 23.9205 1.65 25.5005 3.68 25.5005H12.51V0.500501H12.44Z" fill="black"/>
<path d="M34.3196 0.5H25.5596V25.5H34.3196C34.7966 25.5079 35.2706 25.4215 35.7141 25.2456C36.1576 25.0698 36.562 24.8079 36.904 24.4752C37.246 24.1425 37.5189 23.7455 37.7069 23.307C37.8949 22.8685 37.9944 22.3971 37.9996 21.92V4.08C37.9996 2.08 36.3496 0.5 34.3196 0.5Z" fill="#009900"/>
<path d="M34.3196 0.5H25.5596V18.34L34.3196 25.5C34.7966 25.5079 35.2706 25.4215 35.7141 25.2456C36.1576 25.0698 36.562 24.8079 36.904 24.4752C37.246 24.1425 37.5189 23.7455 37.7069 23.307C37.8949 22.8685 37.9944 22.3971 37.9996 21.92V4.08C37.9996 2.08 36.3496 0.5 34.3196 0.5Z" fill="#009900"/>
<path d="M25.5604 18.34V0.5H12.4404V7.66L25.5604 18.34Z" fill="#BF0000"/>
<path d="M12.4397 0.5H3.67969L12.4397 7.66V0.5Z" fill="black"/>
<path d="M25.5596 25.4999H34.3196C34.7966 25.5079 35.2706 25.4214 35.7141 25.2455C36.1576 25.0697 36.562 24.8079 36.904 24.4752C37.246 24.1425 37.5189 23.7454 37.7069 23.3069C37.8949 22.8684 37.9944 22.397 37.9996 21.9199H25.5596V25.4999Z" fill="#009900"/>
<path d="M12.4404 21.9199H25.4904V25.4999H12.4404V21.9199Z" fill="#BF0000"/>
<path d="M0 21.9199C0 23.9199 1.65 25.4999 3.68 25.4999H12.51V21.9199H0Z" fill="black"/>
<path d="M34.3196 0.5H25.5596V6.9L37.9996 10.54V4.08C37.9996 2.08 36.3496 0.5 34.3196 0.5Z" fill="#009900"/>
<path d="M25.5604 6.9V0.5H12.4404V3.08L25.5604 6.9Z" fill="#BF0000"/>
<path d="M12.4397 0.5H3.67969L12.4397 3.08V0.5Z" fill="black"/>
<path d="M20.6502 14.4705H20.1602C20.1602 14.6505 20.1002 14.8205 19.9802 14.9405H20.9602C20.7802 14.8805 20.6502 14.6405 20.6502 14.4705ZM17.2802 12.0605H20.7202L20.9602 11.7705H20.1002L19.6702 11.5905H18.3302L17.9002 11.7705H17.0402L17.2802 12.0605ZM18.3902 11.4205H19.5502C19.7302 11.3605 19.7302 11.0705 19.7302 10.9505C19.7343 10.8675 19.7215 10.7844 19.6928 10.7064C19.6641 10.6283 19.62 10.5568 19.5631 10.4962C19.5061 10.4356 19.4376 10.387 19.3615 10.3534C19.2855 10.3198 19.2034 10.3018 19.1202 10.3005C19.0602 10.3005 19.0002 10.2405 19.0002 10.2405V10.0605C19.0002 10.0605 19.0002 10.1205 18.9402 10.1805C18.9402 10.2405 18.8802 10.2405 18.8202 10.2405C18.4502 10.2405 18.2102 10.5305 18.2102 10.8905C18.2002 11.1805 18.2602 11.3005 18.3902 11.4205ZM21.0802 15.1105H16.9202L16.4902 15.4605H21.5102L21.0802 15.1105Z" fill="#DFEFDF"/>
<path d="M19.86 14.5297V14.2997L19.74 14.2397V13.9997L19.49 13.8797V13.6497L19.31 13.5897V13.3597L19.06 13.2997L18.94 13.2397V13.1197H18.08V12.9997C18.08 12.5897 18.63 12.2397 19 12.2397C19.43 12.2397 19.92 12.5897 19.92 12.9997V13.4097H19.98V12.9997C19.98 12.6497 19.55 12.2397 19.06 12.2397H20.65V12.1797H17.34V12.2397H18.93C18.68 12.2397 18.01 12.5297 18.01 12.9997V14.4097H18.32V14.6397H17.9C17.84 14.6397 17.78 14.5797 17.78 14.4597H17.35C17.35 14.6397 17.23 14.8097 17.04 14.9897H18.39V14.6397H18.76L18.82 14.9297H19.13L19 14.6397H19.31L19.49 14.9297H19.92L19.61 14.6397H20.1L19.86 14.5297ZM18.33 14.1197V13.6497H18.51V14.1197H18.57L18.63 14.3497H18.32V14.1197H18.33ZM18.94 14.6397H18.69L18.63 14.4097H18.81L18.75 14.1197H18.87V13.2997L19 13.3497V13.5797L19.18 13.6397V13.8197L19.43 13.9397V14.1697L19.55 14.2897V14.5197L19.12 14.1697H18.94L19.12 14.3997H18.94V14.6397ZM19.25 14.6397L19.07 14.4097H19.32L19.57 14.6397H19.25Z" fill="#DFEFDF"/>
<path d="M19.9206 13.5904H19.9806V14.0004H19.9206V13.5904ZM16.4906 13.0604C16.5506 13.0004 16.7406 12.8804 16.8006 12.8304L17.3506 13.7104V13.9404H17.8406V13.4704H17.3506V13.5904L16.4306 12.0604L16.4906 12.0004C16.4906 11.9404 16.4306 11.8804 16.3706 11.8804C16.3106 11.8804 16.2506 11.9404 16.2506 12.0004C16.2506 12.0604 16.3106 12.1204 16.3706 12.1204H16.4306V12.1804C16.3706 12.1804 16.2506 12.4104 16.0606 12.5304V12.7104C16.0606 12.7104 16.0606 12.7704 16.1206 12.7704C16.1806 12.7704 16.1806 12.8304 16.2406 12.8304C16.2406 12.8304 16.3006 12.8304 16.3006 12.8904L16.4906 13.0604C16.4306 13.0604 16.4306 13.0604 16.4906 13.0604ZM16.2406 13.6504C16.2406 13.5904 16.1806 13.5904 16.1806 13.5304L16.1206 13.4704L16.0006 13.3504H15.8206H15.8806L15.7006 13.1704V13.4104C15.7006 13.4704 15.6406 13.6404 15.6406 13.6404C15.7606 13.7604 15.9506 13.9304 16.0106 14.0504C16.1806 14.1204 16.2406 13.8204 16.2406 13.6504ZM17.3506 10.6504H17.7806V10.7704H17.3506V10.6504ZM17.3506 10.8304H17.7806V11.5904H17.3506V10.8304ZM17.3506 10.5404H17.8406C17.8406 10.3604 17.7206 10.2504 17.5906 10.2504C17.4706 10.2404 17.3506 10.4204 17.3506 10.5404Z" fill="#DFEFDF"/>
<path d="M17.3507 13.2908H17.8407V13.4108H17.3507V13.2908ZM17.3507 14.1208H17.8407V14.4108H17.3507V14.1208ZM17.4107 13.1808H17.8407L17.9007 13.0008H17.3507L17.4107 13.1808ZM18.2607 12.3008H17.9507V12.6508C18.0207 12.5308 18.1407 12.4108 18.2607 12.3008ZM17.4107 12.4108V12.8208C17.4107 12.8808 17.4707 12.8808 17.4707 12.8208V12.5308C17.4707 12.4708 17.5907 12.4708 17.5907 12.5308V12.8808C17.5907 12.9408 17.7107 12.9408 17.7107 12.8808V12.4708C17.7707 12.3008 17.4107 12.3008 17.4107 12.4108ZM15.6307 9.48078C15.4507 9.66078 15.3207 9.77078 15.3807 9.95078C15.5707 10.0108 15.6907 9.83078 15.6307 9.48078ZM15.2607 10.1808C15.3807 10.0608 15.3207 9.59078 15.2607 9.30078C15.2007 9.54078 15.1407 10.1208 15.2607 10.1808Z" fill="#DFEFDF"/>
<path d="M15.3198 10.2396C15.5698 10.2996 15.8098 10.0596 15.8698 9.76961C15.6298 10.0096 15.3198 10.0096 15.3198 10.2396ZM15.1398 10.5396C15.2598 10.4796 15.1398 9.88961 15.0798 9.59961C15.0198 9.88961 14.8898 10.4796 15.1398 10.5396Z" fill="#DFEFDF"/>
<path d="M15.2002 10.5401C15.4502 10.6001 15.5702 10.3601 15.5702 10.2501C15.4502 10.3601 15.2002 10.3001 15.2002 10.5401ZM14.9502 10.8301C15.1302 10.7701 14.8902 10.0701 14.8902 9.83008C14.8302 10.0701 14.7102 10.7701 14.9502 10.8301Z" fill="#DFEFDF"/>
<path d="M15.0204 10.7705C15.2004 10.8305 15.3904 10.7105 15.4504 10.5405C15.3204 10.6505 15.0804 10.5405 15.0204 10.7705ZM14.7704 11.1205C14.9504 11.0005 14.7104 10.5305 14.6504 10.0605C14.7104 10.5405 14.5904 11.1205 14.7704 11.1205Z" fill="#DFEFDF"/>
<path d="M14.8301 11.0601C14.9501 11.1201 15.2001 11.0001 15.2601 10.8301C15.0801 10.9501 14.8901 10.8301 14.8301 11.0601ZM16.3601 9.83008C16.1201 9.95008 16.0001 10.0701 16.0601 10.2401C16.2401 10.2401 16.3601 10.0701 16.3601 9.83008ZM15.9401 10.5401C16.2501 10.6001 16.3101 10.3601 16.5501 10.0701C16.2401 10.2401 15.9401 10.3001 15.9401 10.5401ZM15.8101 10.4801C16.0001 10.3001 15.8701 10.1801 15.9401 9.89008C15.8101 10.0701 15.6901 10.3001 15.8101 10.4801Z" fill="#DFEFDF"/>
<path d="M16.2404 10.4797C16.1204 10.5997 15.7504 10.5997 15.8104 10.7697C16.1204 10.8297 16.1804 10.5897 16.2404 10.4797ZM15.6904 10.7697C15.8104 10.6497 15.6304 10.4797 15.6904 10.1797C15.5704 10.4197 15.5104 10.7697 15.6904 10.7697ZM15.5104 11.0597C15.6904 10.8797 15.4504 10.7097 15.5104 10.4697C15.4504 10.6497 15.2604 10.9997 15.5104 11.0597Z" fill="#DFEFDF"/>
<path d="M15.5699 11.0595C15.6899 11.2395 15.9399 10.9995 15.9999 10.7695C15.8099 10.9495 15.6299 10.8895 15.5699 11.0595ZM15.7499 11.3595C15.8099 11.2995 15.7499 11.1795 15.6899 11.2395L15.5099 11.4195C15.4499 11.4195 15.5099 11.2995 15.5099 11.2395C15.5099 11.1795 15.4499 11.1795 15.3899 11.1795C15.3299 11.2395 15.2699 11.3595 15.2699 11.4695C15.2699 11.5795 15.2099 11.2895 15.1499 11.2395C15.0899 11.1795 15.0299 11.2995 15.0899 11.2995C15.2099 11.5295 15.0299 11.9995 15.0899 12.2395C15.1999 11.7095 15.4499 11.5895 15.7499 11.3595ZM15.3799 16.3995C15.8699 16.3395 15.9899 16.2195 16.3599 16.0495C16.4199 16.0495 16.4199 15.9895 16.4799 15.9895C16.5399 16.1095 16.5999 16.1695 16.6599 16.1095C16.7199 16.0495 16.7199 15.9895 16.6599 15.9295H16.7799C16.7799 16.1095 16.7199 16.2195 16.8399 16.2795C16.9599 16.2795 16.9599 16.0995 16.8399 15.9295C16.8999 15.9295 16.9599 15.9295 17.0199 15.9895C17.1399 16.0495 17.1999 16.0495 17.0799 15.9295C17.0199 15.8695 16.9599 15.7495 16.8299 15.6995C16.6033 15.5756 16.3481 15.5135 16.0899 15.5195C15.7199 15.5795 15.4199 15.8095 15.0499 15.8695C14.8699 15.9295 14.6799 15.9295 14.4399 15.8695C14.3799 15.8695 14.3799 15.8695 14.3799 15.9295C14.7699 16.3495 14.8899 16.4595 15.3799 16.3995ZM17.2199 16.7595C17.2799 16.7595 17.3399 16.6995 17.3399 16.6395C17.3999 16.6395 17.4599 16.7595 17.4599 16.6995C17.5199 16.5795 17.4599 16.4695 17.3999 16.4695C17.3399 16.4695 17.3399 16.5295 17.2799 16.5895C17.2799 16.4695 17.2199 16.3595 17.1599 16.2395C17.2799 16.4595 17.0999 16.6995 17.2199 16.7595ZM17.1599 16.7595C17.1599 16.5795 16.8499 16.6995 16.5499 16.5795C16.6699 16.6995 17.1599 16.9295 17.1599 16.7595ZM16.3599 16.3495C16.4799 16.4695 16.9099 16.6395 16.9099 16.4695C16.9199 16.3495 16.6699 16.4595 16.3599 16.3495Z" fill="#DFEFDF"/>
<path d="M16.9804 16.5202C17.1604 16.5802 17.1004 16.1702 16.9804 15.9902C17.0404 16.2302 16.8504 16.4602 16.9804 16.5202ZM16.3004 16.1102C16.4204 16.2902 16.7904 16.4002 16.7304 16.2302C16.7304 16.1102 16.5504 16.2302 16.3004 16.1102ZM15.5704 16.6402C15.5704 16.4602 15.2004 16.5202 14.9004 16.4602C15.0204 16.5802 15.5704 16.8102 15.5704 16.6402ZM15.5704 16.3502C15.5704 16.4702 15.7504 16.7602 15.8804 16.6402C16.0004 16.6402 15.7504 16.4002 15.5704 16.3502ZM15.8704 16.8102C15.8704 16.6902 15.6204 16.8102 15.1304 16.7502C15.3204 16.8702 15.9404 16.9902 15.8704 16.8102Z" fill="#DFEFDF"/>
<path d="M16.1798 16.9303C16.1198 16.8103 15.8098 16.9303 15.5098 16.9303C15.6898 17.0503 16.2398 17.1103 16.1798 16.9303Z" fill="#DFEFDF"/>
<path d="M16.4304 17.0504C16.3704 16.9304 16.0604 17.1104 15.6904 17.1104C16.0004 17.1704 16.4904 17.1704 16.4304 17.0504ZM16.1804 16.8104C16.3004 16.6904 16.1204 16.5804 15.8704 16.4004C16.0004 16.6404 16.0004 16.9304 16.1804 16.8104Z" fill="#DFEFDF"/>
<path d="M16.0602 16.4003C16.1802 16.6303 16.3102 17.0503 16.4302 16.9303C16.6102 16.8103 16.3002 16.6403 16.0602 16.4003ZM16.9202 17.0503C17.0402 16.9303 16.4902 16.5803 16.3102 16.3503C16.4302 16.6403 16.7902 17.2303 16.9202 17.0503ZM15.9402 14.8203C15.9402 15.0503 15.6902 15.1703 15.8202 15.2903C16.0002 15.2903 16.0602 15.0503 15.9402 14.8203ZM16.0002 15.4603C16.1802 15.5203 16.1802 15.2803 16.1202 15.0503C16.1202 15.3503 15.8702 15.4103 16.0002 15.4603ZM15.9402 15.5203C16.0002 15.4003 15.6902 15.4003 15.4502 15.1703C15.5102 15.3503 15.8702 15.7003 15.9402 15.5203Z" fill="#DFEFDF"/>
<path d="M15.7506 15.2298C15.8106 15.1098 15.3806 14.9398 15.1406 14.7598C15.2606 14.9398 15.6906 15.4098 15.7506 15.2298Z" fill="#DFEFDF"/>
<path d="M15.6905 14.9402C15.7505 14.8202 15.2005 14.6502 15.0205 14.4102C15.0805 14.6402 15.5705 15.1702 15.6905 14.9402Z" fill="#DFEFDF"/>
<path d="M15.3798 14.6403C15.4398 14.5803 15.3198 14.5203 15.1298 14.3503C15.0798 14.4703 15.2598 14.7003 15.3798 14.6403ZM16.1798 15.5203C16.2998 15.5803 16.3598 15.4003 16.2398 15.2303C16.1798 15.4103 16.1198 15.4103 16.1798 15.5203ZM14.1598 14.3503C14.2198 14.2303 13.7298 14.0603 13.5498 13.8203C13.6098 14.0003 13.9698 14.4703 14.1598 14.3503Z" fill="#DFEFDF"/>
<path d="M14.34 14.5805C14.4 14.4005 13.97 14.3505 13.79 14.2305C13.85 14.4105 14.22 14.7005 14.34 14.5805Z" fill="#DFEFDF"/>
<path d="M14.5299 14.8198C14.5899 14.6398 14.0999 14.6398 13.8599 14.4698C13.9699 14.6398 14.4599 14.9998 14.5299 14.8198ZM14.3999 14.9998C14.4599 14.8798 14.0299 14.8198 13.7899 14.5898C13.9099 14.8198 14.3399 15.1698 14.3999 14.9998ZM14.3999 14.5798C14.5799 14.5798 14.4599 14.3498 14.3999 14.1698C14.7099 14.2298 15.1399 14.3498 15.3799 14.3998H15.4399C15.4399 14.6298 15.4999 14.8098 15.6899 14.8098C15.8699 14.7498 15.6899 14.6298 15.5099 14.4598C15.6299 14.5198 15.7599 14.5798 15.8799 14.6898C15.8199 14.8698 15.6999 14.9198 15.8199 15.0398C15.9399 15.0998 16.0699 14.8098 15.9399 14.5698V14.6298C15.8799 14.4498 15.8799 14.3398 15.8199 14.1598C15.7599 13.9798 15.5699 13.8098 15.3899 13.8098C15.5099 13.7498 15.5699 13.5198 15.5699 13.4598C15.4499 13.4598 15.2599 13.6398 15.2599 13.8098C14.8899 13.8098 14.4599 13.7498 14.1599 13.6298C13.9799 13.5698 13.8499 13.4498 13.7299 13.3398C13.7299 13.3398 13.6699 13.3398 13.6699 13.3998C13.6699 13.4598 13.7899 13.9298 14.0399 14.0998C14.0999 14.0998 14.1599 14.1598 14.2199 14.1598C14.2199 14.2798 14.1599 14.3398 14.2799 14.3898C14.3399 14.3298 14.3399 14.2698 14.3399 14.2098H14.3999C14.3399 14.3498 14.2799 14.5298 14.3999 14.5798Z" fill="#DFEFDF"/>
<path d="M14.5306 14.2305C14.5306 14.5205 14.4106 14.7005 14.5306 14.7605C14.7106 14.7605 14.6506 14.5305 14.5306 14.2305ZM14.4606 15.2305C14.5206 15.1105 14.0906 15.0505 13.8506 14.8205C13.9706 15.0005 14.4006 15.4105 14.4606 15.2305Z" fill="#DFEFDF"/>
<path d="M14.7703 15.5199C14.8303 15.3399 14.3403 15.3399 14.0303 15.1699C14.2203 15.2899 14.7103 15.6999 14.7703 15.5199Z" fill="#DFEFDF"/>
<path d="M15.0798 15.7601C15.1398 15.5801 14.6498 15.6401 14.3398 15.4101C14.4598 15.6401 14.9498 15.9901 15.0798 15.7601ZM14.5898 15.1701C14.7098 15.2301 14.7698 14.8801 14.7098 14.5801C14.7098 14.8801 14.3998 15.0501 14.5898 15.1701ZM14.8298 15.4601C15.0098 15.5201 14.9498 15.1101 14.8298 14.8101C14.7698 15.0501 14.6498 15.3501 14.8298 15.4601Z" fill="#DFEFDF"/>
<path d="M15.0798 15.701C15.2598 15.701 15.1398 15.351 14.9598 15.171C15.0198 15.411 14.9498 15.701 15.0798 15.701ZM14.7698 15.881C14.7698 15.821 14.5198 15.701 14.3398 15.701C14.5898 15.821 14.7098 15.991 14.7698 15.881ZM14.6498 12.881C14.8298 12.761 14.7098 12.531 14.6498 12.291C14.5898 12.471 14.4598 12.771 14.6498 12.881Z" fill="#DFEFDF"/>
<path d="M14.6504 13.1798C14.7104 12.9498 14.5304 12.8898 14.4004 12.5898C14.4604 12.8198 14.4004 13.1198 14.6504 13.1798ZM14.7104 13.1198C14.9604 13.1198 14.8904 12.8898 14.9604 12.6498C14.8304 12.8198 14.7104 12.8798 14.7104 13.1198Z" fill="#DFEFDF"/>
<path d="M14.7104 13.41C14.7104 13.18 14.5904 13.23 14.4004 13C14.4004 13.29 14.5304 13.41 14.7104 13.41ZM14.9504 13C14.8904 13.18 14.7004 13.23 14.7704 13.41C14.9504 13.41 14.9504 13.18 14.9504 13Z" fill="#DFEFDF"/>
<path d="M14.4004 13.291C14.4004 13.471 14.5204 13.701 14.7104 13.641C14.7704 13.471 14.5304 13.411 14.4004 13.291Z" fill="#DFEFDF"/>
<path d="M14.9505 13.2902C14.8905 13.4702 14.6405 13.5202 14.7005 13.7002C15.0205 13.7002 15.0205 13.5302 14.9505 13.2902ZM14.0405 12.0002C14.1605 11.8802 14.0405 11.6502 14.0405 11.4102C13.9705 11.6502 13.8505 11.9402 14.0405 12.0002ZM14.0405 12.3002C14.1005 12.0702 13.7905 11.9502 13.7305 11.6502C13.7305 11.8302 13.7905 12.3002 14.0405 12.3002ZM14.1005 12.3002C14.2805 12.2402 14.2205 12.0102 14.2805 11.8902C14.1605 12.0602 14.0405 12.0602 14.1005 12.3002Z" fill="#DFEFDF"/>
<path d="M14.0404 12.5906C14.0404 12.3006 13.7304 12.1806 13.6104 11.8906C13.6704 12.0606 13.7904 12.5906 14.0404 12.5906ZM14.1004 12.5906C14.3504 12.5306 14.2804 12.4106 14.2804 12.1806C14.2204 12.3506 14.0404 12.3506 14.1004 12.5906Z" fill="#DFEFDF"/>
<path d="M14.0398 12.8797C14.0998 12.6997 13.7298 12.4097 13.5498 12.1797C13.7898 12.5297 13.7898 12.9397 14.0398 12.8797ZM14.0998 12.8797C14.2798 12.8797 14.3498 12.5897 14.3498 12.4697C14.2798 12.5897 14.0398 12.7097 14.0998 12.8797Z" fill="#DFEFDF"/>
<path d="M14.0404 13.1793C14.1004 12.9993 13.8604 12.9493 13.6104 12.5293C13.7304 12.8793 13.8504 13.2293 14.0404 13.1793ZM14.1004 13.1193C14.3504 13.1793 14.3504 12.9993 14.3504 12.7093C14.2804 12.9393 14.0404 12.9993 14.1004 13.1193ZM14.1004 13.5293C14.1604 13.2993 13.8504 13.2393 13.6704 12.9393C13.8504 13.2293 13.9104 13.5293 14.1004 13.5293Z" fill="#DFEFDF"/>
<path d="M14.1598 13.4705C14.4098 13.5305 14.4098 13.3505 14.4098 13.0605C14.2798 13.2305 14.0398 13.2905 14.1598 13.4705ZM14.8298 11.1205C14.6498 11.1805 14.5798 11.3005 14.5798 11.4705C14.7098 11.5305 14.8898 11.3605 14.8298 11.1205ZM14.0998 11.3605C14.0998 11.4205 14.2198 11.4205 14.1598 11.3605V11.1805C14.2198 11.1205 14.1598 10.9505 14.1598 10.9505C14.1598 10.8905 14.0398 10.9505 14.0998 10.9505C14.1598 11.0105 14.1598 11.1305 14.0998 11.1805V11.3605ZM15.4498 12.3005C15.5098 12.2405 15.6298 12.1205 15.6298 12.0105C15.6298 11.9505 15.6898 11.7205 15.7498 11.6605C15.8098 11.6005 15.7498 11.5405 15.6898 11.6005C15.6298 11.6605 15.5698 11.8305 15.5698 11.9505C15.5698 12.0705 15.4498 12.1305 15.3898 12.1805C15.3198 12.3005 15.3798 12.3505 15.4498 12.3005ZM15.2598 12.1205C15.3198 12.0605 15.2598 11.9405 15.3798 11.8305C15.4398 11.7705 15.4998 11.6505 15.5598 11.6005C15.6198 11.5405 15.5598 11.4805 15.4998 11.5405C15.4398 11.6005 15.3198 11.6605 15.2498 11.7705C15.1898 11.8305 15.1898 11.9505 15.1298 12.0005C15.1398 12.1805 15.2598 12.2405 15.2598 12.1205Z" fill="#DFEFDF"/>
<path d="M14.4002 11.7102C14.4002 11.5302 14.2802 11.3602 14.3402 11.1202C14.3999 10.9692 14.3999 10.8012 14.3402 10.6502C14.3402 10.5302 14.2202 10.5902 14.2802 10.7102C14.3402 10.8302 14.2802 11.0602 14.2202 11.1202C14.1602 11.4102 14.2802 11.5902 14.2802 11.7102C14.3402 11.8302 14.4602 11.8802 14.4002 11.7102ZM14.5302 11.0602C14.5302 11.1802 14.5902 11.1802 14.5902 11.1202V10.3602C14.6502 10.3002 14.5302 10.2402 14.5302 10.3002C14.5302 10.3602 14.4702 10.5902 14.5302 10.7102V11.0602ZM13.6702 13.2302C13.7302 13.2902 13.7902 13.2302 13.6702 13.2302V13.0502C13.6102 12.9902 13.6102 12.9302 13.6102 12.8702C13.5502 12.8102 13.4902 12.8702 13.5502 12.9302C13.6102 12.9902 13.6102 13.0502 13.6102 13.0502C13.6702 13.1202 13.6102 13.1802 13.6702 13.2302ZM15.2602 15.4102C15.2002 15.2902 15.1402 15.1802 15.1402 15.0002C15.1402 14.8802 15.0202 14.7102 14.8902 14.6502C14.9502 14.7702 15.0702 14.8802 15.0702 15.0602C15.0802 15.2302 15.1402 15.4102 15.2602 15.4102ZM15.5102 15.6402C15.4502 15.4602 15.4502 15.4602 15.4502 15.3502C15.4502 15.2302 15.3302 15.1702 15.2002 15.0002C15.2002 15.1802 15.3202 15.2302 15.3202 15.4102C15.3802 15.6402 15.3802 15.6402 15.5102 15.6402ZM18.5702 16.8702C18.5702 16.8102 18.4502 16.7502 18.3202 16.6402C18.3902 16.7002 18.4502 16.8702 18.5702 16.8702ZM18.9402 16.8702C18.9402 16.7502 18.6902 16.7502 18.5102 16.6902C18.6902 16.8102 18.7502 16.8702 18.9402 16.8702ZM17.5302 15.9302C17.6502 16.1102 17.7102 16.2202 17.7102 16.4002C17.7702 16.5802 17.8902 16.6902 18.0202 16.8102C17.9178 16.6645 17.8338 16.5067 17.7702 16.3402C17.8402 16.1702 17.7102 16.0502 17.5302 15.9302ZM18.3302 16.8102C18.2102 16.6302 18.2102 16.5202 18.1502 16.3402C18.0902 16.1602 17.9702 16.0502 17.7802 15.8702C17.9002 16.0502 18.0302 16.1602 18.0302 16.3402C18.0802 16.5802 18.1402 16.7602 18.3302 16.8102ZM18.3902 16.5202C18.4502 16.5202 18.5102 16.4602 18.5102 16.4602C18.5102 16.4602 18.5702 16.4602 18.5702 16.4002V16.2802L18.5102 16.2202C18.4502 16.2202 18.3902 16.2202 18.3302 16.2802L18.2702 16.3402V16.4602C18.3302 16.5202 18.3902 16.5202 18.3902 16.5202ZM18.7502 16.2302C18.6902 16.2302 18.6902 16.2302 18.6902 16.2902V16.4702C18.7502 16.4702 18.8102 16.4702 18.8102 16.5302C18.8702 16.5302 18.8702 16.5302 18.8702 16.4702V16.3502C18.8702 16.2902 18.8702 16.2902 18.8102 16.2902C18.8202 16.2902 18.8202 16.2302 18.7502 16.2302ZM21.8802 14.0602L22.2502 13.6502C22.3102 13.5902 22.2502 13.4702 22.1902 13.4202V13.1802L22.0702 13.3602H22.1302H21.9402C21.8802 13.3602 21.8802 13.4202 21.8202 13.4802L21.7602 13.5402C21.7002 13.6002 21.7002 13.6002 21.7002 13.6602C21.7602 13.8202 21.8202 14.1202 21.8802 14.0602ZM21.7602 12.8802C21.8202 12.8802 21.8202 12.8202 21.8202 12.8202C21.8802 12.8202 21.8802 12.7602 21.9402 12.7602C21.9402 12.7602 21.9402 12.7002 22.0002 12.7002C22.0002 12.7002 22.0002 12.6402 22.0602 12.6402V12.5202C21.8102 12.3402 21.7502 12.1702 21.6902 12.1702V12.1102H21.7502C21.8102 12.1102 21.8702 12.0502 21.8702 11.9902C21.8679 11.9592 21.8545 11.93 21.8325 11.908C21.8105 11.8859 21.7813 11.8725 21.7502 11.8702C21.7192 11.8725 21.69 11.8859 21.668 11.908C21.6459 11.93 21.6326 11.9592 21.6302 11.9902C21.6302 12.0502 21.6302 12.0502 21.6902 12.0502L20.7702 13.5802V13.4602H20.2802V13.9302H20.7702V13.7002L21.3202 12.8202C21.3802 12.8802 21.5702 12.9402 21.6302 13.0502L21.6902 13.1102L21.7602 12.8802ZM20.2302 10.6502H20.6602V10.7702H20.2302V10.6502ZM20.2302 10.8302H20.6602V11.5902H20.2302V10.8302ZM20.4102 10.2402C20.2902 10.2402 20.1602 10.4202 20.1602 10.5302H20.6502C20.6502 10.4202 20.5302 10.2402 20.4102 10.2402Z" fill="#DFEFDF"/>
<path d="M20.1605 13.2908H20.6505V13.4108H20.1605V13.2908ZM20.1605 14.1208H20.6505V14.4108H20.1605V14.1208ZM20.1005 13.0008L20.1605 13.1808H20.5905L20.6505 13.0008H20.1005ZM20.0405 12.6508V12.3008H19.7305C19.8605 12.4108 19.9805 12.5308 20.0405 12.6508ZM20.4705 12.8208C20.4705 12.8808 20.5305 12.8808 20.5305 12.8208V12.4108C20.5305 12.2908 20.2205 12.2908 20.2205 12.4108V12.8208C20.2205 12.8808 20.3405 12.8808 20.3405 12.8208V12.4708C20.3405 12.4108 20.4605 12.4108 20.4605 12.4708L20.4705 12.8208ZM22.6205 9.95078C22.6805 9.77078 22.5605 9.66078 22.3705 9.48078C22.3105 9.83078 22.4305 10.0108 22.6205 9.95078ZM22.7405 9.30078C22.6805 9.59078 22.6205 10.0608 22.7405 10.1808C22.8605 10.1208 22.8005 9.54078 22.7405 9.30078Z" fill="#DFEFDF"/>
<path d="M22.1299 9.70961C22.1899 9.99961 22.4399 10.2996 22.6799 10.1796C22.6799 10.0096 22.3699 10.0096 22.1299 9.70961ZM22.8599 10.5396C23.0399 10.4796 22.9199 9.88961 22.9199 9.59961C22.8599 9.88961 22.7399 10.4796 22.8599 10.5396Z" fill="#DFEFDF"/>
<path d="M22.4307 10.2401C22.4307 10.3601 22.5507 10.5301 22.8007 10.5301C22.8007 10.3001 22.5507 10.3601 22.4307 10.2401ZM23.0507 10.8301C23.2307 10.7701 23.1107 10.1301 23.1707 9.83008C23.1107 10.0701 22.9207 10.7101 23.0507 10.8301ZM22.5507 10.5401C22.5507 10.7201 22.8007 10.8301 22.9807 10.7701C22.9207 10.5401 22.6807 10.6501 22.5507 10.5401Z" fill="#DFEFDF"/>
<path d="M23.2304 11.1205C23.4104 11.1205 23.3504 10.5905 23.3504 10.0605C23.2304 10.5405 23.0504 10.9505 23.2304 11.1205Z" fill="#DFEFDF"/>
<path d="M22.7402 10.8295C22.8002 11.0595 23.0502 11.1195 23.1702 11.0595C23.1102 10.8295 22.9202 10.9495 22.7402 10.8295ZM21.9402 10.1795C22.0002 9.99953 21.8202 9.88953 21.6302 9.76953C21.6402 10.0695 21.7602 10.2395 21.9402 10.1795ZM22.0602 10.5395C22.0602 10.3095 21.7502 10.3095 21.4502 10.0695C21.7002 10.3595 21.7602 10.5395 22.0602 10.5395ZM22.1902 10.4795C22.3702 10.2995 22.1902 10.0695 22.0702 9.88953C22.0602 10.1795 21.9402 10.2995 22.1902 10.4795Z" fill="#DFEFDF"/>
<path d="M21.7598 10.4797C21.8198 10.5997 21.8798 10.8897 22.1898 10.7697C22.2498 10.5897 21.9398 10.5397 21.7598 10.4797ZM22.3098 10.7697C22.5598 10.7697 22.4298 10.3597 22.3098 10.1797C22.3098 10.4797 22.1298 10.6497 22.3098 10.7697Z" fill="#DFEFDF"/>
<path d="M22.4902 11.0607C22.7402 10.9407 22.5502 10.6507 22.4902 10.4707C22.4902 10.7107 22.3102 10.8907 22.4902 11.0607Z" fill="#DFEFDF"/>
<path d="M22.4298 11.0595C22.3698 10.8795 22.1798 10.9395 21.9998 10.7695C21.9998 10.9995 22.3098 11.2395 22.4298 11.0595ZM22.9798 11.2995C22.9798 11.2395 22.9198 11.1795 22.9198 11.2395C22.8598 11.2995 22.7998 11.5895 22.7998 11.4695C22.7998 11.3495 22.7398 11.1795 22.6798 11.1795C22.6198 11.1795 22.5598 11.1195 22.5598 11.2395C22.5598 11.2995 22.6198 11.4195 22.5598 11.4195C22.4998 11.4195 22.4398 11.2995 22.3798 11.2395C22.3198 11.1795 22.2598 11.2395 22.3198 11.3595C22.6298 11.5895 22.8698 11.7095 23.0598 12.2395C23.0498 11.9395 22.7998 11.5295 22.9798 11.2995ZM23.5398 15.9295C23.3598 15.9895 23.1098 15.9895 22.9298 15.9295C22.5598 15.8695 22.2598 15.6395 21.8898 15.5795C21.7611 15.5483 21.6267 15.5483 21.498 15.5796C21.3692 15.611 21.2499 15.6726 21.1498 15.7595C21.0898 15.8195 20.9698 15.9395 20.8998 15.9895C20.8398 16.0495 20.8998 16.0495 20.9598 16.0495C21.0198 16.0495 21.0798 16.0495 21.1398 15.9895C21.0798 16.1695 21.0198 16.3395 21.1398 16.3395C21.2598 16.3395 21.1998 16.2195 21.1998 15.9895H21.3198C21.2598 16.0495 21.2598 16.1095 21.3198 16.1695C21.3798 16.2295 21.4398 16.1095 21.4998 16.0495C21.5598 16.0495 21.5598 16.1095 21.6198 16.1095C21.9898 16.2895 22.1098 16.3995 22.5998 16.4595C23.1098 16.4595 23.2298 16.3495 23.5398 15.9295C23.5998 15.8795 23.5398 15.8795 23.5398 15.9295ZM20.8398 16.7595C20.8398 16.9395 21.3298 16.7595 21.4498 16.5795C21.1498 16.6995 20.8998 16.5795 20.8398 16.7595Z" fill="#DFEFDF"/>
<path d="M21.0798 16.4602C21.0798 16.6402 21.5098 16.4602 21.6298 16.3402C21.3298 16.4602 21.0798 16.3502 21.0798 16.4602ZM21.0198 16.5202C21.1398 16.4602 20.9598 16.2902 21.0198 15.9902C20.8398 16.1102 20.8398 16.5202 21.0198 16.5202ZM21.2698 16.2302C21.2698 16.4102 21.5798 16.2902 21.6998 16.1102C21.4498 16.2302 21.2698 16.1102 21.2698 16.2302ZM22.4298 16.6402C22.4298 16.8202 22.9198 16.6402 23.0998 16.4602C22.7998 16.5202 22.4898 16.4602 22.4298 16.6402ZM22.1298 16.7002C22.2498 16.7602 22.3798 16.5202 22.4398 16.4102C22.2498 16.4002 21.9998 16.6402 22.1298 16.7002ZM22.1298 16.8102C22.1298 16.9902 22.6798 16.8702 22.8698 16.7502C22.3098 16.8102 22.1298 16.7002 22.1298 16.8102Z" fill="#DFEFDF"/>
<path d="M21.82 16.9303C21.76 17.1103 22.31 17.0503 22.49 16.9303C22.19 16.9303 21.88 16.8103 21.82 16.9303Z" fill="#DFEFDF"/>
<path d="M21.5703 17.0499C21.5103 17.1699 22.0003 17.1699 22.3103 17.1099C21.9403 17.1099 21.6403 16.9299 21.5703 17.0499ZM21.8203 16.8099C22.0003 16.9299 22.0003 16.6399 22.1303 16.3999C21.8803 16.5799 21.7003 16.7599 21.8203 16.8099ZM21.5103 16.9299C21.6303 17.0499 21.7603 16.6399 21.8803 16.3999C21.7003 16.6399 21.3903 16.8099 21.5103 16.9299ZM21.0803 17.0499C21.2003 17.1699 21.5703 16.6399 21.6903 16.3499C21.5103 16.5799 21.0203 16.9299 21.0803 17.0499ZM24.4503 13.2899C24.4503 13.2299 24.3903 13.1699 24.3903 13.2299C24.2721 13.3595 24.1247 13.4589 23.9603 13.5199C23.6064 13.6419 23.2345 13.7027 22.8603 13.6999C22.8603 13.5199 22.6803 13.3499 22.5503 13.3499C22.5503 13.4099 22.5503 13.6399 22.7303 13.6999C22.5503 13.6999 22.3603 13.8799 22.3003 14.0499C22.2403 14.2199 22.1803 14.3399 22.1803 14.5199V14.4599C22.0603 14.7499 22.1803 15.0499 22.3003 14.9299C22.4203 14.8099 22.3003 14.7499 22.2403 14.5799C22.3603 14.4599 22.4903 14.3999 22.6103 14.3499C22.4303 14.5799 22.2403 14.6999 22.4303 14.6999C22.6103 14.6999 22.6803 14.5199 22.6803 14.2899H22.7403C22.9903 14.2299 23.4103 14.1699 23.7203 14.0599C23.6603 14.2899 23.4703 14.4699 23.7203 14.4699C23.8403 14.4699 23.7803 14.2899 23.7803 14.0599H23.8403C23.8403 14.1199 23.8403 14.1799 23.9003 14.2399C24.0203 14.1799 24.0203 14.1199 23.9603 14.0099C24.0803 13.9499 24.1403 13.9499 24.1403 13.9499C24.2703 13.8199 24.3903 13.4099 24.4503 13.2899ZM22.1303 15.2899C22.2503 15.2299 22.0103 15.0599 22.0103 14.8199C21.9403 15.0499 22.0003 15.2899 22.1303 15.2899ZM22.0003 15.4599C22.1203 15.3999 21.8803 15.3399 21.8803 15.0499C21.8203 15.2899 21.8803 15.5799 22.0003 15.4599ZM22.5503 15.1699C22.3703 15.3999 22.0603 15.3499 22.0603 15.5199C22.1303 15.6999 22.4903 15.3499 22.5503 15.1699Z" fill="#DFEFDF"/>
<path d="M22.2498 15.2302C22.3098 15.4102 22.7398 14.9402 22.8598 14.7602C22.6198 14.9402 22.1898 15.1102 22.2498 15.2302ZM22.3098 14.9402C22.3698 15.1202 22.8598 14.5902 22.9798 14.4102C22.7998 14.6402 22.3098 14.8202 22.3098 14.9402Z" fill="#DFEFDF"/>
<path d="M22.9207 14.3503C22.7407 14.5303 22.6107 14.5803 22.6707 14.6403C22.7407 14.7003 22.9207 14.4703 22.9207 14.3503ZM21.8207 15.5203C21.8807 15.4603 21.8207 15.4003 21.7607 15.2303C21.6407 15.3503 21.7007 15.5803 21.8207 15.5203ZM23.8407 14.3503C24.0207 14.4703 24.3307 14.0003 24.4507 13.8203C24.2707 14.0003 23.8407 14.2303 23.8407 14.3503Z" fill="#DFEFDF"/>
<path d="M23.6602 14.5805C23.7802 14.7005 24.0902 14.4005 24.2102 14.2305C24.0902 14.4105 23.6602 14.4105 23.6602 14.5805Z" fill="#DFEFDF"/>
<path d="M24.1505 14.4707C23.9005 14.6507 23.4805 14.6507 23.4805 14.8207C23.5405 15.0007 24.0305 14.6407 24.1505 14.4707Z" fill="#DFEFDF"/>
<path d="M23.6 15.0005C23.66 15.1205 24.09 14.7705 24.21 14.5905C23.9 14.8205 23.54 14.8805 23.6 15.0005ZM23.47 14.2305C23.35 14.5205 23.29 14.7005 23.47 14.7605C23.6 14.7005 23.41 14.5305 23.47 14.2305ZM23.5401 15.2305C23.6001 15.4105 24.09 15.0005 24.15 14.8205C23.9 15.0005 23.4701 15.1105 23.5401 15.2305Z" fill="#DFEFDF"/>
<path d="M23.2305 15.5199C23.2905 15.6999 23.7805 15.3399 23.9705 15.1699C23.6605 15.3499 23.2305 15.3499 23.2305 15.5199Z" fill="#DFEFDF"/>
<path d="M22.9199 15.7601C22.9799 15.9901 23.5299 15.6401 23.6599 15.4101C23.3499 15.7001 22.9199 15.5801 22.9199 15.7601ZM23.4099 15.1701C23.5899 15.1101 23.2899 14.8801 23.2899 14.5801C23.2299 14.8201 23.2899 15.2301 23.4099 15.1701ZM23.1699 15.4601C23.3499 15.3401 23.2299 15.1101 23.1699 14.8101C23.1099 15.0501 23.0499 15.4601 23.1699 15.4601Z" fill="#DFEFDF"/>
<path d="M22.9201 15.7008C23.1001 15.6408 22.9801 15.4108 23.0401 15.1708C22.8601 15.3508 22.7401 15.7608 22.9201 15.7008ZM23.2301 15.8808C23.2901 16.0008 23.4101 15.8208 23.6601 15.7008C23.4101 15.7008 23.2301 15.8208 23.2301 15.8808ZM23.3501 12.3008C23.2901 12.5308 23.1701 12.7708 23.3501 12.8908C23.5401 12.7708 23.4101 12.4708 23.3501 12.3008Z" fill="#DFEFDF"/>
<path d="M23.35 13.1798C23.6 13.1198 23.6 12.8298 23.6 12.5898C23.47 12.8798 23.29 12.9398 23.35 13.1798ZM23.29 13.1198C23.29 12.8898 23.17 12.8298 23.04 12.6498C23.11 12.8798 23.11 13.1198 23.29 13.1198Z" fill="#DFEFDF"/>
<path d="M23.2905 13.4102C23.4705 13.4102 23.5405 13.2302 23.6005 13.0002C23.4105 13.2302 23.2905 13.1802 23.2905 13.4102ZM23.0505 13.0002C23.0505 13.1802 22.9905 13.4102 23.2305 13.4102C23.2905 13.2302 23.1105 13.1802 23.0505 13.0002ZM23.2905 13.6502C23.4705 13.7102 23.6005 13.4202 23.6005 13.3002C23.4705 13.4102 23.2305 13.4702 23.2905 13.6502ZM23.2305 13.7002C23.2905 13.5802 23.0505 13.4702 22.9805 13.2902C22.9805 13.5302 22.9805 13.7002 23.2305 13.7002ZM23.9605 12.0002C24.1405 11.8802 24.0205 11.6502 23.9605 11.4102C23.9605 11.6502 23.8405 11.8802 23.9605 12.0002ZM23.9605 12.3002C24.2105 12.3002 24.2705 11.8302 24.2705 11.6502C24.2105 11.8802 23.9005 12.0602 23.9605 12.3002ZM23.9005 12.3002C23.9605 12.0702 23.8405 12.0702 23.7205 11.8902C23.7805 12.0002 23.7205 12.1802 23.9005 12.3002Z" fill="#DFEFDF"/>
<path d="M23.9605 12.5906C24.2105 12.5906 24.3905 12.0606 24.3905 11.8906C24.2705 12.1806 23.9005 12.3006 23.9605 12.5906ZM23.9005 12.5906C23.9605 12.3606 23.7805 12.4106 23.7205 12.1806C23.7205 12.3506 23.6605 12.5306 23.9005 12.5906Z" fill="#DFEFDF"/>
<path d="M23.9604 12.8797C24.2704 12.9397 24.2104 12.5297 24.4504 12.1797C24.2704 12.4097 23.9004 12.7097 23.9604 12.8797ZM23.9004 12.8797C23.9604 12.6997 23.7204 12.5897 23.6504 12.4697C23.6604 12.5897 23.6604 12.8797 23.9004 12.8797Z" fill="#DFEFDF"/>
<path d="M23.9603 13.1793C24.1403 13.1793 24.2703 12.8893 24.3903 12.5293C24.1503 12.9993 23.8403 12.9993 23.9603 13.1793Z" fill="#DFEFDF"/>
<path d="M23.9004 13.1205C23.9604 13.0005 23.7204 12.8905 23.6504 12.7105C23.6604 13.0005 23.6604 13.1805 23.9004 13.1205ZM23.9004 13.5305C24.0804 13.5905 24.1504 13.2405 24.3304 12.9405C24.1504 13.2305 23.8404 13.2905 23.9004 13.5305ZM23.8404 13.4705C23.9004 13.2905 23.6604 13.2405 23.5904 13.0605C23.6004 13.2905 23.6604 13.5305 23.8404 13.4705ZM23.1704 11.1205C23.1104 11.3505 23.2904 11.5305 23.4204 11.4705C23.4104 11.3005 23.3504 11.1805 23.1704 11.1205ZM23.8404 11.3605C23.8404 11.4805 23.9004 11.4205 23.9004 11.3605V10.9005C23.9604 10.8405 23.8404 10.8405 23.8404 10.9005C23.8404 10.9605 23.7804 11.0805 23.8404 11.1305V11.3605ZM22.3104 11.5905C22.2504 11.5305 22.1904 11.5905 22.2504 11.6505C22.3104 11.7105 22.3704 11.8805 22.3704 12.0005C22.3704 12.1205 22.4904 12.1805 22.5504 12.2905C22.6104 12.3505 22.7304 12.3505 22.6104 12.2305C22.5504 12.1105 22.4304 12.0505 22.4304 12.0005C22.4304 11.8305 22.3704 11.6505 22.3104 11.5905Z" fill="#DFEFDF"/>
<path d="M22.8006 12.0603C22.7406 11.9403 22.7406 11.8803 22.6806 11.8303C22.6206 11.7103 22.5006 11.6503 22.4306 11.6003C22.3706 11.5403 22.3106 11.6003 22.3706 11.6603C22.4306 11.7203 22.5506 11.8403 22.5506 11.8903C22.6106 12.0103 22.6106 12.1203 22.6706 12.1803C22.7406 12.2403 22.8606 12.1803 22.8006 12.0603ZM23.6606 11.7103C23.6606 11.5303 23.8406 11.4203 23.7206 11.1203C23.7206 11.0003 23.6606 10.8303 23.6606 10.7103C23.7206 10.5903 23.6006 10.5303 23.6006 10.6503V11.1203C23.6606 11.3503 23.5406 11.5303 23.5406 11.7103C23.5406 11.8803 23.6606 11.8303 23.6606 11.7103ZM23.4106 11.1203C23.4106 11.2403 23.5306 11.2403 23.4706 11.0603V10.7703C23.5306 10.6503 23.4706 10.4203 23.4706 10.3603C23.4706 10.2403 23.3506 10.3003 23.4106 10.4203C23.4706 10.4803 23.4706 10.6503 23.4106 10.7703C23.3506 10.8303 23.3506 11.0003 23.4106 11.1203ZM24.3906 12.8803C24.3306 12.9403 24.3306 13.0003 24.3306 13.0603C24.2706 13.1203 24.3306 13.1203 24.2706 13.1803C24.2106 13.2403 24.2706 13.3003 24.3306 13.2403C24.3906 13.1803 24.3906 13.1203 24.3906 13.0603C24.4506 13.0003 24.4506 12.9403 24.3906 12.8803C24.5206 12.8803 24.4506 12.8203 24.3906 12.8803ZM22.8606 15.0003C22.8606 15.1803 22.8006 15.2903 22.7406 15.4103C22.8606 15.3503 22.9206 15.1803 22.9206 15.0003C22.9206 14.8203 23.0406 14.7703 23.1006 14.5903C22.9806 14.7003 22.8606 14.8803 22.8606 15.0003Z" fill="#DFEFDF"/>
<path d="M22.6806 15.411C22.6806 15.231 22.8606 15.121 22.8006 15.001C22.6806 15.181 22.5506 15.231 22.5506 15.351C22.5506 15.531 22.5506 15.531 22.4906 15.641C22.6206 15.641 22.6206 15.641 22.6806 15.411ZM19.6706 16.641C19.5506 16.761 19.4206 16.821 19.4206 16.871C19.5506 16.871 19.6106 16.701 19.6706 16.641ZM19.4906 16.641C19.2406 16.761 19.0606 16.701 19.0606 16.821C19.2506 16.871 19.3106 16.811 19.4906 16.641ZM20.2306 16.401L20.4106 15.931C20.259 16.0234 20.1482 16.17 20.1006 16.341C20.0406 16.521 19.9806 16.631 19.8506 16.811C20.1006 16.701 20.1606 16.581 20.2306 16.401ZM19.9806 16.401C20.0406 16.221 20.1006 16.111 20.2306 15.931C20.0589 16.0427 19.9288 16.2079 19.8606 16.401C19.8006 16.581 19.8006 16.691 19.6806 16.871C19.8606 16.761 19.9206 16.581 19.9806 16.401ZM19.6706 16.461V16.341C19.6706 16.281 19.6706 16.281 19.6106 16.281C19.5506 16.281 19.4906 16.221 19.4306 16.221C19.3706 16.221 19.3706 16.221 19.3706 16.281V16.401C19.3706 16.461 19.3706 16.461 19.4306 16.461C19.4906 16.461 19.5506 16.461 19.5506 16.521C19.6106 16.521 19.6706 16.521 19.6706 16.461ZM19.1206 16.291L19.0606 16.351V16.471C19.0606 16.531 19.1206 16.531 19.1206 16.531C19.1806 16.531 19.2406 16.471 19.2406 16.471V16.291C19.2406 16.291 19.2406 16.231 19.1806 16.231C19.1806 16.231 19.1806 16.291 19.1206 16.291ZM17.1606 9.19102C17.0406 9.19102 16.9806 8.96102 16.9106 8.96102C16.8506 9.02102 16.9106 9.14102 16.9706 9.19102C17.0306 9.25102 17.2806 9.25102 17.4006 9.19102C17.5206 9.13102 17.5806 9.01102 17.5806 8.84102C17.5806 8.78102 17.5206 8.66102 17.5206 8.61102C17.6406 8.55102 17.7006 8.43102 17.7706 8.32102C17.7706 8.26102 17.8306 8.14102 17.8906 8.14102C17.9506 8.14102 18.0706 8.26102 18.1406 8.14102C18.2006 8.08102 18.3206 8.20102 18.3206 8.14102C18.3806 8.08102 18.3206 8.02102 18.3206 7.96102C18.3206 7.90102 18.2606 7.90102 18.2606 7.96102V8.08102H18.2006C18.2006 8.08102 18.2006 8.02102 18.1406 8.02102H18.0806C18.0206 8.08102 18.0206 8.14102 17.9606 8.08102C17.9006 8.02102 17.9006 7.90102 17.8406 8.08102C17.8406 8.14102 17.7206 8.20102 17.6606 8.20102C17.6006 8.20102 17.6006 8.02102 17.4806 8.08102C17.4206 8.08102 17.4206 8.26102 17.4206 8.26102C17.4206 8.32102 17.6706 8.26102 17.6706 8.32102C17.6706 8.44102 17.5506 8.50102 17.4906 8.55102C17.4306 8.37102 17.3106 8.26102 17.3106 8.20102C17.3106 8.08102 17.1906 8.08102 17.1906 8.20102C17.1906 8.32102 17.3106 8.49102 17.3706 8.67102C17.3106 8.73102 17.2506 8.73102 17.1906 8.79102C17.1306 8.85102 17.1906 8.91102 17.2506 8.85102C17.3106 8.79102 17.3706 8.79102 17.4306 8.73102C17.4906 8.85102 17.4906 8.91102 17.4906 8.96102C17.5306 9.01102 17.3506 9.19102 17.1606 9.19102ZM17.5306 8.13102V8.01102C17.5306 8.01102 17.5906 8.07102 17.5906 8.13102C17.5906 8.19102 17.5306 8.19102 17.5306 8.13102Z" fill="#DFEFDF"/>
<path d="M17.77 8.66026C17.71 8.66026 17.77 8.78026 17.83 8.78026C17.84 8.72026 17.77 8.60026 17.77 8.66026ZM17.84 8.48026C17.9 8.42026 18.02 8.36026 18.09 8.30026C18.09 8.30026 18.09 8.24026 18.03 8.24026C17.96 8.31026 17.84 8.36026 17.84 8.48026ZM18.63 7.89026C18.69 7.89026 18.75 7.83026 18.75 7.77026V7.72026C18.69 7.78026 18.63 7.84026 18.63 7.89026ZM18.88 7.89026C18.94 7.83026 19.06 7.77026 19.06 7.71026C19.06 7.71026 19 7.65026 19 7.71026C18.94 7.72026 18.88 7.84026 18.88 7.89026ZM18.75 8.01026C18.69 8.07026 18.69 8.07026 18.63 8.07026V8.13026H18.75C18.82 8.07026 18.75 7.95026 18.75 8.01026Z" fill="#DFEFDF"/>
<path d="M18.3299 8.31057C18.2699 8.25057 18.1499 8.31057 18.2099 8.37057C18.2699 8.43057 18.2699 8.49057 18.2099 8.49057C18.1499 8.55057 18.1499 8.61057 18.0899 8.67057V8.44057C18.0899 8.39057 18.0299 8.38057 18.0299 8.44057V8.73057L17.8499 8.91057C17.7899 8.97057 17.8499 9.03057 17.8499 9.03057C17.9099 8.97057 17.9699 8.91057 18.0299 8.80057C18.3399 8.86057 18.5199 8.57057 18.5799 8.62057C18.6399 8.62057 18.6999 8.80057 18.7599 8.85057C18.8799 8.91057 18.8799 8.85057 18.8799 8.79057C18.8199 8.73057 18.8199 8.67057 18.7599 8.61057C18.8199 8.55057 18.8799 8.43057 18.9399 8.43057C19.0599 8.43057 19.1199 8.43057 19.2499 8.37057C19.3699 8.37057 19.3699 8.25057 19.2499 8.25057C19.0699 8.25057 18.7599 8.25057 18.7599 8.19057C18.7599 8.13057 18.9399 8.01057 18.9999 8.01057C19.1199 8.01057 19.1799 7.89057 19.1199 7.78057C19.0599 7.72057 18.9399 7.78057 18.9399 7.78057C18.9399 7.84057 19.0599 7.78057 19.0599 7.84057C19.0599 7.90057 18.9999 7.90057 18.9399 7.90057C18.8799 7.90057 18.6899 8.08057 18.6299 8.13057C18.6299 8.19057 18.5699 8.25057 18.6299 8.25057C18.6899 8.25057 18.8799 8.25057 18.8099 8.31057C18.7499 8.31057 18.6899 8.43057 18.6299 8.49057C18.5099 8.31057 18.4499 8.14057 18.3799 7.96057C18.3799 7.90057 18.2599 7.90057 18.3199 8.02057C18.3799 8.14057 18.4999 8.37057 18.4999 8.49057C18.4399 8.61057 18.1899 8.72057 18.1299 8.72057H18.0699C18.2599 8.54057 18.3899 8.36057 18.3299 8.31057ZM19.4899 8.07057C19.5499 8.07057 19.5499 8.01057 19.5499 7.95057C19.5499 7.89057 19.5499 7.89057 19.4899 7.89057C19.4899 7.95057 19.4299 7.95057 19.4899 8.07057C19.4299 8.07057 19.4299 8.01057 19.4899 8.07057ZM19.7999 7.95057C19.8599 7.95057 19.8599 7.83057 19.7999 7.83057C19.7399 7.89057 19.7999 8.01057 19.7999 7.95057ZM19.7999 8.25057C19.8599 8.25057 19.9199 8.25057 19.9199 8.19057C19.9199 8.13057 19.8599 8.07057 19.8599 8.07057C19.8599 8.13057 19.8599 8.19057 19.7999 8.19057V8.25057C19.7399 8.25057 19.7399 8.19057 19.7399 8.13057H19.6799C19.6699 8.25057 19.7399 8.25057 19.7999 8.25057Z" fill="#DFEFDF"/>
<path d="M19.4903 8.48117C19.4303 8.60117 19.3103 8.83117 19.1803 8.83117C19.1203 8.83117 19.1203 8.65117 19.1203 8.60117C19.1203 8.54117 19.0603 8.54117 19.0603 8.66117C19.0003 8.77117 19.1203 8.95117 19.1803 9.01117C19.2403 9.01117 19.3603 8.72117 19.4303 8.72117C19.5003 8.72117 19.3703 9.01117 19.6103 9.01117C19.6703 9.01117 19.7303 8.89117 19.7903 8.89117C19.8503 8.89117 19.9103 8.95117 19.9703 8.95117C20.0303 8.95117 20.1503 8.89117 20.1503 8.72117C20.1503 8.66117 20.2103 8.54117 20.2103 8.43117C20.1503 8.31117 20.0303 8.31117 20.0903 8.37117C20.1503 8.49117 20.0903 8.60117 20.0903 8.72117C20.0903 8.90117 19.9103 8.78117 19.9103 8.78117V8.37117C19.9103 8.31117 19.8503 8.31117 19.8503 8.37117V8.72117C19.8503 8.78117 19.6703 8.84117 19.6703 8.78117C19.6103 8.72117 19.6103 8.49117 19.6703 8.37117C19.5503 8.42117 19.4903 8.42117 19.4903 8.48117Z" fill="#DFEFDF"/>
<path d="M20.1003 8.13063C20.2203 8.19063 20.2803 8.31063 20.4103 8.48063C20.4103 8.48063 20.2903 8.89062 20.2903 8.95062C20.2903 9.07062 20.3503 9.07063 20.3503 9.01063C20.4103 8.83063 20.4103 8.78063 20.4703 8.54063C20.4703 8.54063 20.5903 8.83063 20.5903 8.89063C20.5903 8.89063 20.7103 8.95063 20.6503 8.89063L20.4703 8.42063L20.5903 8.07063C20.5903 7.95063 20.5303 7.95063 20.5303 8.01063C20.5303 8.13063 20.5303 8.30063 20.4703 8.30063C20.4103 8.30063 20.2903 8.01062 20.2203 7.89062C20.1603 7.89062 20.0403 8.07063 20.1003 8.13063Z" fill="#DFEFDF"/>
<path d="M20.2904 9.07092C20.2904 9.07092 20.2304 9.13092 20.3504 9.13092C20.5304 9.19092 20.7204 9.13092 20.7804 8.95092C20.8404 8.72092 20.9004 8.54092 20.9604 8.48092C21.0204 8.36092 21.0804 8.42092 21.0204 8.25092C20.9604 8.13092 20.9604 8.19092 20.9004 8.25092C20.8404 8.37092 20.7204 8.84092 20.7204 8.90092C20.7204 9.01092 20.5304 9.07092 20.2904 9.07092Z" fill="#DFEFDF"/>
<path d="M20.7203 8.48086C20.7803 8.48086 20.8403 8.48086 20.8403 8.42086C20.8403 8.36086 20.7803 8.36086 20.7803 8.36086C20.7803 8.42086 20.7203 8.42086 20.7203 8.36086C20.7203 8.30086 20.6603 8.36086 20.6603 8.42086C20.6503 8.42086 20.6503 8.48086 20.7203 8.48086ZM20.7803 8.25086C20.8403 8.25086 20.9003 8.25086 20.9603 8.19086V8.13086C20.9003 8.13086 20.7803 8.13086 20.7803 8.19086C20.7203 8.19086 20.7203 8.25086 20.7803 8.25086ZM21.0203 9.07086C21.0803 9.01086 21.3903 8.42086 21.3903 8.37086C21.4503 8.25086 21.3303 8.25086 21.2703 8.37086C21.2703 8.36086 21.0203 8.95086 21.0203 9.07086C20.9603 9.13086 20.9003 9.07086 21.0203 9.07086ZM21.3903 8.77086C21.3903 8.77086 21.3303 8.77086 21.3303 8.83086C21.3303 8.89086 21.3903 8.89086 21.3903 8.89086C21.4503 8.77086 21.3303 8.83086 21.3903 8.77086ZM21.2103 9.01086C21.2103 9.01086 21.1503 9.07086 21.2103 9.07086H21.4603C21.4603 9.07086 21.5203 9.01086 21.4603 9.01086H21.2103ZM15.9403 9.42086H15.8203C15.8203 9.42086 15.8203 9.54086 15.8803 9.54086C15.9403 9.54086 16.0003 9.42086 15.9403 9.42086Z" fill="#DFEFDF"/>
<path d="M16.18 9.76953C16.24 9.70953 16.12 9.47953 16.18 9.41953C16.18 9.41953 16.36 9.59953 16.43 9.59953C16.61 9.59953 16.55 9.30953 16.74 9.36953C16.86 9.36953 16.86 9.24953 16.86 9.13953C16.86 9.07953 16.68 8.90953 16.61 8.90953C16.55 8.84953 16.49 8.96953 16.55 9.02953C16.61 9.08953 16.73 9.20953 16.73 9.25953C16.73 9.31953 16.67 9.37953 16.61 9.31953C16.55 9.25953 16.43 9.08953 16.36 9.02953C16.36 9.02953 16.3 9.02953 16.3 9.08953C16.36 9.14953 16.48 9.26953 16.48 9.31953C16.48 9.37953 16.42 9.49953 16.36 9.49953C16.3 9.49953 16.18 9.31953 16.11 9.26953C16.11 9.20953 16.05 9.20953 15.99 9.26953V9.55953C15.99 9.67953 15.93 9.67953 15.93 9.61953C15.93 9.61953 15.81 9.67953 15.87 9.73953C16.06 9.82953 16.18 9.82953 16.18 9.76953ZM15.87 9.12953C15.87 9.12953 15.81 9.18953 15.75 9.18953L15.81 9.24953C15.81 9.24953 15.93 9.12953 15.93 9.06953C15.93 9.00953 15.75 8.94953 15.75 9.00953C15.75 9.06953 15.94 9.12953 15.87 9.12953ZM16.12 8.82953C16.12 8.76953 16.06 8.76953 16.06 8.76953C16.06 8.76953 16.12 8.88953 16.12 8.82953Z" fill="#DFEFDF"/>
<path d="M16.1205 8.95086L16.0605 9.01086C16.1205 9.01086 16.2405 9.07086 16.1805 8.95086C16.1805 8.89086 16.3605 8.95086 16.3005 8.83086C16.2982 8.7998 16.2849 8.7706 16.2628 8.74858C16.2408 8.72655 16.2116 8.71317 16.1805 8.71086L16.1205 8.77086C16.1205 8.77086 16.2405 8.83086 16.1805 8.89086C16.1205 8.95086 16.1205 8.89086 16.0605 8.89086C16.1805 8.89086 16.1805 8.95086 16.1205 8.95086ZM16.4305 8.54086C16.4305 8.54086 16.4905 8.48086 16.4905 8.42086V8.36086C16.4305 8.42086 16.3605 8.48086 16.4305 8.54086ZM17.0405 9.01086C17.1005 9.07086 17.1605 9.01086 17.1005 8.95086C17.0405 8.83086 16.7305 8.42086 16.7305 8.36086C16.6705 8.24086 16.6105 8.30086 16.6105 8.36086C16.7905 8.60086 16.9205 8.83086 17.0405 9.01086ZM16.9205 8.42086C16.9805 8.36086 17.1005 8.24086 17.0405 8.19086C17.0405 8.13086 16.9805 8.13086 16.9205 8.13086C16.8605 8.19086 16.9805 8.19086 16.9205 8.19086C16.9805 8.25086 16.9205 8.31086 16.9205 8.42086ZM21.7605 8.89086C21.6405 9.12086 21.5105 9.36086 21.3905 9.42086C21.2705 9.54086 21.2705 9.30086 21.2705 9.24086C21.2705 9.18086 21.2105 9.12086 21.1505 9.18086C21.0905 9.24086 21.0305 9.24086 20.9005 9.24086C20.8405 9.24086 20.8405 9.24086 20.7805 9.18086C20.7805 9.12086 20.7205 9.06086 20.7205 9.18086C20.7205 9.41086 21.0305 9.36086 21.1505 9.24086C21.2105 9.18086 21.1505 9.47086 21.2705 9.53086C21.3305 9.53086 21.4505 9.47086 21.5205 9.41086C21.6405 9.29086 21.7005 9.12086 21.7705 9.00086C21.7705 9.06086 21.8305 9.18086 21.8305 9.23086C21.7705 9.35086 21.7105 9.46086 21.7105 9.52086C21.7105 9.58086 21.7705 9.64086 21.7705 9.58086C21.7705 9.52086 21.8305 9.46086 21.8905 9.35086V9.58086L21.9505 9.52086C21.9505 9.40086 21.9505 9.34086 21.8905 9.23086C21.9505 9.11086 22.0705 9.00086 22.1405 8.94086C22.2605 8.88086 22.1405 8.71086 22.1405 8.76086C22.1405 8.81086 22.0005 9.01086 21.9405 9.13086C21.9405 9.07086 21.9405 8.95086 21.8805 8.90086C21.9405 8.84086 21.9405 8.78086 22.0005 8.72086C22.0605 8.66086 21.9405 8.60086 21.9405 8.66086C21.9405 8.72086 21.8805 8.72086 21.8805 8.78086C21.8205 8.66086 21.8205 8.55086 21.7605 8.49086C21.7005 8.43086 21.6405 8.54086 21.7005 8.60086C21.6405 8.66086 21.7005 8.77086 21.7605 8.89086Z" fill="#DFEFDF"/>
<path d="M21.5107 9.60085C21.4507 9.60085 21.4507 9.66084 21.4507 9.66084C21.5107 9.72084 21.6307 9.72085 21.7607 9.72085C22.0707 9.66085 22.1307 9.31084 22.3707 9.07084C22.4907 8.95084 22.3707 8.66085 22.3107 8.89085C22.2232 9.13964 22.0754 9.36293 21.8807 9.54085C21.7607 9.71085 21.5707 9.65085 21.5107 9.60085ZM18.7507 9.95084V9.72085C18.7507 9.72085 18.8107 9.72084 18.8107 9.66084V9.60085H18.6907C18.6307 9.60085 18.6907 9.66084 18.6907 9.66084C18.7507 9.66084 18.6907 9.78085 18.6907 9.89085C18.6907 10.0008 18.7507 10.0108 18.7507 9.95084Z" fill="#DFEFDF"/>
<path d="M18.7498 9.48047C18.6298 9.54047 18.5698 9.60047 18.4998 9.66047C18.4998 9.66047 18.4398 9.78047 18.4398 9.84047C18.3798 9.84047 18.3798 9.78047 18.3198 9.78047C18.2598 9.78047 18.2598 9.90047 18.1398 9.90047C18.0798 9.90047 18.1998 9.96047 18.1998 9.96047C18.2598 9.96047 18.2598 9.90047 18.3198 9.84047C18.3798 9.78047 18.3798 9.90047 18.3798 9.90047C18.3798 9.90047 18.4398 9.90047 18.4998 9.84047C18.4998 9.78047 18.4998 9.72047 18.5598 9.72047C18.6198 9.60047 18.7398 9.60047 18.8098 9.54047C18.8198 9.54047 18.8198 9.48047 18.7498 9.48047ZM19.3098 9.89047C19.2498 9.89047 19.2498 9.83047 19.2498 9.83047C19.1298 9.77047 19.1298 9.83047 19.1298 9.83047C19.0698 9.83047 19.0698 9.95047 19.0698 9.95047C19.1298 9.95047 19.1298 9.95047 19.1898 9.89047C19.1898 9.83047 19.1898 10.0705 19.3098 10.0105C19.3698 9.95047 19.4898 10.0105 19.5598 9.95047C19.6198 9.89047 19.6198 9.89047 19.5598 9.77047C19.5598 9.77047 19.4998 9.77047 19.4998 9.83047C19.4998 9.89047 19.4398 9.95047 19.4398 9.89047V9.77047H19.3798C19.3698 9.77047 19.3698 9.89047 19.3098 9.89047Z" fill="#DFEFDF"/>
<path d="M19.7404 9.59977C19.6804 9.65977 19.6804 9.65977 19.6204 9.65977C19.5604 9.65977 19.6204 9.71977 19.6204 9.71977V9.89977H19.6804V9.66977C19.6704 9.59977 19.7404 9.64977 19.7404 9.59977C19.8004 9.64977 19.8004 9.59977 19.7404 9.59977ZM19.3704 9.53977C19.3104 9.59977 19.3104 9.59977 19.3104 9.65977H19.3704C19.3704 9.64977 19.4304 9.53977 19.3704 9.53977ZM18.2004 9.47976C18.3804 9.35976 18.6304 9.35977 18.9404 9.35977C19.2504 9.35977 19.4904 9.41976 19.6804 9.47976L20.2304 9.24977L19.7404 9.47976L19.9904 9.29977L19.6204 9.41977L19.8704 9.12977L19.4404 9.35977L19.5604 9.12977L19.3104 9.29977L19.3704 9.00977L19.1204 9.29977V9.06977L19.0004 9.29977V9.00977L18.9404 9.29977L18.8204 9.06977V9.29977L18.5704 9.00977L18.6304 9.29977L18.3804 9.17977L18.5004 9.40977L18.0704 9.17977L18.3204 9.46977L18.0204 9.29977L18.2004 9.47976ZM18.4504 15.9898V16.1098C18.5104 16.0498 18.5104 15.9898 18.4504 15.9898C18.5104 15.9298 18.5104 15.8698 18.5104 15.8698V15.7498C18.5104 15.7498 18.5104 15.6898 18.4504 15.6898L18.3904 15.8098C18.3904 15.8698 18.4504 15.8698 18.4504 15.8698C18.4504 15.8698 18.4504 15.9298 18.5104 15.9298C18.4504 15.9298 18.4504 15.9898 18.4504 15.9898ZM18.8804 15.6398C18.8804 15.6998 18.8204 15.6998 18.8204 15.6998H18.7604L18.7004 15.6398L18.6404 15.7598C18.6404 15.8198 18.7004 15.8198 18.7004 15.8798C18.7004 15.8798 18.7004 15.9398 18.7604 15.9398V16.1198V15.8798C18.8204 15.8798 18.8204 15.8798 18.8204 15.8198V15.7598C18.8804 15.6998 18.8804 15.6998 18.8804 15.6398C18.8804 15.6998 18.8804 15.6998 18.8804 15.6398ZM19.1804 15.8198V15.6398H19.1204C19.0604 15.6398 19.0604 15.6398 19.0604 15.6998C19.0604 15.7598 19.0004 15.7598 19.0004 15.8198V15.8798H19.1204V16.0598C19.1204 16.0598 19.1204 16.1198 19.1804 16.1198V15.9998L19.1204 15.9398C19.1804 15.9298 19.1804 15.8798 19.1804 15.8198ZM19.1204 15.8198C19.0604 15.8198 19.0604 15.8198 19.1204 15.8198C19.1204 15.7598 19.1204 15.7598 19.1204 15.8198ZM19.4304 15.9898C19.4304 15.9298 19.4904 15.8698 19.4904 15.8098C19.4904 15.9298 19.5504 15.9898 19.5504 16.0398C19.5504 16.0998 19.6104 16.0998 19.6104 16.1598V16.0398C19.6104 15.9798 19.5504 15.9798 19.5504 15.9798C19.5504 15.9798 19.4904 15.9198 19.4904 15.8598C19.4904 15.7998 19.4904 15.7998 19.4304 15.7398V15.8598C19.4304 15.9198 19.4304 15.9198 19.3704 15.9798C19.3704 15.9798 19.3704 16.0398 19.3104 16.0398V16.1598C19.3104 16.1598 19.3704 16.1598 19.3704 16.0998C19.3704 16.0498 19.3704 15.9898 19.4304 15.9898ZM20.2904 17.2298C20.2904 17.2798 20.2904 17.2798 20.2904 17.2298C20.3504 17.2898 20.3504 17.2298 20.3504 17.2298H20.2904Z" fill="#DFEFDF"/>
<path d="M21.2703 17.2307C21.3903 17.2907 21.7003 17.2907 21.8203 17.2307C21.5103 17.1707 21.2703 17.0007 21.2103 17.1107V17.1707L21.0303 16.9907C21.0903 16.9307 21.1503 16.9307 21.2103 16.8707H20.9003L20.7803 16.7507C20.7203 16.6907 20.7203 16.6907 20.6003 16.6907L20.6603 16.6307C20.6603 16.6907 20.7203 16.7507 20.7803 16.7507C20.9003 16.6907 20.7203 16.4607 20.7803 16.2207C20.705 16.3221 20.6631 16.4444 20.6603 16.5707C20.6603 16.5107 20.6003 16.5107 20.5403 16.4507C20.4803 16.4507 20.4203 16.5707 20.4803 16.6807H20.4203C19.9376 16.8948 19.4181 17.0137 18.8903 17.0307C18.3849 16.9924 17.8888 16.8743 17.4203 16.6807C17.3603 16.6207 17.2403 16.6807 17.1703 16.7407L17.1103 16.8007H16.7403C16.8003 16.8607 16.8603 16.9207 16.9203 16.9207C16.85 16.9969 16.7649 17.0582 16.6703 17.1007V17.0407C16.6103 16.9207 16.3603 17.1007 16.0603 17.1607C16.1803 17.2207 16.4903 17.2207 16.6103 17.1607C16.5503 17.2207 16.4303 17.2807 16.3603 17.3407C16.2403 17.2207 15.7503 17.2207 15.3203 16.9907C15.3803 17.1707 15.9303 17.4007 16.2403 17.4607C16.1803 17.5207 16.2403 17.6407 16.4903 17.7507C16.4903 17.7507 16.8003 17.8707 16.9803 17.8707C17.0403 17.8707 17.0403 17.9907 17.0403 17.9907C16.9803 18.0507 17.0403 18.0507 16.9803 18.1107C16.9203 18.1707 16.9803 18.2307 17.0403 18.1707C17.2903 17.9907 17.5903 18.1107 17.9603 18.2307C18.0203 18.2307 18.2103 18.2307 18.2103 18.1107C18.2103 17.9907 18.2703 17.9307 18.3303 17.9307C18.4503 17.9307 19.1903 17.9907 19.3703 17.9307C19.4903 17.9307 19.4903 18.1107 19.5503 18.1607C19.6103 18.2207 19.8003 18.2207 19.9203 18.1607C20.1703 18.0407 20.5303 18.0407 20.6603 18.1607C20.7203 18.2207 20.7803 18.1607 20.7203 18.1007C20.8403 18.1607 20.8403 18.1007 20.8403 18.0407C20.7803 17.9207 20.8403 17.9207 20.9003 17.9207C21.4503 17.8607 21.7003 17.6907 21.6403 17.5107C21.8903 17.5107 22.5003 17.2207 22.5603 17.0407C22.1303 17.2707 21.6403 17.2707 21.5203 17.3907C21.3903 17.3407 21.3303 17.2807 21.2703 17.2307ZM20.0403 16.9307H20.2203V17.0507H20.0403V16.9307ZM19.7403 17.1107H19.9203V17.2307H19.7403V17.1107ZM18.3303 17.2307L18.3903 17.2907L18.4503 17.2307L18.5703 17.2907L18.4503 17.3507L18.3903 17.2907L18.3303 17.3507L18.2103 17.2907L18.3303 17.2307ZM17.7703 17.1707L17.8903 17.2907L17.7703 17.3507L17.6503 17.2307L17.7703 17.1707ZM17.7703 17.5807C17.7703 17.6407 17.7103 17.6407 17.7103 17.6407C17.7103 17.6407 17.6503 17.6407 17.5903 17.7007H17.4703C17.4103 17.7007 17.3503 17.7007 17.2903 17.6407C17.1703 17.5807 17.1103 17.5807 17.1103 17.5207C17.0503 17.4607 17.0503 17.4607 17.1103 17.4007C17.1103 17.3407 17.1703 17.3407 17.2303 17.3407C17.2903 17.3407 17.3503 17.2807 17.4803 17.2807C17.4203 17.2807 17.3603 17.3407 17.3003 17.3407L17.2403 17.4007V17.4607C17.2403 17.5207 17.3003 17.5207 17.4203 17.5207C17.4803 17.5207 17.5403 17.5807 17.6003 17.5807C17.7103 17.6407 17.7103 17.5807 17.7703 17.5807C17.7103 17.5207 17.7703 17.5207 17.7703 17.5207V17.4007L17.8903 17.3407V17.4007C17.8903 17.4007 17.8903 17.4607 17.8303 17.4607L17.7703 17.5807ZM19.2503 17.7507H18.6503L18.5903 17.6907L18.5303 17.7507H18.2903L18.1103 17.6907H18.0503C17.9903 17.6907 17.9903 17.6307 17.9903 17.6307C17.9903 17.5707 17.9903 17.5707 18.0503 17.4507L18.1103 17.3307V17.2107L18.2303 17.1507V17.2107C18.2303 17.2107 18.2303 17.2707 18.1703 17.3307L18.1103 17.3907C18.0503 17.4507 18.0503 17.5107 18.0503 17.5107V17.5707H18.1103L18.4203 17.6307V17.5707L18.3603 17.5107L18.4803 17.3907L18.5403 17.4507V17.5707H18.6603C18.7203 17.5707 18.7203 17.5107 18.7203 17.4507H18.7803V17.6307H19.0203L19.0803 17.5707V17.6307H19.2003V17.5707L19.2603 17.5107V17.6307H19.5103C19.5103 17.6307 19.5103 17.5707 19.4503 17.5707L19.3903 17.5107L19.4503 17.3907C19.5103 17.3907 19.5103 17.4507 19.5103 17.4507C19.5103 17.4507 19.5703 17.5107 19.5703 17.5707V17.6907L19.2503 17.7507ZM20.2903 17.5207H20.0503L19.9903 17.5807H19.7503C19.6903 17.5807 19.6903 17.5207 19.6303 17.4607L19.5703 17.3407C19.5703 17.3407 19.5703 17.2807 19.5103 17.2807V17.3407L19.3303 17.2807L19.3903 17.1607H19.5103V17.1007C19.5703 17.1007 19.5703 17.1607 19.5703 17.1607C19.5703 17.1607 19.6303 17.2207 19.6303 17.2807V17.3407C19.6303 17.4007 19.6903 17.4607 19.6903 17.4607H19.9303H19.8103C19.8103 17.4007 19.7503 17.4007 19.8103 17.3407C19.8103 17.3407 19.8703 17.2807 19.9303 17.2807H20.0503C20.1103 17.2807 20.1103 17.2807 20.1103 17.3407V17.4607H20.2303L20.6003 17.3407C20.6003 17.3407 20.6003 17.2807 20.5403 17.2807L20.4803 17.2207V17.2807C20.4803 17.2807 20.4203 17.2807 20.4203 17.3407H20.3003C20.2403 17.3407 20.2403 17.3407 20.2403 17.2807C20.2403 17.2207 20.1803 17.2207 20.1803 17.1607C20.1803 17.1007 20.1803 17.1007 20.2403 17.0407C20.3003 17.0407 20.3603 17.0407 20.4203 17.1007C20.4803 17.1607 20.5403 17.1607 20.6003 17.2207L20.7203 17.4007L20.2903 17.5207ZM20.7203 17.4007C20.7203 17.3407 20.6603 17.3407 20.6603 17.3407L20.6003 17.2807L20.5403 17.2207C20.4803 17.2207 20.4803 17.1607 20.4203 17.1007H20.3603V16.9807L20.4803 17.1007C20.5403 17.1607 20.6003 17.1607 20.6003 17.2207L20.6603 17.2807L20.7203 17.3407C20.7803 17.3407 20.7803 17.4007 20.7203 17.4007Z" fill="#DFEFDF"/>
</g>
</g>
<defs>
<clipPath id="clip0_26003_90119">
<rect width="38" height="25" fill="white" transform="translate(0 0.5)"/>
</clipPath>
<clipPath id="clip1_26003_90119">
<rect width="38" height="25" fill="white" transform="translate(0 0.5)"/>
</clipPath>
</defs>
</svg>
