<svg width="38" height="26" viewBox="0 0 38 26" fill="none" xmlns="http://www.w3.org/2000/svg">
<g clip-path="url(#clip0_26003_92011)">
<g clip-path="url(#clip1_26003_92011)">
<path fill-rule="evenodd" clip-rule="evenodd" d="M2.5 25.5H35.6C36.9 25.2 37.9 24.1 38.1 22.6V3.4C37.9 1.9 36.9 0.8 35.6 0.5H2.5C1.2 0.8 0.2 2 0 3.4V22.6C0.2 24.1 1.2 25.2 2.5 25.5Z" fill="#242222"/>
<path fill-rule="evenodd" clip-rule="evenodd" d="M1.09961 1.2L36.8996 24.8C37.4996 24.3 37.8996 23.5 37.9996 22.6V3.4C37.7996 1.9 36.7996 0.8 35.4996 0.5H2.49961C1.99961 0.6 1.49961 0.9 1.09961 1.2Z" fill="#C12837"/>
<path fill-rule="evenodd" clip-rule="evenodd" d="M24.6002 7.80054C24.4002 8.10054 23.9002 7.50054 23.2002 7.50054C22.6002 7.50054 22.1002 8.20054 22.0002 8.40054C21.8002 8.60054 21.2002 9.90054 21.3002 10.0005C21.3002 10.1005 21.7002 9.60054 21.8002 9.60054C21.8002 9.80054 21.7002 10.0005 21.7002 10.0005C21.7002 10.1005 22.1002 9.60054 22.3002 9.60054C22.3002 9.70054 22.2002 9.80054 22.3002 10.0005C22.4002 10.1005 22.6002 9.70054 22.7002 9.60054C22.7002 9.70054 22.6002 10.0005 22.6002 10.1005C22.7002 10.1005 23.1002 9.60054 23.2002 9.50054C23.3002 9.40054 23.1002 10.0005 23.2002 10.0005C23.3002 9.90054 23.7002 9.40054 23.8002 9.40054C23.9002 9.30054 23.8002 10.0005 23.8002 10.0005C23.9002 9.90054 24.3002 9.30054 24.3002 9.20054C24.3002 9.10054 24.3002 10.0005 24.7002 10.5005C25.1002 11.0005 25.7002 11.6005 25.8002 11.6005C25.9002 11.4005 25.8002 11.1005 25.8002 11.1005C26.0002 11.3005 26.3002 11.6005 26.4002 11.6005C26.5002 11.6005 26.3002 11.3005 26.5002 11.3005C26.7002 11.5005 27.3002 12.4005 28.5002 12.8005C28.4002 12.6005 28.3002 12.3005 28.2002 12.2005C28.3002 12.2005 28.5002 12.4005 28.6002 12.3005C28.7002 12.3005 28.0002 11.4005 28.1002 11.3005C28.2002 11.3005 28.3002 11.4005 28.4002 11.3005C28.3002 11.2005 27.8002 10.5005 27.8002 10.3005C27.8002 10.1005 28.0002 10.3005 28.0002 10.3005C28.1002 10.3005 27.8002 9.70054 27.8002 9.60054C27.9002 9.50054 28.4002 10.0005 28.6002 10.0005C28.7002 10.0005 28.6002 9.40054 28.7002 9.40054C28.8002 9.40054 29.2002 9.70054 29.3002 9.70054C29.4002 9.70054 29.4002 9.50054 29.4002 9.50054C29.4002 9.50054 30.6002 10.8005 30.2002 12.3005C29.8002 13.4005 29.0002 13.9005 27.9002 13.5005C28.0002 13.6005 28.6002 14.2005 29.2002 14.0005C29.9002 13.8005 30.7002 13.2005 30.6002 11.8005C30.5002 10.3005 30.1002 10.1005 30.0002 9.90054C29.9002 9.70054 30.1002 10.0005 30.2002 10.0005C30.3002 10.1005 30.2002 9.70054 30.1002 9.50054C30.1002 9.30054 30.5002 9.80054 30.6002 9.90054C30.7002 9.90054 30.3002 8.70054 30.2002 8.60054C30.1002 8.50054 30.3002 8.60054 30.4002 8.70054C30.5002 8.70054 29.7002 7.30054 29.5002 7.30054C29.3002 7.30054 29.6002 7.20054 29.7002 7.20054C30.0002 7.40054 29.0002 6.50054 28.8002 6.50054C28.6002 6.50054 29.2002 6.30054 29.2002 6.30054C29.3002 6.30054 28.1002 5.60054 26.9002 6.30054C26.8002 6.20054 27.4002 5.80054 27.4002 5.60054C27.4002 5.50054 27.2002 5.40054 27.2002 5.40054C27.2002 5.30054 27.5002 5.20054 27.5002 5.00054C27.4002 4.90054 27.3002 4.90054 27.2002 4.90054C27.2002 4.80054 27.5002 4.50054 27.4002 4.40054C27.4002 4.30054 27.2002 4.30054 27.1002 4.40054C27.0002 4.40054 27.2002 4.10054 27.2002 4.00054H27.0002C26.9002 4.00054 27.3002 3.40054 27.3002 3.30054C27.2002 3.20054 26.1002 3.90054 25.7002 4.80054C25.3002 5.60054 25.6002 6.30054 25.6002 6.50054C25.6002 6.80054 25.5002 7.10054 25.3002 7.10054C25.1002 7.10054 24.7002 6.80054 24.6002 6.70054L24.3002 6.40054C24.1002 6.30054 23.7002 6.50054 23.6002 6.50054C23.4002 6.50054 22.8002 6.40054 22.8002 6.40054C22.8002 6.40054 23.4002 6.70054 23.5002 6.80054L23.8002 7.10054C24.0002 7.00054 25.0002 7.30054 24.6002 7.80054Z" fill="#F5D71C"/>
<path fill-rule="evenodd" clip-rule="evenodd" d="M28.4003 9.80082C28.7003 10.1008 30.8003 11.7008 30.8003 13.6008C30.8003 15.5008 29.3003 15.5008 28.8003 15.4008C29.3003 15.9008 31.1003 15.8008 31.1003 13.6008C31.1003 11.7008 28.7003 9.80082 28.4003 9.60082C28.2003 9.50082 28.1003 9.50082 28.4003 9.80082Z" fill="#F5D71C"/>
<path fill-rule="evenodd" clip-rule="evenodd" d="M9.8 8.30078L10.1 9.50078H11.2L10.3 10.3008L10.7 11.5008L9.8 10.7008L8.9 11.5008L9.2 10.3008L8.3 9.50078H9.4L9.8 8.30078ZM6.4 13.1008L6.7 14.4008H7.8L7 15.2008L7.3 16.4008L6.4 15.6008L5.5 16.3008L5.8 15.2008L5 14.4008H6L6.4 13.1008ZM13.2 12.8008L13.5 14.0008H14.6L13.7 14.8008L14 16.0008L13.2 15.3008L12.3 16.0008L12.6 14.8008L11.7 14.0008H12.8L13.2 12.8008ZM9.8 19.7008L10.1 21.0008H11.2L10.3 21.8008L10.7 23.0008L9.8 22.2008L8.9 22.9008L9.2 21.8008L8.3 21.0008H9.4L9.8 19.7008ZM11.3 17.1008L11.5 17.7008H12L11.6 18.1008L11.7 18.7008L11.3 18.3008L10.9 18.7008L11 18.1008L10.6 17.7008H11.1L11.3 17.1008Z" fill="#FEFEFE"/>
</g>
</g>
<defs>
<clipPath id="clip0_26003_92011">
<rect width="38" height="25" fill="white" transform="translate(0 0.5)"/>
</clipPath>
<clipPath id="clip1_26003_92011">
<rect width="38" height="25" fill="white" transform="translate(0 0.5)"/>
</clipPath>
</defs>
</svg>
