<svg width="38" height="26" viewBox="0 0 38 26" fill="none" xmlns="http://www.w3.org/2000/svg">
<g clip-path="url(#clip0_26003_70538)">
<g clip-path="url(#clip1_26003_70538)">
<path d="M0.0498047 13V21.92C0.0498047 23.92 1.6998 25.5 3.7198 25.5H34.3298C34.806 25.5066 35.2789 25.4192 35.7213 25.2427C36.1636 25.0662 36.5668 24.8042 36.9078 24.4717C37.2487 24.1391 37.5207 23.7425 37.7081 23.3046C37.8954 22.8668 37.9946 22.3962 37.9998 21.92V13H0.0498047Z" fill="#5EB6E4"/>
<path d="M19.0195 13L34.3295 25.5C34.8058 25.5066 35.2786 25.4192 35.721 25.2427C36.1634 25.0662 36.5666 24.8042 36.9075 24.4717C37.2484 24.1391 37.5204 23.7425 37.7078 23.3046C37.8952 22.8668 37.9943 22.3962 37.9995 21.92V13H19.0195Z" fill="#5EB6E4"/>
<path d="M34.3298 0.500348H3.7198C3.24358 0.493741 2.77072 0.581175 2.32835 0.757638C1.88597 0.934102 1.48276 1.19613 1.14183 1.5287C0.8009 1.86127 0.528947 2.25785 0.341557 2.69571C0.154166 3.13357 0.0550216 3.6041 0.0498047 4.08035V13.0003H37.9998V4.08035C37.9998 2.08035 36.3498 0.500348 34.3298 0.500348Z" fill="white"/>
<path d="M34.3297 0.5H3.71973L19.0197 13H37.9997V4.08C37.9997 2.08 36.3497 0.5 34.3297 0.5Z" fill="white"/>
<path d="M37.9998 21.9219C37.9998 23.9219 36.3498 25.5019 34.3298 25.5019H3.7198C3.24358 25.5085 2.77072 25.421 2.32835 25.2446C1.88597 25.0681 1.48276 24.8061 1.14183 24.4735C0.8009 24.141 0.528947 23.7444 0.341557 23.3065C0.154166 22.8687 0.0550216 22.3981 0.0498047 21.9219" fill="#5EB6E4"/>
<path d="M3.71973 0.500348H34.3297C34.806 0.493741 35.2788 0.581175 35.7212 0.757638C36.1636 0.934102 36.5668 1.19613 36.9077 1.5287C37.2486 1.86127 37.5206 2.25785 37.708 2.69571C37.8954 3.13357 37.9945 3.6041 37.9997 4.08035V10.5903" fill="white"/>
<path d="M14.7403 14.5316C14.6803 14.4716 14.6803 14.4116 14.7403 14.3516C14.8003 14.3516 14.8603 14.3516 14.9203 14.4116C14.9803 14.4716 14.9803 14.5316 14.9203 14.5916C14.8603 14.5816 14.7403 14.5816 14.7403 14.5316Z" fill="#F1BF31"/>
<path d="M15.1101 10.0703C14.8001 10.3003 14.6201 10.4803 14.3801 10.7703C14.2001 11.0603 14.0701 11.4703 14.0101 11.5303C14.0101 11.5903 13.9501 11.6503 13.8901 11.6503H13.8301V11.8303V11.7703C13.8301 11.7103 13.8901 11.7103 13.9501 11.6503C14.0101 11.6503 14.0701 11.5903 14.0701 11.5903C14.1301 11.5903 14.6801 11.3603 14.8701 11.0603C15.1701 10.7103 15.1701 10.3003 15.1101 10.0703ZM14.4301 14.4103C14.4301 14.3503 14.4901 14.3503 14.4901 14.2903C14.5501 14.2303 14.5501 14.1703 14.6101 14.1703L14.6701 14.1103C14.7901 13.9903 14.8501 13.8803 14.9101 13.7603C14.9101 13.7003 14.9101 13.7003 14.9701 13.6403C15.0299 13.4278 15.0299 13.2029 14.9701 12.9903C14.9701 12.8103 14.9101 12.7003 14.8501 12.5203C14.8501 12.5803 14.6701 12.8103 14.6101 12.9303C14.4901 13.1103 14.3701 13.2803 14.3701 13.4603V13.9303C14.3701 14.0503 14.4301 14.2803 14.3701 14.3403L14.4301 14.4603V14.4103Z" fill="#466343"/>
<path d="M21.5903 14.9394C21.3256 14.6861 20.9765 14.5401 20.6103 14.5294C20.4303 14.5294 20.1803 14.5894 20.0003 14.7094C19.7603 14.4794 19.4503 14.3594 19.0803 14.3594C18.7103 14.3594 18.4103 14.5394 18.1603 14.7694C17.9546 14.6486 17.7268 14.5704 17.4903 14.5394C17.1203 14.5394 16.8203 14.7194 16.5703 14.9494V15.0094H16.6303C17.5503 16.6494 19.0803 17.2394 19.0803 17.2394C19.0803 17.2394 19.6303 17.0094 20.3003 16.4794C20.7849 16.0143 21.2174 15.498 21.5903 14.9394Z" fill="#94BB79"/>
<path d="M19.3899 14.4089C19.5699 14.4689 19.8199 14.6389 19.9399 14.7589H20.4799C20.6599 14.7589 20.7899 14.8189 20.9699 14.8789H21.0299L20.8499 14.2889V13.1189L20.9699 12.9389V12.5289L20.8499 12.1789V12.2989L20.7299 12.2389V12.1189L20.6099 12.0589L20.4899 12.1189V12.2389L20.2499 12.2989V12.1789L19.9999 12.2389V12.6489L20.1799 12.8289V13.9989L19.9999 14.5789C19.8799 14.4589 19.6899 14.3989 19.6299 14.3489L19.4499 13.7589V12.5889L19.5699 12.4089V11.9989L19.3299 11.9389V12.0589L19.2099 11.9989V11.8789H19.0299L18.9099 11.9389V12.0589L18.7899 12.1189V11.9989L18.4199 12.0589V12.4689L18.5999 12.6489V13.8189L18.4199 14.5189H19.0799C19.2099 14.3489 19.3299 14.4089 19.3899 14.4089Z" fill="#94BB79"/>
<path d="M17.86 12.8787L17.98 12.6487V12.2387L17.74 12.1787V12.2987L17.62 12.2387V12.1187L17.5 12.0587L17.38 12.1187V12.2387L17.26 12.2987V12.1787L17 12.2987V12.7087L17.18 12.8887V14.0587L17 14.6387H17.9C18.08 14.6387 18.27 14.6987 18.39 14.7587H18.45L18.27 14.1687V12.8787H17.86ZM25.57 12.1787C25.57 12.1187 25.75 12.0587 25.69 11.9987L25.63 11.9387C25.63 11.8787 25.69 11.8187 25.69 11.7587C25.69 11.6387 25.57 11.6387 25.45 11.6987L25.39 11.7587C25.39 11.7587 25.33 11.6987 25.27 11.7587C25.21 11.7587 25.15 11.9387 25.15 11.9387C25.15 11.9387 25.09 11.8787 25.03 11.8787C24.91 11.8787 24.91 11.9987 24.91 12.1087H24.79C24.73 12.1687 24.73 12.2887 24.73 12.3987C24.73 12.2787 24.73 12.1087 24.67 12.1087H24.61V12.0487C24.61 12.0487 24.61 11.9887 24.67 11.9887L24.73 11.9287C24.85 11.9887 25.04 11.8687 25.1 11.8087V11.7487C25.16 11.6887 25.22 11.4587 25.16 11.3987C25.1 11.3387 24.92 11.3987 24.85 11.4587H24.79C24.67 11.5787 24.67 11.7487 24.67 11.8087V11.8687L24.61 11.9287C24.61 11.8087 24.61 11.7487 24.55 11.6387V11.5187C24.61 11.3387 24.79 11.2887 24.98 11.2287C25.1 11.1687 24.98 11.1087 25.04 11.0487C25.1 10.9887 25.22 10.9887 25.28 10.9287L25.34 10.8687C25.34 10.8087 25.28 10.8087 25.22 10.7487C25.28 10.6287 25.59 10.4587 25.22 10.4587C25.28 10.3987 25.4 10.1687 25.28 10.1087H25.16C25.1 10.1087 25.1 9.75869 24.92 9.75869C24.8 9.75869 24.8 9.93869 24.8 10.0487C24.8 10.1087 24.74 10.1087 24.68 10.1087C24.68 10.0487 24.62 9.92869 24.56 9.92869C24.5 9.92869 24.32 10.0487 24.32 10.2187L24.23 10.2987C24.17 10.4187 24.23 10.5887 24.35 10.6487V10.7687C24.29 10.5887 24.23 10.4787 24.23 10.4187V10.1787C24.23 9.94869 24.41 9.70869 24.17 9.70869C24.17 9.58869 24.29 9.29869 24.11 9.29869H23.99C23.99 9.17869 23.99 9.06869 23.87 9.00869C23.81 8.94869 23.69 9.06869 23.69 9.00869C23.63 8.94869 23.63 8.77869 23.51 8.82869L23.45 8.88869C23.39 8.82869 23.21 8.70869 23.08 8.82869C23 8.88869 23.19 9.06869 23.19 9.12869C23.19 9.12869 23.13 9.18869 23.13 9.24869C23.13 9.36869 23.25 9.36869 23.25 9.42869C23.07 9.54869 23.25 9.65869 23.37 9.77869C23.19 10.0087 23.55 10.0687 23.55 10.0687C23.43 10.2487 23.86 10.2487 24.1 10.3587L24.16 10.4187C24.22 10.4787 24.28 10.7087 24.28 10.7087V10.7687C24.34 10.9487 24.4 11.1187 24.4 11.2987C24.4 11.4187 24.46 11.5887 24.46 11.7087C24.4 11.6487 24.34 11.5887 24.34 11.5287C24.28 11.4087 24.4 11.2387 24.34 11.1787C24.34 11.1187 24.28 11.1187 24.22 11.1187C24.16 11.0587 24.22 10.7087 24.04 10.6487C23.98 10.5887 23.92 10.7687 23.86 10.6487C23.86 10.5887 23.8 10.4687 23.74 10.5287C23.68 10.5287 23.68 10.5887 23.68 10.5887C23.68 10.5887 23.62 10.4687 23.5 10.4687C23.44 10.4687 23.38 10.5287 23.38 10.5287C23.32 10.5287 23.2 10.4087 23.14 10.5287C23.08 10.5887 23.2 10.7087 23.26 10.7587C23.26 10.8187 23.2 10.8187 23.2 10.8787C23.2 10.9387 23.38 10.9987 23.44 11.0587C23.44 11.0587 23.32 11.1187 23.38 11.1787C23.38 11.2387 23.56 11.2387 23.62 11.2387C23.56 11.3587 23.68 11.4687 23.8 11.4687H23.98C23.98 11.4687 23.92 11.5287 23.98 11.5887C24.04 11.6487 24.16 11.5887 24.29 11.5887C24.35 11.5887 24.47 11.6487 24.6 11.7687V12.0087H24.54C24.48 12.0087 24.48 12.0687 24.42 12.1287V12.2487H24.36C24.36 12.1887 24.3 12.0687 24.3 12.0187C24.3 11.9587 24.24 11.9587 24.18 12.0187C24.12 11.6087 24.06 11.7887 23.94 11.7887C23.88 11.7887 23.76 11.5587 23.63 11.6087C23.57 11.6087 23.57 11.6687 23.57 11.6687C23.51 11.6687 23.39 11.5487 23.33 11.6687C23.27 11.7287 23.39 11.8487 23.39 11.8987C23.39 11.8987 23.33 11.9587 23.33 12.0187C23.33 12.1387 23.45 12.1387 23.51 12.2487C23.51 12.3087 23.45 12.3687 23.45 12.4287C23.45 12.6087 23.76 12.5487 23.76 12.6087V12.6687C23.76 12.8487 24.13 12.7287 24.25 12.7287C24.19 12.7287 24.13 12.7287 24.13 12.7887C24.07 12.9087 24.25 13.0187 24.25 13.0787C24.25 13.0787 24.13 13.0787 24.13 13.1987C24.13 13.2587 24.13 13.2587 24.19 13.3187H24.1C24.04 13.2587 24.1 13.0287 23.92 13.0287C23.86 13.0287 23.86 13.0887 23.8 13.0887C23.74 13.0287 23.74 12.9687 23.68 12.9087C23.62 12.9087 23.56 12.9687 23.56 12.9687C23.5 12.9687 23.38 12.8487 23.25 12.9087C23.13 12.9687 23.25 13.1387 23.25 13.1387C23.25 13.1387 23.19 13.1387 23.19 13.1987C23.13 13.2587 23.31 13.3787 23.31 13.3787C23.31 13.3787 23.25 13.4387 23.25 13.4987C23.25 13.6187 23.37 13.6187 23.43 13.7287V13.8487C23.43 13.9687 23.61 13.9087 23.74 13.9687C23.8 13.9687 23.68 14.0887 23.8 14.0887C23.86 14.0887 24.04 14.0287 24.04 14.1487V14.3287H23.92C23.8 14.3887 23.8 14.5087 23.74 14.5587H23.68L23.62 14.4987C23.68 14.3787 23.62 14.2087 23.56 14.1487H23.5C23.38 14.0287 23.19 13.9687 23.13 14.0287C23.07 14.0887 23.13 14.2587 23.19 14.3787V14.4387C23.25 14.5587 23.43 14.6187 23.56 14.5587L23.62 14.6187H23.56C23.44 14.6787 23.56 14.9687 23.5 15.0287C23.44 15.0887 23.44 15.0287 23.38 15.0287C23.38 14.9687 23.32 14.9687 23.32 14.9087C23.32 14.8487 23.38 14.7287 23.32 14.6787H23.2C23.2 14.6187 23.26 14.4987 23.14 14.4487C23.08 14.4487 23.02 14.5087 23.02 14.5087L22.96 14.3887C22.9577 14.3576 22.9443 14.3284 22.9223 14.3064C22.9003 14.2844 22.8711 14.271 22.84 14.2687C22.72 14.2687 22.78 14.3887 22.72 14.4987C22.66 14.4987 22.6 14.4987 22.6 14.5587C22.54 14.6187 22.66 14.6787 22.66 14.7387H22.6C22.42 14.7987 22.6 14.9187 22.66 14.9687C22.66 15.0287 22.6 15.0287 22.54 15.0887C22.54 15.2087 22.72 15.2687 22.72 15.3187C22.72 15.3787 22.66 15.3787 22.66 15.4387C22.66 15.4987 22.78 15.5587 22.84 15.6187V15.7987C22.6 16.0287 22.29 16.2087 21.98 16.3287V16.2087C21.98 16.2087 22.22 16.2087 22.22 16.1487C22.28 16.0887 22.22 16.0287 22.22 15.9687C22.28 15.9087 22.46 15.9687 22.46 15.8487C22.46 15.7887 22.4 15.7287 22.4 15.7287C22.46 15.6087 22.58 15.4987 22.4 15.4987C22.4 15.4387 22.46 15.3187 22.34 15.2687C22.22 15.2687 22.16 15.3887 22.16 15.3887C22.16 15.3887 22.04 15.3287 21.98 15.3287C21.86 15.3887 21.92 15.5087 21.86 15.5587C21.8 15.6187 21.74 15.5587 21.62 15.6187C21.5 15.6787 21.56 15.8487 21.56 15.9087C21.5 15.9687 21.44 15.9087 21.44 16.0287V16.3187C21.3463 16.3939 21.2418 16.4545 21.13 16.4987L21.31 16.4387C21.31 16.4387 21.37 16.4387 21.43 16.3787C21.37 16.4387 21.31 16.4387 21.19 16.4987H21.1C20.3651 16.664 19.7006 17.0558 19.2 17.6187C18.83 18.0287 18.65 18.3787 18.4 18.7887C18.28 19.0187 18.58 19.0187 18.64 18.8487C18.95 18.2587 19.07 18.0287 19.44 17.6787C19.9886 17.0937 20.7243 16.7188 21.52 16.6187C21.58 16.6187 21.64 16.5587 21.76 16.5587C21.82 16.5587 21.82 16.5587 21.88 16.6187C21.88 16.6787 21.88 16.8487 22 16.9687H22.06C22.12 17.0287 22.37 17.0887 22.43 17.0287C22.49 16.9687 22.43 16.7987 22.37 16.7387C22.37 16.7387 22.37 16.6787 22.31 16.6787C22 16.5587 21.82 16.5587 21.7 16.5587H21.64C21.7 16.4987 21.82 16.4987 21.88 16.4387H22.06C22.18 16.4987 22.12 16.7287 22.24 16.7887C22.3 16.8487 22.36 16.7887 22.42 16.7887C22.48 16.8487 22.48 17.0787 22.6 17.0787C22.66 17.0787 22.72 17.0187 22.78 17.0187C22.84 17.0787 22.9 17.1987 23.02 17.1987C23.08 17.1987 23.2 17.0787 23.2 17.0787C23.26 17.0787 23.26 17.1387 23.32 17.1387C23.38 17.1387 23.44 17.0787 23.38 17.0187C23.38 16.9587 23.32 16.9587 23.26 16.8987C23.26 16.8387 23.32 16.8387 23.26 16.7787C23.2 16.7187 23.14 16.7187 23.14 16.7187H23.08C23.08 16.7187 23.2 16.6587 23.08 16.5387C23.02 16.4787 22.9 16.4787 22.77 16.4787C22.77 16.4787 22.77 16.3587 22.65 16.3587C22.47 16.3587 22.16 16.4187 21.98 16.3587C22.16 16.2987 22.29 16.1787 22.47 16.0687H22.53C22.53 16.1887 22.65 16.3587 22.84 16.3587H22.9C23.02 16.3587 23.21 16.3587 23.21 16.2987C23.27 16.1787 23.15 16.0687 23.03 16.0087C22.91 15.8887 22.66 15.9487 22.6 16.0687C22.66 16.0087 22.78 15.9487 22.84 15.8887C22.873 15.8592 22.9157 15.8429 22.96 15.8429C23.0043 15.8429 23.047 15.8592 23.08 15.8887C23.2 15.9487 23.2 16.1187 23.26 16.1187H23.38C23.44 16.2387 23.44 16.3487 23.62 16.3487C23.68 16.3487 23.68 16.2887 23.74 16.2887C23.8 16.4087 23.92 16.5187 23.98 16.2887C24.04 16.2887 24.16 16.4087 24.22 16.3487V16.2887C24.28 16.2287 24.4 16.3487 24.4 16.2887C24.46 16.2287 24.34 16.1687 24.34 16.1087C24.46 16.0487 24.22 15.9287 24.22 15.9287V15.8087C24.22 15.6887 24.1 15.6887 24.04 15.7487C23.92 15.7487 24.04 15.6287 23.98 15.6287H23.8V15.4487C23.86 15.4487 24.11 15.5087 24.11 15.3887V15.2687H24.35C24.47 15.2087 24.41 15.1487 24.41 15.1487C24.53 15.0887 24.78 15.2087 24.78 15.0287C24.78 15.0287 24.72 14.9687 24.78 14.9687C24.84 14.9087 25.02 14.9687 25.02 14.8487C25.02 14.7887 24.96 14.7887 24.96 14.7287C25.02 14.6087 25.2 14.4987 25.08 14.3787C25.02 14.3187 24.9 14.3787 24.84 14.3787C24.78 14.1487 24.66 14.4387 24.6 14.4387C24.54 14.4387 24.54 14.3787 24.42 14.4387L24.36 14.4987C24.42 14.3787 24.48 14.3187 24.36 14.2687C24.3 14.2087 24.18 14.3287 24.12 14.3887C24.12 14.3287 24.18 14.2687 24.18 14.2087C24.24 14.2087 24.3 14.1487 24.3 14.0887C24.48 13.9687 24.85 14.2687 24.85 13.9687C24.85 13.9687 25.22 14.0287 25.22 13.8487V13.7887C25.22 13.7287 25.46 13.7287 25.46 13.6087C25.46 13.6087 25.4 13.6087 25.4 13.5487C25.46 13.4887 25.58 13.3687 25.46 13.2587C25.46 13.2587 25.4 13.2587 25.4 13.1987C25.4 13.1387 25.46 12.9687 25.34 12.9087C25.22 12.9087 25.16 13.0887 25.1 13.0887C25.04 13.0887 25.04 13.0287 24.98 13.0887C24.92 13.0887 24.92 13.1487 24.86 13.2087H24.8C24.62 13.2087 24.62 13.4387 24.56 13.4987C24.5 13.4987 24.44 13.4387 24.38 13.5587C24.32 13.6187 24.38 13.7387 24.32 13.8487L24.26 13.9087C24.2 13.9687 24.2 13.9687 24.14 13.9687H24.08C24.14 13.8487 24.14 13.7387 24.2 13.6187C24.26 13.5587 24.26 13.4987 24.32 13.4387L24.5 13.2587C24.62 13.1387 24.44 13.1387 24.5 13.1387V13.0787C24.62 13.0787 24.81 13.1387 24.93 13.0787C24.93 13.0787 24.93 12.9587 24.99 12.9587C25.05 12.8987 25.36 13.0187 25.42 12.7787C25.42 12.7187 25.36 12.6587 25.36 12.6587C25.42 12.5987 25.67 12.4787 25.6 12.3687C25.63 12.1787 25.57 12.1787 25.57 12.1787ZM21.23 16.4587H21.17C21.17 16.4587 21.23 16.3987 21.23 16.4587C21.29 16.3387 21.41 16.3387 21.54 16.3987C21.47 16.3987 21.35 16.3987 21.23 16.4587ZM22.76 15.6387C22.7 15.6387 22.7 15.6387 22.76 15.6387C22.76 15.4587 22.94 15.4087 23 15.3487C23.12 15.2887 23.18 15.2287 23.06 15.1187L23.12 15.0587V15.2387C23 15.4087 22.88 15.5187 22.76 15.6387ZM22.94 15.6987L23.06 15.5787C23.12 15.5787 23.18 15.5187 23.24 15.5187C23.12 15.5787 23.06 15.6987 22.94 15.6987ZM23.92 14.1687V13.9987C23.98 13.8787 24.1 13.5887 23.98 13.5287H23.92C23.92 13.4687 23.98 13.3487 23.92 13.2987L24.04 13.4187C24.1 13.4187 24.1 13.4787 24.1 13.5387C24.1 13.6987 24.04 13.9387 23.92 14.1687ZM24.23 10.9987V10.9387C24.23 10.8787 24.23 10.8187 24.29 10.7087C24.29 10.8287 24.41 10.9387 24.41 10.9387C24.41 10.9987 24.35 10.9987 24.35 11.0587C24.35 11.1787 24.47 11.2387 24.47 11.3487C24.47 11.4087 24.47 11.4687 24.41 11.5287L24.23 10.9987Z" fill="#94BB79"/>
<path d="M17.1896 11.4187C17.2496 11.5987 17.3696 11.8287 17.3696 12.0087C17.6796 11.9488 17.4296 11.2487 17.3696 11.0687C17.4896 11.0687 17.5496 11.2487 17.5496 11.3587C17.6032 11.3314 17.6483 11.2899 17.68 11.2388C17.7117 11.1877 17.7289 11.1289 17.7296 11.0687V11.0087C17.7296 10.9487 17.7296 10.8887 17.6696 10.8287C17.6096 10.7687 17.5496 10.7087 17.4296 10.7087C17.2496 10.7087 17.0596 10.8287 17.0596 10.9987V11.1788C17.1296 11.2388 17.1896 11.3587 17.1896 11.4187ZM18.7796 11.1788C18.8396 11.3588 18.9596 11.5888 18.9596 11.7688C19.2696 11.7088 19.0196 11.0087 18.9596 10.8287C19.0796 10.8287 19.1396 11.0087 19.1396 11.1187C19.1932 11.0914 19.2383 11.0499 19.27 10.9988C19.3017 10.9477 19.3189 10.8889 19.3196 10.8287V10.7688C19.3196 10.7088 19.3196 10.6487 19.2596 10.5887C19.1996 10.5287 19.1396 10.4688 19.0196 10.4688C18.8396 10.4688 18.6496 10.5887 18.6496 10.7587V10.9387C18.7196 11.0587 18.7196 11.1188 18.7796 11.1788ZM20.3696 11.4187C20.4296 11.5987 20.5496 11.8287 20.5496 12.0087C20.8596 11.9488 20.6096 11.2487 20.5496 11.0687C20.6696 11.0687 20.7296 11.2487 20.7296 11.3587C20.7832 11.3314 20.8283 11.2899 20.86 11.2388C20.8917 11.1877 20.9089 11.1289 20.9096 11.0687V11.0087C20.9096 10.9487 20.9096 10.8887 20.8496 10.8287C20.7896 10.7687 20.7296 10.7087 20.6096 10.7087C20.4296 10.7087 20.2396 10.8287 20.2396 10.9987V11.1788C20.3096 11.2388 20.3096 11.3587 20.3696 11.4187Z" fill="#9AD8DB"/>
<path d="M22.8203 11.7681C22.7603 10.5381 22.3303 9.71813 21.8403 9.30813L21.7803 9.24813H21.6603C21.6603 9.24813 21.6003 9.24812 21.6003 9.18812H20.5003C20.6203 9.12812 20.6803 9.06813 20.6803 8.95813C20.6803 8.89813 20.6803 8.83813 20.6203 8.83813L20.6803 8.77812V8.71813C20.7403 8.71813 20.8003 8.65813 20.8003 8.59813V8.53813C20.8603 8.47813 20.8603 8.41813 20.8603 8.35813V8.30813C20.9803 8.12813 21.1703 8.01813 21.4703 7.89813C21.4103 7.83813 21.3503 7.83813 21.2903 7.77813C21.3503 7.71813 21.3503 7.65812 21.4103 7.59812H21.4703C21.5903 7.59812 21.6503 7.53813 21.6503 7.41813C21.6503 7.35813 21.5903 7.29812 21.5303 7.23812C21.5303 7.17812 21.5903 7.11813 21.5903 7.00813C21.7103 7.00813 21.7703 6.88813 21.7703 6.77813C21.7703 6.65813 21.6503 6.54813 21.5303 6.54813C21.4703 6.48813 21.4703 6.42812 21.4103 6.42812V6.36812C21.4103 6.24813 21.2903 6.13812 21.1703 6.13812C21.1103 6.13812 21.0503 6.19813 20.9903 6.25813H20.7503C20.7503 6.13813 20.6303 6.07812 20.5703 6.07812C20.4503 6.07812 20.3903 6.13813 20.3903 6.25813H20.1503C20.1503 6.13813 20.0903 6.07812 19.9703 6.07812C19.9103 6.07812 19.8503 6.13812 19.7903 6.19812L19.4203 6.01813H19.4803L19.6003 5.89813H19.4803L19.3603 5.71812C19.3603 5.59812 19.3003 5.48812 19.2403 5.48812C19.3003 5.42812 19.3003 5.36812 19.3003 5.30813C19.3003 5.12812 19.1803 5.01813 19.0603 4.95813V4.66813C19.0603 4.54813 19.1803 4.66813 19.3003 4.66813C19.3603 4.66813 19.4203 4.60813 19.4203 4.48813C19.4203 4.36813 19.3603 4.36812 19.3003 4.36812C19.2403 4.36812 19.1203 4.42813 19.0603 4.42813C19.0003 4.36813 19.0603 4.24813 19.0603 4.19813C19.0603 4.13813 19.0003 4.07812 18.8803 4.07812C18.8203 4.07812 18.7003 4.13813 18.7003 4.19813C18.7003 4.25813 18.8203 4.37813 18.7003 4.42813C18.6403 4.48813 18.5803 4.36812 18.4603 4.36812C18.4003 4.36812 18.3403 4.42813 18.3403 4.48813C18.3403 4.54813 18.4003 4.66813 18.4603 4.66813C18.5803 4.66813 18.7003 4.54813 18.7003 4.66813V4.95813C18.5803 5.01813 18.4603 5.13813 18.4603 5.30813C18.4603 5.36812 18.4603 5.42812 18.5203 5.48812C18.4603 5.54812 18.4003 5.60812 18.4003 5.71812L18.2303 5.89813H18.1103C18.1103 5.89813 18.1103 6.01813 18.2303 6.01813H18.2903L17.9203 6.19812C17.9203 6.13812 17.8003 6.07812 17.7403 6.07812C17.6203 6.07812 17.5603 6.13813 17.5603 6.25813H17.3203C17.3203 6.13813 17.2003 6.07812 17.1403 6.07812C17.0203 6.07812 16.9603 6.13813 16.9603 6.25813H16.7203C16.6603 6.19813 16.6003 6.13812 16.5403 6.13812C16.4203 6.13812 16.3003 6.25813 16.3003 6.36812V6.42812L16.1803 6.54813C16.0603 6.54813 15.9403 6.66813 15.9403 6.77813C15.9403 6.89813 16.0003 6.95813 16.1203 7.00813C16.1203 7.06813 16.1803 7.12812 16.1803 7.23812C16.1203 7.29812 16.0603 7.35813 16.0603 7.41813C16.0603 7.53813 16.1203 7.59812 16.2403 7.59812H16.3003C16.3603 7.65812 16.3603 7.71813 16.4203 7.77813C16.3603 7.77813 16.2403 7.83813 16.2403 7.89813C16.5503 8.01813 16.7303 8.12813 16.8503 8.30813C16.8503 8.36812 16.7903 8.36812 16.7903 8.42812C16.7903 8.48812 16.8503 8.54813 16.9103 8.54813V8.59813C16.9103 8.65813 16.9703 8.71813 17.0303 8.71813V8.77812L17.0903 8.83813C17.2103 8.60813 17.2103 8.65813 17.2103 8.71813C17.2103 8.77813 17.2703 8.83812 17.3903 8.94812C17.0203 8.88812 16.5903 9.00812 16.1703 9.35812C15.6803 9.76812 15.2503 10.5881 15.1903 11.8181C15.0703 13.7581 15.9903 15.2181 16.9703 16.0981C17.4603 16.5681 18.3203 17.0381 18.9903 17.3281L19.4803 17.1481C19.6603 17.0881 19.7903 16.9681 19.9703 16.9181C20.2803 16.7381 20.5803 16.5681 20.8303 16.3881L20.8903 16.3281L20.9503 16.2681L21.0103 16.2081C21.0103 16.2081 21.0703 16.2081 21.0703 16.1481C21.6779 15.6008 22.1516 14.9212 22.4551 14.1618C22.7585 13.4024 22.8834 12.5835 22.8203 11.7681ZM21.1703 6.53813C21.2903 6.71813 21.1103 6.94813 20.9303 7.12813C20.8399 7.14279 20.7562 7.18465 20.6903 7.24813C20.6903 6.95813 20.5703 6.83813 20.5703 6.83813C20.5703 6.83813 20.4503 6.83813 20.2603 6.95813L19.7003 6.12813C20.2503 6.42813 20.9803 6.24813 21.1703 6.53813ZM19.3303 6.48812C19.3903 6.30812 19.4503 6.13812 19.4503 6.01813V5.89813L19.6303 6.07812L20.2403 6.95813C20.1803 7.01813 20.1203 7.01813 20.0603 7.07812C20.0003 6.77813 19.8803 6.59812 19.8803 6.59812C19.8803 6.59812 19.5703 6.65812 19.4503 6.94812C19.4503 6.82812 19.3903 6.76812 19.3303 6.65812V6.48812ZM19.0203 9.18812C19.4503 9.18812 19.8203 9.12812 20.1203 9.06812L19.2603 9.47812C19.2003 9.41812 19.1403 9.35812 19.0803 9.35812C19.0203 9.35812 18.9003 9.41813 18.9003 9.41813V9.47812L18.0403 9.12813C18.2303 9.12813 18.5903 9.18812 19.0203 9.18812ZM18.5903 5.89813V6.01813C18.5903 6.13812 18.7103 6.30812 18.7703 6.48812V6.66813C18.7103 6.72813 18.7103 6.84813 18.6503 6.95813C18.4703 6.66813 18.2203 6.60813 18.2203 6.60813C18.2203 6.60813 18.0403 6.78813 18.0403 7.07812C17.9803 7.01813 17.9203 6.95813 17.8603 6.95813L18.4703 6.07812C18.4703 6.01813 18.5303 5.95813 18.5903 5.89813ZM17.1303 7.06813C16.9503 6.88813 16.8203 6.65813 16.9503 6.47813C17.1303 6.18813 17.8703 6.35813 18.4203 6.00813L17.8003 6.83813C17.6203 6.71813 17.4903 6.71812 17.4903 6.71812C17.4903 6.71812 17.4303 6.83813 17.3703 7.12813C17.3103 7.12813 17.1903 7.12813 17.1303 7.06813ZM18.4703 16.6981C17.7403 16.1081 16.0803 14.4681 16.2103 12.0581C16.2703 10.8281 16.5803 10.3581 16.8203 10.1781C16.8803 10.3581 17.1303 10.4681 17.3703 10.4681C17.5214 10.4649 17.6693 10.4236 17.8003 10.3481L18.7803 9.81812C18.7803 9.87812 18.8403 9.87812 18.9003 9.93812H18.9603C19.0203 9.93812 19.0803 9.93813 19.1403 9.87813L19.2003 9.81812L20.1803 10.3481C20.1803 10.3481 20.2403 10.3481 20.2403 10.4081H21.0203C21.0203 10.4081 21.0803 10.4081 21.0803 10.3481L21.1403 10.2881L21.2003 10.2281C21.2003 10.2281 21.2003 10.1681 21.2603 10.1681C21.4403 10.3481 21.8103 10.7581 21.8703 12.0481C21.9903 14.4581 20.3403 16.0981 19.6103 16.6881C19.5503 16.6881 19.4903 16.7481 19.4303 16.7481H19.3103C18.9603 16.9281 18.7203 16.8081 18.4703 16.6981Z" fill="#D99F31"/>
<path d="M19.8199 18.8089C19.5829 18.3999 19.2939 18.0234 18.9599 17.6889C18.426 17.0966 17.7193 16.6873 16.9399 16.5189C16.8496 16.5042 16.7659 16.4624 16.6999 16.3989C16.6999 16.3989 16.6999 16.3389 16.6399 16.3389C16.5799 16.2789 16.5799 16.2189 16.5799 16.1589C16.5199 16.0389 16.5199 15.8689 16.4599 15.7489C16.2199 15.3389 15.8499 15.3389 15.5999 14.9289C15.5399 15.2789 15.5399 15.7489 16.0299 16.0989C16.2099 16.2189 16.4599 16.2189 16.5799 16.2789L16.6399 16.3389C16.6399 16.3989 16.6999 16.3989 16.6999 16.3989C16.4262 16.3229 16.1588 16.2259 15.8999 16.1089C15.7199 15.9889 15.5899 15.9289 15.5299 15.6989C15.5299 15.6389 15.4699 15.5789 15.4699 15.4689C15.4281 15.3796 15.3666 15.3009 15.2899 15.2389C15.4099 15.0089 15.4699 14.8289 15.4099 14.5389C15.3499 14.2489 15.1699 13.8889 15.1699 13.5989C14.9299 13.8289 14.7999 14.0689 14.7999 14.2989H14.6799C14.5599 14.2989 14.4399 14.4189 14.4399 14.5289C14.4399 14.5889 14.4399 14.6489 14.4999 14.6489V14.7089L14.4399 14.6489L14.0699 13.9989C14.0699 13.9389 14.0099 13.7689 14.0699 13.5889C14.1239 13.4904 14.1571 13.3819 14.1674 13.2701C14.1777 13.1583 14.165 13.0456 14.1299 12.9389C14.3099 12.8189 14.6199 12.6489 14.7399 12.2889C14.9199 11.9389 14.8599 11.5889 14.7399 11.3489C14.5599 11.6989 14.1899 11.7589 14.0099 12.2289C14.0099 12.2889 13.9499 12.3489 13.9499 12.3489C13.8899 12.2289 13.8899 12.1189 13.8899 11.9989H13.8299L13.7099 12.1189C13.7699 11.6489 13.8299 11.1189 13.9499 10.7689V10.7089C14.0099 10.6489 14.0099 10.5889 14.0699 10.5289C14.1899 10.4089 14.5599 10.1789 14.6799 9.93891C14.9899 9.52891 14.9199 8.93891 14.8599 8.87891C14.6199 9.10891 14.3699 9.22891 14.1299 9.57891C13.8899 9.86891 13.8899 10.4589 13.8199 10.5789C13.8199 10.6389 13.7599 10.7589 13.7599 10.8089C13.7599 10.8689 13.6999 10.9289 13.6999 10.9889L13.6399 10.9289C13.5799 10.8689 13.6399 10.8689 13.5799 10.8689C13.6399 10.8089 13.6999 10.7489 13.6999 10.6889C13.6999 10.5689 13.6399 10.5089 13.5199 10.5089H13.4599C13.3399 10.0989 13.2199 9.85891 13.1499 9.68891C13.1499 9.62891 12.6599 10.2789 12.7799 10.9189C12.8399 11.2089 13.2099 11.5689 13.2699 11.6189L13.4499 11.7989V12.2689C13.3891 12.3328 13.3476 12.4125 13.3299 12.4989V12.4389C13.3299 12.4389 13.2699 12.1489 13.2099 12.1489C13.0899 11.6789 12.9699 11.5589 12.5999 11.2089C12.4799 11.1489 12.4199 11.0289 12.3599 10.9189C12.3599 10.9789 12.2999 11.0389 12.2999 11.1489C12.2399 11.4389 12.2999 11.7989 12.4199 12.0289C12.5399 12.2089 12.7299 12.3789 12.9699 12.4989C13.0299 12.5589 13.2099 12.5589 13.2799 12.6189C13.2799 12.6789 13.2199 12.7389 13.2199 12.7989C13.1599 12.7389 13.0999 12.7389 13.0399 12.7389C12.9199 12.7389 12.8599 12.8589 12.8599 12.9189C12.8599 12.9789 12.9799 13.0989 13.0399 13.0989C13.0999 13.0989 13.0999 13.0989 13.1599 13.0389C13.1599 13.3289 13.2799 13.5689 13.4699 13.7989C13.5299 13.8589 13.5899 13.9189 13.6499 13.9189C13.7099 14.0389 13.7099 14.1489 13.7699 14.2689H13.6999C13.6103 14.1806 13.5299 14.0834 13.4599 13.9789C13.2199 13.5689 13.0899 13.2789 12.6599 13.0389L12.1699 12.6889V13.1589C12.2299 13.4489 12.2899 13.7489 12.5399 13.9189C12.6599 13.9789 12.7199 14.0389 12.8499 14.0989C12.9099 14.0989 12.9699 14.1589 13.0299 14.1589C13.2099 14.2189 13.4599 14.2189 13.5799 14.2789H13.6999C13.7599 14.2789 13.7599 14.3389 13.8199 14.3389L13.8799 14.3989C13.9399 14.5789 14.0599 14.7489 14.1899 14.9289V15.0489C14.0699 14.9889 13.8199 14.6989 13.5799 14.5189C13.1499 14.2889 12.7199 14.3389 12.3599 14.1689C12.4199 14.5789 12.7299 14.9289 13.1599 15.1089C13.5299 15.2889 14.1399 15.1089 14.1999 15.1089H14.2599C14.2599 15.2289 14.3199 15.3389 14.3799 15.4589C14.1399 15.3389 13.9499 15.3389 13.5799 15.3989C13.3399 15.4589 13.1499 15.5189 12.9099 15.5189C13.2199 15.8689 13.5199 16.0489 14.0699 16.0489C14.4399 16.0489 14.6799 15.8189 14.7999 15.7589C14.9199 15.8189 15.1099 15.8789 15.2299 15.8789L15.7199 16.2289H15.2399C15.2999 16.1689 15.2999 16.1689 15.2999 16.1089C15.2999 15.9889 15.1799 15.8789 15.0599 15.8789C14.9399 15.8789 14.8199 15.9989 14.8199 16.1089C14.8199 16.1689 14.8799 16.2289 14.9399 16.2889C14.3899 16.4089 14.3299 16.8189 13.9599 16.8789V16.9389C14.3299 17.1689 14.8799 17.1189 15.2499 16.8189C15.3699 16.6989 15.4899 16.5289 15.6199 16.4089C15.6799 16.4089 15.6799 16.3489 15.7399 16.3489H15.8599C15.9199 16.4089 15.9799 16.4089 16.0399 16.4089C16.0399 16.4689 15.9799 16.4689 15.9799 16.4689H15.8999C15.7799 16.4689 15.6599 16.5889 15.6599 16.6989C15.6599 16.8189 15.7799 16.9289 15.8999 16.9289C16.0199 16.9289 16.1399 16.8089 16.1399 16.6989C16.1399 16.6389 16.1399 16.5789 16.0799 16.5189L16.1399 16.4589C16.2599 16.5189 16.3799 16.5189 16.5099 16.5789C17.2864 16.7006 18.0099 17.0485 18.5899 17.5789L18.6499 17.6389L18.8299 17.8189C19.1399 18.1689 19.2599 18.4089 19.4999 18.8789C19.7599 19.0389 19.9999 19.0389 19.8199 18.8089ZM13.7599 11.7089C13.7599 11.6489 13.6999 11.5889 13.6999 11.5289C13.6999 11.4089 13.7599 11.1189 13.7599 10.8789H13.8199C13.8199 10.8789 13.8199 10.9389 13.8799 10.9389C13.8799 10.9389 13.8799 10.9989 13.9399 10.9989V11.0589C13.8199 11.2989 13.7599 11.4689 13.7599 11.7089ZM14.6799 14.8789C14.6199 14.8789 14.6199 14.8189 14.5599 14.8189V14.7589C14.6199 14.7589 14.6199 14.8189 14.6799 14.8189H14.7999C14.7999 14.9389 14.8599 14.9989 14.8599 15.1089C14.8599 14.9389 14.7999 14.9389 14.6799 14.8789Z" fill="#466343"/>
<path d="M23.6802 18.11C23.4402 18.17 23.1302 18.17 22.9502 18.17C23.0702 18.05 23.2602 17.76 23.2602 17.58H23.2002C22.8902 17.76 22.7702 17.81 22.4002 17.81C22.1602 17.81 21.7302 17.58 21.6002 17.58C21.6002 17.46 21.6602 17.35 21.7202 17.17C21.9002 16.52 20.7402 16.82 20.3702 16.94C19.9402 17.06 19.5702 17.12 19.0202 17.12C18.5637 17.1273 18.1088 17.0666 17.6702 16.94C17.3602 16.88 16.2002 16.59 16.3202 17.17C16.3802 17.35 16.3802 17.46 16.4402 17.58C16.3202 17.58 15.8902 17.81 15.6402 17.81C15.2702 17.81 15.1502 17.75 14.8402 17.58H14.8002C14.8002 17.76 14.9202 17.99 15.1102 18.17C14.9302 18.17 14.6202 18.17 14.3802 18.11C14.3802 18.11 14.3202 18.11 14.3802 18.17C14.4402 18.29 14.6902 18.46 14.8102 18.52C15.4202 18.93 15.9102 18.93 16.5902 18.64C17.0202 18.46 17.3902 18.64 17.8102 18.7C18.3602 18.76 18.2402 18.29 18.1802 18.05C18.4902 18.11 18.7302 18.11 19.1002 18.11C18.8602 18.11 18.6702 18.11 18.4902 18.05C18.7302 18.05 18.9202 18.11 19.1602 18.11H19.5902H19.1002C19.4702 18.11 19.7102 18.05 20.0202 18.05C19.9602 18.28 19.8402 18.75 20.3902 18.7C20.8202 18.64 21.1902 18.47 21.6102 18.64C22.2802 18.93 22.7702 18.93 23.3902 18.52C23.4302 18.46 23.6802 18.28 23.6802 18.11C23.7402 18.11 23.7402 18.11 23.6802 18.11ZM20.3702 16.99H20.4302C20.3702 16.99 20.2502 17.05 20.1202 17.05C20.2502 16.99 20.3102 16.99 20.3702 16.99Z" fill="white"/>
</g>
</g>
<defs>
<clipPath id="clip0_26003_70538">
<rect width="38" height="25" fill="white" transform="translate(0 0.5)"/>
</clipPath>
<clipPath id="clip1_26003_70538">
<rect width="38" height="25" fill="white" transform="translate(0 0.5)"/>
</clipPath>
</defs>
</svg>
