<svg width="38" height="26" viewBox="0 0 38 26" fill="none" xmlns="http://www.w3.org/2000/svg">
<g clip-path="url(#clip0_26003_92335)">
<g clip-path="url(#clip1_26003_92335)">
<path fill-rule="evenodd" clip-rule="evenodd" d="M0 9.7H38V3.4C37.8 1.9 36.8 0.7 35.5 0.5H2.5C1.2 0.8 0.2 1.9 0 3.4V9.7Z" fill="#6ABAE8"/>
<path fill-rule="evenodd" clip-rule="evenodd" d="M0 9.69922H38V11.0992H0V9.69922Z" fill="#FEFEFE"/>
<path fill-rule="evenodd" clip-rule="evenodd" d="M2.5 25.5008H35.6C36.9 25.2008 37.9 24.1008 38.1 22.6008V16.3008H0V22.6008C0.2 24.1008 1.2 25.2008 2.5 25.5008Z" fill="#6ABAE8"/>
<path fill-rule="evenodd" clip-rule="evenodd" d="M0 14.9004H38V16.3004H0V14.9004Z" fill="#FEFEFE"/>
<path fill-rule="evenodd" clip-rule="evenodd" d="M0 10.6992H38V15.1992H0V10.6992Z" fill="#242222"/>
</g>
</g>
<defs>
<clipPath id="clip0_26003_92335">
<rect width="38" height="25" fill="white" transform="translate(0 0.5)"/>
</clipPath>
<clipPath id="clip1_26003_92335">
<rect width="38" height="25" fill="white" transform="translate(0 0.5)"/>
</clipPath>
</defs>
</svg>
