<svg width="38" height="26" viewBox="0 0 38 26" fill="none" xmlns="http://www.w3.org/2000/svg">
<g clip-path="url(#clip0_26003_90478)">
<g clip-path="url(#clip1_26003_90478)">
<path d="M35.2 25.5H2.8C1.3 25.5 0 24.2 0 22.6V3.4C0 1.8 1.3 0.5 2.8 0.5H35.1C36.7 0.5 37.9 1.8 37.9 3.4V22.6C38 24.2 36.7 25.5 35.2 25.5Z" fill="#FF273C"/>
<path d="M0.7 13H18.4C18.8 13 19.1 12.7 19.1 12.3V1.2C19.1 0.8 18.8 0.5 18.4 0.5H2.8C1.3 0.6 0 1.8 0 3.4V12.4C0 12.7 0.3 13 0.7 13Z" fill="#232E9B"/>
<path d="M7.19961 6.8C7.19961 6.2 7.49961 5.6 7.89961 5.1L5.89961 4.5C5.79961 4.5 5.69961 4.7 5.79961 4.8L7.29961 6.2L5.29961 6.7C5.19961 6.7 5.19961 6.9 5.29961 6.9L7.29961 7.4L5.79961 8.8C5.69961 8.9 5.79961 9 5.89961 9L7.89961 8.4C7.39961 8 7.19961 7.4 7.19961 6.8Z" fill="#F5F5F5"/>
<path d="M7.79922 5.10078C8.19922 4.70078 8.79922 4.40078 9.49922 4.40078C10.1992 4.40078 10.6992 4.70078 11.1992 5.10078L11.7992 3.10078C11.7992 3.00078 11.6992 2.90078 11.5992 3.00078L10.0992 4.50078L9.59922 2.50078C9.59922 2.40078 9.39922 2.40078 9.39922 2.50078L8.89922 4.50078L7.49922 3.10078C7.39922 3.00078 7.29922 3.10078 7.29922 3.20078L7.79922 5.10078ZM11.1992 8.50078C10.7992 8.90078 10.1992 9.20078 9.49922 9.20078C8.79922 9.20078 8.29922 8.90078 7.79922 8.50078L7.19922 10.5008C7.19922 10.6008 7.29922 10.7008 7.39922 10.6008L8.79922 9.10078L9.29922 11.1008C9.29922 11.2008 9.49922 11.2008 9.49922 11.1008L9.99922 9.10078L11.3992 10.6008C11.4992 10.7008 11.5992 10.6008 11.5992 10.5008L11.1992 8.50078ZM13.6992 6.70078L11.6992 6.20078L13.1992 4.80078C13.2992 4.70078 13.1992 4.60078 13.0992 4.60078L11.0992 5.20078C11.4992 5.60078 11.7992 6.20078 11.7992 6.90078C11.7992 7.60078 11.5992 8.00078 11.1992 8.50078L13.1992 9.10078C13.2992 9.10078 13.3992 9.00078 13.2992 8.90078L11.7992 7.50078L13.7992 7.00078C13.8992 6.90078 13.8992 6.70078 13.6992 6.70078Z" fill="#F5F5F5"/>
<path d="M9.49961 8.70039C10.549 8.70039 11.3996 7.84973 11.3996 6.80039C11.3996 5.75105 10.549 4.90039 9.49961 4.90039C8.45027 4.90039 7.59961 5.75105 7.59961 6.80039C7.59961 7.84973 8.45027 8.70039 9.49961 8.70039Z" fill="#F5F5F5"/>
</g>
</g>
<defs>
<clipPath id="clip0_26003_90478">
<rect width="38" height="25" fill="white" transform="translate(0 0.5)"/>
</clipPath>
<clipPath id="clip1_26003_90478">
<rect width="38" height="25" fill="white" transform="translate(0 0.5)"/>
</clipPath>
</defs>
</svg>
