<svg width="39" height="26" viewBox="0 0 39 26" fill="none" xmlns="http://www.w3.org/2000/svg">
<g clip-path="url(#clip0_26003_54231)">
<g clip-path="url(#clip1_26003_54231)">
<path fill-rule="evenodd" clip-rule="evenodd" d="M3.24512 25.2109H9.74512V0.210938H3.24512C1.94512 0.510938 0.945117 1.61094 0.745117 3.11094V22.3109C0.945117 23.8109 1.94512 24.9109 3.24512 25.2109ZM29.8451 25.2109H36.3451C37.6451 24.9109 38.6451 23.8109 38.8451 22.3109V3.11094C38.6451 1.61094 37.6451 0.410938 36.3451 0.210938H29.8451V25.2109Z" fill="#E42229"/>
<path fill-rule="evenodd" clip-rule="evenodd" d="M9.64551 0.210938H29.7455V25.2109H9.64551V0.210938Z" fill="#FEFEFE"/>
<path fill-rule="evenodd" clip-rule="evenodd" d="M19.7449 3.41016L18.4449 6.31016C18.3449 6.61016 18.0449 6.61016 17.7449 6.41016L16.7449 5.81016L17.4449 10.2102C17.6449 11.0102 17.1449 11.0102 16.8449 10.7102L15.1449 8.51016L14.8449 9.61016C14.8449 9.71016 14.6449 9.91016 14.4449 9.91016L12.3449 9.41016L12.9449 11.8102C13.0449 12.3102 13.1449 12.5102 12.8449 12.7102L12.0449 13.1102L15.6449 16.6102C15.7449 16.7102 15.8449 17.0102 15.8449 17.2102L15.5449 18.4102C16.7449 18.2102 17.9449 18.1102 19.1449 17.9102C19.2449 17.9102 19.4449 18.0102 19.4449 18.2102L19.2449 22.7102H19.8449L19.7449 18.2102C19.7449 18.1102 19.9449 17.9102 20.0449 17.9102C21.2449 18.1102 22.4449 18.2102 23.6449 18.4102L23.3449 17.2102C23.3449 17.0102 23.3449 16.8102 23.5449 16.6102L27.1449 13.1102L26.3449 12.7102C26.0449 12.6102 26.1449 12.3102 26.2449 11.8102L26.8449 9.41016L24.7449 9.91016C24.5449 9.91016 24.4449 9.81016 24.3449 9.61016L24.0449 8.51016L22.3449 10.7102C22.1449 11.0102 21.6449 11.0102 21.7449 10.2102L22.7449 5.91016L21.7449 6.51016C21.4449 6.71016 21.2449 6.71016 21.0449 6.41016L19.7449 3.41016Z" fill="#E42229"/>
</g>
</g>
<defs>
<clipPath id="clip0_26003_54231">
<rect width="38" height="25" fill="white" transform="translate(0.745117 0.210938)"/>
</clipPath>
<clipPath id="clip1_26003_54231">
<rect width="38" height="25" fill="white" transform="translate(0.745117 0.210938)"/>
</clipPath>
</defs>
</svg>
