<svg width="38" height="26" viewBox="0 0 38 26" fill="none" xmlns="http://www.w3.org/2000/svg">
<g clip-path="url(#clip0_26003_91269)">
<g clip-path="url(#clip1_26003_91269)">
<path d="M35.15 25.5H2.85002C2.47491 25.5 2.10349 25.426 1.75706 25.2821C1.41062 25.1383 1.096 24.9274 0.831219 24.6617C0.566441 24.396 0.356721 24.0807 0.214084 23.7337C0.0714475 23.3868 -0.00129863 23.0151 1.75455e-05 22.64V3.36C-0.00129863 2.98489 0.0714475 2.61321 0.214084 2.26628C0.356721 1.91935 0.566441 1.60399 0.831219 1.33828C1.096 1.07257 1.41062 0.861747 1.75706 0.717896C2.10349 0.574045 2.47491 0.499998 2.85002 0.5L35.16 0.5C35.5343 0.501311 35.9046 0.576327 36.2499 0.720765C36.5952 0.865204 36.9086 1.07624 37.1723 1.34181C37.4361 1.60739 37.6449 1.92231 37.7869 2.26859C37.9289 2.61487 38.0013 2.98573 38 3.36V22.64C38.0013 23.0151 37.9286 23.3868 37.786 23.7337C37.6433 24.0807 37.4336 24.396 37.1688 24.6617C36.904 24.9274 36.5894 25.1383 36.243 25.2821C35.8965 25.426 35.5251 25.5 35.15 25.5Z" fill="#F9D22D"/>
<path d="M38 16.2898L1.23 1.00977C0.850445 1.27303 0.540303 1.6243 0.3261 2.03355C0.111897 2.4428 6.87273e-06 2.89785 0 3.35977L0 5.10977L38 20.8998V16.2898Z" fill="#F5F5F5"/>
<path d="M38 22.6394V20.8894L0 5.10938V9.71938L36.77 24.9994C37.1485 24.7328 37.4577 24.3794 37.6717 23.9688C37.8857 23.5582 37.9983 23.1024 38 22.6394Z" fill="#313135"/>
<path d="M22.6803 11.83V11.81L22.6503 11.55C22.6286 11.304 22.5748 11.062 22.4903 10.83C22.3903 10.53 22.2403 10.18 21.9803 9.84L21.8803 9.71C22.0303 9.54 22.1703 9.34 22.3103 9.1C22.3103 9.1 21.5603 9.13 20.7203 8.77C20.4328 8.6182 20.1269 8.50393 19.8103 8.43L19.6503 7.8C19.6347 7.73475 19.5976 7.67664 19.545 7.63495C19.4924 7.59325 19.4274 7.57038 19.3603 7.57H19.1403V7.27H20.1903L19.8903 6.66L20.1903 6.05H19.1403V5.75H18.8403V7.56H18.6203C18.5527 7.55854 18.4868 7.58072 18.4338 7.62272C18.3809 7.66471 18.3443 7.72388 18.3303 7.79L18.1803 8.41C17.8011 8.48384 17.4385 8.62616 17.1103 8.83C16.3403 9.13 15.6803 9.1 15.6803 9.1C15.8203 9.34 15.9603 9.54 16.1103 9.71L16.0203 9.82C15.8103 10.1 15.6503 10.41 15.5303 10.75C15.4144 11.0858 15.3438 11.4355 15.3203 11.79V12.08L15.3403 12.35C15.3503 12.53 15.3903 12.71 15.4303 12.89C15.6171 13.5934 16.0019 14.2283 16.5391 14.7194C17.0762 15.2104 17.743 15.5369 18.4603 15.66C18.6603 15.7 18.7803 15.7 18.9303 15.71H19.0703L19.1903 15.7C19.2703 15.69 19.3603 15.7 19.4403 15.68C20.2047 15.5966 20.9225 15.2712 21.4891 14.7514C22.0557 14.2316 22.4415 13.5444 22.5903 12.79C22.6303 12.63 22.6503 12.49 22.6603 12.36L22.6803 12.05V11.83ZM17.2103 13.96C16.7548 13.6199 16.4101 13.1526 16.2197 12.617C16.0293 12.0813 16.0017 11.5013 16.1403 10.95C16.2103 10.66 16.3203 10.39 16.4703 10.13L16.5003 10.09C17.1803 10.63 17.9103 10.59 18.4103 10.33V10.92C18.5803 10.92 18.7103 11.26 18.7103 11.68C18.7103 12.1 18.5803 12.44 18.4103 12.44V12.74C18.9803 13.5 18.7203 14.13 18.3703 14.51C17.9429 14.429 17.5435 14.2396 17.2103 13.96ZM21.9503 11.8L21.9303 12.03C21.9303 12.11 21.9103 12.19 21.8903 12.28C21.8803 12.37 21.8403 12.47 21.8003 12.59C21.63 13.061 21.3406 13.4799 20.9604 13.8059C20.5801 14.1318 20.1218 14.3538 19.6303 14.45C19.2903 14.07 19.0603 13.45 19.6103 12.71V12.41C19.4403 12.41 19.3103 12.07 19.3103 11.65C19.3103 11.23 19.4403 10.89 19.6103 10.89V10.31C20.1103 10.57 20.8403 10.61 21.5203 10.07L21.5603 10.13C21.7641 10.5085 21.8931 10.9227 21.9403 11.35C21.9503 11.45 21.9603 11.53 21.9503 11.6V11.8Z" fill="#F92D40"/>
<path d="M19.0001 16.35C17.9334 16.3483 16.9073 15.9407 16.1301 15.21C16.0967 15.1804 16.0577 15.1578 16.0154 15.1433C15.9732 15.1288 15.9285 15.1228 15.8839 15.1256C15.8394 15.1283 15.7958 15.1399 15.7557 15.1595C15.7155 15.1792 15.6797 15.2065 15.6501 15.24L14.5001 16.59C14.3801 16.73 14.4801 16.96 14.6701 16.96H15.4001L16.3701 17.45C16.5101 17.52 16.6701 17.47 16.7601 17.35L17.0701 16.88C17.6879 17.138 18.3507 17.2708 19.0201 17.2708C19.6896 17.2708 20.3524 17.138 20.9701 16.88L21.2801 17.35C21.3212 17.4121 21.3838 17.4567 21.4559 17.4751C21.5279 17.4936 21.6043 17.4847 21.6701 17.45L22.6401 16.96H23.3701C23.5601 16.96 23.6601 16.74 23.5401 16.59L22.3901 15.24C22.3606 15.2065 22.3248 15.1792 22.2846 15.1595C22.2445 15.1399 22.2009 15.1283 22.1564 15.1256C22.1118 15.1228 22.0671 15.1288 22.0249 15.1433C21.9826 15.1578 21.9436 15.1804 21.9101 15.21C21.1159 15.939 20.0782 16.3455 19.0001 16.35ZM14.7801 15.14H13.2701L13.5701 12.42C13.5701 12.42 12.5201 11.89 12.6301 10.34C12.6353 10.248 12.6754 10.1615 12.7424 10.0983C12.8094 10.035 12.898 9.99986 12.9901 10H13.2501C13.4301 10 13.5801 10.13 13.6101 10.31C13.6701 10.69 13.8701 11.31 14.4801 11.52L14.7801 15.14ZM23.2201 15.14H24.7301L24.4301 12.42C24.4301 12.42 25.4801 11.89 25.3701 10.34C25.365 10.248 25.3249 10.1615 25.2579 10.0983C25.1909 10.035 25.1023 9.99986 25.0101 10H24.7501C24.6633 10.0012 24.5796 10.0329 24.5138 10.0896C24.448 10.1463 24.4042 10.2243 24.3901 10.31C24.3301 10.69 24.1301 11.31 23.5201 11.52L23.2201 15.14Z" fill="#F92D40"/>
<path d="M14.9297 15.4406H13.1197C13.0799 15.4406 13.0418 15.4248 13.0137 15.3967C12.9855 15.3686 12.9697 15.3304 12.9697 15.2906C12.9697 15.2106 13.0397 15.1406 13.1197 15.1406H14.9297C15.0097 15.1406 15.0797 15.2106 15.0797 15.2906C15.0797 15.3806 15.0197 15.4406 14.9297 15.4406ZM24.8697 15.4406H23.0597C23.0199 15.4406 22.9818 15.4248 22.9537 15.3967C22.9255 15.3686 22.9097 15.3304 22.9097 15.2906C22.9097 15.2106 22.9797 15.1406 23.0597 15.1406H24.8697C24.9497 15.1406 25.0197 15.2106 25.0197 15.2906C25.0197 15.3806 24.9597 15.4406 24.8697 15.4406Z" fill="#FFE15A"/>
</g>
</g>
<defs>
<clipPath id="clip0_26003_91269">
<rect width="38" height="25" fill="white" transform="translate(0 0.5)"/>
</clipPath>
<clipPath id="clip1_26003_91269">
<rect width="38" height="25" fill="white" transform="translate(0 0.5)"/>
</clipPath>
</defs>
</svg>
