<svg width="39" height="26" viewBox="0 0 39 26" fill="none" xmlns="http://www.w3.org/2000/svg">
<g clip-path="url(#clip0_26003_53545)">
<g clip-path="url(#clip1_26003_53545)">
<path d="M35.9451 25.2109H3.54512C2.04512 25.2109 0.745117 23.9109 0.745117 22.3109V3.11094C0.745117 1.51094 2.04512 0.210938 3.54512 0.210938H35.8451C37.4451 0.210938 38.7451 1.51094 38.7451 3.11094V22.4109C38.7451 23.9109 37.4451 25.2109 35.9451 25.2109Z" fill="#1864D3"/>
<path d="M0.745117 17.3105H38.7451V18.6105H0.745117V17.3105ZM0.745117 19.9105H38.7451V21.2105H0.745117V19.9105Z" fill="#F9D12B"/>
<path d="M5.54551 6.71133L3.14551 5.91133L5.54551 5.11133L6.44551 2.61133L7.24551 5.11133L9.64551 5.91133L7.24551 6.71133L6.44551 9.21133L5.54551 6.71133Z" fill="#F93245"/>
<path d="M6.44512 3.11094L7.14512 5.21094L9.24512 5.91094L7.14512 6.61094L6.44512 8.71094L5.74512 6.61094L3.54512 5.91094L5.74512 5.21094L6.44512 3.11094ZM6.44512 2.21094L6.14512 3.01094L5.44512 5.01094L3.44512 5.71094L2.74512 5.91094L3.54512 6.21094L5.54512 6.91094L6.24512 8.91094L6.54512 9.71094L6.84512 8.91094L7.54512 6.91094L9.54512 6.21094L10.3451 5.91094L9.34512 5.61094L7.34512 4.91094L6.64512 2.91094L6.44512 2.21094Z" fill="#F5F5F5"/>
</g>
</g>
<defs>
<clipPath id="clip0_26003_53545">
<rect width="38" height="25" fill="white" transform="translate(0.745117 0.210938)"/>
</clipPath>
<clipPath id="clip1_26003_53545">
<rect width="38" height="25" fill="white" transform="translate(0.745117 0.210938)"/>
</clipPath>
</defs>
</svg>
