<svg width="38" height="26" viewBox="0 0 38 26" fill="none" xmlns="http://www.w3.org/2000/svg">
<g clip-path="url(#clip0_26003_90403)">
<g clip-path="url(#clip1_26003_90403)">
<path fill-rule="evenodd" clip-rule="evenodd" d="M2.5 25.5H35.5C36.8 25.3 37.8 24.1 38 22.6V3.4C37.8 1.9 36.8 0.7 35.5 0.5H2.5C1.2 0.7 0.2 1.9 0 3.4V22.6C0.2 24.1 1.2 25.3 2.5 25.5Z" fill="#FEFEFE"/>
<path fill-rule="evenodd" clip-rule="evenodd" d="M9.5 25.5H35.5C36.8 25.3 37.8 24.1 38 22.6V3.4C37.8 1.9 36.8 0.7 35.5 0.5H9.5V25.5Z" fill="#2E6F3A"/>
<path fill-rule="evenodd" clip-rule="evenodd" d="M29.1996 16.1004C28.1996 18.7004 25.7996 20.5004 23.1996 20.5004C19.4996 20.5004 16.5996 17.1004 16.5996 13.0004C16.5996 9.70039 18.4996 6.80039 21.1996 5.90039L20.8996 6.20039C19.6902 7.50096 18.9772 9.18581 18.8858 10.9595C18.7944 12.7331 19.3303 14.4824 20.3996 15.9004C22.5996 18.7004 26.4996 19.0004 28.9996 16.5004C28.9996 16.3004 29.0996 16.2004 29.1996 16.1004ZM28.0996 8.00039L26.0996 9.00039L26.4996 10.2004L28.0996 8.00039Z" fill="#FEFEFE"/>
<path fill-rule="evenodd" clip-rule="evenodd" d="M28.1 8L27 10.2L26 9.5L28.1 8Z" fill="#FEFEFE"/>
<path fill-rule="evenodd" clip-rule="evenodd" d="M28.3996 10.8996L26.8996 9.09961L26.0996 9.89961L28.3996 10.8996Z" fill="#FEFEFE"/>
<path fill-rule="evenodd" clip-rule="evenodd" d="M28.4002 10.8992L26.2002 10.3992L26.4002 9.19922L28.4002 10.8992Z" fill="#FEFEFE"/>
<path fill-rule="evenodd" clip-rule="evenodd" d="M25.5996 7.40039L25.7996 9.90039L26.8996 9.80039L25.5996 7.40039Z" fill="#FEFEFE"/>
<path fill-rule="evenodd" clip-rule="evenodd" d="M25.5996 7.40039L26.9996 9.30039L26.1996 10.1004L25.5996 7.40039Z" fill="#FEFEFE"/>
<path fill-rule="evenodd" clip-rule="evenodd" d="M26 12.1008L27.1 10.0008L26.1 9.30078L26 12.1008Z" fill="#FEFEFE"/>
<path fill-rule="evenodd" clip-rule="evenodd" d="M25.9998 12.1L25.7998 9.6L26.8998 9.5L25.9998 12.1Z" fill="#FEFEFE"/>
<path fill-rule="evenodd" clip-rule="evenodd" d="M24.2998 9.89922L26.3998 10.4992L26.6998 9.19922L24.2998 9.89922Z" fill="#FEFEFE"/>
<path fill-rule="evenodd" clip-rule="evenodd" d="M24.2998 9.90039L26.2998 8.90039L26.6998 10.1004L24.2998 9.90039Z" fill="#FEFEFE"/>
</g>
</g>
<defs>
<clipPath id="clip0_26003_90403">
<rect width="38" height="25" fill="white" transform="translate(0 0.5)"/>
</clipPath>
<clipPath id="clip1_26003_90403">
<rect width="38" height="25" fill="white" transform="translate(0 0.5)"/>
</clipPath>
</defs>
</svg>
