<svg width="38" height="26" viewBox="0 0 38 26" fill="none" xmlns="http://www.w3.org/2000/svg">
<g clip-path="url(#clip0_26003_70735)">
<g clip-path="url(#clip1_26003_70735)">
<path d="M35.2 0.5H19V25.5H35.2C36.8 25.5 38 24.2 38 22.6V3.4C38 1.8 36.7 0.5 35.2 0.5Z" fill="#F5F5F5"/>
<path d="M2.8 0.5C1.3 0.5 0 1.8 0 3.4V22.7C0 24.2 1.3 25.5 2.8 25.5H19V0.5H2.8Z" fill="#FFCE00"/>
<path d="M30.3002 6.90078C30.4002 7.10078 30.5002 7.10078 30.5002 7.20078V6.80078C30.4002 6.90078 30.4002 6.90078 30.3002 6.90078ZM26.9002 7.00078C26.8002 6.90078 26.7002 6.90078 26.7002 6.80078V7.20078L26.9002 7.00078Z" fill="#EBEBEB"/>
<path d="M26.9006 6.6C27.0006 6.6 27.1006 6.7 27.1006 6.8V6.9L27.2006 7C27.3006 6.9 27.5006 6.9 27.7006 6.9V6.8C27.6006 6.8 27.6006 6.7 27.6006 6.6C27.6006 6.5 27.7006 6.4 27.8006 6.4C27.9006 6.4 28.0006 6.5 28.0006 6.6C28.0006 6.7 28.0006 6.7 27.9006 6.7V6.8H28.2006V6.7C28.2006 6.4 28.4006 6.2 28.7006 6.2C29.0006 6.2 29.2006 6.4 29.2006 6.7V6.8H29.5006V6.7L29.4006 6.6C29.4006 6.5 29.5006 6.4 29.6006 6.4C29.7006 6.4 29.8006 6.5 29.8006 6.6C29.8006 6.7 29.7006 6.8 29.7006 6.8V6.9C29.9006 6.9 30.1006 7 30.2006 7L30.3006 6.9V6.8C30.3006 6.7 30.4006 6.6 30.5006 6.6C30.6006 6.6 30.6006 6.6 30.7006 6.7V6.4C30.5006 6.2 29.8006 6 28.8006 6C27.8006 6 27.1006 6.2 26.9006 6.4V6.7C26.7006 6.6 26.8006 6.6 26.9006 6.6Z" fill="#EBEBEB"/>
<path d="M28.9002 4.30156C28.9002 4.30156 29.0002 4.20156 29.0002 4.10156C29.0002 3.90156 28.9002 3.80156 28.7002 3.70156V3.50156C28.8002 3.50156 28.8002 3.40156 28.8002 3.30156C28.8002 3.20156 28.7002 3.10156 28.6002 3.10156C28.5002 3.10156 28.4002 3.20156 28.4002 3.30156C28.4002 3.40156 28.4002 3.40156 28.5002 3.50156V3.70156C28.3002 3.70156 28.2002 3.90156 28.2002 4.10156C28.2002 4.20156 28.2002 4.30156 28.3002 4.30156H28.9002Z" fill="#E6B432"/>
<path d="M27.7998 5.29844L27.5998 5.09844C27.5998 4.99844 27.6998 4.89844 27.7998 4.89844C27.8998 4.89844 27.9998 4.89844 27.9998 4.99844C27.9998 5.09844 27.9998 5.09844 27.8998 5.09844V5.19844H28.4998C28.2998 5.19844 28.1998 5.09844 28.1998 4.89844C28.1998 4.69844 28.2998 4.59844 28.4998 4.59844C28.6998 4.59844 28.7998 4.69844 28.7998 4.89844C28.7998 5.09844 28.6998 5.19844 28.4998 5.19844H29.0998V5.09844L28.9998 4.99844C28.9998 4.89844 29.0998 4.79844 29.1998 4.79844C29.2998 4.79844 29.3998 4.89844 29.3998 4.99844C29.3998 5.09844 29.2998 5.19844 29.2998 5.19844V5.29844C29.3998 5.29844 29.4998 5.29844 29.5998 5.39844L29.6998 5.09844C29.4998 4.69844 29.0998 4.49844 28.7998 4.39844H28.1998C27.7998 4.49844 27.4998 4.79844 27.2998 5.09844L27.3998 5.39844C27.5998 5.29844 27.6998 5.29844 27.7998 5.29844Z" fill="#EBEBEB"/>
<path d="M28.3998 20.9008V20.4008C28.2998 20.4008 28.2998 20.3008 28.1998 20.3008C28.0998 20.3008 28.0998 20.3008 27.9998 20.4008C27.8998 20.5008 27.7998 20.6008 27.7998 20.7008C27.7998 20.8008 27.7998 20.9008 27.8998 21.0008C27.9998 21.0008 28.0998 20.9008 28.1998 20.9008H28.3998ZM28.7998 19.4008C28.6998 19.5008 28.5998 19.6008 28.5998 19.7008C28.5998 19.8008 28.5998 19.9008 28.6998 20.0008C28.7998 20.0008 28.8998 19.9008 28.9998 19.9008C29.0998 19.9008 29.1998 19.9008 29.2998 20.0008C29.3998 19.9008 29.3998 19.8008 29.3998 19.7008C29.3998 19.6008 29.2998 19.4008 29.1998 19.4008C29.0998 19.4008 29.0998 19.3008 28.9998 19.3008C28.8998 19.3008 28.7998 19.4008 28.7998 19.4008Z" fill="#E6B432"/>
<path d="M28.6996 19.9984C28.5996 20.0984 28.4996 20.1984 28.3996 20.3984V20.8984H28.1996C28.0996 20.8984 27.9996 20.8984 27.8996 20.9984C27.6996 21.0984 27.5996 21.2984 27.5996 21.4984V22.2984H28.6996V21.2984H29.4996V20.4984C29.4996 20.2984 29.3996 20.0984 29.1996 19.9984C29.0996 19.9984 28.9996 19.8984 28.8996 19.8984C28.8996 19.8984 28.7996 19.8984 28.6996 19.9984Z" fill="#FF4B57"/>
<path d="M28.8004 12.2984L29.1004 12.5984L29.2004 12.4984H29.3004L30.9004 10.8984L31.9004 11.8984L32.6004 11.1984L32.3004 10.8984L32.2004 10.9984L31.9004 10.6984L32.0004 10.5984L31.9004 10.4984L32.2004 10.1984L32.3004 10.2984L32.4004 10.1984L32.7004 10.4984L32.6004 10.5984L32.9004 10.8984L33.6004 10.1984L32.6004 9.19844L33.2004 8.49844C33.2004 8.49844 33.1004 8.49844 33.1004 8.39844L32.7004 7.99844C32.7004 7.99844 32.7004 7.89844 32.6004 7.89844L28.6004 11.8984V11.9984L28.8004 12.2984ZM28.3004 13.4984L27.8004 12.9984L26.1004 14.6984C26.0004 14.7984 26.0004 15.0984 26.1004 15.1984C26.2004 15.2984 26.3004 15.2984 26.4004 15.2984C26.5004 15.2984 26.6004 15.2984 26.7004 15.1984L28.0004 13.8984L28.3004 13.4984Z" fill="#E6B432"/>
<path d="M23.1 15.4C23.2 15.4 23.2 15.4 23.1 15.4C23.1 15.1 23 15 22.8 15C22.6 15 22.5 15.1 22.5 15.3C22.5 15.5 22.6 15.6 22.8 15.6H22.9C23 15.5 23.1 15.5 23.1 15.4ZM23 18.1C22.9 18.1 22.9 18.1 23 18.1C22.7 18.1 22.6 18.2 22.6 18.4C22.6 18.6 22.7 18.7 22.9 18.7C23.1 18.7 23.2 18.6 23.2 18.4V18.3C23.1 18.2 23 18.2 23 18.1ZM25.8 15.6C25.9 15.6 25.9 15.6 25.8 15.6C26.1 15.6 26.2 15.5 26.2 15.3C26.2 15.1 26.1 15 25.9 15C25.7 15 25.6 15.1 25.6 15.3V15.4C25.7 15.5 25.8 15.5 25.8 15.6ZM25.6 18.4C25.6 18.6 25.7 18.7 25.9 18.7C26 18.7 26.1 18.7 26.1 18.6C26 18.5 25.8 18.4 25.6 18.4Z" fill="#D2D2D2"/>
<path d="M25.2 18.1008L25.1 18.0008H25C24.8 18.0008 24.6 17.8008 24.5 17.6008C24.4 17.7008 24.4 17.7008 24.3 17.7008C24.2 17.7008 24.1 17.7008 24.1 17.6008C24.1 17.8008 23.9 18.0008 23.6 18.0008C23.3 18.0008 23.1 17.8008 23.1 17.5008C23.1 17.3008 23.3 17.1008 23.5 17.0008C23.4 16.9008 23.4 16.9008 23.4 16.8008C23.4 16.7008 23.4 16.6008 23.5 16.6008C23.3 16.6008 23.1 16.4008 23.1 16.1008C23.1 15.8008 23.3 15.6008 23.6 15.6008C23.8 15.6008 24 15.8008 24.1 16.0008C24.2 15.9008 24.2 15.9008 24.3 15.9008C24.4 15.9008 24.5 15.9008 24.5 16.0008C24.5 15.8008 24.7 15.6008 25 15.6008C25.3 15.6008 25.5 15.8008 25.5 16.1008C25.5 16.3008 25.3 16.5008 25.1 16.6008C25.2 16.7008 25.2 16.7008 25.2 16.8008C25.2 16.9008 25.2 17.0008 25.1 17.0008C25.3 17.0008 25.5 17.2008 25.5 17.5008C25.5 17.6008 25.5 17.7008 25.4 17.8008C25.5 17.9008 25.7 18.0008 25.8 18.0008C25.8 17.9008 25.9 17.9008 25.9 17.8008C26 17.6008 26.1 17.4008 26.2 17.1008V16.8008C26.2 16.3008 26 15.9008 25.7 15.5008L25.5 15.3008C25.2 15.0008 24.7 14.8008 24.2 14.8008C23.7 14.8008 23.3 15.0008 22.9 15.3008C23.1 15.5008 23 15.5008 23 15.6008C22.7 15.9008 22.5 16.4008 22.5 16.9008C22.5 17.4008 22.7 17.8008 23 18.2008L23.2 18.4008C23.5 18.7008 24 18.9008 24.5 18.9008C25 18.9008 25.4 18.7008 25.7 18.5008C25.5 18.3008 25.3 18.2008 25.2 18.1008ZM25.9 16.5008C25.9 16.6008 26 16.8008 26 16.9008C26 17.0008 26 17.2008 25.9 17.3008C25.8 17.1008 25.8 17.0008 25.6 16.9008C25.7 16.8008 25.8 16.6008 25.9 16.5008ZM24.8 15.4008C24.6 15.5008 24.5 15.5008 24.4 15.7008C24.3 15.6008 24.2 15.5008 24 15.4008C24.1 15.4008 24.3 15.3008 24.4 15.3008C24.5 15.3008 24.7 15.4008 24.8 15.4008ZM22.9 16.5008C23 16.7008 23 16.8008 23.2 16.9008C23.1 17.0008 23 17.1008 22.9 17.3008C22.9 17.2008 22.8 17.0008 22.8 16.9008C22.9 16.7008 22.9 16.6008 22.9 16.5008ZM24 18.3008C24.2 18.2008 24.3 18.2008 24.4 18.0008C24.5 18.1008 24.6 18.2008 24.8 18.3008C24.7 18.3008 24.5 18.4008 24.4 18.4008C24.3 18.4008 24.1 18.4008 24 18.3008Z" fill="#E6B432"/>
<path d="M24.1 16.9C24.1 16.7 24 16.6 23.8 16.6C23.7 16.6 23.7 16.6 23.6 16.7C23.5 16.8 23.5 16.8 23.5 16.9C23.5 17 23.5 17.1 23.6 17.1C23.7 17.2 23.7 17.2 23.8 17.2C24 17.2 24.1 17 24.1 16.9ZM24.7 16.9C24.7 17.1 24.8 17.2 25 17.2C25.1 17.2 25.1 17.2 25.2 17.1C25.3 17 25.3 17 25.3 16.9C25.3 16.8 25.3 16.7 25.2 16.7C25.1 16.6 25.1 16.6 25 16.6C24.8 16.6 24.7 16.7 24.7 16.9ZM24.4 16.6C24.6 16.6 24.7 16.5 24.7 16.3C24.7 16.2 24.7 16.2 24.6 16.1C24.5 16 24.5 16 24.4 16C24.3 16 24.2 16 24.2 16.1C24.1 16.2 24.1 16.2 24.1 16.3C24.1 16.5 24.2 16.6 24.4 16.6ZM24.4 17.2C24.2 17.2 24.1 17.3 24.1 17.5C24.1 17.6 24.1 17.6 24.2 17.7C24.3 17.8 24.3 17.8 24.4 17.8C24.5 17.8 24.6 17.8 24.6 17.7C24.7 17.6 24.7 17.6 24.7 17.5C24.7 17.3 24.6 17.2 24.4 17.2Z" fill="#F0C814"/>
<path d="M33.0996 8.50078C33.1996 8.50078 33.1996 8.50078 33.0996 8.50078C33.1996 8.60078 33.2996 8.60078 33.2996 8.60078C33.3996 8.60078 33.3996 8.60078 33.4996 8.50078C33.5996 8.40078 33.5996 8.20078 33.4996 8.10078L33.5996 7.70078C33.6996 7.70078 33.7996 7.60078 33.7996 7.50078C33.7996 7.40078 33.6996 7.30078 33.5996 7.30078C33.4996 7.30078 33.4996 7.40078 33.4996 7.50078L33.0996 7.60078C33.0446 7.55159 32.9734 7.52439 32.8996 7.52439C32.8258 7.52439 32.7546 7.55159 32.6996 7.60078C32.5996 7.70078 32.5996 7.80078 32.5996 7.90078C32.5996 7.90078 32.5996 8.00078 32.6996 8.00078L33.0996 8.50078ZM28.3996 13.0008V12.0008L24.3996 8.00078C24.3996 8.00078 24.3996 8.10078 24.2996 8.10078L23.9996 8.50078H23.8996L24.5996 9.20078L23.5996 10.2008L24.2996 10.9008L24.5996 10.6008L24.4996 10.5008L24.7996 10.2008L24.8996 10.3008H24.9996L25.2996 10.6008L25.1996 10.7008L25.2996 10.8008L24.9996 11.1008L24.8996 11.0008L24.5996 11.3008L25.2996 12.0008L26.2996 11.0008L27.8996 12.6008H27.9996L28.3996 13.0008ZM28.7996 13.5008L29.1996 13.9008L30.4996 15.2008C30.5996 15.3008 30.6996 15.3008 30.7996 15.3008C30.8996 15.3008 30.9996 15.3008 31.0996 15.2008C31.1996 15.1008 31.1996 14.8008 31.0996 14.7008L29.3996 13.0008L28.7996 13.5008ZM28.7996 12.9008V13.0008L29.0996 12.6008L28.7996 12.3008V12.9008ZM34.1996 15.6008C34.4996 15.6008 34.5996 15.5008 34.5996 15.3008C34.5996 15.1008 34.4996 15.0008 34.2996 15.0008C34.0996 15.0008 33.9996 15.2008 33.9996 15.3008V15.4008L34.1996 15.6008ZM34.2996 18.1008C34.1996 18.1008 34.1996 18.1008 34.2996 18.1008C34.1996 18.2008 34.0996 18.2008 33.9996 18.3008V18.4008C33.9996 18.6008 34.0996 18.7008 34.2996 18.7008C34.4996 18.7008 34.5996 18.6008 34.5996 18.4008C34.5996 18.2008 34.3996 18.1008 34.2996 18.1008Z" fill="#D2D2D2"/>
<path d="M31.4994 15.4C31.4994 15.1 31.3994 15 31.1994 15C30.9994 15 30.8994 15.1 30.8994 15.3C30.8994 15.5 30.9994 15.6 31.1994 15.6H31.2994L31.4994 15.4ZM31.1994 18.7C31.3994 18.7 31.4994 18.6 31.4994 18.4C31.2994 18.5 31.1994 18.6 30.9994 18.6C31.0994 18.6 31.1994 18.7 31.1994 18.7Z" fill="#D2D2D2"/>
<path d="M34.2002 18.0984C34.5002 17.7984 34.7002 17.2984 34.7002 16.7984C34.7002 16.2984 34.5002 15.8984 34.2002 15.4984C34.1002 15.4984 34.1002 15.4984 34.0002 15.3984C33.7002 15.0984 33.2002 14.8984 32.7002 14.8984C32.2002 14.8984 31.8002 15.0984 31.4002 15.3984L31.2002 15.5984C30.9002 15.8984 30.7002 16.3984 30.7002 16.8984V17.1984C30.7002 17.3984 30.8002 17.6984 31.0002 17.8984C31.0002 17.9984 31.1002 17.9984 31.1002 18.0984C31.3002 17.9984 31.4002 17.8984 31.5002 17.8984C31.4002 17.7984 31.4002 17.6984 31.4002 17.5984C31.4002 17.3984 31.6002 17.1984 31.8002 17.0984C31.7002 16.9984 31.7002 16.9984 31.7002 16.8984C31.7002 16.7984 31.7002 16.6984 31.8002 16.6984C31.6002 16.6984 31.4002 16.4984 31.4002 16.1984C31.4002 15.8984 31.6002 15.6984 31.9002 15.6984C32.1002 15.6984 32.3002 15.8984 32.4002 16.0984C32.5002 15.9984 32.5002 15.9984 32.6002 15.9984C32.7002 15.9984 32.8002 15.9984 32.8002 16.0984C32.8002 15.8984 33.0002 15.6984 33.3002 15.6984C33.6002 15.6984 33.8002 15.8984 33.8002 16.1984C33.8002 16.3984 33.6002 16.5984 33.4002 16.6984C33.5002 16.7984 33.5002 16.7984 33.5002 16.8984C33.5002 16.9984 33.5002 17.0984 33.4002 17.0984C33.6002 17.0984 33.8002 17.2984 33.8002 17.5984C33.8002 17.8984 33.6002 18.0984 33.3002 18.0984C33.1002 18.0984 32.9002 17.8984 32.8002 17.6984C32.7002 17.7984 32.7002 17.7984 32.6002 17.7984C32.5002 17.7984 32.4002 17.7984 32.4002 17.6984C32.4002 17.8984 32.2002 18.0984 31.9002 18.0984H31.8002C31.8002 18.0984 31.8002 18.1984 31.7002 18.1984C31.6002 18.2984 31.5002 18.3984 31.3002 18.3984C31.6002 18.6984 32.0002 18.7984 32.5002 18.7984C33.0002 18.7984 33.4002 18.5984 33.8002 18.2984C34.1002 18.1984 34.1002 18.1984 34.2002 18.0984ZM31.3002 17.2984C31.3002 17.1984 31.2002 16.9984 31.2002 16.8984C31.2002 16.7984 31.2002 16.5984 31.3002 16.4984C31.4002 16.6984 31.4002 16.7984 31.6002 16.8984C31.4002 16.9984 31.3002 17.0984 31.3002 17.2984ZM32.8002 15.6984C32.7002 15.5984 32.6002 15.4984 32.4002 15.3984C32.5002 15.3984 32.7002 15.2984 32.8002 15.2984C32.9002 15.2984 33.1002 15.2984 33.2002 15.3984C33.0002 15.3984 32.9002 15.4984 32.8002 15.6984ZM34.2002 16.4984C34.2002 16.5984 34.3002 16.7984 34.3002 16.8984C34.3002 16.9984 34.3002 17.1984 34.2002 17.2984C34.1002 17.0984 34.1002 16.9984 33.9002 16.8984C34.1002 16.7984 34.2002 16.5984 34.2002 16.4984ZM32.4002 18.2984C32.6002 18.1984 32.7002 18.1984 32.8002 17.9984C32.9002 18.0984 33.0002 18.1984 33.2002 18.2984C33.1002 18.2984 32.9002 18.3984 32.8002 18.3984C32.6002 18.3984 32.5002 18.3984 32.4002 18.2984Z" fill="#E6B432"/>
<path d="M33.0004 16.9C33.0004 17.1 33.1004 17.2 33.3004 17.2C33.4004 17.2 33.4004 17.2 33.5004 17.1C33.6004 17 33.6004 17 33.6004 16.9C33.6004 16.8 33.6004 16.7 33.5004 16.7C33.4004 16.6 33.4004 16.6 33.3004 16.6C33.2004 16.6 33.0004 16.7 33.0004 16.9ZM32.5004 16.9C32.5004 16.7 32.4004 16.6 32.2004 16.6C32.1004 16.6 32.1004 16.6 32.0004 16.7C31.9004 16.8 31.9004 16.8 31.9004 16.9C31.9004 17 31.9004 17.1 32.0004 17.1C32.1004 17.2 32.1004 17.2 32.2004 17.2C32.3004 17.2 32.5004 17 32.5004 16.9ZM32.8004 16.6C33.0004 16.6 33.1004 16.5 33.1004 16.3C33.1004 16.2 33.1004 16.2 33.0004 16.1C32.9004 16 32.9004 16 32.8004 16C32.7004 16 32.6004 16 32.6004 16.1C32.5004 16.2 32.5004 16.2 32.5004 16.3C32.5004 16.5 32.6004 16.6 32.8004 16.6ZM32.8004 17.2C32.6004 17.2 32.5004 17.3 32.5004 17.5C32.5004 17.6 32.5004 17.6 32.6004 17.7C32.7004 17.8 32.7004 17.8 32.8004 17.8C32.9004 17.8 33.0004 17.8 33.0004 17.7V17.4C33.0004 17.3 32.9004 17.2 32.8004 17.2Z" fill="#F0C814"/>
<path d="M24.4002 8.09844C24.5002 7.89844 24.5002 7.79844 24.4002 7.69844C24.3002 7.59844 24.2002 7.59844 24.0002 7.69844L23.6002 7.59844C23.6002 7.49844 23.5002 7.39844 23.4002 7.39844C23.3002 7.39844 23.2002 7.49844 23.2002 7.59844C23.2002 7.69844 23.3002 7.79844 23.4002 7.79844L23.5002 8.19844C23.4002 8.29844 23.4002 8.49844 23.5002 8.59844C23.6002 8.69844 23.6002 8.69844 23.7002 8.69844H23.8002L24.0002 8.49844L24.4002 8.09844Z" fill="#36A83A"/>
<path d="M31.9002 18.1L32.0002 18V17.9C31.9002 17.8 31.8002 17.8 31.7002 17.9C30.9226 18.2996 30.0722 18.5377 29.2002 18.6V15.9C29.7573 16.6679 30.4323 17.3429 31.2002 17.9C31.1002 17.7 31.0002 17.5 30.9002 17.2C30.4002 16.8 29.8002 16.2 29.2002 15.2V13.8L28.8002 13.5L29.3002 13L29.4002 12.9C29.5002 12.8 29.5002 12.7 29.4002 12.6C29.4002 12.6 29.3002 12.5 29.2002 12.6H29.1002L29.0002 12.7L28.7002 13V12.1L28.6002 12C28.5002 12 28.5002 12 28.5002 12.1V13.1L28.0002 12.5H27.7002C27.6002 12.6 27.6002 12.7 27.7002 12.8L27.8002 12.9L28.3002 13.4L28.0002 13.8V15.2C27.4002 16.2 26.7002 16.8 26.3002 17.2C26.3002 17.4 26.2002 17.7 26.0002 17.9C26.4002 17.7 27.2002 17.1 28.0002 15.9V18.6C27.2002 18.5 26.4002 18.4 25.9002 18.1C25.7002 18 25.6002 17.9 25.5002 17.9C25.4002 17.8 25.3002 17.9 25.2002 17.9V18.1C25.2002 18.1 25.2002 18.2 25.3002 18.2C25.4002 18.3 25.5002 18.4 25.7002 18.4C25.9002 18.5 26.0002 18.6 26.2002 18.6C26.7002 18.8 27.4002 18.9 28.1002 19V20.4C28.2002 20.4 28.2002 20.3 28.3002 20.3C28.4002 20.3 28.4002 20.3 28.5002 20.4V19H28.9002V19.4C29.0002 19.4 29.0002 19.3 29.1002 19.3C29.2002 19.3 29.2002 19.3 29.3002 19.4V18.9C30.0002 18.9 30.6002 18.7 31.2002 18.5C31.4002 18.4 31.5002 18.4 31.7002 18.3L31.9002 18.1ZM28.6002 18.6H28.4002V15.3C28.5002 15.2 28.5002 15.1 28.6002 15C28.7002 15.1 28.7002 15.2 28.8002 15.3V18.6H28.6002Z" fill="#FF4B55"/>
<path d="M28.5996 7.69922C29.5996 7.69922 30.4996 7.89922 30.4996 8.09922V7.29922C30.4996 7.19922 30.3996 7.09922 30.2996 7.09922V6.99922C30.3996 6.99922 30.3996 6.99922 30.4996 6.89922V6.69922C30.4996 6.59922 30.3996 6.59922 30.2996 6.59922C30.1996 6.59922 30.0996 6.69922 30.0996 6.79922V6.89922L29.9996 6.99922C29.8996 6.89922 29.6996 6.89922 29.4996 6.89922V6.79922C29.5996 6.79922 29.5996 6.69922 29.5996 6.59922C29.5996 6.49922 29.4996 6.39922 29.3996 6.39922C29.2996 6.39922 29.2996 6.49922 29.2996 6.59922C29.2996 6.69922 29.2996 6.69922 29.3996 6.69922V6.79922H29.0996V6.69922C29.0996 6.39922 28.8996 6.19922 28.5996 6.19922C28.2996 6.19922 28.0996 6.39922 28.0996 6.69922V6.79922H27.7996V6.69922L27.8996 6.59922C27.8996 6.49922 27.7996 6.39922 27.6996 6.39922C27.5996 6.39922 27.4996 6.49922 27.4996 6.59922C27.4996 6.69922 27.5996 6.79922 27.5996 6.79922V6.89922C27.3996 6.89922 27.1996 6.99922 27.0996 6.99922L26.9996 6.89922V6.79922C26.9996 6.69922 26.8996 6.59922 26.7996 6.59922C26.6996 6.59922 26.6996 6.59922 26.5996 6.69922V6.89922C26.5996 6.99922 26.6996 6.99922 26.7996 6.99922V7.09922L26.5996 7.29922V8.09922C26.6996 7.79922 27.4996 7.69922 28.5996 7.69922Z" fill="#E6B432"/>
<path d="M27.0998 8.50078V8.60078L27.1998 8.70078C27.2998 8.60078 27.4998 8.60078 27.6998 8.50078V8.40078C27.5998 8.40078 27.5998 8.30078 27.5998 8.20078C27.5998 8.10078 27.6998 8.00078 27.7998 8.00078C27.8998 8.00078 27.9998 8.10078 27.9998 8.20078C27.9998 8.30078 27.9998 8.30078 27.8998 8.30078V8.40078C27.9998 8.50078 28.1998 8.50078 28.3998 8.50078V8.30078C28.2998 8.20078 28.2998 8.20078 28.2998 8.10078C28.2998 7.90078 28.3998 7.80078 28.5998 7.80078C28.7998 7.80078 28.8998 7.90078 28.8998 8.10078C28.8998 8.20078 28.8998 8.30078 28.7998 8.30078V8.50078H29.3998V8.40078L29.2998 8.30078C29.2998 8.20078 29.3998 8.10078 29.4998 8.10078C29.5998 8.10078 29.6998 8.20078 29.6998 8.30078C29.6998 8.40078 29.5998 8.50078 29.5998 8.50078V8.60078C29.7998 8.60078 29.9998 8.70078 30.0998 8.80078L30.1998 8.70078V8.60078C30.1998 8.50078 30.2998 8.40078 30.3998 8.40078H30.4998C30.4998 8.30078 30.5998 8.20078 30.5998 8.20078C30.5998 8.00078 29.6998 7.80078 28.6998 7.80078C27.6998 7.80078 26.7998 8.00078 26.7998 8.20078C26.7998 8.20078 26.7998 8.30078 26.8998 8.40078H26.9998C26.9998 8.30078 27.0998 8.40078 27.0998 8.50078Z" fill="#EBEBEB"/>
<path d="M26.7002 8.50078C26.7002 8.60078 26.8002 8.70078 26.9002 8.70078L27.0002 8.90078L26.9002 9.00078C26.9002 9.10078 26.9002 9.10078 27.0002 9.20078L27.3002 9.70078C27.3002 9.50078 27.9002 9.30078 28.6002 9.30078C29.3002 9.30078 29.9002 9.50078 29.9002 9.70078L30.2002 9.20078C30.3002 9.20078 30.3002 9.10078 30.3002 9.00078C30.3002 9.00078 30.3002 8.90078 30.2002 8.90078L30.3002 8.70078C30.4002 8.70078 30.5002 8.60078 30.5002 8.50078C30.5002 8.40078 30.5002 8.40078 30.4002 8.40078H30.3002C30.2002 8.40078 30.1002 8.50078 30.1002 8.60078V8.70078L30.0002 8.80078C29.9002 8.70078 29.7002 8.70078 29.5002 8.60078V8.50078C29.6002 8.50078 29.6002 8.40078 29.6002 8.30078C29.6002 8.20078 29.5002 8.10078 29.4002 8.10078C29.3002 8.10078 29.2002 8.20078 29.2002 8.30078C29.2002 8.40078 29.2002 8.40078 29.3002 8.40078V8.50078H28.8002V8.30078C28.9002 8.20078 28.9002 8.20078 28.9002 8.10078C28.9002 7.90078 28.8002 7.80078 28.6002 7.80078C28.4002 7.80078 28.3002 7.90078 28.3002 8.10078C28.3002 8.20078 28.3002 8.30078 28.4002 8.30078V8.50078H27.8002V8.40078L27.9002 8.30078C27.9002 8.20078 27.8002 8.10078 27.7002 8.10078C27.6002 8.10078 27.5002 8.20078 27.5002 8.30078C27.5002 8.40078 27.6002 8.50078 27.6002 8.50078V8.60078C27.4002 8.60078 27.2002 8.70078 27.1002 8.80078L27.0002 8.60078V8.50078C27.0002 8.40078 26.9002 8.30078 26.8002 8.30078H26.7002V8.50078Z" fill="#E6B432"/>
<path d="M28.5998 9.99922C29.3178 9.99922 29.8998 9.82013 29.8998 9.59922C29.8998 9.37831 29.3178 9.19922 28.5998 9.19922C27.8818 9.19922 27.2998 9.37831 27.2998 9.59922C27.2998 9.82013 27.8818 9.99922 28.5998 9.99922Z" fill="#EBEBEB"/>
<path d="M30.3998 6.40313L30.0998 5.60313C30.0998 5.60313 30.0998 5.50313 29.9998 5.50313L30.2998 5.00313C30.2998 4.90313 30.2998 4.80313 30.1998 4.70312C30.0998 4.70312 29.9998 4.70313 29.8998 4.80313L29.7998 5.10313L29.6998 5.40313C29.5998 5.40313 29.4998 5.40313 29.3998 5.30313V5.20312C29.4998 5.20312 29.4998 5.10313 29.4998 5.00313C29.4998 4.90313 29.3998 4.80313 29.2998 4.80313C29.1998 4.80313 29.0998 4.90313 29.0998 5.00313C29.0998 5.10313 29.0998 5.10313 29.1998 5.10313V5.20312H27.9998V5.10313L28.0998 5.00313C28.0998 4.90313 27.9998 4.80313 27.8998 4.80313C27.7998 4.80313 27.6998 4.90313 27.6998 5.00313C27.6998 5.10313 27.7998 5.20312 27.7998 5.20312V5.30313C27.6998 5.30313 27.5998 5.30313 27.4998 5.40313L27.3998 5.10313L27.2998 4.80313C27.2998 4.70313 27.0998 4.70312 26.9998 4.70312C26.8998 4.70312 26.8998 4.90313 26.8998 5.00313L27.1998 5.50313C27.0998 5.50313 27.0998 5.60313 27.0998 5.60313L26.7998 6.40313C26.9998 6.20313 27.6998 6.00313 28.6998 6.00313C29.4998 6.00313 30.1998 6.20313 30.3998 6.40313Z" fill="#E6B432"/>
<path d="M28.5998 5.20156C28.7655 5.20156 28.8998 5.06725 28.8998 4.90156C28.8998 4.73588 28.7655 4.60156 28.5998 4.60156C28.4341 4.60156 28.2998 4.73588 28.2998 4.90156C28.2998 5.06725 28.4341 5.20156 28.5998 5.20156Z" fill="#E6B432"/>
</g>
</g>
<defs>
<clipPath id="clip0_26003_70735">
<rect width="38" height="25" fill="white" transform="translate(0 0.5)"/>
</clipPath>
<clipPath id="clip1_26003_70735">
<rect width="38" height="25" fill="white" transform="translate(0 0.5)"/>
</clipPath>
</defs>
</svg>
