<svg width="38" height="26" viewBox="0 0 38 26" fill="none" xmlns="http://www.w3.org/2000/svg">
<g clip-path="url(#clip0_26003_92311)">
<g clip-path="url(#clip1_26003_92311)">
<path fill-rule="evenodd" clip-rule="evenodd" d="M38 22.6V3.5C37.8 1.8 36.5 0.5 35 0.5H3C1.5 0.5 0.2 1.8 0 3.5V22.6C0.2 24.2 1.5 25.5 3 25.5H35C36.5 25.5 37.8 24.2 38 22.6Z" fill="#FEFEFE"/>
<path fill-rule="evenodd" clip-rule="evenodd" d="M2.4 25.4H35.6C35.4 25.5 35.2 25.5 35 25.5H3C2.8 25.5 2.6 25.5 2.4 25.4ZM37.9 22.9V3.1C38 3.2 38 3.3 38 3.5V22.6C38 22.7 38 22.8 37.9 22.9ZM35.6 0.6H2.4C2.6 0.5 2.8 0.5 3 0.5H35C35.2 0.5 35.4 0.5 35.6 0.6ZM0.1 3.1V22.9C0.1 22.8 0.1 22.7 0 22.6V3.5C0 3.4 0 3.2 0.1 3.1Z" fill="#242222"/>
<path fill-rule="evenodd" clip-rule="evenodd" d="M19 25.5V0.5H3C1.5 0.5 0.2 1.8 0 3.5V22.6C0.2 24.2 1.5 25.5 3 25.5H19Z" fill="#2C793D"/>
<path fill-rule="evenodd" clip-rule="evenodd" d="M23.0997 16.8995C21.1997 18.5995 18.3997 18.2995 16.8997 16.0995C15.3997 13.8995 15.6997 10.7995 17.5997 9.09951C19.4997 7.39951 22.2997 7.69951 23.7997 9.89951C23.2997 8.99951 22.5997 8.19951 21.7997 7.59951C19.0997 5.89951 15.7997 6.89951 14.1997 9.89951C12.6997 12.8995 13.5997 16.6995 16.1997 18.3995C18.8997 20.0995 22.1997 19.0995 23.7997 16.0995C23.5997 16.3995 23.3997 16.6995 23.0997 16.8995Z" fill="#C6273E"/>
<path fill-rule="evenodd" clip-rule="evenodd" d="M20.9 14.1L22.1 16V13.7L24 13L22.1 12.3V10L20.9 11.9L19 11.2L20.2 13L19 14.9L20.9 14.1Z" fill="#C6273E"/>
</g>
</g>
<defs>
<clipPath id="clip0_26003_92311">
<rect width="38" height="25" fill="white" transform="translate(0 0.5)"/>
</clipPath>
<clipPath id="clip1_26003_92311">
<rect width="38" height="25" fill="white" transform="translate(0 0.5)"/>
</clipPath>
</defs>
</svg>
