<svg width="38" height="26" viewBox="0 0 38 26" fill="none" xmlns="http://www.w3.org/2000/svg">
<g clip-path="url(#clip0_26003_90228)">
<g clip-path="url(#clip1_26003_90228)">
<path d="M0.00585938 -1.25H38.0118V27.25H0.00585938V-1.25Z" fill="#FFD520"/>
<path d="M0.00585938 27.25H38.0118V-1.25L0.00585938 27.25Z" fill="#FF4E12"/>
<path d="M20.5076 7.65566C20.2701 7.57848 20.1157 7.69723 20.1276 8.00598C20.1276 8.30879 20.2938 8.48098 20.5313 8.36816L20.5076 7.65566Z" fill="white" stroke="black" stroke-width="0.02375"/>
<path d="M20.7156 7.08501C20.5196 6.93064 20.3356 6.99595 20.2406 7.28689C20.1515 7.58376 20.2465 7.79751 20.5078 7.76189L20.7156 7.08501Z" fill="white" stroke="black" stroke-width="0.02375"/>
<path d="M21.0423 6.52764C20.876 6.34951 20.686 6.38514 20.5435 6.65826C20.407 6.93139 20.4664 7.16295 20.7335 7.17482L21.0423 6.53357V6.52764ZM20.8285 9.2292C20.5376 9.33607 20.5079 9.73389 20.692 9.97732C20.8701 10.2208 21.2085 10.2683 21.3926 9.97732L20.8285 9.2292Z" fill="white" stroke="black" stroke-width="0.02375"/>
<path d="M20.4904 8.38655C20.2173 8.29749 19.9679 8.66562 19.9264 8.99812C19.8729 9.41374 19.2732 9.55624 19.6057 10.1916C19.677 9.7878 19.9442 9.56218 20.1579 9.5503C20.3717 9.53249 20.6923 9.49093 20.8289 9.22968L20.4904 8.38655ZM21.3632 10.0253C21.0426 10.1025 20.9951 10.53 21.2267 10.8328C21.4226 11.0941 22.0401 11.0347 22.0223 10.7734L21.3692 10.0253H21.3632ZM22.2717 12.6022C22.2895 12.3231 21.8442 12.2162 21.6304 12.2697C21.4167 12.3291 21.007 12.2637 20.9179 12.0322C20.8348 12.2162 20.9476 12.4181 21.2564 12.5191C21.4939 12.5903 21.4879 12.7566 21.4167 12.8397C21.5948 12.8694 22.1114 12.8694 22.2717 12.6022Z" fill="white" stroke="black" stroke-width="0.02375"/>
<path d="M22.022 10.8451C21.7073 10.7026 21.5232 10.9164 21.4045 11.1182C21.2263 11.4151 20.686 11.0351 20.502 11.4329C20.7513 11.326 21.0007 11.5517 21.1195 11.6289C21.4579 11.8485 22.1051 11.7832 22.2001 11.2607L22.022 10.8451Z" fill="white" stroke="black" stroke-width="0.02375"/>
<path d="M22.2056 11.207C21.8909 11.4445 21.7662 11.7295 21.7781 11.9195C21.7841 12.1095 22.0512 12.5311 22.3422 12.5548C22.5084 12.2105 22.5975 11.4861 22.2056 11.207ZM20.8994 12.6855C20.8994 12.5667 21.0656 12.5252 21.1844 12.5667C21.2972 12.6023 21.4753 12.7152 21.41 12.8398L20.8994 12.6855ZM19.1775 12.0502C19.1478 11.9136 19.3675 11.6761 19.6644 11.8067C19.9612 11.9373 20.0028 12.1867 19.8781 12.2877L19.1775 12.0502Z" fill="white" stroke="black" stroke-width="0.02375"/>
<path d="M19.9022 12.31C19.8784 12.2328 20.0981 12.0784 20.4603 12.1675C20.8284 12.2625 20.9175 12.5 20.9056 12.6841L19.9022 12.31ZM19.1362 12.0547C19.3322 11.9122 19.255 11.6391 19.0828 11.55C18.7741 11.3956 18.8869 11.0038 18.685 10.9266C18.4891 10.8494 18.2991 10.7128 18.2872 10.5703C18.1922 10.7663 18.2516 10.9384 18.3881 11.0631C18.5247 11.1819 18.2812 11.6806 18.4594 11.8112L19.1362 12.0547ZM15.0394 11.9478C14.8791 11.6984 14.4991 11.74 14.3387 11.9181C14.1784 12.0962 14.2022 12.3516 14.3506 12.4703L15.0394 11.9478ZM15.9597 11.5737C15.9003 11.2353 15.4906 11.1997 15.2709 11.2828C15.0453 11.3659 14.8969 11.7044 15.0394 11.9478L15.9597 11.5737Z" fill="white"/>
<path d="M15.0394 11.9478C14.8791 11.6984 14.4991 11.74 14.3387 11.9181C14.1784 12.0962 14.2022 12.3516 14.3506 12.4703L15.0394 11.9478ZM15.0394 11.9478C14.8969 11.7044 15.0453 11.3659 15.2709 11.2828C15.4906 11.1997 15.9003 11.2353 15.9597 11.5737L15.0394 11.9478ZM19.9022 12.31C19.8784 12.2328 20.0981 12.0784 20.4603 12.1675C20.8284 12.2625 20.9175 12.5 20.9056 12.6841L19.9022 12.31ZM19.1362 12.0547C19.3322 11.9122 19.255 11.6391 19.0828 11.55C18.7741 11.3956 18.8869 11.0038 18.685 10.9266C18.4891 10.8494 18.2991 10.7128 18.2872 10.5703C18.1922 10.7663 18.2516 10.9384 18.3881 11.0631C18.5247 11.1819 18.2812 11.6806 18.4594 11.8112L19.1362 12.0547Z" stroke="black" stroke-width="0.02375"/>
<path d="M16.5654 11.5278C16.7138 11.2487 16.4288 10.8272 16.1082 10.7678C15.841 10.7084 15.5263 10.7144 15.4194 10.4531C15.36 10.6787 15.5263 10.8272 15.7282 10.9578C15.9241 11.0884 15.6925 11.4209 16.0132 11.6109L16.5713 11.5278H16.5654Z" fill="white" stroke="black" stroke-width="0.02375"/>
<path d="M16.5412 11.5386C16.4699 11.3368 16.6065 11.0636 16.8796 11.0874C17.1587 11.1052 17.313 11.3011 17.1943 11.5564L16.5412 11.5386Z" fill="white" stroke="black" stroke-width="0.02375"/>
<path d="M17.1536 11.5572C17.1121 11.3434 17.2843 11.0941 17.5574 11.1534C17.8246 11.2128 17.9493 11.4325 17.7949 11.6581L17.1536 11.5512V11.5572Z" fill="white" stroke="black" stroke-width="0.02375"/>
<path d="M17.7528 11.6527C17.7291 11.4389 17.9132 11.2014 18.1803 11.2727C18.4475 11.3439 18.5603 11.5695 18.3941 11.7892L17.7588 11.6527H17.7528ZM13.1453 15.1558C12.6288 15.1558 12.5041 15.2745 12.4328 15.8089C12.3378 16.462 13.2344 16.5392 13.1453 15.1558Z" fill="white" stroke="black" stroke-width="0.02375"/>
<path d="M13.371 14.4659C12.5873 14.169 12.1598 15.4159 11.376 15.1903C11.6551 15.6356 12.332 15.1903 12.5873 15.2378C13.0148 15.315 13.941 15.1546 13.371 14.4659ZM12.8604 16.17C12.4685 15.9918 12.0529 16.5856 12.1241 16.8528C12.2251 17.1793 13.1157 16.9121 12.8604 16.17ZM11.0435 18.7409C11.2573 18.8003 11.5185 18.919 11.471 19.3346C11.4235 19.7503 10.6398 20.5875 9.93914 20.6409C9.23851 20.6825 8.98914 21.5315 8.37758 21.294C8.94758 21.1871 8.94758 20.5459 9.38695 20.344C9.06633 20.2253 8.90008 20.9556 8.48445 20.9556C8.06883 20.9556 7.87289 21.6146 7.3682 21.5671C6.86352 21.5256 6.81602 22.3687 5.8007 22.3806C5.02883 22.3865 4.07883 23.289 3.72852 22.8971C4.48258 22.7903 4.78539 22.3746 5.2307 21.9175C5.9432 21.1871 6.75664 21.5137 7.0357 20.8665C6.7152 21.0828 6.33571 21.1948 5.94914 21.1871C5.47414 21.1753 4.96352 21.9353 4.43508 21.6028C4.73789 21.5612 4.93977 21.4306 5.26039 21.0921C5.58695 20.7478 6.07383 20.9734 6.45383 20.6171C7.04758 20.0709 7.56414 20.5281 8.13414 19.8453C7.97383 19.7621 7.62945 19.8156 7.30883 19.9878C6.9882 20.154 6.57852 19.869 6.21039 20.0709C6.25195 19.6196 7.11289 19.875 7.64727 19.5662C8.25289 19.21 8.75164 19.3168 9.22664 19.3584C8.56164 19.3584 8.30633 18.7231 7.38602 18.9071C6.9882 18.9903 6.66758 18.355 6.26977 18.6756C6.28164 18.4381 6.69727 18.2481 7.12477 18.4796C7.55227 18.7112 7.72445 18.2778 8.57945 18.8181C8.9357 19.0378 9.53539 18.6756 9.91539 18.9131C9.86789 18.7706 9.6482 18.6756 9.39289 18.6993C9.5532 18.3668 10.5923 18.4084 11.0435 18.7409Z" fill="white" stroke="black" stroke-width="0.02375"/>
<path d="M11.7199 18.2419C11.3874 17.9807 10.9184 18.2954 10.5918 18.1707C10.5918 18.3844 10.7046 18.7051 11.0549 18.8298C11.1618 18.7526 11.6487 18.331 11.7199 18.2419Z" fill="white" stroke="black" stroke-width="0.02375"/>
<path d="M12.2489 17.4995C11.7205 17.2323 11.6314 17.8973 11.2158 17.7608C11.2336 17.9508 11.388 18.1883 11.7205 18.2417L12.2549 17.4995H12.2489Z" fill="white" stroke="black" stroke-width="0.02375"/>
<path d="M12.5635 16.8946C11.7857 16.5918 11.6847 17.3399 11.2275 17.1915C11.3344 17.4527 11.9875 17.5952 12.326 17.5002L12.5635 16.8946ZM13.6322 13.6171C13.4244 13.3202 12.991 13.5577 12.9197 13.908C12.8544 14.2524 13.0207 14.7333 13.3116 14.6205L13.6322 13.6111V13.6171Z" fill="white" stroke="black" stroke-width="0.02375"/>
<path d="M14.1609 12.7024C13.8046 12.6134 13.389 12.6549 13.4365 12.9993C13.294 13.0646 13.2584 13.5159 13.6324 13.6168L14.1609 12.6965V12.7024Z" fill="white" stroke="black" stroke-width="0.02375"/>
<path d="M14.3984 12.4652C14.0421 12.0496 13.6562 12.0555 13.4365 12.2277C13.0268 12.5542 12.6349 12.3702 12.623 12.6908C12.8665 12.5008 13.0862 12.7264 13.2762 12.6611C13.478 12.5899 13.6265 12.9758 14.1787 12.8155L14.3984 12.4592V12.4652ZM13.5493 18.6342C13.6027 18.7352 13.9293 18.7767 14.0896 18.6105C14.3034 18.3849 14.0718 17.7674 13.7334 17.7199C13.3949 17.6783 13.3652 18.4205 13.5493 18.6342Z" fill="white" stroke="black" stroke-width="0.02375"/>
<path d="M13.1689 18.6469C13.6439 18.825 13.8518 18.4272 13.5964 18.1719C13.4648 18.3396 13.3219 18.4983 13.1689 18.6469Z" fill="white" stroke="black" stroke-width="0.02375"/>
<path d="M11.364 19.3059C11.269 19.585 10.794 19.6266 10.2596 20.4816C9.72523 21.3425 9.21461 20.9803 9.08398 21.5681C9.72523 21.0516 10.2299 21.39 10.6159 20.8794C11.1918 20.1016 11.6727 20.2144 11.8984 19.6919C12.219 18.9378 13.6202 18.9556 13.7034 17.7741C13.2284 17.685 11.7262 18.9556 11.364 19.3059ZM23.429 7.74562C24.0405 7.9475 24.0524 8.73719 24.759 8.99844C25.4596 9.25969 25.5309 9.88906 26.1068 9.73469C25.5724 9.58625 25.608 8.96875 25.0499 8.81437C24.3968 8.63625 24.1474 7.63875 23.6249 7.48438M26.2374 11.8959C26.3443 12.1453 26.3265 12.5787 25.9405 12.6916C26.1484 12.8222 26.4571 12.7034 26.6234 12.4184C26.374 12.9766 26.5402 13.4812 26.938 13.5822C26.748 13.1903 27.1755 13.0062 27.039 12.7509C27.2884 12.8637 27.514 13.2081 27.5021 13.4219C27.8346 13.0538 27.2646 12.5609 27.3655 12.2166L26.2374 11.8959ZM22.2652 15.8266C21.8912 15.5 21.7309 15.9156 21.5527 15.7672C21.3746 15.6366 21.149 15.6187 21.0599 15.7494C21.3805 15.7612 21.2262 16.0106 21.8496 16.07C21.2262 16.1116 21.339 16.8122 20.9234 16.7766C21.3627 17.1922 21.5943 16.4025 21.9565 16.5331C21.8496 16.5628 22.1227 16.8122 21.9327 17.1506C22.2415 17.1447 22.3662 16.7172 22.4077 16.4975L22.2652 15.8266ZM14.0121 19.4009C13.8815 19.2822 13.4777 19.2287 13.3293 19.3237C13.1749 19.4128 13.2284 19.4425 13.4124 19.4544C13.5965 19.4663 13.828 19.7631 13.4362 19.7809C13.2521 19.7869 13.3174 20.2322 12.9315 20.2619C13.0859 20.4519 13.5371 20.3272 13.6974 20.1194C13.6677 20.2916 13.8934 20.4459 13.8043 20.6537C14.0834 20.6834 13.923 20.0778 14.3684 20.1075C14.1902 20.1313 14.2615 20.5469 14.5821 20.44C14.3921 20.5291 14.493 20.7547 14.7009 20.7013C14.5702 20.7428 14.5227 20.9209 14.7127 21.0219C14.8968 20.7666 14.689 19.8641 14.018 19.4009H14.0121ZM30.6727 10.9637C30.8186 10.9747 30.9651 10.9554 31.1032 10.9071C31.2412 10.8588 31.3678 10.7825 31.475 10.683C31.5822 10.5835 31.6678 10.463 31.7263 10.3289C31.7847 10.1949 31.8149 10.0502 31.8149 9.90391C31.8149 9.75765 31.7847 9.61296 31.7263 9.47891C31.6678 9.34485 31.5822 9.22431 31.475 9.12482C31.3678 9.02534 31.2412 8.94906 31.1032 8.90075C30.9651 8.85243 30.8186 8.83314 30.6727 8.84406C30.4053 8.86409 30.1554 8.98444 29.973 9.18099C29.7907 9.37755 29.6893 9.63577 29.6893 9.90391C29.6893 10.172 29.7907 10.4303 29.973 10.6268C30.1554 10.8234 30.4053 10.9437 30.6727 10.9637Z" fill="white"/>
<path d="M23.429 7.74562C24.0405 7.9475 24.0524 8.73719 24.759 8.99844C25.4596 9.25969 25.5309 9.88906 26.1068 9.73469C25.5724 9.58625 25.608 8.96875 25.0499 8.81437C24.3968 8.63625 24.1474 7.63875 23.6249 7.48438M11.364 19.3059C11.269 19.585 10.794 19.6266 10.2596 20.4816C9.72523 21.3425 9.21461 20.9803 9.08398 21.5681C9.72523 21.0516 10.2299 21.39 10.6159 20.8794C11.1918 20.1016 11.6727 20.2144 11.8984 19.6919C12.219 18.9378 13.6202 18.9556 13.7034 17.7741C13.2284 17.685 11.7262 18.9556 11.364 19.3059ZM26.2374 11.8959C26.3443 12.1453 26.3265 12.5787 25.9405 12.6916C26.1484 12.8222 26.4571 12.7034 26.6234 12.4184C26.374 12.9766 26.5402 13.4812 26.938 13.5822C26.748 13.1903 27.1755 13.0062 27.039 12.7509C27.2884 12.8637 27.514 13.2081 27.5021 13.4219C27.8346 13.0537 27.2646 12.5609 27.3655 12.2166L26.2374 11.8959ZM22.2652 15.8266C21.8912 15.5 21.7309 15.9156 21.5527 15.7672C21.3746 15.6366 21.149 15.6187 21.0599 15.7494C21.3805 15.7612 21.2262 16.0106 21.8496 16.07C21.2262 16.1116 21.339 16.8122 20.9234 16.7766C21.3627 17.1922 21.5943 16.4025 21.9565 16.5331C21.8496 16.5628 22.1227 16.8122 21.9327 17.1506C22.2415 17.1447 22.3662 16.7172 22.4077 16.4975L22.2652 15.8266ZM14.0121 19.4009C13.8815 19.2822 13.4777 19.2287 13.3293 19.3237C13.1749 19.4128 13.2284 19.4425 13.4124 19.4544C13.5965 19.4663 13.828 19.7631 13.4362 19.7809C13.2521 19.7869 13.3174 20.2322 12.9315 20.2619C13.0859 20.4519 13.5371 20.3272 13.6974 20.1194C13.6677 20.2916 13.8934 20.4459 13.8043 20.6537C14.0834 20.6834 13.923 20.0778 14.3684 20.1075C14.1902 20.1313 14.2615 20.5469 14.5821 20.44C14.3921 20.5291 14.493 20.7547 14.7009 20.7013C14.5702 20.7428 14.5227 20.9209 14.7127 21.0219C14.8968 20.7666 14.689 19.8641 14.018 19.4009H14.0121ZM30.6727 10.9637C30.8186 10.9747 30.9651 10.9554 31.1032 10.9071C31.2412 10.8588 31.3678 10.7825 31.475 10.683C31.5822 10.5835 31.6678 10.463 31.7263 10.3289C31.7847 10.1949 31.8149 10.0502 31.8149 9.90391C31.8149 9.75765 31.7847 9.61296 31.7263 9.47891C31.6678 9.34485 31.5822 9.22431 31.475 9.12482C31.3678 9.02534 31.2412 8.94906 31.1032 8.90075C30.9651 8.85244 30.8186 8.83314 30.6727 8.84406C30.4053 8.86409 30.1554 8.98444 29.973 9.18099C29.7907 9.37755 29.6893 9.63577 29.6893 9.90391C29.6893 10.172 29.7907 10.4303 29.973 10.6268C30.1554 10.8234 30.4053 10.9437 30.6727 10.9637Z" stroke="black" stroke-width="0.02375"/>
<path d="M25.1395 12.2402C25.466 11.9374 25.9529 11.783 26.2913 12.0146C26.6238 12.2402 27.7401 12.5134 28.2923 12.1334C28.8445 11.7534 29.1057 11.5515 29.3491 11.599C29.5273 11.8721 29.7529 12.0027 30.026 12.0265C30.1091 12.1215 30.412 12.1927 30.5782 12.1749C30.8216 12.2343 31.1185 12.1571 31.356 11.8959C31.7241 11.9552 32.0685 11.6762 32.1991 11.2605C32.591 11.219 32.6148 10.7855 32.3654 10.4887C32.1398 10.4471 32.312 9.6693 31.4807 9.82367C31.837 10.0374 31.5638 10.4649 31.8548 10.6668C31.6588 10.6668 31.3976 10.7499 31.3382 11.0468C31.4154 10.8449 31.3263 10.7024 31.2788 10.6609C31.2788 10.4827 30.8929 10.0493 30.5248 10.2096C30.786 10.269 30.6435 10.6846 30.8335 10.8509C30.7614 10.8538 30.6908 10.8729 30.6271 10.9069C30.5634 10.9408 30.5081 10.9886 30.4654 11.0468C30.3645 10.8687 30.0141 10.6905 29.8004 10.6727C29.8004 10.6134 29.7885 10.4946 29.7588 10.4293C29.6638 10.2452 29.5807 10.0255 29.6223 9.74648C29.4486 9.95087 29.3047 10.1787 29.1948 10.4234C28.9038 10.2215 28.1854 10.5124 27.847 10.5896C27.5145 10.6668 26.3804 10.4827 26.1251 10.2096C25.7617 9.91914 25.3342 9.71965 24.8782 9.62773C24.2251 9.43773 24.2251 8.72523 23.5066 8.23242C23.4888 9.12305 24.8366 11.9374 25.1395 12.2402ZM17.6463 19.003C17.9188 19.003 18.18 18.8948 18.3727 18.7022C18.5653 18.5096 18.6735 18.2483 18.6735 17.9759C18.6735 17.7034 18.5653 17.4422 18.3727 17.2495C18.18 17.0569 17.9188 16.9487 17.6463 16.9487C17.3739 16.9487 17.1126 17.0569 16.92 17.2495C16.7274 17.4422 16.6191 17.7034 16.6191 17.9759C16.6191 18.2483 16.7274 18.5096 16.92 18.7022C17.1126 18.8948 17.3739 19.003 17.6463 19.003Z" fill="white" stroke="black" stroke-width="0.02375"/>
<path d="M15.1999 18.2127C15.4077 18.4799 15.758 18.4621 15.9064 18.4443C16.0252 18.7649 16.4171 18.753 16.5833 18.9311C16.7555 19.1093 17.3255 19.0915 17.4918 18.9905C17.3433 18.9786 17.1414 18.8836 16.9574 18.7233C16.7199 18.5333 16.8268 18.1415 16.6486 18.0108C16.7047 17.9395 16.7453 17.8572 16.7677 17.7693C16.7902 17.6814 16.7942 17.5897 16.7793 17.5002C16.9218 17.4171 17.0286 17.2805 17.0405 17.2093C17.2535 17.199 17.4558 17.1126 17.6105 16.9658C17.7411 17.0846 18.0677 16.9302 18.2458 17.1321C18.2814 16.6274 17.8005 16.3602 17.4739 16.5324C17.3493 16.4611 17.0049 16.5086 16.9396 16.5977C16.8386 16.5502 16.5358 16.7046 16.4052 16.8055C16.5536 16.7224 16.5774 16.4671 16.518 16.378C16.6486 16.3186 16.7911 16.1465 16.8089 16.0218C16.9871 16.0515 17.2661 15.9268 17.3849 15.9565C17.1889 15.6952 16.8624 15.6002 16.5239 15.6299C16.1736 15.6477 16.0252 15.8911 15.9777 16.1524C15.7758 16.2771 15.7046 16.6868 15.7818 16.8352C15.663 16.8352 15.5502 16.948 15.5086 17.0133C15.3313 16.9403 15.1422 16.9001 14.9505 16.8946M15.0277 16.479C14.9564 16.2771 15.0455 16.099 15.093 15.9446C15.2118 15.5408 15.1405 15.434 14.7783 15.4874C14.7997 15.8305 14.8842 16.1666 15.0277 16.479Z" fill="white"/>
<path d="M15.1999 18.2127C15.4077 18.4799 15.758 18.4621 15.9064 18.4443C16.0252 18.7649 16.4171 18.753 16.5833 18.9311C16.7555 19.1093 17.3255 19.0915 17.4918 18.9905C17.3433 18.9786 17.1414 18.8836 16.9574 18.7233C16.7199 18.5333 16.8268 18.1415 16.6486 18.0108C16.7047 17.9395 16.7453 17.8572 16.7677 17.7693C16.7902 17.6814 16.7942 17.5897 16.7793 17.5002C16.9218 17.4171 17.0286 17.2805 17.0405 17.2093C17.2535 17.199 17.4558 17.1126 17.6105 16.9658C17.7411 17.0846 18.0677 16.9302 18.2458 17.1321C18.2814 16.6274 17.8005 16.3602 17.4739 16.5324C17.3493 16.4611 17.0049 16.5086 16.9396 16.5977C16.8386 16.5502 16.5358 16.7046 16.4052 16.8055C16.5536 16.7224 16.5774 16.4671 16.518 16.378C16.6486 16.3186 16.7911 16.1465 16.8089 16.0218C16.9871 16.0515 17.2661 15.9268 17.3849 15.9565C17.1889 15.6952 16.8624 15.6002 16.5239 15.6299C16.1736 15.6477 16.0252 15.8911 15.9777 16.1524C15.7758 16.2771 15.7046 16.6868 15.7818 16.8352C15.663 16.8352 15.5502 16.948 15.5086 17.0133C15.3313 16.9403 15.1422 16.9001 14.9505 16.8946M15.0277 16.479C14.9564 16.2771 15.0455 16.099 15.093 15.9446C15.2118 15.5408 15.1405 15.434 14.7783 15.4874C14.7997 15.8305 14.8842 16.1666 15.0277 16.479Z" stroke="black" stroke-width="0.02375"/>
<path d="M14.7607 15.5114C14.8557 15.6064 15.1764 15.648 15.212 15.3571C15.2536 15.0246 15.117 14.8939 14.8261 15.0246C14.8023 15.1018 14.7786 15.4105 14.7667 15.5114H14.7607Z" fill="white" stroke="black" stroke-width="0.02375"/>
<path d="M14.832 15.0116C14.9508 15.0591 15.218 15.16 15.3664 14.875C15.4852 14.6375 15.3248 14.4594 15.0695 14.4713C15.0102 14.5425 14.8914 14.786 14.832 15.0116Z" fill="white" stroke="black" stroke-width="0.02375"/>
<path d="M15.0576 14.4479C15.0873 14.5429 15.402 14.8457 15.6276 14.626C15.8592 14.4063 15.8592 14.0738 15.5148 13.9551C15.4257 13.967 15.1467 14.2876 15.0576 14.4479Z" fill="white" stroke="black" stroke-width="0.02375"/>
<path d="M15.5146 13.9503C15.58 14.1462 15.7996 14.4728 16.1975 14.3244C16.5953 14.17 16.4231 13.6713 16.239 13.5703C15.973 13.6464 15.7262 13.7779 15.5146 13.9562V13.9503Z" fill="white" stroke="black" stroke-width="0.02375"/>
<path d="M16.2393 13.5698C16.2096 13.742 16.2393 14.1992 16.7855 14.1933C17.3258 14.1814 17.1774 13.5461 17.0349 13.457C16.8152 13.457 16.4411 13.463 16.2393 13.5758V13.5698Z" fill="white" stroke="black" stroke-width="0.02375"/>
<path d="M17.0586 13.4746C16.9992 13.6112 16.8626 14.4662 17.9255 14.2287C18.062 14.199 18.4183 13.4093 17.0586 13.4805V13.4746Z" fill="white" stroke="black" stroke-width="0.02375"/>
<path d="M17.6405 13.5583C17.5336 13.6652 17.8068 14.5261 18.5311 14.3836C19.2436 14.2352 18.644 13.4158 17.6405 13.5524V13.5583Z" fill="white" stroke="black" stroke-width="0.02375"/>
<path d="M18.2516 13.6875C18.1329 13.925 18.311 14.6256 19.1957 14.6256C19.9973 14.6256 19.1541 13.6994 18.2516 13.6875Z" fill="white" stroke="black" stroke-width="0.02375"/>
<path d="M18.9463 13.8894C18.887 14.0259 18.8216 14.7681 19.8666 14.8334C20.6207 14.8809 20.4366 13.8062 18.9463 13.8894Z" fill="white" stroke="black" stroke-width="0.02375"/>
<path d="M20.0682 14.2051C19.9436 14.4366 19.807 15.0066 20.9529 15.0541C21.6832 15.0838 21.232 14.2229 20.0742 14.2051H20.0682Z" fill="white" stroke="black" stroke-width="0.02375"/>
<path d="M21.0241 14.3832C20.8579 14.6088 20.9825 15.0601 21.41 15.1432C21.9444 15.2501 22.0216 14.7454 21.6535 14.502C21.2854 14.2645 21.0241 14.3832 21.0241 14.3832Z" fill="white" stroke="black" stroke-width="0.02375"/>
<path d="M21.5525 14.4844C21.4278 14.7041 21.499 15.2206 22.3125 15.2206C22.4787 15.2206 23.12 14.5675 21.5465 14.4903L21.5525 14.4844ZM15.2646 24.4594C15.5796 24.4594 15.8816 24.3343 16.1043 24.1116C16.327 23.8889 16.4521 23.5868 16.4521 23.2719C16.4521 22.9569 16.327 22.6549 16.1043 22.4322C15.8816 22.2095 15.5796 22.0844 15.2646 22.0844C14.9497 22.0844 14.6477 22.2095 14.425 22.4322C14.2023 22.6549 14.0771 22.9569 14.0771 23.2719C14.0771 23.5868 14.2023 23.8889 14.425 24.1116C14.6477 24.3343 14.9497 24.4594 15.2646 24.4594Z" fill="white" stroke="black" stroke-width="0.02375"/>
<path d="M23.9936 7.16306C23.8654 7.30592 23.7575 7.46575 23.673 7.63806C23.2752 8.82556 24.338 9.71618 24.9555 11.0046C25.2095 11.5844 25.3123 12.2192 25.2541 12.8495C25.196 13.4799 24.9788 14.0852 24.623 14.6087C24.3617 14.9531 24.4389 15.054 24.1005 15.4043C23.9698 15.5409 23.8273 15.7131 23.8748 16.1999C24.0886 16.1227 24.3914 16.3187 24.4508 16.4968C24.6052 16.4137 24.8189 16.4434 24.8961 16.5384C25.1573 16.4196 25.3711 16.479 25.6027 16.7165C25.7986 16.6927 26.0183 16.7165 26.2142 16.9362C26.3211 16.7224 26.5348 16.6393 26.6892 16.6927C26.6714 16.4137 26.9445 16.2177 27.188 16.3246C27.1689 16.2462 27.1712 16.1642 27.1947 16.087C27.2181 16.0098 27.2618 15.9403 27.3212 15.8858C27.3807 15.8312 27.4536 15.7936 27.5325 15.7768C27.6114 15.76 27.6934 15.7646 27.7698 15.7902C28.0489 15.5765 28.6011 15.5587 28.8742 15.8793C28.3814 15.7427 28.3992 16.2652 27.9836 16.2177C28.0905 16.5206 27.8173 16.6987 27.5442 16.7996C27.7223 16.7165 27.9123 16.6156 27.9717 16.7224C28.1261 16.5859 28.4289 16.6393 28.5061 16.7046C28.708 16.6452 28.9039 16.6927 28.993 16.9362C29.272 17.1024 29.4561 17.5299 29.2542 17.8506C29.1948 17.5181 28.9633 17.5299 28.8742 17.3934C28.6605 17.4706 28.4467 17.4706 28.3814 17.334C28.2627 17.4527 27.847 17.5656 27.6689 17.3815C27.5977 17.6546 27.3602 17.8862 27.0811 17.8862C27.1583 18.0999 26.9445 18.4621 26.7783 18.6462C27.0395 18.7827 26.9564 19.0915 26.897 19.2756C27.3008 19.3349 26.9564 19.6912 27.6511 19.9168C27.3127 20.0237 26.6536 19.9168 26.5645 19.5012C26.2261 19.4893 26.0005 19.1509 26.0123 18.8006C25.7511 18.5571 25.7155 18.2068 26.0717 17.9574C25.7689 18.0524 25.5967 17.5596 25.1573 17.7615C24.9377 17.8624 24.3558 17.6902 24.3617 17.4884C24.2727 17.6368 23.7086 17.5774 23.6373 17.3162C23.4533 17.4171 23.0258 17.2509 23.0317 16.9956C22.7942 17.1024 22.4736 16.9124 22.4914 16.669C22.2658 16.6393 22.242 16.4374 22.2539 16.2712C22.058 16.1762 22.1114 15.9862 22.1945 15.7606C22.052 15.6062 22.1114 15.3924 22.2183 15.1906C22.0698 15.0362 22.0995 14.8581 22.1411 14.6384C21.4108 14.579 20.4905 14.4009 18.3827 13.7537C15.2002 12.774 14.3452 15.0718 15.0458 16.5087C15.8592 18.1712 14.9567 18.5274 15.2298 19.7624C15.5267 19.8218 15.6752 20.0712 15.6573 20.3324C15.8355 20.3384 15.9542 20.4987 15.8948 20.8074C15.9755 20.7942 16.0581 20.7996 16.1363 20.8233C16.2146 20.8469 16.2863 20.8882 16.3461 20.944C16.453 20.7421 16.8092 20.6946 16.9873 20.9262C17.3852 20.8965 17.587 21.2231 17.5692 21.6149C17.6651 21.7946 17.7076 21.9979 17.6918 22.2009C17.6761 22.4039 17.6026 22.5982 17.4802 22.7609C17.5039 22.6006 17.4802 22.3749 17.4742 22.2324C17.4564 21.9831 17.1061 21.9296 17.1417 21.7218C16.9636 21.7396 16.7855 21.6387 16.7261 21.5021C16.6731 21.5479 16.6091 21.579 16.5404 21.5926C16.4717 21.6061 16.4006 21.6015 16.3342 21.5793C16.5361 21.6684 16.7023 22.0365 16.637 22.2799C16.7439 22.464 16.7202 22.8024 16.5955 22.9449C16.5361 23.2418 16.2986 23.3487 16.0017 23.2181C16.1739 23.1112 16.2333 22.9212 16.2273 22.7609C16.1272 22.6607 16.0661 22.528 16.0552 22.3868C15.7583 22.4343 15.3427 22.179 15.2714 22.0781C15.115 22.0781 14.9601 22.109 14.8156 22.169C14.6711 22.2291 14.54 22.3171 14.4296 22.428C14.3193 22.5389 14.2319 22.6705 14.1726 22.8152C14.1133 22.96 14.0831 23.1151 14.0839 23.2715C14.0483 23.0281 13.7395 22.7846 13.7811 22.5768C13.597 22.0127 13.8583 21.4843 14.6064 21.3774C14.5114 21.1637 14.832 20.944 14.7133 20.7006C14.4748 20.2669 14.1815 19.8658 13.8405 19.5071C14.1017 19.0618 14.0186 18.4681 13.8702 18.0999C13.6505 17.5715 13.4427 17.7021 12.6648 18.5571C11.3942 19.9524 9.69609 19.5665 8.19984 20.4868C7.80203 20.7243 7.40422 20.8193 7.83172 20.3918C8.25922 19.9643 9.38734 19.5368 10.1236 19.1687C11.5011 18.4799 12.6648 17.334 13.122 15.1015C14.1967 9.85274 18.1689 11.5865 20.6745 12.5602C23.0317 13.4806 22.6042 11.4024 21.4108 10.1437C19.9739 8.64149 20.2648 7.45399 20.9358 6.50399C22.1411 6.33774 24.4627 6.75931 23.9936 7.16306Z" fill="white" stroke="black" stroke-width="0.02375"/>
<path d="M28.2564 20.054C28.4284 20.054 28.5986 20.0201 28.7575 19.9543C28.9163 19.8885 29.0606 19.7921 29.1822 19.6705C29.3038 19.549 29.4002 19.4046 29.466 19.2458C29.5318 19.0869 29.5657 18.9167 29.5657 18.7448C29.5657 18.5728 29.5318 18.4026 29.466 18.2437C29.4002 18.0849 29.3038 17.9406 29.1822 17.819C29.0606 17.6974 28.9163 17.601 28.7575 17.5352C28.5986 17.4694 28.4284 17.4355 28.2564 17.4355C27.91 17.4355 27.5778 17.5732 27.3328 17.8181C27.0878 18.0631 26.9502 18.3954 26.9502 18.7418C26.9502 19.0882 27.0878 19.4205 27.3328 19.6655C27.5778 19.9104 27.91 20.048 28.2564 20.048V20.054Z" fill="white" stroke="black" stroke-width="0.02375"/>
<path d="M23.2625 7.22266C22.9656 8.51109 23.215 9.09297 23.6425 9.65703C24.5271 10.8267 25.2337 13.4927 24.2243 15.2383" stroke="black" stroke-width="0.02375"/>
<path d="M24.7881 13.7303C24.9068 13.6888 25.1443 13.5403 25.1918 13.2909M24.8831 13.1722C24.9187 12.9525 25.2631 12.8575 25.269 12.62M24.889 12.3112C24.8653 12.0797 25.2334 11.8719 25.18 11.6462M24.6871 11.4859C24.6575 11.3553 24.9959 11.1119 24.9009 10.9041M24.4378 10.6784C24.3665 10.5359 24.5981 10.3697 24.4971 10.2153M24.0696 10.0372C24.0459 9.94219 24.1884 9.7225 24.1112 9.59188M23.7015 9.28312C23.7312 9.24156 23.8559 9.1525 23.8084 9.03969M23.4521 8.725C23.4996 8.70125 23.6481 8.65375 23.6303 8.54688" stroke="black" stroke-width="0.02375" stroke-linecap="round"/>
<path d="M15.7932 23.1466C15.4963 23.0397 15.1104 23.1881 15.0332 23.4494M15.2648 23.6869C15.3004 23.4256 15.6982 23.3128 15.817 23.4316C15.5676 23.295 15.4429 23.7878 15.6685 23.7997M17.7229 17.6366C17.5448 17.7316 17.4854 18.0641 17.7229 18.3194M17.996 17.7137C17.8713 17.8206 17.8773 18.1412 18.0673 18.2184C17.907 18.0997 18.0673 17.9038 18.186 17.8978C18.2988 17.8919 18.376 18.0284 18.2335 18.165M28.7429 18.4738C28.3154 18.355 27.971 18.8538 28.3629 19.2991C28.351 18.8716 28.6598 18.5866 29.0338 18.6637M28.8557 18.9606C28.8132 18.9606 28.7724 18.9775 28.7423 19.0076C28.7123 19.0376 28.6954 19.0784 28.6954 19.1209C28.6954 19.2041 28.7666 19.2872 28.8854 19.2872C28.9626 19.2872 29.0279 19.1981 29.0279 19.1269M30.3698 9.5675C30.441 9.82875 30.7973 9.94156 31.0823 9.87625M31.0823 9.71C30.8626 9.71594 30.6785 9.50813 30.6904 9.33594C30.6904 9.46656 30.9873 9.52594 31.0823 9.44281" stroke="black" stroke-width="0.02375" stroke-linecap="round" stroke-linejoin="round"/>
<path d="M15.9059 18.4453C15.8465 18.2909 16.084 18.1366 16.0959 17.9941C16.1018 17.8456 16.369 17.7328 16.6481 18.0059M16.5175 16.3791L16.369 16.4503M17.0459 17.2103C16.9806 17.2103 16.844 17.2103 16.7728 17.1569M16.7728 17.5012C16.7253 17.5309 16.6065 17.5725 16.5353 17.5903M14.1543 22.1206C14.1425 22.2572 14.285 22.4591 14.3562 22.5184M14.7481 21.7941C14.706 21.8604 14.6775 21.9345 14.6643 22.012C14.651 22.0894 14.6533 22.1687 14.6709 22.2453M15.8881 22.2453C15.7515 22.1563 15.8406 21.9247 15.8287 21.7703C15.8109 21.6159 15.989 21.3725 16.3334 21.5803M14.6056 21.3725C14.7421 21.3488 14.8846 21.3547 14.9796 21.3962M16.3453 20.9391C16.2975 21.0097 16.2688 21.0915 16.2621 21.1766M16.9925 20.9212C16.8856 20.9212 16.7906 20.9984 16.7431 21.0756M15.5081 17.0084C15.6268 17.05 15.9475 17.2459 15.9593 17.4478M16.8084 16.0109C16.4343 16.005 16.2859 15.625 16.5709 15.625M17.4793 16.5275C17.3368 16.5869 17.4021 16.8363 17.61 16.9609M16.5828 18.9262C16.5115 18.8312 16.6065 18.57 16.844 18.6472M17.1409 21.7169C17.1587 21.4794 17.4496 21.3488 17.5684 21.61M16.0543 22.3819C16.0365 22.1266 16.1731 22.0434 16.28 22.0256C16.3987 22.0138 16.559 22.1088 16.6362 22.275M13.7803 22.5719C13.7921 22.4175 13.9228 22.2572 14.0593 22.2809M27.775 15.7853C27.674 15.8566 27.6087 16.1831 27.9828 16.2128M27.1931 16.3256C27.1931 16.3613 27.2406 16.4147 27.2703 16.4444M28.9921 16.9372C28.8971 16.86 28.6359 17.1747 28.8734 17.3944M26.5578 19.5081C26.5043 19.2884 26.7062 19.2291 26.9021 19.2766M26.0709 17.9584C26.1896 17.8872 26.3084 17.7981 26.4509 17.7625M26.0115 18.8016C26.0115 18.6234 26.1065 18.4631 26.1896 18.4216M26.6884 16.6938C26.6794 16.8861 26.7291 17.0766 26.8309 17.24M28.5053 16.7056C28.3925 16.7412 28.2975 16.7828 28.2559 16.8778M28.3806 17.335C28.44 17.2875 28.4993 17.2341 28.5231 17.1984M31.2721 10.6553C31.2721 10.8691 31.005 10.9878 30.8268 10.8513M31.854 10.6672C31.9728 10.7562 32.3825 10.6672 32.2875 10.4297M31.3493 11.8962C31.2383 11.8637 31.1379 11.8022 31.0584 11.7181M32.1925 11.2609C32.0559 11.2906 31.9609 11.2609 31.8956 11.2312M30.0193 12.0269C30.153 12.0211 30.2842 11.9888 30.4053 11.9319M29.8056 10.6731C29.7046 10.6613 29.6275 10.6791 29.574 10.7206M31.3434 11.0472C31.3138 11.1646 31.2521 11.2715 31.1653 11.3559" stroke="black" stroke-width="0.02375" stroke-linecap="round"/>
<path d="M29.5381 11.3853C29.7281 11.3022 29.9656 11.9494 30.4287 11.7237M30.4643 11.0469C30.4 11.1463 30.3631 11.261 30.3575 11.3794" stroke="black" stroke-width="0.02375" stroke-linecap="round" stroke-linejoin="round"/>
<path d="M21.3154 10.0545C21.3748 10.0426 21.4876 10.0248 21.5114 9.94758M13.4482 17.1735C13.6798 17.3041 13.8401 17.5238 13.7451 17.8504M23.9636 9.34789C24.0348 9.39539 24.2901 9.39539 24.4386 9.34789M24.6167 9.50227C24.6167 9.60914 24.6464 10.0129 24.4386 10.096M24.5157 10.0485C24.7057 10.1079 25.0857 10.0841 25.2104 9.73383M24.9432 10.0307C25.0442 10.1851 25.0739 10.482 24.777 10.6423M25.0145 10.286C25.2401 10.3573 25.7507 10.3691 25.6973 9.92977M25.5192 10.286C25.6795 10.4938 26.3504 10.7491 26.2436 10.3038M24.9076 10.8976C25.1629 10.9629 25.5311 10.7848 25.3826 10.3276M26.1129 10.5591C26.1486 10.7373 27.0036 10.9154 26.8907 10.5176M26.7304 10.7491C26.8907 11.1173 27.7398 11.0876 27.4726 10.5948M27.3361 10.9807C27.5023 11.1826 28.2564 11.0638 27.9536 10.5651M27.9476 10.9688C28.4167 11.3251 28.957 10.8204 28.3632 10.4523M28.6364 10.856C29.052 11.1826 29.5567 10.5888 29.1945 10.4226M25.3707 10.7195C25.5014 10.7551 25.7745 10.7432 25.8398 10.5057M25.7329 10.666C25.7211 11.0104 26.3029 11.141 26.4514 10.7432M26.2554 10.9629C26.3623 11.1945 26.8789 11.2835 26.962 10.957M26.8789 11.1113C26.962 11.337 27.4073 11.3132 27.532 11.0757M27.3657 11.2301C27.5023 11.527 28.0723 11.527 28.197 11.0935M28.102 11.2835C28.3217 11.4201 28.7967 11.3666 28.7551 10.9391M28.6661 11.2479C28.9986 11.5151 29.4617 11.2538 29.2301 10.8026M29.2123 11.5982C29.3904 11.5685 29.4795 11.2182 29.2954 11.1232M25.1392 11.6576C25.4954 11.4616 25.5726 11.1232 25.3173 10.7966M25.4479 11.3251C25.6795 11.4616 26.1129 11.3132 26.1901 10.9807M25.7626 11.3607C25.8932 11.527 25.917 11.7348 25.7448 11.9248M25.8636 11.5745C26.2732 11.3251 26.7779 11.7882 26.3979 12.0732M26.3386 11.5507C26.4276 11.527 26.5879 11.3607 26.5998 11.1707M26.5167 11.7288C26.6889 11.5507 27.8348 11.907 27.1104 12.281M27.0511 11.2479C27.2767 11.331 27.3895 11.6457 27.0511 11.7526M27.3479 12.0138C27.5854 11.7585 28.3573 11.9188 28.0782 12.2395M27.8942 11.9129C28.0307 11.4438 28.8501 11.7348 28.5829 11.9248M27.7279 11.4498C27.7517 11.5388 27.7576 11.7645 27.6092 11.8891M28.4167 11.3548C28.4332 11.4074 28.4376 11.4631 28.4293 11.5176C28.4211 11.5721 28.4005 11.6241 28.3692 11.6695M28.9332 11.3607C28.9807 11.4438 29.052 11.6041 28.8857 11.7348M22.3901 7.8457C22.3961 8.27914 22.5504 8.57008 23.1382 8.29695M22.5742 8.36227C22.2773 8.75414 22.6098 9.1757 23.1857 8.75414M21.6717 8.54633C22.0695 8.97383 22.782 8.66508 22.3248 8.01195M22.7998 8.91445C22.7286 9.33602 23.0729 9.41914 23.352 9.22914M21.3214 8.61758C21.3926 9.03914 21.8261 9.37164 22.2476 9.11633M21.8379 9.19945C21.8379 9.80508 22.6692 9.87039 22.8651 9.24695M22.5682 9.62695C22.8354 10.1791 23.4173 9.95352 23.6073 9.62102M21.9804 8.7482C22.0873 9.01539 22.3011 9.31227 22.7939 9.09258M20.4486 8.61758C20.5198 8.83727 20.9176 9.10445 21.3748 8.7957M20.7336 8.90258C20.4842 9.25883 20.9711 9.59727 21.5648 9.06289M21.0245 9.34195C21.1195 9.84664 21.3214 10.2563 22.0339 9.6032M21.6776 9.86445C21.9389 10.1851 22.3367 10.381 22.7107 9.8407" stroke="black" stroke-width="0.02375"/>
<path d="M22.9958 9.95898C22.9721 10.3449 23.0433 10.5349 23.3461 10.5171C23.5836 10.5052 23.8033 10.3212 23.9339 10.1193M23.2927 10.5171C23.2808 10.9565 23.6252 11.3009 24.2724 10.8555M23.5599 11.0337C23.4411 11.3602 23.8033 11.8946 24.5217 11.6215M22.0339 10.1609C21.9924 10.5765 22.3783 10.8615 23.0077 10.3212M22.3427 10.624C22.3664 10.9684 22.7583 11.384 23.3283 10.7843M22.6158 11.0634C22.5742 11.6512 23.1146 11.8174 23.5717 11.3662M21.8024 10.624C21.9211 10.6359 22.0221 10.529 22.0814 10.4459M22.0577 11.0515C22.1646 11.0752 22.3546 10.9802 22.4139 10.8555M22.3308 11.7462C22.4496 11.8827 22.8652 11.7877 22.9186 11.6096M22.788 11.7402C23.0136 12.2746 23.6252 12.2568 23.8805 11.6512M23.7617 11.8649C23.8805 12.1796 24.1714 12.3755 24.6464 12.2687M23.9933 12.1855C23.7261 12.619 24.0764 13.1355 24.6761 12.6309M24.1417 12.8387C24.1121 13.1118 24.3614 13.4265 24.7058 13.4621M23.0077 12.0371C22.9186 12.6546 23.3639 12.9515 23.9161 12.619M22.3605 12.334C22.503 12.4468 22.7642 12.4587 23.0136 12.3696M23.3105 12.7259C23.168 13.2484 23.7024 13.6224 24.1596 13.0405M22.5624 12.4171C22.5742 12.6843 22.8296 12.9752 23.2808 12.8921M24.5455 13.4265C24.2367 13.6284 24.1774 13.9965 24.6049 14.234M23.7974 13.3196C23.8092 13.6284 23.9577 13.8065 24.3021 13.8362M23.3461 13.1593C22.883 13.5749 23.3342 14.0677 23.8805 13.6521M23.6667 13.7827C23.5124 14.2637 24.0824 14.5546 24.3911 14.0677M22.7167 12.7615C22.5505 13.2365 22.7642 13.5452 23.1561 13.5155M22.1111 12.6665C22.1349 12.9515 22.3783 13.0524 22.6574 12.9871M22.2892 12.9634C22.0814 13.3612 22.3961 13.5749 22.8117 13.4265M24.0586 14.3171C23.9992 14.5665 24.0349 14.7446 24.4089 14.8337M24.0883 14.6734C23.6371 14.8752 23.5955 15.3146 23.9458 15.5937M23.7202 14.1865C23.6662 14.2337 23.6242 14.2931 23.5978 14.3598C23.5714 14.4265 23.5612 14.4985 23.5682 14.5699C23.5751 14.6413 23.599 14.7101 23.6378 14.7704C23.6767 14.8307 23.7293 14.8809 23.7914 14.9168M21.7133 12.7912C21.458 13.0465 21.7014 13.753 22.2774 13.3671M23.2096 13.6818C22.8533 13.9787 23.0136 14.5012 23.5955 14.3587M22.6277 13.468C22.4436 13.9846 22.6158 14.1687 23.0314 14.1746" stroke="black" stroke-width="0.02375"/>
<path d="M21.3325 12.7684C21.2756 12.8074 21.2277 12.8581 21.1918 12.9171C21.156 12.976 21.1331 13.042 21.1247 13.1105C21.1163 13.179 21.1225 13.2485 21.143 13.3144C21.1635 13.3803 21.1977 13.4411 21.2435 13.4927C21.38 13.6471 21.6413 13.5759 21.7185 13.3799M20.6735 12.5605C20.3232 13.0118 20.6735 13.5462 21.1722 13.3918M22.5557 13.9024C22.1994 14.0271 21.9204 14.3537 22.14 14.6446C22.2766 14.8109 22.8407 14.8346 23.001 14.1815M21.9085 13.4809C21.7007 13.7777 21.766 14.0627 22.146 14.2052M21.8847 14.039C21.6591 14.1577 21.5166 14.3062 21.57 14.5734M21.386 13.5699C21.3029 13.9262 21.4038 14.1518 21.6235 14.2587M21.38 13.9974C21.0357 13.9737 20.8575 14.1162 20.9763 14.4605M21.006 14.0805C20.6675 13.9618 20.6141 13.6649 20.7625 13.368M20.715 13.8193C20.3469 13.8312 20.1807 14.0152 20.1807 14.2646" stroke="black" stroke-width="0.02375"/>
<path d="M20.2163 12.3877C19.9491 12.5005 19.8601 12.8627 19.961 13.0586C20.062 13.2545 20.3766 13.2723 20.5666 13.1417M19.4741 12.1027C19.2307 12.3758 19.5098 12.9161 19.9491 12.7855M18.8448 11.8889C18.6191 12.2095 18.8685 12.7439 19.4563 12.5895M19.486 14.0798C19.4266 13.6998 19.8245 13.4505 20.3173 13.9433M20.0798 13.1714C20.0098 13.2343 19.9556 13.3127 19.9216 13.4004C19.8876 13.4881 19.8746 13.5825 19.8838 13.6761M18.2213 11.7048C17.966 12.1323 18.2748 12.5242 18.8151 12.3698M19.6345 12.7677C19.2782 13.1239 19.397 13.4861 19.6641 13.6939M19.4029 13.1892C18.8626 13.1952 18.8329 13.8245 19.2723 14.0205M18.9932 12.5598C18.7676 12.7142 18.6963 13.1358 19.0823 13.302M18.9754 13.5039C18.7438 13.397 18.4707 13.5277 18.4945 13.7948M18.631 13.5098C18.4232 13.023 17.8235 13.1061 17.877 13.6108M18.7973 12.9042C18.6726 12.928 18.4113 13.0052 18.3104 13.2011M18.346 12.352C18.2983 12.4013 18.2634 12.4616 18.2447 12.5277C18.2259 12.5937 18.2238 12.6633 18.2385 12.7303C18.2532 12.7974 18.2843 12.8597 18.3289 12.9118C18.3736 12.9639 18.4305 13.0041 18.4945 13.0289M17.6157 11.5742C17.5682 11.9067 17.6988 12.067 18.1145 12.0373M17.7582 11.9958C17.6038 12.3936 17.8176 12.5717 18.2332 12.548M17.8532 12.4886C17.6098 12.7795 17.776 13.0883 18.0135 13.2189M17.7404 12.8567C17.301 12.7973 17.2357 13.308 17.3841 13.5395" stroke="black" stroke-width="0.02375"/>
<path d="M17.3899 11.5449C17.1227 11.6637 16.9683 11.9962 17.1108 12.198C17.2593 12.4059 17.5502 12.3405 17.7046 12.2337M17.2058 12.293C16.9802 12.6315 17.1821 12.8868 17.4196 12.9818" stroke="black" stroke-width="0.02375"/>
<path d="M16.3458 11.5039C16.1677 11.688 16.2805 12.062 16.702 12.0739C17.0523 12.0739 17.2245 11.7533 17.1177 11.5217M16.6427 12.0739C16.5061 12.3767 16.5952 12.7092 17.1177 12.6558M17.3314 13.1308C17.0167 12.9883 16.5833 13.1308 16.7673 13.5167M16.7258 12.5905C16.5952 12.7745 16.6367 13.0358 16.7852 13.1961M16.702 13.0773C16.4883 13.1189 16.2805 13.2317 16.4052 13.5702M16.3755 13.297C16.1023 13.2139 15.752 13.4158 15.9598 13.6948M15.9183 13.4277C15.6808 13.3861 15.4017 13.6414 15.6273 13.8908M15.5383 13.683C15.3245 13.7423 15.0692 13.9798 15.2948 14.1758M16.6189 12.4836C16.3102 12.6202 16.2805 12.9645 16.423 13.2198M16.2923 11.8542C15.8352 12.0323 15.8411 12.638 16.3517 12.828M16.132 12.6914C15.8589 12.8517 15.8055 13.1605 15.9895 13.3564M15.6511 11.6227C15.473 11.682 15.4848 12.2461 15.9717 12.2342M15.1464 11.8127C14.7783 12.0561 15.2236 12.6736 15.8173 12.2283M15.4908 12.3886C15.4373 12.638 15.5086 12.9111 15.9123 12.9467M15.5145 12.7211C15.2236 12.828 15.1702 13.4277 15.6927 13.4752M14.5883 12.1808C14.2142 12.5252 14.897 12.822 15.1464 12.3233M14.0717 12.7508C13.8877 12.9764 14.5289 13.5583 14.8139 12.5845M14.8792 12.5667C14.897 12.8042 15.0336 12.9348 15.3127 12.9527M15.3127 13.1723C14.8555 13.2436 14.713 13.8077 15.2177 13.9323M14.4755 13.1011C14.4577 13.3089 14.6833 13.487 14.9327 13.4514M15.1642 13.9145C14.7486 14.0095 14.6952 14.5439 15.0633 14.5083M14.8733 15.007C14.5289 14.9061 14.517 14.4964 14.8258 14.342" stroke="black" stroke-width="0.02375"/>
<path d="M14.5877 14.6509C14.2967 14.8291 14.4095 15.2447 14.5639 15.3041C14.7183 15.3634 14.843 15.2922 14.8608 15.1616M14.8311 15.7553C14.8667 15.9512 14.1245 15.8741 14.5045 15.2566M14.5045 15.785C14.2552 16.1769 14.6589 16.4975 14.9142 16.1591M14.5342 16.2541C14.4333 16.5687 14.8133 16.7944 15.0567 16.5509M13.7148 13.3209C13.5783 13.6 14.267 13.7069 14.3086 13.125M13.5248 13.7366C13.3883 14.2887 14.4273 14.1759 14.1602 13.4634M14.1839 13.8316C14.253 13.8639 14.3287 13.8796 14.4049 13.8773C14.4811 13.875 14.5557 13.8549 14.6228 13.8185C14.6898 13.7821 14.7473 13.7305 14.7907 13.6678C14.8341 13.6051 14.8622 13.533 14.8727 13.4575M14.558 13.8494C14.5768 13.9273 14.6112 14.0007 14.6592 14.065C14.7072 14.1293 14.7677 14.1832 14.837 14.2234M14.0592 13.9919C14.0117 14.2888 14.3145 14.5381 14.653 14.5144M14.1127 14.2828C13.9464 14.5144 13.893 14.9537 14.4214 14.9834M13.2992 14.3659C13.2161 14.6034 13.7148 14.8469 13.9998 14.455M13.1448 14.9716C13.1033 15.1497 13.5486 15.3872 13.798 14.6272M13.602 15.0131C13.7089 15.2031 14.0711 15.3575 14.2908 14.9834M13.9345 15.215C13.8395 15.4822 14.0948 15.7316 14.3977 15.6603M13.3586 15.1556C13.2992 15.5356 13.7445 15.7553 14.0117 15.5594M13.0677 15.3219C12.937 15.8087 13.5664 15.9928 13.8039 15.6247M13.6436 15.7731C13.6673 16.0463 14.0948 16.2837 14.4273 16.0581M12.8777 15.9987C12.848 16.1234 13.3586 16.2481 13.4358 15.8206M13.1745 16.1116C13.2933 16.4203 13.7089 16.4975 13.9464 16.1116M13.8098 16.2659C13.8692 16.5628 14.2373 16.7231 14.5698 16.5212M14.7064 16.64C14.6233 17.0259 15.027 17.3406 15.2764 17.1269M14.0533 16.5687C13.9345 16.9962 14.4689 17.2397 14.7658 17.0022M13.412 16.3491C13.3823 16.7528 13.697 16.9903 14.0533 16.8122M12.7292 16.3966C12.6223 16.6519 13.1923 16.8656 13.4595 16.6459M12.3789 17.1031C12.5273 17.2694 13.032 17.1031 13.0736 16.7291M12.937 17.0022C13.1211 17.2159 13.5605 17.3347 13.7327 16.8716M13.5783 17.1091C13.5783 17.4416 14.1602 17.6791 14.3502 17.0734M15.0448 17.1922C14.9855 17.3525 15.1161 17.6078 15.3833 17.6375M14.558 17.0912C14.5223 17.2694 14.7895 17.5306 15.0745 17.4297M15.128 17.5069C15.0508 17.7028 15.1161 17.9878 15.3833 17.9819M15.1517 17.875C14.9498 18.0412 15.033 18.3441 15.3239 18.35M15.0508 18.16C14.7658 18.35 14.8667 18.7716 15.2408 18.7478M14.1898 17.3347C14.1898 17.7503 14.7064 17.8097 14.8014 17.4297M14.6055 17.6672C14.5283 17.9166 14.7242 18.1541 15.0389 18.0828M14.6648 20.6241C14.7361 20.725 15.0211 20.5528 14.9439 20.3866C14.8667 20.2203 14.5639 20.3094 14.5995 20.4875M14.8727 20.3153C14.9083 19.9828 14.5164 19.9294 14.4155 20.2203M14.558 20.0481C14.6589 19.8819 14.3205 19.6503 14.1839 19.8997M14.3027 19.7987C14.3977 19.5553 14.0177 19.4425 13.988 19.6681M13.8989 19.3475C13.9464 19.2287 14.3739 19.3 14.1958 19.5553M14.5223 19.8581C14.6886 19.7037 14.4036 19.395 14.2255 19.5019M15.6505 20.3272C15.5198 20.3391 15.3833 20.4281 15.4783 20.7131C15.5495 20.9091 15.8405 20.915 15.888 20.8022" stroke="black" stroke-width="0.02375"/>
<path d="M15.4663 20.4753C15.3357 20.3862 15.0507 20.5347 15.1813 20.8078M15.1813 20.8078C15.2763 21.0156 15.5257 20.9266 15.5613 20.8197M15.1813 20.8078C15.1219 20.9266 14.8013 20.9859 14.7301 20.8672M14.9557 20.4872C15.0269 20.4397 15.1516 20.4991 15.1754 20.5584M14.9379 18.5991C14.7122 18.7475 14.8488 19.1928 15.1932 19.0741M14.8607 18.9612C14.6826 19.0978 14.8488 19.5313 15.1754 19.365M14.9201 19.365C14.7954 19.4897 14.9141 19.8281 15.2288 19.7628M14.8726 19.5372C14.8013 19.5075 14.6232 19.5253 14.546 19.6441M14.6707 17.9816C14.5044 18.1478 14.5876 18.4744 14.8963 18.5041M14.6113 18.3259C14.3738 18.4447 14.3738 18.9197 14.8488 18.9375M14.5935 18.8603C14.4569 18.9672 14.5222 19.3828 14.8666 19.3294M14.7004 19.3116C14.6529 19.365 14.641 19.4897 14.6885 19.5431M14.5519 19.1572C14.4332 19.1572 14.2669 19.2462 14.2254 19.3769M14.0057 18.9316C14.0472 18.8128 14.4272 18.8128 14.4569 19.175M14.4926 18.7475C14.4391 18.7594 14.3382 18.8069 14.3144 18.9138M14.3263 17.6253C14.166 17.7797 14.0888 18.2487 14.5816 18.3378M13.9938 18.5991C13.9938 18.4744 14.3382 18.3616 14.4569 18.5516M13.7741 17.9162C13.8216 18.0112 14.0591 18.1419 14.2016 18.035M12.5391 17.1681C12.5368 17.2231 12.5466 17.2779 12.5679 17.3286C12.5892 17.3793 12.6214 17.4247 12.6622 17.4615C12.703 17.4984 12.7515 17.5258 12.8041 17.5418C12.8567 17.5578 12.9122 17.562 12.9666 17.5541C13.2219 17.5244 13.2754 17.3047 13.1982 17.1562M13.0082 17.5659C12.836 17.7678 13.0438 18.0587 13.2338 17.9756M13.1982 17.4175C13.2991 17.3819 13.6257 17.3344 13.7266 17.4888M12.1354 17.4769C12.0582 17.5956 12.5332 17.7084 12.6935 17.4888M12.5332 17.6016C12.5154 17.7559 12.5926 18.0172 12.9844 17.9044" stroke="black" stroke-width="0.02375"/>
<path d="M13.0497 18.1415C13.1091 18.0109 12.8241 17.7971 12.5984 18.0346C12.3788 18.2721 12.6341 18.5393 12.7706 18.4502M12.0344 17.6309C11.9156 17.8327 12.3609 18.1949 12.6163 17.8565" stroke="black" stroke-width="0.02375"/>
<path d="M11.7381 17.9751C11.5778 18.1413 11.7797 18.4441 12.0172 18.3491C12.2606 18.2601 12.2368 18.0048 12.1775 17.9395" stroke="black" stroke-width="0.02375"/>
<path d="M11.4291 18.2842C11.2985 18.403 11.4291 18.6761 11.6072 18.6761C11.7854 18.6761 11.8982 18.5395 11.8625 18.3555M12.1594 18.2605C12.1357 18.4386 12.3969 18.5573 12.5691 18.3911M12.5691 18.0705C12.5988 18.0348 12.581 17.9695 12.5394 17.9339M11.15 18.5158C11.0016 18.6345 11.3282 18.967 11.5241 18.6642M12.3019 18.4564C12.2069 18.5455 12.3613 18.783 12.5157 18.7117M11.7794 18.6227C11.8032 18.783 12.1238 18.9077 12.3257 18.6583M11.9516 18.783C11.9041 18.8898 12.005 19.0502 12.1297 19.0323M14.9975 19.733C14.8788 19.9645 15.2588 20.2377 15.5319 19.9527M15.2707 20.0773C15.2113 20.202 15.2825 20.3802 15.3894 20.4455M14.9144 20.3445C14.9382 20.2258 15.1044 20.1189 15.2529 20.1723M14.7185 20.0417C14.7363 19.9348 14.8729 19.8339 14.9797 19.8636M23.8741 15.9745C23.405 16.1467 23.1735 15.2739 23.7197 15.268C23.3932 15.3392 23.1379 15.2027 23.1141 15.0245M23.5416 15.9152C23.4347 16.0873 23.6425 16.3664 23.8741 16.2002M23.8147 16.2358C23.6485 16.503 24.2244 16.9127 24.456 16.4911M24.2719 16.6514C24.2719 16.9067 25.0141 17.067 24.9072 16.5623M24.836 16.8355C25.0141 17.1323 25.6672 17.162 25.6019 16.7167M25.4535 17.0255C25.59 17.2273 26.2372 17.3461 26.2135 16.9364M22.8469 14.5139C22.936 14.7514 23.2507 14.8345 23.595 14.692M22.645 14.6802C22.8647 14.8167 22.55 15.4461 22.2235 15.1908M22.651 15.072C22.8885 15.1848 23.1794 15.1017 23.2625 14.7633M22.5263 15.2086C22.835 15.4698 22.3897 16.0042 22.1879 15.7608M22.6391 15.4045C22.7875 15.5114 23.1616 15.452 23.1972 15.167M23.031 15.4045C23.0607 15.5886 23.2091 15.6598 23.411 15.6658M22.556 15.6598C22.7104 15.8736 23.0904 15.933 23.2625 15.6539M23.0904 15.8142C23.0785 16.0161 23.3041 16.1883 23.5416 16.1408M22.265 16.2655C22.461 16.3664 22.6807 15.9864 22.5085 15.7311M22.4966 16.6633C22.7341 16.6752 22.7638 16.3189 22.5382 16.117M23.0369 16.9898C23.2388 16.9423 23.1735 16.5089 22.6925 16.4733M23.6425 17.3105C23.8325 17.257 23.6782 16.7761 23.1497 16.8058M24.3669 17.4827C24.4975 17.2808 24.07 16.9483 23.7138 17.1264M24.7232 17.7558C24.9607 17.827 25.1269 17.1977 24.3729 17.2986M25.1625 17.7558C25.3704 17.6964 25.5188 17.3283 24.9132 17.447M25.6257 17.7855C25.8038 17.8805 25.8869 17.3402 25.3288 17.4886M22.5382 16.123C22.7697 16.2477 23.1319 16.0992 23.0963 15.8083M23.0072 16.0577C23.0844 16.1942 23.0547 16.4614 22.9063 16.5327M23.025 16.3783C23.1794 16.4377 23.3872 16.3842 23.5119 16.1408M23.2982 16.3783C23.3397 16.4852 23.3575 16.6989 23.2566 16.8058M23.3338 16.5623C23.506 16.6573 23.7019 16.5327 23.785 16.3545M23.6782 16.5089C23.7969 16.5861 23.9097 16.9423 23.7019 17.0908M23.8207 16.9245C23.9632 16.9245 24.1769 16.9245 24.3135 16.7464M24.2125 16.8473C24.3432 16.883 24.4975 17.0967 24.4441 17.2867M24.45 17.2214C24.5985 17.2036 24.8479 17.1027 24.9191 16.9245M24.8479 17.0433C24.9137 17.0821 24.9668 17.1393 25.0005 17.2078C25.0343 17.2764 25.0473 17.3534 25.0379 17.4292M25.0379 17.3045C25.1863 17.2986 25.3169 17.2214 25.3525 17.0611M25.3169 17.168C25.4238 17.2036 25.5544 17.3283 25.5604 17.4708M25.5425 17.3817C25.6494 17.3639 25.7266 17.2986 25.7979 17.1917M26.0888 17.1739C26.2254 17.3105 26.0413 17.7677 25.7563 17.6845M23.1497 7.90547C22.8707 8.07766 22.0632 8.02422 22.461 7.35922M23.2329 7.45422C22.6688 7.67984 21.986 7.24641 22.6985 6.78328M22.5085 6.62891C22.0454 6.62891 21.7307 7.37703 22.3541 7.63828M20.6975 6.94359C20.5788 7.18109 21.0122 7.44234 21.3091 7.20484C21.5407 7.02078 21.5229 6.52203 21.3863 6.33203M20.46 7.50766C20.3057 8.01234 21.4338 8.04203 21.2557 7.24047M20.4007 8.26172C20.4363 8.64172 21.4754 8.51703 21.1429 7.74516M21.2616 7.53141C21.3447 7.65016 21.5763 7.84609 21.9682 7.80453M21.4338 7.00297C21.4694 7.13953 21.701 7.24047 21.9979 7.13953M11.0075 18.6286C10.7404 18.8127 11.15 19.1095 11.2985 18.783M10.7997 18.7711C10.5385 18.9611 10.9422 19.258 11.0907 18.9314M10.58 18.9136C10.3188 19.1036 10.7225 19.3945 10.8769 19.0739M10.3544 19.0442C10.0991 19.1808 10.396 19.5073 10.6513 19.2223M10.105 19.1689C9.84973 19.3055 10.1466 19.632 10.4019 19.347M11.3875 18.777C11.3816 18.973 11.7497 19.0502 11.8863 18.7592M11.6191 18.9552C11.5004 19.1036 11.7141 19.2817 11.8269 19.2164M11.1263 18.9314C11.1144 19.0977 11.435 19.1927 11.5894 19.0086M11.2985 19.1036C11.1975 19.2342 11.3994 19.4183 11.536 19.3648M10.9125 19.0798C10.9244 19.2105 11.1085 19.3589 11.3044 19.2758M11.0313 19.258C10.9541 19.3233 10.9897 19.4836 11.0966 19.537M10.6335 19.2402C10.6038 19.3589 10.8057 19.5727 11.0135 19.4361M10.675 19.3767C10.5563 19.4777 10.5682 19.6202 10.7225 19.6439M10.3782 19.3648C10.3663 19.448 10.4672 19.5786 10.5979 19.5608M9.72504 19.3589C9.60629 19.4242 9.91504 19.7567 10.111 19.448M9.42223 19.4955C9.26786 19.5667 9.64786 19.9348 9.82004 19.5608M10.4138 19.4836C10.295 19.5073 10.2179 19.6795 10.3188 19.7508M10.0219 19.543C10.01 19.6142 10.1585 19.7211 10.2772 19.6855M9.92692 19.5727C9.80817 19.6439 9.87348 19.8458 10.01 19.8161M9.51723 19.7092C9.41036 19.7864 9.48754 19.9467 9.63598 19.9111M9.71317 19.6973C9.71317 19.7389 9.81411 19.8042 9.89129 19.7745M9.14911 19.6261C9.01254 19.6855 9.02442 20.018 9.47567 19.8398M8.84629 19.7627C8.65629 19.8517 8.72161 20.107 9.13129 19.8636M9.16098 19.8814C9.11348 19.923 9.06004 20.0892 9.25004 20.0239M8.82254 19.9645C8.74536 20.0298 8.79286 20.1723 8.95911 20.1189M8.42473 19.9883C8.28817 20.0655 8.59098 20.1723 8.79286 19.9586M8.51973 20.0833C8.46036 20.1427 8.46036 20.3267 8.61473 20.2614M8.12786 20.1605C8.03879 20.2258 8.18723 20.3208 8.48411 20.1902M8.24661 20.2555C8.13379 20.3445 8.14567 20.4573 8.30598 20.4217M7.92598 20.303C7.80723 20.4158 7.97942 20.487 8.18723 20.398M7.92598 20.4277C7.72411 20.5167 7.81317 20.6889 7.93786 20.6236M14.6947 21.0095C14.6472 21.1105 14.8016 21.1936 14.95 21.1698C15.0866 21.152 15.2232 21.0333 15.1163 20.873M15.1222 21.0748C15.2647 21.1817 15.5082 21.057 15.5082 20.8967" stroke="black" stroke-width="0.02375"/>
<path d="M23.5598 4.86612C22.9482 4.56925 21.6776 3.99925 21.3154 4.45643C21.6479 4.31987 22.6098 4.46237 23.4054 5.19862L23.5598 4.87206V4.86612Z" fill="white" stroke="black" stroke-width="0.02375"/>
<path d="M23.9284 4.83554C23.2218 4.01023 22.8002 4.19429 22.2955 3.91523C21.8205 3.64804 21.0605 3.5946 20.9121 4.01616C21.6068 3.67773 22.248 4.19429 22.6459 4.26554C23.1802 4.34866 23.489 4.77023 23.6493 4.96023L23.9284 4.84148V4.83554ZM26.5943 4.72866C26.2262 3.89148 25.4424 4.11116 25.098 3.75491C24.5934 3.23241 23.3168 2.74554 22.7824 3.10773C23.9462 3.04835 24.4449 3.90929 25.0624 4.2121C25.5077 4.42585 25.9827 4.88304 26.5943 4.72866Z" fill="white" stroke="black" stroke-width="0.02375"/>
<path d="M25.2162 4.64037C24.5928 3.86256 23.625 3.17381 23.1856 3.42912C23.7675 3.46475 23.9515 3.8685 24.3612 4.12975C24.7768 4.38506 24.5928 4.76506 25.2162 4.64037ZM22.2356 6.01787C21.5825 5.77443 20.294 5.64975 19.6943 6.39787C20.6918 6.57006 22.1881 6.47506 22.2356 6.01787Z" fill="white" stroke="black" stroke-width="0.02375"/>
<path d="M22.1111 6.30919C21.4579 6.00044 20.9414 6.42794 20.3239 6.36857C19.1482 6.24982 18.3051 6.32107 18.1982 6.89107C18.8692 6.28544 20.0032 6.78419 20.4604 6.65951C20.9176 6.54076 22.6157 6.64169 23.1501 6.87326C22.877 6.53482 22.4495 6.44576 22.1111 6.30919ZM24.1773 4.55763C24.0229 4.05294 24.0348 3.51857 24.7889 3.55419C24.5989 3.31669 23.8982 3.19794 23.7795 4.08263C22.9482 3.47107 22.0339 3.36419 21.8676 3.89263C22.2951 3.52451 22.9601 3.79169 23.7557 4.69419C23.8882 4.62679 24.0305 4.5807 24.1773 4.55763Z" fill="white" stroke="black" stroke-width="0.02375"/>
<path d="M23.0316 5.25184C22.5566 4.94309 21.9153 4.45027 23.0375 4.2484C22.5625 3.99309 21.85 4.1059 21.9272 4.99059C20.6447 4.47402 19.7244 4.64621 19.5284 5.16277C19.3147 5.72684 20.1103 6.04152 20.2469 5.67934C20.1044 5.73871 19.6056 5.57246 19.8669 5.25184C20.1281 4.93121 21.4581 5.17465 22.7228 5.83371C23.0791 6.01184 24.2844 5.98809 23.0316 5.25184Z" fill="white" stroke="black" stroke-width="0.02375"/>
<path d="M22.6933 6.09508C22.3311 5.34695 21.1436 6.02383 20.9061 5.29945C20.5736 6.36227 22.5923 5.77445 22.6933 6.09508ZM30.2398 6.90258C30.4892 7.02727 30.703 6.83133 30.323 6.68289C30.5723 6.80164 30.792 6.61758 30.412 6.4632C30.6614 6.58195 30.8751 6.39789 30.4951 6.24352C30.3942 6.34445 30.2517 6.71852 30.2398 6.90258ZM30.3705 5.4657C30.9226 4.88383 30.3289 4.68789 30.9998 4.0882C31.552 3.60133 31.1067 3.27477 31.6233 2.9007C31.7955 2.77602 32.1576 2.53258 32.1933 2.2832C32.413 2.83539 31.5045 2.91258 31.5639 3.79727C31.6055 4.36133 31.2195 4.31383 31.077 5.26977C31.0473 5.4657 30.9048 5.91102 30.3705 5.4657Z" fill="white" stroke="black" stroke-width="0.02375"/>
<path d="M30.6133 5.7275C30.922 5.07437 31.2723 5.08031 31.4445 4.825C31.7652 4.33219 32.442 4.90813 33.018 4.46875C32.917 5.09219 32.1452 4.8725 31.8067 5.27031C31.4742 5.66812 31.1952 5.84625 30.6192 5.7275H30.6133Z" fill="white" stroke="black" stroke-width="0.02375"/>
<path d="M30.6967 5.94066C31.2311 5.51316 31.623 5.79816 31.9911 5.57253C32.9233 5.00847 33.2974 5.69128 34.1286 5.41816C33.9149 5.95253 32.6799 5.49535 32.1455 5.89316C31.6111 6.29097 29.7289 6.67691 30.6908 5.94066H30.6967ZM29.1352 8.99253C29.1233 8.7491 28.8977 8.43441 28.5771 8.39878C28.2564 8.35722 28.1139 8.01878 27.8705 8.00691C27.6271 7.9891 27.4667 7.50222 27.1283 7.50816C26.7958 7.5141 26.6533 7.95347 27.443 8.35128C28.2327 8.7491 29.1055 9.20628 29.1352 8.99253ZM28.1377 9.20035C27.8052 9.21222 27.7577 9.70503 27.4371 9.71691C27.8764 9.95441 28.203 9.61003 28.4286 9.30128L28.1436 9.20035H28.1377Z" fill="white" stroke="black" stroke-width="0.02375"/>
<path d="M28.4168 9.25977C28.12 9.5032 28.0368 10.0138 28.4584 10.1623C28.209 9.81195 28.9037 9.65758 28.69 9.33102L28.4168 9.25977Z" fill="white" stroke="black" stroke-width="0.02375"/>
<path d="M28.7016 9.27797C28.476 9.71734 29.0638 9.77078 28.9095 10.1092C29.2479 10.032 29.3013 9.39672 28.9926 9.23047L28.7016 9.27203V9.27797Z" fill="white" stroke="black" stroke-width="0.02375"/>
<path d="M26.457 8.32662C27.0092 8.29693 27.508 8.5938 27.8464 9.07474C28.0602 9.37755 28.7786 9.50224 29.028 9.25286C29.2655 9.01536 29.1348 8.49286 28.5233 8.65911C28.3689 8.4038 27.9295 8.49287 27.7098 8.27912C27.4961 8.06537 26.6708 7.4538 26.457 8.32662Z" fill="white" stroke="black" stroke-width="0.02375"/>
<path d="M28.5235 8.66625C28.3751 8.69594 28.3276 8.94531 28.4226 9.07594L28.5235 8.66625ZM28.8382 8.81469C28.8798 8.89188 28.8501 8.99875 28.8263 9.05219L28.8382 8.81469ZM27.3301 8.35156C27.6091 8.36344 27.6626 8.57125 27.9713 8.64844L27.3301 8.35156Z" fill="white"/>
<path d="M28.5235 8.66625C28.3751 8.69594 28.3276 8.94531 28.4226 9.07594M28.8382 8.81469C28.8798 8.89188 28.8501 8.99875 28.8263 9.05219M27.3301 8.35156C27.6091 8.36344 27.6626 8.57125 27.9713 8.64844" stroke="black" stroke-width="0.02375" stroke-linecap="round"/>
<path d="M27.1396 7.65711C27.911 7.80785 28.6608 8.05314 29.3721 8.38743C29.8531 8.66055 30.6012 8.74368 31.2484 8.55368C31.9015 8.37555 33.1603 8.20336 33.0949 9.0168C33.4393 8.60711 33.0059 8.17367 32.1331 8.09649C32.1509 7.69867 31.7234 7.34243 31.4206 7.57993C31.6996 7.53836 31.9431 8.0668 31.3849 8.28055C31.41 8.18853 31.4082 8.09125 31.3797 8.00025C31.3511 7.90924 31.2971 7.82832 31.224 7.76708C31.1509 7.70584 31.0617 7.66685 30.9671 7.65472C30.8725 7.6426 30.7765 7.65785 30.6903 7.69868C30.9515 7.77586 31.2246 8.22118 30.6309 8.38743C30.2568 8.4943 29.7165 8.35774 29.3128 8.1143C28.909 7.87086 26.6409 6.98617 27.1396 7.65117V7.65711Z" fill="white" stroke="black" stroke-width="0.02375"/>
<path d="M29.6042 7.25881C29.3014 7.39538 29.4974 7.716 29.0283 7.90006C28.5533 8.07819 28.2208 8.49975 28.3277 8.86194C28.6483 8.15538 29.2183 8.191 29.4142 7.91194C29.6161 7.63881 29.9071 7.23506 29.6042 7.25881Z" fill="white" stroke="black" stroke-width="0.02375"/>
<path d="M29.6875 7.30025C29.6756 7.85838 29.2362 7.6565 29.4084 8.44025C29.4618 8.68369 29.5628 9.0815 29.3906 9.47931C29.8834 9.12306 29.5687 8.369 29.7884 8.084C29.8953 7.9415 30.0378 7.72775 30.0853 7.54963C29.9725 7.86431 29.9843 8.464 30.2931 8.61838C30.0437 8.02463 30.9759 7.53181 30.3346 6.83713C30.2396 7.01525 29.9487 7.31213 29.6934 7.30025H29.6875ZM28.1318 6.74213C28.209 6.86088 28.2862 7.14588 28.215 7.31213C28.3693 7.21713 28.589 6.97963 28.6603 6.81931C28.975 6.86681 29.0937 7.25275 28.7968 7.42494C28.975 7.42494 29.2956 7.42494 29.4678 7.21713C29.254 6.97963 28.589 6.6115 28.1318 6.74213Z" fill="white" stroke="black" stroke-width="0.02375"/>
<path d="M23.3754 5.64407C23.2925 5.58004 23.1942 5.53907 23.0904 5.52532C22.6272 5.43032 22.8707 5.01469 23.2625 5.02063C24.1057 4.10032 24.5747 4.80688 25.6019 4.52188C25.9582 4.415 26.2075 4.44469 26.3975 4.53375C26.8607 4.225 27.395 4.30813 27.7869 4.67032C27.8264 4.60221 27.8899 4.55137 27.965 4.52782C28.3272 4.42688 28.6182 4.72969 28.7191 5.1275C28.9982 5.08 29.3188 5.21657 29.5325 5.40657C29.8235 5.25813 30.0194 5.25219 30.0966 5.40657C30.3579 5.28782 30.6904 5.20469 30.8625 5.62032C31.0347 6.03594 30.4647 5.91125 30.3697 6.78407C30.3104 7.31844 29.7166 7.53219 29.2416 7.21157C28.4816 6.695 27.7394 6.61782 27.3713 7.38969C27.0091 8.17344 26.7182 8.62469 25.8275 8.36938C25.6426 8.3274 25.4494 8.34172 25.2727 8.4105C25.0959 8.47928 24.9439 8.59937 24.836 8.75532C24.5747 9.11157 24.1829 8.77907 23.7079 8.81469C24.3016 8.72563 24.07 8.57719 24.5925 8.54157C25.0675 8.51188 24.9429 8.06657 25.2457 8.00719C24.0582 8.31 24.0997 7.86469 23.12 8.17344C23.5475 7.62125 24.2244 7.93 24.5569 7.60938C23.6722 7.59157 23.2744 7.01563 22.8766 7.25313C22.2532 7.63907 22.5204 8.72563 20.8875 8.63063C20.0919 8.58907 19.5872 8.69 19.1182 9.165C19.9435 7.455 21.0657 8.39313 21.6119 7.85282C21.8953 7.59782 22.1412 7.30396 22.3422 6.98C22.3657 6.93301 22.3991 6.89167 22.4401 6.85887C22.4811 6.82606 22.5287 6.80256 22.5797 6.79C21.22 6.3625 22.0454 5.69157 23.3754 5.64407Z" fill="white" stroke="black" stroke-width="0.02375"/>
<path d="M30.0974 5.40039C30.1153 5.44789 30.1271 5.50727 30.1271 5.57852C30.1271 5.91102 29.6224 5.92289 29.5928 6.42164C29.5749 6.68289 29.5453 6.82539 29.3731 6.7957C29.1949 6.76602 29.0406 6.49289 29.2068 6.17227" fill="white"/>
<path d="M30.0974 5.40039C30.1153 5.44789 30.1271 5.50727 30.1271 5.57852C30.1271 5.91102 29.6224 5.92289 29.5928 6.42164C29.5749 6.68289 29.5453 6.82539 29.3731 6.7957C29.1949 6.76602 29.0406 6.49289 29.2068 6.17227" stroke="black" stroke-width="0.02375" stroke-linecap="round"/>
<path d="M23.6308 5.14484C23.5238 5.06655 23.3953 5.02302 23.2627 5.02016L23.6308 5.14484ZM26.3977 4.52734C26.8014 4.70547 26.9974 5.12109 27.5852 5.14484C28.1552 5.16266 28.5055 5.98797 29.4555 5.44766C29.479 5.43536 29.5028 5.42349 29.5268 5.41203M27.7871 4.66984C27.7055 4.8182 27.6762 4.9897 27.7039 5.15672L27.7871 4.66984ZM25.9346 6.40359C25.2221 6.40359 25.0321 6.76578 25.0321 7.11609C25.0321 7.47234 25.3705 7.92953 25.9643 7.92953C26.558 7.92953 26.8846 7.56141 26.8846 7.16359C26.8846 6.76578 26.5164 6.39766 25.9346 6.39766V6.40359Z" fill="white"/>
<path d="M23.6308 5.14484C23.5238 5.06655 23.3953 5.02302 23.2627 5.02016M26.3977 4.52734C26.8014 4.70547 26.9974 5.12109 27.5852 5.14484C28.1552 5.16266 28.5055 5.98797 29.4555 5.44766C29.479 5.43536 29.5028 5.42349 29.5268 5.41203M27.7871 4.66984C27.7055 4.8182 27.6762 4.9897 27.7039 5.15672M25.9346 6.40359C25.2221 6.40359 25.0321 6.76578 25.0321 7.11609C25.0321 7.47234 25.3705 7.92953 25.9643 7.92953C26.558 7.92953 26.8846 7.56141 26.8846 7.16359C26.8846 6.76578 26.5164 6.39766 25.9346 6.39766V6.40359Z" stroke="black" stroke-width="0.02375"/>
<path d="M26.0659 7.91227C26.054 7.71633 25.6918 7.74602 25.7096 7.59164C25.7215 7.43727 25.9056 7.37789 25.9056 7.16414C25.9056 6.95039 26.2262 6.93258 26.3331 7.10477C26.4399 7.27102 26.7606 7.59758 26.8318 7.43133M26.3331 7.10477C26.235 7.20924 26.1784 7.34595 26.174 7.48918C26.1697 7.63242 26.2178 7.77232 26.3093 7.88258M26.5646 7.36008C26.5052 7.47883 26.4934 7.65696 26.5587 7.76383L26.5646 7.36008Z" fill="white"/>
<path d="M26.0659 7.91227C26.054 7.71633 25.6918 7.74602 25.7096 7.59164C25.7215 7.43727 25.9056 7.37789 25.9056 7.16414C25.9056 6.95039 26.2262 6.93258 26.3331 7.10477M26.3331 7.10477C26.4399 7.27102 26.7606 7.59758 26.8318 7.43133M26.3331 7.10477C26.235 7.20924 26.1784 7.34595 26.174 7.48918C26.1697 7.63242 26.2178 7.77232 26.3093 7.88258M26.5646 7.36008C26.5052 7.47883 26.4934 7.65696 26.5587 7.76383" stroke="black" stroke-width="0.02375"/>
<path d="M29.4201 6.8018C29.9841 6.8493 30.0732 6.22586 29.6576 6.19023M28.7254 5.13336C28.5354 4.88398 28.0841 4.80086 28.0723 5.32336" stroke="black" stroke-width="0.02375"/>
<path d="M28.0251 5.92299C27.8351 5.44799 27.3423 5.38268 27.087 5.62018C26.8673 5.81612 26.8614 6.33268 27.3245 6.43955C27.4907 6.24362 27.7995 5.99424 28.0251 5.92299ZM27.8173 5.62612C27.5382 5.38268 27.1345 5.8458 27.5026 6.26737L27.8173 5.62612ZM22.5745 6.78393C22.7645 6.74237 23.0317 6.83143 23.4473 7.02143C23.7026 7.14612 24.4864 7.40736 24.9732 7.14611C24.4686 7.33018 24.0826 6.57018 23.7026 6.65924C23.3226 6.75424 22.622 6.89674 22.3311 6.61174C23.0436 6.65924 23.4295 6.08924 24.2548 6.58205C24.4881 6.72673 24.7582 6.80095 25.0326 6.7958C24.3617 5.9883 23.477 6.50487 23.382 5.8458C23.7857 6.28518 24.7773 5.7508 25.282 6.56424M23.5304 5.97049C23.4354 5.85174 23.4711 5.73299 23.3761 5.64393L23.5304 5.97049Z" fill="white"/>
<path d="M27.8173 5.62612C27.5382 5.38268 27.1345 5.8458 27.5026 6.26737M22.5745 6.78393C22.7645 6.74237 23.0317 6.83143 23.4473 7.02143C23.7026 7.14612 24.4864 7.40736 24.9732 7.14611C24.4686 7.33018 24.0826 6.57018 23.7026 6.65924C23.3226 6.75424 22.622 6.89674 22.3311 6.61174C23.0436 6.65924 23.4295 6.08924 24.2548 6.58205C24.4881 6.72673 24.7582 6.80095 25.0326 6.7958C24.3617 5.9883 23.477 6.50487 23.382 5.8458C23.7857 6.28518 24.7773 5.7508 25.282 6.56424M23.5304 5.97049C23.4354 5.85174 23.4711 5.73299 23.3761 5.64393M28.0251 5.92299C27.8351 5.44799 27.3423 5.38268 27.087 5.62018C26.8673 5.81612 26.8614 6.33268 27.3245 6.43955C27.4907 6.24362 27.7995 5.99424 28.0251 5.92299Z" stroke="black" stroke-width="0.02375"/>
<path d="M28.7258 5.13246C28.5595 4.95433 28.1914 5.0909 28.2983 5.45308C28.3371 5.36766 28.3965 5.29316 28.4711 5.2362C28.5456 5.17923 28.6331 5.14155 28.7258 5.12652V5.13246ZM27.6867 6.11215C27.789 6.03162 27.9031 5.96751 28.0251 5.92215C27.9784 5.80115 27.9006 5.69464 27.7995 5.61339C27.7105 5.55402 27.4611 5.89246 27.6867 6.10621V6.11215Z" fill="black"/>
<path d="M27.235 5.49026C26.9619 5.3062 26.7066 5.32401 26.6235 5.47245C26.4275 5.47245 26.2613 5.61495 26.2553 5.89995M26.6769 6.02463C26.3503 5.79901 25.8991 5.88213 25.9288 6.38682M25.7269 6.67776C25.8872 6.54713 26.1188 6.45213 26.2969 6.67776M28.185 6.17901C28.1256 6.26213 28.0781 6.39276 28.1791 6.59463C28.0603 6.42838 27.7516 6.42838 27.4191 6.85588M28.9094 6.15526C28.5116 6.20276 28.5235 6.46401 28.8441 6.57088M26.0831 5.18151C25.7447 5.1162 25.5013 5.31213 25.9644 5.47838M26.7244 4.95588C26.2494 4.83713 26.0594 4.96182 26.2731 5.07463M25.3528 6.85588C25.341 7.02807 25.43 7.24776 25.7091 6.99838M25.4478 7.36057C25.4478 7.40807 25.4419 7.46151 25.4063 7.50307M24.3435 5.12807C24.0525 5.03901 23.9991 4.77182 24.3435 4.79557M24.2485 5.74557C23.9278 5.63276 23.9278 5.32401 24.1891 5.3537M24.8422 5.57932C24.4681 5.49026 24.4563 5.22901 24.7353 5.27057M24.8897 4.7837C24.6878 4.77182 24.385 4.99151 24.8956 5.12213M25.4478 5.22901C24.9788 5.1637 24.9906 5.34776 25.2638 5.47245M25.7981 4.7837C25.4419 4.71838 25.3172 4.93213 25.5606 5.0212M24.67 6.10776C24.581 6.03651 24.5097 5.69213 24.9253 5.79307M25.5369 6.00088C25.2578 5.9237 24.9906 6.20276 25.246 6.35713M25.911 5.67432C25.6141 5.61495 25.3647 5.70401 25.525 5.81088" stroke="black" stroke-width="0.02375" stroke-linecap="round"/>
<path d="M28.7135 5.13281C28.6236 5.14904 28.5389 5.18663 28.4666 5.24243C28.3942 5.29823 28.3364 5.3706 28.2979 5.45344" fill="white"/>
<path d="M28.7135 5.13281C28.6236 5.14904 28.5389 5.18663 28.4666 5.24243C28.3942 5.29823 28.3364 5.3706 28.2979 5.45344" stroke="black" stroke-width="0.02375"/>
</g>
</g>
<defs>
<clipPath id="clip0_26003_90228">
<rect width="38" height="25" fill="white" transform="translate(0 0.5)"/>
</clipPath>
<clipPath id="clip1_26003_90228">
<rect width="38" height="28.5" fill="white" transform="translate(0 -1.25)"/>
</clipPath>
</defs>
</svg>
