<svg width="38" height="26" viewBox="0 0 38 26" fill="none" xmlns="http://www.w3.org/2000/svg">
<g clip-path="url(#clip0_26003_90342)">
<g clip-path="url(#clip1_26003_90342)">
<path d="M35.2 25.5H2.8C1.3 25.5 0 24.2 0 22.6V3.3C0 1.7 1.3 0.5 2.8 0.5H35.1C36.7 0.5 38 1.7 38 3.3V22.6C38 24.2 36.7 25.5 35.2 25.5Z" fill="#FC3250"/>
<path d="M16.7 13.9C15.9 13.9 14.9 13.6 14.1 12.7C14 12.6 14.1 12.5 14.1 12.5C14.2 12.4 14.3 12.5 14.3 12.5C15.5 13.9 17.1 13.6 18 13.3C17.7 13.3 17.2 13.3 17 13.1C15.9 12.3 16.4 11.5 15.6 10.6C14.8 9.6 14.2 9.7 13.1 9.8C12 10 11.7 9.2 11.6 8.7C11.6 8.6 11.5 8.6 11.4 8.7C10.1 12.3 14 16.7 18.1 13.5C17.7 13.8 17.2 13.9 16.7 13.9ZM13.7 12.7C13.7 12.8 13.6 12.8 13.6 12.7L13.4 12.2H12.9C12.8 12.2 12.8 12.1 12.9 12.1L13.3 11.8L13.2 11.3C13.2 11.2 13.3 11.2 13.3 11.2L13.7 11.5L14.1 11.2C14.2 11.2 14.2 11.2 14.2 11.3L14 11.8L14.4 12.1C14.5 12.1 14.4 12.2 14.4 12.2H13.9L13.7 12.7ZM19.6 11.6C20.3 11.1 21.2 10.7 22.3 11C22.4 11 22.4 11.1 22.4 11.2C22.4 11.3 22.3 11.3 22.2 11.3C20.4 11 19.3 12.1 18.8 12.9C19.1 12.7 19.4 12.4 19.7 12.4C21.1 12.3 21.1 13.3 22.3 13.6C23.5 13.9 24 13.5 24.8 12.7C25.6 11.9 26.3 12.4 26.6 12.6C26.7 12.7 26.8 12.6 26.7 12.5C25.6 8.8 19.8 7.7 18.4 12.7C18.8 12.3 19.1 11.9 19.6 11.6ZM22.7 10.7C22.7 10.6 22.8 10.6 22.8 10.6L23.2 10.9L23.6 10.6C23.7 10.6 23.7 10.6 23.7 10.7L23.5 11.2L23.9 11.5C24 11.5 23.9 11.6 23.9 11.6H23.4L23.2 12.1C23.2 12.2 23.1 12.2 23.1 12.1L23 11.7H22.5C22.4 11.7 22.4 11.6 22.5 11.6L22.9 11.3L22.7 10.7Z" fill="#F5F5F5"/>
<path d="M17.4002 11.8996C17.1002 11.0996 17.0002 10.1996 17.5002 9.09961C17.5002 8.99961 17.6002 8.99961 17.7002 8.99961C17.8002 8.99961 17.8002 9.09961 17.8002 9.19961C17.0002 10.8996 17.8002 12.1996 18.5002 12.8996C18.4002 12.5996 18.2002 12.1996 18.3002 11.8996C18.6002 10.4996 19.5002 10.6996 20.1002 9.59961C20.7002 8.49961 20.4002 7.89961 19.9002 6.99961C19.3002 6.09961 19.9002 5.49961 20.3002 5.19961C20.4002 5.19961 20.3002 5.09961 20.2002 5.09961C16.4002 5.19961 13.8002 10.5996 18.3002 13.1996C17.9002 12.8996 17.6002 12.3996 17.4002 11.8996ZM17.4002 8.69961C17.3002 8.69961 17.3002 8.59961 17.4002 8.59961L17.8002 8.29961L17.6002 7.79961C17.6002 7.69961 17.6002 7.69961 17.7002 7.69961L18.1002 7.99961L18.5002 7.69961C18.6002 7.69961 18.6002 7.69961 18.6002 7.79961L18.5002 8.29961L18.9002 8.49961C19.0002 8.49961 18.9002 8.59961 18.9002 8.59961H18.4002L18.3002 9.09961C18.3002 9.19961 18.2002 9.19961 18.2002 9.09961L18.0002 8.59961L17.4002 8.69961ZM20.4002 13.5996C21.1002 14.0996 21.7002 14.7996 21.8002 15.9996C21.8002 16.0996 21.7002 16.1996 21.7002 16.1996C21.6002 16.1996 21.5002 16.0996 21.5002 16.0996C21.3002 14.2996 19.9002 13.5996 18.9002 13.2996C19.2002 13.4996 19.5002 13.6996 19.6002 14.0996C20.1002 15.3996 19.2002 15.6996 19.3002 16.9996C19.4002 18.1996 19.9002 18.5996 20.9002 19.0996C21.9002 19.5996 21.7002 20.3996 21.5002 20.7996C21.5002 20.8996 21.6002 20.8996 21.6002 20.8996C24.7002 18.6996 24.0002 12.7996 18.8002 13.0996C19.4002 13.0996 19.9002 13.2996 20.4002 13.5996ZM22.1002 16.3996C22.2002 16.3996 22.2002 16.3996 22.2002 16.4996L22.0002 16.9996L22.4002 17.2996C22.5002 17.2996 22.4002 17.3996 22.4002 17.3996H21.9002L21.7002 17.8996C21.7002 17.9996 21.6002 17.9996 21.6002 17.8996L21.4002 17.3996H20.9002C20.8002 17.3996 20.8002 17.2996 20.9002 17.2996L21.3002 16.9996L21.1002 16.4996C21.1002 16.3996 21.2002 16.3996 21.2002 16.3996L21.6002 16.6996L22.1002 16.3996Z" fill="#F5F5F5"/>
<path d="M18.7002 15.1C18.5002 15.9 17.9002 16.7 16.8002 17.2C16.7002 17.2 16.6002 17.2 16.6002 17.1C16.6002 17 16.6002 16.9 16.7002 16.9C18.4002 16.1 18.6002 14.6 18.5002 13.6C18.4002 13.9 18.3002 14.3 18.0002 14.5C16.9002 15.4 16.3002 14.6 15.2002 15.1C14.1002 15.5 13.9002 16.2 13.7002 17.3C13.5002 18.4 12.7002 18.5 12.3002 18.4C12.2002 18.4 12.2002 18.5 12.2002 18.5C15.2002 20.8 20.6002 18.3 18.8002 13.5C18.8002 14 18.8002 14.6 18.7002 15.1ZM16.6002 17.6C16.7002 17.6 16.6002 17.7 16.6002 17.7H16.1002L15.9002 18.2C15.9002 18.3 15.8002 18.3 15.8002 18.2L15.6002 17.7H15.1002C15.0002 17.7 15.0002 17.6 15.1002 17.6L15.5002 17.3L15.3002 16.8C15.3002 16.7 15.4002 16.7 15.4002 16.7L15.8002 17L16.2002 16.7C16.3002 16.7 16.3002 16.7 16.3002 16.8L16.1002 17.3L16.6002 17.6Z" fill="#F5F5F5"/>
</g>
</g>
<defs>
<clipPath id="clip0_26003_90342">
<rect width="38" height="25" fill="white" transform="translate(0 0.5)"/>
</clipPath>
<clipPath id="clip1_26003_90342">
<rect width="38" height="25" fill="white" transform="translate(0 0.5)"/>
</clipPath>
</defs>
</svg>
