<svg width="38" height="26" viewBox="0 0 38 26" fill="none" xmlns="http://www.w3.org/2000/svg">
<g clip-path="url(#clip0_26003_90530)">
<g clip-path="url(#clip1_26003_90530)">
<path fill-rule="evenodd" clip-rule="evenodd" d="M2.5 25.5H35.6C36.9 25.3 37.9 24.1 38.1 22.6V3.4C37.9 1.9 36.9 0.7 35.6 0.5H2.5C1.2 0.7 0.2 1.9 0 3.4V22.6C0.2 24.1 1.2 25.3 2.5 25.5Z" fill="white"/>
<path fill-rule="evenodd" clip-rule="evenodd" d="M10.2002 0.5V25.5H27.4002L16.2002 12.9H27.8002L10.2002 0.5ZM11.0002 2.2L24.9002 12H14.2002L25.3002 24.5H11.0002V2.2Z" fill="#293A8A"/>
<path fill-rule="evenodd" clip-rule="evenodd" d="M10.5996 1.40039V25.0004H26.2996L15.1996 12.5004H26.2996L10.5996 1.40039Z" fill="#C12837"/>
<path fill-rule="evenodd" clip-rule="evenodd" d="M14.5002 11.8008C16.2002 11.8008 17.6002 10.2008 17.6002 8.30078C17.3002 9.10078 16.8002 9.70078 16.2002 10.2008L16.0002 9.90078L16.5002 9.50078L15.9002 9.30078L16.2002 8.70078L15.5002 8.80078L15.6002 8.10078L15.0002 8.50078L14.8002 7.80078L14.4002 8.40078L14.0002 7.80078V8.40078L13.4002 8.00078L13.5002 8.70078L12.8002 8.60078L13.1002 9.20078L12.6002 9.50078L13.1002 9.90078L12.8002 10.1008C12.2002 9.70078 11.7002 9.00078 11.4002 8.20078C11.4002 10.3008 12.8002 11.8008 14.5002 11.8008ZM16.6002 19.4008L17.9002 18.7008L16.6002 18.1008L17.5002 16.8008L16.1002 17.0008L16.2002 15.5008L15.1002 16.4008L14.5002 15.0008L14.0002 16.4008L12.9002 15.5008L13.0002 17.0008L11.6002 16.8008L12.5002 18.1008L11.2002 18.7008L12.5002 19.4008L11.6002 20.6008L13.0002 20.5008L12.9002 22.0008L14.0002 21.1008L14.5002 22.5008L15.1002 21.1008L16.2002 22.0008L16.1002 20.5008L17.5002 20.6008L16.6002 19.4008Z" fill="#FEFEFE"/>
</g>
</g>
<defs>
<clipPath id="clip0_26003_90530">
<rect width="38" height="25" fill="white" transform="translate(0 0.5)"/>
</clipPath>
<clipPath id="clip1_26003_90530">
<rect width="38" height="25" fill="white" transform="translate(0 0.5)"/>
</clipPath>
</defs>
</svg>
