<svg width="38" height="26" viewBox="0 0 38 26" fill="none" xmlns="http://www.w3.org/2000/svg">
<g clip-path="url(#clip0_26003_73717)">
<g clip-path="url(#clip1_26003_73717)">
<path fill-rule="evenodd" clip-rule="evenodd" d="M2.47 25.5008H35.53C36.82 25.2508 37.83 24.0708 38 22.6008V3.45078C37.83 1.98078 36.82 0.800781 35.53 0.550781H2.47C1.18 0.790781 0.17 1.98078 0 3.45078V22.6008C0.17 24.0708 1.18 25.2508 2.47 25.5008Z" fill="#319342"/>
<path fill-rule="evenodd" clip-rule="evenodd" d="M5.86035 13.0203L19.0004 22.4703L32.1504 13.0203L19.0004 3.57031L5.86035 13.0203Z" fill="#EFC906"/>
<path fill-rule="evenodd" clip-rule="evenodd" d="M24.54 13.0213C24.54 16.4613 22.06 19.2612 19 19.2612C15.94 19.2612 13.46 16.4713 13.46 13.0213C13.46 9.58125 15.94 6.78125 19 6.78125C22.06 6.78125 24.54 9.58125 24.54 13.0213Z" fill="#33306F"/>
<path fill-rule="evenodd" clip-rule="evenodd" d="M15.8396 10.3516C15.1896 10.3516 14.5496 10.4016 13.9296 10.5016C13.8096 10.8116 13.7096 11.1216 13.6396 11.4516C14.3496 11.3116 15.0896 11.2416 15.8396 11.2416C19.0896 11.2416 22.0496 12.6216 24.2896 14.8916C24.3796 14.5716 24.4496 14.2416 24.4896 13.9016C22.1496 11.6816 19.1296 10.3516 15.8396 10.3516Z" fill="#FEFEFE"/>
<path fill-rule="evenodd" clip-rule="evenodd" d="M14.2599 11.0904C14.3299 11.0804 14.3899 10.9904 14.3799 10.8804C14.3699 10.7804 14.2999 10.7004 14.2199 10.7104C14.1399 10.7204 14.0899 10.8104 14.0999 10.9104C14.1199 11.0204 14.1899 11.1004 14.2599 11.0904ZM14.2699 11.1904C14.1399 11.2104 14.0199 11.0904 13.9999 10.9304C13.9799 10.7704 14.0699 10.6204 14.1999 10.6004C14.3299 10.5804 14.4499 10.7004 14.4699 10.8604C14.4999 11.0304 14.3999 11.1804 14.2699 11.1904ZM14.7799 10.8004L14.9799 10.7904C15.0199 10.7804 15.0399 10.7504 15.0399 10.7104C15.0399 10.6704 15.0099 10.6404 14.9699 10.6404L14.7699 10.6504L14.7799 10.8004ZM14.7099 11.1404L14.6799 10.5404L14.9799 10.5204C15.0699 10.5104 15.1499 10.5904 15.1599 10.6904C15.1599 10.7904 15.0899 10.8804 15.0099 10.8904L14.7899 10.9004L14.7999 11.1204L14.7099 11.1404Z" fill="#319342"/>
<path fill-rule="evenodd" clip-rule="evenodd" d="M15.1499 11.1102C15.1499 11.0202 15.1399 10.8402 15.0199 10.8502L14.8799 10.8602C15.0399 10.8502 15.0599 11.0402 15.0699 11.1202L15.1499 11.1102ZM15.4699 10.9802H15.6099C15.6899 10.9802 15.7499 10.9002 15.7499 10.8202V10.7702C15.7499 10.6902 15.6899 10.6102 15.6099 10.6102H15.4599L15.4699 10.9802ZM15.3799 11.1002L15.3699 10.5002H15.6099C15.7299 10.5002 15.8399 10.6102 15.8399 10.7502V10.8402C15.8399 10.9802 15.7399 11.1002 15.6099 11.1002H15.3799ZM16.0399 11.0902L16.5199 11.1102V11.0002L16.1399 10.9802V10.8302L16.4499 10.8402V10.7402L16.1499 10.7302V10.6102L16.5099 10.6202V10.5102L16.0599 10.4902L16.0399 11.0902ZM16.7099 11.1202L16.7999 11.1302L16.8399 10.7202L16.9099 11.1402L16.9899 11.1502L17.1299 10.7502L17.0999 11.1602L17.1899 11.1702L17.2299 10.5702L17.0999 10.5602L16.9599 10.9602L16.8899 10.5402L16.7599 10.5302L16.7099 11.1202ZM17.7999 11.2602L18.1999 11.3302L18.2099 11.2302L17.9099 11.1802L17.9299 11.0402L18.1799 11.0902L18.1899 10.9902L17.9499 10.9402L17.9599 10.8502L18.2499 10.9102L18.2599 10.8002L17.8899 10.7302L17.7999 11.2602ZM18.9799 11.1902L19.1699 11.2502C19.2099 11.2602 19.2399 11.2402 19.2499 11.2002C19.2599 11.1602 19.2399 11.1202 19.1999 11.1102L18.9999 11.0502L18.9799 11.1902ZM18.8099 11.4802L18.9499 10.9102L19.2399 11.0002C19.3299 11.0302 19.3799 11.1302 19.3599 11.2302C19.3399 11.3302 19.2499 11.3902 19.1599 11.3602L18.9599 11.3002L18.9099 11.5102L18.8099 11.4802ZM19.6399 11.3902L19.8299 11.4602C19.8599 11.4702 19.8999 11.4502 19.9099 11.4102C19.9199 11.3702 19.8999 11.3302 19.8699 11.3202L19.6799 11.2502L19.6399 11.3902ZM19.4599 11.6702L19.6199 11.1102L19.9099 11.2102C19.9999 11.2402 20.0399 11.3502 20.0199 11.4402C19.9899 11.5402 19.8999 11.5902 19.8099 11.5602L19.6099 11.5002L19.5499 11.7102L19.4599 11.6702Z" fill="#319342"/>
<path fill-rule="evenodd" clip-rule="evenodd" d="M19.8797 11.8304C19.9097 11.7504 19.9497 11.5704 19.8497 11.5304L19.7197 11.4804C19.8797 11.5404 19.8297 11.7104 19.7997 11.8004L19.8797 11.8304ZM20.3497 11.9004C20.4197 11.9304 20.5097 11.8804 20.5397 11.7804C20.5697 11.6804 20.5397 11.5804 20.4697 11.5504C20.3997 11.5204 20.3097 11.5704 20.2797 11.6704C20.2397 11.7604 20.2797 11.8704 20.3497 11.9004ZM20.3197 12.0004C20.1997 11.9504 20.1397 11.7804 20.1897 11.6304C20.2397 11.4804 20.3797 11.3904 20.5097 11.4504C20.6297 11.5004 20.6897 11.6704 20.6397 11.8204C20.5797 11.9704 20.4397 12.0504 20.3197 12.0004ZM20.9797 12.1804C21.0497 12.2204 21.1397 12.1704 21.1697 12.0704C21.2097 11.9804 21.1797 11.8704 21.1097 11.8404C21.0397 11.8004 20.9497 11.8504 20.9197 11.9504C20.8797 12.0404 20.8997 12.1504 20.9797 12.1804ZM20.9397 12.2804C20.8197 12.2204 20.7697 12.0504 20.8297 11.9004C20.8897 11.7504 21.0297 11.6804 21.1497 11.7304C21.2697 11.7904 21.3197 11.9604 21.2597 12.1104C21.1997 12.2704 21.0597 12.3404 20.9397 12.2804Z" fill="#319342"/>
<path fill-rule="evenodd" clip-rule="evenodd" d="M21.0798 12.0312L21.2598 12.1213L21.2298 12.2013L21.0498 12.1013L21.0798 12.0312Z" fill="#319342"/>
<path fill-rule="evenodd" clip-rule="evenodd" d="M21.1898 12.0812L21.2598 12.1212L21.1498 12.3912L21.0898 12.3612L21.1898 12.0812ZM21.5498 12.2412L21.7298 12.3412C21.7598 12.3612 21.7998 12.3512 21.8198 12.3112C21.8398 12.2712 21.8198 12.2312 21.7898 12.2112L21.5998 12.1112L21.5498 12.2412ZM21.3398 12.4812L21.5798 11.9512L21.8498 12.1012C21.9298 12.1412 21.9598 12.2612 21.9198 12.3512C21.8798 12.4412 21.7798 12.4812 21.6998 12.4312L21.5098 12.3212L21.4198 12.5212L21.3398 12.4812Z" fill="#319342"/>
<path fill-rule="evenodd" clip-rule="evenodd" d="M21.7304 12.7105C21.7604 12.6305 21.8404 12.4705 21.7404 12.4105L21.6104 12.3405C21.7604 12.4305 21.6904 12.5905 21.6604 12.6705L21.7304 12.7105ZM21.9304 12.8305L22.3504 13.0905L22.3904 12.9905L22.0604 12.7805L22.1204 12.6505L22.3904 12.8105L22.4304 12.7205L22.1704 12.5605L22.2204 12.4505L22.5304 12.6605L22.5904 12.5605L22.1904 12.3105L21.9304 12.8305ZM22.7004 13.1205C22.6704 13.1705 22.7004 13.2305 22.7604 13.2705C22.8204 13.3105 22.8704 13.3105 22.8904 13.2805C22.9504 13.1705 22.6104 13.0305 22.7204 12.8505C22.8104 12.7005 22.9604 12.8105 23.0204 12.8605C23.0804 12.9005 23.1704 13.0105 23.1004 13.1305L23.0004 13.0605C23.0304 13.0105 23.0004 12.9605 22.9504 12.9205C22.9004 12.8805 22.8604 12.8605 22.8304 12.9205C22.7804 13.0005 23.1104 13.1505 23.0004 13.3305C22.9304 13.4605 22.8004 13.4005 22.7204 13.3405C22.6404 13.2905 22.5404 13.1605 22.6104 13.0405L22.7004 13.1205ZM23.2704 13.5405C23.2404 13.5905 23.2604 13.6505 23.3204 13.7005C23.3804 13.7505 23.4304 13.7505 23.4504 13.7205C23.5104 13.6205 23.1804 13.4505 23.3004 13.2805C23.4004 13.1305 23.5404 13.2605 23.6004 13.3005C23.6604 13.3505 23.7404 13.4605 23.6604 13.5805L23.5604 13.5005C23.5904 13.4505 23.5604 13.4005 23.5104 13.3605C23.4604 13.3205 23.4304 13.3005 23.4004 13.3505C23.3504 13.4305 23.6604 13.6105 23.5604 13.7805C23.4804 13.9105 23.3504 13.8405 23.2704 13.7805C23.2004 13.7205 23.0904 13.5905 23.1704 13.4705L23.2704 13.5405ZM23.8604 14.1305C23.9204 14.1905 24.0204 14.1705 24.0704 14.0805C24.1304 14.0005 24.1204 13.8905 24.0604 13.8405C24.0004 13.7805 23.9104 13.8105 23.8504 13.8905C23.8004 13.9705 23.8004 14.0805 23.8604 14.1305ZM23.8004 14.2205C23.7004 14.1305 23.6904 13.9505 23.7804 13.8205C23.8704 13.6905 24.0304 13.6605 24.1304 13.7605C24.2304 13.8505 24.2404 14.0305 24.1504 14.1605C24.0604 14.2805 23.9004 14.3105 23.8004 14.2205Z" fill="#319342"/>
<path fill-rule="evenodd" clip-rule="evenodd" d="M14.4804 11.6309L14.4004 11.8909L14.5204 11.9309L14.4804 11.6309Z" fill="#FEFEFE"/>
<path fill-rule="evenodd" clip-rule="evenodd" d="M14.4804 11.6309L14.5504 11.8909L14.4404 11.9309L14.4804 11.6309Z" fill="#FEFEFE"/>
<path fill-rule="evenodd" clip-rule="evenodd" d="M14.7 11.8203H14.46V11.9503L14.7 11.8203Z" fill="#FEFEFE"/>
<path fill-rule="evenodd" clip-rule="evenodd" d="M14.7004 11.8203L14.5104 11.9703L14.4404 11.8703L14.7004 11.8203Z" fill="#FEFEFE"/>
<path fill-rule="evenodd" clip-rule="evenodd" d="M14.25 11.8203L14.44 11.9703L14.51 11.8703L14.25 11.8203Z" fill="#FEFEFE"/>
<path fill-rule="evenodd" clip-rule="evenodd" d="M14.25 11.8203H14.49V11.9503L14.25 11.8203Z" fill="#FEFEFE"/>
<path fill-rule="evenodd" clip-rule="evenodd" d="M14.6097 12.1213L14.5397 11.8613L14.4297 11.9013L14.6097 12.1213Z" fill="#FEFEFE"/>
<path fill-rule="evenodd" clip-rule="evenodd" d="M14.6099 12.1216L14.4199 11.9616L14.4899 11.8516L14.6099 12.1216Z" fill="#FEFEFE"/>
<path fill-rule="evenodd" clip-rule="evenodd" d="M14.3398 12.1216L14.5298 11.9616L14.4598 11.8516L14.3398 12.1216Z" fill="#FEFEFE"/>
<path fill-rule="evenodd" clip-rule="evenodd" d="M14.3398 12.1213L14.4098 11.8613L14.5298 11.9013L14.3398 12.1213ZM14.9698 14.2513L14.8898 14.5113L15.0098 14.5513L14.9698 14.2513Z" fill="#FEFEFE"/>
<path fill-rule="evenodd" clip-rule="evenodd" d="M14.9697 14.25L15.0397 14.51L14.9297 14.55L14.9697 14.25Z" fill="#FEFEFE"/>
<path fill-rule="evenodd" clip-rule="evenodd" d="M15.19 14.4414H14.96V14.5714L15.19 14.4414Z" fill="#FEFEFE"/>
<path fill-rule="evenodd" clip-rule="evenodd" d="M15.1897 14.4414L14.9997 14.6014L14.9297 14.4914L15.1897 14.4414Z" fill="#FEFEFE"/>
<path fill-rule="evenodd" clip-rule="evenodd" d="M14.7402 14.4414L14.9302 14.6014L15.0102 14.4914L14.7402 14.4414Z" fill="#FEFEFE"/>
<path fill-rule="evenodd" clip-rule="evenodd" d="M14.7402 14.4414H14.9802V14.5714L14.7402 14.4414Z" fill="#FEFEFE"/>
<path fill-rule="evenodd" clip-rule="evenodd" d="M15.1099 14.7402L15.0299 14.4902L14.9199 14.5302L15.1099 14.7402Z" fill="#FEFEFE"/>
<path fill-rule="evenodd" clip-rule="evenodd" d="M15.1099 14.7407L14.9199 14.5807L14.9799 14.4707L15.1099 14.7407Z" fill="#FEFEFE"/>
<path fill-rule="evenodd" clip-rule="evenodd" d="M14.8301 14.7407L15.0201 14.5807L14.9501 14.4707L14.8301 14.7407Z" fill="#FEFEFE"/>
<path fill-rule="evenodd" clip-rule="evenodd" d="M14.8302 14.7402L14.9002 14.4902L15.0102 14.5302L14.8302 14.7402ZM14.2902 14.9002L14.2402 15.0702L14.3202 15.1002L14.2902 14.9002Z" fill="#FEFEFE"/>
<path fill-rule="evenodd" clip-rule="evenodd" d="M14.2898 14.9004L14.3398 15.0704L14.2598 15.1004L14.2898 14.9004Z" fill="#FEFEFE"/>
<path fill-rule="evenodd" clip-rule="evenodd" d="M14.4403 15.0312H14.2803V15.1213L14.4403 15.0312Z" fill="#FEFEFE"/>
<path fill-rule="evenodd" clip-rule="evenodd" d="M14.4395 15.0312L14.3095 15.1313L14.2695 15.0613L14.4395 15.0312Z" fill="#FEFEFE"/>
<path fill-rule="evenodd" clip-rule="evenodd" d="M14.1396 15.0312L14.2696 15.1313L14.3096 15.0613L14.1396 15.0312Z" fill="#FEFEFE"/>
<path fill-rule="evenodd" clip-rule="evenodd" d="M14.1396 15.0312H14.2996V15.1213L14.1396 15.0312Z" fill="#FEFEFE"/>
<path fill-rule="evenodd" clip-rule="evenodd" d="M14.3798 15.2305L14.3298 15.0605L14.2598 15.0905L14.3798 15.2305Z" fill="#FEFEFE"/>
<path fill-rule="evenodd" clip-rule="evenodd" d="M14.38 15.2308L14.25 15.1208L14.3 15.0508L14.38 15.2308Z" fill="#FEFEFE"/>
<path fill-rule="evenodd" clip-rule="evenodd" d="M14.2002 15.2308L14.3202 15.1208L14.2802 15.0508L14.2002 15.2308Z" fill="#FEFEFE"/>
<path fill-rule="evenodd" clip-rule="evenodd" d="M14.2002 15.2317L14.2402 15.0617L14.3202 15.0917L14.2002 15.2317ZM15.5102 14.0117L15.4702 14.1317L15.5302 14.1517L15.5102 14.0117Z" fill="#FEFEFE"/>
<path fill-rule="evenodd" clip-rule="evenodd" d="M15.5102 14.0117L15.5402 14.1317L15.4902 14.1517L15.5102 14.0117Z" fill="#FEFEFE"/>
<path fill-rule="evenodd" clip-rule="evenodd" d="M15.6198 14.1016H15.5098V14.1616L15.6198 14.1016Z" fill="#FEFEFE"/>
<path fill-rule="evenodd" clip-rule="evenodd" d="M15.6202 14.1016L15.5302 14.1816L15.4902 14.1316L15.6202 14.1016Z" fill="#FEFEFE"/>
<path fill-rule="evenodd" clip-rule="evenodd" d="M15.4004 14.1016L15.4904 14.1816L15.5304 14.1316L15.4004 14.1016Z" fill="#FEFEFE"/>
<path fill-rule="evenodd" clip-rule="evenodd" d="M15.4004 14.1016H15.5204V14.1616L15.4004 14.1016Z" fill="#FEFEFE"/>
<path fill-rule="evenodd" clip-rule="evenodd" d="M15.5802 14.2411L15.5402 14.1211L15.4902 14.1411L15.5802 14.2411Z" fill="#FEFEFE"/>
<path fill-rule="evenodd" clip-rule="evenodd" d="M15.5802 14.2411L15.4902 14.1711L15.5202 14.1211L15.5802 14.2411Z" fill="#FEFEFE"/>
<path fill-rule="evenodd" clip-rule="evenodd" d="M15.4404 14.2411L15.5404 14.1711L15.5004 14.1211L15.4404 14.2411Z" fill="#FEFEFE"/>
<path fill-rule="evenodd" clip-rule="evenodd" d="M15.4404 14.2411L15.4804 14.1211L15.5304 14.1411L15.4404 14.2411ZM16.1204 14.9211L16.0604 15.1311L16.1504 15.1711L16.1204 14.9211Z" fill="#FEFEFE"/>
<path fill-rule="evenodd" clip-rule="evenodd" d="M16.1198 14.9199L16.1798 15.1299L16.0898 15.1699L16.1198 14.9199Z" fill="#FEFEFE"/>
<path fill-rule="evenodd" clip-rule="evenodd" d="M16.3104 15.0703H16.1104V15.1803L16.3104 15.0703Z" fill="#FEFEFE"/>
<path fill-rule="evenodd" clip-rule="evenodd" d="M16.3098 15.0703L16.1498 15.2003L16.0898 15.1103L16.3098 15.0703Z" fill="#FEFEFE"/>
<path fill-rule="evenodd" clip-rule="evenodd" d="M15.9297 15.0703L16.0897 15.2003L16.1497 15.1103L15.9297 15.0703Z" fill="#FEFEFE"/>
<path fill-rule="evenodd" clip-rule="evenodd" d="M15.9297 15.0703H16.1297V15.1803L15.9297 15.0703Z" fill="#FEFEFE"/>
<path fill-rule="evenodd" clip-rule="evenodd" d="M16.2401 15.3213L16.1801 15.1113L16.0801 15.1513L16.2401 15.3213Z" fill="#FEFEFE"/>
<path fill-rule="evenodd" clip-rule="evenodd" d="M16.2401 15.3216L16.0801 15.1916L16.1301 15.1016L16.2401 15.3216Z" fill="#FEFEFE"/>
<path fill-rule="evenodd" clip-rule="evenodd" d="M16.0098 15.3216L16.1598 15.1916L16.0998 15.1016L16.0098 15.3216Z" fill="#FEFEFE"/>
<path fill-rule="evenodd" clip-rule="evenodd" d="M16.0096 15.3213L16.0696 15.1113L16.1596 15.1513L16.0096 15.3213ZM15.9596 15.5413L15.8896 15.7513L15.9896 15.7913L15.9596 15.5413Z" fill="#FEFEFE"/>
<path fill-rule="evenodd" clip-rule="evenodd" d="M15.9599 15.541L16.0099 15.751L15.9199 15.791L15.9599 15.541Z" fill="#FEFEFE"/>
<path fill-rule="evenodd" clip-rule="evenodd" d="M16.1402 15.6914H15.9502V15.8014L16.1402 15.6914Z" fill="#FEFEFE"/>
<path fill-rule="evenodd" clip-rule="evenodd" d="M16.1399 15.6914L15.9799 15.8214L15.9199 15.7314L16.1399 15.6914Z" fill="#FEFEFE"/>
<path fill-rule="evenodd" clip-rule="evenodd" d="M15.7695 15.6914L15.9295 15.8214L15.9895 15.7314L15.7695 15.6914Z" fill="#FEFEFE"/>
<path fill-rule="evenodd" clip-rule="evenodd" d="M15.7695 15.6914H15.9695V15.8014L15.7695 15.6914Z" fill="#FEFEFE"/>
<path fill-rule="evenodd" clip-rule="evenodd" d="M16.0699 15.9405L16.0099 15.7305L15.9199 15.7605L16.0699 15.9405Z" fill="#FEFEFE"/>
<path fill-rule="evenodd" clip-rule="evenodd" d="M16.0702 15.9407L15.9102 15.8107L15.9702 15.7207L16.0702 15.9407Z" fill="#FEFEFE"/>
<path fill-rule="evenodd" clip-rule="evenodd" d="M15.8398 15.9407L15.9998 15.8107L15.9398 15.7207L15.8398 15.9407Z" fill="#FEFEFE"/>
<path fill-rule="evenodd" clip-rule="evenodd" d="M15.8398 15.9403L15.8998 15.7303L15.9998 15.7603L15.8398 15.9403ZM20.7198 10.8203L20.6498 11.0703L20.7598 11.1103L20.7198 10.8203Z" fill="#FEFEFE"/>
<path fill-rule="evenodd" clip-rule="evenodd" d="M20.7197 10.8203L20.7897 11.0703L20.6797 11.1103L20.7197 10.8203Z" fill="#FEFEFE"/>
<path fill-rule="evenodd" clip-rule="evenodd" d="M20.94 11H20.71V11.14L20.94 11Z" fill="#FEFEFE"/>
<path fill-rule="evenodd" clip-rule="evenodd" d="M20.9397 11L20.7497 11.16L20.6797 11.05L20.9397 11Z" fill="#FEFEFE"/>
<path fill-rule="evenodd" clip-rule="evenodd" d="M20.4902 11L20.6902 11.16L20.7602 11.05L20.4902 11Z" fill="#FEFEFE"/>
<path fill-rule="evenodd" clip-rule="evenodd" d="M20.4902 11H20.7302V11.14L20.4902 11Z" fill="#FEFEFE"/>
<path fill-rule="evenodd" clip-rule="evenodd" d="M20.8599 11.3008L20.7799 11.0508L20.6699 11.0908L20.8599 11.3008Z" fill="#FEFEFE"/>
<path fill-rule="evenodd" clip-rule="evenodd" d="M20.8599 11.3013L20.6699 11.1413L20.7399 11.0312L20.8599 11.3013Z" fill="#FEFEFE"/>
<path fill-rule="evenodd" clip-rule="evenodd" d="M20.5801 11.3013L20.7701 11.1413L20.7001 11.0312L20.5801 11.3013Z" fill="#FEFEFE"/>
<path fill-rule="evenodd" clip-rule="evenodd" d="M20.5801 11.3008L20.6501 11.0508L20.7701 11.0908L20.5801 11.3008ZM22.8801 14.9408L22.8101 15.2008L22.9201 15.2408L22.8801 14.9408Z" fill="#FEFEFE"/>
<path fill-rule="evenodd" clip-rule="evenodd" d="M22.8796 14.9414L22.9596 15.2014L22.8496 15.2414L22.8796 14.9414Z" fill="#FEFEFE"/>
<path fill-rule="evenodd" clip-rule="evenodd" d="M23.1101 15.1309H22.8701V15.2609L23.1101 15.1309Z" fill="#FEFEFE"/>
<path fill-rule="evenodd" clip-rule="evenodd" d="M23.1096 15.1309L22.9196 15.2909L22.8496 15.1809L23.1096 15.1309Z" fill="#FEFEFE"/>
<path fill-rule="evenodd" clip-rule="evenodd" d="M22.6602 15.1309L22.8502 15.2909L22.9202 15.1809L22.6602 15.1309Z" fill="#FEFEFE"/>
<path fill-rule="evenodd" clip-rule="evenodd" d="M22.6602 15.1309H22.8902V15.2609L22.6602 15.1309Z" fill="#FEFEFE"/>
<path fill-rule="evenodd" clip-rule="evenodd" d="M23.0298 15.4299L22.9498 15.1699L22.8398 15.2099L23.0298 15.4299Z" fill="#FEFEFE"/>
<path fill-rule="evenodd" clip-rule="evenodd" d="M23.0301 15.4302L22.8301 15.2702L22.9001 15.1602L23.0301 15.4302Z" fill="#FEFEFE"/>
<path fill-rule="evenodd" clip-rule="evenodd" d="M22.7402 15.4302L22.9402 15.2702L22.8702 15.1602L22.7402 15.4302Z" fill="#FEFEFE"/>
<path fill-rule="evenodd" clip-rule="evenodd" d="M22.7402 15.4298L22.8202 15.1698L22.9302 15.2098L22.7402 15.4298ZM23.6502 15.0898L23.6002 15.2598L23.6802 15.2898L23.6502 15.0898Z" fill="#FEFEFE"/>
<path fill-rule="evenodd" clip-rule="evenodd" d="M23.6501 15.0898L23.7001 15.2598L23.6201 15.2898L23.6501 15.0898Z" fill="#FEFEFE"/>
<path fill-rule="evenodd" clip-rule="evenodd" d="M23.8004 15.2109H23.6504V15.3009L23.8004 15.2109Z" fill="#FEFEFE"/>
<path fill-rule="evenodd" clip-rule="evenodd" d="M23.7999 15.2109L23.6799 15.3209L23.6299 15.2509L23.7999 15.2109Z" fill="#FEFEFE"/>
<path fill-rule="evenodd" clip-rule="evenodd" d="M23.5 15.2109L23.63 15.3209L23.68 15.2509L23.5 15.2109Z" fill="#FEFEFE"/>
<path fill-rule="evenodd" clip-rule="evenodd" d="M23.5 15.2109H23.66V15.3009L23.5 15.2109Z" fill="#FEFEFE"/>
<path fill-rule="evenodd" clip-rule="evenodd" d="M23.7401 15.4102L23.7001 15.2402L23.6201 15.2702L23.7401 15.4102Z" fill="#FEFEFE"/>
<path fill-rule="evenodd" clip-rule="evenodd" d="M23.7401 15.4105L23.6201 15.3105L23.6701 15.2305L23.7401 15.4105Z" fill="#FEFEFE"/>
<path fill-rule="evenodd" clip-rule="evenodd" d="M23.5596 15.4105L23.6896 15.3105L23.6396 15.2305L23.5596 15.4105Z" fill="#FEFEFE"/>
<path fill-rule="evenodd" clip-rule="evenodd" d="M23.5598 15.4102L23.6098 15.2402L23.6798 15.2702L23.5598 15.4102ZM23.1098 15.5402L23.0498 15.7502L23.1398 15.7902L23.1098 15.5402Z" fill="#FEFEFE"/>
<path fill-rule="evenodd" clip-rule="evenodd" d="M23.1101 15.541L23.1701 15.751L23.0801 15.791L23.1101 15.541Z" fill="#FEFEFE"/>
<path fill-rule="evenodd" clip-rule="evenodd" d="M23.2996 15.6914H23.0996V15.8014L23.2996 15.6914Z" fill="#FEFEFE"/>
<path fill-rule="evenodd" clip-rule="evenodd" d="M23.3001 15.6914L23.1401 15.8214L23.0801 15.7314L23.3001 15.6914Z" fill="#FEFEFE"/>
<path fill-rule="evenodd" clip-rule="evenodd" d="M22.9199 15.6914L23.0899 15.8214L23.1399 15.7314L22.9199 15.6914Z" fill="#FEFEFE"/>
<path fill-rule="evenodd" clip-rule="evenodd" d="M22.9199 15.6914H23.1199V15.8014L22.9199 15.6914Z" fill="#FEFEFE"/>
<path fill-rule="evenodd" clip-rule="evenodd" d="M23.2303 15.9405L23.1703 15.7305L23.0703 15.7605L23.2303 15.9405Z" fill="#FEFEFE"/>
<path fill-rule="evenodd" clip-rule="evenodd" d="M23.2303 15.9407L23.0703 15.8107L23.1203 15.7207L23.2303 15.9407Z" fill="#FEFEFE"/>
<path fill-rule="evenodd" clip-rule="evenodd" d="M22.9902 15.9407L23.1502 15.8107L23.1002 15.7207L22.9902 15.9407Z" fill="#FEFEFE"/>
<path fill-rule="evenodd" clip-rule="evenodd" d="M22.99 15.9405L23.05 15.7305L23.15 15.7605L22.99 15.9405ZM21.78 16.8505L21.71 17.0605L21.81 17.0905L21.78 16.8505Z" fill="#FEFEFE"/>
<path fill-rule="evenodd" clip-rule="evenodd" d="M21.7802 16.8516L21.8402 17.0616L21.7402 17.0916L21.7802 16.8516Z" fill="#FEFEFE"/>
<path fill-rule="evenodd" clip-rule="evenodd" d="M21.9595 17H21.7695V17.11L21.9595 17Z" fill="#FEFEFE"/>
<path fill-rule="evenodd" clip-rule="evenodd" d="M21.9602 17L21.8002 17.13L21.7402 17.04L21.9602 17Z" fill="#FEFEFE"/>
<path fill-rule="evenodd" clip-rule="evenodd" d="M21.5898 17L21.7498 17.13L21.7998 17.04L21.5898 17Z" fill="#FEFEFE"/>
<path fill-rule="evenodd" clip-rule="evenodd" d="M21.5898 17H21.7898V17.11L21.5898 17Z" fill="#FEFEFE"/>
<path fill-rule="evenodd" clip-rule="evenodd" d="M21.8905 17.251L21.8305 17.041L21.7305 17.071L21.8905 17.251Z" fill="#FEFEFE"/>
<path fill-rule="evenodd" clip-rule="evenodd" d="M21.8905 17.2512L21.7305 17.1213L21.7905 17.0312L21.8905 17.2512Z" fill="#FEFEFE"/>
<path fill-rule="evenodd" clip-rule="evenodd" d="M21.6602 17.2512L21.8202 17.1213L21.7602 17.0312L21.6602 17.2512Z" fill="#FEFEFE"/>
<path fill-rule="evenodd" clip-rule="evenodd" d="M21.6602 17.251L21.7202 17.041L21.8102 17.071L21.6602 17.251ZM21.7702 17.521L21.7202 17.691L21.8002 17.721L21.7702 17.521Z" fill="#FEFEFE"/>
<path fill-rule="evenodd" clip-rule="evenodd" d="M21.7702 17.5215L21.8102 17.6915L21.7402 17.7215L21.7702 17.5215Z" fill="#FEFEFE"/>
<path fill-rule="evenodd" clip-rule="evenodd" d="M21.9198 17.6406H21.7598V17.7306L21.9198 17.6406Z" fill="#FEFEFE"/>
<path fill-rule="evenodd" clip-rule="evenodd" d="M21.9202 17.6406L21.7902 17.7506L21.7402 17.6806L21.9202 17.6406Z" fill="#FEFEFE"/>
<path fill-rule="evenodd" clip-rule="evenodd" d="M21.6201 17.6406L21.7401 17.7506L21.7901 17.6806L21.6201 17.6406Z" fill="#FEFEFE"/>
<path fill-rule="evenodd" clip-rule="evenodd" d="M21.6201 17.6406H21.7801V17.7306L21.6201 17.6406Z" fill="#FEFEFE"/>
<path fill-rule="evenodd" clip-rule="evenodd" d="M21.8605 17.8399L21.8105 17.6699L21.7305 17.6999L21.8605 17.8399Z" fill="#FEFEFE"/>
<path fill-rule="evenodd" clip-rule="evenodd" d="M21.8605 17.8399L21.7305 17.7399L21.7805 17.6699L21.8605 17.8399Z" fill="#FEFEFE"/>
<path fill-rule="evenodd" clip-rule="evenodd" d="M21.6797 17.8399L21.7997 17.7399L21.7497 17.6699L21.6797 17.8399Z" fill="#FEFEFE"/>
<path fill-rule="evenodd" clip-rule="evenodd" d="M21.6797 17.8404L21.7197 17.6704L21.7997 17.7004L21.6797 17.8404ZM22.3297 16.4004L22.2797 16.5704L22.3497 16.6004L22.3297 16.4004Z" fill="#FEFEFE"/>
<path fill-rule="evenodd" clip-rule="evenodd" d="M22.3298 16.4004L22.3698 16.5704L22.2998 16.6004L22.3298 16.4004Z" fill="#FEFEFE"/>
<path fill-rule="evenodd" clip-rule="evenodd" d="M22.4803 16.5215H22.3203V16.6115L22.4803 16.5215Z" fill="#FEFEFE"/>
<path fill-rule="evenodd" clip-rule="evenodd" d="M22.4798 16.5215L22.3498 16.6315L22.2998 16.5615L22.4798 16.5215Z" fill="#FEFEFE"/>
<path fill-rule="evenodd" clip-rule="evenodd" d="M22.1797 16.5215L22.2997 16.6315L22.3497 16.5615L22.1797 16.5215Z" fill="#FEFEFE"/>
<path fill-rule="evenodd" clip-rule="evenodd" d="M22.1797 16.5215H22.3397V16.6115L22.1797 16.5215Z" fill="#FEFEFE"/>
<path fill-rule="evenodd" clip-rule="evenodd" d="M22.42 16.7208L22.37 16.5508L22.29 16.5808L22.42 16.7208Z" fill="#FEFEFE"/>
<path fill-rule="evenodd" clip-rule="evenodd" d="M22.42 16.721L22.29 16.621L22.34 16.541L22.42 16.721Z" fill="#FEFEFE"/>
<path fill-rule="evenodd" clip-rule="evenodd" d="M22.2305 16.721L22.3605 16.621L22.3205 16.541L22.2305 16.721Z" fill="#FEFEFE"/>
<path fill-rule="evenodd" clip-rule="evenodd" d="M22.2305 16.721L22.2805 16.551L22.3605 16.581L22.2305 16.721ZM22.7705 16.041L22.7105 16.251L22.8005 16.291L22.7705 16.041Z" fill="#FEFEFE"/>
<path fill-rule="evenodd" clip-rule="evenodd" d="M22.7702 16.041L22.8302 16.251L22.7402 16.291L22.7702 16.041Z" fill="#FEFEFE"/>
<path fill-rule="evenodd" clip-rule="evenodd" d="M22.9598 16.1914H22.7598V16.3014L22.9598 16.1914Z" fill="#FEFEFE"/>
<path fill-rule="evenodd" clip-rule="evenodd" d="M22.9602 16.1914L22.8002 16.3214L22.7402 16.2314L22.9602 16.1914Z" fill="#FEFEFE"/>
<path fill-rule="evenodd" clip-rule="evenodd" d="M22.5801 16.1914L22.7401 16.3214L22.8001 16.2314L22.5801 16.1914Z" fill="#FEFEFE"/>
<path fill-rule="evenodd" clip-rule="evenodd" d="M22.5801 16.1914H22.7801V16.3014L22.5801 16.1914Z" fill="#FEFEFE"/>
<path fill-rule="evenodd" clip-rule="evenodd" d="M22.8905 16.4405L22.8305 16.2305L22.7305 16.2705L22.8905 16.4405Z" fill="#FEFEFE"/>
<path fill-rule="evenodd" clip-rule="evenodd" d="M22.8905 16.4407L22.7305 16.3107L22.7805 16.2207L22.8905 16.4407Z" fill="#FEFEFE"/>
<path fill-rule="evenodd" clip-rule="evenodd" d="M22.6504 16.4407L22.8204 16.3107L22.7604 16.2207L22.6504 16.4407Z" fill="#FEFEFE"/>
<path fill-rule="evenodd" clip-rule="evenodd" d="M22.6502 16.4405L22.7202 16.2305L22.8102 16.2705L22.6502 16.4405ZM21.7502 16.2805L21.7002 16.4505L21.7802 16.4805L21.7502 16.2805Z" fill="#FEFEFE"/>
<path fill-rule="evenodd" clip-rule="evenodd" d="M21.7497 16.2812L21.7997 16.4513L21.7197 16.4812L21.7497 16.2812Z" fill="#FEFEFE"/>
<path fill-rule="evenodd" clip-rule="evenodd" d="M21.9102 16.4004H21.7402V16.4904L21.9102 16.4004Z" fill="#FEFEFE"/>
<path fill-rule="evenodd" clip-rule="evenodd" d="M21.9105 16.4004L21.7805 16.5104L21.7305 16.4304L21.9105 16.4004Z" fill="#FEFEFE"/>
<path fill-rule="evenodd" clip-rule="evenodd" d="M21.5996 16.4004L21.7296 16.5104L21.7796 16.4304L21.5996 16.4004Z" fill="#FEFEFE"/>
<path fill-rule="evenodd" clip-rule="evenodd" d="M21.5996 16.4004H21.7596V16.4904L21.5996 16.4004Z" fill="#FEFEFE"/>
<path fill-rule="evenodd" clip-rule="evenodd" d="M21.8497 16.6016L21.7997 16.4316L21.7197 16.4616L21.8497 16.6016Z" fill="#FEFEFE"/>
<path fill-rule="evenodd" clip-rule="evenodd" d="M21.8497 16.6016L21.7197 16.5016L21.7597 16.4316L21.8497 16.6016Z" fill="#FEFEFE"/>
<path fill-rule="evenodd" clip-rule="evenodd" d="M21.6602 16.6016L21.7902 16.5016L21.7402 16.4316L21.6602 16.6016Z" fill="#FEFEFE"/>
<path fill-rule="evenodd" clip-rule="evenodd" d="M21.6601 16.6008L21.7101 16.4308L21.7901 16.4608L21.6601 16.6008ZM16.8901 13.0508L16.8301 13.2608L16.9201 13.3008L16.8901 13.0508Z" fill="#FEFEFE"/>
<path fill-rule="evenodd" clip-rule="evenodd" d="M16.8904 13.0508L16.9504 13.2608L16.8604 13.3008L16.8904 13.0508Z" fill="#FEFEFE"/>
<path fill-rule="evenodd" clip-rule="evenodd" d="M17.0799 13.2109H16.8799V13.3209L17.0799 13.2109Z" fill="#FEFEFE"/>
<path fill-rule="evenodd" clip-rule="evenodd" d="M17.0804 13.2109L16.9204 13.3409L16.8604 13.2509L17.0804 13.2109Z" fill="#FEFEFE"/>
<path fill-rule="evenodd" clip-rule="evenodd" d="M16.7002 13.2109L16.8602 13.3409L16.9202 13.2509L16.7002 13.2109Z" fill="#FEFEFE"/>
<path fill-rule="evenodd" clip-rule="evenodd" d="M16.7002 13.2109H16.9002V13.3209L16.7002 13.2109Z" fill="#FEFEFE"/>
<path fill-rule="evenodd" clip-rule="evenodd" d="M17.0096 13.4502L16.9496 13.2402L16.8496 13.2802L17.0096 13.4502Z" fill="#FEFEFE"/>
<path fill-rule="evenodd" clip-rule="evenodd" d="M17.0098 13.4505L16.8398 13.3205L16.8998 13.2305L17.0098 13.4505Z" fill="#FEFEFE"/>
<path fill-rule="evenodd" clip-rule="evenodd" d="M16.7695 13.4505L16.9395 13.3205L16.8795 13.2305L16.7695 13.4505Z" fill="#FEFEFE"/>
<path fill-rule="evenodd" clip-rule="evenodd" d="M16.7695 13.4513L16.8395 13.2413L16.9295 13.2812L16.7695 13.4513ZM20.5095 12.5312L20.4595 12.7013L20.5395 12.7213L20.5095 12.5312Z" fill="#FEFEFE"/>
<path fill-rule="evenodd" clip-rule="evenodd" d="M20.5105 12.5312L20.5605 12.7013L20.4805 12.7213L20.5105 12.5312Z" fill="#FEFEFE"/>
<path fill-rule="evenodd" clip-rule="evenodd" d="M20.66 12.6504H20.5V12.7404L20.66 12.6504Z" fill="#FEFEFE"/>
<path fill-rule="evenodd" clip-rule="evenodd" d="M20.6602 12.6504L20.5302 12.7604L20.4902 12.6804L20.6602 12.6504Z" fill="#FEFEFE"/>
<path fill-rule="evenodd" clip-rule="evenodd" d="M20.3604 12.6504L20.4904 12.7604L20.5304 12.6804L20.3604 12.6504Z" fill="#FEFEFE"/>
<path fill-rule="evenodd" clip-rule="evenodd" d="M20.3604 12.6504H20.5204V12.7404L20.3604 12.6504Z" fill="#FEFEFE"/>
<path fill-rule="evenodd" clip-rule="evenodd" d="M20.6005 12.8516L20.5505 12.6816L20.4805 12.7116L20.6005 12.8516Z" fill="#FEFEFE"/>
<path fill-rule="evenodd" clip-rule="evenodd" d="M20.5997 12.8499L20.4697 12.7399L20.5197 12.6699L20.5997 12.8499Z" fill="#FEFEFE"/>
<path fill-rule="evenodd" clip-rule="evenodd" d="M20.4102 12.8499L20.5402 12.7399L20.5002 12.6699L20.4102 12.8499Z" fill="#FEFEFE"/>
<path fill-rule="evenodd" clip-rule="evenodd" d="M20.4097 12.8516L20.4597 12.6816L20.5397 12.7116L20.4097 12.8516ZM18.9997 15.5516L18.9297 15.8116L19.0397 15.8516L18.9997 15.5516Z" fill="#FEFEFE"/>
<path fill-rule="evenodd" clip-rule="evenodd" d="M19 15.5508L19.07 15.8108L18.96 15.8508L19 15.5508Z" fill="#FEFEFE"/>
<path fill-rule="evenodd" clip-rule="evenodd" d="M19.2202 15.7402H18.9902V15.8702L19.2202 15.7402Z" fill="#FEFEFE"/>
<path fill-rule="evenodd" clip-rule="evenodd" d="M19.2197 15.7402L19.0297 15.9002L18.9697 15.7902L19.2197 15.7402Z" fill="#FEFEFE"/>
<path fill-rule="evenodd" clip-rule="evenodd" d="M18.7695 15.7402L18.9695 15.9002L19.0295 15.7902L18.7695 15.7402Z" fill="#FEFEFE"/>
<path fill-rule="evenodd" clip-rule="evenodd" d="M18.7695 15.7402H19.0095V15.8702L18.7695 15.7402Z" fill="#FEFEFE"/>
<path fill-rule="evenodd" clip-rule="evenodd" d="M19.1402 16.041L19.0702 15.791L18.9502 15.821L19.1402 16.041Z" fill="#FEFEFE"/>
<path fill-rule="evenodd" clip-rule="evenodd" d="M19.1402 16.0415L18.9502 15.8815L19.0202 15.7715L19.1402 16.0415Z" fill="#FEFEFE"/>
<path fill-rule="evenodd" clip-rule="evenodd" d="M18.8604 16.0415L19.0504 15.8815L18.9804 15.7715L18.8604 16.0415Z" fill="#FEFEFE"/>
<path fill-rule="evenodd" clip-rule="evenodd" d="M18.8604 16.0413L18.9304 15.7913L19.0504 15.8213L18.8604 16.0413ZM19.6404 14.3613L19.5804 14.5713L19.6804 14.6013L19.6404 14.3613Z" fill="#FEFEFE"/>
<path fill-rule="evenodd" clip-rule="evenodd" d="M19.6404 14.3613L19.7104 14.5713L19.6104 14.6013L19.6404 14.3613Z" fill="#FEFEFE"/>
<path fill-rule="evenodd" clip-rule="evenodd" d="M19.8299 14.5117H19.6299V14.6217L19.8299 14.5117Z" fill="#FEFEFE"/>
<path fill-rule="evenodd" clip-rule="evenodd" d="M19.8304 14.5117L19.6704 14.6417L19.6104 14.5517L19.8304 14.5117Z" fill="#FEFEFE"/>
<path fill-rule="evenodd" clip-rule="evenodd" d="M19.46 14.5117L19.61 14.6417L19.67 14.5517L19.46 14.5117Z" fill="#FEFEFE"/>
<path fill-rule="evenodd" clip-rule="evenodd" d="M19.46 14.5117H19.65V14.6217L19.46 14.5117Z" fill="#FEFEFE"/>
<path fill-rule="evenodd" clip-rule="evenodd" d="M19.7596 14.7608L19.6996 14.5508L19.5996 14.5908L19.7596 14.7608Z" fill="#FEFEFE"/>
<path fill-rule="evenodd" clip-rule="evenodd" d="M19.7596 14.761L19.5996 14.631L19.6596 14.541L19.7596 14.761Z" fill="#FEFEFE"/>
<path fill-rule="evenodd" clip-rule="evenodd" d="M19.5195 14.761L19.6895 14.631L19.6295 14.541L19.5195 14.761Z" fill="#FEFEFE"/>
<path fill-rule="evenodd" clip-rule="evenodd" d="M19.5204 14.7608L19.5904 14.5508L19.6804 14.5908L19.5204 14.7608ZM19.0004 13.8008L18.9404 14.0108L19.0304 14.0408L19.0004 13.8008Z" fill="#FEFEFE"/>
<path fill-rule="evenodd" clip-rule="evenodd" d="M18.9997 13.8008L19.0597 14.0108L18.9697 14.0408L18.9997 13.8008Z" fill="#FEFEFE"/>
<path fill-rule="evenodd" clip-rule="evenodd" d="M19.1902 13.9512H18.9902V14.0612L19.1902 13.9512Z" fill="#FEFEFE"/>
<path fill-rule="evenodd" clip-rule="evenodd" d="M19.1897 13.9512L19.0297 14.0812L18.9697 13.9912L19.1897 13.9512Z" fill="#FEFEFE"/>
<path fill-rule="evenodd" clip-rule="evenodd" d="M18.8096 13.9512L18.9796 14.0812L19.0296 13.9912L18.8096 13.9512Z" fill="#FEFEFE"/>
<path fill-rule="evenodd" clip-rule="evenodd" d="M18.8096 13.9512H19.0096V14.0612L18.8096 13.9512Z" fill="#FEFEFE"/>
<path fill-rule="evenodd" clip-rule="evenodd" d="M19.12 14.2002L19.06 13.9902L18.96 14.0202L19.12 14.2002Z" fill="#FEFEFE"/>
<path fill-rule="evenodd" clip-rule="evenodd" d="M19.12 14.2005L18.96 14.0705L19.02 13.9805L19.12 14.2005Z" fill="#FEFEFE"/>
<path fill-rule="evenodd" clip-rule="evenodd" d="M18.8896 14.2005L19.0396 14.0705L18.9896 13.9805L18.8896 14.2005Z" fill="#FEFEFE"/>
<path fill-rule="evenodd" clip-rule="evenodd" d="M18.8896 14.2002L18.9396 13.9902L19.0396 14.0202L18.8896 14.2002ZM18.4396 14.4002L18.3896 14.5702L18.4696 14.6002L18.4396 14.4002Z" fill="#FEFEFE"/>
<path fill-rule="evenodd" clip-rule="evenodd" d="M18.4399 14.4004L18.4899 14.5704L18.4199 14.6004L18.4399 14.4004Z" fill="#FEFEFE"/>
<path fill-rule="evenodd" clip-rule="evenodd" d="M18.5904 14.5312H18.4404V14.6112L18.5904 14.5312Z" fill="#FEFEFE"/>
<path fill-rule="evenodd" clip-rule="evenodd" d="M18.5899 14.5312L18.4599 14.6313L18.4199 14.5613L18.5899 14.5312Z" fill="#FEFEFE"/>
<path fill-rule="evenodd" clip-rule="evenodd" d="M18.29 14.5312L18.42 14.6313L18.46 14.5613L18.29 14.5312Z" fill="#FEFEFE"/>
<path fill-rule="evenodd" clip-rule="evenodd" d="M18.29 14.5312H18.45V14.6112L18.29 14.5312Z" fill="#FEFEFE"/>
<path fill-rule="evenodd" clip-rule="evenodd" d="M18.5402 14.7305L18.4902 14.5605L18.4102 14.5805L18.5402 14.7305Z" fill="#FEFEFE"/>
<path fill-rule="evenodd" clip-rule="evenodd" d="M18.5402 14.7308L18.4102 14.6208L18.4602 14.5508L18.5402 14.7308Z" fill="#FEFEFE"/>
<path fill-rule="evenodd" clip-rule="evenodd" d="M18.3496 14.7308L18.4796 14.6208L18.4296 14.5508L18.3496 14.7308Z" fill="#FEFEFE"/>
<path fill-rule="evenodd" clip-rule="evenodd" d="M18.3496 14.7305L18.3996 14.5605L18.4696 14.5805L18.3496 14.7305ZM18.7196 14.8905L18.6896 15.0105L18.7396 15.0305L18.7196 14.8905Z" fill="#FEFEFE"/>
<path fill-rule="evenodd" clip-rule="evenodd" d="M18.7202 14.8906L18.7602 15.0106L18.7002 15.0306L18.7202 14.8906Z" fill="#FEFEFE"/>
<path fill-rule="evenodd" clip-rule="evenodd" d="M18.8297 14.9805H18.7197V15.0405L18.8297 14.9805Z" fill="#FEFEFE"/>
<path fill-rule="evenodd" clip-rule="evenodd" d="M18.83 14.9805L18.74 15.0505L18.71 15.0005L18.83 14.9805Z" fill="#FEFEFE"/>
<path fill-rule="evenodd" clip-rule="evenodd" d="M18.6104 14.9805L18.7104 15.0505L18.7404 15.0005L18.6104 14.9805Z" fill="#FEFEFE"/>
<path fill-rule="evenodd" clip-rule="evenodd" d="M18.6104 14.9805H18.7304V15.0405L18.6104 14.9805Z" fill="#FEFEFE"/>
<path fill-rule="evenodd" clip-rule="evenodd" d="M18.7902 15.12L18.7502 15L18.7002 15.02L18.7902 15.12Z" fill="#FEFEFE"/>
<path fill-rule="evenodd" clip-rule="evenodd" d="M18.7902 15.1202L18.7002 15.0402L18.7302 14.9902L18.7902 15.1202Z" fill="#FEFEFE"/>
<path fill-rule="evenodd" clip-rule="evenodd" d="M18.6504 15.1202L18.7504 15.0402L18.7104 14.9902L18.6504 15.1202Z" fill="#FEFEFE"/>
<path fill-rule="evenodd" clip-rule="evenodd" d="M18.6504 15.12L18.6904 15L18.7504 15.02L18.6504 15.12ZM20.6604 17L20.6004 17.21L20.6904 17.25L20.6604 17Z" fill="#FEFEFE"/>
<path fill-rule="evenodd" clip-rule="evenodd" d="M20.6599 17L20.7199 17.21L20.6299 17.25L20.6599 17Z" fill="#FEFEFE"/>
<path fill-rule="evenodd" clip-rule="evenodd" d="M20.8504 17.1504H20.6504V17.2704L20.8504 17.1504Z" fill="#FEFEFE"/>
<path fill-rule="evenodd" clip-rule="evenodd" d="M20.8499 17.1504L20.6899 17.2804L20.6299 17.1904L20.8499 17.1504Z" fill="#FEFEFE"/>
<path fill-rule="evenodd" clip-rule="evenodd" d="M20.4697 17.1504L20.6297 17.2804L20.6897 17.1904L20.4697 17.1504Z" fill="#FEFEFE"/>
<path fill-rule="evenodd" clip-rule="evenodd" d="M20.4697 17.1504H20.6697V17.2704L20.4697 17.1504Z" fill="#FEFEFE"/>
<path fill-rule="evenodd" clip-rule="evenodd" d="M20.7801 17.4014L20.7101 17.1914L20.6201 17.2214L20.7801 17.4014Z" fill="#FEFEFE"/>
<path fill-rule="evenodd" clip-rule="evenodd" d="M20.7801 17.4016L20.6201 17.2716L20.6701 17.1816L20.7801 17.4016Z" fill="#FEFEFE"/>
<path fill-rule="evenodd" clip-rule="evenodd" d="M20.54 17.4016L20.7 17.2716L20.65 17.1816L20.54 17.4016Z" fill="#FEFEFE"/>
<path fill-rule="evenodd" clip-rule="evenodd" d="M20.54 17.4002L20.6 17.1902L20.7 17.2202L20.54 17.4002ZM21.13 16.4902L21.09 16.6602L21.16 16.6902L21.13 16.4902Z" fill="#FEFEFE"/>
<path fill-rule="evenodd" clip-rule="evenodd" d="M21.1296 16.4902L21.1796 16.6602L21.0996 16.6902L21.1296 16.4902Z" fill="#FEFEFE"/>
<path fill-rule="evenodd" clip-rule="evenodd" d="M21.2799 16.6211H21.1299V16.7011L21.2799 16.6211Z" fill="#FEFEFE"/>
<path fill-rule="evenodd" clip-rule="evenodd" d="M21.2804 16.6211L21.1604 16.7211L21.1104 16.6511L21.2804 16.6211Z" fill="#FEFEFE"/>
<path fill-rule="evenodd" clip-rule="evenodd" d="M20.9805 16.6211L21.1105 16.7211L21.1605 16.6511L20.9805 16.6211Z" fill="#FEFEFE"/>
<path fill-rule="evenodd" clip-rule="evenodd" d="M20.9805 16.6211H21.1405V16.7011L20.9805 16.6211Z" fill="#FEFEFE"/>
<path fill-rule="evenodd" clip-rule="evenodd" d="M21.2296 16.8106L21.1796 16.6406L21.0996 16.6706L21.2296 16.8106Z" fill="#FEFEFE"/>
<path fill-rule="evenodd" clip-rule="evenodd" d="M21.2296 16.8106L21.0996 16.7106L21.1496 16.6406L21.2296 16.8106Z" fill="#FEFEFE"/>
<path fill-rule="evenodd" clip-rule="evenodd" d="M21.04 16.8106L21.17 16.7106L21.12 16.6406L21.04 16.8106Z" fill="#FEFEFE"/>
<path fill-rule="evenodd" clip-rule="evenodd" d="M21.0399 16.8098L21.0899 16.6398L21.1699 16.6698L21.0399 16.8098ZM20.2199 16.3398L20.1699 16.5098L20.2499 16.5398L20.2199 16.3398Z" fill="#FEFEFE"/>
<path fill-rule="evenodd" clip-rule="evenodd" d="M20.2202 16.3398L20.2702 16.5098L20.2002 16.5398L20.2202 16.3398Z" fill="#FEFEFE"/>
<path fill-rule="evenodd" clip-rule="evenodd" d="M20.37 16.4609H20.21V16.5509L20.37 16.4609Z" fill="#FEFEFE"/>
<path fill-rule="evenodd" clip-rule="evenodd" d="M20.3702 16.4609L20.2402 16.5709L20.2002 16.4909L20.3702 16.4609Z" fill="#FEFEFE"/>
<path fill-rule="evenodd" clip-rule="evenodd" d="M20.0703 16.4609L20.2003 16.5709L20.2403 16.4909L20.0703 16.4609Z" fill="#FEFEFE"/>
<path fill-rule="evenodd" clip-rule="evenodd" d="M20.0703 16.4609H20.2303V16.5509L20.0703 16.4609Z" fill="#FEFEFE"/>
<path fill-rule="evenodd" clip-rule="evenodd" d="M20.3204 16.6602L20.2704 16.4902L20.1904 16.5202L20.3204 16.6602Z" fill="#FEFEFE"/>
<path fill-rule="evenodd" clip-rule="evenodd" d="M20.3204 16.6602L20.1904 16.5602L20.2304 16.4902L20.3204 16.6602Z" fill="#FEFEFE"/>
<path fill-rule="evenodd" clip-rule="evenodd" d="M20.1299 16.6602L20.2599 16.5602L20.2099 16.4902L20.1299 16.6602Z" fill="#FEFEFE"/>
<path fill-rule="evenodd" clip-rule="evenodd" d="M20.1302 16.6605L20.1802 16.4905L20.2602 16.5205L20.1302 16.6605ZM16.7802 16.0605L16.7002 16.3205L16.8102 16.3605L16.7802 16.0605Z" fill="#FEFEFE"/>
<path fill-rule="evenodd" clip-rule="evenodd" d="M16.7802 16.0605L16.8502 16.3205L16.7402 16.3605L16.7802 16.0605Z" fill="#FEFEFE"/>
<path fill-rule="evenodd" clip-rule="evenodd" d="M17.0095 16.25H16.7695V16.38L17.0095 16.25Z" fill="#FEFEFE"/>
<path fill-rule="evenodd" clip-rule="evenodd" d="M17.0102 16.25L16.8102 16.41L16.7402 16.3L17.0102 16.25Z" fill="#FEFEFE"/>
<path fill-rule="evenodd" clip-rule="evenodd" d="M16.5498 16.25L16.7498 16.41L16.8098 16.3L16.5498 16.25Z" fill="#FEFEFE"/>
<path fill-rule="evenodd" clip-rule="evenodd" d="M16.5498 16.25H16.7898V16.38L16.5498 16.25Z" fill="#FEFEFE"/>
<path fill-rule="evenodd" clip-rule="evenodd" d="M16.9105 16.551L16.8405 16.291L16.7305 16.331L16.9105 16.551Z" fill="#FEFEFE"/>
<path fill-rule="evenodd" clip-rule="evenodd" d="M16.9097 16.5512L16.7197 16.3913L16.7897 16.2812L16.9097 16.5512Z" fill="#FEFEFE"/>
<path fill-rule="evenodd" clip-rule="evenodd" d="M16.6396 16.5512L16.8296 16.3913L16.7596 16.2812L16.6396 16.5512Z" fill="#FEFEFE"/>
<path fill-rule="evenodd" clip-rule="evenodd" d="M16.6396 16.551L16.7096 16.291L16.8196 16.331L16.6396 16.551ZM18.9996 17.811L18.9796 17.901L19.0096 17.911L18.9996 17.811Z" fill="#FEFEFE"/>
<path fill-rule="evenodd" clip-rule="evenodd" d="M19.0002 17.8105L19.0202 17.9005L18.9902 17.9105L19.0002 17.8105Z" fill="#FEFEFE"/>
<path fill-rule="evenodd" clip-rule="evenodd" d="M19.08 17.8711H19V17.9211L19.08 17.8711Z" fill="#FEFEFE"/>
<path fill-rule="evenodd" clip-rule="evenodd" d="M19.0802 17.8711L19.0102 17.9311L18.9902 17.8911L19.0802 17.8711Z" fill="#FEFEFE"/>
<path fill-rule="evenodd" clip-rule="evenodd" d="M18.9297 17.8711L18.9897 17.9311L19.0097 17.8911L18.9297 17.8711Z" fill="#FEFEFE"/>
<path fill-rule="evenodd" clip-rule="evenodd" d="M18.9297 17.8711H18.9997V17.9211L18.9297 17.8711Z" fill="#FEFEFE"/>
<path fill-rule="evenodd" clip-rule="evenodd" d="M19.0402 17.9706L19.0202 17.8906L18.9902 17.9006L19.0402 17.9706Z" fill="#FEFEFE"/>
<path fill-rule="evenodd" clip-rule="evenodd" d="M19.0405 17.9706L18.9805 17.9206L19.0005 17.8906L19.0405 17.9706Z" fill="#FEFEFE"/>
<path fill-rule="evenodd" clip-rule="evenodd" d="M18.9502 17.9706L19.0202 17.9206L19.0002 17.8906L18.9502 17.9706Z" fill="#FEFEFE"/>
<path fill-rule="evenodd" clip-rule="evenodd" d="M18.9502 17.9706L18.9802 17.8906L19.0202 17.9006L18.9502 17.9706Z" fill="#FEFEFE"/>
</g>
</g>
<defs>
<clipPath id="clip0_26003_73717">
<rect width="38" height="25" fill="white" transform="translate(0 0.5)"/>
</clipPath>
<clipPath id="clip1_26003_73717">
<rect width="38" height="25" fill="white" transform="translate(0 0.5)"/>
</clipPath>
</defs>
</svg>
