<svg width="39" height="26" viewBox="0 0 39 26" fill="none" xmlns="http://www.w3.org/2000/svg">
<g clip-path="url(#clip0_26003_53781)">
<g clip-path="url(#clip1_26003_53781)">
<path fill-rule="evenodd" clip-rule="evenodd" d="M0.745117 16.9109H38.7451V3.11094C38.5451 1.61094 37.5451 0.410938 36.2451 0.210938H3.24512C1.94512 0.510938 0.945117 1.61094 0.745117 3.11094V16.9109Z" fill="#C0282D"/>
<path fill-rule="evenodd" clip-rule="evenodd" d="M3.24512 25.2102H36.3451C37.6451 24.9102 38.6451 23.8102 38.8451 22.3102V16.9102H0.745117V22.3102C0.945117 23.8102 1.94512 25.0102 3.24512 25.2102Z" fill="#36A83A"/>
<path fill-rule="evenodd" clip-rule="evenodd" d="M3.24512 25.2109H5.64512V0.210938H3.24512C1.94512 0.510938 0.945117 1.61094 0.745117 3.11094V22.3109C0.945117 23.8109 1.94512 25.0109 3.24512 25.2109Z" fill="#FEFEFE"/>
<path fill-rule="evenodd" clip-rule="evenodd" d="M3.94473 0.210938V0.810938H3.74473V1.41094H3.54473V2.01094H3.24473V2.61094H3.04473V1.91094H2.84473V1.41094H2.64473V0.810938H2.44473V0.510938C2.34473 0.510938 2.34473 0.610938 2.24473 0.610938V0.810938H1.94473V1.41094H1.74473V2.01094H1.54473V2.61094H1.34473V3.21094H1.54473V3.81094H1.74473V4.21094H1.94473V4.81094H2.14473V5.41094H2.34473V4.81094H2.54473V4.21094H2.74473V3.71094H2.94473V3.11094H3.14473V3.71094H3.34473V4.21094H3.74473V4.81094H3.94473V5.41094H4.14473V4.81094H4.34473V4.21094H4.54473V3.71094H4.74473V3.11094H4.94473V2.51094H4.84473V1.91094H4.64473V1.41094H4.34473V0.810938H4.14473V0.210938H3.94473ZM2.44473 25.0109C2.34473 25.0109 2.34473 24.9109 2.24473 24.9109V24.7109H1.94473V24.1109H1.74473V23.5109H1.54473V22.9109H1.34473V22.3109H1.54473V21.7109H1.74473V21.2109H1.94473V20.6109H2.14473V20.0109H2.34473V20.6109H2.54473V21.2109H2.74473V21.8109H2.94473V22.4109H3.14473V21.8109H3.34473V21.2109H3.74473V20.6109H3.94473V20.0109H4.14473V20.6109H4.34473V21.2109H4.54473V21.8109H4.74473V22.4109H4.94473V23.0109H4.84473V23.6109H4.64473V24.2109H4.34473V24.8109H4.14473V25.2109H3.94473V24.6109H3.74473V24.0109H3.54473V23.4109H3.24473V22.8109H3.04473V23.4109H2.84473V24.0109H2.64473V24.6109H2.44473V25.0109ZM1.54473 24.2109V24.1109H1.44473L1.54473 24.2109ZM1.44473 1.41094C1.44473 1.31094 1.54473 1.31094 1.54473 1.21094V1.41094H1.44473ZM3.54473 2.51094H3.74473V1.91094H3.94473V1.41094H4.14473V2.01094H4.34473V2.61094H4.54473V3.21094H4.34473V3.81094H4.14473V4.21094H3.94473V3.71094H3.74473V3.11094H3.54473V2.51094ZM1.74473 2.51094H1.94473V1.91094H2.14473V1.41094H2.34473V2.01094H2.54473V2.61094H2.74473V3.21094H2.64473V3.81094H2.44473V4.21094H2.24473V3.71094H1.94473V3.11094H1.74473V2.51094ZM4.84473 1.41094V0.710938H5.04473V1.41094H4.84473ZM3.04473 1.41094V0.710938H3.24473V1.41094H3.04473ZM3.94473 3.11094V2.51094H4.14473V3.11094H3.94473ZM2.24473 3.11094V2.51094H2.44473V3.11094H2.24473ZM4.84473 4.71094V4.01094H5.04473V4.71094H4.84473ZM3.04473 4.71094V4.01094H3.24473V4.71094H3.04473ZM1.34473 4.71094V4.01094H1.54473V4.71094H1.34473ZM4.44473 4.91094H4.74473V5.21094H4.84473V5.61094H4.94473V6.41094H4.84473V6.71094H4.44473V6.41094H4.34473V6.11094H4.24473V5.61094H4.34473V5.31094H4.44473V4.91094ZM4.44473 5.71094V5.91094H4.54473V6.21094H4.74473V6.01094H4.84473V5.71094H4.74473V5.51094H4.54473V5.71094H4.44473ZM2.74473 5.31094V4.91094H3.04473V5.21094H3.24473V4.91094H3.54473V5.21094H3.74473V5.61094H3.84473V6.11094H3.74473V6.41094H3.64473V6.71094H3.24473V6.41094H3.04473V6.71094H2.74473V6.41094H2.64473V6.11094H2.54473V5.61094H2.64473V5.31094H2.74473ZM3.24473 5.71094V5.91094H3.34473V6.21094H3.44473V6.01094H3.54473V5.51094H3.44473V5.71094H3.24473ZM2.74473 5.71094V5.91094H2.84473V6.21094H2.94473V6.01094H3.04473V5.71094H2.94473V5.51094H2.84473V5.71094H2.74473ZM1.54473 5.31094V4.91094H1.84473V5.21094H1.94473V5.61094H2.04473V6.11094H1.94473V6.41094H1.84473V6.71094H1.54473V6.41094H1.44473V6.11094H1.34473V5.61094H1.44473V5.31094H1.54473ZM1.54473 5.71094V5.91094H1.64473V6.21094H1.74473V6.01094H1.84473V5.71094H1.74473V5.51094H1.64473V5.71094H1.54473ZM3.94473 6.31094V6.91094H3.74473V7.51094H3.54473V8.11094H3.24473V8.71094H3.04473V8.11094H2.84473V7.51094H2.64473V6.91094H2.44473V6.31094H2.24473V6.91094H1.94473V7.51094H1.74473V8.11094H1.54473V8.71094H1.34473V9.21094H1.54473V9.81094H1.74473V10.4109H1.94473V11.0109H2.14473V10.4109H2.34473V9.81094H2.54473V9.21094H2.44473V8.51094H2.64473V9.01094H2.84473V9.91094H2.94473V10.5109H2.64473V11.0109H2.44473V11.3109H2.24473V11.9109H1.94473V11.3109H1.74473V11.0109H1.54473V10.7109H1.34473V11.7109H1.54473V12.2109H1.74473V12.6109H1.94473V13.0109H1.74473V13.4109H1.54473V13.9109H1.34473V14.9109H1.54473V14.6109H1.74473V14.2109H1.94473V13.6109H2.14473V14.2109H2.34473V14.5109H2.54473V15.0109H2.84473V16.5109H2.64473V16.9109H2.44473V16.2109H2.64473V15.6109H2.44473V15.0109H2.24473V14.4109H1.94473V15.0109H1.74473V15.6109H1.54473V16.2109H1.34473V16.8109H1.54473V17.4109H1.74473V18.0109H1.94473V18.6109H2.14473V19.2109H2.34473V18.6109H2.54473V18.0109H2.74473V17.4109H2.94473V16.8109H3.14473V17.4109H3.34473V18.0109H3.74473V18.6109H3.94473V19.2109H4.14473V18.6109H4.34473V18.0109H4.54473V17.4109H4.74473V16.8109H4.94473V16.2109H4.84473V15.6109H4.64473V15.0109H4.34473V14.4109H4.14473V15.0109H3.94473V15.6109H3.74473V16.2109H3.94473V16.9109H3.74473V16.5109H3.54473V15.6109H3.44473V15.0109H3.74473V14.5109H3.94473V14.2109H4.14473V13.6109H4.34473V14.2109H4.54473V14.5109H4.74473V14.8109H4.94473V13.8109H4.84473V13.3109H4.64473V12.9109H4.34473V12.5109H4.54473V12.1109H4.74473V11.6109H4.94473V10.6109H4.84473V10.9109H4.64473V11.2109H4.34473V11.8109H4.14473V11.2109H3.94473V10.9109H3.74473V10.4109H3.44473V9.91094H3.54473V9.01094H3.74473V8.51094H3.94473V9.21094H3.74473V9.81094H3.94473V10.4109H4.14473V11.0109H4.34473V10.4109H4.54473V9.81094H4.74473V9.21094H4.94473V8.61094H4.84473V8.11094H4.64473V7.51094H4.34473V6.91094H4.14473V6.31094H3.94473ZM2.24473 12.7109V12.5109H2.44473V12.1109H2.64473V11.6109H2.94473V11.1109H3.04473V10.8109H3.24473V11.1109H3.34473V11.7109H3.74473V12.1109H3.94473V12.5109H4.14473V12.9109H3.94473V13.3109H3.74473V13.7109H3.44473V14.2109H3.24473V14.5109H3.04473V14.2109H2.94473V13.7109H2.64473V13.2109H2.44473V12.8109H2.24473V12.7109ZM4.84473 7.71094V7.01094H5.04473V7.71094H4.84473ZM3.04473 7.71094V7.01094H3.24473V7.71094H3.04473ZM1.34473 7.71094V7.01094H1.54473V7.71094H1.34473ZM4.84473 10.4109V9.91094H5.04473V10.4109H4.84473ZM1.34473 10.4109V9.91094H1.54473V10.4109H1.34473ZM3.04473 12.1109V11.5109H3.24473V12.1109H3.04473ZM3.44473 12.0109H3.64473V12.3109H3.54473V12.5109H3.44473V12.9109H3.54473V13.1109H3.64473V13.4109H3.44473V13.2109H3.24473V13.0109H3.04473V13.2109H2.94473V13.4109H2.74473V13.1109H2.84473V12.9109H2.94473V12.5109H2.84473V12.3109H2.74473V12.0109H2.94473V12.2109H3.04473V12.4109H3.24473V12.2109H3.34473V12.0109H3.44473ZM4.84473 12.4109H5.04473V13.0109H4.84473V12.4109ZM3.64473 12.4109H3.84473V13.0109H3.64473V12.4109ZM2.54473 12.4109H2.74473V13.0109H2.54473V12.4109ZM1.34473 12.4109H1.54473V13.0109H1.34473V12.4109ZM3.04473 13.9109V13.3109H3.24473V13.9109H3.04473ZM4.84473 15.6109V15.1109H5.04473V15.6109H4.84473ZM1.34473 15.6109V15.1109H1.54473V15.6109H1.34473ZM4.84473 18.4109V17.7109H5.04473V18.4109H4.84473ZM3.04473 18.4109V17.7109H3.24473V18.4109H3.04473ZM1.34473 18.4109V17.7109H1.54473V18.4109H1.34473ZM3.24473 18.7109V19.0109H3.04473V18.7109H2.74473V19.0109H2.64473V19.3109H2.54473V19.8109H2.64473V20.2109H2.74473V20.5109H3.04473V20.2109H3.24473V20.5109H3.54473V20.2109H3.74473V19.9109H3.84473V19.4109H3.74473V19.1109H3.64473V18.8109H3.24473V18.7109ZM3.24473 19.5109H3.34473V19.2109H3.44473V19.4109H3.54473V19.8109H3.44473V19.6109H3.24473V19.5109ZM2.74473 19.5109H2.84473V19.2109H2.94473V19.4109H3.04473V19.6109H2.94473V19.8109H2.84473V19.6109H2.74473V19.5109ZM1.54473 18.7109V19.0109H1.44473V19.3109H1.34473V19.8109H1.44473V20.2109H1.54473V20.5109H1.84473V20.2109H1.94473V19.9109H2.04473V19.4109H1.94473V19.1109H1.84473V18.8109H1.54473V18.7109ZM1.54473 19.5109H1.64473V19.2109H1.74473V19.4109H1.84473V19.6109H1.74473V19.8109H1.64473V19.6109H1.54473V19.5109ZM4.44473 18.7109V19.0109H4.34473V19.4109H4.24473V19.9109H4.34473V20.2109H4.44473V20.5109H4.74473V20.2109H4.84473V19.9109H4.94473V19.0109H4.84473V18.7109H4.44473ZM4.44473 19.5109H4.54473V19.3109H4.74473V19.5109H4.84473V19.7109H4.74473V19.9109H4.54473V19.7109H4.44473V19.5109ZM3.54473 22.4109V23.0109H3.74473V23.6109H3.94473V24.2109H4.14473V23.6109H4.34473V23.0109H4.54473V22.4109H4.34473V21.8109H4.14473V21.2109H3.94473V21.8109H3.74473V22.4109H3.54473ZM1.74473 22.4109V23.0109H1.94473V23.6109H2.14473V24.2109H2.34473V23.6109H2.54473V23.0109H2.74473V22.4109H2.64473V21.8109H2.44473V21.2109H2.24473V21.8109H1.94473V22.4109H1.74473ZM4.84473 21.4109H5.04473V20.7109H4.84473V21.4109ZM3.04473 21.4109H3.24473V20.7109H3.04473V21.4109ZM1.34473 21.4109H1.54473V20.7109H1.34473V21.4109ZM3.94473 22.9109H4.14473V22.3109H3.94473V22.9109ZM2.24473 22.9109H2.44473V22.3109H2.24473V22.9109ZM4.84473 24.8109H5.04473V24.1109H4.84473V24.8109ZM3.04473 24.8109H3.24473V24.1109H3.04473V24.8109Z" fill="#C0282D"/>
</g>
</g>
<defs>
<clipPath id="clip0_26003_53781">
<rect width="38" height="25" fill="white" transform="translate(0.745117 0.210938)"/>
</clipPath>
<clipPath id="clip1_26003_53781">
<rect width="38" height="25" fill="white" transform="translate(0.745117 0.210938)"/>
</clipPath>
</defs>
</svg>
