<svg width="39" height="26" viewBox="0 0 39 26" fill="none" xmlns="http://www.w3.org/2000/svg">
<g clip-path="url(#clip0_26003_54447)">
<g clip-path="url(#clip1_26003_54447)">
<path fill-rule="evenodd" clip-rule="evenodd" d="M38.7451 22.3109V3.21094C38.5451 1.51094 37.2451 0.210938 35.7451 0.210938H3.74512C2.24512 0.210938 0.945117 1.51094 0.745117 3.21094V22.4109C0.945117 24.1109 2.24512 25.4109 3.74512 25.4109H35.7451C37.2451 25.3109 38.5451 24.0109 38.7451 22.3109ZM17.8451 4.11094C22.0451 4.11094 25.4451 7.91094 25.4451 12.7109C25.4451 17.5109 22.0451 21.3109 17.8451 21.3109C13.6451 21.3109 10.2451 17.5109 10.2451 12.7109C10.2451 8.01094 13.6451 4.11094 17.8451 4.11094Z" fill="#2D7153"/>
<path fill-rule="evenodd" clip-rule="evenodd" d="M17.8451 4.11133C22.0451 4.11133 25.4451 7.91133 25.4451 12.7113C25.4451 17.5113 22.0451 21.3113 17.8451 21.3113C13.6451 21.3113 10.2451 17.5113 10.2451 12.7113C10.2451 8.01133 13.6451 4.11133 17.8451 4.11133Z" fill="#DE2246"/>
</g>
</g>
<defs>
<clipPath id="clip0_26003_54447">
<rect width="38" height="25" fill="white" transform="translate(0.745117 0.210938)"/>
</clipPath>
<clipPath id="clip1_26003_54447">
<rect width="38" height="25" fill="white" transform="translate(0.745117 0.210938)"/>
</clipPath>
</defs>
</svg>
