<svg width="38" height="26" viewBox="0 0 38 26" fill="none" xmlns="http://www.w3.org/2000/svg">
<g clip-path="url(#clip0_26003_69753)">
<g clip-path="url(#clip1_26003_69753)">
<path d="M0 17.1719V21.9219C0 23.9219 1.65 25.5019 3.68 25.5019H34.33C34.8071 25.5098 35.281 25.4234 35.7245 25.2475C36.1681 25.0716 36.5724 24.8098 36.9144 24.4771C37.2564 24.1444 37.5293 23.7474 37.7173 23.3089C37.9053 22.8703 38.0048 22.399 38.01 21.9219V17.1719H0Z" fill="#D32030"/>
<path d="M34.32 25.5005C34.7971 25.5084 35.271 25.422 35.7145 25.2461C36.1581 25.0703 36.5625 24.8084 36.9044 24.4757C37.2464 24.143 37.5193 23.746 37.7073 23.3075C37.8953 22.869 37.9948 22.3976 38 21.9205V17.1705H24.15L34.32 25.5005ZM34.32 0.500501H3.68C3.20294 0.492564 2.72901 0.579015 2.28548 0.754881C1.84194 0.930747 1.43755 1.19256 1.09556 1.52526C0.75356 1.85796 0.480709 2.25499 0.292693 2.69351C0.104677 3.13204 0.00520612 3.6034 0 4.0805L0 8.8305H38V4.0805C38 2.0805 36.35 0.500501 34.32 0.500501Z" fill="#D32030"/>
<path d="M34.3197 0.5H3.67969L13.8497 8.83H37.9997V4.08C37.9997 2.08 36.3497 0.5 34.3197 0.5Z" fill="#D32030"/>
<path d="M34.3197 0.5H3.67969L32.0597 8.83H37.9997V4.08C37.9997 2.08 36.3497 0.5 34.3197 0.5Z" fill="#D32030"/>
<path d="M0 5.14062V20.8606H38V5.14062H0Z" fill="#FFD034"/>
<path d="M13.7899 8.72063L24.2099 17.2806L28.6199 20.8606H37.9999V5.14062H9.37988L13.7899 8.72063Z" fill="#FFD034"/>
<path d="M19.5498 5.14062L31.7498 8.72063L37.9998 10.5406V5.14062H19.5498Z" fill="#FFD034"/>
<path d="M38 21.9195C38 23.9195 36.35 25.4995 34.32 25.4995H3.68C3.20294 25.5075 2.72901 25.421 2.28548 25.2452C1.84194 25.0693 1.43755 24.8075 1.09556 24.4748C0.75356 24.1421 0.480709 23.745 0.292693 23.3065C0.104677 22.868 0.00520612 22.3966 0 21.9195M5.33 12.7695V15.2295C5.33 16.4595 6.37 17.4595 7.66 17.4595C8.95 17.4595 9.99 16.4595 9.99 15.2295V12.7695H5.33ZM10.54 13.1195H11.28V16.5195H10.54V13.1195ZM11.58 16.9295C11.52 16.8695 11.46 16.8695 11.33 16.8695C11.27 16.8695 11.15 16.8695 11.08 16.9295C11.02 16.9895 10.96 16.9895 10.83 16.9895C10.77 16.9895 10.65 16.9895 10.58 16.9295C10.52 16.9295 10.46 16.8695 10.33 16.8695C10.21 16.8695 10.15 16.8695 10.08 16.9295C10.02 16.9895 9.96 16.9895 9.83 16.9895V17.1095C9.89 17.1095 10.01 17.1095 10.08 17.0495C10.14 17.0495 10.2 16.9895 10.33 16.9895C10.45 16.9895 10.51 16.9895 10.58 17.0495C10.64 17.1095 10.7 17.1095 10.83 17.1095C10.89 17.1095 11.01 17.1095 11.08 17.0495C11.14 17.0495 11.2 16.9895 11.33 16.9895C11.39 16.9895 11.51 16.9895 11.58 17.0495C11.64 17.1095 11.76 17.1095 11.83 17.1095V16.9895C11.77 16.9895 11.65 16.9895 11.58 16.9295ZM11.4 17.1695C11.34 17.1695 11.22 17.1695 11.15 17.2295C11.09 17.2895 11.03 17.2895 10.9 17.2895C10.84 17.2895 10.72 17.2895 10.65 17.2295C10.59 17.2295 10.53 17.1695 10.4 17.1695C10.28 17.1695 10.22 17.1695 10.15 17.2295C10.09 17.2895 10.03 17.2895 9.9 17.2895V17.4095C9.96 17.4095 10.08 17.4095 10.15 17.3495C10.21 17.3495 10.27 17.2895 10.4 17.2895C10.52 17.2895 10.58 17.2895 10.65 17.3495C10.71 17.4095 10.77 17.4095 10.9 17.4095C10.96 17.4095 11.08 17.4095 11.15 17.3495C11.21 17.3495 11.27 17.2895 11.4 17.2895C11.46 17.2895 11.58 17.2895 11.65 17.3495C11.71 17.4095 11.77 17.4095 11.9 17.4095V17.2895C11.84 17.2895 11.72 17.2895 11.65 17.2295C11.52 17.1695 11.46 17.1695 11.4 17.1695Z" fill="#D32030"/>
<path d="M11.4004 17.4014C11.3404 17.4014 11.2204 17.4014 11.1504 17.4614C11.0904 17.5214 11.0304 17.5214 10.9004 17.5214C10.8404 17.5214 10.7204 17.5214 10.6504 17.4614C10.5904 17.4614 10.5304 17.4014 10.4004 17.4014C10.2804 17.4014 10.2204 17.4014 10.1504 17.4614C10.0904 17.5214 10.0304 17.5214 9.90039 17.5214V17.6414C9.96039 17.6414 10.0804 17.6414 10.1504 17.5814C10.2104 17.5814 10.2704 17.5214 10.4004 17.5214C10.5204 17.5214 10.5804 17.5214 10.6504 17.5814C10.7104 17.6414 10.7704 17.6414 10.9004 17.6414C10.9604 17.6414 11.0804 17.6414 11.1504 17.5814C11.2104 17.5814 11.2704 17.5214 11.4004 17.5214C11.4604 17.5214 11.5804 17.5214 11.6504 17.5814C11.7104 17.6414 11.7704 17.6414 11.9004 17.6414V17.5214C11.8404 17.5214 11.7204 17.5214 11.6504 17.4614C11.5204 17.4614 11.4604 17.4014 11.4004 17.4014ZM11.4004 16.5814C11.4004 16.6414 11.3404 16.7014 11.2804 16.7014H10.4804C10.4493 16.6991 10.4201 16.6857 10.3981 16.6637C10.3761 16.6417 10.3627 16.6125 10.3604 16.5814C10.3604 16.5214 10.4204 16.4614 10.4804 16.4614H11.2804C11.3404 16.4614 11.4004 16.5214 11.4004 16.5814ZM11.4004 13.0614C11.4004 13.1214 11.3404 13.1814 11.2804 13.1814H10.4804C10.4493 13.1791 10.4201 13.1657 10.3981 13.1437C10.3761 13.1217 10.3627 13.0925 10.3604 13.0614C10.3604 13.0014 10.4204 12.9414 10.4804 12.9414H11.2804C11.3404 13.0014 11.4004 13.0014 11.4004 13.0614Z" fill="#D32030"/>
<path d="M4.11039 13.1211H4.85039V16.5211H4.11039V13.1211ZM5.15039 16.9311C5.09039 16.8711 5.03039 16.8711 4.90039 16.8711C4.84039 16.8711 4.72039 16.8711 4.65039 16.9311C4.59039 16.9911 4.53039 16.9911 4.40039 16.9911C4.34039 16.9911 4.22039 16.9911 4.15039 16.9311C4.09039 16.9311 4.03039 16.8711 3.90039 16.8711C3.84039 16.8711 3.72039 16.8711 3.65039 16.9311C3.59039 16.9911 3.53039 16.9911 3.40039 16.9911V17.1111C3.46039 17.1111 3.58039 17.1111 3.65039 17.0511C3.71039 17.0511 3.77039 16.9911 3.90039 16.9911C3.96039 16.9911 4.08039 16.9911 4.15039 17.0511C4.27039 17.1111 4.33039 17.1111 4.46039 17.1111C4.52039 17.1111 4.64039 17.1111 4.71039 17.0511C4.77039 17.0511 4.83039 16.9911 4.96039 16.9911C5.02039 16.9911 5.14039 16.9911 5.21039 17.0511C5.21039 17.1111 5.27039 17.1111 5.39039 17.1111V16.9911C5.27039 16.9911 5.21039 16.9911 5.15039 16.9311ZM4.90039 17.1711C4.84039 17.1711 4.72039 17.1711 4.65039 17.2311C4.59039 17.2911 4.53039 17.2911 4.40039 17.2911C4.34039 17.2911 4.22039 17.2911 4.15039 17.2311C4.09039 17.2311 4.03039 17.1711 3.90039 17.1711C3.84039 17.1711 3.72039 17.1711 3.65039 17.2311C3.59039 17.2911 3.53039 17.2911 3.40039 17.2911V17.4111C3.46039 17.4111 3.58039 17.4111 3.65039 17.3511C3.71039 17.3511 3.77039 17.2911 3.90039 17.2911C3.96039 17.2911 4.08039 17.2911 4.15039 17.3511C4.22039 17.4111 4.27039 17.4111 4.40039 17.4111C4.46039 17.4111 4.58039 17.4111 4.65039 17.3511C4.71039 17.3511 4.77039 17.2911 4.90039 17.2911C4.96039 17.2911 5.08039 17.2911 5.15039 17.3511C5.22039 17.4111 5.27039 17.4111 5.40039 17.4111V17.2911C5.34039 17.2911 5.22039 17.2911 5.15039 17.2311C5.09039 17.1711 5.03039 17.1711 4.90039 17.1711Z" fill="#D32030"/>
<path d="M4.90039 17.4C4.84039 17.4 4.72039 17.4 4.65039 17.46C4.59039 17.52 4.53039 17.52 4.40039 17.52C4.34039 17.52 4.22039 17.52 4.15039 17.46C4.09039 17.46 4.03039 17.4 3.90039 17.4C3.84039 17.4 3.72039 17.4 3.65039 17.46C3.59039 17.52 3.53039 17.52 3.40039 17.52V17.64C3.46039 17.64 3.58039 17.64 3.65039 17.58C3.71039 17.58 3.77039 17.52 3.90039 17.52C3.96039 17.52 4.08039 17.52 4.15039 17.58C4.21039 17.64 4.27039 17.64 4.40039 17.64C4.46039 17.64 4.58039 17.64 4.65039 17.58C4.71039 17.58 4.77039 17.52 4.90039 17.52C4.96039 17.52 5.08039 17.52 5.15039 17.58C5.21039 17.64 5.27039 17.64 5.40039 17.64V17.52C5.34039 17.52 5.22039 17.52 5.15039 17.46C5.09039 17.46 5.03039 17.4 4.90039 17.4ZM4.96039 16.58C4.96039 16.64 4.90039 16.7 4.84039 16.7H4.04039C4.00933 16.6977 3.98013 16.6843 3.95811 16.6623C3.93609 16.6403 3.9227 16.6111 3.92039 16.58C3.92039 16.52 3.98039 16.46 4.04039 16.46H4.84039C4.90039 16.46 4.96039 16.52 4.96039 16.58ZM4.96039 13.06C4.96039 13.12 4.90039 13.18 4.84039 13.18H4.04039C4.00933 13.1777 3.98013 13.1643 3.95811 13.1423C3.93609 13.1203 3.9227 13.0911 3.92039 13.06C3.98039 13 4.04039 13 4.04039 13H4.84039C4.90039 13 4.96039 13 4.96039 13.06Z" fill="#D32030"/>
<path d="M9.50039 12.3014C9.50039 12.1814 9.44039 12.1214 9.32039 12.1214C9.32039 12.0014 8.58039 11.9414 7.67039 11.9414C6.76039 11.9414 6.02039 12.0014 6.02039 12.1214C5.96039 12.1214 5.90039 12.2414 5.90039 12.3014C5.90039 12.3614 5.96039 12.4814 6.08039 12.4814C6.08039 12.6014 6.82039 12.6614 7.73039 12.6614C8.64039 12.6614 9.38039 12.6014 9.38039 12.4814C9.44039 12.4714 9.50039 12.4114 9.50039 12.3014Z" fill="#A5001C"/>
<path d="M10.5401 10.7719L10.6001 10.7119C10.6601 10.5919 10.7201 10.4819 10.7201 10.3619C10.7201 10.1319 10.5401 9.89188 10.3501 9.77188L10.4101 9.83187C10.1738 9.68208 9.89987 9.60233 9.62009 9.60188H9.31009C9.31009 9.60188 9.25009 9.60187 9.25009 9.66187H9.19009V9.72188L9.01009 9.54187C8.84214 9.39127 8.62564 9.30609 8.40009 9.30188C8.22009 9.30188 8.03009 9.36187 7.85009 9.42188V9.54187C7.97009 9.48187 8.16009 9.42188 8.34009 9.42188C8.71009 9.42188 9.08009 9.60188 9.08009 9.89188V9.95187C9.08009 10.0719 9.02009 10.1319 8.96009 10.1819C8.80895 10.1786 8.66107 10.1374 8.53009 10.0619C8.30891 9.99696 8.08046 9.96 7.85009 9.95187V9.42188C7.85009 9.37187 7.72009 9.30188 7.66009 9.30188C7.78009 9.30188 7.84009 9.24188 7.91009 9.18188V9.06188C7.91009 8.94188 7.85009 8.88187 7.73009 8.83187V8.66187H7.85009V8.54187H7.72009V8.42188H7.60009V8.54187H7.48009V8.66187H7.60009V8.84188C7.48009 8.84188 7.42009 8.96187 7.42009 9.07187V9.19187C7.48009 9.24187 7.54009 9.30188 7.60009 9.30188C7.54009 9.30188 7.48009 9.36187 7.48009 9.36187V9.30188C7.48009 9.24188 7.48009 9.24187 7.42009 9.24187C7.36009 9.24187 7.36009 9.24188 7.36009 9.30188C7.36009 9.36188 7.36009 9.36187 7.42009 9.36187H7.48009L7.42009 9.42188C7.29009 9.36187 7.11009 9.30188 6.86009 9.30188C6.61009 9.30188 6.37009 9.36187 6.25009 9.54187C6.19009 9.60187 6.07009 9.65188 6.07009 9.71187V9.65187H6.01009C6.01009 9.65187 6.01009 9.59188 5.95009 9.59188H5.63009C5.32009 9.59188 5.02009 9.71187 4.83009 9.82187L4.90009 9.77188C4.79067 9.82641 4.69885 9.9107 4.63517 10.0151C4.57149 10.1194 4.53854 10.2396 4.54009 10.3619C4.54009 10.4819 4.60009 10.6519 4.66009 10.7119L4.72009 10.7719C4.66009 10.7719 4.60009 10.8319 4.60009 10.9519C4.60009 10.9519 4.72009 10.9519 4.78009 11.0119C4.84009 11.0719 4.90009 11.1919 4.90009 11.1919V11.3119C4.96009 11.3719 4.96009 11.3719 5.02009 11.3119C5.08009 11.3719 5.14009 11.4919 5.27009 11.5419C5.33009 11.6019 5.45009 11.6019 5.52009 11.6019C5.46009 11.6019 5.46009 11.6619 5.46009 11.6619C5.46009 11.7219 5.52009 11.7219 5.52009 11.7219C5.52009 11.7219 5.58009 11.7219 5.64009 11.7819L5.70009 11.8419L5.82009 11.9019V12.0219C7.02824 11.7204 8.29195 11.7204 9.50009 12.0219C9.44009 12.0219 9.44009 11.9619 9.50009 11.9019L9.62009 11.8419L9.56009 11.7819C9.62009 11.7219 9.68009 11.7219 9.68009 11.7219C9.74009 11.7219 9.74009 11.7219 9.74009 11.6619C9.74009 11.6019 9.74009 11.6019 9.68009 11.6019H9.56009L9.62009 11.6619C9.68009 11.6619 9.80009 11.6619 9.87009 11.6019C9.99009 11.5419 10.0501 11.4219 10.1201 11.3719H10.2401C10.3001 11.3119 10.3001 11.2519 10.2401 11.2519C10.2401 11.2519 10.3001 11.1319 10.3601 11.0719C10.4201 11.0119 10.5401 11.0119 10.5401 11.0119C10.7301 10.8919 10.6001 10.7719 10.5401 10.7719ZM6.01009 9.77188C5.95009 9.77188 5.95009 9.77187 5.95009 9.83187C5.95009 9.89187 5.95009 9.89188 6.01009 9.89188V9.95187C6.01009 9.95187 5.95009 9.95188 5.95009 10.0119C5.95009 10.0719 5.95009 10.0719 6.01009 10.0719V10.1919H5.83009C5.65009 10.1919 5.46009 10.2519 5.22009 10.3119C5.09009 10.3619 5.03009 10.4219 4.90009 10.4219C4.84009 10.3619 4.84009 10.3019 4.84009 10.1819C4.84009 10.1219 4.84009 10.0619 4.90009 10.0019C5.02009 9.77187 5.39009 9.65187 5.82009 9.65187H6.07009C6.07009 9.71187 6.07009 9.71188 6.01009 9.77188ZM7.48009 9.65187V9.88188C7.17009 9.88188 6.93009 9.94187 6.74009 10.0019C6.62009 10.0719 6.50009 10.0719 6.31009 10.1219C6.24565 10.0607 6.20343 9.97974 6.19009 9.89188V9.83187C6.19009 9.60187 6.50009 9.36187 6.93009 9.36187C7.11009 9.36187 7.30009 9.42187 7.42009 9.48187V9.42188C7.48009 9.48187 7.48009 9.54187 7.48009 9.65187ZM10.6001 10.0119C10.6001 9.95188 10.5401 9.89187 10.4801 9.83187C10.5401 9.89187 10.5401 9.95188 10.6001 10.0119ZM10.4201 10.4219C10.3264 10.3467 10.2219 10.286 10.1101 10.2419C9.87009 10.1219 9.62009 10.1219 9.50009 10.1219H9.38009C9.38009 10.1219 9.38009 10.0619 9.32009 10.0619V10.0119C9.38009 10.0119 9.38009 10.0119 9.38009 9.95187C9.38009 9.95187 9.38009 9.89188 9.32009 9.89188V9.83187C9.38009 9.83187 9.38009 9.83188 9.38009 9.77188C9.38009 9.71188 9.38009 9.71187 9.32009 9.71187C9.32009 9.71187 9.32009 9.65187 9.26009 9.65187H9.51009C9.94009 9.65187 10.3101 9.83187 10.4301 10.0019C10.4301 10.0619 10.4901 10.1219 10.4901 10.1819C10.5401 10.3019 10.4801 10.3619 10.4201 10.4219Z" fill="#A5001C"/>
<path d="M10.7309 10.8309C10.764 10.8309 10.7909 10.8041 10.7909 10.7709C10.7909 10.7378 10.764 10.7109 10.7309 10.7109C10.6978 10.7109 10.6709 10.7378 10.6709 10.7709C10.6709 10.8041 10.6978 10.8309 10.7309 10.8309Z" fill="#A5001C"/>
<path d="M10.7905 10.6512C10.8236 10.6512 10.8505 10.6244 10.8505 10.5913C10.8505 10.5581 10.8236 10.5312 10.7905 10.5312C10.7573 10.5312 10.7305 10.5581 10.7305 10.5913C10.7305 10.6244 10.7573 10.6512 10.7905 10.6512Z" fill="#A5001C"/>
<path d="M10.85 10.5419C10.8832 10.5419 10.91 10.515 10.91 10.4819C10.91 10.4487 10.8832 10.4219 10.85 10.4219C10.8169 10.4219 10.79 10.4487 10.79 10.4819C10.79 10.515 10.8169 10.5419 10.85 10.5419Z" fill="#A5001C"/>
<path d="M10.85 10.3036C10.8832 10.3036 10.91 10.2767 10.91 10.2436C10.91 10.2105 10.8832 10.1836 10.85 10.1836C10.8169 10.1836 10.79 10.2105 10.79 10.2436C10.79 10.2767 10.8169 10.3036 10.85 10.3036Z" fill="#A5001C"/>
<path d="M10.7905 10.1317C10.8236 10.1317 10.8505 10.1049 10.8505 10.0717C10.8505 10.0386 10.8236 10.0117 10.7905 10.0117C10.7573 10.0117 10.7305 10.0386 10.7305 10.0717C10.7305 10.1049 10.7573 10.1317 10.7905 10.1317Z" fill="#A5001C"/>
<path d="M10.7307 9.95203C10.7907 9.95203 10.7907 9.95203 10.7907 9.89203C10.7907 9.83203 10.7907 9.83203 10.7307 9.83203C10.6707 9.83203 10.6707 9.83203 10.6707 9.89203C10.6607 9.95203 10.6607 9.95203 10.7307 9.95203Z" fill="#A5001C"/>
<path d="M10.5405 9.83094C10.5736 9.83094 10.6005 9.80408 10.6005 9.77094C10.6005 9.7378 10.5736 9.71094 10.5405 9.71094C10.5073 9.71094 10.4805 9.7378 10.4805 9.77094C10.4805 9.80408 10.5073 9.83094 10.5405 9.83094Z" fill="#A5001C"/>
<path d="M10.4204 9.71375C10.4535 9.71375 10.4804 9.68689 10.4804 9.65375C10.4804 9.62061 10.4535 9.59375 10.4204 9.59375C10.3872 9.59375 10.3604 9.62061 10.3604 9.65375C10.3604 9.68689 10.3872 9.71375 10.4204 9.71375Z" fill="#A5001C"/>
<path d="M10.2407 9.66297C10.2738 9.66297 10.3007 9.63611 10.3007 9.60297C10.3007 9.56983 10.2738 9.54297 10.2407 9.54297C10.2075 9.54297 10.1807 9.56983 10.1807 9.60297C10.1807 9.63611 10.2075 9.66297 10.2407 9.66297Z" fill="#A5001C"/>
<path d="M10.0502 9.54187C10.0834 9.54187 10.1102 9.51501 10.1102 9.48187C10.1102 9.44874 10.0834 9.42188 10.0502 9.42188C10.0171 9.42188 9.99023 9.44874 9.99023 9.48187C9.99023 9.51501 10.0171 9.54187 10.0502 9.54187Z" fill="#A5001C"/>
<path d="M9.81 9.54187C9.84314 9.54187 9.87 9.51501 9.87 9.48187C9.87 9.44874 9.84314 9.42188 9.81 9.42188C9.77686 9.42188 9.75 9.44874 9.75 9.48187C9.75 9.51501 9.77686 9.54187 9.81 9.54187Z" fill="#A5001C"/>
<path d="M9.62055 9.54187C9.68055 9.54187 9.68055 9.54187 9.68055 9.48187C9.68055 9.42187 9.62055 9.42188 9.62055 9.42188C9.56055 9.42188 9.56055 9.42187 9.56055 9.48187C9.56055 9.48187 9.56055 9.54187 9.62055 9.54187Z" fill="#A5001C"/>
<path d="M9.44086 9.54187C9.474 9.54187 9.50086 9.51501 9.50086 9.48187C9.50086 9.44874 9.474 9.42188 9.44086 9.42188C9.40772 9.42188 9.38086 9.44874 9.38086 9.48187C9.38086 9.51501 9.40772 9.54187 9.44086 9.54187Z" fill="#A5001C"/>
<path d="M9.25043 9.54187C9.28357 9.54187 9.31043 9.51501 9.31043 9.48187C9.31043 9.44874 9.28357 9.42188 9.25043 9.42188C9.21729 9.42188 9.19043 9.44874 9.19043 9.48187C9.19043 9.51501 9.21729 9.54187 9.25043 9.54187Z" fill="#A5001C"/>
<path d="M9.07074 9.42078C9.10388 9.42078 9.13074 9.39392 9.13074 9.36078C9.13074 9.32764 9.10388 9.30078 9.07074 9.30078C9.0376 9.30078 9.01074 9.32764 9.01074 9.36078C9.01074 9.39392 9.0376 9.42078 9.07074 9.42078Z" fill="#A5001C"/>
<path d="M8.89008 9.30359C8.92322 9.30359 8.95008 9.27673 8.95008 9.24359C8.95008 9.21046 8.92322 9.18359 8.89008 9.18359C8.85694 9.18359 8.83008 9.21046 8.83008 9.24359C8.83008 9.27673 8.85694 9.30359 8.89008 9.30359Z" fill="#A5001C"/>
<path d="M8.70062 9.25281C8.73376 9.25281 8.76062 9.22595 8.76062 9.19281C8.76062 9.15967 8.73376 9.13281 8.70062 9.13281C8.66749 9.13281 8.64062 9.15967 8.64062 9.19281C8.64062 9.22595 8.66749 9.25281 8.70062 9.25281Z" fill="#A5001C"/>
<path d="M8.52094 9.25281C8.55408 9.25281 8.58094 9.22595 8.58094 9.19281C8.58094 9.15967 8.55408 9.13281 8.52094 9.13281C8.4878 9.13281 8.46094 9.15967 8.46094 9.19281C8.46094 9.22595 8.4878 9.25281 8.52094 9.25281Z" fill="#A5001C"/>
<path d="M8.34027 9.25281C8.37341 9.25281 8.40027 9.22595 8.40027 9.19281C8.40027 9.15967 8.37341 9.13281 8.34027 9.13281C8.30714 9.13281 8.28027 9.15967 8.28027 9.19281C8.28027 9.22595 8.30714 9.25281 8.34027 9.25281Z" fill="#A5001C"/>
<path d="M8.09027 9.25281C8.12341 9.25281 8.15027 9.22595 8.15027 9.19281C8.15027 9.15967 8.12341 9.13281 8.09027 9.13281C8.05714 9.13281 8.03027 9.15967 8.03027 9.19281C8.03027 9.22595 8.05714 9.25281 8.09027 9.25281Z" fill="#A5001C"/>
<path d="M7.91059 9.30359C7.94372 9.30359 7.97059 9.27673 7.97059 9.24359C7.97059 9.21046 7.94372 9.18359 7.91059 9.18359C7.87745 9.18359 7.85059 9.21046 7.85059 9.24359C7.85059 9.27673 7.87745 9.30359 7.91059 9.30359Z" fill="#A5001C"/>
<path d="M4.66059 10.8309C4.69372 10.8309 4.72059 10.8041 4.72059 10.7709C4.72059 10.7378 4.69372 10.7109 4.66059 10.7109C4.62745 10.7109 4.60059 10.7378 4.60059 10.7709C4.60059 10.8041 4.62745 10.8309 4.66059 10.8309Z" fill="#A5001C"/>
<path d="M4.60004 10.6512C4.63318 10.6512 4.66004 10.6244 4.66004 10.5913C4.66004 10.5581 4.63318 10.5312 4.60004 10.5312C4.5669 10.5312 4.54004 10.5581 4.54004 10.5913C4.54004 10.6244 4.5669 10.6512 4.60004 10.6512Z" fill="#A5001C"/>
<path d="M4.54047 10.5419C4.57361 10.5419 4.60047 10.515 4.60047 10.4819C4.60047 10.4487 4.57361 10.4219 4.54047 10.4219C4.50733 10.4219 4.48047 10.4487 4.48047 10.4819C4.48047 10.515 4.50733 10.5419 4.54047 10.5419Z" fill="#A5001C"/>
<path d="M4.54047 10.3036C4.57361 10.3036 4.60047 10.2767 4.60047 10.2436C4.60047 10.2105 4.57361 10.1836 4.54047 10.1836C4.50733 10.1836 4.48047 10.2105 4.48047 10.2436C4.48047 10.2767 4.50733 10.3036 4.54047 10.3036Z" fill="#A5001C"/>
<path d="M4.60004 10.1317C4.63318 10.1317 4.66004 10.1049 4.66004 10.0717C4.66004 10.0386 4.63318 10.0117 4.60004 10.0117C4.5669 10.0117 4.54004 10.0386 4.54004 10.0717C4.54004 10.1049 4.5669 10.1317 4.60004 10.1317Z" fill="#A5001C"/>
<path d="M4.66059 9.95203C4.69372 9.95203 4.72059 9.92517 4.72059 9.89203C4.72059 9.85889 4.69372 9.83203 4.66059 9.83203C4.62745 9.83203 4.60059 9.85889 4.60059 9.89203C4.60059 9.92517 4.62745 9.95203 4.66059 9.95203Z" fill="#A5001C"/>
<path d="M4.7807 9.83094C4.81384 9.83094 4.8407 9.80408 4.8407 9.77094C4.8407 9.7378 4.81384 9.71094 4.7807 9.71094C4.74757 9.71094 4.7207 9.7378 4.7207 9.77094C4.7207 9.80408 4.74757 9.83094 4.7807 9.83094Z" fill="#A5001C"/>
<path d="M4.96039 9.71375C4.99353 9.71375 5.02039 9.68689 5.02039 9.65375C5.02039 9.62061 4.99353 9.59375 4.96039 9.59375C4.92725 9.59375 4.90039 9.62061 4.90039 9.65375C4.90039 9.68689 4.92725 9.71375 4.96039 9.71375Z" fill="#A5001C"/>
<path d="M5.15082 9.66297C5.18396 9.66297 5.21082 9.63611 5.21082 9.60297C5.21082 9.56983 5.18396 9.54297 5.15082 9.54297C5.11768 9.54297 5.09082 9.56983 5.09082 9.60297C5.09082 9.63611 5.11768 9.66297 5.15082 9.66297Z" fill="#A5001C"/>
<path d="M5.33051 9.54187C5.36364 9.54187 5.39051 9.51501 5.39051 9.48187C5.39051 9.44874 5.36364 9.42188 5.33051 9.42188C5.29737 9.42188 5.27051 9.44874 5.27051 9.48187C5.27051 9.51501 5.29737 9.54187 5.33051 9.54187Z" fill="#A5001C"/>
<path d="M5.58051 9.54187C5.61364 9.54187 5.64051 9.51501 5.64051 9.48187C5.64051 9.44874 5.61364 9.42188 5.58051 9.42188C5.54737 9.42188 5.52051 9.44874 5.52051 9.48187C5.52051 9.51501 5.54737 9.54187 5.58051 9.54187Z" fill="#A5001C"/>
<path d="M5.7602 9.54187C5.79333 9.54187 5.8202 9.51501 5.8202 9.48187C5.8202 9.44874 5.79333 9.42188 5.7602 9.42188C5.72706 9.42188 5.7002 9.44874 5.7002 9.48187C5.7002 9.51501 5.72706 9.54187 5.7602 9.54187Z" fill="#A5001C"/>
<path d="M5.95062 9.54187C5.98376 9.54187 6.01063 9.51501 6.01063 9.48187C6.01063 9.44874 5.98376 9.42188 5.95062 9.42188C5.91749 9.42188 5.89062 9.44874 5.89062 9.48187C5.89062 9.51501 5.91749 9.54187 5.95062 9.54187Z" fill="#A5001C"/>
<path d="M6.13031 9.54187C6.16345 9.54187 6.19031 9.51501 6.19031 9.48187C6.19031 9.44874 6.16345 9.42188 6.13031 9.42188C6.09718 9.42188 6.07031 9.44874 6.07031 9.48187C6.07031 9.51501 6.09718 9.54187 6.13031 9.54187Z" fill="#A5001C"/>
<path d="M6.31 9.42078C6.34314 9.42078 6.37 9.39392 6.37 9.36078C6.37 9.32764 6.34314 9.30078 6.31 9.30078C6.27686 9.30078 6.25 9.32764 6.25 9.36078C6.25 9.39392 6.27686 9.42078 6.31 9.42078Z" fill="#A5001C"/>
<path d="M6.50043 9.30359C6.53357 9.30359 6.56043 9.27673 6.56043 9.24359C6.56043 9.21046 6.53357 9.18359 6.50043 9.18359C6.46729 9.18359 6.44043 9.21046 6.44043 9.24359C6.44043 9.27673 6.46729 9.30359 6.50043 9.30359Z" fill="#A5001C"/>
<path d="M6.68012 9.25281C6.71325 9.25281 6.74012 9.22595 6.74012 9.19281C6.74012 9.15967 6.71325 9.13281 6.68012 9.13281C6.64698 9.13281 6.62012 9.15967 6.62012 9.19281C6.62012 9.22595 6.64698 9.25281 6.68012 9.25281Z" fill="#A5001C"/>
<path d="M6.86078 9.25281C6.89392 9.25281 6.92078 9.22595 6.92078 9.19281C6.92078 9.15967 6.89392 9.13281 6.86078 9.13281C6.82764 9.13281 6.80078 9.15967 6.80078 9.19281C6.80078 9.22595 6.82764 9.25281 6.86078 9.25281Z" fill="#A5001C"/>
<path d="M7.05023 9.25281C7.08337 9.25281 7.11023 9.22595 7.11023 9.19281C7.11023 9.15967 7.08337 9.13281 7.05023 9.13281C7.0171 9.13281 6.99023 9.15967 6.99023 9.19281C6.99023 9.22595 7.0171 9.25281 7.05023 9.25281Z" fill="#A5001C"/>
<path d="M7.29047 9.25281C7.32361 9.25281 7.35047 9.22595 7.35047 9.19281C7.35047 9.15967 7.32361 9.13281 7.29047 9.13281C7.25733 9.13281 7.23047 9.15967 7.23047 9.19281C7.23047 9.22595 7.25733 9.25281 7.29047 9.25281Z" fill="#A5001C"/>
<path d="M4.89969 12.94C4.89969 12.88 4.89969 12.88 4.89969 12.94C4.83969 12.88 4.64969 12.88 4.46969 12.88C4.21969 12.88 4.03969 12.88 4.03969 12.94V13C4.03969 13 4.03969 13.06 4.09969 13.06C4.09969 13.06 4.27969 13.12 4.52969 13.12C4.77969 13.12 4.83969 13 4.89969 12.94ZM5.14969 12.53C5.20969 12.47 5.20969 12.47 5.20969 12.41C5.20738 12.3789 5.19399 12.3497 5.17197 12.3277C5.14995 12.3057 5.12075 12.2923 5.08969 12.29C5.02969 12.23 4.96969 12.23 4.90969 12.23H4.83969C4.83969 12.23 4.83969 12.17 4.77969 12.17C4.71969 12.11 4.71969 12.11 4.59969 12.11C4.53969 12.11 4.47969 12.11 4.47969 12.17C4.53969 12.17 4.53969 12.11 4.59969 12.11C4.71969 12.11 4.77969 12.17 4.77969 12.23V12.29H4.65969C4.59969 12.29 4.53969 12.29 4.47969 12.23V12.11C4.47969 12.11 4.47969 12.05 4.41969 12.05C4.41969 12.05 4.47969 12.05 4.47969 11.99C4.47969 11.99 4.47969 11.93 4.41969 11.93V11.87H4.47969V11.75V11.81H4.40969V11.87H4.46969V11.93C4.46969 11.93 4.40969 11.93 4.40969 11.99C4.40969 11.99 4.40969 12.05 4.46969 12.05H4.40969C4.34969 12.05 4.34969 11.99 4.28969 11.99C4.22969 11.99 4.16969 11.99 4.10969 12.05C4.10969 12.05 4.04969 12.05 4.04969 12.11H3.97969C3.91969 12.11 3.85969 12.11 3.79969 12.17C3.73969 12.23 3.67969 12.23 3.67969 12.29C3.67969 12.35 3.67969 12.35 3.73969 12.41C3.73969 12.41 3.67969 12.41 3.67969 12.47H3.73969L3.79969 12.53V12.59C3.79969 12.59 3.79969 12.65 3.85969 12.65H3.91969V12.71C4.03969 12.65 4.16969 12.65 4.34969 12.65C4.52969 12.65 4.71969 12.65 4.77969 12.71V12.65H4.83969L4.89969 12.59V12.53C5.08969 12.65 5.14969 12.59 5.14969 12.53C5.20969 12.59 5.14969 12.59 5.14969 12.53ZM4.04969 12.3V12.36H3.98969C3.92969 12.36 3.86969 12.36 3.86969 12.42C3.86969 12.42 3.80969 12.42 3.80969 12.48V12.36C3.80969 12.3 3.92969 12.24 4.05969 12.24L4.04969 12.3ZM4.40969 12.3C4.34969 12.36 4.28969 12.36 4.22969 12.36H4.10969V12.3C4.10969 12.24 4.16969 12.18 4.28969 12.18L4.40969 12.3ZM5.14969 12.47C5.14969 12.47 5.08969 12.47 5.08969 12.41H4.84969H4.89969C5.01969 12.41 5.07969 12.47 5.14969 12.53V12.47Z" fill="#D32030"/>
<path d="M11.3403 12.94C11.3403 12.88 11.3403 12.88 11.3403 12.94C11.2803 12.88 11.0903 12.88 10.9103 12.88C10.6603 12.88 10.4803 12.88 10.4803 12.94V13C10.4803 13 10.4803 13.06 10.5403 13.06C10.5403 13.06 10.7203 13.12 10.9703 13.12C11.1503 13 11.3403 13 11.3403 12.94ZM11.5803 12.53C11.6403 12.53 11.6403 12.47 11.6403 12.41C11.638 12.3789 11.6246 12.3497 11.6025 12.3277C11.5805 12.3057 11.5513 12.2923 11.5203 12.29C11.4603 12.23 11.4003 12.23 11.3403 12.23H11.2803C11.2803 12.23 11.2803 12.17 11.2203 12.17C11.1603 12.11 11.1603 12.11 11.0403 12.11C10.9803 12.11 10.9203 12.11 10.9203 12.17C10.9803 12.17 10.9803 12.11 11.0403 12.11C11.1603 12.11 11.2203 12.17 11.2203 12.23V12.29H11.1003C11.0403 12.29 10.9803 12.29 10.9203 12.23V12.11C10.9203 12.11 10.9203 12.05 10.8603 12.05C10.8603 12.05 10.9203 12.05 10.9203 11.99C10.9203 11.99 10.9203 11.93 10.8603 11.93V11.87H10.9203V11.81H10.8603V11.75H10.8003V11.81H10.7403V11.87H10.8003V11.93C10.8003 11.93 10.7403 11.93 10.7403 11.99C10.7403 11.99 10.7403 12.05 10.8003 12.05H10.7403C10.6803 12.05 10.6803 11.99 10.6203 11.99C10.5603 11.99 10.5003 11.99 10.4403 12.05C10.4403 12.05 10.3803 12.05 10.3803 12.11H10.3003C10.2403 12.11 10.1803 12.11 10.1203 12.17C10.0603 12.23 10.0003 12.23 10.0003 12.29C10.0003 12.35 10.0003 12.35 10.0603 12.41C10.0603 12.41 10.0003 12.41 10.0003 12.47H10.0603L10.1203 12.53V12.59C10.1203 12.59 10.1203 12.65 10.1803 12.65H10.2403V12.71C10.3603 12.65 10.4903 12.65 10.6703 12.65C10.8503 12.65 11.0403 12.65 11.1003 12.71V12.65H11.1603L11.2203 12.59V12.53C11.5803 12.65 11.5803 12.59 11.5803 12.53C11.6503 12.59 11.5803 12.59 11.5803 12.53C11.6503 12.59 11.6503 12.53 11.5803 12.53ZM10.5403 12.3C10.4803 12.3 10.4803 12.3 10.5403 12.3C10.4803 12.3 10.4803 12.35 10.5403 12.3V12.36H10.4803C10.4203 12.36 10.3603 12.36 10.3603 12.42C10.3603 12.42 10.3003 12.42 10.3003 12.48V12.36C10.3003 12.3 10.4203 12.24 10.5503 12.24C10.4803 12.3 10.4803 12.3 10.5403 12.3ZM10.8503 12.3C10.7903 12.36 10.7303 12.36 10.6703 12.36H10.5503V12.3C10.5503 12.24 10.6103 12.18 10.7303 12.18C10.7903 12.24 10.8503 12.24 10.8503 12.3ZM11.5803 12.47C11.5803 12.47 11.5203 12.47 11.5203 12.41C11.4603 12.41 11.4003 12.35 11.4003 12.35C11.5203 12.35 11.5803 12.41 11.6503 12.47C11.5803 12.35 11.5803 12.41 11.5803 12.47Z" fill="#A5001C"/>
<path d="M7.66004 11.7711V8.37109H7.60004V8.49109H7.48004V8.60109H7.60004V8.78109C7.48004 8.78109 7.42004 8.90109 7.42004 9.01109V9.13109C7.48004 9.19109 7.54004 9.24109 7.60004 9.24109C7.54004 9.24109 7.48004 9.30109 7.48004 9.30109V9.24109C7.48004 9.18109 7.48004 9.18109 7.42004 9.18109C7.36004 9.18109 7.36004 9.18109 7.36004 9.24109C7.36004 9.30109 7.36004 9.30109 7.42004 9.30109H7.48004L7.42004 9.36109C7.29004 9.30109 7.11004 9.24109 6.86004 9.24109C6.61004 9.24109 6.37004 9.30109 6.25004 9.48109C6.19004 9.54109 6.07004 9.60109 6.07004 9.65109V9.59109H6.01004C6.01004 9.59109 6.01004 9.53109 5.95004 9.53109H5.63004C5.32004 9.53109 5.02004 9.65109 4.83004 9.76109L4.90004 9.71109C4.79137 9.76655 4.70019 9.85105 4.63664 9.9552C4.57309 10.0594 4.53965 10.1791 4.54004 10.3011C4.54004 10.4211 4.60004 10.5911 4.66004 10.6511L4.72004 10.7111C4.66004 10.7111 4.60004 10.7711 4.60004 10.8911C4.60004 10.8911 4.72004 10.8911 4.78004 10.9511C4.84004 11.0111 4.90004 11.1311 4.90004 11.1311V11.2511C4.96004 11.3111 4.96004 11.3111 5.02004 11.2511C5.08004 11.3111 5.14004 11.4311 5.27004 11.4811C5.33004 11.5411 5.45004 11.5411 5.52004 11.5411C5.46004 11.5411 5.46004 11.6011 5.46004 11.6011C5.46004 11.6611 5.52004 11.6611 5.52004 11.6611C5.52004 11.6611 5.58004 11.6611 5.64004 11.7211L5.70004 11.8411L5.82004 11.9011V12.0211C6.41447 11.8327 7.0369 11.7482 7.66004 11.7711ZM6.19004 9.83109C6.19004 9.60109 6.50004 9.36109 6.93004 9.36109C7.11004 9.36109 7.30004 9.42109 7.42004 9.48109V9.42109V9.90109C7.11004 9.90109 6.87004 9.96109 6.68004 10.0211C6.56004 10.0711 6.44004 10.0711 6.25004 10.1211C6.25004 10.0711 6.19004 9.95109 6.19004 9.83109ZM5.82004 10.1211C5.64004 10.1211 5.45004 10.1811 5.21004 10.2411C5.09004 10.3011 5.03004 10.3611 4.90004 10.3611C4.84004 10.3011 4.84004 10.2411 4.84004 10.1211C4.84004 10.0611 4.84004 10.0011 4.90004 9.94109C5.03004 9.71109 5.39004 9.60109 5.82004 9.60109H6.07004C6.07004 9.60109 6.07004 9.66109 6.01004 9.66109C5.95004 9.66109 5.95004 9.66109 5.95004 9.72109C5.95004 9.78109 5.95004 9.78109 6.01004 9.78109V9.84109C6.01004 9.84109 5.95004 9.84109 5.95004 9.90109C5.95004 9.96109 5.95004 9.96109 6.01004 9.96109V10.0811C5.95004 10.1211 5.88004 10.1211 5.82004 10.1211ZM7.66004 11.9411C6.68004 11.9411 5.94004 12.0011 5.94004 12.1211C5.88004 12.1211 5.82004 12.2411 5.82004 12.3011C5.82004 12.3611 5.88004 12.4811 6.00004 12.4811C6.00004 12.6011 6.74004 12.6611 7.65004 12.6611V11.9411H7.66004ZM7.66004 12.7711H5.33004V15.2311C5.33654 15.5305 5.40196 15.8258 5.52259 16.0999C5.64321 16.374 5.81666 16.6217 6.03304 16.8288C6.24941 17.0359 6.50447 17.1983 6.78364 17.3068C7.0628 17.4153 7.36061 17.4677 7.66004 17.4611V12.7711Z" fill="#D32030"/>
</g>
</g>
<defs>
<clipPath id="clip0_26003_69753">
<rect width="38" height="25" fill="white" transform="translate(0 0.5)"/>
</clipPath>
<clipPath id="clip1_26003_69753">
<rect width="38" height="25" fill="white" transform="translate(0 0.5)"/>
</clipPath>
</defs>
</svg>
