<svg width="38" height="26" viewBox="0 0 38 26" fill="none" xmlns="http://www.w3.org/2000/svg">
<g clip-path="url(#clip0_26003_93504)">
<g clip-path="url(#clip1_26003_93504)">
<path fill-rule="evenodd" clip-rule="evenodd" d="M38 22.6V3.4C37.8 1.8 36.5 0.5 35 0.5H3C1.5 0.5 0.2 1.8 0 3.4V22.5C0.2 24.2 1.5 25.5 3 25.5H35C36.5 25.5 37.8 24.2 38 22.6Z" fill="#FEFEFE"/>
<path fill-rule="evenodd" clip-rule="evenodd" d="M9.7998 0.5L15.2998 3L9.7998 5.5L15.2998 8L9.7998 10.5L15.2998 13L9.7998 15.5L15.2998 18L9.7998 20.5L15.2998 23L9.7998 25.5H34.9998C36.4998 25.5 37.7998 24.2 37.9998 22.6V3.4C37.7998 1.8 36.4998 0.5 34.9998 0.5H9.7998Z" fill="#C12837"/>
</g>
</g>
<defs>
<clipPath id="clip0_26003_93504">
<rect width="38" height="25" fill="white" transform="translate(0 0.5)"/>
</clipPath>
<clipPath id="clip1_26003_93504">
<rect width="38" height="25" fill="white" transform="translate(0 0.5)"/>
</clipPath>
</defs>
</svg>
