<svg width="39" height="26" viewBox="0 0 39 26" fill="none" xmlns="http://www.w3.org/2000/svg">
<g clip-path="url(#clip0_26003_54161)">
<g clip-path="url(#clip1_26003_54161)">
<path fill-rule="evenodd" clip-rule="evenodd" d="M3.24512 25.2109H36.3451C37.6451 24.9109 38.6451 23.8109 38.8451 22.3109V3.11094C38.6451 1.61094 37.6451 0.410938 36.3451 0.210938H3.24512C1.94512 0.510938 0.945117 1.61094 0.745117 3.11094V22.3109C0.945117 23.8109 1.94512 24.9109 3.24512 25.2109Z" fill="#FEFEFE"/>
<path fill-rule="evenodd" clip-rule="evenodd" d="M0.745117 10.0117H38.7451V15.4117H0.745117V10.0117Z" fill="#426DB3"/>
<path fill-rule="evenodd" clip-rule="evenodd" d="M0.745117 10.0109H38.7451V3.11094C38.5451 1.61094 37.5451 0.410938 36.2451 0.210938H3.24512C1.94512 0.510938 0.945117 1.61094 0.745117 3.11094V10.0109Z" fill="#242222"/>
<path fill-rule="evenodd" clip-rule="evenodd" d="M37.9451 1.21094L19.7451 25.2109L1.54512 1.21094C1.14512 1.71094 0.845117 2.41094 0.745117 3.11094V22.3109C0.945117 23.8109 1.94512 25.0109 3.24512 25.2109H36.3451C37.6451 24.9109 38.6451 23.8109 38.8451 22.3109V3.11094C38.6451 2.41094 38.3451 1.71094 37.9451 1.21094Z" fill="#C12837"/>
<path fill-rule="evenodd" clip-rule="evenodd" d="M23.3449 9.21055L26.4449 6.91055L22.8449 7.71055L24.8449 4.21055L21.7449 6.51055L22.5449 2.41055L20.4449 5.91055L19.7449 1.81055L19.0449 5.91055L16.9449 2.41055L17.6449 6.51055L14.6449 4.21055L16.6449 7.71055L13.0449 6.91055L16.1449 9.21055L12.5449 10.0105H26.9449L23.3449 9.21055Z" fill="#F5D71C"/>
</g>
</g>
<defs>
<clipPath id="clip0_26003_54161">
<rect width="38" height="25" fill="white" transform="translate(0.745117 0.210938)"/>
</clipPath>
<clipPath id="clip1_26003_54161">
<rect width="38" height="25" fill="white" transform="translate(0.745117 0.210938)"/>
</clipPath>
</defs>
</svg>
