<svg width="38" height="26" viewBox="0 0 38 26" fill="none" xmlns="http://www.w3.org/2000/svg">
<g clip-path="url(#clip0_26003_92575)">
<g clip-path="url(#clip1_26003_92575)">
<path d="M0 -1.25H38V27.25H0V-1.25Z" fill="white"/>
<path d="M0 18.6992H38V27.2492H0V18.6992Z" fill="#009543"/>
<path d="M0 -1.25H38V7.3H0V-1.25Z" fill="#00209F"/>
<path d="M18.9764 7.83421C18.8161 7.83421 18.6557 8.01233 18.6557 8.01233L18.6736 9.93608L18.062 10.5714H18.5548V11.6698L15.6454 15.5886L15.2179 15.4342L14.4639 17.0373C14.4639 17.0373 16.3223 18.2011 19.0179 18.1655C21.9748 18.1358 23.5839 16.9839 23.5839 16.9839L22.812 15.4045L22.4261 15.5708L19.4811 11.6758V10.5417H19.9679L19.3029 9.91233V8.00046C19.3029 8.00046 19.1426 7.82233 18.9764 7.82827V7.83421Z" fill="black" stroke="black" stroke-width="0.095"/>
<path d="M19.9918 12.4308H17.979C17.979 12.4308 17.2546 10.8929 17.3674 9.81826C17.4861 8.72576 18.1155 8.20919 18.9468 8.19732C19.9324 8.19138 20.443 8.67826 20.5974 9.77669C20.7518 10.8633 19.9918 12.4308 19.9918 12.4308Z" stroke="black" stroke-width="0.475"/>
<path d="M15.4675 16.0939C15.4319 16.1355 15.1885 16.6223 15.1885 16.6223L15.6041 16.5333L15.4675 16.0939ZM15.705 16.7173L15.2657 16.8598L15.7941 17.0677L15.705 16.7173ZM15.901 16.1058L16.1207 16.753L16.655 16.5986L16.5185 16.2898L15.901 16.1058ZM16.2454 16.9845L16.3166 17.2458L17.0291 17.4239L16.7441 16.8183L16.2454 16.9845ZM17.0291 16.4323L17.2844 17.038L17.8188 16.8302L17.6407 16.563L17.0291 16.4323ZM17.3854 17.2577L17.4685 17.4833L18.2997 17.602L17.9494 17.0558L17.3794 17.2577H17.3854ZM18.181 16.6045L18.4897 17.1448L19.2616 16.8598L19.1785 16.652L18.181 16.6105V16.6045ZM18.6322 17.3408L18.7925 17.6258L19.7544 17.5961L19.3982 17.0617L18.6263 17.3408H18.6322ZM19.6475 16.6283L19.9088 17.0795L20.5263 16.7827L20.36 16.5452L19.6475 16.6283ZM20.6569 16.9727L20.0454 17.2755L20.2057 17.5427L21.025 17.412L20.6569 16.9727ZM20.8529 16.4977L21.1675 16.8955L21.6841 16.4858L21.506 16.3077L20.8529 16.4977ZM21.7969 16.7055L21.3041 17.0795L21.4347 17.3111L22.1116 17.133L21.7969 16.7055ZM22.4738 15.9336L22.5925 16.1058L22.2541 16.6105L21.9038 16.1592L22.4738 15.9336ZM22.7054 16.367L22.9132 16.7827L22.4975 16.9252L22.4619 16.7292L22.6994 16.373L22.7054 16.367Z" fill="white"/>
</g>
</g>
<defs>
<clipPath id="clip0_26003_92575">
<rect width="38" height="25" fill="white" transform="translate(0 0.5)"/>
</clipPath>
<clipPath id="clip1_26003_92575">
<rect width="38" height="28.5" fill="white" transform="translate(0 -1.25)"/>
</clipPath>
</defs>
</svg>
