<svg width="38" height="26" viewBox="0 0 38 26" fill="none" xmlns="http://www.w3.org/2000/svg">
<g clip-path="url(#clip0_26003_82609)">
<g clip-path="url(#clip1_26003_82609)">
<path fill-rule="evenodd" clip-rule="evenodd" d="M3.5 25.5H34.5L19 15.3L3.5 25.5ZM34.5 0.5H3.5L19 10.7L34.5 0.5Z" fill="#478E3F"/>
<path fill-rule="evenodd" clip-rule="evenodd" d="M0.1 23.1004L15.5 13.0004L0.1 2.90039C0.1 3.10039 0 3.20039 0 3.40039V22.6004C0 22.8004 0.1 22.9004 0.1 23.1004ZM38 22.6004V3.40039C38 3.20039 37.9 3.10039 37.9 2.90039L22.5 13.0004L37.9 23.1004C37.9 22.9004 38 22.8004 38 22.6004Z" fill="#242222"/>
<path fill-rule="evenodd" clip-rule="evenodd" d="M2.49961 25.5H3.59961L18.9996 15.3L34.4996 25.5H35.5996C36.0996 25.4 36.5996 25.1 36.9996 24.8L18.9996 13L1.09961 24.8C1.49961 25.1 1.99961 25.4 2.49961 25.5ZM34.4996 0.5L18.9996 10.7L3.49961 0.5H2.49961C1.99961 0.6 1.49961 0.9 1.09961 1.2L18.9996 13L36.8996 1.2C36.4996 0.9 35.9996 0.6 35.4996 0.5H34.4996Z" fill="#F4E00C"/>
<path fill-rule="evenodd" clip-rule="evenodd" d="M36.8996 1.19922L18.9996 12.9992L36.8996 24.7992C37.3996 24.3992 37.6996 23.7992 37.8996 23.0992L22.4996 12.9992L37.8996 2.89922C37.6996 2.19922 37.3996 1.59922 36.8996 1.19922ZM0.0996094 2.89922L15.4996 12.9992L0.0996094 23.0992C0.299609 23.7992 0.599609 24.2992 1.09961 24.7992L18.9996 12.9992L1.09961 1.19922C0.599609 1.59922 0.299609 2.19922 0.0996094 2.89922Z" fill="#F4E00C"/>
</g>
</g>
<defs>
<clipPath id="clip0_26003_82609">
<rect width="38" height="25" fill="white" transform="translate(0 0.5)"/>
</clipPath>
<clipPath id="clip1_26003_82609">
<rect width="38" height="25" fill="white" transform="translate(0 0.5)"/>
</clipPath>
</defs>
</svg>
