<svg width="38" height="26" viewBox="0 0 38 26" fill="none" xmlns="http://www.w3.org/2000/svg">
<g clip-path="url(#clip0_26003_90432)">
<g clip-path="url(#clip1_26003_90432)">
<path fill-rule="evenodd" clip-rule="evenodd" d="M2.49 25.5H35.52C36.82 25.25 37.84 24.07 38.01 22.59V3.41C37.83 1.94 36.81 0.75 35.52 0.5H2.48C1.19 0.75 0.17 1.94 0 3.41V22.58C0.17 24.07 1.19 25.25 2.49 25.5Z" fill="#F7D40E"/>
<path fill-rule="evenodd" clip-rule="evenodd" d="M8.03027 3.11914H14.4803V22.8691H8.03027V3.11914Z" fill="#EB7220"/>
<path fill-rule="evenodd" clip-rule="evenodd" d="M1.67969 3.11914H8.03969V22.8791H1.67969V3.11914Z" fill="#2C793D"/>
<path fill-rule="evenodd" clip-rule="evenodd" d="M16.1699 3.11914H36.3199V22.8791H16.1699V3.11914Z" fill="#982645"/>
<path fill-rule="evenodd" clip-rule="evenodd" d="M23.8496 12.2898L24.1796 12.2998C24.1796 12.2998 23.8096 12.6598 23.8896 13.1398C24.2796 12.4898 24.4296 12.6098 24.4296 12.6098C24.3096 12.7598 24.0796 12.9598 24.2596 13.3998C24.4096 12.9498 24.7296 12.5998 24.7296 12.5998C24.7296 12.5998 24.6396 13.0998 24.8296 13.5598C24.9696 13.0998 25.1996 12.7098 25.1996 12.7098C25.1996 12.7098 25.1696 13.1998 25.3596 13.3898C25.5196 13.2398 25.6196 12.8398 25.6196 12.8398C25.6196 12.8398 25.9096 13.4198 26.0896 13.4998C26.2296 13.1098 26.2296 12.7998 26.2296 12.7998C26.2296 12.7998 26.8296 13.2798 27.3096 12.9998C26.8796 12.8198 26.7396 12.4198 26.7396 12.4198C26.7396 12.4198 27.5096 12.7998 27.8496 12.6298C27.5296 12.3498 26.7696 11.9398 26.7696 11.9398C26.7696 11.9398 27.3296 12.1698 27.4896 12.1198C27.4096 11.9898 27.1696 11.8398 27.1696 11.8398L23.8496 12.2898Z" fill="#F7D40E"/>
<path fill-rule="evenodd" clip-rule="evenodd" d="M24.8501 13.5691C24.6501 13.1691 24.6901 12.7291 24.7101 12.6191C24.6701 12.7091 24.4101 13.0191 24.2801 13.4091C24.0801 12.9891 24.2601 12.7791 24.3801 12.6391L24.4101 12.6091C24.3801 12.6291 24.2301 12.6291 23.9101 13.1591C23.7901 12.6591 24.1701 12.2891 24.1701 12.2891L23.8501 12.3291C23.8401 12.3291 23.8301 12.3191 23.8301 12.2991L23.8501 12.2791L24.1801 12.2891C24.1901 12.3291 23.8301 12.6791 23.9101 13.1391C24.1301 12.7091 24.2801 12.5991 24.3701 12.5891C24.4201 12.5791 24.4401 12.5891 24.4401 12.5991L24.4101 12.6691C24.2901 12.8191 24.1201 13.0091 24.2801 13.3891C24.4001 12.9391 24.7101 12.5891 24.7101 12.5891C24.7401 12.6091 24.6601 13.1091 24.8501 13.5491C24.9501 13.0991 25.1801 12.6991 25.1801 12.6991C25.2201 12.7091 25.1801 13.1991 25.3701 13.3791C25.4901 13.2291 25.5901 12.8491 25.5901 12.8391C25.6301 12.8391 25.9201 13.3991 26.0901 13.4891C26.2001 13.1191 26.2101 12.8191 26.2101 12.8091C26.2301 12.7991 26.6001 13.0691 26.9701 13.0691C27.0821 13.0729 27.193 13.0452 27.2901 12.9891C26.8601 12.8591 26.7201 12.4591 26.7101 12.4391C26.7401 12.4191 27.2501 12.6591 27.6101 12.6591C27.6901 12.6591 27.7701 12.6491 27.8201 12.6191C27.4704 12.3858 27.11 12.1688 26.7401 11.9691C26.7501 11.9391 27.2001 12.1091 27.4001 12.1091H27.4601C27.3601 12.0162 27.2493 11.9356 27.1301 11.8691C27.1601 11.8391 27.4001 11.9891 27.4801 12.1091C27.3601 12.1691 27.0801 12.0991 26.9001 12.0291C27.1501 12.1491 27.6001 12.4191 27.8301 12.6191C27.5101 12.8191 26.8301 12.5091 26.7201 12.4591C26.7701 12.5091 26.9301 12.8391 27.2901 12.9791C26.8301 13.2991 26.2801 12.8891 26.2101 12.8291C26.2301 12.8691 26.2201 13.1591 26.0901 13.5091C25.8901 13.4391 25.6301 12.9391 25.5901 12.8591C25.6001 12.9191 25.5001 13.2591 25.3601 13.3991C25.1701 13.2391 25.1601 12.8491 25.1601 12.7291C25.1401 12.8491 24.9601 13.1891 24.8501 13.5691Z" fill="#982645"/>
<path fill-rule="evenodd" clip-rule="evenodd" d="M28.5004 7.61088C29.5304 7.51088 31.1104 8.45088 31.9504 9.09088C31.9504 8.88088 31.9504 8.67088 32.1404 8.56088C32.3204 8.46088 32.6104 8.66088 32.5104 8.98088C32.2304 9.71088 31.1104 8.87088 30.7304 8.66088L30.9204 9.08088C30.3604 8.98088 30.2704 8.87088 29.8904 8.34088C29.8004 8.76088 29.8004 8.86088 29.3304 8.86088C29.5104 8.55088 29.5704 8.44088 29.3304 8.13088L29.2404 8.76088L28.7804 8.03088V8.76088C28.6804 8.66088 28.3104 8.34088 28.1204 8.34088C27.8404 8.23088 27.6504 8.86088 27.5604 9.18088C27.8404 8.87088 27.9304 8.66088 28.4004 8.87088C28.1504 9.14088 28.2204 9.46088 28.4904 9.71088C28.4904 9.71088 28.5404 9.27088 28.5704 9.17088C28.7204 9.29088 29.0404 9.76088 29.4304 9.81088C29.7104 9.81088 29.9904 9.71088 30.2704 9.60088C31.2004 9.49088 33.2604 9.70088 32.7904 11.2809C32.7004 11.6009 32.6004 11.8009 32.4104 12.0109C33.7204 12.5409 32.6004 14.4309 32.3204 15.3809C32.1404 16.2209 32.2704 16.8909 33.1904 16.7909C33.0004 17.2109 32.7004 17.2809 32.3204 17.2809C32.3204 17.2809 32.3704 17.5309 32.6104 17.6509C32.2104 18.0509 32.7504 18.6609 32.5104 18.9609C32.1104 19.1809 31.5804 18.8609 31.5804 18.8609L31.5504 19.1509C31.5504 19.1509 30.8504 19.1009 30.8304 19.0709C30.8304 19.0709 31.0304 18.6509 31.0204 18.6409C30.8304 18.9609 30.6504 19.1409 30.2704 19.0709C30.2704 19.0709 30.3004 18.8809 30.5104 18.6209C30.2304 18.9409 30.2004 19.0809 29.9004 19.0709C29.9004 18.5509 30.1804 17.9209 30.7404 18.1209C30.8404 18.1209 31.1304 18.3809 31.2704 18.2109C31.3804 18.0309 31.3104 17.4109 31.3104 17.2109C31.3704 16.2809 31.2104 16.3309 30.7404 15.8009C30.3704 15.4909 30.0904 15.0009 29.6304 14.9009C29.1604 14.7909 28.4104 15.3809 28.0304 15.5909C27.1941 16.1997 26.2407 16.6287 25.2304 16.8509C25.2304 16.8509 25.2504 16.8009 25.2504 16.6909C25.2504 16.6309 26.2604 15.7409 26.4304 14.1809C26.1604 15.7209 25.1704 16.5209 25.1404 16.8109C25.1004 17.0909 24.9004 17.5809 24.8804 17.6109C25.1843 17.4247 25.5259 17.3086 25.8804 17.2709C25.7704 17.9209 25.2304 17.7909 25.1404 18.1109C25.1404 18.4309 25.5104 18.8509 25.1404 19.0609H23.6404C23.6404 19.0609 23.8704 18.7009 23.8804 18.6109C23.6804 18.7409 23.5504 19.1109 23.1104 19.0709C23.1304 18.9309 23.3404 18.7209 23.3004 18.6409C23.0504 18.9009 22.9304 19.1309 22.6104 19.0709C22.7004 18.7609 22.7004 18.3409 23.0804 18.3409C23.3604 18.2409 23.6404 18.4409 23.8304 18.1309C24.2004 17.6109 23.7604 16.4509 23.6704 15.8209C23.6704 15.3009 23.6704 15.2009 23.5504 14.5609L23.6404 16.4509C23.2704 16.1309 22.8904 15.9309 22.6104 15.5009C21.9604 14.5609 22.1404 13.5109 22.9804 12.8709C23.2855 12.5837 23.6372 12.3503 24.0204 12.1809C23.9304 11.8609 24.1504 11.6309 23.8204 11.5309C23.7204 11.7209 23.6304 11.9409 23.4304 11.9209L23.5304 11.3909C23.5304 11.3909 23.1904 11.4209 23.2604 12.0909C22.8704 11.8809 23.0604 11.3909 23.0604 11.3909H22.8704C22.8704 11.3909 22.8704 12.0109 22.5704 12.1409C22.6504 11.8509 22.6904 11.3909 22.6904 11.3909C22.6904 11.3909 22.1904 12.0609 21.9004 11.8409C22.0704 11.6209 22.2004 11.5809 22.1804 11.3209C22.1604 11.0609 22.0404 10.7209 22.0204 10.6709C22.1204 10.7309 22.8304 10.9609 23.2704 10.7109C23.2404 10.8809 23.2504 11.0709 23.2504 11.0709C23.7204 10.9709 23.8104 10.9709 24.2804 11.1709C24.1904 10.4409 23.8104 10.3309 23.4404 9.81088V10.2309C23.0704 10.1309 22.9704 10.0209 22.7904 9.60088L22.5104 9.81088C22.0204 9.48088 21.6504 8.70088 22.3504 8.75088C22.7704 8.81088 22.4104 9.18088 22.4104 9.18088C22.4104 9.18088 23.4804 8.80088 23.9104 8.76088C23.9104 8.76088 23.7904 8.47088 23.3904 8.41088C23.7204 8.14088 24.0504 8.05088 24.2804 8.63088C24.5104 8.65088 24.7304 8.33088 24.5904 7.92088C24.9404 7.92088 25.1104 8.16088 25.2704 8.42088C25.4004 8.44088 25.5304 8.29088 25.5004 7.77088C25.8204 8.08088 25.9904 8.19088 26.0104 8.45088C26.2904 8.52088 26.4804 8.45088 26.9004 8.24088C26.8104 8.66088 26.8104 8.76088 26.4304 8.98088C26.7004 9.34088 26.7204 9.79088 26.6704 9.95088L26.4904 9.89088C26.5104 10.0509 26.5404 10.5009 26.5304 10.7709H26.3404L26.6204 11.7209L26.4304 12.0309C27.0904 11.7209 27.7404 11.8209 28.3904 11.6209C29.1404 11.5109 29.8804 11.1909 30.7204 11.1909C31.2804 11.1909 31.2804 11.5109 32.0304 11.5109V10.9909C32.0298 10.7714 31.9556 10.5585 31.8196 10.3863C31.6836 10.214 31.4937 10.0924 31.2804 10.0409C31.0004 10.0409 30.5304 10.2509 30.2504 10.3509C29.8804 10.4609 29.3104 10.4709 28.9404 10.4709C27.7304 10.2609 27.9204 10.1209 27.5004 9.87088C27.2504 9.95088 27.1004 10.1909 26.9804 10.6209C26.7504 10.2309 26.8004 9.74088 27.0804 9.52088C26.8204 8.35088 27.5704 7.82088 28.5004 7.61088Z" fill="#F7D40E"/>
<path fill-rule="evenodd" clip-rule="evenodd" d="M28.79 17.0806C28.6 16.7606 27.95 16.2406 28.13 15.7106C28.41 15.1906 30 14.3406 30.28 15.5006C30.37 15.8106 30.08 16.6506 29.99 16.9706C30.13 16.9206 30.29 16.6806 30.75 16.7706C30.66 17.1806 30.1 17.5006 30.1 17.5006C30.16 17.7806 29.72 19.0706 29.72 19.0706H28.51L28.7 18.6506L28.42 19.0706H27.95L28.32 18.5506C28.32 18.5506 27.88 19.1306 27.5 19.1106C27.59 18.2706 28.04 18.1306 28.69 18.4506C28.79 18.0206 28.97 17.5006 28.79 17.0806Z" fill="#F7D40E"/>
<path fill-rule="evenodd" clip-rule="evenodd" d="M28.2 18.7006L27.96 19.0906L28.41 19.0506L28.67 18.6406L28.52 19.0806L29.72 19.0406C29.71 19.0406 30.14 17.7706 30.08 17.5006C30.1 17.4706 30.65 17.1606 30.73 16.7606C30.68 16.7806 30.61 16.7706 30.56 16.7706C30.35 16.7706 30.22 16.8606 30.13 16.9206L30 17.0006L30.02 16.8206C30.13 16.4606 30.34 15.7806 30.26 15.5206C30.15 15.0506 29.82 14.9606 29.57 14.9606C29 14.9606 28.31 15.4306 28.15 15.7306C28.02 16.1106 28.33 16.4906 28.59 16.7906L28.81 17.0806C28.97 17.4406 28.86 17.8806 28.77 18.2606L28.72 18.4606C28.5345 18.3876 28.3389 18.3437 28.14 18.3306C27.79 18.3306 27.59 18.5806 27.53 19.1006C27.89 19.0906 28.31 18.5506 28.31 18.5506L28.2 18.7006ZM27.52 19.1306L27.5 19.1206C27.56 18.2906 27.98 18.0706 28.7 18.4206C28.6922 18.3533 28.699 18.2851 28.72 18.2206C28.81 17.8506 28.92 17.4306 28.77 17.0806L28.56 16.8006C28.3 16.4806 27.98 16.1006 28.12 15.6906C28.31 15.3406 29.03 14.8906 29.58 14.8906C29.96 14.8906 30.21 15.0906 30.31 15.4906C30.39 15.7706 30.19 16.4306 30.07 16.8206L30.03 16.9706C30.04 16.9306 30.08 16.9106 30.12 16.8806C30.24 16.8006 30.43 16.6806 30.77 16.7506C30.7 17.1906 30.15 17.5106 30.13 17.5206C30.2 17.7806 29.77 19.0206 29.75 19.0806L28.52 19.0906L28.69 18.6406L28.44 19.0906L27.96 19.1006L28.2 18.7206C28.04 18.8906 27.77 19.1306 27.52 19.1306Z" fill="#982645"/>
<path fill-rule="evenodd" clip-rule="evenodd" d="M23.7796 9.16086C23.6596 9.25086 23.7596 9.82086 23.9496 9.73086C24.1896 9.60086 23.8796 9.09086 23.7796 9.16086Z" fill="#F7D40E"/>
<path fill-rule="evenodd" clip-rule="evenodd" d="M23.8004 9.17077C23.7404 9.20077 23.7304 9.36077 23.7704 9.51077C23.7904 9.61077 23.8404 9.71077 23.9104 9.71077V9.73077L23.9504 9.70077C24.0304 9.66077 24.0304 9.57077 24.0204 9.50077C23.9804 9.34077 23.8604 9.17077 23.8004 9.17077ZM23.9104 9.76077C23.8404 9.76077 23.7704 9.68077 23.7304 9.53077C23.6904 9.39077 23.6904 9.20077 23.7704 9.15077C23.8904 9.14077 24.0204 9.33077 24.0504 9.50077C24.0704 9.62077 24.0404 9.71077 23.9604 9.75077L23.9104 9.76077Z" fill="#982645"/>
<path fill-rule="evenodd" clip-rule="evenodd" d="M23.9004 8.98047C24.1304 9.16047 24.5004 9.65047 24.9504 9.62047C24.6104 9.31047 24.6804 9.07047 24.6804 9.07047C24.8604 9.31047 25.4504 9.53047 25.6504 9.44047C25.4204 9.25047 25.3804 9.23047 25.3304 9.05047C25.6004 9.09047 25.9404 9.15047 26.2104 9.02047L23.9004 8.98047Z" fill="#F7D40E"/>
<path fill-rule="evenodd" clip-rule="evenodd" d="M24.8596 9.61077C24.5396 9.61077 24.2696 9.35077 24.0696 9.15077L23.8896 8.99077V8.96077C23.8996 8.95077 23.9096 8.94077 23.9196 8.96077L24.0996 9.12077C24.3196 9.33077 24.6096 9.62077 24.9596 9.60077C24.5996 9.32077 24.6696 9.08077 24.6696 9.07077C24.8796 9.29077 25.4596 9.51077 25.6496 9.42077L25.5696 9.40077C25.3896 9.26077 25.3496 9.23077 25.3096 9.05077L25.4096 9.04077C25.6696 9.07077 25.9596 9.12077 26.2096 9.00077C25.9696 9.16077 25.6696 9.12077 25.4096 9.09077L25.3296 9.08077C25.3996 9.21077 25.4296 9.23077 25.5996 9.37077L25.6696 9.42077C25.4596 9.56077 24.8796 9.35077 24.6796 9.11077C24.6896 9.16077 24.6996 9.36077 24.9696 9.61077H24.8596Z" fill="#982645"/>
<path fill-rule="evenodd" clip-rule="evenodd" d="M24.3398 12.1791L24.3698 11.7391C24.3698 11.7391 24.6298 12.4091 24.8098 12.4191C24.6898 11.9291 24.7398 11.5391 24.7398 11.5391L24.3398 12.1791Z" fill="#F7D40E"/>
<path fill-rule="evenodd" clip-rule="evenodd" d="M24.8203 12.4191C24.6103 12.4191 24.3703 11.8191 24.3503 11.7491L24.3603 12.1791C24.3603 12.1991 24.3503 12.1991 24.3403 12.1991C24.335 12.1991 24.3299 12.197 24.3262 12.1932C24.3224 12.1895 24.3203 12.1844 24.3203 12.1791L24.3503 11.7391C24.4603 11.9091 24.6703 12.3891 24.8203 12.3991C24.6803 11.9391 24.7303 11.5391 24.7303 11.5391C24.7603 11.5491 24.7203 11.9391 24.8203 12.4191C24.8303 12.4191 24.8303 12.4191 24.8203 12.4191Z" fill="#982645"/>
<path fill-rule="evenodd" clip-rule="evenodd" d="M24.9404 11.6405C24.9404 11.6405 25.4504 12.7005 25.7004 12.5305C25.3204 12.1505 25.3704 11.6705 25.3704 11.6705C25.3704 11.6705 25.5404 12.3205 26.0404 12.5205C26.0704 12.1505 25.8404 11.5605 25.8404 11.5605C25.8404 11.5605 26.2604 12.3905 26.4704 12.4105C26.6004 12.2205 26.5604 12.0105 26.5604 12.0105L24.9404 11.6405Z" fill="#F7D40E"/>
<path fill-rule="evenodd" clip-rule="evenodd" d="M25.6299 12.5703H25.5899C25.3199 12.4903 24.9399 11.7003 24.9199 11.6603L24.9299 11.6303L24.9599 11.6403C24.9599 11.6503 25.3499 12.4503 25.5999 12.5303C25.6299 12.5403 25.6599 12.5403 25.6799 12.5203C25.2999 12.1803 25.3399 11.6803 25.3399 11.6703C25.3799 11.6803 25.5499 12.3103 26.0399 12.5003C26.0399 12.1703 25.8199 11.5803 25.8199 11.5703V11.5803C25.8299 11.5803 25.8499 11.6003 25.8599 11.6303C26.0299 11.8803 26.3199 12.3703 26.4699 12.3903C26.5799 12.2103 26.5399 12.0203 26.5299 12.0203C26.5699 12.0203 26.6199 12.2303 26.4799 12.4303C26.3099 12.4203 26.0399 11.9903 25.8999 11.7403C25.9799 11.9403 26.0699 12.2803 26.0499 12.5303C25.6099 12.3803 25.4099 11.9103 25.3599 11.7403C25.3799 11.8803 25.4199 12.2403 25.7099 12.5203C25.6899 12.5503 25.6599 12.5703 25.6299 12.5703Z" fill="#982645"/>
<path fill-rule="evenodd" clip-rule="evenodd" d="M24.54 10.9098L24.92 11.4498L24.98 10.7298C24.98 10.7298 25.35 11.0498 25.42 11.0398C25.49 11.0298 25.32 10.2698 25.32 10.2698C25.32 10.2698 25.82 11.1198 25.85 11.0998C25.88 11.0798 25.9 10.2598 25.9 10.2598C25.9 10.2598 26.28 11.4198 26.4 11.4198C26.53 11.3998 26.5 11.2598 26.5 11.2598L24.54 10.9098Z" fill="#F7D40E"/>
<path fill-rule="evenodd" clip-rule="evenodd" d="M24.9403 11.4598L24.5303 10.9298V10.8998H24.5603L24.9303 11.4298L24.9503 10.7198C25.1603 10.8598 25.3603 11.0098 25.4003 11.0198C25.4203 10.9798 25.3503 10.6098 25.2803 10.2798C25.4903 10.5598 25.7903 11.0498 25.8303 11.0798L25.8603 10.2598C26.0803 10.8098 26.3203 11.3998 26.3803 11.3898C26.4022 11.3841 26.4226 11.3739 26.4403 11.3598C26.4703 11.3198 26.4503 11.2598 26.4503 11.2598C26.4803 11.2398 26.5103 11.3298 26.4703 11.3898C26.4503 11.4198 26.4203 11.4298 26.3703 11.4398C26.2403 11.4398 25.9403 10.5498 25.8503 10.2698C25.8703 11.0898 25.8403 11.1098 25.8303 11.1198C25.8103 11.1298 25.7803 11.1498 25.2803 10.2898C25.3503 10.4298 25.4703 10.9698 25.4303 11.0498C25.3303 11.0698 25.0403 10.8198 24.9603 10.7398L24.9403 11.4598Z" fill="#982645"/>
<path fill-rule="evenodd" clip-rule="evenodd" d="M24.2598 9.9807C24.2598 9.9807 24.8398 10.5707 24.8998 10.5307C24.9598 10.4907 24.6598 9.8407 24.6598 9.8407C24.6598 9.8407 24.9898 10.1907 25.1198 10.2207C25.2498 10.2507 25.1598 9.7607 25.1598 9.7607C25.1598 9.7607 25.5498 10.1407 25.6198 10.1107C25.6898 10.1007 25.6598 9.7607 25.6598 9.7607C25.6598 9.7607 25.9098 10.0507 25.9298 10.0507C25.9498 10.0507 25.8798 9.2207 25.8798 9.2207C25.8798 9.2207 26.4498 9.9007 26.4898 9.8907L24.2598 9.9807Z" fill="#F7D40E"/>
<path fill-rule="evenodd" clip-rule="evenodd" d="M24.9 10.5507C24.82 10.5507 24.5 10.2507 24.25 9.9907V9.9507H24.28C24.54 10.2207 24.85 10.5007 24.9 10.5007C24.91 10.4607 24.78 10.1307 24.65 9.8407C24.77 9.9107 25.03 10.1707 25.13 10.1907C25.2 10.1407 25.17 9.9007 25.15 9.7607C25.36 9.9107 25.58 10.0907 25.63 10.0907C25.66 10.0807 25.66 9.9307 25.65 9.7607C25.8 9.8707 25.93 10.0107 25.95 10.0207C25.93 9.9907 25.9 9.5107 25.87 9.2207C26.11 9.4507 26.46 9.8507 26.51 9.8707C26.5 9.9207 26.46 9.9207 25.88 9.2407C25.98 10.0407 25.97 10.0507 25.96 10.0607C25.93 10.0707 25.92 10.0707 25.66 9.7707C25.71 9.8607 25.72 10.1107 25.65 10.1307C25.58 10.1507 25.28 9.8807 25.18 9.7807C25.22 9.8307 25.27 10.1407 25.2 10.2207L25.14 10.2407C24.9621 10.1386 24.8032 10.0067 24.67 9.8507C24.9 10.2707 24.98 10.5107 24.93 10.5407L24.9 10.5507Z" fill="#982645"/>
<path fill-rule="evenodd" clip-rule="evenodd" d="M21.9404 10.1797C21.9704 10.2297 22.0604 11.0797 23.2304 10.7297C23.3404 10.6597 23.2904 10.9597 23.2904 11.0497C23.3404 11.0397 23.9004 10.8097 24.2804 11.1297C24.2304 10.7797 24.1504 10.5397 23.8204 10.3397C23.6504 10.2997 23.5404 10.3897 23.5404 10.3897C23.5404 10.4097 22.1304 10.4297 21.9404 10.1797Z" fill="#F7D40E"/>
<path fill-rule="evenodd" clip-rule="evenodd" d="M24.2802 11.1702H24.2702C24.1282 11.0583 23.9507 11.0015 23.7702 11.0102C23.5802 11.0102 23.4002 11.0602 23.3302 11.0802L23.3002 11.0702L23.2802 11.0602V11.0102C23.2953 10.9242 23.2953 10.8362 23.2802 10.7502C23.0602 10.8102 22.8902 10.8402 22.7402 10.8402C22.3202 10.8402 22.0502 10.6302 21.9502 10.2202V10.2102C22.1502 10.7502 22.5702 10.9202 23.2502 10.7202L23.3202 10.7302C23.3502 10.7702 23.3502 10.8902 23.3402 11.0102V11.0602C23.4863 10.9841 23.6495 10.9469 23.8141 10.9522C23.9787 10.9574 24.1392 11.0049 24.2802 11.0902C24.2402 10.7702 24.1402 10.5602 23.8402 10.3702L23.7702 10.3602C23.7024 10.3613 23.6364 10.3822 23.5802 10.4202C23.2102 10.4202 22.1302 10.4102 21.9602 10.1902L21.9702 10.1702L21.9902 10.1602C22.1202 10.3202 22.9002 10.3802 23.5402 10.3802C23.5602 10.3802 23.6502 10.3102 23.7802 10.3102L23.8602 10.3202C24.2002 10.5202 24.2902 10.7602 24.3402 11.1302L24.3302 11.1602L24.2802 11.1702Z" fill="#982645"/>
<path fill-rule="evenodd" clip-rule="evenodd" d="M21.31 15.5897C21.29 15.6897 21.23 15.7197 21.06 15.9997C21.14 16.1197 21.49 16.3097 21.59 16.2097C21.67 16.1597 21.68 15.8997 21.68 15.8997C21.87 16.2097 22.2 16.7097 22.57 16.8197C22.85 16.9197 23.13 16.7097 23.13 16.3997C23.13 16.0797 22.71 15.5797 22.52 15.3697C22.05 14.7397 22.09 13.5397 21.21 13.7097C21.21 13.7197 21.17 13.8597 21.09 13.8797C21.16 14.0297 21.2 14.1597 21.03 14.2097C21.16 14.3597 21.18 14.4597 21.01 14.5297C21.11 14.6797 21.24 14.7397 21 14.8697C21.24 15.1497 21.29 15.5497 21.31 15.5897Z" fill="#F7D40E"/>
<path fill-rule="evenodd" clip-rule="evenodd" d="M21.6605 15.9002C22.0105 16.4202 22.3005 16.7202 22.5705 16.8002C22.8405 16.9002 23.1005 16.6902 23.1005 16.4002C23.1005 16.0902 22.6805 15.5802 22.5005 15.3802C22.3405 15.1702 22.2405 14.8902 22.1405 14.6202C21.9505 14.1002 21.7805 13.6202 21.2005 13.7302C21.1805 13.8202 21.1305 13.8802 21.0805 13.9002C21.1305 13.9502 21.1805 14.0502 21.1505 14.1302C21.1305 14.1702 21.0905 14.2002 21.0205 14.2302C21.1205 14.2802 21.1505 14.3602 21.1405 14.4202C21.1305 14.4702 21.0905 14.5202 21.0105 14.5502C21.0405 14.5402 21.0605 14.5702 21.0805 14.5902C21.1205 14.6502 21.1605 14.6902 21.1505 14.7502C21.1405 14.8002 21.1005 14.8402 21.0005 14.9002C21.2305 15.1002 21.2905 15.4502 21.3205 15.5602C21.3195 15.6344 21.291 15.7057 21.2405 15.7602L21.0705 16.0102C21.1405 16.0902 21.5005 16.2702 21.5705 16.1902C21.6405 16.1502 21.6605 15.9602 21.6605 15.9002ZM22.7105 16.8602C22.6605 16.8602 22.6105 16.8602 22.5605 16.8302C22.2805 16.7502 21.9905 16.4602 21.6705 15.9302C21.6905 15.9902 21.6705 16.1802 21.5905 16.2302C21.5705 16.2602 21.5405 16.2602 21.5005 16.2602C21.3505 16.2602 21.1005 16.1202 21.0405 16.0102L21.2105 15.7302C21.2605 15.6602 21.2805 15.6302 21.2905 15.5802C21.2605 15.4602 21.2005 15.1202 20.9805 14.8802C21.0605 14.8002 21.1005 14.7702 21.1105 14.7302C21.1205 14.7002 21.0905 14.6602 21.0505 14.6102L20.9905 14.5302C21.0605 14.4702 21.1005 14.4402 21.1105 14.4002C21.1205 14.3502 21.0905 14.2902 21.0105 14.2102C21.0705 14.1602 21.1005 14.1302 21.1105 14.1002C21.1305 14.0502 21.1105 13.9702 21.0605 13.8702C21.1205 13.8202 21.1505 13.7702 21.1805 13.6902C21.2605 13.6602 21.3105 13.6602 21.3605 13.6602C21.8405 13.6602 22.0005 14.1102 22.1805 14.6002C22.2805 14.8602 22.3705 15.1302 22.5305 15.3402C22.7105 15.5402 23.1405 16.0602 23.1405 16.3902C23.1505 16.6602 22.9605 16.8602 22.7105 16.8602Z" fill="#982645"/>
<path fill-rule="evenodd" clip-rule="evenodd" d="M21.0802 6.67969C20.8002 7.13969 20.7702 12.1797 20.8602 13.1997C20.5802 13.4097 20.0502 13.3297 19.9102 13.2597C19.9702 12.8897 20.2202 7.03969 21.0802 6.67969Z" fill="#F7D40E"/>
<path fill-rule="evenodd" clip-rule="evenodd" d="M21.0604 6.67016C20.3904 6.99016 20.0904 11.0502 19.9804 12.5802L19.9204 13.2602C19.9904 13.2602 20.1704 13.3002 20.3604 13.3002C20.5004 13.3002 20.7004 13.2802 20.8404 13.1802C20.7604 12.2802 20.7704 7.14016 21.0604 6.67016ZM20.3604 13.3502C20.1704 13.3502 19.9804 13.3102 19.9004 13.2802L19.9404 12.5802C20.0604 10.8902 20.3504 6.96016 21.0704 6.66016C20.8204 7.14016 20.7804 12.1302 20.8704 13.2002C20.7204 13.3302 20.5104 13.3502 20.3604 13.3502Z" fill="#982645"/>
<path fill-rule="evenodd" clip-rule="evenodd" d="M20.2805 17.0209C20.2805 17.0209 19.0405 17.2209 19.5605 16.3909C20.0105 16.1709 20.0005 16.6809 19.8305 16.8609C20.0405 16.8809 20.1705 16.7409 20.2005 16.5109C19.9505 16.1309 20.3105 15.8809 20.2905 15.8809C19.4305 16.1009 19.3105 15.4309 19.6305 15.3309C20.0405 15.3609 19.9105 15.5009 20.0705 15.6309C20.3605 15.3209 20.5305 15.3009 20.7105 15.6009C20.8905 15.3009 21.1405 15.3309 21.1505 15.3609C21.4305 15.9009 20.8105 15.9309 20.5605 15.8609C20.7705 16.1209 20.6805 16.3709 20.6205 16.5609C20.6305 16.7409 20.7505 16.7709 20.9505 16.8409C20.5205 15.5109 22.4505 17.1909 20.5105 17.0209L20.5205 17.1909C20.6805 17.2209 20.7905 17.2709 20.8405 17.4509C20.7705 17.5509 20.6705 17.5609 20.5005 17.4909C20.5005 17.4909 20.6005 17.7909 20.4205 17.8809C20.2805 17.7809 20.2605 17.5509 20.2605 17.5509C20.1805 17.6609 20.0605 17.5909 19.9605 17.5009C20.0405 17.2609 20.3005 17.3809 20.2805 17.0209ZM19.2205 12.9809C19.3005 12.6009 20.0705 12.6509 19.7005 13.0609C19.9505 13.5109 20.7105 13.4409 21.0005 13.1909C20.7605 12.6709 21.4205 12.7909 21.3905 13.1809C21.3105 13.8809 19.1305 13.7909 19.2205 12.9809ZM33.5305 19.6809C33.7605 20.1709 34.1805 21.3309 34.4005 21.6109C34.6205 21.8209 35.1505 21.8009 35.3105 21.5509C35.3105 21.5509 35.6505 21.9509 35.7905 22.0709C35.8449 22.0449 35.8902 22.0031 35.9205 21.9509C35.7805 21.7809 35.5905 21.6809 35.5005 21.3709C35.6405 21.1609 35.7205 20.7509 35.6205 20.4409C35.2305 19.6709 33.8705 19.9709 33.5305 19.6809Z" fill="#F7D40E"/>
<path fill-rule="evenodd" clip-rule="evenodd" d="M35.3095 21.5395C35.3395 21.5395 35.6695 21.9195 35.8095 22.0495C35.8795 22.0195 35.9195 21.9395 35.9195 21.9395C35.8748 21.9122 35.8344 21.8785 35.7995 21.8395C35.6564 21.719 35.5521 21.559 35.4995 21.3795C35.6295 21.1595 35.7195 20.7595 35.6195 20.4395C35.3695 19.9795 34.7395 19.9095 34.2395 19.8595C33.9295 19.8295 33.6495 19.8095 33.5295 19.6895C33.6395 19.8295 33.7495 20.0795 33.8495 20.3495C34.0495 20.8495 34.2795 21.4095 34.4295 21.5895C34.6195 21.7895 35.1595 21.7595 35.3095 21.5395ZM35.7995 22.1095L35.7895 22.0995C35.6495 21.9795 35.3195 21.5995 35.3095 21.5795C35.2095 21.8095 34.6095 21.8495 34.3995 21.6295C34.2495 21.4395 34.0195 20.8795 33.8095 20.3795C33.6995 20.1195 33.5995 19.8595 33.5195 19.6995C33.6695 19.7695 33.9295 19.7995 34.2395 19.8295C34.7595 19.8795 35.3995 19.9495 35.6595 20.4395C35.7595 20.7695 35.6695 21.1895 35.5395 21.3995C35.6095 21.5995 35.7195 21.7095 35.8295 21.8195L35.9595 21.9595C35.9249 22.0262 35.8684 22.0792 35.7995 22.1095Z" fill="#982645"/>
<path fill-rule="evenodd" clip-rule="evenodd" d="M18.9496 6.28063C18.7196 5.79063 18.2996 4.62062 18.0796 4.35062C17.8696 4.14062 17.3296 4.16062 17.1696 4.40062C17.1696 4.40062 16.8296 4.01062 16.6896 3.89062C16.6352 3.91665 16.5899 3.95847 16.5596 4.01062C16.6996 4.17062 16.8896 4.27063 16.9796 4.59063C16.8982 4.72965 16.8456 4.88364 16.825 5.04342C16.8044 5.2032 16.8161 5.36549 16.8596 5.52062C17.2596 6.29062 18.6196 5.99063 18.9496 6.28063Z" fill="#F7D40E"/>
<path fill-rule="evenodd" clip-rule="evenodd" d="M16.6703 3.90914C16.6103 3.93914 16.5703 4.02914 16.5703 4.02914C16.6103 4.04914 16.6503 4.08914 16.6903 4.12914C16.8358 4.24747 16.9406 4.4083 16.9903 4.58914C16.8503 4.80914 16.7703 5.19914 16.8703 5.51914C17.1203 5.98914 17.7503 6.04914 18.2503 6.09914C18.5203 6.11914 18.7503 6.14914 18.9003 6.22914L18.6403 5.60914C18.4403 5.10914 18.2103 4.54914 18.0603 4.36914C17.8703 4.17914 17.3203 4.21914 17.1803 4.41914C17.1403 4.41914 16.8103 4.02914 16.6703 3.90914ZM18.9403 6.29914C18.8203 6.19914 18.5603 6.16914 18.2503 6.14914C17.7403 6.09914 17.0903 6.02914 16.8303 5.53914C16.7303 5.19914 16.8203 4.78914 16.9503 4.57914C16.8803 4.37914 16.7703 4.26914 16.6603 4.15914L16.5303 4.02914C16.5303 3.98914 16.5803 3.90914 16.6703 3.86914C16.8303 3.98914 17.1603 4.37914 17.1703 4.38914C17.2703 4.15914 17.8703 4.12914 18.0803 4.33914C18.2303 4.51914 18.4603 5.08914 18.6703 5.58914L18.9603 6.27914L18.9403 6.29914Z" fill="#982645"/>
<path fill-rule="evenodd" clip-rule="evenodd" d="M18.8104 19.6094C18.3704 19.8694 17.3404 20.3394 17.1004 20.5994C16.9104 20.8494 16.9304 21.4494 17.1504 21.6294C17.1504 21.6294 16.8004 22.0094 16.6904 22.1694C16.7204 22.2594 16.8004 22.3194 16.8004 22.3194C16.9504 22.1594 17.0404 21.9494 17.3204 21.8394C17.5104 21.9894 17.8704 22.0794 18.1504 21.9794C18.8204 21.5194 18.5504 19.9794 18.8104 19.6094Z" fill="#F7D40E"/>
<path fill-rule="evenodd" clip-rule="evenodd" d="M18.7999 19.5998C18.6799 19.7298 18.4499 19.8398 18.2099 19.9598C17.7699 20.1798 17.2699 20.4398 17.1099 20.6098C17.0199 20.7198 16.9699 20.9498 16.9899 21.1698C17.0099 21.3698 17.0699 21.5298 17.1599 21.5998C17.1599 21.6398 16.8099 22.0198 16.6999 22.1698C16.7199 22.2198 16.7699 22.2598 16.7899 22.2798L16.8899 22.1498C16.9899 22.0198 17.0899 21.8898 17.2999 21.8098C17.5199 21.9798 17.8799 22.0498 18.1299 21.9498C18.5499 21.6698 18.5999 20.9598 18.6399 20.3898C18.6699 20.0398 18.6899 19.7398 18.7999 19.5998ZM16.7999 22.3398L16.7899 22.3298C16.7899 22.3298 16.7099 22.2698 16.6699 22.1698C16.7799 21.9898 17.1199 21.6198 17.1399 21.6098C17.0399 21.5598 16.9799 21.3898 16.9599 21.1798C16.9324 20.9708 16.9784 20.7587 17.0899 20.5798C17.2599 20.4098 17.7599 20.1498 18.1999 19.9198L18.8099 19.5898C18.7399 19.7598 18.7199 20.0498 18.6899 20.3998C18.6499 20.9798 18.5899 21.6998 18.1499 21.9898C18.0078 22.0394 17.8556 22.0526 17.7071 22.0281C17.5586 22.0037 17.4186 21.9424 17.2999 21.8498C17.1199 21.9298 17.0299 22.0598 16.9299 22.1798L16.8099 22.3298L16.7999 22.3398Z" fill="#982645"/>
<path fill-rule="evenodd" clip-rule="evenodd" d="M33.5703 6.28063C33.8003 5.79063 34.2203 4.62062 34.4403 4.35062C34.6503 4.14062 35.1903 4.16062 35.3503 4.40062C35.3503 4.40062 35.6903 4.01062 35.8303 3.89062C35.8847 3.91665 35.93 3.95847 35.9603 4.01062C35.8203 4.17062 35.6303 4.27063 35.5403 4.59063C35.6803 4.80063 35.7603 5.20062 35.6603 5.52062C35.2603 6.29062 33.9003 5.99063 33.5703 6.28063Z" fill="#F7D40E"/>
<path fill-rule="evenodd" clip-rule="evenodd" d="M34.8798 4.22914C34.7098 4.22914 34.5498 4.27914 34.4598 4.36914C34.3098 4.53914 34.0798 5.10914 33.8798 5.60914L33.6198 6.21914C33.7598 6.14914 33.9998 6.11914 34.2698 6.09914C34.7798 6.04914 35.4098 5.98914 35.6598 5.51914C35.7498 5.20914 35.6698 4.80914 35.5398 4.61914C35.5998 4.35914 35.7198 4.24914 35.8398 4.13914L35.9598 4.00914C35.9498 4.00914 35.8998 3.94914 35.8398 3.91914L35.3798 4.42914C35.2459 4.2994 35.0663 4.22756 34.8798 4.22914ZM33.5798 6.29914L33.5498 6.27914C33.6298 6.10914 33.7398 5.85914 33.8398 5.58914C34.0498 5.08914 34.2798 4.51914 34.4298 4.33914C34.6398 4.12914 35.2098 4.15914 35.3698 4.38914C35.3598 4.35914 35.6798 3.98914 35.8198 3.86914C35.9298 3.89914 35.9798 3.98914 35.9798 3.98914C35.9398 4.06914 35.8898 4.10914 35.8498 4.14914C35.71 4.2623 35.6087 4.41602 35.5598 4.58914C35.6998 4.77914 35.7798 5.18914 35.6798 5.51914C35.4198 6.00914 34.7798 6.07914 34.2598 6.12914C33.9698 6.16914 33.6998 6.19914 33.5798 6.29914Z" fill="#982645"/>
<path fill-rule="evenodd" clip-rule="evenodd" d="M19.5702 13.84C19.5502 13.99 19.8902 14.07 20.2402 14.07C20.5802 14.08 20.9402 14.01 20.9602 13.9C20.9602 13.7 20.6602 13.88 20.3102 13.87C19.9502 13.87 19.6602 13.71 19.5702 13.84Z" fill="#F7D40E"/>
<path fill-rule="evenodd" clip-rule="evenodd" d="M19.6998 13.8107C19.6398 13.8107 19.5998 13.8307 19.5798 13.8607L19.5998 13.9007C19.6698 13.9907 19.9098 14.0407 20.2298 14.0507L20.2398 14.0707V14.0507C20.6398 14.0507 20.9098 13.9707 20.9198 13.9007L20.9098 13.8507C20.8798 13.8207 20.7798 13.8307 20.6498 13.8607C20.4051 13.9078 20.1533 13.9044 19.9098 13.8507C19.8418 13.8287 19.7712 13.8153 19.6998 13.8107ZM20.2498 14.1007H20.2398C20.1098 14.1007 19.6898 14.0907 19.5798 13.9407C19.5596 13.9113 19.5491 13.8764 19.5498 13.8407C19.6098 13.7507 19.7398 13.7707 19.9298 13.8007L20.2998 13.8507C20.4298 13.8507 20.5498 13.8307 20.6498 13.8107C20.7998 13.7807 20.8998 13.7707 20.9498 13.8207C20.9698 13.8407 20.9798 13.8707 20.9698 13.9107C20.9498 14.0607 20.4898 14.1007 20.2498 14.1007ZM19.5898 14.2907C19.5998 14.4407 19.9298 14.4707 20.2298 14.4807C20.5298 14.4907 20.8298 14.4307 20.8798 14.3207C20.8298 14.1507 20.4998 14.2907 20.2298 14.3007C19.9598 14.3107 19.6598 14.1507 19.5898 14.2907Z" fill="#F7D40E"/>
<path fill-rule="evenodd" clip-rule="evenodd" d="M19.7203 14.2509C19.6703 14.2509 19.6303 14.2609 19.6203 14.2909C19.6303 14.3809 19.8303 14.4409 20.2403 14.4509L20.3003 14.4609C20.5803 14.4609 20.8303 14.3909 20.8703 14.3009C20.8403 14.2509 20.6903 14.2509 20.5003 14.2809L20.2303 14.3209C20.1303 14.3409 20.0103 14.3009 19.9203 14.2809L19.7203 14.2509ZM20.2903 14.5109H20.2303C19.9303 14.4909 19.5803 14.4609 19.5703 14.2909C19.6003 14.2109 19.6703 14.2109 19.7103 14.2109L19.9203 14.2409C20.0103 14.2609 20.1103 14.2809 20.2103 14.2809C20.3807 14.2645 20.5507 14.2445 20.7203 14.2209C20.7803 14.2209 20.8703 14.2309 20.9003 14.3209C20.8403 14.4509 20.5403 14.5109 20.2903 14.5109ZM19.6903 14.6909C19.6703 14.8009 19.9603 14.8809 20.2403 14.8909C20.5103 14.8909 20.9003 14.7709 20.9003 14.6509C20.8803 14.5609 20.5003 14.6909 20.2503 14.6909C19.9903 14.7009 19.6903 14.5809 19.6903 14.6909Z" fill="#F7D40E"/>
<path fill-rule="evenodd" clip-rule="evenodd" d="M19.7704 14.6598C19.7304 14.6598 19.7104 14.6698 19.7104 14.6798C19.7704 14.7898 20.0004 14.8498 20.2404 14.8498L20.2504 14.8798V14.8498C20.5304 14.8498 20.8804 14.7298 20.8804 14.6398C20.8804 14.6398 20.7404 14.6398 20.5704 14.6698C20.4604 14.6798 20.3504 14.7098 20.2504 14.7098C20.1104 14.7098 20.0204 14.6998 19.9404 14.6798L19.7704 14.6598ZM20.2404 14.8998C20.0204 14.8998 19.7504 14.8498 19.6804 14.7498C19.6704 14.7298 19.6604 14.7098 19.6704 14.6798C19.6704 14.6198 19.7404 14.6198 19.7704 14.6198L19.9404 14.6398C20.0204 14.6598 20.1204 14.6698 20.2104 14.6698C20.3404 14.6698 20.4504 14.6498 20.5604 14.6298L20.8104 14.5898C20.8404 14.5898 20.9104 14.5898 20.9104 14.6498C20.9204 14.7898 20.5104 14.8998 20.2404 14.8998ZM19.6604 15.0998C19.6804 15.2098 20.0204 15.2398 20.3104 15.2198C20.6104 15.1998 20.9104 15.0998 20.9304 14.9698C20.9204 14.8998 20.5804 15.0298 20.2904 15.0498C20.0204 15.0598 19.6504 14.9998 19.6604 15.0998Z" fill="#F7D40E"/>
<path fill-rule="evenodd" clip-rule="evenodd" d="M19.8596 15.0597C19.7496 15.0597 19.6896 15.0697 19.6796 15.0897C19.6896 15.1397 19.8496 15.1997 20.1396 15.1997L20.3196 15.1897C20.6196 15.1597 20.8996 15.0597 20.9196 14.9697L20.6796 14.9997C20.5582 15.0302 20.4345 15.0502 20.3096 15.0597L20.1796 15.0697L19.8596 15.0597ZM20.1396 15.2497C20.0296 15.2497 19.6696 15.2297 19.6396 15.0997C19.6696 15.0297 19.7296 15.0197 19.8596 15.0197H20.2996C20.4196 15.0197 20.5496 14.9897 20.6596 14.9697L20.8796 14.9297C20.8896 14.9297 20.9396 14.9297 20.9496 14.9697C20.9196 15.1097 20.5996 15.2197 20.3096 15.2397L20.1396 15.2497Z" fill="#F7D40E"/>
</g>
</g>
<defs>
<clipPath id="clip0_26003_90432">
<rect width="38" height="25" fill="white" transform="translate(0 0.5)"/>
</clipPath>
<clipPath id="clip1_26003_90432">
<rect width="38" height="25" fill="white" transform="translate(0 0.5)"/>
</clipPath>
</defs>
</svg>
