<svg width="38" height="26" viewBox="0 0 38 26" fill="none" xmlns="http://www.w3.org/2000/svg">
<g clip-path="url(#clip0_26003_90421)">
<g clip-path="url(#clip1_26003_90421)">
<path fill-rule="evenodd" clip-rule="evenodd" d="M2.5 25.5H35.6C36.9 25.2 37.9 24.1 38.1 22.6V3.4C37.9 1.9 36.9 0.7 35.6 0.5H2.5C1.2 0.8 0.2 1.9 0 3.4V22.6C0.2 24.1 1.2 25.2 2.5 25.5Z" fill="#FEFEFE"/>
<path fill-rule="evenodd" clip-rule="evenodd" d="M25.1 4.60039L26.6 7.00039L25.8 7.60039L24.4 5.20039L25.1 4.60039ZM26.8 7.40039L28.2 9.80039L27.5 10.4004L26 8.00039L26.8 7.40039ZM26.3 3.80039L29.4 9.00039L28.6 9.50039L25.5 4.30039L26.3 3.80039ZM27.5 2.90039L28.9 5.30039L28.1 5.80039L26.7 3.50039L27.5 2.90039ZM29.1 5.70039L30.5 8.10039L29.8 8.70039L28.4 6.30039L29.1 5.70039ZM10.5 15.6004L13.6 20.8004L12.9 21.4004L9.8 16.2004L10.5 15.6004ZM9.4 16.5004L10.8 18.8004L10 19.4004L8.6 17.0004L9.4 16.5004ZM11.1 19.3004L12.5 21.7004L11.7 22.2004L10.3 19.9004L11.1 19.3004ZM8.2 17.3004L11.3 22.5004L10.5 23.1004L7.5 17.9004L8.2 17.3004ZM9.8 9.80039L12.9 4.60039L13.6 5.20039L10.5 10.4004L9.8 9.80039ZM8.6 9.00039L11.7 3.80039L12.5 4.30039L9.4 9.50039L8.6 9.00039ZM7.5 8.10039L10.5 2.90039L11.3 3.50039L8.2 8.70039L7.5 8.10039ZM24.4 20.8004L25.8 18.4004L26.6 19.0004L25.1 21.4004L24.4 20.8004ZM26 18.0004L27.5 15.6004L28.2 16.2004L26.8 18.6004L26 18.0004ZM25.5 21.7004L26.9 19.3004L27.7 19.9004L26.3 22.2004L25.5 21.7004ZM27.2 18.8004L28.6 16.5004L29.4 17.0004L28 19.4004L27.2 18.8004ZM26.7 22.5004L28.1 20.2004L28.9 20.7004L27.5 23.1004L26.7 22.5004ZM28.4 19.7004L29.8 17.3004L30.5 17.9004L29.1 20.3004L28.4 19.7004Z" fill="#242222"/>
<path fill-rule="evenodd" clip-rule="evenodd" d="M14.3998 9.5C14.3998 9.5 14.3998 9.6 14.2998 9.6C14.3998 9.6 14.3998 9.6 14.3998 9.5Z" fill="#BC283D"/>
<path fill-rule="evenodd" clip-rule="evenodd" d="M22.1004 7.79924C19.6004 5.89924 16.1004 6.69924 14.4004 9.49924C13.5004 10.8992 13.9004 12.8992 15.2004 13.7992C16.5004 14.7992 18.2004 14.3992 19.0004 12.8992C19.8004 11.4992 21.6004 11.0992 22.8004 11.9992C24.1004 12.9992 24.4004 14.8992 23.6004 16.2992C25.3004 13.5992 24.6004 9.69924 22.1004 7.79924Z" fill="#BC283D"/>
<path fill-rule="evenodd" clip-rule="evenodd" d="M14.4005 9.5C13.5005 10.9 13.9005 12.9 15.2005 13.8C16.5005 14.8 18.2005 14.4 19.0005 12.9C19.8005 11.5 21.6005 11.1 22.8005 12C24.1005 13 24.4005 14.9 23.6005 16.3C21.9005 19.2 18.5005 20 15.9005 18C13.4005 16.3 12.7005 12.4 14.4005 9.5Z" fill="#293B78"/>
</g>
</g>
<defs>
<clipPath id="clip0_26003_90421">
<rect width="38" height="25" fill="white" transform="translate(0 0.5)"/>
</clipPath>
<clipPath id="clip1_26003_90421">
<rect width="38" height="25" fill="white" transform="translate(0 0.5)"/>
</clipPath>
</defs>
</svg>
