<svg width="38" height="26" viewBox="0 0 38 26" fill="none" xmlns="http://www.w3.org/2000/svg">
<g clip-path="url(#clip0_26003_92400)">
<g clip-path="url(#clip1_26003_92400)">
<path fill-rule="evenodd" clip-rule="evenodd" d="M38 22.5V3.5C37.8 1.8 36.5 0.5 35 0.5H3C1.5 0.5 0.2 1.8 0 3.5V22.5C0.2 24.2 1.5 25.5 3 25.5H35C36.5 25.5 37.8 24.2 38 22.5Z" fill="#349644"/>
<path fill-rule="evenodd" clip-rule="evenodd" d="M25.3004 0.5L0.900391 24.6C1.50039 25.2 2.20039 25.5 3.00039 25.5H35.0004C36.5004 25.5 37.8004 24.2 38.0004 22.5V3.5C37.8004 1.8 36.5004 0.5 35.0004 0.5H25.3004Z" fill="#F6E44B"/>
<path fill-rule="evenodd" clip-rule="evenodd" d="M37.1002 1.40039L12.7002 25.5004H35.0002C36.5002 25.5004 37.8002 24.2004 38.0002 22.5004V3.50039C37.9002 2.70039 37.6002 1.90039 37.1002 1.40039Z" fill="#CE2732"/>
</g>
</g>
<defs>
<clipPath id="clip0_26003_92400">
<rect width="38" height="25" fill="white" transform="translate(0 0.5)"/>
</clipPath>
<clipPath id="clip1_26003_92400">
<rect width="38" height="25" fill="white" transform="translate(0 0.5)"/>
</clipPath>
</defs>
</svg>
