<svg width="39" height="26" viewBox="0 0 39 26" fill="none" xmlns="http://www.w3.org/2000/svg">
<g clip-path="url(#clip0_26003_54240)">
<g clip-path="url(#clip1_26003_54240)">
<path fill-rule="evenodd" clip-rule="evenodd" d="M0.745117 8.54102H38.7451V16.871H0.745117V8.54102Z" fill="#FEFEFE"/>
<path fill-rule="evenodd" clip-rule="evenodd" d="M0.745117 8.54094H38.7451V3.15094C38.5551 1.50094 37.2951 0.220937 35.7751 0.210938H3.71512C2.19512 0.220937 0.935117 1.50094 0.745117 3.15094V8.54094ZM3.72512 25.2109H35.7651C37.2851 25.2109 38.5551 23.9209 38.7451 22.2709V16.8809H0.745117V22.2709C0.935117 23.9209 2.20512 25.2109 3.72512 25.2109Z" fill="#8AABD9"/>
<path fill-rule="evenodd" clip-rule="evenodd" d="M19.5947 12.7109L19.7147 16.1209C19.7147 16.1209 19.7147 16.1809 19.7547 16.1809C19.7947 16.1809 19.7947 16.1209 19.7947 16.1209L19.9147 12.7109H19.5947Z" fill="#F2C549"/>
<path fill-rule="evenodd" clip-rule="evenodd" d="M19.745 16.1909C19.705 16.1909 19.695 16.1409 19.695 16.1209L19.585 12.7109H19.605L19.715 16.1209C19.715 16.1209 19.715 16.1709 19.745 16.1709C19.775 16.1709 19.775 16.1209 19.775 16.1209L19.885 12.7109L19.795 16.1209C19.795 16.1409 19.785 16.1909 19.745 16.1909Z" fill="#88402A"/>
<path fill-rule="evenodd" clip-rule="evenodd" d="M19.6748 12.7109L19.7448 15.0509L19.8248 12.7109H19.6748Z" fill="#88402A"/>
<path fill-rule="evenodd" clip-rule="evenodd" d="M19.4655 13.8105C19.2955 14.2405 19.4355 14.5905 19.2655 14.9605C19.0855 15.3305 19.1955 15.6405 19.1855 15.8205C19.1755 15.9905 19.0555 16.0405 19.0755 16.0805C19.1055 16.1205 19.2355 16.0405 19.2855 15.8105C19.3355 15.5805 19.2155 15.4505 19.4155 14.9905C19.6255 14.5305 19.4655 14.3205 19.6755 13.9105L19.4655 13.8105Z" fill="#F2C549"/>
<path fill-rule="evenodd" clip-rule="evenodd" d="M19.1152 16.1005L19.0752 16.0905C19.0652 16.0705 19.0752 16.0405 19.0952 16.0105C19.1252 15.9705 19.1652 15.9105 19.1752 15.8205L19.1652 15.6505C19.1264 15.4167 19.1577 15.1766 19.2552 14.9605C19.3352 14.7705 19.3452 14.6005 19.3452 14.4105C19.3452 14.2205 19.3552 14.0305 19.4452 13.8105L19.4652 13.8205C19.3752 14.0305 19.3652 14.2305 19.3652 14.4205C19.3552 14.6105 19.3452 14.7905 19.2652 14.9805C19.1352 15.2505 19.1652 15.4905 19.1752 15.6605L19.1852 15.8305C19.1752 15.9305 19.1252 15.9905 19.0952 16.0305C19.0752 16.0605 19.0652 16.0705 19.0752 16.0805C19.1552 16.0705 19.2352 15.9905 19.2752 15.8205C19.2934 15.752 19.2968 15.6805 19.2852 15.6105C19.2752 15.4705 19.2752 15.3105 19.4152 15.0005C19.5152 14.7705 19.5352 14.6105 19.5352 14.4505C19.5452 14.2805 19.5552 14.1305 19.6652 13.9205C19.5752 14.1405 19.5652 14.2905 19.5552 14.4505C19.5452 14.6105 19.5352 14.7805 19.4352 15.0105C19.2952 15.3105 19.3052 15.4705 19.3052 15.6105L19.2952 15.8305C19.2652 15.9805 19.1852 16.0805 19.1152 16.1005Z" fill="#88402A"/>
<path fill-rule="evenodd" clip-rule="evenodd" d="M19.515 13.9219C19.375 14.3519 19.515 14.6319 19.335 14.9919C19.535 14.7319 19.405 14.3919 19.575 13.9519L19.515 13.9219Z" fill="#88402A"/>
<path fill-rule="evenodd" clip-rule="evenodd" d="M19.8952 12.7102L19.7752 9.30023C19.7752 9.30023 19.7752 9.24023 19.7352 9.24023C19.6952 9.24023 19.6952 9.30023 19.6952 9.30023L19.5752 12.7102H19.8952Z" fill="#F2C549"/>
<path fill-rule="evenodd" clip-rule="evenodd" d="M19.8855 12.7107L19.7755 9.3007C19.7755 9.3007 19.7755 9.2507 19.7455 9.2507C19.7155 9.2507 19.7155 9.3007 19.7155 9.3007L19.6055 12.7107L19.7055 9.3007C19.7055 9.2707 19.7155 9.2207 19.7555 9.2207C19.7955 9.2207 19.8055 9.2707 19.8055 9.3007L19.9255 12.7107H19.8855Z" fill="#88402A"/>
<path fill-rule="evenodd" clip-rule="evenodd" d="M19.8248 12.7111L19.7448 10.3711L19.6748 12.7111H19.8248Z" fill="#88402A"/>
<path fill-rule="evenodd" clip-rule="evenodd" d="M20.0354 11.6117C20.2054 11.1817 20.0554 10.8317 20.2354 10.4617C20.4154 10.0817 20.3054 9.78166 20.3054 9.61166C20.3154 9.44166 20.4454 9.39166 20.4154 9.35166C20.3854 9.31166 20.2554 9.39166 20.2054 9.62166C20.1554 9.85166 20.2754 9.98166 20.0654 10.4417C19.8554 10.9017 20.0254 11.1017 19.8154 11.5217L20.0354 11.6117Z" fill="#F2C549"/>
<path fill-rule="evenodd" clip-rule="evenodd" d="M20.0454 11.6108L20.0254 11.6008C20.1054 11.3908 20.1154 11.2008 20.1254 11.0108C20.1254 10.8208 20.1354 10.6408 20.2254 10.4508C20.3454 10.1808 20.3254 9.95078 20.3054 9.77078V9.60078C20.3054 9.49078 20.3554 9.44078 20.3854 9.40078C20.4054 9.37078 20.4154 9.36078 20.4054 9.35078C20.3354 9.36078 20.2454 9.44078 20.2054 9.61078C20.1854 9.69078 20.1954 9.75078 20.1954 9.82078C20.1954 9.96078 20.2054 10.1208 20.0654 10.4308C19.9654 10.6608 19.9554 10.8208 19.9454 10.9808C19.9354 11.1408 19.9254 11.3008 19.8154 11.5008C19.9054 11.2908 19.9154 11.1308 19.9254 10.9708C19.9354 10.8108 19.9454 10.6408 20.0554 10.4108C20.1954 10.1108 20.1854 9.95078 20.1754 9.81078L20.1854 9.59078C20.2254 9.40078 20.3154 9.32078 20.3654 9.30078L20.4054 9.31078C20.4254 9.33078 20.4054 9.36078 20.3854 9.39078C20.3554 9.43078 20.3054 9.48078 20.3054 9.58078L20.3154 9.75078C20.3354 9.93078 20.3554 10.1708 20.2254 10.4408C20.1354 10.6208 20.1354 10.8008 20.1254 10.9908C20.1354 11.2008 20.1254 11.4008 20.0454 11.6108Z" fill="#88402A"/>
<path fill-rule="evenodd" clip-rule="evenodd" d="M19.9848 11.5016C20.1248 11.0716 19.9748 10.7916 20.1648 10.4316C19.9648 10.6916 20.0948 11.0216 19.9248 11.4616L19.9848 11.5016Z" fill="#88402A"/>
<path fill-rule="evenodd" clip-rule="evenodd" d="M19.745 12.541L16.725 12.671C16.725 12.671 16.665 12.671 16.665 12.711C16.665 12.761 16.725 12.761 16.725 12.761L19.745 12.881V12.541Z" fill="#F2C549"/>
<path fill-rule="evenodd" clip-rule="evenodd" d="M19.7453 12.8713L16.7153 12.7613C16.6953 12.7613 16.6553 12.7513 16.6553 12.7113C16.6553 12.6713 16.6953 12.6613 16.7153 12.6613L19.7453 12.5312V12.5513L16.7153 12.6813C16.7153 12.6813 16.6653 12.6813 16.6653 12.7113C16.6653 12.7413 16.7153 12.7413 16.7153 12.7413L19.7453 12.8713Z" fill="#88402A"/>
<path fill-rule="evenodd" clip-rule="evenodd" d="M19.7448 12.6211L17.6748 12.7111L19.7448 12.7911V12.6211Z" fill="#88402A"/>
<path fill-rule="evenodd" clip-rule="evenodd" d="M18.7647 12.3918C18.3847 12.1918 18.0747 12.3618 17.7447 12.1718C17.4047 11.9818 17.1347 12.1018 16.9847 12.0818C16.8347 12.0718 16.7947 11.9218 16.7547 11.9618C16.7247 11.9918 16.7947 12.1418 16.9947 12.2018C17.1947 12.2618 17.3147 12.1218 17.7247 12.3618C18.1347 12.6018 18.3147 12.4118 18.6847 12.6518L18.7647 12.3918Z" fill="#F2C549"/>
<path fill-rule="evenodd" clip-rule="evenodd" d="M18.6851 12.6312C18.4951 12.5312 18.3551 12.5212 18.2151 12.5112C18.0751 12.5012 17.9251 12.4912 17.7151 12.3712C17.4551 12.2212 17.3151 12.2212 17.1851 12.2312C17.1151 12.2312 17.0651 12.2412 16.9951 12.2212C16.8451 12.1812 16.7551 12.0812 16.7451 12.0212V12.0112L16.7551 11.9612C16.7851 11.9412 16.8051 11.9612 16.8251 11.9912C16.8551 12.0212 16.9051 12.0812 16.9951 12.0812L17.1351 12.0712C17.2951 12.0512 17.5051 12.0212 17.7551 12.1712C17.9251 12.2712 18.0751 12.2812 18.2451 12.2812C18.4151 12.2812 18.5851 12.2912 18.7751 12.3912V12.4112C18.5851 12.3112 18.4151 12.3112 18.2451 12.3012C18.0751 12.2912 17.9151 12.2912 17.7451 12.1912C17.5637 12.0867 17.3506 12.0512 17.1451 12.0912L16.9951 12.1012C16.9249 12.091 16.8609 12.0554 16.8151 12.0012L16.7751 11.9812C16.7851 12.0612 16.8551 12.1612 17.0051 12.2012C17.0667 12.2197 17.1319 12.2232 17.1951 12.2112C17.3151 12.2012 17.4651 12.2012 17.7351 12.3512C17.9351 12.4712 18.0851 12.4812 18.2251 12.4912C18.3551 12.5012 18.4951 12.5112 18.6851 12.6312Z" fill="#88402A"/>
<path fill-rule="evenodd" clip-rule="evenodd" d="M18.6756 12.44C18.2956 12.29 18.0456 12.45 17.7256 12.25C17.9556 12.48 18.2556 12.33 18.6456 12.53L18.6756 12.44Z" fill="#88402A"/>
<path fill-rule="evenodd" clip-rule="evenodd" d="M19.7451 12.881L22.7651 12.751C22.7651 12.751 22.8251 12.751 22.8251 12.701C22.8251 12.661 22.7651 12.661 22.7651 12.661L19.7451 12.541V12.881Z" fill="#F2C549"/>
<path fill-rule="evenodd" clip-rule="evenodd" d="M19.7451 12.8908V12.8708L22.7651 12.7408C22.7651 12.7408 22.8151 12.7408 22.8151 12.7108C22.8151 12.6808 22.7651 12.6808 22.7651 12.6808L19.7451 12.5508L22.7651 12.6608C22.7851 12.6608 22.8251 12.6708 22.8251 12.7108C22.8251 12.7508 22.7851 12.7608 22.7651 12.7608L19.7451 12.8908Z" fill="#88402A"/>
<path fill-rule="evenodd" clip-rule="evenodd" d="M19.7451 12.7911L21.8251 12.7111L19.7451 12.6211V12.7911Z" fill="#88402A"/>
<path fill-rule="evenodd" clip-rule="evenodd" d="M20.7256 13.0312C21.1056 13.2312 21.4256 13.0613 21.7556 13.2513C22.0856 13.4513 22.3556 13.3213 22.5156 13.3413C22.6656 13.3513 22.7056 13.4913 22.7456 13.4613C22.7856 13.4213 22.7056 13.2813 22.5056 13.2213C22.3056 13.1613 22.1856 13.3012 21.7856 13.0712C21.3756 12.8312 21.1956 13.0212 20.8256 12.7812L20.7256 13.0312Z" fill="#F2C549"/>
<path fill-rule="evenodd" clip-rule="evenodd" d="M22.7256 13.481C22.7056 13.481 22.6956 13.471 22.6756 13.451C22.6456 13.421 22.5956 13.371 22.5056 13.361C22.4656 13.351 22.4156 13.361 22.3556 13.371C22.1468 13.4107 21.9307 13.3753 21.7456 13.271C21.5756 13.171 21.4256 13.171 21.2556 13.161C21.0856 13.151 20.9156 13.151 20.7256 13.051L20.7356 13.031C20.9256 13.131 21.0956 13.141 21.2556 13.141C21.4256 13.151 21.5856 13.151 21.7556 13.251C21.9956 13.391 22.2056 13.361 22.3556 13.351L22.5056 13.341C22.5956 13.351 22.6456 13.401 22.6856 13.431L22.7256 13.461C22.7256 13.381 22.6456 13.281 22.4956 13.241C22.4358 13.2152 22.3695 13.2082 22.3056 13.221C22.1756 13.231 22.0356 13.241 21.7656 13.081C21.5656 12.961 21.4156 12.951 21.2756 12.941C21.107 12.9418 20.9425 12.8893 20.8056 12.791C20.9956 12.891 21.1256 12.901 21.2756 12.911C21.4156 12.921 21.5656 12.941 21.7656 13.051C22.0256 13.201 22.1656 13.201 22.2956 13.191C22.3556 13.191 22.4156 13.181 22.4856 13.201C22.6456 13.251 22.7256 13.351 22.7356 13.411V13.421L22.7256 13.471V13.481Z" fill="#88402A"/>
<path fill-rule="evenodd" clip-rule="evenodd" d="M20.8154 12.9802C21.1954 13.1302 21.4454 12.9802 21.7754 13.1802C21.5454 12.9502 21.2454 13.1002 20.8554 12.9102L20.8154 12.9802Z" fill="#88402A"/>
<path fill-rule="evenodd" clip-rule="evenodd" d="M19.6349 12.5918L17.5749 15.0918C17.5749 15.0918 17.5349 15.1418 17.5649 15.1718C17.5849 15.2018 17.6249 15.1518 17.6249 15.1518L19.8449 12.8318L19.6349 12.5918Z" fill="#F2C549"/>
<path fill-rule="evenodd" clip-rule="evenodd" d="M17.595 15.1901C17.545 15.1501 17.565 15.1001 17.575 15.0801L19.635 12.5801L19.655 12.5901L17.595 15.0901C17.595 15.0901 17.565 15.1301 17.575 15.1501C17.595 15.1701 17.635 15.1301 17.635 15.1301L19.855 12.8101L17.655 15.1401C17.645 15.1601 17.615 15.1901 17.595 15.1901Z" fill="#88402A"/>
<path fill-rule="evenodd" clip-rule="evenodd" d="M19.6952 12.6504L18.2852 14.3604L19.8052 12.7704L19.6952 12.6504Z" fill="#88402A"/>
<path fill-rule="evenodd" clip-rule="evenodd" d="M18.855 13.2617C18.465 13.4217 18.345 13.7917 17.995 13.9217C17.635 14.0517 17.515 14.3517 17.405 14.4617C17.285 14.5717 17.175 14.5117 17.165 14.5617C17.165 14.6117 17.305 14.6617 17.485 14.5417C17.655 14.4217 17.655 14.2317 18.095 14.0717C18.535 13.9117 18.545 13.6317 18.955 13.5117L18.855 13.2617Z" fill="#F2C549"/>
<path fill-rule="evenodd" clip-rule="evenodd" d="M17.2653 14.6315C17.2343 14.6307 17.2037 14.6239 17.1753 14.6115L17.1553 14.5715C17.1553 14.5315 17.1853 14.5315 17.2153 14.5315C17.2553 14.5215 17.3253 14.5215 17.3953 14.4615C17.43 14.4253 17.4602 14.385 17.4853 14.3415C17.5853 14.2015 17.7153 14.0115 17.9853 13.9215C18.1653 13.8615 18.2753 13.7415 18.3953 13.6115C18.5153 13.4815 18.6453 13.3515 18.8453 13.2715L18.8553 13.2915C18.6653 13.3715 18.5353 13.5015 18.4153 13.6315C18.2953 13.7615 18.1753 13.8815 17.9953 13.9515C17.7879 14.03 17.6146 14.1786 17.5053 14.3715L17.4053 14.5015C17.3353 14.5715 17.2653 14.5715 17.2153 14.5815C17.1853 14.5815 17.1753 14.5815 17.1753 14.6015C17.2353 14.6515 17.3453 14.6615 17.4753 14.5715C17.5353 14.5315 17.5753 14.4815 17.6153 14.4315C17.6953 14.3315 17.7953 14.2115 18.0853 14.1015C18.3053 14.0215 18.4153 13.9115 18.5153 13.8115C18.628 13.6849 18.7733 13.5915 18.9353 13.5415C18.7353 13.6215 18.6353 13.7215 18.5253 13.8315C18.4153 13.9315 18.3053 14.0415 18.0853 14.1215C17.9018 14.1765 17.7406 14.2886 17.6253 14.4415C17.5853 14.4915 17.5453 14.5415 17.4753 14.5815C17.409 14.6111 17.3378 14.6281 17.2653 14.6315Z" fill="#88402A"/>
<path fill-rule="evenodd" clip-rule="evenodd" d="M18.8154 13.3809C18.4554 13.5709 18.3754 13.8909 18.0254 14.0009C18.3254 13.9809 18.4454 13.6309 18.8454 13.4609L18.8154 13.3809Z" fill="#88402A"/>
<path fill-rule="evenodd" clip-rule="evenodd" d="M19.8555 12.8314L21.9155 10.3314C21.9155 10.3314 21.9555 10.2814 21.9355 10.2514C21.9055 10.2214 21.8655 10.2614 21.8655 10.2614L19.6455 12.5814L19.8555 12.8314Z" fill="#F2C549"/>
<path fill-rule="evenodd" clip-rule="evenodd" d="M19.8555 12.8416L19.8455 12.8316L21.9055 10.3316C21.9055 10.3316 21.9355 10.2916 21.9155 10.2716C21.8955 10.2516 21.8655 10.2816 21.8655 10.2816L19.6455 12.6016L21.8555 10.2616C21.8655 10.2416 21.9055 10.2216 21.9355 10.2516C21.9555 10.2816 21.9355 10.3216 21.9255 10.3416L19.8555 12.8416Z" fill="#88402A"/>
<path fill-rule="evenodd" clip-rule="evenodd" d="M19.8053 12.7705L21.2153 11.0605L19.6953 12.6505L19.8053 12.7705Z" fill="#88402A"/>
<path fill-rule="evenodd" clip-rule="evenodd" d="M20.6352 12.1609C21.0252 12.0009 21.1352 11.6309 21.4952 11.5009C21.8552 11.3809 21.9752 11.0709 22.0852 10.9609C22.2052 10.8509 22.3152 10.9109 22.3152 10.8609C22.3152 10.8109 22.1852 10.7609 21.9952 10.8809C21.8152 11.0009 21.8152 11.1909 21.3852 11.3509C20.9452 11.5109 20.9352 11.7909 20.5352 11.9109L20.6352 12.1609Z" fill="#F2C549"/>
<path fill-rule="evenodd" clip-rule="evenodd" d="M20.6349 12.171V12.151C20.8249 12.071 20.9549 11.941 21.0749 11.811C21.1949 11.681 21.3149 11.551 21.5049 11.491C21.7099 11.4127 21.8801 11.2637 21.9849 11.071L22.0849 10.941C22.1549 10.871 22.2249 10.871 22.2749 10.861C22.3049 10.861 22.3149 10.851 22.3149 10.841C22.2549 10.791 22.1449 10.781 22.0149 10.871C21.9549 10.911 21.9149 10.961 21.8749 11.011C21.7543 11.165 21.5908 11.2798 21.4049 11.341C21.1849 11.421 21.0749 11.521 20.9649 11.631C20.8539 11.7597 20.7081 11.8534 20.5449 11.901C20.7449 11.821 20.8449 11.721 20.9549 11.611C21.0649 11.501 21.1749 11.401 21.3949 11.321C21.5767 11.2624 21.7368 11.151 21.8549 11.001L22.0049 10.851C22.1349 10.761 22.2549 10.761 22.3149 10.801L22.3449 10.851C22.3449 10.881 22.3149 10.881 22.2849 10.891C22.2534 10.8909 22.2221 10.8971 22.193 10.9091C22.1638 10.9211 22.1373 10.9387 22.1149 10.961C22.0775 11.001 22.044 11.0445 22.0149 11.091C21.9149 11.231 21.7849 11.421 21.5249 11.511C21.3449 11.571 21.2249 11.701 21.1049 11.821C20.9649 11.951 20.8349 12.081 20.6349 12.171Z" fill="#88402A"/>
<path fill-rule="evenodd" clip-rule="evenodd" d="M20.6753 12.0419C21.0353 11.8419 21.1153 11.5319 21.4753 11.4219C21.1753 11.4419 21.0553 11.7819 20.6553 11.9619L20.6753 12.0419Z" fill="#88402A"/>
<path fill-rule="evenodd" clip-rule="evenodd" d="M19.8546 12.5912L17.6346 10.2712C17.6346 10.2712 17.5946 10.2312 17.5746 10.2612C17.5446 10.2912 17.5846 10.3412 17.5846 10.3412L19.6446 12.8412L19.8546 12.5912Z" fill="#F2C549"/>
<path fill-rule="evenodd" clip-rule="evenodd" d="M19.6447 12.8313L17.5747 10.3413C17.5647 10.3213 17.5347 10.2813 17.5647 10.2513C17.5947 10.2213 17.6247 10.2513 17.6447 10.2613L19.8647 12.5813L19.8547 12.6013L17.6347 10.2813C17.6347 10.2813 17.5947 10.2513 17.5747 10.2713C17.5547 10.2913 17.5847 10.3313 17.5947 10.3313L19.6447 12.8313Z" fill="#88402A"/>
<path fill-rule="evenodd" clip-rule="evenodd" d="M19.8052 12.6505L18.2852 11.0605L19.6952 12.7705L19.8052 12.6505Z" fill="#88402A"/>
<path fill-rule="evenodd" clip-rule="evenodd" d="M19.2549 11.701C19.1149 11.261 18.7849 11.131 18.6749 10.731C18.5649 10.321 18.2949 10.191 18.1949 10.061C18.0949 9.93102 18.1549 9.80102 18.1049 9.79102C18.0549 9.79102 18.0149 9.95102 18.1249 10.151C18.2349 10.351 18.4049 10.351 18.5449 10.841C18.6849 11.331 18.9249 11.351 19.0349 11.801L19.2549 11.701Z" fill="#F2C549"/>
<path fill-rule="evenodd" clip-rule="evenodd" d="M19.0453 11.8013C18.9917 11.6336 18.9069 11.4775 18.7953 11.3413C18.6953 11.2213 18.6053 11.0913 18.5353 10.8513C18.4453 10.5313 18.3353 10.4212 18.2453 10.3212C18.1953 10.2712 18.1553 10.2313 18.1153 10.1613C18.0353 10.0013 18.0353 9.86125 18.0653 9.81125L18.1053 9.78125C18.1253 9.78125 18.1353 9.82125 18.1353 9.85125C18.1353 9.90125 18.1453 9.98125 18.1953 10.0513L18.3153 10.1613C18.4353 10.2713 18.6053 10.4213 18.6853 10.7213C18.7453 10.9213 18.8453 11.0512 18.9653 11.1912C19.0753 11.3312 19.1953 11.4712 19.2753 11.6912L19.2553 11.7013C19.1853 11.4813 19.0653 11.3413 18.9553 11.2013C18.8453 11.0613 18.7353 10.9313 18.6753 10.7213C18.5953 10.4313 18.4253 10.2813 18.3153 10.1713L18.1953 10.0613C18.1353 9.98125 18.1353 9.90125 18.1253 9.85125C18.1253 9.81125 18.1253 9.80125 18.1053 9.80125C18.0553 9.86125 18.0553 9.99125 18.1253 10.1413C18.1653 10.2113 18.2053 10.2513 18.2553 10.3013C18.3453 10.4013 18.4553 10.5113 18.5453 10.8313C18.6053 11.0713 18.7053 11.2012 18.7953 11.3212C18.8953 11.4512 18.9853 11.5713 19.0453 11.8013Z" fill="#88402A"/>
<path fill-rule="evenodd" clip-rule="evenodd" d="M19.1547 11.6617C18.9747 11.2517 18.6947 11.1717 18.5947 10.7617C18.6147 11.1017 18.9247 11.2317 19.0747 11.6917L19.1547 11.6617Z" fill="#88402A"/>
<path fill-rule="evenodd" clip-rule="evenodd" d="M19.6348 12.8318L21.8548 15.1518C21.8548 15.1518 21.8948 15.2018 21.9248 15.1718C21.9448 15.1418 21.9048 15.0918 21.9048 15.0918L19.8448 12.5918L19.6348 12.8318Z" fill="#F2C549"/>
<path fill-rule="evenodd" clip-rule="evenodd" d="M21.9048 15.1718C21.8748 15.1718 21.8548 15.1518 21.8548 15.1518L19.6348 12.8318L19.6448 12.8118L21.8648 15.1318C21.8648 15.1318 21.8948 15.1718 21.9148 15.1518C21.9348 15.1318 21.9048 15.0918 21.9048 15.0918L19.8448 12.5918L21.9148 15.0818C21.9348 15.1018 21.9548 15.1418 21.9248 15.1718H21.9048Z" fill="#88402A"/>
<path fill-rule="evenodd" clip-rule="evenodd" d="M19.6953 12.7704L21.2153 14.3604L19.8053 12.6504L19.6953 12.7704Z" fill="#88402A"/>
<path fill-rule="evenodd" clip-rule="evenodd" d="M20.2354 13.7213C20.3854 14.1613 20.7054 14.2913 20.8154 14.6913C20.9254 15.0913 21.1954 15.2313 21.2954 15.3513C21.3954 15.4813 21.3354 15.6213 21.3854 15.6213C21.4254 15.6213 21.4754 15.4613 21.3654 15.2613C21.2554 15.0613 21.0954 15.0613 20.9554 14.5713C20.8154 14.0813 20.5654 14.0613 20.4554 13.6113L20.2354 13.7213Z" fill="#F2C549"/>
<path fill-rule="evenodd" clip-rule="evenodd" d="M21.3856 15.6311C21.3556 15.6311 21.3556 15.5911 21.3556 15.5611C21.3552 15.49 21.3344 15.4206 21.2956 15.3611L21.1856 15.2511C21.0656 15.1411 20.8956 14.9911 20.8156 14.6911C20.7656 14.4911 20.6556 14.3611 20.5356 14.2211C20.4256 14.0811 20.3056 13.9411 20.2256 13.7211L20.2456 13.7111C20.3156 13.9311 20.4356 14.0711 20.5456 14.2111C20.6656 14.3511 20.7756 14.4811 20.8256 14.6911C20.9056 14.9811 21.0756 15.1311 21.1956 15.2411C21.2456 15.2811 21.2856 15.3111 21.3056 15.3511C21.3656 15.4311 21.3656 15.5111 21.3656 15.5611C21.3656 15.6011 21.3756 15.6111 21.3856 15.6111C21.4356 15.5411 21.4456 15.4211 21.3656 15.2711C21.3256 15.2011 21.2856 15.1611 21.2456 15.1111C21.1556 15.0111 21.0456 14.9011 20.9556 14.5811C20.907 14.4002 20.8181 14.2327 20.6956 14.0911C20.6056 13.9711 20.5156 13.8511 20.4556 13.6211C20.5256 13.8411 20.6156 13.9611 20.7156 14.0811C20.8056 14.2011 20.9056 14.3311 20.9756 14.5811C21.0656 14.9011 21.1756 15.0111 21.2656 15.1011C21.3156 15.1511 21.3556 15.1911 21.3956 15.2611C21.4756 15.4111 21.4756 15.5411 21.4456 15.6011L21.3856 15.6311Z" fill="#88402A"/>
<path fill-rule="evenodd" clip-rule="evenodd" d="M20.335 13.7505C20.505 14.1605 20.785 14.2505 20.885 14.6505C20.865 14.3105 20.565 14.1705 20.405 13.7305L20.335 13.7505Z" fill="#88402A"/>
<path fill-rule="evenodd" clip-rule="evenodd" d="M19.6054 12.6406L18.5554 15.8406C18.5554 15.8406 18.5354 15.9006 18.5654 15.9106C18.5954 15.9306 18.6254 15.8706 18.6254 15.8706L19.8854 12.7706L19.6054 12.6406Z" fill="#F2C549"/>
<path fill-rule="evenodd" clip-rule="evenodd" d="M18.5954 15.9306C18.5354 15.9106 18.5454 15.8706 18.5554 15.8406L19.6054 12.6406L19.6254 12.6506L18.5754 15.8506C18.5754 15.8506 18.5654 15.9006 18.5854 15.9106L18.6354 15.8706L19.8954 12.7706L18.6554 15.8806C18.6354 15.8806 18.6254 15.9106 18.5954 15.9306Z" fill="#88402A"/>
<path fill-rule="evenodd" clip-rule="evenodd" d="M19.6851 12.6816L18.9551 14.8716L19.8151 12.7416L19.6851 12.6816Z" fill="#88402A"/>
<path fill-rule="evenodd" clip-rule="evenodd" d="M19.1152 13.6016C18.8052 13.9216 18.8252 14.3116 18.5352 14.5816C18.2452 14.8516 18.2452 15.1816 18.1752 15.3416C18.1052 15.4916 17.9752 15.4816 17.9952 15.5316C18.0152 15.5816 18.1552 15.5616 18.2852 15.3716C18.4052 15.1816 18.3452 15.0116 18.6952 14.6716C19.0452 14.3416 18.9552 14.0716 19.2852 13.7816L19.1152 13.6016Z" fill="#F2C549"/>
<path fill-rule="evenodd" clip-rule="evenodd" d="M18.0354 15.5716H18.0254L17.9854 15.5416C17.9754 15.5116 18.0054 15.5016 18.0354 15.4816C18.0754 15.4516 18.1354 15.4216 18.1754 15.3416L18.2254 15.1816C18.2654 15.0116 18.3254 14.7816 18.5454 14.5816C18.6854 14.4416 18.7554 14.2816 18.8254 14.1116C18.8954 13.9416 18.9654 13.7616 19.1154 13.6016L19.1254 13.6216C18.9754 13.7816 18.9054 13.9516 18.8354 14.1216C18.7777 14.2999 18.6822 14.4636 18.5554 14.6016C18.3454 14.8016 18.2954 15.0216 18.2454 15.1916C18.2378 15.2473 18.2209 15.3014 18.1954 15.3516C18.1653 15.4182 18.112 15.4715 18.0454 15.5016C18.0154 15.5216 18.0054 15.5316 18.0154 15.5416C18.0854 15.5616 18.1954 15.5216 18.2854 15.3816C18.3221 15.323 18.3491 15.2588 18.3654 15.1916C18.4154 15.0616 18.4554 14.9116 18.6954 14.6816C18.8654 14.5116 18.9354 14.3716 18.9954 14.2216C19.0654 14.0716 19.1254 13.9416 19.2954 13.7916C19.1454 13.9516 19.0854 14.0916 19.0154 14.2316C18.9454 14.3816 18.8854 14.5316 18.7054 14.6916C18.4754 14.9116 18.4254 15.0616 18.3854 15.1916C18.3674 15.2614 18.3405 15.3286 18.3054 15.3916C18.1954 15.5116 18.0954 15.5716 18.0354 15.5716Z" fill="#88402A"/>
<path fill-rule="evenodd" clip-rule="evenodd" d="M19.115 13.7305C18.845 14.0605 18.885 14.3905 18.585 14.6405C18.855 14.4905 18.845 14.1205 19.155 13.7905L19.115 13.7305Z" fill="#88402A"/>
<path fill-rule="evenodd" clip-rule="evenodd" d="M19.8852 12.7702L20.9452 9.57018C20.9452 9.57018 20.9652 9.51018 20.9252 9.50018C20.8952 9.48018 20.8752 9.54018 20.8752 9.54018L19.6152 12.6402L19.8852 12.7702Z" fill="#F2C549"/>
<path fill-rule="evenodd" clip-rule="evenodd" d="M19.895 12.7802L19.875 12.7702L20.925 9.57023C20.925 9.57023 20.945 9.52023 20.925 9.51023L20.885 9.55023L19.625 12.6502L20.865 9.54023L20.905 9.49023L20.955 9.51023V9.57023L19.895 12.7802Z" fill="#88402A"/>
<path fill-rule="evenodd" clip-rule="evenodd" d="M19.8155 12.7408L20.5455 10.5508L19.6855 12.6808L19.8155 12.7408Z" fill="#88402A"/>
<path fill-rule="evenodd" clip-rule="evenodd" d="M20.3851 11.8111C20.6851 11.4911 20.6751 11.1011 20.9551 10.8311C21.2451 10.5611 21.2451 10.2311 21.3151 10.0711C21.3951 9.92109 21.5251 9.93109 21.5051 9.88109C21.4851 9.83109 21.3451 9.85109 21.2151 10.0311C21.0851 10.2211 21.1551 10.3911 20.8051 10.7311C20.4551 11.0611 20.5351 11.3311 20.2051 11.6211L20.3851 11.8111Z" fill="#F2C549"/>
<path fill-rule="evenodd" clip-rule="evenodd" d="M20.3954 11.8216L20.3854 11.8116C20.5354 11.6516 20.6054 11.4816 20.6754 11.3016C20.7454 11.1316 20.8054 10.9616 20.9554 10.8216C21.1654 10.6316 21.2254 10.4016 21.2654 10.2316L21.3154 10.0716C21.3454 10.005 21.3988 9.9517 21.4654 9.92164L21.5054 9.88164C21.4254 9.86164 21.3254 9.90164 21.2354 10.0416C21.1854 10.1016 21.1754 10.1716 21.1454 10.2316C21.0936 10.4305 20.9819 10.6086 20.8254 10.7416C20.6554 10.9016 20.5854 11.0516 20.5254 11.1916C20.4654 11.3416 20.3954 11.4816 20.2354 11.6216C20.3854 11.4616 20.4454 11.3216 20.5154 11.1816C20.5754 11.0416 20.6454 10.8916 20.8154 10.7216C21.0454 10.5016 21.0854 10.3516 21.1354 10.2216C21.1569 10.1515 21.1871 10.0843 21.2254 10.0216C21.3154 9.88164 21.4254 9.82164 21.4854 9.84164L21.5254 9.87164C21.5354 9.90164 21.5054 9.91164 21.4854 9.93164C21.4454 9.95164 21.3854 9.98164 21.3454 10.0716L21.2954 10.2316C21.2554 10.4016 21.1954 10.6316 20.9754 10.8316C20.8354 10.9616 20.7754 11.1316 20.6954 11.3016C20.6154 11.4816 20.5454 11.6616 20.3954 11.8216Z" fill="#88402A"/>
<path fill-rule="evenodd" clip-rule="evenodd" d="M20.3752 11.6915C20.6452 11.3515 20.6052 11.0315 20.9052 10.7715C20.6252 10.9215 20.6352 11.2915 20.3252 11.6215L20.3752 11.6915Z" fill="#88402A"/>
<path fill-rule="evenodd" clip-rule="evenodd" d="M19.8049 12.55L16.9649 11.36C16.9649 11.36 16.9149 11.34 16.8949 11.37C16.8849 11.41 16.9349 11.43 16.9349 11.43L19.6849 12.85L19.8049 12.55Z" fill="#F2C549"/>
<path fill-rule="evenodd" clip-rule="evenodd" d="M19.6951 12.8605L16.9451 11.4605C16.9251 11.4505 16.8851 11.4205 16.8951 11.3805C16.9151 11.3405 16.9551 11.3505 16.9751 11.3605L19.8151 12.5405V12.5605L16.9751 11.3805C16.9751 11.3805 16.9251 11.3605 16.9151 11.3905C16.9051 11.4205 16.9451 11.4405 16.9451 11.4405L19.6951 12.8605Z" fill="#88402A"/>
<path fill-rule="evenodd" clip-rule="evenodd" d="M19.7752 12.6305L17.8252 11.8105L19.7152 12.7905L19.7752 12.6305Z" fill="#88402A"/>
<path fill-rule="evenodd" clip-rule="evenodd" d="M18.9551 11.9903C18.6751 11.6403 18.3251 11.6703 18.0851 11.3403C17.8451 11.0203 17.5551 11.0103 17.4151 10.9403C17.2751 10.8603 17.2851 10.7103 17.2451 10.7303C17.2051 10.7503 17.2151 10.9103 17.3851 11.0503C17.5451 11.1903 17.7051 11.1203 18.0051 11.5103C18.3051 11.9103 18.5351 11.8103 18.7951 12.1803L18.9551 11.9903Z" fill="#F2C549"/>
<path fill-rule="evenodd" clip-rule="evenodd" d="M18.7853 12.1709C18.6453 11.9909 18.5253 11.9309 18.3953 11.8609C18.2653 11.7809 18.1353 11.7109 17.9853 11.5109C17.7953 11.2509 17.6553 11.2009 17.5453 11.1509C17.4795 11.1295 17.4184 11.0955 17.3653 11.0509C17.2453 10.9509 17.1953 10.8209 17.2053 10.7509L17.2353 10.7109C17.2553 10.7009 17.2753 10.7309 17.2953 10.7609C17.3153 10.8009 17.3453 10.8709 17.4253 10.9209L17.5553 10.9709C17.7053 11.0209 17.9153 11.0909 18.0953 11.3309C18.2153 11.4909 18.3553 11.5609 18.5153 11.6409C18.6753 11.7209 18.8253 11.8009 18.9753 11.9709L18.9553 11.9809C18.8153 11.8109 18.6553 11.7309 18.5153 11.6509C18.3553 11.5709 18.2153 11.4909 18.0853 11.3309C17.9153 11.0909 17.7053 11.0309 17.5553 10.9809L17.4153 10.9309C17.3512 10.8937 17.3045 10.8326 17.2853 10.7609C17.2753 10.7309 17.2653 10.7109 17.2553 10.7209C17.2353 10.8009 17.2753 10.9209 17.3953 11.0309C17.4553 11.0809 17.5053 11.1009 17.5653 11.1209C17.6853 11.1709 17.8153 11.2209 18.0153 11.4809C18.1553 11.6809 18.2953 11.7509 18.4153 11.8209C18.5353 11.9209 18.6653 11.9909 18.7853 12.1709Z" fill="#88402A"/>
<path fill-rule="evenodd" clip-rule="evenodd" d="M18.8452 12.0002C18.5452 11.7002 18.2552 11.7302 18.0352 11.4102C18.1752 11.7202 18.4952 11.7102 18.7952 12.0602L18.8452 12.0002Z" fill="#88402A"/>
<path fill-rule="evenodd" clip-rule="evenodd" d="M19.6855 12.8703L22.5155 14.0603C22.5155 14.0603 22.5655 14.0903 22.5855 14.0503C22.6055 14.0103 22.5455 13.9903 22.5455 13.9903L19.7955 12.5703L19.6855 12.8703Z" fill="#F2C549"/>
<path fill-rule="evenodd" clip-rule="evenodd" d="M22.5548 14.0705L22.5148 14.0605L19.6748 12.8705L19.6848 12.8505L22.5248 14.0405C22.5248 14.0405 22.5648 14.0605 22.5748 14.0305C22.5848 14.0005 22.5448 13.9805 22.5448 13.9805L19.7948 12.5605L22.5548 13.9605C22.5748 13.9705 22.6148 14.0005 22.5948 14.0405C22.5948 14.0605 22.5748 14.0705 22.5548 14.0705Z" fill="#88402A"/>
<path fill-rule="evenodd" clip-rule="evenodd" d="M19.7148 12.7909L21.6648 13.6009L19.7748 12.6309L19.7148 12.7909Z" fill="#88402A"/>
<path fill-rule="evenodd" clip-rule="evenodd" d="M20.5352 13.4305C20.8252 13.7805 21.1652 13.7605 21.4052 14.0805C21.6452 14.4105 21.9352 14.4105 22.0752 14.4805C22.2152 14.5605 22.2052 14.7105 22.2552 14.6905C22.2952 14.6705 22.2852 14.5105 22.1152 14.3605C21.9452 14.2205 21.7952 14.3005 21.5052 13.9105C21.2052 13.5205 20.9752 13.6105 20.7152 13.2305L20.5352 13.4305Z" fill="#F2C549"/>
<path fill-rule="evenodd" clip-rule="evenodd" d="M22.2452 14.7005C22.2252 14.7005 22.2152 14.6705 22.1952 14.6405C22.1721 14.5763 22.1303 14.5206 22.0752 14.4805C22.0308 14.4579 21.9838 14.4411 21.9352 14.4305C21.7852 14.3805 21.5752 14.3105 21.4052 14.0805C21.2944 13.9425 21.1497 13.8356 20.9852 13.7705C20.8352 13.6905 20.6752 13.6105 20.5352 13.4405L20.5452 13.4205C20.6852 13.5905 20.8452 13.6705 20.9952 13.7505C21.1452 13.8305 21.2952 13.9005 21.4152 14.0705C21.5852 14.3105 21.7952 14.3705 21.9352 14.4205L22.0752 14.4705C22.1552 14.5205 22.1852 14.5905 22.2052 14.6305C22.2152 14.6705 22.2252 14.6805 22.2352 14.6705C22.2552 14.5905 22.2252 14.4705 22.0952 14.3605C22.0453 14.3191 21.9874 14.2884 21.9252 14.2705C21.8052 14.2205 21.6752 14.1705 21.4752 13.9005C21.3718 13.756 21.2344 13.6392 21.0752 13.5605C20.9208 13.4871 20.7895 13.373 20.6952 13.2305C20.8352 13.4005 20.9552 13.4705 21.0852 13.5505C21.2152 13.6205 21.3452 13.7005 21.4952 13.8905C21.6852 14.1505 21.8152 14.2005 21.9352 14.2505C21.9979 14.2722 22.0557 14.3062 22.1052 14.3505C22.2452 14.4605 22.2752 14.5905 22.2652 14.6505L22.2452 14.6905V14.7005Z" fill="#88402A"/>
<path fill-rule="evenodd" clip-rule="evenodd" d="M20.6455 13.4213C20.9355 13.7313 21.2255 13.6813 21.4555 14.0113C21.3155 13.7013 20.9955 13.7113 20.7055 13.3613L20.6455 13.4213Z" fill="#88402A"/>
<path fill-rule="evenodd" clip-rule="evenodd" d="M19.6849 12.5508L16.9349 13.9708C16.9349 13.9708 16.8849 13.9908 16.8949 14.0308C16.9149 14.0708 16.9649 14.0408 16.9649 14.0408L19.8049 12.8508L19.6849 12.5508Z" fill="#F2C549"/>
<path fill-rule="evenodd" clip-rule="evenodd" d="M16.9348 14.071C16.9244 14.0719 16.9139 14.0694 16.9049 14.0641C16.896 14.0587 16.8889 14.0506 16.8848 14.041C16.8748 14.001 16.9048 13.971 16.9348 13.961L19.6848 12.541L19.6948 12.561L16.9448 13.981C16.9448 13.981 16.9048 14.001 16.9148 14.031C16.9248 14.061 16.9648 14.041 16.9748 14.041L19.8148 12.851L16.9848 14.051L16.9348 14.071Z" fill="#88402A"/>
<path fill-rule="evenodd" clip-rule="evenodd" d="M19.7152 12.6309L17.8252 13.6009L19.7752 12.7909L19.7152 12.6309Z" fill="#88402A"/>
<path fill-rule="evenodd" clip-rule="evenodd" d="M18.7353 12.8311C18.3153 12.8111 18.0853 13.1011 17.7153 13.0711C17.3453 13.0311 17.1353 13.2611 16.9953 13.3211C16.8453 13.3711 16.7653 13.2611 16.7453 13.3111C16.7253 13.3611 16.8453 13.4611 17.0453 13.4311C17.2553 13.4011 17.3153 13.2211 17.7653 13.2611C18.2253 13.3011 18.3253 13.0511 18.7453 13.1111V12.8311H18.7353Z" fill="#F2C549"/>
<path fill-rule="evenodd" clip-rule="evenodd" d="M16.9556 13.4412C16.8356 13.4412 16.7556 13.3912 16.7356 13.3512L16.7256 13.3012C16.7456 13.2712 16.7656 13.2812 16.7956 13.3012C16.8356 13.3212 16.9056 13.3412 16.9756 13.3112L17.1156 13.2412C17.2556 13.1512 17.4356 13.0412 17.7156 13.0612C17.9056 13.0812 18.0556 13.0212 18.2056 12.9512C18.3656 12.8812 18.5256 12.8212 18.7356 12.8312V12.8512C18.5356 12.8412 18.3656 12.9112 18.2056 12.9712C18.0527 13.0544 17.8793 13.0926 17.7056 13.0812C17.4951 13.0669 17.2862 13.1271 17.1156 13.2512L16.9856 13.3212C16.9532 13.3328 16.9189 13.3379 16.8846 13.3362C16.8503 13.3345 16.8166 13.326 16.7856 13.3112H16.7456C16.7856 13.3912 16.8756 13.4412 17.0356 13.4212C17.1056 13.4112 17.1556 13.3812 17.2156 13.3512C17.3356 13.2912 17.4556 13.2212 17.7656 13.2512C17.9364 13.2678 18.1085 13.2403 18.2656 13.1712C18.4056 13.1212 18.5356 13.0712 18.7456 13.1012C18.5256 13.0912 18.4056 13.1412 18.2656 13.1912C18.1256 13.2412 17.9856 13.2912 17.7556 13.2712C17.5694 13.2397 17.3781 13.2752 17.2156 13.3712C17.1556 13.4012 17.1056 13.4312 17.0356 13.4412H16.9556Z" fill="#88402A"/>
<path fill-rule="evenodd" clip-rule="evenodd" d="M18.6648 12.9219C18.2648 12.9419 18.0848 13.2019 17.7148 13.1519C18.0048 13.2619 18.2248 13.0019 18.6548 13.0119L18.6648 12.9219Z" fill="#88402A"/>
<path fill-rule="evenodd" clip-rule="evenodd" d="M19.8053 12.8719L22.5553 11.4519C22.5553 11.4519 22.6053 11.4319 22.5953 11.3919C22.5753 11.3519 22.5253 11.3819 22.5253 11.3819L19.6953 12.5719L19.8053 12.8719Z" fill="#F2C549"/>
<path fill-rule="evenodd" clip-rule="evenodd" d="M19.8055 12.8805L19.7955 12.8605L22.5455 11.4405C22.5455 11.4405 22.5955 11.4205 22.5755 11.3905C22.5655 11.3605 22.5255 11.3805 22.5255 11.3805L19.6855 12.5605L22.5155 11.3605C22.5355 11.3505 22.5855 11.3405 22.5955 11.3805C22.6155 11.4205 22.5755 11.4505 22.5555 11.4605L19.8055 12.8805Z" fill="#88402A"/>
<path fill-rule="evenodd" clip-rule="evenodd" d="M19.7748 12.7905L21.6648 11.8105L19.7148 12.6305L19.7748 12.7905Z" fill="#88402A"/>
<path fill-rule="evenodd" clip-rule="evenodd" d="M20.7549 12.5818C21.1649 12.6018 21.4049 12.3118 21.7749 12.3518C22.1449 12.3918 22.3549 12.1618 22.5049 12.1018C22.6549 12.0518 22.7349 12.1618 22.7649 12.1118C22.7849 12.0618 22.6649 11.9618 22.4649 11.9918C22.2649 12.0318 22.1949 12.2018 21.7449 12.1618C21.2949 12.1218 21.1849 12.3718 20.7649 12.3118V12.5818H20.7549Z" fill="#F2C549"/>
<path fill-rule="evenodd" clip-rule="evenodd" d="M20.7951 12.6012H20.7551V12.5812C20.9551 12.5912 21.1151 12.5212 21.2751 12.4612C21.4284 12.3789 21.6015 12.3409 21.7751 12.3512C22.0451 12.3812 22.2251 12.2612 22.3651 12.1812L22.4951 12.1112C22.5275 12.0995 22.5618 12.0944 22.5961 12.0961C22.6304 12.0978 22.6641 12.1064 22.6951 12.1212L22.7451 12.1312C22.7151 12.0612 22.6151 12.0012 22.4551 12.0212C22.3851 12.0312 22.3351 12.0612 22.2751 12.0912C22.1551 12.1512 22.0351 12.2212 21.7251 12.1912C21.5051 12.1712 21.3551 12.2212 21.2251 12.2712C21.0851 12.3212 20.9551 12.3712 20.7451 12.3412C20.9551 12.3512 21.0851 12.3012 21.2151 12.2512C21.3551 12.2012 21.4951 12.1512 21.7251 12.1712C21.9113 12.2026 22.1026 12.1672 22.2651 12.0712C22.3251 12.0412 22.3751 12.0112 22.4451 12.0012C22.6051 11.9712 22.7151 12.0212 22.7451 12.0812L22.7551 12.1312C22.7451 12.1612 22.7151 12.1512 22.6851 12.1412C22.656 12.126 22.624 12.1173 22.5912 12.1156C22.5584 12.1139 22.5257 12.1192 22.4951 12.1312C22.4551 12.1412 22.4151 12.1712 22.3651 12.2012C22.192 12.3287 21.9799 12.3923 21.7651 12.3812C21.5851 12.3612 21.4351 12.4312 21.2751 12.4912C21.1451 12.5312 20.9851 12.6012 20.7951 12.6012Z" fill="#88402A"/>
<path fill-rule="evenodd" clip-rule="evenodd" d="M20.835 12.4908C21.235 12.4708 21.415 12.2108 21.775 12.2608C21.485 12.1508 21.265 12.4208 20.835 12.4008V12.4908Z" fill="#88402A"/>
<path fill-rule="evenodd" clip-rule="evenodd" d="M19.8854 12.6402L18.6254 9.54018C18.6254 9.54018 18.6054 9.48018 18.5654 9.50018C18.5354 9.52018 18.5554 9.57018 18.5554 9.57018L19.6054 12.7702L19.8854 12.6402Z" fill="#F2C549"/>
<path fill-rule="evenodd" clip-rule="evenodd" d="M19.6149 12.7702L18.5449 9.58023V9.52024L18.5949 9.49023C18.6249 9.50023 18.6349 9.54023 18.6349 9.54023L19.8949 12.6402L19.8749 12.6502L18.5949 9.50023L18.5749 9.51023L18.5649 9.57023L19.6149 12.7702Z" fill="#88402A"/>
<path fill-rule="evenodd" clip-rule="evenodd" d="M19.8151 12.6808L18.9551 10.5508L19.6851 12.7408L19.8151 12.6808Z" fill="#88402A"/>
<path fill-rule="evenodd" clip-rule="evenodd" d="M19.6356 11.5704C19.6556 11.1004 19.3956 10.8404 19.4256 10.4204C19.4556 10.0004 19.2556 9.76038 19.2056 9.60038C19.1656 9.43038 19.2556 9.34037 19.2156 9.32037C19.1656 9.30037 19.0756 9.43037 19.1056 9.66037C19.1356 9.89037 19.2956 9.96038 19.2556 10.4804C19.2256 10.9904 19.4456 11.1104 19.3856 11.5804L19.6356 11.5704Z" fill="#F2C549"/>
<path fill-rule="evenodd" clip-rule="evenodd" d="M19.6453 11.5712H19.6253C19.6353 11.3412 19.5753 11.1613 19.5153 10.9813C19.4553 10.8013 19.3953 10.6313 19.4153 10.4213C19.4453 10.1113 19.3353 9.91125 19.2653 9.75125L19.1953 9.60125C19.1653 9.50125 19.1953 9.42125 19.2053 9.37125V9.31125C19.1353 9.35125 19.0953 9.46125 19.1053 9.64125C19.1153 9.72125 19.1453 9.78125 19.1653 9.84125C19.2153 9.97125 19.2853 10.1113 19.2553 10.4613C19.2353 10.7113 19.2853 10.8713 19.3253 11.0213C19.3653 11.1813 19.4153 11.3213 19.3853 11.5613C19.3953 11.3313 19.3553 11.1813 19.3053 11.0213C19.2653 10.8713 19.2153 10.7113 19.2353 10.4513C19.2553 10.1113 19.2053 9.97125 19.1453 9.84125C19.1136 9.77514 19.0934 9.70413 19.0853 9.63125C19.0653 9.45125 19.1053 9.33125 19.1553 9.29125L19.2053 9.28125C19.2353 9.29125 19.2253 9.32125 19.2053 9.36125C19.1759 9.42754 19.1723 9.50246 19.1953 9.57125L19.2653 9.72125C19.3353 9.87125 19.4453 10.0912 19.4253 10.4012C19.4053 10.6112 19.4653 10.7813 19.5253 10.9513C19.5953 11.1513 19.6553 11.3312 19.6453 11.5712Z" fill="#88402A"/>
<path fill-rule="evenodd" clip-rule="evenodd" d="M19.5555 11.4919C19.5355 11.0419 19.3055 10.8419 19.3555 10.4219C19.2555 10.7419 19.4955 11.0019 19.4855 11.4819L19.5555 11.4919Z" fill="#88402A"/>
<path fill-rule="evenodd" clip-rule="evenodd" d="M19.6055 12.7706L20.8655 15.8706C20.8655 15.8706 20.8855 15.9306 20.9155 15.9106C20.9555 15.9006 20.9355 15.8406 20.9355 15.8406L19.8755 12.6406L19.6055 12.7706Z" fill="#F2C549"/>
<path fill-rule="evenodd" clip-rule="evenodd" d="M20.9247 15.9304C20.8747 15.9204 20.8547 15.8804 20.8547 15.8804L19.5947 12.7804L19.6147 12.7704L20.8747 15.8704C20.8747 15.8704 20.8947 15.9204 20.9147 15.9104C20.9447 15.9004 20.9147 15.8504 20.9147 15.8504L19.8647 12.6504L20.9347 15.8404C20.9547 15.8604 20.9647 15.9104 20.9247 15.9304Z" fill="#88402A"/>
<path fill-rule="evenodd" clip-rule="evenodd" d="M19.6855 12.7416L20.5455 14.8716L19.8155 12.6816L19.6855 12.7416Z" fill="#88402A"/>
<path fill-rule="evenodd" clip-rule="evenodd" d="M19.8556 13.8518C19.8356 14.3218 20.0956 14.5818 20.0656 15.0018C20.0356 15.4218 20.2356 15.6618 20.2856 15.8218C20.3356 15.9818 20.2356 16.0818 20.2756 16.1018C20.3156 16.1218 20.4056 15.9918 20.3856 15.7618C20.3556 15.5318 20.1956 15.4618 20.2356 14.9418C20.2756 14.4318 20.0556 14.3118 20.1056 13.8418L19.8556 13.8518Z" fill="#F2C549"/>
<path fill-rule="evenodd" clip-rule="evenodd" d="M20.2747 16.1216C20.2447 16.1016 20.2547 16.0716 20.2747 16.0416C20.2847 15.9916 20.3147 15.9216 20.2847 15.8316L20.2147 15.6816C20.1447 15.5316 20.0347 15.3216 20.0547 15.0016C20.0747 14.7916 20.0147 14.6316 19.9647 14.4516C19.9047 14.2716 19.8447 14.0916 19.8447 13.8516H19.8647C19.8547 14.0816 19.9147 14.2716 19.9747 14.4416C20.0347 14.6216 20.0947 14.7916 20.0747 15.0016C20.0547 15.3016 20.1547 15.5116 20.2247 15.6716L20.2947 15.8216C20.3247 15.9216 20.3047 15.9916 20.2847 16.0516V16.1016C20.3447 16.0616 20.3947 15.9516 20.3747 15.7716C20.3668 15.7019 20.3465 15.6341 20.3147 15.5716C20.2647 15.4416 20.2047 15.3016 20.2247 14.9516C20.2447 14.7016 20.1947 14.5416 20.1547 14.3916C20.1147 14.2316 20.0647 14.0916 20.0947 13.8516C20.0847 14.0916 20.1347 14.2316 20.1747 14.3916C20.2147 14.5416 20.2647 14.7016 20.2447 14.9616C20.2247 15.3016 20.2847 15.4416 20.3347 15.5716L20.4047 15.7816C20.4247 15.9516 20.3847 16.0816 20.3347 16.1216H20.2747Z" fill="#88402A"/>
<path fill-rule="evenodd" clip-rule="evenodd" d="M19.9355 13.9316C19.9555 14.3816 20.1855 14.5816 20.1355 15.0016C20.2355 14.6716 19.9955 14.4216 20.0155 13.9416L19.9355 13.9316Z" fill="#88402A"/>
<path fill-rule="evenodd" clip-rule="evenodd" d="M19.7446 11.3203C20.4246 11.3203 20.9746 11.9403 20.9746 12.7103C20.9746 13.4803 20.4246 14.1003 19.7446 14.1003C19.0646 14.1003 18.5146 13.4803 18.5146 12.7103C18.5146 11.9403 19.0646 11.3203 19.7446 11.3203Z" fill="#F2C549"/>
<path fill-rule="evenodd" clip-rule="evenodd" d="M19.7449 11.3305C19.0749 11.3305 18.5149 11.9505 18.5149 12.7105C18.5149 13.4705 19.0649 14.0905 19.7449 14.0905C20.4249 14.0905 20.9649 13.4705 20.9649 12.7105C20.9649 11.9505 20.4249 11.3305 19.7449 11.3305ZM19.7449 14.1105C19.0649 14.1105 18.5049 13.4805 18.5049 12.7105C18.5049 11.9405 19.0649 11.3105 19.7449 11.3105C20.4249 11.3105 20.9849 11.9405 20.9849 12.7105C20.9849 13.4805 20.4349 14.1105 19.7449 14.1105Z" fill="#88402A"/>
<path fill-rule="evenodd" clip-rule="evenodd" d="M20.5252 12.4118C20.3052 12.2018 20.0352 12.1718 19.8752 12.3318C19.7652 12.4918 19.7752 12.6918 19.9052 12.8918C19.8903 12.8945 19.8764 12.9015 19.8652 12.9118C19.7743 12.7215 19.7565 12.5044 19.8152 12.3018C20.0352 12.1118 20.3152 12.0918 20.5252 12.4118Z" fill="#88402A"/>
<path fill-rule="evenodd" clip-rule="evenodd" d="M20.185 12.3418C20.055 12.3418 20.035 12.3718 19.975 12.4318C19.915 12.4818 19.885 12.4718 19.875 12.4918C19.865 12.5018 19.875 12.5318 19.895 12.5218C19.915 12.5118 19.955 12.4918 20.015 12.4318C20.065 12.3818 20.125 12.3818 20.185 12.3818C20.355 12.3818 20.445 12.5418 20.465 12.5318C20.485 12.5218 20.375 12.3418 20.185 12.3418Z" fill="#88402A"/>
<path fill-rule="evenodd" clip-rule="evenodd" d="M20.3951 12.531C20.2751 12.381 20.0451 12.371 19.9551 12.541H19.9951C20.0951 12.371 20.3251 12.441 20.3351 12.521V12.541L20.3951 12.531Z" fill="#88402A"/>
<path fill-rule="evenodd" clip-rule="evenodd" d="M20.1652 12.4219C20.2052 12.4219 20.2552 12.4619 20.2552 12.5219C20.2552 12.5719 20.2152 12.6219 20.1652 12.6219C20.1152 12.6219 20.0752 12.5819 20.0752 12.5219C20.0752 12.4619 20.1152 12.4219 20.1652 12.4219Z" fill="#88402A"/>
<path fill-rule="evenodd" clip-rule="evenodd" d="M19.9551 12.5415C20.0451 12.6315 20.2551 12.6515 20.3951 12.5315L20.3351 12.5215C20.316 12.5479 20.2912 12.5697 20.2626 12.5854C20.2341 12.601 20.2024 12.6101 20.1698 12.6121C20.1373 12.614 20.1047 12.6086 20.0745 12.5964C20.0443 12.5842 20.0172 12.5655 19.9951 12.5415V12.5215L19.9551 12.5415Z" fill="#88402A"/>
<path fill-rule="evenodd" clip-rule="evenodd" d="M20.4156 12.5805C20.2556 12.7205 20.0956 12.7105 19.9956 12.6505C19.9056 12.5805 19.9056 12.5605 19.9256 12.5605L20.0356 12.6205C20.1056 12.6605 20.2256 12.6605 20.4156 12.5805ZM19.9456 12.9005C19.9756 12.9105 19.9956 12.9505 19.9756 12.9805C19.9656 13.0105 19.9356 13.0305 19.9056 13.0205C19.8756 13.0105 19.8656 12.9905 19.8656 12.9605C19.8556 12.9805 19.8156 13.0405 19.7456 13.0405H19.7256L19.7456 13.0805C19.7656 13.0805 19.8156 13.0805 19.8556 13.0505C19.8856 13.0905 19.9356 13.1105 19.9756 13.0805C20.0156 13.0505 20.0256 12.9905 19.9956 12.9405L19.9456 12.9005ZM20.0556 13.3505C19.9756 13.2905 19.9356 13.1905 19.8356 13.1905C19.8035 13.1928 19.7726 13.2031 19.7456 13.2205H19.7256L19.7456 13.2505C19.7856 13.2505 19.8356 13.2005 19.9056 13.2405L20.0556 13.3505ZM20.0356 13.3505C19.8456 13.2905 19.8056 13.3305 19.7456 13.3305H19.7256L19.7456 13.3705C19.8256 13.3705 19.8556 13.3105 20.0356 13.3505Z" fill="#88402A"/>
<path fill-rule="evenodd" clip-rule="evenodd" d="M20.0548 13.3518C19.8548 13.3318 19.9148 13.4718 19.7448 13.4718H19.7248L19.7448 13.5018C19.9548 13.5018 19.8548 13.3718 20.0548 13.3518ZM19.9148 13.6918C19.9148 13.5918 19.8348 13.5018 19.7448 13.5018C19.6548 13.5018 19.5748 13.5918 19.5748 13.6918C19.5948 13.5818 19.6948 13.5218 19.7848 13.5518C19.8548 13.5618 19.9048 13.6218 19.9148 13.6918ZM18.9648 12.4118C19.1848 12.2018 19.4548 12.1718 19.6148 12.3318C19.7248 12.4918 19.7148 12.6918 19.5848 12.8918L19.6248 12.9118C19.7148 12.7118 19.7348 12.5018 19.6748 12.3018C19.4648 12.1118 19.1748 12.0918 18.9648 12.4118Z" fill="#88402A"/>
<path fill-rule="evenodd" clip-rule="evenodd" d="M19.3149 12.3418C19.4349 12.3418 19.4649 12.3718 19.5249 12.4318C19.5849 12.4818 19.6049 12.4718 19.6249 12.4918C19.6349 12.5018 19.6249 12.5318 19.6049 12.5218C19.5637 12.4978 19.5265 12.4674 19.4949 12.4318C19.4349 12.3818 19.3849 12.3818 19.3249 12.3818C19.1549 12.3818 19.0649 12.5418 19.0349 12.5318C19.0049 12.5218 19.1249 12.3418 19.3149 12.3418Z" fill="#88402A"/>
<path fill-rule="evenodd" clip-rule="evenodd" d="M19.0947 12.531C19.2147 12.381 19.4447 12.371 19.5447 12.541H19.5047C19.4147 12.371 19.1847 12.441 19.1647 12.521V12.541L19.0947 12.531Z" fill="#88402A"/>
<path fill-rule="evenodd" clip-rule="evenodd" d="M19.3351 12.4219C19.2851 12.4219 19.2451 12.4619 19.2451 12.5219C19.2451 12.5719 19.2851 12.6219 19.3351 12.6219C19.3751 12.6219 19.4151 12.5819 19.4151 12.5219C19.4151 12.4619 19.3751 12.4219 19.3351 12.4219Z" fill="#88402A"/>
<path fill-rule="evenodd" clip-rule="evenodd" d="M19.535 12.5415C19.435 12.6315 19.235 12.6515 19.085 12.5315L19.155 12.5215C19.245 12.6415 19.395 12.6315 19.495 12.5415V12.5215L19.535 12.5415Z" fill="#88402A"/>
<path fill-rule="evenodd" clip-rule="evenodd" d="M19.085 12.5805C19.245 12.7205 19.405 12.7105 19.505 12.6505C19.605 12.5805 19.595 12.5605 19.585 12.5605L19.475 12.6205C19.385 12.6605 19.275 12.6605 19.085 12.5805ZM19.545 12.9005C19.515 12.9105 19.505 12.9505 19.515 12.9805C19.525 13.0105 19.555 13.0305 19.585 13.0205C19.5964 13.0151 19.6062 13.0067 19.6133 12.9961C19.6203 12.9855 19.6244 12.9732 19.625 12.9605C19.635 12.9805 19.675 13.0405 19.745 13.0405H19.765L19.745 13.0805C19.725 13.0805 19.675 13.0805 19.635 13.0505C19.605 13.0905 19.555 13.1105 19.515 13.0805C19.475 13.0505 19.465 12.9905 19.485 12.9405C19.5024 12.9237 19.5227 12.9101 19.545 12.9005ZM19.435 13.3505C19.525 13.2905 19.555 13.1905 19.655 13.1905L19.755 13.2205H19.775L19.745 13.2505C19.705 13.2505 19.645 13.2005 19.585 13.2405L19.435 13.3505ZM19.465 13.3505C19.655 13.2905 19.695 13.3305 19.755 13.3305H19.775L19.745 13.3705C19.675 13.3705 19.635 13.3105 19.465 13.3505Z" fill="#88402A"/>
<path fill-rule="evenodd" clip-rule="evenodd" d="M19.4355 13.3516C19.6455 13.3316 19.5755 13.4716 19.7455 13.4716H19.7655L19.7455 13.5016C19.5355 13.5016 19.6355 13.3716 19.4355 13.3516ZM19.5755 13.6916C19.5755 13.5916 19.6555 13.5016 19.7455 13.5016C19.8355 13.5016 19.9155 13.5916 19.9155 13.6916C19.8955 13.5816 19.7955 13.5216 19.7055 13.5516C19.6723 13.5592 19.6422 13.5766 19.619 13.6016C19.5958 13.6265 19.5807 13.6579 19.5755 13.6916Z" fill="#88402A"/>
</g>
</g>
<defs>
<clipPath id="clip0_26003_54240">
<rect width="38" height="25" fill="white" transform="translate(0.745117 0.210938)"/>
</clipPath>
<clipPath id="clip1_26003_54240">
<rect width="38" height="25" fill="white" transform="translate(0.745117 0.210938)"/>
</clipPath>
</defs>
</svg>
