<svg width="38" height="26" viewBox="0 0 38 26" fill="none" xmlns="http://www.w3.org/2000/svg">
<g clip-path="url(#clip0_26003_82672)">
<g clip-path="url(#clip1_26003_82672)">
<path fill-rule="evenodd" clip-rule="evenodd" d="M2.5 25.5H35.6C36.9 25.2 37.9 24.1 38.1 22.6V3.4C37.9 1.9 36.9 0.7 35.6 0.5H2.5C1.2 0.8 0.2 1.9 0 3.4V22.6C0.2 24.1 1.2 25.2 2.5 25.5Z" fill="#96CFF1"/>
<path fill-rule="evenodd" clip-rule="evenodd" d="M11.5996 23.2992H26.3996L18.9996 2.69922L11.5996 23.2992Z" fill="#FEFEFE"/>
<path fill-rule="evenodd" clip-rule="evenodd" d="M12.5996 23.3H25.3996L18.9996 5.5L12.5996 23.3Z" fill="#242222"/>
<path fill-rule="evenodd" clip-rule="evenodd" d="M11.5996 23.3H26.3996L18.9996 13L11.5996 23.3Z" fill="#F5D71C"/>
</g>
</g>
<defs>
<clipPath id="clip0_26003_82672">
<rect width="38" height="25" fill="white" transform="translate(0 0.5)"/>
</clipPath>
<clipPath id="clip1_26003_82672">
<rect width="38" height="25" fill="white" transform="translate(0 0.5)"/>
</clipPath>
</defs>
</svg>
