<svg width="38" height="26" viewBox="0 0 38 26" fill="none" xmlns="http://www.w3.org/2000/svg">
<g clip-path="url(#clip0_26003_93900)">
<g clip-path="url(#clip1_26003_93900)">
<path fill-rule="evenodd" clip-rule="evenodd" d="M2.5 25.5H35.5C36.8 25.3 37.8 24.1 38 22.6V3.4C37.8 1.9 36.8 0.7 35.5 0.5H2.5C1.2 0.7 0.2 1.9 0 3.4V22.6C0.2 24.1 1.2 25.3 2.5 25.5Z" fill="#359642"/>
<path fill-rule="evenodd" clip-rule="evenodd" d="M10.8002 7.59906C10.8002 8.19906 10.7002 9.19906 11.2002 9.29906C11.7002 9.39906 11.4002 8.29906 11.6002 8.09906C11.6002 7.99906 11.7002 7.99906 11.7002 8.09906V8.99906C11.7002 9.29906 11.9002 9.39906 12.0002 9.39906C12.1002 9.39906 12.2002 9.39906 12.3002 9.59906C12.3002 10.0991 12.3002 10.5991 12.4002 11.1991C12.4002 11.1991 12.7002 11.2991 12.7002 10.2991C12.7002 9.69906 12.6002 9.19906 12.7002 9.09906C12.7002 8.99906 12.8002 8.99906 12.9002 8.99906C13.0002 9.19906 13.0002 9.29906 13.2002 9.29906C13.5002 9.19906 13.7002 8.99906 13.7002 8.69906C13.7002 8.39906 13.7002 8.19906 13.6002 7.89906C13.6002 7.79906 13.5002 7.69906 13.6002 7.69906C13.7002 7.79906 13.7002 7.79906 13.8002 7.69906C13.7002 7.49906 13.7002 7.29906 13.5002 7.19906C13.4002 7.09906 13.2002 7.09906 13.1002 7.39906C13.1002 7.69906 13.2002 7.99906 13.4002 8.29906C13.4002 8.39906 13.5002 8.59906 13.5002 8.69906C13.4002 8.79906 13.3002 8.69906 13.2002 8.59906C13.2002 8.59906 12.9002 8.39906 12.9002 8.29906C13.0002 7.79906 12.9002 7.69906 12.9002 7.59906C12.9002 7.39906 12.8002 7.29906 12.7002 7.19906C12.6002 7.09906 12.5002 7.09906 12.5002 7.19906C12.4002 7.39906 12.4002 7.89906 12.5002 8.09906L12.7002 8.49906C12.7002 8.59906 12.6002 8.59906 12.5002 8.49906C12.4002 8.19906 12.4002 7.79906 12.4002 7.59906C12.4002 7.39906 12.3002 6.89906 12.2002 6.79906C12.1002 6.59906 12.0002 6.69906 12.0002 6.79906V7.39906C12.1002 7.79906 12.1002 8.09906 12.2002 8.39906C12.2002 8.89906 11.9002 8.59906 12.0002 8.39906C12.1002 8.09906 12.0002 7.59906 12.0002 7.49906C12.0002 7.39906 11.9002 7.29906 11.8002 7.39906C11.7002 7.39906 11.5002 7.69906 11.4002 8.09906C11.4002 8.09906 11.3002 8.29906 11.3002 8.49906C11.3002 8.69906 11.1002 8.89906 11.0002 8.49906C10.9002 8.19906 10.9002 7.39906 10.8002 7.59906Z" fill="#FEFEFE"/>
<path fill-rule="evenodd" clip-rule="evenodd" d="M12.1998 10.0007C11.6998 10.3007 11.2998 10.5007 10.7998 10.8007C10.7998 10.4007 11.4998 9.80069 11.8998 9.80069C12.1998 9.70069 12.0998 9.90069 12.1998 10.0007Z" fill="#FEFEFE"/>
<path fill-rule="evenodd" clip-rule="evenodd" d="M13.2996 9.99922C13.2996 9.99922 13.3996 9.99922 13.3996 10.0992V10.2992H13.2996C13.1996 10.2992 13.1996 10.2992 13.1996 10.1992C13.1996 10.0992 13.1996 10.0992 13.2996 9.99922ZM13.9996 6.69922C13.8996 6.69922 13.8996 6.69922 13.9996 6.69922C13.7996 6.79922 13.6996 6.89922 13.6996 7.09922C13.7996 7.99922 13.8996 8.69922 14.0996 9.59922C14.0996 9.69922 13.9996 9.79922 13.8996 9.79922C13.6996 9.69922 13.6996 9.39922 13.3996 9.39922C13.1996 9.39922 12.8996 9.69922 12.8996 9.89922V10.4992C13.0996 10.6992 13.1996 10.6992 13.3996 10.5992C13.4996 10.4992 13.5996 10.3992 13.6996 10.3992C13.6996 10.4992 13.6996 10.8992 13.0996 11.2992C12.6996 11.4992 12.3996 11.4992 12.2996 11.1992C12.1996 10.9992 12.2996 10.1992 12.0996 10.2992C11.3996 12.3992 13.7996 12.6992 14.0996 10.3992C14.0996 10.2992 14.1996 10.2992 14.1996 10.2992V10.3992C14.0996 12.4992 12.2996 12.5992 11.9996 11.9992C11.8996 11.7992 11.8996 11.4992 11.8996 11.2992C11.8996 11.1992 11.8996 11.0992 11.7996 11.0992C11.6996 10.9992 11.5996 11.1992 11.5996 11.4992V11.9992C11.6996 13.6992 14.0996 12.9992 14.3996 11.5992C14.5996 10.8992 14.3996 10.3992 14.4996 10.2992C14.6996 10.5992 15.0996 10.2992 15.0996 10.1992C15.0996 10.0992 15.1996 10.0992 15.2996 10.1992C15.4996 10.2992 15.7996 10.2992 15.8996 9.99922C15.8996 9.69922 15.9996 9.49922 15.9996 9.19922C15.8996 9.19922 15.7996 9.29922 15.6996 9.29922V9.49922C15.6996 9.49922 15.5996 9.49922 15.5996 9.39922C15.4996 9.09922 15.2996 9.09922 15.1996 9.49922C15.0996 9.59922 14.8996 9.59922 14.8996 9.49922C14.8996 9.19922 14.7996 9.19922 14.5996 9.29922C14.4996 8.69922 14.4996 8.09922 14.3996 7.49922C14.4996 7.49922 14.5996 7.59922 14.6996 7.49922C14.2996 7.39922 14.1996 6.79922 13.9996 6.69922Z" fill="#FEFEFE"/>
<path fill-rule="evenodd" clip-rule="evenodd" d="M15.5995 6.90024C15.5995 6.90024 15.6995 6.90024 15.6995 7.00024V7.10024C15.6995 7.10024 15.5995 7.10024 15.5995 7.00024C15.4995 7.00024 15.4995 6.90024 15.5995 6.90024ZM15.5995 6.60024C15.4995 6.60024 15.4995 6.60024 15.3995 6.70024C15.2995 6.80024 15.2995 7.00024 15.2995 7.20024C15.3995 7.20024 15.4995 7.40024 15.3995 7.40024C15.0995 7.70024 14.4995 8.20024 14.3995 8.30024H14.8995C14.9995 8.20024 15.6995 7.30024 15.6995 7.30024L15.5995 7.20024V7.10024C15.7995 7.00024 15.6995 6.70024 15.5995 6.60024C15.6995 6.60024 15.6995 6.60024 15.5995 6.60024ZM10.8995 11.5002C10.5995 12.0002 10.5995 12.7002 10.7995 12.9002C10.8995 13.0002 10.9995 13.0002 11.0995 13.0002C11.2995 12.9002 11.2995 12.5002 11.2995 12.4002C11.1995 12.3002 11.1995 12.3002 11.0995 12.4002C10.9995 12.7002 10.8995 12.5002 10.8995 12.3002V11.5002C10.8995 11.4002 10.8995 11.3002 10.8995 11.5002ZM21.9995 10.7002C21.7995 10.1002 21.3995 9.50024 21.2995 9.30024C21.1995 9.10024 20.3995 7.70024 20.1995 7.50024C19.8995 7.10024 20.5995 7.70024 20.0995 6.90024L19.6995 6.50024C19.5995 6.40024 19.3995 6.30024 19.3995 6.50024V6.90024C19.3995 7.00024 19.5995 7.20024 19.5995 7.30024C20.4995 8.60024 21.1995 9.90024 21.8995 11.5002C22.0995 11.6002 22.0995 10.8002 21.9995 10.7002Z" fill="#FEFEFE"/>
<path fill-rule="evenodd" clip-rule="evenodd" d="M20.8996 12.7998C20.7996 12.8998 20.9996 13.0998 21.1996 13.0998C21.5996 13.0998 21.8996 12.7998 22.1996 12.1998C22.2996 12.0998 22.3996 11.6998 22.3996 11.4998C22.3996 10.0998 22.2996 8.99985 22.0996 7.99985V7.79985C22.0996 7.79985 22.1996 7.79984 22.1996 7.69984C22.2996 7.59984 21.9996 6.99985 21.8996 6.79985C21.8996 6.69985 21.7996 6.59985 21.7996 6.79985C21.6996 6.99985 21.6996 7.19985 21.6996 7.49985C21.8996 8.89985 21.8996 10.0998 21.9996 11.4998C21.9996 11.5998 21.9996 11.7998 21.8996 11.8998C21.7996 12.1998 21.2996 12.5998 20.8996 12.7998ZM25.8996 12.7998C25.5996 12.9998 25.5996 13.1998 25.7996 13.1998C26.1996 13.1998 26.5996 13.0998 26.8996 12.5998C26.9996 12.4998 27.0996 12.0998 27.0996 11.7998C27.0996 10.3998 27.0996 8.99985 26.8996 7.99985C26.8996 7.89985 26.7996 7.69985 26.8996 7.59985C26.8996 7.49985 26.9996 7.59985 27.0996 7.49985C27.1996 7.39985 26.7996 6.89985 26.6996 6.59985C26.6996 6.49985 26.5996 6.39985 26.5996 6.59985C26.4996 6.69985 26.4996 6.99985 26.4996 7.29985C26.6996 8.79985 26.7996 10.2998 26.8996 11.5998C26.8996 11.6998 26.8996 11.7998 26.7996 11.9998C26.6996 12.1998 26.5996 12.3998 26.3996 12.4998C26.2996 12.5998 25.9996 12.6998 25.8996 12.7998Z" fill="#FEFEFE"/>
<path fill-rule="evenodd" clip-rule="evenodd" d="M26.1003 11.4004V10.5004C26.1003 10.2004 26.0003 9.20039 25.9003 9.00039C25.9003 8.80039 25.8003 8.50039 25.8003 8.20039C25.8003 8.10039 25.7003 7.80039 25.8003 7.80039C25.8003 7.70039 25.9003 7.80039 25.9003 7.70039C26.0003 7.60039 25.7003 6.80039 25.5003 6.60039C25.5003 6.50039 25.4003 6.50039 25.2003 6.70039C25.1003 6.80039 25.1003 7.10039 25.2003 7.30039C25.5003 8.90039 25.7003 10.5004 25.6003 12.0004C25.7003 12.2004 26.1003 11.7004 26.1003 11.4004ZM24.2003 9.50039C24.0003 9.50039 23.7003 9.10039 23.6003 8.90039V8.60039C23.7003 8.60039 23.8003 8.50039 23.8003 8.60039L23.9003 8.70039C24.0003 8.80039 24.0003 8.70039 24.0003 8.70039V8.50039C24.0003 8.30039 24.3003 8.20039 24.3003 8.40039C24.4003 8.50039 24.4003 8.70039 24.4003 8.80039C24.4003 8.90039 24.3003 8.80039 24.3003 8.80039C24.2003 8.80039 24.2003 8.90039 24.2003 8.90039V9.50039ZM21.0003 11.8004V10.1004C21.0003 9.40039 20.9003 8.10039 20.8003 7.90039C20.8003 7.50039 21.0003 7.90039 21.0003 7.70039C20.9003 7.30039 20.7003 7.00039 20.5003 6.60039C20.4003 6.50039 20.4003 6.50039 20.3003 6.60039C20.2003 6.90039 20.3003 7.20039 20.3003 7.40039C20.5003 8.20039 20.6003 9.00039 20.6003 9.80039C20.6003 10.6004 20.7003 11.5004 20.6003 12.3004C20.8003 12.4004 21.0003 12.2004 21.0003 11.8004Z" fill="#FEFEFE"/>
<path fill-rule="evenodd" clip-rule="evenodd" d="M26.7004 10.9995C26.4004 10.4995 26.0004 9.7995 25.8004 9.5995C25.7004 9.3995 24.7004 7.6995 24.5004 7.5995C24.1004 7.1995 24.7004 7.4995 24.4004 7.1995C24.2004 6.9995 24.1004 6.8995 24.0004 6.6995C23.9004 6.5995 23.9004 6.4995 23.8004 6.6995V7.1995C23.9004 7.2995 24.0004 7.4995 24.0004 7.5995C24.9004 8.7995 25.9004 10.3995 26.7004 11.9995C26.8004 11.8995 26.8004 11.0995 26.7004 10.9995ZM23.3004 18.7995H24.5004C24.6004 18.8995 24.5004 18.9995 24.5004 18.9995H24.2004C24.2004 18.8995 23.9004 18.8995 23.9004 18.9995H23.4004C23.2004 18.9995 23.2004 18.7995 23.3004 18.7995ZM23.1004 17.6995C22.8004 17.7995 22.8004 18.0995 23.0004 18.1995H15.1004C14.6004 18.1995 13.0004 18.0995 12.9004 18.0995C13.2004 18.6995 13.7004 18.7995 14.4004 18.7995H23.0004C22.9004 18.9995 23.0004 19.3995 23.1004 19.4995C23.2004 19.4995 23.3004 19.3995 23.3004 19.3995H24.5004C24.6004 19.4995 24.6004 19.5995 24.7004 19.5995C24.9004 19.5995 25.1004 19.4995 25.1004 19.0995C25.1004 19.0995 25.1004 18.2995 24.6004 18.3995H24.2004C23.8004 18.3995 23.6004 18.3995 23.2004 18.2995C23.2004 18.1995 23.3004 17.9995 23.2004 17.9995H23.1004V17.6995ZM16.1004 7.0995C15.8004 7.9995 16.3004 8.8995 16.5004 8.7995C16.7004 8.8995 16.9004 8.4995 17.0004 7.9995C17.1004 7.8995 17.1004 7.7995 17.1004 7.8995C17.1004 8.5995 17.1004 8.6995 17.3004 8.8995C17.6004 9.1995 17.9004 8.8995 17.9004 8.8995L18.2004 8.5995C18.3004 8.4995 18.3004 8.4995 18.4004 8.5995C18.5004 8.6995 18.5004 8.7995 18.6004 8.8995C18.7004 8.9995 19.1004 8.8995 19.1004 8.7995C19.2004 8.5995 19.2004 8.4995 19.3004 8.4995C19.4004 8.3995 19.5004 8.3995 19.5004 8.4995C19.5004 8.5995 19.4004 8.5995 19.5004 8.6995C19.6004 8.7995 19.6004 8.6995 19.7004 8.6995C19.8004 8.5995 20.0004 8.1995 20.0004 8.1995C20.0004 7.9995 19.9004 8.0995 19.9004 8.0995C19.8004 8.0995 19.8004 8.1995 19.8004 8.1995C19.7004 8.1995 19.6004 8.2995 19.5004 8.0995C19.4004 7.8995 19.4004 7.6995 19.4004 7.4995C19.4004 7.4995 19.3004 7.1995 19.4004 7.1995C19.4004 7.1995 19.6004 7.1995 19.6004 7.0995C19.7004 6.9995 19.5004 6.6995 19.4004 6.5995C19.3004 6.4995 19.2004 6.4995 19.0004 6.5995C18.9004 6.6995 18.9004 6.7995 18.9004 6.8995C18.9004 6.9995 18.9004 7.1995 19.0004 7.2995C18.9004 7.5995 19.0004 7.8995 19.0004 8.1995C19.0004 8.1995 18.9004 8.3995 18.7004 8.3995C18.6004 8.3995 18.5004 8.2995 18.4004 7.7995C18.4004 7.3995 18.4004 6.7995 18.3004 6.5995C18.2004 6.3995 18.2004 6.2995 18.1004 6.5995C18.1004 6.6995 17.9004 6.8995 18.0004 7.1995C18.1004 7.3995 18.1004 7.6995 18.1004 8.0995C18.0004 8.1995 18.0004 8.1995 18.0004 8.2995C17.9004 8.3995 17.8004 8.3995 17.7004 8.3995C17.6004 8.2995 17.5004 8.2995 17.5004 8.0995V7.0995C17.4004 6.8995 17.3004 6.9995 17.2004 6.9995C16.9004 7.2995 16.8004 7.7995 16.7004 8.1995C16.6004 8.4995 16.5004 8.3995 16.5004 8.2995C16.3004 8.0995 16.3004 6.8995 16.1004 7.0995Z" fill="#FEFEFE"/>
<path fill-rule="evenodd" clip-rule="evenodd" d="M17.8005 11.1C18.0005 11.2 18.3005 11.2 18.5005 11.2C18.7005 11.2 18.8005 11.4 18.6005 11.4C18.4005 11.5 18.3005 11.5 18.3005 11.8V12C18.3005 12 18.2005 12 18.2005 11.9C18.1005 11.8 17.8005 11.6 17.8005 11.2C17.7005 11.2 17.7005 11.1 17.8005 11.1ZM19.3005 9.6H19.4005C19.5005 9.6 19.5005 9.7 19.5005 9.7H19.3005C19.3005 9.7 19.2005 9.7 19.3005 9.6ZM17.0005 8.9C16.8005 9.1 16.8005 9.2 16.8005 9.4C16.8005 9.4 16.9005 9.9 17.1005 10.2C17.2005 10.5 17.3005 10.9 17.2005 11.3C17.0005 11.8 16.6005 12.2 16.2005 12.4C16.0005 12.5 15.8005 12.4 15.8005 12.4C15.7005 12.3 15.7005 12.2 15.7005 12.1C16.0005 11.8 16.4005 11.6 16.7005 11C16.8005 10.7 16.8005 10.6 16.7005 10.2C16.7005 10.1 16.6005 9.9 16.5005 9.8C16.6005 9.8 16.7005 9.9 16.7005 9.8C16.7005 9.6 16.6005 9.4 16.4005 9.2C16.3005 9.1 16.2005 9.1 16.1005 9.2C16.0005 9.3 16.0005 9.6 16.1005 9.8C16.2005 10 16.3005 10 16.5005 10.3V10.7C16.5005 10.9 15.8005 11.4 15.8005 11.5V11C15.6005 11.2 15.5005 11.6 15.5005 11.8C15.0005 12.2 14.4005 12.5 14.0005 12.9C13.8005 13.2 15.2005 12.5 15.4005 12.5C15.4005 12.5 15.4005 12.7 15.5005 12.8C15.6005 13 16.0005 13.2 16.3005 13.1C16.8005 12.9 17.1005 12.5 17.4005 12.1C17.4005 12 17.5005 12 17.6005 12C17.8005 12.5 18.4005 12.9 19.2005 12.9C19.4005 12.7 19.3005 12.5 19.2005 12.5C19.2005 12.5 18.8005 12.3 18.8005 12.2C18.8005 12.1 18.8005 11.9 19.0005 11.8C19.5005 11.7 20.0005 11.7 20.5005 11.5C20.5005 11.3 20.6005 11.1 20.7005 10.9C20.7005 10.8 20.8005 10.8 20.8005 10.8L20.7005 10.7H19.1005H19.2005C19.6005 10.6 20.3005 10.5 20.3005 9.8C20.3005 9.4 20.2005 9.2 19.7005 9.1C19.4005 9.1 19.2005 9.5 19.2005 9.8C19.2005 9.9 19.2005 10.1 19.1005 10.1C18.5005 10.2 17.9005 10.6 17.9005 10.9C17.9005 10.9 17.8005 10.8 17.8005 10.7C17.8005 10.2 17.6005 9.6 17.4005 9.2C17.1005 8.9 17.0005 8.9 17.0005 8.9ZM12.7005 7.1C12.9005 7.2 13.2005 7.2 13.2005 6.8V6.6C13.2005 6.5 13.1005 6.5 13.0005 6.6V6.7C13.0005 6.7 12.9005 6.7 12.9005 6.6V6.5V6.7V6.6C12.8005 6.6 12.8005 6.7 12.8005 6.8C12.6005 6.8 12.6005 7.1 12.7005 7.1Z" fill="#FEFEFE"/>
<path fill-rule="evenodd" clip-rule="evenodd" d="M18.1 9.70069C18.3 9.80069 18.7 9.70069 18.6 9.40069V9.20069C18.6 9.10069 18.5 9.10069 18.4 9.20069V9.30069C18.4 9.30069 18.3 9.30069 18.3 9.20069V9.1007C18 9.2007 18 9.30069 18 9.40069C18 9.40069 18 9.60069 18.1 9.70069ZM21.2 8.6007C21.4 8.7007 21.7 8.60069 21.7 8.30069V8.10069C21.7 8.00069 21.6 8.00069 21.5 8.10069V8.20069C21.5 8.20069 21.4 8.20069 21.4 8.10069V8.00069C21.3 8.00069 21.3 8.10069 21.3 8.20069C21.1 8.30069 21.1 8.50069 21.2 8.6007ZM22.8 11.3007C22.5 11.7007 22.6 12.4007 22.7 12.5007C22.8 12.7007 22.9 12.9007 23.1 13.0007C23.3 13.2007 23.4 13.1007 23.5 13.0007C23.7 12.8007 23.7 12.2007 23.8 12.1007C23.9 11.9007 24 11.9007 24.1 12.0007L24.4 12.3007C24.6 12.5007 24.8 12.5007 25 12.3007C25.1 12.2007 25.2 12.1007 25.3 11.9007C25.4 11.6007 25.3 10.1007 25.3 9.40069C25.3 9.30069 25.1 8.40069 25.1 8.40069V7.70069L25.2 7.80069C25.2 7.80069 25.3 7.70069 25.3 7.60069C25.2 7.30069 25 7.00069 24.9 6.70069C24.9 6.70069 24.8 6.60069 24.8 6.70069C24.7 6.80069 24.7 6.80069 24.7 7.00069C24.7 7.20069 24.7 7.40069 24.8 7.60069C24.9 8.00069 24.9 8.30069 25 8.70069C25.1 9.50069 25.1 10.2007 25.1 11.0007C25.1 11.3007 25 11.8007 24.9 11.8007C24.9 11.8007 24.8 11.9007 24.7 11.8007C24.6 11.8007 24.4 11.3007 24.4 11.3007C24.3 11.2007 24.2 11.2007 24.1 11.3007C23.8 11.6007 23.7 12.1007 23.6 12.5007C23.6 12.6007 23.4 12.7007 23.3 12.5007C22.7 11.8007 22.9 11.1007 22.8 11.3007ZM21.3 6.70069C21.5 6.80069 21.6 7.10069 21.5 7.30069C21.5 7.50069 21.4 7.80069 21.3 7.70069C21.2 7.70069 21.3 7.50069 21.3 7.30069C21.3 7.20069 21 6.90069 21.1 6.90069C21.1 6.70069 21.2 6.70069 21.3 6.70069Z" fill="#FEFEFE"/>
<path fill-rule="evenodd" clip-rule="evenodd" d="M23.3996 11.5004V10.5004C23.3996 10.2004 23.0996 8.10039 23.0996 7.90039C22.9996 7.50039 23.2996 7.90039 23.2996 7.60039C23.1996 7.30039 22.8996 6.90039 22.7996 6.70039C22.6996 6.60039 22.7996 6.50039 22.6996 6.70039C22.5996 7.10039 22.5996 7.40039 22.5996 7.60039C22.8996 9.20039 23.0996 10.6004 23.0996 12.1004C23.0996 12.1004 23.2996 11.8004 23.3996 11.5004ZM26.0996 7.20039C26.2996 7.30039 26.2996 7.80039 26.2996 7.90039C26.2996 8.10039 26.1996 8.40039 26.0996 8.40039C25.9996 8.40039 26.0996 8.00039 26.0996 7.90039C26.0996 7.80039 25.8996 7.50039 25.8996 7.40039C25.8996 7.30039 26.0996 7.20039 26.0996 7.20039ZM15.0996 10.6004C15.1996 10.7004 15.2996 11.0004 15.2996 11.1004C15.2996 11.3004 15.1996 11.5004 15.0996 11.4004C14.9996 11.4004 15.0996 11.1004 15.0996 11.1004C15.0996 10.9004 14.8996 10.8004 14.8996 10.7004C14.8996 10.6004 14.9996 10.6004 15.0996 10.6004ZM11.2996 6.60039C11.4996 6.70039 11.4996 7.00039 11.4996 7.10039C11.4996 7.30039 11.3996 7.50039 11.2996 7.50039C11.1996 7.50039 11.2996 7.20039 11.2996 7.10039C11.2996 7.00039 11.0996 6.80039 11.0996 6.70039C11.0996 6.60039 11.1996 6.50039 11.2996 6.60039ZM15.3996 8.20039C15.1996 8.30039 15.1996 8.60039 15.2996 8.80039C15.3996 8.90039 15.4996 8.90039 15.5996 8.90039C15.7996 8.90039 15.8996 8.60039 15.8996 8.60039C15.8996 8.60039 15.8996 8.50039 15.6996 8.70039C15.5996 8.70039 15.5996 8.70039 15.5996 8.60039V8.30039C15.5996 8.20039 15.4996 8.20039 15.3996 8.20039ZM16.5996 6.40039C16.4996 6.50039 16.3996 6.70039 16.3996 6.90039V7.10039C16.4996 7.20039 16.4996 7.20039 16.5996 7.10039C16.6996 7.10039 16.6996 7.00039 16.6996 6.90039C16.6996 6.80039 16.5996 7.00039 16.4996 6.80039C16.4996 6.70039 16.5996 6.60039 16.6996 6.50039C16.6996 6.40039 16.6996 6.40039 16.5996 6.40039ZM17.5996 6.60039C17.5996 6.70039 17.4996 7.10039 17.4996 7.10039C17.4996 7.20039 17.5996 7.30039 17.6996 7.10039C17.7996 6.80039 17.7996 6.60039 17.7996 6.50039C17.7996 6.40039 17.6996 6.40039 17.5996 6.60039ZM23.6996 10.2004L24.5996 9.50039C24.6996 9.50039 24.6996 9.80039 24.5996 9.80039C24.5996 9.90039 23.7996 10.5004 23.6996 10.5004V10.2004ZM24.4996 10.2004C24.6996 10.3004 24.6996 10.8004 24.6996 10.9004C24.6996 11.2004 24.5996 11.4004 24.4996 11.3004C24.3996 11.3004 24.4996 11.0004 24.4996 10.9004C24.4996 10.8004 24.2996 10.5004 24.3996 10.4004C24.2996 10.2004 24.3996 10.1004 24.4996 10.2004ZM19.4996 12.3004L19.6996 12.1004C19.7996 12.0004 19.8996 12.1004 19.8996 12.1004C19.8996 12.2004 19.7996 12.3004 19.8996 12.4004C19.8996 12.4004 19.8996 12.5004 19.9996 12.5004C20.0996 12.4004 20.2996 12.4004 20.3996 12.4004C20.4996 12.4004 20.4996 12.6004 20.3996 12.6004C20.1996 12.7004 19.9996 12.7004 19.8996 12.8004C19.7996 12.9004 19.6996 12.8004 19.6996 12.8004V12.6004C19.6996 12.5004 19.6996 12.4004 19.5996 12.4004C19.4996 12.4004 19.4996 12.5004 19.4996 12.4004V12.3004ZM25.3996 12.5004C25.3996 12.6004 25.4996 12.6004 25.3996 12.7004L25.1996 12.9004V13.1004C25.3996 13.2004 25.6996 12.9004 25.6996 12.9004C25.7996 12.9004 25.6996 12.8004 25.6996 12.8004H25.4996C25.4996 12.8004 25.3996 12.8004 25.3996 12.7004C25.3996 12.6004 25.3996 12.6004 25.4996 12.6004C25.4996 12.5004 25.4996 12.5004 25.3996 12.5004H25.1996C25.0996 12.5004 25.0996 12.5004 25.0996 12.6004C25.2996 12.5004 25.2996 12.5004 25.3996 12.5004Z" fill="#FEFEFE"/>
</g>
</g>
<defs>
<clipPath id="clip0_26003_93900">
<rect width="38" height="25" fill="white" transform="translate(0 0.5)"/>
</clipPath>
<clipPath id="clip1_26003_93900">
<rect width="38" height="25" fill="white" transform="translate(0 0.5)"/>
</clipPath>
</defs>
</svg>
