<svg width="38" height="26" viewBox="0 0 38 26" fill="none" xmlns="http://www.w3.org/2000/svg">
<g clip-path="url(#clip0_26003_82661)">
<g clip-path="url(#clip1_26003_82661)">
<path fill-rule="evenodd" clip-rule="evenodd" d="M0 3.4V20L26 0.5H2.5C1.2 0.8 0.2 1.9 0 3.4Z" fill="#36A83A"/>
<path fill-rule="evenodd" clip-rule="evenodd" d="M12 25.5004H35.6C36.9 25.2004 37.9 24.1004 38.1 22.6004V5.90039L12 25.5004Z" fill="#C12837"/>
<path fill-rule="evenodd" clip-rule="evenodd" d="M26 0.5L0 20V22.1L28.8 0.5H26ZM9.2 25.5H12L38 5.9V3.9L9.2 25.5Z" fill="#F5D71C"/>
<path fill-rule="evenodd" clip-rule="evenodd" d="M28.8 0.5L0 22.1V22.6C0.2 24.1 1.2 25.3 2.5 25.5H9.2L38 3.9V3.4C37.8 1.9 36.8 0.7 35.5 0.5H28.8Z" fill="#242222"/>
<path fill-rule="evenodd" clip-rule="evenodd" d="M27.5004 5.29961L25.6004 6.69961L23.8004 5.09961L24.4004 7.59961L22.4004 9.09961L24.1004 9.19961H24.8004L25.4004 11.6996L26.2004 9.29961L28.5004 9.39961L26.7004 7.69961L26.9004 6.99961L27.5004 5.29961ZM14.5004 15.0996L12.5004 16.4996L10.7004 14.8996L11.3004 17.3996L9.40039 18.8996L11.0004 18.9996H11.7004L12.3004 21.4996L13.1004 19.0996L15.5004 19.1996L13.6004 17.5996L13.9004 16.7996L14.5004 15.0996Z" fill="#FEFEFE"/>
</g>
</g>
<defs>
<clipPath id="clip0_26003_82661">
<rect width="38" height="25" fill="white" transform="translate(0 0.5)"/>
</clipPath>
<clipPath id="clip1_26003_82661">
<rect width="38" height="25" fill="white" transform="translate(0 0.5)"/>
</clipPath>
</defs>
</svg>
