<svg width="38" height="26" viewBox="0 0 38 26" fill="none" xmlns="http://www.w3.org/2000/svg">
<g clip-path="url(#clip0_26003_74095)">
<g clip-path="url(#clip1_26003_74095)">
<path fill-rule="evenodd" clip-rule="evenodd" d="M0 5.5H38V3.4C37.8 1.9 36.8 0.7 35.5 0.5H2.5C1.2 0.8 0.2 1.9 0 3.4V5.5ZM2.5 25.5H35.6C36.9 25.2 37.9 24.1 38.1 22.6V20.5H0V22.6C0.2 24.1 1.2 25.2 2.5 25.5Z" fill="#2C793D"/>
<path fill-rule="evenodd" clip-rule="evenodd" d="M0 5.5H38V8H0V5.5ZM0 18H38V20.5H0V18Z" fill="#FEFEFE"/>
<path fill-rule="evenodd" clip-rule="evenodd" d="M0 8H38V18H0V8Z" fill="#C6273E"/>
<path fill-rule="evenodd" clip-rule="evenodd" d="M21.7002 17.7008L19.0002 15.5008L16.3002 17.7008L17.3002 14.1008L14.7002 11.9008H18.0002L19.0002 8.30078L20.0002 11.9008H23.3002L20.7002 14.1008L21.7002 17.7008Z" fill="#F7D40E"/>
</g>
</g>
<defs>
<clipPath id="clip0_26003_74095">
<rect width="38" height="25" fill="white" transform="translate(0 0.5)"/>
</clipPath>
<clipPath id="clip1_26003_74095">
<rect width="38" height="25" fill="white" transform="translate(0 0.5)"/>
</clipPath>
</defs>
</svg>
