<svg width="38" height="26" viewBox="0 0 38 26" fill="none" xmlns="http://www.w3.org/2000/svg">
<g clip-path="url(#clip0_26003_70627)">
<g clip-path="url(#clip1_26003_70627)">
<path fill-rule="evenodd" clip-rule="evenodd" d="M2.5 25.5H35.6C36.9 25.2 37.9 24.1 38.1 22.6V3.4C37.9 1.9 36.9 0.7 35.6 0.5H2.5C1.2 0.8 0.2 1.9 0 3.4V22.6C0.2 24.1 1.2 25.2 2.5 25.5Z" fill="#FEFEFE"/>
<path fill-rule="evenodd" clip-rule="evenodd" d="M2.5 25.4992H35.6C36.9 25.1992 37.9 24.0992 38.1 22.5992V17.1992H0V22.5992C0.2 24.0992 1.2 25.1992 2.5 25.4992Z" fill="#E42229"/>
<path fill-rule="evenodd" clip-rule="evenodd" d="M0 8.80078H38V17.1008H0V8.80078Z" fill="#4A5AA5"/>
<path fill-rule="evenodd" clip-rule="evenodd" d="M8.4002 5.30078C8.3002 5.30078 8.3002 5.40078 8.2002 5.40078L8.4002 9.20078C8.5002 10.2008 8.8002 11.2008 9.5002 11.9008C9.9002 12.4008 10.5002 12.8008 11.1002 13.0008C11.7002 12.8008 12.2002 12.4008 12.7002 11.9008C13.4002 11.2008 13.7002 10.2008 13.8002 9.20078L14.0002 5.40078C13.9002 5.40078 13.9002 5.30078 13.8002 5.30078L13.6002 9.20078C13.5002 10.2008 13.2002 11.1008 12.6002 11.8008C12.2002 12.3008 11.7002 12.6008 11.2002 12.8008C10.4971 12.494 9.89697 11.9916 9.47145 11.3533C9.04592 10.715 8.81291 9.9678 8.8002 9.20078L8.4002 5.30078Z" fill="#E42229"/>
<path fill-rule="evenodd" clip-rule="evenodd" d="M13.8004 5.2997C12.9574 4.89668 12.0348 4.6875 11.1004 4.6875C10.166 4.6875 9.24342 4.89668 8.40039 5.2997L8.60039 9.1997C8.70039 10.1997 9.00039 11.0997 9.60039 11.7997C10.0004 12.2997 10.5004 12.5997 11.0004 12.7997C11.7035 12.493 12.3036 11.9905 12.7291 11.3522C13.1547 10.7139 13.3877 9.96673 13.4004 9.1997L13.8004 5.2997Z" fill="#4A5AA5"/>
<path fill-rule="evenodd" clip-rule="evenodd" d="M11.2996 6.5L11.3996 6.3H11.1996L11.0996 6.1L10.9996 6.3H10.7996L10.8996 6.5L10.7996 6.7L10.9996 6.6L11.0996 6.8L11.1996 6.6L11.3996 6.7L11.2996 6.5ZM10.4996 5.3L10.5996 5.2H10.3996L10.2996 5V5.2H10.0996L10.1996 5.3L10.0996 5.5H10.2996V5.7L10.3996 5.5H10.5996L10.4996 5.3ZM11.9996 5.3L12.0996 5.2H11.8996V5L11.7996 5.2H11.5996L11.6996 5.3L11.5996 5.5H11.7996L11.8996 5.7V5.5H12.0996L11.9996 5.3Z" fill="#F8EB02"/>
<path fill-rule="evenodd" clip-rule="evenodd" d="M13.3004 9.70078L12.2004 8.10078L11.8004 8.80078L11.1004 7.30078L10.4004 8.80078L10.0004 8.10078L8.90039 9.70078C8.90039 9.90078 9.00039 10.1008 9.10039 10.3008C9.20039 10.5008 9.40039 10.5008 9.60039 10.5008C9.70039 10.5008 9.90039 10.5008 10.0004 10.4008C10.1004 10.4008 10.1004 10.3008 10.2004 10.3008C10.4004 10.2008 10.6004 10.3008 10.7004 10.4008C10.8004 10.5008 10.9004 10.5008 11.1004 10.5008C11.2004 10.5008 11.3004 10.5008 11.5004 10.4008C11.7004 10.3008 11.9004 10.3008 12.1004 10.3008C12.2004 10.3008 12.2004 10.3008 12.3004 10.4008C12.4004 10.5008 12.5004 10.5008 12.7004 10.5008C12.9004 10.5008 13.1004 10.4008 13.2004 10.3008C13.2004 10.2008 13.3004 10.0008 13.3004 9.70078ZM9.20039 10.6008C9.20039 10.7008 9.30039 10.8008 9.40039 10.9008C9.60039 11.0008 9.70039 11.0008 9.90039 10.9008C10.0004 10.9008 10.0004 10.9008 10.1004 10.8008C10.2004 10.7008 10.3004 10.7008 10.5004 10.7008C10.6004 10.7008 10.8004 10.7008 10.9004 10.8008C11.1004 10.9008 11.3004 10.9008 11.4004 10.9008C11.5004 10.9008 11.5004 10.9008 11.6004 10.8008C11.7004 10.7008 11.8004 10.7008 12.0004 10.7008C12.1004 10.7008 12.3004 10.7008 12.4004 10.8008C12.6004 10.9008 12.8004 10.9008 12.9004 10.9008H13.0004C13.1004 10.8008 13.1004 10.7008 13.2004 10.6008C13.2004 10.6008 13.1004 10.6008 13.1004 10.7008C13.0004 10.7008 13.0004 10.8008 12.9004 10.8008C12.7004 10.9008 12.5004 10.8008 12.4004 10.7008C12.3004 10.6008 12.2004 10.6008 12.0004 10.6008C11.9004 10.6008 11.7004 10.6008 11.6004 10.7008C11.5004 10.7008 11.5004 10.8008 11.4004 10.8008C11.2004 10.9008 11.0004 10.8008 10.9004 10.7008C10.8004 10.6008 10.7004 10.6008 10.5004 10.6008C10.4004 10.6008 10.2004 10.6008 10.1004 10.7008C10.0004 10.7008 10.0004 10.8008 9.90039 10.8008C9.70039 10.9008 9.50039 10.8008 9.40039 10.7008C9.30039 10.7008 9.20039 10.6008 9.20039 10.6008ZM12.7004 11.2008C12.6004 11.3008 12.5004 11.4008 12.4004 11.6008C12.0004 12.0008 11.6004 12.3008 11.1004 12.5008C10.6004 12.3008 10.2004 12.0008 9.80039 11.6008C9.70039 11.5008 9.60039 11.4008 9.50039 11.2008H9.80039C9.90039 11.2008 9.90039 11.2008 10.0004 11.1008C10.1004 11.0008 10.2004 11.0008 10.4004 11.0008C10.5004 11.0008 10.7004 11.0008 10.8004 11.1008C11.0004 11.2008 11.2004 11.2008 11.3004 11.2008C11.4004 11.2008 11.4004 11.2008 11.5004 11.1008C11.6004 11.0008 11.7004 11.0008 11.9004 11.0008C12.0004 11.0008 12.2004 11.0008 12.3004 11.1008C12.3004 11.2008 12.5004 11.3008 12.7004 11.2008Z" fill="#FEFEFE"/>
</g>
</g>
<defs>
<clipPath id="clip0_26003_70627">
<rect width="38" height="25" fill="white" transform="translate(0 0.5)"/>
</clipPath>
<clipPath id="clip1_26003_70627">
<rect width="38" height="25" fill="white" transform="translate(0 0.5)"/>
</clipPath>
</defs>
</svg>
