<svg width="38" height="26" viewBox="0 0 38 26" fill="none" xmlns="http://www.w3.org/2000/svg">
<g clip-path="url(#clip0_26003_92022)">
<g clip-path="url(#clip1_26003_92022)">
<path fill-rule="evenodd" clip-rule="evenodd" d="M0 -1.25H38V27.25H0V-1.25Z" fill="#CE1126"/>
<path fill-rule="evenodd" clip-rule="evenodd" d="M0 -1.25H19V13H0V-1.25Z" fill="#002B7F"/>
<path fill-rule="evenodd" clip-rule="evenodd" d="M10.6879 12.3643L9.45879 11.533L8.27723 12.3702L8.66316 10.8918L7.53504 9.9893L8.98973 9.90023L9.47066 8.49898L9.99316 9.92398L11.4182 9.96555L10.29 10.9334L10.6879 12.3643ZM10.4741 2.5318L9.48848 1.89648L8.53848 2.51398L8.79973 1.32648L7.93285 0.572422L9.08473 0.477422L9.51223 -0.626953L9.9516 0.483359L11.0857 0.584297L10.2129 1.37992L10.4741 2.5318ZM6.13973 6.06461L5.18973 5.41148L4.19816 6.06461L4.50691 4.91273L3.61035 4.15273L4.75035 4.09336L5.16598 2.96523L5.56973 4.08742L6.73348 4.15273L5.84285 4.89492L6.13973 6.06461ZM14.8441 5.28086L13.9297 4.68711L13.0391 5.28086L13.3004 4.1943L12.4691 3.49367L13.5557 3.40461L13.9297 2.38336L14.3454 3.41648L15.3963 3.47586L14.5829 4.20617L14.8441 5.28086ZM12.285 7.85773L11.6735 7.47773L11.0619 7.86961L11.2222 7.1393L10.676 6.64648L11.3885 6.58711L11.6616 5.89836L11.9525 6.58711L12.6591 6.64648L12.1188 7.1393L12.285 7.85773Z" fill="white"/>
</g>
</g>
<defs>
<clipPath id="clip0_26003_92022">
<rect width="38" height="25" fill="white" transform="translate(0 0.5)"/>
</clipPath>
<clipPath id="clip1_26003_92022">
<rect width="38" height="28.5" fill="white" transform="translate(0 -1.25)"/>
</clipPath>
</defs>
</svg>
