<svg width="38" height="26" viewBox="0 0 38 26" fill="none" xmlns="http://www.w3.org/2000/svg">
<g clip-path="url(#clip0_26003_72519)">
<g clip-path="url(#clip1_26003_72519)">
<path fill-rule="evenodd" clip-rule="evenodd" d="M2.51004 25.5H35.54C36.82 25.25 37.84 24.07 38.01 22.6V17.17H0.0400391V22.6C0.210039 24.07 1.22004 25.25 2.51004 25.5ZM0.0400391 8.83H38V3.4C37.83 1.93 36.82 0.75 35.54 0.5H2.50004C1.22004 0.75 0.210039 1.93 0.0400391 3.4V8.83Z" fill="#4361AA"/>
<path fill-rule="evenodd" clip-rule="evenodd" d="M0.0400391 8.83008H38V17.1601H0.0400391V8.83008Z" fill="#FEFEFE"/>
<path fill-rule="evenodd" clip-rule="evenodd" d="M16.79 14.4496L19.02 10.0996L21.25 14.4496H16.79Z" fill="#F7D40E"/>
<path fill-rule="evenodd" clip-rule="evenodd" d="M17.0098 14.3106L19.0198 10.3906L21.0298 14.3106H17.0098Z" fill="#ACD8F4"/>
<path fill-rule="evenodd" clip-rule="evenodd" d="M17.4097 13.9403L17.3297 13.9303L17.2697 13.9103L17.2597 13.8703L17.3297 13.8903L17.5197 13.9103C17.4797 13.9303 17.4497 13.9503 17.4097 13.9403ZM17.2297 14.2203L17.1797 14.1903L17.2497 14.1103C17.2997 14.0903 17.3297 14.1003 17.3597 14.1103L17.4297 14.1203C17.4697 14.1503 17.5297 14.1403 17.5697 14.1203L17.6297 14.1103L17.5897 14.1503C17.5497 14.1703 17.4697 14.1903 17.4197 14.1503L17.3497 14.1403C17.3197 14.1303 17.2997 14.1203 17.2697 14.1403L17.2297 14.2203ZM17.6097 14.2703L17.4497 14.2603L17.3897 14.2403V14.2603L17.3297 14.2503L17.3197 14.2603V14.2403C17.3497 14.2203 17.3797 14.2203 17.3897 14.2203H17.4497C17.5197 14.2203 17.5797 14.2203 17.6097 14.2703ZM18.1697 13.9303C18.0897 13.9303 18.0697 13.9003 18.0497 13.8103C18.0098 13.7989 17.9671 13.8024 17.9297 13.8203H17.8697L17.8497 13.7803H17.9197C17.9597 13.7503 18.0297 13.7503 18.0797 13.7803C18.0997 13.8803 18.1197 13.8903 18.1797 13.8903C18.1797 13.8703 18.2097 13.8603 18.2297 13.8403L18.2797 13.8603C18.248 13.8777 18.2179 13.8978 18.1897 13.9203L18.1697 13.9303ZM18.0397 14.1603L17.9997 14.1303C18.0297 14.1203 18.0397 14.0903 18.0697 14.0503C18.1297 14.0003 18.1597 13.9703 18.2497 14.0003C18.3197 14.0603 18.3397 14.0803 18.3897 14.0903L18.4697 14.0803L18.5297 14.0703C18.5097 14.1203 18.4897 14.1203 18.4697 14.1203L18.3797 14.1303C18.3097 14.1203 18.2897 14.1003 18.2497 14.0603C18.1597 14.0203 18.1397 14.0403 18.0897 14.0803C18.0717 14.1061 18.055 14.1328 18.0397 14.1603ZM18.4497 14.3003C18.3897 14.3003 18.3497 14.2803 18.3097 14.2603L18.2597 14.2403C18.2555 14.2499 18.2485 14.258 18.2395 14.2634C18.2305 14.2687 18.2201 14.2712 18.2097 14.2703L18.1997 14.2403H18.2097L18.2597 14.2003L18.3297 14.2203C18.3697 14.2403 18.4097 14.2603 18.4597 14.2603L18.5097 14.2503L18.5797 14.2403C18.5597 14.2803 18.5397 14.2903 18.5197 14.2903L18.4497 14.3003ZM18.9297 13.8503C18.8697 13.8303 18.8197 13.8303 18.7597 13.8303H18.6897L18.6797 13.7903H18.7497C18.8297 13.7903 18.8897 13.7903 18.9397 13.8103H19.1197L18.9297 13.8503ZM19.0097 14.1103C18.9581 14.1047 18.9093 14.0838 18.8697 14.0503L18.8297 14.0203C18.7897 13.9803 18.7297 13.9703 18.6797 13.9603L18.6297 13.9903L18.6197 13.9603H18.6297L18.6697 13.9203C18.7397 13.9303 18.8097 13.9403 18.8597 13.9903L18.8897 14.0203C18.9197 14.0503 18.9497 14.0703 18.9997 14.0703L19.0897 14.0303L19.0597 14.0903L19.0097 14.1103ZM19.0997 14.2103L18.9597 14.1903C18.9097 14.1603 18.8497 14.1903 18.8297 14.2103L18.8097 14.1803C18.8397 14.1503 18.9197 14.1203 18.9797 14.1603C19.0297 14.1803 19.0897 14.1803 19.1497 14.1803C19.1722 14.1685 19.1956 14.1585 19.2197 14.1503C19.2497 14.1396 19.2769 14.1226 19.2997 14.1003L19.3097 14.0903H19.3597L19.3197 14.1303C19.3097 14.1503 19.2797 14.1703 19.2397 14.1803L19.1797 14.2103H19.0997ZM19.5897 13.9503C19.5297 13.9251 19.4636 13.9181 19.3997 13.9303L19.3797 13.9103L19.3997 13.8903C19.4497 13.8903 19.5397 13.8903 19.5897 13.9103C19.6297 13.9003 19.6497 13.8703 19.6897 13.8203L19.7197 13.7803C19.7897 13.7703 19.8297 13.7703 19.8797 13.8003C19.8297 13.8203 19.7897 13.8203 19.7397 13.8203C19.6897 13.9003 19.6497 13.9403 19.5897 13.9503ZM19.6497 14.1903L19.6397 14.1503L19.7397 14.1303C19.7797 14.0803 19.8097 14.1003 19.8397 14.1203L19.8797 14.1503C19.9397 14.1303 19.9697 14.0803 19.9897 14.0103C19.9963 14.0486 19.9888 14.0879 19.9686 14.121C19.9483 14.1541 19.9167 14.1788 19.8797 14.1903C19.8397 14.1803 19.8297 14.1703 19.8097 14.1503C19.7897 14.1303 19.7797 14.1203 19.7497 14.1603C19.7172 14.173 19.6838 14.183 19.6497 14.1903ZM19.8097 14.0303L19.7997 14.0003H19.8097C19.7997 13.9803 19.8197 13.9703 19.8497 13.9403L19.8897 13.9103C19.9097 13.8803 19.9297 13.8603 19.9897 13.8503C20.0197 13.8003 20.0597 13.8403 20.0897 13.8703C20.0297 13.8703 20.0197 13.8703 19.9997 13.8903C19.9497 13.9003 19.9397 13.9203 19.9097 13.9403L19.8697 13.9803L19.8097 14.0303ZM20.0897 14.2003L20.0597 14.1903L20.0997 14.0403C20.1397 14.0103 20.1697 13.9903 20.1997 14.0003L20.2697 14.0803L20.3297 14.1103C20.3542 14.1276 20.3812 14.1411 20.4097 14.1503C20.3697 14.1803 20.3397 14.1603 20.3197 14.1403L20.2497 14.1003L20.1997 14.0303L20.1397 14.0603C20.1159 14.1041 20.099 14.1513 20.0897 14.2003ZM20.4197 13.9503C20.3697 13.8603 20.3497 13.8103 20.3097 13.8003C20.3101 13.8315 20.3033 13.8623 20.2897 13.8903L20.2497 13.8703C20.2697 13.8603 20.2797 13.8203 20.3097 13.7703C20.3897 13.7803 20.4197 13.8403 20.4397 13.9003C20.4997 13.9103 20.5297 13.9103 20.5697 13.8703C20.5397 13.9503 20.4897 13.9503 20.4197 13.9503ZM20.8397 14.1603C20.7797 14.1503 20.7597 14.1303 20.7497 14.1103C20.7318 14.0913 20.7117 14.0745 20.6897 14.0603C20.6597 14.0403 20.6397 14.0503 20.6097 14.1303L20.5797 14.1103C20.5997 14.0603 20.6297 14.0003 20.6697 13.9903L20.7197 14.0203C20.7453 14.0335 20.7689 14.0504 20.7897 14.0703L20.8497 14.1203C20.8397 14.0903 20.8597 14.0803 20.8897 14.0703L20.8397 14.1603ZM19.4197 14.2303L19.3997 14.2003H19.4097L19.4597 14.1603C19.5097 14.1259 19.548 14.077 19.5697 14.0203H19.6597L19.7497 14.0303C19.7097 14.0703 19.6797 14.0603 19.6497 14.0603L19.5797 14.0503C19.5597 14.1203 19.5297 14.1403 19.4797 14.1903L19.4197 14.2303ZM17.6997 13.9603H17.6597C17.6597 13.9403 17.6797 13.9203 17.7497 13.8803C17.7697 13.8503 17.7997 13.8603 17.8297 13.8703L17.8697 13.9203L17.8197 13.9103L17.7697 13.9203L17.6997 13.9603ZM17.9097 14.1703L17.8697 14.1503C17.8544 14.1381 17.8376 14.128 17.8197 14.1203L17.7697 14.1603L17.7597 14.1303H17.7697L17.8097 14.0903L17.8897 14.1203C17.9097 14.1303 17.9297 14.1503 17.9597 14.1503L17.9097 14.1703Z" fill="#ACD8F4"/>
<path fill-rule="evenodd" clip-rule="evenodd" d="M19.0298 13.4199L19.0098 10.4199H19.0298V13.4199Z" fill="#FEFEFE"/>
<path fill-rule="evenodd" clip-rule="evenodd" d="M18.0596 12.2798V12.2598H19.9796L18.0596 12.2798Z" fill="#FEFEFE"/>
<path fill-rule="evenodd" clip-rule="evenodd" d="M20.4596 13.2008L18.3096 11.8208L18.3196 11.8008L20.4596 13.2008Z" fill="#FEFEFE"/>
<path fill-rule="evenodd" clip-rule="evenodd" d="M17.5898 13.2191L19.7398 11.7891L19.7498 11.8091L17.5898 13.2191Z" fill="#FEFEFE"/>
<path fill-rule="evenodd" clip-rule="evenodd" d="M18.6001 13.1291L18.5801 13.1191L19.3901 11.5391L18.6001 13.1291Z" fill="#FEFEFE"/>
<path fill-rule="evenodd" clip-rule="evenodd" d="M19.5304 13.2505L18.6104 11.4905L18.6304 11.4805L19.5304 13.2505Z" fill="#FEFEFE"/>
<path fill-rule="evenodd" clip-rule="evenodd" d="M19.3197 12.2695C19.3197 12.4495 19.1897 12.5995 19.0197 12.5995C18.8597 12.5995 18.7197 12.4495 18.7197 12.2695C18.7197 12.0795 18.8497 11.9395 19.0197 11.9395C19.1797 11.9395 19.3197 12.0795 19.3197 12.2695Z" fill="#ACD8F4"/>
<path fill-rule="evenodd" clip-rule="evenodd" d="M20.6599 13.5996L19.6699 13.6196C19.6699 13.6196 19.6699 13.7796 19.7399 13.7896C19.7999 13.7896 20.6299 13.7796 20.6599 13.8496C20.6999 13.9196 19.8599 13.9596 19.8599 13.9596C19.8599 13.9596 20.5999 13.9496 20.6399 14.0196C20.6799 14.0796 20.2399 14.0996 20.2699 14.1096C20.3099 14.1196 20.7899 14.0996 20.8399 14.1596C20.8899 14.2196 20.6199 14.2596 20.6199 14.2596L21.0299 14.2996L20.6599 13.5996Z" fill="#487DA7"/>
<path fill-rule="evenodd" clip-rule="evenodd" d="M18.8696 12.0498C18.8396 12.0698 18.9496 12.0898 18.9396 12.1698C18.9296 12.2198 18.8696 12.2998 18.8496 12.3498C18.8196 12.3998 18.9696 12.5898 19.0896 12.4898C19.2196 12.3898 19.1996 12.1998 19.1596 12.1698C19.0596 12.0898 18.9896 11.9698 18.8696 12.0498Z" fill="#C6273E"/>
<path fill-rule="evenodd" clip-rule="evenodd" d="M19.0601 12.4803C19.0372 12.4442 19.0104 12.4106 18.9801 12.3803C18.9501 12.3603 18.9001 12.3403 18.8801 12.3603V12.3803L18.8701 12.3903L18.8801 12.3503C18.9001 12.3303 18.9701 12.3603 18.9901 12.3803C19.0101 12.3903 19.0701 12.4503 19.0601 12.4803Z" fill="#242222"/>
<path fill-rule="evenodd" clip-rule="evenodd" d="M18.17 12.7305C18.29 12.7005 18.32 12.8505 18.36 12.8805C18.4 12.9105 18.5 12.9205 18.53 12.9305L18.66 13.0205C18.66 13.0205 18.71 12.8805 18.76 12.8705C18.81 12.8605 19.04 13.0305 19.04 13.0305C19.04 13.0305 19.06 12.8705 19.12 12.8905C19.18 12.9105 19.48 13.1705 19.48 13.1705C19.48 13.1705 19.49 13.0805 19.56 13.0605C19.62 13.0305 19.85 13.1905 19.85 13.1905C19.85 13.1905 19.87 13.0705 19.92 13.0705C20.05 13.0705 20.48 13.5905 20.57 13.6105C20.61 13.6105 20.41 13.6805 20.41 13.6805C20.41 13.6805 20.44 13.7105 20.42 13.7405C20.4 13.7705 19.81 13.7505 19.81 13.7505C19.81 13.7505 19.83 13.7905 19.82 13.8105C19.8 13.8405 17.25 13.8605 17.25 13.8605C17.49 13.3805 17.96 12.7805 18.17 12.7305Z" fill="#627937"/>
<path fill-rule="evenodd" clip-rule="evenodd" d="M19.1797 13.8203C19.2697 13.7903 19.2097 13.5103 18.7197 13.0903C19.4897 13.7003 18.9997 13.7803 19.7897 13.8003C19.6397 13.8203 19.1797 13.8203 19.1797 13.8203ZM19.0497 13.0703L19.8097 13.7403L19.9597 13.7503C19.9697 13.7503 19.8697 13.7403 19.0497 13.0703Z" fill="#34433D"/>
<path fill-rule="evenodd" clip-rule="evenodd" d="M19.4902 13.1992C19.4902 13.1992 20.1102 13.7392 20.0102 13.7492C19.9102 13.7492 20.3502 13.7592 20.4202 13.7392C20.0202 13.7092 20.1002 13.6992 19.4902 13.1992ZM19.8602 13.2192L20.4002 13.6692L20.5302 13.6192C20.3702 13.6492 20.3402 13.5692 19.8602 13.2192Z" fill="#34433D"/>
<path fill-rule="evenodd" clip-rule="evenodd" d="M18.2598 12.7905C18.2998 12.8205 18.3098 12.8805 18.3398 12.9005C18.3698 12.9205 18.6198 13.0505 18.7598 13.2105C18.8998 13.3705 19.1098 13.5805 19.0298 13.6005C18.9598 13.6305 18.8798 13.5405 18.8798 13.5405C18.8798 13.5405 18.9798 13.7305 18.8498 13.7405C18.7098 13.7605 18.3698 13.1705 18.3698 13.1705C18.3698 13.1705 18.5298 13.7005 18.3198 13.6705C18.1098 13.6505 18.1298 13.2705 18.1298 13.2705C18.1298 13.2705 18.0698 13.4505 18.0298 13.4505C17.9898 13.4505 18.0298 13.2205 18.0298 13.2205C18.0298 13.2205 17.7898 13.6705 17.6998 13.6205C17.6098 13.5805 18.0798 12.7505 18.2598 12.7905ZM18.7598 12.9405C18.7598 12.9005 18.7898 12.9105 18.8598 12.9505C18.9398 12.9905 19.5398 13.5205 19.5198 13.5705C19.5198 13.6405 18.7998 13.2005 18.7598 12.9405ZM19.2098 13.0305C19.1598 13.0205 19.6898 13.6205 19.8098 13.5905C19.9398 13.5505 19.2498 13.0405 19.2098 13.0305ZM19.5798 13.0805C19.5198 13.0705 20.0898 13.6605 20.2198 13.6205C20.3398 13.6005 19.6698 13.0905 19.5798 13.0805ZM19.9098 13.1205C19.8498 13.1305 20.3398 13.5605 20.3898 13.5505C20.4598 13.5505 20.0598 13.0905 19.9098 13.1205Z" fill="#97C52D"/>
<path fill-rule="evenodd" clip-rule="evenodd" d="M18.2305 11.94C18.2305 11.94 18.5305 11.54 19.0205 11.54C19.5105 11.54 19.8105 11.94 19.8105 11.94L19.6905 11.7C19.6905 11.7 19.4505 11.42 19.0205 11.42C18.8965 11.4186 18.7735 11.4417 18.6585 11.4881C18.5435 11.5344 18.4388 11.603 18.3505 11.69L18.2305 11.94Z" fill="#B11F83"/>
<path fill-rule="evenodd" clip-rule="evenodd" d="M19.6203 11.5498C19.6203 11.5498 19.4003 11.3398 19.0203 11.3398C18.6403 11.3398 18.4203 11.5498 18.4203 11.5498L18.3203 11.7398C18.3203 11.7398 18.5503 11.4398 19.0203 11.4398C19.4903 11.4398 19.7203 11.7398 19.7203 11.7398L19.6203 11.5498Z" fill="#C6273E"/>
<path fill-rule="evenodd" clip-rule="evenodd" d="M19.5402 11.3807C19.5402 11.3807 19.3402 11.2207 19.0202 11.2207C18.6902 11.2207 18.5202 11.3707 18.5202 11.3707L18.4102 11.5707C18.4102 11.5707 18.6102 11.3507 19.0202 11.3507C19.4302 11.3507 19.6302 11.5707 19.6302 11.5707L19.5402 11.3807Z" fill="#F5D517"/>
<path fill-rule="evenodd" clip-rule="evenodd" d="M19.4505 11.2295L19.5405 11.4095C19.5405 11.4095 19.3505 11.2495 19.0105 11.2495C18.82 11.2466 18.6338 11.3064 18.4805 11.4195L18.5705 11.2395C18.5705 11.2395 18.7005 11.1295 19.0005 11.1295C19.3205 11.1195 19.4505 11.2295 19.4505 11.2295Z" fill="#97C52D"/>
<path fill-rule="evenodd" clip-rule="evenodd" d="M19.3798 11.0991L19.4598 11.2491C19.4598 11.2491 19.2698 11.1391 19.0098 11.1391C18.7598 11.1391 18.5498 11.2791 18.5498 11.2791L18.6298 11.1291C18.6298 11.1291 18.7698 11.0391 19.0098 11.0391C19.2698 11.0391 19.3798 11.0991 19.3798 11.0991Z" fill="#6894C2"/>
<path fill-rule="evenodd" clip-rule="evenodd" d="M19.3399 11.0199L19.3999 11.1499C19.3999 11.1499 19.2799 11.0599 19.0199 11.0599C18.7499 11.0599 18.6299 11.1499 18.6299 11.1499L18.6899 11.0199C18.6899 11.0199 18.8099 10.9699 19.0099 10.9699C19.2299 10.9599 19.3399 11.0199 19.3399 11.0199Z" fill="#2D4690"/>
<path fill-rule="evenodd" clip-rule="evenodd" d="M18.53 13.8906L19.53 13.9006C19.53 13.9006 19.36 13.9206 19.36 13.9506C19.37 13.9706 19.72 13.9806 19.72 13.9806C19.72 13.9806 19.51 14.0006 19.5 14.0206C19.49 14.0406 19.6 14.0506 19.6 14.0506C19.6 14.0506 19.4 14.0706 19.4 14.1006C19.4 14.1206 19.65 14.1306 19.63 14.1306C19.61 14.1306 19.3 14.1306 19.3 14.1606C19.3 14.1906 19.52 14.2506 19.52 14.2506L18.21 14.2806C18.21 14.2806 18.42 14.2406 18.42 14.2006C18.42 14.1506 18.28 14.1406 18.28 14.1406C18.28 14.1406 18.82 14.1506 18.84 14.1206C18.86 14.0906 18.73 14.0706 18.73 14.0706C18.73 14.0706 18.94 14.0806 18.96 14.0606C18.97 14.0306 18.67 13.9806 18.67 13.9806C18.67 13.9806 18.85 13.9906 18.87 13.9506C18.89 13.9306 18.53 13.8906 18.53 13.8906Z" fill="#FEFEFE"/>
<path fill-rule="evenodd" clip-rule="evenodd" d="M18.3398 13.9096C18.3398 13.9096 17.3498 13.9396 17.2698 14.0096C17.1898 14.0696 17.8198 14.1396 17.8198 14.1396C17.8198 14.1396 17.1598 14.1496 17.1098 14.2096C17.0598 14.2796 17.4998 14.2696 17.4998 14.2696L17.0098 14.3096L17.2498 13.8496L18.3398 13.9096Z" fill="#487DA7"/>
<path fill-rule="evenodd" clip-rule="evenodd" d="M16.1504 13.99C16.1604 14.03 16.1404 14.07 16.1104 14.08C16.0804 14.09 16.0404 14.07 16.0304 14.03C16.0204 13.99 16.0404 13.95 16.0704 13.94C16.1004 13.93 16.1404 13.95 16.1504 13.99ZM16.4504 14.31L16.2104 14.33L16.2804 14.49L16.4504 14.31ZM16.2504 14.7C16.2104 14.74 16.1804 14.77 16.2104 14.83L16.1904 14.84L16.0904 14.59L16.1104 14.58C16.1304 14.62 16.1404 14.63 16.1604 14.62L16.1904 14.59L16.2504 14.52L16.1704 14.33L16.1204 14.34L16.0604 14.35C16.0304 14.37 16.0304 14.41 16.0404 14.44L16.0204 14.45L15.9404 14.26L15.9604 14.25C16.0004 14.31 16.0404 14.31 16.1004 14.3L16.4904 14.26L16.5604 14.35L16.2504 14.7ZM16.6004 15.33C16.5604 15.37 16.5604 15.39 16.5904 15.44L16.5704 15.45L16.4204 15.22L16.4404 15.2C16.4704 15.25 16.4904 15.25 16.5304 15.22L16.8304 14.97L16.3704 15.13L16.3604 15.1L16.6204 14.66L16.3904 14.85C16.3004 14.93 16.2904 14.94 16.3204 15L16.3004 15.02L16.2004 14.85L16.2204 14.84C16.2704 14.89 16.2804 14.89 16.3704 14.82L16.5904 14.64C16.6304 14.61 16.6304 14.58 16.6004 14.53L16.6204 14.51L16.7404 14.7L16.5504 15.02L16.8804 14.91L17.0004 15.09L16.9804 15.11C16.9504 15.07 16.9304 15.05 16.8904 15.09L16.6004 15.33ZM16.6804 15.54C16.7204 15.58 16.7404 15.58 16.7704 15.54L17.0004 15.24C17.0304 15.2 17.0304 15.17 16.9904 15.13L17.0104 15.11L17.3304 15.43L17.2804 15.58L17.2604 15.57C17.2604 15.48 17.2504 15.38 17.1804 15.32C17.1304 15.27 17.1204 15.29 17.0904 15.33L17.0004 15.45V15.47C17.0504 15.52 17.0804 15.54 17.1504 15.49L17.1704 15.51L17.0404 15.68L17.0204 15.66C17.0504 15.59 17.0404 15.54 16.9904 15.49L16.9804 15.48L16.8804 15.61C16.8504 15.64 16.8404 15.67 16.8804 15.71C16.9404 15.78 17.0304 15.79 17.1204 15.78L17.1304 15.8L17.0004 15.87L16.6804 15.55V15.54ZM17.3904 15.81C17.4904 15.88 17.5404 15.86 17.5804 15.79C17.6204 15.72 17.5904 15.68 17.5304 15.63C17.4904 15.6 17.4804 15.62 17.4604 15.66L17.3804 15.81H17.3904ZM17.4904 16.1C17.4904 16.16 17.4804 16.22 17.5304 16.26L17.5204 16.28L17.3704 16.18V16.11L17.3804 16C17.3904 15.89 17.3704 15.86 17.3504 15.85L17.2704 16C17.2404 16.05 17.2504 16.08 17.2904 16.11L17.2804 16.13L17.0704 15.98L17.0804 15.95C17.1204 15.98 17.1504 15.98 17.1704 15.93L17.3504 15.6C17.3704 15.56 17.3704 15.53 17.3304 15.5L17.3404 15.48L17.6004 15.66C17.6904 15.72 17.7104 15.82 17.6704 15.89C17.6304 15.96 17.5504 15.96 17.4904 15.93L17.5004 16.02L17.4904 16.1ZM17.7904 15.88C17.8104 15.83 17.8004 15.8 17.7604 15.78L17.7704 15.75L18.0004 15.87L17.9904 15.89C17.9404 15.87 17.9204 15.87 17.9004 15.92L17.7604 16.27C17.7404 16.32 17.7504 16.35 17.7904 16.37L17.7804 16.4L17.5504 16.28L17.5604 16.26C17.6104 16.28 17.6304 16.28 17.6504 16.22L17.7904 15.88Z" fill="#F5D517"/>
<path fill-rule="evenodd" clip-rule="evenodd" d="M18.3502 16.1792H18.3202C18.3102 16.0992 18.2802 15.9992 18.2002 15.9692C18.1002 15.9292 18.0402 16.0692 18.0102 16.1592C17.9602 16.3392 18.0202 16.4492 18.0902 16.4792C18.1502 16.4992 18.2102 16.4692 18.2602 16.4192L18.2802 16.4392C18.2102 16.5192 18.1302 16.5492 18.0302 16.5192C17.9002 16.4692 17.8402 16.3092 17.8802 16.1592C17.9202 15.9992 18.0602 15.8792 18.2002 15.9292L18.2602 15.9592L18.3002 15.9892H18.3702L18.3502 16.1792ZM18.5402 16.1292L18.4202 16.3692L18.5702 16.3992L18.5402 16.1292ZM18.7002 16.5392C18.7102 16.5992 18.7102 16.6392 18.7702 16.6492V16.6792L18.5302 16.6392V16.6092C18.5802 16.6192 18.5902 16.6092 18.5902 16.5792V16.5292L18.5802 16.4292L18.4002 16.3992L18.3802 16.4392C18.3675 16.4604 18.3606 16.4845 18.3602 16.5092C18.3502 16.5492 18.3802 16.5692 18.4102 16.5792L18.4002 16.6092L18.2202 16.5692V16.5392C18.2902 16.5292 18.3102 16.4892 18.3402 16.4292L18.5302 16.0392L18.6402 16.0192L18.7002 16.5392ZM19.4302 16.2392L19.4002 16.2492C19.3702 16.1792 19.3002 16.0992 19.2202 16.0992C19.1102 16.1092 19.1002 16.2592 19.1002 16.3592C19.1102 16.5492 19.2002 16.6292 19.2802 16.6192C19.3502 16.6092 19.3902 16.5492 19.4202 16.4892L19.4402 16.4992C19.4002 16.5992 19.3302 16.6692 19.2302 16.6792C19.0902 16.6892 18.9902 16.5592 18.9802 16.4092C18.9702 16.2392 19.0602 16.0692 19.2102 16.0592L19.2802 16.0692L19.3302 16.0792L19.3802 16.0592H19.3902L19.4302 16.2392ZM19.5202 16.6192C19.5702 16.6092 19.5802 16.5792 19.5702 16.5292L19.4902 16.1492C19.4802 16.0992 19.4602 16.0892 19.4102 16.0992V16.0692L19.8202 15.9592L19.8902 16.0992L19.8702 16.1092C19.843 16.0792 19.8083 16.0569 19.7697 16.0446C19.731 16.0323 19.6898 16.0305 19.6502 16.0392C19.5902 16.0592 19.5902 16.0792 19.6102 16.1392L19.6402 16.2892H19.6502C19.7202 16.2692 19.7502 16.2492 19.7502 16.1692L19.7802 16.1592L19.8302 16.3892L19.8002 16.3992C19.7602 16.3292 19.7302 16.3192 19.6602 16.3292H19.6502L19.6802 16.4992C19.6902 16.5392 19.7002 16.5692 19.7502 16.5592C19.8302 16.5392 19.9002 16.4592 19.9402 16.3792H19.9602L19.9402 16.5392L19.5302 16.6492L19.5202 16.6192ZM20.4102 16.1292L20.3202 15.8792C20.2902 15.8192 20.2802 15.7792 20.2102 15.8092L20.2002 15.7792L20.3702 15.6992L20.3802 15.7192C20.3202 15.7592 20.3302 15.7892 20.3502 15.8592L20.5102 16.2692L20.4502 16.2992L20.0302 16.0092L20.1402 16.2892C20.1702 16.3692 20.1802 16.3792 20.2602 16.3592L20.2702 16.3892L20.0902 16.4792L20.0802 16.4592C20.1402 16.4192 20.1402 16.3892 20.1102 16.3192L19.9802 15.9792C19.9671 15.9706 19.9521 15.9652 19.9364 15.9634C19.9208 15.9617 19.905 15.9637 19.8902 15.9692L19.8802 15.9392L20.0402 15.8592L20.4102 16.1292ZM20.7402 15.4092L20.8502 15.5192L20.8302 15.5392C20.7702 15.5092 20.6802 15.4892 20.6302 15.5292L20.8502 15.8992C20.8802 15.9492 20.9002 15.9492 20.9402 15.9192L20.9502 15.9392L20.7402 16.0992L20.7302 16.0792C20.7702 16.0492 20.7802 16.0192 20.7502 15.9792L20.5302 15.5992C20.4802 15.6492 20.4602 15.7392 20.4602 15.8192L20.4402 15.8292L20.3902 15.6692L20.7402 15.4092ZM21.0702 15.4292C21.1502 15.3392 21.1502 15.2792 21.1002 15.2192C21.0502 15.1592 21.0002 15.1692 20.9502 15.2292C20.9102 15.2692 20.9302 15.2792 20.9602 15.3092L21.0702 15.4292ZM21.3402 15.3792C21.3902 15.3992 21.4402 15.4192 21.4802 15.3692L21.5002 15.3892L21.3802 15.5292L21.3202 15.5092L21.2302 15.4692C21.1402 15.4292 21.1102 15.4392 21.0902 15.4692L21.2002 15.5992C21.2402 15.6392 21.2602 15.6392 21.2902 15.5992L21.3102 15.6192L21.1302 15.8192L21.1102 15.7992C21.1402 15.7592 21.1402 15.7392 21.1102 15.6892L20.8702 15.4092C20.8302 15.3692 20.8102 15.3692 20.7802 15.4092L20.7602 15.3892L20.9702 15.1492C21.0502 15.0692 21.1302 15.0592 21.1802 15.1192C21.2302 15.1792 21.2102 15.2692 21.1702 15.3292C21.2002 15.3192 21.2202 15.3292 21.2402 15.3392L21.3402 15.3792ZM21.3102 14.8492L21.4502 15.0792L21.5402 14.9392L21.3102 14.8492ZM21.7002 14.8592C21.7502 14.8792 21.7802 14.8992 21.8202 14.8392L21.8402 14.8592L21.7002 15.0892L21.6802 15.0692C21.7002 15.0292 21.7002 15.0092 21.6802 14.9992L21.6402 14.9792L21.5602 14.9492L21.4602 15.1192L21.4902 15.1592L21.5302 15.2092C21.5602 15.2292 21.5902 15.2092 21.6102 15.1792L21.6302 15.1992L21.5202 15.3692L21.5002 15.3592C21.5202 15.2892 21.5002 15.2492 21.4702 15.1892L21.2502 14.8192L21.2802 14.6992L21.7002 14.8592ZM21.8302 14.7992C21.8502 14.7392 21.8502 14.7192 21.8002 14.6892L21.5002 14.5192C21.4602 14.4992 21.4302 14.5092 21.4102 14.5592L21.3902 14.5492L21.5002 14.2892L21.5202 14.2992C21.5002 14.3492 21.5002 14.3792 21.5502 14.3992L21.8602 14.5692C21.8902 14.5892 21.9102 14.5992 21.9402 14.5492C21.9802 14.4592 21.9602 14.3592 21.9302 14.2692L21.9402 14.2592L22.0502 14.3792L21.8602 14.8092L21.8302 14.7992ZM21.8802 13.9892C21.8902 13.9492 21.9302 13.9292 21.9602 13.9392C22.0002 13.9492 22.0102 13.9892 22.0002 14.0292C21.9902 14.0692 21.9502 14.0892 21.9202 14.0792C21.8902 14.0692 21.8702 14.0292 21.8802 13.9892ZM16.0302 13.5392C16.0102 13.4092 15.9702 13.3792 15.9002 13.3892C15.8302 13.3992 15.8102 13.4492 15.8202 13.5392C15.8302 13.5892 15.8502 13.5892 15.8902 13.5892L16.0402 13.5592L16.0302 13.5392ZM16.1502 13.2692C16.1902 13.2292 16.2302 13.1992 16.2302 13.1292H16.2502L16.2802 13.3292L16.2302 13.3692L16.1502 13.4292C16.0702 13.4892 16.0602 13.5292 16.0702 13.5592L16.2202 13.5292C16.2702 13.5192 16.2802 13.4992 16.2702 13.4392L16.2902 13.4292L16.3302 13.7092H16.3102C16.3002 13.6492 16.2802 13.6392 16.2402 13.6492L15.9002 13.7092C15.8502 13.7192 15.8402 13.7392 15.8502 13.7992H15.8302L15.7802 13.4592C15.7602 13.3392 15.8102 13.2592 15.8802 13.2492C15.9602 13.2392 16.0002 13.3092 16.0302 13.3792C16.0402 13.3492 16.0602 13.3392 16.0902 13.3192L16.1502 13.2692ZM16.2302 13.0892C16.2302 13.0292 16.2202 13.0092 16.1702 13.0092L15.8302 12.9892C15.7802 12.9892 15.7602 13.0092 15.7602 13.0692H15.7402L15.7502 12.5892L15.8802 12.5392L15.8902 12.5692C15.8302 12.6192 15.7702 12.6992 15.7702 12.7892C15.7702 12.8592 15.7902 12.8592 15.8402 12.8592L15.9802 12.8692V12.8492C15.9802 12.7692 15.9702 12.7292 15.9002 12.6992V12.6692L16.1002 12.6792V12.7092C16.0302 12.7292 16.0102 12.7692 16.0102 12.8492V12.8692L16.1602 12.8792C16.2002 12.8792 16.2302 12.8792 16.2302 12.8192C16.2302 12.7192 16.1902 12.6292 16.1202 12.5692L16.1302 12.5492L16.2602 12.6092L16.2402 13.0892H16.2302ZM16.0602 12.2492L16.0702 12.2092C16.0902 12.1092 16.0702 12.0592 15.9802 12.0392C15.9102 12.0192 15.8702 12.0592 15.8502 12.1292C15.8402 12.1892 15.8602 12.1992 15.9102 12.2092L16.0602 12.2492ZM16.0902 12.2592L16.2302 12.2992C16.2802 12.3192 16.3002 12.2992 16.3102 12.2392L16.3302 12.2492L16.2802 12.5292L16.2602 12.5192C16.2702 12.4692 16.2602 12.4392 16.2102 12.4292L15.8802 12.3392C15.8302 12.3292 15.8102 12.3392 15.8002 12.3992H15.7802L15.8402 12.1192C15.8702 11.9392 15.9502 11.8892 16.0202 11.9092C16.1502 11.9392 16.1302 12.0892 16.1102 12.1892L16.0902 12.2592ZM16.2702 11.7692C16.3902 11.8292 16.4402 11.7992 16.4702 11.7192C16.5102 11.6092 16.4602 11.5492 16.3702 11.5092L16.1402 11.3992C16.0902 11.3792 16.0702 11.3892 16.0502 11.4492L16.0302 11.4392L16.1002 11.2592L16.1202 11.2692C16.1002 11.3192 16.1102 11.3492 16.1502 11.3692L16.3802 11.4792C16.4902 11.5292 16.5302 11.6192 16.4802 11.7592C16.4302 11.9092 16.3402 11.9492 16.2402 11.9092L16.0002 11.7892C15.9502 11.7692 15.9302 11.7792 15.9102 11.8292L15.8902 11.8192L15.9902 11.5592L16.0002 11.5692C15.9802 11.6192 15.9902 11.6492 16.0302 11.6692L16.2702 11.7692ZM16.5602 11.2592C16.6102 11.2992 16.6302 11.3092 16.6702 11.2392C16.7102 11.1692 16.7102 11.0992 16.6302 11.0492C16.5802 11.0092 16.5202 10.9992 16.4502 11.1292L16.4302 11.1692L16.5602 11.2592ZM16.4302 11.1092L16.4102 11.1492L16.2802 11.0592L16.2502 11.0292L16.2702 10.9792C16.3102 10.9092 16.3502 10.8892 16.4102 10.9292C16.4702 10.9692 16.4702 11.0292 16.4302 11.1092ZM16.5502 11.5092L16.5302 11.4992C16.5602 11.4492 16.5502 11.4192 16.5102 11.3892L16.2202 11.1792C16.1802 11.1492 16.1602 11.1592 16.1302 11.2092L16.1102 11.1992L16.2502 10.9592C16.3502 10.7892 16.4202 10.7792 16.4702 10.8192C16.5302 10.8592 16.5202 10.9592 16.5002 11.0192C16.5502 10.9492 16.6202 10.8992 16.7002 10.9492C16.7702 10.9992 16.7802 11.0892 16.7102 11.2192L16.5502 11.5092ZM16.8202 10.9892C16.8502 10.9492 16.8502 10.9192 16.8202 10.8792L16.5702 10.6192C16.5302 10.5792 16.5102 10.5792 16.4702 10.6292L16.4502 10.6092L16.6202 10.3992L16.6402 10.4192C16.6102 10.4592 16.6102 10.4892 16.6402 10.5292L16.8902 10.7892C16.9202 10.8192 16.9402 10.8392 16.9702 10.7892C17.0302 10.7192 17.0402 10.6192 17.0202 10.5192L17.0402 10.5092L17.1102 10.6492L16.8302 11.0092L16.8202 10.9892ZM16.9402 10.1992C16.9102 10.1592 16.8802 10.1592 16.8502 10.1892L16.8402 10.1692L17.0302 9.98922L17.0502 10.0092C17.0002 10.0392 17.0002 10.0692 17.0302 10.1092L17.2502 10.4092C17.2802 10.4492 17.3102 10.4492 17.3402 10.4192L17.3502 10.4392L17.1602 10.6292L17.1502 10.6092C17.1902 10.5692 17.1902 10.5492 17.1602 10.4992L16.9402 10.1992ZM17.5402 9.78922L17.5202 9.81922C17.4602 9.76922 17.3702 9.73922 17.3002 9.78922C17.2102 9.85922 17.2702 9.99922 17.3102 10.0792C17.4002 10.2492 17.5102 10.2592 17.5802 10.2092C17.6402 10.1692 17.6502 10.0992 17.6502 10.0192H17.6702C17.6702 10.1292 17.6502 10.2192 17.5602 10.2892C17.4402 10.3792 17.3002 10.3192 17.2302 10.1892C17.1502 10.0492 17.1602 9.84922 17.2802 9.76922L17.3402 9.73922L17.3802 9.71922C17.3898 9.71507 17.3979 9.70801 17.4033 9.69905C17.4087 9.69008 17.4111 9.67964 17.4102 9.66922V9.65922L17.5402 9.78922ZM17.7902 9.57922L17.8002 9.84922L17.9402 9.77922L17.7902 9.57922ZM18.1202 9.82922C18.1502 9.87922 18.1702 9.90922 18.2302 9.88922L18.2402 9.91922L18.0102 10.0192L18.0002 9.99922C18.0402 9.97922 18.0502 9.96922 18.0402 9.93922L18.0202 9.89922L17.9702 9.82922L17.8002 9.89922V9.94922L17.8102 10.0192C17.8202 10.0592 17.8602 10.0592 17.8902 10.0492L17.9002 10.0792L17.7302 10.1592L17.7202 10.1392C17.7702 10.0892 17.7702 10.0492 17.7702 9.97922L17.7602 9.53922L17.8402 9.45922L18.1202 9.82922ZM18.6202 9.72922C18.6202 9.78922 18.6202 9.80922 18.6902 9.79922C18.7802 9.78922 18.8402 9.71922 18.8102 9.49922C18.7902 9.29922 18.7202 9.25922 18.6302 9.26922C18.5802 9.27922 18.5802 9.29922 18.5802 9.34922L18.6202 9.72922ZM18.4402 9.82922C18.4902 9.81922 18.5102 9.79922 18.5002 9.74922L18.4602 9.36922C18.4502 9.30922 18.4302 9.29922 18.3802 9.29922V9.27922L18.6202 9.24922C18.6596 9.23906 18.7009 9.23906 18.7402 9.24922C18.8302 9.27922 18.9102 9.36922 18.9202 9.50922C18.9302 9.63922 18.8802 9.74922 18.7902 9.78922L18.6702 9.82922L18.4302 9.85922L18.4402 9.82922ZM18.9702 9.76922C19.0202 9.77922 19.0402 9.75922 19.0402 9.69922L19.0602 9.30922C19.0602 9.25922 19.0502 9.23922 19.0002 9.22922V9.19922L19.4202 9.22922L19.4602 9.37922L19.4402 9.39922C19.3902 9.32922 19.3302 9.25922 19.2502 9.24922C19.1902 9.24922 19.1902 9.26922 19.1802 9.32922L19.1702 9.47922H19.1802C19.2502 9.48922 19.2802 9.46922 19.3102 9.39922H19.3402L19.3302 9.62922H19.3002C19.2902 9.54922 19.2502 9.52922 19.1802 9.51922H19.1602V9.69922C19.1602 9.74922 19.1602 9.77922 19.2102 9.77922C19.3002 9.78922 19.3802 9.73922 19.4402 9.66922L19.4602 9.67922L19.4002 9.82922L18.9802 9.79922V9.76922H18.9702ZM20.0902 9.85922L20.1702 9.60922C20.1902 9.53922 20.1902 9.50922 20.1302 9.46922L20.1402 9.43922L20.3202 9.50922L20.3002 9.52922C20.2302 9.51922 20.2202 9.54922 20.2002 9.60922L20.0802 10.0292L20.0202 10.0092L19.8802 9.46922L19.7902 9.75922C19.7702 9.83922 19.7702 9.85922 19.8402 9.89922L19.8302 9.92922L19.6402 9.85922L19.6502 9.82922C19.7202 9.83922 19.7302 9.82922 19.7602 9.75922L19.8702 9.40922C19.8602 9.37922 19.8402 9.33922 19.8102 9.32922L19.8202 9.29922L19.9902 9.36922L20.0902 9.85922ZM20.3902 9.66922C20.4102 9.61922 20.4002 9.58922 20.3602 9.56922L20.3702 9.54922L20.5902 9.67922V9.69922C20.5402 9.66922 20.5202 9.67922 20.5002 9.72922L20.3502 10.0692C20.3202 10.1192 20.3402 10.1492 20.3802 10.1692L20.3602 10.1992L20.1402 10.0692L20.1502 10.0392C20.2002 10.0692 20.2202 10.0592 20.2402 10.0092L20.3902 9.66922ZM20.9602 10.1492L20.9302 10.1392C20.9402 10.0592 20.9302 9.94922 20.8702 9.89922C20.7802 9.82922 20.6902 9.93922 20.6402 10.0192C20.5502 10.1792 20.5802 10.2992 20.6402 10.3492C20.7002 10.3992 20.7602 10.3792 20.8202 10.3492L20.8302 10.3692C20.7402 10.4192 20.6502 10.4292 20.5702 10.3692C20.4602 10.2792 20.4402 10.1092 20.5102 9.97922C20.5902 9.83922 20.7502 9.76922 20.8702 9.85922L20.9202 9.90922L20.9502 9.94922L21.0002 9.96922H21.0102L20.9602 10.1492ZM21.2202 10.3192L21.0002 10.4392L21.1102 10.5592L21.2202 10.3192ZM21.1602 10.7592C21.1302 10.8092 21.1102 10.8492 21.1602 10.8992L21.1402 10.9192L20.9602 10.7292L20.9802 10.7092C21.0102 10.7392 21.0302 10.7392 21.0402 10.7292C21.0506 10.7181 21.0575 10.7042 21.0602 10.6892L21.1002 10.5992L20.9702 10.4592L20.9302 10.4792L20.8802 10.5192C20.8602 10.5492 20.8702 10.5792 20.8902 10.6092L20.8802 10.6292L20.7502 10.4792L20.7702 10.4592C20.8302 10.4992 20.8602 10.4792 20.9202 10.4492L21.2702 10.2592L21.3702 10.3092L21.1602 10.7592ZM21.4902 10.9492C21.5502 11.0592 21.6102 11.0692 21.6702 11.0192C21.7302 10.9792 21.7302 10.9192 21.6802 10.8492C21.6502 10.8092 21.6402 10.8192 21.6102 10.8392L21.4902 10.9392V10.9492ZM21.4902 11.2592C21.4602 11.3092 21.4402 11.3592 21.4702 11.4192L21.4502 11.4392L21.3502 11.2792C21.362 11.2567 21.3721 11.2333 21.3802 11.2092L21.4302 11.1092C21.4802 11.0092 21.4702 10.9792 21.4602 10.9492L21.3302 11.0492C21.2902 11.0792 21.2902 11.1092 21.3202 11.1592L21.3002 11.1692L21.1602 10.9392L21.1802 10.9292C21.2102 10.9792 21.2302 10.9792 21.2702 10.9492L21.5502 10.7292C21.5902 10.6992 21.6002 10.6692 21.5702 10.6192L21.5902 10.6092L21.7602 10.8892C21.8202 10.9892 21.8102 11.0892 21.7502 11.1292C21.6902 11.1792 21.6202 11.1392 21.5702 11.0792C21.5702 11.1092 21.5502 11.1392 21.5402 11.1592L21.4902 11.2592ZM21.9602 11.5392L21.7202 11.5492L21.7802 11.7092L21.9602 11.5392ZM21.7402 11.9092C21.7002 11.9492 21.6702 11.9692 21.6902 12.0392L21.6702 12.0492L21.5702 11.7892L21.5902 11.7792C21.6102 11.8292 21.6202 11.8292 21.6402 11.8192L21.6702 11.7892L21.7402 11.7292L21.6702 11.5392H21.6202L21.5602 11.5492C21.5302 11.5692 21.5302 11.6092 21.5402 11.6392L21.5202 11.6492L21.4502 11.4492L21.4702 11.4392C21.5102 11.4992 21.5502 11.4992 21.6102 11.4992H22.0102L22.0802 11.5892L21.7402 11.9092ZM22.1302 12.4692L22.1202 12.4392C22.1902 12.3492 22.2302 12.2892 22.2102 12.2192C22.2002 12.1392 22.1202 12.0792 21.9402 12.1192C21.7702 12.1592 21.7102 12.2292 21.7302 12.3192C21.7502 12.4092 21.8002 12.4092 21.8702 12.3892C21.9302 12.3792 21.9302 12.3592 21.9202 12.2992L21.9502 12.2892L22.0002 12.5692L21.9702 12.5792C21.9502 12.5192 21.9402 12.5092 21.8802 12.5292L21.7802 12.5492L21.7502 12.4392C21.7326 12.4043 21.7191 12.3674 21.7102 12.3292C21.6802 12.1592 21.7602 12.0292 21.9102 11.9992C22.0502 11.9692 22.2102 12.0492 22.2402 12.2192V12.3292L22.2702 12.3892L22.1302 12.4692ZM21.9502 12.7892C21.8302 12.7892 21.7902 12.8392 21.7902 12.9192C21.7902 13.0392 21.8502 13.0692 21.9602 13.0692L22.2102 13.0592C22.2602 13.0592 22.2702 13.0392 22.2702 12.9792H22.2902V13.1792H22.2702C22.2702 13.1192 22.2502 13.0992 22.2102 13.0992L21.9602 13.1092C21.8402 13.1092 21.7702 13.0492 21.7702 12.8992C21.7702 12.7392 21.8302 12.6592 21.9402 12.6492L22.2102 12.6392C22.2602 12.6392 22.2702 12.6192 22.2702 12.5592H22.2902L22.3002 12.8492H22.2802C22.2802 12.7892 22.2602 12.7692 22.2102 12.7692L21.9502 12.7892ZM22.1702 13.4992L21.9602 13.3692L21.9402 13.5392L22.1702 13.4992ZM21.8102 13.6992C21.7602 13.7092 21.7202 13.7092 21.7102 13.7792H21.6902L21.7302 13.4992H21.7502C21.7502 13.5492 21.7502 13.5592 21.7702 13.5692H21.8102L21.8902 13.5592L21.9202 13.3492L21.8702 13.3292C21.855 13.317 21.8382 13.307 21.8202 13.2992C21.7902 13.2892 21.7702 13.3292 21.7602 13.3592L21.7402 13.3492L21.7702 13.1392H21.7902C21.8002 13.2192 21.8302 13.2392 21.8802 13.2692L22.2302 13.4992L22.2502 13.6192L21.8102 13.6992Z" fill="#F5D517"/>
</g>
</g>
<defs>
<clipPath id="clip0_26003_72519">
<rect width="38" height="25" fill="white" transform="translate(0 0.5)"/>
</clipPath>
<clipPath id="clip1_26003_72519">
<rect width="38" height="25" fill="white" transform="translate(0 0.5)"/>
</clipPath>
</defs>
</svg>
