<svg width="38" height="26" viewBox="0 0 38 26" fill="none" xmlns="http://www.w3.org/2000/svg">
<g clip-path="url(#clip0_26003_70610)">
<g clip-path="url(#clip1_26003_70610)">
<path fill-rule="evenodd" clip-rule="evenodd" d="M2.5 25.5016H35.6C36.9 25.2016 37.9 24.1016 38.1 22.6016V3.50156C37.9 2.00156 36.9 0.901563 35.6 0.601562H2.5C1.2 0.801563 0.2 2.00156 0 3.50156V22.6016C0.2 24.1016 1.2 25.2016 2.5 25.5016Z" fill="#FEFEFE"/>
<path fill-rule="evenodd" clip-rule="evenodd" d="M2.5 25.5023H35.6C36.9 25.2023 37.9 24.1023 38.1 22.6023V8.90234H0V22.6023C0.2 24.1023 1.2 25.2023 2.5 25.5023Z" fill="#313C91"/>
<path fill-rule="evenodd" clip-rule="evenodd" d="M2.5 25.5031H35.6C36.9 25.2031 37.9 24.1031 38.1 22.6031V17.2031H0V22.6031C0.2 24.1031 1.2 25.2031 2.5 25.5031Z" fill="#C12837"/>
<path fill-rule="evenodd" clip-rule="evenodd" d="M5.70041 6.40078C5.30041 6.40078 5.40041 7.00078 5.30041 7.40078C5.20041 9.80078 5.00041 12.3008 5.60041 14.6008C6.10041 16.5008 7.30041 18.0008 8.80041 19.0008C9.20041 19.2008 9.50041 19.5008 9.90041 19.6008C10.3004 19.5008 10.7004 19.2008 11.1004 18.9008C12.6004 17.9008 13.7004 16.4008 14.3004 14.5008C15.0004 12.1008 14.7004 9.60078 14.6004 7.20078C14.6004 6.90078 14.6004 6.30078 14.2004 6.30078L5.70041 6.40078Z" fill="#FEFEFE"/>
<path fill-rule="evenodd" clip-rule="evenodd" d="M10.0004 6.80078V19.3008C15.1004 16.5008 14.6004 11.9008 14.2004 6.80078H10.0004ZM10.0004 6.80078V19.3008C4.80043 16.5008 5.40043 11.9008 5.70043 6.80078H10.0004Z" fill="#C12837"/>
<path fill-rule="evenodd" clip-rule="evenodd" d="M10.5998 10.2C11.0998 10.2 11.6998 10.3 12.1998 10.4C11.9998 9.9 11.9998 9.5 12.1998 9C11.6998 9.1 11.0998 9.2 10.5998 9.2H9.3998C8.8998 9.2 8.2998 9.1 7.7998 9C7.8998 9.5 7.8998 9.9 7.7998 10.5C8.2998 10.4 8.8998 10.3 9.3998 10.3H10.5998V10.2ZM10.9998 12.5C11.4998 12.5 12.0998 12.6 12.5998 12.7C12.3998 12.1 12.3998 11.8 12.5998 11.2C12.0998 11.3 11.5998 11.5 10.9998 11.5H8.8998C8.3998 11.5 7.7998 11.4 7.2998 11.3C7.4998 11.9 7.4998 12.2 7.2998 12.8C7.7998 12.6 8.3998 12.5 8.8998 12.5H10.9998Z" fill="#FEFEFE"/>
<path fill-rule="evenodd" clip-rule="evenodd" d="M9.2998 7.30078C9.3998 7.90078 9.4998 8.50078 9.4998 9.10078V16.8008H10.3998V9.10078C10.3998 8.50078 10.4998 7.90078 10.5998 7.30078C10.0998 7.50078 9.7998 7.50078 9.2998 7.30078Z" fill="#FEFEFE"/>
<path fill-rule="evenodd" clip-rule="evenodd" d="M7.8002 14.9023C7.2002 14.9023 6.7002 15.5023 6.7002 16.1023V16.3023C6.9002 16.7023 7.2002 17.0023 7.4002 17.3023C7.5002 17.3023 7.6002 17.4023 7.7002 17.4023C8.3002 17.4023 8.8002 16.8023 8.8002 16.2023C8.9002 15.5023 8.5002 14.9023 7.8002 14.9023Z" fill="#313C91"/>
<path fill-rule="evenodd" clip-rule="evenodd" d="M9.99961 14.2031C9.19961 14.2031 8.59961 14.9031 8.59961 15.8031C8.59961 16.7031 9.19961 17.4031 9.99961 17.4031C10.7996 17.4031 11.3996 16.7031 11.3996 15.8031C11.3996 14.9031 10.6996 14.2031 9.99961 14.2031Z" fill="#313C91"/>
<path fill-rule="evenodd" clip-rule="evenodd" d="M12.1 14.9023C11.5 14.9023 11 15.5023 11 16.1023C11 16.8023 11.5 17.3023 12.1 17.3023C12.2 17.3023 12.3 17.3023 12.4 17.2023C12.7 16.9023 12.9 16.5023 13.1 16.2023V16.0023C13.2 15.5023 12.7 14.9023 12.1 14.9023Z" fill="#313C91"/>
<path fill-rule="evenodd" clip-rule="evenodd" d="M6.90039 16.6016C7.60039 17.6016 8.50039 18.5016 9.90039 19.3016C11.3004 18.5016 12.3004 17.6016 12.9004 16.6016H6.90039Z" fill="#313C91"/>
</g>
</g>
<defs>
<clipPath id="clip0_26003_70610">
<rect width="38" height="25" fill="white" transform="translate(0 0.5)"/>
</clipPath>
<clipPath id="clip1_26003_70610">
<rect width="38" height="25" fill="white" transform="translate(0 0.5)"/>
</clipPath>
</defs>
</svg>
