<svg width="38" height="26" viewBox="0 0 38 26" fill="none" xmlns="http://www.w3.org/2000/svg">
<g clip-path="url(#clip0_26003_72405)">
<g clip-path="url(#clip1_26003_72405)">
<path d="M12.4424 -0.0546875H25.4975V26.0547H12.4424V-0.0546875Z" fill="white"/>
<path d="M25.5583 18.5779V-0.0546875H12.4424V7.42285L25.5583 18.5779Z" fill="white"/>
<path d="M12.4424 22.3163H25.4975V26.0547H12.4424V22.3163ZM25.5583 6.62648V-0.0546875H12.4424V2.64242L25.5583 6.62648Z" fill="white"/>
<path d="M12.442 -0.0546875H3.67754C1.65508 -0.0546875 0 1.60039 0 3.68445V22.3163C0 24.4004 1.65508 26.0547 3.67754 26.0547H12.5036V-0.0546875H12.442ZM34.3225 -0.0546875H25.558V26.0555H34.3225C36.3449 26.0555 38 24.4004 38 22.3171V3.68445C38 1.60039 36.3449 -0.0546875 34.3225 -0.0546875Z" fill="#4997D0"/>
<path d="M34.3227 -0.0546875H25.5582V18.5779L34.3227 26.0555C36.3451 26.0555 38.0002 24.4004 38.0002 22.3171V3.68445C38.0002 1.60039 36.3451 -0.0546875 34.3227 -0.0546875ZM12.4422 -0.0546875H3.67773L12.4422 7.42285V-0.0546875Z" fill="#4997D0"/>
<path d="M25.558 26.0555H34.3225C36.3449 26.0555 38 24.4004 38 22.3171H25.558V26.0555ZM0 22.3163C0 24.4004 1.65508 26.0547 3.67754 26.0547H12.5036V22.3163H0ZM34.3225 -0.0546875H25.558V6.62574L38 10.4265V3.68445C38 1.60039 36.3449 -0.0546875 34.3225 -0.0546875ZM12.442 -0.0546875H3.67754L12.442 2.64242V-0.0546875Z" fill="#4997D0"/>
<path d="M19.307 17.6584C19.2454 17.5968 19.1845 17.5359 19.1229 17.5359C18.7548 17.3518 18.449 17.2294 18.0193 17.1685C18.0193 17.1069 17.9577 17.0461 17.8968 16.9845C17.9584 16.9229 17.9584 16.7395 17.8968 16.6171C17.7743 16.3105 17.5287 15.9432 17.0388 15.6366C17.0388 15.6982 17.1613 16.004 17.2837 16.3105C17.1613 16.1265 16.9156 16.004 16.6707 15.8816C16.6707 16.004 17.1613 16.9236 17.5287 17.1077L17.5903 17.0461L17.7127 17.2301C17.5903 17.1685 17.5287 17.1077 17.4062 17.0461C17.2221 16.9845 17.0381 16.9236 16.9156 16.862H16.854C16.7316 16.8004 16.67 16.8004 16.5475 16.7395H16.4859C16.5475 16.7395 16.5475 16.8011 16.6084 16.7395C16.67 16.3105 16.3018 15.391 16.1794 15.3301C16.0569 15.9432 16.1794 16.3721 16.3634 16.6171V16.6787C16.241 16.5562 16.0569 16.5562 15.9953 16.4338L15.5047 15.9432C15.5663 15.9432 15.5663 15.8816 15.5663 15.8816C15.6279 15.7591 15.5663 15.4526 15.3214 15.1461C15.3214 14.962 15.3214 14.6555 15.1373 14.2881C15.0757 14.4105 15.0149 15.1461 15.1373 15.4526C15.1989 15.4526 15.1989 15.4526 15.2598 15.391C15.3214 15.575 15.3823 15.82 15.5047 15.9424C15.2469 15.6842 15.0207 15.3961 14.8308 15.0845V14.9004C14.8924 14.9004 14.9533 14.8388 14.9533 14.7779C15.0757 14.5939 15.0757 14.104 14.7692 13.6134C14.7692 13.675 14.7076 13.8584 14.7076 14.104C14.7076 13.9816 14.646 13.7975 14.5852 13.6134C14.7076 13.4294 14.7692 13.1845 14.8301 12.8779C14.7685 12.8779 14.5852 13.1229 14.462 13.3069V13.2453V13.3678C14.4004 13.4294 14.4004 13.5518 14.3395 13.6127C14.2779 13.4902 14.2779 13.3678 14.2779 13.2453C14.462 13.3069 14.7685 12.9388 14.8293 12.2649V11.9584C14.7677 11.9584 14.7069 12.1424 14.5844 12.2649C14.646 12.0808 14.646 11.8968 14.646 11.591C14.8301 11.4685 15.0141 11.3461 15.1975 11.1004C15.075 11.1004 14.5844 11.2845 14.2779 11.4685C14.2779 11.4069 14.2779 11.2845 14.3395 11.2236C14.4011 11.162 14.462 11.162 14.5236 11.1011C14.646 11.1627 14.8301 11.1011 15.0141 10.9787C15.1982 10.8562 15.4431 10.5497 15.6272 10.1816C15.5656 10.1816 15.3207 10.304 15.0757 10.4881C15.1982 10.304 15.3823 9.9975 15.4439 9.69098C15.3214 9.75258 14.5859 10.3649 14.5243 10.7946C14.5243 10.7946 14.4627 10.8562 14.4018 10.8562C14.4634 10.5497 14.5859 10.3048 14.7084 9.99824H14.8316C14.8932 9.99824 14.8932 9.99824 14.8932 9.93664C14.8932 9.87504 14.8932 9.87504 14.8316 9.87504C14.77 9.87504 14.77 9.87504 14.77 9.93664H14.7084C14.7084 9.87504 14.77 9.81418 14.8308 9.75258C14.8924 9.69098 15.0149 9.63012 15.0757 9.56851L14.8308 9.75258C14.9533 9.56852 15.0149 9.38445 15.1373 9.20113C15.3823 9.01707 15.6279 8.34316 15.6279 8.2207C15.5663 8.2823 15.5055 8.2823 15.5055 8.34316C15.1373 8.64969 15.0149 9.07867 15.1373 9.14027L14.7692 9.69172V9.50766V9.75258C14.7692 9.81418 14.7076 9.87504 14.7076 9.87504V9.81344C14.7076 9.81344 14.7692 9.81344 14.7692 9.75184C14.7692 9.69023 14.7692 9.69023 14.7076 9.69023C14.646 9.69023 14.646 9.69023 14.646 9.75184C14.646 9.81344 14.646 9.81344 14.7076 9.81344V9.87504C14.646 9.9975 14.5852 10.1816 14.5236 10.304V9.9359H14.5852C14.7076 9.56777 14.6468 8.7098 14.5852 8.58734C14.2786 9.26125 14.3402 9.81344 14.5236 9.8743V10.3649L14.462 10.3033V10.2417C14.462 10.1801 14.462 10.1801 14.4004 10.1801C14.3388 10.1801 14.3388 10.1801 14.3388 10.2417C14.3388 10.3033 14.3388 10.3033 14.4004 10.3033H14.462C14.462 10.3649 14.5236 10.3649 14.5236 10.3649L14.3395 10.9163C14.3395 10.8547 14.2779 10.7939 14.2779 10.7323H14.3395C14.4011 10.3033 14.033 9.44531 13.9105 9.38371C13.788 10.0576 13.9721 10.6098 14.1554 10.7323C14.217 10.7323 14.217 10.7939 14.2779 10.7939L14.3395 10.9779C14.3395 11.0395 14.2779 11.1004 14.2779 11.162C14.2779 11.2236 14.2163 11.3461 14.2163 11.4069C14.1096 11.092 13.943 10.8007 13.7257 10.5489V10.733C13.7257 11.0395 13.8482 11.2845 13.9706 11.4069C13.909 11.7134 13.909 11.9584 13.9706 12.204C13.7866 11.8975 13.5416 11.591 13.4192 11.5301C13.4808 12.3272 13.8482 12.8171 14.0931 12.8787H14.2155C14.2155 13.1236 14.2771 13.3693 14.338 13.6142L14.1539 13.3693C13.9699 13.0627 13.3568 12.6337 13.2344 12.6337C13.3568 12.9403 13.5409 13.1243 13.725 13.3077C13.909 13.491 14.0931 13.4917 14.1539 13.4301C14.1998 13.5223 14.2622 13.6054 14.338 13.675V13.7975L14.2155 13.7359C14.2155 13.6743 14.1539 13.6743 14.1539 13.6743C14.0923 13.6743 14.0923 13.7359 14.0923 13.7359C14.0923 13.7975 14.1539 13.7975 14.1539 13.7975C14.1539 13.7975 14.2155 13.7975 14.2155 13.7359C14.2771 13.7359 14.2771 13.7975 14.338 13.7975C14.4605 14.104 14.5829 14.3489 14.7061 14.6555L14.5221 14.4714C14.5221 14.4098 14.4605 14.3489 14.3996 14.2265H14.4612C14.5228 14.104 14.3388 13.92 14.0322 13.8591C13.8482 13.7366 13.6641 13.6142 13.6032 13.6142C13.6032 13.6758 13.6648 13.7982 13.7257 13.8591C13.6032 13.8591 13.4192 13.8591 13.2351 13.9207C13.2967 13.9823 13.6032 14.1048 13.909 14.2272C14.0931 14.4721 14.2771 14.5946 14.4605 14.5946C14.5221 14.5946 14.5221 14.5946 14.5221 14.533L14.7061 14.7171C14.7677 14.7787 14.7677 14.8395 14.8286 14.962C14.8286 14.8395 14.767 14.8395 14.7061 14.8395C14.4612 14.6555 13.6641 14.533 13.5416 14.5946C14.0322 14.962 14.4612 15.0236 14.6453 14.9011L14.7069 14.8395L14.8293 14.9011V14.9627C14.9571 15.2114 15.1226 15.4387 15.3199 15.6366C14.9518 15.3917 14.462 15.2077 14.3395 15.2077C14.7685 15.7591 15.2591 16.004 15.4431 15.8816C15.4431 15.8816 15.5047 15.8816 15.5047 15.82C15.6272 15.9424 15.8112 16.1265 15.9953 16.2489C15.6272 16.004 14.7692 15.9424 14.6468 15.9424C15.1982 16.433 15.7504 16.4939 15.9953 16.3714C16.0569 16.3714 16.0569 16.3098 16.0569 16.2489C16.1794 16.3105 16.3634 16.3714 16.425 16.4939C15.9961 16.3098 14.954 16.4323 14.8316 16.5555C15.5671 16.9229 16.1185 16.862 16.3642 16.6779C16.4258 16.6163 16.4258 16.5555 16.4258 16.4939C16.4874 16.5555 16.5482 16.5555 16.5482 16.5555C16.6098 16.5555 16.6707 16.6171 16.6707 16.6171C16.4866 16.6171 16.1801 16.7395 15.9352 16.9845C15.9968 16.9845 16.4258 16.9845 16.7323 16.862C16.381 17.0244 16.0516 17.2303 15.7519 17.475C16.6098 17.475 17.1613 17.1077 17.2229 16.862V16.7395C17.2845 16.7395 17.407 16.8011 17.4678 16.8011C17.5903 16.8627 17.7127 16.9852 17.7743 16.9852L17.4678 17.0468C17.0997 17.0468 16.3642 17.5374 16.2417 17.6598C16.4258 17.6598 16.6098 17.6598 16.7323 17.5982C17.2229 17.4758 17.5294 17.2309 17.4678 17.0468C17.5903 17.0468 17.6519 16.9852 17.7743 16.9852C18.2649 17.0468 18.6323 17.1693 19.0613 17.3526C19.1229 17.4142 19.1837 17.4142 19.2454 17.475L19.307 17.6584ZM14.4041 11.162C14.4041 11.0395 14.4657 10.9779 14.4657 10.8555L14.5881 10.7939H14.7722L14.5273 11.0388L14.5889 11.1004L14.4041 11.162C14.4041 11.2229 14.4041 11.2229 14.4041 11.162ZM14.22 12.6939V12.8163C14.22 12.7547 14.1584 12.6939 14.1584 12.6323C14.1584 12.6323 14.22 12.6323 14.22 12.6939ZM14.3425 11.6518H14.5265C14.4649 11.7743 14.4041 11.9584 14.3425 12.0808V11.6518ZM14.2809 12.6323C14.3425 12.6323 14.3425 12.5707 14.4033 12.5707L14.4649 12.5091C14.4033 12.5707 14.4033 12.6931 14.3425 12.754H14.2193C14.2809 12.7555 14.2809 12.6939 14.2809 12.6323ZM14.2809 12.8779C14.3425 12.8779 14.3425 12.9388 14.2809 12.8779V12.8779ZM14.4649 13.6743H14.5265C14.5265 13.7968 14.5265 13.9192 14.5881 14.0417C14.5265 13.92 14.4649 13.7968 14.4649 13.6743ZM14.9555 14.8388C14.8939 14.7163 14.833 14.5323 14.7714 14.4098C14.833 14.4098 14.8939 14.3482 14.8939 14.2257C14.8939 14.4098 14.9555 14.5931 14.9555 14.7163V14.8388C14.9555 14.9004 14.9555 14.9004 14.9555 14.8388ZM16.9164 16.9229C16.978 16.9229 17.0388 16.8612 17.0388 16.8612H17.1613C17.1004 16.862 17.0388 16.9229 16.9164 16.9229ZM17.8359 17.1069L17.6519 16.9229V16.7388C17.7135 16.8004 17.7743 16.9229 17.8359 16.9837C17.8359 16.9837 17.8975 16.9837 17.8975 16.9221L18.02 17.1062C18.02 17.1678 17.8968 17.1069 17.8359 17.1069Z" fill="#67923D"/>
<path d="M16.0585 16.1882C16.1201 16.1882 16.1201 16.1266 16.181 16.1266C16.3034 15.9425 16.181 15.3302 15.6904 14.778C15.6295 14.9012 15.8136 15.8817 16.0585 16.1882ZM14.8332 9.56937C15.0781 9.32445 15.1397 8.6498 15.0781 8.52734C14.71 9.01719 14.6491 9.44617 14.8332 9.56937ZM15.0781 14.8396C15.0165 14.8396 15.0165 14.9013 15.0165 14.9013C15.0165 14.9629 15.0781 14.9629 15.0781 14.9629C15.0781 14.9629 15.1397 14.9629 15.1397 14.9013C15.1397 14.8396 15.0781 14.8396 15.0781 14.8396ZM14.8332 15.0237C14.8332 14.9621 14.7716 14.9621 14.7716 14.9621C14.71 14.9621 14.71 15.0237 14.71 15.0237C14.71 15.0237 14.71 15.0853 14.7716 15.0853L14.8332 15.0237ZM17.223 16.6788C17.223 16.6172 17.1614 16.6172 17.1614 16.6172L17.0998 16.6788C17.0998 16.7404 17.1614 16.7404 17.1614 16.7404C17.1614 16.7404 17.223 16.7396 17.223 16.6788ZM17.4071 17.1078C17.4071 17.0462 17.3455 17.0462 17.3455 17.0462C17.3455 17.0462 17.2839 17.0462 17.2839 17.1078C17.2839 17.1694 17.3455 17.1694 17.3455 17.1694L17.4071 17.1078ZM22.9846 13.4302C22.923 13.4302 22.923 13.4302 22.9846 13.4302C22.7397 14.0433 22.7397 14.5331 22.8621 14.7788C22.9237 14.9013 22.9846 14.9013 23.0462 14.9013C23.1679 14.4723 23.0455 13.5527 22.9846 13.4302ZM23.781 11.1629C23.781 11.2245 23.781 11.2245 23.8426 11.2245C23.9042 11.2245 23.9042 11.2245 23.9042 11.1629C23.9042 11.1629 23.9042 11.1012 23.8426 11.1012C24.0266 10.9788 24.2716 10.4882 24.21 9.8143C24.0875 9.8759 23.6585 10.7339 23.6585 11.1629H23.781ZM23.4745 10.7947C23.352 10.4882 22.8005 9.93676 22.6781 9.87516C22.8005 10.4882 23.1687 10.8556 23.4136 10.7947H23.4745Z" fill="#67923D"/>
<path d="M24.7004 13.8586C24.5163 13.797 24.3939 13.797 24.2098 13.797V13.7354C24.2098 13.7354 24.1482 13.7354 24.0873 13.797C23.72 13.8586 23.5359 13.9811 23.5359 14.1036L23.3518 14.2876C23.4134 14.1036 23.4743 13.9811 23.5359 13.797L23.72 13.613C23.7816 13.6746 23.9649 13.613 24.2105 13.4905C24.3946 13.368 24.5779 13.1231 24.7011 12.8166C24.5787 12.8166 23.9048 13.3072 23.7207 13.6137L23.5366 13.7978L23.7207 13.0623C23.7823 13.0007 23.7823 12.9398 23.8432 12.8782H23.9048C24.0888 12.8166 24.3954 12.4492 24.4562 11.8362C24.3946 11.8978 24.2113 12.0811 24.0888 12.3268C24.1504 12.1427 24.1504 11.8362 24.1504 11.5912V11.4072C24.2729 11.2847 24.3954 11.1007 24.457 10.7941C24.457 10.7325 24.457 10.7325 24.5186 10.6717C24.0896 10.9782 23.8446 11.3456 23.783 11.4688C23.783 11.4072 23.783 11.3463 23.7214 11.2239C23.6598 10.9789 23.599 10.7949 23.5374 10.55C23.5374 10.4275 23.599 10.3659 23.599 10.2434C23.783 10.1818 23.8439 9.69199 23.599 9.07895C23.599 9.14055 23.5374 9.20141 23.5374 9.38547C23.5374 9.20141 23.4758 8.89488 23.3533 8.64996C23.2917 8.71156 23.2309 9.44707 23.3533 9.75359L23.2917 9.99852C23.2917 9.93691 23.2301 9.87605 23.2301 9.81445C23.2301 9.75285 23.1685 9.63039 23.1685 9.56953L23.2301 9.81445C23.1685 9.75285 23.1685 9.69199 23.1077 9.63039L23.1693 9.56879C23.2917 9.38473 23.1077 8.83328 22.5562 8.4043C22.5562 8.4659 22.6787 8.89488 22.8627 9.20141V9.26301C22.9243 9.38547 22.9852 9.50793 23.0468 9.56953C23.185 9.77597 23.2885 10.0036 23.3533 10.2434L23.1084 10.0594C23.17 10.121 23.2925 10.2434 23.3533 10.2434C23.4149 10.4275 23.4758 10.6724 23.5982 10.9173C23.6598 11.0398 23.6598 11.1623 23.7207 11.2855C23.7207 11.3471 23.7207 11.4079 23.7823 11.4695C23.7207 11.4079 23.7207 11.3471 23.6598 11.3471C23.4758 11.0405 22.7403 10.55 22.6178 10.55C22.8019 10.9181 22.9852 11.163 23.1693 11.2855C23.3533 11.4079 23.5366 11.4695 23.6598 11.4079L23.7823 11.5304V11.7145C23.7207 11.6529 23.5982 11.592 23.4758 11.5304L23.4142 11.4688V11.5304C23.1693 11.4079 22.9852 11.3463 22.9236 11.3463C23.1077 11.5304 23.2301 11.7145 23.4142 11.7753C23.4142 12.2659 23.5366 12.6333 23.7207 12.7557C23.7823 12.8173 23.7823 12.8173 23.8432 12.8173C23.8432 13.0014 23.8432 13.2463 23.7816 13.4304L23.6591 13.2463V13.0623L23.7207 13.1239C23.7823 13.1239 23.7823 13.0623 23.7823 13.0623C23.7823 13.0007 23.7207 13.0007 23.7207 13.0007C23.6591 13.0007 23.6591 13.0007 23.6591 13.0623C23.5366 12.6333 23.2301 12.0818 23.1077 12.0202V12.3268C23.1693 13.0007 23.475 13.3688 23.6591 13.3072C23.7207 13.3688 23.7207 13.4296 23.7816 13.4912C23.7816 13.6137 23.72 13.7978 23.6591 13.9202C23.6591 13.8586 23.5975 13.7978 23.5975 13.6753V13.3688C23.5975 13.4304 23.5359 13.4304 23.5359 13.4912C23.4469 13.3526 23.3652 13.2094 23.291 13.0623C23.291 13.3688 23.3526 13.6137 23.4134 13.7978C23.2294 14.2268 23.291 14.5941 23.4134 14.6557C23.3518 14.7782 23.291 14.9623 23.2294 15.0847C23.1016 15.3333 22.9361 15.5607 22.7388 15.7586V15.4521H22.8004C22.9229 15.1456 22.862 14.4101 22.8004 14.2876C22.6779 14.5941 22.6163 14.8391 22.6163 15.084C22.2489 15.513 22.2489 16.0036 22.3098 16.126L22.3714 16.1876L22.0649 16.4941L22.0033 16.5557C22.2482 16.1884 22.3098 15.2072 22.2482 15.0847C22.0915 15.2889 21.9676 15.5163 21.8808 15.7586C21.8808 15.6362 21.8808 15.5137 21.8192 15.3912C21.6968 15.5137 21.3286 16.3717 21.3902 16.8007H21.5127H21.4511C21.2062 16.9231 20.8996 16.9847 20.5931 17.1072C20.4707 17.1688 20.4091 17.2296 20.2866 17.2912L20.4091 17.1072C20.4707 17.1072 20.5315 17.1072 20.654 17.0456C20.8989 16.9231 21.2054 16.4941 21.3895 15.8811C21.3279 15.8811 21.1446 16.0036 20.9605 16.1876C21.0221 16.0652 21.0221 15.9427 21.083 15.8202C20.9605 15.8818 20.225 16.6166 20.1025 17.0463C20.1025 17.0463 20.1641 17.0463 20.1641 17.1079C20.0417 17.1695 20.0417 17.292 19.9801 17.3529C19.596 17.4199 19.2241 17.5437 18.8764 17.7202C18.8148 17.7818 18.754 17.7818 18.6924 17.8427L18.754 17.9043C18.8156 17.8427 18.8764 17.7818 18.938 17.7818C19.2446 17.6594 19.5511 17.5369 19.8576 17.4753C19.9192 17.5369 20.0417 17.5369 20.1025 17.5978C20.0409 17.7818 20.3475 18.0268 20.838 18.1492C20.9605 18.2108 21.1446 18.2108 21.3286 18.2108C21.267 18.0884 20.5315 17.5978 20.1025 17.5978V17.6594L19.8576 17.5369C19.9801 17.5369 20.1025 17.4753 20.2866 17.4753C20.3482 17.4753 20.3482 17.4753 20.4091 17.4137L20.7156 17.4753C20.9605 17.7818 21.8185 18.0884 21.9417 18.0884C21.8192 17.9043 21.6968 17.7818 21.5743 17.6594C21.8808 17.721 22.1257 17.7818 22.2482 17.7818C21.7576 17.2913 21.2062 17.1688 21.0221 17.2912L20.9605 17.3529H20.4699C20.5315 17.2913 20.5924 17.2912 20.5924 17.2912C20.7764 17.1688 21.0214 17.1688 21.2663 17.0463L21.3887 17.1079C21.3887 17.1695 21.4504 17.2304 21.5112 17.292C21.7561 17.4761 22.3083 17.4761 22.9822 17.1695C22.8598 17.1079 21.8177 16.9246 21.3887 17.1079C21.3271 17.1079 21.3271 17.1079 21.2663 17.0463C21.3279 17.0463 21.3888 16.9847 21.4504 16.9847C21.4504 16.9847 21.512 16.9231 21.5728 16.9231C21.6344 16.8615 21.6953 16.8615 21.6953 16.8007H21.8793L21.9409 16.8623C22.1859 16.9847 22.7989 16.9239 23.4728 16.3717C23.3504 16.3101 22.2467 16.4333 21.8793 16.7391V16.8007H21.6953C21.7569 16.7391 21.8793 16.7391 21.9402 16.6166L22.4308 16.126L22.4924 16.1876C22.6764 16.3101 23.1663 16.0652 23.5953 15.5137C23.4728 15.5137 22.9822 15.6978 22.6148 15.9427C22.7919 15.7645 22.937 15.5571 23.0438 15.3296H23.1663C23.1663 15.3912 23.1663 15.3912 23.2279 15.3912C23.412 15.5137 23.9634 15.4529 24.5148 15.0239C24.3924 14.9623 23.4728 15.0855 23.1663 15.3304H23.0438C23.0438 15.3304 23.0438 15.2688 23.1054 15.2688C23.167 15.1463 23.167 15.0847 23.2279 14.9623L23.2895 14.9007C23.2895 14.9623 23.3511 14.9623 23.412 14.9623C23.596 14.9623 23.8409 14.7782 24.0859 14.4108C24.3939 13.9811 24.6388 13.8586 24.7004 13.8586ZM23.8424 12.8782C23.904 12.8782 23.904 12.9391 23.8424 12.8782L23.7808 13.0623V12.6941C23.8424 12.6941 23.9033 12.6941 23.9649 12.6325C23.904 12.7557 23.904 12.8166 23.8424 12.8782ZM23.7808 11.5296C23.8424 11.5912 23.9033 11.5296 24.0257 11.468C23.9641 11.6521 23.8417 11.897 23.7808 12.142V11.5296ZM23.291 9.99777C23.3526 9.93617 23.3526 9.81371 23.3526 9.75285H23.4142C23.4758 9.75285 23.4758 9.69125 23.5366 9.56879C23.5366 9.81371 23.475 10.1202 23.5366 10.3043H23.5982L23.5366 10.5492C23.4743 10.3652 23.4134 10.1811 23.291 9.99777ZM23.72 12.1427C23.6584 12.0202 23.5975 11.8362 23.5359 11.7137C23.5975 11.7137 23.6584 11.7137 23.72 11.6521V12.1427ZM23.4743 13.8586C23.5359 13.8586 23.5359 13.8586 23.4743 13.8586V13.8586ZM20.1649 17.1072C20.1033 17.1072 20.0424 17.1072 19.9808 17.1688L20.1649 16.9239H20.2873C20.2873 16.9239 20.3489 16.9239 20.3489 16.9855C20.3489 16.9231 20.2873 17.0456 20.1649 17.1072C20.2265 17.1072 20.2265 17.1072 20.1649 17.1072ZM20.9004 17.1072C20.8388 17.1072 20.7779 17.1072 20.7779 17.1688C20.7779 17.1688 20.7163 17.1688 20.7163 17.2304C20.5939 17.1688 20.4714 17.1688 20.3489 17.1688H20.4105L20.9004 17.1072ZM21.5134 16.4941L21.6975 16.1268C21.6975 16.1884 21.6975 16.1884 21.7591 16.2492C21.7591 16.3108 21.8207 16.3108 21.8816 16.3108C21.6968 16.3717 21.5743 16.4325 21.5134 16.4941ZM22.3098 15.8811C22.4323 15.6362 22.4323 15.2072 22.4323 15.0231C22.4323 15.1456 22.4939 15.2072 22.5547 15.268C22.5547 15.268 22.6163 15.268 22.6163 15.3296V15.6362C22.4939 15.697 22.4323 15.7586 22.3098 15.8811ZM23.3518 14.5941C23.3518 14.5325 23.4134 14.4717 23.4134 14.3492L23.5975 14.1652H23.72C23.5359 14.2876 23.4134 14.4101 23.3518 14.5941Z" fill="#67923D"/>
<path d="M23.5967 10.5482C23.6583 10.6098 23.7191 10.6098 23.7191 10.5482C23.7191 10.4866 23.6583 10.4866 23.5967 10.5482C23.5967 10.4866 23.5967 10.4866 23.5967 10.5482Z" fill="#67923D"/>
<path d="M23.9044 13.3068C23.9384 13.3068 23.966 13.2792 23.966 13.2452C23.966 13.2112 23.9384 13.1836 23.9044 13.1836C23.8704 13.1836 23.8428 13.2112 23.8428 13.2452C23.8428 13.2792 23.8704 13.3068 23.9044 13.3068Z" fill="#67923D"/>
<path d="M22.8009 15.0841C22.8349 15.0841 22.8625 15.0566 22.8625 15.0225C22.8625 14.9885 22.8349 14.9609 22.8009 14.9609C22.7668 14.9609 22.7393 14.9885 22.7393 15.0225C22.7393 15.0566 22.7668 15.0841 22.8009 15.0841Z" fill="#67923D"/>
<path d="M23.168 15.2677C23.2021 15.2677 23.2296 15.2402 23.2296 15.2061C23.2296 15.1721 23.2021 15.1445 23.168 15.1445C23.134 15.1445 23.1064 15.1721 23.1064 15.2061C23.1064 15.2402 23.134 15.2677 23.168 15.2677Z" fill="#67923D"/>
<path d="M20.8389 17.0451C20.873 17.0451 20.9005 17.0175 20.9005 16.9835C20.9005 16.9495 20.873 16.9219 20.8389 16.9219C20.8049 16.9219 20.7773 16.9495 20.7773 16.9835C20.7773 17.0175 20.8049 17.0451 20.8389 17.0451Z" fill="#67923D"/>
<path d="M20.4718 17.2912C20.5058 17.2912 20.5334 17.2636 20.5334 17.2296C20.5334 17.1955 20.5058 17.168 20.4718 17.168C20.4377 17.168 20.4102 17.1955 20.4102 17.2296C20.4102 17.2636 20.4377 17.2912 20.4718 17.2912Z" fill="#67923D"/>
<path d="M23.2905 10.2415C23.2289 10.1799 23.2905 10.1799 23.2905 10.2415C23.1681 10.1799 23.1681 10.1799 23.1681 10.2415C23.1673 10.2415 23.1673 10.3024 23.2905 10.2415Z" fill="#67923D"/>
<path d="M21.451 10.0582L21.2669 9.9357L21.3285 9.8741L21.2669 9.8125H21.2053L21.1437 9.8741C21.0821 9.8741 21.0821 9.9357 21.0821 9.9357L20.2242 10.7937V10.7321C19.4887 11.406 18.8148 12.0806 18.0792 12.8161L16.8532 13.9806C16.7916 14.0422 16.6082 14.1647 16.485 14.2255C16.4234 14.2255 16.4234 14.2871 16.3626 14.2871L16.301 14.4096H16.1169C16.1785 14.4712 16.1785 14.4712 16.2394 14.4712L16.1778 14.5937C16.1778 14.6553 16.0553 14.7777 16.0553 14.8386C15.9328 14.9611 15.8712 15.0835 15.6872 15.206C15.6872 15.2676 15.6256 15.206 15.5647 15.2676C15.4423 15.3292 15.3807 15.4516 15.2582 15.5125L14.5843 16.248C14.5227 16.3096 14.5227 16.3096 14.5843 16.3705L14.9524 16.8611C15.014 16.9227 15.0749 16.9835 15.1365 16.9227C15.3205 16.6161 15.7495 16.1871 15.872 15.8198C15.9944 15.6357 16.1169 15.2067 16.1785 15.1459L16.2401 15.2075H16.4249L16.4865 15.1459L16.5481 15.0843V14.8393L16.4865 14.7777L16.8546 14.4104L16.9162 14.3488L16.9778 14.2871L17.0394 14.2255C18.0815 13.1227 19.3076 11.8966 20.288 10.8545L20.3496 10.7929L20.288 10.7313C20.4721 10.5473 20.6554 10.3023 20.8394 10.1183L20.7778 10.0567L21.0228 9.81176H21.0844L21.2068 9.99582C21.2684 10.0574 21.2684 10.0574 21.3293 9.99582L23.0452 8.40234L21.451 10.0582ZM16.609 14.9002H16.6706L16.7322 14.9618V15.0234C16.7322 15.0234 16.7322 15.085 16.6706 15.085L16.609 15.1466H16.4858V15.0234L16.5474 14.9618C16.5474 15.0234 16.609 15.0843 16.6698 15.0843H16.6082C16.5481 15.0227 16.4865 14.9618 16.609 14.9002C16.5481 14.9618 16.5481 14.9002 16.609 14.9002Z" fill="#8C959D"/>
<path d="M22.9834 16.4937L22.3703 15.6966L22.1254 15.4516C22.0638 15.4516 22.0638 15.4516 22.0029 15.39C21.8805 15.2676 21.758 15.1451 21.6964 15.0227C21.6964 15.0227 21.5739 14.8386 21.5739 14.7777L21.5123 14.6553C21.5739 14.6553 21.6348 14.5937 21.6348 14.5937C21.5732 14.5937 21.5123 14.6553 21.4507 14.5937L21.3891 14.4712C21.3891 14.4712 21.3275 14.4096 21.2667 14.4096C21.1352 14.3423 21.012 14.2601 20.8993 14.1647L19.7348 12.9386C18.9993 12.2031 18.3863 11.4676 17.7123 10.7321L17.6507 10.6705C17.4058 10.3639 17.0993 10.119 16.8536 9.8125C16.8536 9.7509 16.8536 9.7509 16.792 9.7509L16.7304 9.6893H16.6688L16.6072 9.7509L16.6688 9.8125V9.93496H16.6072L14.9521 8.40234L16.6072 10.0574H16.7297L16.9137 9.87336H16.9754C17.037 9.93496 17.0978 10.0574 17.2203 10.1183L17.1587 10.1799C17.3427 10.3639 17.5268 10.6089 17.7101 10.7929L17.7717 10.8545C18.6913 11.9582 19.8558 13.2451 20.8362 14.4096L20.8978 14.4712C20.8978 14.4712 20.8978 14.5328 20.9594 14.5328L21.021 14.5944L21.2659 14.8393L21.3884 14.9618C21.3884 14.9618 21.3268 14.9618 21.3268 15.0234L21.2652 15.085V15.2691C21.2652 15.2691 21.2652 15.3307 21.3268 15.3307L21.3884 15.3923C21.3884 15.3923 21.45 15.3923 21.45 15.4539H21.5732L21.6348 15.3923C21.6964 15.5147 21.8189 15.8829 21.8797 16.1278C22.0022 16.4952 22.4312 16.9857 22.6152 17.2923C22.6152 17.3539 22.7377 17.2923 22.7993 17.2307L23.1667 16.7401C23.0442 16.5553 23.0442 16.4937 22.9834 16.4937ZM21.1442 15.0843V15.0227C21.1442 15.0227 21.1442 14.9611 21.2058 14.9611H21.2674L21.329 15.0227C21.329 15.0227 21.329 15.0843 21.2674 15.0843H21.2058C21.2674 15.0843 21.3283 15.0227 21.3283 14.9618C21.3283 14.9618 21.3283 15.0234 21.3899 15.0234V15.1466H21.2667L21.2051 15.085C21.2058 15.0843 21.1442 15.1451 21.1442 15.0843Z" fill="#8C959D"/>
<path d="M21.5134 16.4327C21.5134 16.3718 21.5134 16.3718 21.5134 16.4327C21.5134 16.3711 21.5134 16.3102 21.4518 16.3102C21.4518 16.3102 21.4518 16.2486 21.3902 16.2486C21.3902 16.2486 21.3902 16.187 21.3286 16.187C21.3286 16.187 21.3286 16.1254 21.267 16.1254H21.2054C21.1438 16.0638 21.0213 16.0029 20.9605 16.0029C20.838 16.0029 20.7764 16.0645 20.6539 16.1254C19.4895 14.8384 18.3866 13.7348 17.0989 12.8768C16.9148 12.7544 16.4858 12.5703 16.3018 12.5703C16.4858 12.6928 16.7307 12.8152 16.9148 12.9384C17.0989 13.0609 17.2829 13.1834 17.4663 13.3674L18.5699 14.287C18.938 14.5935 19.2438 14.9609 19.5503 15.2674C19.8568 15.5739 20.1634 15.9413 20.4083 16.2479H20.3467C20.2851 16.2479 20.2851 16.2479 20.2851 16.3095C20.2851 16.3711 20.2851 16.4319 20.3467 16.4935C20.4083 16.5551 20.4083 16.5551 20.4691 16.5551C20.5307 16.5551 20.5307 16.4935 20.5916 16.4935C20.5916 16.5551 20.6532 16.5551 20.6532 16.616L20.7148 16.6776L20.8989 16.8616L20.9605 16.9232L21.1445 17.1073C21.267 17.1073 21.3286 17.0457 21.267 16.9848L21.2054 16.9232C21.5134 16.7392 21.5743 16.6167 21.5134 16.4327ZM20.5322 16.3102C20.5938 16.3102 20.5938 16.3102 20.5322 16.3102V16.3102ZM21.3293 16.8008C21.3293 16.7392 21.2677 16.6783 21.2677 16.7392C21.2677 16.6776 21.2061 16.6167 21.2061 16.6167C21.2061 16.5551 21.2061 16.4943 21.1445 16.5551C21.1445 16.4935 21.1445 16.4327 21.0829 16.4327C21.0829 16.3711 21.0829 16.3102 21.0213 16.3711V16.3095C21.0829 16.2479 21.1438 16.187 21.2054 16.187C21.267 16.1254 21.3279 16.187 21.3895 16.187C21.3895 16.187 21.3895 16.2486 21.4511 16.2486C21.4511 16.2486 21.4511 16.3102 21.5127 16.3102C21.5127 16.3102 21.5127 16.3718 21.5743 16.3718V16.4334C21.5743 16.4334 21.5743 16.495 21.6359 16.495C21.5134 16.6167 21.4518 16.7392 21.3293 16.8008Z" fill="#FAB81C"/>
<path d="M15.1388 9.69137C15.5069 9.56891 16.1809 8.8334 16.1809 8.71094C15.3229 8.95586 14.9555 9.50731 15.1388 9.69137Z" fill="#406325"/>
<path d="M15.1381 9.69137C14.954 9.50731 15.3222 8.95586 16.1801 8.71094C15.5678 9.20078 15.1381 9.62977 15.1381 9.69137Z" fill="#67923D"/>
<path d="M23.107 9.99816C22.9845 9.63004 22.3715 8.95613 22.249 8.89453C22.4323 9.69164 22.9229 10.1206 23.107 9.99816Z" fill="#406325"/>
<path d="M23.107 9.99816C22.9229 10.1822 22.4331 9.75324 22.249 8.89453C22.678 9.50758 23.0454 9.93656 23.107 9.99816Z" fill="#67923D"/>
<path d="M21.7576 12.6934C21.5127 12.6934 21.0837 12.8774 20.9613 12.9999C19.6127 13.7354 18.4482 14.7774 17.2229 16.0028C17.139 15.926 17.03 15.8825 16.9163 15.8803C16.8547 15.8803 16.7323 15.8803 16.6714 16.0028H16.6098C16.6098 16.0028 16.5482 16.0028 16.5482 16.0644L16.4866 16.126L16.425 16.1876L16.3634 16.2492V16.3108C16.3018 16.4948 16.3634 16.6173 16.425 16.7398H16.3634C16.3018 16.8014 16.3634 16.9238 16.4859 16.9238C16.5475 16.8622 16.6083 16.8014 16.6699 16.8014C16.7315 16.8014 16.7315 16.7398 16.7924 16.7398C16.854 16.6782 16.9149 16.6173 16.9765 16.6173L17.0381 16.5557L17.0997 16.4941C17.0997 16.4941 17.1613 16.5557 17.2221 16.5557C17.2837 16.5557 17.2837 16.5557 17.3446 16.4941C17.4062 16.4325 17.467 16.3716 17.4062 16.31C17.4062 16.2484 17.3446 16.2484 17.3446 16.2484C17.6511 15.9419 17.9576 15.5745 18.2641 15.268C18.6323 14.9615 18.9381 14.655 19.3062 14.3484C19.6736 14.0419 20.0417 13.7354 20.4707 13.4905C20.6547 13.368 20.8381 13.2455 21.0837 13.1231C21.3286 12.8774 21.5127 12.755 21.7576 12.6934ZM16.8547 16.3709C16.7931 16.3709 16.7323 16.4325 16.7931 16.4325C16.7315 16.4325 16.6707 16.4941 16.7315 16.4941C16.6699 16.4941 16.6091 16.5557 16.6699 16.5557C16.5475 16.4941 16.4859 16.3108 16.5475 16.1883L16.6091 16.1267V16.0651L16.6707 16.0035C16.6707 16.0035 16.7323 16.0035 16.7323 15.9419L16.7939 15.8803C16.8555 15.8803 16.9163 15.8187 16.9779 15.8803L17.162 16.0644L17.1004 16.126C17.0388 16.126 17.0388 16.1876 17.0388 16.1876C16.8547 16.2484 16.7931 16.3093 16.8547 16.3709Z" fill="#FAB81C"/>
<path d="M20.9618 13.0621C20.9618 12.9396 20.9618 12.7556 20.9002 12.6331C20.9002 12.5107 20.8386 12.3882 20.7778 12.265V12.2034C20.7162 12.0193 20.5937 11.7744 20.5329 11.5904C20.4713 11.4063 20.3488 11.2222 20.2263 11.0389L19.8589 10.4875C20.2263 10.4259 20.2263 9.93602 19.9814 9.75195H17.0995C17.0379 9.75195 16.977 9.81355 16.977 9.81355L16.8546 9.93602C16.8546 9.99762 16.793 10.0585 16.793 10.0585V10.365C16.793 10.4875 16.8546 10.5491 16.9154 10.6715L17.0379 10.9164C17.1604 11.1005 17.222 11.2846 17.2828 11.4679C17.4669 11.7744 17.5893 12.2034 17.7118 12.5715V12.6331C17.7118 12.7556 17.7734 12.8172 17.7734 12.9396C17.6509 12.9396 17.3444 12.9396 17.222 13.0013C17.222 13.0013 16.9154 13.0629 16.9154 13.4302V13.5527C16.977 13.9817 17.3444 13.9817 17.3444 13.9817L18.1415 13.9201L18.9386 13.8585C19.1836 13.8585 19.4901 13.7969 19.7357 13.7969H20.4713C20.5329 13.7353 20.5937 13.7353 20.6553 13.6744C20.7169 13.6128 20.7169 13.552 20.7778 13.4904C20.7778 13.4288 20.8394 13.3679 20.8394 13.2454C20.9618 13.1846 20.9618 13.123 20.9618 13.0621Z" fill="#F2DC70"/>
<path d="M19.4287 17.9043C19.7321 17.2991 20.0591 16.7062 20.4091 16.1268C20.3475 16.0652 20.3475 16.0043 20.2867 16.0043C19.9193 16.6782 19.4287 17.4746 19.4287 17.9043ZM21.7577 11.6521C21.6961 11.4072 21.6352 11.1615 21.5128 10.9166C21.3903 10.6101 21.1454 10.3036 20.8389 9.99703C20.3483 9.44559 19.7968 8.8934 19.0613 8.52602H19.1845H19.1229V8.46441H19.0613V8.40281H18.9381V8.34121H18.8765V8.27961H18.8149V8.21801H18.7533V8.0948V8.15641V8.0332V8.46367C18.6917 8.46367 18.6917 8.52527 18.6309 8.52527H18.8149V8.58687C18.7533 8.70934 18.6309 8.8318 18.6309 9.01586C18.6309 9.01586 18.6309 8.95426 18.6925 8.95426C18.6309 9.19918 18.8149 9.44484 19.1214 9.62816C19.2439 9.68976 19.3664 9.75062 19.4888 9.75062H19.6729C19.6729 9.81223 19.6729 9.81223 19.6113 9.87309C19.6729 9.87309 19.7338 9.81148 19.7954 9.75062C19.7954 9.81223 19.7338 9.87309 19.7338 9.99555C19.7338 9.93394 19.7954 9.87309 19.8562 9.87309C19.8562 9.93469 19.8562 9.99555 19.7946 10.0571C19.9171 10.0571 19.9787 9.99555 20.0395 9.93469C20.0395 9.99629 20.0395 10.0571 20.1011 10.1796C20.1011 10.0571 20.1011 10.0571 20.1627 9.99555C20.1627 10.118 20.2243 10.2405 20.3468 10.3021C20.2243 9.99555 20.1627 9.93394 20.2243 9.87309C20.2243 9.93469 20.3468 10.0571 20.3468 10.118C20.3468 10.0564 20.3468 9.93394 20.4084 9.87309C20.47 9.99555 20.47 10.0571 20.47 10.1796C20.47 10.118 20.5316 10.0571 20.5316 9.99555C21.6345 11.0992 21.8802 12.5695 20.6541 14.1021C21.083 13.7955 21.2055 13.3666 21.4504 12.9984C21.2055 13.489 21.1439 14.1021 20.7149 14.5311C21.0823 14.1637 21.2055 13.8571 21.4504 13.5506C21.1686 14.3066 20.7984 15.0265 20.3475 15.6955C20.4091 15.818 20.5316 15.8796 20.5925 16.0021C20.6541 15.8796 20.7149 15.7571 20.8374 15.6347C21.3287 14.7166 22.1867 13.4912 21.7577 11.6521Z" fill="#34541F"/>
<path d="M18.3867 17.4135C19.1831 17.1686 19.7353 16.5555 20.2867 16.0041L20.2251 15.9425L20.1635 15.8809C19.7353 16.4323 19.1222 17.0454 18.3867 17.4135Z" fill="#34541F"/>
</g>
</g>
<defs>
<clipPath id="clip0_26003_72405">
<rect width="38" height="25" fill="white" transform="translate(0 0.5)"/>
</clipPath>
<clipPath id="clip1_26003_72405">
<rect width="38" height="26.1102" fill="white" transform="translate(0 -0.0546875)"/>
</clipPath>
</defs>
</svg>
