<svg width="38" height="26" viewBox="0 0 38 26" fill="none" xmlns="http://www.w3.org/2000/svg">
<g clip-path="url(#clip0_26003_92614)">
<g clip-path="url(#clip1_26003_92614)">
<path fill-rule="evenodd" clip-rule="evenodd" d="M0 13H38V3.4C37.8 1.9 36.8 0.7 35.5 0.5H2.5C1.2 0.7 0.2 1.9 0 3.4V13Z" fill="#242222"/>
<path fill-rule="evenodd" clip-rule="evenodd" d="M2.5 25.5H35.5C36.8 25.3 37.8 24.1 38 22.6V13H0V22.6C0.2 24.1 1.2 25.3 2.5 25.5Z" fill="#4A9F41"/>
<path fill-rule="evenodd" clip-rule="evenodd" d="M0 8.8H38V17.1H0V8.8ZM19 4.6C16.9 4.6 15.2 6.1 14.5 8.2H23.5C22.9 6.1 21.1 4.6 19 4.6ZM26 7.7H25.7C25.3 7.8 25 8 24.5 8.2H25.8C26 8.1 26.2 8 26.2 7.8C26.3 7.7 26.2 7.7 26 7.7ZM12 7.7C11.9 7.7 11.8 7.7 11.7 7.8C11.7 8 11.9 8.1 12.1 8.2H13.4C12.9 7.9 12.7 7.8 12.2 7.7H12ZM25.9 7C26 7 26.1 7 26.1 7.1C26.2 7.3 26 7.4 25.7 7.5C25.2 7.7 24.9 7.8 24 7.9C24.7 7.4 25 7.2 25.6 7H25.9ZM12.1 7C12.2 7 12.3 7 12.4 7.1C13 7.3 13.3 7.5 14 8C13.1 7.8 12.8 7.8 12.3 7.6C12.1 7.5 11.9 7.4 11.9 7.2C12 7 12 7 12.1 7ZM25.6 6.3C25.5 6.3 25.4 6.3 25.3 6.4C24.8 6.7 24.5 6.9 23.8 7.5C24.6 7.2 24.9 7.2 25.5 6.9C25.7 6.8 25.9 6.6 25.8 6.4C25.8 6.3 25.7 6.3 25.6 6.3ZM12.4 6.3C12.3 6.3 12.2 6.3 12.2 6.4C12.1 6.6 12.3 6.7 12.5 6.9C13 7.2 13.3 7.2 14.2 7.5C13.5 6.9 13.2 6.7 12.7 6.4C12.6 6.3 12.5 6.3 12.4 6.3ZM25.4 5.7C25.3 5.7 25.2 5.8 25 5.8C24.5 6.1 24.3 6.4 23.6 7C24.4 6.7 24.7 6.6 25.2 6.2C25.4 6.1 25.6 5.9 25.5 5.7H25.4ZM12.6 5.7C12.5 5.7 12.5 5.7 12.5 5.8C12.4 6 12.6 6.1 12.8 6.3C13.3 6.6 13.6 6.7 14.4 7.1C13.7 6.5 13.5 6.2 13 5.9C12.9 5.7 12.8 5.7 12.6 5.7ZM25 5.1C25.1 5.1 25.1 5.1 25.2 5.2C25.3 5.3 25.1 5.6 24.9 5.7C24.4 6.1 24.1 6.2 23.4 6.6C24 5.9 24.2 5.7 24.7 5.3C24.8 5.1 24.9 5.1 25 5.1ZM13 5.1C13.1 5.1 13.3 5.2 13.4 5.3C13.9 5.7 14.1 5.9 14.7 6.6C13.9 6.2 13.6 6.1 13.2 5.7C13 5.5 12.8 5.3 12.9 5.2C12.9 5.1 12.9 5.1 13 5.1ZM24.7 4.5C24.7 4.5 24.8 4.5 24.8 4.6C24.9 4.7 24.8 5 24.6 5.1C24.2 5.5 23.9 5.7 23.1 6.2C23.7 5.4 23.8 5.2 24.3 4.7C24.4 4.6 24.5 4.5 24.7 4.5ZM13.4 4.5C13.5 4.5 13.7 4.6 13.8 4.7C14.2 5.1 14.4 5.4 15 6.2C14.2 5.7 14 5.5 13.5 5.1C13.3 4.9 13.2 4.7 13.3 4.6C13.3 4.5 13.3 4.5 13.4 4.5ZM24.2 3.9H24.3C24.4 4 24.3 4.3 24.1 4.5C23.7 5 23.4 5.1 22.7 5.7C23.2 4.9 23.4 4.6 23.8 4.1C24 4.1 24.1 3.9 24.2 3.9ZM13.8 3.9C13.9 3.9 14.1 4 14.2 4.2C14.6 4.7 14.8 5 15.3 5.8C14.6 5.2 14.3 5.1 13.9 4.6C13.7 4.4 13.6 4.2 13.7 4L13.8 3.9ZM23.8 3.5C23.7 3.5 23.5 3.6 23.4 3.8C23 4.3 22.9 4.6 22.5 5.5C23.2 4.9 23.4 4.7 23.8 4.2C23.9 3.9 24 3.6 23.9 3.5H23.8ZM14.3 3.5C14.2 3.5 14.2 3.5 14.3 3.5C14.1 3.7 14.2 3.9 14.4 4.1C14.8 4.6 15 4.8 15.7 5.4C15.3 4.6 15.1 4.2 14.8 3.7C14.5 3.6 14.4 3.4 14.3 3.5ZM23.3 3C23.2 3 23 3.2 22.9 3.3C22.6 3.8 22.5 4.2 22.1 5.1C22.7 4.4 22.9 4.2 23.3 3.6C23.4 3.4 23.5 3.1 23.3 3ZM14.8 3C14.6 3.1 14.7 3.4 14.8 3.6C15.1 4.1 15.4 4.4 16 5.1C15.6 4.2 15.5 3.9 15.2 3.3C15 3.2 14.9 3 14.8 3ZM22.7 2.6C22.6 2.6 22.4 2.8 22.3 3C22.1 3.5 22 3.9 21.7 4.8C22.3 4.1 22.5 3.8 22.8 3.2C22.9 3 22.9 2.7 22.7 2.6ZM15.3 2.6C15.1 2.7 15.2 3 15.3 3.2C15.6 3.8 15.8 4 16.4 4.8C16.1 3.9 16 3.5 15.7 3C15.6 2.8 15.4 2.6 15.3 2.6ZM22.1 2.3C22.2 2.3 22.2 2.3 22.1 2.3C22.3 2.4 22.3 2.7 22.2 2.9C22 3.5 21.8 3.8 21.3 4.6C21.5 3.7 21.6 3.3 21.8 2.7C21.9 2.5 22 2.3 22.1 2.3ZM15.9 2.3C16 2.3 16.2 2.5 16.3 2.7C16.5 3.3 16.6 3.6 16.8 4.6C16.3 3.8 16.1 3.5 15.9 2.9C15.7 2.6 15.7 2.4 15.9 2.3ZM21.5 2C21.6 2 21.6 2 21.5 2C21.7 2.1 21.7 2.4 21.6 2.6C21.4 3.2 21.2 3.5 20.8 4.3C20.9 3.3 21 3 21.2 2.4C21.3 2.2 21.4 2 21.5 2ZM16.5 2C16.6 2 16.7 2.2 16.8 2.4C17 3 17 3.4 17.2 4.3C16.8 3.5 16.6 3.2 16.4 2.6C16.3 2.4 16.3 2.1 16.5 2ZM20.9 1.8C20.8 1.8 20.6 2 20.6 2.3C20.4 2.9 20.4 3.3 20.4 4.3C20.8 3.4 20.9 3.1 21.1 2.5C21.1 2.1 21.1 1.8 20.9 1.8ZM17.1 1.8C16.9 1.9 16.9 2.1 17 2.4C17.1 3 17.3 3.3 17.7 4.2C17.6 3.2 17.6 2.9 17.5 2.2C17.4 2 17.2 1.8 17.1 1.8ZM20.3 1.6C20.5 1.6 20.5 1.9 20.5 2.2C20.4 2.8 20.3 3.2 20 4.1C20 3.1 20 2.8 20.1 2.1C20.1 1.9 20.2 1.6 20.3 1.6ZM17.7 1.6C17.8 1.6 17.9 1.8 18 2.1C18.1 2.7 18.1 3.1 18.1 4.1C17.8 3.2 17.7 2.9 17.6 2.2C17.5 1.9 17.6 1.7 17.7 1.6ZM19.7 1.5C19.5 1.5 19.5 1.8 19.4 2C19.3 2.6 19.4 3 19.5 4C19.7 3 19.8 2.7 19.9 2.1C19.9 1.8 19.8 1.5 19.7 1.5ZM18.4 1.5C18.2 1.5 18.2 1.8 18.2 2.1C18.3 2.7 18.3 3.1 18.6 4C18.7 3 18.7 2.7 18.7 2C18.6 1.8 18.5 1.5 18.4 1.5ZM19 1.5C18.8 1.5 18.8 1.8 18.8 2C18.8 2.6 18.9 3 19 4C19.2 3 19.2 2.7 19.2 2C19.2 1.8 19.2 1.5 19 1.5Z" fill="#C12837"/>
</g>
</g>
<defs>
<clipPath id="clip0_26003_92614">
<rect width="38" height="25" fill="white" transform="translate(0 0.5)"/>
</clipPath>
<clipPath id="clip1_26003_92614">
<rect width="38" height="25" fill="white" transform="translate(0 0.5)"/>
</clipPath>
</defs>
</svg>
