<svg width="38" height="26" viewBox="0 0 38 26" fill="none" xmlns="http://www.w3.org/2000/svg">
<g clip-path="url(#clip0_26003_70113)">
<g clip-path="url(#clip1_26003_70113)">
<path d="M35.2 25.5H2.8C1.3 25.5 0 24.2 0 22.6V3.4C0 1.8 1.3 0.5 2.8 0.5H35.1C36.7 0.5 38 1.8 38 3.4V22.7C38 24.2 36.7 25.5 35.2 25.5Z" fill="#F5F5F5"/>
<path d="M0 22.6C0 24.2 1.3 25.5 2.8 25.5H35.1C36.7 25.5 37.9 24.2 37.9 22.6V16.9H0V22.6ZM26.2 9.7V8.4H24.9V5.1H25.6V3.8H21.6V5.1H22.3V8.4H20.3V3.8H21V2.5H17V3.8H17.7V8.4H15.7V5.1H16.4V3.8H12.4V5.1H13.1V8.4H11.8V9.7H12.4V15H11.8V16.3H26.2V15H25.6V9.7H26.2Z" fill="#F22A3E"/>
<path d="M20.3002 15.5984H17.7002V12.9984C17.7002 12.2984 18.3002 11.6984 19.0002 11.6984C19.7002 11.6984 20.3002 12.2984 20.3002 12.9984V15.5984ZM19.0002 6.39844C18.6002 6.39844 18.3002 6.69844 18.3002 7.09844V9.09844H19.6002V7.09844C19.7002 6.69844 19.4002 6.39844 19.0002 6.39844ZM23.6002 7.09844C23.2002 7.09844 22.9002 7.39844 22.9002 7.79844V9.09844H24.2002V7.69844C24.2002 7.39844 23.9002 7.09844 23.6002 7.09844ZM14.4002 7.09844C14.0002 7.09844 13.7002 7.39844 13.7002 7.79844V9.09844H15.0002V7.69844C15.1002 7.39844 14.8002 7.09844 14.4002 7.09844ZM24.2002 15.5984H21.6002V13.5984C21.6002 12.8984 22.2002 12.2984 22.9002 12.2984C23.6002 12.2984 24.2002 12.8984 24.2002 13.5984V15.5984ZM16.4002 15.5984H13.8002V13.5984C13.8002 12.8984 14.4002 12.2984 15.1002 12.2984C15.8002 12.2984 16.4002 12.8984 16.4002 13.5984V15.5984Z" fill="#464655"/>
<path d="M20.8002 17.8992C20.8002 17.7992 20.7002 17.6992 20.7002 17.5992L19.4002 16.6992V16.4992L20.5002 15.8992C20.7002 15.7992 20.7002 15.5992 20.6002 15.4992C20.5002 15.2992 20.3002 15.2992 20.2002 15.3992L19.0002 15.8992L17.8002 15.2992C17.6002 15.1992 17.4002 15.2992 17.4002 15.3992C17.3002 15.5992 17.4002 15.7992 17.5002 15.7992L18.6002 16.3992V16.6992L17.3002 17.5992C17.2002 17.6992 17.2002 17.7992 17.2002 17.8992C17.2002 17.9992 17.3002 18.0992 17.3002 18.1992L18.6002 19.0992V21.8992H17.3002V22.3992C17.3002 22.5992 17.4002 22.6992 17.6002 22.6992C17.7002 22.6992 17.8002 22.5992 17.9002 22.4992H18.6002V23.1992H18.0002C17.9002 23.0992 17.8002 22.9992 17.7002 22.9992C17.5002 22.9992 17.4002 23.0992 17.4002 23.2992V23.7992H18.7002V24.0992C18.7002 24.2992 18.8002 24.3992 19.0002 24.3992C19.2002 24.3992 19.3002 24.2992 19.3002 24.0992V18.9992L20.6002 18.0992C20.7002 18.0992 20.8002 17.9992 20.8002 17.8992ZM19.0002 18.4992L18.1002 17.8992L19.0002 17.2992L19.9002 17.8992L19.0002 18.4992Z" fill="#FCD32B"/>
</g>
</g>
<defs>
<clipPath id="clip0_26003_70113">
<rect width="38" height="25" fill="white" transform="translate(0 0.5)"/>
</clipPath>
<clipPath id="clip1_26003_70113">
<rect width="38" height="25" fill="white" transform="translate(0 0.5)"/>
</clipPath>
</defs>
</svg>
