<svg width="38" height="26" viewBox="0 0 38 26" fill="none" xmlns="http://www.w3.org/2000/svg">
<g clip-path="url(#clip0_26003_91282)">
<g clip-path="url(#clip1_26003_91282)">
<path fill-rule="evenodd" clip-rule="evenodd" d="M38 22.55V3.45C37.81 1.79 36.54 0.5 35.02 0.5H2.98C1.46 0.5 0.19 1.79 0 3.45V22.56C0.19 24.21 1.46 25.5 2.98 25.5H35.02C36.54 25.5 37.81 24.21 38 22.55Z" fill="#2F3085"/>
<path fill-rule="evenodd" clip-rule="evenodd" d="M0 6.75H38V19.25H0V6.75Z" fill="#C0282D"/>
<path fill-rule="evenodd" clip-rule="evenodd" d="M11.9502 12.9805H26.0402V15.5505H11.9502V12.9805Z" fill="#FEFEFE"/>
<path fill-rule="evenodd" clip-rule="evenodd" d="M26.0199 12.9792L11.9499 12.9992L11.9799 15.5492L26.0199 15.5092V12.9792ZM26.0699 15.5792H11.9499L11.9199 12.9792L26.0399 12.9492L26.0699 15.5792Z" fill="#C0282D"/>
<path fill-rule="evenodd" clip-rule="evenodd" d="M11.9397 15.5508L11.7197 16.1508H26.2797L26.0497 15.5508H11.9397Z" fill="#FEFEFE"/>
<path fill-rule="evenodd" clip-rule="evenodd" d="M11.7599 16.1195H26.2399L26.0299 15.5595L11.9399 15.5795L11.7599 16.1195ZM26.3299 16.1895H11.6699L11.9099 15.5395L26.0499 15.5195L26.3299 16.1895Z" fill="#C0282D"/>
<path fill-rule="evenodd" clip-rule="evenodd" d="M23.0798 15.5508L22.7998 16.1508H26.1098L25.8398 15.5508H23.0798Z" fill="#FEFEFE"/>
<path fill-rule="evenodd" clip-rule="evenodd" d="M22.84 16.1198H26.06L25.81 15.5698L23.07 15.5898L22.84 16.1198ZM26.16 16.1898H22.75L23.05 15.5298L25.83 15.5098L26.16 16.1898Z" fill="#C0282D"/>
<path fill-rule="evenodd" clip-rule="evenodd" d="M23.8705 15.5508L23.7305 16.1508H25.4005L25.2605 15.5508H23.8705Z" fill="#FEFEFE"/>
<path fill-rule="evenodd" clip-rule="evenodd" d="M25.2405 15.5498L23.8805 15.5798L23.7705 16.1598L25.3805 16.1298L25.2405 15.5498ZM25.4405 16.1898H23.7305L23.8405 15.5398L25.2605 15.5098L25.4405 16.1898Z" fill="#C0282D"/>
<path fill-rule="evenodd" clip-rule="evenodd" d="M24.1203 15.5508L24.0303 16.1508H25.1103L25.0203 15.5508H24.1203Z" fill="#FEFEFE"/>
<path fill-rule="evenodd" clip-rule="evenodd" d="M24.9903 15.5495L24.1203 15.5795L24.0603 16.1495L25.0803 16.1195L24.9903 15.5495ZM25.1403 16.1895H24.0303L24.0903 15.5495L25.0203 15.5195L25.1403 16.1895Z" fill="#C0282D"/>
<path fill-rule="evenodd" clip-rule="evenodd" d="M17.5498 15.5508L17.2598 16.1508H20.7398L20.4498 15.5508H17.5498Z" fill="#FEFEFE"/>
<path fill-rule="evenodd" clip-rule="evenodd" d="M17.3 16.1198H20.69L20.42 15.5698L17.54 15.5898L17.3 16.1198ZM20.79 16.1898H17.21L17.52 15.5298L20.45 15.5098L20.79 16.1898Z" fill="#C0282D"/>
<path fill-rule="evenodd" clip-rule="evenodd" d="M11.8799 12.9395H26.1299V13.5395H11.8799V12.9395Z" fill="#FEFEFE"/>
<path fill-rule="evenodd" clip-rule="evenodd" d="M26.0996 12.9402L11.8796 12.9702L11.9096 13.5402L26.1096 13.5102V12.9402H26.0996ZM26.1496 13.5802H11.8796L11.8496 12.9402L26.1296 12.9102L26.1496 13.5802Z" fill="#C0282D"/>
<path fill-rule="evenodd" clip-rule="evenodd" d="M23.0498 12.9805H25.8398V15.5405H23.0498V12.9805Z" fill="#FEFEFE"/>
<path fill-rule="evenodd" clip-rule="evenodd" d="M25.8195 12.9792L23.0595 13.0092L23.0895 15.5392L25.8295 15.4992V12.9792H25.8195ZM25.8695 15.5692H23.0495L23.0195 12.9792L25.8395 12.9492L25.8695 15.5692Z" fill="#C0282D"/>
<path fill-rule="evenodd" clip-rule="evenodd" d="M25.0498 14.1797H25.3298V15.5397H25.0498V14.1797Z" fill="#FEFEFE"/>
<path fill-rule="evenodd" clip-rule="evenodd" d="M25.2995 14.1804L25.0495 14.2204L25.0795 15.5504L25.2995 15.5204V14.1804ZM25.3595 15.5704H25.0495L25.0195 14.1804L25.3295 14.1504L25.3595 15.5704Z" fill="#C0282D"/>
<path fill-rule="evenodd" clip-rule="evenodd" d="M23.8203 14.1797H24.1003V15.5397H23.8203V14.1797Z" fill="#FEFEFE"/>
<path fill-rule="evenodd" clip-rule="evenodd" d="M24.07 14.1804L23.82 14.2204L23.85 15.5504L24.07 15.5204V14.1804ZM24.13 15.5704H23.82L23.79 14.1804L24.1 14.1504L24.13 15.5704Z" fill="#C0282D"/>
<path fill-rule="evenodd" clip-rule="evenodd" d="M18.2601 15.5508L18.1201 16.1508H19.8601L19.7201 15.5508H18.2601Z" fill="#FEFEFE"/>
<path fill-rule="evenodd" clip-rule="evenodd" d="M19.6904 15.5498L18.2604 15.5798L18.1404 16.1598L19.8304 16.1298L19.6904 15.5498ZM19.9004 16.1898H18.1104L18.2304 15.5398L19.7104 15.5098L19.9004 16.1898Z" fill="#C0282D"/>
<path fill-rule="evenodd" clip-rule="evenodd" d="M18.5402 15.5508L18.4502 16.1508H19.5502L19.4602 15.5508H18.5402Z" fill="#FEFEFE"/>
<path fill-rule="evenodd" clip-rule="evenodd" d="M19.4302 15.5498L18.5402 15.5798L18.4802 16.1598L19.5202 16.1298L19.4302 15.5498ZM19.5802 16.1898H18.4502L18.5102 15.5398L19.4502 15.5098L19.5802 16.1898Z" fill="#C0282D"/>
<path fill-rule="evenodd" clip-rule="evenodd" d="M17.5098 12.9805H20.4498V15.5505H17.5098V12.9805Z" fill="#FEFEFE"/>
<path fill-rule="evenodd" clip-rule="evenodd" d="M20.4305 12.9792L17.5105 12.9992L17.5405 15.5492L20.4305 15.5092V12.9792ZM20.4805 15.5792H17.5105L17.4805 12.9792L20.4505 12.9492L20.4805 15.5792Z" fill="#C0282D"/>
<path fill-rule="evenodd" clip-rule="evenodd" d="M19.8604 14.1797H20.1404V15.5397H19.8604V14.1797Z" fill="#FEFEFE"/>
<path fill-rule="evenodd" clip-rule="evenodd" d="M20.1101 14.1804L19.8601 14.2204L19.8901 15.5504L20.1101 15.5104V14.1804ZM20.1701 15.5704H19.8601L19.8301 14.1804L20.1401 14.1504L20.1701 15.5704Z" fill="#C0282D"/>
<path fill-rule="evenodd" clip-rule="evenodd" d="M17.9199 14.1797H18.1999V15.5397H17.9199V14.1797Z" fill="#FEFEFE"/>
<path fill-rule="evenodd" clip-rule="evenodd" d="M18.1699 14.1804L17.9199 14.2204L17.9499 15.5504L18.1799 15.5104V14.1804H18.1699ZM18.2199 15.5704H17.9099L17.8799 14.1804L18.1899 14.1504L18.2199 15.5704Z" fill="#C0282D"/>
<path fill-rule="evenodd" clip-rule="evenodd" d="M18.29 12.3496H19.72V15.5396H18.29V12.3496Z" fill="#FEFEFE"/>
<path fill-rule="evenodd" clip-rule="evenodd" d="M19.6798 12.3501L18.2798 12.3801L18.3098 15.5401L19.6798 15.5001V12.3501ZM19.7398 15.5801H18.2898L18.2598 12.3601L19.7098 12.3301L19.7398 15.5801Z" fill="#C0282D"/>
<path fill-rule="evenodd" clip-rule="evenodd" d="M19.3496 14.1797H19.6296V15.5397H19.3496V14.1797Z" fill="#FEFEFE"/>
<path fill-rule="evenodd" clip-rule="evenodd" d="M19.6103 14.1804L19.3603 14.2204L19.3903 15.5504L19.6103 15.5104V14.1804ZM19.6603 15.5704H19.3503L19.3203 14.1804L19.6303 14.1504L19.6603 15.5704Z" fill="#C0282D"/>
<path fill-rule="evenodd" clip-rule="evenodd" d="M18.4199 14.1797H18.6999V15.5397H18.4199V14.1797Z" fill="#FEFEFE"/>
<path fill-rule="evenodd" clip-rule="evenodd" d="M18.6696 14.1804L18.4196 14.2204L18.4496 15.5504L18.6696 15.5104V14.1804ZM18.7296 15.5704H18.4196L18.3896 14.1804L18.6996 14.1504L18.7296 15.5704Z" fill="#C0282D"/>
<path fill-rule="evenodd" clip-rule="evenodd" d="M18.3799 12.8691L18.9799 13.8491L19.6199 12.8691H18.3799Z" fill="#FEFEFE"/>
<path fill-rule="evenodd" clip-rule="evenodd" d="M18.4301 12.8998L18.9801 13.7998L19.5601 12.8998H18.4301ZM18.9801 13.8998L18.3301 12.8398H19.6801L18.9801 13.8998Z" fill="#C0282D"/>
<path fill-rule="evenodd" clip-rule="evenodd" d="M24.1602 12.9805H24.9502V16.1505H24.1602V12.9805Z" fill="#FEFEFE"/>
<path fill-rule="evenodd" clip-rule="evenodd" d="M24.9299 12.9792L24.1599 12.9992L24.1899 16.1492L24.9299 16.1192V12.9792ZM24.9799 16.1892H24.1599L24.1299 12.9792L24.9499 12.9492L24.9799 16.1892Z" fill="#C0282D"/>
<path fill-rule="evenodd" clip-rule="evenodd" d="M24.29 12.9805H24.82V16.1505H24.29V12.9805Z" fill="#FEFEFE"/>
<path fill-rule="evenodd" clip-rule="evenodd" d="M24.7895 12.9792L24.2895 12.9992L24.3195 16.1492L24.7895 16.1192V12.9792ZM24.8495 16.1892H24.2995L24.2695 12.9792L24.8195 12.9492L24.8495 16.1892Z" fill="#C0282D"/>
<path fill-rule="evenodd" clip-rule="evenodd" d="M12.1304 15.5508L11.8604 16.1508H15.1704L14.8904 15.5508H12.1304Z" fill="#FEFEFE"/>
<path fill-rule="evenodd" clip-rule="evenodd" d="M11.8996 16.1198H15.1196L14.8696 15.5698L12.1296 15.5898L11.8996 16.1198ZM15.2196 16.1898H11.8096L12.1096 15.5298L14.8996 15.5098L15.2196 16.1898Z" fill="#C0282D"/>
<path fill-rule="evenodd" clip-rule="evenodd" d="M12.7999 15.5508L12.6699 16.1508H14.2199L14.0899 15.5508H12.7999Z" fill="#FEFEFE"/>
<path fill-rule="evenodd" clip-rule="evenodd" d="M14.0699 15.5498L12.7999 15.5798L12.6999 16.1598L14.1999 16.1298L14.0699 15.5498ZM14.2599 16.1898H12.6699L12.7699 15.5398L14.0899 15.5098L14.2599 16.1898Z" fill="#C0282D"/>
<path fill-rule="evenodd" clip-rule="evenodd" d="M13.0304 15.5508L12.9404 16.1508H13.9404L13.8604 15.5508H13.0304Z" fill="#FEFEFE"/>
<path fill-rule="evenodd" clip-rule="evenodd" d="M13.8304 15.5498L13.0304 15.5798L12.9704 16.1498L13.9004 16.1198L13.8304 15.5498ZM13.9704 16.1898H12.9404L13.0004 15.5398L13.8604 15.5098L13.9704 16.1898Z" fill="#C0282D"/>
<path fill-rule="evenodd" clip-rule="evenodd" d="M12.1104 12.9805H14.8804V15.5505H12.1104V12.9805Z" fill="#FEFEFE"/>
<path fill-rule="evenodd" clip-rule="evenodd" d="M14.8601 12.9792L12.1201 12.9992L12.1501 15.5492L14.8701 15.5092V12.9792H14.8601ZM14.9101 15.5792H12.1101L12.0801 12.9792L14.8801 12.9492L14.9101 15.5792Z" fill="#C0282D"/>
<path fill-rule="evenodd" clip-rule="evenodd" d="M12.6504 14.1797H12.9304V15.5397H12.6504V14.1797Z" fill="#FEFEFE"/>
<path fill-rule="evenodd" clip-rule="evenodd" d="M12.9001 14.1804L12.6501 14.2204L12.6801 15.5504L12.9001 15.5204V14.1804ZM12.9601 15.5704H12.6501L12.6201 14.1804L12.9301 14.1504L12.9601 15.5704Z" fill="#C0282D"/>
<path fill-rule="evenodd" clip-rule="evenodd" d="M13.9404 14.1797H14.2204V15.5397H13.9404V14.1797Z" fill="#FEFEFE"/>
<path fill-rule="evenodd" clip-rule="evenodd" d="M14.1904 14.1804L13.9404 14.2204L13.9704 15.5504L14.1904 15.5204V14.1804ZM14.2404 15.5704H13.9304L13.9004 14.1804L14.2104 14.1504L14.2404 15.5704Z" fill="#C0282D"/>
<path fill-rule="evenodd" clip-rule="evenodd" d="M13.0596 12.9805H13.8496V16.1505H13.0596V12.9805Z" fill="#FEFEFE"/>
<path fill-rule="evenodd" clip-rule="evenodd" d="M13.8303 12.9792L13.0703 12.9992L13.1003 16.1492L13.8403 16.1192V12.9792H13.8303ZM13.8803 16.1892H13.0603L13.0303 12.9792L13.8503 12.9492L13.8803 16.1892Z" fill="#C0282D"/>
<path fill-rule="evenodd" clip-rule="evenodd" d="M13.1904 12.9805H13.7204V16.1505H13.1904V12.9805Z" fill="#FEFEFE"/>
<path fill-rule="evenodd" clip-rule="evenodd" d="M13.6902 12.9792L13.1902 12.9992L13.2202 16.1492L13.6902 16.1192V12.9792ZM13.7502 16.1892H13.1902L13.1602 12.9792L13.7102 12.9492L13.7502 16.1892Z" fill="#C0282D"/>
<path fill-rule="evenodd" clip-rule="evenodd" d="M11.7197 12.3691H26.2897V12.9691H11.7197V12.3691Z" fill="#FEFEFE"/>
<path fill-rule="evenodd" clip-rule="evenodd" d="M26.2497 12.3698L11.7197 12.3998L11.7497 12.9698L26.2597 12.9398V12.3698H26.2497ZM26.3097 12.9998H11.7097L11.6797 12.3698L26.2697 12.3398L26.3097 12.9998Z" fill="#C0282D"/>
<path fill-rule="evenodd" clip-rule="evenodd" d="M11.3096 16H26.6296V16.78H11.3096V16Z" fill="#FEFEFE"/>
<path fill-rule="evenodd" clip-rule="evenodd" d="M26.6003 16.0007L11.3103 16.0307L11.3403 16.7807L26.6003 16.7507V16.0007ZM26.6603 16.8107H11.3103L11.2803 16.0007L26.6303 15.9707L26.6603 16.8107Z" fill="#C0282D"/>
<path fill-rule="evenodd" clip-rule="evenodd" d="M11.0801 16.1699H26.8701V16.9499H11.0801V16.1699Z" fill="#FEFEFE"/>
<path fill-rule="evenodd" clip-rule="evenodd" d="M26.8298 16.1706L11.0798 16.2006L11.1098 16.9406L26.8398 16.9106V16.1706H26.8298ZM26.8898 16.9806H11.0798L11.0498 16.1706L26.8598 16.1406L26.8898 16.9806Z" fill="#C0282D"/>
<path fill-rule="evenodd" clip-rule="evenodd" d="M10.6699 16.6094H27.3299V17.3894H10.6699V16.6094Z" fill="#FEFEFE"/>
<path fill-rule="evenodd" clip-rule="evenodd" d="M27.2996 16.6101L10.6696 16.6401L10.6996 17.3901L27.3096 17.3601V16.6101H27.2996ZM27.3596 17.4201H10.6696L10.6396 16.6101L27.3296 16.5801L27.3596 17.4201Z" fill="#C0282D"/>
<path fill-rule="evenodd" clip-rule="evenodd" d="M10.0801 17.1699H27.9101V17.9399H10.0801V17.1699Z" fill="#FEFEFE"/>
<path fill-rule="evenodd" clip-rule="evenodd" d="M27.8898 17.1706L10.0898 17.1906L10.1198 17.9406L27.8898 17.9106V17.1706ZM27.9398 17.9806H10.0798L10.0498 17.1806L27.9098 17.1406L27.9398 17.9806Z" fill="#C0282D"/>
<path fill-rule="evenodd" clip-rule="evenodd" d="M9.5 17.9492H28.49V18.7192H9.5V17.9492Z" fill="#FEFEFE"/>
<path fill-rule="evenodd" clip-rule="evenodd" d="M28.4697 17.9499L9.49973 17.9799L9.52973 18.7199L28.4697 18.6899V17.9499ZM28.5197 18.7499H9.49973L9.46973 17.9499L28.4897 17.9199L28.5197 18.7499Z" fill="#C0282D"/>
<path fill-rule="evenodd" clip-rule="evenodd" d="M13.0596 16H13.8496V18.72H13.0596V16Z" fill="#FEFEFE"/>
<path fill-rule="evenodd" clip-rule="evenodd" d="M13.8303 16.0007L13.0703 16.0307L13.1003 18.7207L13.8403 18.6907V16.0007H13.8303ZM13.8803 18.7507H13.0603L13.0303 16.0007L13.8503 15.9707L13.8803 18.7507Z" fill="#C0282D"/>
<path fill-rule="evenodd" clip-rule="evenodd" d="M13.1904 16H13.7204V18.72H13.1904V16Z" fill="#FEFEFE"/>
<path fill-rule="evenodd" clip-rule="evenodd" d="M13.6902 16.0007L13.1902 16.0307L13.2202 18.7207L13.6902 18.6907V16.0007ZM13.7502 18.7507H13.1902L13.1602 16.0007L13.7202 15.9707L13.7502 18.7507Z" fill="#C0282D"/>
<path fill-rule="evenodd" clip-rule="evenodd" d="M24.1396 16H24.9296V18.72H24.1396V16Z" fill="#FEFEFE"/>
<path fill-rule="evenodd" clip-rule="evenodd" d="M24.9104 16.0007L24.1404 16.0307L24.1704 18.7207L24.9004 18.6907V16.0007H24.9104ZM24.9604 18.7507H24.1404L24.1104 16.0007L24.9304 15.9707L24.9604 18.7507Z" fill="#C0282D"/>
<path fill-rule="evenodd" clip-rule="evenodd" d="M24.2803 16H24.8103V18.72H24.2803V16Z" fill="#FEFEFE"/>
<path fill-rule="evenodd" clip-rule="evenodd" d="M24.78 16.0007L24.28 16.0307L24.31 18.7207L24.78 18.6907V16.0007ZM24.83 18.7507H24.28L24.25 16.0007L24.81 15.9707L24.83 18.7507Z" fill="#C0282D"/>
<path fill-rule="evenodd" clip-rule="evenodd" d="M18.71 12.9805H19.35V18.7305H18.71V12.9805Z" fill="#FEFEFE"/>
<path fill-rule="evenodd" clip-rule="evenodd" d="M19.3097 12.9795L18.6997 12.9995L18.7297 18.7195L19.3097 18.6895V12.9795ZM19.3697 18.7495H18.7097L18.6797 12.9695L19.3397 12.9395L19.3697 18.7495Z" fill="#C0282D"/>
<path fill-rule="evenodd" clip-rule="evenodd" d="M23.2402 13.0002L23.2502 11.4302C23.2502 11.4302 23.3902 11.7402 24.5002 11.8102C25.5402 11.7702 25.7202 11.5802 25.7602 11.4102L25.7202 13.0102L23.2402 13.0002Z" fill="#FEFEFE"/>
<path fill-rule="evenodd" clip-rule="evenodd" d="M23.27 11.5105L23.26 13.0005L25.68 12.9805L25.72 11.5405C25.6 11.6805 25.31 11.8105 24.49 11.8405C23.68 11.7805 23.37 11.6005 23.27 11.5105ZM25.73 13.0405H23.23L23.21 11.4305V11.3105L23.26 11.4105C23.26 11.4205 23.42 11.7105 24.48 11.7705C25.49 11.7305 25.67 11.5605 25.72 11.4005L25.77 11.4105L25.73 13.0405Z" fill="#C0282D"/>
<path fill-rule="evenodd" clip-rule="evenodd" d="M23.9504 11.1602L23.6104 10.8502C23.7304 10.7702 23.9404 10.9102 23.9404 10.9102C23.9404 10.9102 24.0504 10.5502 24.5404 10.4102C25.0304 10.5602 25.1404 10.9102 25.1404 10.9102C25.1404 10.9102 25.3504 10.7702 25.4604 10.8502L25.1204 11.1602H23.9504Z" fill="#FEFEFE"/>
<path fill-rule="evenodd" clip-rule="evenodd" d="M23.6898 10.8591L23.6198 10.8691L23.9598 11.1291L25.0998 11.1191L25.3998 10.8491H25.3598C25.2812 10.858 25.2058 10.8854 25.1398 10.9291C25.0998 10.9091 24.9798 10.5691 24.5198 10.4291C24.0698 10.5691 23.9498 10.9091 23.9498 10.9091C23.9098 10.9391 23.7998 10.8591 23.6898 10.8591ZM25.1298 11.1891H23.9498L23.5898 10.8691C23.6198 10.7991 23.6598 10.7891 23.6898 10.7891C23.7998 10.7891 23.9198 10.8591 23.9398 10.8691C23.9298 10.8391 24.0598 10.5091 24.5298 10.3691C24.9898 10.4991 25.1298 10.7991 25.1598 10.8791C25.1798 10.8391 25.3798 10.7491 25.4798 10.8191L25.1298 11.1891Z" fill="#C0282D"/>
<path fill-rule="evenodd" clip-rule="evenodd" d="M23.7701 11.9602L23.3301 11.5302C23.4801 11.4102 23.7501 11.6102 23.7501 11.6102C23.7501 11.6102 23.9001 11.1202 24.5301 10.9102C25.1601 11.1202 25.3101 11.6102 25.3101 11.6102C25.3101 11.6102 25.5801 11.4102 25.7301 11.5302L25.2901 11.9602H23.7701Z" fill="#FEFEFE"/>
<path fill-rule="evenodd" clip-rule="evenodd" d="M23.4396 11.5191C23.3996 11.5191 23.3696 11.5391 23.3396 11.5591L23.7796 11.9391L25.2796 11.9291L25.7096 11.5191C25.6796 11.5391 25.6596 11.5291 25.6196 11.5291C25.513 11.5389 25.4119 11.5808 25.3296 11.6491C25.2896 11.6291 25.1396 11.1491 24.5296 10.9491C23.9296 11.1491 23.7796 11.6291 23.7796 11.6291C23.7296 11.6391 23.5796 11.5191 23.4396 11.5191ZM25.2996 11.9891H23.7696L23.3096 11.5491C23.3496 11.4691 23.3896 11.4491 23.4396 11.4491C23.5796 11.4491 23.7296 11.5591 23.7596 11.5691C23.7396 11.5391 23.8996 11.0691 24.5196 10.8691C25.1296 11.0691 25.2996 11.4991 25.3296 11.5791C25.3396 11.5391 25.6196 11.3991 25.7496 11.4991L25.2996 11.9891Z" fill="#C0282D"/>
<path fill-rule="evenodd" clip-rule="evenodd" d="M24.5402 8.75C24.5502 8.75 25.0702 9.79 24.5402 9.8C24.0102 9.82 24.5402 8.78 24.5402 8.75Z" fill="#FEFEFE"/>
<path fill-rule="evenodd" clip-rule="evenodd" d="M24.5396 8.8107C24.4596 8.9907 24.2496 9.4907 24.3596 9.6907C24.3896 9.7407 24.4496 9.7707 24.5296 9.7707V9.8007L24.5396 9.7707C24.5797 9.77204 24.6192 9.76131 24.6531 9.73991C24.687 9.71851 24.7136 9.68744 24.7296 9.6507C24.8196 9.4307 24.6196 8.9607 24.5396 8.8107ZM24.5296 9.8307C24.4855 9.83291 24.4416 9.82287 24.4027 9.8017C24.3639 9.78052 24.3317 9.74903 24.3096 9.7107C24.1896 9.4907 24.3996 8.9807 24.4796 8.7807L24.4996 8.7207L24.5296 8.7307H24.5596L24.5496 8.7507C24.6496 8.8607 24.7896 9.2607 24.7896 9.4907C24.7896 9.7007 24.6996 9.8107 24.5296 9.8207V9.8307Z" fill="#C0282D"/>
<path fill-rule="evenodd" clip-rule="evenodd" d="M24.0901 10.0602L23.8301 9.90016C23.9201 9.85016 24.0801 9.92016 24.0801 9.92016C24.0801 9.92016 24.1701 9.74016 24.5401 9.66016C24.9201 9.75016 25.0001 9.93016 25.0001 9.93016C25.0001 9.93016 25.1601 9.86016 25.2501 9.91016L24.9901 10.0702H24.0901V10.0602Z" fill="#FEFEFE"/>
<path fill-rule="evenodd" clip-rule="evenodd" d="M23.9198 9.92086L24.1098 10.0309H24.9898L25.1698 9.92086C25.0998 9.92086 25.0198 9.96086 25.0198 9.96086C24.9798 9.94086 24.8998 9.77086 24.5398 9.70086C24.1898 9.78086 24.1098 9.95086 24.1098 9.95086C24.0698 9.96086 23.9898 9.92086 23.9198 9.92086ZM24.9998 10.1009H24.0898L23.7598 9.90086L23.8098 9.87086C23.8898 9.83086 24.0498 9.89086 24.0798 9.90086C24.0698 9.87086 24.1798 9.71086 24.5298 9.63086C24.8898 9.71086 24.9998 9.87086 25.0198 9.90086C25.0298 9.88086 25.1898 9.84086 25.2598 9.87086L25.3098 9.90086L24.9998 10.1009Z" fill="#C0282D"/>
<path fill-rule="evenodd" clip-rule="evenodd" d="M24.3096 10.1908V10.0608C24.3096 10.0608 24.3596 9.87078 24.5496 9.80078C24.7396 9.88078 24.7896 10.0608 24.7896 10.0608V10.1908H24.3096Z" fill="#FEFEFE"/>
<path fill-rule="evenodd" clip-rule="evenodd" d="M24.5303 9.8293C24.4802 9.8504 24.4359 9.88321 24.4011 9.92497C24.3663 9.96672 24.342 10.0162 24.3303 10.0693L24.3403 10.1893L24.7503 10.1693V10.0693C24.7358 10.0145 24.7082 9.96397 24.6699 9.92216C24.6316 9.88035 24.5836 9.84848 24.5303 9.8293ZM24.8003 10.2293H24.3103L24.2803 10.0693C24.2803 10.0493 24.3303 9.8593 24.5303 9.7793C24.7503 9.8593 24.8003 10.0493 24.8003 10.0593V10.2293Z" fill="#C0282D"/>
<path fill-rule="evenodd" clip-rule="evenodd" d="M24.0803 10.5905L24.0703 10.4205C24.0703 10.4205 24.1603 10.1705 24.5503 10.0605C24.9403 10.1705 25.0203 10.4205 25.0203 10.4205L25.0003 10.5905H24.0803Z" fill="#FEFEFE"/>
<path fill-rule="evenodd" clip-rule="evenodd" d="M24.53 10.0993C24.18 10.1893 24.09 10.4293 24.09 10.4293L24.1 10.5893L24.97 10.5593L24.98 10.4193C24.98 10.4193 24.89 10.1893 24.53 10.0993ZM25.03 10.6193H24.08L24.04 10.4193C24.04 10.3893 24.14 10.1393 24.53 10.0293C24.94 10.1393 25.03 10.3893 25.04 10.3993L25.03 10.6193Z" fill="#C0282D"/>
<path fill-rule="evenodd" clip-rule="evenodd" d="M24.0803 10.8601L24.0703 10.6801C24.0703 10.6801 24.1603 10.4301 24.5503 10.3301C24.9403 10.4301 25.0203 10.6801 25.0203 10.6801L25.0003 10.8601H24.0803Z" fill="#FEFEFE"/>
<path fill-rule="evenodd" clip-rule="evenodd" d="M24.53 10.3608C24.18 10.4608 24.09 10.7008 24.09 10.7008L24.1 10.8608L24.97 10.8308L24.98 10.6908C24.98 10.6808 24.89 10.4508 24.53 10.3608ZM25.03 10.8908H24.08L24.04 10.6908C24.04 10.6608 24.14 10.4108 24.53 10.3008C24.94 10.4108 25.03 10.6608 25.04 10.6708L25.03 10.8908Z" fill="#C0282D"/>
<path fill-rule="evenodd" clip-rule="evenodd" d="M24.0901 11.6498L23.8301 11.2198C23.9201 11.1098 24.0801 11.2898 24.0801 11.2898C24.0801 11.2898 24.1701 10.7998 24.5401 10.5898C24.9201 10.7998 25.0001 11.2998 25.0001 11.2998C25.0001 11.2998 25.1601 11.1098 25.2501 11.2298L24.9901 11.6598H24.0901V11.6498Z" fill="#FEFEFE"/>
<path fill-rule="evenodd" clip-rule="evenodd" d="M23.9003 11.2201L23.8503 11.2401L24.1203 11.6301L24.9803 11.6101L25.2303 11.2001L25.1903 11.2101C25.1303 11.2101 25.0503 11.2901 25.0303 11.3101L24.9903 11.3501L24.9803 11.2901C24.9803 11.2801 24.8903 10.8101 24.5303 10.6101C24.1903 10.8101 24.1103 11.2901 24.1103 11.2901L24.1003 11.3501L24.0703 11.3001C24.0303 11.3001 23.9603 11.2201 23.9003 11.2201ZM25.0103 11.6901H24.1003L23.8203 11.2501C23.8903 11.0601 24.0103 11.2001 24.0803 11.2601C24.1103 11.1201 24.2303 10.7601 24.5503 10.5801C24.8803 10.7601 25.0003 11.1201 25.0403 11.2601C25.1003 11.2001 25.2303 11.1301 25.3003 11.2101L25.0103 11.6901Z" fill="#C0282D"/>
<path fill-rule="evenodd" clip-rule="evenodd" d="M24.0901 12.1791L23.8301 11.7491C23.9201 11.6291 24.0801 11.8291 24.0801 11.8291C24.0801 11.8291 24.1701 11.3291 24.5401 11.1191C24.9201 11.3191 25.0001 11.8291 25.0001 11.8291C25.0001 11.8291 25.1601 11.6291 25.2501 11.7491L24.9901 12.1791H24.0901Z" fill="#FEFEFE"/>
<path fill-rule="evenodd" clip-rule="evenodd" d="M23.9003 11.7498C23.8803 11.7498 23.8703 11.7598 23.8503 11.7798L24.1203 12.1698L24.9803 12.1598L25.2303 11.7498C25.2203 11.7698 25.2003 11.7598 25.1803 11.7598C25.1203 11.7598 25.0503 11.8398 25.0203 11.8598L24.9803 11.9098L24.9703 11.8498C24.9703 11.8498 24.8803 11.3698 24.5203 11.1698C24.1803 11.3698 24.1003 11.8498 24.1003 11.8498V11.8998L24.0703 11.8498C24.0303 11.8298 23.9603 11.7498 23.9003 11.7498ZM25.0103 12.2098H24.1003L23.8203 11.7698C23.8903 11.5698 24.0103 11.7098 24.0803 11.7698C24.1103 11.6298 24.2303 11.2698 24.5503 11.0898C24.8803 11.2698 25.0003 11.6298 25.0403 11.7698C25.1003 11.7098 25.2303 11.6398 25.3003 11.7298L25.0103 12.2098Z" fill="#C0282D"/>
<path fill-rule="evenodd" clip-rule="evenodd" d="M24.0803 12.9804L24.0703 12.5404C24.0703 12.5404 24.1603 11.9104 24.5503 11.6504C24.9403 11.9104 25.0203 12.5404 25.0203 12.5404L25.0003 12.9804H24.0803Z" fill="#FEFEFE"/>
<path fill-rule="evenodd" clip-rule="evenodd" d="M24.53 11.6809C24.19 11.9309 24.1 12.5309 24.1 12.5409L24.11 12.9809L24.98 12.9509L24.99 12.5409C24.99 12.5309 24.9 11.9309 24.53 11.6809ZM25.03 13.0009H24.08L24.04 12.5409C24.05 12.5009 24.14 11.8909 24.53 11.6309C24.95 11.8909 25.04 12.5109 25.05 12.5409L25.03 13.0009Z" fill="#C0282D"/>
<path fill-rule="evenodd" clip-rule="evenodd" d="M24.0901 12.9795L23.8301 12.6595C23.9201 12.5795 24.0801 12.7195 24.0801 12.7195C24.0801 12.7195 24.1701 12.3495 24.5401 12.1895C24.9201 12.3495 25.0001 12.7195 25.0001 12.7195C25.0001 12.7195 25.1601 12.5795 25.2501 12.6595L24.9901 12.9795H24.0901Z" fill="#FEFEFE"/>
<path fill-rule="evenodd" clip-rule="evenodd" d="M23.8996 12.6604L23.8496 12.6804L24.1196 12.9604L24.9896 12.9504L25.2196 12.6704H25.1896C25.1258 12.6782 25.0662 12.7062 25.0196 12.7504L24.9896 12.7804L24.9796 12.7404C24.9796 12.7404 24.8896 12.3804 24.5296 12.2404C24.1896 12.3804 24.0996 12.7404 24.0996 12.7404L24.0896 12.7804L24.0596 12.7504C24.0596 12.7404 23.9696 12.6604 23.8996 12.6604ZM24.9996 13.0004H24.0896L23.8096 12.6704C23.8296 12.6004 23.8596 12.5904 23.8996 12.5904C23.9596 12.5904 24.0296 12.6304 24.0696 12.6604C24.1065 12.5465 24.1676 12.442 24.2487 12.3539C24.3299 12.2659 24.4291 12.1965 24.5396 12.1504C24.8696 12.2804 24.9896 12.5504 25.0296 12.6604C25.0896 12.6204 25.2196 12.5604 25.2796 12.6204L24.9996 13.0004Z" fill="#C0282D"/>
<path fill-rule="evenodd" clip-rule="evenodd" d="M12.88 11.0391L12.54 10.7391C12.65 10.6591 12.87 10.7891 12.87 10.7891C12.87 10.7891 12.99 10.4391 13.47 10.2891C13.96 10.4391 14.07 10.7891 14.07 10.7891C14.07 10.7891 14.28 10.6491 14.39 10.7391L14.05 11.0391H12.88Z" fill="#FEFEFE"/>
<path fill-rule="evenodd" clip-rule="evenodd" d="M12.6295 10.7398L12.5595 10.7498L12.8995 11.0098L14.0495 10.9998L14.3495 10.7298H14.3095C14.2095 10.7298 14.0895 10.7998 14.0895 10.7998C14.0495 10.7898 13.9295 10.4398 13.4695 10.2998C13.0195 10.4398 12.9095 10.7798 12.8995 10.7798C12.8395 10.8198 12.7295 10.7398 12.6295 10.7398ZM14.0595 11.0698H12.8795L12.5195 10.7598C12.5495 10.6898 12.5895 10.6798 12.6295 10.6798C12.7395 10.6798 12.8495 10.7498 12.8795 10.7598C12.8595 10.7298 12.9895 10.3998 13.4595 10.2598C13.9195 10.3998 14.0695 10.6998 14.0895 10.7698C14.0995 10.7298 14.3095 10.6498 14.4095 10.7098L14.0595 11.0698Z" fill="#C0282D"/>
<path fill-rule="evenodd" clip-rule="evenodd" d="M12.6998 11.8391L12.2598 11.4091C12.4098 11.2991 12.6898 11.4991 12.6898 11.4991C12.6898 11.4991 12.8398 11.0091 13.4698 10.7891C14.0998 10.9991 14.2498 11.4991 14.2498 11.4991C14.2498 11.4991 14.5198 11.2991 14.6698 11.4091L14.2298 11.8391H12.6998Z" fill="#FEFEFE"/>
<path fill-rule="evenodd" clip-rule="evenodd" d="M12.3802 11.4098C12.3446 11.409 12.3096 11.4195 12.2802 11.4398L12.7302 11.8198L14.2202 11.8098L14.6402 11.3898C14.6202 11.4098 14.5902 11.3998 14.5502 11.3998C14.4202 11.3998 14.2602 11.4998 14.2602 11.5098C14.2202 11.4898 14.0702 11.0098 13.4602 10.7998C12.8602 10.9998 12.7202 11.4898 12.7102 11.4898C12.6702 11.5198 12.5102 11.4098 12.3802 11.4098ZM14.2402 11.8798H12.7002L12.2402 11.4398C12.2802 11.3598 12.3202 11.3498 12.3702 11.3498C12.5102 11.3498 12.6702 11.4598 12.6902 11.4698C12.6702 11.4398 12.8302 10.9698 13.4502 10.7598C14.0602 10.9598 14.2402 11.3998 14.2602 11.4798C14.2802 11.4298 14.5502 11.2998 14.6802 11.3998L14.2402 11.8798Z" fill="#C0282D"/>
<path fill-rule="evenodd" clip-rule="evenodd" d="M12.2598 13.0002L12.2698 11.4302C12.2698 11.4302 12.4098 11.7402 13.5098 11.8102C14.5598 11.7702 14.7298 11.5802 14.7698 11.4102L14.7298 13.0102L12.2598 13.0002Z" fill="#FEFEFE"/>
<path fill-rule="evenodd" clip-rule="evenodd" d="M12.3002 11.5105L12.2902 13.0005L14.7102 12.9805L14.7502 11.5405C14.6402 11.6805 14.3402 11.8105 13.5202 11.8405C12.7002 11.7805 12.4002 11.6005 12.3002 11.5105ZM14.7602 13.0405H12.2602L12.2402 11.4305V11.3105L12.2902 11.4105C12.2902 11.4205 12.4502 11.7105 13.5102 11.7705C14.5202 11.7305 14.7002 11.5605 14.7502 11.4005L14.8002 11.4105L14.7602 13.0405Z" fill="#C0282D"/>
<path fill-rule="evenodd" clip-rule="evenodd" d="M13.4602 8.75C13.4702 8.75 13.9902 9.79 13.4602 9.8C12.9302 9.82 13.4602 8.78 13.4602 8.75Z" fill="#FEFEFE"/>
<path fill-rule="evenodd" clip-rule="evenodd" d="M13.4597 8.8107C13.3897 8.9907 13.1697 9.4907 13.2797 9.6907C13.3097 9.7407 13.3697 9.7707 13.4497 9.7707V9.8007L13.4597 9.7707C13.5597 9.7707 13.6197 9.7207 13.6497 9.6507C13.7297 9.4307 13.5297 8.9607 13.4597 8.8107ZM13.4397 9.8307C13.3397 9.8307 13.2697 9.7907 13.2297 9.7107C13.0997 9.4907 13.3197 8.9807 13.3997 8.7807L13.4197 8.7207L13.4497 8.7307H13.4797L13.4697 8.7507C13.5597 8.8607 13.7097 9.2607 13.7097 9.4907C13.7097 9.7007 13.6197 9.8107 13.4397 9.8207V9.8307Z" fill="#C0282D"/>
<path fill-rule="evenodd" clip-rule="evenodd" d="M13.01 10.0599L12.75 9.89992C12.83 9.85992 13 9.92992 13 9.92992C13 9.92992 13.09 9.74992 13.46 9.66992C13.83 9.74992 13.92 9.92992 13.92 9.92992C13.92 9.92992 14.08 9.85992 14.17 9.90992L13.91 10.0699H13.01V10.0599Z" fill="#FEFEFE"/>
<path fill-rule="evenodd" clip-rule="evenodd" d="M12.8297 9.92086L13.0197 10.0309H13.8997L14.0797 9.92086C14.0097 9.92086 13.9297 9.96086 13.9297 9.96086C13.8897 9.94086 13.8097 9.77086 13.4497 9.70086C13.1097 9.78086 13.0197 9.95086 13.0197 9.95086C12.9897 9.96086 12.9097 9.92086 12.8297 9.92086ZM13.9197 10.1009H13.0097L12.6797 9.90086L12.7397 9.87086C12.8097 9.84086 12.9697 9.89086 12.9997 9.90086C12.9897 9.87086 13.0997 9.71086 13.4497 9.63086C13.7997 9.70086 13.9097 9.86086 13.9397 9.90086C13.9497 9.88086 14.1097 9.84086 14.1797 9.87086L14.2297 9.90086L13.9197 10.1009Z" fill="#C0282D"/>
<path fill-rule="evenodd" clip-rule="evenodd" d="M13.2297 10.1908L13.2197 10.0608C13.2197 10.0608 13.2697 9.87078 13.4597 9.80078C13.6497 9.88078 13.6997 10.0608 13.6997 10.0608V10.1908H13.2297Z" fill="#FEFEFE"/>
<path fill-rule="evenodd" clip-rule="evenodd" d="M13.4497 9.8293C13.3996 9.8504 13.3553 9.88321 13.3205 9.92497C13.2857 9.96672 13.2614 10.0162 13.2497 10.0693L13.2597 10.1893L13.6697 10.1693L13.6797 10.0693C13.6697 10.0593 13.6197 9.8993 13.4497 9.8293ZM13.7097 10.2293H13.2197L13.1797 10.0693C13.1947 10.0028 13.2265 9.94127 13.272 9.89051C13.3175 9.83976 13.3752 9.80148 13.4397 9.7793C13.6597 9.8593 13.7097 10.0493 13.7097 10.0593V10.2293Z" fill="#C0282D"/>
<path fill-rule="evenodd" clip-rule="evenodd" d="M13.0002 10.5905L12.9902 10.4205C12.9902 10.4205 13.0802 10.1705 13.4702 10.0605C13.8602 10.1705 13.9402 10.4205 13.9402 10.4205L13.9302 10.5905H13.0002Z" fill="#FEFEFE"/>
<path fill-rule="evenodd" clip-rule="evenodd" d="M13.45 10.0993C13.1 10.1893 13.01 10.4293 13.01 10.4293L13.03 10.5893L13.9 10.5593L13.91 10.4193C13.9 10.4193 13.81 10.1893 13.45 10.0993ZM13.94 10.6193H13L12.96 10.4193C12.97 10.3893 13.06 10.1393 13.46 10.0293C13.87 10.1393 13.96 10.3893 13.97 10.3993L13.94 10.6193Z" fill="#C0282D"/>
<path fill-rule="evenodd" clip-rule="evenodd" d="M13.0002 10.8601L12.9902 10.6801C12.9902 10.6801 13.0802 10.4301 13.4702 10.3301C13.8602 10.4301 13.9402 10.6801 13.9402 10.6801L13.9302 10.8601H13.0002Z" fill="#FEFEFE"/>
<path fill-rule="evenodd" clip-rule="evenodd" d="M13.45 10.3608C13.1 10.4608 13.01 10.7008 13.01 10.7008L13.02 10.8608L13.89 10.8308L13.9 10.6908C13.9 10.6808 13.81 10.4508 13.45 10.3608ZM13.94 10.8908H13L12.96 10.6908C12.97 10.6608 13.06 10.4108 13.46 10.3008C13.87 10.4108 13.96 10.6608 13.97 10.6708L13.94 10.8908Z" fill="#C0282D"/>
<path fill-rule="evenodd" clip-rule="evenodd" d="M13.01 11.6496L12.75 11.2196C12.83 11.1096 13 11.2996 13 11.2996C13 11.2996 13.09 10.8096 13.46 10.5996C13.83 10.8096 13.92 11.2996 13.92 11.2996C13.92 11.2996 14.08 11.1096 14.17 11.2296L13.91 11.6596H13.01V11.6496Z" fill="#FEFEFE"/>
<path fill-rule="evenodd" clip-rule="evenodd" d="M12.8097 11.2201L12.7597 11.2401L13.0197 11.6301L13.8797 11.6101L14.1297 11.2001L14.0897 11.2101C14.0297 11.2101 13.9497 11.2901 13.9297 11.3101L13.8897 11.3501L13.8797 11.2901C13.8797 11.2801 13.7897 10.8101 13.4297 10.6101C13.0997 10.8101 13.0097 11.2901 13.0097 11.2901L12.9997 11.3501L12.9597 11.3001C12.9497 11.3001 12.8697 11.2201 12.8097 11.2201ZM13.9197 11.6901H13.0097L12.7197 11.2501C12.7897 11.0601 12.9197 11.2001 12.9797 11.2601C13.0097 11.1201 13.1297 10.7601 13.4497 10.5801C13.7797 10.7601 13.9097 11.1201 13.9397 11.2601C13.9997 11.2001 14.1297 11.1301 14.1897 11.2101L13.9197 11.6901Z" fill="#C0282D"/>
<path fill-rule="evenodd" clip-rule="evenodd" d="M13.01 12.1791L12.75 11.7491C12.84 11.6291 13 11.8291 13 11.8291C13 11.8291 13.09 11.3291 13.46 11.1191C13.83 11.3191 13.92 11.8291 13.92 11.8291C13.92 11.8291 14.08 11.6291 14.17 11.7491L13.91 12.1791H13.01Z" fill="#FEFEFE"/>
<path fill-rule="evenodd" clip-rule="evenodd" d="M12.8097 11.7498C12.7897 11.7498 12.7797 11.7598 12.7597 11.7798L13.0197 12.1698L13.8797 12.1598L14.1297 11.7498C14.1197 11.7698 14.1097 11.7598 14.0897 11.7598C14.0297 11.7598 13.9497 11.8398 13.9297 11.8598L13.8997 11.8998L13.8897 11.8398C13.8897 11.8398 13.7997 11.3598 13.4397 11.1598C13.1097 11.3598 13.0197 11.8398 13.0197 11.8398L13.0097 11.8998L12.9697 11.8498C12.9497 11.8298 12.8697 11.7498 12.8097 11.7498ZM13.9197 12.2098H13.0097L12.7197 11.7698C12.7897 11.5698 12.9197 11.7098 12.9797 11.7698C13.0097 11.6298 13.1297 11.2698 13.4497 11.0898C13.7797 11.2698 13.9097 11.6298 13.9397 11.7698C13.9997 11.7098 14.1297 11.6398 14.1897 11.7298L13.9197 12.2098Z" fill="#C0282D"/>
<path fill-rule="evenodd" clip-rule="evenodd" d="M13.0002 12.9804L12.9902 12.5404C12.9902 12.5404 13.0802 11.9104 13.4702 11.6504C13.8602 11.9104 13.9402 12.5404 13.9402 12.5404L13.9302 12.9804H13.0002Z" fill="#FEFEFE"/>
<path fill-rule="evenodd" clip-rule="evenodd" d="M13.44 11.6809C13.1 11.9309 13.01 12.5309 13.01 12.5409L13.02 12.9809L13.89 12.9509L13.9 12.5409C13.9 12.5309 13.81 11.9309 13.44 11.6809ZM13.95 13.0009H13L12.96 12.5409C12.97 12.5009 13.06 11.8909 13.45 11.6309C13.87 11.8909 13.96 12.5109 13.97 12.5409L13.95 13.0009Z" fill="#C0282D"/>
<path fill-rule="evenodd" clip-rule="evenodd" d="M13.01 12.9795L12.75 12.6595C12.84 12.5795 13 12.7195 13 12.7195C13 12.7195 13.09 12.3495 13.46 12.1895C13.83 12.3495 13.92 12.7195 13.92 12.7195C13.92 12.7195 14.08 12.5795 14.17 12.6595L13.91 12.9795H13.01Z" fill="#FEFEFE"/>
<path fill-rule="evenodd" clip-rule="evenodd" d="M12.8105 12.6604C12.792 12.6611 12.7743 12.6681 12.7605 12.6804L13.0205 12.9604L13.8905 12.9504L14.1205 12.6704H14.0905C14.0205 12.6704 13.9205 12.7504 13.9205 12.7504L13.8905 12.7804L13.8805 12.7404C13.8805 12.7404 13.7905 12.3804 13.4305 12.2404C13.0905 12.3804 13.0105 12.7404 13.0005 12.7404L12.9905 12.7804L12.9605 12.7504C12.9805 12.7404 12.8905 12.6604 12.8105 12.6604ZM13.9205 13.0004H13.0105L12.7305 12.6704C12.7605 12.6004 12.7805 12.5904 12.8205 12.5904C12.8805 12.5904 12.9505 12.6304 12.9905 12.6604C13.0274 12.5465 13.0885 12.442 13.1696 12.3539C13.2508 12.2659 13.35 12.1965 13.4605 12.1504C13.7905 12.2804 13.9105 12.5504 13.9505 12.6604C14.0105 12.6204 14.1405 12.5604 14.2005 12.6204L13.9205 13.0004Z" fill="#C0282D"/>
<path fill-rule="evenodd" clip-rule="evenodd" d="M17.3896 12.2695H20.6096C20.7696 12.2695 20.8996 12.4095 20.8996 12.5895C20.8996 12.7595 20.7696 12.9095 20.6096 12.9095H17.3896C17.2296 12.9095 17.0996 12.7595 17.0996 12.5895C17.0996 12.4095 17.2296 12.2695 17.3896 12.2695Z" fill="#FEFEFE"/>
<path fill-rule="evenodd" clip-rule="evenodd" d="M17.3903 12.3002C17.2403 12.3002 17.1303 12.4302 17.1303 12.5902C17.1303 12.7502 17.2403 12.8802 17.3903 12.8802H20.6103C20.7503 12.8802 20.8703 12.7502 20.8703 12.5902C20.8703 12.4202 20.7503 12.3002 20.6103 12.3002H17.3903ZM20.6103 12.9502H17.3903C17.2203 12.9502 17.0703 12.7902 17.0703 12.6002C17.0703 12.4102 17.2103 12.2402 17.3903 12.2402H20.6103C20.7803 12.2402 20.9303 12.4102 20.9303 12.6002C20.9303 12.7902 20.7803 12.9502 20.6103 12.9502Z" fill="#C0282D"/>
<path fill-rule="evenodd" clip-rule="evenodd" d="M20.9603 12.65L20.9803 10.5C20.9803 10.5 20.9103 11.03 20.6903 11.03H17.3203C17.1003 11.03 17.0303 10.5 17.0303 10.5L17.0503 12.65H20.9603Z" fill="#FEFEFE"/>
<path fill-rule="evenodd" clip-rule="evenodd" d="M17.0502 10.75L17.0702 12.64L20.9302 12.61L20.9502 10.74C20.9002 10.89 20.8202 11.05 20.6902 11.05H17.3202C17.1802 11.06 17.1002 10.91 17.0502 10.75ZM20.9802 12.68H17.0402L16.9902 10.5H17.0502C17.0702 10.64 17.1602 11 17.3202 11H20.6902C20.8502 11 20.9402 10.64 20.9602 10.5H21.0102L20.9802 12.68Z" fill="#C0282D"/>
<path fill-rule="evenodd" clip-rule="evenodd" d="M20.2102 11.6709L20.2202 10.9709C20.2202 10.9709 20.6402 10.8409 20.5802 10.6609C20.5202 10.4809 20.0102 10.8909 20.0102 10.8909H17.9802C17.9802 10.8909 17.4702 10.4809 17.4102 10.6609C17.3502 10.8409 17.7702 10.9709 17.7702 10.9709L17.7802 11.6709H20.2102Z" fill="#FEFEFE"/>
<path fill-rule="evenodd" clip-rule="evenodd" d="M17.4904 10.6501C17.4604 10.6501 17.4504 10.6601 17.4504 10.6701C17.4404 10.6901 17.4504 10.7101 17.4604 10.7301C17.5104 10.8301 17.7204 10.9101 17.8004 10.9401L17.8304 11.6701L20.1904 11.6401L20.2004 10.9701C20.3004 10.9101 20.5104 10.8301 20.5604 10.7301C20.5656 10.721 20.5684 10.7106 20.5684 10.7001C20.5684 10.6895 20.5656 10.6792 20.5604 10.6701C20.5604 10.6501 20.5504 10.6501 20.5204 10.6501C20.4004 10.6501 20.1304 10.8401 20.0404 10.9201L18.0004 10.9301C17.8804 10.8501 17.6104 10.6501 17.4904 10.6501ZM20.2304 11.7101H17.7904L17.7504 10.9801C17.7404 11.0001 17.4604 10.9101 17.4004 10.7601C17.3804 10.7301 17.3804 10.6901 17.3904 10.6501C17.4004 10.6201 17.4204 10.5801 17.4904 10.5801C17.6504 10.5801 17.9904 10.8501 18.0004 10.8601H20.0104C20.0104 10.8501 20.3404 10.5801 20.5004 10.5801C20.5704 10.5801 20.5904 10.6201 20.6004 10.6501C20.6104 10.6901 20.6104 10.7301 20.5904 10.7601C20.5204 10.9101 20.2304 11.0001 20.2204 11.0101L20.2304 11.6801V11.7101Z" fill="#C0282D"/>
<path fill-rule="evenodd" clip-rule="evenodd" d="M20.4505 12.28L20.4605 11.54C20.4605 11.54 20.9605 11.45 20.8905 11.27C20.8205 11.08 20.2105 11.5 20.2105 11.5H17.7805C17.7805 11.5 17.1705 11.08 17.1005 11.27C17.0305 11.45 17.5305 11.54 17.5305 11.54L17.5405 12.28H20.4505Z" fill="#FEFEFE"/>
<path fill-rule="evenodd" clip-rule="evenodd" d="M17.19 11.2597C17.14 11.2597 17.13 11.2797 17.13 11.2897C17.18 11.4297 17.45 11.4997 17.54 11.5197L17.58 12.2897L20.42 12.2597L20.43 11.5497C20.55 11.4997 20.82 11.4397 20.86 11.3397C20.86 11.0897 20.23 11.5297 20.22 11.5397L17.78 11.5497C17.77 11.5297 17.37 11.2597 17.19 11.2597ZM20.48 12.3097H17.55L17.51 11.5397C17.5 11.5597 17.15 11.5097 17.08 11.3497C17.06 11.3197 17.06 11.2897 17.07 11.2497C17.08 11.2197 17.11 11.1797 17.18 11.1797C17.37 11.1797 17.77 11.4497 17.79 11.4597H20.21C20.21 11.4497 20.61 11.1797 20.81 11.1797C20.88 11.1797 20.91 11.2197 20.92 11.2497V11.3497C20.85 11.4997 20.51 11.5597 20.47 11.5697L20.49 12.2797L20.48 12.3097Z" fill="#C0282D"/>
<path fill-rule="evenodd" clip-rule="evenodd" d="M19.3496 8.4993V8.2093C19.0496 8.2093 19.1296 7.8893 19.1296 7.7693C19.2196 7.6393 19.2396 7.3993 18.9996 7.2793C18.7596 7.4193 18.7796 7.6493 18.8696 7.7593C18.8696 7.8893 18.9696 8.2093 18.6396 8.2093V8.4993H19.3496Z" fill="#FEFEFE"/>
<path fill-rule="evenodd" clip-rule="evenodd" d="M18.9904 7.3C18.9198 7.35694 18.8676 7.43348 18.8404 7.52C18.8304 7.59 18.8504 7.67 18.8904 7.72L18.9004 7.82C18.9104 7.92 18.9204 8.05 18.8504 8.14C18.8004 8.2 18.7304 8.22 18.6304 8.22L18.6704 8.5L19.3304 8.48V8.21C19.2704 8.24 19.2104 8.22 19.1604 8.17C19.0904 8.08 19.1004 7.93 19.1004 7.84V7.77C19.1404 7.69 19.1704 7.61 19.1504 7.52C19.1404 7.42 19.0804 7.36 18.9904 7.3ZM19.3804 8.53H18.6404L18.6104 8.21C18.7204 8.18 18.7804 8.16 18.8104 8.11C18.8604 8.04 18.8504 7.93 18.8404 7.84L18.8304 7.76C18.7804 7.71 18.7604 7.61 18.7804 7.52C18.7904 7.44 18.8404 7.33 18.9804 7.25C19.1504 7.32 19.2004 7.42 19.2104 7.5C19.2304 7.59 19.2104 7.71 19.1504 7.79V7.84C19.1404 7.93 19.1304 8.05 19.1904 8.12C19.2204 8.16 19.2704 8.18 19.3404 8.18L19.3804 8.5V8.53Z" fill="#C0282D"/>
<path fill-rule="evenodd" clip-rule="evenodd" d="M19.8504 10.4207L19.8604 9.86071C19.8604 9.86071 20.1604 9.75071 20.1204 9.60071C20.0804 9.45071 19.7204 9.79071 19.7204 9.79071H18.2904C18.2904 9.79071 17.9304 9.46071 17.8904 9.60071C17.8504 9.75071 18.1504 9.86071 18.1504 9.86071L18.1604 10.4207H19.8504Z" fill="#FEFEFE"/>
<path fill-rule="evenodd" clip-rule="evenodd" d="M17.9305 9.58953C17.8805 9.69953 18.0705 9.79953 18.1505 9.82953L18.1705 10.4195L19.8305 10.3895V9.85953C19.9205 9.79953 20.1105 9.70953 20.0905 9.60953C19.9805 9.58953 19.8005 9.74953 19.7305 9.80953L18.2805 9.81953C18.2005 9.74953 18.0105 9.58953 17.9305 9.58953ZM19.8805 10.4495H18.1405L18.1105 9.85953C18.1005 9.87953 17.8105 9.76953 17.8505 9.58953C17.8605 9.54953 17.8905 9.51953 17.9305 9.51953C18.0405 9.51953 18.2705 9.72953 18.3005 9.75953L19.7205 9.74953C19.7305 9.72953 19.9605 9.51953 20.0705 9.51953C20.1105 9.51953 20.1405 9.53953 20.1505 9.58953C20.2005 9.75953 19.9105 9.87953 19.8805 9.88953L19.8905 10.4195V10.4495H19.8805Z" fill="#C0282D"/>
<path fill-rule="evenodd" clip-rule="evenodd" d="M20.02 10.9209L20.03 10.3109C20.03 10.3109 20.39 10.2309 20.34 10.0909C20.29 9.94095 19.86 10.2809 19.86 10.2809H18.14C18.14 10.2809 17.71 9.94095 17.66 10.0909C17.61 10.2309 17.97 10.3109 17.97 10.3109L17.98 10.9209H20.02Z" fill="#FEFEFE"/>
<path fill-rule="evenodd" clip-rule="evenodd" d="M17.7201 10.0895L17.6901 10.1495C17.7301 10.2195 17.8801 10.2695 17.9801 10.2795L18.0001 10.9195L20.0001 10.8895V10.3195C20.0901 10.2795 20.2701 10.2295 20.3101 10.1595L20.2801 10.0995C20.1801 10.0995 19.9501 10.2495 19.8801 10.3195L18.1401 10.3295C18.0401 10.2395 17.8201 10.0895 17.7201 10.0895ZM20.0501 10.9495H17.9701L17.9401 10.3095C17.9401 10.3295 17.7001 10.2895 17.6401 10.1695C17.6301 10.1395 17.6201 10.1095 17.6301 10.0795C17.6401 10.0595 17.6601 10.0195 17.7101 10.0195C17.8501 10.0195 18.1301 10.2395 18.1501 10.2495L19.8601 10.2395C19.8601 10.2295 20.1401 10.0195 20.2801 10.0195C20.3401 10.0195 20.3601 10.0595 20.3701 10.0795C20.3801 10.1095 20.3801 10.1495 20.3601 10.1695C20.3001 10.2895 20.0601 10.3295 20.0401 10.3395L20.0601 10.9095V10.9495H20.0501Z" fill="#C0282D"/>
<path fill-rule="evenodd" clip-rule="evenodd" d="M19.5497 9.53026V9.16026C19.5497 9.16026 19.7397 9.07026 19.7197 8.97026C19.6897 8.86026 19.4597 9.10026 19.4597 9.10026H18.5297C18.5297 9.10026 18.2997 8.87026 18.2697 8.97026C18.2397 9.07026 18.4397 9.16026 18.4397 9.16026V9.53026H19.5497Z" fill="#FEFEFE"/>
<path fill-rule="evenodd" clip-rule="evenodd" d="M18.3097 8.97016C18.2897 9.03016 18.3997 9.10016 18.4497 9.12016L18.4697 9.52016L19.5197 9.49016V9.15016C19.5897 9.10016 19.6997 9.03016 19.6897 8.97016L19.4797 9.11016L18.5297 9.12016C18.4597 9.06016 18.3497 8.97016 18.3097 8.97016ZM19.5797 9.56016H18.4397L18.4097 9.16016C18.3997 9.18016 18.2097 9.08016 18.2497 8.96016L18.2597 8.94016L18.3097 8.91016C18.3897 8.91016 18.5297 9.05016 18.5497 9.07016L19.4597 9.06016C19.4697 9.05016 19.6097 8.91016 19.6897 8.91016H19.7097L19.7497 8.96016C19.7797 9.08016 19.5897 9.18016 19.5697 9.19016L19.5897 9.53016V9.56016H19.5797Z" fill="#C0282D"/>
<path fill-rule="evenodd" clip-rule="evenodd" d="M19.6597 9.86033V9.49033C19.6597 9.49033 19.8897 9.40034 19.8597 9.30034C19.8297 9.19034 19.5497 9.43034 19.5497 9.43034H18.4397C18.4397 9.43034 18.1597 9.20034 18.1297 9.30034C18.0997 9.40034 18.3297 9.49033 18.3297 9.49033V9.86033H19.6597Z" fill="#FEFEFE"/>
<path fill-rule="evenodd" clip-rule="evenodd" d="M18.1704 9.31024C18.1804 9.39024 18.2804 9.44023 18.3404 9.46023L18.3604 9.86023L19.6304 9.84023V9.49023C19.7104 9.44023 19.8104 9.39023 19.8304 9.34023C19.7704 9.31023 19.6304 9.40023 19.5604 9.46023H18.4304C18.3604 9.40023 18.2304 9.31024 18.1704 9.31024ZM19.6904 9.89023H18.3304L18.3004 9.49023C18.3004 9.52023 18.1404 9.45023 18.1104 9.36023V9.29023C18.1204 9.27023 18.1304 9.25023 18.1704 9.25023C18.2604 9.25023 18.4404 9.39023 18.4604 9.40023L19.5604 9.39023C19.5604 9.38023 19.7404 9.24023 19.8304 9.24023H19.8504L19.9004 9.29023C19.9104 9.32023 19.9104 9.33023 19.9004 9.36023C19.8604 9.45023 19.7104 9.51024 19.6904 9.52024L19.7104 9.86023V9.89023H19.6904Z" fill="#C0282D"/>
<path fill-rule="evenodd" clip-rule="evenodd" d="M19.3905 8.87045V8.53045C19.3905 8.53045 19.5305 8.46045 19.5105 8.37045C19.4905 8.29045 19.3205 8.49045 19.3205 8.49045H18.6605C18.6605 8.49045 18.4905 8.30045 18.4805 8.38045C18.4605 8.47045 18.6005 8.54045 18.6005 8.54045V8.83045L19.3905 8.87045Z" fill="#FEFEFE"/>
<path fill-rule="evenodd" clip-rule="evenodd" d="M18.51 8.38031C18.5 8.43031 18.58 8.49031 18.62 8.50031L18.64 8.82031L19.37 8.84031V8.53031C19.42 8.48031 19.5 8.43031 19.49 8.38031C19.4397 8.41592 19.3928 8.45609 19.35 8.50031H18.67C18.6 8.44031 18.53 8.38031 18.51 8.38031ZM19.42 8.91031L18.61 8.86031L18.58 8.54031C18.58 8.56031 18.44 8.47031 18.46 8.37031L18.47 8.34031L18.51 8.32031C18.57 8.32031 18.66 8.43031 18.69 8.46031L19.33 8.45031C19.34 8.43031 19.43 8.32031 19.49 8.32031H19.51L19.54 8.37031C19.56 8.48031 19.43 8.56031 19.41 8.57031L19.42 8.88031V8.91031Z" fill="#C0282D"/>
<path fill-rule="evenodd" clip-rule="evenodd" d="M19.4697 9.11092V8.82092C19.4697 8.82092 19.6297 8.74092 19.6097 8.66092C19.5897 8.57092 19.3897 8.76092 19.3897 8.76092H18.5997C18.5997 8.76092 18.3997 8.57092 18.3797 8.66092C18.3597 8.75092 18.5197 8.82092 18.5197 8.82092V9.11092H19.4697Z" fill="#FEFEFE"/>
<path fill-rule="evenodd" clip-rule="evenodd" d="M18.4102 8.66008C18.4002 8.69008 18.4802 8.75008 18.5402 8.79008L18.5602 9.11008L19.4502 9.07008V8.81008C19.5302 8.75008 19.6002 8.69008 19.5902 8.66008C19.5502 8.66008 19.4702 8.73008 19.4102 8.78008H18.6002C18.5402 8.73008 18.4502 8.66008 18.4102 8.66008ZM19.5002 9.14008H18.5302L18.5002 8.81008C18.4902 8.81008 18.3302 8.74008 18.3602 8.63008L18.3702 8.61008L18.4202 8.58008C18.4902 8.58008 18.6102 8.70008 18.6302 8.72008L19.4002 8.71008C19.4002 8.69008 19.5302 8.58008 19.5902 8.58008H19.6102L19.6402 8.62008C19.6702 8.73008 19.5102 8.81008 19.4802 8.82008L19.4902 9.09008V9.14008H19.5002Z" fill="#C0282D"/>
<path fill-rule="evenodd" clip-rule="evenodd" d="M18.7496 9.11992L18.5996 8.93992C18.6496 8.88992 18.7396 8.96992 18.7396 8.96992C18.7396 8.96992 18.7896 8.75992 18.9996 8.66992C19.2096 8.74992 19.2596 8.96992 19.2596 8.96992C19.2596 8.96992 19.3496 8.88992 19.3996 8.93992L19.2496 9.11992H18.7496Z" fill="#FEFEFE"/>
<path fill-rule="evenodd" clip-rule="evenodd" d="M18.64 8.95086L18.77 9.10086L19.24 9.08086L19.38 8.91086L19.28 8.99086L19.25 9.02086L19.24 8.98086C19.24 8.97086 19.19 8.78086 19 8.70086C18.9452 8.73121 18.8973 8.77268 18.8594 8.82262C18.8215 8.87256 18.7945 8.92986 18.78 8.99086L18.77 9.03086L18.73 9.00086C18.71 8.99086 18.67 8.95086 18.64 8.95086ZM19.26 9.15086H18.75L18.54 8.90086L18.64 8.89086L18.73 8.92086C18.76 8.85086 18.83 8.71086 18.99 8.63086C19.17 8.70086 19.24 8.84086 19.27 8.92086C19.29 8.90086 19.33 8.89086 19.36 8.89086L19.42 8.91086L19.26 9.15086Z" fill="#C0282D"/>
<path fill-rule="evenodd" clip-rule="evenodd" d="M18.6502 9.4207L18.4502 9.2407C18.5202 9.1907 18.6502 9.2707 18.6502 9.2707C18.6502 9.2707 18.7202 9.0607 19.0102 8.9707C19.3002 9.0607 19.3702 9.2707 19.3702 9.2707C19.3702 9.2707 19.5002 9.1907 19.5602 9.2407L19.3602 9.4207H18.6502Z" fill="#FEFEFE"/>
<path fill-rule="evenodd" clip-rule="evenodd" d="M18.5097 9.25922L18.6697 9.38922L19.3397 9.37922L19.4897 9.24922C19.4397 9.24922 19.3697 9.28922 19.3697 9.28922C19.3297 9.25922 19.2597 9.06922 18.9897 8.98922C18.7297 9.06922 18.6697 9.25922 18.6597 9.26922C18.6297 9.29922 18.5597 9.25922 18.5097 9.25922ZM19.3597 9.45922H18.6497L18.4297 9.26922C18.4497 9.19922 18.4797 9.19922 18.4997 9.19922C18.5597 9.19922 18.6297 9.22922 18.6497 9.24922C18.6397 9.21922 18.7297 9.02922 18.9997 8.94922C19.2697 9.01922 19.3597 9.18922 19.3897 9.24922C19.4097 9.20922 19.5197 9.16922 19.5797 9.21922L19.3597 9.45922Z" fill="#C0282D"/>
<path fill-rule="evenodd" clip-rule="evenodd" d="M18.6001 9.94984L18.3701 9.69984C18.4501 9.63984 18.5901 9.74984 18.5901 9.74984C18.5901 9.74984 18.6701 9.45984 19.0001 9.33984C19.3301 9.45984 19.4101 9.74984 19.4101 9.74984C19.4101 9.74984 19.5501 9.63984 19.6301 9.69984L19.4001 9.94984H18.6001Z" fill="#FEFEFE"/>
<path fill-rule="evenodd" clip-rule="evenodd" d="M18.4296 9.71031L18.3896 9.73031L18.6296 9.93031L19.3996 9.92031L19.5896 9.72031C19.5396 9.72031 19.4596 9.77031 19.4296 9.79031C19.3896 9.77031 19.3096 9.50031 18.9896 9.39031C18.6996 9.50031 18.6196 9.77031 18.6196 9.77031C18.5696 9.78031 18.4896 9.71031 18.4296 9.71031ZM19.4096 9.98031H18.5996L18.3496 9.72031C18.3696 9.65031 18.3996 9.64031 18.4296 9.64031C18.4996 9.64031 18.5796 9.70031 18.5996 9.71031C18.5896 9.68031 18.6796 9.43031 18.9896 9.32031C19.2996 9.42031 19.3996 9.65031 19.4296 9.71031C19.4496 9.68031 19.5896 9.62031 19.6496 9.68031L19.4096 9.98031Z" fill="#C0282D"/>
<path fill-rule="evenodd" clip-rule="evenodd" d="M18.5 10.5998L18.21 10.2898C18.31 10.2098 18.48 10.3498 18.48 10.3498C18.48 10.3498 18.58 9.98984 19 9.83984C19.42 9.98984 19.52 10.3498 19.52 10.3498C19.52 10.3498 19.7 10.2098 19.8 10.2898L19.5 10.5998H18.5Z" fill="#FEFEFE"/>
<path fill-rule="evenodd" clip-rule="evenodd" d="M18.2804 10.3003L18.2204 10.3203L18.5104 10.5803L19.4804 10.5703L19.7404 10.3003L19.7104 10.3103C19.6304 10.3103 19.5204 10.3903 19.5204 10.3903C19.4804 10.3703 19.3804 10.0303 18.9804 9.89031C18.6004 10.0303 18.5004 10.3703 18.5004 10.3703C18.4704 10.3703 18.3704 10.3003 18.2804 10.3003ZM19.5104 10.6303H18.5004L18.1904 10.3103C18.2204 10.2403 18.2504 10.2303 18.2904 10.2303C18.3804 10.2303 18.4804 10.3003 18.5004 10.3203C18.4804 10.2803 18.6004 9.96031 18.9904 9.82031C19.3804 9.95031 19.5104 10.2403 19.5404 10.3203C19.5604 10.2703 19.7304 10.1903 19.8104 10.2603L19.5104 10.6303Z" fill="#C0282D"/>
<path fill-rule="evenodd" clip-rule="evenodd" d="M18.4297 11.1309L18.9797 11.9209L19.5697 11.1309H18.4297Z" fill="#FEFEFE"/>
<path fill-rule="evenodd" clip-rule="evenodd" d="M18.4901 11.1696L18.9901 11.8596L19.5201 11.1696H18.4901ZM18.9801 11.9596L18.3701 11.0996H19.6301L18.9801 11.9596Z" fill="#C0282D"/>
<path fill-rule="evenodd" clip-rule="evenodd" d="M18.3998 11.2306L18.0498 10.8806C18.1698 10.7906 18.3798 10.9506 18.3798 10.9506C18.3798 10.9506 18.4998 10.5606 18.9998 10.3906C19.4998 10.5506 19.6198 10.9506 19.6198 10.9506C19.6198 10.9506 19.8398 10.8006 19.9498 10.8806L19.5998 11.2306H18.3998Z" fill="#FEFEFE"/>
<path fill-rule="evenodd" clip-rule="evenodd" d="M18.1403 10.8794C18.1103 10.8794 18.0803 10.8894 18.0703 10.9094L18.4203 11.1994L19.5903 11.1894L19.9003 10.8794H19.8503C19.7503 10.8794 19.6203 10.9694 19.6203 10.9694C19.5703 10.9394 19.4603 10.5594 18.9803 10.4094C18.8481 10.4478 18.7268 10.5166 18.626 10.6104C18.5253 10.7042 18.448 10.8203 18.4003 10.9494C18.3603 10.9694 18.2403 10.8794 18.1403 10.8794ZM19.6103 11.2594H18.4003L18.0303 10.9094C18.0603 10.8394 18.1003 10.8194 18.1403 10.8194C18.2503 10.8194 18.3703 10.8994 18.4003 10.9194C18.3803 10.8694 18.5103 10.5094 19.0003 10.3594C19.4703 10.5094 19.6203 10.8494 19.6503 10.9194C19.6703 10.8694 19.8803 10.7694 19.9803 10.8494L19.6103 11.2594Z" fill="#C0282D"/>
<path fill-rule="evenodd" clip-rule="evenodd" d="M18.3799 11.9902L18.9799 12.9802L19.6199 11.9902H18.3799Z" fill="#FEFEFE"/>
<path fill-rule="evenodd" clip-rule="evenodd" d="M18.4303 12.0307L18.9803 12.9207L19.5603 12.0307H18.4303ZM18.9803 13.0307L18.3203 11.9707H19.6703L18.9803 13.0307Z" fill="#C0282D"/>
<path fill-rule="evenodd" clip-rule="evenodd" d="M18.3497 12.1008L17.9697 11.6708C18.0997 11.5608 18.3297 11.7608 18.3297 11.7608C18.3297 11.7608 18.4597 11.2608 18.9997 11.0508C19.5397 11.2608 19.6697 11.7608 19.6697 11.7608C19.6697 11.7608 19.8997 11.5608 20.0297 11.6708L19.6497 12.1008H18.3497Z" fill="#FEFEFE"/>
<path fill-rule="evenodd" clip-rule="evenodd" d="M18.0702 11.6695C18.0555 11.6689 18.0409 11.6713 18.0272 11.6764C18.0134 11.6816 18.0009 11.6894 17.9902 11.6995L18.3702 12.0795L19.6402 12.0695L20.0002 11.6595C19.9802 11.6795 19.9602 11.6695 19.9302 11.6695C19.8202 11.6695 19.6802 11.7795 19.6802 11.7795L19.6502 11.8095L19.6402 11.7695C19.6402 11.7595 19.5102 11.2795 18.9902 11.0795C18.4902 11.2795 18.3602 11.7695 18.3602 11.7695L18.3502 11.8095L18.3202 11.7795C18.3102 11.7695 18.1802 11.6695 18.0702 11.6695ZM19.6602 12.1295H18.3502L17.9502 11.6895C17.9802 11.6095 18.0202 11.5995 18.0702 11.5995C18.1602 11.5995 18.2702 11.6695 18.3202 11.7095C18.3702 11.5795 18.5302 11.1995 18.9902 11.0195C19.4702 11.1995 19.6402 11.5795 19.6802 11.7095C19.7602 11.6495 19.9502 11.5695 20.0402 11.6495L19.6602 12.1295Z" fill="#C0282D"/>
<path fill-rule="evenodd" clip-rule="evenodd" d="M18.3497 12.9799L17.9697 12.5499C18.0997 12.4299 18.3297 12.6299 18.3297 12.6299C18.3297 12.6299 18.4597 12.1399 18.9997 11.9199C19.5397 12.1299 19.6697 12.6299 19.6697 12.6299C19.6697 12.6299 19.8997 12.4299 20.0297 12.5499L19.6497 12.9799H18.3497Z" fill="#FEFEFE"/>
<path fill-rule="evenodd" clip-rule="evenodd" d="M18.0702 12.5391C18.0555 12.5386 18.0409 12.5409 18.0272 12.5461C18.0134 12.5512 18.0009 12.5591 17.9902 12.5691L18.3702 12.9591L19.6402 12.9491L20.0002 12.5291L19.9302 12.5391C19.8202 12.5391 19.6802 12.6491 19.6802 12.6491L19.6502 12.6691L19.6402 12.6291C19.6402 12.6291 19.5102 12.1491 18.9902 11.9391C18.4902 12.1391 18.3602 12.6191 18.3602 12.6291L18.3502 12.6691L18.3202 12.6491C18.3102 12.6491 18.1802 12.5391 18.0702 12.5391ZM19.6602 12.9991H18.3502L17.9502 12.5591C17.9802 12.4791 18.0202 12.4691 18.0702 12.4691C18.1702 12.4691 18.2702 12.5291 18.3202 12.5591C18.3702 12.4391 18.5302 12.0591 18.9902 11.8691C19.4702 12.0491 19.6402 12.4291 19.6802 12.5591C19.7502 12.5091 19.9502 12.4191 20.0402 12.4991L19.6602 12.9991Z" fill="#C0282D"/>
<path fill-rule="evenodd" clip-rule="evenodd" d="M15.1299 14.1797H15.4099V15.5397H15.1299V14.1797Z" fill="#FEFEFE"/>
<path fill-rule="evenodd" clip-rule="evenodd" d="M15.3798 14.1804L15.1298 14.2204L15.1598 15.5504L15.3798 15.5204V14.1804ZM15.4298 15.5704H15.1198L15.0898 14.1804L15.3998 14.1504L15.4298 15.5704Z" fill="#C0282D"/>
<path fill-rule="evenodd" clip-rule="evenodd" d="M16.0703 14.1797H16.3503V15.5397H16.0703V14.1797Z" fill="#FEFEFE"/>
<path fill-rule="evenodd" clip-rule="evenodd" d="M16.33 14.1804L16.08 14.2204L16.11 15.5504L16.34 15.5104V14.1804H16.33ZM16.38 15.5704H16.07L16.04 14.1804L16.35 14.1504L16.38 15.5704Z" fill="#C0282D"/>
<path fill-rule="evenodd" clip-rule="evenodd" d="M15.6299 14.1797H15.9099V15.5397H15.6299V14.1797Z" fill="#FEFEFE"/>
<path fill-rule="evenodd" clip-rule="evenodd" d="M15.8798 14.1804L15.6298 14.2204L15.6598 15.5504L15.8798 15.5104V14.1804ZM15.9298 15.5704H15.6198L15.5898 14.1804L15.8998 14.1504L15.9298 15.5704Z" fill="#C0282D"/>
<path fill-rule="evenodd" clip-rule="evenodd" d="M20.7002 14.1797H20.9802V15.5397H20.7002V14.1797Z" fill="#FEFEFE"/>
<path fill-rule="evenodd" clip-rule="evenodd" d="M20.9499 14.1804L20.6999 14.2204L20.7299 15.5504L20.9499 15.5204V14.1804ZM21.0099 15.5704H20.6999L20.6699 14.1804L20.9799 14.1504L21.0099 15.5704Z" fill="#C0282D"/>
<path fill-rule="evenodd" clip-rule="evenodd" d="M22.5996 14.1797H22.8796V15.5397H22.5996V14.1797Z" fill="#FEFEFE"/>
<path fill-rule="evenodd" clip-rule="evenodd" d="M22.8503 14.1804L22.6003 14.2204L22.6303 15.5504L22.8503 15.5104V14.1804ZM22.9103 15.5704H22.6003L22.5703 14.1804L22.8803 14.1504L22.9103 15.5704Z" fill="#C0282D"/>
<path fill-rule="evenodd" clip-rule="evenodd" d="M21.6504 14.1797H21.9304V15.5397H21.6504V14.1797Z" fill="#FEFEFE"/>
<path fill-rule="evenodd" clip-rule="evenodd" d="M21.9001 14.1804L21.6501 14.2204L21.6801 15.5504L21.9001 15.5104V14.1804ZM21.9601 15.5704H21.6501L21.6201 14.1804L21.9301 14.1504L21.9601 15.5704Z" fill="#C0282D"/>
<path fill-rule="evenodd" clip-rule="evenodd" d="M21.21 14.1797H21.49V15.5397H21.21V14.1797Z" fill="#FEFEFE"/>
<path fill-rule="evenodd" clip-rule="evenodd" d="M21.4499 14.1804L21.1999 14.2204L21.2299 15.5504L21.4499 15.5104V14.1804ZM21.5099 15.5704H21.1999L21.1699 14.1804L21.4799 14.1504L21.5099 15.5704Z" fill="#C0282D"/>
<path fill-rule="evenodd" clip-rule="evenodd" d="M22.0996 14.1797H22.3796V15.5397H22.0996V14.1797Z" fill="#FEFEFE"/>
<path fill-rule="evenodd" clip-rule="evenodd" d="M22.3501 14.1804L22.1001 14.2204L22.1301 15.5504L22.3501 15.5104V14.1804ZM22.4101 15.5704H22.1001L22.0801 14.1804L22.3901 14.1504L22.4101 15.5704Z" fill="#C0282D"/>
<path fill-rule="evenodd" clip-rule="evenodd" d="M17.0195 14.1797H17.2995V15.5397H17.0195V14.1797Z" fill="#FEFEFE"/>
<path fill-rule="evenodd" clip-rule="evenodd" d="M17.28 14.1804L17.03 14.2204L17.06 15.5504L17.28 15.5204V14.1804ZM17.33 15.5704H17.02L17 14.1804L17.31 14.1504L17.33 15.5704Z" fill="#C0282D"/>
<path fill-rule="evenodd" clip-rule="evenodd" d="M16.5195 14.1797H16.7995V15.5397H16.5195V14.1797Z" fill="#FEFEFE"/>
<path fill-rule="evenodd" clip-rule="evenodd" d="M16.7702 14.1804L16.5202 14.2204L16.5502 15.5504L16.7702 15.5104V14.1804ZM16.8302 15.5704H16.5202L16.4902 14.1804L16.8002 14.1504L16.8302 15.5704Z" fill="#C0282D"/>
<path fill-rule="evenodd" clip-rule="evenodd" d="M18.71 7.9707H19.29V8.2207H18.71V7.9707Z" fill="#FEFEFE"/>
<path fill-rule="evenodd" clip-rule="evenodd" d="M19.2597 7.96945L18.7097 7.99945L18.7397 8.21945L19.2597 8.18945V7.96945ZM19.3197 8.23945H18.7097L18.6797 7.96945L19.2897 7.93945L19.3197 8.23945Z" fill="#C0282D"/>
<path fill-rule="evenodd" clip-rule="evenodd" d="M18.79 7.7207H19.22V7.9607H18.79V7.7207Z" fill="#FEFEFE"/>
<path fill-rule="evenodd" clip-rule="evenodd" d="M19.18 7.71969L18.78 7.74969L18.81 7.95969L19.18 7.92969V7.71969ZM19.24 7.98969H18.78L18.75 7.71969L19.21 7.67969L19.24 7.98969Z" fill="#C0282D"/>
</g>
</g>
<defs>
<clipPath id="clip0_26003_91282">
<rect width="38" height="25" fill="white" transform="translate(0 0.5)"/>
</clipPath>
<clipPath id="clip1_26003_91282">
<rect width="38" height="25" fill="white" transform="translate(0 0.5)"/>
</clipPath>
</defs>
</svg>
