<svg width="38" height="26" viewBox="0 0 38 26" fill="none" xmlns="http://www.w3.org/2000/svg">
<g clip-path="url(#clip0_26003_90217)">
<g clip-path="url(#clip1_26003_90217)">
<path fill-rule="evenodd" clip-rule="evenodd" d="M2.5 25.5H35.6C36.9 25.2 37.9 24.1 38.1 22.6V3.4C37.9 1.9 36.9 0.7 35.6 0.5H2.5C1.2 0.8 0.2 1.9 0 3.4V22.6C0.2 24.1 1.2 25.2 2.5 25.5Z" fill="#4690C7"/>
<path fill-rule="evenodd" clip-rule="evenodd" d="M0 8.80078H38V17.1008H0V8.80078Z" fill="#D6253F"/>
<path fill-rule="evenodd" clip-rule="evenodd" d="M2.5 25.4992H35.6C36.9 25.1992 37.9 24.0992 38.1 22.5992V17.1992H0V22.5992C0.2 24.0992 1.2 25.1992 2.5 25.4992Z" fill="#43AC62"/>
<path fill-rule="evenodd" clip-rule="evenodd" d="M19.6998 15.8996C18.2998 15.8996 17.0998 14.5996 17.0998 12.9996C17.0998 11.3996 18.2998 10.0996 19.6998 10.0996C20.1998 10.0996 20.6998 10.2996 21.0998 10.5996C20.4998 9.99961 19.7998 9.59961 18.8998 9.59961C17.1998 9.59961 15.7998 11.1996 15.7998 13.0996C15.7998 14.9996 17.1998 16.5996 18.8998 16.5996C19.7998 16.5996 20.5998 16.1996 21.0998 15.5996C20.6998 15.6996 20.2998 15.8996 19.6998 15.8996Z" fill="#FEFEFE"/>
<path fill-rule="evenodd" clip-rule="evenodd" d="M23.3004 14.2996L22.4004 13.8996L22.1004 14.8996L21.7004 13.8996L20.9004 14.2996L21.3004 13.3996L20.4004 12.9996L21.3004 12.5996L20.9004 11.6996L21.8004 12.0996L22.1004 11.0996L22.4004 12.0996L23.3004 11.6996L22.9004 12.5996L23.7004 12.9996L22.9004 13.3996L23.3004 14.2996Z" fill="#FEFEFE"/>
</g>
</g>
<defs>
<clipPath id="clip0_26003_90217">
<rect width="38" height="25" fill="white" transform="translate(0 0.5)"/>
</clipPath>
<clipPath id="clip1_26003_90217">
<rect width="38" height="25" fill="white" transform="translate(0 0.5)"/>
</clipPath>
</defs>
</svg>
