<svg width="39" height="26" viewBox="0 0 39 26" fill="none" xmlns="http://www.w3.org/2000/svg">
<g clip-path="url(#clip0_26003_53593)">
<g clip-path="url(#clip1_26003_53593)">
<path fill-rule="evenodd" clip-rule="evenodd" d="M3.24512 25.2109H36.3451C37.6451 24.9109 38.6451 23.8109 38.8451 22.3109V3.11094C38.6451 1.61094 37.6451 0.410938 36.3451 0.210938H3.24512C1.94512 0.510938 0.945117 1.61094 0.745117 3.11094V22.3109C0.945117 23.8109 1.94512 24.9109 3.24512 25.2109Z" fill="#4690C7"/>
<path fill-rule="evenodd" clip-rule="evenodd" d="M0.745117 8.51172H38.7451V16.8117H0.745117V8.51172Z" fill="#D6253F"/>
<path fill-rule="evenodd" clip-rule="evenodd" d="M3.24512 25.2102H36.3451C37.6451 24.9102 38.6451 23.8102 38.8451 22.3102V16.9102H0.745117V22.3102C0.945117 23.8102 1.94512 24.9102 3.24512 25.2102Z" fill="#43AC62"/>
<path fill-rule="evenodd" clip-rule="evenodd" d="M20.4449 15.6105C19.0449 15.6105 17.8449 14.3105 17.8449 12.7105C17.8449 11.1105 19.0449 9.81055 20.4449 9.81055C20.9449 9.81055 21.4449 10.0105 21.8449 10.3105C21.2449 9.71055 20.5449 9.31055 19.6449 9.31055C17.9449 9.31055 16.5449 10.9105 16.5449 12.8105C16.5449 14.7105 17.9449 16.3105 19.6449 16.3105C20.5449 16.3105 21.3449 15.9105 21.8449 15.3105C21.4449 15.4105 21.0449 15.6105 20.4449 15.6105Z" fill="#FEFEFE"/>
<path fill-rule="evenodd" clip-rule="evenodd" d="M24.0455 14.0105L23.1455 13.6105L22.8455 14.6105L22.4455 13.6105L21.6455 14.0105L22.0455 13.1105L21.1455 12.7105L22.0455 12.3105L21.6455 11.4105L22.5455 11.8105L22.8455 10.8105L23.1455 11.8105L24.0455 11.4105L23.6455 12.3105L24.4455 12.7105L23.6455 13.1105L24.0455 14.0105Z" fill="#FEFEFE"/>
</g>
</g>
<defs>
<clipPath id="clip0_26003_53593">
<rect width="38" height="25" fill="white" transform="translate(0.745117 0.210938)"/>
</clipPath>
<clipPath id="clip1_26003_53593">
<rect width="38" height="25" fill="white" transform="translate(0.745117 0.210938)"/>
</clipPath>
</defs>
</svg>
