<svg width="38" height="26" viewBox="0 0 38 26" fill="none" xmlns="http://www.w3.org/2000/svg">
<g clip-path="url(#clip0_26003_70369)">
<g clip-path="url(#clip1_26003_70369)">
<path fill-rule="evenodd" clip-rule="evenodd" d="M0 8.8H38V3.4C37.8 1.9 36.8 0.7 35.5 0.5H2.5C1.2 0.8 0.2 1.9 0 3.4V8.8Z" fill="#36A83A"/>
<path fill-rule="evenodd" clip-rule="evenodd" d="M2.5 25.5008H35.6C36.9 25.2008 37.9 24.1008 38.1 22.6008V8.80078H0V22.6008C0.2 24.1008 1.2 25.2008 2.5 25.5008Z" fill="#2D714B"/>
<path fill-rule="evenodd" clip-rule="evenodd" d="M2.5 25.4992H35.6C36.9 25.1992 37.9 24.0992 38.1 22.5992V17.1992H0V22.5992C0.2 24.0992 1.2 25.1992 2.5 25.4992Z" fill="#B7283A"/>
</g>
</g>
<defs>
<clipPath id="clip0_26003_70369">
<rect width="38" height="25" fill="white" transform="translate(0 0.5)"/>
</clipPath>
<clipPath id="clip1_26003_70369">
<rect width="38" height="25" fill="white" transform="translate(0 0.5)"/>
</clipPath>
</defs>
</svg>
