<svg width="39" height="26" viewBox="0 0 39 26" fill="none" xmlns="http://www.w3.org/2000/svg">
<g clip-path="url(#clip0_26003_53742)">
<g clip-path="url(#clip1_26003_53742)">
<path fill-rule="evenodd" clip-rule="evenodd" d="M38.7451 22.3109V3.21094C38.5451 1.51094 37.2451 0.210938 35.7451 0.210938H3.74512C2.24512 0.210938 0.945117 1.51094 0.745117 3.21094V22.3109C0.945117 23.9109 2.24512 25.2109 3.74512 25.2109H35.7451C37.2451 25.2109 38.5451 23.9109 38.7451 22.3109Z" fill="#FEFEFE"/>
<path fill-rule="evenodd" clip-rule="evenodd" d="M3.14512 25.1109H36.3451C36.1451 25.2109 35.9451 25.2109 35.7451 25.2109H3.74512C3.54512 25.2109 3.34512 25.2109 3.14512 25.1109ZM38.6451 22.6109V2.81094C38.7451 2.91094 38.7451 3.01094 38.7451 3.21094V22.3109C38.7451 22.4109 38.7451 22.5109 38.6451 22.6109ZM36.3451 0.310938H3.14512C3.34512 0.210938 3.54512 0.210938 3.74512 0.210938H35.7451C35.9451 0.210938 36.1451 0.210938 36.3451 0.310938ZM0.845117 2.81094V22.6109C0.845117 22.5109 0.845117 22.4109 0.745117 22.3109V3.21094C0.745117 3.11094 0.745117 2.91094 0.845117 2.81094Z" fill="#242222"/>
<path fill-rule="evenodd" clip-rule="evenodd" d="M19.7451 25.2109V0.210938H3.74512C2.24512 0.210938 0.945117 1.51094 0.745117 3.21094V22.3109C0.945117 23.9109 2.24512 25.2109 3.74512 25.2109H19.7451Z" fill="#2C793D"/>
<path fill-rule="evenodd" clip-rule="evenodd" d="M23.8448 16.6105C21.9448 18.3105 19.1448 18.0105 17.6448 15.8105C16.1448 13.6105 16.4448 10.5105 18.3448 8.81045C20.2448 7.11045 23.0448 7.41045 24.5448 9.61045C24.0448 8.71045 23.3448 7.91045 22.5448 7.31045C19.8448 5.61045 16.5448 6.61045 14.9448 9.61045C13.4448 12.6105 14.3448 16.4105 16.9448 18.1105C19.6448 19.8105 22.9448 18.8105 24.5448 15.8105C24.3448 16.1105 24.1448 16.4105 23.8448 16.6105Z" fill="#C6273E"/>
<path fill-rule="evenodd" clip-rule="evenodd" d="M21.6451 13.8109L22.8451 15.7109V13.4109L24.7451 12.7109L22.8451 12.0109V9.71094L21.6451 11.6109L19.7451 10.9109L20.9451 12.7109L19.7451 14.6109L21.6451 13.8109Z" fill="#C6273E"/>
</g>
</g>
<defs>
<clipPath id="clip0_26003_53742">
<rect width="38" height="25" fill="white" transform="translate(0.745117 0.210938)"/>
</clipPath>
<clipPath id="clip1_26003_53742">
<rect width="38" height="25" fill="white" transform="translate(0.745117 0.210938)"/>
</clipPath>
</defs>
</svg>
