<svg width="39" height="26" viewBox="0 0 39 26" fill="none" xmlns="http://www.w3.org/2000/svg">
<g clip-path="url(#clip0_26003_53791)">
<g clip-path="url(#clip1_26003_53791)">
<path fill-rule="evenodd" clip-rule="evenodd" d="M3.21512 25.2117H36.2751C37.5651 24.9617 38.5751 23.7817 38.7451 22.3117V3.16172C38.5751 1.69172 37.5651 0.511719 36.2751 0.261719H3.21512C1.92512 0.501719 0.915117 1.69172 0.745117 3.16172V22.3117C0.915117 23.7817 1.92512 24.9617 3.21512 25.2117Z" fill="#319342"/>
<path fill-rule="evenodd" clip-rule="evenodd" d="M6.60547 12.7313L19.7455 22.1812L32.8955 12.7313L19.7455 3.28125L6.60547 12.7313Z" fill="#EFC906"/>
<path fill-rule="evenodd" clip-rule="evenodd" d="M25.2851 12.7322C25.2851 16.1722 22.8051 18.9722 19.7451 18.9722C16.6851 18.9722 14.2051 16.1822 14.2051 12.7322C14.2051 9.29219 16.6851 6.49219 19.7451 6.49219C22.8051 6.49219 25.2851 9.29219 25.2851 12.7322Z" fill="#33306F"/>
<path fill-rule="evenodd" clip-rule="evenodd" d="M16.5848 10.0625C15.9348 10.0625 15.2948 10.1125 14.6748 10.2125C14.5548 10.5225 14.4548 10.8325 14.3848 11.1625C15.0948 11.0225 15.8348 10.9525 16.5848 10.9525C19.8348 10.9525 22.7948 12.3325 25.0348 14.6025C25.1248 14.2825 25.1948 13.9525 25.2348 13.6125C22.8948 11.3925 19.8748 10.0625 16.5848 10.0625Z" fill="#FEFEFE"/>
<path fill-rule="evenodd" clip-rule="evenodd" d="M15.005 10.8013C15.075 10.7913 15.135 10.7013 15.125 10.5913C15.115 10.4913 15.045 10.4113 14.965 10.4213C14.885 10.4313 14.835 10.5213 14.845 10.6213C14.865 10.7313 14.935 10.8113 15.005 10.8013ZM15.015 10.9013C14.885 10.9213 14.765 10.8013 14.745 10.6413C14.725 10.4813 14.815 10.3313 14.945 10.3113C15.075 10.2913 15.195 10.4113 15.215 10.5713C15.245 10.7413 15.145 10.8913 15.015 10.9013ZM15.525 10.5113L15.725 10.5013C15.765 10.4913 15.785 10.4613 15.785 10.4213C15.785 10.3813 15.755 10.3513 15.715 10.3513L15.515 10.3613L15.525 10.5113ZM15.455 10.8513L15.425 10.2513L15.725 10.2313C15.815 10.2213 15.895 10.3013 15.905 10.4013C15.905 10.5013 15.835 10.5913 15.755 10.6013L15.535 10.6113L15.545 10.8313L15.455 10.8513Z" fill="#319342"/>
<path fill-rule="evenodd" clip-rule="evenodd" d="M15.895 10.8212C15.895 10.7312 15.885 10.5512 15.765 10.5612L15.625 10.5712C15.785 10.5612 15.805 10.7512 15.815 10.8312L15.895 10.8212ZM16.215 10.6912H16.355C16.435 10.6912 16.495 10.6112 16.495 10.5312V10.4812C16.495 10.4012 16.435 10.3212 16.355 10.3212H16.205L16.215 10.6912ZM16.125 10.8112L16.115 10.2112H16.355C16.475 10.2112 16.585 10.3212 16.585 10.4612V10.5512C16.585 10.6912 16.485 10.8112 16.355 10.8112H16.125ZM16.785 10.8012L17.265 10.8212V10.7112L16.885 10.6912V10.5412L17.195 10.5512V10.4512L16.895 10.4412V10.3212L17.255 10.3312V10.2212L16.805 10.2012L16.785 10.8012ZM17.455 10.8312L17.545 10.8412L17.585 10.4312L17.655 10.8512L17.735 10.8612L17.875 10.4612L17.845 10.8712L17.935 10.8812L17.975 10.2812L17.845 10.2712L17.705 10.6712L17.635 10.2512L17.505 10.2412L17.455 10.8312ZM18.545 10.9712L18.945 11.0412L18.955 10.9412L18.655 10.8912L18.675 10.7512L18.925 10.8012L18.935 10.7012L18.695 10.6512L18.705 10.5612L18.995 10.6212L19.005 10.5112L18.635 10.4412L18.545 10.9712ZM19.725 10.9012L19.915 10.9612C19.955 10.9712 19.985 10.9512 19.995 10.9112C20.005 10.8712 19.985 10.8312 19.945 10.8212L19.745 10.7612L19.725 10.9012ZM19.555 11.1912L19.695 10.6212L19.985 10.7112C20.075 10.7412 20.125 10.8412 20.105 10.9412C20.085 11.0412 19.995 11.1012 19.905 11.0712L19.705 11.0112L19.655 11.2212L19.555 11.1912ZM20.385 11.1012L20.575 11.1712C20.605 11.1812 20.645 11.1612 20.655 11.1212C20.665 11.0812 20.645 11.0412 20.615 11.0312L20.425 10.9612L20.385 11.1012ZM20.205 11.3812L20.365 10.8212L20.655 10.9212C20.745 10.9512 20.785 11.0612 20.765 11.1512C20.735 11.2512 20.645 11.3012 20.555 11.2712L20.355 11.2112L20.295 11.4212L20.205 11.3812Z" fill="#319342"/>
<path fill-rule="evenodd" clip-rule="evenodd" d="M20.6248 11.5414C20.6548 11.4614 20.6948 11.2814 20.5948 11.2414L20.4648 11.1914C20.6248 11.2514 20.5748 11.4214 20.5448 11.5114L20.6248 11.5414ZM21.0948 11.6114C21.1648 11.6414 21.2548 11.5914 21.2848 11.4914C21.3148 11.3914 21.2848 11.2914 21.2148 11.2614C21.1448 11.2314 21.0548 11.2814 21.0248 11.3814C20.9848 11.4714 21.0248 11.5814 21.0948 11.6114ZM21.0648 11.7114C20.9448 11.6614 20.8848 11.4914 20.9348 11.3414C20.9848 11.1914 21.1248 11.1014 21.2548 11.1614C21.3748 11.2114 21.4348 11.3814 21.3848 11.5314C21.3248 11.6814 21.1848 11.7614 21.0648 11.7114ZM21.7248 11.8914C21.7948 11.9314 21.8848 11.8814 21.9148 11.7814C21.9548 11.6914 21.9248 11.5814 21.8548 11.5514C21.7848 11.5114 21.6948 11.5614 21.6648 11.6614C21.6248 11.7514 21.6448 11.8614 21.7248 11.8914ZM21.6848 11.9914C21.5648 11.9314 21.5148 11.7614 21.5748 11.6114C21.6348 11.4614 21.7748 11.3914 21.8948 11.4414C22.0148 11.5014 22.0648 11.6714 22.0048 11.8214C21.9448 11.9814 21.8048 12.0514 21.6848 11.9914Z" fill="#319342"/>
<path fill-rule="evenodd" clip-rule="evenodd" d="M21.8249 11.7422L22.0049 11.8322L21.9749 11.9122L21.7949 11.8122L21.8249 11.7422Z" fill="#319342"/>
<path fill-rule="evenodd" clip-rule="evenodd" d="M21.935 11.7921L22.005 11.8321L21.895 12.1021L21.835 12.0721L21.935 11.7921ZM22.295 11.9521L22.475 12.0521C22.505 12.0721 22.545 12.0621 22.565 12.0221C22.585 11.9821 22.565 11.9421 22.535 11.9221L22.345 11.8221L22.295 11.9521ZM22.085 12.1921L22.325 11.6621L22.595 11.8121C22.675 11.8521 22.705 11.9721 22.665 12.0621C22.625 12.1521 22.525 12.1921 22.445 12.1421L22.255 12.0321L22.165 12.2321L22.085 12.1921Z" fill="#319342"/>
<path fill-rule="evenodd" clip-rule="evenodd" d="M22.4755 12.4215C22.5055 12.3415 22.5855 12.1815 22.4855 12.1215L22.3555 12.0515C22.5055 12.1415 22.4355 12.3015 22.4055 12.3815L22.4755 12.4215ZM22.6755 12.5415L23.0955 12.8015L23.1355 12.7015L22.8055 12.4915L22.8655 12.3615L23.1355 12.5215L23.1755 12.4315L22.9155 12.2715L22.9655 12.1615L23.2755 12.3715L23.3355 12.2715L22.9355 12.0215L22.6755 12.5415ZM23.4455 12.8315C23.4155 12.8815 23.4455 12.9415 23.5055 12.9815C23.5655 13.0215 23.6155 13.0215 23.6355 12.9915C23.6955 12.8815 23.3555 12.7415 23.4655 12.5615C23.5555 12.4115 23.7055 12.5215 23.7655 12.5715C23.8255 12.6115 23.9155 12.7215 23.8455 12.8415L23.7455 12.7715C23.7755 12.7215 23.7455 12.6715 23.6955 12.6315C23.6455 12.5915 23.6055 12.5715 23.5755 12.6315C23.5255 12.7115 23.8555 12.8615 23.7455 13.0415C23.6755 13.1715 23.5455 13.1115 23.4655 13.0515C23.3855 13.0015 23.2855 12.8715 23.3555 12.7515L23.4455 12.8315ZM24.0155 13.2515C23.9855 13.3015 24.0055 13.3615 24.0655 13.4115C24.1255 13.4615 24.1755 13.4615 24.1955 13.4315C24.2555 13.3315 23.9255 13.1615 24.0455 12.9915C24.1455 12.8415 24.2855 12.9715 24.3455 13.0115C24.4055 13.0615 24.4855 13.1715 24.4055 13.2915L24.3055 13.2115C24.3355 13.1615 24.3055 13.1115 24.2555 13.0715C24.2055 13.0315 24.1755 13.0115 24.1455 13.0615C24.0955 13.1415 24.4055 13.3215 24.3055 13.4915C24.2255 13.6215 24.0955 13.5515 24.0155 13.4915C23.9455 13.4315 23.8355 13.3015 23.9155 13.1815L24.0155 13.2515ZM24.6055 13.8415C24.6655 13.9015 24.7655 13.8815 24.8155 13.7915C24.8755 13.7115 24.8655 13.6015 24.8055 13.5515C24.7455 13.4915 24.6555 13.5215 24.5955 13.6015C24.5455 13.6815 24.5455 13.7915 24.6055 13.8415ZM24.5455 13.9315C24.4455 13.8415 24.4355 13.6615 24.5255 13.5315C24.6155 13.4015 24.7755 13.3715 24.8755 13.4715C24.9755 13.5615 24.9855 13.7415 24.8955 13.8715C24.8055 13.9915 24.6455 14.0215 24.5455 13.9315Z" fill="#319342"/>
<path fill-rule="evenodd" clip-rule="evenodd" d="M15.2255 11.3418L15.1455 11.6018L15.2655 11.6418L15.2255 11.3418Z" fill="#FEFEFE"/>
<path fill-rule="evenodd" clip-rule="evenodd" d="M15.2255 11.3418L15.2955 11.6018L15.1855 11.6418L15.2255 11.3418Z" fill="#FEFEFE"/>
<path fill-rule="evenodd" clip-rule="evenodd" d="M15.4451 11.5312H15.2051V11.6613L15.4451 11.5312Z" fill="#FEFEFE"/>
<path fill-rule="evenodd" clip-rule="evenodd" d="M15.4455 11.5312L15.2555 11.6813L15.1855 11.5813L15.4455 11.5312Z" fill="#FEFEFE"/>
<path fill-rule="evenodd" clip-rule="evenodd" d="M14.9951 11.5312L15.1851 11.6813L15.2551 11.5813L14.9951 11.5312Z" fill="#FEFEFE"/>
<path fill-rule="evenodd" clip-rule="evenodd" d="M14.9951 11.5312H15.2351V11.6613L14.9951 11.5312Z" fill="#FEFEFE"/>
<path fill-rule="evenodd" clip-rule="evenodd" d="M15.3548 11.8323L15.2848 11.5723L15.1748 11.6123L15.3548 11.8323Z" fill="#FEFEFE"/>
<path fill-rule="evenodd" clip-rule="evenodd" d="M15.355 11.8325L15.165 11.6725L15.235 11.5625L15.355 11.8325Z" fill="#FEFEFE"/>
<path fill-rule="evenodd" clip-rule="evenodd" d="M15.085 11.8325L15.275 11.6725L15.205 11.5625L15.085 11.8325Z" fill="#FEFEFE"/>
<path fill-rule="evenodd" clip-rule="evenodd" d="M15.085 11.8323L15.155 11.5723L15.275 11.6123L15.085 11.8323ZM15.715 13.9623L15.635 14.2223L15.755 14.2623L15.715 13.9623Z" fill="#FEFEFE"/>
<path fill-rule="evenodd" clip-rule="evenodd" d="M15.7148 13.9609L15.7848 14.2209L15.6748 14.2609L15.7148 13.9609Z" fill="#FEFEFE"/>
<path fill-rule="evenodd" clip-rule="evenodd" d="M15.9351 14.1523H15.7051V14.2823L15.9351 14.1523Z" fill="#FEFEFE"/>
<path fill-rule="evenodd" clip-rule="evenodd" d="M15.9348 14.1523L15.7448 14.3123L15.6748 14.2023L15.9348 14.1523Z" fill="#FEFEFE"/>
<path fill-rule="evenodd" clip-rule="evenodd" d="M15.4854 14.1523L15.6754 14.3123L15.7554 14.2023L15.4854 14.1523Z" fill="#FEFEFE"/>
<path fill-rule="evenodd" clip-rule="evenodd" d="M15.4854 14.1523H15.7254V14.2823L15.4854 14.1523Z" fill="#FEFEFE"/>
<path fill-rule="evenodd" clip-rule="evenodd" d="M15.855 14.4512L15.775 14.2012L15.665 14.2412L15.855 14.4512Z" fill="#FEFEFE"/>
<path fill-rule="evenodd" clip-rule="evenodd" d="M15.855 14.4516L15.665 14.2916L15.725 14.1816L15.855 14.4516Z" fill="#FEFEFE"/>
<path fill-rule="evenodd" clip-rule="evenodd" d="M15.5752 14.4516L15.7652 14.2916L15.6952 14.1816L15.5752 14.4516Z" fill="#FEFEFE"/>
<path fill-rule="evenodd" clip-rule="evenodd" d="M15.5754 14.4512L15.6454 14.2012L15.7554 14.2412L15.5754 14.4512ZM15.0354 14.6112L14.9854 14.7812L15.0654 14.8112L15.0354 14.6112Z" fill="#FEFEFE"/>
<path fill-rule="evenodd" clip-rule="evenodd" d="M15.0349 14.6113L15.0849 14.7813L15.0049 14.8113L15.0349 14.6113Z" fill="#FEFEFE"/>
<path fill-rule="evenodd" clip-rule="evenodd" d="M15.1854 14.7422H15.0254V14.8322L15.1854 14.7422Z" fill="#FEFEFE"/>
<path fill-rule="evenodd" clip-rule="evenodd" d="M15.1846 14.7422L15.0546 14.8422L15.0146 14.7722L15.1846 14.7422Z" fill="#FEFEFE"/>
<path fill-rule="evenodd" clip-rule="evenodd" d="M14.8848 14.7422L15.0148 14.8422L15.0548 14.7722L14.8848 14.7422Z" fill="#FEFEFE"/>
<path fill-rule="evenodd" clip-rule="evenodd" d="M14.8848 14.7422H15.0448V14.8322L14.8848 14.7422Z" fill="#FEFEFE"/>
<path fill-rule="evenodd" clip-rule="evenodd" d="M15.1249 14.9415L15.0749 14.7715L15.0049 14.8015L15.1249 14.9415Z" fill="#FEFEFE"/>
<path fill-rule="evenodd" clip-rule="evenodd" d="M15.1251 14.9417L14.9951 14.8317L15.0451 14.7617L15.1251 14.9417Z" fill="#FEFEFE"/>
<path fill-rule="evenodd" clip-rule="evenodd" d="M14.9453 14.9417L15.0653 14.8317L15.0253 14.7617L14.9453 14.9417Z" fill="#FEFEFE"/>
<path fill-rule="evenodd" clip-rule="evenodd" d="M14.9453 14.9427L14.9853 14.7727L15.0653 14.8027L14.9453 14.9427ZM16.2553 13.7227L16.2153 13.8427L16.2753 13.8627L16.2553 13.7227Z" fill="#FEFEFE"/>
<path fill-rule="evenodd" clip-rule="evenodd" d="M16.2554 13.7227L16.2854 13.8427L16.2354 13.8627L16.2554 13.7227Z" fill="#FEFEFE"/>
<path fill-rule="evenodd" clip-rule="evenodd" d="M16.3649 13.8125H16.2549V13.8725L16.3649 13.8125Z" fill="#FEFEFE"/>
<path fill-rule="evenodd" clip-rule="evenodd" d="M16.3654 13.8125L16.2754 13.8925L16.2354 13.8425L16.3654 13.8125Z" fill="#FEFEFE"/>
<path fill-rule="evenodd" clip-rule="evenodd" d="M16.1455 13.8125L16.2355 13.8925L16.2755 13.8425L16.1455 13.8125Z" fill="#FEFEFE"/>
<path fill-rule="evenodd" clip-rule="evenodd" d="M16.1455 13.8125H16.2655V13.8725L16.1455 13.8125Z" fill="#FEFEFE"/>
<path fill-rule="evenodd" clip-rule="evenodd" d="M16.3254 13.952L16.2854 13.832L16.2354 13.852L16.3254 13.952Z" fill="#FEFEFE"/>
<path fill-rule="evenodd" clip-rule="evenodd" d="M16.3254 13.952L16.2354 13.882L16.2654 13.832L16.3254 13.952Z" fill="#FEFEFE"/>
<path fill-rule="evenodd" clip-rule="evenodd" d="M16.1855 13.952L16.2855 13.882L16.2455 13.832L16.1855 13.952Z" fill="#FEFEFE"/>
<path fill-rule="evenodd" clip-rule="evenodd" d="M16.1855 13.952L16.2255 13.832L16.2755 13.852L16.1855 13.952ZM16.8655 14.632L16.8055 14.842L16.8955 14.882L16.8655 14.632Z" fill="#FEFEFE"/>
<path fill-rule="evenodd" clip-rule="evenodd" d="M16.865 14.6309L16.925 14.8409L16.835 14.8809L16.865 14.6309Z" fill="#FEFEFE"/>
<path fill-rule="evenodd" clip-rule="evenodd" d="M17.0555 14.7812H16.8555V14.8913L17.0555 14.7812Z" fill="#FEFEFE"/>
<path fill-rule="evenodd" clip-rule="evenodd" d="M17.055 14.7812L16.895 14.9113L16.835 14.8212L17.055 14.7812Z" fill="#FEFEFE"/>
<path fill-rule="evenodd" clip-rule="evenodd" d="M16.6748 14.7812L16.8348 14.9113L16.8948 14.8212L16.6748 14.7812Z" fill="#FEFEFE"/>
<path fill-rule="evenodd" clip-rule="evenodd" d="M16.6748 14.7812H16.8748V14.8913L16.6748 14.7812Z" fill="#FEFEFE"/>
<path fill-rule="evenodd" clip-rule="evenodd" d="M16.9852 15.0323L16.9252 14.8223L16.8252 14.8623L16.9852 15.0323Z" fill="#FEFEFE"/>
<path fill-rule="evenodd" clip-rule="evenodd" d="M16.9852 15.0325L16.8252 14.9025L16.8752 14.8125L16.9852 15.0325Z" fill="#FEFEFE"/>
<path fill-rule="evenodd" clip-rule="evenodd" d="M16.7549 15.0325L16.9049 14.9025L16.8449 14.8125L16.7549 15.0325Z" fill="#FEFEFE"/>
<path fill-rule="evenodd" clip-rule="evenodd" d="M16.7548 15.0323L16.8148 14.8223L16.9048 14.8623L16.7548 15.0323ZM16.7048 15.2523L16.6348 15.4623L16.7348 15.5023L16.7048 15.2523Z" fill="#FEFEFE"/>
<path fill-rule="evenodd" clip-rule="evenodd" d="M16.705 15.252L16.755 15.462L16.665 15.502L16.705 15.252Z" fill="#FEFEFE"/>
<path fill-rule="evenodd" clip-rule="evenodd" d="M16.8853 15.4023H16.6953V15.5123L16.8853 15.4023Z" fill="#FEFEFE"/>
<path fill-rule="evenodd" clip-rule="evenodd" d="M16.885 15.4023L16.725 15.5323L16.665 15.4423L16.885 15.4023Z" fill="#FEFEFE"/>
<path fill-rule="evenodd" clip-rule="evenodd" d="M16.5146 15.4023L16.6746 15.5323L16.7346 15.4423L16.5146 15.4023Z" fill="#FEFEFE"/>
<path fill-rule="evenodd" clip-rule="evenodd" d="M16.5146 15.4023H16.7146V15.5123L16.5146 15.4023Z" fill="#FEFEFE"/>
<path fill-rule="evenodd" clip-rule="evenodd" d="M16.815 15.6514L16.755 15.4414L16.665 15.4714L16.815 15.6514Z" fill="#FEFEFE"/>
<path fill-rule="evenodd" clip-rule="evenodd" d="M16.8153 15.6516L16.6553 15.5216L16.7153 15.4316L16.8153 15.6516Z" fill="#FEFEFE"/>
<path fill-rule="evenodd" clip-rule="evenodd" d="M16.585 15.6516L16.745 15.5216L16.685 15.4316L16.585 15.6516Z" fill="#FEFEFE"/>
<path fill-rule="evenodd" clip-rule="evenodd" d="M16.585 15.6512L16.645 15.4412L16.745 15.4713L16.585 15.6512ZM21.465 10.5312L21.395 10.7812L21.505 10.8212L21.465 10.5312Z" fill="#FEFEFE"/>
<path fill-rule="evenodd" clip-rule="evenodd" d="M21.4648 10.5312L21.5348 10.7812L21.4248 10.8212L21.4648 10.5312Z" fill="#FEFEFE"/>
<path fill-rule="evenodd" clip-rule="evenodd" d="M21.6851 10.7109H21.4551V10.8509L21.6851 10.7109Z" fill="#FEFEFE"/>
<path fill-rule="evenodd" clip-rule="evenodd" d="M21.6848 10.7109L21.4948 10.8709L21.4248 10.7609L21.6848 10.7109Z" fill="#FEFEFE"/>
<path fill-rule="evenodd" clip-rule="evenodd" d="M21.2354 10.7109L21.4354 10.8709L21.5054 10.7609L21.2354 10.7109Z" fill="#FEFEFE"/>
<path fill-rule="evenodd" clip-rule="evenodd" d="M21.2354 10.7109H21.4754V10.8509L21.2354 10.7109Z" fill="#FEFEFE"/>
<path fill-rule="evenodd" clip-rule="evenodd" d="M21.605 11.0117L21.525 10.7617L21.415 10.8017L21.605 11.0117Z" fill="#FEFEFE"/>
<path fill-rule="evenodd" clip-rule="evenodd" d="M21.605 11.0122L21.415 10.8522L21.485 10.7422L21.605 11.0122Z" fill="#FEFEFE"/>
<path fill-rule="evenodd" clip-rule="evenodd" d="M21.3252 11.0122L21.5152 10.8522L21.4452 10.7422L21.3252 11.0122Z" fill="#FEFEFE"/>
<path fill-rule="evenodd" clip-rule="evenodd" d="M21.3252 11.0117L21.3952 10.7617L21.5152 10.8017L21.3252 11.0117ZM23.6252 14.6517L23.5552 14.9117L23.6652 14.9517L23.6252 14.6517Z" fill="#FEFEFE"/>
<path fill-rule="evenodd" clip-rule="evenodd" d="M23.6247 14.6523L23.7047 14.9123L23.5947 14.9523L23.6247 14.6523Z" fill="#FEFEFE"/>
<path fill-rule="evenodd" clip-rule="evenodd" d="M23.8552 14.8418H23.6152V14.9718L23.8552 14.8418Z" fill="#FEFEFE"/>
<path fill-rule="evenodd" clip-rule="evenodd" d="M23.8547 14.8418L23.6647 15.0018L23.5947 14.8918L23.8547 14.8418Z" fill="#FEFEFE"/>
<path fill-rule="evenodd" clip-rule="evenodd" d="M23.4053 14.8418L23.5953 15.0018L23.6653 14.8918L23.4053 14.8418Z" fill="#FEFEFE"/>
<path fill-rule="evenodd" clip-rule="evenodd" d="M23.4053 14.8418H23.6353V14.9718L23.4053 14.8418Z" fill="#FEFEFE"/>
<path fill-rule="evenodd" clip-rule="evenodd" d="M23.775 15.1409L23.695 14.8809L23.585 14.9209L23.775 15.1409Z" fill="#FEFEFE"/>
<path fill-rule="evenodd" clip-rule="evenodd" d="M23.7752 15.1411L23.5752 14.9811L23.6452 14.8711L23.7752 15.1411Z" fill="#FEFEFE"/>
<path fill-rule="evenodd" clip-rule="evenodd" d="M23.4854 15.1411L23.6854 14.9811L23.6154 14.8711L23.4854 15.1411Z" fill="#FEFEFE"/>
<path fill-rule="evenodd" clip-rule="evenodd" d="M23.4854 15.1408L23.5654 14.8808L23.6754 14.9208L23.4854 15.1408ZM24.3954 14.8008L24.3454 14.9708L24.4254 15.0008L24.3954 14.8008Z" fill="#FEFEFE"/>
<path fill-rule="evenodd" clip-rule="evenodd" d="M24.3952 14.8008L24.4452 14.9708L24.3652 15.0008L24.3952 14.8008Z" fill="#FEFEFE"/>
<path fill-rule="evenodd" clip-rule="evenodd" d="M24.5455 14.9219H24.3955V15.0119L24.5455 14.9219Z" fill="#FEFEFE"/>
<path fill-rule="evenodd" clip-rule="evenodd" d="M24.545 14.9219L24.425 15.0319L24.375 14.9619L24.545 14.9219Z" fill="#FEFEFE"/>
<path fill-rule="evenodd" clip-rule="evenodd" d="M24.2451 14.9219L24.3751 15.0319L24.4251 14.9619L24.2451 14.9219Z" fill="#FEFEFE"/>
<path fill-rule="evenodd" clip-rule="evenodd" d="M24.2451 14.9219H24.4051V15.0119L24.2451 14.9219Z" fill="#FEFEFE"/>
<path fill-rule="evenodd" clip-rule="evenodd" d="M24.4852 15.1212L24.4452 14.9512L24.3652 14.9812L24.4852 15.1212Z" fill="#FEFEFE"/>
<path fill-rule="evenodd" clip-rule="evenodd" d="M24.4852 15.1214L24.3652 15.0214L24.4152 14.9414L24.4852 15.1214Z" fill="#FEFEFE"/>
<path fill-rule="evenodd" clip-rule="evenodd" d="M24.3047 15.1214L24.4347 15.0214L24.3847 14.9414L24.3047 15.1214Z" fill="#FEFEFE"/>
<path fill-rule="evenodd" clip-rule="evenodd" d="M24.3049 15.1212L24.3549 14.9512L24.4249 14.9812L24.3049 15.1212ZM23.8549 15.2512L23.7949 15.4612L23.8849 15.5012L23.8549 15.2512Z" fill="#FEFEFE"/>
<path fill-rule="evenodd" clip-rule="evenodd" d="M23.8552 15.252L23.9152 15.462L23.8252 15.502L23.8552 15.252Z" fill="#FEFEFE"/>
<path fill-rule="evenodd" clip-rule="evenodd" d="M24.0447 15.4023H23.8447V15.5123L24.0447 15.4023Z" fill="#FEFEFE"/>
<path fill-rule="evenodd" clip-rule="evenodd" d="M24.0452 15.4023L23.8852 15.5323L23.8252 15.4423L24.0452 15.4023Z" fill="#FEFEFE"/>
<path fill-rule="evenodd" clip-rule="evenodd" d="M23.665 15.4023L23.835 15.5323L23.885 15.4423L23.665 15.4023Z" fill="#FEFEFE"/>
<path fill-rule="evenodd" clip-rule="evenodd" d="M23.665 15.4023H23.865V15.5123L23.665 15.4023Z" fill="#FEFEFE"/>
<path fill-rule="evenodd" clip-rule="evenodd" d="M23.9754 15.6514L23.9154 15.4414L23.8154 15.4714L23.9754 15.6514Z" fill="#FEFEFE"/>
<path fill-rule="evenodd" clip-rule="evenodd" d="M23.9754 15.6516L23.8154 15.5216L23.8654 15.4316L23.9754 15.6516Z" fill="#FEFEFE"/>
<path fill-rule="evenodd" clip-rule="evenodd" d="M23.7354 15.6516L23.8954 15.5216L23.8454 15.4316L23.7354 15.6516Z" fill="#FEFEFE"/>
<path fill-rule="evenodd" clip-rule="evenodd" d="M23.7351 15.6514L23.7951 15.4414L23.8951 15.4714L23.7351 15.6514ZM22.5251 16.5614L22.4551 16.7714L22.5551 16.8014L22.5251 16.5614Z" fill="#FEFEFE"/>
<path fill-rule="evenodd" clip-rule="evenodd" d="M22.5254 16.5625L22.5854 16.7725L22.4854 16.8025L22.5254 16.5625Z" fill="#FEFEFE"/>
<path fill-rule="evenodd" clip-rule="evenodd" d="M22.7046 16.7109H22.5146V16.8209L22.7046 16.7109Z" fill="#FEFEFE"/>
<path fill-rule="evenodd" clip-rule="evenodd" d="M22.7054 16.7109L22.5454 16.8409L22.4854 16.7509L22.7054 16.7109Z" fill="#FEFEFE"/>
<path fill-rule="evenodd" clip-rule="evenodd" d="M22.335 16.7109L22.495 16.8409L22.545 16.7509L22.335 16.7109Z" fill="#FEFEFE"/>
<path fill-rule="evenodd" clip-rule="evenodd" d="M22.335 16.7109H22.535V16.8209L22.335 16.7109Z" fill="#FEFEFE"/>
<path fill-rule="evenodd" clip-rule="evenodd" d="M22.6356 16.962L22.5756 16.752L22.4756 16.782L22.6356 16.962Z" fill="#FEFEFE"/>
<path fill-rule="evenodd" clip-rule="evenodd" d="M22.6356 16.9622L22.4756 16.8322L22.5356 16.7422L22.6356 16.9622Z" fill="#FEFEFE"/>
<path fill-rule="evenodd" clip-rule="evenodd" d="M22.4053 16.9622L22.5653 16.8322L22.5053 16.7422L22.4053 16.9622Z" fill="#FEFEFE"/>
<path fill-rule="evenodd" clip-rule="evenodd" d="M22.4053 16.962L22.4653 16.752L22.5553 16.782L22.4053 16.962ZM22.5153 17.232L22.4653 17.402L22.5453 17.432L22.5153 17.232Z" fill="#FEFEFE"/>
<path fill-rule="evenodd" clip-rule="evenodd" d="M22.5154 17.2324L22.5554 17.4024L22.4854 17.4324L22.5154 17.2324Z" fill="#FEFEFE"/>
<path fill-rule="evenodd" clip-rule="evenodd" d="M22.6649 17.3516H22.5049V17.4416L22.6649 17.3516Z" fill="#FEFEFE"/>
<path fill-rule="evenodd" clip-rule="evenodd" d="M22.6654 17.3516L22.5354 17.4616L22.4854 17.3916L22.6654 17.3516Z" fill="#FEFEFE"/>
<path fill-rule="evenodd" clip-rule="evenodd" d="M22.3652 17.3516L22.4852 17.4616L22.5352 17.3916L22.3652 17.3516Z" fill="#FEFEFE"/>
<path fill-rule="evenodd" clip-rule="evenodd" d="M22.3652 17.3516H22.5252V17.4416L22.3652 17.3516Z" fill="#FEFEFE"/>
<path fill-rule="evenodd" clip-rule="evenodd" d="M22.6056 17.5509L22.5556 17.3809L22.4756 17.4109L22.6056 17.5509Z" fill="#FEFEFE"/>
<path fill-rule="evenodd" clip-rule="evenodd" d="M22.6056 17.5509L22.4756 17.4509L22.5256 17.3809L22.6056 17.5509Z" fill="#FEFEFE"/>
<path fill-rule="evenodd" clip-rule="evenodd" d="M22.4248 17.5509L22.5448 17.4509L22.4948 17.3809L22.4248 17.5509Z" fill="#FEFEFE"/>
<path fill-rule="evenodd" clip-rule="evenodd" d="M22.4248 17.5513L22.4648 17.3813L22.5448 17.4113L22.4248 17.5513ZM23.0748 16.1113L23.0248 16.2813L23.0948 16.3113L23.0748 16.1113Z" fill="#FEFEFE"/>
<path fill-rule="evenodd" clip-rule="evenodd" d="M23.0749 16.1113L23.1149 16.2813L23.0449 16.3113L23.0749 16.1113Z" fill="#FEFEFE"/>
<path fill-rule="evenodd" clip-rule="evenodd" d="M23.2254 16.2324H23.0654V16.3224L23.2254 16.2324Z" fill="#FEFEFE"/>
<path fill-rule="evenodd" clip-rule="evenodd" d="M23.2249 16.2324L23.0949 16.3424L23.0449 16.2724L23.2249 16.2324Z" fill="#FEFEFE"/>
<path fill-rule="evenodd" clip-rule="evenodd" d="M22.9248 16.2324L23.0448 16.3424L23.0948 16.2724L22.9248 16.2324Z" fill="#FEFEFE"/>
<path fill-rule="evenodd" clip-rule="evenodd" d="M22.9248 16.2324H23.0848V16.3224L22.9248 16.2324Z" fill="#FEFEFE"/>
<path fill-rule="evenodd" clip-rule="evenodd" d="M23.1652 16.4317L23.1152 16.2617L23.0352 16.2917L23.1652 16.4317Z" fill="#FEFEFE"/>
<path fill-rule="evenodd" clip-rule="evenodd" d="M23.1652 16.432L23.0352 16.332L23.0852 16.252L23.1652 16.432Z" fill="#FEFEFE"/>
<path fill-rule="evenodd" clip-rule="evenodd" d="M22.9756 16.432L23.1056 16.332L23.0656 16.252L22.9756 16.432Z" fill="#FEFEFE"/>
<path fill-rule="evenodd" clip-rule="evenodd" d="M22.9756 16.432L23.0256 16.262L23.1056 16.292L22.9756 16.432ZM23.5156 15.752L23.4556 15.962L23.5456 16.002L23.5156 15.752Z" fill="#FEFEFE"/>
<path fill-rule="evenodd" clip-rule="evenodd" d="M23.5154 15.752L23.5754 15.962L23.4854 16.002L23.5154 15.752Z" fill="#FEFEFE"/>
<path fill-rule="evenodd" clip-rule="evenodd" d="M23.7049 15.9023H23.5049V16.0123L23.7049 15.9023Z" fill="#FEFEFE"/>
<path fill-rule="evenodd" clip-rule="evenodd" d="M23.7054 15.9023L23.5454 16.0323L23.4854 15.9423L23.7054 15.9023Z" fill="#FEFEFE"/>
<path fill-rule="evenodd" clip-rule="evenodd" d="M23.3252 15.9023L23.4852 16.0323L23.5452 15.9423L23.3252 15.9023Z" fill="#FEFEFE"/>
<path fill-rule="evenodd" clip-rule="evenodd" d="M23.3252 15.9023H23.5252V16.0123L23.3252 15.9023Z" fill="#FEFEFE"/>
<path fill-rule="evenodd" clip-rule="evenodd" d="M23.6356 16.1514L23.5756 15.9414L23.4756 15.9814L23.6356 16.1514Z" fill="#FEFEFE"/>
<path fill-rule="evenodd" clip-rule="evenodd" d="M23.6356 16.1516L23.4756 16.0216L23.5256 15.9316L23.6356 16.1516Z" fill="#FEFEFE"/>
<path fill-rule="evenodd" clip-rule="evenodd" d="M23.3955 16.1516L23.5655 16.0216L23.5055 15.9316L23.3955 16.1516Z" fill="#FEFEFE"/>
<path fill-rule="evenodd" clip-rule="evenodd" d="M23.3953 16.1514L23.4653 15.9414L23.5553 15.9814L23.3953 16.1514ZM22.4953 15.9914L22.4453 16.1614L22.5253 16.1914L22.4953 15.9914Z" fill="#FEFEFE"/>
<path fill-rule="evenodd" clip-rule="evenodd" d="M22.4948 15.9922L22.5448 16.1622L22.4648 16.1922L22.4948 15.9922Z" fill="#FEFEFE"/>
<path fill-rule="evenodd" clip-rule="evenodd" d="M22.6554 16.1113H22.4854V16.2013L22.6554 16.1113Z" fill="#FEFEFE"/>
<path fill-rule="evenodd" clip-rule="evenodd" d="M22.6556 16.1113L22.5256 16.2213L22.4756 16.1413L22.6556 16.1113Z" fill="#FEFEFE"/>
<path fill-rule="evenodd" clip-rule="evenodd" d="M22.3447 16.1113L22.4747 16.2213L22.5247 16.1413L22.3447 16.1113Z" fill="#FEFEFE"/>
<path fill-rule="evenodd" clip-rule="evenodd" d="M22.3447 16.1113H22.5047V16.2013L22.3447 16.1113Z" fill="#FEFEFE"/>
<path fill-rule="evenodd" clip-rule="evenodd" d="M22.5948 16.3126L22.5448 16.1426L22.4648 16.1726L22.5948 16.3126Z" fill="#FEFEFE"/>
<path fill-rule="evenodd" clip-rule="evenodd" d="M22.5948 16.3126L22.4648 16.2126L22.5048 16.1426L22.5948 16.3126Z" fill="#FEFEFE"/>
<path fill-rule="evenodd" clip-rule="evenodd" d="M22.4053 16.3126L22.5353 16.2126L22.4853 16.1426L22.4053 16.3126Z" fill="#FEFEFE"/>
<path fill-rule="evenodd" clip-rule="evenodd" d="M22.4052 16.3117L22.4552 16.1417L22.5352 16.1717L22.4052 16.3117ZM17.6352 12.7617L17.5752 12.9717L17.6652 13.0117L17.6352 12.7617Z" fill="#FEFEFE"/>
<path fill-rule="evenodd" clip-rule="evenodd" d="M17.6355 12.7617L17.6955 12.9717L17.6055 13.0117L17.6355 12.7617Z" fill="#FEFEFE"/>
<path fill-rule="evenodd" clip-rule="evenodd" d="M17.825 12.9219H17.625V13.0319L17.825 12.9219Z" fill="#FEFEFE"/>
<path fill-rule="evenodd" clip-rule="evenodd" d="M17.8255 12.9219L17.6655 13.0519L17.6055 12.9619L17.8255 12.9219Z" fill="#FEFEFE"/>
<path fill-rule="evenodd" clip-rule="evenodd" d="M17.4453 12.9219L17.6053 13.0519L17.6653 12.9619L17.4453 12.9219Z" fill="#FEFEFE"/>
<path fill-rule="evenodd" clip-rule="evenodd" d="M17.4453 12.9219H17.6453V13.0319L17.4453 12.9219Z" fill="#FEFEFE"/>
<path fill-rule="evenodd" clip-rule="evenodd" d="M17.7547 13.1612L17.6947 12.9512L17.5947 12.9912L17.7547 13.1612Z" fill="#FEFEFE"/>
<path fill-rule="evenodd" clip-rule="evenodd" d="M17.755 13.1614L17.585 13.0314L17.645 12.9414L17.755 13.1614Z" fill="#FEFEFE"/>
<path fill-rule="evenodd" clip-rule="evenodd" d="M17.5146 13.1614L17.6846 13.0314L17.6246 12.9414L17.5146 13.1614Z" fill="#FEFEFE"/>
<path fill-rule="evenodd" clip-rule="evenodd" d="M17.5146 13.1622L17.5846 12.9522L17.6746 12.9922L17.5146 13.1622ZM21.2546 12.2422L21.2046 12.4122L21.2846 12.4322L21.2546 12.2422Z" fill="#FEFEFE"/>
<path fill-rule="evenodd" clip-rule="evenodd" d="M21.2556 12.2422L21.3056 12.4122L21.2256 12.4322L21.2556 12.2422Z" fill="#FEFEFE"/>
<path fill-rule="evenodd" clip-rule="evenodd" d="M21.4051 12.3613H21.2451V12.4513L21.4051 12.3613Z" fill="#FEFEFE"/>
<path fill-rule="evenodd" clip-rule="evenodd" d="M21.4054 12.3613L21.2754 12.4713L21.2354 12.3913L21.4054 12.3613Z" fill="#FEFEFE"/>
<path fill-rule="evenodd" clip-rule="evenodd" d="M21.1055 12.3613L21.2355 12.4713L21.2755 12.3913L21.1055 12.3613Z" fill="#FEFEFE"/>
<path fill-rule="evenodd" clip-rule="evenodd" d="M21.1055 12.3613H21.2655V12.4513L21.1055 12.3613Z" fill="#FEFEFE"/>
<path fill-rule="evenodd" clip-rule="evenodd" d="M21.3456 12.5626L21.2956 12.3926L21.2256 12.4226L21.3456 12.5626Z" fill="#FEFEFE"/>
<path fill-rule="evenodd" clip-rule="evenodd" d="M21.3448 12.5609L21.2148 12.4509L21.2648 12.3809L21.3448 12.5609Z" fill="#FEFEFE"/>
<path fill-rule="evenodd" clip-rule="evenodd" d="M21.1553 12.5609L21.2853 12.4509L21.2453 12.3809L21.1553 12.5609Z" fill="#FEFEFE"/>
<path fill-rule="evenodd" clip-rule="evenodd" d="M21.1548 12.5626L21.2048 12.3926L21.2848 12.4226L21.1548 12.5626ZM19.7448 15.2626L19.6748 15.5226L19.7848 15.5626L19.7448 15.2626Z" fill="#FEFEFE"/>
<path fill-rule="evenodd" clip-rule="evenodd" d="M19.7451 15.2617L19.8151 15.5217L19.7051 15.5617L19.7451 15.2617Z" fill="#FEFEFE"/>
<path fill-rule="evenodd" clip-rule="evenodd" d="M19.9654 15.4512H19.7354V15.5812L19.9654 15.4512Z" fill="#FEFEFE"/>
<path fill-rule="evenodd" clip-rule="evenodd" d="M19.9648 15.4512L19.7748 15.6112L19.7148 15.5012L19.9648 15.4512Z" fill="#FEFEFE"/>
<path fill-rule="evenodd" clip-rule="evenodd" d="M19.5146 15.4512L19.7146 15.6112L19.7746 15.5012L19.5146 15.4512Z" fill="#FEFEFE"/>
<path fill-rule="evenodd" clip-rule="evenodd" d="M19.5146 15.4512H19.7546V15.5812L19.5146 15.4512Z" fill="#FEFEFE"/>
<path fill-rule="evenodd" clip-rule="evenodd" d="M19.8853 15.752L19.8153 15.502L19.6953 15.532L19.8853 15.752Z" fill="#FEFEFE"/>
<path fill-rule="evenodd" clip-rule="evenodd" d="M19.8853 15.7524L19.6953 15.5924L19.7653 15.4824L19.8853 15.7524Z" fill="#FEFEFE"/>
<path fill-rule="evenodd" clip-rule="evenodd" d="M19.6055 15.7524L19.7955 15.5924L19.7255 15.4824L19.6055 15.7524Z" fill="#FEFEFE"/>
<path fill-rule="evenodd" clip-rule="evenodd" d="M19.6055 15.7523L19.6755 15.5023L19.7955 15.5323L19.6055 15.7523ZM20.3855 14.0723L20.3255 14.2823L20.4255 14.3123L20.3855 14.0723Z" fill="#FEFEFE"/>
<path fill-rule="evenodd" clip-rule="evenodd" d="M20.3855 14.0723L20.4555 14.2823L20.3555 14.3123L20.3855 14.0723Z" fill="#FEFEFE"/>
<path fill-rule="evenodd" clip-rule="evenodd" d="M20.575 14.2227H20.375V14.3327L20.575 14.2227Z" fill="#FEFEFE"/>
<path fill-rule="evenodd" clip-rule="evenodd" d="M20.5755 14.2227L20.4155 14.3527L20.3555 14.2627L20.5755 14.2227Z" fill="#FEFEFE"/>
<path fill-rule="evenodd" clip-rule="evenodd" d="M20.2051 14.2227L20.3551 14.3527L20.4151 14.2627L20.2051 14.2227Z" fill="#FEFEFE"/>
<path fill-rule="evenodd" clip-rule="evenodd" d="M20.2051 14.2227H20.3951V14.3327L20.2051 14.2227Z" fill="#FEFEFE"/>
<path fill-rule="evenodd" clip-rule="evenodd" d="M20.5047 14.4717L20.4447 14.2617L20.3447 14.3017L20.5047 14.4717Z" fill="#FEFEFE"/>
<path fill-rule="evenodd" clip-rule="evenodd" d="M20.5047 14.472L20.3447 14.342L20.4047 14.252L20.5047 14.472Z" fill="#FEFEFE"/>
<path fill-rule="evenodd" clip-rule="evenodd" d="M20.2646 14.472L20.4346 14.342L20.3746 14.252L20.2646 14.472Z" fill="#FEFEFE"/>
<path fill-rule="evenodd" clip-rule="evenodd" d="M20.2655 14.4717L20.3355 14.2617L20.4255 14.3017L20.2655 14.4717ZM19.7455 13.5117L19.6855 13.7217L19.7755 13.7517L19.7455 13.5117Z" fill="#FEFEFE"/>
<path fill-rule="evenodd" clip-rule="evenodd" d="M19.7448 13.5117L19.8048 13.7217L19.7148 13.7517L19.7448 13.5117Z" fill="#FEFEFE"/>
<path fill-rule="evenodd" clip-rule="evenodd" d="M19.9354 13.6621H19.7354V13.7721L19.9354 13.6621Z" fill="#FEFEFE"/>
<path fill-rule="evenodd" clip-rule="evenodd" d="M19.9348 13.6621L19.7748 13.7921L19.7148 13.7021L19.9348 13.6621Z" fill="#FEFEFE"/>
<path fill-rule="evenodd" clip-rule="evenodd" d="M19.5547 13.6621L19.7247 13.7921L19.7747 13.7021L19.5547 13.6621Z" fill="#FEFEFE"/>
<path fill-rule="evenodd" clip-rule="evenodd" d="M19.5547 13.6621H19.7547V13.7721L19.5547 13.6621Z" fill="#FEFEFE"/>
<path fill-rule="evenodd" clip-rule="evenodd" d="M19.8651 13.9112L19.8051 13.7012L19.7051 13.7312L19.8651 13.9112Z" fill="#FEFEFE"/>
<path fill-rule="evenodd" clip-rule="evenodd" d="M19.8651 13.9114L19.7051 13.7814L19.7651 13.6914L19.8651 13.9114Z" fill="#FEFEFE"/>
<path fill-rule="evenodd" clip-rule="evenodd" d="M19.6348 13.9114L19.7848 13.7814L19.7348 13.6914L19.6348 13.9114Z" fill="#FEFEFE"/>
<path fill-rule="evenodd" clip-rule="evenodd" d="M19.6348 13.9112L19.6848 13.7012L19.7848 13.7312L19.6348 13.9112ZM19.1848 14.1112L19.1348 14.2812L19.2148 14.3112L19.1848 14.1112Z" fill="#FEFEFE"/>
<path fill-rule="evenodd" clip-rule="evenodd" d="M19.185 14.1113L19.235 14.2813L19.165 14.3113L19.185 14.1113Z" fill="#FEFEFE"/>
<path fill-rule="evenodd" clip-rule="evenodd" d="M19.3355 14.2422H19.1855V14.3222L19.3355 14.2422Z" fill="#FEFEFE"/>
<path fill-rule="evenodd" clip-rule="evenodd" d="M19.335 14.2422L19.205 14.3422L19.165 14.2722L19.335 14.2422Z" fill="#FEFEFE"/>
<path fill-rule="evenodd" clip-rule="evenodd" d="M19.0352 14.2422L19.1652 14.3422L19.2052 14.2722L19.0352 14.2422Z" fill="#FEFEFE"/>
<path fill-rule="evenodd" clip-rule="evenodd" d="M19.0352 14.2422H19.1952V14.3222L19.0352 14.2422Z" fill="#FEFEFE"/>
<path fill-rule="evenodd" clip-rule="evenodd" d="M19.2853 14.4415L19.2353 14.2715L19.1553 14.2915L19.2853 14.4415Z" fill="#FEFEFE"/>
<path fill-rule="evenodd" clip-rule="evenodd" d="M19.2853 14.4417L19.1553 14.3317L19.2053 14.2617L19.2853 14.4417Z" fill="#FEFEFE"/>
<path fill-rule="evenodd" clip-rule="evenodd" d="M19.0947 14.4417L19.2247 14.3317L19.1747 14.2617L19.0947 14.4417Z" fill="#FEFEFE"/>
<path fill-rule="evenodd" clip-rule="evenodd" d="M19.0947 14.4415L19.1447 14.2715L19.2147 14.2915L19.0947 14.4415ZM19.4647 14.6015L19.4347 14.7215L19.4847 14.7415L19.4647 14.6015Z" fill="#FEFEFE"/>
<path fill-rule="evenodd" clip-rule="evenodd" d="M19.4653 14.6016L19.5053 14.7216L19.4453 14.7416L19.4653 14.6016Z" fill="#FEFEFE"/>
<path fill-rule="evenodd" clip-rule="evenodd" d="M19.5748 14.6914H19.4648V14.7514L19.5748 14.6914Z" fill="#FEFEFE"/>
<path fill-rule="evenodd" clip-rule="evenodd" d="M19.5751 14.6914L19.4851 14.7614L19.4551 14.7114L19.5751 14.6914Z" fill="#FEFEFE"/>
<path fill-rule="evenodd" clip-rule="evenodd" d="M19.3555 14.6914L19.4555 14.7614L19.4855 14.7114L19.3555 14.6914Z" fill="#FEFEFE"/>
<path fill-rule="evenodd" clip-rule="evenodd" d="M19.3555 14.6914H19.4755V14.7514L19.3555 14.6914Z" fill="#FEFEFE"/>
<path fill-rule="evenodd" clip-rule="evenodd" d="M19.5353 14.8309L19.4953 14.7109L19.4453 14.7309L19.5353 14.8309Z" fill="#FEFEFE"/>
<path fill-rule="evenodd" clip-rule="evenodd" d="M19.5353 14.8312L19.4453 14.7512L19.4753 14.7012L19.5353 14.8312Z" fill="#FEFEFE"/>
<path fill-rule="evenodd" clip-rule="evenodd" d="M19.3955 14.8312L19.4955 14.7512L19.4555 14.7012L19.3955 14.8312Z" fill="#FEFEFE"/>
<path fill-rule="evenodd" clip-rule="evenodd" d="M19.3955 14.8309L19.4355 14.7109L19.4955 14.7309L19.3955 14.8309ZM21.4055 16.7109L21.3455 16.9209L21.4355 16.9609L21.4055 16.7109Z" fill="#FEFEFE"/>
<path fill-rule="evenodd" clip-rule="evenodd" d="M21.405 16.7109L21.465 16.9209L21.375 16.9609L21.405 16.7109Z" fill="#FEFEFE"/>
<path fill-rule="evenodd" clip-rule="evenodd" d="M21.5955 16.8613H21.3955V16.9813L21.5955 16.8613Z" fill="#FEFEFE"/>
<path fill-rule="evenodd" clip-rule="evenodd" d="M21.595 16.8613L21.435 16.9913L21.375 16.9013L21.595 16.8613Z" fill="#FEFEFE"/>
<path fill-rule="evenodd" clip-rule="evenodd" d="M21.2148 16.8613L21.3748 16.9913L21.4348 16.9013L21.2148 16.8613Z" fill="#FEFEFE"/>
<path fill-rule="evenodd" clip-rule="evenodd" d="M21.2148 16.8613H21.4148V16.9813L21.2148 16.8613Z" fill="#FEFEFE"/>
<path fill-rule="evenodd" clip-rule="evenodd" d="M21.5252 17.1123L21.4552 16.9023L21.3652 16.9323L21.5252 17.1123Z" fill="#FEFEFE"/>
<path fill-rule="evenodd" clip-rule="evenodd" d="M21.5252 17.1126L21.3652 16.9826L21.4152 16.8926L21.5252 17.1126Z" fill="#FEFEFE"/>
<path fill-rule="evenodd" clip-rule="evenodd" d="M21.2852 17.1126L21.4452 16.9826L21.3952 16.8926L21.2852 17.1126Z" fill="#FEFEFE"/>
<path fill-rule="evenodd" clip-rule="evenodd" d="M21.2852 17.1112L21.3452 16.9012L21.4452 16.9312L21.2852 17.1112ZM21.8752 16.2012L21.8352 16.3712L21.9052 16.4012L21.8752 16.2012Z" fill="#FEFEFE"/>
<path fill-rule="evenodd" clip-rule="evenodd" d="M21.8747 16.2012L21.9247 16.3712L21.8447 16.4012L21.8747 16.2012Z" fill="#FEFEFE"/>
<path fill-rule="evenodd" clip-rule="evenodd" d="M22.025 16.332H21.875V16.412L22.025 16.332Z" fill="#FEFEFE"/>
<path fill-rule="evenodd" clip-rule="evenodd" d="M22.0255 16.332L21.9055 16.432L21.8555 16.362L22.0255 16.332Z" fill="#FEFEFE"/>
<path fill-rule="evenodd" clip-rule="evenodd" d="M21.7256 16.332L21.8556 16.432L21.9056 16.362L21.7256 16.332Z" fill="#FEFEFE"/>
<path fill-rule="evenodd" clip-rule="evenodd" d="M21.7256 16.332H21.8856V16.412L21.7256 16.332Z" fill="#FEFEFE"/>
<path fill-rule="evenodd" clip-rule="evenodd" d="M21.9747 16.5216L21.9247 16.3516L21.8447 16.3816L21.9747 16.5216Z" fill="#FEFEFE"/>
<path fill-rule="evenodd" clip-rule="evenodd" d="M21.9747 16.5216L21.8447 16.4216L21.8947 16.3516L21.9747 16.5216Z" fill="#FEFEFE"/>
<path fill-rule="evenodd" clip-rule="evenodd" d="M21.7852 16.5216L21.9152 16.4216L21.8652 16.3516L21.7852 16.5216Z" fill="#FEFEFE"/>
<path fill-rule="evenodd" clip-rule="evenodd" d="M21.785 16.5208L21.835 16.3508L21.915 16.3808L21.785 16.5208ZM20.965 16.0508L20.915 16.2208L20.995 16.2508L20.965 16.0508Z" fill="#FEFEFE"/>
<path fill-rule="evenodd" clip-rule="evenodd" d="M20.9653 16.0508L21.0153 16.2208L20.9453 16.2508L20.9653 16.0508Z" fill="#FEFEFE"/>
<path fill-rule="evenodd" clip-rule="evenodd" d="M21.1151 16.1719H20.9551V16.2619L21.1151 16.1719Z" fill="#FEFEFE"/>
<path fill-rule="evenodd" clip-rule="evenodd" d="M21.1153 16.1719L20.9853 16.2819L20.9453 16.2019L21.1153 16.1719Z" fill="#FEFEFE"/>
<path fill-rule="evenodd" clip-rule="evenodd" d="M20.8154 16.1719L20.9454 16.2819L20.9854 16.2019L20.8154 16.1719Z" fill="#FEFEFE"/>
<path fill-rule="evenodd" clip-rule="evenodd" d="M20.8154 16.1719H20.9754V16.2619L20.8154 16.1719Z" fill="#FEFEFE"/>
<path fill-rule="evenodd" clip-rule="evenodd" d="M21.0655 16.3712L21.0155 16.2012L20.9355 16.2312L21.0655 16.3712Z" fill="#FEFEFE"/>
<path fill-rule="evenodd" clip-rule="evenodd" d="M21.0655 16.3712L20.9355 16.2712L20.9755 16.2012L21.0655 16.3712Z" fill="#FEFEFE"/>
<path fill-rule="evenodd" clip-rule="evenodd" d="M20.875 16.3712L21.005 16.2712L20.955 16.2012L20.875 16.3712Z" fill="#FEFEFE"/>
<path fill-rule="evenodd" clip-rule="evenodd" d="M20.8753 16.3715L20.9253 16.2015L21.0053 16.2315L20.8753 16.3715ZM17.5253 15.7715L17.4453 16.0315L17.5553 16.0715L17.5253 15.7715Z" fill="#FEFEFE"/>
<path fill-rule="evenodd" clip-rule="evenodd" d="M17.5254 15.7715L17.5954 16.0315L17.4854 16.0715L17.5254 15.7715Z" fill="#FEFEFE"/>
<path fill-rule="evenodd" clip-rule="evenodd" d="M17.7546 15.9609H17.5146V16.0909L17.7546 15.9609Z" fill="#FEFEFE"/>
<path fill-rule="evenodd" clip-rule="evenodd" d="M17.7554 15.9609L17.5554 16.1209L17.4854 16.0109L17.7554 15.9609Z" fill="#FEFEFE"/>
<path fill-rule="evenodd" clip-rule="evenodd" d="M17.2949 15.9609L17.4949 16.1209L17.5549 16.0109L17.2949 15.9609Z" fill="#FEFEFE"/>
<path fill-rule="evenodd" clip-rule="evenodd" d="M17.2949 15.9609H17.5349V16.0909L17.2949 15.9609Z" fill="#FEFEFE"/>
<path fill-rule="evenodd" clip-rule="evenodd" d="M17.6556 16.262L17.5856 16.002L17.4756 16.042L17.6556 16.262Z" fill="#FEFEFE"/>
<path fill-rule="evenodd" clip-rule="evenodd" d="M17.6548 16.2622L17.4648 16.1022L17.5348 15.9922L17.6548 16.2622Z" fill="#FEFEFE"/>
<path fill-rule="evenodd" clip-rule="evenodd" d="M17.3848 16.2622L17.5748 16.1022L17.5048 15.9922L17.3848 16.2622Z" fill="#FEFEFE"/>
<path fill-rule="evenodd" clip-rule="evenodd" d="M17.3848 16.262L17.4548 16.002L17.5648 16.042L17.3848 16.262ZM19.7448 17.522L19.7248 17.612L19.7548 17.622L19.7448 17.522Z" fill="#FEFEFE"/>
<path fill-rule="evenodd" clip-rule="evenodd" d="M19.7454 17.5215L19.7654 17.6115L19.7354 17.6215L19.7454 17.5215Z" fill="#FEFEFE"/>
<path fill-rule="evenodd" clip-rule="evenodd" d="M19.8251 17.582H19.7451V17.632L19.8251 17.582Z" fill="#FEFEFE"/>
<path fill-rule="evenodd" clip-rule="evenodd" d="M19.8254 17.582L19.7554 17.642L19.7354 17.602L19.8254 17.582Z" fill="#FEFEFE"/>
<path fill-rule="evenodd" clip-rule="evenodd" d="M19.6748 17.582L19.7348 17.642L19.7548 17.602L19.6748 17.582Z" fill="#FEFEFE"/>
<path fill-rule="evenodd" clip-rule="evenodd" d="M19.6748 17.582H19.7448V17.632L19.6748 17.582Z" fill="#FEFEFE"/>
<path fill-rule="evenodd" clip-rule="evenodd" d="M19.7854 17.6816L19.7654 17.6016L19.7354 17.6116L19.7854 17.6816Z" fill="#FEFEFE"/>
<path fill-rule="evenodd" clip-rule="evenodd" d="M19.7856 17.6816L19.7256 17.6316L19.7456 17.6016L19.7856 17.6816Z" fill="#FEFEFE"/>
<path fill-rule="evenodd" clip-rule="evenodd" d="M19.6953 17.6816L19.7653 17.6316L19.7453 17.6016L19.6953 17.6816Z" fill="#FEFEFE"/>
<path fill-rule="evenodd" clip-rule="evenodd" d="M19.6953 17.6816L19.7253 17.6016L19.7653 17.6116L19.6953 17.6816Z" fill="#FEFEFE"/>
</g>
</g>
<defs>
<clipPath id="clip0_26003_53791">
<rect width="38" height="25" fill="white" transform="translate(0.745117 0.210938)"/>
</clipPath>
<clipPath id="clip1_26003_53791">
<rect width="38" height="25" fill="white" transform="translate(0.745117 0.210938)"/>
</clipPath>
</defs>
</svg>
