<svg width="38" height="26" viewBox="0 0 38 26" fill="none" xmlns="http://www.w3.org/2000/svg">
<g clip-path="url(#clip0_26003_72396)">
<g clip-path="url(#clip1_26003_72396)">
<path d="M35.2 0.5H2.8C1.3 0.5 0 1.8 0 3.4V13H38V3.4C38 1.8 36.7 0.5 35.2 0.5Z" fill="#F5F5F5"/>
<path d="M0 22.6004C0 24.2004 1.3 25.5004 2.8 25.5004H35.1C36.7 25.5004 37.9 24.2004 37.9 22.6004V13.0004H0V22.6004ZM13.1 4.40039C8.4 4.40039 4.6 8.20039 4.6 13.0004H21.6C21.6 8.30039 17.8 4.40039 13.1 4.40039Z" fill="#F22539"/>
<path d="M13.0996 21.6C17.7996 21.6 21.5996 17.8 21.5996 13H4.59961C4.59961 17.7 8.39961 21.6 13.0996 21.6Z" fill="#F5F5F5"/>
</g>
</g>
<defs>
<clipPath id="clip0_26003_72396">
<rect width="38" height="25" fill="white" transform="translate(0 0.5)"/>
</clipPath>
<clipPath id="clip1_26003_72396">
<rect width="38" height="25" fill="white" transform="translate(0 0.5)"/>
</clipPath>
</defs>
</svg>
