<svg width="38" height="26" viewBox="0 0 38 26" fill="none" xmlns="http://www.w3.org/2000/svg">
<g clip-path="url(#clip0_26003_90519)">
<g clip-path="url(#clip1_26003_90519)">
<path fill-rule="evenodd" clip-rule="evenodd" d="M2.5 25.5H12.7V0.5H2.5C1.2 0.7 0.2 1.9 0 3.4V22.6C0.2 24.1 1.2 25.3 2.5 25.5ZM35.5 0.5C36.8 0.7 37.8 1.9 38 3.4V22.6C37.8 24.1 36.8 25.3 35.5 25.5H25.3V0.5H35.5Z" fill="#CC2731"/>
<path fill-rule="evenodd" clip-rule="evenodd" d="M12.7002 0.5H25.4002V25.5H12.7002V0.5Z" fill="#6BADD0"/>
<path fill-rule="evenodd" clip-rule="evenodd" d="M6.29961 7.59961C7.29961 7.59961 7.99961 8.49961 7.99961 9.59961C7.99961 10.6996 7.19961 11.5996 6.29961 11.5996C5.29961 11.5996 4.59961 10.6996 4.59961 9.59961C4.59961 8.49961 5.39961 7.59961 6.29961 7.59961Z" fill="#F5EC0C"/>
<path fill-rule="evenodd" clip-rule="evenodd" d="M6.30039 6.59961C7.30039 6.59961 8.20039 7.59961 8.20039 8.69961C8.20039 9.89961 7.30039 10.7996 6.30039 10.7996C5.30039 10.7996 4.40039 9.79961 4.40039 8.69961C4.40039 7.49961 5.30039 6.59961 6.30039 6.59961Z" fill="#CC2731"/>
<path fill-rule="evenodd" clip-rule="evenodd" d="M6.30039 7.6C7.00039 7.6 7.60039 8.2 7.60039 9C7.60039 9.9 7.00039 10.5 6.30039 10.5C5.60039 10.5 5.00039 9.9 5.00039 9.1C5.10039 8.3 5.60039 7.6 6.30039 7.6ZM6.30039 4.5C6.10039 4.6 6.20039 5 6.20039 5.1C6.20039 5.3 6.10039 5.3 6.10039 5.5V6C6.10039 6.1 6.20039 6.1 6.20039 6.2C6.20039 6.3 6.10039 6.4 6.00039 6.4C5.90039 6.4 5.80039 6.3 5.80039 6.2C5.90039 6.1 6.00039 6 6.00039 5.9C6.00039 5.7 5.90039 5.7 5.90039 5.6V5.4C5.80039 5.4 5.70039 5.5 5.70039 5.6V5.9C5.70039 6 5.50039 6.1 5.50039 6.4C5.50039 6.9 5.90039 7.3 6.30039 7.3C6.70039 7.3 7.10039 6.9 7.10039 6.4C7.10039 6.1 6.90039 6 6.90039 5.9V5.6C7.00039 5.5 6.90039 5.4 6.80039 5.3V5.5C6.80039 5.5 6.70039 5.6 6.70039 5.8C6.70039 5.9 6.80039 6 6.80039 6.1C6.80039 6.2 6.70039 6.3 6.60039 6.3C6.50039 6.3 6.50039 6.3 6.50039 6.2V6.1C6.50039 6 6.50039 6 6.60039 5.9C6.60039 5.8 6.70039 5.7 6.70039 5.5C6.70039 5.4 6.70039 5.1 6.50039 4.9C6.40039 4.8 6.30039 4.8 6.30039 4.6V4.5ZM2.90039 11.9H4.50039V20.5H2.90039V11.9ZM8.20039 11.9H9.80039V20.5H8.20039V11.9ZM4.70039 11.9H7.90039L6.30039 13L4.70039 11.9ZM4.70039 13.4H7.90039V14.1H4.70039V13.4ZM4.70039 18.4H7.90039V19.1H4.70039V18.4ZM4.70039 19.4H7.90039L6.30039 20.5L4.70039 19.4ZM6.30039 14.4C7.20039 14.4 7.90039 15.2 7.90039 16.2C7.90039 17.2 7.20039 18 6.30039 18C5.40039 18 4.70039 17.2 4.70039 16.2C4.70039 15.2 5.50039 14.4 6.30039 14.4Z" fill="#F5EC0C"/>
</g>
</g>
<defs>
<clipPath id="clip0_26003_90519">
<rect width="38" height="25" fill="white" transform="translate(0 0.5)"/>
</clipPath>
<clipPath id="clip1_26003_90519">
<rect width="38" height="25" fill="white" transform="translate(0 0.5)"/>
</clipPath>
</defs>
</svg>
