<svg width="38" height="26" viewBox="0 0 38 26" fill="none" xmlns="http://www.w3.org/2000/svg">
<g clip-path="url(#clip0_26003_74053)">
<g clip-path="url(#clip1_26003_74053)">
<path d="M38 22C38 24 36.3 25.5 34.3 25.5H3.7C1.7 25.5 0 24.1 0 22V4C0 1.9 1.7 0.5 3.7 0.5H34.3C36.3 0.5 38 1.9 38 4V22Z" fill="#FFD72E"/>
<path d="M38 22.0004C38 24.0004 36.3 25.5004 34.3 25.5004H3.7C1.7 25.5004 0 24.0004 0 21.9004" fill="#FFD72E"/>
<path d="M3.7002 0.5H34.3002C36.3002 0.5 38.0002 1.9 38.0002 4V22.1C38.0002 24.1 36.3002 25.6 34.3002 25.6" fill="#0EA564"/>
<path d="M34.3002 25.5C36.3002 25.5 38.0002 24.3 38.0002 21.9H30.0002L34.3002 25.5ZM3.7002 0.5H34.3002C36.3002 0.5 38.0002 1.9 38.0002 4V10.7" fill="#0EA564"/>
<path d="M19.0002 8.40039L20.2002 11.8004H23.8002L20.8002 14.0004L21.9002 17.4004L19.0002 15.3004L16.1002 17.4004L17.2002 14.0004L14.2002 11.8004H17.8002L19.0002 8.40039Z" fill="#D32027"/>
<path d="M20.2002 11.8004L19.0002 8.40039L17.8002 11.8004H17.7002L21.1002 14.6004L20.8002 14.0004L23.8002 11.8004H20.2002Z" fill="#D32027"/>
</g>
</g>
<defs>
<clipPath id="clip0_26003_74053">
<rect width="38" height="25" fill="white" transform="translate(0 0.5)"/>
</clipPath>
<clipPath id="clip1_26003_74053">
<rect width="38" height="25" fill="white" transform="translate(0 0.5)"/>
</clipPath>
</defs>
</svg>
