<svg width="38" height="26" viewBox="0 0 38 26" fill="none" xmlns="http://www.w3.org/2000/svg">
<g clip-path="url(#clip0_26003_82709)">
<g clip-path="url(#clip1_26003_82709)">
<path d="M35.15 25.5392H2.85002C2.47491 25.5392 2.10349 25.4652 1.75706 25.3213C1.41062 25.1775 1.096 24.9666 0.831219 24.7009C0.566441 24.4352 0.356721 24.1199 0.214084 23.7729C0.0714475 23.426 -0.00129863 23.0543 1.75455e-05 22.6792V3.31922C-0.00129797 2.94364 0.0713762 2.57148 0.213891 2.22398C0.356405 1.87649 0.565969 1.56046 0.830616 1.29396C1.09526 1.02745 1.40981 0.815686 1.7563 0.670745C2.10279 0.525805 2.47444 0.45053 2.85002 0.449219H35.16C35.5356 0.45053 35.9072 0.525805 36.2537 0.670745C36.6002 0.815686 36.9148 1.02745 37.1794 1.29396C37.4441 1.56046 37.6536 1.87649 37.7961 2.22398C37.9387 2.57148 38.0113 2.94364 38.01 3.31922V22.6692C38.01 23.4287 37.709 24.1571 37.173 24.6951C36.6369 25.233 35.9095 25.5366 35.15 25.5392Z" fill="#263196"/>
<path d="M0.66 13.0009H1.8L7.87 8.99094V13.0009H11.15V8.99094L17.22 13.0009H18.36C18.72 13.0009 19.02 12.7009 19.02 12.3409V11.8209L13.81 8.38094H19V5.08094H13.79L19 1.64094V1.12094C19 0.947614 18.9319 0.781238 18.8102 0.657747C18.6886 0.534257 18.5233 0.463564 18.35 0.460938H17.21L11.14 4.47094V0.460938H7.86V4.47094L1.99 0.590937C1.31 0.800937 0.73 1.27094 0.38 1.89094L5.21 5.08094H0V8.38094H5.21L0 11.8209V12.3409C0 12.7009 0.29 13.0009 0.66 13.0009Z" fill="#F5F5F5"/>
<path d="M19 5.74094H10.48V0.460938H8.52V5.74094H0V7.72094H8.52V13.0009H10.48V7.72094H19V5.74094Z" fill="#FF2C41"/>
<path d="M0.609844 1.55094L5.99984 5.08094H7.19984L1.07984 1.07094C0.909844 1.21094 0.749844 1.37094 0.609844 1.55094ZM12.3398 5.08094L18.8998 0.790937C18.8429 0.692285 18.7614 0.610047 18.6633 0.55222C18.5652 0.494392 18.4537 0.462946 18.3398 0.460938H18.1998L11.1298 5.08094H12.3398ZM6.63984 8.38094L0.0898438 12.6609C0.199844 12.8609 0.409844 13.0009 0.649844 13.0009H0.769844L7.83984 8.38094H6.63984ZM18.9898 12.3909L12.8498 8.38094H11.6498L18.6198 12.9409C18.8298 12.8409 18.9698 12.6309 18.9898 12.3909Z" fill="#FF2C41"/>
<path d="M25.5404 9.25977C25.5033 9.25977 25.4677 9.27452 25.4414 9.30077C25.4151 9.32703 25.4004 9.36263 25.4004 9.39977V11.8498C25.4004 16.7498 28.8304 17.6198 28.8304 17.6198C28.8304 17.6198 32.2604 16.7498 32.2604 11.8498V9.39977C32.2604 9.36263 32.2456 9.32703 32.2194 9.30077C32.1931 9.27452 32.1575 9.25977 32.1204 9.25977H25.5404Z" fill="#FFD527"/>
<path d="M31.9004 9.61977V11.8498C31.9004 16.0198 29.3404 17.0698 28.8204 17.2398C28.3004 17.0698 25.7404 16.0198 25.7404 11.8498V9.61977H31.9004ZM32.1204 9.25977H25.5404C25.522 9.25977 25.5038 9.26339 25.4868 9.27042C25.4698 9.27746 25.4544 9.28777 25.4414 9.30077C25.4284 9.31377 25.4181 9.3292 25.411 9.34619C25.404 9.36318 25.4004 9.38138 25.4004 9.39977V11.8498C25.4004 16.7498 28.8304 17.6198 28.8304 17.6198C28.8304 17.6198 32.2604 16.7498 32.2604 11.8498V9.39977C32.2604 9.36263 32.2456 9.32703 32.2194 9.30077C32.1931 9.27452 32.1575 9.25977 32.1204 9.25977Z" fill="#F5F5F5"/>
<path d="M29.21 13.8301H28.48C28.48 13.8301 27.89 14.4201 27.75 15.7301C27.75 15.7701 27.76 15.8101 27.8 15.8401C27.92 15.9401 28.27 16.1601 28.85 16.1601C29.43 16.1601 29.77 15.9301 29.9 15.8401C29.9304 15.8114 29.9484 15.7719 29.95 15.7301C29.9087 15.0348 29.6499 14.3701 29.21 13.8301Z" fill="#73AF00"/>
<path d="M29.2104 13.7007H28.4804V13.0907C28.4804 12.8907 28.6404 12.7207 28.8504 12.7207C29.0504 12.7207 29.2204 12.8907 29.2204 13.0907L29.2104 13.7007ZM29.2104 13.9507H28.4804C28.4485 13.9507 28.418 13.9381 28.3955 13.9156C28.373 13.8931 28.3604 13.8625 28.3604 13.8307C28.3604 13.7607 28.4104 13.7107 28.4804 13.7107H29.2104C29.2804 13.7107 29.3304 13.7707 29.3304 13.8307C29.3304 13.8907 29.2804 13.9507 29.2104 13.9507Z" fill="#FF4B55"/>
<path d="M31.6499 11.23C31.6299 11.23 31.3099 11.23 30.9799 11.29V11.1C31.2599 10.97 31.5299 10.91 31.5399 10.9C31.5541 10.8943 31.5663 10.8847 31.5751 10.8723C31.584 10.8599 31.5891 10.8452 31.5899 10.83C31.5842 10.8159 31.5746 10.8036 31.5622 10.7948C31.5498 10.7859 31.5351 10.7808 31.5199 10.78C31.4999 10.78 31.2599 10.84 30.9899 10.96C30.9866 10.8879 30.9623 10.8184 30.9199 10.76C31.1399 10.59 31.3199 10.48 31.3299 10.48C31.3599 10.46 31.3699 10.43 31.3499 10.4C31.3299 10.37 31.2999 10.36 31.2699 10.38C31.2599 10.39 31.0599 10.5 30.8299 10.68C30.7706 10.6407 30.7011 10.6198 30.6299 10.62C30.5545 10.622 30.4814 10.6463 30.4199 10.69C30.4799 10.37 30.6099 10.24 30.6099 10.23C30.6299 10.21 30.6299 10.17 30.6099 10.14C30.5899 10.12 30.5499 10.12 30.5199 10.14C30.5099 10.15 30.3899 10.27 30.3199 10.55C30.2399 10.27 30.1299 10.15 30.1199 10.14C30.0999 10.12 30.0599 10.12 30.0299 10.14C29.9999 10.17 29.9999 10.2 30.0199 10.23C30.0199 10.23 30.1499 10.37 30.2099 10.69C30.1484 10.6463 30.0753 10.622 29.9999 10.62C29.9284 10.6171 29.858 10.6382 29.7999 10.68C29.6607 10.5694 29.5137 10.4692 29.3599 10.38C29.3299 10.36 29.2899 10.37 29.2799 10.4C29.2599 10.43 29.2699 10.47 29.2999 10.48C29.2999 10.48 29.4899 10.59 29.7099 10.76C29.6665 10.8178 29.642 10.8877 29.6399 10.96C29.4699 10.8819 29.2923 10.8216 29.1099 10.78C29.0799 10.77 29.0399 10.79 29.0399 10.83C29.0299 10.86 29.0499 10.9 29.0899 10.9C29.0899 10.9 29.3699 10.97 29.6499 11.1V11.29C29.3199 11.23 28.9999 11.23 28.9799 11.23C28.964 11.23 28.9487 11.2363 28.9375 11.2476C28.9262 11.2588 28.9199 11.2741 28.9199 11.29C28.9199 11.32 28.9499 11.35 28.9799 11.35C28.9899 11.35 29.3199 11.35 29.6499 11.41V11.61C29.4699 11.6 29.2599 11.63 29.0699 11.73C29.0399 11.75 29.0299 11.78 29.0399 11.81C29.0499 11.83 29.0699 11.84 29.0899 11.84L29.1199 11.83C29.2899 11.75 29.4699 11.72 29.6399 11.73V12.5C29.6399 12.59 29.6299 12.69 29.6099 12.78L29.5199 13.25C29.5099 13.28 29.5299 13.32 29.5699 13.32H29.5799C29.6099 13.32 29.6299 13.3 29.6399 13.27L29.7299 12.8L29.7599 12.5V11.75L29.9999 11.79L30.0499 12.4C30.0599 12.48 30.0899 12.54 30.1499 12.59L29.9499 12.89C29.8399 13.05 29.9599 13.26 30.1499 13.26H30.4799C30.6699 13.26 30.7899 13.05 30.6799 12.89L30.4799 12.59C30.5399 12.55 30.5699 12.48 30.5799 12.4L30.6299 11.79L30.8699 11.75V12.5L30.8999 12.8L30.9899 13.27C30.9999 13.3 31.0199 13.32 31.0499 13.32H31.0599C31.0741 13.3143 31.0863 13.3047 31.0951 13.2923C31.104 13.2799 31.1091 13.2652 31.1099 13.25L31.0199 12.78C30.9996 12.6881 30.9895 12.5942 30.9899 12.5V11.74C31.1599 11.73 31.3399 11.76 31.5099 11.84L31.5399 11.85C31.5599 11.85 31.5799 11.84 31.5899 11.82C31.6099 11.79 31.5899 11.75 31.5599 11.74C31.3699 11.64 31.1699 11.62 30.9799 11.62V11.42C31.3099 11.36 31.6499 11.36 31.6499 11.36C31.6799 11.36 31.7099 11.33 31.7099 11.3C31.7099 11.26 31.6899 11.23 31.6499 11.23ZM30.8599 11.31L30.6499 11.37L30.6399 11.3L30.8599 11.16V11.31ZM30.8599 10.98V11.01C30.7599 11.06 30.6699 11.11 30.5799 11.18L30.5199 11.11C30.6099 11.01 30.7099 10.91 30.8099 10.83C30.8399 10.88 30.8599 10.93 30.8599 10.98ZM30.6099 10.74C30.6442 10.7409 30.678 10.7477 30.7099 10.76C30.5999 10.85 30.4999 10.95 30.3999 11.06L30.3599 11.05V10.96C30.371 10.9007 30.4016 10.8467 30.447 10.8069C30.4923 10.767 30.5497 10.7434 30.6099 10.74ZM29.9999 10.74C30.1299 10.74 30.2299 10.84 30.2399 10.97V11.06L30.1999 11.07C30.0999 10.96 29.9999 10.86 29.8899 10.77C29.9239 10.752 29.9615 10.7417 29.9999 10.74ZM29.7599 10.98C29.7599 10.93 29.7799 10.88 29.8099 10.84C29.9099 10.92 30.0099 11.02 30.0999 11.12C30.0775 11.1411 30.0574 11.1646 30.0399 11.19L29.7599 11.02V10.98ZM29.7599 11.16L29.9799 11.3L29.9699 11.37L29.7599 11.31V11.16ZM29.7599 11.62V11.44L29.9799 11.5L29.9899 11.66C29.9145 11.6401 29.8376 11.6268 29.7599 11.62ZM30.8599 11.62L30.6299 11.66L30.6399 11.5C30.71 11.4696 30.7841 11.4494 30.8599 11.44V11.62Z" fill="#D35A10"/>
<path d="M27.7999 12.8904H27.5299L26.4799 11.9504C26.425 11.8989 26.3842 11.8341 26.3614 11.7623C26.3386 11.6906 26.3347 11.6141 26.3499 11.5404L26.6399 10.3604C26.6699 10.2604 26.7899 10.2204 26.8699 10.3004L27.3399 10.7804C27.3699 10.8104 27.3999 10.8204 27.4399 10.8204H27.7899L27.7999 12.8904Z" fill="#FFA033"/>
<path d="M27.6001 10.5396L27.4301 11.2996C27.3965 11.4386 27.4035 11.5843 27.4501 11.7196L27.8001 12.8896H28.0701L28.4201 11.7196C28.4614 11.5834 28.4683 11.4391 28.4401 11.2996L28.2701 10.5396C28.2559 10.4628 28.2149 10.3936 28.1545 10.3441C28.0941 10.2947 28.0181 10.2683 27.9401 10.2696C27.7701 10.2696 27.6401 10.3796 27.6001 10.5396Z" fill="#FF9480"/>
<path d="M27.93 10.5391C27.8929 10.5391 27.8573 10.5538 27.831 10.5801C27.8048 10.6063 27.79 10.6419 27.79 10.6791V12.8891H28.06V10.6791C28.07 10.5991 28.01 10.5391 27.93 10.5391Z" fill="#FFA0E4"/>
</g>
</g>
<defs>
<clipPath id="clip0_26003_82709">
<rect width="38" height="25" fill="white" transform="translate(0 0.5)"/>
</clipPath>
<clipPath id="clip1_26003_82709">
<rect width="38" height="25" fill="white" transform="translate(0 0.5)"/>
</clipPath>
</defs>
</svg>
