<svg width="38" height="26" viewBox="0 0 38 26" fill="none" xmlns="http://www.w3.org/2000/svg">
<g clip-path="url(#clip0_26003_92778)">
<g clip-path="url(#clip1_26003_92778)">
<path fill-rule="evenodd" clip-rule="evenodd" d="M0 3.4V19.5L29 0.5H2.5C1.2 0.8 0.2 1.9 0 3.4Z" fill="#38A047"/>
<path fill-rule="evenodd" clip-rule="evenodd" d="M9 25.5H35.5C36.8 25.2 37.8 24.1 38 22.6V6.5L9 25.5Z" fill="#5295D0"/>
<path fill-rule="evenodd" clip-rule="evenodd" d="M29 0.5L0 19.5V21.4L31.9 0.5H29ZM6.1 25.5H9L38 6.5V4.6L6.1 25.5Z" fill="#EDC806"/>
<path fill-rule="evenodd" clip-rule="evenodd" d="M31.9 0.5L0 21.4V22.6C0.2 24.1 1.2 25.3 2.5 25.5H6.2L38 4.6V3.4C37.8 1.9 36.8 0.7 35.5 0.5H31.9Z" fill="#242222"/>
</g>
</g>
<defs>
<clipPath id="clip0_26003_92778">
<rect width="38" height="25" fill="white" transform="translate(0 0.5)"/>
</clipPath>
<clipPath id="clip1_26003_92778">
<rect width="38" height="25" fill="white" transform="translate(0 0.5)"/>
</clipPath>
</defs>
</svg>
