<svg width="38" height="26" viewBox="0 0 38 26" fill="none" xmlns="http://www.w3.org/2000/svg">
<g clip-path="url(#clip0_26003_72261)">
<g clip-path="url(#clip1_26003_72261)">
<path d="M35.15 25.5H2.85002C2.47491 25.5 2.10349 25.426 1.75706 25.2821C1.41062 25.1383 1.096 24.9274 0.831219 24.6617C0.566441 24.396 0.356721 24.0807 0.214084 23.7337C0.0714475 23.3868 -0.00129863 23.0151 1.75455e-05 22.64V3.36C-0.00129863 2.98489 0.0714475 2.61321 0.214084 2.26628C0.356721 1.91935 0.566441 1.60399 0.831219 1.33828C1.096 1.07257 1.41062 0.861747 1.75706 0.717896C2.10349 0.574045 2.47491 0.499998 2.85002 0.5L35.16 0.5C35.5343 0.501311 35.9046 0.576327 36.2499 0.720765C36.5952 0.865204 36.9086 1.07624 37.1723 1.34181C37.4361 1.60739 37.6449 1.92231 37.7869 2.26859C37.9289 2.61487 38.0013 2.98573 38 3.36V22.64C38.0013 23.0151 37.9286 23.3868 37.786 23.7337C37.6433 24.0807 37.4336 24.396 37.1688 24.6617C36.904 24.9274 36.5894 25.1383 36.243 25.2821C35.8965 25.426 35.5251 25.5 35.15 25.5Z" fill="#F42539"/>
<path d="M1.75455e-05 3.36V12.35C1.75455e-05 12.71 0.290018 13.01 0.660018 13.01H18.35C18.71 13.01 19.01 12.72 19.01 12.35V1.16C19.0074 0.985761 18.9371 0.819384 18.8139 0.696165C18.6906 0.572946 18.5243 0.502582 18.35 0.5L2.85002 0.5C2.47491 0.499998 2.10349 0.574045 1.75706 0.717896C1.41062 0.861747 1.096 1.07257 0.831219 1.33828C0.566441 1.60399 0.356721 1.91935 0.214084 2.26628C0.0714475 2.61321 -0.00129863 2.98489 1.75455e-05 3.36Z" fill="#293499"/>
<path d="M11.14 4.49V0.5H7.86V4.49L1.99 0.63C1.3 0.85 0.73 1.32 0.38 1.93L5.21 5.1H0V8.39H5.21L0 11.82V12.34C0 12.7 0.29 13 0.66 13H1.8L7.87 9.01V13H11.15V9.01L17.22 13H18.36C18.72 13 19.02 12.71 19.02 12.34V11.82L13.81 8.39H19V5.11H13.79L19 1.68V1.16C19.0013 1.0738 18.9855 0.988203 18.9534 0.908184C18.9214 0.828164 18.8737 0.755324 18.8132 0.693902C18.7527 0.632481 18.6806 0.583706 18.6011 0.550417C18.5216 0.517128 18.4362 0.49999 18.35 0.5H17.21L11.14 4.49Z" fill="#F5F5F5"/>
<path d="M19 5.76H10.48V0.5H8.52V5.76H0V7.74H8.52V13H10.48V7.74H19V5.76Z" fill="#F22539"/>
<path d="M0.609844 1.59L5.99984 5.11H7.19984L1.07984 1.11C0.909844 1.25 0.749844 1.41 0.609844 1.59ZM12.3398 5.11L18.8998 0.83C18.8445 0.729997 18.7633 0.646648 18.6649 0.588615C18.5664 0.530583 18.4542 0.499984 18.3398 0.5H18.1998L11.1298 5.11H12.3398ZM6.63984 8.39L0.0898438 12.66C0.199844 12.86 0.409844 13 0.649844 13H0.769844L7.83984 8.39H6.63984ZM18.9898 12.39L12.8498 8.39H11.6498L18.6198 12.93C18.8298 12.84 18.9698 12.63 18.9898 12.39Z" fill="#F22539"/>
<path d="M23.8198 6.89062C23.7588 6.89062 23.7003 6.91486 23.6572 6.95799C23.6141 7.00112 23.5898 7.05963 23.5898 7.12063V15.8106C23.5898 16.5106 24.0598 18.8606 28.4998 19.5706C32.9498 18.8706 33.4098 16.5206 33.4098 15.8106V7.13063C33.4098 7.00063 33.3098 6.90063 33.1798 6.90063L23.8198 6.89062Z" fill="#F5F5F5"/>
<path d="M28.4996 19.5791C32.2096 18.9891 33.1496 17.2591 33.3596 16.2891H23.6396C23.8496 17.2591 24.7896 18.9891 28.4996 19.5791Z" fill="#73AF00"/>
<path d="M31.5405 11.8302C31.5405 11.8302 31.7705 11.6002 31.5405 11.1302L28.5005 10.9902L25.4605 11.1302C25.2305 11.6002 25.4605 11.8302 25.4605 11.8302C25.2305 12.0602 25.2305 12.3002 25.2305 12.3002H25.7005L26.2105 13.1402L28.5105 14.4102L30.8105 13.1402L31.3205 12.3002H31.7905C31.7805 12.3002 31.7805 12.0602 31.5405 11.8302Z" fill="#82AFFF"/>
<path d="M30.8002 13.1399C30.8002 13.1399 30.6502 12.8199 30.2602 12.8599C30.2602 12.8599 30.0502 12.5799 29.6802 12.6499C29.6802 12.6499 29.2602 12.4099 29.0202 12.8599C29.0202 12.8599 28.2402 12.7799 28.2002 13.3699C28.2002 13.3699 29.4102 15.1999 29.4402 15.2199C29.4702 15.2399 30.8802 15.2299 30.8802 15.2299L31.5402 14.4999L30.9002 13.5699L30.8002 13.1399Z" fill="#F5F5F5"/>
<path d="M28.5304 13.7096C28.5304 13.7096 27.5104 12.0296 27.3604 11.8896C27.2204 11.7496 26.9404 11.6296 26.6604 11.8596C26.6604 11.8596 25.8104 11.7896 25.9304 12.4396L26.1704 13.4196C26.1704 13.4196 25.9604 14.0996 25.8604 14.1596C25.7604 14.2296 25.4004 14.4096 25.4004 14.4096L25.6004 15.2196L28.3304 15.0796L28.5304 13.7096Z" fill="#F0C850"/>
<path d="M29.7099 12.9805L29.6299 12.8005L29.5999 12.7705H29.5499L29.0399 12.9905L28.4399 12.0005C28.4699 11.9805 28.4799 11.9405 28.4699 11.9005C28.4499 11.8505 28.3999 11.8305 28.3599 11.8505L28.2299 11.9005L28.1399 11.6305C28.1299 11.6005 28.0999 11.5805 28.0699 11.5905C28.0399 11.6005 28.0199 11.6305 28.0299 11.6605L28.1199 11.9305L27.9799 11.9805C27.9299 12.0005 27.9099 12.0505 27.9299 12.0905C27.9399 12.1305 27.9799 12.1505 28.0099 12.1505H28.0299L28.2299 13.3505L28.0999 13.4105C28.0699 13.4205 28.0599 13.4505 28.0699 13.4805L28.1399 13.6805L28.1299 13.8505L27.3099 12.4405C27.3254 12.4294 27.3374 12.4141 27.3445 12.3963C27.3516 12.3786 27.3535 12.3592 27.3499 12.3405C27.3299 12.2905 27.2799 12.2705 27.2399 12.2905L27.1099 12.3405L26.9999 12.0805C26.9899 12.0505 26.9599 12.0305 26.9299 12.0405C26.8999 12.0505 26.8799 12.0805 26.8899 12.1105L26.9799 12.3805L26.8399 12.4305C26.7899 12.4505 26.7699 12.5005 26.7899 12.5405C26.7999 12.5705 26.8299 12.5905 26.8599 12.6005L27.2099 14.8205L27.0699 14.8805C27.0699 14.8805 26.8999 15.6705 27.0299 15.7105L28.4599 16.1505L30.2999 15.2705C30.3399 15.2505 30.4199 14.6805 30.4199 14.6805L29.7099 12.9805ZM29.5999 13.0305L29.4499 13.1005L29.3999 12.9805L29.5499 12.9105L29.5999 13.0305ZM28.6899 13.2805L28.8099 13.2305L28.8599 13.3505L28.7299 13.4105L28.6899 13.2805ZM28.6199 13.4505L28.4699 13.5105L28.4199 13.4005L28.5699 13.3305L28.6199 13.4505ZM28.9599 13.3005L28.9099 13.1805L29.0399 13.1205L29.0899 13.2405L28.9599 13.3005ZM29.1599 13.0805L29.2899 13.0205L29.3399 13.1405L29.2099 13.2005L29.1599 13.0805ZM28.3299 12.0505L28.9399 13.0405L28.6499 13.1705L28.2799 12.0705L28.3299 12.0505ZM28.1199 12.1305L28.1599 12.1105L28.5299 13.2205L28.3099 13.3205L28.1199 12.1305ZM28.3199 13.4505L28.3699 13.5605L28.2299 13.6205L28.1899 13.5105L28.3199 13.4505ZM27.1899 12.5005L28.0799 14.0305C28.0399 14.1605 27.9499 14.3105 27.7999 14.4605L27.1499 12.5205L27.1899 12.5005ZM26.9699 12.5805L27.0399 12.5605L27.7099 14.5405C27.6099 14.6205 27.4799 14.7105 27.3299 14.7805L26.9699 12.5805Z" fill="#965032"/>
<path d="M31.7499 10.7596C31.6899 10.6596 31.4899 10.6996 31.4899 10.6996C31.4899 10.6996 31.4299 10.5896 31.2799 10.5696C31.1299 10.5596 31.0999 10.6896 31.0999 10.6896C31.0999 10.6896 31.0699 10.6696 30.9099 10.6696C30.7399 10.6696 30.7799 10.9496 30.7799 10.9496C30.7799 10.9496 30.7199 10.9496 30.4999 10.8796C30.2899 10.8096 30.1399 10.8596 30.1399 10.8596C30.1299 10.7496 30.0699 10.6596 30.0699 10.6596C29.8899 10.7296 29.7499 10.6496 29.7099 10.5896C29.6799 10.5296 29.7599 10.4296 29.7599 10.3496C29.7599 10.2696 29.6499 10.2696 29.6099 10.1996C29.5699 10.1296 29.6099 10.0896 29.7199 10.0396C29.7841 10.0054 29.8337 9.94903 29.8595 9.88096C29.8853 9.81288 29.8854 9.73777 29.8599 9.66961C29.7899 9.52961 29.5999 9.54961 29.5999 9.54961C29.6699 9.55961 29.7199 9.68961 29.6099 9.70961C29.4999 9.73961 29.4099 9.34961 29.4099 9.34961C29.6499 9.51961 29.8299 9.41961 29.8899 9.26961C29.9399 9.12961 29.8099 9.02961 29.8099 9.02961C29.6999 9.19961 29.5199 9.04961 29.6199 8.93961C29.7199 8.82961 29.7299 8.64961 29.7299 8.64961C29.5099 8.75961 29.3699 8.61961 29.3699 8.61961C29.6599 8.41961 29.5699 8.13961 29.5699 8.13961C29.4599 8.08961 29.2299 8.12961 29.2299 8.12961C29.2799 8.02961 29.2699 7.85961 29.2699 7.85961C29.1499 7.83961 29.0099 7.91961 29.0099 7.91961C29.0499 7.77961 28.9999 7.53961 28.9999 7.53961C28.9099 7.54961 28.7499 7.59961 28.7499 7.59961C28.6799 7.43961 28.4899 7.34961 28.4899 7.34961C28.4899 7.34961 28.2999 7.43961 28.2299 7.59961L27.9799 7.53961C27.9799 7.53961 27.9299 7.77961 27.9699 7.91961C27.9699 7.91961 27.8299 7.83961 27.7099 7.85961C27.7099 7.85961 27.6999 8.03961 27.7499 8.12961C27.7499 8.12961 27.5199 8.08961 27.4099 8.13961C27.4099 8.13961 27.3299 8.41961 27.6099 8.61961C27.6099 8.61961 27.4699 8.75961 27.2499 8.64961C27.2499 8.64961 27.2599 8.82961 27.3599 8.93961C27.4599 9.04961 27.2799 9.19961 27.1699 9.02961C27.1699 9.02961 27.0299 9.12961 27.0899 9.26961C27.1399 9.40961 27.3199 9.50961 27.5699 9.34961C27.5699 9.34961 27.4699 9.73961 27.3699 9.70961C27.2599 9.67961 27.3199 9.55961 27.3799 9.54961C27.3799 9.54961 27.1899 9.51961 27.1199 9.66961C27.0499 9.80961 27.1499 9.98961 27.2599 10.0396C27.3699 10.0896 27.4099 10.1296 27.3699 10.1996C27.3299 10.2696 27.2199 10.2696 27.2199 10.3496C27.2199 10.4296 27.3099 10.5296 27.2699 10.5896C27.2399 10.6496 27.0899 10.7396 26.9099 10.6596C26.9099 10.6596 26.8499 10.7396 26.8399 10.8596C26.8399 10.8596 26.6999 10.8096 26.4799 10.8796C26.2699 10.9496 26.1999 10.9496 26.1999 10.9496C26.1999 10.9496 26.2299 10.6796 26.0699 10.6696C25.8999 10.6696 25.8799 10.6896 25.8799 10.6896C25.8799 10.6896 25.8499 10.5596 25.6999 10.5696C25.5499 10.5796 25.4899 10.6996 25.4899 10.6996C25.4899 10.6996 25.2899 10.6596 25.2299 10.7596C25.1699 10.8596 25.1599 11.0096 25.2799 11.0696C25.3999 11.1296 25.7099 11.3896 25.7099 11.3896L26.1499 11.5796L27.6899 10.8996L28.4899 11.1096L29.2899 10.8996L30.8299 11.5796L31.2699 11.3896C31.2699 11.3896 31.5799 11.1296 31.6999 11.0696C31.8199 11.0096 31.8199 10.8596 31.7499 10.7596Z" fill="#FF4B55"/>
<path d="M28.0195 8.27938C28.0195 8.27938 28.0395 8.48938 28.3395 8.42938C28.3395 8.42938 28.3295 8.20938 28.0195 8.27938Z" fill="#F5F5F5"/>
<path d="M26.8899 16.4708C26.8899 16.4708 26.6699 16.4608 26.4399 16.6308C26.2099 16.8008 26.1099 16.6808 25.8899 16.6808C25.6599 16.6808 25.6099 16.9208 25.6099 16.9208C25.6099 16.9208 25.1699 17.0308 25.3499 17.3508C25.4599 17.5508 25.6199 17.5508 25.7099 17.5208C25.7099 17.6608 25.7399 17.8108 25.8899 17.8408C26.1899 17.8908 26.3199 17.7308 26.2599 17.4808C26.2599 17.4808 26.2999 17.7408 26.4899 17.7308C26.6899 17.7208 26.8199 17.6108 26.7999 17.3508C26.7799 17.0908 27.1299 17.2508 27.3999 16.8608L26.8899 16.4708Z" fill="#FF4B55"/>
<path d="M25.6102 17.4093C25.6102 17.4093 25.4702 17.5893 25.5102 17.7693C25.5102 17.7693 25.2202 17.6793 25.3702 17.2393C25.3702 17.2393 25.5702 17.1893 25.6102 17.4093ZM26.0702 17.6493C26.0702 17.6493 25.9902 17.8793 26.1002 18.0793C26.1002 18.0793 25.7302 18.0693 25.8102 17.6193C25.8002 17.6093 25.9202 17.4893 26.0702 17.6493ZM26.4302 17.6293C26.4302 17.6293 26.5002 17.8193 26.4302 17.9993C26.4302 17.9993 26.7302 17.9793 26.6802 17.5493C26.6802 17.5493 26.5202 17.4893 26.4302 17.6293Z" fill="#82AFFF"/>
<path d="M26.1698 13.2307C26.1398 13.0007 24.7298 12.8707 24.8198 14.0607C24.8198 14.0607 24.6598 14.0607 24.5898 14.2007C24.5769 14.226 24.5584 14.2481 24.5358 14.2653C24.5132 14.2825 24.487 14.2944 24.4592 14.3002C24.4314 14.306 24.4026 14.3054 24.375 14.2986C24.3474 14.2917 24.3217 14.2788 24.2998 14.2607C24.2998 14.2607 24.3098 14.5307 24.6398 14.5107C24.6398 14.5107 24.5398 14.5907 24.5498 14.7107C24.5598 14.8307 24.6498 14.9807 24.6498 15.0807C24.6398 15.1807 24.5498 15.3307 24.5498 15.3307C24.5498 15.3307 24.7998 15.2407 24.8198 15.0607C24.8398 14.8807 24.7998 14.7307 24.8498 14.6407C24.8498 14.6407 24.8298 14.7707 24.9398 14.9307C25.0498 15.0907 25.0598 15.2907 25.0098 15.4107C25.0098 15.4107 25.2898 15.2707 25.2398 15.0007C25.1898 14.7307 25.1298 14.7607 25.1598 14.6107C25.1598 14.6107 25.4498 14.9107 25.3998 15.1607C25.3998 15.1607 25.4898 15.0507 25.4798 14.8407C25.4698 14.6307 25.2998 14.5007 25.2998 14.5007C25.2998 14.5007 26.2598 14.0107 26.1698 13.2307ZM30.1098 16.4707C30.1098 16.4707 30.3298 16.4607 30.5598 16.6307C30.7898 16.8007 30.8898 16.6807 31.1098 16.6807C31.3398 16.6807 31.3898 16.9207 31.3898 16.9207C31.3898 16.9207 31.8298 17.0307 31.6498 17.3507C31.5398 17.5507 31.3798 17.5507 31.2898 17.5207C31.2898 17.6607 31.2598 17.8107 31.1098 17.8407C30.8098 17.8907 30.6798 17.7307 30.7398 17.4807C30.7398 17.4807 30.6998 17.7407 30.5098 17.7307C30.3098 17.7207 30.1798 17.6107 30.1998 17.3507C30.2198 17.0907 29.8698 17.2507 29.5998 16.8607L30.1098 16.4707Z" fill="#FF4B55"/>
<path d="M31.3901 17.4093C31.3901 17.4093 31.5301 17.5893 31.4901 17.7693C31.4901 17.7693 31.7801 17.6793 31.6301 17.2393C31.6301 17.2393 31.4301 17.1893 31.3901 17.4093ZM30.9301 17.6493C30.9301 17.6493 31.0101 17.8793 30.9001 18.0793C30.9001 18.0793 31.2701 18.0693 31.1901 17.6193C31.2001 17.6093 31.0801 17.4893 30.9301 17.6493ZM30.5701 17.6293C30.5701 17.6293 30.5001 17.8193 30.5701 17.9993C30.5701 17.9993 30.2701 17.9793 30.3201 17.5493C30.3201 17.5493 30.4801 17.4893 30.5701 17.6293Z" fill="#82AFFF"/>
<path d="M30.8302 13.2307C30.8602 13.0007 32.2702 12.8707 32.1802 14.0607C32.1802 14.0607 32.3402 14.0607 32.4102 14.2007C32.4802 14.3407 32.6502 14.3107 32.7002 14.2607C32.7002 14.2607 32.6902 14.5307 32.3602 14.5107C32.3602 14.5107 32.4602 14.5907 32.4502 14.7107C32.4402 14.8307 32.3502 14.9807 32.3502 15.0807C32.3602 15.1807 32.4502 15.3307 32.4502 15.3307C32.4502 15.3307 32.2002 15.2407 32.1802 15.0607C32.1602 14.8807 32.2002 14.7307 32.1502 14.6407C32.1502 14.6407 32.1702 14.7707 32.0602 14.9307C31.9502 15.0907 31.9402 15.2907 31.9902 15.4107C31.9902 15.4107 31.7102 15.2707 31.7602 15.0007C31.8102 14.7307 31.8702 14.7607 31.8402 14.6107C31.8402 14.6107 31.5502 14.9107 31.6002 15.1607C31.6002 15.1607 31.5102 15.0507 31.5202 14.8407C31.5602 14.6407 31.7002 14.5007 31.7002 14.5007C31.7002 14.5007 30.7402 14.0107 30.8302 13.2307Z" fill="#FF4B55"/>
<path d="M31.4098 11.2002C31.3598 11.1602 31.2798 11.1802 31.2498 11.2302C31.2178 11.2838 31.1743 11.3295 31.1224 11.3641C31.0705 11.3987 31.0116 11.4213 30.9498 11.4302C30.5298 11.5002 29.9298 11.0902 29.7498 10.9602C29.4998 10.7702 29.1798 10.7402 28.9698 10.8702C28.8153 10.9276 28.6539 10.9645 28.4898 10.9802C28.3259 10.9635 28.1647 10.9265 28.0098 10.8702C27.7998 10.7402 27.4898 10.7702 27.2298 10.9602C27.0498 11.0902 26.4498 11.5002 26.0298 11.4302C25.9685 11.42 25.9101 11.3968 25.8584 11.3624C25.8067 11.3279 25.7629 11.2829 25.7298 11.2302C25.6898 11.1802 25.6198 11.1602 25.5698 11.2002C25.5198 11.2402 25.4998 11.3102 25.5398 11.3602C25.6498 11.5302 25.7998 11.6302 25.9898 11.6602L26.1398 11.6702C26.5898 11.6702 27.0898 11.3502 27.3698 11.1502C27.5798 11.0002 27.8098 11.0002 27.9098 11.0902C27.9398 11.1102 27.9698 11.1502 27.9598 11.1902C27.9598 11.2102 27.9398 11.2302 27.9198 11.2502C27.9298 11.2102 27.9198 11.1802 27.8898 11.1502C27.8787 11.139 27.8654 11.1302 27.8509 11.1241C27.8363 11.1181 27.8206 11.1149 27.8048 11.1149C27.789 11.1149 27.7734 11.1181 27.7588 11.1241C27.7442 11.1302 27.731 11.139 27.7198 11.1502C27.6901 11.1801 27.6718 11.2196 27.6681 11.2616C27.6644 11.3036 27.6757 11.3456 27.6998 11.3802C27.7498 11.4602 27.8598 11.5202 27.9898 11.4702C28.0227 11.4605 28.053 11.4439 28.0789 11.4215C28.1048 11.399 28.1255 11.3713 28.1398 11.3402C28.3198 11.2902 28.4798 11.2902 28.4798 11.2902C28.4798 11.2902 28.6398 11.2902 28.8198 11.3402C28.8598 11.4002 28.9098 11.4402 28.9698 11.4702C29.0998 11.5202 29.2098 11.4602 29.2598 11.3802C29.3098 11.3002 29.2998 11.2002 29.2398 11.1502C29.2287 11.139 29.2154 11.1302 29.2009 11.1241C29.1863 11.1181 29.1706 11.1149 29.1548 11.1149C29.139 11.1149 29.1234 11.1181 29.1088 11.1241C29.0942 11.1302 29.081 11.139 29.0698 11.1502C29.0398 11.1802 29.0298 11.2202 29.0398 11.2502C29.0198 11.2302 28.9998 11.2102 28.9998 11.1902C28.9898 11.1502 29.0198 11.1102 29.0498 11.0902C29.1498 11.0002 29.3898 11.0002 29.5898 11.1502C29.8698 11.3502 30.3698 11.6702 30.8198 11.6702L30.9698 11.6602C31.0616 11.6442 31.149 11.6093 31.2264 11.5577C31.3039 11.506 31.3698 11.4388 31.4198 11.3602C31.4798 11.3102 31.4698 11.2402 31.4098 11.2002Z" fill="#FFE15A"/>
<path d="M25.5203 11.3307L25.4903 10.9807C25.4803 10.8907 25.3203 10.8307 25.2603 10.9207C25.2003 11.0107 25.1903 11.1607 25.5203 11.3307ZM25.5803 11.2507C25.5803 11.2507 25.8103 11.0607 25.7803 10.9607C25.7503 10.8607 25.6903 10.8107 25.6103 10.8407C25.5303 10.8707 25.4903 11.0507 25.5803 11.2507ZM26.0203 11.1007C26.0503 11.0707 26.0603 10.9107 25.9703 10.8907C25.8803 10.8707 25.7603 11.0107 25.7703 11.1907C25.7703 11.1907 25.9603 11.1607 26.0203 11.1007ZM25.9303 11.1907C25.8203 11.2207 25.7203 11.3107 25.7203 11.3107C25.7203 11.3107 25.9103 11.4507 26.0403 11.4107C26.1703 11.3707 26.1103 11.1407 25.9303 11.1907Z" fill="#82AFFF"/>
<path d="M28.9802 8.27938C28.9802 8.27938 28.9602 8.48938 28.6602 8.42938C28.6602 8.42938 28.6702 8.20938 28.9802 8.27938Z" fill="#F5F5F5"/>
<path d="M31.4804 11.3307L31.5104 10.9807C31.5204 10.8907 31.6804 10.8307 31.7404 10.9207C31.8004 11.0107 31.8104 11.1607 31.4804 11.3307ZM31.4204 11.2507C31.4204 11.2507 31.1904 11.0607 31.2204 10.9607C31.2504 10.8607 31.3104 10.8107 31.3904 10.8407C31.4704 10.8707 31.5104 11.0507 31.4204 11.2507ZM30.9804 11.1007C30.9504 11.0707 30.9404 10.9107 31.0304 10.8907C31.1204 10.8707 31.2404 11.0107 31.2304 11.1907C31.2304 11.1907 31.0404 11.1607 30.9804 11.1007ZM31.0704 11.1907C31.1804 11.2207 31.2804 11.3107 31.2804 11.3107C31.2804 11.3107 31.0904 11.4507 30.9604 11.4107C30.8304 11.3707 30.8904 11.1407 31.0704 11.1907Z" fill="#82AFFF"/>
<path d="M28.3801 8.75945L28.4701 8.84945C28.4901 8.86945 28.5101 8.86945 28.5301 8.84945L28.6201 8.75945C28.6501 8.72945 28.6301 8.68945 28.5901 8.68945H28.4001C28.3701 8.69945 28.3501 8.73945 28.3801 8.75945Z" fill="#464655"/>
<path d="M28.3299 9.15023C28.2599 9.15023 28.1999 9.13023 28.1599 9.08023C28.1394 9.0554 28.1244 9.02655 28.1158 8.99554C28.1072 8.96453 28.1052 8.93207 28.1099 8.90023C28.1099 8.88023 28.1399 8.86023 28.1599 8.87023C28.1799 8.87023 28.1999 8.89023 28.1899 8.92023C28.1799 8.96023 28.1899 9.00023 28.2199 9.03023C28.2499 9.06023 28.2899 9.07023 28.3399 9.07023C28.4399 9.07023 28.4599 8.96023 28.4599 8.96023V8.78023C28.4599 8.76023 28.4799 8.74023 28.4999 8.74023C28.5199 8.74023 28.5399 8.76023 28.5399 8.78023V8.97023C28.5299 9.04023 28.4799 9.15023 28.3399 9.15023H28.3299Z" fill="#464655"/>
<path d="M28.67 9.14852H28.66C28.6108 9.14667 28.5639 9.12765 28.5273 9.09476C28.4908 9.06186 28.467 9.01719 28.46 8.96852V8.76852C28.46 8.74852 28.48 8.72852 28.5 8.72852C28.52 8.72852 28.54 8.74852 28.54 8.76852V8.95852C28.54 8.95852 28.56 9.05852 28.66 9.05852C28.71 9.05852 28.75 9.04852 28.78 9.01852C28.81 8.98852 28.82 8.94852 28.81 8.90852C28.81 8.88852 28.82 8.86852 28.84 8.85852C28.86 8.85852 28.88 8.86852 28.89 8.88852C28.8947 8.92035 28.8927 8.95282 28.8841 8.98382C28.8754 9.01483 28.8604 9.04368 28.84 9.06852C28.8198 9.09413 28.7939 9.1147 28.7644 9.12859C28.7349 9.14247 28.7026 9.1493 28.67 9.14852Z" fill="#464655"/>
<path d="M29.9002 15.1099C29.9002 15.1099 29.6102 14.6399 29.2702 14.9499C28.9302 15.2599 28.8002 15.6499 28.4102 15.6199C28.2002 15.5999 28.0902 15.5099 28.0302 15.4199C28.1302 15.3299 28.2102 15.1999 28.1302 15.0099C27.9502 14.5899 27.3102 14.7199 27.1402 15.1799C27.1402 15.1799 27.3402 14.4999 26.6302 14.7299C26.6302 14.7299 26.5402 14.2599 26.1302 14.3899C25.9102 14.4599 25.8202 14.5999 25.7902 14.7099C25.739 14.6958 25.6852 14.6939 25.6331 14.7043C25.581 14.7147 25.5321 14.7372 25.4902 14.7699L26.0102 16.1699L26.7902 16.1799L26.9702 16.4399L27.9902 17.0899L28.1802 17.4799H28.8202C28.8202 17.4799 28.8702 17.0799 29.2102 16.9599C29.5502 16.8399 30.1102 16.5999 30.1702 16.3799L30.2302 16.1599L30.8502 16.1699C30.9202 16.1199 31.3802 15.3699 31.3802 15.3699L31.5902 14.3999C31.4702 14.3899 30.1302 14.2199 29.9002 15.1099Z" fill="#F5F5F5"/>
<path d="M31.5898 14.4004C31.5898 14.4104 31.5998 14.4104 31.5898 14.4004V14.4004Z" fill="#F5F5F5"/>
<path d="M27.3398 16.6193C27.0898 16.5193 26.9998 16.3693 26.9698 16.2993C26.9398 16.2293 26.9498 16.1793 26.9498 16.1593L26.9998 16.0893L27.0398 16.0993V16.1493C26.9898 16.1893 26.9898 16.2693 27.0398 16.3193C27.0798 16.3693 27.1598 16.3693 27.2098 16.3193C27.2346 16.2963 27.2545 16.2684 27.2683 16.2375C27.282 16.2065 27.2893 16.1731 27.2898 16.1393C27.2877 16.067 27.2632 15.9971 27.2198 15.9393C27.1779 15.8995 27.1254 15.8727 27.0686 15.8621C27.0119 15.8514 26.9532 15.8574 26.8998 15.8793C26.9198 15.7193 26.8498 15.6293 26.8098 15.5993C26.769 15.57 26.72 15.5542 26.6698 15.5542C26.6195 15.5542 26.5706 15.57 26.5298 15.5993C26.4398 15.6593 26.3798 15.7493 26.3998 15.8493C26.4098 15.9093 26.4698 15.9493 26.5398 15.9393C26.5998 15.9293 26.6498 15.8693 26.6498 15.7993C26.6589 15.7913 26.669 15.7846 26.6798 15.7793C26.6798 15.7793 26.6998 15.8093 26.6798 15.8893C26.6498 16.0193 26.5798 16.0993 26.4798 16.1293C26.3498 16.1693 26.1798 16.1093 26.0798 15.9993C25.8248 15.5196 25.6236 15.0132 25.4798 14.4893C26.2198 14.1393 26.3098 13.5493 26.2998 13.2293C26.2798 12.7293 25.9798 12.2193 25.6498 12.1193C25.4989 12.0714 25.3359 12.0785 25.1898 12.1393C25.1511 12.1577 25.1168 12.1842 25.0892 12.2169C25.0616 12.2497 25.0413 12.288 25.0298 12.3293C24.9798 12.4893 25.0798 12.6293 25.1998 12.6693C25.3298 12.7193 25.4498 12.6593 25.4998 12.5393C25.5198 12.4793 25.4998 12.4093 25.4398 12.3893C25.3798 12.3693 25.3098 12.3893 25.2898 12.4493C25.2898 12.4493 25.2698 12.4493 25.2598 12.4293L25.2498 12.3993C25.2498 12.3893 25.2598 12.3693 25.2898 12.3493C25.3698 12.3093 25.4898 12.3193 25.5798 12.3393C25.7698 12.3993 26.0398 12.7693 26.0598 13.2393C26.0698 13.5193 25.9898 14.0293 25.2898 14.3193C25.2298 14.3393 25.2098 14.4093 25.2198 14.4593C25.2698 14.6093 25.6698 15.8993 25.8998 16.1593C26.0198 16.2993 26.2098 16.3793 26.3898 16.3793L26.5298 16.3593C26.6042 16.3389 26.6727 16.3012 26.7298 16.2493L26.7598 16.3793C26.8098 16.4893 26.9298 16.6993 27.2798 16.8393C27.9898 17.1293 28.0598 17.3193 28.0498 17.3893C28.0498 17.4293 28.0298 17.4493 28.0098 17.4593L27.9898 17.4693C28.0038 17.4509 28.0122 17.4288 28.014 17.4058C28.0157 17.3827 28.0108 17.3596 27.9998 17.3393C27.9849 17.3117 27.9599 17.2911 27.93 17.2817C27.9001 17.2724 27.8677 17.2751 27.8398 17.2893C27.816 17.301 27.7948 17.3173 27.7774 17.3372C27.76 17.3572 27.7467 17.3804 27.7384 17.4055C27.73 17.4306 27.7267 17.4571 27.7287 17.4835C27.7306 17.5099 27.7378 17.5357 27.7498 17.5593C27.7898 17.6493 27.8698 17.6993 27.9698 17.6993H28.0198C28.1698 17.6793 28.2698 17.5493 28.2798 17.3993C28.2998 17.0393 27.7698 16.7893 27.3398 16.6193ZM29.6598 16.6193C29.9098 16.5193 29.9998 16.3693 30.0298 16.2993C30.0598 16.2293 30.0498 16.1793 30.0498 16.1593L29.9998 16.0893L29.9598 16.0993V16.1493C30.0098 16.1893 30.0098 16.2693 29.9598 16.3193C29.9198 16.3693 29.8398 16.3693 29.7898 16.3193C29.765 16.2963 29.7451 16.2684 29.7313 16.2375C29.7176 16.2065 29.7102 16.1731 29.7098 16.1393C29.7098 16.0693 29.7398 15.9893 29.7798 15.9393C29.8217 15.8995 29.8742 15.8727 29.9309 15.8621C29.9877 15.8514 30.0463 15.8574 30.0998 15.8793C30.0798 15.7193 30.1498 15.6293 30.1898 15.5993C30.2306 15.57 30.2795 15.5542 30.3298 15.5542C30.38 15.5542 30.429 15.57 30.4698 15.5993C30.5598 15.6593 30.6198 15.7493 30.5998 15.8493C30.5898 15.9093 30.5298 15.9493 30.4598 15.9393C30.3998 15.9293 30.3498 15.8693 30.3498 15.7993C30.3407 15.7913 30.3306 15.7846 30.3198 15.7793C30.3198 15.7793 30.2998 15.8093 30.3198 15.8893C30.3498 16.0193 30.4198 16.0993 30.5198 16.1293C30.6498 16.1693 30.8198 16.1093 30.9198 15.9993C31.0598 15.8493 31.3498 15.0293 31.5198 14.4893C30.7798 14.1393 30.6898 13.5493 30.6998 13.2293C30.7198 12.7293 31.0198 12.2193 31.3498 12.1193C31.5007 12.0714 31.6636 12.0785 31.8098 12.1393C31.8485 12.1577 31.8828 12.1842 31.9104 12.2169C31.938 12.2497 31.9582 12.288 31.9698 12.3293C32.0198 12.4893 31.9198 12.6293 31.7998 12.6693C31.7717 12.6821 31.7413 12.6889 31.7105 12.6892C31.6797 12.6895 31.6491 12.6833 31.6208 12.6711C31.5926 12.6588 31.5672 12.6407 31.5463 12.618C31.5255 12.5953 31.5096 12.5685 31.4998 12.5393C31.4798 12.4793 31.4998 12.4093 31.5598 12.3893C31.6198 12.3693 31.6898 12.3893 31.7098 12.4493C31.7098 12.4493 31.7298 12.4493 31.7398 12.4293L31.7498 12.3993C31.7498 12.3893 31.7398 12.3693 31.7098 12.3493C31.6298 12.3093 31.5098 12.3193 31.4198 12.3393C31.2298 12.3993 30.9598 12.7693 30.9398 13.2393C30.9298 13.5193 31.0098 14.0293 31.7098 14.3193C31.7698 14.3393 31.7898 14.4093 31.7798 14.4593C31.7298 14.6093 31.3298 15.8993 31.0998 16.1593C31.0381 16.2282 30.9626 16.2835 30.8782 16.3214C30.7938 16.3593 30.7023 16.379 30.6098 16.3793C30.5625 16.3782 30.5155 16.3715 30.4698 16.3593C30.3954 16.3389 30.3269 16.3012 30.2698 16.2493L30.2398 16.3793C30.1883 16.4869 30.1158 16.5831 30.0265 16.6621C29.9372 16.7411 29.8329 16.8014 29.7198 16.8393C29.0098 17.1293 28.9398 17.3193 28.9498 17.3893C28.9498 17.4293 28.9698 17.4493 28.9898 17.4593L29.0098 17.4693C28.9958 17.4509 28.9874 17.4288 28.9856 17.4058C28.9838 17.3827 28.9887 17.3596 28.9998 17.3393C29.0298 17.2793 29.0998 17.2593 29.1598 17.2893C29.1835 17.301 29.2047 17.3173 29.2221 17.3372C29.2395 17.3572 29.2528 17.3804 29.2612 17.4055C29.2696 17.4306 29.2729 17.4571 29.2709 17.4835C29.2689 17.5099 29.2618 17.5357 29.2498 17.5593C29.2316 17.6021 29.2008 17.6385 29.1615 17.6635C29.1223 17.6885 29.0763 17.701 29.0298 17.6993H28.9798C28.8298 17.6793 28.7298 17.5493 28.7198 17.3993C28.6998 17.0393 29.2298 16.7893 29.6598 16.6193Z" fill="#FFE15A"/>
</g>
</g>
<defs>
<clipPath id="clip0_26003_72261">
<rect width="38" height="25" fill="white" transform="translate(0 0.5)"/>
</clipPath>
<clipPath id="clip1_26003_72261">
<rect width="38" height="25" fill="white" transform="translate(0 0.5)"/>
</clipPath>
</defs>
</svg>
