<svg width="38" height="26" viewBox="0 0 38 26" fill="none" xmlns="http://www.w3.org/2000/svg">
<g clip-path="url(#clip0_26003_70061)">
<g clip-path="url(#clip1_26003_70061)">
<path fill-rule="evenodd" clip-rule="evenodd" d="M2.5 25.5H35.6C36.9 25.2 37.9 24.1 38.1 22.6V13H0V22.6C0.2 24.1 1.2 25.2 2.5 25.5Z" fill="#C92830"/>
<path fill-rule="evenodd" clip-rule="evenodd" d="M0 13H38V3.4C37.8 1.9 36.8 0.7 35.5 0.5H2.5C1.2 0.8 0.2 1.9 0 3.4V13Z" fill="#FEFEFE"/>
<path fill-rule="evenodd" clip-rule="evenodd" d="M0 3.40078V22.6008C0.1 23.4008 0.5 24.2008 1 24.7008L16.6 13.0008L1 1.30078C0.5 1.80078 0.1 2.60078 0 3.40078Z" fill="#27467E"/>
</g>
</g>
<defs>
<clipPath id="clip0_26003_70061">
<rect width="38" height="25" fill="white" transform="translate(0 0.5)"/>
</clipPath>
<clipPath id="clip1_26003_70061">
<rect width="38" height="25" fill="white" transform="translate(0 0.5)"/>
</clipPath>
</defs>
</svg>
