<svg width="38" height="26" viewBox="0 0 38 26" fill="none" xmlns="http://www.w3.org/2000/svg">
<g clip-path="url(#clip0_26003_72375)">
<g clip-path="url(#clip1_26003_72375)">
<path fill-rule="evenodd" clip-rule="evenodd" d="M2.4998 25.4996H35.5998C36.5998 25.2996 37.3998 24.5996 37.7998 23.5996H0.299805C0.699805 24.5996 1.4998 25.2996 2.4998 25.4996Z" fill="#D0272C"/>
<path fill-rule="evenodd" clip-rule="evenodd" d="M0.3 23.5992H37.8C37.9 23.2992 38 22.9992 38.1 22.5992V21.6992H0V22.5992C0 22.8992 0.1 23.2992 0.3 23.5992Z" fill="#FEFEFE"/>
<path fill-rule="evenodd" clip-rule="evenodd" d="M0 19.6992H38V21.5992H0V19.6992Z" fill="#D0272C"/>
<path fill-rule="evenodd" clip-rule="evenodd" d="M0 17.8008H38V19.7008H0V17.8008Z" fill="#FEFEFE"/>
<path fill-rule="evenodd" clip-rule="evenodd" d="M0 15.9004H38V17.8004H0V15.9004Z" fill="#D0272C"/>
<path fill-rule="evenodd" clip-rule="evenodd" d="M0 14H38V15.9H0V14Z" fill="#FEFEFE"/>
<path fill-rule="evenodd" clip-rule="evenodd" d="M0 12H38V13.9H0V12Z" fill="#D0272C"/>
<path fill-rule="evenodd" clip-rule="evenodd" d="M0 10.0996H38V11.9996H0V10.0996Z" fill="#FEFEFE"/>
<path fill-rule="evenodd" clip-rule="evenodd" d="M0 8.19922H38V10.0992H0V8.19922Z" fill="#D0272C"/>
<path fill-rule="evenodd" clip-rule="evenodd" d="M0 6.30078H38V8.20078H0V6.30078Z" fill="#FEFEFE"/>
<path fill-rule="evenodd" clip-rule="evenodd" d="M0 4.30078H38V6.20078H0V4.30078Z" fill="#D0272C"/>
<path fill-rule="evenodd" clip-rule="evenodd" d="M0 4.30039H38V3.40039C38 3.00039 37.9 2.70039 37.7 2.40039H0.3C0.1 2.70039 0 3.10039 0 3.40039V4.30039Z" fill="#FEFEFE"/>
<path fill-rule="evenodd" clip-rule="evenodd" d="M0.299805 2.4H37.7998C37.3998 1.4 36.5998 0.7 35.5998 0.5H2.4998C1.4998 0.7 0.699805 1.4 0.299805 2.4Z" fill="#D0272C"/>
<path fill-rule="evenodd" clip-rule="evenodd" d="M0 14H17.4V0.5H2.5C1.2 0.8 0.2 1.9 0 3.4V14Z" fill="#2E3C66"/>
<path fill-rule="evenodd" clip-rule="evenodd" d="M1.60039 2L1.70039 2.5H2.20039L1.80039 2.8L2.00039 3.3L1.60039 3L1.20039 3.3L1.30039 2.8L0.900391 2.5H1.40039L1.60039 2ZM1.60039 4.2L1.70039 4.7H2.20039L1.80039 5.1L2.00039 5.6L1.60039 5.2L1.20039 5.6L1.30039 5.1L0.900391 4.7H1.40039L1.60039 4.2ZM1.60039 6.5L1.70039 7H2.20039L1.80039 7.3L2.00039 7.8L1.60039 7.5L1.20039 7.8L1.30039 7.3L0.900391 7H1.40039L1.60039 6.5ZM1.60039 8.7L1.70039 9.2H2.20039L1.80039 9.5L2.00039 10.1L1.60039 9.7L1.20039 10.1L1.30039 9.5L0.900391 9.2H1.40039L1.60039 8.7ZM1.60039 11L1.70039 11.5H2.20039L1.80039 11.8L2.00039 12.3L1.60039 12L1.20039 12.3L1.30039 11.8L0.900391 11.5H1.40039L1.60039 11ZM3.00039 3.2L3.10039 3.7H3.60039L3.20039 4L3.30039 4.5L3.00039 4.2L2.60039 4.5L2.70039 4L2.30039 3.7H2.80039L3.00039 3.2ZM3.00039 5.4L3.10039 5.9H3.60039L3.20039 6.2L3.30039 6.7L3.00039 6.4L2.60039 6.7L2.70039 6.2L2.30039 5.9H2.80039L3.00039 5.4ZM3.00039 7.7L3.10039 8.2H3.60039L3.20039 8.5L3.30039 9L3.00039 8.7L2.60039 9L2.70039 8.5L2.30039 8.2H2.80039L3.00039 7.7ZM3.00039 9.9L3.10039 10.4H3.60039L3.20039 10.7L3.30039 11.2L3.00039 10.9L2.60039 11.2L2.70039 10.7L2.30039 10.4H2.80039L3.00039 9.9ZM4.40039 2L4.50039 2.5H5.00039L4.60039 2.8L4.70039 3.3L4.40039 3L4.00039 3.3L4.10039 2.8L3.70039 2.5H4.20039L4.40039 2ZM4.40039 4.2L4.50039 4.7H5.00039L4.60039 5.1L4.70039 5.6L4.40039 5.2L4.00039 5.6L4.10039 5.1L3.70039 4.7H4.20039L4.40039 4.2ZM4.40039 6.5L4.50039 7H5.00039L4.60039 7.3L4.70039 7.8L4.40039 7.5L4.00039 7.8L4.10039 7.3L3.70039 7H4.20039L4.40039 6.5ZM4.40039 8.7L4.50039 9.2H5.00039L4.60039 9.5L4.70039 10.1L4.40039 9.7L4.00039 10.1L4.10039 9.5L3.70039 9.2H4.20039L4.40039 8.7ZM4.40039 11L4.50039 11.5H5.00039L4.60039 11.8L4.70039 12.3L4.40039 12L4.00039 12.3L4.10039 11.8L3.70039 11.5H4.20039L4.40039 11ZM5.70039 3.2L5.90039 3.7H6.40039L6.00039 4L6.10039 4.5L5.70039 4.2L5.40039 4.5L5.50039 4L5.10039 3.7H5.60039L5.70039 3.2ZM5.70039 5.4L5.90039 5.9H6.40039L6.00039 6.2L6.10039 6.7L5.70039 6.4L5.40039 6.7L5.50039 6.2L5.10039 5.9H5.60039L5.70039 5.4ZM5.70039 7.7L5.90039 8.2H6.40039L6.00039 8.5L6.10039 9L5.70039 8.7L5.40039 9L5.50039 8.5L5.10039 8.2H5.60039L5.70039 7.7ZM5.70039 9.9L5.90039 10.4H6.40039L6.00039 10.7L6.10039 11.2L5.70039 10.9L5.40039 11.2L5.50039 10.7L5.10039 10.4H5.60039L5.70039 9.9ZM7.20039 2L7.30039 2.5H7.80039L7.40039 2.8L7.50039 3.3L7.20039 3L6.80039 3.3L6.90039 2.8L6.50039 2.5H7.00039L7.20039 2ZM7.20039 4.2L7.30039 4.7H7.80039L7.40039 5.1L7.50039 5.6L7.20039 5.2L6.80039 5.6L6.90039 5.1L6.50039 4.7H7.00039L7.20039 4.2ZM7.20039 6.5L7.30039 7H7.80039L7.40039 7.3L7.50039 7.8L7.20039 7.5L6.80039 7.8L6.90039 7.3L6.50039 7H7.00039L7.20039 6.5ZM7.20039 8.7L7.30039 9.2H7.80039L7.40039 9.5L7.50039 10.1L7.20039 9.7L6.80039 10.1L6.90039 9.5L6.50039 9.2H7.00039L7.20039 8.7ZM7.20039 11L7.30039 11.5H7.80039L7.40039 11.8L7.50039 12.3L7.20039 12L6.80039 12.3L6.90039 11.8L6.50039 11.5H7.00039L7.20039 11ZM8.50039 3.2L8.70039 3.7H9.20039L8.80039 4L8.90039 4.5L8.50039 4.2L8.20039 4.5L8.30039 4L7.90039 3.7H8.40039L8.50039 3.2ZM8.50039 5.4L8.70039 5.9H9.20039L8.80039 6.2L8.90039 6.7L8.50039 6.4L8.20039 6.7L8.30039 6.2L7.90039 5.9H8.40039L8.50039 5.4ZM8.50039 7.7L8.70039 8.2H9.20039L8.80039 8.5L8.90039 9L8.50039 8.7L8.20039 9L8.30039 8.5L7.90039 8.2H8.40039L8.50039 7.7ZM8.50039 9.9L8.70039 10.4H9.20039L8.80039 10.7L8.90039 11.2L8.50039 10.9L8.20039 11.2L8.30039 10.7L7.90039 10.4H8.40039L8.50039 9.9ZM9.90039 2L10.1004 2.5H10.6004L10.2004 2.8L10.3004 3.3L9.90039 3L9.60039 3.3L9.70039 2.8L9.30039 2.5H9.80039L9.90039 2ZM9.90039 4.2L10.1004 4.7H10.6004L10.2004 5.1L10.3004 5.6L9.90039 5.2L9.60039 5.6L9.70039 5.1L9.30039 4.7H9.80039L9.90039 4.2ZM9.90039 6.5L10.1004 7H10.6004L10.2004 7.3L10.3004 7.8L9.90039 7.5L9.60039 7.8L9.70039 7.3L9.30039 7H9.80039L9.90039 6.5ZM9.90039 8.7L10.1004 9.2H10.6004L10.2004 9.5L10.3004 10.1L9.90039 9.7L9.60039 10.1L9.70039 9.5L9.30039 9.2H9.80039L9.90039 8.7ZM9.90039 11L10.1004 11.5H10.6004L10.2004 11.8L10.3004 12.3L9.90039 12L9.60039 12.3L9.70039 11.8L9.30039 11.5H9.80039L9.90039 11ZM11.3004 3.2L11.5004 3.7H12.0004L11.6004 4L11.7004 4.5L11.3004 4.2L10.9004 4.5L11.1004 4L10.7004 3.7H11.2004L11.3004 3.2ZM11.3004 5.4L11.5004 5.9H12.0004L11.6004 6.2L11.7004 6.7L11.3004 6.4L10.9004 6.7L11.1004 6.2L10.7004 5.9H11.2004L11.3004 5.4ZM11.3004 7.7L11.5004 8.2H12.0004L11.6004 8.5L11.7004 9L11.3004 8.7L10.9004 9L11.1004 8.5L10.7004 8.2H11.2004L11.3004 7.7ZM11.3004 9.9L11.5004 10.4H12.0004L11.6004 10.7L11.7004 11.2L11.3004 10.9L10.9004 11.2L11.1004 10.7L10.7004 10.4H11.2004L11.3004 9.9ZM12.7004 2L12.9004 2.5H13.4004L13.0004 2.8L13.1004 3.3L12.7004 3L12.4004 3.3L12.5004 2.8L12.1004 2.5H12.6004L12.7004 2ZM12.7004 4.2L12.9004 4.7H13.4004L13.0004 5.1L13.1004 5.6L12.7004 5.2L12.4004 5.6L12.5004 5.1L12.1004 4.7H12.6004L12.7004 4.2ZM12.7004 6.5L12.9004 7H13.4004L13.0004 7.3L13.1004 7.8L12.7004 7.5L12.4004 7.8L12.5004 7.3L12.1004 7H12.6004L12.7004 6.5ZM12.7004 8.7L12.9004 9.2H13.4004L13.0004 9.5L13.1004 10.1L12.7004 9.7L12.4004 10.1L12.5004 9.5L12.1004 9.2H12.6004L12.7004 8.7ZM12.7004 11L12.9004 11.5H13.4004L13.0004 11.8L13.1004 12.3L12.7004 12L12.4004 12.3L12.5004 11.8L12.1004 11.5H12.6004L12.7004 11ZM14.1004 3.2L14.3004 3.7H14.7004L14.4004 4L14.5004 4.5L14.1004 4.2L13.7004 4.5L13.9004 4L13.5004 3.7H14.0004L14.1004 3.2ZM14.1004 5.4L14.3004 5.9H14.7004L14.4004 6.2L14.5004 6.7L14.1004 6.4L13.7004 6.7L13.9004 6.2L13.5004 5.9H14.0004L14.1004 5.4ZM14.1004 7.7L14.3004 8.2H14.7004L14.4004 8.5L14.5004 9L14.1004 8.7L13.7004 9L13.9004 8.5L13.5004 8.2H14.0004L14.1004 7.7ZM14.1004 9.9L14.3004 10.4H14.7004L14.4004 10.7L14.5004 11.2L14.1004 10.9L13.7004 11.2L13.9004 10.7L13.5004 10.4H14.0004L14.1004 9.9ZM15.5004 2L15.7004 2.5H16.2004L15.8004 2.8L15.9004 3.3L15.5004 3L15.1004 3.3L15.3004 2.8L14.9004 2.5H15.4004L15.5004 2ZM15.5004 4.2L15.7004 4.7H16.2004L15.8004 5.1L15.9004 5.6L15.5004 5.2L15.1004 5.6L15.3004 5.1L14.9004 4.7H15.4004L15.5004 4.2ZM15.5004 6.5L15.7004 7H16.2004L15.8004 7.3L15.9004 7.8L15.5004 7.5L15.1004 7.8L15.3004 7.3L14.9004 7H15.4004L15.5004 6.5ZM15.5004 8.7L15.7004 9.2H16.2004L15.8004 9.5L15.9004 10.1L15.5004 9.7L15.1004 10.1L15.3004 9.5L14.9004 9.2H15.4004L15.5004 8.7ZM15.5004 11L15.7004 11.5H16.2004L15.8004 11.8L15.9004 12.3L15.5004 12L15.1004 12.3L15.3004 11.8L14.9004 11.5H15.4004L15.5004 11Z" fill="#FEFEFE"/>
</g>
</g>
<defs>
<clipPath id="clip0_26003_72375">
<rect width="38" height="25" fill="white" transform="translate(0 0.5)"/>
</clipPath>
<clipPath id="clip1_26003_72375">
<rect width="38" height="25" fill="white" transform="translate(0 0.5)"/>
</clipPath>
</defs>
</svg>
