<svg width="38" height="26" viewBox="0 0 38 26" fill="none" xmlns="http://www.w3.org/2000/svg">
<g clip-path="url(#clip0_26003_91499)">
<g clip-path="url(#clip1_26003_91499)">
<path fill-rule="evenodd" clip-rule="evenodd" d="M0.299805 2.3H37.6998C37.5032 1.84625 37.201 1.44611 36.8183 1.13298C36.4356 0.819851 35.9835 0.602817 35.4998 0.5L2.4998 0.5C1.4998 0.7 0.699805 1.4 0.299805 2.3Z" fill="#D82535"/>
<path fill-rule="evenodd" clip-rule="evenodd" d="M0 4.10078H38V3.40078C38 3.00078 37.8 2.60078 37.7 2.30078H0.3C0.2 2.60078 0 3.00078 0 3.40078V4.10078Z" fill="#FEFEFE"/>
<path fill-rule="evenodd" clip-rule="evenodd" d="M0 4.09961H38V5.89961H0V4.09961Z" fill="#D82535"/>
<path fill-rule="evenodd" clip-rule="evenodd" d="M0 5.90039H38V7.70039H0V5.90039Z" fill="#FEFEFE"/>
<path fill-rule="evenodd" clip-rule="evenodd" d="M0 7.69922H38V9.49922H0V7.69922Z" fill="#D82535"/>
<path fill-rule="evenodd" clip-rule="evenodd" d="M0 9.40039H38V11.2004H0V9.40039Z" fill="#FEFEFE"/>
<path fill-rule="evenodd" clip-rule="evenodd" d="M0 11.1992H38V12.9992H0V11.1992Z" fill="#D82535"/>
<path fill-rule="evenodd" clip-rule="evenodd" d="M0 13H38V14.8H0V13Z" fill="#FEFEFE"/>
<path fill-rule="evenodd" clip-rule="evenodd" d="M0 14.8008H38V16.6008H0V14.8008Z" fill="#D82535"/>
<path fill-rule="evenodd" clip-rule="evenodd" d="M0 16.5996H38V18.3996H0V16.5996Z" fill="#FEFEFE"/>
<path fill-rule="evenodd" clip-rule="evenodd" d="M0 18.4004H38V20.2004H0V18.4004Z" fill="#D82535"/>
<path fill-rule="evenodd" clip-rule="evenodd" d="M0 20.0996H38V21.8996H0V20.0996Z" fill="#FEFEFE"/>
<path fill-rule="evenodd" clip-rule="evenodd" d="M0.3 23.7004H37.7C37.9 23.4004 38 23.0004 38 22.6004V21.9004H0V22.6004C0 23.0004 0.2 23.4004 0.3 23.7004Z" fill="#D82535"/>
<path fill-rule="evenodd" clip-rule="evenodd" d="M2.4998 25.4992H35.5998C36.4998 25.2992 37.2998 24.5992 37.7998 23.6992H0.299805C0.699805 24.5992 1.4998 25.2992 2.4998 25.4992Z" fill="#FEFEFE"/>
<path fill-rule="evenodd" clip-rule="evenodd" d="M0 14.8H22.2V0.5H2.5C1.2 0.8 0.2 1.9 0 3.4V14.8Z" fill="#313C91"/>
<path fill-rule="evenodd" clip-rule="evenodd" d="M5.8998 7.70078C5.8998 5.10078 7.7998 3.00078 10.0998 3.00078C10.8998 3.00078 11.5998 3.30078 12.2998 3.70078C11.4998 2.90078 10.2998 2.30078 9.0998 2.30078C6.4998 2.30078 4.2998 4.70078 4.2998 7.70078C4.2998 10.7008 6.3998 13.1008 9.0998 13.1008C10.2998 13.1008 11.3998 12.6008 12.2998 11.7008C11.6998 12.1008 10.8998 12.4008 10.0998 12.4008C7.7998 12.3008 5.8998 10.2008 5.8998 7.70078Z" fill="#F5D716"/>
<path fill-rule="evenodd" clip-rule="evenodd" d="M15.4 7.69922L17.7 6.69922L15.3 6.89922L16.9 4.89922L14.8 6.29922L15.6 3.59922L14.2 5.89922L13.9 3.19922L13.6 5.09922L13.5 5.69922V5.89922L12.1 3.59922L12.9 6.29922L10.8 4.89922L12.4 6.89922L10 6.69922L12.3 7.69922L10 8.59922L12.4 8.39922L10.8 10.3992L12.9 8.99922L12.1 11.6992L13.5 9.39922V9.59922L13.6 10.1992L13.9 12.0992L14.2 9.39922L15.6 11.6992L14.8 8.99922L16.9 10.3992L15.3 8.39922L17.7 8.59922L15.4 7.69922Z" fill="#F5D716"/>
</g>
</g>
<defs>
<clipPath id="clip0_26003_91499">
<rect width="38" height="25" fill="white" transform="translate(0 0.5)"/>
</clipPath>
<clipPath id="clip1_26003_91499">
<rect width="38" height="25" fill="white" transform="translate(0 0.5)"/>
</clipPath>
</defs>
</svg>
