<svg width="38" height="26" viewBox="0 0 38 26" fill="none" xmlns="http://www.w3.org/2000/svg">
<g clip-path="url(#clip0_26003_82628)">
<g clip-path="url(#clip1_26003_82628)">
<path d="M35.15 25.5007H2.85002C2.47491 25.5007 2.10349 25.4267 1.75706 25.2828C1.41062 25.139 1.096 24.9281 0.831219 24.6624C0.566441 24.3967 0.356721 24.0814 0.214084 23.7344C0.0714475 23.3875 -0.00129863 23.0158 1.75455e-05 22.6407V3.3307C-0.00129863 2.9556 0.0714475 2.58392 0.214084 2.23698C0.356721 1.89005 0.566441 1.57469 0.831219 1.30898C1.096 1.04327 1.41062 0.83245 1.75706 0.688599C2.10349 0.544748 2.47491 0.470701 2.85002 0.470703H35.16C35.9168 0.473349 36.6417 0.775838 37.1759 1.31191C37.7101 1.84797 38.01 2.57391 38.01 3.3307V22.6407C38.0074 23.3984 37.7052 24.1243 37.1694 24.6601C36.6337 25.1959 35.9077 25.4981 35.15 25.5007Z" fill="#2A3596"/>
<path d="M0.66 12.9807H1.8L7.87 8.9807V12.9807H11.15V8.9807L17.22 12.9807H18.36C18.72 12.9807 19.02 12.6907 19.02 12.3207V11.8007L13.81 8.3707H19V5.0807H13.79L19 1.6507V1.1307C19 0.95566 18.9305 0.787787 18.8067 0.664013C18.6829 0.540239 18.515 0.470703 18.34 0.470703H17.2L11.13 4.4707V0.470703H7.86V4.4707L1.99 0.600703C1.31 0.820703 0.73 1.2907 0.38 1.9007L5.21 5.0807H0V8.3707H5.21L0 11.8007V12.3207C0 12.6907 0.29 12.9807 0.66 12.9807Z" fill="#F5F5F5"/>
<path d="M19 5.7407H10.48V0.470703H8.52V5.7407H0V7.7107H8.52V12.9807H10.48V7.7107H19V5.7407Z" fill="#FC3044"/>
<path d="M0.609844 1.5607L5.99984 5.0807H7.19984L1.07984 1.0807C0.909844 1.2207 0.749844 1.3807 0.609844 1.5607ZM12.3398 5.0807L18.8998 0.800703C18.8429 0.702051 18.7614 0.619812 18.6633 0.561985C18.5652 0.504158 18.4537 0.472711 18.3398 0.470703H18.1998L11.1298 5.0807H12.3398ZM6.63984 8.3707L0.0898438 12.6407C0.199844 12.8407 0.409844 12.9807 0.649844 12.9807H0.769844L7.83984 8.3707H6.63984ZM18.9898 12.3807L12.8498 8.3807H11.6498L18.6198 12.9307C18.7233 12.8782 18.8116 12.8001 18.8764 12.7038C18.9412 12.6076 18.9802 12.4963 18.9898 12.3807Z" fill="#FC3044"/>
<path d="M24.1504 7.84961H32.8504V14.6096H24.1504V7.84961Z" fill="#82AFFF"/>
<path d="M24.1504 14.6191C24.1504 16.9291 26.7204 18.7991 28.5004 18.7991C30.0804 18.7991 32.8504 16.9291 32.8504 14.6191H24.1504Z" fill="#AF4A4A"/>
<path d="M29.6601 10.3203C29.8001 10.3403 30.0401 10.3803 30.0601 10.7203C30.0685 11.2946 29.9944 11.8671 29.8401 12.4203C29.8401 12.4203 30.2401 13.3403 30.2601 13.8903C30.2801 14.4403 30.2001 16.0703 30.2501 16.3303C30.3001 16.5903 30.4801 17.1303 30.4801 17.1303C30.4801 17.1303 29.9101 16.7903 29.6901 17.0103C29.4701 17.2203 28.6501 17.5103 28.3301 17.1703C28.3301 17.1703 28.7101 16.0803 28.7101 14.8303V10.5203C28.7101 10.5203 28.8701 10.3903 29.0801 10.3903C29.3001 10.3803 29.6601 10.3203 29.6601 10.3203Z" fill="#87C400"/>
<path d="M29.7404 16.8999C29.7604 17.0599 29.8304 17.1699 29.8004 17.2299C29.7704 17.2899 29.5504 17.8199 29.6804 17.8199C29.8004 17.8199 30.0204 17.7499 30.0804 17.6399C30.1404 17.5199 30.1604 17.3499 30.2004 17.2999C30.2404 17.2499 30.1404 16.9999 30.0704 16.9599C29.9804 16.9099 29.7404 16.8999 29.7404 16.8999ZM28.3204 10.6699L27.8704 10.7299C27.8704 10.7299 27.9304 10.4299 27.9404 10.2199L27.9604 9.62992C27.9604 9.62992 28.2804 9.42992 28.2904 9.39992C28.2904 9.37992 28.3304 9.27992 28.3004 9.22992C28.2704 9.17992 28.1704 9.16992 28.1704 9.16992C28.1704 9.16992 27.7904 9.36992 27.7904 9.39992C27.7904 9.42992 27.7904 9.62992 27.7504 9.70992C27.7104 9.77992 27.4804 10.4099 27.4604 10.5699C27.4404 10.7399 27.4204 11.0799 27.4804 11.0999C27.5504 11.1199 28.2304 11.1899 28.3004 11.1599C28.3804 11.1299 28.3204 10.6699 28.3204 10.6699Z" fill="#FFF5E1"/>
<path d="M30.37 9.04H28.72V8.25H28.15V9.04H26.5V9.61H28.15V17.13H28.72V9.61H30.37V9.04Z" fill="#464655"/>
<path d="M29.4 10.0495C29.4 10.0495 29.95 10.2095 30.03 10.0295C30.12 9.80948 29.83 9.78948 29.77 9.55948C29.76 9.52948 29.71 9.22948 29.49 9.16948C29.27 9.10948 29.06 9.16948 29.05 9.31948C29.04 9.46948 29.4 10.0495 29.4 10.0495Z" fill="#963C3C"/>
<path d="M29.1004 10.7505C29.0804 10.7505 29.0604 10.5805 29.0904 10.3805C29.1204 10.1705 29.0904 10.1105 29.0904 10.1105C29.0904 10.1105 28.8604 10.1305 28.8604 10.0405C28.8604 9.95055 28.9104 9.53055 29.0504 9.31055C29.0504 9.31055 29.1504 9.43055 29.3304 9.43055C29.3304 9.43055 29.3204 9.58055 29.4204 9.68055C29.4204 9.68055 29.3004 9.79055 29.3504 9.86055L29.5104 10.0305C29.5104 10.0305 29.5204 10.2005 29.6504 10.3205C29.6604 10.3205 29.5004 10.6905 29.1004 10.7505Z" fill="#FFF5E1"/>
<path d="M26.8398 14.3502H26.8898V15.3402H26.8398V14.3502ZM27.0398 14.1602H27.0898V15.5302H27.0398V14.1602ZM27.2398 13.9902H27.2898V15.7102H27.2398V13.9902ZM27.4398 13.7402H27.4898V15.9602H27.4398V13.7402ZM27.6398 13.4102H27.6898V16.2802H27.6398V13.4102ZM27.8398 13.4102H27.8898V16.4102H27.8398V13.4102Z" fill="#464655"/>
<path d="M28.7302 14.979C28.5102 13.839 27.9102 13.169 27.6902 13.139C27.6035 13.1291 27.5162 13.1511 27.4444 13.2007C27.3727 13.2504 27.3214 13.3244 27.3002 13.409C27.2802 13.529 27.1702 13.909 26.9302 14.079C26.6902 14.249 26.2502 14.349 26.1502 14.679C26.0502 14.999 26.3102 15.139 26.4702 15.109L26.5002 15.099L28.1802 17.179C28.2402 17.259 28.3602 17.239 28.4002 17.159C28.5902 16.799 28.9202 15.959 28.7302 14.979ZM26.6502 14.999C26.7202 14.929 26.7402 14.829 26.6702 14.729C26.5502 14.559 26.4102 14.799 26.4102 14.799C26.4102 14.799 26.3702 14.579 26.6902 14.479C27.0102 14.379 27.3702 14.189 27.5402 13.799C27.7002 13.409 27.7002 13.489 27.7002 13.489C27.7002 13.489 28.3602 13.859 28.4502 15.029C28.5402 16.199 28.2202 16.669 28.2202 16.669L26.6502 14.999Z" fill="#FFE15A"/>
<path d="M28.1505 12.48L27.9605 12.6C27.8105 12.68 27.6205 12.76 27.6005 12.84C27.5805 12.91 27.4805 12.98 27.4805 13.06V13.41C27.5705 13.39 27.7605 13.36 27.8205 13.25C27.8805 13.14 27.9405 12.92 28.1405 12.83L28.1505 12.82V12.48ZM29.7905 10.89C29.7005 10.93 29.4205 11.27 29.3805 11.42C29.3405 11.58 29.2005 11.94 29.2005 11.94C29.2005 11.94 28.9205 11.98 28.7205 12.09V12.63L28.9805 12.54C29.1405 12.45 29.3705 12.29 29.4905 12.26C29.6105 12.23 29.7105 12.03 29.7505 11.91C29.7905 11.79 29.9305 11.44 29.9505 11.21C29.9705 10.98 29.8805 10.85 29.7905 10.89Z" fill="#FFF5E1"/>
<path d="M28.4998 18.9307H28.4798C27.2866 18.8307 26.1719 18.2955 25.3477 17.4271C24.5235 16.5586 24.0473 15.4174 24.0098 14.2207V7.7207H32.9898V14.2207C32.9898 14.3807 32.9398 18.2307 28.5198 18.9307H28.4998ZM24.2898 7.9907V14.2207C24.2898 14.3707 24.3398 17.9807 28.4998 18.6507C29.6222 18.5558 30.6708 18.0524 31.4468 17.2359C32.2227 16.4194 32.6721 15.3465 32.7098 14.2207V7.9907H24.2898Z" fill="#F5F5F5"/>
</g>
</g>
<defs>
<clipPath id="clip0_26003_82628">
<rect width="38" height="25" fill="white" transform="translate(0 0.5)"/>
</clipPath>
<clipPath id="clip1_26003_82628">
<rect width="38" height="25" fill="white" transform="translate(0 0.5)"/>
</clipPath>
</defs>
</svg>
