<svg width="38" height="26" viewBox="0 0 38 26" fill="none" xmlns="http://www.w3.org/2000/svg">
<g clip-path="url(#clip0_26003_69733)">
<g clip-path="url(#clip1_26003_69733)">
<path d="M35.1501 25.4984H2.85007C2.47411 25.4984 2.10187 25.4241 1.75478 25.2796C1.4077 25.1351 1.09262 24.9234 0.827712 24.6566C0.562802 24.3899 0.35329 24.0733 0.211246 23.7252C0.0692019 23.3771 -0.00256811 23.0044 7.01822e-05 22.6284V3.26844C-0.00124533 2.89286 0.0714288 2.52069 0.213943 2.1732C0.356458 1.8257 0.566021 1.50968 0.830669 1.24318C1.09532 0.976673 1.40986 0.764905 1.75635 0.619964C2.10284 0.475023 2.47449 0.399748 2.85007 0.398438H35.1601C35.5356 0.399748 35.9073 0.475023 36.2538 0.619964C36.6003 0.764905 36.9148 0.976673 37.1795 1.24318C37.4441 1.50968 37.6537 1.8257 37.7962 2.1732C37.9387 2.52069 38.0114 2.89286 38.0101 3.26844V22.6284C38.0101 23.3879 37.7091 24.1164 37.173 24.6543C36.6369 25.1922 35.9095 25.4958 35.1501 25.4984Z" fill="#DB2839"/>
<path d="M2.85007 0.410156C2.47496 0.410154 2.10354 0.484201 1.75711 0.628052C1.41068 0.771903 1.09605 0.982727 0.831272 1.24843C0.566494 1.51414 0.356773 1.8295 0.214137 2.17644C0.0715001 2.52337 -0.00124599 2.89505 7.01822e-05 3.27016V22.6302C-0.00256811 23.0061 0.0692019 23.3789 0.211246 23.7269C0.35329 24.075 0.562802 24.3916 0.827712 24.6584C1.09262 24.9251 1.4077 25.1368 1.75478 25.2813C2.10187 25.4258 2.47411 25.5002 2.85007 25.5002H13.7601V0.410156H2.85007Z" fill="#128912"/>
<path d="M13.7601 18.8917C17.0131 18.8917 19.6501 16.2323 19.6501 12.9517C19.6501 9.67115 17.0131 7.01172 13.7601 7.01172C10.5072 7.01172 7.87012 9.67115 7.87012 12.9517C7.87012 16.2323 10.5072 18.8917 13.7601 18.8917Z" fill="#FFE15A"/>
<path d="M15.7305 10.9684V13.6084C15.7305 14.6984 14.8505 15.5884 13.7605 15.5884C12.6705 15.5884 11.7905 14.6984 11.7905 13.6084V10.9684H15.7305ZM16.3805 9.64844H11.1405C10.7805 9.64844 10.4805 9.94844 10.4805 10.3084V13.6084C10.4805 15.4284 11.9505 16.9084 13.7605 16.9084C15.5705 16.9084 17.0405 15.4284 17.0405 13.6084V10.3084C17.0405 10.1334 16.9709 9.96552 16.8472 9.84175C16.7234 9.71797 16.5555 9.64844 16.3805 9.64844Z" fill="#D32939"/>
<path d="M15.73 10.9688V13.6087C15.73 14.6987 14.85 15.5887 13.76 15.5887C12.67 15.5887 11.79 14.6987 11.79 13.6087V10.9688H15.73Z" fill="#F5F5F5"/>
<path d="M11.1396 10.6405C11.3218 10.6405 11.4696 10.4927 11.4696 10.3105C11.4696 10.1282 11.3218 9.98047 11.1396 9.98047C10.9573 9.98047 10.8096 10.1282 10.8096 10.3105C10.8096 10.4927 10.9573 10.6405 11.1396 10.6405Z" fill="#FFE15A"/>
<path d="M16.3798 10.6405C16.5621 10.6405 16.7098 10.4927 16.7098 10.3105C16.7098 10.1282 16.5621 9.98047 16.3798 9.98047C16.1976 9.98047 16.0498 10.1282 16.0498 10.3105C16.0498 10.4927 16.1976 10.6405 16.3798 10.6405Z" fill="#FFE15A"/>
<path d="M11.1396 13.2811C11.3218 13.2811 11.4696 13.1333 11.4696 12.9511C11.4696 12.7688 11.3218 12.6211 11.1396 12.6211C10.9573 12.6211 10.8096 12.7688 10.8096 12.9511C10.8096 13.1333 10.9573 13.2811 11.1396 13.2811Z" fill="#FFE15A"/>
<path d="M16.3798 13.2811C16.5621 13.2811 16.7098 13.1333 16.7098 12.9511C16.7098 12.7688 16.5621 12.6211 16.3798 12.6211C16.1976 12.6211 16.0498 12.7688 16.0498 12.9511C16.0498 13.1333 16.1976 13.2811 16.3798 13.2811Z" fill="#FFE15A"/>
<path d="M13.7597 10.6405C13.9419 10.6405 14.0897 10.4927 14.0897 10.3105C14.0897 10.1282 13.9419 9.98047 13.7597 9.98047C13.5774 9.98047 13.4297 10.1282 13.4297 10.3105C13.4297 10.4927 13.5774 10.6405 13.7597 10.6405Z" fill="#FFE15A"/>
<path d="M15.7294 15.7186C15.9117 15.7186 16.0594 15.5708 16.0594 15.3886C16.0594 15.2063 15.9117 15.0586 15.7294 15.0586C15.5472 15.0586 15.3994 15.2063 15.3994 15.3886C15.3994 15.5708 15.5472 15.7186 15.7294 15.7186Z" fill="#FFE15A"/>
<path d="M11.83 15.7186C12.0123 15.7186 12.16 15.5708 12.16 15.3886C12.16 15.2063 12.0123 15.0586 11.83 15.0586C11.6477 15.0586 11.5 15.2063 11.5 15.3886C11.5 15.5708 11.6477 15.7186 11.83 15.7186Z" fill="#FFE15A"/>
<path d="M14.1901 12.7914V13.3614C14.1901 13.6014 14.0001 13.7914 13.7701 13.7914C13.7141 13.7914 13.6586 13.7802 13.607 13.7585C13.5554 13.7368 13.5086 13.7049 13.4695 13.6649C13.4304 13.6248 13.3996 13.5773 13.3791 13.5252C13.3586 13.4731 13.3487 13.4174 13.3501 13.3614V12.7914H14.1901ZM14.1901 11.4414V12.0114C14.1901 12.2514 14.0001 12.4414 13.7701 12.4414C13.7141 12.4414 13.6586 12.4302 13.607 12.4085C13.5554 12.3868 13.5086 12.3549 13.4695 12.3149C13.4304 12.2748 13.3996 12.2273 13.3791 12.1752C13.3586 12.1231 13.3487 12.0674 13.3501 12.0114V11.4414H14.1901ZM14.1901 14.1514V14.7214C14.1901 14.9614 14.0001 15.1514 13.7701 15.1514C13.7141 15.1514 13.6586 15.1402 13.607 15.1185C13.5554 15.0968 13.5086 15.0649 13.4695 15.0249C13.4304 14.9848 13.3996 14.9373 13.3791 14.8852C13.3586 14.8331 13.3487 14.7774 13.3501 14.7214V14.1514H14.1901ZM15.3301 12.7914V13.3614C15.3301 13.6014 15.1401 13.7914 14.9101 13.7914C14.8541 13.7914 14.7986 13.7802 14.747 13.7585C14.6954 13.7368 14.6486 13.7049 14.6095 13.6649C14.5704 13.6248 14.5396 13.5773 14.5191 13.5252C14.4986 13.4731 14.4887 13.4174 14.4901 13.3614V12.7914H15.3301ZM13.0501 12.7914V13.3614C13.0501 13.6014 12.8601 13.7914 12.6301 13.7914C12.5741 13.7914 12.5186 13.7802 12.467 13.7585C12.4154 13.7368 12.3686 13.7049 12.3295 13.6649C12.2904 13.6248 12.2596 13.5773 12.2391 13.5252C12.2186 13.4731 12.2087 13.4174 12.2101 13.3614V12.7914H13.0501Z" fill="#41479B"/>
</g>
</g>
<defs>
<clipPath id="clip0_26003_69733">
<rect width="38" height="25" fill="white" transform="translate(0 0.5)"/>
</clipPath>
<clipPath id="clip1_26003_69733">
<rect width="38" height="25" fill="white" transform="translate(0 0.5)"/>
</clipPath>
</defs>
</svg>
