<svg width="38" height="26" viewBox="0 0 38 26" fill="none" xmlns="http://www.w3.org/2000/svg">
<g clip-path="url(#clip0_26003_91894)">
<g clip-path="url(#clip1_26003_91894)">
<path d="M35.15 0.5H2.85002C2.47491 0.499998 2.10349 0.574045 1.75706 0.717896C1.41062 0.861747 1.096 1.07257 0.831219 1.33828C0.566441 1.60399 0.356721 1.91935 0.214084 2.26628C0.0714475 2.61321 -0.00129863 2.98489 1.75455e-05 3.36V22.64C-0.00129863 23.0151 0.0714475 23.3868 0.214084 23.7337C0.356721 24.0807 0.566441 24.396 0.831219 24.6617C1.096 24.9274 1.41062 25.1383 1.75706 25.2821C2.10349 25.426 2.47491 25.5 2.85002 25.5H35.16C35.9168 25.4974 36.6417 25.1949 37.1759 24.6588C37.7101 24.1227 38.01 23.3968 38.01 22.64V3.36C38.0074 2.60229 37.7052 1.87637 37.1694 1.34059C36.6337 0.804802 35.9077 0.502636 35.15 0.5Z" fill="#4B91F7"/>
<path d="M0.660018 13H18.35C18.71 13 19.01 12.71 19.01 12.34V1.16C19.0074 0.984044 18.9356 0.816185 18.8103 0.69269C18.6849 0.569195 18.516 0.49998 18.34 0.5H2.85002C2.47491 0.499998 2.10349 0.574045 1.75706 0.717896C1.41062 0.861747 1.096 1.07257 0.831219 1.33828C0.566441 1.60399 0.356721 1.91935 0.214084 2.26628C0.0714475 2.61321 -0.00129863 2.98489 1.75455e-05 3.36V12.34C1.75455e-05 12.71 0.290018 13 0.660018 13Z" fill="#2D389B"/>
<path d="M18.3401 0.500078H17.2001L11.1301 4.49008V0.500078H7.86008V4.49008L1.79008 0.500078H0.660078C0.573033 0.498728 0.486604 0.514878 0.405919 0.547568C0.325234 0.580258 0.251938 0.628823 0.190381 0.690381C0.128823 0.751938 0.0802581 0.825234 0.0475679 0.905919C0.0148777 0.986604 -0.00127164 1.07303 7.81407e-05 1.16008V1.68008L5.21008 5.11008H7.81407e-05V8.40008H5.21008L7.81407e-05 11.8201V12.3401C7.81407e-05 12.7001 0.290078 13.0001 0.660078 13.0001H1.80008L7.87008 9.01008V13.0001H11.1501V9.01008L17.2201 13.0001H18.3601C18.7201 13.0001 19.0201 12.7101 19.0201 12.3401V11.8201L13.8101 8.39008H19.0001V5.11008H13.7901L19.0001 1.68008V1.16008C19.0014 1.07303 18.9853 0.986604 18.9526 0.905919C18.9199 0.825234 18.8713 0.751938 18.8098 0.690381C18.7482 0.628823 18.6749 0.580258 18.5942 0.547568C18.5136 0.514878 18.4271 0.498728 18.3401 0.500078Z" fill="#F5F5F5"/>
<path d="M19 5.76H10.48V0.5H8.52V5.76H0V7.74H8.52V13H10.48V7.74H19V5.76Z" fill="#DD3344"/>
<path d="M0.609844 1.59L5.99984 5.11H7.19984L1.07984 1.11C0.909844 1.25 0.749844 1.41 0.609844 1.59ZM12.3398 5.11L18.8998 0.83C18.8445 0.729997 18.7633 0.646648 18.6649 0.588615C18.5664 0.530583 18.4542 0.499984 18.3398 0.5H18.1998L11.1298 5.11H12.3398ZM6.63984 8.39L0.0898438 12.66C0.199844 12.86 0.409844 13 0.649844 13H0.769844L7.83984 8.39H6.63984ZM18.9898 12.39L12.8498 8.39H11.6498L18.6198 12.93C18.8298 12.84 18.9698 12.63 18.9898 12.39Z" fill="#DD3344"/>
<path d="M23.9004 7.67969V14.8997C23.9004 17.8297 28.0004 19.3297 28.4904 19.4997C28.9904 19.3297 33.0804 17.8197 33.0804 14.8997V7.67969H23.9004Z" fill="#F5F5F5"/>
<path d="M33.2502 10.9895V7.51953H23.7402V10.9895H27.8502V14.2495H23.7402V15.5495H27.8502V19.4595L28.5002 19.6695L29.1402 19.4595V15.5495H33.2502V14.2495H29.1402V10.9895H33.2502Z" fill="#DD2839"/>
<path d="M24.8095 10.1796C25.1078 10.1796 25.3495 9.93784 25.3495 9.63961C25.3495 9.34138 25.1078 9.09961 24.8095 9.09961C24.5113 9.09961 24.2695 9.34138 24.2695 9.63961C24.2695 9.93784 24.5113 10.1796 24.8095 10.1796Z" fill="#F5F5F5"/>
<path d="M25.8503 8.89961C25.6803 8.79961 25.3603 8.54961 25.2403 8.58961C25.1103 8.62961 25.0903 8.71961 24.9103 8.73961C24.7403 8.74961 24.4703 8.91961 24.5803 9.10961C24.7303 9.34961 25.1803 9.15961 25.2203 9.04961C25.2203 9.04961 25.3303 9.06961 25.4303 9.04961C25.4303 9.04961 25.6203 9.30961 25.8503 9.29961C26.0803 9.27961 26.1903 8.98961 26.1403 8.98961C26.0424 8.96364 25.9456 8.93362 25.8503 8.89961ZM26.5603 10.0496C26.5203 10.1196 26.2203 10.3796 25.7303 10.4896C25.6203 10.5196 25.6403 10.6496 25.5303 10.5796C25.3108 10.4921 25.0765 10.448 24.8403 10.4496C24.7966 10.4513 24.7533 10.442 24.7142 10.4225C24.6751 10.403 24.6415 10.374 24.6166 10.3381C24.5917 10.3022 24.5762 10.2607 24.5716 10.2172C24.567 10.1738 24.5734 10.1299 24.5903 10.0896C24.6503 9.96961 25.0803 9.89961 25.1603 10.0496C25.2403 10.1896 25.3003 10.1596 25.4903 10.2096C25.6103 10.2396 25.6103 10.2896 25.6103 10.2896C25.6103 10.2896 25.8303 10.0696 26.0203 9.99961C26.2103 9.92961 26.3703 9.78961 26.4003 9.78961L26.6003 9.83961L26.5603 10.0496ZM27.2903 9.27961C27.5803 9.37961 28.4203 9.34961 29.3203 9.05961C30.2203 8.76961 30.4803 8.70961 30.9203 8.87961C31.3603 9.04961 31.5503 8.52961 31.2603 8.43961C30.8003 8.29961 29.4003 9.12961 28.3803 8.65961C28.3803 8.65961 28.3503 8.77961 28.3803 8.83961C28.3803 8.83961 27.6403 8.86961 27.8103 8.09961C27.8103 8.09961 27.8603 8.37961 28.2103 8.34961C28.8703 8.28961 28.9703 8.75961 30.3703 8.31961C31.1503 8.07961 31.7503 8.19961 31.7603 8.57961C31.7703 9.03961 31.1403 9.13961 31.1403 9.13961C31.1403 9.13961 31.3803 9.63961 31.8803 9.41961C32.3803 9.19961 32.4003 9.57961 32.4403 9.70961C32.4803 9.83961 32.5703 9.96961 32.6703 9.97961C32.6703 9.97961 32.7503 10.2096 32.7203 10.2496C32.6903 10.2796 32.4903 10.5396 32.2803 10.5396H31.6303C31.6303 10.5396 31.5103 10.2496 31.7403 10.2396C31.9703 10.2396 32.2403 10.2196 32.2003 10.0996C32.1803 9.97961 32.0003 9.91961 32.0103 9.78961C32.0103 9.78961 31.4903 10.1696 31.1603 9.71961L31.1503 9.92961C31.1503 9.92961 30.7603 9.85961 30.6103 9.53961C30.6103 9.53961 30.6503 9.89961 30.3103 9.83961C30.3103 9.83961 30.3803 9.93961 30.5003 10.0196C30.6203 10.0896 30.5003 10.2496 30.2703 10.3896C30.0403 10.5196 29.3503 10.9196 29.0403 10.5196C28.7203 10.1196 29.1103 9.88961 29.2003 9.91961C29.2903 9.94961 29.5703 10.3696 29.7503 10.3096C29.9403 10.2496 30.0303 10.0596 29.8703 9.93961C29.7103 9.81961 29.6003 9.70961 29.7003 9.58961C29.8403 9.42961 30.3303 9.47961 30.3203 9.36961C30.3003 9.25961 29.8403 9.28961 29.5403 9.59961C29.2403 9.89961 27.9203 10.5996 27.4003 10.1596C26.8703 9.70961 27.2903 9.27961 27.2903 9.27961Z" fill="#FFE15A"/>
<path d="M27.1204 9.09C27.1204 9.09 27.5204 9.48 28.1904 9.61C28.1904 9.61 28.0704 9.8 27.7104 9.75C27.7104 9.75 27.8504 9.87 27.9504 10.08C27.9504 10.08 27.7204 10.13 27.5204 10.02C27.5204 10.02 27.5504 10.19 27.6404 10.33C27.6404 10.33 27.3704 10.33 27.1504 10.13L27.0604 10.39C27.0604 10.39 26.9004 10.29 26.8104 10.08C26.8104 10.08 26.6304 10.22 26.4504 10.22C26.4504 10.22 26.5104 10.02 26.5104 9.91C26.5104 9.91 26.2504 10.07 26.0404 10.01C26.0404 10.01 26.0504 9.74 26.1204 9.66C26.1204 9.66 25.9504 9.68 25.8404 9.62L25.9404 9.37C25.9404 9.37 25.7604 9.38 25.6504 9.27C25.6504 9.27 26.0004 9.13 26.0804 9L27.1204 9.09Z" fill="#FFD25A"/>
<path d="M26.4801 7.99023C26.5601 8.03023 26.6801 8.13023 26.7401 8.29023C26.7401 8.29023 26.8801 8.08023 27.1301 8.04023C27.1301 8.04023 27.2401 8.16023 27.2101 8.48023C27.2101 8.48023 27.4801 8.40023 27.6301 8.55023C27.6301 8.55023 27.3401 8.62023 27.2101 8.86023C27.2101 8.86023 27.1601 9.11023 27.2501 9.26023C27.2501 9.26023 27.1501 9.27023 27.0501 9.23023C27.0501 9.23023 27.0001 9.48023 27.0501 9.56024C27.0501 9.56024 26.9101 9.54023 26.8301 9.39023C26.8301 9.39023 26.7101 9.57023 26.7201 9.68023C26.7201 9.68023 26.5601 9.59023 26.5601 9.45023C26.5601 9.45023 26.4501 9.65023 26.3301 9.67023C26.3301 9.67023 26.3201 9.38024 26.2701 9.27024C26.2701 9.27024 26.1701 9.38023 26.0401 9.37023C26.0401 9.37023 26.0401 9.15023 26.1501 9.04023C26.1501 9.04023 25.9701 9.10023 25.8701 8.90023C25.8701 8.90023 26.1701 8.99023 26.2401 8.80023C26.3101 8.62023 26.3401 8.56023 26.4401 8.46023C26.5201 8.37023 26.4801 7.99023 26.4801 7.99023Z" fill="#FFBE5A"/>
<path d="M27.1202 8.83047C27.1202 8.83047 26.7502 9.54047 26.4102 9.33047C26.0402 9.09047 26.5002 8.54047 26.5602 8.48047C26.5602 8.48047 26.8302 8.55047 27.1202 8.83047Z" fill="#FFE15A"/>
<path d="M25.7803 12.4699C25.7803 12.4699 25.7403 11.9599 25.4703 11.8099C25.2103 11.6699 25.0603 11.5999 25.0303 11.4199C25.0303 11.4199 25.2603 11.5199 25.4903 11.5899C25.7103 11.6499 25.9103 12.0099 25.8503 12.4299L25.7803 12.4699Z" fill="#5ABEA0"/>
<path d="M24.9102 12.8893L24.9502 12.9493L24.9802 13.0893L24.9302 13.2593C24.9302 13.2593 25.1302 13.3393 25.1802 13.6193C25.2102 13.8093 25.2902 13.8493 25.3502 13.8093C25.4002 13.7693 25.4302 13.7193 25.3802 13.5193C25.3102 13.2593 25.1302 12.9993 25.1302 12.9993L24.9902 12.7793L24.9102 12.8893Z" fill="#B46446"/>
<path d="M25.1103 13.0011C24.9303 12.7611 24.4203 12.2611 24.3303 12.9411C24.3303 12.9411 24.1303 12.3711 24.5003 12.3911C24.9303 12.4211 25.1103 13.0011 25.1103 13.0011Z" fill="#5ABEA0"/>
<path d="M24.9504 12.9605C24.7904 12.7805 24.7404 12.6505 24.6604 12.3305C24.5804 12.0105 24.5504 11.9105 24.4604 11.9105C24.3604 11.9205 24.3104 12.0205 24.3104 12.2305C24.3104 12.2305 24.0304 11.9805 24.2204 11.7805C24.4104 11.5805 24.8404 11.6905 24.8604 12.0505C24.8904 12.4105 24.8804 12.6505 25.0104 12.9505L24.9504 12.9605Z" fill="#5ABEA0"/>
<path d="M24.9909 12.8005C24.9909 12.8005 24.6509 12.0505 25.6009 11.6505C25.6009 11.6505 24.7609 11.4205 24.8609 12.6205L24.9909 12.8005ZM25.1009 13.0705C25.1009 13.0705 24.3909 12.8005 24.4509 13.4605C24.4509 13.4605 24.5709 13.1505 24.9209 13.2705L25.1009 13.0705Z" fill="#5ABEA0"/>
<path d="M25.9102 12.8095C25.9102 12.9995 25.9902 13.5695 25.8802 13.6395C25.8302 13.6795 25.6702 13.6495 25.6902 13.5095C25.7002 13.3695 25.7602 12.7095 25.7602 12.5495C25.7602 12.3795 25.9102 12.8095 25.9102 12.8095Z" fill="#B46446"/>
<path d="M25.4498 13.2598C25.5698 13.1298 25.6098 12.8498 25.5698 12.4698C25.5698 12.4698 25.8298 12.6498 25.9098 12.8098C25.9098 12.8098 25.9898 12.4298 25.7298 12.3298C25.4698 12.2298 25.3298 12.2898 25.2798 12.4098C25.2298 12.5298 25.3598 12.6698 25.4198 12.8598C25.4598 13.0498 25.4498 13.2598 25.4498 13.2598Z" fill="#5ABEA0"/>
<path d="M25.8897 12.7103C25.8897 12.7103 25.9297 12.5103 26.0697 12.4303C26.0697 12.4303 26.3597 12.6303 26.3397 12.9103C26.3397 12.9103 26.4197 12.5403 26.2597 12.3903C26.0997 12.2403 25.9197 12.2003 25.8397 12.3303C25.7497 12.4603 25.8897 12.7103 25.8897 12.7103Z" fill="#5ABEA0"/>
<path d="M25.9601 12.3297C25.9601 12.3297 26.0501 11.7997 26.2701 11.6797C26.5001 11.5597 26.9101 11.4497 26.9401 11.4297L26.3601 11.4597C26.2801 11.4597 25.8301 11.7797 25.8301 12.2697C25.8301 12.7497 25.8701 12.4197 25.8901 12.4197C25.9116 12.3883 25.935 12.3583 25.9601 12.3297Z" fill="#5ABEA0"/>
<path d="M26.1699 13.7398C26.2199 13.8498 26.3399 13.8698 26.3699 13.8198C26.3999 13.7598 26.5099 13.3398 26.5099 13.3398L26.3499 13.2598L26.1699 13.7398Z" fill="#B46446"/>
<path d="M27.1197 11.9594C27.3197 11.8394 27.4497 12.1894 27.4497 12.1894C27.4497 11.7794 27.3197 11.6494 26.9997 11.8094C26.8992 11.8689 26.8218 11.9605 26.7797 12.0694C26.6197 11.5994 26.2597 11.6094 26.2597 11.6094L26.1797 11.6694C26.4697 11.7294 26.6397 12.0794 26.7097 12.2694C26.6697 12.4094 26.6497 12.5394 26.6497 12.6194C26.4597 12.8194 26.3397 13.2594 26.3397 13.2594L26.4997 13.3394C26.4997 13.3394 26.5897 13.0594 26.6997 13.0694C26.8097 13.0794 26.9397 13.2594 26.9497 13.3694C26.9497 13.3694 27.1197 13.0294 26.9197 12.8994C26.8683 12.8581 26.8055 12.8336 26.7397 12.8294L26.8897 12.6594C27.1297 12.7094 27.2897 12.9294 27.2897 12.9294C27.2897 12.5194 27.1197 12.4494 26.9297 12.4794C26.9597 12.3194 27.0297 12.0094 27.1197 11.9594Z" fill="#5ABEA0"/>
<path d="M31.0496 12.5293V13.6793C31.0496 13.7393 30.8096 13.9493 30.8096 13.9493H31.4596C31.4596 13.9493 31.2496 13.7093 31.2496 13.6793L31.2996 12.6193L31.0496 12.5293Z" fill="#B46446"/>
<path d="M31.1 12.6392C30.95 12.6292 30.52 12.9792 30.4 13.5192C30.4 13.5192 30.02 12.8992 30.97 12.3892C30.97 12.3892 30.55 12.2692 29.91 12.9292C29.88 12.9692 29.84 11.9192 30.99 12.1992C30.99 12.1992 30.55 11.5592 29.65 12.0592C29.65 12.0592 30.25 10.9792 31.13 11.9492L31.14 11.1992L31.21 11.6692L31.38 11.3692L31.24 11.9892C31.24 11.9892 32.03 10.9392 32.7 12.0292C32.7 12.0292 31.84 11.6692 31.42 12.0692C31.42 12.0692 32.31 11.8292 32.24 12.8592C32.24 12.8592 31.89 12.2492 31.32 12.3292C31.32 12.3292 31.99 12.6392 31.78 13.4692C31.78 13.4792 31.37 12.6692 31.1 12.6392ZM25.44 16.3592C25.41 16.3192 25.36 16.2892 25.32 16.2892C25.34 16.2292 25.35 16.1992 25.34 16.1592L25.38 16.1692L25.39 16.1192C25.3292 16.1073 25.2715 16.0835 25.22 16.0492C25.26 16.0192 25.28 15.9692 25.28 15.9092C25.2797 15.8807 25.2733 15.8525 25.2612 15.8266C25.2491 15.8008 25.2317 15.7778 25.21 15.7592C25.1871 15.7768 25.1689 15.7996 25.1567 15.8257C25.1445 15.8518 25.1388 15.8804 25.14 15.9092C25.14 15.9592 25.16 15.9992 25.19 16.0292L25.12 15.9792C25.11 15.9392 25.1 15.8992 25.06 15.8692C25.01 15.8292 24.95 15.8092 24.9 15.8192C24.89 15.8692 24.91 15.9292 24.96 15.9692C25 15.9992 25.04 16.0092 25.08 16.0192L25.11 16.0392L25.02 16.0492C24.9926 16.0575 24.9679 16.0731 24.9486 16.0942C24.9292 16.1153 24.9159 16.1412 24.91 16.1692C24.95 16.1992 25.01 16.2092 25.07 16.1892C25.12 16.1692 25.16 16.1292 25.17 16.0892L25.28 16.1492H25.27L25.25 16.2692C25.2286 16.2538 25.2036 16.2439 25.1775 16.2404C25.1513 16.2369 25.1247 16.2399 25.1 16.2492C25.0731 16.2575 25.0483 16.2717 25.0276 16.2907C25.0068 16.3097 24.9906 16.3331 24.98 16.3592C25.02 16.3892 25.08 16.3992 25.14 16.3892C25.1618 16.3848 25.1823 16.3752 25.1996 16.3613C25.217 16.3474 25.2309 16.3295 25.24 16.3092L25.21 16.3892C25.17 16.4092 25.14 16.4292 25.12 16.4692C25.1076 16.4941 25.1012 16.5215 25.1012 16.5492C25.1012 16.577 25.1076 16.6044 25.12 16.6292C25.17 16.6192 25.22 16.5892 25.25 16.5292C25.2677 16.4882 25.2712 16.4425 25.26 16.3992L25.27 16.3592C25.27 16.3892 25.29 16.4192 25.31 16.4392C25.35 16.4892 25.4 16.5192 25.45 16.5192C25.49 16.4692 25.48 16.4092 25.44 16.3592Z" fill="#5ABEA0"/>
<path d="M25.1504 16.1991C25.3704 16.1991 25.6504 16.1891 25.6404 16.4091C25.6304 16.6291 25.3904 17.3591 25.9504 17.5891C26.5104 17.8191 26.5704 17.7791 26.5704 17.7791L26.8204 18.3591L27.4304 18.1391L26.8504 17.6691C26.8504 17.6691 26.8004 17.3491 26.6604 17.1391C26.6604 17.1391 27.0204 16.9591 27.1404 16.7991L26.8904 16.7791C26.8904 16.7791 27.2104 16.5691 27.3604 16.3391L27.1904 16.3591C27.1904 16.3591 27.3904 16.1591 27.4404 15.9291C27.4404 15.9291 27.1204 16.2591 26.7804 16.2991C26.7804 16.2991 26.9204 15.9291 26.9504 15.7891C26.9504 15.7891 26.7004 15.9491 26.5304 16.0191C26.3604 16.0891 26.0804 16.0991 26.2104 16.6591C26.2104 16.6591 26.0604 16.5291 25.9704 16.2691C25.8804 15.9991 25.8504 15.8991 25.7204 15.8991C25.5204 15.8991 25.4404 16.0791 25.4404 16.0791L25.1504 16.1991Z" fill="#FFECDE"/>
<path d="M31.2796 16.3092C31.3496 16.2092 31.4996 15.8992 31.6396 15.9792C31.7696 16.0592 31.9496 16.2592 32.0496 16.1692C32.1596 16.0792 32.1596 15.9592 31.9996 15.8992C31.8396 15.8392 31.6596 15.7492 31.5496 15.7892C31.4396 15.8292 31.0996 16.1792 31.0996 16.1792L31.2796 16.3092Z" fill="#B46446"/>
<path d="M30.32 16.5798C30.31 16.4398 30.41 15.8098 30.8 15.8898C31.01 15.9298 31.12 16.1598 31.39 16.2698C31.68 16.3798 31.87 16.4498 31.81 16.6498C31.75 16.8498 31.65 17.0798 31.4 17.1298C31.17 17.1798 30.32 16.5798 30.32 16.5798Z" fill="#FFE15A"/>
<path d="M30.06 17.0898C29.98 17.1098 29.67 17.5598 30.04 18.0198C30.04 18.0198 30.49 18.1998 30.85 17.9198C31.21 17.6398 30.94 17.4898 30.94 17.4898L30.06 17.0898Z" fill="#5ABEA0"/>
<path d="M30.0897 17.1898C30.0497 17.1298 30.0597 17.0898 30.0597 17.0898C30.0597 17.0898 30.0397 16.4398 30.3097 16.4298C30.5797 16.4198 31.5397 17.0598 31.5397 17.1598C31.5397 17.2698 31.2297 17.5698 30.9697 17.6398C30.7097 17.6998 30.0897 17.1898 30.0897 17.1898Z" fill="#5ABEA0"/>
<path d="M29.4297 18.7491C29.4297 18.7491 30.2797 18.3691 30.1197 18.0491C29.9997 17.8191 29.7497 17.9691 29.6997 18.1391C29.6597 18.3591 29.4897 18.6591 29.4297 18.7491Z" fill="#B46446"/>
<path d="M28.5001 19.8496L28.4501 19.8296C28.4001 19.8096 27.2301 19.4296 26.0301 18.6396C24.4301 17.5796 23.5801 16.2796 23.5801 14.8896V7.34961H33.4201V14.8896C33.4201 16.2796 32.5701 17.5696 30.9701 18.6396C29.7801 19.4296 28.6001 19.8096 28.5501 19.8296L28.5001 19.8496ZM23.9001 7.67961V14.8996C23.9001 17.8296 28.0001 19.3296 28.4901 19.4996C28.9901 19.3296 33.0801 17.8196 33.0801 14.8996V7.67961H23.9001Z" fill="#464655"/>
</g>
</g>
<defs>
<clipPath id="clip0_26003_91894">
<rect width="38" height="25" fill="white" transform="translate(0 0.5)"/>
</clipPath>
<clipPath id="clip1_26003_91894">
<rect width="38" height="25" fill="white" transform="translate(0 0.5)"/>
</clipPath>
</defs>
</svg>
