<svg width="38" height="26" viewBox="0 0 38 26" fill="none" xmlns="http://www.w3.org/2000/svg">
<g clip-path="url(#clip0_26003_69965)">
<g clip-path="url(#clip1_26003_69965)">
<path d="M35.2 25.5H2.8C1.3 25.5 0 24.2 0 22.6V3.4C0 1.8 1.3 0.5 2.8 0.5H35.1C36.7 0.5 38 1.8 38 3.4V22.7C38 24.2 36.7 25.5 35.2 25.5Z" fill="#F5F5F5"/>
<path d="M38 9.7H17V0.5H10.5V9.7H0V16.3H10.5V25.5H17V16.3H38V9.7Z" fill="#263299"/>
<path d="M38 11H15.7V0.5H11.8V11H0V15H11.8V25.5H15.7V15H38V11Z" fill="#ED263A"/>
</g>
</g>
<defs>
<clipPath id="clip0_26003_69965">
<rect width="38" height="25" fill="white" transform="translate(0 0.5)"/>
</clipPath>
<clipPath id="clip1_26003_69965">
<rect width="38" height="25" fill="white" transform="translate(0 0.5)"/>
</clipPath>
</defs>
</svg>
