<svg width="38" height="26" viewBox="0 0 38 26" fill="none" xmlns="http://www.w3.org/2000/svg">
<g clip-path="url(#clip0_26003_93617)">
<g clip-path="url(#clip1_26003_93617)">
<path fill-rule="evenodd" clip-rule="evenodd" d="M2.5 25.5H35.5C36.8 25.3 37.8 24.1 38 22.6V3.4C37.8 1.9 36.8 0.7 35.5 0.5H2.5C1.2 0.7 0.2 1.9 0 3.4V22.6C0.2 24.1 1.2 25.3 2.5 25.5Z" fill="#D3262F"/>
<path fill-rule="evenodd" clip-rule="evenodd" d="M11.1 6.69922C13.1 6.69922 14.8 7.89922 15.8 9.59922C15 8.59922 13.8 7.89922 12.5 7.89922C10 7.99922 8 10.1992 8 12.9992C8 15.7992 10 17.9992 12.4 17.9992C13.7 17.9992 14.9 17.3992 15.7 16.2992C14.7 17.9992 13 19.1992 11 19.1992C7.9 19.1992 5.5 16.3992 5.5 12.9992C5.5 9.59922 8 6.69922 11.1 6.69922ZM15.8 12.9992L18.4 13.9992L18.8 12.4992L15.8 12.9992Z" fill="#FEFEFE"/>
<path fill-rule="evenodd" clip-rule="evenodd" d="M15.7998 13L18.3998 12L18.7998 13.5L15.7998 13Z" fill="#FEFEFE"/>
<path fill-rule="evenodd" clip-rule="evenodd" d="M17.7002 10V13.2H19.1002L17.7002 10Z" fill="#FEFEFE"/>
<path fill-rule="evenodd" clip-rule="evenodd" d="M17.7002 10L19.3002 12.6L18.2002 13.5L17.7002 10Z" fill="#FEFEFE"/>
<path fill-rule="evenodd" clip-rule="evenodd" d="M17.7002 16L19.3002 13.4L18.2002 12.5L17.7002 16Z" fill="#FEFEFE"/>
<path fill-rule="evenodd" clip-rule="evenodd" d="M17.7002 16.0008V12.8008H19.1002L17.7002 16.0008Z" fill="#FEFEFE"/>
<path fill-rule="evenodd" clip-rule="evenodd" d="M20.7996 11.1992L18.0996 12.0992L18.5996 13.5992L20.7996 11.1992Z" fill="#FEFEFE"/>
<path fill-rule="evenodd" clip-rule="evenodd" d="M20.8 11.1992L19.2 13.6992L18 12.7992L20.8 11.1992Z" fill="#FEFEFE"/>
<path fill-rule="evenodd" clip-rule="evenodd" d="M20.8 14.8008L19.2 12.3008L18 13.2008L20.8 14.8008Z" fill="#FEFEFE"/>
<path fill-rule="evenodd" clip-rule="evenodd" d="M20.7996 14.8004L18.0996 13.9004L18.5996 12.4004L20.7996 14.8004Z" fill="#FEFEFE"/>
</g>
</g>
<defs>
<clipPath id="clip0_26003_93617">
<rect width="38" height="25" fill="white" transform="translate(0 0.5)"/>
</clipPath>
<clipPath id="clip1_26003_93617">
<rect width="38" height="25" fill="white" transform="translate(0 0.5)"/>
</clipPath>
</defs>
</svg>
