<svg width="62" height="26" viewBox="0 0 62 26" fill="none" xmlns="http://www.w3.org/2000/svg">
<g clip-path="url(#clip0_28004_3098)">
<g clip-path="url(#clip1_28004_3098)">
<g clip-path="url(#clip2_28004_3098)">
<path fill-rule="evenodd" clip-rule="evenodd" d="M2.5 25.6992H35.6C36.9 25.3992 37.9 24.2992 38.1 22.7992V3.59922C37.9 2.09922 36.9 0.899219 35.6 0.699219H2.5C1.2 0.999219 0.2 2.09922 0 3.59922V22.7992C0.2 24.2992 1.2 25.3992 2.5 25.6992Z" fill="#FEFEFE"/>
<path fill-rule="evenodd" clip-rule="evenodd" d="M25.4002 9.69766L37.5002 2.09766C37.2002 1.69766 36.9002 1.29766 36.5002 1.09766L22.8002 9.69766H25.4002ZM24.9002 17.1977L37.0002 24.8977C37.3002 24.5977 37.6002 24.1977 37.7002 23.6977L27.4002 17.1977H24.9002ZM0.200195 2.69766L11.2002 9.69766H13.8002L1.0002 1.49766C0.600195 1.89766 0.400195 2.29766 0.200195 2.69766ZM13.3002 17.1977L1.0002 24.8977C1.4002 25.2977 1.9002 25.5977 2.4002 25.6977L15.9002 17.1977H13.3002Z" fill="#C3283A"/>
<path fill-rule="evenodd" clip-rule="evenodd" d="M35.4 0.699219H22.1V9.09922L35.4 0.699219ZM16.2 0.699219H3L16.2 9.09922V0.699219ZM38 9.69922V3.99922L29 9.69922H38ZM38 22.7992V17.1992H29L38 22.7992ZM3.7 25.6992H16.2V17.7992L3.7 25.6992ZM22.1 25.6992H34.6L22.1 17.7992V25.6992ZM0 17.1992V23.0992L9.3 17.1992H0ZM0 9.69922H9.3L0 3.79922V9.69922Z" fill="#2D3577"/>
<path fill-rule="evenodd" clip-rule="evenodd" d="M17.4 0.699219V11.1992H0V15.6992H17.4V25.6992H20.9V15.6992H38V11.1992H20.9V0.699219H17.4Z" fill="#C3283A"/>
</g>
</g>
</g>
<path d="M46.4141 11.6953L51.4141 16.6953C51.5703 16.8646 51.7656 16.9492 52 16.9492C52.2344 16.9492 52.4297 16.8646 52.5859 16.6953L57.5859 11.6953C57.7552 11.5391 57.8398 11.347 57.8398 11.1191C57.8398 10.8913 57.7552 10.6927 57.5859 10.5234C57.4297 10.3672 57.2344 10.2891 57 10.2891C56.7656 10.2891 56.5703 10.3672 56.4141 10.5234L52 14.9375L47.5859 10.5234C47.4297 10.3672 47.2344 10.2891 47 10.2891C46.7656 10.2891 46.5703 10.3672 46.4141 10.5234C46.2448 10.6927 46.1602 10.8913 46.1602 11.1191C46.1602 11.347 46.2448 11.5391 46.4141 11.6953Z" fill="#5479FF"/>
<defs>
<clipPath id="clip0_28004_3098">
<rect y="0.699219" width="38" height="25" rx="5" fill="white"/>
</clipPath>
<clipPath id="clip1_28004_3098">
<rect width="38" height="25" fill="white" transform="translate(0 0.699219)"/>
</clipPath>
<clipPath id="clip2_28004_3098">
<rect width="38" height="25" fill="white" transform="translate(0 0.699219)"/>
</clipPath>
</defs>
</svg>
