<svg width="113" height="36" viewBox="0 0 113 36" fill="none" xmlns="http://www.w3.org/2000/svg">
<path opacity="0.7" d="M49.254 5.9108C49.0737 5.56082 48.798 5.27448 48.4586 5.08359C48.0731 4.88675 47.6452 4.78767 47.2125 4.79507C46.7797 4.80247 46.3554 4.91611 45.9769 5.12601C45.5951 5.34872 45.277 5.67748 45.0755 6.05927C44.8528 6.49409 44.7467 6.97133 44.7573 7.45917C44.7467 7.94702 44.8528 8.42426 45.0755 8.86968C45.277 9.26207 45.5951 9.59084 45.9769 9.80295C46.3799 10.0257 46.8254 10.1423 47.2814 10.1317C47.8654 10.155 48.4369 9.95816 48.8828 9.58023C49.307 9.18784 49.5721 8.65757 49.6358 8.08489H46.8678V7.1198H50.9296V8.06368C50.8174 8.94726 50.3831 9.75837 49.7099 10.3416C49.0367 10.9247 48.1719 11.239 47.2814 11.2241C46.7922 11.2311 46.3064 11.1413 45.852 10.9599C45.3976 10.7785 44.9835 10.509 44.6336 10.167C44.2837 9.82499 44.0049 9.41719 43.8132 8.96704C43.6215 8.51689 43.5207 8.03327 43.5165 7.54402V7.45917C43.5019 6.79516 43.6678 6.13964 43.9966 5.56251C44.3253 4.98539 44.8045 4.5083 45.383 4.18213C45.9962 3.84231 46.6889 3.67202 47.3898 3.68879C48.0907 3.70557 48.7744 3.9088 49.3706 4.27758C49.9857 4.65937 50.4524 5.24267 50.7069 5.9108H49.254ZM54.6521 11.2559C54.1324 11.2665 53.6128 11.1286 53.1567 10.8847C52.7124 10.639 52.348 10.2709 52.1068 9.82416C51.8392 9.3377 51.7074 8.78826 51.725 8.23336C51.7144 7.68189 51.8417 7.13041 52.1174 6.65317C52.3719 6.20775 52.7431 5.83656 53.1885 5.59264C53.6552 5.33811 54.1748 5.21085 54.7051 5.22145C55.2354 5.21085 55.755 5.33811 56.2217 5.59264C56.6671 5.83656 57.0383 6.20775 57.2928 6.65317C57.5584 7.13695 57.6937 7.68151 57.6852 8.23336C57.6958 8.78484 57.5579 9.33631 57.2822 9.81355C57.0171 10.259 56.6459 10.6302 56.1898 10.8741C55.7126 11.1286 55.1823 11.2665 54.6521 11.2559ZM54.6521 10.2059C55.2884 10.2166 55.8717 9.86658 56.1792 9.3151C56.3587 8.98355 56.4466 8.61015 56.4338 8.23336C56.4444 7.86218 56.3595 7.49099 56.1898 7.16222C56.0429 6.88471 55.818 6.65618 55.5429 6.5047C55.2782 6.35894 54.9808 6.28251 54.6786 6.28251C54.3764 6.28251 54.079 6.35894 53.8143 6.5047C53.5385 6.65317 53.3158 6.88649 53.1779 7.16222C53.0189 7.49099 52.934 7.86218 52.9552 8.23336C52.9128 8.76363 53.0931 9.29389 53.4325 9.69689C53.7506 10.0363 54.1854 10.2272 54.6521 10.2059ZM61.238 8.23336C61.2274 7.68189 61.3546 7.13041 61.5986 6.64257C61.8319 6.19714 62.1818 5.83656 62.6061 5.59264C63.0621 5.33811 63.5711 5.21085 64.0908 5.22145C64.7155 5.19817 65.3315 5.3726 65.8513 5.7199C66.3285 6.06988 66.6573 6.58954 66.7952 7.16222H65.4907C65.3947 6.8891 65.217 6.65213 64.9816 6.48349C64.7197 6.3149 64.4127 6.22984 64.1014 6.23956C63.6454 6.21835 63.2106 6.41985 62.9242 6.75922C62.6061 7.18344 62.447 7.7031 62.4788 8.22276C62.447 8.75302 62.6061 9.27268 62.9242 9.69689C63.2106 10.0469 63.656 10.2484 64.1014 10.2272C64.7271 10.2802 65.2998 9.89839 65.4907 9.3045H66.7952C66.6467 9.86658 66.3073 10.365 65.8407 10.7256C65.3362 11.0902 64.7232 11.2733 64.1014 11.2453C63.5817 11.2559 63.0727 11.1286 62.6167 10.8741C62.1823 10.6293 61.8314 10.2599 61.6092 9.81355C61.3452 9.32994 61.2169 8.78393 61.238 8.23336ZM67.6012 8.21215C67.5905 7.67128 67.7178 7.13041 67.9617 6.65317C68.1904 6.21679 68.5353 5.85212 68.9583 5.59946C69.3813 5.3468 69.8659 5.21598 70.3585 5.22145C71.1433 5.21085 71.8857 5.56082 72.3841 6.16533V5.3169H73.6038V11.1604H72.3841V10.2908C71.8963 10.9165 71.1327 11.2771 70.3373 11.2559C69.8452 11.2598 69.362 11.1245 68.9435 10.8655C68.5251 10.6066 68.1884 10.2345 67.9723 9.79234C67.7181 9.30507 67.5904 8.76167 67.6012 8.21215ZM72.3841 8.23336C72.3947 7.87278 72.3099 7.50159 72.1296 7.18344C71.9834 6.89989 71.7589 6.6643 71.4827 6.5047C71.2195 6.34904 70.9188 6.26835 70.6131 6.27138C69.9767 6.26077 69.3934 6.61075 69.0965 7.17283C68.9268 7.49099 68.842 7.85157 68.842 8.22276C68.8314 8.59394 68.9162 8.95452 69.0965 9.28329C69.5419 10.1211 70.5812 10.4393 71.4191 10.0044C71.7266 9.84537 71.9705 9.60144 72.1296 9.29389C72.2993 8.96513 72.3947 8.60455 72.3841 8.23336ZM76.4036 6.16533C76.5732 5.87898 76.8172 5.63506 77.1035 5.47598C77.4217 5.3063 77.7822 5.22145 78.1428 5.22145V6.47288H77.8353C77.4429 6.44106 77.0505 6.57893 76.7641 6.83346C76.4884 7.18344 76.3505 7.63946 76.4036 8.08489V11.1604H75.1945V5.3169H76.4036V6.16533ZM78.864 8.21215C78.8527 7.66933 78.9804 7.13265 79.2352 6.65317C79.444 6.2718 79.741 5.94592 80.1014 5.70273C80.4618 5.45955 80.8752 5.30612 81.307 5.25526C81.7388 5.2044 82.1765 5.25758 82.5836 5.41036C82.9907 5.56314 83.3553 5.81109 83.647 6.13351V3.3125H84.8666V11.1604H83.647V10.2802C83.1697 10.9059 82.4168 11.2771 81.6214 11.2559C81.1267 11.2588 80.6411 11.1233 80.2194 10.8647C79.7977 10.6061 79.4568 10.2346 79.2352 9.79234C78.9809 9.30507 78.8532 8.76167 78.864 8.21215ZM83.647 8.23336C83.6576 7.87278 83.5727 7.50159 83.3924 7.18344C83.242 6.89949 83.0139 6.66412 82.7349 6.5047C82.4718 6.34904 82.171 6.26835 81.8653 6.27138C81.5577 6.27138 81.2608 6.34562 80.9956 6.5047C80.7214 6.66553 80.4945 6.89604 80.3381 7.17283C80.1684 7.49099 80.0836 7.85157 80.0836 8.22276C80.073 8.59394 80.1578 8.95452 80.3381 9.28329C80.7729 10.1211 81.8123 10.4499 82.6501 10.0151L82.7349 9.97263C83.0107 9.81355 83.2334 9.56963 83.3924 9.29389C83.5621 8.96513 83.6576 8.60455 83.647 8.23336ZM94.5704 8.09549C94.5704 8.29699 94.5598 8.48789 94.528 8.68939H90.0632C90.1056 9.56963 90.848 10.259 91.7282 10.2378C92.3115 10.2802 92.863 9.95142 93.1069 9.42115H94.4114C94.2417 9.95142 93.9023 10.4074 93.4569 10.7362C92.9582 11.0962 92.3534 11.2791 91.7388 11.2559C91.2233 11.2782 90.7118 11.156 90.262 10.903C89.8123 10.65 89.4422 10.2763 89.1936 9.82416C88.9339 9.33506 88.806 8.78684 88.8224 8.23336C88.8118 7.68189 88.939 7.13041 89.1936 6.64257C89.4269 6.19714 89.7874 5.82596 90.2223 5.59264C90.6889 5.33811 91.2192 5.22145 91.7388 5.23206C92.2479 5.22145 92.7569 5.34872 93.213 5.59264C93.6372 5.82596 93.9871 6.17593 94.2205 6.60014C94.4538 7.05617 94.581 7.57583 94.5704 8.09549ZM93.3084 7.7137C93.3125 7.51106 93.2718 7.31001 93.1893 7.12487C93.1069 6.93972 92.9846 6.77505 92.8312 6.64257C92.5094 6.36907 92.0972 6.22538 91.6752 6.23956C91.2828 6.22896 90.901 6.37743 90.6041 6.64257C90.2965 6.9183 90.1056 7.3107 90.0738 7.7137H93.3084ZM98.1868 11.2347C97.7288 11.2409 97.2743 11.1543 96.8506 10.9801C96.4772 10.8231 96.1543 10.5662 95.9173 10.2378C95.6856 9.91361 95.5664 9.52249 95.5779 9.12421H96.8718C96.893 9.42115 97.0309 9.7075 97.243 9.909C97.5081 10.1317 97.8369 10.2378 98.1762 10.2166C98.5262 10.2378 98.8762 10.1317 99.1519 9.9196C99.2676 9.82526 99.3594 9.70511 99.4202 9.56882C99.481 9.43252 99.509 9.28388 99.5019 9.13481C99.509 9.02409 99.4928 8.91311 99.4545 8.809C99.4161 8.7049 99.3564 8.60996 99.2792 8.53031C99.1289 8.37024 98.9439 8.24686 98.7383 8.16973C98.4414 8.06368 98.1444 7.96823 97.8369 7.89399C97.4387 7.79721 97.0486 7.66956 96.6703 7.5122C96.3662 7.38271 96.1025 7.17394 95.9067 6.9077C95.684 6.58954 95.5673 6.19714 95.5885 5.80475C95.5779 5.41235 95.6946 5.01995 95.9067 4.69119C96.1294 4.36242 96.437 4.1079 96.7976 3.95942C97.2112 3.77913 97.6672 3.69429 98.1232 3.7049C98.7489 3.67308 99.3746 3.86398 99.8731 4.23516C100.329 4.59574 100.605 5.13661 100.626 5.7093H99.2898C99.2803 5.5735 99.2412 5.44144 99.1752 5.32235C99.1093 5.20327 99.0181 5.10006 98.908 5.01995C98.6451 4.81635 98.3174 4.71465 97.9853 4.73361C97.6778 4.72301 97.3808 4.81845 97.1369 4.99874C97.0255 5.09086 96.9376 5.20814 96.8805 5.3409C96.8233 5.47366 96.7985 5.6181 96.8082 5.76232C96.7976 5.96383 96.8824 6.16533 97.0203 6.32441C97.1687 6.47288 97.349 6.58954 97.5399 6.66378C97.8263 6.76983 98.1126 6.86528 98.4096 6.93951C98.8126 7.04557 99.2156 7.18344 99.5974 7.34251C100.308 7.62886 100.743 8.32881 100.7 9.09239C100.7 9.88779 100.244 10.6089 99.5231 10.9589C99.1201 11.1498 98.6535 11.2453 98.1868 11.2347ZM103.373 3.78974V11.1604H102.164V3.78974H103.373ZM112.727 3.78974V11.1604H111.518V6.1123L109.269 11.1604H108.432L106.173 6.1123V11.1604H104.964V3.78974H106.268L108.856 9.56963L111.433 3.78974H112.727Z" fill="black"/>
<path opacity="0.4" d="M46.8679 25.0209C46.4239 25.0239 45.9838 24.9377 45.5736 24.7675C45.1635 24.5974 44.7917 24.3466 44.4802 24.0302C44.1687 23.7138 43.9239 23.3381 43.7602 22.9253C43.5965 22.5126 43.5173 22.0712 43.5272 21.6272C43.5166 21.0121 43.6757 20.4076 43.9726 19.8774C44.259 19.3683 44.6726 18.9547 45.1816 18.6684C45.6976 18.3824 46.278 18.2327 46.8679 18.2335C47.2996 18.2265 47.7285 18.3046 48.1301 18.4634C48.5317 18.6222 48.898 18.8585 49.2082 19.1588C49.5185 19.4592 49.7665 19.8178 49.9381 20.214C50.1097 20.6102 50.2016 21.0364 50.2085 21.4682V21.6378C50.2191 22.253 50.0707 22.8575 49.7737 23.3983C49.4874 23.9074 49.0738 24.321 48.5753 24.6073C48.0557 24.8725 47.4618 25.0209 46.8679 25.0209ZM46.8679 24.268C47.7587 24.2786 48.5753 23.8013 48.9995 23.0165C49.2222 22.5817 49.3283 22.1045 49.3177 21.6272C49.3283 21.1394 49.2222 20.6622 48.9995 20.2273C48.7952 19.8416 48.4876 19.5204 48.1111 19.2994C47.7347 19.0784 47.3043 18.9664 46.8679 18.9759C46.4224 18.9653 45.9876 19.082 45.6058 19.3047C45.2347 19.5274 44.9271 19.8455 44.7362 20.2273C44.5135 20.6622 44.4074 21.1394 44.418 21.6272C44.4074 22.1151 44.5135 22.5923 44.7362 23.0165C44.9377 23.3983 45.2347 23.7271 45.6164 23.9392C45.9982 24.1619 46.4331 24.268 46.8679 24.268ZM51.11 24.2574C51.916 23.6104 52.5523 23.0802 53.0083 22.656C53.4432 22.2636 53.8249 21.8287 54.1643 21.3409C54.4613 20.9485 54.6203 20.4819 54.6416 20.0046C54.6628 19.6547 54.5567 19.3047 54.3446 19.0289C54.2198 18.9021 54.0687 18.804 53.902 18.7417C53.7353 18.6795 53.557 18.6544 53.3795 18.6684C53.1923 18.6571 53.0048 18.6874 52.8307 18.7571C52.6565 18.8268 52.4999 18.9341 52.372 19.0714C52.1175 19.3789 51.9796 19.7607 51.9902 20.1531H51.1418C51.1309 19.5379 51.3634 18.9433 51.7887 18.4987C52.2129 18.1063 52.7856 17.8942 53.3583 17.9154C53.931 17.8836 54.4931 18.0851 54.9173 18.4563C55.3097 18.8486 55.5218 19.4001 55.49 19.9516C55.4831 20.4996 55.3173 21.0338 55.0127 21.4894C54.7158 21.9772 54.3552 22.4226 53.9416 22.815C53.5386 23.1968 53.0296 23.6316 52.4038 24.1407H55.6915V24.8619H51.11V24.2574Z" fill="black"/>
<path fill-rule="evenodd" clip-rule="evenodd" d="M0.109375 15.2642C0.109375 23.3349 5.86805 29.9738 14.1614 29.9738C22.4547 29.9738 28.1392 23.2606 28.1392 15.2642C28.1392 6.73758 22.529 0.554688 14.1614 0.554688C5.70898 0.554688 0.109375 6.74818 0.109375 15.2642ZM5.47566 15.2642C5.47566 9.90856 8.62543 4.70136 14.0766 4.70136C19.4534 4.70136 22.6775 9.90856 22.6775 15.2642C22.6775 20.323 20.0686 25.8271 14.0766 25.8271C8.1694 25.8271 5.47566 20.323 5.47566 15.2642Z" fill="#04256C"/>
<path d="M35.7329 35.5628V33.6009H30.7378C32.7316 31.5647 35.3511 29.1466 35.3511 26.5059C35.3511 24.0879 33.8133 22.8789 31.512 22.8789C30.2818 22.8789 28.9773 23.1865 27.8956 23.791L28.1289 25.8272C28.9559 25.2222 29.9469 24.882 30.9711 24.8515C31.968 24.8515 32.9649 25.3818 32.9649 26.5059C32.9649 28.7755 28.8182 32.3176 27.6729 33.4524V35.5628H35.7329Z" fill="#04256C"/>
</svg>
