<svg width="118" height="38" viewBox="0 0 118 38" fill="none" xmlns="http://www.w3.org/2000/svg">
<path d="M0.290839 2.08523C0.460496 1.84287 0.920992 1.50355 1.30878 1.28542C1.7208 1.09153 2.10859 0.921875 2.20553 0.921875C2.32672 0.921875 2.78721 1.09153 3.24771 1.28542C3.75668 1.50355 4.24141 1.96405 4.48378 2.42455C4.72614 2.90928 4.82309 3.51519 4.72614 3.95145C4.65343 4.36348 4.41107 4.87244 4.1687 5.09057C3.92633 5.3087 3.4416 5.59954 3.07805 5.74496C2.54485 5.96309 2.20553 5.91462 1.50267 5.62378C0.993701 5.40565 0.460496 5.06634 0.290839 4.84821C0.121183 4.63008 0 3.99993 0 3.46672C0 2.93351 0.121183 2.30336 0.290839 2.08523Z" fill="#36A83A"/>
<path d="M32.4528 2.061C32.7437 1.67321 33.2042 1.26119 33.495 1.16424C33.7859 1.04306 34.1736 0.946112 34.3191 0.946112C34.4887 0.921875 35.0219 1.09153 35.4824 1.28542C35.9429 1.47932 36.4276 1.8671 36.5731 2.13371C36.6942 2.40031 36.8154 3.00622 36.8154 3.46672C36.8154 3.92722 36.6942 4.53313 36.5731 4.79973C36.4276 5.06634 35.9187 5.45412 35.4097 5.67225C34.925 5.86615 34.2221 5.98733 33.8343 5.91462C33.4708 5.84191 32.9133 5.45412 32.574 5.0421C32.2105 4.60584 31.9681 3.99993 31.9681 3.51519C31.9439 3.10317 32.1862 2.42455 32.4528 2.061Z" fill="#36A83A"/>
<path d="M7.70725 3.61214C7.68301 2.3276 7.75572 2.10947 8.31316 1.69745C8.82213 1.28542 9.08873 1.23695 9.71888 1.43084C10.1551 1.55203 10.5187 1.64897 10.5429 1.64897C10.5429 1.64897 10.6883 2.01252 10.858 2.42455C11.0034 2.8608 11.1246 3.63638 11.1246 4.12111C11.1246 4.63008 10.8822 5.67225 10.5914 6.42359C10.2521 7.36882 9.67041 8.24133 8.84637 9.06538C8.02232 9.86519 7.19828 10.4226 6.39847 10.6892C5.71984 10.9316 4.94427 11.1013 4.62919 11.1013C4.33836 11.1013 3.87786 10.8831 3.61126 10.6165C3.34465 10.3499 3.12652 9.84095 3.12652 9.45317C3.10229 9.08962 3.29618 8.62912 3.53855 8.41099C3.78091 8.19286 4.28988 7.92626 4.7019 7.85355C5.08969 7.7566 5.79255 7.41729 6.20458 7.07798C6.64083 6.7629 7.17404 6.18122 7.36793 5.7692C7.58606 5.35718 7.73148 4.43619 7.70725 3.61214Z" fill="#36A83A"/>
<path d="M13.9845 2.01252C14.0815 1.8671 14.3723 1.62474 14.6389 1.47932C14.9055 1.30966 15.2691 1.23695 15.4145 1.28542C15.5841 1.35813 15.8265 1.40661 15.9719 1.40661C16.1174 1.40661 16.384 1.57626 16.5778 1.77016C16.8445 2.03676 16.9414 2.69115 16.9414 4.24229C16.9414 5.42989 16.796 6.90832 16.6263 7.58695C16.4567 8.24133 15.875 9.57435 15.366 10.4953C14.857 11.4163 13.8149 12.7978 13.0878 13.5249C12.2637 14.349 11.0034 15.2457 9.91278 15.7789C8.604 16.4576 7.92537 16.6514 7.48912 16.5545C7.1498 16.4576 6.76202 16.2152 6.59236 15.9728C6.4227 15.7547 6.30152 15.3184 6.27729 14.9791C6.27729 14.6398 6.37423 14.252 6.47118 14.1066C6.56812 13.9612 7.24675 13.5249 7.97385 13.1614C8.70095 12.7978 9.71889 12.1434 10.2279 11.7314C10.7368 11.3194 11.5366 10.4226 11.9971 9.76824C12.4576 9.08962 13.0393 7.87779 13.3059 7.0295C13.5967 6.15699 13.7906 4.84821 13.7906 3.87874C13.7906 2.98199 13.8876 2.13371 13.9845 2.01252Z" fill="#36A83A"/>
<path d="M19.874 2.5942C20.0437 2.10947 20.4315 1.6005 20.6981 1.45508C20.9647 1.30966 21.2555 1.18848 21.3525 1.18848C21.4736 1.16424 21.7887 1.28542 22.0796 1.43084C22.3946 1.6005 22.7097 1.84287 22.8067 1.98829C22.9036 2.13371 23.0006 2.95775 23.0006 3.83027C23.0006 4.70279 23.1944 6.10851 23.4611 6.98103C23.7277 7.85355 24.382 9.16233 24.9152 9.88943C25.4485 10.6165 26.3452 11.5618 26.9269 11.998C27.5086 12.41 28.478 12.9917 29.1082 13.2583C29.8595 13.5976 30.32 13.9612 30.417 14.3005C30.4897 14.6156 30.4897 15.1488 30.417 15.5123C30.3442 15.9001 30.0292 16.3121 29.7141 16.4576C29.4233 16.603 28.8416 16.6757 28.4538 16.5787C28.066 16.506 26.9027 15.9243 25.9089 15.27C24.9152 14.6156 23.7519 13.6946 23.3156 13.2583C22.9036 12.7978 22.1523 11.7799 21.6675 10.9801C21.1828 10.1803 20.6011 8.87149 20.3588 8.07168C20.1164 7.27187 19.8256 5.91462 19.7286 5.0421C19.6074 3.92722 19.6559 3.20012 19.874 2.5942Z" fill="#36A83A"/>
<path d="M25.9332 2.42455C26.1271 1.96405 26.5391 1.52779 26.8784 1.40661C27.2177 1.30966 27.7025 1.26119 27.9691 1.3339C28.2357 1.40661 28.5992 1.62474 28.7689 1.8671C28.9385 2.08523 29.0597 2.90928 29.0597 3.70909C29.0597 4.75126 29.2051 5.38141 29.5444 5.93886C29.811 6.37511 30.3927 6.95679 30.8047 7.2234C31.241 7.49 31.8712 7.78084 32.2105 7.87779C32.5498 7.9505 33.0103 8.19286 33.2526 8.41099C33.495 8.62912 33.6889 9.06538 33.6647 9.40469C33.6647 9.74401 33.495 10.253 33.3011 10.5438C33.0345 10.9558 32.6952 11.1013 32.0166 11.1013C31.5318 11.1013 30.5624 10.8347 29.908 10.5196C29.2294 10.2045 28.3084 9.52588 27.7994 9.01691C27.3147 8.4837 26.6845 7.63542 26.4179 7.10221C26.1271 6.56901 25.8362 5.47836 25.7393 4.67855C25.6423 3.66061 25.6908 2.98199 25.9332 2.42455Z" fill="#36A83A"/>
<path d="M15.2448 16.4818C15.9719 16.3121 16.796 16.1425 17.0626 16.094C17.3292 16.0213 18.2502 16.0213 19.1227 16.094C19.9952 16.1667 21.2313 16.3364 21.9099 16.5303C22.5643 16.6999 23.8246 17.2089 24.6729 17.6694C25.5454 18.1299 26.5391 18.7843 26.9269 19.1478C27.3147 19.5356 27.6055 20.093 27.6055 20.4324C27.6055 20.7717 27.3631 21.2564 27.0481 21.523C26.7572 21.7896 26.2483 22.0077 25.9089 22.0077C25.5696 22.0077 24.9152 21.6927 24.4548 21.3533C23.9943 20.9898 23.0006 20.4324 22.2735 20.0688C21.1101 19.5356 20.6011 19.4629 18.3956 19.4629C16.1174 19.4629 15.7053 19.5356 14.3966 20.1415C13.5967 20.5293 12.5788 21.0867 12.1425 21.4261C11.7305 21.7411 11.1004 22.0077 10.7611 22.0077C10.4217 22.0077 9.93702 21.7896 9.67041 21.523C9.40381 21.2564 9.18568 20.7717 9.18568 20.4324C9.18568 20.093 9.42805 19.5841 9.71888 19.269C10.034 18.9539 10.7126 18.445 11.2458 18.1056C11.779 17.7906 12.603 17.3543 13.0635 17.1362C13.524 16.918 14.5177 16.6272 15.2448 16.4818Z" fill="#36A83A"/>
<path d="M13.8876 23.6074C14.3966 23.1953 15.3903 22.6621 16.0689 22.444C16.7475 22.2016 17.7412 22.0077 18.2744 22.0077C18.8076 22.0077 19.7771 22.1532 20.4557 22.3471C21.1101 22.5409 22.128 23.0499 22.6855 23.4377C23.2672 23.8497 23.8973 24.4556 24.0912 24.7949C24.382 25.3039 24.4063 25.522 24.1397 26.1522C23.9943 26.5885 23.6549 27.0247 23.4126 27.1217C23.1944 27.2428 22.8551 27.3398 22.6855 27.3398C22.5401 27.3398 21.7887 26.9035 21.0616 26.3461C19.8013 25.4009 19.6559 25.3524 18.2744 25.4251C17.3777 25.4978 16.5536 25.6917 16.2143 25.9341C15.875 26.1764 15.3175 26.6127 14.9298 26.9035C14.3723 27.364 14.1542 27.4125 13.5967 27.2186C13.2332 27.0732 12.7969 26.6612 12.6273 26.2976C12.3849 25.7644 12.3849 25.522 12.6273 24.9888C12.7969 24.6495 13.3544 24.0194 13.8876 23.6074Z" fill="#36A83A"/>
<path d="M16.2143 30.0058C16.3597 29.7392 16.8202 29.303 17.2322 29.0364C17.6685 28.7698 18.1048 28.5516 18.2017 28.5516C18.3229 28.5516 18.7591 28.697 19.1712 28.8667C19.6074 29.0364 20.1649 29.4484 20.4072 29.7877C20.6254 30.1028 20.8193 30.7329 20.8193 31.1449C20.8193 31.6297 20.5769 32.2356 20.2133 32.6719C19.7044 33.2778 19.4378 33.3989 18.5168 33.3989C17.62 33.3989 17.2807 33.2535 16.699 32.6719C16.2143 32.1871 15.9719 31.7024 15.9719 31.2177C15.9719 30.8299 16.0689 30.2724 16.2143 30.0058Z" fill="#36A83A"/>
<path d="M40.9564 21.6958C40.9564 22.5037 41.0573 23.2555 41.2593 23.9512C41.4837 24.6244 41.7979 25.2191 42.2018 25.7352C42.6058 26.2514 43.1107 26.6553 43.7166 26.9471C44.3225 27.2388 45.0182 27.3847 45.8036 27.3847C48.2048 27.3847 49.7084 26.1841 50.3143 23.7829L53.0409 24.1195C52.5247 25.9372 51.6159 27.2949 50.3143 28.1925C49.0352 29.0902 47.4979 29.539 45.7027 29.539C44.4684 29.5614 43.3688 29.3595 42.4038 28.9331C41.4613 28.4843 40.6534 27.8896 39.9802 27.149C39.3294 26.386 38.8357 25.4996 38.4991 24.4898C38.1624 23.4575 37.9941 22.3691 37.9941 21.2246C37.9941 19.923 38.1512 18.7448 38.4654 17.6901C38.7796 16.6354 39.2508 15.7377 39.8792 14.9972C40.5075 14.2342 41.3042 13.6507 42.2692 13.2468C43.2341 12.8428 44.3674 12.6409 45.669 12.6409C46.9257 12.6409 48.0253 12.854 48.9678 13.2804C49.9104 13.7068 50.6846 14.3015 51.2905 15.0645C51.9188 15.8275 52.3901 16.7251 52.7043 17.7574C53.0185 18.7673 53.1755 19.8669 53.1755 21.0563V21.6958H40.9564ZM50.2133 19.5415C50.1236 18.8907 49.9665 18.2736 49.7421 17.6901C49.5176 17.1066 49.2035 16.6017 48.7995 16.1753C48.3956 15.7489 47.9131 15.4123 47.3521 15.1655C46.791 14.9186 46.129 14.7952 45.366 14.7952C44.6928 14.7952 44.0869 14.9298 43.5483 15.1991C43.0322 15.4684 42.5833 15.8275 42.2018 16.2763C41.8428 16.7027 41.5511 17.2076 41.3266 17.7911C41.1247 18.3521 41.0012 18.9356 40.9564 19.5415H50.2133Z" fill="#313131"/>
<path d="M59.8592 26.3748H68.3756C69.6548 26.3524 70.7095 26.0382 71.5398 25.4323C72.3701 24.8039 72.7853 23.8165 72.7853 22.4701C72.7853 21.4378 72.617 20.6299 72.2804 20.0464C71.9662 19.4405 71.551 19.0029 71.0349 18.7336C70.5187 18.4419 69.924 18.2623 69.2508 18.195C68.5776 18.1277 67.9044 18.094 67.2311 18.094H59.8592V26.3748ZM59.8592 15.3338H67.1638C67.8146 15.3338 68.4317 15.2889 69.0152 15.1991C69.6211 15.0869 70.1485 14.8962 70.5973 14.6269C71.0461 14.3352 71.4052 13.9424 71.6745 13.4487C71.9437 12.955 72.0784 12.3155 72.0784 11.53C72.0784 10.6324 71.9325 9.9367 71.6408 9.443C71.3491 8.94929 70.9676 8.59023 70.4963 8.36582C70.025 8.14141 69.4977 8.01799 68.9142 7.99555C68.3307 7.95066 67.736 7.92822 67.1301 7.92822H59.8592V15.3338ZM56.695 5.16797H67.9044C69.363 5.16797 70.5748 5.35872 71.5398 5.74022C72.5272 6.12171 73.3127 6.61542 73.8961 7.22133C74.4796 7.8048 74.8947 8.46681 75.1416 9.20737C75.3885 9.94792 75.5119 10.6773 75.5119 11.3954C75.5119 12.6296 75.1753 13.7068 74.502 14.6269C73.8512 15.5245 73.0209 16.1304 72.0111 16.4446V16.5119C73.4922 16.871 74.5581 17.6116 75.2089 18.7336C75.8822 19.8332 76.2188 21.1236 76.2188 22.6047C76.2188 23.0535 76.1402 23.6482 75.9831 24.3888C75.8261 25.1293 75.4894 25.8587 74.9733 26.5768C74.4796 27.2724 73.7503 27.8784 72.7853 28.3945C71.8203 28.8882 70.5412 29.1351 68.9479 29.1351H56.695V5.16797Z" fill="#313131"/>
<path d="M89.0294 13.0448H91.857L84.889 32.6695C84.687 33.253 84.4626 33.814 84.2158 34.3526C83.9689 34.8912 83.666 35.3625 83.3069 35.7664C82.9479 36.1703 82.5103 36.4845 81.9941 36.7089C81.478 36.9558 80.8496 37.0792 80.1091 37.0792C79.7051 37.0792 79.3012 37.0231 78.8972 36.9109C78.4933 36.8211 78.123 36.7201 77.7864 36.6079V34.218C77.9659 34.2628 78.224 34.319 78.5606 34.3863C78.9197 34.476 79.2563 34.5209 79.5705 34.5209C80.1539 34.5209 80.6476 34.3751 81.0516 34.0833C81.4555 33.7916 81.8258 33.1857 82.1624 32.2656L83.2733 29.1687L77.8537 13.0448H80.7823L84.7544 25.1966H84.8217L89.0294 13.0448Z" fill="#313131"/>
<path d="M92.5415 13.0448H95.2008V8.02921H97.961V13.0448H100.957V15.4011H97.961V25.6342C97.961 26.0157 98.0059 26.3748 98.0957 26.7114C98.1854 27.0256 98.5108 27.1827 99.0719 27.1827C99.386 27.1827 99.6778 27.1602 99.9471 27.1154C100.216 27.048 100.497 26.9583 100.789 26.8461V29.2024C100.34 29.3146 99.8797 29.3931 99.4085 29.438C98.9597 29.5053 98.5108 29.539 98.062 29.539C97.3439 29.539 96.7941 29.4605 96.4126 29.3034C96.0311 29.1463 95.7506 28.9331 95.5711 28.6638C95.3915 28.3721 95.2793 28.0354 95.2344 27.6539C95.212 27.25 95.2008 26.8236 95.2008 26.3748V15.4011H92.5415V13.0448Z" fill="#313131"/>
<path d="M105.781 21.6958C105.781 22.5037 105.882 23.2555 106.084 23.9512C106.309 24.6244 106.623 25.2191 107.027 25.7352C107.431 26.2514 107.936 26.6553 108.542 26.9471C109.147 27.2388 109.843 27.3847 110.629 27.3847C113.03 27.3847 114.533 26.1841 115.139 23.7829L117.866 24.1195C117.35 25.9372 116.441 27.2949 115.139 28.1925C113.86 29.0902 112.323 29.539 110.528 29.539C109.293 29.5614 108.194 29.3595 107.229 28.9331C106.286 28.4843 105.478 27.8896 104.805 27.149C104.154 26.386 103.661 25.4996 103.324 24.4898C102.987 23.4575 102.819 22.3691 102.819 21.2246C102.819 19.923 102.976 18.7448 103.29 17.6901C103.605 16.6354 104.076 15.7377 104.704 14.9972C105.332 14.2342 106.129 13.6507 107.094 13.2468C108.059 12.8428 109.192 12.6409 110.494 12.6409C111.751 12.6409 112.85 12.854 113.793 13.2804C114.735 13.7068 115.51 14.3015 116.115 15.0645C116.744 15.8275 117.215 16.7251 117.529 17.7574C117.843 18.7673 118 19.8669 118 21.0563V21.6958H105.781ZM115.038 19.5415C114.949 18.8907 114.791 18.2736 114.567 17.6901C114.343 17.1066 114.028 16.6017 113.624 16.1753C113.221 15.7489 112.738 15.4123 112.177 15.1655C111.616 14.9186 110.954 14.7952 110.191 14.7952C109.518 14.7952 108.912 14.9298 108.373 15.1991C107.857 15.4684 107.408 15.8275 107.027 16.2763C106.668 16.7027 106.376 17.2076 106.152 17.7911C105.95 18.3521 105.826 18.9356 105.781 19.5415H115.038Z" fill="#313131"/>
</svg>
