<svg width="37" height="10" viewBox="0 0 37 10" fill="none" xmlns="http://www.w3.org/2000/svg">
<path opacity="0.7" d="M0.280014 1.98038C0.301225 1.45012 0.545146 0.941061 0.958753 0.601691C1.41478 0.251716 1.96626 0.0820312 2.53895 0.103242C2.92074 0.0926365 3.31313 0.177479 3.66311 0.336559C3.96006 0.474427 4.20399 0.697139 4.38428 0.972877C4.54336 1.24861 4.62819 1.55617 4.62819 1.88493C4.6388 2.25612 4.52213 2.6167 4.28882 2.90304C4.06611 3.18938 3.75855 3.38028 3.40858 3.45452V3.50754C3.79037 3.59239 4.14035 3.80449 4.39488 4.11205C4.6494 4.45142 4.77666 4.86502 4.75545 5.28924C4.75545 5.6286 4.67062 5.96797 4.51154 6.26492C4.34185 6.56187 4.07672 6.79519 3.76917 6.94366C3.39798 7.12395 2.98437 7.20879 2.57076 7.19819C1.97057 7.22346 1.38077 7.03563 0.905723 6.66792C0.684869 6.48303 0.50622 6.25294 0.381818 5.99316C0.257416 5.73338 0.19016 5.44995 0.18457 5.16197H1.02238C1.0542 5.52255 1.22389 5.85132 1.48902 6.09524C1.78597 6.34976 2.16777 6.47703 2.56016 6.45582C2.93135 6.47703 3.30253 6.36037 3.57826 6.10584C3.81158 5.86192 3.93885 5.54376 3.92824 5.20439C3.96006 4.80139 3.77977 4.409 3.45101 4.17568C3.01007 3.93515 2.50989 3.82481 2.00868 3.85752H1.78597V3.13636H2.01928C2.47531 3.15757 2.94194 3.06212 3.34495 2.85002C3.49065 2.75864 3.60898 2.62959 3.68738 2.47651C3.76579 2.32344 3.80136 2.15202 3.79037 1.98038C3.79639 1.83034 3.77017 1.68075 3.71345 1.5417C3.65674 1.40266 3.57086 1.2774 3.46161 1.17438C3.19815 0.95446 2.86018 0.844335 2.51773 0.866824C2.17836 0.845613 1.839 0.962271 1.56326 1.17438C1.31934 1.38648 1.17086 1.67283 1.13904 1.99099L0.280014 1.98038ZM5.92204 3.6242C5.87962 2.73336 6.05991 1.85312 6.45231 1.05772C6.85531 0.421401 7.57646 0.0608206 8.31884 0.135058C9.06121 0.0608206 9.78236 0.421401 10.1854 1.05772C10.5778 1.85312 10.758 2.73336 10.7156 3.6242C10.7687 4.52565 10.5778 5.4165 10.1854 6.2225C9.79297 6.85882 9.07181 7.2194 8.32944 7.14516C7.58706 7.2194 6.8553 6.85882 6.46291 6.2225C6.06259 5.41718 5.87633 4.52237 5.92204 3.6242ZM9.86722 3.6242C9.87782 3.15757 9.83539 2.68033 9.76116 2.2137C9.70813 1.86372 9.54905 1.54556 9.31574 1.28043C9.18837 1.15461 9.03507 1.05811 8.86655 0.997665C8.69803 0.937218 8.51835 0.914281 8.34005 0.930455C7.97947 0.909245 7.61888 1.03651 7.35375 1.28043C7.12043 1.53496 6.96136 1.86372 6.90833 2.2137C6.83409 2.68033 6.79168 3.14696 6.80229 3.6242C6.79168 4.11205 6.83409 4.58928 6.90833 5.06652C6.96136 5.4165 7.12043 5.74526 7.35375 5.99979C7.61888 6.25432 7.97947 6.38158 8.34005 6.34977C8.70063 6.37098 9.06121 6.24371 9.31574 5.99979C9.54905 5.73466 9.70813 5.4165 9.76116 5.06652C9.83539 4.58928 9.87782 4.11205 9.86722 3.6242ZM14.2896 4.51505C14.279 4.0272 14.3957 3.53936 14.6184 3.10454C14.8199 2.71215 15.1274 2.38338 15.5092 2.16067C15.8963 1.93785 16.3352 1.8208 16.7819 1.8213C17.1743 1.8213 17.5667 1.91675 17.9166 2.10764C18.2454 2.27733 18.5211 2.53186 18.7226 2.85002V0.0820312H19.6029V7.14516H18.7226V6.16948C18.5423 6.48763 18.2772 6.75277 17.9591 6.93306C17.1955 7.34666 16.2622 7.33606 15.5092 6.89064C15.1271 6.6595 14.8183 6.3249 14.6184 5.92555C14.3893 5.49149 14.2761 5.00567 14.2896 4.51505ZM18.712 4.52565C18.7226 4.16507 18.6378 3.8151 18.4681 3.49694C18.3206 3.21883 18.0987 2.98723 17.8271 2.82803C17.5556 2.66883 17.245 2.58832 16.9303 2.59549C16.6174 2.59029 16.3091 2.67175 16.0396 2.83084C15.7701 2.98993 15.5498 3.22046 15.4032 3.49694C15.2335 3.8151 15.1593 4.16507 15.1593 4.52565C15.1486 4.88623 15.2335 5.24681 15.4032 5.57558C15.5517 5.85132 15.7638 6.09524 16.0395 6.25432C16.3046 6.4134 16.6122 6.48763 16.9303 6.48763C17.2379 6.48763 17.5561 6.4134 17.8212 6.25432C18.0969 6.09524 18.3196 5.86192 18.4575 5.57558C18.6378 5.23621 18.7226 4.88623 18.712 4.52565ZM20.7377 4.51505C20.727 4.0272 20.8437 3.53936 21.0664 3.10454C21.2679 2.71215 21.5755 2.38338 21.9573 2.16067C22.3274 1.94322 22.7474 1.82505 23.1766 1.81761C23.6058 1.81018 24.0297 1.91374 24.4071 2.11825C24.7252 2.28793 24.9798 2.55307 25.1601 2.86062V1.90614H26.0403V7.13456H25.1601V6.16948C24.9798 6.48763 24.7146 6.75277 24.3965 6.92245C24.034 7.12541 23.624 7.22792 23.2087 7.2194C22.7632 7.22798 22.3244 7.10996 21.9433 6.87905C21.5622 6.64814 21.2544 6.31382 21.0558 5.91495C20.8437 5.49074 20.727 5.00289 20.7377 4.51505ZM25.1707 4.52565C25.1813 4.16507 25.0964 3.8151 24.9267 3.49694C24.7793 3.21883 24.5573 2.98723 24.2858 2.82803C24.0142 2.66883 23.7037 2.58832 23.389 2.59549C23.0761 2.59029 22.7678 2.67175 22.4983 2.83084C22.2287 2.98993 22.0085 3.22046 21.8618 3.49694C21.6921 3.8151 21.6179 4.16507 21.6179 4.52565C21.6073 4.88623 21.6921 5.24681 21.8512 5.56497C21.9997 5.84071 22.2118 6.08463 22.4875 6.24371C22.7527 6.40279 23.0602 6.47703 23.3784 6.47703C23.6942 6.4832 24.0054 6.40109 24.2771 6.23996C24.5488 6.07883 24.7701 5.84506 24.9161 5.56497C25.0858 5.24681 25.1813 4.88623 25.1707 4.52565ZM32.0217 1.91675L28.8719 9.60559H27.9705L28.9992 7.08153L26.8887 1.90614H27.8538L29.4976 6.14826L31.1202 1.90614H32.0217V1.91675ZM34.7366 7.23001C34.3655 7.24061 34.0049 7.16637 33.6549 7.0285C33.3593 6.92006 33.1017 6.72796 32.9133 6.47563C32.725 6.22329 32.6142 5.92162 32.5944 5.60739H33.4958C33.517 5.86192 33.6549 6.09524 33.867 6.24371C34.1215 6.424 34.4185 6.50885 34.7366 6.48763C35.0124 6.50885 35.2881 6.43461 35.5214 6.27553C35.6103 6.21368 35.6827 6.13117 35.7326 6.0351C35.7825 5.93904 35.8083 5.83229 35.8078 5.72405C35.8105 5.61868 35.783 5.51473 35.7285 5.42451C35.674 5.33429 35.5948 5.26158 35.5002 5.215C35.2 5.06775 34.8831 4.95736 34.5564 4.88623C34.2314 4.80615 33.9125 4.70338 33.6019 4.57868C33.3599 4.47387 33.1456 4.3141 32.9762 4.11205C32.7951 3.87919 32.7013 3.59026 32.711 3.29544C32.711 3.03031 32.7959 2.77578 32.9549 2.56367C33.1246 2.33036 33.358 2.15007 33.6337 2.03341C33.9518 1.89554 34.2912 1.83191 34.6412 1.84251C35.1503 1.8213 35.6487 1.96978 36.0517 2.27733C36.4123 2.57428 36.6244 3.00909 36.6244 3.47573H35.7547C35.7506 3.34891 35.719 3.22449 35.6623 3.111C35.6056 2.99751 35.5249 2.89763 35.426 2.8182C35.1971 2.63938 34.9097 2.5524 34.62 2.57428C34.3549 2.56367 34.1003 2.6273 33.8776 2.77578C33.7932 2.83381 33.7241 2.91136 33.6761 3.00183C33.6281 3.0923 33.6026 3.19302 33.6019 3.29544C33.6019 3.45452 33.6549 3.60299 33.7716 3.71965C33.8882 3.83631 34.0367 3.93176 34.1958 3.98478L34.8957 4.20749C35.2033 4.29234 35.5108 4.38778 35.8078 4.50444C36.0411 4.59989 36.2532 4.75897 36.4123 4.94987C36.5926 5.17258 36.6774 5.43771 36.6774 5.72405C36.6774 5.99979 36.5926 6.27553 36.4335 6.49824C36.2638 6.74216 36.0199 6.93306 35.7547 7.03911C35.426 7.17698 35.0866 7.24061 34.7366 7.23001Z" fill="black"/>
</svg>
