<svg width="29" height="7" viewBox="0 0 29 7" fill="none" xmlns="http://www.w3.org/2000/svg">
<path opacity="0.7" d="M4.1802 1.41224H1.21073V3.34241C1.35921 3.14091 1.5607 2.99243 1.78341 2.89699C2.03794 2.78033 2.32428 2.71669 2.61062 2.7273C3.01363 2.70609 3.41663 2.81214 3.756 3.02425C4.04234 3.20454 4.26506 3.46967 4.39232 3.77723C4.5304 4.1057 4.59796 4.45951 4.59065 4.81575C4.58335 5.17199 4.50132 5.52272 4.34989 5.84526C4.20142 6.16342 3.95749 6.42855 3.64994 6.60884C3.28936 6.81034 2.88637 6.90579 2.48337 6.88458C1.96371 6.90579 1.45465 6.74671 1.04104 6.42855C0.668958 6.12227 0.42649 5.68658 0.362305 5.20894H1.11527C1.1789 5.50589 1.33799 5.78163 1.58191 5.96192C1.84704 6.15281 2.1546 6.24826 2.48337 6.23766C2.86516 6.26947 3.23634 6.121 3.49087 5.83465C3.72418 5.53771 3.85145 5.15591 3.83024 4.77412C3.85145 4.40294 3.73479 4.03175 3.49087 3.75601C3.22573 3.50149 2.85455 3.36362 2.49396 3.39543C2.21699 3.38565 1.94352 3.45957 1.70918 3.60754C1.48647 3.74541 1.31678 3.95752 1.22133 4.20144H0.489563V0.733503H4.1802V1.41224ZM5.60133 3.74541C5.55891 2.96062 5.72859 2.17582 6.07856 1.46527C6.42854 0.903188 7.07545 0.585029 7.74359 0.648661C8.40112 0.585029 9.04805 0.903188 9.39803 1.46527C9.748 2.17582 9.91768 2.96062 9.87526 3.74541C9.91768 4.54081 9.75861 5.3362 9.39803 6.05736C9.04805 6.61945 8.41172 6.94821 7.74359 6.88458C7.41637 6.91707 7.08661 6.8567 6.79213 6.71039C6.49764 6.56409 6.25034 6.33776 6.07856 6.05736C5.72663 5.33944 5.56244 4.54401 5.60133 3.74541ZM9.10106 3.74541C9.11167 3.3212 9.06925 2.90759 9.00562 2.49398C8.95277 2.1855 8.81297 1.89852 8.60263 1.66677C8.48743 1.55666 8.3507 1.47156 8.20105 1.41681C8.05139 1.36206 7.89204 1.33884 7.73299 1.34861C7.57225 1.33799 7.41105 1.36078 7.25955 1.41554C7.10806 1.4703 6.96955 1.55584 6.85275 1.66677C6.64064 1.90009 6.50276 2.18643 6.44974 2.49398C6.3755 2.90759 6.34369 3.3212 6.35429 3.74541C6.34369 4.16962 6.3755 4.60444 6.44974 5.02865C6.50276 5.3362 6.64064 5.63315 6.85275 5.85586C7.08606 6.07858 7.40422 6.19523 7.73299 6.17402C8.05115 6.19523 8.36931 6.07858 8.60263 5.85586C8.81474 5.62255 8.95259 5.3362 9.00562 5.02865C9.07986 4.60444 9.11167 4.16962 9.10106 3.74541ZM13.025 3.91509C13.0144 3.37422 13.1523 2.83335 13.4174 2.35611C13.6614 1.91069 14.0325 1.5289 14.478 1.27437C14.933 1.01384 15.449 0.878454 15.9733 0.881977C16.5672 0.871372 17.1611 1.03045 17.6596 1.34861C18.1474 1.66677 18.5292 2.1228 18.7307 2.67427H17.808C17.6552 2.32601 17.3996 2.03274 17.0755 1.83373C16.7514 1.63472 16.3742 1.53946 15.9945 1.56072C15.6078 1.54731 15.2252 1.64381 14.891 1.83903C14.5569 2.03425 14.285 2.32018 14.1068 2.66367C13.9159 3.04546 13.8204 3.46967 13.831 3.90449C13.8204 4.3287 13.9159 4.75291 14.1068 5.1347C14.2765 5.47407 14.5522 5.76042 14.881 5.95131C15.2203 6.14221 15.6021 6.24826 15.9945 6.23766C16.3869 6.24826 16.7687 6.15281 17.0975 5.95131C17.4156 5.76042 17.6596 5.47407 17.808 5.1347H18.7307C18.5292 5.67557 18.158 6.1316 17.6808 6.44976C17.1757 6.76528 16.5899 6.92738 15.9945 6.9164C15.4711 6.92315 14.9553 6.79144 14.4992 6.5346C14.0537 6.2821 13.6867 5.91141 13.4386 5.46347C13.1728 4.99129 13.0374 4.45689 13.0462 3.91509H13.025ZM20.5124 6.20584H23.397V6.87397H19.6109V6.25887L22.4744 1.62435H19.6427V0.956214H23.397V1.57132L20.5124 6.20584ZM27.671 6.87397L25.2317 4.18023V6.87397H24.4576V0.956214H25.2317V3.69238L27.671 0.956214H28.6466L25.9741 3.91509L28.6785 6.86337H27.671V6.87397Z" fill="black"/>
</svg>
