<svg width="22" height="8" viewBox="0 0 22 8" fill="none" xmlns="http://www.w3.org/2000/svg">
<path opacity="0.7" d="M0.168945 1.46575V0.670348H1.96124V7.5744H1.081V1.46575H0.168945ZM3.45658 4.05344C3.41416 3.16259 3.59445 2.28235 3.98684 1.48696C4.38985 0.850638 5.11102 0.490058 5.85339 0.564295C6.59576 0.490058 7.31691 0.850638 7.71992 1.48696C8.11231 2.28235 8.2926 3.16259 8.25018 4.05344C8.30321 4.95489 8.11231 5.84574 7.71992 6.65174C7.32752 7.28806 6.60636 7.63803 5.86399 7.5744C5.12162 7.64864 4.38986 7.28806 3.99746 6.65174C3.59203 5.8482 3.40547 4.95202 3.45658 4.05344ZM7.40175 4.05344C7.40175 3.58681 7.36994 3.10957 7.28509 2.64293C7.23207 2.29296 7.07299 1.9748 6.83967 1.70967C6.7123 1.58385 6.55902 1.48735 6.3905 1.4269C6.22198 1.36645 6.04229 1.34352 5.86399 1.35969C5.50341 1.33848 5.14284 1.46575 4.8777 1.70967C4.64439 1.96419 4.48529 2.29296 4.43227 2.64293C4.35803 3.10957 4.31562 3.5762 4.32622 4.05344C4.31562 4.54128 4.35803 5.01852 4.43227 5.49576C4.48529 5.84574 4.64439 6.1745 4.8777 6.42903C5.14284 6.68355 5.50341 6.81082 5.86399 6.779C6.22457 6.80021 6.57454 6.67295 6.83967 6.42903C7.07299 6.1639 7.23207 5.84574 7.28509 5.49576C7.36994 5.01852 7.40175 4.53068 7.40175 4.05344ZM14.6346 2.84443C14.4617 2.47036 14.181 2.15645 13.8286 1.94298C13.4604 1.72336 13.0375 1.61301 12.609 1.62483C12.1741 1.61422 11.7393 1.73088 11.3575 1.94298C10.9863 2.15509 10.6788 2.47325 10.4773 2.85504C10.2546 3.27925 10.1485 3.75649 10.1591 4.23373C10.1485 4.71097 10.2546 5.18821 10.4773 5.61242C10.6788 5.99421 10.9863 6.31237 11.3575 6.52448C11.7393 6.73658 12.1741 6.85324 12.609 6.84263C13.2029 6.86385 13.7755 6.65174 14.2104 6.25934C14.6452 5.84574 14.9103 5.28365 14.9421 4.68976H12.2908V3.9792H15.8754V4.64734C15.8158 5.46776 15.4439 6.23409 14.8362 6.7885C14.2285 7.3429 13.4314 7.64316 12.609 7.62743C12.1649 7.63038 11.7248 7.54421 11.3147 7.37404C10.9046 7.20386 10.5328 6.95314 10.2213 6.6367C9.9098 6.32026 9.66497 5.94455 9.50128 5.5318C9.33758 5.11904 9.25836 4.67765 9.2683 4.23373C9.25769 3.61862 9.41677 3.01412 9.71372 2.48385C10.0001 1.9748 10.4137 1.56119 10.9227 1.27485C11.4387 0.98885 12.019 0.839193 12.609 0.840033C13.2771 0.829427 13.924 1.00972 14.4861 1.35969C15.027 1.70967 15.4512 2.22933 15.6739 2.83383L14.6346 2.84443ZM20.3508 4.14889C20.5948 4.19131 20.8175 4.28676 21.0084 4.44584C21.6871 4.98671 21.8674 5.96239 21.4114 6.70477C21.2311 6.9805 20.9659 7.20321 20.6584 7.34108C20.2978 7.51077 19.8948 7.58501 19.4918 7.5744H17.0102V0.924875H19.3963C19.7887 0.91427 20.1918 0.988507 20.5523 1.14759C21.1462 1.3809 21.528 1.9748 21.5068 2.61112C21.5174 2.96109 21.4114 3.31107 21.1886 3.58681C20.9765 3.85194 20.6796 4.04283 20.3508 4.14889ZM17.8904 3.78831H19.3539C19.6933 3.80952 20.0327 3.70346 20.2978 3.50196C20.4093 3.40242 20.4975 3.27955 20.5561 3.14209C20.6148 3.00462 20.6424 2.85593 20.6372 2.70657C20.6447 2.55692 20.6181 2.40751 20.5593 2.26969C20.5005 2.13187 20.4111 2.00926 20.2978 1.91117C20.0221 1.69906 19.6827 1.60361 19.3327 1.62483H17.8904V3.78831ZM19.4282 6.85324C19.7887 6.87445 20.1493 6.7684 20.4463 6.54569C20.6902 6.33358 20.8281 6.02603 20.8069 5.69726C20.8175 5.35789 20.6796 5.03973 20.4251 4.82763C20.1354 4.60179 19.7737 4.48874 19.407 4.50947H17.901V6.85324H19.4282Z" fill="black"/>
</svg>
