<svg width="59" height="10" viewBox="0 0 59 10" fill="none" xmlns="http://www.w3.org/2000/svg">
<path opacity="0.4" d="M0.00349929 4.12629C-0.00710602 3.58542 0.130763 3.04455 0.38529 2.56731C0.629212 2.12188 1.0004 1.74009 1.44582 1.48557C1.90088 1.22503 2.41682 1.08965 2.94117 1.09317C3.53507 1.08256 4.12896 1.24164 4.62741 1.5598C5.11526 1.87796 5.48644 2.3446 5.68794 2.88547H4.76528C4.61945 2.54578 4.371 2.26024 4.05473 2.06886C3.72341 1.86556 3.34037 1.76244 2.95177 1.77191C2.55938 1.77191 2.17759 1.86736 1.83822 2.06886C1.50945 2.25975 1.24432 2.5461 1.06403 2.88547C0.873134 3.26726 0.777686 3.69147 0.788292 4.12629C0.777686 4.5505 0.873134 4.97471 1.06403 5.3565C1.24432 5.70648 1.50945 5.98221 1.83822 6.18372C2.17759 6.37461 2.55938 6.47006 2.95177 6.47006C3.34417 6.48066 3.72596 6.38522 4.05473 6.18372C4.37288 5.99282 4.61681 5.70648 4.76528 5.36711H5.68794C5.49511 5.9079 5.1251 6.3676 4.63802 6.67156C4.13957 6.98972 3.54567 7.1488 2.95177 7.13819C2.42839 7.14495 1.91251 7.01323 1.45643 6.7564C1.01097 6.5039 0.643957 6.13321 0.395895 5.68527C0.130141 5.20921 -0.00521898 4.67143 0.00349929 4.12629ZM7.6075 3.19302C7.73477 2.93849 7.93627 2.71578 8.19079 2.57791C8.47714 2.41883 8.7953 2.3446 9.11345 2.3552V3.1506H8.91195C8.04232 3.1506 7.61811 3.61723 7.61811 4.5611V7.08517H6.83331V2.44004H7.6075V3.19302ZM14.2464 4.58231L14.2252 5.04895H10.5134C10.5134 5.45195 10.6936 5.84435 10.98 6.12008C11.2663 6.37461 11.6375 6.51248 12.0193 6.50187C12.3163 6.51248 12.6026 6.42764 12.8571 6.26856C13.0798 6.12008 13.2389 5.89737 13.3238 5.64285H14.151C14.0343 6.07766 13.7692 6.45945 13.4086 6.73519C13.0056 7.02153 12.5178 7.18061 12.0193 7.1594C11.604 7.16792 11.194 7.06541 10.8315 6.86245C10.4808 6.66398 10.1938 6.36968 10.0043 6.01403C9.80068 5.62124 9.6986 5.18374 9.70735 4.74139C9.69675 4.30658 9.79219 3.87176 9.99369 3.47936C10.174 3.12939 10.4603 2.83244 10.7997 2.64154C11.1622 2.44406 11.5681 2.3397 11.9809 2.33785C12.3936 2.336 12.8004 2.43671 13.1647 2.63094C13.4934 2.81123 13.7692 3.08697 13.9495 3.42634C14.151 3.79752 14.2464 4.18992 14.2464 4.58231ZM13.451 4.42324C13.4572 4.15617 13.3913 3.89237 13.2601 3.65965C13.1329 3.44755 12.9526 3.27786 12.7299 3.17181C12.499 3.05829 12.2448 3.00019 11.9875 3.00212C11.6163 2.99152 11.2663 3.12939 10.9906 3.37331C10.7043 3.64905 10.5346 4.02023 10.524 4.41263L13.451 4.42324ZM14.9782 4.74139C14.9651 4.30664 15.0637 3.87579 15.2645 3.48997C15.4484 3.13962 15.7266 2.84768 16.0677 2.64715C16.4088 2.44662 16.7991 2.3455 17.1947 2.3552C17.5447 2.3552 17.8946 2.44004 18.2022 2.60973C18.4991 2.7582 18.7431 2.99152 18.9128 3.26726V0.806827H19.6975V7.08517H18.9128V6.21553C18.7537 6.50187 18.5204 6.73519 18.234 6.89427C17.5553 7.26546 16.7281 7.24425 16.0599 6.85185C15.718 6.64763 15.4419 6.34945 15.2645 5.99282C15.0637 5.607 14.9651 5.17615 14.9782 4.74139ZM18.9128 4.752C18.9234 4.43384 18.8491 4.11568 18.7006 3.83994C18.5732 3.58933 18.3738 3.38251 18.128 3.24605C17.8876 3.10878 17.616 3.03569 17.3393 3.03384C17.0625 3.03198 16.7899 3.10141 16.5478 3.23544C16.3039 3.37331 16.113 3.58542 15.9751 3.82934C15.8266 4.11568 15.7524 4.42324 15.763 4.74139C15.7524 5.05955 15.8266 5.38832 15.9751 5.67466C16.2296 6.18372 16.7599 6.50187 17.3326 6.49127C17.6083 6.49127 17.884 6.41703 18.128 6.27916C18.3719 6.14129 18.5734 5.92919 18.7006 5.67466C18.8491 5.38832 18.9128 5.07016 18.9128 4.752ZM21.3944 1.67646C21.256 1.67729 21.1228 1.62401 21.0232 1.52799C20.9737 1.48011 20.9348 1.42228 20.9092 1.3583C20.8836 1.29432 20.8719 1.22565 20.8747 1.1568C20.8739 1.01844 20.9272 0.885236 21.0232 0.785616C21.0711 0.736057 21.1289 0.697203 21.1929 0.671611C21.2569 0.64602 21.3256 0.634272 21.3944 0.637142C21.6807 0.637142 21.9035 0.859853 21.9035 1.1462V1.1568C21.9049 1.22454 21.8927 1.29188 21.8678 1.35487C21.8428 1.41786 21.8056 1.47523 21.7582 1.52363C21.7107 1.57203 21.6541 1.61048 21.5917 1.63672C21.5292 1.66297 21.4621 1.67648 21.3944 1.67646ZM21.7656 2.42944V7.08517H20.9914V2.44004L21.7656 2.42944ZM24.0245 3.06576V5.81253C24.0033 5.98221 24.0563 6.1625 24.173 6.28977C24.3215 6.39582 24.4911 6.44885 24.6714 6.42764H25.2441V7.08517H24.5442C24.1942 7.11698 23.8548 7.01093 23.5791 6.78822C23.4634 6.65522 23.3756 6.5003 23.3209 6.33269C23.2662 6.16508 23.2459 5.98818 23.2609 5.81253V3.07636H22.6458V2.44004H23.2503V1.27346H24.0245V2.44004H25.2335V3.07636L24.0245 3.06576ZM30.165 6.37461L31.6073 2.44004H32.4345L30.6104 7.08517H29.709L27.8848 2.44004H28.7121L30.165 6.37461ZM32.9118 4.74139C32.8987 4.30664 32.9973 3.87579 33.1981 3.48997C33.3784 3.13999 33.6541 2.85365 33.9935 2.65215C34.3329 2.45065 34.7253 2.3552 35.1177 2.3552C35.4888 2.3446 35.86 2.44004 36.1782 2.62033C36.4539 2.77941 36.6872 3.00212 36.8463 3.27786V2.42944H37.6311V7.07456H36.8463V6.22614C36.6872 6.51248 36.4539 6.7458 36.1676 6.90488C35.8305 7.08613 35.4523 7.17744 35.0697 7.17001C34.687 7.16258 34.3127 7.05666 33.9829 6.86245C33.6435 6.65035 33.3678 6.3534 33.1981 6.00343C32.9986 5.61332 32.9002 5.1794 32.9118 4.74139ZM36.8463 4.752C36.8569 4.43384 36.7827 4.11568 36.6342 3.83994C36.5068 3.58933 36.3073 3.38251 36.0615 3.24605C35.8212 3.10878 35.5496 3.03569 35.2728 3.03384C34.9961 3.03198 34.7235 3.10141 34.4813 3.23544C34.2374 3.37331 34.0465 3.58542 33.9087 3.82934C33.7602 4.11568 33.6859 4.42324 33.6965 4.74139C33.6859 5.05955 33.7602 5.38832 33.9087 5.67466C34.1632 6.18372 34.6934 6.50187 35.2661 6.49127C35.5419 6.49127 35.8176 6.41703 36.0615 6.27916C36.3054 6.14129 36.507 5.92919 36.6342 5.67466C36.7827 5.38832 36.8569 5.07016 36.8463 4.752ZM39.7098 0.806827V7.08517H38.9356V0.806827H39.7098ZM41.4172 1.67646C41.2788 1.67729 41.1456 1.62401 41.046 1.52799C40.9965 1.48011 40.9576 1.42228 40.932 1.3583C40.9064 1.29432 40.8947 1.22565 40.8975 1.1568C40.8967 1.01844 40.95 0.885236 41.046 0.785616C41.0939 0.736057 41.1517 0.697203 41.2157 0.671611C41.2797 0.64602 41.3484 0.634272 41.4172 0.637142C41.7036 0.637142 41.9263 0.859853 41.9263 1.1462V1.1568C41.9277 1.22454 41.9156 1.29188 41.8906 1.35487C41.8657 1.41786 41.8284 1.47523 41.781 1.52363C41.7336 1.57203 41.677 1.61048 41.6145 1.63672C41.552 1.66297 41.485 1.67648 41.4172 1.67646ZM41.799 2.42944V7.08517H41.0248V2.44004L41.799 2.42944ZM42.8171 4.74139C42.8041 4.30664 42.9026 3.87579 43.1035 3.48997C43.2873 3.13962 43.5655 2.84768 43.9066 2.64715C44.2477 2.44662 44.6381 2.3455 45.0336 2.3552C45.3836 2.3552 45.7336 2.44004 46.0411 2.60973C46.3381 2.7582 46.582 2.99152 46.7517 3.26726V0.806827H47.5365V7.08517H46.7517V6.21553C46.5926 6.50187 46.3593 6.73519 46.0729 6.89427C45.3942 7.26546 44.567 7.24425 43.8988 6.85185C43.5569 6.64763 43.2808 6.34945 43.1035 5.99282C42.9138 5.60298 42.8159 5.17491 42.8171 4.74139ZM46.7517 4.752C46.7623 4.43384 46.688 4.11568 46.5396 3.83994C46.4121 3.58933 46.2127 3.38251 45.9669 3.24605C45.7266 3.10878 45.4549 3.03569 45.1782 3.03384C44.9014 3.03198 44.6288 3.10141 44.3867 3.23544C44.1428 3.37331 43.9519 3.58542 43.814 3.82934C43.6655 4.11568 43.5913 4.42324 43.6019 4.74139C43.5913 5.05955 43.6655 5.38832 43.814 5.67466C44.0685 6.18372 44.5988 6.50187 45.1715 6.49127C45.4472 6.49127 45.723 6.41703 45.9669 6.27916C46.2108 6.14129 46.4123 5.92919 46.5396 5.67466C46.688 5.38832 46.7623 5.07016 46.7517 4.752ZM49.2439 1.67646C49.1056 1.67729 48.9724 1.62401 48.8727 1.52799C48.8232 1.48011 48.7843 1.42228 48.7587 1.3583C48.7331 1.29432 48.7214 1.22565 48.7243 1.1568C48.7234 1.01844 48.7767 0.885236 48.8727 0.785616C48.9206 0.736057 48.9784 0.697203 49.0424 0.671611C49.1064 0.64602 49.1751 0.634272 49.2439 0.637142C49.5303 0.637142 49.753 0.859853 49.753 1.1462V1.1568C49.7636 1.44315 49.5409 1.66586 49.2545 1.67646H49.2439ZM49.6151 2.42944V7.08517H48.8409V2.44004L49.6151 2.42944ZM51.874 3.06576V5.81253C51.8528 5.98221 51.9059 6.1625 52.0225 6.28977C52.171 6.39582 52.3407 6.44885 52.521 6.42764H53.0936V7.08517H52.3937C52.0437 7.11698 51.7043 7.01093 51.4286 6.78822C51.3129 6.65522 51.2251 6.5003 51.1704 6.33269C51.1158 6.16508 51.0954 5.98818 51.1105 5.81253V3.07636H50.4953V2.44004H51.0998V1.27346H51.874V2.44004H53.083V3.07636L51.874 3.06576ZM58.0251 2.42944L55.2253 9.26986H54.4299L55.342 7.03214L53.4648 2.44004H54.3239L55.7874 6.20493L57.2297 2.44004L58.0251 2.42944Z" fill="black"/>
</svg>
