<svg width="29" height="7" viewBox="0 0 29 7" fill="none" xmlns="http://www.w3.org/2000/svg">
<path opacity="0.7" d="M4.1802 1.26185H1.21073V3.19202C1.35921 2.99052 1.5607 2.84204 1.78341 2.74659C2.03794 2.62994 2.32428 2.5663 2.61062 2.57691C3.01363 2.5557 3.41663 2.66175 3.756 2.87386C4.04234 3.05415 4.26506 3.31928 4.39232 3.62683C4.5304 3.95531 4.59796 4.30911 4.59065 4.66536C4.58335 5.0216 4.50132 5.37233 4.34989 5.69487C4.20142 6.01303 3.95749 6.27816 3.64994 6.45845C3.28936 6.65995 2.88637 6.7554 2.48337 6.73419C1.96371 6.7554 1.45465 6.59632 1.04104 6.27816C0.668958 5.97188 0.42649 5.53619 0.362305 5.05855H1.11527C1.1789 5.3555 1.33799 5.63124 1.58191 5.81153C1.84704 6.00242 2.1546 6.09787 2.48337 6.08727C2.86516 6.11908 3.23634 5.97061 3.49087 5.68426C3.72418 5.38731 3.85145 5.00552 3.83024 4.62373C3.85145 4.25255 3.73479 3.88136 3.49087 3.60562C3.22573 3.3511 2.85455 3.21323 2.49396 3.24504C2.21699 3.23526 1.94352 3.30918 1.70918 3.45715C1.48647 3.59502 1.31678 3.80712 1.22133 4.05105H0.489563V0.583112H4.1802V1.26185ZM5.60133 3.59502C5.55891 2.81023 5.72859 2.02543 6.07856 1.31488C6.42854 0.752797 7.07545 0.434638 7.74359 0.49827C8.40112 0.434638 9.04805 0.752797 9.39803 1.31488C9.748 2.02543 9.91768 2.81023 9.87526 3.59502C9.91768 4.39042 9.75861 5.18581 9.39803 5.90697C9.04805 6.46906 8.41172 6.79782 7.74359 6.73419C7.41637 6.76668 7.08661 6.70631 6.79213 6.56C6.49764 6.4137 6.25034 6.18737 6.07856 5.90697C5.72663 5.18905 5.56244 4.39362 5.60133 3.59502ZM9.10106 3.59502C9.11167 3.17081 9.06925 2.7572 9.00562 2.34359C8.95277 2.03511 8.81297 1.74813 8.60263 1.51638C8.48743 1.40627 8.3507 1.32117 8.20105 1.26642C8.05139 1.21167 7.89204 1.18845 7.73299 1.19822C7.57225 1.1876 7.41105 1.21039 7.25955 1.26515C7.10806 1.31991 6.96955 1.40545 6.85275 1.51638C6.64064 1.7497 6.50276 2.03604 6.44974 2.34359C6.3755 2.7572 6.34369 3.17081 6.35429 3.59502C6.34369 4.01923 6.3755 4.45405 6.44974 4.87826C6.50276 5.18581 6.64064 5.48276 6.85275 5.70547C7.08606 5.92819 7.40422 6.04484 7.73299 6.02363C8.05115 6.04484 8.36931 5.92819 8.60263 5.70547C8.81474 5.47216 8.95259 5.18581 9.00562 4.87826C9.07986 4.45405 9.11167 4.01923 9.10106 3.59502ZM13.025 3.7647C13.0144 3.22383 13.1523 2.68296 13.4174 2.20572C13.6614 1.7603 14.0325 1.37851 14.478 1.12398C14.933 0.863451 15.449 0.728064 15.9733 0.731587C16.5672 0.720981 17.1611 0.880061 17.6596 1.19822C18.1474 1.51638 18.5292 1.97241 18.7307 2.52388H17.808C17.6552 2.17562 17.3996 1.88235 17.0755 1.68334C16.7514 1.48433 16.3742 1.38907 15.9945 1.41033C15.6078 1.39692 15.2252 1.49342 14.891 1.68864C14.5569 1.88386 14.285 2.16979 14.1068 2.51328C13.9159 2.89507 13.8204 3.31928 13.831 3.7541C13.8204 4.17831 13.9159 4.60252 14.1068 4.98431C14.2765 5.32368 14.5522 5.61003 14.881 5.80092C15.2203 5.99182 15.6021 6.09787 15.9945 6.08727C16.3869 6.09787 16.7687 6.00242 17.0975 5.80092C17.4156 5.61003 17.6596 5.32368 17.808 4.98431H18.7307C18.5292 5.52518 18.158 5.98121 17.6808 6.29937C17.1757 6.61489 16.5899 6.77699 15.9945 6.766C15.4711 6.77276 14.9553 6.64105 14.4992 6.38421C14.0537 6.13171 13.6867 5.76102 13.4386 5.31308C13.1728 4.8409 13.0374 4.3065 13.0462 3.7647H13.025ZM20.5124 6.05545H23.397V6.72358H19.6109V6.10848L22.4744 1.47396H19.6427V0.805824H23.397V1.42093L20.5124 6.05545ZM27.671 6.72358L25.2317 4.02984V6.72358H24.4576V0.805824H25.2317V3.54199L27.671 0.805824H28.6466L25.9741 3.7647L28.6785 6.71298H27.671V6.72358Z" fill="black"/>
</svg>
