<svg width="90" height="7" viewBox="0 0 90 7" fill="none" xmlns="http://www.w3.org/2000/svg">
<path opacity="0.4" d="M0.950195 1.45017V0.750223H2.54099V6.88009H1.7668V1.45017H0.950195ZM7.78001 1.41836H4.81053V3.34852C4.959 3.15763 5.1605 2.99855 5.38321 2.9031C5.64834 2.78644 5.92408 2.73341 6.21043 2.73341C6.61343 2.7122 7.01643 2.81826 7.3558 3.03036C7.64214 3.21065 7.86485 3.47579 7.99212 3.78334C8.11938 4.09089 8.18301 4.41966 8.17241 4.75903C8.18301 5.14082 8.09817 5.512 7.9497 5.85137C7.80122 6.16953 7.5573 6.44527 7.24975 6.61496C6.88916 6.81646 6.48616 6.9119 6.08316 6.89069C5.5635 6.92251 5.05445 6.76343 4.64084 6.44527C4.26966 6.12711 4.03634 5.69229 3.97271 5.21506H4.72568C4.78931 5.512 4.94839 5.78774 5.19232 5.96803C5.45745 6.15893 5.765 6.25438 6.08316 6.24377C6.47556 6.27559 6.84674 6.12711 7.10127 5.84077C7.33459 5.54382 7.46185 5.16203 7.44064 4.78024C7.46185 4.40905 7.34519 4.03787 7.10127 3.76213C6.97038 3.63448 6.81373 3.53627 6.6418 3.47408C6.46987 3.4119 6.28664 3.38717 6.10437 3.40155C5.8274 3.39176 5.55391 3.46568 5.31958 3.61365C5.09687 3.75152 4.92718 3.95302 4.83174 4.19695H4.09997V0.739618H7.79062L7.78001 1.41836ZM12.9766 1.35473L10.6222 6.88009H9.83744L12.2342 1.42896H8.9572V0.760828H12.9766V1.35473ZM15.9355 4.54692C15.9249 4.1121 16.0203 3.67729 16.2218 3.28489C16.4021 2.93492 16.6779 2.64857 17.0278 2.44707C17.3884 2.24557 17.7914 2.13952 18.205 2.15012C18.7141 2.12891 19.2019 2.27739 19.6155 2.56373C19.9867 2.85007 20.2518 3.25307 20.3473 3.71971H19.5201C19.4499 3.44814 19.2843 3.21095 19.0534 3.05157C18.8031 2.88359 18.5064 2.79829 18.205 2.80765C18.004 2.80094 17.804 2.83828 17.619 2.91706C17.4339 2.99584 17.2684 3.11415 17.1339 3.26368C16.8391 3.62343 16.6947 4.0832 16.7309 4.54692C16.6991 5.01356 16.8475 5.48019 17.1339 5.84077C17.399 6.14832 17.7914 6.31801 18.205 6.2968C18.502 6.3074 18.7989 6.22256 19.0534 6.06348C19.2868 5.8938 19.4458 5.66048 19.5201 5.38474H20.3473C20.2412 5.84077 19.9761 6.24377 19.6049 6.53011C19.2019 6.82706 18.7035 6.97554 18.205 6.95432C17.802 6.96493 17.3884 6.85888 17.0384 6.65738C16.6944 6.46188 16.4145 6.17086 16.2324 5.81956C16.0288 5.42677 15.9267 4.98926 15.9355 4.54692ZM25.5015 2.23497V6.88009H24.7273V6.19074C24.5788 6.43467 24.3667 6.62556 24.1122 6.74222C23.8423 6.87717 23.5443 6.94623 23.2425 6.94372C22.9032 6.95433 22.5638 6.86948 22.2669 6.72101C21.9805 6.57253 21.7366 6.33922 21.5881 6.04227C21.4097 5.70651 21.3219 5.32998 21.3336 4.94992V2.23497H22.0972V4.85448C22.076 5.23627 22.1926 5.61806 22.4471 5.91501C22.7017 6.16953 23.041 6.3074 23.4016 6.28619C23.7622 6.3074 24.1228 6.16953 24.3773 5.9044C24.6318 5.59685 24.7591 5.19384 24.7379 4.79084V2.23497H25.5015ZM28.4497 6.95432C28.121 6.95432 27.8028 6.9013 27.4953 6.77403C27.2317 6.67908 27.0018 6.5089 26.8341 6.28457C26.6663 6.06025 26.568 5.79163 26.5514 5.512H27.3468C27.368 5.74532 27.4847 5.94682 27.6756 6.08469C27.8983 6.24377 28.174 6.31801 28.4391 6.3074C28.6831 6.31801 28.927 6.25437 29.1391 6.11651C29.2171 6.06113 29.2808 5.98803 29.3251 5.90322C29.3693 5.81841 29.3928 5.72432 29.3936 5.62866C29.3982 5.53385 29.3744 5.43981 29.3253 5.35858C29.2762 5.27734 29.204 5.2126 29.1179 5.17263C28.8507 5.04241 28.5696 4.94279 28.2801 4.87569C27.9909 4.80465 27.7073 4.71249 27.4316 4.59995C27.2195 4.5045 27.018 4.36663 26.8696 4.18634C26.7082 3.98151 26.6254 3.72571 26.6362 3.46518C26.6362 3.23186 26.7105 2.99855 26.8483 2.80765C27.0074 2.59555 27.2089 2.43647 27.4528 2.34102C27.7392 2.22436 28.0361 2.16073 28.3437 2.17133C28.7891 2.15012 29.2345 2.28799 29.5951 2.56373C29.9133 2.82886 30.1042 3.22126 30.1042 3.63487H29.33C29.3261 3.52185 29.2975 3.41107 29.2462 3.31029C29.1949 3.20952 29.1221 3.12121 29.033 3.05157C28.8263 2.89484 28.571 2.81598 28.3119 2.82886C28.0786 2.81826 27.8452 2.88189 27.6543 3.00915C27.578 3.06043 27.5157 3.12998 27.4731 3.21148C27.4305 3.29298 27.409 3.38384 27.4104 3.47579C27.4104 3.61365 27.4635 3.75152 27.5589 3.85758C27.665 3.96363 27.7922 4.03787 27.9301 4.09089C28.1316 4.16513 28.3437 4.23937 28.5558 4.29239C28.8421 4.33482 29.1179 4.43026 29.383 4.53632C29.5951 4.62116 29.7754 4.75903 29.9239 4.92871C30.083 5.11961 30.1678 5.36353 30.1572 5.61806C30.1572 5.86198 30.083 6.1059 29.9451 6.3074C29.7966 6.51951 29.5845 6.68919 29.3512 6.78464C29.0649 6.9013 28.7573 6.96493 28.4497 6.95432ZM32.1828 2.87128V5.60745C32.1616 5.77714 32.2146 5.95743 32.3313 6.08469C32.4798 6.19074 32.6494 6.24377 32.8297 6.22256H33.4024V6.88009H32.7025C32.3525 6.9119 32.0131 6.80585 31.7374 6.58314C31.6217 6.45014 31.5339 6.29523 31.4792 6.12761C31.4245 5.96 31.4042 5.78311 31.4192 5.60745V2.87128H30.8147V2.23497H31.4192V1.06838H32.1934V2.23497H33.4024V2.87128H32.1828ZM36.3507 6.95432C35.9371 6.96493 35.5341 6.85888 35.1735 6.65738C34.8235 6.46648 34.5372 6.16953 34.3463 5.81956C34.1427 5.42677 34.0406 4.98926 34.0493 4.54692C34.0387 4.1121 34.1448 3.67729 34.3569 3.28489C34.5584 2.93492 34.8447 2.63797 35.2053 2.44707C35.5765 2.24557 35.9795 2.15012 36.4037 2.15012C36.8173 2.13952 37.2309 2.24557 37.6021 2.44707C37.9627 2.63797 38.249 2.92431 38.4505 3.28489C38.6627 3.67729 38.7581 4.1121 38.7475 4.54692C38.7581 4.99234 38.652 5.42716 38.4293 5.81956C38.2278 6.18014 37.9309 6.46648 37.5703 6.66798C37.1885 6.86948 36.7749 6.96493 36.3507 6.95432ZM36.3507 6.27559C36.6264 6.27559 36.8916 6.21195 37.1355 6.08469C37.3794 5.94682 37.5915 5.74532 37.7294 5.5014C37.8885 5.20445 37.9627 4.87569 37.9521 4.54692C37.9627 4.21816 37.8885 3.88939 37.7294 3.59244C37.5987 3.34686 37.3998 3.14429 37.1567 3.00915C36.9185 2.88196 36.6526 2.81543 36.3825 2.81543C36.1125 2.81543 35.8466 2.88196 35.6083 3.00915C35.3644 3.14702 35.1735 3.34852 35.0462 3.59244C34.8978 3.88939 34.8235 4.21816 34.8341 4.54692C34.8235 4.87569 34.8978 5.20445 35.0462 5.5014C35.1735 5.74532 35.3644 5.94682 35.5977 6.08469C35.831 6.21195 36.0856 6.27559 36.3507 6.27559ZM45.344 2.13952C45.6834 2.12891 46.0121 2.21375 46.3091 2.36223C46.5954 2.5107 46.8287 2.75463 46.9772 3.04097C47.1469 3.38034 47.2317 3.75152 47.2211 4.13331V6.88009H46.4576V4.24997C46.4788 3.86818 46.3621 3.48639 46.1182 3.18944C45.9975 3.06541 45.852 2.96823 45.6912 2.90427C45.5303 2.84031 45.3578 2.811 45.1849 2.81826C44.8243 2.80765 44.485 2.94552 44.2304 3.20005C43.9759 3.51821 43.8486 3.9106 43.8699 4.3136V6.86948H43.1169V4.24997C43.1381 3.86818 43.0214 3.48639 42.7775 3.18944C42.6568 3.06541 42.5113 2.96823 42.3505 2.90427C42.1897 2.84031 42.0172 2.811 41.8442 2.81826C41.4837 2.80765 41.1443 2.94552 40.8898 3.20005C40.6352 3.51821 40.508 3.9106 40.5292 4.3136V6.86948H39.755V2.23497H40.5292V2.9031C40.6777 2.65918 40.8898 2.46828 41.1443 2.34102C41.4094 2.21375 41.6958 2.13952 41.9927 2.15012C42.3533 2.13952 42.7139 2.23497 43.032 2.41526C43.329 2.59555 43.5729 2.86068 43.7002 3.18944C43.8274 2.87128 44.0501 2.59555 44.3471 2.42586C44.6547 2.23497 44.994 2.13952 45.344 2.13952ZM52.7359 4.36663L52.7147 4.83326H49.0028C49.0028 5.23627 49.1831 5.62866 49.4695 5.9044C49.7558 6.15893 50.127 6.2968 50.5088 6.28619C50.8057 6.2968 51.0921 6.21195 51.3466 6.05287C51.5693 5.9044 51.7284 5.68169 51.8132 5.42716H52.6404C52.5238 5.86198 52.2587 6.24377 51.8981 6.51951C51.4951 6.80585 51.0072 6.96493 50.5088 6.94372C50.0952 6.96493 49.6922 6.85888 49.321 6.65738C48.971 6.45588 48.6847 6.15893 48.5044 5.80895C48.3008 5.41616 48.1987 4.97866 48.2074 4.53632C48.1968 4.1015 48.2923 3.66668 48.4938 3.27428C48.6741 2.92431 48.9604 2.62736 49.2998 2.43647C49.6623 2.23898 50.0681 2.13462 50.4809 2.13277C50.8937 2.13092 51.3005 2.23163 51.6648 2.42586C51.9972 2.62767 52.271 2.91302 52.4589 3.25351C52.6469 3.59401 52.7423 3.97777 52.7359 4.36663ZM51.9405 4.20755C51.9467 3.94049 51.8808 3.67669 51.7496 3.44397C51.6223 3.23186 51.442 3.06218 51.2193 2.95613C50.9884 2.84261 50.7342 2.78451 50.477 2.78644C50.1058 2.77584 49.7558 2.9137 49.4801 3.15763C49.1937 3.43336 49.024 3.80455 49.0134 4.19695H51.9405V4.20755ZM54.5282 2.97734C54.6554 2.72281 54.8569 2.5001 55.1115 2.36223C55.3978 2.20315 55.716 2.12891 56.0341 2.13952V2.93492H55.8326C54.963 2.93492 54.5388 3.40155 54.5388 4.34542V6.88009H53.7646V2.23497H54.5388L54.5282 2.97734ZM59.9581 2.97734C60.0854 2.72281 60.2869 2.5001 60.5414 2.36223C60.8277 2.20315 61.1459 2.12891 61.4641 2.13952V2.93492H61.2519C60.3823 2.93492 59.9581 3.40155 59.9581 4.34542V6.88009H59.1839V2.23497H59.9581V2.97734ZM66.5864 4.37724L66.5652 4.84387H62.8533C62.8533 5.24687 63.0336 5.63927 63.32 5.91501C63.6063 6.16953 63.9775 6.3074 64.3593 6.2968C64.6562 6.3074 64.9426 6.22256 65.1971 6.06348C65.4198 5.91501 65.5789 5.69229 65.6638 5.43777H66.491C66.3743 5.87258 66.1092 6.25438 65.7486 6.53011C65.3456 6.81646 64.8578 6.97554 64.3593 6.95432C63.944 6.96284 63.5339 6.86033 63.1715 6.65738C62.8215 6.45588 62.5352 6.16953 62.3549 5.80895C62.1513 5.41616 62.0492 4.97866 62.0579 4.53632C62.0473 4.1015 62.1428 3.66668 62.3443 3.27428C62.5246 2.92431 62.8109 2.62736 63.1503 2.43647C63.5128 2.23898 63.9187 2.13462 64.3315 2.13277C64.7442 2.13092 65.151 2.23163 65.5153 2.42586C65.844 2.60615 66.1198 2.88189 66.3001 3.22126C66.5016 3.59244 66.597 3.98484 66.5864 4.37724ZM65.791 4.21816C65.7972 3.95109 65.7313 3.68729 65.6001 3.45458C65.4729 3.24247 65.2926 3.07278 65.0699 2.96673C64.839 2.85321 64.5848 2.79511 64.3275 2.79705C63.9563 2.78644 63.6063 2.92431 63.3306 3.16823C63.0442 3.44397 62.8746 3.81516 62.864 4.20755H65.791V4.21816ZM69.3438 6.16953L70.7861 2.23497H71.6133L69.7892 6.88009H68.8878L67.0637 2.23497H67.8909L69.3438 6.16953ZM72.7693 1.47138C72.631 1.47221 72.4977 1.41893 72.3981 1.32291C72.3486 1.27503 72.3097 1.2172 72.2841 1.15322C72.2585 1.08925 72.2468 1.02057 72.2496 0.951724C72.2488 0.813363 72.3021 0.680157 72.3981 0.580538C72.446 0.530979 72.5038 0.492124 72.5678 0.466533C72.6318 0.440941 72.7005 0.429194 72.7693 0.432064C73.0556 0.432064 73.2784 0.654775 73.2784 0.941118V0.951724C73.289 1.23807 73.0663 1.46078 72.7799 1.47138H72.7693ZM73.1405 2.22436V6.88009H72.3663V2.23497L73.1405 2.22436ZM78.6977 4.37724L78.6765 4.84387H74.9646C74.9646 5.24687 75.1449 5.63927 75.4312 5.91501C75.7176 6.16953 76.0888 6.3074 76.4706 6.2968C76.7675 6.3074 77.0538 6.22256 77.3084 6.06348C77.5311 5.91501 77.6902 5.69229 77.775 5.44837H78.6022C78.4856 5.88319 78.2204 6.26498 77.8599 6.54072C77.4569 6.82706 76.969 6.98614 76.4706 6.96493C76.057 6.96493 75.6539 6.85888 75.2934 6.65738C74.9434 6.45588 74.6571 6.15893 74.4768 5.80895C74.2731 5.41616 74.1711 4.97866 74.1798 4.53632C74.1692 4.1015 74.2647 3.66668 74.4662 3.27428C74.6464 2.92431 74.9328 2.62736 75.2722 2.43647C75.6327 2.24557 76.0463 2.13952 76.46 2.15012C76.863 2.13952 77.266 2.24557 77.6265 2.43647C77.9553 2.61676 78.231 2.89249 78.4113 3.23186C78.6022 3.59244 78.6977 3.98484 78.6977 4.37724ZM77.9023 4.21816C77.9085 3.95109 77.8425 3.68729 77.7114 3.45458C77.5841 3.24247 77.4038 3.07278 77.1811 2.96673C76.9502 2.85321 76.696 2.79511 76.4387 2.79705C76.0676 2.78644 75.7176 2.92431 75.4418 3.16823C75.1555 3.44397 74.9858 3.81516 74.9752 4.20755L77.9023 4.21816ZM85.9093 2.22436L84.4564 6.88009H83.6609L82.5368 3.18944L81.4126 6.88009H80.6172L79.1537 2.23497H79.9385L81.0096 6.13772L82.1656 2.23497H82.9504L84.0852 6.13772L85.1351 2.22436H85.9093ZM88.3167 6.95432C87.9879 6.95432 87.6698 6.9013 87.3622 6.77403C87.0987 6.67908 86.8688 6.5089 86.701 6.28457C86.5332 6.06025 86.435 5.79163 86.4183 5.512H87.2137C87.2349 5.74532 87.3516 5.94682 87.5425 6.08469C87.7652 6.24377 88.0409 6.31801 88.3061 6.3074C88.55 6.31801 88.7939 6.25437 89.006 6.11651C89.084 6.06113 89.1478 5.98803 89.192 5.90322C89.2363 5.81841 89.2598 5.72432 89.2606 5.62866C89.2652 5.53385 89.2414 5.43981 89.1923 5.35858C89.1432 5.27734 89.0709 5.2126 88.9848 5.17263C88.7147 5.04068 88.4299 4.94101 88.1364 4.87569C87.8472 4.80465 87.5637 4.71249 87.288 4.59995C87.0759 4.5045 86.8744 4.36663 86.7259 4.18634C86.5645 3.98151 86.4818 3.72571 86.4926 3.46518C86.4926 3.23186 86.5668 2.99855 86.7047 2.80765C86.8638 2.59555 87.0653 2.43647 87.3092 2.34102C87.5955 2.22436 87.8925 2.16073 88.2 2.17133C88.6455 2.15012 89.0909 2.28799 89.4514 2.56373C89.7696 2.82886 89.9605 3.22126 89.9605 3.63487H89.1863C89.1824 3.52185 89.1538 3.41107 89.1025 3.31029C89.0512 3.20952 88.9785 3.12121 88.8894 3.05157C88.6826 2.89484 88.4273 2.81598 88.1682 2.82886C87.9349 2.81826 87.7016 2.88189 87.5107 3.00915C87.4343 3.06043 87.372 3.12998 87.3294 3.21148C87.2868 3.29298 87.2653 3.38384 87.2668 3.47579C87.2668 3.61365 87.3198 3.75152 87.4152 3.85758C87.5213 3.96363 87.6485 4.03787 87.7864 4.09089C87.9879 4.16513 88.2 4.23937 88.4121 4.29239C88.6879 4.36663 88.9636 4.45147 89.2287 4.55753C89.4408 4.64237 89.6211 4.78024 89.7696 4.94992C89.9287 5.14082 90.0135 5.38474 90.0029 5.63927C90.0029 5.88319 89.9287 6.12711 89.7908 6.32861C89.6423 6.54072 89.4302 6.7104 89.1969 6.80585C88.9106 6.9119 88.6136 6.95432 88.3167 6.95432Z" fill="black"/>
</svg>
