<svg width="203" height="28" viewBox="0 0 203 28" fill="none" xmlns="http://www.w3.org/2000/svg">
<path d="M14.4187 0.400391H188.346C192.002 0.400391 195.509 1.85293 198.095 4.43848C200.68 7.02402 202.133 10.5308 202.133 14.1873C202.133 17.8438 200.68 21.3505 198.095 23.9361C195.509 26.5216 192.002 27.9742 188.346 27.9742H14.4187C10.7622 27.9742 7.25547 26.5216 4.66992 23.9361C2.08438 21.3505 0.631836 17.8438 0.631836 14.1873C0.631836 10.5308 2.08438 7.02402 4.66992 4.43848C7.25547 1.85293 10.7622 0.400391 14.4187 0.400391Z" fill="#5479FF"/>
<path d="M76.5021 12.7875C76.8627 12.8511 77.1915 13.0526 77.4142 13.3496C77.5796 13.5521 77.6954 13.7904 77.7523 14.0456C77.8091 14.3009 77.8054 14.5658 77.7415 14.8194C77.6776 15.0729 77.5553 15.308 77.3842 15.5058C77.2132 15.7036 76.9983 15.8586 76.7567 15.9585C76.3961 16.1176 76.0037 16.2024 75.6113 16.1918H72.96V9.56349H75.484C75.887 9.55289 76.2794 9.62712 76.6506 9.79681C76.9476 9.92407 77.2021 10.1362 77.3824 10.4119C77.5521 10.6664 77.6369 10.974 77.6263 11.2816C77.6475 11.6103 77.5415 11.9497 77.3293 12.2254C77.1172 12.48 76.8309 12.6815 76.5021 12.7875ZM74.0417 12.3421H75.3886C75.6855 12.3633 75.9825 12.2784 76.2264 12.0982C76.3269 12.0126 76.4061 11.9048 76.4577 11.7833C76.5092 11.6618 76.5317 11.5299 76.5233 11.3982C76.5286 11.2669 76.5046 11.136 76.4533 11.015C76.402 10.8939 76.3245 10.7858 76.2264 10.6983C75.9825 10.518 75.6961 10.4225 75.3886 10.4437H74.0417V12.3421ZM75.5158 15.301C75.8234 15.3222 76.1416 15.2267 76.3855 15.0358C76.5976 14.8555 76.7142 14.5798 76.7036 14.2935C76.7108 14.148 76.685 14.0027 76.628 13.8687C76.5711 13.7346 76.4845 13.6151 76.3749 13.5193C76.1176 13.3205 75.7983 13.2191 75.4734 13.2329H74.0417V15.301H75.5158ZM83.7349 10.9316V16.1918H82.6426V15.5661C82.4623 15.7994 82.229 15.9691 81.9639 16.0858C81.6881 16.213 81.3912 16.2766 81.0836 16.2766C80.7018 16.2766 80.32 16.1918 79.9701 16.0115C79.6519 15.8418 79.3762 15.5767 79.2065 15.2479C79.0065 14.8733 78.9078 14.4529 78.9201 14.0283V10.9316H80.0019V13.8586C79.9701 14.251 80.0973 14.6434 80.3519 14.951C80.6064 15.2055 80.9564 15.3434 81.3169 15.3222C81.6775 15.3434 82.0275 15.2055 82.282 14.951C82.5365 14.6434 82.6744 14.251 82.6426 13.8586V10.9316H83.7349ZM89.8966 10.9316L86.6726 18.6628H85.5485L86.6196 16.107L84.541 10.9316H85.75L87.2347 14.9404L88.7725 10.9316H89.8966ZM95.8568 10.8467C96.2386 10.8361 96.6204 10.9316 96.9704 11.1013C97.2991 11.2709 97.5643 11.5361 97.7446 11.8648C97.9354 12.2466 98.0309 12.6602 98.0203 13.0845V16.1918H96.9386V13.2541C96.9598 12.8617 96.8431 12.4693 96.5886 12.1724C96.462 12.0466 96.3112 11.9479 96.1453 11.8823C95.9794 11.8166 95.8018 11.7854 95.6235 11.7906C95.2629 11.7694 94.9129 11.9073 94.6584 12.1724C94.4039 12.4693 94.2766 12.8617 94.2978 13.2541V16.1918H93.2055V10.9316H94.2978V11.5361C94.4781 11.3134 94.7114 11.1437 94.9766 11.027C95.2523 10.9104 95.5493 10.8467 95.8568 10.8467ZM101.679 16.2766C101.212 16.2873 100.746 16.1706 100.332 15.9373C99.9335 15.715 99.6061 15.384 99.3884 14.9828C99.1556 14.5421 99.0388 14.0494 99.049 13.5511C99.0384 13.0526 99.1551 12.5648 99.399 12.13C99.6217 11.727 99.9611 11.3982 100.364 11.1755C100.787 10.9561 101.256 10.8416 101.732 10.8416C102.208 10.8416 102.678 10.9561 103.1 11.1755C103.503 11.3982 103.843 11.727 104.065 12.13C104.309 12.5648 104.426 13.0526 104.415 13.5511C104.426 14.0495 104.299 14.5374 104.055 14.9722C103.821 15.3752 103.482 15.704 103.068 15.9267C102.634 16.16 102.156 16.2766 101.679 16.2766ZM101.679 15.3328C102.252 15.3434 102.782 15.0252 103.058 14.5268C103.217 14.2298 103.302 13.8905 103.291 13.5511C103.303 13.2154 103.226 12.8825 103.068 12.586C102.931 12.3391 102.729 12.134 102.485 11.9921C102.246 11.8574 101.975 11.7879 101.7 11.7906C101.425 11.7906 101.159 11.8542 100.926 11.9921C100.683 12.1287 100.487 12.3358 100.364 12.586C100.216 12.883 100.141 13.2223 100.152 13.5511C100.12 14.0283 100.279 14.495 100.587 14.8661C100.863 15.1737 101.255 15.3434 101.679 15.3328ZM112.55 10.9316L110.916 16.1918H109.771L108.71 12.3103L107.65 16.1918H106.505L104.861 10.9316H105.964L107.056 15.1631L108.17 10.9316H109.304L110.375 15.1419L111.478 10.9316H112.55Z" fill="white"/>
<path d="M125.594 18.3873L129.624 14.3573L125.594 10.3379" stroke="white" stroke-width="1.06053" stroke-linecap="round" stroke-linejoin="round"/>
</svg>
