<svg width="44" height="25" viewBox="0 0 44 25" fill="none" xmlns="http://www.w3.org/2000/svg">
<path d="M6.71318 7.76803C6.71318 8.64827 6.24654 9.46488 5.49357 9.9103C5.05875 10.1754 4.5709 10.3345 4.06185 10.3663V11.395H3.23464V10.3663C2.52849 10.3227 1.85364 10.0594 1.30447 9.61335C1.06212 9.40833 0.869413 9.15103 0.74083 8.8608C0.612247 8.57057 0.551139 8.25496 0.5621 7.93771H2.11047C2.12108 8.23466 2.23774 8.53161 2.42863 8.75432C2.64074 8.98764 2.92708 9.12551 3.23464 9.16793V6.35752C2.76554 6.24476 2.30486 6.09947 1.85595 5.92271C1.49205 5.77484 1.17373 5.53335 0.933286 5.22276C0.665609 4.83443 0.534998 4.36796 0.5621 3.89709C0.540889 3.22896 0.816627 2.59264 1.30447 2.14722C1.83863 1.66869 2.5188 1.38467 3.23464 1.34121V0.3125H4.06185V1.34121C4.71938 1.37303 5.3557 1.62756 5.86475 2.05177C6.33139 2.48659 6.60712 3.08048 6.62833 3.7168H5.07996C5.04939 3.45172 4.94255 3.2012 4.77241 2.99564C4.58151 2.78354 4.33759 2.63506 4.06185 2.57143V5.3182C4.52848 5.42426 4.99512 5.57273 5.44054 5.74241C5.80112 5.89089 6.10867 6.13481 6.34199 6.44236C6.61773 6.83476 6.74499 7.30139 6.71318 7.76803ZM2.03624 3.81225C2.02665 3.96239 2.04911 4.11286 2.10214 4.25365C2.15516 4.39445 2.23754 4.52235 2.34379 4.62886C2.59832 4.85157 2.90587 5.01065 3.23464 5.1061V2.53961C2.90587 2.56082 2.59832 2.69869 2.3544 2.93201C2.13168 3.16533 2.01503 3.49409 2.03624 3.81225ZM4.06185 9.15732C4.40122 9.1149 4.70877 8.95582 4.94209 8.70129C5.1542 8.45737 5.27085 8.14982 5.26025 7.83166C5.26595 7.68576 5.24053 7.54032 5.18567 7.40501C5.13081 7.26969 5.04778 7.14761 4.94209 7.04687C4.68942 6.82431 4.38786 6.66444 4.06185 6.58023V9.15732ZM9.62963 8.3089C10.4462 7.59834 11.0826 7.02566 11.5598 6.56963C12.0052 6.14542 12.3976 5.66818 12.737 5.14852C13.0339 4.7137 13.193 4.20465 13.2036 3.67438C13.2248 3.25017 13.0976 2.82596 12.843 2.47598C12.6978 2.32412 12.5207 2.20635 12.3245 2.13116C12.1283 2.05597 11.9178 2.02524 11.7083 2.04116C11.2629 2.01995 10.8386 2.18964 10.5417 2.5184C10.2447 2.88959 10.0963 3.34562 10.1069 3.81225H8.70697C8.67516 2.97443 8.99332 2.17903 9.57661 1.58514C10.1588 1.06562 10.9177 0.78861 11.6977 0.810949C12.4931 0.768528 13.2779 1.04427 13.8718 1.57453C14.402 2.1154 14.6884 2.84717 14.6565 3.61075C14.6565 4.22586 14.4975 4.83036 14.1899 5.37123C13.893 5.9227 13.5112 6.43176 13.0764 6.87718C12.6521 7.3226 12.1007 7.84226 11.4431 8.42556L10.8705 8.93461H14.9005V10.1436H8.71758V9.08309L9.62963 8.3089ZM15.9928 8.35132V7.25897L20.2668 1.12911H22.0272V7.09989H23.215V8.36193H22.0272V10.2921H20.6061V8.36193H15.9928V8.35132ZM20.6591 2.60325L17.6578 7.09989H20.6591V2.60325ZM25.177 10.3769C25.0548 10.3828 24.9327 10.3621 24.8192 10.3163C24.7057 10.2706 24.6035 10.2008 24.5195 10.1118C24.4305 10.0278 24.3607 9.92555 24.3149 9.81206C24.2692 9.69856 24.2485 9.57651 24.2543 9.45427C24.2485 9.33204 24.2692 9.20998 24.3149 9.09649C24.3607 8.98299 24.4305 8.88074 24.5195 8.79674C24.6035 8.70774 24.7057 8.63797 24.8192 8.5922C24.9327 8.54644 25.0548 8.52577 25.177 8.53161C25.4209 8.53161 25.6542 8.62706 25.8239 8.79674C25.9129 8.88074 25.9827 8.98299 26.0285 9.09649C26.0742 9.20998 26.0949 9.33204 26.0891 9.45427C26.0949 9.57651 26.0742 9.69856 26.0285 9.81206C25.9827 9.92555 25.9129 10.0278 25.8239 10.1118C25.7388 10.1964 25.6379 10.2633 25.5269 10.3088C25.4159 10.3543 25.297 10.3775 25.177 10.3769ZM29.2813 7.76803C29.3449 8.14982 29.5358 8.48919 29.8327 8.73311C30.1615 8.96643 30.5645 9.08309 30.9675 9.06188C31.5084 9.09369 32.0174 8.81795 32.2932 8.35132C32.6325 7.58774 32.781 6.74992 32.7174 5.92271C32.4947 6.21965 32.1977 6.45297 31.8583 6.59084C31.4766 6.74992 31.0736 6.83476 30.66 6.82416C30.1191 6.83476 29.61 6.7181 29.1434 6.48479C28.6971 6.26259 28.3276 5.91164 28.0829 5.47728C27.8071 4.97883 27.6799 4.41675 27.6905 3.85467C27.648 3.02746 27.945 2.22145 28.5071 1.61695C28.806 1.32988 29.1608 1.10737 29.5495 0.963236C29.9381 0.819105 30.3522 0.75644 30.766 0.779133C31.7311 0.694291 32.675 1.12911 33.2264 1.93511C33.7885 3.02746 34.043 4.24707 33.9582 5.46668C33.9794 6.36813 33.884 7.26958 33.6825 8.16042C33.5482 8.77284 33.2166 9.32426 32.7386 9.73001C32.1977 10.1118 31.5296 10.3027 30.8721 10.2603C30.4924 10.2873 30.1111 10.2385 29.7506 10.1164C29.39 9.99444 29.0574 9.80178 28.7722 9.54972C28.2847 9.07484 27.9901 8.43647 27.945 7.75742L29.2813 7.76803ZM30.8933 5.60455C31.3493 5.62576 31.7841 5.45607 32.0917 5.12731C32.3992 4.77733 32.5583 4.3213 32.5371 3.86528C32.5669 3.36571 32.3993 2.87442 32.0705 2.49719C31.908 2.32928 31.711 2.19869 31.4931 2.11445C31.2752 2.03022 31.0416 1.99435 30.8084 2.00935C30.3312 1.98814 29.8752 2.16843 29.5464 2.5078C29.2282 2.86838 29.0585 3.33501 29.0798 3.82285C29.0585 4.28949 29.2282 4.74552 29.5358 5.1061C29.8858 5.45607 30.3948 5.63636 30.8933 5.60455ZM35.549 5.53031C35.4839 4.3357 35.7403 3.14548 36.2914 2.08359C36.5655 1.66257 36.9495 1.32446 37.4018 1.10578C37.8541 0.887098 38.3576 0.796152 38.8578 0.842765C39.3581 0.796152 39.8616 0.887098 40.3139 1.10578C40.7662 1.32446 41.1502 1.66257 41.4243 2.08359C41.9758 3.14412 42.2303 4.33191 42.1667 5.53031C42.2318 6.73512 41.9756 7.9356 41.4243 9.00885C41.1515 9.43182 40.7681 9.77204 40.3157 9.99263C39.8633 10.2132 39.3591 10.3058 38.8578 10.2603C38.3566 10.3058 37.8524 10.2132 37.4 9.99263C36.9476 9.77204 36.5642 9.43182 36.2914 9.00885C35.7508 7.93181 35.4952 6.7342 35.549 5.53031ZM40.7456 5.53031C40.7563 4.94788 40.7137 4.3657 40.6183 3.79104C40.5537 3.35834 40.3659 2.95338 40.0775 2.62446C39.7593 2.3063 39.3139 2.13661 38.8685 2.16843C38.423 2.13661 37.9776 2.29569 37.6594 2.62446C37.3731 2.95322 37.1822 3.35622 37.1186 3.79104C37.0248 4.36601 36.9787 4.94775 36.9807 5.53031C36.9701 6.12421 37.0125 6.72871 37.108 7.32261C37.1716 7.75742 37.3519 8.17103 37.6488 8.49979C37.967 8.81795 38.4124 8.97703 38.8685 8.94522C39.3139 8.97703 39.7593 8.81795 40.0881 8.49979C40.3744 8.17103 40.5653 7.75742 40.6289 7.32261C40.7138 6.72871 40.7562 6.12421 40.7456 5.53031Z" fill="#5479FF"/>
<path d="M17.6899 22.3919C17.6899 22.6676 17.6157 22.9433 17.4778 23.1873C17.3293 23.4418 17.1172 23.6645 16.8627 23.813C16.5763 23.9933 16.2476 24.0993 15.9082 24.1205V24.8099H15.3567V24.1205C14.8849 24.0893 14.4337 23.9155 14.0629 23.6221C13.9004 23.485 13.7718 23.3122 13.6872 23.1172C13.6026 22.9222 13.5642 22.7102 13.575 22.4979H14.6144C14.625 22.6995 14.6992 22.8926 14.8265 23.0494C14.9643 23.1979 15.1552 23.2933 15.3567 23.3251V21.4586C15.0411 21.3869 14.7323 21.2875 14.4341 21.1616C14.1901 21.0556 13.9886 20.8965 13.8296 20.695C13.6506 20.4374 13.5612 20.1281 13.575 19.8148C13.5644 19.3693 13.7447 18.9451 14.0629 18.6482C14.4235 18.33 14.8689 18.1391 15.3567 18.1073V17.418H15.9082V18.1073C16.3536 18.1285 16.7672 18.2982 17.1066 18.5739C17.4142 18.8603 17.6051 19.2633 17.6157 19.6769H16.5763C16.5584 19.5044 16.4881 19.3416 16.3748 19.2103C16.2473 19.07 16.0814 18.9704 15.8976 18.9239V20.7586C16.2158 20.8329 16.5233 20.9283 16.8203 21.045C17.0536 21.1404 17.2657 21.3101 17.4248 21.5116C17.6157 21.7661 17.7111 22.0737 17.6899 22.3919ZM14.5719 19.7617C14.5613 19.9632 14.6356 20.1647 14.784 20.3026C14.9537 20.4511 15.1552 20.5571 15.3779 20.6208V18.9027C15.1552 18.9239 14.9537 19.0088 14.7947 19.1678C14.7177 19.2455 14.6581 19.3386 14.6197 19.4409C14.5813 19.5433 14.565 19.6526 14.5719 19.7617ZM15.9188 23.3251C16.1415 23.2933 16.343 23.1873 16.5021 23.0282C16.64 22.8691 16.7142 22.657 16.7142 22.4449C16.7202 22.3463 16.7043 22.2476 16.6677 22.1559C16.631 22.0643 16.5745 21.9818 16.5021 21.9146C16.3324 21.7649 16.1284 21.6593 15.9082 21.6071L15.9188 23.3251ZM19.0898 19.4118C19.1004 18.9345 19.3231 18.4785 19.6943 18.1816C20.1029 17.8744 20.6046 17.7171 21.1154 17.7361C21.4654 17.7255 21.8154 17.7998 22.1441 17.9482C22.4093 18.0755 22.6426 18.277 22.8017 18.5209C22.9501 18.7648 23.0244 19.0512 23.0244 19.3481C23.0562 19.9738 22.6744 20.5465 22.0805 20.748V20.7799C22.3987 20.8647 22.6744 21.0662 22.8653 21.3313C23.0562 21.6389 23.1516 21.9995 23.141 22.3706C23.1541 22.6836 23.0746 22.9934 22.9123 23.2613C22.7501 23.5292 22.5124 23.7432 22.229 23.8766C21.8896 24.0357 21.5184 24.1099 21.1472 24.0993C20.607 24.118 20.0763 23.9536 19.6413 23.6327C19.2383 23.3039 19.005 22.8055 19.005 22.2752H19.9382C19.9594 22.5509 20.0867 22.8161 20.2988 23.007C20.5321 23.2085 20.8397 23.3039 21.1472 23.2933C21.4442 23.3145 21.7305 23.2085 21.9426 23.007C22.036 22.9102 22.1087 22.7954 22.1561 22.6696C22.2035 22.5437 22.2247 22.4095 22.2184 22.2752C22.2356 22.1126 22.2093 21.9484 22.1422 21.7993C22.0752 21.6503 21.9697 21.5217 21.8366 21.4268C21.4822 21.2367 21.082 21.1485 20.6806 21.1722H20.4473V20.3768H20.6806C21.0412 20.3981 21.4018 20.3132 21.7305 20.1435C21.8502 20.0724 21.9475 19.9691 22.0113 19.8453C22.075 19.7215 22.1027 19.5823 22.0911 19.4436C22.0961 19.323 22.075 19.2028 22.0292 19.0911C21.9835 18.9795 21.9141 18.879 21.826 18.7967C21.6139 18.627 21.3487 18.5421 21.0836 18.5527C20.9498 18.5419 20.8153 18.5579 20.6878 18.5998C20.5603 18.6417 20.4425 18.7086 20.3412 18.7967C20.1695 18.9517 20.057 19.1617 20.0231 19.3906L19.0898 19.4118ZM25.3469 22.3919C25.3893 22.6464 25.5166 22.8691 25.7075 23.0388C25.9302 23.1979 26.1954 23.2721 26.4605 23.2615C26.8211 23.2827 27.1604 23.1024 27.3407 22.7843C27.5634 22.2752 27.6589 21.7237 27.6165 21.1616C27.468 21.3631 27.2771 21.5116 27.0438 21.6071C26.4605 21.8298 25.803 21.8086 25.2409 21.5434C24.9448 21.3935 24.6981 21.1616 24.5303 20.8753C24.3508 20.5437 24.263 20.1703 24.2758 19.7936C24.2546 19.2421 24.4455 18.7118 24.8273 18.3088C25.2303 17.927 25.7817 17.7255 26.3332 17.7573C26.6502 17.7281 26.9693 17.7834 27.2581 17.9175C27.5468 18.0517 27.7949 18.2598 27.977 18.5209C28.3482 19.2421 28.5179 20.0587 28.4649 20.8753C28.4755 21.4798 28.4225 22.0737 28.2846 22.6676C28.1891 23.0812 27.9664 23.4524 27.6483 23.7175C27.2877 23.972 26.8423 24.0993 26.4075 24.0675C25.8984 24.0993 25.3893 23.9296 25.0076 23.5903C24.6788 23.2721 24.4879 22.8479 24.4561 22.3919H25.3469ZM26.4181 20.9495C26.715 20.9601 27.012 20.8435 27.2241 20.6314C27.4256 20.3981 27.5316 20.0905 27.521 19.783C27.5422 19.4542 27.4256 19.1254 27.2135 18.8709C26.9908 18.6482 26.6832 18.5315 26.365 18.5421C26.0469 18.5209 25.7393 18.6482 25.5166 18.8815C25.3045 19.1254 25.1878 19.433 25.2091 19.7617C25.1985 20.0693 25.3045 20.3768 25.506 20.6102C25.7393 20.8541 26.0787 20.9814 26.4181 20.9495ZM30.0451 24.1311C29.9626 24.1319 29.8808 24.1164 29.8044 24.0854C29.7279 24.0545 29.6584 24.0088 29.5997 23.9508C29.5417 23.8921 29.496 23.8226 29.465 23.7461C29.4341 23.6697 29.4186 23.5879 29.4194 23.5054C29.4078 23.4171 29.4152 23.3274 29.4411 23.2422C29.467 23.157 29.5107 23.0783 29.5695 23.0114C29.6282 22.9445 29.7005 22.8909 29.7816 22.8541C29.8627 22.8174 29.9507 22.7984 30.0398 22.7984C30.1288 22.7984 30.2168 22.8174 30.2979 22.8541C30.379 22.8909 30.4514 22.9445 30.5101 23.0114C30.5688 23.0783 30.6126 23.157 30.6385 23.2422C30.6643 23.3274 30.6718 23.4171 30.6602 23.5054C30.6616 23.5862 30.6471 23.6665 30.6174 23.7416C30.5878 23.8168 30.5437 23.8854 30.4876 23.9435C30.4314 24.0016 30.3644 24.0481 30.2903 24.0803C30.2162 24.1125 30.1365 24.1297 30.0557 24.1311H30.0451ZM32.7812 22.3919C32.8237 22.6464 32.9509 22.8691 33.1418 23.0388C33.3645 23.1979 33.6297 23.2721 33.8948 23.2615C34.0731 23.2733 34.2511 23.2348 34.4086 23.1505C34.5661 23.0661 34.6967 22.9392 34.7856 22.7843C35.0084 22.2752 35.1038 21.7131 35.0614 21.1616C34.9129 21.3631 34.722 21.5116 34.4887 21.6071C33.9054 21.8298 33.2479 21.8086 32.6858 21.5434C32.3897 21.3935 32.1431 21.1616 31.9752 20.8753C31.7958 20.5437 31.7079 20.1703 31.7207 19.7936C31.6995 19.2421 31.8904 18.7118 32.2722 18.3088C32.6752 17.927 33.2267 17.7255 33.7781 17.7573C34.0952 17.7281 34.4143 17.7834 34.703 17.9175C34.9917 18.0517 35.2398 18.2598 35.422 18.5209C35.7931 19.2421 35.9628 20.0587 35.9098 20.8753C35.9204 21.4798 35.8568 22.0737 35.7295 22.657C35.6341 23.0706 35.4114 23.4418 35.0932 23.7069C34.7275 23.9623 34.2873 24.0891 33.8418 24.0675C33.3327 24.0993 32.8237 23.9296 32.4419 23.5903C32.1131 23.2721 31.9222 22.8479 31.8904 22.3919H32.7812ZM33.8524 20.9495C34.1493 20.9601 34.4463 20.8435 34.6584 20.6314C34.8599 20.3981 34.9659 20.0905 34.9553 19.783C34.9765 19.4542 34.8599 19.1254 34.6478 18.8709C34.4251 18.6482 34.1175 18.5315 33.7994 18.5421C33.4812 18.5209 33.1736 18.6482 32.9509 18.8815C32.7388 19.1254 32.6222 19.433 32.6434 19.7617C32.6328 20.0693 32.7388 20.3768 32.9403 20.6102C33.1736 20.8541 33.513 20.9814 33.8524 20.9495ZM36.9597 20.8965C36.9173 20.1011 37.087 19.3057 37.4582 18.6058C37.8294 18.0331 38.4869 17.7149 39.1656 17.7785C39.8444 17.7149 40.5019 18.0331 40.8731 18.6058C41.2443 19.3163 41.414 20.1011 41.3715 20.8965C41.414 21.7025 41.2443 22.5085 40.8731 23.2191C40.5019 23.7918 39.8444 24.1205 39.1656 24.0569C38.8312 24.0903 38.4942 24.0295 38.1924 23.8814C37.8907 23.7334 37.6364 23.504 37.4582 23.2191C37.0873 22.5034 36.9152 21.7013 36.9597 20.8965ZM40.4171 20.8965C40.4277 20.5041 40.3959 20.1117 40.3322 19.7299C40.2875 19.443 40.1625 19.1746 39.9716 18.9557C39.8662 18.8517 39.7398 18.7713 39.6008 18.7201C39.4617 18.6689 39.3134 18.648 39.1656 18.6588C39.0179 18.648 38.8695 18.6689 38.7305 18.7201C38.5915 18.7713 38.4651 18.8517 38.3596 18.9557C38.1687 19.1784 38.0415 19.4436 37.9991 19.7299C37.9354 20.1117 37.9036 20.5041 37.9142 20.8965C37.9036 21.2995 37.9354 21.6919 37.9991 22.0949C38.0415 22.3813 38.1687 22.657 38.3596 22.8797C38.5717 23.0918 38.8687 23.1979 39.1656 23.1766C39.4626 23.1979 39.7595 23.0918 39.9716 22.8797C40.1625 22.657 40.2898 22.3919 40.3322 22.0949C40.3959 21.7025 40.4277 21.2995 40.4171 20.8965Z" fill="#FF2121"/>
<path d="M11.6133 20.6543H43.8322" stroke="#FF2121" stroke-width="1.06053"/>
</svg>
