<svg width="200" height="281" viewBox="0 0 200 281" fill="none" xmlns="http://www.w3.org/2000/svg">
<g clip-path="url(#clip0_26003_111799)">
<g clip-path="url(#clip1_26003_111799)">
<g clip-path="url(#clip2_26003_111799)">
<path d="M0.0869141 44.2022V0.693359H199.345V44.2022H0.0869141Z" fill="#FECC04"/>
<path d="M64.2783 18.7272C63.3955 19.8622 62.0082 21.8799 61.1255 23.0149C60.621 23.6454 59.8643 24.6544 62.5127 24.6544H76.6373C76.6373 24.6544 78.9073 21.5016 80.799 18.9793C83.4473 15.4482 81.0513 8.25977 71.7189 8.25977H34.894L28.4623 16.8355H63.1432C65.161 16.9616 65.1611 17.5922 64.2783 18.7272ZM53.8109 27.0504C51.1626 27.0504 51.9192 25.9157 52.4236 25.4112L55.7026 21.1232C56.5854 19.9882 56.5854 19.3577 54.8198 19.3577H38.9297L26.0662 36.5089H57.216C67.4311 36.5089 73.2323 29.5728 74.9978 27.1767C75.124 27.0505 56.7115 27.0504 53.8109 27.0504ZM74.2412 36.3829H92.5275L99.4637 27.0504H81.1774C81.0513 27.0504 74.2412 36.3829 74.2412 36.3829ZM121.281 8.386L114.345 17.8444H106.148L113.084 8.386H94.7975L82.5646 24.9066H127.335L139.568 8.386H121.281ZM100.599 36.3829H118.885L125.821 27.0504H107.535L100.599 36.3829ZM0.0869141 30.7079V32.7255H25.5617L26.949 30.7079H0.0869141ZM29.7234 27.0504H0.0869141V29.0683H28.3362L29.7234 27.0504ZM0.0869141 36.3829H22.7872L24.3006 34.365H0.0869141V36.3829ZM172.483 32.7255H199.345V30.7079H173.996L172.483 32.7255ZM169.708 36.3829H199.345V34.365H171.222L169.708 36.3829ZM176.645 27.0504L175.131 29.0683H199.219V27.0504H176.645ZM152.683 24.9066L164.916 8.386H145.621L133.388 24.9066H152.683ZM131.749 27.0504C131.749 27.0504 130.487 28.8161 129.731 29.6989C127.461 32.8517 129.479 36.3829 137.045 36.3829H166.429L173.366 27.0504H131.749Z" fill="#D4102B"/>
<path d="M146.618 96.6016L152.293 101.772L157.716 96.6016H169.57L158.094 107.195L169.696 117.915H157.463L151.788 112.744L146.113 117.915H134.385L145.861 107.195L134.385 96.6016H146.618Z" fill="#EB5C1D"/>
<path d="M134.385 96.6V103.789H121.269V110.347H134.385V117.913H111.559V84.3672H134.385V91.808H121.269V96.6H134.385Z" fill="#EB5C1D"/>
<path d="M102.1 84.3681V98.1146H101.974C99.8299 96.0968 97.1815 95.3399 94.1548 95.3399C87.8492 95.3399 83.1831 98.8712 81.4175 103.411C79.5258 98.2406 74.6074 95.0877 67.2929 95.0877C61.3656 95.0877 56.8255 97.2316 54.3033 100.763V96.3488H42.0703V91.6827H55.4382V84.2422H31.2246V117.788H42.0703V103.663H52.916C52.5377 104.798 52.4116 105.807 52.4116 106.942C52.4116 114.005 58.9694 118.923 67.2929 118.923C74.2291 118.923 78.8952 116.149 81.4175 111.356H72.0851C70.824 112.87 69.8151 113.248 67.4189 113.248C64.5184 113.248 61.9961 111.23 61.9961 108.708H80.913C81.7958 114.257 87.0925 119.049 94.2809 119.049C97.4337 119.049 100.208 117.788 101.974 115.644H102.1V117.788H111.685V84.2422H102.1V84.3681ZM62.2484 103.916C62.8789 101.772 64.8967 100.384 67.4189 100.384C70.1934 100.384 72.0852 101.772 72.5896 103.916H62.2484ZM96.2988 112.743C95.5595 112.76 94.8244 112.629 94.1365 112.358C93.4487 112.087 92.8219 111.681 92.2932 111.164C91.7645 110.647 91.3445 110.029 91.0578 109.348C90.7711 108.666 90.6235 107.934 90.6237 107.195C90.6237 104.168 92.5154 101.267 96.2988 101.267C100.334 101.267 101.848 104.168 101.848 107.195C101.722 110.095 100.082 112.743 96.2988 112.743Z" fill="#2E276D"/>
<path d="M61.252 179.016C59.6125 179.016 58.4775 178.133 58.4775 176.872C58.4775 175.737 59.6125 174.729 61.252 174.729C62.7653 174.729 63.9004 175.737 63.9004 176.872C64.0265 178.007 62.7653 179.016 61.252 179.016Z" fill="#D41126"/>
<path d="M50.532 160.1C55.7026 160.1 60.3688 161.236 64.4044 163.127L69.3228 160.1C63.9 157.2 57.4682 155.561 50.532 155.561C43.5958 155.561 37.038 157.2 31.7413 160.1L36.5335 163.127C40.6953 161.362 45.3614 160.1 50.532 160.1ZM36.5335 189.611L31.7413 192.638C37.038 195.538 43.5958 197.178 50.532 197.178C57.4682 197.178 63.9 195.538 69.3228 192.638L64.4044 189.611C60.3688 191.503 55.5765 192.638 50.532 192.638C45.4875 192.638 40.6953 191.503 36.5335 189.611ZM30.1018 176.369C30.1018 172.334 31.4891 168.676 33.8852 165.397L30.1018 161.488C26.5707 165.776 24.4268 170.82 24.4268 176.369C24.4268 181.918 26.5707 187.089 30.1018 191.376L33.8852 187.467C31.4891 184.314 30.1018 180.531 30.1018 176.369ZM67.1789 187.467L70.8362 191.376C74.4934 187.089 76.6373 181.918 76.6373 176.369C76.6373 170.82 74.4934 165.649 70.8362 161.488L67.1789 165.397C69.575 168.676 70.8362 172.46 70.8362 176.369C70.9623 180.531 69.575 184.314 67.1789 187.467ZM42.0825 186.332C39.4342 186.332 37.1641 185.701 35.0202 184.566H34.8941V180.531L35.1463 180.783C35.7769 181.414 37.9208 183.179 41.452 183.179C44.2264 183.179 44.4786 181.54 44.4786 180.783C44.4786 179.27 42.5869 178.639 40.443 177.756L40.3169 177.63C37.6686 176.495 34.5158 175.486 34.5158 172.207C34.5158 169.433 37.5424 167.289 41.7041 167.163H42.4608C45.992 167.163 47.8837 168.298 48.1359 168.424L48.262 168.55V172.081L48.0098 171.829C46.9159 171.134 45.6943 170.665 44.4167 170.448C43.139 170.231 41.8309 170.272 40.5692 170.568C39.6864 170.82 39.308 171.325 39.308 172.207C39.308 173.09 40.6952 173.721 42.5869 174.477L42.8392 174.603C45.1092 175.612 49.1448 177.126 49.1448 180.783C49.1448 182.296 48.3881 183.81 47.0009 184.819C45.8659 185.828 44.1003 186.332 42.0825 186.332ZM56.2071 186.458H51.7931V168.424L52.0454 168.298C52.2976 168.172 55.9549 167.163 59.7383 167.163C64.0261 167.163 66.0439 168.424 66.0439 168.424L66.17 168.55V172.081L65.9178 171.955C65.5394 171.703 63.6477 170.694 60.2427 170.694H59.9905C58.2249 170.694 56.9638 170.946 56.3332 171.072H56.081C56.2071 171.072 56.2071 186.458 56.2071 186.458ZM87.6091 191.124H89.5008V177.882H87.6091V191.124ZM114.849 191.25H112.453V189.106H105.769V187.467H112.453V185.197H107.535V183.557H112.453V181.287H106.148V179.648H112.327V177.63H114.723V179.648H120.903V181.287H114.723V183.557H119.642V185.197H114.723V187.467H121.407V189.106H114.723L114.849 191.25ZM156.971 180.531L154.323 178.513L152.935 179.648L155.584 181.792L156.971 180.531ZM157.097 187.089V182.549H152.935V184.188H155.079V187.341C154.827 189.106 154.07 189.863 152.557 189.863V191.503C154.323 191.503 155.458 190.872 156.214 189.737C157.097 190.62 158.484 191.503 160.754 191.503H169.456V189.863H160.754C157.349 189.737 157.097 187.215 157.097 187.089ZM167.691 178.387H158.989V179.9H167.691V178.387ZM158.611 186.71L161.637 183.053H157.98V181.54H168.952V183.053H164.412L161.133 186.837H165.799L164.79 185.449L166.556 184.692L169.204 188.224L167.438 188.98L166.934 188.35H158.737L158.611 186.71ZM141.711 185.323H144.486V181.287H140.45V180.531H145.243V179.017H140.576V177.882H138.433V179.017H133.766V180.531H138.433V181.287H134.271V185.323H136.919C136.541 186.458 135.532 186.962 134.145 186.962V188.35C135.658 188.35 137.424 187.971 138.18 186.332V189.359H140.198V186.332C141.081 187.971 142.846 188.35 144.36 188.35V186.837C143.099 186.837 142.09 186.332 141.711 185.323ZM138.306 183.81H136.289V182.675H138.306V183.81ZM140.324 182.549H142.342V183.684H140.324V182.549ZM132.631 180.531L129.983 178.513L128.47 179.648L131.118 181.792L132.631 180.531ZM132.757 187.089C132.757 187.215 133.01 189.737 136.415 189.737H145.116V191.376H136.415C134.145 191.376 132.757 190.62 132.001 189.611C131.244 190.746 129.857 191.376 128.343 191.376V189.737C129.731 189.737 130.487 188.98 130.866 187.215V184.062H128.722V182.423H132.884L132.757 187.089ZM84.078 177.882H82.3124V187.341C82.3124 188.728 82.0602 189.485 81.3035 189.737L82.1863 191.124C83.1952 190.746 83.9519 189.737 84.078 187.845V177.882ZM95.5542 187.845V182.927H93.7887V187.845C93.6626 188.602 93.6625 189.611 90.888 189.611V191.124H91.0142C92.9059 190.998 94.0409 190.62 94.6714 189.989C95.302 190.62 96.437 190.998 98.3287 191.124H98.581V189.611C95.6804 189.485 95.5542 188.602 95.5542 187.845ZM90.3836 179.396V177.882H98.8332V179.396H95.0498L94.4193 180.531H98.4548V188.35H96.437V182.044H92.7797V188.35H90.762V180.657H92.5276L93.1581 179.522L90.3836 179.396ZM84.8346 189.106H86.7263V178.891H84.8346V189.106ZM82.1863 161.992H92.4014V164.262H86.0958V167.037H91.6448V169.307H86.0958V172.46H92.4014V174.982H82.1863V161.992ZM95.0498 172.712L98.0765 168.298L96.6893 166.28C95.6804 164.893 94.5453 163.38 93.5365 161.866H97.5721L99.8421 165.145L102.238 161.866H106.274C105.769 162.623 105.265 163.379 104.76 164.01L101.734 168.424L103.121 170.568C104.13 171.955 105.265 173.595 106.4 175.108H102.364L99.8421 171.703L97.3198 175.108H93.4103C93.5364 174.982 94.5454 173.342 95.0498 172.712ZM168.069 167.92C167.438 167.541 166.934 167.289 166.303 167.163L165.673 166.911C163.781 166.28 162.772 165.902 162.772 165.145C162.772 164.64 163.403 163.884 164.916 163.884C166.682 163.884 167.817 164.515 168.573 165.019L168.826 165.145V162.497C167.817 162.245 166.808 161.74 164.79 161.74C160.502 161.74 158.989 163.758 158.989 165.775C158.989 168.046 161.133 168.802 162.394 169.307L163.151 169.559C164.664 170.189 165.925 170.568 165.925 171.577C165.925 172.333 165.168 173.09 163.151 173.09C161.133 173.09 159.872 172.334 159.241 171.955L158.989 171.829V174.73H159.115C159.367 174.856 159.619 174.982 159.872 174.982C160.376 175.234 161.763 175.612 163.403 175.612C164.159 175.612 165.799 175.486 167.186 174.982C169.078 174.225 169.835 172.838 169.835 171.325C169.835 169.811 169.33 168.676 168.069 167.92ZM155.962 167.92C155.332 167.541 154.701 167.289 154.197 167.163L153.566 166.911C151.674 166.28 150.665 165.902 150.665 165.145C150.665 164.64 151.296 163.884 152.809 163.884C154.575 163.884 155.71 164.515 156.467 165.019L156.719 165.145V162.623L156.467 162.497C155.458 162.245 154.575 161.74 152.431 161.74C148.143 161.74 146.756 163.758 146.756 165.775C146.756 168.046 148.9 168.802 150.035 169.307L150.792 169.559C152.431 170.189 153.566 170.568 153.566 171.577C153.566 172.333 152.809 173.09 150.918 173.09C148.774 173.09 147.639 172.334 146.882 171.955L146.63 171.829V174.73H146.756L147.387 174.982C148.017 175.234 149.278 175.612 151.044 175.612C151.674 175.612 153.44 175.486 154.701 174.982C156.593 174.225 157.349 172.838 157.349 171.325C157.602 169.811 157.097 168.676 155.962 167.92ZM120.903 174.982V161.866H125.317C127.965 161.74 129.226 162.118 130.361 162.623C132.253 163.379 132.505 164.893 132.505 165.775C132.505 168.298 130.361 169.055 129.352 169.433C129.983 170.19 133.01 174.099 133.892 174.982H129.352C127.839 172.46 127.461 172.207 125.947 170.063H124.938V174.982H120.903ZM124.938 167.793C126.073 167.793 126.956 167.667 127.461 167.415C128.343 167.037 128.47 166.28 128.47 165.775C128.47 164.262 126.704 164.136 125.821 164.136C125.569 164.136 125.191 164.136 124.812 164.262L124.938 167.793ZM107.535 174.982V161.866H113.462C116.615 161.866 119.642 162.623 119.642 166.028C119.642 169.811 115.48 170.946 111.697 170.946V174.982H107.535ZM111.571 168.298C111.571 168.298 113.21 168.298 114.219 168.046C115.228 167.793 115.984 167.037 115.984 166.154C115.984 165.397 115.48 164.641 114.219 164.388C113.462 164.262 112.075 164.262 111.571 164.262V168.298ZM134.901 161.992H145.116V164.262H138.811V167.037H144.36V169.307H138.811V172.46H145.116V174.982H134.901V161.992Z" fill="#1E1E1C"/>
<path d="M29.2186 237.533H31.6147C34.1369 237.785 36.5331 238.92 38.2987 240.56V238.038H44.6044V261.747H38.2987V259.351C37.0376 260.234 35.9025 261.242 34.3892 261.747C31.4886 262.756 28.2097 262.504 25.4352 261.242C22.913 259.855 20.769 257.837 19.634 255.315C19.0034 254.054 18.8774 252.667 18.499 251.279V248.631C18.7512 247.496 18.8773 246.361 19.2557 245.226C20.0316 243.141 21.3763 241.315 23.1373 239.955C24.8982 238.595 27.005 237.756 29.2186 237.533ZM30.732 242.956C27.3269 243.334 24.8046 246.487 24.9307 249.64C24.8046 251.784 25.5613 253.928 27.3269 255.315C29.8492 257.585 34.3892 257.459 36.7854 254.937C38.0465 253.676 38.2987 251.784 38.4248 250.144C38.4248 248.253 38.0465 246.235 36.5331 244.974C35.8043 244.189 34.8946 243.595 33.8834 243.244C32.8722 242.892 31.7902 242.793 30.732 242.956ZM58.2245 237.533H61.5034C62.3862 237.785 63.269 238.038 64.1518 238.416C62.8907 239.803 61.6295 241.19 60.6206 242.83C60.4945 243.082 60.1162 242.83 59.8639 242.83C58.3506 242.452 56.585 242.704 55.5761 243.839C54.4411 245.1 54.315 246.739 54.0628 248.253V261.621H47.7572V237.912H53.8106V239.929C55.1978 238.92 56.585 237.912 58.2245 237.533ZM71.7186 237.533H74.2408C76.7631 237.785 79.0331 239.046 80.9248 240.56V238.038H87.2304V261.747C85.0865 261.873 83.0687 261.747 80.9248 261.747V259.351C80.2942 259.729 79.7897 260.234 79.1592 260.612C77.6697 261.548 75.9836 262.126 74.2331 262.301C72.4827 262.476 70.7155 262.243 69.0702 261.621C64.2779 259.729 60.9989 254.937 61.2512 250.144C60.9989 246.613 62.2601 242.956 65.1607 240.56C66.9263 238.794 69.3224 237.912 71.7186 237.533ZM73.4841 242.956C70.5835 243.208 68.3135 245.604 67.809 248.127C67.1785 250.901 68.0613 254.054 70.5835 255.693C73.2319 257.459 77.2675 257.081 79.2853 254.811C80.6726 253.297 81.0509 251.28 80.9248 249.262C81.0509 247.874 80.5464 246.487 79.7897 245.352C79.0156 244.466 78.0356 243.785 76.936 243.367C75.8365 242.949 74.651 242.808 73.4841 242.956ZM103.751 237.533H105.769C108.543 237.785 110.94 239.425 112.201 241.695C113.966 239.425 116.741 237.785 119.767 237.533H121.659C124.307 237.785 126.956 239.047 128.217 241.317C128.974 242.325 128.974 243.587 129.226 244.848C129.478 248.631 129.352 252.415 129.478 256.198C129.226 257.964 129.478 259.855 129.352 261.621H123.172V249.64C123.046 248.253 123.046 246.739 122.542 245.352C122.164 244.469 121.659 243.587 120.776 243.208C118.506 242.199 115.606 243.208 114.471 245.226C113.714 246.361 113.588 247.748 113.462 249.009V261.495H107.156V249.262C107.03 247.244 107.03 244.848 105.138 243.46C102.868 241.821 99.4633 243.082 98.2022 245.226C97.4455 246.613 97.3194 248.126 97.1933 249.64V261.495H90.8876V237.785H97.1933V240.56C98.7066 238.92 101.103 237.785 103.751 237.533ZM143.351 237.533H146.503C149.404 237.912 152.304 238.92 154.196 240.812C157.349 243.46 158.484 247.622 158.106 251.532H137.928C138.18 253.297 139.189 254.937 140.828 255.945C143.981 257.837 148.521 257.333 151.17 254.684C152.935 255.315 154.701 256.198 156.466 256.954C154.652 259.545 151.886 261.313 148.773 261.873C145.621 262.504 142.216 262.377 139.189 261.116C136.036 259.855 133.64 257.333 132.505 254.306C131.748 252.036 131.622 249.64 132 247.244C132.631 243.208 135.658 239.677 139.693 238.164C140.954 237.912 142.215 237.785 143.351 237.533ZM141.963 243.208C140.324 243.839 138.937 245.352 138.432 246.865H151.926C151.169 244.595 148.899 242.956 146.377 242.578C144.864 242.578 143.224 242.452 141.963 243.208ZM157.349 238.038H164.663C166.429 240.055 167.942 242.452 169.708 244.469L174.626 238.038H181.815C181.563 238.668 181.058 239.173 180.554 239.803L173.365 249.262C176.266 253.171 179.293 256.954 182.193 260.738C182.445 261.116 182.698 261.368 182.824 261.747H175.635C173.491 259.225 171.6 256.576 169.582 254.054C167.564 256.576 165.672 259.225 163.655 261.747C161.258 261.873 158.862 261.747 156.466 261.747C156.845 260.99 157.601 260.233 158.106 259.477L165.799 249.514C166.051 249.262 165.799 249.009 165.546 248.757C162.898 245.226 159.997 241.695 157.349 238.038Z" fill="#E7352A"/>
<path d="M26.6964 267.801H27.7053V277.007H27.0747C26.9486 276.881 26.9486 276.629 26.8225 276.502C25.8136 277.259 24.4263 277.385 23.2913 276.881C21.9041 276.25 21.5257 274.611 21.778 273.224C21.6518 272.215 22.2824 271.08 23.2913 270.575C24.4263 270.197 25.6875 270.323 26.6964 270.827V267.801ZM23.1652 271.963C22.5347 273.098 22.5347 274.611 23.1652 275.746C24.048 276.881 25.8136 276.629 26.6964 275.746V271.836C25.6875 271.332 23.9219 270.828 23.1652 271.963ZM36.1548 267.801H38.1726V275.746C38.1726 276.377 38.8031 276.376 39.1815 276.502V277.259C38.2987 277.385 37.2898 277.133 37.1637 276.124V268.557H36.0287V267.801M40.6949 267.801H41.956V268.936H40.6949V267.801ZM87.3565 267.801H89.3744V275.746C89.3744 276.25 90.0049 276.377 90.5093 276.377V277.133C89.6265 277.259 88.4916 277.007 88.4916 275.998V268.431H87.3565C87.2304 268.305 87.2304 268.053 87.3565 267.801ZM91.8966 267.801H93.1577V268.936H91.8966V267.801ZM106.904 267.801H108.165V268.936H106.904V267.801ZM128.091 267.801H129.1V277.133C128.721 277.259 128.469 277.007 128.217 276.629C127.208 277.511 125.569 277.511 124.434 276.755C123.551 276.124 123.173 275.115 123.173 274.232C123.173 273.35 123.173 272.467 123.551 271.71C124.308 270.071 126.704 270.197 128.091 270.954V267.801ZM124.434 272.088C123.929 273.35 123.803 274.863 124.812 275.998C125.695 276.881 127.208 276.502 128.091 275.872V271.836C126.956 271.206 125.19 270.827 124.434 272.088ZM111.066 268.431C111.318 268.179 111.696 268.179 111.948 268.179V270.575H114.471C114.345 270.827 114.219 271.206 114.092 271.458H111.948V275.872C112.327 276.629 113.462 276.502 114.092 276.124C114.345 276.376 114.975 276.629 114.471 276.881C113.336 277.385 111.318 277.511 110.94 276.124C110.813 274.611 110.94 272.971 110.94 271.458H109.678V270.575H110.94C111.066 269.819 110.94 269.188 111.066 268.431ZM29.3447 272.341C29.5969 271.332 30.4797 270.575 31.6147 270.575C32.7497 270.449 34.2631 270.575 34.8937 271.584C35.272 272.341 35.272 273.35 35.272 274.106C33.5064 274.106 31.867 273.98 30.1014 274.232C30.2276 274.863 30.2275 275.62 30.8581 276.124C31.867 276.755 33.6325 276.755 34.3892 275.62C34.6414 275.746 35.0198 275.872 35.272 275.872C34.6415 277.133 32.8759 277.511 31.4886 277.259C30.6059 277.133 29.7231 276.629 29.4709 275.746C29.0925 274.611 29.0925 273.476 29.3447 272.341ZM30.8581 271.71C30.4797 272.215 30.2275 272.719 30.2275 273.35H34.2631C34.2631 272.719 34.2631 271.836 33.5064 271.458C32.7497 271.08 31.6148 271.206 30.8581 271.71ZM52.4233 270.575C53.5583 270.449 54.6934 270.323 55.7023 270.954C56.5851 271.71 56.7112 272.971 56.5851 274.106H51.4144C51.5405 274.737 51.5406 275.62 52.1711 275.998C53.18 276.629 54.9456 276.502 55.7023 275.493C55.9545 275.62 56.2067 275.746 56.5851 275.746C55.5762 277.512 52.6755 277.638 51.1622 276.25C50.5316 275.241 50.2794 273.98 50.5316 272.719C50.5316 271.836 51.2883 270.827 52.4233 270.575ZM52.1711 271.584C51.6667 271.962 51.5405 272.719 51.4144 273.224H55.45C55.45 272.593 55.45 271.962 54.9456 271.584C54.1889 271.08 53.0539 271.08 52.1711 271.584ZM59.1073 271.206C59.864 270.701 60.7468 270.197 61.6296 270.575V271.458C60.7468 271.332 59.7379 271.584 59.2334 272.215V277.133H58.2245C58.2245 274.989 58.0984 272.845 58.2245 270.701H59.1073C58.9812 270.828 58.9812 270.954 59.1073 271.206ZM82.4382 270.827C83.4471 270.197 84.9604 270.197 85.8431 271.08C86.2215 271.584 86.3476 272.215 86.3476 272.845V277.007C86.0954 277.133 85.7171 277.007 85.3387 277.133V272.593C85.3387 271.963 84.8343 271.332 84.0776 271.206C83.1948 271.206 82.312 271.71 81.5554 272.215C81.5554 273.854 81.6815 275.494 81.5554 277.007H80.6726V270.575H81.4292C81.5553 270.827 81.5553 271.08 81.6814 271.332C81.9337 271.206 82.1859 271.08 82.4382 270.827ZM97.6978 270.575C98.7067 270.071 99.9678 270.449 100.472 271.332C101.229 270.828 102.112 270.197 103.121 270.323C104.382 270.197 105.012 271.458 105.012 272.467V277.007H104.003C103.877 275.494 104.003 274.106 104.003 272.593C103.877 271.963 103.751 271.206 102.995 271.08C102.112 271.08 101.481 271.584 100.724 272.088V277.007H99.7155V272.845C99.7155 272.215 99.5895 271.206 98.5806 271.08C97.6978 271.08 97.0672 271.584 96.3106 272.088V276.881H95.3016V270.449H96.1844C96.3105 270.701 96.3106 270.954 96.3106 271.206C96.815 271.206 97.1933 270.827 97.6978 270.575ZM116.11 271.584C116.741 270.449 118.38 270.323 119.641 270.449C120.398 270.449 120.902 270.953 121.281 271.458C121.659 272.215 121.659 273.224 121.785 274.106H116.615C116.615 274.863 116.741 275.746 117.497 276.124C118.506 276.628 119.894 276.503 120.524 275.746C120.776 275.368 121.281 275.746 121.659 275.872C120.902 277.259 119.011 277.511 117.497 277.133C116.362 276.881 115.606 275.746 115.606 274.737C115.732 273.602 115.48 272.593 116.11 271.584ZM117.497 271.584C116.993 271.962 116.741 272.719 116.741 273.224H120.776C120.776 272.593 120.65 271.836 120.146 271.458C119.389 271.08 118.254 271.08 117.497 271.584ZM39.9382 270.575H42.0821V275.872C42.2083 276.376 42.7127 276.377 43.2171 276.377V277.133C42.4604 277.259 41.3254 277.133 41.1993 276.124V271.332H40.0643C39.9382 271.08 39.9382 270.827 39.9382 270.575ZM43.3433 270.575C43.7216 270.575 44.4783 270.323 44.6044 270.954C45.1088 272.719 46.1177 274.358 46.4961 276.124C47.2528 274.232 47.8833 272.467 48.6399 270.575H49.775L47.1266 277.007H45.8655C45.1088 274.863 44.2261 272.719 43.3433 270.575ZM62.2602 270.575H63.269C64.0257 272.341 64.7824 274.106 65.413 275.872C66.1696 274.106 66.8001 272.341 67.5568 270.575H68.5658C67.4308 273.476 66.2957 276.502 65.0346 279.403H62.2602C62.6385 278.773 63.7735 279.529 64.1518 278.773C64.4041 278.268 64.7824 277.637 64.7824 277.133C64.0257 274.863 63.0168 272.719 62.2602 270.575ZM72.9797 270.575H73.9886C74.1147 272.341 73.7364 274.232 74.2409 275.872C75.1236 277.007 76.763 276.124 77.6458 275.368V270.575H78.6548V277.007H77.772C77.772 276.755 77.6459 276.502 77.5197 276.25C76.637 276.881 75.628 277.385 74.493 277.133C73.358 277.007 72.7275 275.998 72.7275 274.989C72.9797 273.602 72.9797 272.089 72.9797 270.575ZM91.0138 270.575H93.0316V275.62C93.0316 275.872 93.1577 275.998 93.1577 276.25C93.41 276.25 93.6622 276.377 93.9144 276.377V277.133C93.2838 277.133 92.5271 277.133 92.1488 276.629C91.7704 275.746 91.8966 274.611 91.8966 273.728C91.8966 272.971 91.7705 272.215 92.0227 271.584C91.7705 271.332 91.266 271.458 90.8877 271.458V270.575M106.021 270.575H108.165V275.62C108.165 276.124 108.796 276.377 109.3 276.377V277.133C108.417 277.259 107.408 277.007 107.282 276.124C107.156 274.611 107.282 272.971 107.282 271.332H106.147C106.021 271.08 106.021 270.827 106.021 270.575Z" fill="#030304"/>
</g>
</g>
</g>
<defs>
<clipPath id="clip0_26003_111799">
<rect width="199.27" height="279.97" fill="white" transform="translate(0.0556641 0.65625)"/>
</clipPath>
<clipPath id="clip1_26003_111799">
<rect width="199.27" height="279.97" fill="white" transform="translate(0.0556641 0.65625)"/>
</clipPath>
<clipPath id="clip2_26003_111799">
<rect width="199.258" height="279.97" fill="white" transform="translate(0.0615234 0.65625)"/>
</clipPath>
</defs>
</svg>
