<svg width="215" height="199" viewBox="0 0 215 199" fill="none" xmlns="http://www.w3.org/2000/svg">
<g clip-path="url(#clip0_26003_111565)">
<g clip-path="url(#clip1_26003_111565)">
<g clip-path="url(#clip2_26003_111565)">
<path d="M14.6835 25.1699H200.687C204.326 25.1699 207.816 26.6156 210.389 29.1889C212.962 31.7622 214.408 35.2523 214.408 38.8915C214.408 42.5306 212.962 46.0207 210.389 48.594C207.816 51.1673 204.326 52.613 200.687 52.613H14.6835C11.0443 52.613 7.55413 51.1673 4.98084 48.594C2.40755 46.0207 0.961914 42.5306 0.961914 38.8915C0.961914 35.2523 2.40755 31.7622 4.98084 29.1889C7.55413 26.6156 11.0443 25.1699 14.6835 25.1699Z" fill="#EFEFEF"/>
<path opacity="0.7" d="M51.8032 125.427V133.924H50.6953V125.427H51.8032ZM55.0456 128.151V132.095C55.0151 132.339 55.0963 132.593 55.2488 132.786C55.4547 132.943 55.7128 133.016 55.9705 132.989H56.7836V133.924H55.7875C55.2895 133.965 54.7915 133.812 54.3951 133.497C54.0495 133.111 53.8868 132.603 53.9275 132.095V128.151H53.0636V127.236H53.9275V125.549H55.0354V127.236H56.7836V128.151H55.0456ZM57.7187 130.56C57.7086 129.94 57.8508 129.32 58.1354 128.761C58.3952 128.258 58.7914 127.839 59.2787 127.551C59.7659 127.264 60.3243 127.119 60.8899 127.135C61.4185 127.124 61.947 127.257 62.4146 127.511C62.8211 127.734 63.1463 128.059 63.3801 128.466V127.246H64.4982V133.924H63.3801V132.684C63.1463 133.091 62.8109 133.426 62.3942 133.65C61.9368 133.914 61.4083 134.046 60.8798 134.036C60.3111 134.048 59.7508 133.898 59.2647 133.602C58.7786 133.307 58.3868 132.879 58.1354 132.369C57.8483 131.81 57.7051 131.188 57.7187 130.56ZM63.37 130.57C63.3801 130.113 63.2785 129.655 63.065 129.249C62.8809 128.89 62.5989 128.591 62.2517 128.386C61.9045 128.181 61.5064 128.078 61.1033 128.09C60.7029 128.078 60.3071 128.179 59.9618 128.383C59.6165 128.586 59.3357 128.883 59.1519 129.239C58.9384 129.645 58.8368 130.102 58.8469 130.56C58.8368 131.027 58.9384 131.485 59.1519 131.891C59.3362 132.248 59.6168 132.545 59.9617 132.75C60.3067 132.955 60.7022 133.059 61.1033 133.05C61.4997 133.05 61.8961 132.948 62.2417 132.755C62.5975 132.552 62.8821 132.247 63.065 131.891C63.2785 131.485 63.3801 131.027 63.37 130.57ZM67.4763 124.898V133.924H66.3683V124.898H67.4763ZM75.1298 127.236L71.1048 137.075H69.9563L71.2776 133.853L68.5842 127.246H69.814L71.9078 132.654L73.9813 127.236H75.1298Z" fill="black"/>
<path fill-rule="evenodd" clip-rule="evenodd" d="M17.997 138.661H24.5935V122.5H17.997C17.1534 122.693 16.513 123.405 16.3809 124.37V136.781C16.4209 137.223 16.5982 137.642 16.8879 137.979C17.1776 138.317 17.5654 138.555 17.997 138.661Z" fill="#009145"/>
<path fill-rule="evenodd" clip-rule="evenodd" d="M24.5938 122.5H32.8064V138.661H24.5938V122.5Z" fill="#F7F9F8"/>
<path fill-rule="evenodd" clip-rule="evenodd" d="M32.7451 138.66H39.3416C39.771 138.554 40.1568 138.316 40.4462 137.982C40.7355 137.647 40.9142 137.231 40.9577 136.79V124.38C40.8255 123.414 40.1852 122.632 39.3416 122.51H32.7451V138.66Z" fill="#D13038"/>
<path opacity="0.7" d="M55.4922 4.47461V5.37923H51.7925V8.24545H54.7909V9.15007H51.7925V12.9718H50.6846V4.47461H55.4922ZM57.9418 7.37135C58.1247 6.99528 58.4195 6.69035 58.7752 6.47691C59.1818 6.2533 59.6392 6.14149 60.0965 6.16182V7.31037H59.8018C58.5618 7.31037 57.9316 7.98119 57.9316 9.33302V12.9718H56.8237V6.28379H57.9316V7.37135H57.9418ZM60.9706 9.60747C60.9605 8.98746 61.1028 8.36743 61.3874 7.8084C61.6517 7.31036 62.0379 6.89363 62.5258 6.59887C63.0152 6.31129 63.5742 6.16364 64.1418 6.172C64.6704 6.16183 65.1989 6.29396 65.6664 6.54806C66.073 6.77167 66.3983 7.09693 66.632 7.50349V6.28379H67.7501V12.9718H66.632V11.7318C66.3983 12.1384 66.0629 12.4737 65.6462 12.6973C65.1888 12.9616 64.6603 13.0937 64.1317 13.0836C63.5656 13.0946 63.0082 12.9429 62.5258 12.6465C62.0403 12.3493 61.6463 11.9236 61.3874 11.4166C61.105 10.8559 60.962 10.2353 60.9706 9.60747ZM66.632 9.61764C66.6422 9.16026 66.5406 8.70289 66.3271 8.29632C66.143 7.93762 65.861 7.63839 65.5138 7.43333C65.1667 7.22826 64.7685 7.12573 64.3655 7.1376C63.965 7.12551 63.5692 7.22694 63.2239 7.43016C62.8786 7.63339 62.5978 7.93015 62.414 8.28615C62.2005 8.69271 62.0988 9.15008 62.109 9.60747C62.0988 10.0649 62.2005 10.5222 62.414 10.939C62.5983 11.2953 62.8789 11.5928 63.2239 11.7976C63.5688 12.0024 63.9644 12.1064 64.3655 12.0977C64.7693 12.1067 65.1677 12.0031 65.5159 11.7984C65.8642 11.5938 66.1487 11.2962 66.3373 10.939C66.5304 10.5324 66.6422 10.075 66.632 9.61764ZM72.883 6.16182C73.6148 6.13133 74.3263 6.39564 74.8548 6.90384C75.3935 7.4832 75.668 8.24547 75.607 9.02811V12.9718H74.5092V9.19077C74.5483 8.63398 74.3697 8.08376 74.0112 7.65598C73.8353 7.47541 73.6227 7.33475 73.3877 7.24356C73.1527 7.15237 72.9009 7.11275 72.6492 7.12743C72.3916 7.11558 72.1342 7.15833 71.8943 7.25293C71.6543 7.34752 71.437 7.49178 71.2567 7.67626C70.8806 8.12348 70.6977 8.69268 70.7384 9.27204V12.9718H69.6305V6.28379H70.7384V7.23922C70.962 6.89364 71.2669 6.61924 71.6328 6.44645C72.0225 6.25772 72.45 6.16036 72.883 6.16182ZM77.0198 9.61764C77.0096 8.98747 77.1519 8.36743 77.4365 7.8084C77.7008 7.31036 78.0972 6.89364 78.585 6.60905C79.0988 6.31755 79.6817 6.17009 80.2723 6.18217C80.994 6.15168 81.7156 6.36509 82.3051 6.78182C82.8438 7.18838 83.2199 7.77791 83.3622 8.43857H82.173C82.0718 8.04968 81.8381 7.70828 81.5123 7.47303C81.1496 7.22895 80.7195 7.10452 80.2824 7.11725C79.9945 7.10632 79.7078 7.15892 79.4425 7.27135C79.1773 7.38378 78.9401 7.55329 78.7477 7.76777C78.3296 8.28655 78.1195 8.94231 78.1582 9.60747C78.1175 10.2783 78.3208 10.9492 78.7477 11.4777C79.1339 11.9147 79.7031 12.1586 80.2824 12.1383C80.7195 12.1586 81.1362 12.0367 81.5021 11.7928C81.8376 11.559 82.0714 11.2134 82.173 10.817H83.3724C83.2103 11.4694 82.8302 12.0467 82.295 12.4534C81.7156 12.8803 81.0041 13.0937 80.2824 13.0734C79.6917 13.087 79.1084 12.9394 78.5952 12.6465C78.1032 12.3633 77.7041 11.943 77.4467 11.437C77.1544 10.8758 77.0076 10.2503 77.0198 9.61764ZM90.9345 9.37371C90.9345 9.59732 90.9242 9.82091 90.8938 10.0445H85.5474C85.5576 10.6239 85.8016 11.1829 86.2285 11.5793C86.635 11.9452 87.1737 12.1485 87.7226 12.1383C88.1495 12.1586 88.5662 12.0367 88.9219 11.8029C89.237 11.5894 89.481 11.2743 89.603 10.9084H90.8023C90.6316 11.5375 90.2516 12.0897 89.7249 12.4738C89.1456 12.8905 88.4442 13.1039 87.7226 13.0734C87.1292 13.0819 86.5439 12.9347 86.0252 12.6465C85.5268 12.3615 85.1183 11.9425 84.8462 11.437C84.5539 10.8758 84.4071 10.2503 84.4192 9.61764C84.4091 8.98747 84.5514 8.36742 84.836 7.79823C85.1003 7.29002 85.5068 6.8733 86.0048 6.59887C86.5341 6.31034 87.1301 6.16662 87.7327 6.18217C88.3223 6.17201 88.9016 6.31428 89.42 6.59887C89.8977 6.86314 90.2839 7.25953 90.5482 7.73725C90.8125 8.23529 90.9446 8.80452 90.9345 9.37371ZM89.7961 9.1399C89.8053 8.75783 89.7067 8.38089 89.5115 8.05233C89.3285 7.74741 89.0642 7.51364 88.7491 7.36118C88.4172 7.19894 88.0513 7.11879 87.6819 7.12743C87.4101 7.12068 87.1396 7.1677 86.8861 7.26583C86.6325 7.36396 86.4008 7.51125 86.2043 7.69922C86.0079 7.88718 85.8505 8.1121 85.7412 8.36109C85.632 8.61008 85.5731 8.87822 85.5678 9.15007H89.7961V9.1399Z" fill="black"/>
<path fill-rule="evenodd" clip-rule="evenodd" d="M17.8749 18.2983H24.695V0.775391H17.8749C17.0008 0.988837 16.3401 1.76131 16.208 2.80821V16.2655C16.3401 17.3124 17.011 18.0848 17.8749 18.2983Z" fill="#303D8F"/>
<path fill-rule="evenodd" clip-rule="evenodd" d="M24.7051 0.775391H33.2023V18.2983H24.7051V0.775391Z" fill="#F9FAFA"/>
<path fill-rule="evenodd" clip-rule="evenodd" d="M33.1211 18.2983H39.9412C40.8153 18.0848 41.476 17.3124 41.6081 16.2655V2.80821C41.476 1.76131 40.8051 0.917688 39.9412 0.775391H33.1211V18.2983Z" fill="#D82535"/>
<path fill-rule="evenodd" clip-rule="evenodd" d="M17.916 199.005H24.7361V181.289H17.916C17.0418 181.503 16.3812 182.285 16.249 183.342V196.942C16.371 198.009 17.0418 198.792 17.916 199.005Z" fill="#303D8F"/>
<path fill-rule="evenodd" clip-rule="evenodd" d="M24.7354 181.301H33.2325V199.017H24.7354V181.301Z" fill="#F9FAFA"/>
<path fill-rule="evenodd" clip-rule="evenodd" d="M33.1621 199.007H39.9822C40.8564 198.793 41.517 198.011 41.6492 196.954V183.354C41.517 182.287 40.8462 181.443 39.9822 181.301H33.1621V199.007Z" fill="#D82535"/>
<path opacity="0.7" d="M55.4922 185.904V186.809H51.7925V189.675H54.7909V190.58H51.7925V194.401H50.6846V185.904H55.4922ZM57.9418 188.801C58.1247 188.425 58.4195 188.12 58.7752 187.907C59.1818 187.683 59.6392 187.571 60.0965 187.592V188.74H59.8018C58.5618 188.74 57.9316 189.411 57.9316 190.763V194.401H56.8237V187.713H57.9316V188.801H57.9418ZM60.9706 191.037C60.9605 190.417 61.1028 189.797 61.3874 189.238C61.6517 188.74 62.0379 188.323 62.5258 188.029C63.0152 187.741 63.5742 187.593 64.1418 187.602C64.6704 187.592 65.1989 187.724 65.6664 187.978C66.073 188.201 66.3983 188.527 66.632 188.933V187.713H67.7501V194.401H66.632V193.161C66.3983 193.568 66.0629 193.903 65.6462 194.127C65.1888 194.391 64.6603 194.523 64.1317 194.513C63.5656 194.524 63.0082 194.373 62.5258 194.076C62.0403 193.779 61.6463 193.353 61.3874 192.846C61.105 192.286 60.962 191.665 60.9706 191.037ZM66.632 191.047C66.6422 190.59 66.5406 190.133 66.3271 189.726C66.143 189.367 65.861 189.068 65.5138 188.863C65.1667 188.658 64.7685 188.555 64.3655 188.567C63.965 188.555 63.5692 188.657 63.2239 188.86C62.8786 189.063 62.5978 189.36 62.414 189.716C62.2005 190.122 62.0988 190.58 62.109 191.037C62.0988 191.495 62.2005 191.952 62.414 192.369C62.5983 192.725 62.8789 193.022 63.2239 193.227C63.5688 193.432 63.9644 193.536 64.3655 193.527C64.7693 193.536 65.1677 193.433 65.5159 193.228C65.8642 193.023 66.1487 192.726 66.3373 192.369C66.5304 191.962 66.6422 191.505 66.632 191.047ZM72.883 187.592C73.6148 187.561 74.3263 187.825 74.8548 188.334C75.3935 188.913 75.668 189.675 75.607 190.458V194.401H74.5092V190.62C74.5483 190.064 74.3697 189.513 74.0112 189.086C73.8353 188.905 73.6227 188.764 73.3877 188.673C73.1527 188.582 72.9009 188.542 72.6492 188.557C72.3916 188.545 72.1342 188.588 71.8943 188.683C71.6543 188.777 71.437 188.921 71.2567 189.106C70.8806 189.553 70.6977 190.122 70.7384 190.702V194.401H69.6305V187.713H70.7384V188.669C70.962 188.323 71.2669 188.049 71.6328 187.876C72.0225 187.687 72.45 187.59 72.883 187.592ZM77.0198 191.047C77.0096 190.417 77.1519 189.797 77.4365 189.238C77.7008 188.74 78.0972 188.323 78.585 188.039C79.0988 187.747 79.6817 187.6 80.2723 187.612C80.994 187.581 81.7156 187.795 82.3051 188.212C82.8438 188.618 83.2199 189.208 83.3622 189.868H82.173C82.0718 189.479 81.8381 189.138 81.5123 188.903C81.1496 188.659 80.7195 188.534 80.2824 188.547C79.9945 188.536 79.7078 188.589 79.4425 188.701C79.1773 188.813 78.9401 188.983 78.7477 189.197C78.3296 189.716 78.1195 190.372 78.1582 191.037C78.1175 191.708 78.3208 192.379 78.7477 192.907C79.1339 193.344 79.7031 193.588 80.2824 193.568C80.7195 193.588 81.1362 193.466 81.5021 193.222C81.8376 192.989 82.0714 192.643 82.173 192.247H83.3724C83.2103 192.899 82.8302 193.476 82.295 193.883C81.7156 194.31 81.0041 194.523 80.2824 194.503C79.6917 194.517 79.1084 194.369 78.5952 194.076C78.1032 193.793 77.7041 193.373 77.4467 192.867C77.1544 192.305 77.0076 191.68 77.0198 191.047ZM90.9345 190.803C90.9345 191.027 90.9242 191.251 90.8938 191.474H85.5474C85.5576 192.054 85.8016 192.613 86.2285 193.009C86.635 193.375 87.1737 193.578 87.7226 193.568C88.1495 193.588 88.5662 193.466 88.9219 193.233C89.237 193.019 89.481 192.704 89.603 192.338H90.8023C90.6316 192.967 90.2516 193.519 89.7249 193.903C89.1456 194.32 88.4442 194.534 87.7226 194.503C87.1292 194.512 86.5439 194.364 86.0252 194.076C85.5268 193.791 85.1183 193.372 84.8462 192.867C84.5539 192.305 84.4071 191.68 84.4192 191.047C84.4091 190.417 84.5514 189.797 84.836 189.228C85.1003 188.72 85.5068 188.303 86.0048 188.029C86.5341 187.74 87.1301 187.596 87.7327 187.612C88.3223 187.602 88.9016 187.744 89.42 188.029C89.8977 188.293 90.2839 188.689 90.5482 189.167C90.8125 189.665 90.9446 190.234 90.9345 190.803ZM89.7961 190.57C89.8053 190.188 89.7067 189.811 89.5115 189.482C89.3285 189.177 89.0642 188.943 88.7491 188.791C88.4172 188.629 88.0513 188.548 87.6819 188.557C87.4101 188.55 87.1396 188.597 86.8861 188.696C86.6325 188.794 86.4008 188.941 86.2043 189.129C86.0079 189.317 85.8505 189.542 85.7412 189.791C85.632 190.04 85.5731 190.308 85.5678 190.58H89.7961V190.57Z" fill="black"/>
<path opacity="0.7" d="M53.3887 73.5295C52.872 73.5389 52.3592 73.4384 51.8843 73.2347C51.4672 73.0554 51.1057 72.7676 50.8375 72.4013C50.5832 72.0418 50.4481 71.6117 50.4512 71.1715H51.6302C51.6607 71.5577 51.8437 71.9134 52.1283 72.1777C52.4841 72.4725 52.9313 72.6148 53.3887 72.5843C53.8359 72.6148 54.2831 72.4725 54.6388 72.1879C54.9336 71.9338 55.1064 71.5577 55.0962 71.1715C55.1064 70.8869 55.0149 70.6022 54.832 70.3786C54.649 70.1753 54.4152 70.0128 54.1611 69.9111C53.8054 69.779 53.4395 69.6672 53.0736 69.5757C52.6162 69.4639 52.1588 69.3114 51.7217 69.1386C51.3407 68.9777 51.0189 68.7027 50.8005 68.3514C50.5821 68.0001 50.4778 67.5899 50.502 67.177C50.4919 66.7399 50.6139 66.313 50.8578 65.9471C51.1018 65.5812 51.4473 65.2966 51.8539 65.1136C52.3113 64.9103 52.8195 64.8087 53.3175 64.8189C54.0188 64.7884 54.71 65.0018 55.2792 65.4185C55.7772 65.8048 56.0923 66.374 56.1431 67.0041H54.9235C54.872 66.6613 54.6899 66.3517 54.4152 66.1402C54.076 65.8779 53.6544 65.7446 53.226 65.7641C52.8194 65.7438 52.4129 65.8759 52.0876 66.1199C51.9413 66.2418 51.8255 66.3964 51.7496 66.5711C51.6737 66.7459 51.6398 66.936 51.6506 67.1262C51.6404 67.4006 51.7319 67.675 51.9149 67.8783C52.0876 68.0714 52.3113 68.2239 52.5654 68.3255C52.8195 68.4272 53.1854 68.5389 53.6428 68.6711C54.1002 68.793 54.5575 68.9455 54.9945 69.1285C55.3401 69.2809 55.6451 69.5249 55.8687 69.8196C56.133 70.1957 56.2549 70.6429 56.2346 71.0901C56.2346 71.5069 56.1228 71.9134 55.9093 72.259C55.6727 72.6414 55.335 72.951 54.9336 73.1535C54.4355 73.4279 53.9172 73.5499 53.3887 73.5295ZM58.9586 68.0003C59.1923 67.6039 59.538 67.2684 59.9445 67.0448C60.4019 66.7806 60.9304 66.6484 61.459 66.6586C62.0282 66.6484 62.5871 66.8009 63.075 67.0855C63.5629 67.3701 63.9593 67.7868 64.2134 68.2848C64.498 68.8439 64.6403 69.4639 64.6302 70.0839C64.6403 70.7141 64.498 71.334 64.2134 71.8931C63.9584 72.4025 63.5644 72.8295 63.0769 73.1244C62.5895 73.4194 62.0286 73.5704 61.459 73.56C60.9619 73.5706 60.4706 73.4527 60.0325 73.2176C59.5944 72.9826 59.2245 72.6383 58.9586 72.2183V76.6194H57.8507V66.7602H58.9586V68.0003ZM63.4918 70.0839C63.502 69.6265 63.4003 69.1691 63.1868 68.7626C63.0003 68.4065 62.7176 68.1101 62.3707 67.907C62.0239 67.7039 61.6269 67.6024 61.2251 67.614C60.8235 67.6092 60.4281 67.7147 60.0822 67.919C59.7364 68.1233 59.4532 68.4186 59.2635 68.7727C59.05 69.1793 58.9382 69.6265 58.9484 70.0839C58.9382 70.5413 59.05 70.9986 59.2635 71.4052C59.4532 71.7593 59.7364 72.0547 60.0822 72.259C60.4281 72.4633 60.8235 72.5688 61.2251 72.5639C61.6215 72.5639 62.0179 72.4623 62.3635 72.2692C62.7193 72.0659 63.0039 71.761 63.1868 71.4052C63.4003 70.9986 63.502 70.5413 63.4918 70.0839ZM65.677 70.0839C65.6669 69.4639 65.8092 68.8439 66.0938 68.2848C66.3535 67.7822 66.7498 67.363 67.237 67.0753C67.7242 66.7876 68.2826 66.6432 68.8482 66.6586C69.3768 66.6484 69.9053 66.7806 70.3728 67.0347C70.7794 67.2583 71.1047 67.5835 71.3384 67.9901V66.7704H72.4565V73.4482H71.3384V72.2082C71.1047 72.6148 70.7693 72.9501 70.3526 73.1738C69.8952 73.438 69.3666 73.5702 68.8381 73.56C68.2695 73.5721 67.7092 73.4218 67.223 73.1265C66.7369 72.8312 66.3452 72.4033 66.0938 71.8931C65.8114 71.3323 65.6684 70.7117 65.677 70.0839ZM71.3384 70.0941C71.3486 69.6367 71.247 69.1793 71.0335 68.7727C70.8494 68.414 70.5674 68.1148 70.2202 67.9098C69.8731 67.7047 69.4749 67.6022 69.0719 67.614C68.6714 67.6019 68.2756 67.7034 67.9303 67.9066C67.585 68.1098 67.3042 68.4066 67.1204 68.7626C66.9069 69.1691 66.8052 69.6265 66.8154 70.0839C66.8052 70.5514 66.9069 71.0088 67.1204 71.4154C67.3047 71.7717 67.5853 72.0692 67.9303 72.274C68.2752 72.4789 68.6708 72.5828 69.0719 72.5741C69.4683 72.5741 69.8647 72.4724 70.2102 72.2793C70.566 72.076 70.8506 71.7711 71.0335 71.4154C71.247 71.0088 71.3486 70.5515 71.3384 70.0941ZM74.9162 65.6828C74.8158 65.6851 74.7161 65.6664 74.6233 65.6279C74.5305 65.5893 74.4468 65.5319 74.3775 65.4592C74.271 65.3526 74.1985 65.2169 74.1692 65.0691C74.1398 64.9213 74.1549 64.7681 74.2125 64.6289C74.2702 64.4897 74.3678 64.3707 74.4931 64.2869C74.6183 64.2032 74.7656 64.1583 74.9162 64.1582C75.1139 64.1635 75.3016 64.2466 75.4386 64.3892C75.5755 64.5319 75.6508 64.7228 75.648 64.9205C75.6508 65.1183 75.5755 65.3092 75.4386 65.4519C75.3016 65.5945 75.1139 65.6775 74.9162 65.6828ZM75.4448 66.7602V73.4482H74.3369V66.7602H75.4448ZM80.5979 66.6382C81.3297 66.6078 82.0412 66.8721 82.5698 67.3803C83.1085 67.9596 83.3829 68.7219 83.322 69.5045V73.4482H82.2242V69.6672C82.2633 69.1104 82.0847 68.5602 81.7262 68.1324C81.5503 67.9518 81.3377 67.8112 81.1027 67.72C80.8677 67.6288 80.6158 67.5892 80.3642 67.6038C80.1065 67.592 79.8492 67.6348 79.6092 67.7293C79.3693 67.8239 79.152 67.9682 78.9717 68.1527C78.5956 68.5999 78.4127 69.1691 78.4533 69.7485V73.4482H77.3455V66.7602H78.4533V67.7156C78.6769 67.3701 78.9819 67.0957 79.3478 66.9229C79.734 66.7298 80.1609 66.6382 80.5979 66.6382Z" fill="black"/>
<path d="M16.3301 73.4688V76.7111C16.3301 78.0731 17.3973 79.1504 18.7085 79.1504H38.5488C39.1859 79.1424 39.7939 78.8823 40.2397 78.427C40.6854 77.9718 40.9326 77.3584 40.9272 76.7212V73.4688H16.3301Z" fill="#D32030"/>
<path d="M38.5489 79.151C39.186 79.143 39.794 78.8829 40.2398 78.4276C40.6855 77.9723 40.9327 77.3589 40.9273 76.7218V73.4693H31.9626L38.5489 79.151ZM38.5489 62.0957H18.7086C18.0715 62.1037 17.4635 62.3638 17.0177 62.8191C16.572 63.2744 16.3247 63.8877 16.3302 64.5249V67.7774H40.9273V64.5351C40.9273 63.1731 39.86 62.0957 38.5489 62.0957Z" fill="#D32030"/>
<path d="M38.5493 62.0957H18.709L25.2953 67.7774H40.9277V64.5351C40.9277 63.1731 39.8604 62.0957 38.5493 62.0957Z" fill="#D32030"/>
<path d="M38.5493 62.0957H18.709L37.0856 67.7774H40.9277V64.5351C40.9277 63.1731 39.8604 62.0957 38.5493 62.0957Z" fill="#D32030"/>
<path d="M16.3301 65.2676V75.9907H40.9272V65.2676H16.3301Z" fill="#FFD034"/>
<path d="M25.2545 67.7069L32.0035 73.5513L34.8596 75.9907H40.9276V65.2676H22.3984L25.2545 67.7069Z" fill="#FFD034"/>
<path d="M28.9844 65.2676L36.8819 67.7069L40.9272 68.947V65.2676H28.9844Z" fill="#FFD034"/>
<path d="M40.9273 76.7115C40.9273 78.0735 39.86 79.1508 38.5489 79.1508H18.7086C18.0715 79.1428 17.4635 78.8827 17.0177 78.4274C16.572 77.9721 16.3247 77.3587 16.3302 76.7216V76.7115M19.786 70.4707V72.1477C19.786 72.9914 20.4568 73.6724 21.2903 73.6724C22.1237 73.6724 22.7945 72.9914 22.7945 72.1477V70.4707H19.786ZM23.1503 70.7045H23.628V73.0219H23.1503V70.7045ZM23.8313 73.3065C23.7906 73.2658 23.75 73.2658 23.6687 73.2658C23.628 73.2658 23.5568 73.2658 23.506 73.3065C23.4654 73.3471 23.4247 73.3472 23.3434 73.3472C23.3028 73.3472 23.2316 73.3471 23.1808 73.3065C23.1401 73.3065 23.0995 73.2658 23.0182 73.2658C22.9368 73.2658 22.9063 73.2658 22.8555 73.3065C22.8148 73.3471 22.7742 73.3472 22.6929 73.3472V73.4284C22.7336 73.4284 22.8047 73.4285 22.8555 73.3878C22.8962 73.3878 22.9368 73.3472 23.0182 73.3472C23.0995 73.3472 23.1299 73.3471 23.1808 73.3878C23.2214 73.4285 23.2621 73.4284 23.3434 73.4284C23.3841 73.4284 23.4552 73.4285 23.506 73.3878C23.5467 73.3878 23.5874 73.3472 23.6687 73.3472C23.7093 73.3472 23.7805 73.3471 23.8313 73.3878C23.8719 73.4285 23.9431 73.4284 23.9939 73.4284V73.3472C23.9532 73.3472 23.8719 73.3471 23.8313 73.3065ZM23.7093 73.4691C23.6687 73.4691 23.5975 73.4691 23.5467 73.5098C23.506 73.5504 23.4654 73.5504 23.3841 73.5504C23.3434 73.5504 23.2723 73.5504 23.2215 73.5098C23.1808 73.5098 23.1401 73.4691 23.0588 73.4691C22.9775 73.4691 22.947 73.4691 22.8962 73.5098C22.8555 73.5504 22.8149 73.5504 22.7335 73.5504V73.6317C22.7742 73.6317 22.8454 73.6317 22.8962 73.5911C22.9369 73.5911 22.9775 73.5504 23.0588 73.5504C23.1401 73.5504 23.1706 73.5504 23.2215 73.5911C23.2621 73.6317 23.3027 73.6317 23.3841 73.6317C23.4247 73.6317 23.4958 73.6317 23.5467 73.5911C23.5873 73.5911 23.628 73.5504 23.7093 73.5504C23.75 73.5504 23.8211 73.5504 23.8719 73.5911C23.9126 73.6317 23.9533 73.6317 24.0346 73.6317V73.5504C23.9939 73.5504 23.9227 73.5504 23.8719 73.5098C23.7906 73.4691 23.75 73.4691 23.7093 73.4691Z" fill="#D32030"/>
<path d="M23.7091 73.6211C23.6684 73.6211 23.5972 73.6211 23.5464 73.6618C23.5057 73.7024 23.4651 73.7024 23.3838 73.7024C23.3431 73.7024 23.272 73.7024 23.2212 73.6618C23.1805 73.6618 23.1399 73.6211 23.0585 73.6211C22.9772 73.6211 22.9468 73.6211 22.8959 73.6618C22.8553 73.7024 22.8146 73.7024 22.7333 73.7024V73.7837C22.7739 73.7837 22.8451 73.7837 22.8959 73.7431C22.9366 73.7431 22.9772 73.7024 23.0585 73.7024C23.1399 73.7024 23.1704 73.7024 23.2212 73.7431C23.2619 73.7837 23.3025 73.7837 23.3838 73.7837C23.4245 73.7837 23.4956 73.7837 23.5464 73.7431C23.5871 73.7431 23.6277 73.7024 23.7091 73.7024C23.7497 73.7024 23.8208 73.7024 23.8717 73.7431C23.9123 73.7837 23.953 73.7837 24.0343 73.7837V73.7024C23.9937 73.7024 23.9225 73.7024 23.8717 73.6618C23.7903 73.6719 23.7497 73.6211 23.7091 73.6211ZM23.7091 73.0621C23.7091 73.1027 23.6684 73.1434 23.6277 73.1434H23.1093C23.0687 73.1434 23.0382 73.1027 23.0281 73.0621C23.0281 73.0214 23.0687 72.9807 23.1093 72.9807H23.6277C23.6684 72.9807 23.7091 73.0214 23.7091 73.0621ZM23.7091 70.6634C23.7091 70.704 23.6684 70.7447 23.6277 70.7447H23.1093C23.0687 70.7447 23.0382 70.704 23.0281 70.6634C23.0281 70.6227 23.0687 70.582 23.1093 70.582H23.6277C23.6684 70.6227 23.7091 70.6227 23.7091 70.6634ZM18.9929 70.704H19.4706V73.0214H18.9929V70.704ZM19.6638 73.306C19.6231 73.2653 19.5824 73.2654 19.5011 73.2654C19.4604 73.2654 19.3893 73.2653 19.3385 73.306C19.2979 73.3467 19.2572 73.3467 19.1758 73.3467C19.1352 73.3467 19.0641 73.3467 19.0132 73.306C18.9726 73.306 18.9319 73.2654 18.8506 73.2654C18.8099 73.2654 18.7388 73.2653 18.688 73.306C18.6473 73.3467 18.6067 73.3467 18.5254 73.3467V73.428C18.566 73.428 18.6372 73.428 18.688 73.3873C18.7286 73.3873 18.7693 73.3467 18.8506 73.3467C18.8912 73.3467 18.9624 73.3467 19.0132 73.3873C19.0946 73.428 19.1251 73.428 19.2165 73.428C19.2572 73.428 19.3283 73.428 19.3791 73.3873C19.4198 73.3873 19.4605 73.3467 19.5418 73.3467C19.5825 73.3467 19.6536 73.3467 19.7044 73.3873C19.7044 73.428 19.745 73.428 19.8162 73.428V73.3467C19.745 73.3467 19.7044 73.3467 19.6638 73.306ZM19.5011 73.4687C19.4604 73.4687 19.3893 73.4686 19.3385 73.5093C19.2979 73.55 19.2572 73.5499 19.1758 73.5499C19.1352 73.5499 19.0641 73.55 19.0132 73.5093C18.9726 73.5093 18.9319 73.4687 18.8506 73.4687C18.8099 73.4687 18.7388 73.4686 18.688 73.5093C18.6473 73.55 18.6067 73.5499 18.5254 73.5499V73.6313C18.566 73.6313 18.6372 73.6313 18.688 73.5906C18.7286 73.5906 18.7693 73.5499 18.8506 73.5499C18.8912 73.5499 18.9624 73.55 19.0132 73.5906C19.0539 73.6313 19.0945 73.6313 19.1758 73.6313C19.2165 73.6313 19.2877 73.6313 19.3385 73.5906C19.3792 73.5906 19.4198 73.5499 19.5011 73.5499C19.5418 73.5499 19.6129 73.55 19.6638 73.5906C19.7044 73.6313 19.7451 73.6313 19.8264 73.6313V73.5499C19.7857 73.5499 19.7146 73.55 19.6638 73.5093C19.6231 73.4686 19.5824 73.4687 19.5011 73.4687Z" fill="#D32030"/>
<path d="M19.5011 73.6215C19.4604 73.6215 19.3893 73.6215 19.3385 73.6622C19.2979 73.7028 19.2572 73.7028 19.1758 73.7028C19.1352 73.7028 19.0641 73.7028 19.0132 73.6622C18.9726 73.6622 18.9319 73.6215 18.8506 73.6215C18.8099 73.6215 18.7388 73.6215 18.688 73.6622C18.6473 73.7028 18.6067 73.7028 18.5254 73.7028V73.7841C18.566 73.7841 18.6372 73.7841 18.688 73.7434C18.7286 73.7434 18.7693 73.7028 18.8506 73.7028C18.8912 73.7028 18.9624 73.7028 19.0132 73.7434C19.0539 73.7841 19.0945 73.7841 19.1758 73.7841C19.2165 73.7841 19.2877 73.7841 19.3385 73.7434C19.3792 73.7434 19.4198 73.7028 19.5011 73.7028C19.5418 73.7028 19.6129 73.7028 19.6638 73.7434C19.7044 73.7841 19.7451 73.7841 19.8264 73.7841V73.7028C19.7857 73.7028 19.7146 73.7028 19.6638 73.6622C19.6231 73.6723 19.5824 73.6215 19.5011 73.6215ZM19.5418 73.0625C19.5418 73.1031 19.5011 73.1438 19.4605 73.1438H18.9421C18.9014 73.1438 18.8709 73.1031 18.8608 73.0625C18.8608 73.0218 18.9014 72.9811 18.9421 72.9811H19.4605C19.5011 72.9811 19.5418 73.0218 19.5418 73.0625ZM19.5418 70.6637C19.5418 70.7044 19.5011 70.7451 19.4605 70.7451H18.9421C18.9014 70.7451 18.8709 70.7044 18.8608 70.6637C18.9014 70.6231 18.9421 70.623 18.9421 70.623H19.4605C19.5011 70.623 19.5418 70.6231 19.5418 70.6637Z" fill="#D32030"/>
<path d="M22.4789 70.1463C22.4789 70.065 22.4383 70.0243 22.3671 70.0243C22.3671 69.943 21.8894 69.9023 21.2999 69.9023C20.7104 69.9023 20.2327 69.943 20.2327 70.0243C20.192 70.0243 20.1514 70.1056 20.1514 70.1463C20.1514 70.1869 20.192 70.2682 20.2632 70.2682C20.2632 70.3495 20.7409 70.3902 21.3304 70.3902C21.9199 70.3902 22.3977 70.3495 22.3977 70.2682C22.4383 70.2682 22.4789 70.2276 22.4789 70.1463Z" fill="#A5001C"/>
<path d="M23.1503 69.0993L23.191 69.0586C23.2316 68.9773 23.2723 68.9062 23.2723 68.8249C23.2661 68.7428 23.2408 68.6633 23.1985 68.5927C23.1561 68.5221 23.0979 68.4624 23.0284 68.4183L23.069 68.459C22.9187 68.3585 22.7416 68.3054 22.5608 68.3065H22.3575C22.3575 68.3065 22.3169 68.3065 22.3169 68.3471H22.2762V68.3878L22.1644 68.2659C22.0579 68.163 21.916 68.1048 21.768 68.1032C21.6562 68.1032 21.5241 68.1439 21.4123 68.1845V68.2659C21.4936 68.2252 21.6155 68.1845 21.7273 68.1845C21.9713 68.1845 22.2051 68.3065 22.2051 68.5098V68.5504C22.2051 68.6317 22.1644 68.6724 22.1238 68.7029C22.0264 68.7027 21.9311 68.6744 21.8493 68.6216C21.7075 68.5782 21.5605 68.5542 21.4123 68.5504V68.1845C21.4123 68.154 21.3309 68.1032 21.2903 68.1032C21.3716 68.1032 21.4021 68.0625 21.4529 68.0219V67.9406C21.4529 67.8593 21.4122 67.8186 21.3411 67.7881V67.6763H21.4224V67.595H21.3411V67.5137H21.2598V67.595H21.1785V67.6763H21.2598V67.7983C21.1785 67.7983 21.148 67.8796 21.148 67.9508V68.0321C21.1886 68.0625 21.2293 68.1032 21.2598 68.1032C21.2191 68.1032 21.1785 68.1439 21.1785 68.1439V68.1032C21.1785 68.0626 21.1785 68.0626 21.1378 68.0626C21.0971 68.0626 21.0972 68.0626 21.0972 68.1032C21.0972 68.1439 21.0971 68.1439 21.1378 68.1439H21.1785L21.1378 68.1845C21.0565 68.1439 20.9345 68.1032 20.7719 68.1032C20.6093 68.1032 20.4568 68.1439 20.3755 68.2659C20.3348 68.3065 20.2637 68.337 20.2637 68.3777V68.337H20.2231C20.2231 68.337 20.223 68.2963 20.1824 68.2963H19.9791C19.7759 68.2963 19.5827 68.3777 19.4608 68.4488L19.5014 68.4183C19.4294 68.4586 19.3696 68.5177 19.3284 68.5893C19.2873 68.6609 19.2663 68.7423 19.2676 68.8249C19.2676 68.9062 19.3083 69.018 19.349 69.0586L19.3896 69.0993C19.3489 69.0993 19.3083 69.14 19.3083 69.2213C19.3083 69.2213 19.3896 69.2213 19.4201 69.2619L19.5014 69.3839V69.4652C19.5421 69.5059 19.5421 69.5059 19.5827 69.4652C19.6234 69.5059 19.664 69.5872 19.7453 69.6176C19.786 69.6583 19.8572 69.6583 19.908 69.6583C19.8673 69.6583 19.8673 69.699 19.8673 69.699C19.8673 69.7396 19.908 69.7396 19.908 69.7396C19.908 69.7396 19.9486 69.7397 19.9893 69.7803L20.0299 69.8209L20.1113 69.8616V69.9429C20.8939 69.7396 21.707 69.7396 22.4896 69.9429C22.449 69.9429 22.449 69.9022 22.4896 69.8616L22.571 69.8209L22.5303 69.7803C22.5709 69.7397 22.6116 69.7396 22.6116 69.7396C22.6523 69.7396 22.6523 69.7396 22.6523 69.699C22.6523 69.6583 22.6523 69.6583 22.6116 69.6583H22.5303L22.571 69.699C22.6116 69.699 22.6828 69.699 22.7336 69.6583C22.8149 69.6177 22.8454 69.5364 22.8962 69.5059H22.9775C23.0182 69.4652 23.0182 69.4245 22.9775 69.4245C22.9775 69.4245 23.0182 69.3432 23.0588 69.3026C23.0995 69.2619 23.1706 69.2619 23.1706 69.2619C23.1848 69.2525 23.1961 69.2393 23.2033 69.2238C23.2104 69.2084 23.213 69.1912 23.2109 69.1743C23.2088 69.1574 23.202 69.1414 23.1913 69.1282C23.1806 69.1149 23.1664 69.1049 23.1503 69.0993ZM20.2231 68.4183C20.1824 68.4183 20.1824 68.4183 20.1824 68.459C20.1824 68.4996 20.1824 68.4996 20.2231 68.4996V68.5403C20.2231 68.5403 20.1824 68.5403 20.1824 68.581C20.1824 68.6216 20.1824 68.6216 20.2231 68.6216V68.7029H20.1113C19.9995 68.7029 19.8673 68.7435 19.7149 68.7842C19.6336 68.8147 19.5929 68.8553 19.5116 68.8553C19.4709 68.8147 19.4709 68.7741 19.4709 68.6927C19.4709 68.6521 19.4709 68.6114 19.5116 68.5708C19.5929 68.4183 19.8267 68.337 20.1113 68.337H20.2739C20.2637 68.3776 20.2637 68.3776 20.2231 68.4183ZM21.1683 68.337V68.4894C20.965 68.4894 20.8125 68.5301 20.6906 68.5708C20.6093 68.6216 20.5382 68.6216 20.4162 68.6521C20.3754 68.6099 20.3472 68.557 20.3349 68.4996V68.459C20.3349 68.3065 20.5382 68.1337 20.8126 68.1337C20.9225 68.1361 21.0304 68.1639 21.1277 68.215V68.1744C21.1683 68.2252 21.1683 68.2658 21.1683 68.337ZM23.191 68.581C23.191 68.5403 23.1503 68.4996 23.1096 68.459C23.1503 68.4996 23.1503 68.5403 23.191 68.581ZM23.0792 68.8655C23.0176 68.8154 22.9491 68.7743 22.8759 68.7436C22.7234 68.6622 22.5608 68.6622 22.4795 68.6622H22.3982C22.3982 68.6622 22.3982 68.6216 22.3575 68.6216V68.5911C22.3982 68.5911 22.3982 68.5911 22.3982 68.5504C22.3982 68.5504 22.3982 68.5098 22.3575 68.5098V68.4691C22.3982 68.4691 22.3982 68.4691 22.3982 68.4285C22.3982 68.3878 22.3982 68.3878 22.3575 68.3878C22.3575 68.3878 22.3575 68.3471 22.3169 68.3471H22.4795C22.7539 68.3471 22.9979 68.4691 23.0792 68.581C23.0792 68.6216 23.1198 68.6623 23.1198 68.7029C23.1503 68.7842 23.1198 68.8249 23.0792 68.8655Z" fill="#A5001C"/>
<path d="M23.2721 69.1399C23.2946 69.1399 23.3128 69.1217 23.3128 69.0992C23.3128 69.0768 23.2946 69.0586 23.2721 69.0586C23.2497 69.0586 23.2314 69.0768 23.2314 69.0992C23.2314 69.1217 23.2497 69.1399 23.2721 69.1399Z" fill="#A5001C"/>
<path d="M23.3131 69.0169C23.3355 69.0169 23.3538 68.9986 23.3538 68.9762C23.3538 68.9537 23.3355 68.9355 23.3131 68.9355C23.2906 68.9355 23.2725 68.9537 23.2725 68.9762C23.2725 68.9986 23.2906 69.0169 23.3131 69.0169Z" fill="#A5001C"/>
<path d="M23.3532 68.9466C23.3757 68.9466 23.3938 68.9284 23.3938 68.9059C23.3938 68.8835 23.3757 68.8652 23.3532 68.8652C23.3307 68.8652 23.3125 68.8835 23.3125 68.9059C23.3125 68.9284 23.3307 68.9466 23.3532 68.9466Z" fill="#A5001C"/>
<path d="M23.3532 68.7844C23.3757 68.7844 23.3938 68.7662 23.3938 68.7438C23.3938 68.7213 23.3757 68.7031 23.3532 68.7031C23.3307 68.7031 23.3125 68.7213 23.3125 68.7438C23.3125 68.7662 23.3307 68.7844 23.3532 68.7844Z" fill="#A5001C"/>
<path d="M23.3131 68.6712C23.3355 68.6712 23.3538 68.653 23.3538 68.6305C23.3538 68.6081 23.3355 68.5898 23.3131 68.5898C23.2906 68.5898 23.2725 68.6081 23.2725 68.6305C23.2725 68.653 23.2906 68.6712 23.3131 68.6712Z" fill="#A5001C"/>
<path d="M23.2721 68.5403C23.3128 68.5403 23.3128 68.5403 23.3128 68.4996C23.3128 68.459 23.3128 68.459 23.2721 68.459C23.2315 68.459 23.2314 68.459 23.2314 68.4996C23.2314 68.5403 23.2315 68.5403 23.2721 68.5403Z" fill="#A5001C"/>
<path d="M23.1501 68.4583C23.1725 68.4583 23.1907 68.44 23.1907 68.4176C23.1907 68.3951 23.1725 68.377 23.1501 68.377C23.1276 68.377 23.1094 68.3951 23.1094 68.4176C23.1094 68.44 23.1276 68.4583 23.1501 68.4583Z" fill="#A5001C"/>
<path d="M23.0788 68.3763C23.1012 68.3763 23.1194 68.358 23.1194 68.3356C23.1194 68.3131 23.1012 68.2949 23.0788 68.2949C23.0563 68.2949 23.0381 68.3131 23.0381 68.3356C23.0381 68.358 23.0563 68.3763 23.0788 68.3763Z" fill="#A5001C"/>
<path d="M22.9567 68.3469C22.9792 68.3469 22.9973 68.3287 22.9973 68.3063C22.9973 68.2838 22.9792 68.2656 22.9567 68.2656C22.9343 68.2656 22.916 68.2838 22.916 68.3063C22.916 68.3287 22.9343 68.3469 22.9567 68.3469Z" fill="#A5001C"/>
<path d="M22.8356 68.2649C22.8581 68.2649 22.8763 68.2467 22.8763 68.2242C22.8763 68.2018 22.8581 68.1836 22.8356 68.1836C22.8132 68.1836 22.7949 68.2018 22.7949 68.2242C22.7949 68.2467 22.8132 68.2649 22.8356 68.2649Z" fill="#A5001C"/>
<path d="M22.6822 68.2649C22.7047 68.2649 22.7229 68.2467 22.7229 68.2242C22.7229 68.2018 22.7047 68.1836 22.6822 68.1836C22.6598 68.1836 22.6416 68.2018 22.6416 68.2242C22.6416 68.2467 22.6598 68.2649 22.6822 68.2649Z" fill="#A5001C"/>
<path d="M22.5611 68.2649C22.6018 68.2649 22.6018 68.2649 22.6018 68.2242C22.6018 68.1836 22.5611 68.1836 22.5611 68.1836C22.5205 68.1836 22.5205 68.1836 22.5205 68.2242C22.5205 68.2242 22.5205 68.2649 22.5611 68.2649Z" fill="#A5001C"/>
<path d="M22.4391 68.2649C22.4615 68.2649 22.4797 68.2467 22.4797 68.2242C22.4797 68.2018 22.4615 68.1836 22.4391 68.1836C22.4166 68.1836 22.3984 68.2018 22.3984 68.2242C22.3984 68.2467 22.4166 68.2649 22.4391 68.2649Z" fill="#A5001C"/>
<path d="M22.3171 68.2649C22.3395 68.2649 22.3577 68.2467 22.3577 68.2242C22.3577 68.2018 22.3395 68.1836 22.3171 68.1836C22.2946 68.1836 22.2764 68.2018 22.2764 68.2242C22.2764 68.2467 22.2946 68.2649 22.3171 68.2649Z" fill="#A5001C"/>
<path d="M22.2048 68.1848C22.2272 68.1848 22.2454 68.1667 22.2454 68.1442C22.2454 68.1218 22.2272 68.1035 22.2048 68.1035C22.1823 68.1035 22.1641 68.1218 22.1641 68.1442C22.1641 68.1667 22.1823 68.1848 22.2048 68.1848Z" fill="#A5001C"/>
<path d="M22.0827 68.1028C22.1051 68.1028 22.1233 68.0846 22.1233 68.0622C22.1233 68.0397 22.1051 68.0215 22.0827 68.0215C22.0602 68.0215 22.042 68.0397 22.042 68.0622C22.042 68.0846 22.0602 68.1028 22.0827 68.1028Z" fill="#A5001C"/>
<path d="M21.9606 68.0618C21.983 68.0618 22.0013 68.0436 22.0013 68.0211C22.0013 67.9986 21.983 67.9805 21.9606 67.9805C21.9381 67.9805 21.9199 67.9986 21.9199 68.0211C21.9199 68.0436 21.9381 68.0618 21.9606 68.0618Z" fill="#A5001C"/>
<path d="M21.8492 68.0618C21.8717 68.0618 21.8899 68.0436 21.8899 68.0211C21.8899 67.9986 21.8717 67.9805 21.8492 67.9805C21.8268 67.9805 21.8086 67.9986 21.8086 68.0211C21.8086 68.0436 21.8268 68.0618 21.8492 68.0618Z" fill="#A5001C"/>
<path d="M21.7272 68.0618C21.7496 68.0618 21.7678 68.0436 21.7678 68.0211C21.7678 67.9986 21.7496 67.9805 21.7272 67.9805C21.7047 67.9805 21.6865 67.9986 21.6865 68.0211C21.6865 68.0436 21.7047 68.0618 21.7272 68.0618Z" fill="#A5001C"/>
<path d="M21.5651 68.0618C21.5876 68.0618 21.6057 68.0436 21.6057 68.0211C21.6057 67.9986 21.5876 67.9805 21.5651 67.9805C21.5427 67.9805 21.5244 67.9986 21.5244 68.0211C21.5244 68.0436 21.5427 68.0618 21.5651 68.0618Z" fill="#A5001C"/>
<path d="M21.4527 68.1028C21.4752 68.1028 21.4934 68.0846 21.4934 68.0622C21.4934 68.0397 21.4752 68.0215 21.4527 68.0215C21.4303 68.0215 21.4121 68.0397 21.4121 68.0622C21.4121 68.0846 21.4303 68.1028 21.4527 68.1028Z" fill="#A5001C"/>
<path d="M19.3493 69.1399C19.3717 69.1399 19.3899 69.1217 19.3899 69.0992C19.3899 69.0768 19.3717 69.0586 19.3493 69.0586C19.3268 69.0586 19.3086 69.0768 19.3086 69.0992C19.3086 69.1217 19.3268 69.1399 19.3493 69.1399Z" fill="#A5001C"/>
<path d="M19.3082 69.0169C19.3307 69.0169 19.3489 68.9986 19.3489 68.9762C19.3489 68.9537 19.3307 68.9355 19.3082 68.9355C19.2858 68.9355 19.2676 68.9537 19.2676 68.9762C19.2676 68.9986 19.2858 69.0169 19.3082 69.0169Z" fill="#A5001C"/>
<path d="M19.2673 68.9466C19.2897 68.9466 19.3079 68.9284 19.3079 68.9059C19.3079 68.8835 19.2897 68.8652 19.2673 68.8652C19.2448 68.8652 19.2266 68.8835 19.2266 68.9059C19.2266 68.9284 19.2448 68.9466 19.2673 68.9466Z" fill="#A5001C"/>
<path d="M19.2673 68.7844C19.2897 68.7844 19.3079 68.7662 19.3079 68.7438C19.3079 68.7213 19.2897 68.7031 19.2673 68.7031C19.2448 68.7031 19.2266 68.7213 19.2266 68.7438C19.2266 68.7662 19.2448 68.7844 19.2673 68.7844Z" fill="#A5001C"/>
<path d="M19.3082 68.6712C19.3307 68.6712 19.3489 68.653 19.3489 68.6305C19.3489 68.6081 19.3307 68.5898 19.3082 68.5898C19.2858 68.5898 19.2676 68.6081 19.2676 68.6305C19.2676 68.653 19.2858 68.6712 19.3082 68.6712Z" fill="#A5001C"/>
<path d="M19.3493 68.5403C19.3717 68.5403 19.3899 68.5221 19.3899 68.4996C19.3899 68.4772 19.3717 68.459 19.3493 68.459C19.3268 68.459 19.3086 68.4772 19.3086 68.4996C19.3086 68.5221 19.3268 68.5403 19.3493 68.5403Z" fill="#A5001C"/>
<path d="M19.4195 68.4583C19.442 68.4583 19.4602 68.44 19.4602 68.4176C19.4602 68.3951 19.442 68.377 19.4195 68.377C19.3971 68.377 19.3789 68.3951 19.3789 68.4176C19.3789 68.44 19.3971 68.4583 19.4195 68.4583Z" fill="#A5001C"/>
<path d="M19.5417 68.3763C19.5641 68.3763 19.5823 68.358 19.5823 68.3356C19.5823 68.3131 19.5641 68.2949 19.5417 68.2949C19.5192 68.2949 19.501 68.3131 19.501 68.3356C19.501 68.358 19.5192 68.3763 19.5417 68.3763Z" fill="#A5001C"/>
<path d="M19.6637 68.3469C19.6862 68.3469 19.7044 68.3287 19.7044 68.3063C19.7044 68.2838 19.6862 68.2656 19.6637 68.2656C19.6413 68.2656 19.623 68.2838 19.623 68.3063C19.623 68.3287 19.6413 68.3469 19.6637 68.3469Z" fill="#A5001C"/>
<path d="M19.7858 68.2649C19.8083 68.2649 19.8264 68.2467 19.8264 68.2242C19.8264 68.2018 19.8083 68.1836 19.7858 68.1836C19.7634 68.1836 19.7451 68.2018 19.7451 68.2242C19.7451 68.2467 19.7634 68.2649 19.7858 68.2649Z" fill="#A5001C"/>
<path d="M19.9381 68.2649C19.9605 68.2649 19.9788 68.2467 19.9788 68.2242C19.9788 68.2018 19.9605 68.1836 19.9381 68.1836C19.9156 68.1836 19.8975 68.2018 19.8975 68.2242C19.8975 68.2467 19.9156 68.2649 19.9381 68.2649Z" fill="#A5001C"/>
<path d="M20.0602 68.2649C20.0826 68.2649 20.1009 68.2467 20.1009 68.2242C20.1009 68.2018 20.0826 68.1836 20.0602 68.1836C20.0377 68.1836 20.0195 68.2018 20.0195 68.2242C20.0195 68.2467 20.0377 68.2649 20.0602 68.2649Z" fill="#A5001C"/>
<path d="M20.1822 68.2649C20.2047 68.2649 20.2229 68.2467 20.2229 68.2242C20.2229 68.2018 20.2047 68.1836 20.1822 68.1836C20.1598 68.1836 20.1416 68.2018 20.1416 68.2242C20.1416 68.2467 20.1598 68.2649 20.1822 68.2649Z" fill="#A5001C"/>
<path d="M20.2946 68.2649C20.3171 68.2649 20.3352 68.2467 20.3352 68.2242C20.3352 68.2018 20.3171 68.1836 20.2946 68.1836C20.2721 68.1836 20.2539 68.2018 20.2539 68.2242C20.2539 68.2467 20.2721 68.2649 20.2946 68.2649Z" fill="#A5001C"/>
<path d="M20.4157 68.1848C20.4382 68.1848 20.4563 68.1667 20.4563 68.1442C20.4563 68.1218 20.4382 68.1035 20.4157 68.1035C20.3932 68.1035 20.375 68.1218 20.375 68.1442C20.375 68.1667 20.3932 68.1848 20.4157 68.1848Z" fill="#A5001C"/>
<path d="M20.5378 68.1028C20.5602 68.1028 20.5784 68.0846 20.5784 68.0622C20.5784 68.0397 20.5602 68.0215 20.5378 68.0215C20.5153 68.0215 20.4971 68.0397 20.4971 68.0622C20.4971 68.0846 20.5153 68.1028 20.5378 68.1028Z" fill="#A5001C"/>
<path d="M20.6598 68.0618C20.6822 68.0618 20.7004 68.0436 20.7004 68.0211C20.7004 67.9986 20.6822 67.9805 20.6598 67.9805C20.6373 67.9805 20.6191 67.9986 20.6191 68.0211C20.6191 68.0436 20.6373 68.0618 20.6598 68.0618Z" fill="#A5001C"/>
<path d="M20.7721 68.0618C20.7945 68.0618 20.8128 68.0436 20.8128 68.0211C20.8128 67.9986 20.7945 67.9805 20.7721 67.9805C20.7496 67.9805 20.7314 67.9986 20.7314 68.0211C20.7314 68.0436 20.7496 68.0618 20.7721 68.0618Z" fill="#A5001C"/>
<path d="M20.8941 68.0618C20.9166 68.0618 20.9348 68.0436 20.9348 68.0211C20.9348 67.9986 20.9166 67.9805 20.8941 67.9805C20.8717 67.9805 20.8535 67.9986 20.8535 68.0211C20.8535 68.0436 20.8717 68.0618 20.8941 68.0618Z" fill="#A5001C"/>
<path d="M21.0466 68.0618C21.069 68.0618 21.0872 68.0436 21.0872 68.0211C21.0872 67.9986 21.069 67.9805 21.0466 67.9805C21.0241 67.9805 21.0059 67.9986 21.0059 68.0211C21.0059 68.0436 21.0241 68.0618 21.0466 68.0618Z" fill="#A5001C"/>
<path d="M19.501 70.5822C19.501 70.5416 19.501 70.5416 19.501 70.5822C19.4603 70.5416 19.3384 70.5416 19.2265 70.5416C19.0639 70.5416 18.9522 70.5416 18.9522 70.5822V70.6229C18.9522 70.6229 18.9521 70.6636 18.9928 70.6636C18.9928 70.6636 19.1046 70.7042 19.2672 70.7042C19.4299 70.7042 19.4603 70.6229 19.501 70.5822ZM19.6637 70.3078C19.7043 70.2671 19.7043 70.2672 19.7043 70.2265C19.7021 70.2057 19.6928 70.1863 19.678 70.1715C19.6632 70.1567 19.6438 70.1474 19.623 70.1452C19.5823 70.1045 19.5417 70.1046 19.5112 70.1046H19.4705C19.4705 70.1046 19.4705 70.0639 19.4298 70.0639C19.3892 70.0232 19.3892 70.0232 19.3181 70.0232C19.2774 70.0232 19.2367 70.0232 19.2367 70.0639C19.2774 70.0639 19.2774 70.0232 19.3181 70.0232C19.3994 70.0232 19.4298 70.0639 19.4298 70.1046V70.1452H19.3486C19.3079 70.1452 19.2672 70.1452 19.2367 70.1046V70.0232C19.2367 70.0232 19.2367 69.9826 19.1961 69.9826C19.1961 69.9826 19.2367 69.9826 19.2367 69.9419C19.2367 69.9419 19.2367 69.9013 19.1961 69.9013V69.8606H19.2367V69.7793V69.8199H19.1961V69.8606H19.2367V69.9013C19.2367 69.9013 19.1961 69.9012 19.1961 69.9419C19.1961 69.9419 19.1961 69.9826 19.2367 69.9826H19.1961C19.1554 69.9826 19.1554 69.9419 19.1148 69.9419C19.0741 69.9419 19.0335 69.9419 19.003 69.9826C19.003 69.9826 18.9623 69.9826 18.9623 70.0232H18.9216C18.881 70.0232 18.8403 70.0232 18.8098 70.0639C18.7692 70.1045 18.7285 70.1045 18.7285 70.1452C18.7285 70.1858 18.7286 70.1859 18.7692 70.2265C18.7692 70.2265 18.7285 70.2265 18.7285 70.2672H18.7692L18.8098 70.3078V70.3485C18.8098 70.3485 18.8098 70.3891 18.8505 70.3891H18.8912V70.4298C18.9725 70.3892 19.0538 70.3891 19.1656 70.3891C19.2774 70.3891 19.4095 70.3892 19.44 70.4298V70.3891H19.4806L19.5213 70.3485V70.3078C19.623 70.3891 19.6637 70.3484 19.6637 70.3078C19.7043 70.3484 19.6637 70.3484 19.6637 70.3078ZM18.9522 70.1452V70.1858H18.9115C18.8708 70.1858 18.8302 70.1859 18.8302 70.2265C18.8302 70.2265 18.7895 70.2265 18.7895 70.2672V70.1858C18.7895 70.1452 18.8708 70.1046 18.9522 70.1046V70.1452ZM19.1859 70.1452C19.1453 70.1858 19.1046 70.1858 19.0741 70.1858H18.9928V70.1452C18.9928 70.1045 19.0334 70.0639 19.1046 70.0639L19.1859 70.1452C19.1859 70.1045 19.1859 70.1045 19.1859 70.1452ZM19.6637 70.2672C19.6637 70.2672 19.623 70.2672 19.623 70.2265H19.4705H19.501C19.5823 70.2265 19.6128 70.2671 19.6637 70.3078V70.2672Z" fill="#D32030"/>
<path d="M23.6686 70.5822C23.6686 70.5416 23.6686 70.5416 23.6686 70.5822C23.628 70.5416 23.506 70.5416 23.3942 70.5416C23.2315 70.5416 23.1197 70.5416 23.1197 70.5822V70.6229C23.1197 70.6229 23.1198 70.6636 23.1604 70.6636C23.1604 70.6636 23.2722 70.7042 23.4348 70.7042C23.5466 70.6229 23.6686 70.6229 23.6686 70.5822ZM23.8312 70.3078C23.8719 70.3078 23.8719 70.2672 23.8719 70.2265C23.8696 70.2057 23.8604 70.1863 23.8456 70.1715C23.8308 70.1567 23.8114 70.1474 23.7906 70.1452C23.7499 70.1045 23.7092 70.1046 23.6787 70.1046H23.6381C23.6381 70.1046 23.6381 70.0639 23.5975 70.0639C23.5568 70.0232 23.5568 70.0232 23.4856 70.0232C23.445 70.0232 23.4043 70.0232 23.4043 70.0639C23.445 70.0639 23.445 70.0232 23.4856 70.0232C23.5669 70.0232 23.5975 70.0639 23.5975 70.1046V70.1452H23.5161C23.4755 70.1452 23.4348 70.1452 23.4043 70.1046V70.0232C23.4043 70.0232 23.4043 69.9826 23.3636 69.9826C23.3636 69.9826 23.4043 69.9826 23.4043 69.9419C23.4043 69.9419 23.4043 69.9013 23.3636 69.9013V69.8606H23.4043V69.8199H23.3636V69.7793H23.323V69.8199H23.2824V69.8606H23.323V69.9013C23.323 69.9013 23.2824 69.9012 23.2824 69.9419C23.2824 69.9419 23.2824 69.9826 23.323 69.9826H23.2824C23.2417 69.9826 23.2417 69.9419 23.201 69.9419C23.1604 69.9419 23.1197 69.9419 23.0893 69.9826C23.0893 69.9826 23.0486 69.9826 23.0486 70.0232H22.9978C22.9571 70.0232 22.9165 70.0232 22.886 70.0639C22.8453 70.1045 22.8046 70.1045 22.8046 70.1452C22.8046 70.1858 22.8047 70.1859 22.8453 70.2265C22.8453 70.2265 22.8046 70.2265 22.8046 70.2672H22.8453L22.886 70.3078V70.3485C22.886 70.3485 22.8859 70.3891 22.9266 70.3891H22.9673V70.4298C23.0486 70.3892 23.1299 70.3891 23.2417 70.3891C23.3535 70.3891 23.4856 70.3892 23.5161 70.4298V70.3891H23.5568L23.5975 70.3485V70.3078C23.8312 70.3891 23.8312 70.3484 23.8312 70.3078C23.8719 70.3484 23.8312 70.3484 23.8312 70.3078C23.8719 70.3484 23.8719 70.3078 23.8312 70.3078ZM23.1502 70.1452C23.1197 70.1452 23.1197 70.1452 23.1502 70.1452C23.1197 70.1452 23.1197 70.1858 23.1502 70.1452V70.1858H23.1095C23.0689 70.1858 23.0283 70.1859 23.0283 70.2265C23.0283 70.2265 22.9876 70.2265 22.9876 70.2672V70.1858C22.9876 70.1452 23.0689 70.1046 23.1502 70.1046C23.1197 70.1452 23.1197 70.1452 23.1502 70.1452ZM23.3535 70.1452C23.3129 70.1858 23.2722 70.1858 23.2417 70.1858H23.1604V70.1452C23.1604 70.1045 23.2011 70.0639 23.2722 70.0639C23.3129 70.1045 23.3535 70.1045 23.3535 70.1452ZM23.8312 70.2672C23.8312 70.2672 23.7906 70.2672 23.7906 70.2265C23.7499 70.2265 23.7093 70.1858 23.7093 70.1858C23.7906 70.1858 23.821 70.2265 23.8719 70.2672C23.8312 70.1858 23.8312 70.2265 23.8312 70.2672Z" fill="#A5001C"/>
<path d="M21.2906 69.7901V67.4727H21.25V67.554H21.1687V67.6251H21.25V67.7471C21.1687 67.7471 21.1381 67.8284 21.1381 67.8995V67.9809C21.1788 68.0215 21.2195 68.052 21.25 68.052C21.2093 68.052 21.1687 68.0927 21.1687 68.0927V68.052C21.1687 68.0114 21.1687 68.0114 21.128 68.0114C21.0874 68.0114 21.0873 68.0114 21.0873 68.052C21.0873 68.0927 21.0874 68.0927 21.128 68.0927H21.1687L21.128 68.1333C21.0467 68.0927 20.9247 68.052 20.7621 68.052C20.5995 68.052 20.447 68.0926 20.3657 68.2146C20.3251 68.2553 20.2539 68.296 20.2539 68.3265V68.2858H20.2132C20.2132 68.2858 20.2133 68.2451 20.1726 68.2451H19.9693C19.766 68.2451 19.5729 68.3265 19.4509 68.3976L19.4916 68.3671C19.4202 68.4083 19.3611 68.4676 19.32 68.5389C19.279 68.6103 19.2575 68.6913 19.2578 68.7737C19.2578 68.855 19.2985 68.9668 19.3391 69.0074L19.3798 69.0481C19.3391 69.0481 19.2984 69.0887 19.2984 69.17C19.2984 69.17 19.3798 69.1701 19.4103 69.2107L19.4916 69.3327V69.414C19.5322 69.4547 19.5322 69.4547 19.5729 69.414C19.6136 69.4547 19.6542 69.536 19.7355 69.5665C19.7762 69.6071 19.8473 69.6071 19.8982 69.6071C19.8575 69.6071 19.8575 69.6478 19.8575 69.6478C19.8575 69.6884 19.8982 69.6884 19.8982 69.6884C19.8982 69.6884 19.9388 69.6885 19.9795 69.7291L20.0201 69.8104L20.1015 69.8511V69.9324C20.4877 69.8307 20.8841 69.7698 21.2906 69.7901ZM20.3352 68.4586C20.3352 68.3061 20.5385 68.1333 20.813 68.1333C20.9229 68.1357 21.0307 68.1635 21.128 68.2146V68.174V68.4992C20.9248 68.4992 20.7723 68.5399 20.6503 68.5806L20.3758 68.6517C20.3758 68.6314 20.3352 68.5399 20.3352 68.4586ZM20.1015 68.6618C19.9896 68.6618 19.8575 68.7025 19.705 68.7432C19.6237 68.7838 19.5932 68.8245 19.5017 68.8245C19.4611 68.7838 19.4611 68.7432 19.4611 68.6618C19.4611 68.6212 19.4611 68.5805 19.5017 68.5399C19.5831 68.3874 19.8169 68.3061 20.1015 68.3061H20.2641C20.2641 68.3061 20.2641 68.3468 20.2234 68.3468C20.1828 68.3468 20.1827 68.3468 20.1827 68.3875C20.1827 68.4281 20.1828 68.4281 20.2234 68.4281V68.4687C20.2234 68.4687 20.1827 68.4688 20.1827 68.5094C20.1827 68.5501 20.1828 68.55 20.2234 68.55V68.6314C20.1828 68.6619 20.1421 68.6618 20.1015 68.6618ZM21.2906 69.9019C20.6605 69.9019 20.1726 69.9425 20.1726 70.0239C20.132 70.0239 20.0913 70.1052 20.0913 70.1458C20.0913 70.1865 20.1319 70.2678 20.2031 70.2678C20.2031 70.3491 20.6808 70.3897 21.2703 70.3897L21.2906 69.9019ZM21.2906 70.4711H19.7864V72.1481C19.8067 73.0019 20.4775 73.6931 21.2906 73.6727V70.4711Z" fill="#D32030"/>
<path opacity="0.7" d="M51.7722 155.92V161.297C51.7214 161.907 51.9247 162.517 52.3312 162.984C52.7479 163.37 53.307 163.564 53.8762 163.533C54.4352 163.564 54.9942 163.37 55.411 162.984C55.8175 162.517 56.0208 161.917 55.97 161.297V155.92H57.0779V161.287C57.0998 161.911 56.9522 162.529 56.651 163.076C56.3867 163.543 55.9801 163.919 55.5024 164.153C54.9942 164.397 54.4352 164.519 53.8762 164.509C53.3172 164.519 52.7582 164.397 52.2499 164.153C51.7621 163.919 51.3657 163.543 51.1014 163.076C50.8074 162.527 50.6636 161.909 50.6846 161.287V155.92H51.7722ZM62.1802 157.607C62.912 157.577 63.6235 157.841 64.1521 158.349C64.6908 158.929 64.9652 159.691 64.9042 160.474V164.417H63.8065V160.636C63.8456 160.08 63.667 159.529 63.3085 159.102C63.1326 158.921 62.92 158.78 62.685 158.689C62.45 158.598 62.1981 158.558 61.9465 158.573C61.6888 158.561 61.4315 158.604 61.1916 158.699C60.9516 158.793 60.7343 158.937 60.554 159.122C60.1779 159.569 59.995 160.138 60.0356 160.718V164.417H58.9278V157.729H60.0356V158.685C60.2592 158.339 60.5642 158.065 60.9301 157.892C61.3163 157.699 61.7432 157.607 62.1802 157.607ZM67.303 156.642C67.2026 156.644 67.1028 156.625 67.01 156.587C66.9173 156.548 66.8335 156.491 66.7643 156.418C66.6578 156.312 66.5853 156.176 66.5559 156.028C66.5266 155.88 66.5417 155.727 66.5993 155.588C66.6569 155.449 66.7545 155.33 66.8798 155.246C67.005 155.162 67.1523 155.117 67.303 155.117C67.5007 155.123 67.6883 155.206 67.8253 155.348C67.9622 155.491 68.0375 155.682 68.0348 155.879C68.0348 156.083 67.9637 156.276 67.8214 156.418C67.7578 156.493 67.678 156.551 67.5881 156.59C67.4982 156.629 67.4007 156.647 67.303 156.642ZM67.8416 157.729V164.417H66.7236V157.729H67.8416ZM71.084 158.644V162.588C71.0535 162.832 71.1348 163.086 71.2873 163.279C71.4932 163.436 71.7513 163.509 72.009 163.482H72.8221V164.417H71.826C71.3279 164.458 70.8299 164.306 70.4335 163.99C70.2641 163.801 70.1359 163.579 70.0572 163.337C69.9784 163.096 69.9508 162.841 69.9761 162.588V158.644H69.1122V157.729H69.9761V156.042H71.084V157.729H72.8221V158.644H71.084ZM80.2622 160.819C80.2622 161.043 80.252 161.266 80.2215 161.49H74.8752C74.8854 162.08 75.1293 162.628 75.5562 163.035C75.9628 163.401 76.5015 163.604 77.0503 163.594C77.4772 163.614 77.8939 163.492 78.2497 163.259C78.5648 163.045 78.8088 162.73 78.9307 162.364H80.1301C79.9594 162.993 79.5793 163.545 79.0527 163.93C78.4733 164.346 77.772 164.56 77.0503 164.529C76.4569 164.538 75.8717 164.39 75.3529 164.102C74.8545 163.817 74.4461 163.398 74.1739 162.893C73.8816 162.332 73.7348 161.706 73.747 161.073C73.7368 160.443 73.8792 159.823 74.1638 159.254C74.428 158.746 74.8345 158.329 75.3326 158.055C75.8618 157.766 76.4579 157.622 77.0605 157.638C77.65 157.628 78.2294 157.77 78.7478 158.055C79.2255 158.319 79.6117 158.715 79.876 159.193C80.1402 159.681 80.2724 160.25 80.2622 160.819ZM79.1238 160.585C79.1331 160.203 79.0344 159.826 78.8392 159.498C78.6563 159.193 78.392 158.959 78.0769 158.807C77.745 158.645 77.379 158.564 77.0097 158.573C76.7379 158.566 76.4674 158.613 76.2138 158.711C75.9602 158.81 75.7286 158.957 75.5321 159.145C75.3356 159.333 75.1782 159.558 75.069 159.807C74.9597 160.056 74.9008 160.324 74.8955 160.596H79.1238V160.585ZM81.3193 161.053C81.3091 160.433 81.4514 159.813 81.736 159.254C81.9965 158.75 82.3943 158.329 82.8835 158.042C83.3727 157.754 83.9333 157.61 84.5006 157.628C85.0088 157.628 85.5069 157.75 85.9541 157.983C86.3708 158.197 86.7266 158.522 86.9807 158.929V155.392H88.0987V164.417H86.9807V163.157C86.7469 163.564 86.4115 163.909 86.0049 164.143C85.5475 164.407 85.019 164.539 84.4905 164.529C83.9208 164.54 83.3599 164.389 82.8725 164.094C82.385 163.799 81.991 163.372 81.736 162.862C81.4536 162.301 81.3106 161.681 81.3193 161.053ZM86.9807 161.063C86.9908 160.606 86.8892 160.148 86.6758 159.742C86.4916 159.383 86.2096 159.084 85.8625 158.879C85.5153 158.674 85.1171 158.571 84.7141 158.583C84.3136 158.571 83.9178 158.673 83.5725 158.876C83.2272 159.079 82.9464 159.376 82.7625 159.732C82.5491 160.138 82.4475 160.596 82.4576 161.053C82.4475 161.51 82.5491 161.978 82.7524 162.385C82.9367 162.741 83.2173 163.038 83.5623 163.243C83.9073 163.448 84.3028 163.552 84.7039 163.543C85.1003 163.543 85.4967 163.442 85.8423 163.248C86.198 163.045 86.4826 162.74 86.6656 162.385C86.879 161.978 86.9807 161.521 86.9807 161.063ZM95.5998 164.529C95.1323 164.539 94.6546 164.448 94.2175 164.265C93.8313 164.112 93.506 163.858 93.2519 163.533C93.0161 163.222 92.8813 162.846 92.8657 162.456H94.0142C94.0447 162.781 94.2175 163.076 94.4818 163.269C94.807 163.492 95.1932 163.604 95.5896 163.594C95.9454 163.614 96.3012 163.513 96.5858 163.309C96.7002 163.23 96.7934 163.123 96.8572 162.999C96.921 162.875 96.9534 162.737 96.9517 162.598C96.9562 162.464 96.9222 162.331 96.8538 162.216C96.7853 162.101 96.6852 162.008 96.5654 161.947C96.1792 161.763 95.7735 161.624 95.3559 161.531C94.9392 161.429 94.5326 161.297 94.1464 161.134C93.8328 161.005 93.5568 160.798 93.3434 160.535C93.1079 160.238 92.9886 159.866 93.008 159.488C93.008 159.152 93.1096 158.817 93.3129 158.553C93.5365 158.258 93.8313 158.024 94.1769 157.872C94.5834 157.699 95.0204 157.618 95.4575 157.618C96.0978 157.587 96.7382 157.79 97.2464 158.177C97.4719 158.364 97.6541 158.599 97.7805 158.864C97.9068 159.129 97.9743 159.418 97.9782 159.711H96.8601C96.8542 159.549 96.814 159.39 96.7422 159.245C96.6703 159.1 96.5685 158.971 96.4434 158.868C96.1491 158.645 95.7855 158.533 95.4169 158.553C95.0814 158.532 94.746 158.624 94.4614 158.807C94.352 158.881 94.2624 158.981 94.2004 159.098C94.1385 159.215 94.106 159.345 94.1057 159.478C94.1015 159.577 94.1183 159.677 94.1551 159.77C94.1919 159.863 94.2477 159.946 94.3191 160.016C94.4716 160.169 94.6546 160.281 94.8578 160.362C95.1509 160.472 95.4495 160.567 95.7523 160.646C96.1487 160.748 96.5451 160.88 96.9211 161.033C97.2159 161.155 97.4903 161.348 97.6936 161.602C97.9049 161.886 98.0215 162.229 98.0269 162.583C98.0324 162.937 97.9265 163.283 97.7241 163.574C97.5107 163.879 97.2057 164.112 96.8601 164.265C96.4646 164.445 96.0343 164.535 95.5998 164.529ZM100.956 158.644V162.588C100.926 162.832 101.007 163.086 101.16 163.279C101.365 163.436 101.624 163.509 101.881 163.482H102.694V164.417H101.698C101.2 164.458 100.702 164.306 100.316 163.99C99.9704 163.604 99.8077 163.096 99.8484 162.588V158.644H98.9845V157.729H99.8484V156.042H100.956V157.729H102.705V158.644H100.956ZM103.619 161.053C103.609 160.433 103.751 159.813 104.036 159.254C104.296 158.751 104.692 158.332 105.179 158.044C105.666 157.757 106.225 157.612 106.79 157.628C107.319 157.618 107.848 157.75 108.315 158.004C108.722 158.227 109.047 158.553 109.281 158.959V157.74H110.399V164.417H109.281V163.177C109.047 163.584 108.711 163.919 108.295 164.143C107.837 164.407 107.309 164.539 106.78 164.529C106.214 164.54 105.657 164.389 105.174 164.092C104.689 163.795 104.295 163.369 104.036 162.862C103.754 162.301 103.611 161.681 103.619 161.053ZM109.281 161.063C109.291 160.606 109.189 160.148 108.976 159.742C108.792 159.383 108.51 159.084 108.163 158.879C107.815 158.674 107.417 158.571 107.014 158.583C106.614 158.571 106.218 158.673 105.873 158.876C105.527 159.079 105.246 159.376 105.063 159.732C104.849 160.138 104.748 160.596 104.758 161.053C104.748 161.521 104.849 161.978 105.063 162.385C105.247 162.741 105.528 163.038 105.873 163.243C106.218 163.448 106.613 163.552 107.014 163.543C107.411 163.543 107.807 163.442 108.153 163.248C108.508 163.045 108.793 162.74 108.976 162.385C109.189 161.978 109.291 161.521 109.281 161.063ZM113.631 158.644V162.588C113.6 162.832 113.682 163.086 113.834 163.279C114.04 163.436 114.298 163.509 114.556 163.482H115.369V164.417H114.373C113.875 164.448 113.387 164.295 112.991 163.99C112.645 163.604 112.482 163.096 112.523 162.588V158.644H111.659V157.729H112.523V156.042H113.631V157.729H115.379V158.644H113.631ZM122.819 160.819C122.819 161.043 122.809 161.266 122.779 161.49H117.432C117.443 162.08 117.686 162.628 118.113 163.035C118.52 163.401 119.059 163.604 119.607 163.594C120.034 163.614 120.451 163.492 120.807 163.259C121.122 163.045 121.366 162.73 121.488 162.364H122.687C122.516 162.993 122.136 163.545 121.61 163.93C121.03 164.346 120.329 164.56 119.607 164.529C119.014 164.538 118.429 164.39 117.91 164.102C117.412 163.817 117.003 163.398 116.731 162.893C116.439 162.332 116.292 161.706 116.304 161.073C116.294 160.443 116.436 159.823 116.721 159.254C116.985 158.746 117.392 158.329 117.89 158.055C118.419 157.766 119.015 157.622 119.618 157.638C120.207 157.628 120.786 157.77 121.305 158.055C121.783 158.319 122.169 158.715 122.433 159.193C122.697 159.681 122.829 160.25 122.819 160.819ZM121.671 160.585C121.68 160.203 121.581 159.826 121.386 159.498C121.203 159.193 120.939 158.959 120.624 158.807C120.292 158.645 119.926 158.564 119.557 158.573C119.285 158.566 119.014 158.613 118.761 158.711C118.507 158.81 118.275 158.957 118.079 159.145C117.883 159.333 117.725 159.558 117.616 159.807C117.507 160.056 117.448 160.324 117.442 160.596H121.671V160.585ZM126.651 164.529C126.173 164.539 125.706 164.448 125.269 164.265C124.893 164.112 124.557 163.858 124.303 163.533C124.067 163.222 123.933 162.846 123.917 162.456H125.066C125.096 162.781 125.269 163.076 125.533 163.269C125.858 163.492 126.245 163.604 126.641 163.584C126.997 163.604 127.352 163.503 127.637 163.299C127.752 163.22 127.845 163.113 127.909 162.989C127.972 162.865 128.005 162.727 128.003 162.588C128.008 162.454 127.974 162.321 127.905 162.206C127.837 162.091 127.737 161.997 127.617 161.937C127.231 161.753 126.825 161.613 126.407 161.521C125.99 161.419 125.584 161.287 125.198 161.124C124.884 160.994 124.608 160.788 124.395 160.524C124.159 160.228 124.04 159.856 124.059 159.478C124.059 159.142 124.161 158.807 124.364 158.542C124.588 158.248 124.883 158.014 125.228 157.862C125.635 157.689 126.072 157.607 126.509 157.607C127.149 157.577 127.79 157.78 128.298 158.166C128.525 158.355 128.708 158.591 128.834 158.858C128.96 159.125 129.027 159.416 129.03 159.711H127.922C127.916 159.549 127.875 159.39 127.804 159.245C127.732 159.1 127.63 158.971 127.505 158.868C127.211 158.645 126.847 158.533 126.478 158.553C126.143 158.532 125.808 158.624 125.523 158.807C125.414 158.881 125.324 158.981 125.262 159.098C125.2 159.215 125.167 159.345 125.167 159.478C125.163 159.577 125.18 159.677 125.217 159.77C125.253 159.863 125.309 159.946 125.381 160.016C125.533 160.169 125.716 160.281 125.919 160.362C126.212 160.472 126.511 160.567 126.814 160.646C127.21 160.748 127.607 160.88 127.983 161.033C128.277 161.155 128.552 161.348 128.755 161.602C128.966 161.886 129.083 162.229 129.088 162.583C129.094 162.937 128.988 163.283 128.786 163.574C128.572 163.879 128.267 164.112 127.922 164.265C127.525 164.448 127.088 164.539 126.651 164.529Z" fill="black"/>
<path opacity="0.7" d="M51.7722 34.9671V40.3439C51.7214 40.9537 51.9247 41.5636 52.3312 42.0311C52.7479 42.4174 53.307 42.6105 53.8762 42.58C54.4352 42.6105 54.9942 42.4174 55.411 42.0311C55.8175 41.5636 56.0208 40.9639 55.97 40.3439V34.9671H57.0779V40.3337C57.0998 40.9576 56.9522 41.5758 56.651 42.1226C56.3867 42.5901 55.9801 42.9662 55.5024 43.2C54.9942 43.4439 54.4352 43.5659 53.8762 43.5557C53.3172 43.5659 52.7582 43.4439 52.2499 43.2C51.7621 42.9662 51.3657 42.5901 51.1014 42.1226C50.8074 41.5734 50.6636 40.9563 50.6846 40.3337V34.9671H51.7722ZM62.1802 36.6543C62.912 36.6238 63.6235 36.8881 64.1521 37.3963C64.6908 37.9757 64.9652 38.7379 64.9042 39.5206V43.4642H63.8065V39.6832C63.8456 39.1264 63.667 38.5762 63.3085 38.1484C63.1326 37.9679 62.92 37.8272 62.685 37.736C62.45 37.6448 62.1981 37.6052 61.9465 37.6199C61.6888 37.608 61.4315 37.6508 61.1916 37.7454C60.9516 37.84 60.7343 37.9842 60.554 38.1687C60.1779 38.6159 59.995 39.1851 60.0356 39.7645V43.4642H58.9278V36.7762H60.0356V37.7317C60.2592 37.3861 60.5642 37.1117 60.9301 36.9389C61.3163 36.7458 61.7432 36.6543 62.1802 36.6543ZM67.303 35.6887C67.2026 35.6909 67.1028 35.6723 67.01 35.6338C66.9173 35.5953 66.8335 35.5378 66.7643 35.4651C66.6578 35.3585 66.5853 35.2227 66.5559 35.0749C66.5266 34.9272 66.5417 34.7739 66.5993 34.6347C66.6569 34.4955 66.7545 34.3766 66.8798 34.2928C67.005 34.209 67.1523 34.1642 67.303 34.1641C67.5007 34.1694 67.6883 34.2524 67.8253 34.3951C67.9622 34.5378 68.0375 34.7286 68.0348 34.9264C68.0348 35.1297 67.9637 35.3228 67.8214 35.4651C67.7578 35.5395 67.678 35.5984 67.5881 35.6371C67.4982 35.6759 67.4007 35.6935 67.303 35.6887ZM67.8416 36.7762V43.4642H66.7236V36.7762H67.8416ZM71.084 37.691V41.6347C71.0535 41.8787 71.1348 42.1327 71.2873 42.3259C71.4932 42.4831 71.7513 42.5558 72.009 42.5292H72.8221V43.4642H71.826C71.3279 43.5049 70.8299 43.3525 70.4335 43.0374C70.2641 42.8481 70.1359 42.6257 70.0572 42.3842C69.9784 42.1427 69.9508 41.8875 69.9761 41.6347V37.691H69.1122V36.7762H69.9761V35.089H71.084V36.7762H72.8221V37.691H71.084ZM80.2622 39.8662C80.2622 40.0898 80.252 40.3134 80.2215 40.537H74.8752C74.8854 41.1265 75.1293 41.6754 75.5562 42.0819C75.9628 42.4478 76.5015 42.6511 77.0503 42.641C77.4772 42.6613 77.8939 42.5393 78.2497 42.3055C78.5648 42.0921 78.8088 41.777 78.9307 41.4111H80.1301C79.9594 42.0402 79.5793 42.5923 79.0527 42.9764C78.4733 43.3931 77.772 43.6065 77.0503 43.576C76.4569 43.5845 75.8717 43.4374 75.3529 43.1492C74.8545 42.8642 74.4461 42.4451 74.1739 41.9396C73.8816 41.3784 73.7348 40.7529 73.747 40.1203C73.7368 39.4901 73.8792 38.87 74.1638 38.3009C74.428 37.7927 74.8345 37.3759 75.3326 37.1015C75.8618 36.813 76.4579 36.6692 77.0605 36.6848C77.65 36.6746 78.2294 36.8169 78.7478 37.1015C79.2255 37.3658 79.6117 37.7622 79.876 38.2399C80.1402 38.7278 80.2724 39.297 80.2622 39.8662ZM79.1238 39.6324C79.1331 39.2503 79.0344 38.8733 78.8392 38.5448C78.6563 38.2399 78.392 38.0061 78.0769 37.8536C77.745 37.6914 77.379 37.6112 77.0097 37.6199C76.7379 37.6131 76.4674 37.6602 76.2138 37.7583C75.9602 37.8564 75.7286 38.0037 75.5321 38.1917C75.3356 38.3796 75.1782 38.6046 75.069 38.8535C74.9597 39.1025 74.9008 39.3707 74.8955 39.6425H79.1238V39.6324ZM81.3193 40.0999C81.3091 39.4799 81.4514 38.8599 81.736 38.3009C81.9965 37.7966 82.3943 37.3764 82.8835 37.0886C83.3727 36.8008 83.9333 36.6573 84.5006 36.6746C85.0088 36.6746 85.5069 36.7966 85.9541 37.0303C86.3708 37.2438 86.7266 37.569 86.9807 37.9756V34.4385H88.0987V43.4642H86.9807V42.2039C86.7469 42.6105 86.4115 42.956 86.0049 43.1898C85.5475 43.4541 85.019 43.5862 84.4905 43.576C83.9208 43.5864 83.3599 43.4354 82.8725 43.1405C82.385 42.8455 81.991 42.4186 81.736 41.9091C81.4536 41.3483 81.3106 40.7277 81.3193 40.0999ZM86.9807 40.1101C86.9908 39.6527 86.8892 39.1953 86.6758 38.7888C86.4916 38.4301 86.2096 38.1309 85.8625 37.9258C85.5153 37.7207 85.1171 37.6182 84.7141 37.6301C84.3136 37.618 83.9178 37.7194 83.5725 37.9226C83.2272 38.1259 82.9464 38.4226 82.7625 38.7786C82.5491 39.1852 82.4475 39.6425 82.4576 40.0999C82.4475 40.5573 82.5491 41.0249 82.7524 41.4314C82.9367 41.7878 83.2173 42.0852 83.5623 42.2901C83.9073 42.4949 84.3028 42.5989 84.7039 42.5901C85.1003 42.5901 85.4967 42.4885 85.8423 42.2953C86.198 42.0921 86.4826 41.7872 86.6656 41.4314C86.879 41.0249 86.9807 40.5675 86.9807 40.1101ZM95.5998 43.576C95.1323 43.5862 94.6546 43.4947 94.2175 43.3118C93.8313 43.1593 93.506 42.9052 93.2519 42.58C93.0161 42.2687 92.8813 41.8927 92.8657 41.5026H94.0142C94.0447 41.8278 94.2175 42.1226 94.4818 42.3157C94.807 42.5393 95.1932 42.6511 95.5896 42.641C95.9454 42.6613 96.3012 42.5596 96.5858 42.3563C96.7002 42.2766 96.7934 42.1702 96.8572 42.0461C96.921 41.9221 96.9534 41.7843 96.9517 41.6449C96.9562 41.5109 96.9222 41.3783 96.8538 41.2631C96.7853 41.1478 96.6852 41.0545 96.5654 40.9944C96.1792 40.8103 95.7735 40.6705 95.3559 40.5776C94.9392 40.476 94.5326 40.3439 94.1464 40.1813C93.8328 40.0515 93.5568 39.8453 93.3434 39.5815C93.1079 39.2851 92.9886 38.9128 93.008 38.5347C93.008 38.1993 93.1096 37.8638 93.3129 37.5995C93.5365 37.3048 93.8313 37.071 94.1769 36.9186C94.5834 36.7458 95.0204 36.6645 95.4575 36.6645C96.0978 36.634 96.7382 36.8372 97.2464 37.2235C97.4719 37.4113 97.6541 37.6458 97.7805 37.9107C97.9068 38.1756 97.9743 38.4648 97.9782 38.7583H96.8601C96.8542 38.5962 96.814 38.4372 96.7422 38.2918C96.6703 38.1464 96.5685 38.0178 96.4434 37.9146C96.1491 37.6918 95.7855 37.5802 95.4169 37.5995C95.0814 37.5792 94.746 37.6707 94.4614 37.8536C94.352 37.9281 94.2624 38.0281 94.2004 38.145C94.1385 38.2619 94.106 38.3922 94.1057 38.5245C94.1015 38.6242 94.1183 38.7238 94.1551 38.8166C94.1919 38.9094 94.2477 38.9934 94.3191 39.0632C94.4716 39.2156 94.6546 39.3275 94.8578 39.4088C95.1509 39.5189 95.4495 39.6138 95.7523 39.6933C96.1487 39.795 96.5451 39.9271 96.9211 40.0796C97.2159 40.2015 97.4903 40.3947 97.6936 40.6488C97.9049 40.9327 98.0215 41.2759 98.0269 41.6298C98.0324 41.9837 97.9265 42.3303 97.7241 42.6206C97.5107 42.9255 97.2057 43.1593 96.8601 43.3118C96.4646 43.4917 96.0343 43.5819 95.5998 43.576ZM100.956 37.691V41.6347C100.926 41.8787 101.007 42.1327 101.16 42.3259C101.365 42.4831 101.624 42.5558 101.881 42.5292H102.694V43.4642H101.698C101.2 43.5049 100.702 43.3525 100.316 43.0374C99.9704 42.6511 99.8077 42.1429 99.8484 41.6347V37.691H98.9845V36.7762H99.8484V35.089H100.956V36.7762H102.705V37.691H100.956ZM103.619 40.0999C103.609 39.4799 103.751 38.8599 104.036 38.3009C104.296 37.7982 104.692 37.379 105.179 37.0913C105.666 36.8037 106.225 36.6593 106.79 36.6746C107.319 36.6645 107.848 36.7966 108.315 37.0507C108.722 37.2743 109.047 37.5996 109.281 38.0061V36.7864H110.399V43.4642H109.281V42.2242C109.047 42.6308 108.711 42.9662 108.295 43.1898C107.837 43.4541 107.309 43.5862 106.78 43.576C106.214 43.5871 105.657 43.4354 105.174 43.139C104.689 42.8417 104.295 42.4161 104.036 41.9091C103.754 41.3483 103.611 40.7277 103.619 40.0999ZM109.281 40.1101C109.291 39.6527 109.189 39.1953 108.976 38.7888C108.792 38.4301 108.51 38.1309 108.163 37.9258C107.815 37.7207 107.417 37.6182 107.014 37.6301C106.614 37.618 106.218 37.7194 105.873 37.9226C105.527 38.1259 105.246 38.4226 105.063 38.7786C104.849 39.1852 104.748 39.6425 104.758 40.0999C104.748 40.5675 104.849 41.0249 105.063 41.4314C105.247 41.7878 105.528 42.0852 105.873 42.2901C106.218 42.4949 106.613 42.5989 107.014 42.5901C107.411 42.5901 107.807 42.4885 108.153 42.2953C108.508 42.0921 108.793 41.7872 108.976 41.4314C109.189 41.0249 109.291 40.5675 109.281 40.1101ZM113.631 37.691V41.6347C113.6 41.8787 113.682 42.1327 113.834 42.3259C114.04 42.4831 114.298 42.5558 114.556 42.5292H115.369V43.4642H114.373C113.875 43.4947 113.387 43.3423 112.991 43.0374C112.645 42.6511 112.482 42.1429 112.523 41.6347V37.691H111.659V36.7762H112.523V35.089H113.631V36.7762H115.379V37.691H113.631ZM122.819 39.8662C122.819 40.0898 122.809 40.3134 122.779 40.537H117.432C117.443 41.1265 117.686 41.6754 118.113 42.0819C118.52 42.4478 119.059 42.6511 119.607 42.641C120.034 42.6613 120.451 42.5393 120.807 42.3055C121.122 42.0921 121.366 41.777 121.488 41.4111H122.687C122.516 42.0402 122.136 42.5923 121.61 42.9764C121.03 43.3931 120.329 43.6065 119.607 43.576C119.014 43.5845 118.429 43.4374 117.91 43.1492C117.412 42.8642 117.003 42.4451 116.731 41.9396C116.439 41.3784 116.292 40.7529 116.304 40.1203C116.294 39.4901 116.436 38.87 116.721 38.3009C116.985 37.7927 117.392 37.3759 117.89 37.1015C118.419 36.813 119.015 36.6692 119.618 36.6848C120.207 36.6746 120.786 36.8169 121.305 37.1015C121.783 37.3658 122.169 37.7622 122.433 38.2399C122.697 38.7278 122.829 39.297 122.819 39.8662ZM121.671 39.6324C121.68 39.2503 121.581 38.8733 121.386 38.5448C121.203 38.2399 120.939 38.0061 120.624 37.8536C120.292 37.6914 119.926 37.6112 119.557 37.6199C119.285 37.6131 119.014 37.6602 118.761 37.7583C118.507 37.8564 118.275 38.0037 118.079 38.1917C117.883 38.3796 117.725 38.6046 117.616 38.8535C117.507 39.1025 117.448 39.3707 117.442 39.6425H121.671V39.6324ZM126.651 43.576C126.173 43.5862 125.706 43.4947 125.269 43.3118C124.893 43.1593 124.557 42.9052 124.303 42.58C124.067 42.2687 123.933 41.8927 123.917 41.5026H125.066C125.096 41.8278 125.269 42.1226 125.533 42.3157C125.858 42.5393 126.245 42.6511 126.641 42.6308C126.997 42.6511 127.352 42.5495 127.637 42.3462C127.752 42.2665 127.845 42.16 127.909 42.036C127.972 41.9119 128.005 41.7742 128.003 41.6347C128.008 41.5007 127.974 41.3682 127.905 41.2529C127.837 41.1376 127.737 41.0444 127.617 40.9842C127.231 40.8001 126.825 40.6603 126.407 40.5675C125.99 40.4659 125.584 40.3337 125.198 40.1711C124.884 40.0413 124.608 39.8351 124.395 39.5714C124.159 39.2749 124.04 38.9027 124.059 38.5245C124.059 38.1891 124.161 37.8536 124.364 37.5894C124.588 37.2946 124.883 37.0608 125.228 36.9084C125.635 36.7356 126.072 36.6543 126.509 36.6543C127.149 36.6238 127.79 36.8271 128.298 37.2133C128.525 37.4022 128.708 37.6383 128.834 37.9051C128.96 38.1719 129.027 38.463 129.03 38.7583H127.922C127.916 38.5962 127.875 38.4372 127.804 38.2918C127.732 38.1464 127.63 38.0178 127.505 37.9146C127.211 37.6918 126.847 37.5802 126.478 37.5995C126.143 37.5792 125.808 37.6707 125.523 37.8536C125.414 37.9281 125.324 38.0281 125.262 38.145C125.2 38.2619 125.167 38.3922 125.167 38.5245C125.163 38.6242 125.18 38.7238 125.217 38.8166C125.253 38.9094 125.309 38.9934 125.381 39.0632C125.533 39.2156 125.716 39.3275 125.919 39.4088C126.212 39.5189 126.511 39.6138 126.814 39.6933C127.21 39.795 127.607 39.9271 127.983 40.0796C128.277 40.2015 128.552 40.3947 128.755 40.6488C128.966 40.9327 129.083 41.2759 129.088 41.6298C129.094 41.9837 128.988 42.3303 128.786 42.6206C128.572 42.9255 128.267 43.1593 127.922 43.3118C127.525 43.4947 127.088 43.5862 126.651 43.576Z" fill="black"/>
<path fill-rule="evenodd" clip-rule="evenodd" d="M17.8746 46.9701H39.4631C40.1136 46.838 40.6421 46.3603 40.8962 45.6895H16.4414C16.6955 46.3603 17.2241 46.8278 17.8746 46.9701Z" fill="#D0272C"/>
<path fill-rule="evenodd" clip-rule="evenodd" d="M16.4415 45.6889H40.8963C40.9573 45.4856 41.0285 45.2824 41.0895 45.0181V44.4082H16.2383V45.0181C16.2383 45.2112 16.3094 45.4856 16.4415 45.6889Z" fill="#FEFEFE"/>
<path fill-rule="evenodd" clip-rule="evenodd" d="M16.2383 43.0664H41.0183V44.3471H16.2383V43.0664Z" fill="#D0272C"/>
<path fill-rule="evenodd" clip-rule="evenodd" d="M16.2383 41.7871H41.0183V43.0678H16.2383V41.7871Z" fill="#FEFEFE"/>
<path fill-rule="evenodd" clip-rule="evenodd" d="M16.2383 40.5059H41.0183V41.7865H16.2383V40.5059Z" fill="#D0272C"/>
<path fill-rule="evenodd" clip-rule="evenodd" d="M16.2383 39.2246H41.0183V40.5053H16.2383V39.2246Z" fill="#FEFEFE"/>
<path fill-rule="evenodd" clip-rule="evenodd" d="M16.2383 37.873H41.0183V39.1537H16.2383V37.873Z" fill="#D0272C"/>
<path fill-rule="evenodd" clip-rule="evenodd" d="M16.2383 36.6035H41.0183V37.8842H16.2383V36.6035Z" fill="#FEFEFE"/>
<path fill-rule="evenodd" clip-rule="evenodd" d="M16.2383 35.3223H41.0183V36.603H16.2383V35.3223Z" fill="#D0272C"/>
<path fill-rule="evenodd" clip-rule="evenodd" d="M16.2383 34.041H41.0183V35.3217H16.2383V34.041Z" fill="#FEFEFE"/>
<path fill-rule="evenodd" clip-rule="evenodd" d="M16.2383 32.6895H41.0183V33.9701H16.2383V32.6895Z" fill="#D0272C"/>
<path fill-rule="evenodd" clip-rule="evenodd" d="M16.2383 32.6908H41.0183V32.081C41.0183 31.8167 40.9573 31.6134 40.8252 31.4102H16.4313C16.2992 31.6134 16.2383 31.8777 16.2383 32.081V32.6908Z" fill="#FEFEFE"/>
<path fill-rule="evenodd" clip-rule="evenodd" d="M16.4414 31.4194H40.8962C40.7848 31.1023 40.5949 30.8187 40.3444 30.5948C40.0938 30.3708 39.7906 30.2139 39.4631 30.1387H17.8746C17.2241 30.2708 16.6955 30.7384 16.4414 31.4194Z" fill="#D0272C"/>
<path fill-rule="evenodd" clip-rule="evenodd" d="M16.2383 39.2254H27.5916V30.1387H17.8747C17.0311 30.342 16.3704 31.0839 16.2484 32.0902V39.2254H16.2383Z" fill="#2E3C66"/>
<path fill-rule="evenodd" clip-rule="evenodd" d="M17.2853 31.1445L17.3463 31.48H17.6715L17.4073 31.6832L17.5394 32.0186L17.2751 31.8153L17.0108 32.0186L17.0718 31.6832L16.8076 31.48H17.1328L17.2853 31.1445ZM17.2853 32.6285L17.3463 32.9639H17.6715L17.4073 33.2282L17.5394 33.5636L17.2751 33.2993L17.0108 33.5636L17.0718 33.2282L16.8076 32.9639H17.1328L17.2853 32.6285ZM17.2853 34.1734L17.3463 34.5088H17.6715L17.4073 34.7121L17.5394 35.0475L17.2751 34.8443L17.0108 35.0475L17.0718 34.7121L16.8076 34.5088H17.1328L17.2853 34.1734ZM17.2853 35.6574L17.3463 35.9928H17.6715L17.4073 36.1961L17.5394 36.6026L17.2751 36.3384L17.0108 36.6026L17.0718 36.1961L16.8076 35.9928H17.1328L17.2853 35.6574ZM17.2853 37.2024L17.3463 37.5377H17.6715L17.4073 37.741L17.5394 38.0765L17.2751 37.8732L17.0108 38.0765L17.0718 37.741L16.8076 37.5377H17.1328L17.2853 37.2024ZM18.2001 31.9576L18.2611 32.2931H18.5863L18.3221 32.4964L18.383 32.8317L18.1899 32.6285L17.9256 32.8317L17.9866 32.4964L17.7223 32.2931H18.0476L18.2001 31.9576ZM18.2001 33.4315L18.2611 33.7669H18.5863L18.3221 33.9701L18.383 34.3056L18.1899 34.1023L17.9256 34.3056L17.9866 33.9701L17.7223 33.7669H18.0476L18.2001 33.4315ZM18.2001 34.9865L18.2611 35.322H18.5863L18.3221 35.5253L18.383 35.8607L18.1899 35.6574L17.9256 35.8607L17.9866 35.5253L17.7223 35.322H18.0476L18.2001 34.9865ZM18.2001 36.4603L18.2611 36.7958H18.5863L18.3221 36.9991L18.383 37.3344L18.1899 37.1312L17.9256 37.3344L17.9866 36.9991L17.7223 36.7958H18.0476L18.2001 36.4603ZM19.1148 31.1445L19.1758 31.48H19.5011L19.2368 31.6832L19.2978 32.0186L19.1047 31.8153L18.8404 32.0186L18.9014 31.6832L18.6371 31.48H18.9624L19.1148 31.1445ZM19.1148 32.6285L19.1758 32.9639H19.5011L19.2368 33.2282L19.2978 33.5636L19.1047 33.2993L18.8404 33.5636L18.9014 33.2282L18.6371 32.9639H18.9624L19.1148 32.6285ZM19.1148 34.1734L19.1758 34.5088H19.5011L19.2368 34.7121L19.2978 35.0475L19.1047 34.8443L18.8404 35.0475L18.9014 34.7121L18.6371 34.5088H18.9624L19.1148 34.1734ZM19.1148 35.6574L19.1758 35.9928H19.5011L19.2368 36.1961L19.2978 36.6026L19.1047 36.3384L18.8404 36.6026L18.9014 36.1961L18.6371 35.9928H18.9624L19.1148 35.6574ZM19.1148 37.2024L19.1758 37.5377H19.5011L19.2368 37.741L19.2978 38.0765L19.1047 37.8732L18.8404 38.0765L18.9014 37.741L18.6371 37.5377H18.9624L19.1148 37.2024ZM19.9585 31.9576L20.0906 32.2931H20.4159L20.1516 32.4964L20.2126 32.8317L19.9483 32.6285L19.7552 32.8317L19.8162 32.4964L19.5519 32.2931H19.8771L19.9585 31.9576ZM19.9585 33.4315L20.0906 33.7669H20.4159L20.1516 33.9701L20.2126 34.3056L19.9483 34.1023L19.7552 34.3056L19.8162 33.9701L19.5519 33.7669H19.8771L19.9585 33.4315ZM19.9585 34.9865L20.0906 35.322H20.4159L20.1516 35.5253L20.2126 35.8607L19.9483 35.6574L19.7552 35.8607L19.8162 35.5253L19.5519 35.322H19.8771L19.9585 34.9865ZM19.9585 36.4603L20.0906 36.7958H20.4159L20.1516 36.9991L20.2126 37.3344L19.9483 37.1312L19.7552 37.3344L19.8162 36.9991L19.5519 36.7958H19.8771L19.9585 36.4603ZM20.9342 31.1445L20.9952 31.48H21.3205L21.0562 31.6832L21.1172 32.0186L20.9241 31.8153L20.6598 32.0186L20.7208 31.6832L20.4565 31.48H20.7818L20.9342 31.1445ZM20.9342 32.6285L20.9952 32.9639H21.3205L21.0562 33.2282L21.1172 33.5636L20.9241 33.2993L20.6598 33.5636L20.7208 33.2282L20.4565 32.9639H20.7818L20.9342 32.6285ZM20.9342 34.1734L20.9952 34.5088H21.3205L21.0562 34.7121L21.1172 35.0475L20.9241 34.8443L20.6598 35.0475L20.7208 34.7121L20.4565 34.5088H20.7818L20.9342 34.1734ZM20.9342 35.6574L20.9952 35.9928H21.3205L21.0562 36.1961L21.1172 36.6026L20.9241 36.3384L20.6598 36.6026L20.7208 36.1961L20.4565 35.9928H20.7818L20.9342 35.6574ZM20.9342 37.2024L20.9952 37.5377H21.3205L21.0562 37.741L21.1172 38.0765L20.9241 37.8732L20.6598 38.0765L20.7208 37.741L20.4565 37.5377H20.7818L20.9342 37.2024ZM21.788 31.9576L21.9201 32.2931H22.2454L21.9811 32.4964L22.0421 32.8317L21.7778 32.6285L21.5847 32.8317L21.6457 32.4964L21.3815 32.2931H21.7067L21.788 31.9576ZM21.788 33.4315L21.9201 33.7669H22.2454L21.9811 33.9701L22.0421 34.3056L21.7778 34.1023L21.5847 34.3056L21.6457 33.9701L21.3815 33.7669H21.7067L21.788 33.4315ZM21.788 34.9865L21.9201 35.322H22.2454L21.9811 35.5253L22.0421 35.8607L21.7778 35.6574L21.5847 35.8607L21.6457 35.5253L21.3815 35.322H21.7067L21.788 34.9865ZM21.788 36.4603L21.9201 36.7958H22.2454L21.9811 36.9991L22.0421 37.3344L21.7778 37.1312L21.5847 37.3344L21.6457 36.9991L21.3815 36.7958H21.7067L21.788 36.4603ZM22.7028 31.1445L22.8349 31.48H23.1602L22.8959 31.6832L22.9569 32.0186L22.6926 31.8153L22.4995 32.0186L22.5605 31.6832L22.2962 31.48H22.6215L22.7028 31.1445ZM22.7028 32.6285L22.8349 32.9639H23.1602L22.8959 33.2282L22.9569 33.5636L22.6926 33.2993L22.4995 33.5636L22.5605 33.2282L22.2962 32.9639H22.6215L22.7028 32.6285ZM22.7028 34.1734L22.8349 34.5088H23.1602L22.8959 34.7121L22.9569 35.0475L22.6926 34.8443L22.4995 35.0475L22.5605 34.7121L22.2962 34.5088H22.6215L22.7028 34.1734ZM22.7028 35.6574L22.8349 35.9928H23.1602L22.8959 36.1961L22.9569 36.6026L22.6926 36.3384L22.4995 36.6026L22.5605 36.1961L22.2962 35.9928H22.6215L22.7028 35.6574ZM22.7028 37.2024L22.8349 37.5377H23.1602L22.8959 37.741L22.9569 38.0765L22.6926 37.8732L22.4995 38.0765L22.5605 37.741L22.2962 37.5377H22.6215L22.7028 37.2024ZM23.6074 31.9576L23.7395 32.2931H24.0647L23.8005 32.4964L23.8615 32.8317L23.5972 32.6285L23.333 32.8317L23.4651 32.4964L23.2008 32.2931H23.5261L23.6074 31.9576ZM23.6074 33.4315L23.7395 33.7669H24.0647L23.8005 33.9701L23.8615 34.3056L23.5972 34.1023L23.333 34.3056L23.4651 33.9701L23.2008 33.7669H23.5261L23.6074 33.4315ZM23.6074 34.9865L23.7395 35.322H24.0647L23.8005 35.5253L23.8615 35.8607L23.5972 35.6574L23.333 35.8607L23.4651 35.5253L23.2008 35.322H23.5261L23.6074 34.9865ZM23.6074 36.4603L23.7395 36.7958H24.0647L23.8005 36.9991L23.8615 37.3344L23.5972 37.1312L23.333 37.3344L23.4651 36.9991L23.2008 36.7958H23.5261L23.6074 36.4603ZM24.5221 31.1445L24.6543 31.48H24.9795L24.7153 31.6832L24.7762 32.0186L24.512 31.8153L24.3188 32.0186L24.3798 31.6832L24.1156 31.48H24.4408L24.5221 31.1445ZM24.5221 32.6285L24.6543 32.9639H24.9795L24.7153 33.2282L24.7762 33.5636L24.512 33.2993L24.3188 33.5636L24.3798 33.2282L24.1156 32.9639H24.4408L24.5221 32.6285ZM24.5221 34.1734L24.6543 34.5088H24.9795L24.7153 34.7121L24.7762 35.0475L24.512 34.8443L24.3188 35.0475L24.3798 34.7121L24.1156 34.5088H24.4408L24.5221 34.1734ZM24.5221 35.6574L24.6543 35.9928H24.9795L24.7153 36.1961L24.7762 36.6026L24.512 36.3384L24.3188 36.6026L24.3798 36.1961L24.1156 35.9928H24.4408L24.5221 35.6574ZM24.5221 37.2024L24.6543 37.5377H24.9795L24.7153 37.741L24.7762 38.0765L24.512 37.8732L24.3188 38.0765L24.3798 37.741L24.1156 37.5377H24.4408L24.5221 37.2024ZM25.4369 31.9576L25.5691 32.2931H25.8333L25.6402 32.4964L25.7012 32.8317L25.4369 32.6285L25.1727 32.8317L25.3048 32.4964L25.0405 32.2931H25.3658L25.4369 31.9576ZM25.4369 33.4315L25.5691 33.7669H25.8333L25.6402 33.9701L25.7012 34.3056L25.4369 34.1023L25.1727 34.3056L25.3048 33.9701L25.0405 33.7669H25.3658L25.4369 33.4315ZM25.4369 34.9865L25.5691 35.322H25.8333L25.6402 35.5253L25.7012 35.8607L25.4369 35.6574L25.1727 35.8607L25.3048 35.5253L25.0405 35.322H25.3658L25.4369 34.9865ZM25.4369 36.4603L25.5691 36.7958H25.8333L25.6402 36.9991L25.7012 37.3344L25.4369 37.1312L25.1727 37.3344L25.3048 36.9991L25.0405 36.7958H25.3658L25.4369 36.4603ZM26.3517 31.1445L26.4838 31.48H26.8091L26.5448 31.6832L26.6058 32.0186L26.3415 31.8153L26.0773 32.0186L26.2094 31.6832L25.9451 31.48H26.2704L26.3517 31.1445ZM26.3517 32.6285L26.4838 32.9639H26.8091L26.5448 33.2282L26.6058 33.5636L26.3415 33.2993L26.0773 33.5636L26.2094 33.2282L25.9451 32.9639H26.2704L26.3517 32.6285ZM26.3517 34.1734L26.4838 34.5088H26.8091L26.5448 34.7121L26.6058 35.0475L26.3415 34.8443L26.0773 35.0475L26.2094 34.7121L25.9451 34.5088H26.2704L26.3517 34.1734ZM26.3517 35.6574L26.4838 35.9928H26.8091L26.5448 36.1961L26.6058 36.6026L26.3415 36.3384L26.0773 36.6026L26.2094 36.1961L25.9451 35.9928H26.2704L26.3517 35.6574ZM26.3517 37.2024L26.4838 37.5377H26.8091L26.5448 37.741L26.6058 38.0765L26.3415 37.8732L26.0773 38.0765L26.2094 37.741L25.9451 37.5377H26.2704L26.3517 37.2024Z" fill="#FEFEFE"/>
<path fill-rule="evenodd" clip-rule="evenodd" d="M18.19 169.001H39.7786C40.4291 168.869 40.9576 168.392 41.2117 167.721H16.7568C16.8631 168.041 17.0514 168.327 17.3028 168.552C17.5543 168.777 17.8601 168.932 18.19 169.001Z" fill="#D0272C"/>
<path fill-rule="evenodd" clip-rule="evenodd" d="M16.7463 167.72H41.2011C41.2621 167.517 41.3332 167.314 41.3942 167.049V166.439H16.543V167.049C16.5531 167.253 16.6243 167.517 16.7463 167.72Z" fill="#FEFEFE"/>
<path fill-rule="evenodd" clip-rule="evenodd" d="M16.5537 165.098H41.3337V166.378H16.5537V165.098Z" fill="#D0272C"/>
<path fill-rule="evenodd" clip-rule="evenodd" d="M16.5537 163.816H41.3337V165.097H16.5537V163.816Z" fill="#FEFEFE"/>
<path fill-rule="evenodd" clip-rule="evenodd" d="M16.5537 162.537H41.3337V163.818H16.5537V162.537Z" fill="#D0272C"/>
<path fill-rule="evenodd" clip-rule="evenodd" d="M16.5537 161.256H41.3337V162.537H16.5537V161.256Z" fill="#FEFEFE"/>
<path fill-rule="evenodd" clip-rule="evenodd" d="M16.5537 159.914H41.3337V161.195H16.5537V159.914Z" fill="#D0272C"/>
<path fill-rule="evenodd" clip-rule="evenodd" d="M16.5537 158.633H41.3337V159.913H16.5537V158.633Z" fill="#FEFEFE"/>
<path fill-rule="evenodd" clip-rule="evenodd" d="M16.5537 157.354H41.3337V158.634H16.5537V157.354Z" fill="#D0272C"/>
<path fill-rule="evenodd" clip-rule="evenodd" d="M16.5537 156.072H41.3337V157.353H16.5537V156.072Z" fill="#FEFEFE"/>
<path fill-rule="evenodd" clip-rule="evenodd" d="M16.5537 154.73H41.3337V156.011H16.5537V154.73Z" fill="#D0272C"/>
<path fill-rule="evenodd" clip-rule="evenodd" d="M16.5537 154.73H41.3337V154.12C41.3337 153.856 41.2728 153.653 41.1407 153.449H16.7468C16.6147 153.653 16.5537 153.917 16.5537 154.12V154.73Z" fill="#FEFEFE"/>
<path fill-rule="evenodd" clip-rule="evenodd" d="M16.7461 153.449H41.2009C41.0894 153.132 40.8996 152.848 40.649 152.624C40.3984 152.4 40.0953 152.243 39.7677 152.168H18.1792C17.5287 152.3 17.0104 152.778 16.7461 153.449Z" fill="#D0272C"/>
<path fill-rule="evenodd" clip-rule="evenodd" d="M16.5537 161.255H27.907V152.168H18.1901C17.3465 152.371 16.6858 153.113 16.5638 154.119V161.255H16.5537Z" fill="#2E3C66"/>
<path fill-rule="evenodd" clip-rule="evenodd" d="M17.5998 153.186L17.6607 153.521H17.986L17.7217 153.724L17.8539 154.06L17.5896 153.856L17.3253 154.06L17.3863 153.724L17.1221 153.521H17.4473L17.5998 153.186ZM17.5998 154.659L17.6607 154.995H17.986L17.7319 155.269L17.864 155.605L17.5998 155.34L17.3355 155.605L17.3965 155.269L17.1322 155.005H17.4574L17.5998 154.659ZM17.5998 156.214L17.6607 156.55H17.986L17.7217 156.753L17.8539 157.089L17.5896 156.885L17.3253 157.089L17.3863 156.753L17.1221 156.55H17.4473L17.5998 156.214ZM17.5998 157.688L17.6607 158.024H17.986L17.7217 158.227L17.8539 158.633L17.5896 158.369L17.3253 158.633L17.3863 158.227L17.1221 158.024H17.4473L17.5998 157.688ZM17.5998 159.243L17.6607 159.579H17.986L17.7217 159.782L17.8539 160.117L17.5896 159.914L17.3253 160.117L17.3863 159.782L17.1221 159.579H17.4473L17.5998 159.243ZM18.5145 153.988L18.5755 154.324H18.9008L18.6365 154.527L18.6975 154.863L18.5044 154.659L18.2401 154.863L18.3011 154.527L18.0368 154.324H18.3621L18.5145 153.988ZM18.5145 155.472L18.5755 155.808H18.9008L18.6365 156.011L18.6975 156.347L18.5044 156.143L18.2401 156.347L18.3011 156.011L18.0368 155.808H18.3621L18.5145 155.472ZM18.5145 157.017L18.5755 157.353H18.9008L18.6365 157.556L18.6975 157.892L18.5044 157.688L18.2401 157.892L18.3011 157.556L18.0368 157.353H18.3621L18.5145 157.017ZM18.5145 158.501L18.5755 158.837H18.9008L18.6365 159.04L18.6975 159.375L18.5044 159.172L18.2401 159.375L18.3011 159.04L18.0368 158.837H18.3621L18.5145 158.501ZM19.4191 153.186L19.4801 153.521H19.8053L19.5411 153.724L19.6021 154.06L19.409 153.856L19.1447 154.06L19.2057 153.724L18.9414 153.521H19.2667L19.4191 153.186ZM19.4191 154.659L19.4801 154.995H19.8053L19.5411 155.259L19.6021 155.594L19.409 155.33L19.1447 155.594L19.2057 155.259L18.9414 154.995H19.2667L19.4191 154.659ZM19.4191 156.214L19.4801 156.55H19.8053L19.5411 156.753L19.6021 157.089L19.409 156.885L19.1447 157.089L19.2057 156.753L18.9414 156.55H19.2667L19.4191 156.214ZM19.4191 157.688L19.4801 158.024H19.8053L19.5411 158.227L19.6021 158.633L19.409 158.369L19.1447 158.633L19.2057 158.227L18.9414 158.024H19.2667L19.4191 157.688ZM19.4191 159.243L19.4801 159.579H19.8053L19.5411 159.782L19.6021 160.117L19.409 159.914L19.1447 160.117L19.2057 159.782L18.9414 159.579H19.2667L19.4191 159.243ZM20.2729 153.988L20.4051 154.324H20.7303L20.466 154.527L20.527 154.863L20.2627 154.659L20.0696 154.863L20.1306 154.527L19.8663 154.324H20.1916L20.2729 153.988ZM20.2729 155.472L20.4051 155.808H20.7303L20.466 156.011L20.527 156.347L20.2627 156.143L20.0696 156.347L20.1306 156.011L19.8663 155.808H20.1916L20.2729 155.472ZM20.2729 157.017L20.4051 157.353H20.7303L20.466 157.556L20.527 157.892L20.2627 157.688L20.0696 157.892L20.1306 157.556L19.8663 157.353H20.1916L20.2729 157.017ZM20.2729 158.501L20.4051 158.837H20.7303L20.466 159.04L20.527 159.375L20.2627 159.172L20.0696 159.375L20.1306 159.04L19.8663 158.837H20.1916L20.2729 158.501ZM21.2487 153.186L21.3097 153.521H21.6349L21.3707 153.724L21.4316 154.06L21.2385 153.856L20.9742 154.06L21.0352 153.724L20.7709 153.521H21.0962L21.2487 153.186ZM21.2487 154.659L21.3097 154.995H21.6349L21.3707 155.259L21.4316 155.594L21.2385 155.33L20.9742 155.594L21.0352 155.259L20.7709 154.995H21.0962L21.2487 154.659ZM21.2487 156.214L21.3097 156.55H21.6349L21.3707 156.753L21.4316 157.089L21.2385 156.885L20.9742 157.089L21.0352 156.753L20.7709 156.55H21.0962L21.2487 156.214ZM21.2487 157.688L21.3097 158.024H21.6349L21.3707 158.227L21.4316 158.633L21.2385 158.369L20.9742 158.633L21.0352 158.227L20.7709 158.024H21.0962L21.2487 157.688ZM21.2487 159.243L21.3097 159.579H21.6349L21.3707 159.782L21.4316 160.117L21.2385 159.914L20.9742 160.117L21.0352 159.782L20.7709 159.579H21.0962L21.2487 159.243ZM22.1024 153.988L22.2346 154.324H22.5598L22.2956 154.527L22.3565 154.863L22.0923 154.659L21.8991 154.863L21.9601 154.527L21.6959 154.324H22.0211L22.1024 153.988ZM22.1024 155.472L22.2346 155.808H22.5598L22.2956 156.011L22.3565 156.347L22.0923 156.143L21.8991 156.347L21.9601 156.011L21.6959 155.808H22.0211L22.1024 155.472ZM22.1024 157.017L22.2346 157.353H22.5598L22.2956 157.556L22.3565 157.892L22.0923 157.688L21.8991 157.892L21.9601 157.556L21.6959 157.353H22.0211L22.1024 157.017ZM22.1024 158.501L22.2346 158.837H22.5598L22.2956 159.04L22.3565 159.375L22.0923 159.172L21.8991 159.375L21.9601 159.04L21.6959 158.837H22.0211L22.1024 158.501ZM23.0071 153.186L23.1392 153.521H23.4645L23.2002 153.724L23.2612 154.06L22.9969 153.856L22.8038 154.06L22.8648 153.724L22.6005 153.521H22.9257L23.0071 153.186ZM23.0071 154.659L23.1392 154.995H23.4645L23.2002 155.259L23.2612 155.594L22.9969 155.33L22.8038 155.594L22.8648 155.259L22.6005 154.995H22.9257L23.0071 154.659ZM23.0071 156.214L23.1392 156.55H23.4645L23.2002 156.753L23.2612 157.089L22.9969 156.885L22.8038 157.089L22.8648 156.753L22.6005 156.55H22.9257L23.0071 156.214ZM23.0071 157.688L23.1392 158.024H23.4645L23.2002 158.227L23.2612 158.633L22.9969 158.369L22.8038 158.633L22.8648 158.227L22.6005 158.024H22.9257L23.0071 157.688ZM23.0071 159.243L23.1392 159.579H23.4645L23.2002 159.782L23.2612 160.117L22.9969 159.914L22.8038 160.117L22.8648 159.782L22.6005 159.579H22.9257L23.0071 159.243ZM23.9219 153.988L24.0539 154.324H24.3792L24.115 154.527L24.176 154.863L23.9117 154.659L23.6474 154.863L23.7795 154.527L23.5153 154.324H23.8405L23.9219 153.988ZM23.9219 155.472L24.0539 155.808H24.3792L24.115 156.011L24.176 156.347L23.9117 156.143L23.6474 156.347L23.7795 156.011L23.5153 155.808H23.8405L23.9219 155.472ZM23.9219 157.017L24.0539 157.353H24.3792L24.115 157.556L24.176 157.892L23.9117 157.688L23.6474 157.892L23.7795 157.556L23.5153 157.353H23.8405L23.9219 157.017ZM23.9219 158.501L24.0539 158.837H24.3792L24.115 159.04L24.176 159.375L23.9117 159.172L23.6474 159.375L23.7795 159.04L23.5153 158.837H23.8405L23.9219 158.501ZM24.8366 153.186L24.9687 153.521H25.294L25.0297 153.724L25.0907 154.06L24.8264 153.856L24.6333 154.06L24.6943 153.724L24.4301 153.521H24.7553L24.8366 153.186ZM24.8366 154.659L24.9687 154.995H25.294L25.0297 155.259L25.0907 155.594L24.8264 155.33L24.6333 155.594L24.6943 155.259L24.4301 154.995H24.7553L24.8366 154.659ZM24.8366 156.214L24.9687 156.55H25.294L25.0297 156.753L25.0907 157.089L24.8264 156.885L24.6333 157.089L24.6943 156.753L24.4301 156.55H24.7553L24.8366 156.214ZM24.8366 157.688L24.9687 158.024H25.294L25.0297 158.227L25.0907 158.633L24.8264 158.369L24.6333 158.633L24.6943 158.227L24.4301 158.024H24.7553L24.8366 157.688ZM24.8366 159.243L24.9687 159.579H25.294L25.0297 159.782L25.0907 160.117L24.8264 159.914L24.6333 160.117L24.6943 159.782L24.4301 159.579H24.7553L24.8366 159.243ZM25.7514 153.988L25.8835 154.324H26.1478L25.9547 154.527L26.0157 154.863L25.7514 154.659L25.4871 154.863L25.6192 154.527L25.355 154.324H25.6802L25.7514 153.988ZM25.7514 155.472L25.8835 155.808H26.1478L25.9547 156.011L26.0157 156.347L25.7514 156.143L25.4871 156.347L25.6192 156.011L25.355 155.808H25.6802L25.7514 155.472ZM25.7514 157.017L25.8835 157.353H26.1478L25.9547 157.556L26.0157 157.892L25.7514 157.688L25.4871 157.892L25.6192 157.556L25.355 157.353H25.6802L25.7514 157.017ZM25.7514 158.501L25.8835 158.837H26.1478L25.9547 159.04L26.0157 159.375L25.7514 159.172L25.4871 159.375L25.6192 159.04L25.355 158.837H25.6802L25.7514 158.501ZM26.6661 153.186L26.7983 153.521H27.1235L26.8592 153.724L26.9202 154.06L26.656 153.856L26.3917 154.06L26.5239 153.724L26.2596 153.521H26.5848L26.6661 153.186ZM26.6661 154.659L26.7983 154.995H27.1235L26.8592 155.259L26.9202 155.594L26.656 155.33L26.3917 155.594L26.5239 155.259L26.2596 154.995H26.5848L26.6661 154.659ZM26.6661 156.214L26.7983 156.55H27.1235L26.8592 156.753L26.9202 157.089L26.656 156.885L26.3917 157.089L26.5239 156.753L26.2596 156.55H26.5848L26.6661 156.214ZM26.6661 157.688L26.7983 158.024H27.1235L26.8592 158.227L26.9202 158.633L26.656 158.369L26.3917 158.633L26.5239 158.227L26.2596 158.024H26.5848L26.6661 157.688ZM26.6661 159.243L26.7983 159.579H27.1235L26.8592 159.782L26.9202 160.117L26.656 159.914L26.3917 160.117L26.5239 159.782L26.2596 159.579H26.5848L26.6661 159.243Z" fill="#FEFEFE"/>
<path opacity="0.7" d="M55.716 101.999H52.0061L51.3251 103.89H50.1562L53.2258 95.4331H54.5065L57.5659 103.89H56.397L55.716 101.999ZM55.4009 101.094L53.8661 96.8053L52.3313 101.094H55.4009ZM64.8332 97.2016V103.89H63.7253V102.904C63.5119 103.249 63.2069 103.524 62.841 103.707C62.4275 103.91 61.9718 104.013 61.511 104.008C61.0501 104.003 60.597 103.889 60.1882 103.676C59.7714 103.459 59.4283 103.123 59.2023 102.711C58.9488 102.225 58.8262 101.682 58.8465 101.135V97.2118H59.9443V100.983C59.9036 101.532 60.0866 102.08 60.4423 102.497C60.7981 102.863 61.2961 103.056 61.8043 103.026C62.3328 103.056 62.841 102.853 63.2069 102.477C63.5728 102.03 63.7558 101.46 63.7151 100.881V97.2118H64.8332V97.2016ZM69.0818 104.001C68.6143 104.012 68.1365 103.92 67.6994 103.737C67.3234 103.585 66.988 103.331 66.7339 103.005C66.4981 102.694 66.3633 102.318 66.3477 101.928H67.4962C67.5267 102.253 67.6994 102.548 67.9637 102.741C68.289 102.965 68.6752 103.076 69.0716 103.056C69.4274 103.076 69.7831 102.975 70.0677 102.772C70.1822 102.692 70.2754 102.585 70.3392 102.461C70.403 102.337 70.4353 102.2 70.4336 102.06C70.4381 101.926 70.4042 101.794 70.3358 101.678C70.2673 101.563 70.1672 101.47 70.0473 101.41C69.6612 101.225 69.2555 101.086 68.8379 100.993C68.4211 100.891 68.0146 100.759 67.6283 100.596C67.3148 100.467 67.0388 100.261 66.8253 99.9967C66.5898 99.7003 66.4705 99.328 66.4899 98.9499C66.4899 98.6145 66.5916 98.279 66.7949 98.0147C67.0185 97.72 67.3132 97.4862 67.6588 97.3338C68.0654 97.161 68.5024 97.0797 68.9395 97.0797C69.5798 97.0492 70.2202 97.2524 70.7284 97.6387C70.9539 97.8265 71.1361 98.061 71.2625 98.3259C71.3888 98.5908 71.4562 98.88 71.4602 99.1735H70.3523C70.3464 99.0114 70.3061 98.8524 70.2343 98.707C70.1624 98.5616 70.0606 98.4331 69.9356 98.3299C69.6428 98.1049 69.2771 97.9962 68.909 98.0249C68.5736 98.0046 68.2381 98.0961 67.9535 98.279C67.8441 98.3534 67.7546 98.4535 67.6926 98.5704C67.6306 98.6873 67.5981 98.8176 67.5978 98.9499C67.5936 99.0496 67.6104 99.1491 67.6472 99.2419C67.684 99.3348 67.7399 99.4187 67.8113 99.4885C67.9638 99.641 68.1467 99.7528 68.35 99.8341C68.643 99.9443 68.9416 100.039 69.2444 100.119C69.6408 100.22 70.0372 100.352 70.4133 100.505C70.7081 100.627 70.9825 100.82 71.1858 101.074C71.397 101.358 71.5136 101.701 71.519 102.055C71.5245 102.409 71.4186 102.756 71.2162 103.046C71.0028 103.351 70.6979 103.585 70.3523 103.737C69.9559 103.92 69.5189 104.012 69.0818 104.001ZM74.4382 98.1164V102.06C74.4078 102.304 74.4891 102.558 74.6415 102.751C74.8474 102.908 75.1055 102.981 75.3632 102.955H76.1763V103.89H75.1803C74.6822 103.93 74.1842 103.778 73.7878 103.463C73.6184 103.273 73.4902 103.051 73.4114 102.81C73.3327 102.568 73.3051 102.313 73.3304 102.06V98.1164H72.4664V97.2016H73.3304V95.5144H74.4382V97.2016H76.1763V98.1164H74.4382ZM78.636 98.2892C78.819 97.9131 79.1137 97.6082 79.4695 97.3947C79.8761 97.1711 80.3334 97.0593 80.7908 97.0797V98.2282H80.4961C79.2561 98.2282 78.6258 98.899 78.6258 100.251V103.89H77.518V97.2016H78.6258V98.2892H78.636ZM81.6548 100.525C81.6446 99.9053 81.7869 99.2853 82.0715 98.7262C82.3312 98.2236 82.7275 97.8044 83.2147 97.5167C83.7019 97.229 84.2604 97.0846 84.826 97.1C85.3545 97.0898 85.8831 97.222 86.3506 97.4761C86.7572 97.6997 87.0824 98.0249 87.3162 98.4315V97.2118H88.4342V103.89H87.3162V102.65C87.0824 103.056 86.747 103.392 86.3303 103.615C85.8729 103.879 85.3443 104.012 84.8158 104.001C84.2497 104.012 83.6923 103.861 83.2099 103.564C82.7244 103.267 82.3304 102.841 82.0715 102.334C81.7891 101.774 81.6462 101.153 81.6548 100.525ZM87.3162 100.535C87.3264 100.078 87.2247 99.6207 87.0112 99.2142C86.8271 98.8554 86.5451 98.5562 86.1979 98.3512C85.8508 98.1461 85.4526 98.0436 85.0496 98.0554C84.6491 98.0433 84.2533 98.1448 83.908 98.348C83.5627 98.5512 83.2819 98.848 83.0981 99.204C82.8846 99.6105 82.783 100.068 82.7932 100.525C82.783 100.993 82.8846 101.45 83.0981 101.857C83.2824 102.213 83.563 102.511 83.908 102.715C84.2529 102.92 84.6485 103.024 85.0496 103.016C85.446 103.016 85.8424 102.914 86.1879 102.721C86.5437 102.517 86.8283 102.213 87.0112 101.857C87.2247 101.45 87.3264 100.993 87.3162 100.535ZM91.4225 94.8639V103.89H90.3146V94.8639H91.4225ZM93.8822 96.1242C93.7834 96.1257 93.6854 96.1066 93.5944 96.0681C93.5034 96.0296 93.4214 95.9726 93.3537 95.9006C93.2472 95.794 93.1747 95.6583 93.1453 95.5105C93.1159 95.3627 93.1311 95.2095 93.1887 95.0703C93.2464 94.9311 93.344 94.8121 93.4692 94.7283C93.5944 94.6446 93.7417 94.5997 93.8923 94.5996C94.0901 94.6049 94.2777 94.688 94.4147 94.8306C94.5517 94.9733 94.6269 95.1642 94.6242 95.3619C94.6255 95.4607 94.6074 95.5588 94.5708 95.6506C94.5343 95.7423 94.48 95.826 94.4111 95.8968C94.3422 95.9676 94.26 96.0241 94.1693 96.0631C94.0785 96.1021 93.981 96.1229 93.8822 96.1242ZM94.4209 97.2016V103.89H93.313V97.2016H94.4209ZM95.8947 100.525C95.8845 99.9053 96.0268 99.2853 96.3114 98.7262C96.5712 98.2236 96.9674 97.8044 97.4546 97.5167C97.9418 97.229 98.5003 97.0846 99.0659 97.1C99.5944 97.0898 100.123 97.222 100.591 97.4761C100.997 97.6997 101.322 98.0249 101.556 98.4315V97.2118H102.674V103.89H101.556V102.65C101.322 103.056 100.987 103.392 100.57 103.615C100.113 103.879 99.5843 104.012 99.0557 104.001C98.4896 104.012 97.9322 103.861 97.4498 103.564C96.9643 103.267 96.5703 102.841 96.3114 102.334C96.0338 101.772 95.8911 101.153 95.8947 100.525ZM101.556 100.535C101.566 100.078 101.465 99.6207 101.251 99.2142C101.067 98.8554 100.785 98.5562 100.438 98.3512C100.091 98.1461 99.6925 98.0436 99.2895 98.0554C98.889 98.0433 98.4933 98.1448 98.1479 98.348C97.8026 98.5512 97.5219 98.848 97.338 99.204C97.1245 99.6105 97.0229 100.068 97.0331 100.525C97.0229 100.993 97.1245 101.45 97.338 101.857C97.5223 102.213 97.8029 102.511 98.1479 102.715C98.4929 102.92 98.8884 103.024 99.2895 103.016C99.6859 103.016 100.082 102.914 100.428 102.721C100.784 102.517 101.068 102.213 101.251 101.857C101.465 101.45 101.576 100.993 101.556 100.535Z" fill="black"/>
<path fill-rule="evenodd" clip-rule="evenodd" d="M18.2405 108.068H39.7782C40.6218 107.935 41.2723 107.163 41.4045 106.187V93.726C41.2723 92.7503 40.6218 91.9778 39.7782 91.8457H18.2405C17.3359 92.049 16.6752 92.8113 16.6143 93.726V106.187C16.6549 107.112 17.3257 107.885 18.2405 108.068Z" fill="#2E307C"/>
<path fill-rule="evenodd" clip-rule="evenodd" d="M23.1192 101.776L23.5055 103.077L24.6134 102.62L23.9629 103.789L24.9996 104.5L23.7596 104.561L23.9527 105.923L23.1091 104.947L22.2655 105.923L22.3976 104.561L21.2287 104.5L22.2655 103.789L21.554 102.62L22.7228 103.077L23.1192 101.776ZM36.1293 104.175L36.3224 104.754L36.8408 104.561L36.5155 105.079L37.0339 105.405L36.4444 105.466L36.5054 106.116L36.1192 105.659L35.7329 106.116L35.7939 105.466L35.2044 105.405L35.7228 105.079L35.3975 104.561L35.9159 104.754L36.1293 104.175ZM32.8768 98.3304L33.0699 98.9809L33.5883 98.7166L33.2631 99.2959L33.7814 99.6212L33.1919 99.6822L33.2529 100.333L32.8666 99.8753L32.4804 100.333L32.5414 99.6822L31.9519 99.6212L32.4702 99.2959L32.145 98.7166L32.6634 98.9809L32.8768 98.3304ZM36.1293 94.3766L36.3224 95.0271L36.8408 94.7628L36.5155 95.3422L37.0339 95.6674L36.4444 95.7283L36.5054 96.3789L36.1192 95.9215L35.7329 96.3789L35.7939 95.7283L35.2044 95.6674L35.7228 95.3422L35.3975 94.7628L35.9159 95.0271L36.1293 94.3766ZM38.9956 97.3648L39.1887 98.0153L39.7782 97.751L39.453 98.3304L39.9104 98.6556L39.3208 98.7166L39.453 99.3671L38.9956 98.9097L38.6093 99.3671L38.6703 98.7166L38.0808 98.6556L38.5992 98.3304L38.274 97.751L38.8634 98.0153L38.9956 97.3648ZM37.4303 100.343L37.5625 100.729H37.9487L37.6234 100.993L37.7556 101.451L37.4303 101.187L37.1051 101.451L37.166 100.993L36.9018 100.729H37.288L37.4303 100.343ZM22.0114 91.8457V94.3156H16.6143V96.7143H22.0114V99.1842H24.156V96.7143H29.6243V94.3156H24.156V91.8457H22.0114Z" fill="#FEFEFE"/>
<path fill-rule="evenodd" clip-rule="evenodd" d="M16.8691 92.8211L28.1309 99.1838H29.6251V98.3402L18.1091 91.8555C17.8487 91.9261 17.6049 92.0478 17.392 92.2136C17.1792 92.3794 17.0014 92.5859 16.8691 92.8211Z" fill="#FEFEFE"/>
<path fill-rule="evenodd" clip-rule="evenodd" d="M28.1301 91.8457L16.6143 98.3304V99.174H18.0474L29.6345 92.6893V91.8457H28.1301Z" fill="#FEFEFE"/>
<path fill-rule="evenodd" clip-rule="evenodd" d="M22.4687 91.8457V94.7628H16.6143V96.2569H22.4687V99.174H23.7698V96.2569H29.6243V94.7628H23.7698V91.8457H22.4687Z" fill="#E42229"/>
<path fill-rule="evenodd" clip-rule="evenodd" d="M28.6489 91.8457L24.2886 94.3156H25.2643L29.6247 91.8457H28.6489ZM17.0009 92.6283C17.133 92.4962 17.194 92.364 17.3261 92.303L20.9039 94.3156H19.9891L17.0009 92.6283ZM25.2643 96.7143L29.6247 99.1842V98.6658L26.24 96.7854H25.2643V96.7143ZM20.9039 96.7143L16.6045 99.1842H17.5802L21.9406 96.7143H20.9039Z" fill="#E42229"/>
</g>
</g>
</g>
<defs>
<clipPath id="clip0_26003_111565">
<rect width="213.45" height="198.2" fill="white" transform="translate(0.959961 0.775391)"/>
</clipPath>
<clipPath id="clip1_26003_111565">
<rect width="213.45" height="198.2" fill="white" transform="translate(0.959961 0.775391)"/>
</clipPath>
<clipPath id="clip2_26003_111565">
<rect width="213.446" height="198.2" fill="white" transform="translate(0.961914 0.775391)"/>
</clipPath>
</defs>
</svg>
