<svg width="108" height="17" viewBox="0 0 108 17" fill="none" xmlns="http://www.w3.org/2000/svg">
<g clip-path="url(#clip0_26003_54540)">
<g clip-path="url(#clip1_26003_54540)">
<path d="M8.459 0.501953L10.918 5.48395L16.418 6.28395L12.439 10.16L13.378 15.636L8.459 13.053L3.54 15.639L4.479 10.163L0.5 6.28795L6 5.48795L8.459 0.501953Z" fill="#FFCB33" stroke="#FFCB33" stroke-width="0.999944" stroke-linecap="round" stroke-linejoin="round"/>
<path d="M31.0078 0.501953L33.4668 5.48395L38.9668 6.28395L34.9878 10.16L35.9268 15.636L31.0078 13.053L26.0888 15.639L27.0278 10.163L23.0488 6.28795L28.5488 5.48795L31.0078 0.501953Z" fill="#FFCB33" stroke="#FFCB33" stroke-width="0.999944" stroke-linecap="round" stroke-linejoin="round"/>
<path d="M53.5557 0.501953L56.0147 5.48395L61.5147 6.28395L57.5357 10.16L58.4747 15.636L53.5557 13.053L48.6367 15.639L49.5757 10.163L45.5967 6.28795L51.0967 5.48795L53.5557 0.501953Z" fill="#FFCB33" stroke="#FFCB33" stroke-width="0.999944" stroke-linecap="round" stroke-linejoin="round"/>
<path d="M76.1045 0.501953L78.5635 5.48395L84.0635 6.28395L80.0845 10.16L81.0235 15.636L76.1045 13.053L71.1855 15.639L72.1245 10.163L68.1455 6.28795L73.6455 5.48795L76.1045 0.501953Z" fill="#FFCB33" stroke="#FFCB33" stroke-width="0.999944" stroke-linecap="round" stroke-linejoin="round"/>
<path d="M98.6533 0.501953L101.112 5.48395L106.612 6.28395L102.633 10.16L103.572 15.636L98.6533 13.053L93.7343 15.639L94.6733 10.163L90.6943 6.28795L96.1943 5.48795L98.6533 0.501953Z" fill="#FFCB33" stroke="#FFCB33" stroke-width="0.999944" stroke-linecap="round" stroke-linejoin="round"/>
</g>
</g>
<defs>
<clipPath id="clip0_26003_54540">
<rect width="107.11" height="16.14" fill="white"/>
</clipPath>
<clipPath id="clip1_26003_54540">
<rect width="107.11" height="16.1361" fill="white" transform="translate(0 0.00195312)"/>
</clipPath>
</defs>
</svg>
