<svg width="56" height="10" viewBox="0 0 56 10" fill="none" xmlns="http://www.w3.org/2000/svg">
<path d="M4.95873 1.05859L6.19955 3.58266L8.97814 3.98566L6.97373 5.94764L7.45097 8.71562L4.95873 7.41117L2.46648 8.71562L2.94372 5.94764L0.928711 3.98566L3.7073 3.58266L4.95873 1.05859Z" fill="#FFCB33" stroke="#FFCB33" stroke-width="1.06053" stroke-linecap="round" stroke-linejoin="round"/>
<path d="M16.3699 1.05859L17.6107 3.58266L20.3893 3.98566L18.3849 5.94764L18.8621 8.71562L16.3699 7.41117L13.8776 8.71562L14.3549 5.94764L12.3398 3.98566L15.1184 3.58266L16.3699 1.05859Z" fill="#FFCB33" stroke="#FFCB33" stroke-width="1.06053" stroke-linecap="round" stroke-linejoin="round"/>
<path d="M27.781 1.05859L29.0218 3.58266L31.8004 3.98566L29.796 5.94764L30.2732 8.71562L27.781 7.41117L25.2887 8.71562L25.766 5.94764L23.751 3.98566L26.5296 3.58266L27.781 1.05859Z" fill="#FFCB33" stroke="#FFCB33" stroke-width="1.06053" stroke-linecap="round" stroke-linejoin="round"/>
<path d="M39.1931 1.05859L40.4339 3.58266L43.2125 3.98566L41.2081 5.94764L41.6853 8.71562L39.1931 7.41117L36.7009 8.71562L37.1781 5.94764L35.1631 3.98566L37.9417 3.58266L39.1931 1.05859Z" fill="#FFCB33" stroke="#FFCB33" stroke-width="1.06053" stroke-linecap="round" stroke-linejoin="round"/>
<path d="M50.5935 1.05859L51.8343 3.58266L54.6129 3.98566L52.6085 5.94764L53.0857 8.71562L50.5935 7.41117L48.1012 8.71562L48.5785 5.94764L46.5635 3.98566L49.3421 3.58266L50.5935 1.05859Z" stroke="#FFCB33" stroke-width="1.06053" stroke-linecap="round" stroke-linejoin="round"/>
</svg>
