<svg width="108" height="17" viewBox="0 0 108 17" fill="none" xmlns="http://www.w3.org/2000/svg">
<g clip-path="url(#clip0_26001_50121)">
<g clip-path="url(#clip1_26001_50121)">
<g clip-path="url(#clip2_26001_50121)">
<path d="M8.92137 1.08984L11.3793 6.06968L16.8769 6.86934L12.8996 10.7437L13.8382 16.2173L8.92137 13.6354L4.0045 16.2203L4.94309 10.7467L0.96582 6.87333L6.46343 6.07368L8.92137 1.08984Z" stroke="#FFCB33" stroke-width="0.999566" stroke-linecap="round" stroke-linejoin="round"/>
<path d="M31.4614 1.08984L33.9193 6.06968L39.417 6.86934L35.4397 10.7437L36.3783 16.2173L31.4614 13.6354L26.5445 16.2203L27.4831 10.7467L23.5059 6.87333L29.0035 6.07368L31.4614 1.08984Z" stroke="#FFCB33" stroke-width="0.999566" stroke-linecap="round" stroke-linejoin="round"/>
<path d="M54.0005 1.08984L56.4584 6.06968L61.956 6.86934L57.9787 10.7437L58.9173 16.2173L54.0005 13.6354L49.0836 16.2203L50.0222 10.7467L46.0449 6.87333L51.5425 6.07368L54.0005 1.08984Z" stroke="#FFCB33" stroke-width="0.999566" stroke-linecap="round" stroke-linejoin="round"/>
<path d="M76.5405 1.08984L78.9984 6.06968L84.4961 6.86934L80.5188 10.7437L81.4574 16.2173L76.5405 13.6354L71.6236 16.2203L72.5622 10.7467L68.585 6.87333L74.0826 6.07368L76.5405 1.08984Z" stroke="#FFCB33" stroke-width="0.999566" stroke-linecap="round" stroke-linejoin="round"/>
<path d="M99.0805 1.08984L101.538 6.06968L107.036 6.86934L103.059 10.7437L103.997 16.2173L99.0805 13.6354L94.1637 16.2203L95.1023 10.7467L91.125 6.87333L96.6226 6.07368L99.0805 1.08984Z" stroke="#FFCB33" stroke-width="0.999566" stroke-linecap="round" stroke-linejoin="round"/>
</g>
</g>
</g>
<defs>
<clipPath id="clip0_26001_50121">
<rect width="107.11" height="16.13" fill="white" transform="translate(0.445312 0.589844)"/>
</clipPath>
<clipPath id="clip1_26001_50121">
<rect width="107.11" height="16.13" fill="white" transform="translate(0.445312 0.589844)"/>
</clipPath>
<clipPath id="clip2_26001_50121">
<rect width="107.07" height="16.13" fill="white" transform="translate(0.46582 0.589844)"/>
</clipPath>
</defs>
</svg>
