<svg width="82" height="51" viewBox="0 0 82 51" fill="none" xmlns="http://www.w3.org/2000/svg">
<path d="M71.053 48.39L80.1164 39.0919L80.2344 5.42978C80.3441 4.2521 80.0081 3.0761 79.2928 2.13413C79.0857 1.90432 78.8311 1.72221 78.5467 1.6004C78.2623 1.47858 77.9549 1.41995 77.6456 1.42856L8.43947 2.0174C5.14381 1.89937 3.73139 2.72296 3.02582 3.90063C2.32026 4.84224 1.72883 6.01861 1.84945 9.4323C1.73143 9.19754 1.96748 34.5018 1.96748 41.564C2.08551 43.6819 1.84945 45.9193 3.02712 47.3317C3.96874 48.8621 6.32278 49.4497 8.91157 49.2149C30.3327 49.0969 49.5178 48.6261 71.0556 48.3913L71.053 48.39Z" stroke="#CAC9C9" stroke-width="2.59398"/>
</svg>
