<svg width="24" height="23" viewBox="0 0 24 23" fill="none" xmlns="http://www.w3.org/2000/svg">
<path d="M10.6143 20.7676C10.6143 20.513 10.5656 20.2697 10.4683 20.0376C10.3709 19.8055 10.2324 19.5996 10.0527 19.4199C9.88802 19.2402 9.68962 19.1017 9.45752 19.0044C9.22542 18.9071 8.97461 18.8584 8.70508 18.8584C8.43555 18.8584 8.18473 18.9071 7.95264 19.0044C7.72054 19.1017 7.52214 19.2402 7.35742 19.4199C7.17773 19.5996 7.03923 19.8055 6.94189 20.0376C6.84456 20.2697 6.7959 20.513 6.7959 20.7676C6.7959 21.0371 6.84456 21.2879 6.94189 21.52C7.03923 21.7521 7.17773 21.958 7.35742 22.1377C7.52214 22.3024 7.72054 22.4372 7.95264 22.542C8.18473 22.6468 8.43555 22.6992 8.70508 22.6992C8.97461 22.6992 9.22542 22.6468 9.45752 22.542C9.68962 22.4372 9.88802 22.3024 10.0527 22.1377C10.2324 21.958 10.3709 21.7521 10.4683 21.52C10.5656 21.2879 10.6143 21.0371 10.6143 20.7676ZM21.1709 20.7676C21.1709 20.513 21.1185 20.2697 21.0137 20.0376C20.9089 19.8055 20.7741 19.5996 20.6094 19.4199C20.4297 19.2402 20.2238 19.1017 19.9917 19.0044C19.7596 18.9071 19.5088 18.8584 19.2393 18.8584C18.9847 18.8584 18.7414 18.9071 18.5093 19.0044C18.2772 19.1017 18.0713 19.2402 17.8916 19.4199C17.7119 19.5996 17.5734 19.8055 17.4761 20.0376C17.3787 20.2697 17.3301 20.513 17.3301 20.7676C17.3301 21.0371 17.3787 21.2879 17.4761 21.52C17.5734 21.7521 17.7119 21.958 17.8916 22.1377C18.0713 22.3024 18.2772 22.4372 18.5093 22.542C18.7414 22.6468 18.9847 22.6992 19.2393 22.6992C19.5088 22.6992 19.7596 22.6468 19.9917 22.542C20.2238 22.4372 20.4297 22.3024 20.6094 22.1377C20.7741 21.958 20.9089 21.7521 21.0137 21.52C21.1185 21.2879 21.1709 21.0371 21.1709 20.7676ZM6.99805 7.3584H20.9688L19.6436 14.2539C19.6286 14.3587 19.5911 14.4561 19.5312 14.5459C19.4714 14.6357 19.404 14.7181 19.3291 14.793C19.2393 14.8678 19.1419 14.924 19.0371 14.9614C18.9323 14.9989 18.8125 15.0176 18.6777 15.0176H9.33398C9.22917 15.0176 9.12435 15.0026 9.01953 14.9727C8.91471 14.9427 8.82487 14.8978 8.75 14.8379C8.66016 14.763 8.58154 14.6769 8.51416 14.5796C8.44678 14.4823 8.4056 14.3737 8.39062 14.2539L6.99805 7.3584ZM1.0459 2.57422H4.07812L4.90918 6.63965C4.9541 6.84928 5.06266 7.02148 5.23486 7.15625C5.40706 7.29102 5.60547 7.3584 5.83008 7.3584H6.99805L6.61621 5.44922H5.83008C5.56055 5.44922 5.33219 5.54281 5.14502 5.72998C4.95785 5.91715 4.86426 6.13802 4.86426 6.39258C4.86426 6.42253 4.868 6.44873 4.87549 6.47119C4.88298 6.49365 4.88672 6.51986 4.88672 6.5498C4.88672 6.56478 4.88672 6.57975 4.88672 6.59473C4.88672 6.6097 4.89421 6.62467 4.90918 6.63965L6.50391 14.6357C6.57878 14.9951 6.7098 15.3208 6.89697 15.6128C7.08415 15.9048 7.31999 16.1556 7.60449 16.3652C7.84408 16.5449 8.11735 16.6872 8.42432 16.792C8.73128 16.8968 9.04948 16.9492 9.37891 16.9492H18.6777C19.0371 16.9492 19.3815 16.8893 19.7109 16.7695C20.0404 16.6497 20.3324 16.4775 20.5869 16.2529C20.8265 16.0433 21.0249 15.8 21.1821 15.5229C21.3394 15.2459 21.4554 14.9502 21.5303 14.6357L23.0576 6.57227C23.1175 6.31771 23.0726 6.08187 22.9229 5.86475C22.7731 5.64762 22.5635 5.50912 22.2939 5.44922C22.264 5.44922 22.234 5.44922 22.2041 5.44922C22.1742 5.44922 22.1442 5.44922 22.1143 5.44922H6.61621L5.80762 1.42871C5.7627 1.2041 5.65413 1.01693 5.48193 0.867188C5.30973 0.717447 5.10384 0.642578 4.86426 0.642578H1.0459C0.776367 0.642578 0.548014 0.736166 0.36084 0.92334C0.173665 1.11051 0.0800781 1.33887 0.0800781 1.6084C0.0800781 1.87793 0.173665 2.10628 0.36084 2.29346C0.548014 2.48063 0.776367 2.57422 1.0459 2.57422Z" fill="black" fill-opacity="0.3"/>
</svg>
