<svg width="770" height="459" viewBox="0 0 770 459" fill="none" xmlns="http://www.w3.org/2000/svg">
<g filter="url(#filter0_d_26001_50085)">
<g clip-path="url(#clip0_26001_50085)">
<g clip-path="url(#clip1_26001_50085)">
<g clip-path="url(#clip2_26001_50085)">
<path d="M710.372 20H49.6277C36.0316 20 25.0098 31.0218 25.0098 44.6179V394.192C25.0098 407.788 36.0316 418.81 49.6277 418.81H710.372C723.968 418.81 734.99 407.788 734.99 394.192V44.6179C734.99 31.0218 723.968 20 710.372 20Z" fill="#5479FF"/>
<path d="M143.436 134.311V198.233H130.615V171.034H103.233V198.233H90.4121V134.311H103.233V160.594H130.615V134.311H143.436ZM178.602 199.057C174 199.128 169.458 198.008 165.415 195.808C161.539 193.671 158.348 190.48 156.212 186.604C153.923 182.393 152.77 177.658 152.869 172.867C152.77 168.064 153.956 163.322 156.302 159.13C158.508 155.243 161.761 152.054 165.69 149.926C169.768 147.732 174.338 146.613 178.969 146.676C183.599 146.613 188.169 147.732 192.247 149.926C196.177 152.054 199.429 155.243 201.635 159.13C203.981 163.322 205.167 168.064 205.068 172.867C205.166 177.681 203.947 182.431 201.543 186.604C199.277 190.49 195.98 193.675 192.018 195.807C187.892 198.005 183.277 199.123 178.602 199.057ZM178.602 187.885C180.894 187.892 183.15 187.308 185.151 186.19C187.245 185.01 188.948 183.244 190.05 181.108C191.338 178.556 191.968 175.723 191.881 172.866C191.881 168.043 190.614 164.333 188.081 161.738C186.887 160.48 185.444 159.484 183.844 158.814C182.243 158.144 180.521 157.815 178.786 157.847C177.064 157.809 175.354 158.136 173.768 158.807C172.181 159.478 170.755 160.477 169.582 161.738C167.109 164.333 165.873 168.042 165.873 172.866C165.873 177.69 167.079 181.399 169.491 183.993C170.641 185.257 172.051 186.259 173.623 186.931C175.195 187.602 176.893 187.928 178.602 187.885ZM284.833 147.498L269.998 198.233H256.169L246.92 162.792L237.67 198.233H223.751L208.823 147.498H221.827L230.802 186.145L240.509 147.498H254.063L263.587 186.053L272.562 147.498H284.833ZM310.292 172.683C310.202 167.955 311.254 163.275 313.361 159.041C315.235 155.26 318.14 152.085 321.741 149.883C325.306 147.74 329.397 146.63 333.557 146.678C336.824 146.671 340.049 147.408 342.99 148.831C345.805 150.123 348.258 152.089 350.133 154.555V130.465H363.137V198.233H350.129V190.724C348.471 193.291 346.165 195.376 343.444 196.768C340.357 198.345 336.927 199.132 333.462 199.057C329.322 199.094 325.257 197.95 321.744 195.76C318.143 193.498 315.242 190.28 313.364 186.466C311.252 182.183 310.199 177.456 310.292 172.683ZM350.221 172.866C350.299 170.082 349.669 167.325 348.391 164.851C347.256 162.712 345.542 160.935 343.446 159.723C341.415 158.545 339.108 157.928 336.76 157.937C334.445 157.919 332.168 158.52 330.163 159.677C328.096 160.891 326.401 162.649 325.264 164.76C323.962 167.193 323.315 169.923 323.386 172.682C323.323 175.469 323.969 178.226 325.264 180.695C326.404 182.866 328.114 184.687 330.209 185.96C332.182 187.161 334.448 187.795 336.758 187.792C339.105 187.801 341.412 187.185 343.443 186.007C345.539 184.795 347.253 183.018 348.388 180.878C349.667 178.406 350.298 175.649 350.221 172.866ZM398.208 199.057C393.605 199.128 389.063 198.008 385.02 195.808C381.144 193.671 377.953 190.48 375.816 186.604C373.527 182.393 372.375 177.658 372.473 172.867C372.375 168.064 373.561 163.322 375.908 159.13C378.113 155.243 381.366 152.054 385.295 149.926C389.373 147.732 393.944 146.613 398.574 146.676C403.205 146.613 407.775 147.732 411.853 149.926C415.782 152.054 419.035 155.243 421.24 159.13C423.587 163.322 424.772 168.064 424.674 172.867C424.771 177.681 423.552 182.431 421.148 186.604C418.882 190.491 415.586 193.676 411.624 195.808C407.498 198.006 402.882 199.124 398.208 199.057ZM398.208 187.885C400.5 187.892 402.755 187.308 404.755 186.19C406.849 185.01 408.552 183.244 409.654 181.108C410.943 178.556 411.572 175.723 411.486 172.866C411.486 168.043 410.219 164.333 407.686 161.738C406.491 160.48 405.048 159.484 403.448 158.814C401.847 158.144 400.125 157.814 398.39 157.847C396.668 157.809 394.958 158.136 393.372 158.807C391.785 159.478 390.359 160.477 389.187 161.738C386.714 164.333 385.478 168.042 385.478 172.866C385.478 177.69 386.684 181.399 389.095 183.993C390.246 185.258 391.655 186.26 393.228 186.931C394.8 187.603 396.499 187.928 398.208 187.885ZM481.27 171.767C481.283 173.422 481.16 175.076 480.903 176.712H443.81C443.931 179.971 445.31 183.056 447.656 185.32C449.925 187.4 452.913 188.517 455.99 188.434C460.752 188.434 464.14 186.389 466.155 182.298H479.983C478.56 187.122 475.602 191.35 471.558 194.34C467.409 197.485 462.313 199.057 456.269 199.057C451.681 199.132 447.152 198.012 443.128 195.808C439.284 193.674 436.136 190.479 434.061 186.604C431.831 182.374 430.713 177.647 430.812 172.867C430.706 168.063 431.808 163.309 434.015 159.041C436.049 155.178 439.168 151.995 442.99 149.883C447.066 147.689 451.64 146.585 456.269 146.678C460.781 146.601 465.24 147.67 469.226 149.785C472.984 151.803 476.072 154.874 478.11 158.622C480.271 162.661 481.359 167.187 481.27 171.767ZM467.991 168.101C468.018 166.599 467.711 165.109 467.094 163.739C466.476 162.37 465.563 161.154 464.419 160.18C462.042 158.175 459.01 157.115 455.902 157.203C452.963 157.118 450.1 158.148 447.89 160.088C445.633 162.187 444.218 165.035 443.908 168.101H467.991ZM510.025 199.057C506.184 199.12 502.375 198.355 498.856 196.814C495.77 195.483 493.075 193.387 491.026 190.724C489.143 188.266 488.042 185.298 487.867 182.207H500.776C500.895 183.171 501.213 184.1 501.71 184.936C502.207 185.771 502.871 186.495 503.661 187.06C505.478 188.386 507.687 189.064 509.935 188.984C511.948 189.1 513.948 188.588 515.659 187.518C516.291 187.118 516.812 186.563 517.173 185.906C517.533 185.25 517.721 184.513 517.719 183.764C517.723 182.963 517.485 182.18 517.036 181.518C516.586 180.856 515.946 180.345 515.201 180.054C512.615 178.918 509.933 178.015 507.186 177.357C504.024 176.634 500.917 175.685 497.891 174.518C495.484 173.545 493.348 172.006 491.663 170.031C489.825 167.725 488.896 164.825 489.053 161.88C489.036 159.125 489.885 156.434 491.48 154.188C493.247 151.748 495.657 149.846 498.44 148.693C501.816 147.281 505.451 146.594 509.109 146.678C515.154 146.678 519.977 148.188 523.579 151.208C525.368 152.718 526.823 154.586 527.848 156.691C528.873 158.797 529.446 161.093 529.531 163.433H517.26C517.202 162.5 516.948 161.589 516.514 160.761C516.08 159.932 515.476 159.205 514.742 158.626C513.007 157.36 510.888 156.73 508.743 156.84C506.87 156.726 505.005 157.172 503.386 158.121C502.791 158.503 502.305 159.033 501.976 159.659C501.647 160.285 501.487 160.985 501.509 161.692C501.504 162.521 501.744 163.333 502.2 164.026C502.656 164.718 503.306 165.26 504.07 165.584C506.623 166.763 509.293 167.668 512.037 168.285C515.122 169.017 518.151 169.966 521.103 171.124C523.5 172.111 525.621 173.666 527.284 175.653C529.112 177.952 530.069 180.822 529.985 183.758C530.021 186.573 529.172 189.329 527.558 191.635C525.796 194.07 523.384 195.958 520.598 197.084C517.247 198.461 513.648 199.133 510.025 199.057ZM559.022 172.683C558.931 167.955 559.983 163.275 562.088 159.041C563.954 155.269 566.842 152.096 570.422 149.883C573.968 147.737 578.045 146.626 582.19 146.678C585.641 146.6 589.057 147.387 592.126 148.968C594.803 150.356 597.135 152.328 598.949 154.737V147.502H611.862V198.233H598.948V190.815C597.179 193.302 594.839 195.328 592.125 196.723C589.03 198.326 585.582 199.129 582.098 199.057C577.97 199.098 573.917 197.954 570.421 195.76C566.842 193.487 563.958 190.271 562.087 186.466C559.978 182.183 558.927 177.456 559.022 172.683ZM598.95 172.866C599.028 170.083 598.397 167.326 597.118 164.853C595.983 162.714 594.27 160.937 592.173 159.725C590.143 158.546 587.835 157.93 585.488 157.939C583.173 157.921 580.895 158.522 578.89 159.679C576.823 160.893 575.129 162.651 573.991 164.762C572.69 167.195 572.043 169.925 572.115 172.684C572.051 175.471 572.697 178.228 573.991 180.697C575.132 182.868 576.841 184.689 578.937 185.962C580.909 187.163 583.175 187.797 585.484 187.794C587.831 187.803 590.139 187.187 592.169 186.009C594.266 184.797 595.98 183.02 597.115 180.88C598.394 178.407 599.025 175.649 598.948 172.866H598.95ZM652.523 146.771C658.568 146.771 663.452 148.679 667.176 152.495C670.9 156.311 672.76 161.636 672.756 168.47V198.233H659.935V170.21C659.935 166.18 658.928 163.082 656.913 160.915C655.851 159.817 654.566 158.958 653.144 158.398C651.723 157.837 650.197 157.588 648.671 157.666C647.124 157.585 645.578 157.833 644.133 158.393C642.689 158.953 641.379 159.812 640.291 160.915C638.246 163.082 637.224 166.18 637.224 170.21V198.233H624.407V147.498H637.228V153.822C638.967 151.601 641.212 149.827 643.775 148.649C646.514 147.377 649.502 146.734 652.521 146.766L652.523 146.771ZM137.575 277.131C137.588 278.787 137.466 280.441 137.209 282.077H100.119C100.24 285.335 101.619 288.421 103.966 290.685C106.234 292.765 109.223 293.881 112.299 293.799C117.061 293.799 120.45 291.753 122.465 287.663H136.293C134.87 292.487 131.912 296.715 127.868 299.705C123.716 302.85 118.618 304.422 112.574 304.421C107.986 304.495 103.458 303.375 99.433 301.171C95.5892 299.038 92.4413 295.842 90.3658 291.967C88.1356 287.738 87.0173 283.011 87.1162 278.23C87.0114 273.427 88.1131 268.674 90.3205 264.406C92.3541 260.543 95.4739 257.359 99.2952 255.248C103.372 253.054 107.946 251.95 112.574 252.043C117.087 251.965 121.546 253.034 125.533 255.15C129.29 257.169 132.376 260.241 134.412 263.989C136.574 268.027 137.664 272.552 137.575 277.131ZM124.296 273.465C124.323 271.964 124.016 270.475 123.399 269.106C122.781 267.737 121.868 266.521 120.725 265.547C118.348 263.542 115.316 262.483 112.208 262.57C109.268 262.485 106.405 263.516 104.194 265.456C101.938 267.553 100.522 270.4 100.211 273.465H124.296ZM168.987 304.236C164.859 304.299 160.761 303.52 156.944 301.946C153.567 300.57 150.636 298.287 148.476 295.349C146.368 292.38 145.247 288.824 145.271 285.183H159.007C159.039 286.354 159.303 287.507 159.782 288.576C160.261 289.645 160.947 290.608 161.8 291.411C163.73 293.025 166.202 293.844 168.714 293.7C171.246 293.846 173.747 293.083 175.765 291.548C176.595 290.868 177.257 290.007 177.701 289.03C178.145 288.054 178.359 286.988 178.326 285.916C178.357 285.061 178.219 284.209 177.92 283.408C177.622 282.606 177.168 281.872 176.586 281.246C175.361 279.981 173.876 278.997 172.235 278.361C169.881 277.458 167.482 276.678 165.047 276.027C161.594 275.058 158.212 273.849 154.928 272.409C152.29 271.183 149.994 269.328 148.242 267.006C146.381 264.594 145.45 261.374 145.45 257.345C145.369 253.836 146.36 250.386 148.289 247.454C150.265 244.577 153.032 242.335 156.256 240.998C159.964 239.446 163.955 238.681 167.974 238.754C174.568 238.754 179.925 240.357 184.047 243.562C188.168 246.768 190.442 251.24 190.869 256.978H176.771C176.726 255.922 176.453 254.889 175.97 253.948C175.488 253.008 174.808 252.183 173.977 251.53C172 250.017 169.55 249.254 167.063 249.377C164.895 249.268 162.762 249.956 161.065 251.309C160.297 252.013 159.696 252.88 159.307 253.847C158.919 254.814 158.753 255.856 158.821 256.896C158.798 257.683 158.936 258.468 159.228 259.2C159.519 259.933 159.958 260.598 160.516 261.154C161.727 262.337 163.158 263.271 164.729 263.902C166.407 264.604 168.773 265.413 171.825 266.329C175.298 267.303 178.695 268.527 181.991 269.992C184.66 271.249 186.986 273.135 188.767 275.487C190.66 277.929 191.606 281.134 191.606 285.103C191.622 288.463 190.701 291.761 188.948 294.627C187.071 297.652 184.372 300.08 181.166 301.628C177.371 303.452 173.196 304.347 168.987 304.239V304.236ZM215.508 239.673V303.598H202.687V239.676L215.508 239.673ZM297.838 239.673V303.598H285.017V262.021L267.891 303.598H258.184L240.967 262.021V303.598H228.146V239.676H242.707L263.038 287.205L283.368 239.676L297.838 239.673ZM402.604 252.863L387.768 303.598H373.939L364.69 268.157L355.441 303.598H341.521L326.593 252.863H339.597L348.572 291.509L358.279 252.863H371.833L381.357 291.418L390.332 252.863H402.604ZM432.092 304.422C427.49 304.492 422.947 303.373 418.904 301.172C415.028 299.036 411.837 295.844 409.701 291.968C407.412 287.757 406.26 283.023 406.358 278.231C406.26 273.428 407.446 268.686 409.793 264.495C411.999 260.608 415.251 257.419 419.18 255.29C423.281 253.155 427.836 252.039 432.459 252.039C437.082 252.039 441.638 253.155 445.738 255.29C449.667 257.419 452.92 260.608 455.125 264.495C457.472 268.686 458.657 273.428 458.559 278.231C458.656 283.046 457.437 287.796 455.033 291.968C452.767 295.855 449.471 299.04 445.509 301.172C441.382 303.371 436.767 304.488 432.092 304.422ZM432.092 293.249C434.384 293.257 436.639 292.673 438.639 291.556C440.734 290.376 442.437 288.61 443.539 286.473C444.828 283.922 445.458 281.088 445.371 278.231C445.371 273.408 444.104 269.699 441.571 267.104C440.376 265.845 438.933 264.849 437.333 264.179C435.732 263.509 434.01 263.18 432.275 263.212C430.553 263.175 428.843 263.502 427.257 264.173C425.67 264.844 424.244 265.843 423.072 267.104C420.6 269.699 419.363 273.408 419.363 278.231C419.363 283.054 420.569 286.764 422.98 289.359C424.131 290.623 425.54 291.625 427.112 292.296C428.685 292.967 430.383 293.292 432.092 293.249ZM480.812 260.739C482.411 258.053 484.696 255.841 487.431 254.328C490.167 252.816 493.255 252.057 496.38 252.13V265.588H492.992C488.962 265.588 485.925 266.534 483.879 268.427C481.833 270.319 480.811 273.616 480.812 278.317V303.598H467.991V252.863H480.812V260.739ZM535.026 303.598L517.809 281.985V303.598H504.988V235.829H517.809V274.384L534.845 252.863H551.512L529.165 278.322L551.693 303.598H535.026ZM576.328 237.478C582.678 237.478 587.791 239.203 591.668 242.653C595.545 246.102 597.483 250.849 597.483 256.893C597.483 262.876 595.56 267.438 591.713 270.58C587.867 273.722 582.769 275.294 576.42 275.297L576.053 282.348H564.789L564.331 266.78H568.452C573.764 266.78 577.854 266.078 580.724 264.674C583.593 263.27 585.028 260.705 585.028 256.981C585.087 255.811 584.911 254.64 584.51 253.539C584.109 252.438 583.491 251.429 582.693 250.571C581.853 249.758 580.854 249.127 579.759 248.717C578.664 248.307 577.496 248.128 576.328 248.19C575.139 248.117 573.948 248.282 572.823 248.675C571.699 249.068 570.664 249.681 569.78 250.479C568.978 251.316 568.357 252.309 567.955 253.396C567.553 254.483 567.38 255.641 567.445 256.798H555.357C555.239 253.318 556.063 249.87 557.742 246.819C559.427 243.853 561.963 241.461 565.022 239.951C568.538 238.232 572.416 237.384 576.328 237.478ZM570.375 304.242C569.327 304.279 568.281 304.109 567.298 303.739C566.316 303.37 565.416 302.809 564.652 302.089C563.942 301.389 563.378 300.555 562.992 299.636C562.607 298.716 562.409 297.729 562.409 296.732C562.409 295.735 562.607 294.747 562.992 293.828C563.378 292.908 563.942 292.074 564.652 291.374C565.416 290.654 566.316 290.093 567.298 289.724C568.28 289.354 569.326 289.183 570.375 289.221C571.404 289.186 572.428 289.358 573.388 289.728C574.348 290.098 575.223 290.658 575.962 291.373C577.37 292.801 578.16 294.725 578.16 296.731C578.16 298.736 577.37 300.661 575.962 302.088C575.223 302.803 574.347 303.363 573.388 303.732C572.428 304.102 571.403 304.274 570.375 304.239V304.242Z" fill="white"/>
<path opacity="0.5" d="M710.372 372.527H670.983C668.264 372.527 666.06 374.732 666.06 377.451V394.191C666.06 396.91 668.264 399.115 670.983 399.115H710.372C713.091 399.115 715.295 396.91 715.295 394.191V377.451C715.295 374.732 713.091 372.527 710.372 372.527Z" fill="black"/>
<path d="M674.056 382.63C674.055 382.053 674.179 381.482 674.418 380.957C674.658 380.432 675.008 379.965 675.444 379.587C676.412 378.836 677.617 378.455 678.842 378.514C679.69 378.491 680.532 378.662 681.303 379.016C681.939 379.309 682.477 379.782 682.849 380.375C683.201 380.96 683.382 381.632 683.371 382.315C683.395 383.065 683.17 383.803 682.731 384.412C682.355 384.946 681.821 385.348 681.205 385.564V385.643C681.924 385.85 682.553 386.294 682.987 386.904C683.438 387.592 683.662 388.405 683.627 389.227C683.64 389.966 683.453 390.694 683.086 391.335C682.71 391.965 682.154 392.469 681.49 392.782C680.698 393.149 679.832 393.328 678.96 393.304C677.658 393.362 676.377 392.965 675.336 392.182C674.858 391.775 674.478 391.267 674.222 390.695C673.967 390.122 673.842 389.5 673.859 388.873H676.537C676.537 389.162 676.596 389.448 676.709 389.713C676.823 389.979 676.989 390.219 677.197 390.419C677.668 390.827 678.279 391.035 678.901 391C679.183 391.018 679.466 390.978 679.732 390.881C679.998 390.785 680.242 390.634 680.447 390.439C680.628 390.245 680.77 390.018 680.863 389.769C680.956 389.521 680.999 389.256 680.988 388.991C681.018 388.668 680.965 388.344 680.834 388.047C680.703 387.751 680.498 387.493 680.24 387.297C679.531 386.905 678.724 386.727 677.916 386.785H677.345V384.521H677.916C679.78 384.521 680.712 383.897 680.712 382.65C680.727 382.407 680.689 382.163 680.603 381.936C680.516 381.709 680.382 381.502 680.21 381.33C679.807 380.991 679.288 380.822 678.763 380.857C678.503 380.841 678.243 380.876 677.998 380.963C677.752 381.049 677.527 381.184 677.335 381.36C676.997 381.701 676.791 382.151 676.754 382.63H674.056ZM687.349 393.344C687.124 393.352 686.899 393.315 686.688 393.236C686.476 393.156 686.283 393.036 686.119 392.881C685.962 392.733 685.838 392.555 685.755 392.356C685.671 392.158 685.631 391.944 685.636 391.729C685.631 391.513 685.671 391.3 685.755 391.101C685.838 390.903 685.962 390.724 686.119 390.577C686.283 390.422 686.476 390.301 686.688 390.222C686.899 390.142 687.124 390.106 687.349 390.114C687.571 390.106 687.791 390.143 687.997 390.223C688.204 390.302 688.392 390.423 688.551 390.577C688.705 390.725 688.827 390.905 688.908 391.103C688.99 391.301 689.029 391.514 689.023 391.729C689.029 391.943 688.99 392.156 688.908 392.354C688.827 392.553 688.705 392.732 688.551 392.881C688.392 393.035 688.204 393.155 687.997 393.234C687.791 393.314 687.571 393.351 687.349 393.344ZM687.349 385.19C687.124 385.198 686.899 385.162 686.688 385.082C686.476 385.003 686.283 384.882 686.119 384.727C685.962 384.58 685.838 384.401 685.755 384.203C685.671 384.004 685.631 383.79 685.636 383.575C685.631 383.36 685.671 383.146 685.755 382.948C685.838 382.749 685.962 382.57 686.119 382.423C686.283 382.268 686.476 382.148 686.688 382.068C686.899 381.989 687.124 381.952 687.349 381.96C687.571 381.953 687.791 381.99 687.997 382.069C688.204 382.149 688.392 382.269 688.551 382.423C688.705 382.572 688.827 382.751 688.908 382.949C688.99 383.148 689.029 383.361 689.023 383.575C689.029 383.789 688.99 384.003 688.908 384.201C688.827 384.399 688.705 384.578 688.551 384.727C688.392 384.881 688.204 385.001 687.997 385.081C687.791 385.161 687.571 385.198 687.349 385.19ZM691.859 390.094C693.12 389.044 694.124 388.167 694.873 387.465C695.581 386.809 696.209 386.072 696.744 385.269C697.209 384.611 697.469 383.83 697.492 383.024C697.525 382.459 697.358 381.901 697.019 381.448C696.836 381.248 696.609 381.093 696.357 380.994C696.104 380.895 695.832 380.855 695.562 380.877C695.275 380.861 694.989 380.912 694.725 381.026C694.462 381.141 694.229 381.316 694.046 381.537C693.665 382.058 693.47 382.693 693.494 383.339H690.816C690.794 382.677 690.907 382.018 691.15 381.401C691.392 380.785 691.757 380.224 692.224 379.754C693.149 378.926 694.36 378.488 695.601 378.533C696.226 378.492 696.853 378.576 697.445 378.78C698.037 378.985 698.582 379.306 699.048 379.725C699.452 380.138 699.768 380.631 699.974 381.171C700.181 381.711 700.275 382.288 700.249 382.866C700.246 383.901 699.96 384.916 699.422 385.801C698.903 386.692 698.267 387.51 697.531 388.233C696.822 388.922 695.897 389.753 694.755 390.724H700.564V393.009H690.835V390.961L691.859 390.094ZM701.963 381.389V378.849H706.709V393.206H703.873V381.389H701.963Z" fill="white"/>
<path opacity="0.8" d="M419.881 220.881C419.881 199.127 402.246 181.492 380.492 181.492C358.738 181.492 341.104 199.127 341.104 220.881C341.104 242.635 358.738 260.269 380.492 260.269C402.246 260.269 419.881 242.635 419.881 220.881Z" fill="#865AFF"/>
<path d="M374.649 209.848L392.824 221.531L374.649 233.215V209.848Z" stroke="white" stroke-width="1.96943" stroke-linecap="round" stroke-linejoin="round"/>
<path d="M380.492 247.468C395.175 247.468 407.079 235.564 407.079 220.88C407.079 206.197 395.175 194.293 380.492 194.293C365.808 194.293 353.904 206.197 353.904 220.88C353.904 235.564 365.808 247.468 380.492 247.468Z" stroke="white" stroke-width="1.96943"/>
</g>
</g>
</g>
</g>
<defs>
<filter id="filter0_d_26001_50085" x="0" y="0" width="770" height="458.809" filterUnits="userSpaceOnUse" color-interpolation-filters="sRGB">
<feFlood flood-opacity="0" result="BackgroundImageFix"/>
<feColorMatrix in="SourceAlpha" type="matrix" values="0 0 0 0 0 0 0 0 0 0 0 0 0 0 0 0 0 0 127 0" result="hardAlpha"/>
<feOffset dx="5" dy="10"/>
<feGaussianBlur stdDeviation="15"/>
<feComposite in2="hardAlpha" operator="out"/>
<feColorMatrix type="matrix" values="0 0 0 0 0 0 0 0 0 0 0 0 0 0 0 0 0 0 0.16 0"/>
<feBlend mode="normal" in2="BackgroundImageFix" result="effect1_dropShadow_26001_50085"/>
<feBlend mode="normal" in="SourceGraphic" in2="effect1_dropShadow_26001_50085" result="shape"/>
</filter>
<clipPath id="clip0_26001_50085">
<rect x="25" y="20" width="710" height="398.81" rx="25" fill="white"/>
</clipPath>
<clipPath id="clip1_26001_50085">
<rect width="710" height="398.81" fill="white" transform="translate(25 20)"/>
</clipPath>
<clipPath id="clip2_26001_50085">
<rect width="709.98" height="398.81" fill="white" transform="translate(25.0098 20)"/>
</clipPath>
</defs>
</svg>
