<svg width="200" height="65" viewBox="0 0 200 65" fill="none" xmlns="http://www.w3.org/2000/svg">
<g clip-path="url(#clip0_26003_50513)">
<g clip-path="url(#clip1_26003_50513)">
<g clip-path="url(#clip2_26003_50513)">
<path fill-rule="evenodd" clip-rule="evenodd" d="M57.2375 21.0772V38.7198H65.9202V31.9998C65.9202 27.5518 65.9415 25.1092 65.9842 24.7785C66.0675 24.1192 66.2932 23.4859 66.6455 22.9225C67.2428 22.0265 68.0962 21.6212 69.2695 21.6958C70.7841 21.7812 71.6801 22.6772 71.9468 24.3838C71.9895 24.6398 72.0108 27.3065 72.0108 31.7545V38.7198H80.6935V30.5918C80.6935 23.7438 80.6828 22.3358 80.5975 21.6532C80.3095 19.2105 79.4881 17.3332 78.0801 15.9252C76.8587 14.7018 75.255 13.9338 73.5362 13.7492C72.4799 13.6627 71.4173 13.6949 70.3681 13.8452C68.8798 14.1438 67.5158 14.8834 66.4535 15.9678L65.8455 16.5758V3.43449H57.2375V21.0772ZM149.515 3.70116L140.459 25.5998C140.459 25.6212 142.773 25.6212 145.6 25.6105L150.742 25.5892L155.317 14.5492L159.893 3.46649C159.893 3.44516 157.589 3.42383 154.763 3.42383H149.632L149.515 3.70116ZM38.3041 13.7278C36.3948 14.0158 34.9335 14.5492 33.4828 15.5092C31.9934 16.5354 30.7365 17.8635 29.7937 19.4071C28.851 20.9508 28.2436 22.6754 28.0108 24.4692C27.7548 26.2078 27.8615 28.3945 28.2881 30.0798C29.3548 34.3038 32.2028 37.5358 35.9361 38.7838C37.3015 39.2425 37.7921 39.3065 39.4668 39.3172C40.5884 39.4063 41.7161 39.2524 42.7728 38.8658C43.8294 38.4792 44.7902 37.8691 45.5895 37.0772L46.1441 36.5225V38.7198H54.5068V14.2505H46.1441V16.5118L45.7495 16.0958C44.9689 15.3066 44.0332 14.6878 43.0014 14.2784C41.9696 13.869 40.8642 13.6779 39.7548 13.7172C39.0508 13.7065 38.4001 13.7065 38.3041 13.7278ZM93.4615 13.7918C91.0935 14.1118 88.6935 15.1252 86.9228 16.5652C85.2051 17.9997 83.8899 19.8563 83.1064 21.9526C82.3228 24.0489 82.0978 26.313 82.4535 28.5225C83.2002 33.6318 86.8268 37.6425 91.8828 38.9332C93.0241 39.2212 94.0375 39.3385 95.3922 39.3385C97.7708 39.3385 99.5628 38.9332 101.547 37.9518C103.38 37.0483 104.961 35.706 106.15 34.0442C107.339 32.3825 108.099 30.4528 108.363 28.4265C108.865 25.0771 108.051 21.6631 106.091 18.9012C105.399 18.0177 104.62 17.2064 103.765 16.4798C101.883 15.0104 99.6387 14.0779 97.2695 13.7812C96.3095 13.6638 94.4215 13.6638 93.4615 13.7918ZM121.024 13.7812C118.684 14.0947 116.469 15.0221 114.603 16.4692C113.952 16.9705 112.757 18.2185 112.277 18.8905C110.317 21.6525 109.503 25.0664 110.005 28.4158C110.795 33.8558 114.731 38.0052 120.117 39.0718C121.141 39.2745 121.749 39.3278 122.976 39.3278C125.333 39.3278 127.339 38.8692 129.259 37.8772C134.347 35.2638 136.96 29.6318 135.797 23.7972C134.72 18.4105 130.443 14.5065 124.8 13.7705C123.544 13.6513 122.279 13.6549 121.024 13.7812ZM-0.117188 14.2932L5.07748 26.6025C7.93615 33.3545 10.2721 38.9012 10.2721 38.9438C10.2721 38.9758 9.42948 40.9918 8.40548 43.4025L6.53881 47.8185L11.1468 47.8292L15.7548 47.8078L22.6881 31.1145C26.4961 21.9305 29.6215 14.3785 29.6215 14.3358C29.6215 14.2718 28.6935 14.2612 25.0561 14.2718L20.4908 14.2932L17.6855 21.4078C16.7665 23.7794 15.8207 26.1404 14.8481 28.4905C14.8268 28.4692 13.5681 25.2692 12.0428 21.3758L9.26948 14.2932L4.57615 14.2718C1.99481 14.2612 -0.117188 14.2718 -0.117188 14.2932ZM42.5388 21.6745C43.4041 21.8807 44.1964 22.3196 44.83 22.9438C45.4637 23.5681 45.9144 24.3538 46.1335 25.2158C46.315 26.0667 46.315 26.9463 46.1335 27.7972C45.9141 28.6561 45.4675 29.4401 44.8406 30.067C44.2138 30.6938 43.4297 31.1404 42.5708 31.3598C41.3928 31.6821 40.1377 31.5643 39.0403 31.0283C37.9429 30.4924 37.0783 29.575 36.6081 28.4478C36.305 27.676 36.1895 26.8432 36.2711 26.018C36.3527 25.1927 36.6291 24.3987 37.0775 23.7012C37.6708 22.8449 38.5127 22.1914 39.4894 21.8289C40.4661 21.4665 41.5305 21.4126 42.5388 21.6745ZM142.496 27.7545C141.677 27.8499 140.888 28.1174 140.18 28.5395C139.471 28.9616 138.86 29.5288 138.387 30.2037C137.914 30.8787 137.588 31.6461 137.432 32.4557C137.277 33.2653 137.294 34.0987 137.483 34.9012C137.78 36.1265 138.484 37.2148 139.48 37.988C140.476 38.7611 141.705 39.1733 142.965 39.1572C143.729 39.1779 144.488 39.0375 145.194 38.7453C145.9 38.4531 146.536 38.0156 147.061 37.4612C147.619 36.9333 148.058 36.2936 148.35 35.584C148.642 34.8744 148.781 34.1109 148.757 33.3438C148.782 32.3823 148.551 31.4314 148.088 30.5882C147.625 29.745 146.947 29.0395 146.123 28.5438C145.026 27.9091 143.758 27.6332 142.496 27.7545Z" fill="#39007D"/>
<path fill-rule="evenodd" clip-rule="evenodd" d="M67.0295 41.5672C66.6248 41.6926 66.2537 41.9077 65.9438 42.1964C65.6338 42.4851 65.3929 42.84 65.2392 43.2347C65.0854 43.6294 65.0226 44.0537 65.0556 44.4761C65.0885 44.8984 65.2163 45.3078 65.4295 45.6739C65.6641 46.0792 66.2401 46.5806 66.7201 46.8152C67.1255 47.0072 67.1788 47.0179 67.9041 47.0179C68.6295 47.0179 68.6828 47.0072 69.0881 46.8152C69.6817 46.5163 70.1667 46.0388 70.4748 45.4499C70.6331 45.1152 70.7228 44.7522 70.7385 44.3823C70.7543 44.0124 70.6958 43.6431 70.5666 43.2961C70.4374 42.9491 70.24 42.6316 69.986 42.3621C69.7321 42.0927 69.4268 41.8768 69.0881 41.7272C68.6615 41.5246 68.5441 41.4926 68.0001 41.4819C67.6743 41.4362 67.3423 41.4654 67.0295 41.5672ZM59.7761 41.6952C58.6892 41.8765 57.683 42.3835 56.8907 43.1492C56.0983 43.9149 55.5571 44.9032 55.3388 45.9832C55.2535 46.3246 55.2001 46.8152 55.1681 47.4019L55.1361 48.2979H53.2588L53.2801 50.3566L53.3015 52.4152L54.2295 52.4366L55.1575 52.4579V62.2072H60.1921V52.4579L61.9095 52.4366L63.6268 52.4152L63.6481 50.3566L63.6695 48.2979H60.1921L60.2348 47.8392C60.3308 46.8259 60.7361 46.2606 61.5361 46.0259C62.1623 45.8665 62.8208 45.8887 63.4348 46.0899L63.8295 46.2179C63.8401 46.2179 63.8508 45.2686 63.8508 44.1166V42.0152L63.4881 41.8766C62.7779 41.6363 62.029 41.5314 61.2801 41.5672C60.6508 41.5779 60.1601 41.6206 59.7761 41.6952ZM80.3735 48.0206C79.3175 48.2446 78.4535 48.7672 77.8881 49.5139L77.6108 49.8872V48.3086H72.5121V62.2179H77.6108V58.4312C77.6108 56.2552 77.6321 54.4846 77.6748 54.2606C77.7601 53.7592 78.0588 53.1512 78.3361 52.9379C79.0721 52.3726 80.2348 52.5112 80.7148 53.2046C81.0988 53.7592 81.0881 53.6846 81.1201 58.1326L81.1415 62.2072H86.2188V57.6419C86.2188 52.7992 86.1975 52.2446 85.9308 51.3379C85.7243 50.5429 85.3037 49.8198 84.7148 49.2472C84.2043 48.7003 83.5499 48.3085 82.8268 48.1166C82.0223 47.9307 81.19 47.8981 80.3735 48.0206ZM93.2375 47.9672C92.4161 48.0846 91.1895 48.5646 90.5388 49.0339C89.0192 50.1784 87.9961 51.8619 87.6801 53.7379C87.5415 54.5166 87.5415 56.0632 87.6908 56.8099C87.9044 58.0029 88.3898 59.1307 89.1095 60.1059C89.8449 61.0923 90.8581 61.8365 92.0193 62.2432C93.1805 62.6499 94.4367 62.7005 95.6268 62.3886C96.3636 62.1814 97.0402 61.8011 97.6001 61.2792L98.1121 60.7992V62.1859H103.147V48.2766H98.1121V49.7059L97.7815 49.3539C97.0625 48.622 96.1279 48.1398 95.1148 47.9779C94.6135 47.9352 93.6855 47.9032 93.2375 47.9672ZM112.981 48.0312C112.085 48.2126 111.061 48.8526 110.528 49.5459L110.315 49.8339V48.2979L107.755 48.3192L105.195 48.3406L105.173 55.2739L105.163 62.2072H110.315V58.2606C110.315 54.0899 110.325 54.0046 110.613 53.4286C110.891 52.8952 111.413 52.5859 112.032 52.5859C112.576 52.5859 112.875 52.6926 113.205 53.0232C113.749 53.5672 113.728 53.3646 113.749 58.0686L113.771 62.2072H118.869L118.848 57.1619C118.827 52.1699 118.827 52.1059 118.688 51.5832C118.571 51.1756 118.418 50.7793 118.229 50.3992C118.046 49.9701 117.773 49.5848 117.429 49.2686C117.002 48.8045 116.467 48.4528 115.872 48.2446C114.943 47.9249 113.947 47.8514 112.981 48.0312ZM126.411 48.0206C125.35 48.1652 124.336 48.5448 123.441 49.1317C122.546 49.7185 121.793 50.4978 121.237 51.4126C120.57 52.568 120.237 53.8867 120.277 55.2206C120.213 56.2024 120.359 57.1868 120.706 58.1075C121.053 59.0281 121.594 59.8637 122.291 60.558C122.989 61.2523 123.827 61.7891 124.749 62.1325C125.671 62.4759 126.656 62.6177 127.637 62.5486C128.971 62.5486 129.483 62.4632 130.464 62.0579L130.965 61.8552L130.987 59.5192L131.008 57.1832L130.581 57.4286C129.963 57.7912 129.451 57.9406 128.672 57.9726C128.048 58.0445 127.417 57.9294 126.859 57.6419C126.325 57.3752 125.909 56.9379 125.632 56.3726C125.451 55.9779 125.429 55.9032 125.429 55.2846C125.429 54.7406 125.461 54.5592 125.579 54.2606C125.995 53.2152 126.976 52.5966 128.288 52.5326C129.227 52.4899 129.611 52.5859 130.944 53.2579C130.965 53.2686 130.987 52.2339 130.987 50.9539V48.6286L130.581 48.4686C129.252 47.9655 127.816 47.8112 126.411 48.0206ZM137.995 48.0206C136.144 48.3259 134.482 49.3337 133.355 50.8338C132.228 52.334 131.724 54.211 131.947 56.0739C132.029 57.3319 132.433 58.5478 133.12 59.6046C133.625 60.3395 134.27 60.9668 135.019 61.4502C135.768 61.9336 136.605 62.2635 137.483 62.4206C138.315 62.6019 140.48 62.5912 141.387 62.3886C142.718 62.1155 143.946 61.4722 144.928 60.5326C145.344 60.1251 145.696 59.6577 145.973 59.1459L143.808 58.3032L141.664 57.4819L141.355 57.8019C140.971 58.1966 140.651 58.3886 140.16 58.5166C138.667 58.9112 137.173 58.1219 136.928 56.8206L136.875 56.5432L141.664 56.5219L146.453 56.5006V55.3379C146.514 54.3363 146.36 53.3334 146.003 52.3955C145.647 51.4577 145.095 50.6063 144.384 49.8979C143.437 48.9575 142.229 48.3223 140.917 48.0739C140.277 47.9352 138.656 47.9032 137.995 48.0206ZM65.3441 55.2526V62.2072H70.4428V48.2979H65.3441V55.2526ZM140.032 51.9032C140.384 51.9886 140.608 52.1166 140.928 52.4152C141.237 52.7032 141.419 53.0019 141.504 53.3966L141.557 53.6526H139.232C136.619 53.6526 136.821 53.7059 137.045 53.1086C137.429 52.0846 138.709 51.5726 140.032 51.9032ZM96.1921 52.5966C96.8855 52.7672 97.6321 53.3966 97.9415 54.0366C98.1142 54.3889 98.2102 54.774 98.2231 55.1662C98.236 55.5584 98.1655 55.9489 98.0163 56.3118C97.8671 56.6748 97.6425 57.0019 97.3575 57.2717C97.0725 57.5414 96.7334 57.7476 96.3628 57.8766C95.8828 58.0472 95.0081 58.0686 94.5175 57.9086C94.0905 57.7711 93.7024 57.5339 93.3853 57.2168C93.0681 56.8996 92.831 56.5115 92.6935 56.0846C92.5903 55.7647 92.554 55.4271 92.5868 55.0926C92.6081 54.6126 92.6401 54.4739 92.8428 54.0686C93.1441 53.4732 93.6428 53.0009 94.2537 52.7324C94.8646 52.4639 95.5498 52.4159 96.1921 52.5966Z" fill="#7E1FFF"/>
<path fill-rule="evenodd" clip-rule="evenodd" d="M96.3203 21.7167C97.2449 21.8835 98.0996 22.3197 98.7771 22.9707C99.4545 23.6216 99.9246 24.4582 100.128 25.3753C100.278 26.0047 100.267 27.1673 100.096 27.818C99.8867 28.6453 99.4613 29.4021 98.8634 30.0112C98.2656 30.6202 97.5169 31.0597 96.6936 31.2847C96.1176 31.4447 94.6776 31.4447 94.1123 31.2847C93.0705 31.0099 92.1529 30.3896 91.5096 29.5254C90.8662 28.6611 90.5353 27.6041 90.571 26.5273C90.5456 25.7172 90.7273 24.914 91.0987 24.1936C91.4701 23.4731 92.019 22.8593 92.6936 22.41C93.7761 21.7407 95.0673 21.4938 96.3203 21.7167Z" fill="white"/>
<path opacity="0.12" d="M95.3602 31.5094C98.1172 31.5094 100.352 29.2744 100.352 26.5174C100.352 23.7604 98.1172 21.5254 95.3602 21.5254C92.6032 21.5254 90.3682 23.7604 90.3682 26.5174C90.3682 29.2744 92.6032 31.5094 95.3602 31.5094Z" fill="#36A83A"/>
<path fill-rule="evenodd" clip-rule="evenodd" d="M123.893 21.7056C125.021 21.8963 126.041 22.4906 126.763 23.3776C127.485 24.2646 127.86 25.3839 127.819 26.5269C127.85 27.6029 127.518 28.658 126.875 29.5215C126.232 30.3849 125.317 31.006 124.277 31.2843C123.712 31.4443 122.272 31.4443 121.696 31.2843C120.873 31.0593 120.124 30.6198 119.526 30.0108C118.928 29.4017 118.503 28.6449 118.293 27.8176C118.112 26.9703 118.112 26.0943 118.293 25.2469C118.552 24.2086 119.152 23.2874 119.997 22.6315C120.843 21.9756 121.884 21.6232 122.955 21.631C123.211 21.6203 123.627 21.6523 123.893 21.7056Z" fill="white"/>
<path opacity="0.12" fill-rule="evenodd" clip-rule="evenodd" d="M123.893 21.7057C125.021 21.8964 126.041 22.4906 126.763 23.3776C127.485 24.2646 127.86 25.3839 127.819 26.527C127.85 27.6029 127.518 28.6581 126.875 29.5215C126.232 30.3849 125.317 31.0061 124.277 31.2843C123.712 31.4443 122.272 31.4443 121.696 31.2843C120.873 31.0593 120.124 30.6199 119.526 30.0108C118.928 29.4018 118.503 28.6449 118.293 27.8176C118.112 26.9703 118.112 26.0943 118.293 25.247C118.552 24.2086 119.152 23.2874 119.997 22.6315C120.843 21.9756 121.884 21.6232 122.955 21.631C123.211 21.631 123.627 21.663 123.893 21.7057Z" fill="#36A83A"/>
</g>
</g>
</g>
<defs>
<clipPath id="clip0_26003_50513">
<rect width="200" height="64" fill="white" transform="translate(0 0.820312)"/>
</clipPath>
<clipPath id="clip1_26003_50513">
<rect width="160" height="64" fill="white" transform="translate(0 0.820312)"/>
</clipPath>
<clipPath id="clip2_26003_50513">
<rect width="160" height="64" fill="white" transform="translate(0 0.820312)"/>
</clipPath>
</defs>
</svg>
